%TF.GenerationSoftware,KiCad,Pcbnew,4.0.6-e0-6349~53~ubuntu16.04.1*%
%TF.CreationDate,2017-03-19T23:49:43+02:00*%
%TF.ProjectId,BLDC_controller,424C44435F636F6E74726F6C6C65722E,1.0*%
%TF.FileFunction,Paste,Top*%
%FSLAX46Y46*%
G04 Gerber Fmt 4.6, Leading zero omitted, Abs format (unit mm)*
G04 Created by KiCad (PCBNEW 4.0.6-e0-6349~53~ubuntu16.04.1) date Sun Mar 19 23:49:43 2017*
%MOMM*%
%LPD*%
G01*
G04 APERTURE LIST*
%ADD10C,0.100000*%
%ADD11R,0.500000X0.800000*%
%ADD12R,0.800000X0.500000*%
%ADD13R,1.050000X0.600000*%
%ADD14R,0.550000X0.890000*%
%ADD15R,0.500000X0.700000*%
%ADD16R,1.250000X1.450000*%
%ADD17R,0.900000X0.800000*%
%ADD18R,0.800000X0.900000*%
%ADD19R,0.300000X0.500000*%
%ADD20R,1.540000X1.300000*%
%ADD21R,0.740000X0.740000*%
%ADD22O,0.950000X0.150000*%
%ADD23O,0.150000X0.950000*%
%ADD24R,0.900000X2.600000*%
%ADD25R,0.620000X0.620000*%
%ADD26R,2.600000X1.400000*%
%ADD27R,0.540000X0.620000*%
G04 APERTURE END LIST*
D10*
D11*
X225800000Y-165615000D03*
X226650000Y-165615000D03*
X224950000Y-165615000D03*
X225800000Y-163315000D03*
X226650000Y-163315000D03*
X224950000Y-163315000D03*
X224950000Y-164465000D03*
X226650000Y-164465000D03*
D12*
X223100000Y-166340000D03*
X223100000Y-162590000D03*
X223100000Y-165065000D03*
D13*
X228825000Y-165100000D03*
X228825000Y-166370000D03*
X228825000Y-163830000D03*
X228825000Y-162560000D03*
D12*
X223100000Y-163865000D03*
D11*
X225800000Y-164465000D03*
X174800000Y-165615000D03*
X175650000Y-165615000D03*
X173950000Y-165615000D03*
X174800000Y-163315000D03*
X175650000Y-163315000D03*
X173950000Y-163315000D03*
X173950000Y-164465000D03*
X175650000Y-164465000D03*
D12*
X172100000Y-166340000D03*
X172100000Y-162590000D03*
X172100000Y-165065000D03*
D13*
X177825000Y-165100000D03*
X177825000Y-166370000D03*
X177825000Y-163830000D03*
X177825000Y-162560000D03*
D12*
X172100000Y-163865000D03*
D11*
X174800000Y-164465000D03*
X225800000Y-131615000D03*
X226650000Y-131615000D03*
X224950000Y-131615000D03*
X225800000Y-129315000D03*
X226650000Y-129315000D03*
X224950000Y-129315000D03*
X224950000Y-130465000D03*
X226650000Y-130465000D03*
D12*
X223100000Y-132340000D03*
X223100000Y-128590000D03*
X223100000Y-131065000D03*
D13*
X228825000Y-131100000D03*
X228825000Y-132370000D03*
X228825000Y-129830000D03*
X228825000Y-128560000D03*
D12*
X223100000Y-129865000D03*
D11*
X225800000Y-130465000D03*
X174800000Y-131615000D03*
X175650000Y-131615000D03*
X173950000Y-131615000D03*
X174800000Y-129315000D03*
X175650000Y-129315000D03*
X173950000Y-129315000D03*
X173950000Y-130465000D03*
X175650000Y-130465000D03*
D12*
X172100000Y-132340000D03*
X172100000Y-128590000D03*
X172100000Y-131065000D03*
D13*
X177825000Y-131100000D03*
X177825000Y-132370000D03*
X177825000Y-129830000D03*
X177825000Y-128560000D03*
D12*
X172100000Y-129865000D03*
D11*
X174800000Y-130465000D03*
X225800000Y-97615000D03*
X226650000Y-97615000D03*
X224950000Y-97615000D03*
X225800000Y-95315000D03*
X226650000Y-95315000D03*
X224950000Y-95315000D03*
X224950000Y-96465000D03*
X226650000Y-96465000D03*
D12*
X223100000Y-98340000D03*
X223100000Y-94590000D03*
X223100000Y-97065000D03*
D13*
X228825000Y-97100000D03*
X228825000Y-98370000D03*
X228825000Y-95830000D03*
X228825000Y-94560000D03*
D12*
X223100000Y-95865000D03*
D11*
X225800000Y-96465000D03*
X225800000Y-158055000D03*
X226650000Y-158055000D03*
X224950000Y-158055000D03*
X225800000Y-155755000D03*
X226650000Y-155755000D03*
X224950000Y-155755000D03*
X224950000Y-156905000D03*
X226650000Y-156905000D03*
D12*
X223100000Y-158780000D03*
X223100000Y-155030000D03*
X223100000Y-157505000D03*
D13*
X228825000Y-157540000D03*
X228825000Y-158810000D03*
X228825000Y-156270000D03*
X228825000Y-155000000D03*
D12*
X223100000Y-156305000D03*
D11*
X225800000Y-156905000D03*
X174800000Y-158055000D03*
X175650000Y-158055000D03*
X173950000Y-158055000D03*
X174800000Y-155755000D03*
X175650000Y-155755000D03*
X173950000Y-155755000D03*
X173950000Y-156905000D03*
X175650000Y-156905000D03*
D12*
X172100000Y-158780000D03*
X172100000Y-155030000D03*
X172100000Y-157505000D03*
D13*
X177825000Y-157540000D03*
X177825000Y-158810000D03*
X177825000Y-156270000D03*
X177825000Y-155000000D03*
D12*
X172100000Y-156305000D03*
D11*
X174800000Y-156905000D03*
X225800000Y-124055000D03*
X226650000Y-124055000D03*
X224950000Y-124055000D03*
X225800000Y-121755000D03*
X226650000Y-121755000D03*
X224950000Y-121755000D03*
X224950000Y-122905000D03*
X226650000Y-122905000D03*
D12*
X223100000Y-124780000D03*
X223100000Y-121030000D03*
X223100000Y-123505000D03*
D13*
X228825000Y-123540000D03*
X228825000Y-124810000D03*
X228825000Y-122270000D03*
X228825000Y-121000000D03*
D12*
X223100000Y-122305000D03*
D11*
X225800000Y-122905000D03*
X174800000Y-124055000D03*
X175650000Y-124055000D03*
X173950000Y-124055000D03*
X174800000Y-121755000D03*
X175650000Y-121755000D03*
X173950000Y-121755000D03*
X173950000Y-122905000D03*
X175650000Y-122905000D03*
D12*
X172100000Y-124780000D03*
X172100000Y-121030000D03*
X172100000Y-123505000D03*
D13*
X177825000Y-123540000D03*
X177825000Y-124810000D03*
X177825000Y-122270000D03*
X177825000Y-121000000D03*
D12*
X172100000Y-122305000D03*
D11*
X174800000Y-122905000D03*
X225800000Y-90055000D03*
X226650000Y-90055000D03*
X224950000Y-90055000D03*
X225800000Y-87755000D03*
X226650000Y-87755000D03*
X224950000Y-87755000D03*
X224950000Y-88905000D03*
X226650000Y-88905000D03*
D12*
X223100000Y-90780000D03*
X223100000Y-87030000D03*
X223100000Y-89505000D03*
D13*
X228825000Y-89540000D03*
X228825000Y-90810000D03*
X228825000Y-88270000D03*
X228825000Y-87000000D03*
D12*
X223100000Y-88305000D03*
D11*
X225800000Y-88905000D03*
D14*
X216460000Y-173005000D03*
X215040000Y-173005000D03*
X165460000Y-173005000D03*
X164040000Y-173005000D03*
X216460000Y-139005000D03*
X215040000Y-139005000D03*
X165460000Y-139005000D03*
X164040000Y-139005000D03*
X216460000Y-105005000D03*
X215040000Y-105005000D03*
D15*
X213000000Y-173305000D03*
X213000000Y-175705000D03*
X162000000Y-173305000D03*
X162000000Y-175705000D03*
X213000000Y-139305000D03*
X213000000Y-141705000D03*
X162000000Y-139305000D03*
X162000000Y-141705000D03*
X213000000Y-105305000D03*
X213000000Y-107705000D03*
D14*
X216460000Y-175005000D03*
X215040000Y-175005000D03*
X165460000Y-175005000D03*
X164040000Y-175005000D03*
X216460000Y-141005000D03*
X215040000Y-141005000D03*
X165460000Y-141005000D03*
X164040000Y-141005000D03*
X216460000Y-107005000D03*
X215040000Y-107005000D03*
D16*
X220600000Y-177600000D03*
X218600000Y-177600000D03*
X169600000Y-177600000D03*
X167600000Y-177600000D03*
X220600000Y-143600000D03*
X218600000Y-143600000D03*
X169600000Y-143600000D03*
X167600000Y-143600000D03*
X220600000Y-109600000D03*
X218600000Y-109600000D03*
D11*
X225800000Y-173405000D03*
X226650000Y-173405000D03*
X224950000Y-173405000D03*
X225800000Y-171105000D03*
X226650000Y-171105000D03*
X224950000Y-171105000D03*
X224950000Y-172255000D03*
X226650000Y-172255000D03*
D12*
X223100000Y-174130000D03*
X223100000Y-170380000D03*
X223100000Y-172855000D03*
D13*
X228825000Y-172890000D03*
X228825000Y-174160000D03*
X228825000Y-171620000D03*
X228825000Y-170350000D03*
D12*
X223100000Y-171655000D03*
D11*
X225800000Y-172255000D03*
X174800000Y-173405000D03*
X175650000Y-173405000D03*
X173950000Y-173405000D03*
X174800000Y-171105000D03*
X175650000Y-171105000D03*
X173950000Y-171105000D03*
X173950000Y-172255000D03*
X175650000Y-172255000D03*
D12*
X172100000Y-174130000D03*
X172100000Y-170380000D03*
X172100000Y-172855000D03*
D13*
X177825000Y-172890000D03*
X177825000Y-174160000D03*
X177825000Y-171620000D03*
X177825000Y-170350000D03*
D12*
X172100000Y-171655000D03*
D11*
X174800000Y-172255000D03*
X225800000Y-139405000D03*
X226650000Y-139405000D03*
X224950000Y-139405000D03*
X225800000Y-137105000D03*
X226650000Y-137105000D03*
X224950000Y-137105000D03*
X224950000Y-138255000D03*
X226650000Y-138255000D03*
D12*
X223100000Y-140130000D03*
X223100000Y-136380000D03*
X223100000Y-138855000D03*
D13*
X228825000Y-138890000D03*
X228825000Y-140160000D03*
X228825000Y-137620000D03*
X228825000Y-136350000D03*
D12*
X223100000Y-137655000D03*
D11*
X225800000Y-138255000D03*
X174800000Y-139405000D03*
X175650000Y-139405000D03*
X173950000Y-139405000D03*
X174800000Y-137105000D03*
X175650000Y-137105000D03*
X173950000Y-137105000D03*
X173950000Y-138255000D03*
X175650000Y-138255000D03*
D12*
X172100000Y-140130000D03*
X172100000Y-136380000D03*
X172100000Y-138855000D03*
D13*
X177825000Y-138890000D03*
X177825000Y-140160000D03*
X177825000Y-137620000D03*
X177825000Y-136350000D03*
D12*
X172100000Y-137655000D03*
D11*
X174800000Y-138255000D03*
X225800000Y-105405000D03*
X226650000Y-105405000D03*
X224950000Y-105405000D03*
X225800000Y-103105000D03*
X226650000Y-103105000D03*
X224950000Y-103105000D03*
X224950000Y-104255000D03*
X226650000Y-104255000D03*
D12*
X223100000Y-106130000D03*
X223100000Y-102380000D03*
X223100000Y-104855000D03*
D13*
X228825000Y-104890000D03*
X228825000Y-106160000D03*
X228825000Y-103620000D03*
X228825000Y-102350000D03*
D12*
X223100000Y-103655000D03*
D11*
X225800000Y-104255000D03*
D17*
X202000000Y-160580000D03*
X202000000Y-158920000D03*
X151000000Y-160580000D03*
X151000000Y-158920000D03*
X202000000Y-126580000D03*
X202000000Y-124920000D03*
X151000000Y-126580000D03*
X151000000Y-124920000D03*
X202000000Y-92580000D03*
X202000000Y-90920000D03*
D14*
X211960000Y-154300000D03*
X210540000Y-154300000D03*
X160960000Y-154300000D03*
X159540000Y-154300000D03*
X211960000Y-120300000D03*
X210540000Y-120300000D03*
X160960000Y-120300000D03*
X159540000Y-120300000D03*
X211960000Y-86300000D03*
X210540000Y-86300000D03*
D15*
X209550000Y-158600000D03*
X209550000Y-156200000D03*
X158550000Y-158600000D03*
X158550000Y-156200000D03*
X209550000Y-124600000D03*
X209550000Y-122200000D03*
X158550000Y-124600000D03*
X158550000Y-122200000D03*
X209550000Y-90600000D03*
X209550000Y-88200000D03*
X208850000Y-155100000D03*
X208850000Y-152700000D03*
X157850000Y-155100000D03*
X157850000Y-152700000D03*
X208850000Y-121100000D03*
X208850000Y-118700000D03*
X157850000Y-121100000D03*
X157850000Y-118700000D03*
X208850000Y-87100000D03*
X208850000Y-84700000D03*
D18*
X211680000Y-162200000D03*
X210020000Y-162200000D03*
X160680000Y-162200000D03*
X159020000Y-162200000D03*
X211680000Y-128200000D03*
X210020000Y-128200000D03*
X160680000Y-128200000D03*
X159020000Y-128200000D03*
X211680000Y-94200000D03*
X210020000Y-94200000D03*
D14*
X212560000Y-158500000D03*
X211140000Y-158500000D03*
X161560000Y-158500000D03*
X160140000Y-158500000D03*
X212560000Y-124500000D03*
X211140000Y-124500000D03*
X161560000Y-124500000D03*
X160140000Y-124500000D03*
X212560000Y-90500000D03*
X211140000Y-90500000D03*
X212560000Y-156900000D03*
X211140000Y-156900000D03*
X161560000Y-156900000D03*
X160140000Y-156900000D03*
X212560000Y-122900000D03*
X211140000Y-122900000D03*
X161560000Y-122900000D03*
X160140000Y-122900000D03*
X212560000Y-88900000D03*
X211140000Y-88900000D03*
X211160000Y-150300000D03*
X209740000Y-150300000D03*
X160160000Y-150300000D03*
X158740000Y-150300000D03*
X211160000Y-116300000D03*
X209740000Y-116300000D03*
X160160000Y-116300000D03*
X158740000Y-116300000D03*
X211160000Y-82300000D03*
X209740000Y-82300000D03*
D19*
X201150000Y-175250000D03*
X200250000Y-175250000D03*
X150150000Y-175250000D03*
X149250000Y-175250000D03*
X201150000Y-141250000D03*
X200250000Y-141250000D03*
X150150000Y-141250000D03*
X149250000Y-141250000D03*
X201150000Y-107250000D03*
X200250000Y-107250000D03*
D14*
X201640000Y-172100000D03*
X203060000Y-172100000D03*
X150640000Y-172100000D03*
X152060000Y-172100000D03*
X201640000Y-138100000D03*
X203060000Y-138100000D03*
X150640000Y-138100000D03*
X152060000Y-138100000D03*
X201640000Y-104100000D03*
X203060000Y-104100000D03*
D17*
X200000000Y-168870000D03*
X200000000Y-170530000D03*
X149000000Y-168870000D03*
X149000000Y-170530000D03*
X200000000Y-134870000D03*
X200000000Y-136530000D03*
X149000000Y-134870000D03*
X149000000Y-136530000D03*
X200000000Y-100870000D03*
X200000000Y-102530000D03*
D14*
X201560000Y-173750000D03*
X200140000Y-173750000D03*
X150560000Y-173750000D03*
X149140000Y-173750000D03*
X201560000Y-139750000D03*
X200140000Y-139750000D03*
X150560000Y-139750000D03*
X149140000Y-139750000D03*
X201560000Y-105750000D03*
X200140000Y-105750000D03*
D16*
X197750000Y-169900000D03*
X195750000Y-169900000D03*
X146750000Y-169900000D03*
X144750000Y-169900000D03*
X197750000Y-135900000D03*
X195750000Y-135900000D03*
X146750000Y-135900000D03*
X144750000Y-135900000D03*
X197750000Y-101900000D03*
X195750000Y-101900000D03*
D20*
X197500000Y-172235000D03*
X197500000Y-176265000D03*
X146500000Y-172235000D03*
X146500000Y-176265000D03*
X197500000Y-138235000D03*
X197500000Y-142265000D03*
X146500000Y-138235000D03*
X146500000Y-142265000D03*
X197500000Y-104235000D03*
X197500000Y-108265000D03*
D21*
X205950000Y-166325000D03*
X204550000Y-166325000D03*
X205950000Y-164925000D03*
D22*
X201725000Y-162875000D03*
X201725000Y-163375000D03*
X201725000Y-163875000D03*
X201725000Y-164375000D03*
X201725000Y-164875000D03*
X201725000Y-165375000D03*
X201725000Y-165875000D03*
X201725000Y-166375000D03*
X201725000Y-166875000D03*
X201725000Y-167375000D03*
X201725000Y-167875000D03*
X201725000Y-168375000D03*
D23*
X202500000Y-169150000D03*
X203000000Y-169150000D03*
X203500000Y-169150000D03*
X204000000Y-169150000D03*
X204500000Y-169150000D03*
X205000000Y-169150000D03*
X205500000Y-169150000D03*
X206000000Y-169150000D03*
X206500000Y-169150000D03*
X207000000Y-169150000D03*
X207500000Y-169150000D03*
X208000000Y-169150000D03*
D22*
X208775000Y-168375000D03*
X208775000Y-167875000D03*
X208775000Y-167375000D03*
X208775000Y-166875000D03*
X208775000Y-166375000D03*
X208775000Y-165875000D03*
X208775000Y-165375000D03*
X208775000Y-164875000D03*
X208775000Y-164375000D03*
X208775000Y-163875000D03*
X208775000Y-163375000D03*
X208775000Y-162875000D03*
D23*
X208000000Y-162100000D03*
X207500000Y-162100000D03*
X207000000Y-162100000D03*
X206500000Y-162100000D03*
X206000000Y-162100000D03*
X205500000Y-162100000D03*
X205000000Y-162100000D03*
X204500000Y-162100000D03*
X204000000Y-162100000D03*
X203500000Y-162100000D03*
X203000000Y-162100000D03*
X202500000Y-162100000D03*
D21*
X204550000Y-164925000D03*
X154950000Y-166325000D03*
X153550000Y-166325000D03*
X154950000Y-164925000D03*
D22*
X150725000Y-162875000D03*
X150725000Y-163375000D03*
X150725000Y-163875000D03*
X150725000Y-164375000D03*
X150725000Y-164875000D03*
X150725000Y-165375000D03*
X150725000Y-165875000D03*
X150725000Y-166375000D03*
X150725000Y-166875000D03*
X150725000Y-167375000D03*
X150725000Y-167875000D03*
X150725000Y-168375000D03*
D23*
X151500000Y-169150000D03*
X152000000Y-169150000D03*
X152500000Y-169150000D03*
X153000000Y-169150000D03*
X153500000Y-169150000D03*
X154000000Y-169150000D03*
X154500000Y-169150000D03*
X155000000Y-169150000D03*
X155500000Y-169150000D03*
X156000000Y-169150000D03*
X156500000Y-169150000D03*
X157000000Y-169150000D03*
D22*
X157775000Y-168375000D03*
X157775000Y-167875000D03*
X157775000Y-167375000D03*
X157775000Y-166875000D03*
X157775000Y-166375000D03*
X157775000Y-165875000D03*
X157775000Y-165375000D03*
X157775000Y-164875000D03*
X157775000Y-164375000D03*
X157775000Y-163875000D03*
X157775000Y-163375000D03*
X157775000Y-162875000D03*
D23*
X157000000Y-162100000D03*
X156500000Y-162100000D03*
X156000000Y-162100000D03*
X155500000Y-162100000D03*
X155000000Y-162100000D03*
X154500000Y-162100000D03*
X154000000Y-162100000D03*
X153500000Y-162100000D03*
X153000000Y-162100000D03*
X152500000Y-162100000D03*
X152000000Y-162100000D03*
X151500000Y-162100000D03*
D21*
X153550000Y-164925000D03*
X205950000Y-132325000D03*
X204550000Y-132325000D03*
X205950000Y-130925000D03*
D22*
X201725000Y-128875000D03*
X201725000Y-129375000D03*
X201725000Y-129875000D03*
X201725000Y-130375000D03*
X201725000Y-130875000D03*
X201725000Y-131375000D03*
X201725000Y-131875000D03*
X201725000Y-132375000D03*
X201725000Y-132875000D03*
X201725000Y-133375000D03*
X201725000Y-133875000D03*
X201725000Y-134375000D03*
D23*
X202500000Y-135150000D03*
X203000000Y-135150000D03*
X203500000Y-135150000D03*
X204000000Y-135150000D03*
X204500000Y-135150000D03*
X205000000Y-135150000D03*
X205500000Y-135150000D03*
X206000000Y-135150000D03*
X206500000Y-135150000D03*
X207000000Y-135150000D03*
X207500000Y-135150000D03*
X208000000Y-135150000D03*
D22*
X208775000Y-134375000D03*
X208775000Y-133875000D03*
X208775000Y-133375000D03*
X208775000Y-132875000D03*
X208775000Y-132375000D03*
X208775000Y-131875000D03*
X208775000Y-131375000D03*
X208775000Y-130875000D03*
X208775000Y-130375000D03*
X208775000Y-129875000D03*
X208775000Y-129375000D03*
X208775000Y-128875000D03*
D23*
X208000000Y-128100000D03*
X207500000Y-128100000D03*
X207000000Y-128100000D03*
X206500000Y-128100000D03*
X206000000Y-128100000D03*
X205500000Y-128100000D03*
X205000000Y-128100000D03*
X204500000Y-128100000D03*
X204000000Y-128100000D03*
X203500000Y-128100000D03*
X203000000Y-128100000D03*
X202500000Y-128100000D03*
D21*
X204550000Y-130925000D03*
X154950000Y-132325000D03*
X153550000Y-132325000D03*
X154950000Y-130925000D03*
D22*
X150725000Y-128875000D03*
X150725000Y-129375000D03*
X150725000Y-129875000D03*
X150725000Y-130375000D03*
X150725000Y-130875000D03*
X150725000Y-131375000D03*
X150725000Y-131875000D03*
X150725000Y-132375000D03*
X150725000Y-132875000D03*
X150725000Y-133375000D03*
X150725000Y-133875000D03*
X150725000Y-134375000D03*
D23*
X151500000Y-135150000D03*
X152000000Y-135150000D03*
X152500000Y-135150000D03*
X153000000Y-135150000D03*
X153500000Y-135150000D03*
X154000000Y-135150000D03*
X154500000Y-135150000D03*
X155000000Y-135150000D03*
X155500000Y-135150000D03*
X156000000Y-135150000D03*
X156500000Y-135150000D03*
X157000000Y-135150000D03*
D22*
X157775000Y-134375000D03*
X157775000Y-133875000D03*
X157775000Y-133375000D03*
X157775000Y-132875000D03*
X157775000Y-132375000D03*
X157775000Y-131875000D03*
X157775000Y-131375000D03*
X157775000Y-130875000D03*
X157775000Y-130375000D03*
X157775000Y-129875000D03*
X157775000Y-129375000D03*
X157775000Y-128875000D03*
D23*
X157000000Y-128100000D03*
X156500000Y-128100000D03*
X156000000Y-128100000D03*
X155500000Y-128100000D03*
X155000000Y-128100000D03*
X154500000Y-128100000D03*
X154000000Y-128100000D03*
X153500000Y-128100000D03*
X153000000Y-128100000D03*
X152500000Y-128100000D03*
X152000000Y-128100000D03*
X151500000Y-128100000D03*
D21*
X153550000Y-130925000D03*
X205950000Y-98325000D03*
X204550000Y-98325000D03*
X205950000Y-96925000D03*
D22*
X201725000Y-94875000D03*
X201725000Y-95375000D03*
X201725000Y-95875000D03*
X201725000Y-96375000D03*
X201725000Y-96875000D03*
X201725000Y-97375000D03*
X201725000Y-97875000D03*
X201725000Y-98375000D03*
X201725000Y-98875000D03*
X201725000Y-99375000D03*
X201725000Y-99875000D03*
X201725000Y-100375000D03*
D23*
X202500000Y-101150000D03*
X203000000Y-101150000D03*
X203500000Y-101150000D03*
X204000000Y-101150000D03*
X204500000Y-101150000D03*
X205000000Y-101150000D03*
X205500000Y-101150000D03*
X206000000Y-101150000D03*
X206500000Y-101150000D03*
X207000000Y-101150000D03*
X207500000Y-101150000D03*
X208000000Y-101150000D03*
D22*
X208775000Y-100375000D03*
X208775000Y-99875000D03*
X208775000Y-99375000D03*
X208775000Y-98875000D03*
X208775000Y-98375000D03*
X208775000Y-97875000D03*
X208775000Y-97375000D03*
X208775000Y-96875000D03*
X208775000Y-96375000D03*
X208775000Y-95875000D03*
X208775000Y-95375000D03*
X208775000Y-94875000D03*
D23*
X208000000Y-94100000D03*
X207500000Y-94100000D03*
X207000000Y-94100000D03*
X206500000Y-94100000D03*
X206000000Y-94100000D03*
X205500000Y-94100000D03*
X205000000Y-94100000D03*
X204500000Y-94100000D03*
X204000000Y-94100000D03*
X203500000Y-94100000D03*
X203000000Y-94100000D03*
X202500000Y-94100000D03*
D21*
X204550000Y-96925000D03*
D14*
X210060000Y-176900000D03*
X208640000Y-176900000D03*
X159060000Y-176900000D03*
X157640000Y-176900000D03*
X210060000Y-142900000D03*
X208640000Y-142900000D03*
X159060000Y-142900000D03*
X157640000Y-142900000D03*
X210060000Y-108900000D03*
X208640000Y-108900000D03*
D18*
X208070000Y-170900000D03*
X209730000Y-170900000D03*
X157070000Y-170900000D03*
X158730000Y-170900000D03*
X208070000Y-136900000D03*
X209730000Y-136900000D03*
X157070000Y-136900000D03*
X158730000Y-136900000D03*
X208070000Y-102900000D03*
X209730000Y-102900000D03*
D14*
X207990000Y-172500000D03*
X209410000Y-172500000D03*
X156990000Y-172500000D03*
X158410000Y-172500000D03*
X207990000Y-138500000D03*
X209410000Y-138500000D03*
X156990000Y-138500000D03*
X158410000Y-138500000D03*
X207990000Y-104500000D03*
X209410000Y-104500000D03*
D17*
X210200000Y-168930000D03*
X210200000Y-167270000D03*
X159200000Y-168930000D03*
X159200000Y-167270000D03*
X210200000Y-134930000D03*
X210200000Y-133270000D03*
X159200000Y-134930000D03*
X159200000Y-133270000D03*
X210200000Y-100930000D03*
X210200000Y-99270000D03*
D19*
X206550000Y-176900000D03*
X207450000Y-176900000D03*
X155550000Y-176900000D03*
X156450000Y-176900000D03*
X206550000Y-142900000D03*
X207450000Y-142900000D03*
X155550000Y-142900000D03*
X156450000Y-142900000D03*
X206550000Y-108900000D03*
X207450000Y-108900000D03*
D18*
X213280000Y-164925000D03*
X211620000Y-164925000D03*
X162280000Y-164925000D03*
X160620000Y-164925000D03*
X213280000Y-130925000D03*
X211620000Y-130925000D03*
X162280000Y-130925000D03*
X160620000Y-130925000D03*
X213280000Y-96925000D03*
X211620000Y-96925000D03*
X196930000Y-167800000D03*
X195270000Y-167800000D03*
X145930000Y-167800000D03*
X144270000Y-167800000D03*
X196930000Y-133800000D03*
X195270000Y-133800000D03*
X145930000Y-133800000D03*
X144270000Y-133800000D03*
X196930000Y-99800000D03*
X195270000Y-99800000D03*
D16*
X192250000Y-174100000D03*
X194250000Y-174100000D03*
X141250000Y-174100000D03*
X143250000Y-174100000D03*
X192250000Y-140100000D03*
X194250000Y-140100000D03*
X141250000Y-140100000D03*
X143250000Y-140100000D03*
X192250000Y-106100000D03*
X194250000Y-106100000D03*
D24*
X191350000Y-170750000D03*
X193550000Y-170750000D03*
X140350000Y-170750000D03*
X142550000Y-170750000D03*
X191350000Y-136750000D03*
X193550000Y-136750000D03*
X140350000Y-136750000D03*
X142550000Y-136750000D03*
X191350000Y-102750000D03*
X193550000Y-102750000D03*
D25*
X194100000Y-165350000D03*
X194100000Y-164350000D03*
X143100000Y-165350000D03*
X143100000Y-164350000D03*
X194100000Y-131350000D03*
X194100000Y-130350000D03*
X143100000Y-131350000D03*
X143100000Y-130350000D03*
X194100000Y-97350000D03*
X194100000Y-96350000D03*
D26*
X196650000Y-164650000D03*
X196650000Y-162750000D03*
X145650000Y-164650000D03*
X145650000Y-162750000D03*
X196650000Y-130650000D03*
X196650000Y-128750000D03*
X145650000Y-130650000D03*
X145650000Y-128750000D03*
X196650000Y-96650000D03*
X196650000Y-94750000D03*
D27*
X200240000Y-164700000D03*
X199160000Y-164700000D03*
X149240000Y-164700000D03*
X148160000Y-164700000D03*
X200240000Y-130700000D03*
X199160000Y-130700000D03*
X149240000Y-130700000D03*
X148160000Y-130700000D03*
X200240000Y-96700000D03*
X199160000Y-96700000D03*
D25*
X194100000Y-162050000D03*
X194100000Y-163050000D03*
X143100000Y-162050000D03*
X143100000Y-163050000D03*
X194100000Y-128050000D03*
X194100000Y-129050000D03*
X143100000Y-128050000D03*
X143100000Y-129050000D03*
X194100000Y-94050000D03*
X194100000Y-95050000D03*
D14*
X216420000Y-161605000D03*
X215000000Y-161605000D03*
X165420000Y-161605000D03*
X164000000Y-161605000D03*
X216420000Y-127605000D03*
X215000000Y-127605000D03*
X165420000Y-127605000D03*
X164000000Y-127605000D03*
X216420000Y-93605000D03*
X215000000Y-93605000D03*
D16*
X220600000Y-167600000D03*
X218600000Y-167600000D03*
X169600000Y-167600000D03*
X167600000Y-167600000D03*
X220600000Y-133600000D03*
X218600000Y-133600000D03*
X169600000Y-133600000D03*
X167600000Y-133600000D03*
X220600000Y-99600000D03*
X218600000Y-99600000D03*
D14*
X216410000Y-163305000D03*
X214990000Y-163305000D03*
X165410000Y-163305000D03*
X163990000Y-163305000D03*
X216410000Y-129305000D03*
X214990000Y-129305000D03*
X165410000Y-129305000D03*
X163990000Y-129305000D03*
X216410000Y-95305000D03*
X214990000Y-95305000D03*
D16*
X220600000Y-160700000D03*
X218600000Y-160700000D03*
X169600000Y-160700000D03*
X167600000Y-160700000D03*
X220600000Y-126700000D03*
X218600000Y-126700000D03*
X169600000Y-126700000D03*
X167600000Y-126700000D03*
X220600000Y-92700000D03*
X218600000Y-92700000D03*
D15*
X215000000Y-167105000D03*
X215000000Y-164705000D03*
X164000000Y-167105000D03*
X164000000Y-164705000D03*
X215000000Y-133105000D03*
X215000000Y-130705000D03*
X164000000Y-133105000D03*
X164000000Y-130705000D03*
X215000000Y-99105000D03*
X215000000Y-96705000D03*
D14*
X220560000Y-157000000D03*
X219140000Y-157000000D03*
X169560000Y-157000000D03*
X168140000Y-157000000D03*
X220560000Y-123000000D03*
X219140000Y-123000000D03*
X169560000Y-123000000D03*
X168140000Y-123000000D03*
X220560000Y-89000000D03*
X219140000Y-89000000D03*
D19*
X215850000Y-157300000D03*
X216750000Y-157300000D03*
X164850000Y-157300000D03*
X165750000Y-157300000D03*
X215850000Y-123300000D03*
X216750000Y-123300000D03*
X164850000Y-123300000D03*
X165750000Y-123300000D03*
X215850000Y-89300000D03*
X216750000Y-89300000D03*
D16*
X220600000Y-153300000D03*
X218600000Y-153300000D03*
X169600000Y-153300000D03*
X167600000Y-153300000D03*
X220600000Y-119300000D03*
X218600000Y-119300000D03*
X169600000Y-119300000D03*
X167600000Y-119300000D03*
X220600000Y-85300000D03*
X218600000Y-85300000D03*
D24*
X140350000Y-102750000D03*
X142550000Y-102750000D03*
D18*
X160680000Y-94200000D03*
X159020000Y-94200000D03*
D15*
X157850000Y-87100000D03*
X157850000Y-84700000D03*
D26*
X145650000Y-96650000D03*
X145650000Y-94750000D03*
D19*
X164850000Y-89300000D03*
X165750000Y-89300000D03*
X155550000Y-108900000D03*
X156450000Y-108900000D03*
D20*
X146500000Y-104235000D03*
X146500000Y-108265000D03*
D15*
X158550000Y-90600000D03*
X158550000Y-88200000D03*
D16*
X169600000Y-85300000D03*
X167600000Y-85300000D03*
D15*
X164000000Y-99105000D03*
X164000000Y-96705000D03*
X162000000Y-105305000D03*
X162000000Y-107705000D03*
D16*
X169600000Y-99600000D03*
X167600000Y-99600000D03*
X141250000Y-106100000D03*
X143250000Y-106100000D03*
X146750000Y-101900000D03*
X144750000Y-101900000D03*
X169600000Y-92700000D03*
X167600000Y-92700000D03*
X169600000Y-109600000D03*
X167600000Y-109600000D03*
D18*
X145930000Y-99800000D03*
X144270000Y-99800000D03*
D17*
X151000000Y-92580000D03*
X151000000Y-90920000D03*
X149000000Y-100870000D03*
X149000000Y-102530000D03*
D18*
X162280000Y-96925000D03*
X160620000Y-96925000D03*
D17*
X159200000Y-100930000D03*
X159200000Y-99270000D03*
D14*
X161560000Y-88900000D03*
X160140000Y-88900000D03*
X161560000Y-90500000D03*
X160140000Y-90500000D03*
X165410000Y-95305000D03*
X163990000Y-95305000D03*
X165420000Y-93605000D03*
X164000000Y-93605000D03*
X165460000Y-107005000D03*
X164040000Y-107005000D03*
X165460000Y-105005000D03*
X164040000Y-105005000D03*
X160160000Y-82300000D03*
X158740000Y-82300000D03*
X160960000Y-86300000D03*
X159540000Y-86300000D03*
X169560000Y-89000000D03*
X168140000Y-89000000D03*
X156990000Y-104500000D03*
X158410000Y-104500000D03*
D18*
X157070000Y-102900000D03*
X158730000Y-102900000D03*
D14*
X150640000Y-104100000D03*
X152060000Y-104100000D03*
X159060000Y-108900000D03*
X157640000Y-108900000D03*
D25*
X143100000Y-94050000D03*
X143100000Y-95050000D03*
X143100000Y-97350000D03*
X143100000Y-96350000D03*
D27*
X149240000Y-96700000D03*
X148160000Y-96700000D03*
D14*
X150560000Y-105750000D03*
X149140000Y-105750000D03*
D19*
X150150000Y-107250000D03*
X149250000Y-107250000D03*
D21*
X154950000Y-98325000D03*
X153550000Y-98325000D03*
X154950000Y-96925000D03*
D22*
X150725000Y-94875000D03*
X150725000Y-95375000D03*
X150725000Y-95875000D03*
X150725000Y-96375000D03*
X150725000Y-96875000D03*
X150725000Y-97375000D03*
X150725000Y-97875000D03*
X150725000Y-98375000D03*
X150725000Y-98875000D03*
X150725000Y-99375000D03*
X150725000Y-99875000D03*
X150725000Y-100375000D03*
D23*
X151500000Y-101150000D03*
X152000000Y-101150000D03*
X152500000Y-101150000D03*
X153000000Y-101150000D03*
X153500000Y-101150000D03*
X154000000Y-101150000D03*
X154500000Y-101150000D03*
X155000000Y-101150000D03*
X155500000Y-101150000D03*
X156000000Y-101150000D03*
X156500000Y-101150000D03*
X157000000Y-101150000D03*
D22*
X157775000Y-100375000D03*
X157775000Y-99875000D03*
X157775000Y-99375000D03*
X157775000Y-98875000D03*
X157775000Y-98375000D03*
X157775000Y-97875000D03*
X157775000Y-97375000D03*
X157775000Y-96875000D03*
X157775000Y-96375000D03*
X157775000Y-95875000D03*
X157775000Y-95375000D03*
X157775000Y-94875000D03*
D23*
X157000000Y-94100000D03*
X156500000Y-94100000D03*
X156000000Y-94100000D03*
X155500000Y-94100000D03*
X155000000Y-94100000D03*
X154500000Y-94100000D03*
X154000000Y-94100000D03*
X153500000Y-94100000D03*
X153000000Y-94100000D03*
X152500000Y-94100000D03*
X152000000Y-94100000D03*
X151500000Y-94100000D03*
D21*
X153550000Y-96925000D03*
D11*
X174800000Y-90055000D03*
X175650000Y-90055000D03*
X173950000Y-90055000D03*
X174800000Y-87755000D03*
X175650000Y-87755000D03*
X173950000Y-87755000D03*
X173950000Y-88905000D03*
X175650000Y-88905000D03*
D12*
X172100000Y-90780000D03*
X172100000Y-87030000D03*
X172100000Y-89505000D03*
D13*
X177825000Y-89540000D03*
X177825000Y-90810000D03*
X177825000Y-88270000D03*
X177825000Y-87000000D03*
D12*
X172100000Y-88305000D03*
D11*
X174800000Y-88905000D03*
X174800000Y-97615000D03*
X175650000Y-97615000D03*
X173950000Y-97615000D03*
X174800000Y-95315000D03*
X175650000Y-95315000D03*
X173950000Y-95315000D03*
X173950000Y-96465000D03*
X175650000Y-96465000D03*
D12*
X172100000Y-98340000D03*
X172100000Y-94590000D03*
X172100000Y-97065000D03*
D13*
X177825000Y-97100000D03*
X177825000Y-98370000D03*
X177825000Y-95830000D03*
X177825000Y-94560000D03*
D12*
X172100000Y-95865000D03*
D11*
X174800000Y-96465000D03*
X174800000Y-105405000D03*
X175650000Y-105405000D03*
X173950000Y-105405000D03*
X174800000Y-103105000D03*
X175650000Y-103105000D03*
X173950000Y-103105000D03*
X173950000Y-104255000D03*
X175650000Y-104255000D03*
D12*
X172100000Y-106130000D03*
X172100000Y-102380000D03*
X172100000Y-104855000D03*
D13*
X177825000Y-104890000D03*
X177825000Y-106160000D03*
X177825000Y-103620000D03*
X177825000Y-102350000D03*
D12*
X172100000Y-103655000D03*
D11*
X174800000Y-104255000D03*
M02*
