M48
;DRILL file {KiCad 4.0.6-e0-6349~53~ubuntu16.04.1} date Thu Mar 23 00:40:52 2017
;FORMAT={3:3/ absolute / metric / suppress leading zeros}
FMAT,2
METRIC,TZ
T1C0.400
T2C0.800
T3C1.000
T4C1.500
%
G90
G05
M71
T1
X1800Y89800
X1800Y55800
X1800Y21800
X1950Y81800
X1950Y47800
X1950Y13800
X2000Y93000
X2000Y80500
X2000Y76200
X2000Y59000
X2000Y46500
X2000Y42200
X2000Y25000
X2000Y12500
X2000Y8200
X3250Y75200
X3250Y41200
X3250Y7200
X4100Y82550
X4100Y80850
X4100Y48550
X4100Y46850
X4100Y14550
X4100Y12850
X5000Y91600
X5000Y57600
X5000Y23600
X5100Y90400
X5100Y56400
X5100Y22400
X5750Y83595
X5750Y49595
X5750Y15595
X5800Y87095
X5800Y85950
X5800Y84650
X5800Y53095
X5800Y51950
X5800Y50650
X5800Y19095
X5800Y17950
X5800Y16650
X6250Y82700
X6250Y48700
X6250Y14700
X6450Y81000
X6450Y47000
X6450Y13000
X6800Y87945
X6800Y53945
X6800Y19945
X7700Y72600
X7700Y38600
X7700Y4600
X7750Y82845
X7750Y48845
X7750Y14845
X8050Y87795
X8050Y53795
X8050Y19795
X8950Y82895
X8950Y48895
X8950Y14895
X9150Y87795
X9150Y53795
X9150Y19795
X10100Y82895
X10100Y48895
X10100Y14895
X10200Y87795
X10200Y53795
X10200Y19795
X10750Y93100
X10750Y59100
X10750Y25100
X10875Y80906
X10875Y46906
X10875Y12906
X10950Y91400
X10950Y57400
X10950Y23400
X11250Y87595
X11250Y53595
X11250Y19595
X11400Y81700
X11400Y47700
X11400Y13700
X11400Y83245
X11400Y49245
X11400Y15245
X12235Y87987
X12235Y53987
X12235Y19987
X12500Y86945
X12500Y52945
X12500Y18945
X12600Y72600
X12600Y38600
X12600Y4600
X12750Y77000
X12750Y43000
X12750Y9000
X12994Y88637
X12994Y54637
X12994Y20637
X13500Y89675
X13500Y55675
X13500Y21675
X13656Y87888
X13656Y53888
X13656Y19888
X14000Y78500
X14000Y44500
X14000Y10500
X14214Y79950
X14214Y45950
X14214Y11950
X15519Y78317
X15519Y44317
X15519Y10317
X15550Y82500
X15550Y48500
X15550Y14500
X15591Y85369
X15591Y51369
X15591Y17369
X16700Y92600
X16700Y58600
X16700Y24600
X16750Y81245
X16750Y47245
X16750Y13245
X17250Y85495
X17250Y51495
X17250Y17495
X17475Y88150
X17475Y54150
X17475Y20150
X17483Y89843
X17483Y55843
X17483Y21843
X17700Y92900
X17700Y58900
X17700Y24900
X18094Y91744
X18094Y57744
X18094Y23744
X18389Y89336
X18389Y55336
X18389Y21336
X18817Y91053
X18817Y57053
X18817Y23053
X19188Y81002
X19188Y47002
X19188Y13002
X19450Y70600
X19450Y36600
X19450Y2600
X19920Y85775
X19920Y51775
X19920Y17775
X19950Y75295
X19950Y41295
X19950Y7295
X20187Y81050
X20187Y47050
X20187Y13050
X20200Y82900
X20200Y48900
X20200Y14900
X20644Y73469
X20644Y39469
X20644Y5469
X21150Y75200
X21150Y41200
X21150Y7200
X21864Y88267
X21864Y54267
X21864Y20267
X21949Y73520
X21949Y39520
X21949Y5520
X22700Y75400
X22700Y41400
X22700Y7400
X23000Y88000
X23000Y54000
X23000Y20000
X23050Y97600
X23050Y63600
X23050Y29600
X23336Y76542
X23336Y42542
X23336Y8542
X23643Y77525
X23643Y43525
X23643Y9525
X23800Y70400
X23800Y36400
X23800Y2400
X24050Y97600
X24050Y63600
X24050Y29600
X24087Y88038
X24087Y54038
X24087Y20038
X24100Y93400
X24100Y59400
X24100Y25400
X24287Y76232
X24287Y42232
X24287Y8232
X24513Y89484
X24513Y55484
X24513Y21484
X25300Y93275
X25300Y59275
X25300Y25275
X25500Y81100
X25500Y47100
X25500Y13100
X25537Y88397
X25537Y54397
X25537Y20397
X25708Y89382
X25708Y55382
X25708Y21382
X25850Y97600
X25850Y63600
X25850Y29600
X25936Y85109
X25936Y51109
X25936Y17109
X26750Y79750
X26750Y78950
X26750Y45750
X26750Y44950
X26750Y11750
X26750Y10950
X27000Y69595
X27000Y68795
X27000Y35595
X27000Y34795
X27000Y1595
X27000Y795
X27350Y98600
X27350Y97800
X27350Y97000
X27350Y96200
X27350Y64600
X27350Y63800
X27350Y63000
X27350Y62200
X27350Y30600
X27350Y29800
X27350Y29000
X27350Y28200
X27550Y79750
X27550Y78950
X27550Y45750
X27550Y44950
X27550Y11750
X27550Y10950
X27800Y69595
X27800Y68795
X27800Y35595
X27800Y34795
X27800Y1595
X27800Y795
X28150Y98600
X28150Y97800
X28150Y97000
X28150Y96200
X28150Y64600
X28150Y63800
X28150Y63000
X28150Y62200
X28150Y30600
X28150Y29800
X28150Y29000
X28150Y28200
X28350Y79750
X28350Y78950
X28350Y45750
X28350Y44950
X28350Y11750
X28350Y10950
X28600Y69595
X28600Y68795
X28600Y35595
X28600Y34795
X28600Y1595
X28600Y795
X28950Y97000
X28950Y63000
X28950Y29000
X29150Y79750
X29150Y78950
X29150Y45750
X29150Y44950
X29150Y11750
X29150Y10950
X29400Y84300
X29400Y69595
X29400Y68795
X29400Y50300
X29400Y35595
X29400Y34795
X29400Y16300
X29400Y1595
X29400Y795
X29750Y97000
X29750Y63000
X29750Y29000
X29950Y79750
X29950Y78950
X29950Y45750
X29950Y44950
X29950Y11750
X29950Y10950
X30200Y69595
X30200Y68795
X30200Y35595
X30200Y34795
X30200Y1595
X30200Y795
X30550Y97000
X30550Y63000
X30550Y29000
X30700Y86000
X30700Y52000
X30700Y18000
X30700Y82900
X30700Y48900
X30700Y14900
X30750Y94000
X30750Y79750
X30750Y78950
X30750Y60000
X30750Y45750
X30750Y44950
X30750Y26000
X30750Y11750
X30750Y10950
X30800Y92250
X30800Y58250
X30800Y24250
X30800Y75600
X30800Y41600
X30800Y7600
X30950Y97800
X30950Y63800
X30950Y29800
X31000Y72800
X31000Y69595
X31000Y68795
X31000Y38800
X31000Y35595
X31000Y34795
X31000Y4800
X31000Y1595
X31000Y795
X31350Y97000
X31350Y63000
X31350Y29000
X31550Y79750
X31550Y78950
X31550Y45750
X31550Y44950
X31550Y11750
X31550Y10950
X31700Y74000
X31700Y40000
X31700Y6000
X31750Y97800
X31750Y63800
X31750Y29800
X31800Y69595
X31800Y68795
X31800Y35595
X31800Y34795
X31800Y1595
X31800Y795
X32150Y97000
X32150Y63000
X32150Y29000
X32350Y79750
X32350Y78950
X32350Y45750
X32350Y44950
X32350Y11750
X32350Y10950
X32600Y69595
X32600Y68795
X32600Y35595
X32600Y34795
X32600Y1595
X32600Y795
X34700Y70000
X34700Y36000
X34700Y2000
X34900Y88600
X34900Y54600
X34900Y20600
X35000Y81000
X35000Y47000
X35000Y13000
X36300Y95700
X36300Y80600
X36300Y61700
X36300Y46600
X36300Y27700
X36300Y12600
X36737Y87987
X36737Y53987
X36737Y19987
X37100Y72600
X37100Y38600
X37100Y4600
X38500Y80800
X38500Y46800
X38500Y12800
X38750Y95900
X38750Y61900
X38750Y27900
X38900Y87900
X38900Y53900
X38900Y19900
X39000Y72600
X39000Y38600
X39000Y4600
X41300Y87600
X41300Y53600
X41300Y19600
X41500Y80000
X41500Y46000
X41500Y12000
X41600Y95800
X41600Y61800
X41600Y27800
X43350Y74000
X43350Y40000
X43350Y6000
X43500Y93050
X43500Y92250
X43500Y91450
X43500Y90650
X43500Y89850
X43500Y89050
X43500Y88250
X43500Y86350
X43500Y85550
X43500Y84750
X43500Y83950
X43500Y83150
X43500Y82350
X43500Y81550
X43500Y79600
X43500Y78800
X43500Y78000
X43500Y77200
X43500Y76400
X43500Y75600
X43500Y74800
X43500Y59050
X43500Y58250
X43500Y57450
X43500Y56650
X43500Y55850
X43500Y55050
X43500Y54250
X43500Y52350
X43500Y51550
X43500Y50750
X43500Y49950
X43500Y49150
X43500Y48350
X43500Y47550
X43500Y45600
X43500Y44800
X43500Y44000
X43500Y43200
X43500Y42400
X43500Y41600
X43500Y40800
X43500Y25050
X43500Y24250
X43500Y23450
X43500Y22650
X43500Y21850
X43500Y21050
X43500Y20250
X43500Y18350
X43500Y17550
X43500Y16750
X43500Y15950
X43500Y15150
X43500Y14350
X43500Y13550
X43500Y11600
X43500Y10800
X43500Y10000
X43500Y9200
X43500Y8400
X43500Y7600
X43500Y6800
X44300Y93050
X44300Y92250
X44300Y91450
X44300Y90650
X44300Y89850
X44300Y89050
X44300Y88250
X44300Y86350
X44300Y85550
X44300Y84750
X44300Y83950
X44300Y83150
X44300Y82350
X44300Y81550
X44300Y79600
X44300Y78800
X44300Y78000
X44300Y77200
X44300Y76400
X44300Y75600
X44300Y74800
X44300Y59050
X44300Y58250
X44300Y57450
X44300Y56650
X44300Y55850
X44300Y55050
X44300Y54250
X44300Y52350
X44300Y51550
X44300Y50750
X44300Y49950
X44300Y49150
X44300Y48350
X44300Y47550
X44300Y45600
X44300Y44800
X44300Y44000
X44300Y43200
X44300Y42400
X44300Y41600
X44300Y40800
X44300Y25050
X44300Y24250
X44300Y23450
X44300Y22650
X44300Y21850
X44300Y21050
X44300Y20250
X44300Y18350
X44300Y17550
X44300Y16750
X44300Y15950
X44300Y15150
X44300Y14350
X44300Y13550
X44300Y11600
X44300Y10800
X44300Y10000
X44300Y9200
X44300Y8400
X44300Y7600
X44300Y6800
X45100Y93050
X45100Y92250
X45100Y91450
X45100Y90650
X45100Y89850
X45100Y89050
X45100Y88250
X45100Y86350
X45100Y85550
X45100Y84750
X45100Y83950
X45100Y83150
X45100Y82350
X45100Y81550
X45100Y79600
X45100Y78800
X45100Y78000
X45100Y77200
X45100Y76400
X45100Y75600
X45100Y59050
X45100Y58250
X45100Y57450
X45100Y56650
X45100Y55850
X45100Y55050
X45100Y54250
X45100Y52350
X45100Y51550
X45100Y50750
X45100Y49950
X45100Y49150
X45100Y48350
X45100Y47550
X45100Y45600
X45100Y44800
X45100Y44000
X45100Y43200
X45100Y42400
X45100Y41600
X45100Y25050
X45100Y24250
X45100Y23450
X45100Y22650
X45100Y21850
X45100Y21050
X45100Y20250
X45100Y18350
X45100Y17550
X45100Y16750
X45100Y15950
X45100Y15150
X45100Y14350
X45100Y13550
X45100Y11600
X45100Y10800
X45100Y10000
X45100Y9200
X45100Y8400
X45100Y7600
X45900Y93050
X45900Y92250
X45900Y91450
X45900Y90650
X45900Y89850
X45900Y89050
X45900Y88250
X45900Y86350
X45900Y85550
X45900Y84750
X45900Y83950
X45900Y83150
X45900Y82350
X45900Y81550
X45900Y79600
X45900Y78800
X45900Y78000
X45900Y77200
X45900Y76400
X45900Y75600
X45900Y59050
X45900Y58250
X45900Y57450
X45900Y56650
X45900Y55850
X45900Y55050
X45900Y54250
X45900Y52350
X45900Y51550
X45900Y50750
X45900Y49950
X45900Y49150
X45900Y48350
X45900Y47550
X45900Y45600
X45900Y44800
X45900Y44000
X45900Y43200
X45900Y42400
X45900Y41600
X45900Y25050
X45900Y24250
X45900Y23450
X45900Y22650
X45900Y21850
X45900Y21050
X45900Y20250
X45900Y18350
X45900Y17550
X45900Y16750
X45900Y15950
X45900Y15150
X45900Y14350
X45900Y13550
X45900Y11600
X45900Y10800
X45900Y10000
X45900Y9200
X45900Y8400
X45900Y7600
X51800Y89800
X51800Y55800
X51800Y21800
X51950Y81800
X51950Y47800
X51950Y13800
X52000Y93000
X52000Y80500
X52000Y76200
X52000Y59000
X52000Y46500
X52000Y42200
X52000Y25000
X52000Y12500
X52000Y8200
X53250Y75200
X53250Y41200
X53250Y7200
X54100Y82550
X54100Y80850
X54100Y48550
X54100Y46850
X54100Y14550
X54100Y12850
X55000Y91600
X55000Y57600
X55000Y23600
X55100Y90400
X55100Y56400
X55100Y22400
X55750Y83595
X55750Y49595
X55750Y15595
X55800Y87095
X55800Y85950
X55800Y84650
X55800Y53095
X55800Y51950
X55800Y50650
X55800Y19095
X55800Y17950
X55800Y16650
X56250Y82700
X56250Y48700
X56250Y14700
X56450Y81000
X56450Y47000
X56450Y13000
X56800Y87945
X56800Y53945
X56800Y19945
X57700Y72600
X57700Y38600
X57700Y4600
X57750Y82845
X57750Y48845
X57750Y14845
X58050Y87795
X58050Y53795
X58050Y19795
X58950Y82895
X58950Y48895
X58950Y14895
X59150Y87795
X59150Y53795
X59150Y19795
X60100Y82895
X60100Y48895
X60100Y14895
X60200Y87795
X60200Y53795
X60200Y19795
X60750Y93100
X60750Y59100
X60750Y25100
X60875Y80906
X60875Y46906
X60875Y12906
X60950Y91400
X60950Y57400
X60950Y23400
X61250Y87595
X61250Y53595
X61250Y19595
X61400Y81700
X61400Y47700
X61400Y13700
X61400Y83245
X61400Y49245
X61400Y15245
X62235Y87987
X62235Y53987
X62235Y19987
X62500Y86945
X62500Y52945
X62500Y18945
X62600Y72600
X62600Y38600
X62600Y4600
X62750Y77000
X62750Y43000
X62750Y9000
X62994Y88637
X62994Y54637
X62994Y20637
X63500Y89675
X63500Y55675
X63500Y21675
X63656Y87888
X63656Y53888
X63656Y19888
X64000Y78500
X64000Y44500
X64000Y10500
X64214Y79950
X64214Y45950
X64214Y11950
X65519Y78317
X65519Y44317
X65519Y10317
X65550Y82500
X65550Y48500
X65550Y14500
X65591Y85369
X65591Y51369
X65591Y17369
X66700Y92600
X66700Y58600
X66700Y24600
X66750Y81245
X66750Y47245
X66750Y13245
X67250Y85495
X67250Y51495
X67250Y17495
X67475Y88150
X67475Y54150
X67475Y20150
X67483Y89843
X67483Y55843
X67483Y21843
X67700Y92900
X67700Y58900
X67700Y24900
X68094Y91744
X68094Y57744
X68094Y23744
X68389Y89336
X68389Y55336
X68389Y21336
X68817Y91053
X68817Y57053
X68817Y23053
X69188Y81002
X69188Y47002
X69188Y13002
X69450Y70600
X69450Y36600
X69450Y2600
X69920Y85775
X69920Y51775
X69920Y17775
X69950Y75295
X69950Y41295
X69950Y7295
X70187Y81050
X70187Y47050
X70187Y13050
X70200Y82900
X70200Y48900
X70200Y14900
X70644Y73469
X70644Y39469
X70644Y5469
X71150Y75200
X71150Y41200
X71150Y7200
X71864Y88267
X71864Y54267
X71864Y20267
X71949Y73520
X71949Y39520
X71949Y5520
X72700Y75400
X72700Y41400
X72700Y7400
X73000Y88000
X73000Y54000
X73000Y20000
X73050Y97600
X73050Y63600
X73050Y29600
X73336Y76542
X73336Y42542
X73336Y8542
X73643Y77525
X73643Y43525
X73643Y9525
X73800Y70400
X73800Y36400
X73800Y2400
X74050Y97600
X74050Y63600
X74050Y29600
X74087Y88038
X74087Y54038
X74087Y20038
X74100Y93400
X74100Y59400
X74100Y25400
X74287Y76232
X74287Y42232
X74287Y8232
X74513Y89484
X74513Y55484
X74513Y21484
X75300Y93275
X75300Y59275
X75300Y25275
X75500Y81100
X75500Y47100
X75500Y13100
X75537Y88397
X75537Y54397
X75537Y20397
X75708Y89382
X75708Y55382
X75708Y21382
X75850Y97600
X75850Y63600
X75850Y29600
X75936Y85109
X75936Y51109
X75936Y17109
X76750Y79750
X76750Y78950
X76750Y45750
X76750Y44950
X76750Y11750
X76750Y10950
X77000Y69595
X77000Y68795
X77000Y35595
X77000Y34795
X77000Y1595
X77000Y795
X77350Y98600
X77350Y97800
X77350Y97000
X77350Y96200
X77350Y64600
X77350Y63800
X77350Y63000
X77350Y62200
X77350Y30600
X77350Y29800
X77350Y29000
X77350Y28200
X77550Y79750
X77550Y78950
X77550Y45750
X77550Y44950
X77550Y11750
X77550Y10950
X77800Y69595
X77800Y68795
X77800Y35595
X77800Y34795
X77800Y1595
X77800Y795
X78150Y98600
X78150Y97800
X78150Y97000
X78150Y96200
X78150Y64600
X78150Y63800
X78150Y63000
X78150Y62200
X78150Y30600
X78150Y29800
X78150Y29000
X78150Y28200
X78350Y79750
X78350Y78950
X78350Y45750
X78350Y44950
X78350Y11750
X78350Y10950
X78600Y69595
X78600Y68795
X78600Y35595
X78600Y34795
X78600Y1595
X78600Y795
X78950Y97000
X78950Y63000
X78950Y29000
X79150Y79750
X79150Y78950
X79150Y45750
X79150Y44950
X79150Y11750
X79150Y10950
X79400Y84300
X79400Y69595
X79400Y68795
X79400Y50300
X79400Y35595
X79400Y34795
X79400Y16300
X79400Y1595
X79400Y795
X79750Y97000
X79750Y63000
X79750Y29000
X79950Y79750
X79950Y78950
X79950Y45750
X79950Y44950
X79950Y11750
X79950Y10950
X80200Y69595
X80200Y68795
X80200Y35595
X80200Y34795
X80200Y1595
X80200Y795
X80550Y97000
X80550Y63000
X80550Y29000
X80700Y86000
X80700Y52000
X80700Y18000
X80700Y82900
X80700Y48900
X80700Y14900
X80750Y94000
X80750Y79750
X80750Y78950
X80750Y60000
X80750Y45750
X80750Y44950
X80750Y26000
X80750Y11750
X80750Y10950
X80800Y92250
X80800Y58250
X80800Y24250
X80800Y75600
X80800Y41600
X80800Y7600
X80950Y97800
X80950Y63800
X80950Y29800
X81000Y72800
X81000Y69595
X81000Y68795
X81000Y38800
X81000Y35595
X81000Y34795
X81000Y4800
X81000Y1595
X81000Y795
X81350Y97000
X81350Y63000
X81350Y29000
X81550Y79750
X81550Y78950
X81550Y45750
X81550Y44950
X81550Y11750
X81550Y10950
X81700Y74000
X81700Y40000
X81700Y6000
X81750Y97800
X81750Y63800
X81750Y29800
X81800Y69595
X81800Y68795
X81800Y35595
X81800Y34795
X81800Y1595
X81800Y795
X82150Y97000
X82150Y63000
X82150Y29000
X82350Y79750
X82350Y78950
X82350Y45750
X82350Y44950
X82350Y11750
X82350Y10950
X82600Y69595
X82600Y68795
X82600Y35595
X82600Y34795
X82600Y1595
X82600Y795
X84700Y70000
X84700Y36000
X84700Y2000
X84900Y88600
X84900Y54600
X84900Y20600
X85000Y81000
X85000Y47000
X85000Y13000
X86300Y95700
X86300Y80600
X86300Y61700
X86300Y46600
X86300Y27700
X86300Y12600
X86737Y87987
X86737Y53987
X86737Y19987
X87100Y72600
X87100Y38600
X87100Y4600
X88500Y80800
X88500Y46800
X88500Y12800
X88750Y95900
X88750Y61900
X88750Y27900
X88900Y87900
X88900Y53900
X88900Y19900
X89000Y72600
X89000Y38600
X89000Y4600
X91300Y87600
X91300Y53600
X91300Y19600
X91500Y80000
X91500Y46000
X91500Y12000
X91600Y95800
X91600Y61800
X91600Y27800
X93350Y74000
X93350Y40000
X93350Y6000
X93500Y93050
X93500Y92250
X93500Y91450
X93500Y90650
X93500Y89850
X93500Y89050
X93500Y88250
X93500Y86350
X93500Y85550
X93500Y84750
X93500Y83950
X93500Y83150
X93500Y82350
X93500Y81550
X93500Y79600
X93500Y78800
X93500Y78000
X93500Y77200
X93500Y76400
X93500Y75600
X93500Y74800
X93500Y59050
X93500Y58250
X93500Y57450
X93500Y56650
X93500Y55850
X93500Y55050
X93500Y54250
X93500Y52350
X93500Y51550
X93500Y50750
X93500Y49950
X93500Y49150
X93500Y48350
X93500Y47550
X93500Y45600
X93500Y44800
X93500Y44000
X93500Y43200
X93500Y42400
X93500Y41600
X93500Y40800
X93500Y25050
X93500Y24250
X93500Y23450
X93500Y22650
X93500Y21850
X93500Y21050
X93500Y20250
X93500Y18350
X93500Y17550
X93500Y16750
X93500Y15950
X93500Y15150
X93500Y14350
X93500Y13550
X93500Y11600
X93500Y10800
X93500Y10000
X93500Y9200
X93500Y8400
X93500Y7600
X93500Y6800
X94300Y93050
X94300Y92250
X94300Y91450
X94300Y90650
X94300Y89850
X94300Y89050
X94300Y88250
X94300Y86350
X94300Y85550
X94300Y84750
X94300Y83950
X94300Y83150
X94300Y82350
X94300Y81550
X94300Y79600
X94300Y78800
X94300Y78000
X94300Y77200
X94300Y76400
X94300Y75600
X94300Y74800
X94300Y59050
X94300Y58250
X94300Y57450
X94300Y56650
X94300Y55850
X94300Y55050
X94300Y54250
X94300Y52350
X94300Y51550
X94300Y50750
X94300Y49950
X94300Y49150
X94300Y48350
X94300Y47550
X94300Y45600
X94300Y44800
X94300Y44000
X94300Y43200
X94300Y42400
X94300Y41600
X94300Y40800
X94300Y25050
X94300Y24250
X94300Y23450
X94300Y22650
X94300Y21850
X94300Y21050
X94300Y20250
X94300Y18350
X94300Y17550
X94300Y16750
X94300Y15950
X94300Y15150
X94300Y14350
X94300Y13550
X94300Y11600
X94300Y10800
X94300Y10000
X94300Y9200
X94300Y8400
X94300Y7600
X94300Y6800
X95100Y93050
X95100Y92250
X95100Y91450
X95100Y90650
X95100Y89850
X95100Y89050
X95100Y88250
X95100Y86350
X95100Y85550
X95100Y84750
X95100Y83950
X95100Y83150
X95100Y82350
X95100Y81550
X95100Y79600
X95100Y78800
X95100Y78000
X95100Y77200
X95100Y76400
X95100Y75600
X95100Y59050
X95100Y58250
X95100Y57450
X95100Y56650
X95100Y55850
X95100Y55050
X95100Y54250
X95100Y52350
X95100Y51550
X95100Y50750
X95100Y49950
X95100Y49150
X95100Y48350
X95100Y47550
X95100Y45600
X95100Y44800
X95100Y44000
X95100Y43200
X95100Y42400
X95100Y41600
X95100Y25050
X95100Y24250
X95100Y23450
X95100Y22650
X95100Y21850
X95100Y21050
X95100Y20250
X95100Y18350
X95100Y17550
X95100Y16750
X95100Y15950
X95100Y15150
X95100Y14350
X95100Y13550
X95100Y11600
X95100Y10800
X95100Y10000
X95100Y9200
X95100Y8400
X95100Y7600
X95900Y93050
X95900Y92250
X95900Y91450
X95900Y90650
X95900Y89850
X95900Y89050
X95900Y88250
X95900Y86350
X95900Y85550
X95900Y84750
X95900Y83950
X95900Y83150
X95900Y82350
X95900Y81550
X95900Y79600
X95900Y78800
X95900Y78000
X95900Y77200
X95900Y76400
X95900Y75600
X95900Y59050
X95900Y58250
X95900Y57450
X95900Y56650
X95900Y55850
X95900Y55050
X95900Y54250
X95900Y52350
X95900Y51550
X95900Y50750
X95900Y49950
X95900Y49150
X95900Y48350
X95900Y47550
X95900Y45600
X95900Y44800
X95900Y44000
X95900Y43200
X95900Y42400
X95900Y41600
X95900Y25050
X95900Y24250
X95900Y23450
X95900Y22650
X95900Y21850
X95900Y21050
X95900Y20250
X95900Y18350
X95900Y17550
X95900Y16750
X95900Y15950
X95900Y15150
X95900Y14350
X95900Y13550
X95900Y11600
X95900Y10800
X95900Y10000
X95900Y9200
X95900Y8400
X95900Y7600
T2
X31750Y98800
X31750Y64800
X31750Y30800
X36750Y98750
X36750Y64750
X36750Y30750
X81750Y98800
X81750Y64800
X81750Y30800
X86750Y98750
X86750Y64750
X86750Y30750
T3
X7620Y97940
X7620Y95400
X7620Y70000
X7620Y63940
X7620Y61400
X7620Y36000
X7620Y29940
X7620Y27400
X7620Y2000
X10160Y97940
X10160Y95400
X10160Y70000
X10160Y63940
X10160Y61400
X10160Y36000
X10160Y29940
X10160Y27400
X10160Y2000
X12700Y97940
X12700Y95400
X12700Y70000
X12700Y63940
X12700Y61400
X12700Y36000
X12700Y29940
X12700Y27400
X12700Y2000
X15240Y97940
X15240Y95400
X15240Y70000
X15240Y63940
X15240Y61400
X15240Y36000
X15240Y29940
X15240Y27400
X15240Y2000
X17780Y97940
X17780Y95400
X17780Y70000
X17780Y63940
X17780Y61400
X17780Y36000
X17780Y29940
X17780Y27400
X17780Y2000
X20320Y97940
X20320Y63940
X20320Y29940
X57620Y97940
X57620Y95400
X57620Y70000
X57620Y63940
X57620Y61400
X57620Y36000
X57620Y29940
X57620Y27400
X57620Y2000
X60160Y97940
X60160Y95400
X60160Y70000
X60160Y63940
X60160Y61400
X60160Y36000
X60160Y29940
X60160Y27400
X60160Y2000
X62700Y97940
X62700Y95400
X62700Y70000
X62700Y63940
X62700Y61400
X62700Y36000
X62700Y29940
X62700Y27400
X62700Y2000
X65240Y97940
X65240Y95400
X65240Y70000
X65240Y63940
X65240Y61400
X65240Y36000
X65240Y29940
X65240Y27400
X65240Y2000
X67780Y97940
X67780Y95400
X67780Y70000
X67780Y63940
X67780Y61400
X67780Y36000
X67780Y29940
X67780Y27400
X67780Y2000
X70320Y97940
X70320Y63940
X70320Y29940
T4
X29550Y98500
X29550Y64500
X29550Y30500
X34750Y98500
X34750Y64500
X34750Y30500
X47250Y91000
X47250Y84000
X47250Y76500
X47250Y57000
X47250Y50000
X47250Y42500
X47250Y23000
X47250Y16000
X47250Y8500
X79550Y98500
X79550Y64500
X79550Y30500
X84750Y98500
X84750Y64500
X84750Y30500
X97250Y91000
X97250Y84000
X97250Y76500
X97250Y57000
X97250Y50000
X97250Y42500
X97250Y23000
X97250Y16000
X97250Y8500
T0
M30
