M48
;DRILL file {KiCad 4.0.6-e0-6349~53~ubuntu16.04.1} date Thu Mar 23 00:40:52 2017
;FORMAT={3:3/ absolute / metric / suppress leading zeros}
FMAT,2
METRIC,TZ
T1C2.700
%
G90
G05
M71
T1
X2500Y71000
X2500Y37000
X2500Y3000
X3000Y97000
X3000Y63000
X3000Y29000
X46000Y97000
X46000Y71000
X46000Y63000
X46000Y37000
X46000Y29000
X46000Y3000
X52500Y71000
X52500Y37000
X52500Y3000
X53000Y97000
X53000Y63000
X53000Y29000
X96000Y97000
X96000Y71000
X96000Y63000
X96000Y37000
X96000Y29000
X96000Y3000
T0
M30
