M48
;DRILL file {KiCad 4.0.6-e0-6349~53~ubuntu16.04.1} date Mon Mar 20 00:09:06 2017
;FORMAT={2:4/ absolute / inch / suppress leading zeros}
FMAT,2
INCH,TZ
T1C0.106
%
G90
G05
M72
T1
X54626Y-43307
X54626Y-56693
X54626Y-70079
X54823Y-33071
X54823Y-46457
X54823Y-59843
X71752Y-33071
X71752Y-43307
X71752Y-46457
X71752Y-56693
X71752Y-59843
X71752Y-70079
X74705Y-43307
X74705Y-56693
X74705Y-70079
X74902Y-33071
X74902Y-46457
X74902Y-59843
X91831Y-33071
X91831Y-43307
X91831Y-46457
X91831Y-56693
X91831Y-59843
X91831Y-70079
T0
M30
