M48
;DRILL file {KiCad 4.0.6-e0-6349~53~ubuntu16.04.1} date Mon Mar 20 00:09:06 2017
;FORMAT={2:4/ absolute / inch / suppress leading zeros}
FMAT,2
INCH,TZ
T1C0.016
T2C0.031
T3C0.039
T4C0.059
%
G90
G05
M72
T1
X54350Y-35906
X54350Y-49291
X54350Y-62677
X54409Y-39055
X54409Y-52441
X54409Y-65827
X54429Y-34646
X54429Y-39567
X54429Y-41260
X54429Y-48031
X54429Y-52953
X54429Y-54646
X54429Y-61417
X54429Y-66339
X54429Y-68031
X54921Y-41654
X54921Y-55039
X54921Y-68425
X55256Y-38760
X55256Y-39429
X55256Y-52146
X55256Y-52815
X55256Y-65531
X55256Y-66201
X55610Y-35197
X55610Y-48583
X55610Y-61969
X55650Y-35669
X55650Y-49055
X55650Y-62441
X55906Y-38348
X55906Y-51734
X55906Y-65120
X55925Y-36970
X55925Y-37421
X55925Y-37933
X55925Y-50356
X55925Y-50807
X55925Y-51319
X55925Y-63742
X55925Y-64193
X55925Y-64705
X56102Y-38701
X56102Y-52087
X56102Y-65472
X56181Y-39370
X56181Y-52756
X56181Y-66142
X56319Y-36636
X56319Y-50022
X56319Y-63407
X56673Y-42677
X56673Y-56063
X56673Y-69449
X56693Y-38644
X56693Y-52030
X56693Y-65415
X56811Y-36695
X56811Y-50081
X56811Y-63467
X57165Y-38624
X57165Y-52010
X57165Y-65396
X57244Y-36695
X57244Y-50081
X57244Y-63467
X57618Y-38624
X57618Y-52010
X57618Y-65396
X57657Y-36695
X57657Y-50081
X57657Y-63467
X57874Y-34606
X57874Y-47992
X57874Y-61378
X57923Y-39407
X57923Y-52793
X57923Y-66179
X57953Y-35276
X57953Y-48661
X57953Y-62047
X58071Y-36774
X58071Y-50159
X58071Y-63545
X58130Y-39094
X58130Y-52480
X58130Y-65866
X58130Y-38486
X58130Y-51872
X58130Y-65258
X58458Y-36619
X58458Y-50005
X58458Y-63391
X58563Y-37030
X58563Y-50415
X58563Y-63801
X58602Y-42677
X58602Y-56063
X58602Y-69449
X58661Y-40945
X58661Y-54331
X58661Y-67717
X58757Y-36363
X58757Y-49749
X58757Y-63135
X58957Y-35955
X58957Y-49341
X58957Y-62726
X59018Y-36658
X59018Y-50044
X59018Y-63430
X59154Y-40354
X59154Y-53740
X59154Y-67126
X59238Y-39783
X59238Y-53169
X59238Y-66555
X59752Y-40426
X59752Y-53812
X59752Y-67198
X59764Y-38780
X59764Y-52165
X59764Y-65551
X59780Y-37650
X59780Y-51036
X59780Y-64422
X60217Y-34803
X60217Y-48189
X60217Y-61575
X60236Y-39274
X60236Y-52659
X60236Y-66045
X60433Y-37600
X60433Y-50986
X60433Y-64372
X60522Y-36555
X60522Y-49941
X60522Y-63327
X60525Y-35888
X60525Y-49274
X60525Y-62660
X60610Y-34685
X60610Y-48071
X60610Y-61457
X60765Y-35140
X60765Y-48526
X60765Y-61912
X60881Y-36088
X60881Y-49474
X60881Y-62860
X61050Y-35412
X61050Y-48798
X61050Y-62184
X61196Y-39369
X61196Y-52755
X61196Y-66141
X61299Y-43465
X61299Y-56850
X61299Y-70236
X61484Y-37490
X61484Y-50876
X61484Y-64262
X61496Y-41616
X61496Y-55002
X61496Y-68388
X61589Y-39350
X61589Y-52736
X61589Y-66122
X61594Y-38622
X61594Y-52008
X61594Y-65394
X61769Y-42335
X61769Y-55721
X61769Y-69107
X61969Y-41654
X61969Y-55039
X61969Y-68425
X62254Y-36504
X62254Y-49890
X62254Y-63275
X62283Y-42315
X62283Y-55701
X62283Y-69087
X62638Y-41537
X62638Y-54923
X62638Y-68309
X62657Y-36614
X62657Y-50000
X62657Y-63386
X62717Y-32835
X62717Y-46220
X62717Y-59606
X62825Y-41137
X62825Y-54523
X62825Y-67908
X62950Y-40738
X62950Y-54124
X62950Y-67510
X63012Y-43543
X63012Y-56929
X63012Y-70315
X63110Y-36614
X63110Y-50000
X63110Y-63385
X63110Y-32835
X63110Y-46220
X63110Y-59606
X63130Y-34488
X63130Y-47874
X63130Y-61260
X63204Y-41247
X63204Y-54633
X63204Y-68019
X63265Y-36043
X63265Y-49429
X63265Y-62815
X63602Y-34537
X63602Y-47923
X63602Y-61309
X63681Y-39331
X63681Y-52717
X63681Y-66102
X63711Y-36549
X63711Y-49934
X63711Y-63320
X63744Y-36153
X63744Y-49539
X63744Y-62925
X63819Y-32835
X63819Y-46220
X63819Y-59606
X63853Y-37752
X63853Y-51138
X63853Y-64524
X64173Y-39862
X64173Y-40177
X64173Y-53248
X64173Y-53563
X64173Y-66634
X64173Y-66949
X64272Y-43860
X64272Y-44175
X64272Y-57246
X64272Y-57561
X64272Y-70632
X64272Y-70947
X64409Y-32441
X64409Y-32756
X64409Y-33071
X64409Y-33386
X64409Y-45827
X64409Y-46142
X64409Y-46457
X64409Y-46772
X64409Y-59213
X64409Y-59528
X64409Y-59843
X64409Y-60157
X64488Y-39862
X64488Y-40177
X64488Y-53248
X64488Y-53563
X64488Y-66634
X64488Y-66949
X64587Y-43860
X64587Y-44175
X64587Y-57246
X64587Y-57561
X64587Y-70632
X64587Y-70947
X64724Y-32441
X64724Y-32756
X64724Y-33071
X64724Y-33386
X64724Y-45827
X64724Y-46142
X64724Y-46457
X64724Y-46772
X64724Y-59213
X64724Y-59528
X64724Y-59843
X64724Y-60157
X64803Y-39862
X64803Y-40177
X64803Y-53248
X64803Y-53563
X64803Y-66634
X64803Y-66949
X64902Y-43860
X64902Y-44175
X64902Y-57246
X64902Y-57561
X64902Y-70632
X64902Y-70947
X65039Y-33071
X65039Y-46457
X65039Y-59843
X65118Y-39862
X65118Y-40177
X65118Y-53248
X65118Y-53563
X65118Y-66634
X65118Y-66949
X65217Y-38071
X65217Y-43860
X65217Y-44175
X65217Y-51457
X65217Y-57246
X65217Y-57561
X65217Y-64843
X65217Y-70632
X65217Y-70947
X65354Y-33071
X65354Y-46457
X65354Y-59843
X65433Y-39862
X65433Y-40177
X65433Y-53248
X65433Y-53563
X65433Y-66634
X65433Y-66949
X65531Y-43860
X65531Y-44175
X65531Y-57246
X65531Y-57561
X65531Y-70632
X65531Y-70947
X65669Y-33071
X65669Y-46457
X65669Y-59843
X65728Y-37402
X65728Y-50787
X65728Y-64173
X65728Y-38622
X65728Y-52008
X65728Y-65394
X65748Y-34252
X65748Y-39862
X65748Y-40177
X65748Y-47638
X65748Y-53248
X65748Y-53563
X65748Y-61024
X65748Y-66634
X65748Y-66949
X65768Y-34941
X65768Y-48327
X65768Y-61713
X65768Y-41496
X65768Y-54882
X65768Y-68268
X65827Y-32756
X65827Y-46142
X65827Y-59528
X65846Y-42598
X65846Y-43860
X65846Y-44175
X65846Y-55984
X65846Y-57246
X65846Y-57561
X65846Y-69370
X65846Y-70632
X65846Y-70947
X65984Y-33071
X65984Y-46457
X65984Y-59843
X66063Y-39862
X66063Y-40177
X66063Y-53248
X66063Y-53563
X66063Y-66634
X66063Y-66949
X66122Y-42126
X66122Y-55512
X66122Y-68898
X66142Y-32756
X66142Y-46142
X66142Y-59528
X66161Y-43860
X66161Y-44175
X66161Y-57246
X66161Y-57561
X66161Y-70632
X66161Y-70947
X66299Y-33071
X66299Y-46457
X66299Y-59843
X66378Y-39862
X66378Y-40177
X66378Y-53248
X66378Y-53563
X66378Y-66634
X66378Y-66949
X66476Y-43860
X66476Y-44175
X66476Y-57246
X66476Y-57561
X66476Y-70632
X66476Y-70947
X67303Y-43701
X67303Y-57087
X67303Y-70472
X67382Y-36378
X67382Y-49764
X67382Y-63150
X67421Y-39370
X67421Y-52756
X67421Y-66142
X67933Y-33583
X67933Y-39528
X67933Y-46969
X67933Y-52913
X67933Y-60354
X67933Y-66299
X68105Y-36619
X68105Y-50005
X68105Y-63391
X68248Y-42677
X68248Y-56063
X68248Y-69449
X68799Y-39449
X68799Y-52835
X68799Y-66220
X68898Y-33504
X68898Y-46890
X68898Y-60276
X68957Y-36654
X68957Y-50039
X68957Y-63425
X68996Y-42677
X68996Y-56063
X68996Y-69449
X69902Y-36772
X69902Y-50157
X69902Y-63543
X69980Y-39764
X69980Y-53150
X69980Y-66535
X70020Y-33543
X70020Y-46929
X70020Y-60315
X70709Y-42126
X70709Y-55512
X70709Y-68898
X70768Y-34626
X70768Y-34941
X70768Y-35256
X70768Y-35571
X70768Y-35886
X70768Y-36201
X70768Y-36516
X70768Y-37264
X70768Y-37579
X70768Y-37894
X70768Y-38209
X70768Y-38524
X70768Y-38839
X70768Y-39154
X70768Y-39921
X70768Y-40236
X70768Y-40551
X70768Y-40866
X70768Y-41181
X70768Y-41496
X70768Y-41811
X70768Y-48012
X70768Y-48327
X70768Y-48642
X70768Y-48957
X70768Y-49272
X70768Y-49587
X70768Y-49902
X70768Y-50650
X70768Y-50965
X70768Y-51280
X70768Y-51594
X70768Y-51909
X70768Y-52224
X70768Y-52539
X70768Y-53307
X70768Y-53622
X70768Y-53937
X70768Y-54252
X70768Y-54567
X70768Y-54882
X70768Y-55197
X70768Y-61398
X70768Y-61713
X70768Y-62028
X70768Y-62343
X70768Y-62657
X70768Y-62972
X70768Y-63287
X70768Y-64035
X70768Y-64350
X70768Y-64665
X70768Y-64980
X70768Y-65295
X70768Y-65610
X70768Y-65925
X70768Y-66693
X70768Y-67008
X70768Y-67323
X70768Y-67638
X70768Y-67953
X70768Y-68268
X70768Y-68583
X71083Y-34626
X71083Y-34941
X71083Y-35256
X71083Y-35571
X71083Y-35886
X71083Y-36201
X71083Y-36516
X71083Y-37264
X71083Y-37579
X71083Y-37894
X71083Y-38209
X71083Y-38524
X71083Y-38839
X71083Y-39154
X71083Y-39921
X71083Y-40236
X71083Y-40551
X71083Y-40866
X71083Y-41181
X71083Y-41496
X71083Y-41811
X71083Y-48012
X71083Y-48327
X71083Y-48642
X71083Y-48957
X71083Y-49272
X71083Y-49587
X71083Y-49902
X71083Y-50650
X71083Y-50965
X71083Y-51280
X71083Y-51594
X71083Y-51909
X71083Y-52224
X71083Y-52539
X71083Y-53307
X71083Y-53622
X71083Y-53937
X71083Y-54252
X71083Y-54567
X71083Y-54882
X71083Y-55197
X71083Y-61398
X71083Y-61713
X71083Y-62028
X71083Y-62343
X71083Y-62657
X71083Y-62972
X71083Y-63287
X71083Y-64035
X71083Y-64350
X71083Y-64665
X71083Y-64980
X71083Y-65295
X71083Y-65610
X71083Y-65925
X71083Y-66693
X71083Y-67008
X71083Y-67323
X71083Y-67638
X71083Y-67953
X71083Y-68268
X71083Y-68583
X71398Y-34626
X71398Y-34941
X71398Y-35256
X71398Y-35571
X71398Y-35886
X71398Y-36201
X71398Y-36516
X71398Y-37264
X71398Y-37579
X71398Y-37894
X71398Y-38209
X71398Y-38524
X71398Y-38839
X71398Y-39154
X71398Y-39921
X71398Y-40236
X71398Y-40551
X71398Y-40866
X71398Y-41181
X71398Y-41496
X71398Y-48012
X71398Y-48327
X71398Y-48642
X71398Y-48957
X71398Y-49272
X71398Y-49587
X71398Y-49902
X71398Y-50650
X71398Y-50965
X71398Y-51280
X71398Y-51594
X71398Y-51909
X71398Y-52224
X71398Y-52539
X71398Y-53307
X71398Y-53622
X71398Y-53937
X71398Y-54252
X71398Y-54567
X71398Y-54882
X71398Y-61398
X71398Y-61713
X71398Y-62028
X71398Y-62343
X71398Y-62657
X71398Y-62972
X71398Y-63287
X71398Y-64035
X71398Y-64350
X71398Y-64665
X71398Y-64980
X71398Y-65295
X71398Y-65610
X71398Y-65925
X71398Y-66693
X71398Y-67008
X71398Y-67323
X71398Y-67638
X71398Y-67953
X71398Y-68268
X71713Y-34626
X71713Y-34941
X71713Y-35256
X71713Y-35571
X71713Y-35886
X71713Y-36201
X71713Y-36516
X71713Y-37264
X71713Y-37579
X71713Y-37894
X71713Y-38209
X71713Y-38524
X71713Y-38839
X71713Y-39154
X71713Y-39921
X71713Y-40236
X71713Y-40551
X71713Y-40866
X71713Y-41181
X71713Y-41496
X71713Y-48012
X71713Y-48327
X71713Y-48642
X71713Y-48957
X71713Y-49272
X71713Y-49587
X71713Y-49902
X71713Y-50650
X71713Y-50965
X71713Y-51280
X71713Y-51594
X71713Y-51909
X71713Y-52224
X71713Y-52539
X71713Y-53307
X71713Y-53622
X71713Y-53937
X71713Y-54252
X71713Y-54567
X71713Y-54882
X71713Y-61398
X71713Y-61713
X71713Y-62028
X71713Y-62343
X71713Y-62657
X71713Y-62972
X71713Y-63287
X71713Y-64035
X71713Y-64350
X71713Y-64665
X71713Y-64980
X71713Y-65295
X71713Y-65610
X71713Y-65925
X71713Y-66693
X71713Y-67008
X71713Y-67323
X71713Y-67638
X71713Y-67953
X71713Y-68268
X74429Y-35906
X74429Y-49291
X74429Y-62677
X74488Y-39055
X74488Y-52441
X74488Y-65827
X74508Y-34646
X74508Y-39567
X74508Y-41260
X74508Y-48031
X74508Y-52953
X74508Y-54646
X74508Y-61417
X74508Y-66339
X74508Y-68031
X75000Y-41654
X75000Y-55039
X75000Y-68425
X75335Y-38760
X75335Y-39429
X75335Y-52146
X75335Y-52815
X75335Y-65531
X75335Y-66201
X75689Y-35197
X75689Y-48583
X75689Y-61969
X75728Y-35669
X75728Y-49055
X75728Y-62441
X75984Y-38348
X75984Y-51734
X75984Y-65120
X76004Y-36970
X76004Y-37421
X76004Y-37933
X76004Y-50356
X76004Y-50807
X76004Y-51319
X76004Y-63742
X76004Y-64193
X76004Y-64705
X76181Y-38701
X76181Y-52087
X76181Y-65472
X76260Y-39370
X76260Y-52756
X76260Y-66142
X76398Y-36636
X76398Y-50022
X76398Y-63407
X76752Y-42677
X76752Y-56063
X76752Y-69449
X76772Y-38644
X76772Y-52030
X76772Y-65415
X76890Y-36695
X76890Y-50081
X76890Y-63467
X77244Y-38624
X77244Y-52010
X77244Y-65396
X77323Y-36695
X77323Y-50081
X77323Y-63467
X77697Y-38624
X77697Y-52010
X77697Y-65396
X77736Y-36695
X77736Y-50081
X77736Y-63467
X77953Y-34606
X77953Y-47992
X77953Y-61378
X78002Y-39407
X78002Y-52793
X78002Y-66179
X78031Y-35276
X78031Y-48661
X78031Y-62047
X78150Y-36774
X78150Y-50159
X78150Y-63545
X78209Y-39094
X78209Y-52480
X78209Y-65866
X78209Y-38486
X78209Y-51872
X78209Y-65258
X78537Y-36619
X78537Y-50005
X78537Y-63391
X78642Y-37030
X78642Y-50415
X78642Y-63801
X78681Y-42677
X78681Y-56063
X78681Y-69449
X78740Y-40945
X78740Y-54331
X78740Y-67717
X78836Y-36363
X78836Y-49749
X78836Y-63135
X79035Y-35955
X79035Y-49341
X79035Y-62726
X79097Y-36658
X79097Y-50044
X79097Y-63430
X79232Y-40354
X79232Y-53740
X79232Y-67126
X79317Y-39783
X79317Y-53169
X79317Y-66555
X79830Y-40426
X79830Y-53812
X79830Y-67198
X79842Y-38780
X79842Y-52165
X79842Y-65551
X79859Y-37650
X79859Y-51036
X79859Y-64422
X80295Y-34803
X80295Y-48189
X80295Y-61575
X80315Y-39274
X80315Y-52659
X80315Y-66045
X80512Y-37600
X80512Y-50986
X80512Y-64372
X80600Y-36555
X80600Y-49941
X80600Y-63327
X80604Y-35888
X80604Y-49274
X80604Y-62660
X80689Y-34685
X80689Y-48071
X80689Y-61457
X80844Y-35140
X80844Y-48526
X80844Y-61912
X80960Y-36088
X80960Y-49474
X80960Y-62860
X81129Y-35412
X81129Y-48798
X81129Y-62184
X81275Y-39369
X81275Y-52755
X81275Y-66141
X81378Y-43465
X81378Y-56850
X81378Y-70236
X81563Y-37490
X81563Y-50876
X81563Y-64262
X81575Y-41616
X81575Y-55002
X81575Y-68388
X81668Y-39350
X81668Y-52736
X81668Y-66122
X81673Y-38622
X81673Y-52008
X81673Y-65394
X81848Y-42335
X81848Y-55721
X81848Y-69107
X82047Y-41654
X82047Y-55039
X82047Y-68425
X82333Y-36504
X82333Y-49890
X82333Y-63275
X82362Y-42315
X82362Y-55701
X82362Y-69087
X82717Y-41537
X82717Y-54923
X82717Y-68309
X82736Y-36614
X82736Y-50000
X82736Y-63386
X82795Y-32835
X82795Y-46220
X82795Y-59606
X82904Y-41137
X82904Y-54523
X82904Y-67908
X83029Y-40738
X83029Y-54124
X83029Y-67510
X83091Y-43543
X83091Y-56929
X83091Y-70315
X83189Y-36614
X83189Y-50000
X83189Y-63385
X83189Y-32835
X83189Y-46220
X83189Y-59606
X83209Y-34488
X83209Y-47874
X83209Y-61260
X83282Y-41247
X83282Y-54633
X83282Y-68019
X83343Y-36043
X83343Y-49429
X83343Y-62815
X83681Y-34537
X83681Y-47923
X83681Y-61309
X83760Y-39331
X83760Y-52717
X83760Y-66102
X83789Y-36549
X83789Y-49934
X83789Y-63320
X83823Y-36153
X83823Y-49539
X83823Y-62925
X83898Y-32835
X83898Y-46220
X83898Y-59606
X83931Y-37752
X83931Y-51138
X83931Y-64524
X84252Y-39862
X84252Y-40177
X84252Y-53248
X84252Y-53563
X84252Y-66634
X84252Y-66949
X84350Y-43860
X84350Y-44175
X84350Y-57246
X84350Y-57561
X84350Y-70632
X84350Y-70947
X84488Y-32441
X84488Y-32756
X84488Y-33071
X84488Y-33386
X84488Y-45827
X84488Y-46142
X84488Y-46457
X84488Y-46772
X84488Y-59213
X84488Y-59528
X84488Y-59843
X84488Y-60157
X84567Y-39862
X84567Y-40177
X84567Y-53248
X84567Y-53563
X84567Y-66634
X84567Y-66949
X84665Y-43860
X84665Y-44175
X84665Y-57246
X84665Y-57561
X84665Y-70632
X84665Y-70947
X84803Y-32441
X84803Y-32756
X84803Y-33071
X84803Y-33386
X84803Y-45827
X84803Y-46142
X84803Y-46457
X84803Y-46772
X84803Y-59213
X84803Y-59528
X84803Y-59843
X84803Y-60157
X84882Y-39862
X84882Y-40177
X84882Y-53248
X84882Y-53563
X84882Y-66634
X84882Y-66949
X84980Y-43860
X84980Y-44175
X84980Y-57246
X84980Y-57561
X84980Y-70632
X84980Y-70947
X85118Y-33071
X85118Y-46457
X85118Y-59843
X85197Y-39862
X85197Y-40177
X85197Y-53248
X85197Y-53563
X85197Y-66634
X85197Y-66949
X85295Y-38071
X85295Y-43860
X85295Y-44175
X85295Y-51457
X85295Y-57246
X85295Y-57561
X85295Y-64843
X85295Y-70632
X85295Y-70947
X85433Y-33071
X85433Y-46457
X85433Y-59843
X85512Y-39862
X85512Y-40177
X85512Y-53248
X85512Y-53563
X85512Y-66634
X85512Y-66949
X85610Y-43860
X85610Y-44175
X85610Y-57246
X85610Y-57561
X85610Y-70632
X85610Y-70947
X85748Y-33071
X85748Y-46457
X85748Y-59843
X85807Y-37402
X85807Y-50787
X85807Y-64173
X85807Y-38622
X85807Y-52008
X85807Y-65394
X85827Y-34252
X85827Y-39862
X85827Y-40177
X85827Y-47638
X85827Y-53248
X85827Y-53563
X85827Y-61024
X85827Y-66634
X85827Y-66949
X85846Y-34941
X85846Y-48327
X85846Y-61713
X85846Y-41496
X85846Y-54882
X85846Y-68268
X85906Y-32756
X85906Y-46142
X85906Y-59528
X85925Y-42598
X85925Y-43860
X85925Y-44175
X85925Y-55984
X85925Y-57246
X85925Y-57561
X85925Y-69370
X85925Y-70632
X85925Y-70947
X86063Y-33071
X86063Y-46457
X86063Y-59843
X86142Y-39862
X86142Y-40177
X86142Y-53248
X86142Y-53563
X86142Y-66634
X86142Y-66949
X86201Y-42126
X86201Y-55512
X86201Y-68898
X86220Y-32756
X86220Y-46142
X86220Y-59528
X86240Y-43860
X86240Y-44175
X86240Y-57246
X86240Y-57561
X86240Y-70632
X86240Y-70947
X86378Y-33071
X86378Y-46457
X86378Y-59843
X86457Y-39862
X86457Y-40177
X86457Y-53248
X86457Y-53563
X86457Y-66634
X86457Y-66949
X86555Y-43860
X86555Y-44175
X86555Y-57246
X86555Y-57561
X86555Y-70632
X86555Y-70947
X87382Y-43701
X87382Y-57087
X87382Y-70472
X87461Y-36378
X87461Y-49764
X87461Y-63150
X87500Y-39370
X87500Y-52756
X87500Y-66142
X88012Y-33583
X88012Y-39528
X88012Y-46969
X88012Y-52913
X88012Y-60354
X88012Y-66299
X88184Y-36619
X88184Y-50005
X88184Y-63391
X88327Y-42677
X88327Y-56063
X88327Y-69449
X88878Y-39449
X88878Y-52835
X88878Y-66220
X88976Y-33504
X88976Y-46890
X88976Y-60276
X89035Y-36654
X89035Y-50039
X89035Y-63425
X89075Y-42677
X89075Y-56063
X89075Y-69449
X89980Y-36772
X89980Y-50157
X89980Y-63543
X90059Y-39764
X90059Y-53150
X90059Y-66535
X90098Y-33543
X90098Y-46929
X90098Y-60315
X90787Y-42126
X90787Y-55512
X90787Y-68898
X90846Y-34626
X90846Y-34941
X90846Y-35256
X90846Y-35571
X90846Y-35886
X90846Y-36201
X90846Y-36516
X90846Y-37264
X90846Y-37579
X90846Y-37894
X90846Y-38209
X90846Y-38524
X90846Y-38839
X90846Y-39154
X90846Y-39921
X90846Y-40236
X90846Y-40551
X90846Y-40866
X90846Y-41181
X90846Y-41496
X90846Y-41811
X90846Y-48012
X90846Y-48327
X90846Y-48642
X90846Y-48957
X90846Y-49272
X90846Y-49587
X90846Y-49902
X90846Y-50650
X90846Y-50965
X90846Y-51280
X90846Y-51594
X90846Y-51909
X90846Y-52224
X90846Y-52539
X90846Y-53307
X90846Y-53622
X90846Y-53937
X90846Y-54252
X90846Y-54567
X90846Y-54882
X90846Y-55197
X90846Y-61398
X90846Y-61713
X90846Y-62028
X90846Y-62343
X90846Y-62657
X90846Y-62972
X90846Y-63287
X90846Y-64035
X90846Y-64350
X90846Y-64665
X90846Y-64980
X90846Y-65295
X90846Y-65610
X90846Y-65925
X90846Y-66693
X90846Y-67008
X90846Y-67323
X90846Y-67638
X90846Y-67953
X90846Y-68268
X90846Y-68583
X91161Y-34626
X91161Y-34941
X91161Y-35256
X91161Y-35571
X91161Y-35886
X91161Y-36201
X91161Y-36516
X91161Y-37264
X91161Y-37579
X91161Y-37894
X91161Y-38209
X91161Y-38524
X91161Y-38839
X91161Y-39154
X91161Y-39921
X91161Y-40236
X91161Y-40551
X91161Y-40866
X91161Y-41181
X91161Y-41496
X91161Y-41811
X91161Y-48012
X91161Y-48327
X91161Y-48642
X91161Y-48957
X91161Y-49272
X91161Y-49587
X91161Y-49902
X91161Y-50650
X91161Y-50965
X91161Y-51280
X91161Y-51594
X91161Y-51909
X91161Y-52224
X91161Y-52539
X91161Y-53307
X91161Y-53622
X91161Y-53937
X91161Y-54252
X91161Y-54567
X91161Y-54882
X91161Y-55197
X91161Y-61398
X91161Y-61713
X91161Y-62028
X91161Y-62343
X91161Y-62657
X91161Y-62972
X91161Y-63287
X91161Y-64035
X91161Y-64350
X91161Y-64665
X91161Y-64980
X91161Y-65295
X91161Y-65610
X91161Y-65925
X91161Y-66693
X91161Y-67008
X91161Y-67323
X91161Y-67638
X91161Y-67953
X91161Y-68268
X91161Y-68583
X91476Y-34626
X91476Y-34941
X91476Y-35256
X91476Y-35571
X91476Y-35886
X91476Y-36201
X91476Y-36516
X91476Y-37264
X91476Y-37579
X91476Y-37894
X91476Y-38209
X91476Y-38524
X91476Y-38839
X91476Y-39154
X91476Y-39921
X91476Y-40236
X91476Y-40551
X91476Y-40866
X91476Y-41181
X91476Y-41496
X91476Y-48012
X91476Y-48327
X91476Y-48642
X91476Y-48957
X91476Y-49272
X91476Y-49587
X91476Y-49902
X91476Y-50650
X91476Y-50965
X91476Y-51280
X91476Y-51594
X91476Y-51909
X91476Y-52224
X91476Y-52539
X91476Y-53307
X91476Y-53622
X91476Y-53937
X91476Y-54252
X91476Y-54567
X91476Y-54882
X91476Y-61398
X91476Y-61713
X91476Y-62028
X91476Y-62343
X91476Y-62657
X91476Y-62972
X91476Y-63287
X91476Y-64035
X91476Y-64350
X91476Y-64665
X91476Y-64980
X91476Y-65295
X91476Y-65610
X91476Y-65925
X91476Y-66693
X91476Y-67008
X91476Y-67323
X91476Y-67638
X91476Y-67953
X91476Y-68268
X91791Y-34626
X91791Y-34941
X91791Y-35256
X91791Y-35571
X91791Y-35886
X91791Y-36201
X91791Y-36516
X91791Y-37264
X91791Y-37579
X91791Y-37894
X91791Y-38209
X91791Y-38524
X91791Y-38839
X91791Y-39154
X91791Y-39921
X91791Y-40236
X91791Y-40551
X91791Y-40866
X91791Y-41181
X91791Y-41496
X91791Y-48012
X91791Y-48327
X91791Y-48642
X91791Y-48957
X91791Y-49272
X91791Y-49587
X91791Y-49902
X91791Y-50650
X91791Y-50965
X91791Y-51280
X91791Y-51594
X91791Y-51909
X91791Y-52224
X91791Y-52539
X91791Y-53307
X91791Y-53622
X91791Y-53937
X91791Y-54252
X91791Y-54567
X91791Y-54882
X91791Y-61398
X91791Y-61713
X91791Y-62028
X91791Y-62343
X91791Y-62657
X91791Y-62972
X91791Y-63287
X91791Y-64035
X91791Y-64350
X91791Y-64665
X91791Y-64980
X91791Y-65295
X91791Y-65610
X91791Y-65925
X91791Y-66693
X91791Y-67008
X91791Y-67323
X91791Y-67638
X91791Y-67953
X91791Y-68268
T2
X66142Y-32362
X66142Y-45748
X66142Y-59134
X68110Y-32382
X68110Y-45768
X68110Y-59154
X86220Y-32362
X86220Y-45748
X86220Y-59134
X88189Y-32382
X88189Y-45768
X88189Y-59154
T3
X56642Y-32701
X56642Y-33701
X56642Y-43701
X56642Y-46087
X56642Y-47087
X56642Y-57087
X56642Y-59472
X56642Y-60472
X56642Y-70472
X57642Y-32701
X57642Y-33701
X57642Y-43701
X57642Y-46087
X57642Y-47087
X57642Y-57087
X57642Y-59472
X57642Y-60472
X57642Y-70472
X58642Y-32701
X58642Y-33701
X58642Y-43701
X58642Y-46087
X58642Y-47087
X58642Y-57087
X58642Y-59472
X58642Y-60472
X58642Y-70472
X59642Y-32701
X59642Y-33701
X59642Y-43701
X59642Y-46087
X59642Y-47087
X59642Y-57087
X59642Y-59472
X59642Y-60472
X59642Y-70472
X60642Y-32701
X60642Y-33701
X60642Y-43701
X60642Y-46087
X60642Y-47087
X60642Y-57087
X60642Y-59472
X60642Y-60472
X60642Y-70472
X61642Y-32701
X61642Y-46087
X61642Y-59472
X76720Y-32701
X76720Y-33701
X76720Y-43701
X76720Y-46087
X76720Y-47087
X76720Y-57087
X76720Y-59472
X76720Y-60472
X76720Y-70472
X77720Y-32701
X77720Y-33701
X77720Y-43701
X77720Y-46087
X77720Y-47087
X77720Y-57087
X77720Y-59472
X77720Y-60472
X77720Y-70472
X78720Y-32701
X78720Y-33701
X78720Y-43701
X78720Y-46087
X78720Y-47087
X78720Y-57087
X78720Y-59472
X78720Y-60472
X78720Y-70472
X79720Y-32701
X79720Y-33701
X79720Y-43701
X79720Y-46087
X79720Y-47087
X79720Y-57087
X79720Y-59472
X79720Y-60472
X79720Y-70472
X80720Y-32701
X80720Y-33701
X80720Y-43701
X80720Y-46087
X80720Y-47087
X80720Y-57087
X80720Y-59472
X80720Y-60472
X80720Y-70472
X81720Y-32701
X81720Y-46087
X81720Y-59472
T4
X65276Y-32480
X65276Y-45866
X65276Y-59252
X67323Y-32480
X67323Y-45866
X67323Y-59252
X72244Y-35433
X72244Y-38189
X72244Y-41142
X72244Y-48819
X72244Y-51575
X72244Y-54528
X72244Y-62205
X72244Y-64961
X72244Y-67913
X85354Y-32480
X85354Y-45866
X85354Y-59252
X87402Y-32480
X87402Y-45866
X87402Y-59252
X92323Y-35433
X92323Y-38189
X92323Y-41142
X92323Y-48819
X92323Y-51575
X92323Y-54528
X92323Y-62205
X92323Y-64961
X92323Y-67913
T0
M30
