%TF.GenerationSoftware,KiCad,Pcbnew,4.0.6-e0-6349~53~ubuntu16.04.1*%
%TF.CreationDate,2017-03-23T00:40:43+02:00*%
%TF.ProjectId,BLDC_controller,424C44435F636F6E74726F6C6C65722E,1.0*%
%TF.FileFunction,Profile,NP*%
%FSLAX46Y46*%
G04 Gerber Fmt 4.6, Leading zero omitted, Abs format (unit mm)*
G04 Created by KiCad (PCBNEW 4.0.6-e0-6349~53~ubuntu16.04.1) date Thu Mar 23 00:40:43 2017*
%MOMM*%
%LPD*%
G01*
G04 APERTURE LIST*
%ADD10C,0.100000*%
%ADD11C,0.150000*%
G04 APERTURE END LIST*
D10*
D11*
X50000000Y0D02*
X50000000Y32000000D01*
X0Y0D02*
X0Y32000000D01*
X50000000Y34000000D02*
X50000000Y66000000D01*
X0Y34000000D02*
X0Y66000000D01*
X50000000Y68000000D02*
X50000000Y100000000D01*
X50000000Y32000000D02*
X99000000Y32000000D01*
X0Y32000000D02*
X49000000Y32000000D01*
X50000000Y66000000D02*
X99000000Y66000000D01*
X0Y66000000D02*
X49000000Y66000000D01*
X50000000Y100000000D02*
X99000000Y100000000D01*
X99000000Y0D02*
X50000000Y0D01*
X49000000Y0D02*
X0Y0D01*
X99000000Y34000000D02*
X50000000Y34000000D01*
X49000000Y34000000D02*
X0Y34000000D01*
X99000000Y68000000D02*
X50000000Y68000000D01*
X99000000Y32000000D02*
X99000000Y0D01*
X49000000Y32000000D02*
X49000000Y0D01*
X99000000Y66000000D02*
X99000000Y34000000D01*
X49000000Y66000000D02*
X49000000Y34000000D01*
X99000000Y100000000D02*
X99000000Y68000000D01*
X0Y68000000D02*
X0Y100000000D01*
X49000000Y68000000D02*
X0Y68000000D01*
X49000000Y100000000D02*
X49000000Y68000000D01*
X0Y100000000D02*
X49000000Y100000000D01*
M02*
