G04 #@! TF.FileFunction,Other,ECO2*
%FSLAX46Y46*%
G04 Gerber Fmt 4.6, Leading zero omitted, Abs format (unit mm)*
G04 Created by KiCad (PCBNEW 4.0.6-e0-6349~53~ubuntu16.04.1) date Wed Mar  8 22:49:17 2017*
%MOMM*%
%LPD*%
G01*
G04 APERTURE LIST*
%ADD10C,0.100000*%
%ADD11C,0.300000*%
G04 APERTURE END LIST*
D10*
D11*
X197421429Y-90714287D02*
X197421429Y-91642858D01*
X196850000Y-91142858D01*
X196850000Y-91357144D01*
X196778571Y-91500001D01*
X196707143Y-91571430D01*
X196564286Y-91642858D01*
X196207143Y-91642858D01*
X196064286Y-91571430D01*
X195992857Y-91500001D01*
X195921429Y-91357144D01*
X195921429Y-90928572D01*
X195992857Y-90785715D01*
X196064286Y-90714287D01*
X196778571Y-92500001D02*
X196850000Y-92357143D01*
X196921429Y-92285715D01*
X197064286Y-92214286D01*
X197135714Y-92214286D01*
X197278571Y-92285715D01*
X197350000Y-92357143D01*
X197421429Y-92500001D01*
X197421429Y-92785715D01*
X197350000Y-92928572D01*
X197278571Y-93000001D01*
X197135714Y-93071429D01*
X197064286Y-93071429D01*
X196921429Y-93000001D01*
X196850000Y-92928572D01*
X196778571Y-92785715D01*
X196778571Y-92500001D01*
X196707143Y-92357143D01*
X196635714Y-92285715D01*
X196492857Y-92214286D01*
X196207143Y-92214286D01*
X196064286Y-92285715D01*
X195992857Y-92357143D01*
X195921429Y-92500001D01*
X195921429Y-92785715D01*
X195992857Y-92928572D01*
X196064286Y-93000001D01*
X196207143Y-93071429D01*
X196492857Y-93071429D01*
X196635714Y-93000001D01*
X196707143Y-92928572D01*
X196778571Y-92785715D01*
X195992857Y-93785714D02*
X195921429Y-93785714D01*
X195778571Y-93714286D01*
X195707143Y-93642857D01*
X197421429Y-94714286D02*
X197421429Y-94857143D01*
X197350000Y-95000000D01*
X197278571Y-95071429D01*
X197135714Y-95142858D01*
X196850000Y-95214286D01*
X196492857Y-95214286D01*
X196207143Y-95142858D01*
X196064286Y-95071429D01*
X195992857Y-95000000D01*
X195921429Y-94857143D01*
X195921429Y-94714286D01*
X195992857Y-94571429D01*
X196064286Y-94500000D01*
X196207143Y-94428572D01*
X196492857Y-94357143D01*
X196850000Y-94357143D01*
X197135714Y-94428572D01*
X197278571Y-94500000D01*
X197350000Y-94571429D01*
X197421429Y-94714286D01*
X197421429Y-96142857D02*
X197421429Y-96285714D01*
X197350000Y-96428571D01*
X197278571Y-96500000D01*
X197135714Y-96571429D01*
X196850000Y-96642857D01*
X196492857Y-96642857D01*
X196207143Y-96571429D01*
X196064286Y-96500000D01*
X195992857Y-96428571D01*
X195921429Y-96285714D01*
X195921429Y-96142857D01*
X195992857Y-96000000D01*
X196064286Y-95928571D01*
X196207143Y-95857143D01*
X196492857Y-95785714D01*
X196850000Y-95785714D01*
X197135714Y-95857143D01*
X197278571Y-95928571D01*
X197350000Y-96000000D01*
X197421429Y-96142857D01*
X197421429Y-97571428D02*
X197421429Y-97714285D01*
X197350000Y-97857142D01*
X197278571Y-97928571D01*
X197135714Y-98000000D01*
X196850000Y-98071428D01*
X196492857Y-98071428D01*
X196207143Y-98000000D01*
X196064286Y-97928571D01*
X195992857Y-97857142D01*
X195921429Y-97714285D01*
X195921429Y-97571428D01*
X195992857Y-97428571D01*
X196064286Y-97357142D01*
X196207143Y-97285714D01*
X196492857Y-97214285D01*
X196850000Y-97214285D01*
X197135714Y-97285714D01*
X197278571Y-97357142D01*
X197350000Y-97428571D01*
X197421429Y-97571428D01*
X195921429Y-99857142D02*
X196921429Y-99857142D01*
X196778571Y-99857142D02*
X196850000Y-99928570D01*
X196921429Y-100071428D01*
X196921429Y-100285713D01*
X196850000Y-100428570D01*
X196707143Y-100499999D01*
X195921429Y-100499999D01*
X196707143Y-100499999D02*
X196850000Y-100571428D01*
X196921429Y-100714285D01*
X196921429Y-100928570D01*
X196850000Y-101071428D01*
X196707143Y-101142856D01*
X195921429Y-101142856D01*
X195921429Y-101857142D02*
X196921429Y-101857142D01*
X196778571Y-101857142D02*
X196850000Y-101928570D01*
X196921429Y-102071428D01*
X196921429Y-102285713D01*
X196850000Y-102428570D01*
X196707143Y-102499999D01*
X195921429Y-102499999D01*
X196707143Y-102499999D02*
X196850000Y-102571428D01*
X196921429Y-102714285D01*
X196921429Y-102928570D01*
X196850000Y-103071428D01*
X196707143Y-103142856D01*
X195921429Y-103142856D01*
X195250000Y-78000000D02*
X195250000Y-116000000D01*
X185250000Y-78000000D02*
X197950000Y-78000000D01*
X185250000Y-116000000D02*
X197950000Y-116000000D01*
X195250000Y-116000000D02*
X194663579Y-114873496D01*
X195250000Y-116000000D02*
X195836421Y-114873496D01*
X195250000Y-78000000D02*
X194663579Y-79126504D01*
X195250000Y-78000000D02*
X195836421Y-79126504D01*
X154821430Y-67828571D02*
X154107144Y-67828571D01*
X154035715Y-68542857D01*
X154107144Y-68471429D01*
X154250001Y-68400000D01*
X154607144Y-68400000D01*
X154750001Y-68471429D01*
X154821430Y-68542857D01*
X154892858Y-68685714D01*
X154892858Y-69042857D01*
X154821430Y-69185714D01*
X154750001Y-69257143D01*
X154607144Y-69328571D01*
X154250001Y-69328571D01*
X154107144Y-69257143D01*
X154035715Y-69185714D01*
X155821429Y-67828571D02*
X155964286Y-67828571D01*
X156107143Y-67900000D01*
X156178572Y-67971429D01*
X156250001Y-68114286D01*
X156321429Y-68400000D01*
X156321429Y-68757143D01*
X156250001Y-69042857D01*
X156178572Y-69185714D01*
X156107143Y-69257143D01*
X155964286Y-69328571D01*
X155821429Y-69328571D01*
X155678572Y-69257143D01*
X155607143Y-69185714D01*
X155535715Y-69042857D01*
X155464286Y-68757143D01*
X155464286Y-68400000D01*
X155535715Y-68114286D01*
X155607143Y-67971429D01*
X155678572Y-67900000D01*
X155821429Y-67828571D01*
X157035714Y-69257143D02*
X157035714Y-69328571D01*
X156964286Y-69471429D01*
X156892857Y-69542857D01*
X157964286Y-67828571D02*
X158107143Y-67828571D01*
X158250000Y-67900000D01*
X158321429Y-67971429D01*
X158392858Y-68114286D01*
X158464286Y-68400000D01*
X158464286Y-68757143D01*
X158392858Y-69042857D01*
X158321429Y-69185714D01*
X158250000Y-69257143D01*
X158107143Y-69328571D01*
X157964286Y-69328571D01*
X157821429Y-69257143D01*
X157750000Y-69185714D01*
X157678572Y-69042857D01*
X157607143Y-68757143D01*
X157607143Y-68400000D01*
X157678572Y-68114286D01*
X157750000Y-67971429D01*
X157821429Y-67900000D01*
X157964286Y-67828571D01*
X159392857Y-67828571D02*
X159535714Y-67828571D01*
X159678571Y-67900000D01*
X159750000Y-67971429D01*
X159821429Y-68114286D01*
X159892857Y-68400000D01*
X159892857Y-68757143D01*
X159821429Y-69042857D01*
X159750000Y-69185714D01*
X159678571Y-69257143D01*
X159535714Y-69328571D01*
X159392857Y-69328571D01*
X159250000Y-69257143D01*
X159178571Y-69185714D01*
X159107143Y-69042857D01*
X159035714Y-68757143D01*
X159035714Y-68400000D01*
X159107143Y-68114286D01*
X159178571Y-67971429D01*
X159250000Y-67900000D01*
X159392857Y-67828571D01*
X160821428Y-67828571D02*
X160964285Y-67828571D01*
X161107142Y-67900000D01*
X161178571Y-67971429D01*
X161250000Y-68114286D01*
X161321428Y-68400000D01*
X161321428Y-68757143D01*
X161250000Y-69042857D01*
X161178571Y-69185714D01*
X161107142Y-69257143D01*
X160964285Y-69328571D01*
X160821428Y-69328571D01*
X160678571Y-69257143D01*
X160607142Y-69185714D01*
X160535714Y-69042857D01*
X160464285Y-68757143D01*
X160464285Y-68400000D01*
X160535714Y-68114286D01*
X160607142Y-67971429D01*
X160678571Y-67900000D01*
X160821428Y-67828571D01*
X163107142Y-69328571D02*
X163107142Y-68328571D01*
X163107142Y-68471429D02*
X163178570Y-68400000D01*
X163321428Y-68328571D01*
X163535713Y-68328571D01*
X163678570Y-68400000D01*
X163749999Y-68542857D01*
X163749999Y-69328571D01*
X163749999Y-68542857D02*
X163821428Y-68400000D01*
X163964285Y-68328571D01*
X164178570Y-68328571D01*
X164321428Y-68400000D01*
X164392856Y-68542857D01*
X164392856Y-69328571D01*
X165107142Y-69328571D02*
X165107142Y-68328571D01*
X165107142Y-68471429D02*
X165178570Y-68400000D01*
X165321428Y-68328571D01*
X165535713Y-68328571D01*
X165678570Y-68400000D01*
X165749999Y-68542857D01*
X165749999Y-69328571D01*
X165749999Y-68542857D02*
X165821428Y-68400000D01*
X165964285Y-68328571D01*
X166178570Y-68328571D01*
X166321428Y-68400000D01*
X166392856Y-68542857D01*
X166392856Y-69328571D01*
X135250000Y-70000000D02*
X185250000Y-70000000D01*
X135250000Y-78000000D02*
X135250000Y-67300000D01*
X185250000Y-78000000D02*
X185250000Y-67300000D01*
X185250000Y-70000000D02*
X184123496Y-70586421D01*
X185250000Y-70000000D02*
X184123496Y-69413579D01*
X135250000Y-70000000D02*
X136376504Y-70586421D01*
X135250000Y-70000000D02*
X136376504Y-69413579D01*
M02*
