%TF.GenerationSoftware,KiCad,Pcbnew,4.0.6-e0-6349~53~ubuntu16.04.1*%
%TF.CreationDate,2017-03-20T22:22:26+02:00*%
%TF.ProjectId,BLDC_controller,424C44435F636F6E74726F6C6C65722E,1.0*%
%TF.FileFunction,Copper,L2,Inr,Plane*%
%FSLAX46Y46*%
G04 Gerber Fmt 4.6, Leading zero omitted, Abs format (unit mm)*
G04 Created by KiCad (PCBNEW 4.0.6-e0-6349~53~ubuntu16.04.1) date Mon Mar 20 22:22:26 2017*
%MOMM*%
%LPD*%
G01*
G04 APERTURE LIST*
%ADD10C,0.100000*%
%ADD11C,0.250000*%
%ADD12C,0.800000*%
%ADD13R,1.500000X1.500000*%
%ADD14C,1.500000*%
%ADD15C,1.300000*%
%ADD16C,2.100000*%
%ADD17C,0.254000*%
G04 APERTURE END LIST*
D10*
D11*
X175914286Y-111202619D02*
X175961905Y-111155000D01*
X176057143Y-111107381D01*
X176295239Y-111107381D01*
X176390477Y-111155000D01*
X176438096Y-111202619D01*
X176485715Y-111297857D01*
X176485715Y-111393095D01*
X176438096Y-111535952D01*
X175866667Y-112107381D01*
X176485715Y-112107381D01*
D12*
X175000000Y-85100000D03*
X164400000Y-82400000D03*
X163600000Y-82400000D03*
X163600000Y-83200000D03*
X164400000Y-83200000D03*
X163600000Y-84800000D03*
X164400000Y-84800000D03*
X168000000Y-83200000D03*
X167200000Y-83200000D03*
X168400000Y-84000000D03*
X167600000Y-84000000D03*
X166800000Y-84000000D03*
X166000000Y-84000000D03*
X165200000Y-84000000D03*
X164400000Y-84000000D03*
X163600000Y-84000000D03*
X168600000Y-102050000D03*
X167800000Y-102050000D03*
X167000000Y-102050000D03*
X166200000Y-102050000D03*
X165400000Y-102050000D03*
X164600000Y-102050000D03*
X163800000Y-102050000D03*
X163000000Y-102050000D03*
X168600000Y-101250000D03*
X167800000Y-101250000D03*
X167000000Y-101250000D03*
X166200000Y-101250000D03*
X165400000Y-101250000D03*
X164600000Y-101250000D03*
X163800000Y-101250000D03*
X182150000Y-99450000D03*
X181350000Y-99450000D03*
X180550000Y-99450000D03*
X179750000Y-99450000D03*
X182150000Y-98650000D03*
X181350000Y-98650000D03*
X180550000Y-98650000D03*
X179750000Y-98650000D03*
X182150000Y-97850000D03*
X181350000Y-97850000D03*
X180550000Y-97850000D03*
X179750000Y-97850000D03*
X182150000Y-97050000D03*
X181350000Y-97050000D03*
X180550000Y-97050000D03*
X179750000Y-97050000D03*
X182150000Y-96250000D03*
X181350000Y-96250000D03*
X180550000Y-96250000D03*
X179750000Y-96250000D03*
X182150000Y-95450000D03*
X181350000Y-95450000D03*
X180550000Y-95450000D03*
X179750000Y-95450000D03*
X182150000Y-94650000D03*
X181350000Y-94650000D03*
X180550000Y-94650000D03*
X182150000Y-92750000D03*
X181350000Y-92750000D03*
X180550000Y-92750000D03*
X179750000Y-92750000D03*
X182150000Y-91950000D03*
X181350000Y-91950000D03*
X180550000Y-91950000D03*
X179750000Y-91950000D03*
X182150000Y-91150000D03*
X181350000Y-91150000D03*
X180550000Y-91150000D03*
X179750000Y-91150000D03*
X182150000Y-90350000D03*
X181350000Y-90350000D03*
X180550000Y-90350000D03*
X179750000Y-90350000D03*
X182150000Y-89550000D03*
X181350000Y-89550000D03*
X180550000Y-89550000D03*
X179750000Y-89550000D03*
X182150000Y-88750000D03*
X181350000Y-88750000D03*
X180550000Y-88750000D03*
X179750000Y-88750000D03*
X182150000Y-87950000D03*
X181350000Y-87950000D03*
X180550000Y-87950000D03*
X179600000Y-107000000D03*
X180550000Y-106200000D03*
X179750000Y-106200000D03*
X182150000Y-105400000D03*
X181350000Y-105400000D03*
X180550000Y-105400000D03*
X179750000Y-105400000D03*
X182150000Y-104600000D03*
X181350000Y-104600000D03*
X180550000Y-104600000D03*
X179750000Y-104600000D03*
X182150000Y-103800000D03*
X181350000Y-103800000D03*
X180550000Y-103800000D03*
X179750000Y-103800000D03*
X182150000Y-103000000D03*
X181350000Y-103000000D03*
X180550000Y-103000000D03*
X179750000Y-103000000D03*
X182150000Y-102200000D03*
X181350000Y-102200000D03*
X180550000Y-102200000D03*
X179750000Y-102200000D03*
X182150000Y-101400000D03*
X181350000Y-101400000D03*
X180550000Y-101400000D03*
X168850000Y-112205000D03*
X168050000Y-112205000D03*
X167250000Y-112205000D03*
X166450000Y-112205000D03*
X165650000Y-112205000D03*
X164850000Y-112205000D03*
X164050000Y-112205000D03*
X163250000Y-112205000D03*
X168850000Y-111405000D03*
X168050000Y-111405000D03*
X167250000Y-111405000D03*
X166450000Y-111405000D03*
X165650000Y-111405000D03*
X164850000Y-111405000D03*
X164050000Y-111405000D03*
X170950000Y-111000000D03*
X173350000Y-108400000D03*
X175250000Y-108400000D03*
X174750000Y-100200000D03*
X175150000Y-93100000D03*
X171150000Y-92400000D03*
X171250000Y-100000000D03*
X179750000Y-101400000D03*
X179750000Y-94650000D03*
X179750000Y-87950000D03*
D13*
X143870000Y-85600000D03*
D14*
X146410000Y-85600000D03*
X148950000Y-85600000D03*
X151490000Y-85600000D03*
X154030000Y-85600000D03*
D15*
X168000000Y-82200000D03*
D12*
X142500000Y-98300000D03*
X138250000Y-88000000D03*
X138050000Y-91200000D03*
X138250000Y-100500000D03*
X138250000Y-104800000D03*
X163000000Y-101250000D03*
X163250000Y-111405000D03*
X147650000Y-97755000D03*
X146350000Y-98105000D03*
X145200000Y-98105000D03*
X143050000Y-93055000D03*
X144000000Y-98155000D03*
X142000000Y-97405000D03*
X142050000Y-93905000D03*
X148750000Y-94055000D03*
X147500000Y-93405000D03*
X146450000Y-93205000D03*
X145400000Y-93205000D03*
D13*
X143870000Y-83060000D03*
D14*
X146410000Y-83060000D03*
X148950000Y-83060000D03*
X151490000Y-83060000D03*
X154030000Y-83060000D03*
X156570000Y-83060000D03*
D13*
X143870000Y-111000000D03*
D14*
X146410000Y-111000000D03*
X148950000Y-111000000D03*
X151490000Y-111000000D03*
X154030000Y-111000000D03*
D12*
X144300000Y-93205000D03*
D15*
X173000000Y-82250000D03*
D16*
X183500000Y-90000000D03*
X183500000Y-97000000D03*
X183500000Y-104500000D03*
X171000000Y-82500000D03*
X165800000Y-82500000D03*
D12*
X147125365Y-100093856D03*
X147649988Y-99300000D03*
X151799861Y-98500000D03*
X149750000Y-91325010D03*
X167000000Y-87000000D03*
X149000000Y-104000000D03*
X166950006Y-98100000D03*
X160050000Y-110600000D03*
X141250000Y-89400000D03*
X161750000Y-99900000D03*
X158125032Y-92719540D03*
X161550000Y-87725010D03*
X142700000Y-100000000D03*
X147000000Y-87900000D03*
X148850000Y-108400000D03*
X143950000Y-108399990D03*
X167250000Y-108200000D03*
X153500000Y-95505000D03*
X159575976Y-104487519D03*
X153000000Y-99755000D03*
X142050000Y-96350000D03*
X142050000Y-95050000D03*
X156436664Y-99950012D03*
X162185865Y-95890868D03*
X159150000Y-93000000D03*
X172550000Y-100400000D03*
X159893199Y-103474992D03*
X172987345Y-93012664D03*
X160692377Y-91550260D03*
X160300013Y-83400000D03*
X172550000Y-85300000D03*
X167950000Y-107000000D03*
X177750000Y-101000000D03*
X177850000Y-85200000D03*
X160350000Y-87600000D03*
X165650000Y-96700000D03*
X177550000Y-93399996D03*
X150250000Y-102500000D03*
X141350000Y-90600006D03*
X160299809Y-92998900D03*
X140350000Y-100150000D03*
X139500000Y-105800000D03*
X138200000Y-99200000D03*
X149244014Y-92362557D03*
X159100000Y-105505000D03*
X147200000Y-89600000D03*
X155700000Y-110400000D03*
X155437812Y-99998167D03*
X161824990Y-92833481D03*
X160537340Y-104767660D03*
X167050004Y-105400000D03*
X162100000Y-83400000D03*
X167050000Y-88750000D03*
X166950000Y-95000000D03*
X161910518Y-91828733D03*
X159299998Y-83400000D03*
X152950000Y-88400000D03*
X157400000Y-105800000D03*
X140350000Y-98450000D03*
X156893923Y-107531396D03*
X150464474Y-101049989D03*
X153725010Y-92850000D03*
X154343865Y-89256331D03*
X151769372Y-102682959D03*
X154638611Y-91663931D03*
X153733366Y-91156501D03*
X151840616Y-95630768D03*
X158198915Y-107480021D03*
X156450000Y-98100000D03*
X155067262Y-89946781D03*
X149905679Y-93112357D03*
X148484530Y-93013101D03*
X156200000Y-105705000D03*
X156170369Y-95224666D03*
X153950000Y-88100000D03*
D11*
X160050000Y-110600000D02*
X161350000Y-110600000D01*
X161350000Y-110600000D02*
X163750000Y-108200000D01*
X163750000Y-108200000D02*
X167250000Y-108200000D01*
X163550000Y-98100000D02*
X166384321Y-98100000D01*
X161750000Y-99900000D02*
X163550000Y-98100000D01*
X166384321Y-98100000D02*
X166950006Y-98100000D01*
X178950000Y-100900000D02*
X177750000Y-99700000D01*
X177750000Y-99700000D02*
X177750000Y-97700000D01*
X177750000Y-97700000D02*
X177350000Y-97300000D01*
X177350000Y-97300000D02*
X166176996Y-97300000D01*
X165971996Y-97505000D02*
X158881676Y-97505000D01*
X166176996Y-97300000D02*
X165971996Y-97505000D01*
X158881676Y-97505000D02*
X156836663Y-99550013D01*
X156836663Y-99550013D02*
X156436664Y-99950012D01*
X179150000Y-100900000D02*
X179350000Y-101100000D01*
X178950000Y-100900000D02*
X179150000Y-100900000D01*
X181376996Y-103326996D02*
X178950000Y-100900000D01*
X181650000Y-103326996D02*
X181376996Y-103326996D01*
X178500000Y-93250000D02*
X178500000Y-93500000D01*
X178500000Y-93500000D02*
X178500000Y-93750000D01*
X178750000Y-93750000D02*
X178500000Y-93500000D01*
X178500000Y-93750000D02*
X178750000Y-94000000D01*
X162185865Y-95890868D02*
X162585864Y-95490869D01*
X162585864Y-95490869D02*
X166350284Y-95490869D01*
X166350284Y-95490869D02*
X166614382Y-95754967D01*
X166614382Y-95754967D02*
X168995033Y-95754967D01*
X168995033Y-95754967D02*
X172550000Y-92200000D01*
X172550000Y-92200000D02*
X177450000Y-92200000D01*
X177450000Y-92200000D02*
X178500000Y-93250000D01*
X178750000Y-93750000D02*
X178750000Y-94000000D01*
X178750000Y-93750000D02*
X179500000Y-94500000D01*
X178750000Y-94000000D02*
X179400000Y-94650000D01*
X179400000Y-94650000D02*
X179750000Y-94650000D01*
X180100000Y-94850000D02*
X180100000Y-96205000D01*
X178850000Y-90100000D02*
X179150000Y-90400000D01*
X179150000Y-89800000D02*
X178850000Y-90100000D01*
X179150000Y-89900000D02*
X178950000Y-90100000D01*
X178850000Y-90100000D02*
X160350000Y-90100000D01*
X179040000Y-90100000D02*
X178850000Y-90100000D01*
X178850000Y-90100000D02*
X178950000Y-90100000D01*
X179450000Y-90510000D02*
X179040000Y-90100000D01*
X160350000Y-90100000D02*
X159050000Y-91400000D01*
X159050000Y-91400000D02*
X159050000Y-92334315D01*
X159050000Y-92334315D02*
X159150000Y-92434315D01*
X159150000Y-92434315D02*
X159150000Y-93000000D01*
X172150001Y-100799999D02*
X172550000Y-100400000D01*
X169475008Y-103474992D02*
X172150001Y-100799999D01*
X159893199Y-103474992D02*
X169475008Y-103474992D01*
X161092376Y-91950259D02*
X161092376Y-95870389D01*
X169795031Y-96204978D02*
X172587346Y-93412663D01*
X161092376Y-95870389D02*
X161837858Y-96615871D01*
X164439095Y-96615871D02*
X165090123Y-95964843D01*
X166187847Y-95964843D02*
X166427982Y-96204978D01*
X165090123Y-95964843D02*
X166187847Y-95964843D01*
X161837858Y-96615871D02*
X164439095Y-96615871D01*
X166427982Y-96204978D02*
X169795031Y-96204978D01*
X172587346Y-93412663D02*
X172987345Y-93012664D01*
X160692377Y-91550260D02*
X161092376Y-91950259D01*
X162448002Y-82674998D02*
X161025015Y-82674998D01*
X161025015Y-82674998D02*
X160700012Y-83000001D01*
X162825002Y-83051998D02*
X162448002Y-82674998D01*
X162825002Y-85098004D02*
X162825002Y-83051998D01*
X163426997Y-85699999D02*
X162825002Y-85098004D01*
X160700012Y-83000001D02*
X160300013Y-83400000D01*
X172550000Y-85300000D02*
X172150001Y-85699999D01*
X172150001Y-85699999D02*
X163426997Y-85699999D01*
X177750000Y-101000000D02*
X171750000Y-107000000D01*
X171750000Y-107000000D02*
X167950000Y-107000000D01*
X160350000Y-87600000D02*
X162250000Y-89500000D01*
X162250000Y-89500000D02*
X177350000Y-89500000D01*
X177350000Y-89500000D02*
X177850000Y-89000000D01*
X177850000Y-89000000D02*
X177850000Y-85200000D01*
X177550000Y-93399996D02*
X177550000Y-96100000D01*
X177550000Y-96100000D02*
X176995011Y-96654989D01*
X176995011Y-96654989D02*
X165695011Y-96654989D01*
X165695011Y-96654989D02*
X165650000Y-96700000D01*
X160537340Y-104767660D02*
X161669679Y-105899999D01*
X166550004Y-105400000D02*
X167050004Y-105400000D01*
X161669679Y-105899999D02*
X166050005Y-105899999D01*
X166050005Y-105899999D02*
X166550004Y-105400000D01*
X162100000Y-83965685D02*
X162100000Y-83400000D01*
X165784315Y-88750000D02*
X162100000Y-85065685D01*
X167050000Y-88750000D02*
X165784315Y-88750000D01*
X162100000Y-85065685D02*
X162100000Y-83965685D01*
X166950000Y-95000000D02*
X163350000Y-95000000D01*
X163350000Y-95000000D02*
X162750000Y-94400000D01*
X162750000Y-94400000D02*
X162750000Y-92600000D01*
X162750000Y-92600000D02*
X161978733Y-91828733D01*
X161978733Y-91828733D02*
X161910518Y-91828733D01*
X153584315Y-87200000D02*
X155499998Y-87200000D01*
X152950000Y-88400000D02*
X152950000Y-87834315D01*
X155499998Y-87200000D02*
X158899999Y-83799999D01*
X152950000Y-87834315D02*
X153584315Y-87200000D01*
X158899999Y-83799999D02*
X159299998Y-83400000D01*
D17*
G36*
X178373000Y-109873000D02*
X173750000Y-109873000D01*
X173700590Y-109883006D01*
X173658965Y-109911447D01*
X173631685Y-109953841D01*
X173623000Y-110000000D01*
X173623000Y-112498000D01*
X169623798Y-112498000D01*
X169676856Y-112370222D01*
X169677143Y-112041221D01*
X169579454Y-111804795D01*
X169676856Y-111570222D01*
X169677143Y-111241221D01*
X169551505Y-110937154D01*
X169319070Y-110704312D01*
X169015222Y-110578144D01*
X168686221Y-110577857D01*
X168449795Y-110675546D01*
X168215222Y-110578144D01*
X167886221Y-110577857D01*
X167649795Y-110675546D01*
X167415222Y-110578144D01*
X167086221Y-110577857D01*
X166849795Y-110675546D01*
X166615222Y-110578144D01*
X166286221Y-110577857D01*
X166049795Y-110675546D01*
X165815222Y-110578144D01*
X165486221Y-110577857D01*
X165249795Y-110675546D01*
X165015222Y-110578144D01*
X164686221Y-110577857D01*
X164449795Y-110675546D01*
X164215222Y-110578144D01*
X163886221Y-110577857D01*
X163649795Y-110675546D01*
X163415222Y-110578144D01*
X163086221Y-110577857D01*
X162782154Y-110703495D01*
X162549312Y-110935930D01*
X162423144Y-111239778D01*
X162422857Y-111568779D01*
X162520546Y-111805205D01*
X162423144Y-112039778D01*
X162422857Y-112368779D01*
X162476250Y-112498000D01*
X161867916Y-112498000D01*
X161867916Y-110862730D01*
X163978646Y-108752000D01*
X166632502Y-108752000D01*
X166780930Y-108900688D01*
X167084778Y-109026856D01*
X167413779Y-109027143D01*
X167717846Y-108901505D01*
X167950688Y-108669070D01*
X168076856Y-108365222D01*
X168077143Y-108036221D01*
X167990709Y-107827036D01*
X168113779Y-107827143D01*
X168417846Y-107701505D01*
X168567613Y-107552000D01*
X171750000Y-107552000D01*
X171961242Y-107509982D01*
X172140323Y-107390323D01*
X177703686Y-101826960D01*
X177913779Y-101827143D01*
X178217846Y-101701505D01*
X178373000Y-101546622D01*
X178373000Y-109873000D01*
X178373000Y-109873000D01*
G37*
X178373000Y-109873000D02*
X173750000Y-109873000D01*
X173700590Y-109883006D01*
X173658965Y-109911447D01*
X173631685Y-109953841D01*
X173623000Y-110000000D01*
X173623000Y-112498000D01*
X169623798Y-112498000D01*
X169676856Y-112370222D01*
X169677143Y-112041221D01*
X169579454Y-111804795D01*
X169676856Y-111570222D01*
X169677143Y-111241221D01*
X169551505Y-110937154D01*
X169319070Y-110704312D01*
X169015222Y-110578144D01*
X168686221Y-110577857D01*
X168449795Y-110675546D01*
X168215222Y-110578144D01*
X167886221Y-110577857D01*
X167649795Y-110675546D01*
X167415222Y-110578144D01*
X167086221Y-110577857D01*
X166849795Y-110675546D01*
X166615222Y-110578144D01*
X166286221Y-110577857D01*
X166049795Y-110675546D01*
X165815222Y-110578144D01*
X165486221Y-110577857D01*
X165249795Y-110675546D01*
X165015222Y-110578144D01*
X164686221Y-110577857D01*
X164449795Y-110675546D01*
X164215222Y-110578144D01*
X163886221Y-110577857D01*
X163649795Y-110675546D01*
X163415222Y-110578144D01*
X163086221Y-110577857D01*
X162782154Y-110703495D01*
X162549312Y-110935930D01*
X162423144Y-111239778D01*
X162422857Y-111568779D01*
X162520546Y-111805205D01*
X162423144Y-112039778D01*
X162422857Y-112368779D01*
X162476250Y-112498000D01*
X161867916Y-112498000D01*
X161867916Y-110862730D01*
X163978646Y-108752000D01*
X166632502Y-108752000D01*
X166780930Y-108900688D01*
X167084778Y-109026856D01*
X167413779Y-109027143D01*
X167717846Y-108901505D01*
X167950688Y-108669070D01*
X168076856Y-108365222D01*
X168077143Y-108036221D01*
X167990709Y-107827036D01*
X168113779Y-107827143D01*
X168417846Y-107701505D01*
X168567613Y-107552000D01*
X171750000Y-107552000D01*
X171961242Y-107509982D01*
X172140323Y-107390323D01*
X177703686Y-101826960D01*
X177913779Y-101827143D01*
X178217846Y-101701505D01*
X178373000Y-101546622D01*
X178373000Y-109873000D01*
G36*
X177198000Y-97928646D02*
X177198000Y-99700000D01*
X177240018Y-99911242D01*
X177359677Y-100090323D01*
X177484317Y-100214963D01*
X177282154Y-100298495D01*
X177049312Y-100530930D01*
X176923144Y-100834778D01*
X176922959Y-101046395D01*
X171521354Y-106448000D01*
X168567498Y-106448000D01*
X168419070Y-106299312D01*
X168115222Y-106173144D01*
X167786221Y-106172857D01*
X167482154Y-106298495D01*
X167249312Y-106530930D01*
X167123144Y-106834778D01*
X167122857Y-107163779D01*
X167209291Y-107372964D01*
X167086221Y-107372857D01*
X166782154Y-107498495D01*
X166632387Y-107648000D01*
X163750000Y-107648000D01*
X163538759Y-107690018D01*
X163359677Y-107809677D01*
X161867916Y-109301438D01*
X161867916Y-106451999D01*
X166050005Y-106451999D01*
X166261247Y-106409981D01*
X166440328Y-106290322D01*
X166615577Y-106115073D01*
X166884782Y-106226856D01*
X167213783Y-106227143D01*
X167517850Y-106101505D01*
X167750692Y-105869070D01*
X167876860Y-105565222D01*
X167877147Y-105236221D01*
X167751509Y-104932154D01*
X167519074Y-104699312D01*
X167215226Y-104573144D01*
X166886225Y-104572857D01*
X166582158Y-104698495D01*
X166403124Y-104877216D01*
X166338763Y-104890018D01*
X166205739Y-104978902D01*
X166159681Y-105009677D01*
X165821359Y-105347999D01*
X161898325Y-105347999D01*
X161867916Y-105317590D01*
X161867916Y-104026992D01*
X169475008Y-104026992D01*
X169686250Y-103984974D01*
X169865331Y-103865315D01*
X172503686Y-101226960D01*
X172713779Y-101227143D01*
X173017846Y-101101505D01*
X173250688Y-100869070D01*
X173376856Y-100565222D01*
X173377143Y-100236221D01*
X173251505Y-99932154D01*
X173019070Y-99699312D01*
X172715222Y-99573144D01*
X172386221Y-99572857D01*
X172082154Y-99698495D01*
X171849312Y-99930930D01*
X171723144Y-100234778D01*
X171722959Y-100446395D01*
X169246362Y-102922992D01*
X161425392Y-102922992D01*
X160588480Y-101918697D01*
X160549162Y-101887144D01*
X160490916Y-101873000D01*
X152302606Y-101873000D01*
X151843385Y-101413779D01*
X162172857Y-101413779D01*
X162270546Y-101650205D01*
X162173144Y-101884778D01*
X162172857Y-102213779D01*
X162298495Y-102517846D01*
X162530930Y-102750688D01*
X162834778Y-102876856D01*
X163163779Y-102877143D01*
X163400205Y-102779454D01*
X163634778Y-102876856D01*
X163963779Y-102877143D01*
X164200205Y-102779454D01*
X164434778Y-102876856D01*
X164763779Y-102877143D01*
X165000205Y-102779454D01*
X165234778Y-102876856D01*
X165563779Y-102877143D01*
X165800205Y-102779454D01*
X166034778Y-102876856D01*
X166363779Y-102877143D01*
X166600205Y-102779454D01*
X166834778Y-102876856D01*
X167163779Y-102877143D01*
X167400205Y-102779454D01*
X167634778Y-102876856D01*
X167963779Y-102877143D01*
X168200205Y-102779454D01*
X168434778Y-102876856D01*
X168763779Y-102877143D01*
X169067846Y-102751505D01*
X169300688Y-102519070D01*
X169426856Y-102215222D01*
X169427143Y-101886221D01*
X169329454Y-101649795D01*
X169426856Y-101415222D01*
X169427143Y-101086221D01*
X169301505Y-100782154D01*
X169069070Y-100549312D01*
X168765222Y-100423144D01*
X168436221Y-100422857D01*
X168199795Y-100520546D01*
X167965222Y-100423144D01*
X167636221Y-100422857D01*
X167399795Y-100520546D01*
X167165222Y-100423144D01*
X166836221Y-100422857D01*
X166599795Y-100520546D01*
X166365222Y-100423144D01*
X166036221Y-100422857D01*
X165799795Y-100520546D01*
X165565222Y-100423144D01*
X165236221Y-100422857D01*
X164999795Y-100520546D01*
X164765222Y-100423144D01*
X164436221Y-100422857D01*
X164199795Y-100520546D01*
X163965222Y-100423144D01*
X163636221Y-100422857D01*
X163399795Y-100520546D01*
X163165222Y-100423144D01*
X162836221Y-100422857D01*
X162532154Y-100548495D01*
X162299312Y-100780930D01*
X162173144Y-101084778D01*
X162172857Y-101413779D01*
X151843385Y-101413779D01*
X151339803Y-100910197D01*
X151297789Y-100882334D01*
X151289333Y-100880682D01*
X151165979Y-100582143D01*
X150933544Y-100349301D01*
X150629696Y-100223133D01*
X150300695Y-100222846D01*
X149996628Y-100348484D01*
X149763786Y-100580919D01*
X149642504Y-100873000D01*
X146377000Y-100873000D01*
X146377000Y-99918779D01*
X152172857Y-99918779D01*
X152298495Y-100222846D01*
X152530930Y-100455688D01*
X152834778Y-100581856D01*
X153163779Y-100582143D01*
X153467846Y-100456505D01*
X153700688Y-100224070D01*
X153826856Y-99920222D01*
X153827143Y-99591221D01*
X153701505Y-99287154D01*
X153469070Y-99054312D01*
X153165222Y-98928144D01*
X152836221Y-98927857D01*
X152532154Y-99053495D01*
X152299312Y-99285930D01*
X152173144Y-99589778D01*
X152172857Y-99918779D01*
X146377000Y-99918779D01*
X146377000Y-98932024D01*
X146513779Y-98932143D01*
X146817846Y-98806505D01*
X147050688Y-98574070D01*
X147123664Y-98398322D01*
X147180930Y-98455688D01*
X147484778Y-98581856D01*
X147813779Y-98582143D01*
X148117846Y-98456505D01*
X148350688Y-98224070D01*
X148390995Y-98127000D01*
X155622976Y-98127000D01*
X155622857Y-98263779D01*
X155748495Y-98567846D01*
X155980930Y-98800688D01*
X156284778Y-98926856D01*
X156613779Y-98927143D01*
X156724732Y-98881298D01*
X156482978Y-99123052D01*
X156272885Y-99122869D01*
X155968818Y-99248507D01*
X155913310Y-99303918D01*
X155906882Y-99297479D01*
X155603034Y-99171311D01*
X155274033Y-99171024D01*
X154969966Y-99296662D01*
X154737124Y-99529097D01*
X154610956Y-99832945D01*
X154610669Y-100161946D01*
X154736307Y-100466013D01*
X154968742Y-100698855D01*
X155272590Y-100825023D01*
X155601591Y-100825310D01*
X155905658Y-100699672D01*
X155961166Y-100644261D01*
X155967594Y-100650700D01*
X156271442Y-100776868D01*
X156600443Y-100777155D01*
X156904510Y-100651517D01*
X157137352Y-100419082D01*
X157263520Y-100115234D01*
X157263705Y-99903617D01*
X159040322Y-98127000D01*
X162000000Y-98127000D01*
X162049410Y-98116994D01*
X162091035Y-98088553D01*
X162111339Y-98057000D01*
X162812354Y-98057000D01*
X161796314Y-99073040D01*
X161586221Y-99072857D01*
X161282154Y-99198495D01*
X161049312Y-99430930D01*
X160923144Y-99734778D01*
X160922857Y-100063779D01*
X161048495Y-100367846D01*
X161280930Y-100600688D01*
X161584778Y-100726856D01*
X161913779Y-100727143D01*
X162217846Y-100601505D01*
X162450688Y-100369070D01*
X162576856Y-100065222D01*
X162577041Y-99853605D01*
X163778646Y-98652000D01*
X166332508Y-98652000D01*
X166480936Y-98800688D01*
X166784784Y-98926856D01*
X167113785Y-98927143D01*
X167417852Y-98801505D01*
X167650694Y-98569070D01*
X167776862Y-98265222D01*
X167777149Y-97936221D01*
X167742350Y-97852000D01*
X177121354Y-97852000D01*
X177198000Y-97928646D01*
X177198000Y-97928646D01*
G37*
X177198000Y-97928646D02*
X177198000Y-99700000D01*
X177240018Y-99911242D01*
X177359677Y-100090323D01*
X177484317Y-100214963D01*
X177282154Y-100298495D01*
X177049312Y-100530930D01*
X176923144Y-100834778D01*
X176922959Y-101046395D01*
X171521354Y-106448000D01*
X168567498Y-106448000D01*
X168419070Y-106299312D01*
X168115222Y-106173144D01*
X167786221Y-106172857D01*
X167482154Y-106298495D01*
X167249312Y-106530930D01*
X167123144Y-106834778D01*
X167122857Y-107163779D01*
X167209291Y-107372964D01*
X167086221Y-107372857D01*
X166782154Y-107498495D01*
X166632387Y-107648000D01*
X163750000Y-107648000D01*
X163538759Y-107690018D01*
X163359677Y-107809677D01*
X161867916Y-109301438D01*
X161867916Y-106451999D01*
X166050005Y-106451999D01*
X166261247Y-106409981D01*
X166440328Y-106290322D01*
X166615577Y-106115073D01*
X166884782Y-106226856D01*
X167213783Y-106227143D01*
X167517850Y-106101505D01*
X167750692Y-105869070D01*
X167876860Y-105565222D01*
X167877147Y-105236221D01*
X167751509Y-104932154D01*
X167519074Y-104699312D01*
X167215226Y-104573144D01*
X166886225Y-104572857D01*
X166582158Y-104698495D01*
X166403124Y-104877216D01*
X166338763Y-104890018D01*
X166205739Y-104978902D01*
X166159681Y-105009677D01*
X165821359Y-105347999D01*
X161898325Y-105347999D01*
X161867916Y-105317590D01*
X161867916Y-104026992D01*
X169475008Y-104026992D01*
X169686250Y-103984974D01*
X169865331Y-103865315D01*
X172503686Y-101226960D01*
X172713779Y-101227143D01*
X173017846Y-101101505D01*
X173250688Y-100869070D01*
X173376856Y-100565222D01*
X173377143Y-100236221D01*
X173251505Y-99932154D01*
X173019070Y-99699312D01*
X172715222Y-99573144D01*
X172386221Y-99572857D01*
X172082154Y-99698495D01*
X171849312Y-99930930D01*
X171723144Y-100234778D01*
X171722959Y-100446395D01*
X169246362Y-102922992D01*
X161425392Y-102922992D01*
X160588480Y-101918697D01*
X160549162Y-101887144D01*
X160490916Y-101873000D01*
X152302606Y-101873000D01*
X151843385Y-101413779D01*
X162172857Y-101413779D01*
X162270546Y-101650205D01*
X162173144Y-101884778D01*
X162172857Y-102213779D01*
X162298495Y-102517846D01*
X162530930Y-102750688D01*
X162834778Y-102876856D01*
X163163779Y-102877143D01*
X163400205Y-102779454D01*
X163634778Y-102876856D01*
X163963779Y-102877143D01*
X164200205Y-102779454D01*
X164434778Y-102876856D01*
X164763779Y-102877143D01*
X165000205Y-102779454D01*
X165234778Y-102876856D01*
X165563779Y-102877143D01*
X165800205Y-102779454D01*
X166034778Y-102876856D01*
X166363779Y-102877143D01*
X166600205Y-102779454D01*
X166834778Y-102876856D01*
X167163779Y-102877143D01*
X167400205Y-102779454D01*
X167634778Y-102876856D01*
X167963779Y-102877143D01*
X168200205Y-102779454D01*
X168434778Y-102876856D01*
X168763779Y-102877143D01*
X169067846Y-102751505D01*
X169300688Y-102519070D01*
X169426856Y-102215222D01*
X169427143Y-101886221D01*
X169329454Y-101649795D01*
X169426856Y-101415222D01*
X169427143Y-101086221D01*
X169301505Y-100782154D01*
X169069070Y-100549312D01*
X168765222Y-100423144D01*
X168436221Y-100422857D01*
X168199795Y-100520546D01*
X167965222Y-100423144D01*
X167636221Y-100422857D01*
X167399795Y-100520546D01*
X167165222Y-100423144D01*
X166836221Y-100422857D01*
X166599795Y-100520546D01*
X166365222Y-100423144D01*
X166036221Y-100422857D01*
X165799795Y-100520546D01*
X165565222Y-100423144D01*
X165236221Y-100422857D01*
X164999795Y-100520546D01*
X164765222Y-100423144D01*
X164436221Y-100422857D01*
X164199795Y-100520546D01*
X163965222Y-100423144D01*
X163636221Y-100422857D01*
X163399795Y-100520546D01*
X163165222Y-100423144D01*
X162836221Y-100422857D01*
X162532154Y-100548495D01*
X162299312Y-100780930D01*
X162173144Y-101084778D01*
X162172857Y-101413779D01*
X151843385Y-101413779D01*
X151339803Y-100910197D01*
X151297789Y-100882334D01*
X151289333Y-100880682D01*
X151165979Y-100582143D01*
X150933544Y-100349301D01*
X150629696Y-100223133D01*
X150300695Y-100222846D01*
X149996628Y-100348484D01*
X149763786Y-100580919D01*
X149642504Y-100873000D01*
X146377000Y-100873000D01*
X146377000Y-99918779D01*
X152172857Y-99918779D01*
X152298495Y-100222846D01*
X152530930Y-100455688D01*
X152834778Y-100581856D01*
X153163779Y-100582143D01*
X153467846Y-100456505D01*
X153700688Y-100224070D01*
X153826856Y-99920222D01*
X153827143Y-99591221D01*
X153701505Y-99287154D01*
X153469070Y-99054312D01*
X153165222Y-98928144D01*
X152836221Y-98927857D01*
X152532154Y-99053495D01*
X152299312Y-99285930D01*
X152173144Y-99589778D01*
X152172857Y-99918779D01*
X146377000Y-99918779D01*
X146377000Y-98932024D01*
X146513779Y-98932143D01*
X146817846Y-98806505D01*
X147050688Y-98574070D01*
X147123664Y-98398322D01*
X147180930Y-98455688D01*
X147484778Y-98581856D01*
X147813779Y-98582143D01*
X148117846Y-98456505D01*
X148350688Y-98224070D01*
X148390995Y-98127000D01*
X155622976Y-98127000D01*
X155622857Y-98263779D01*
X155748495Y-98567846D01*
X155980930Y-98800688D01*
X156284778Y-98926856D01*
X156613779Y-98927143D01*
X156724732Y-98881298D01*
X156482978Y-99123052D01*
X156272885Y-99122869D01*
X155968818Y-99248507D01*
X155913310Y-99303918D01*
X155906882Y-99297479D01*
X155603034Y-99171311D01*
X155274033Y-99171024D01*
X154969966Y-99296662D01*
X154737124Y-99529097D01*
X154610956Y-99832945D01*
X154610669Y-100161946D01*
X154736307Y-100466013D01*
X154968742Y-100698855D01*
X155272590Y-100825023D01*
X155601591Y-100825310D01*
X155905658Y-100699672D01*
X155961166Y-100644261D01*
X155967594Y-100650700D01*
X156271442Y-100776868D01*
X156600443Y-100777155D01*
X156904510Y-100651517D01*
X157137352Y-100419082D01*
X157263520Y-100115234D01*
X157263705Y-99903617D01*
X159040322Y-98127000D01*
X162000000Y-98127000D01*
X162049410Y-98116994D01*
X162091035Y-98088553D01*
X162111339Y-98057000D01*
X162812354Y-98057000D01*
X161796314Y-99073040D01*
X161586221Y-99072857D01*
X161282154Y-99198495D01*
X161049312Y-99430930D01*
X160923144Y-99734778D01*
X160922857Y-100063779D01*
X161048495Y-100367846D01*
X161280930Y-100600688D01*
X161584778Y-100726856D01*
X161913779Y-100727143D01*
X162217846Y-100601505D01*
X162450688Y-100369070D01*
X162576856Y-100065222D01*
X162577041Y-99853605D01*
X163778646Y-98652000D01*
X166332508Y-98652000D01*
X166480936Y-98800688D01*
X166784784Y-98926856D01*
X167113785Y-98927143D01*
X167417852Y-98801505D01*
X167650694Y-98569070D01*
X167776862Y-98265222D01*
X167777149Y-97936221D01*
X167742350Y-97852000D01*
X177121354Y-97852000D01*
X177198000Y-97928646D01*
G36*
X176849312Y-92930926D02*
X176723144Y-93234774D01*
X176722857Y-93563775D01*
X176848495Y-93867842D01*
X176998000Y-94017609D01*
X176998000Y-95871354D01*
X176766365Y-96102989D01*
X170677666Y-96102989D01*
X172941031Y-93839624D01*
X173151124Y-93839807D01*
X173455191Y-93714169D01*
X173688033Y-93481734D01*
X173814201Y-93177886D01*
X173814488Y-92848885D01*
X173774456Y-92752000D01*
X177028551Y-92752000D01*
X176849312Y-92930926D01*
X176849312Y-92930926D01*
G37*
X176849312Y-92930926D02*
X176723144Y-93234774D01*
X176722857Y-93563775D01*
X176848495Y-93867842D01*
X176998000Y-94017609D01*
X176998000Y-95871354D01*
X176766365Y-96102989D01*
X170677666Y-96102989D01*
X172941031Y-93839624D01*
X173151124Y-93839807D01*
X173455191Y-93714169D01*
X173688033Y-93481734D01*
X173814201Y-93177886D01*
X173814488Y-92848885D01*
X173774456Y-92752000D01*
X177028551Y-92752000D01*
X176849312Y-92930926D01*
G36*
X178373000Y-92342354D02*
X177840323Y-91809677D01*
X177661242Y-91690018D01*
X177450000Y-91648000D01*
X172550000Y-91648000D01*
X172338759Y-91690018D01*
X172159677Y-91809677D01*
X168766387Y-95202967D01*
X167761183Y-95202967D01*
X167776856Y-95165222D01*
X167777143Y-94836221D01*
X167651505Y-94532154D01*
X167419070Y-94299312D01*
X167115222Y-94173144D01*
X166786221Y-94172857D01*
X166482154Y-94298495D01*
X166332387Y-94448000D01*
X163578646Y-94448000D01*
X163302000Y-94171354D01*
X163302000Y-92600000D01*
X163259982Y-92388759D01*
X163140323Y-92209677D01*
X162737537Y-91806891D01*
X162737661Y-91664954D01*
X162612023Y-91360887D01*
X162379588Y-91128045D01*
X162127000Y-91023162D01*
X162127000Y-90652000D01*
X178373000Y-90652000D01*
X178373000Y-92342354D01*
X178373000Y-92342354D01*
G37*
X178373000Y-92342354D02*
X177840323Y-91809677D01*
X177661242Y-91690018D01*
X177450000Y-91648000D01*
X172550000Y-91648000D01*
X172338759Y-91690018D01*
X172159677Y-91809677D01*
X168766387Y-95202967D01*
X167761183Y-95202967D01*
X167776856Y-95165222D01*
X167777143Y-94836221D01*
X167651505Y-94532154D01*
X167419070Y-94299312D01*
X167115222Y-94173144D01*
X166786221Y-94172857D01*
X166482154Y-94298495D01*
X166332387Y-94448000D01*
X163578646Y-94448000D01*
X163302000Y-94171354D01*
X163302000Y-92600000D01*
X163259982Y-92388759D01*
X163140323Y-92209677D01*
X162737537Y-91806891D01*
X162737661Y-91664954D01*
X162612023Y-91360887D01*
X162379588Y-91128045D01*
X162127000Y-91023162D01*
X162127000Y-90652000D01*
X178373000Y-90652000D01*
X178373000Y-92342354D01*
G36*
X178373000Y-84553336D02*
X178319070Y-84499312D01*
X178015222Y-84373144D01*
X177686221Y-84372857D01*
X177382154Y-84498495D01*
X177149312Y-84730930D01*
X177023144Y-85034778D01*
X177022857Y-85363779D01*
X177148495Y-85667846D01*
X177298000Y-85817613D01*
X177298000Y-88771354D01*
X177121354Y-88948000D01*
X167863245Y-88948000D01*
X167876856Y-88915222D01*
X167877143Y-88586221D01*
X167751505Y-88282154D01*
X167519070Y-88049312D01*
X167215222Y-87923144D01*
X166886221Y-87922857D01*
X166582154Y-88048495D01*
X166432387Y-88198000D01*
X166012961Y-88198000D01*
X164066960Y-86251999D01*
X166644683Y-86251999D01*
X166532154Y-86298495D01*
X166299312Y-86530930D01*
X166173144Y-86834778D01*
X166172857Y-87163779D01*
X166298495Y-87467846D01*
X166530930Y-87700688D01*
X166834778Y-87826856D01*
X167163779Y-87827143D01*
X167467846Y-87701505D01*
X167700688Y-87469070D01*
X167826856Y-87165222D01*
X167827143Y-86836221D01*
X167701505Y-86532154D01*
X167469070Y-86299312D01*
X167355127Y-86251999D01*
X172150001Y-86251999D01*
X172361243Y-86209981D01*
X172485516Y-86126944D01*
X172713779Y-86127143D01*
X173017846Y-86001505D01*
X173250688Y-85769070D01*
X173376856Y-85465222D01*
X173377143Y-85136221D01*
X173251505Y-84832154D01*
X173019070Y-84599312D01*
X172715222Y-84473144D01*
X172386221Y-84472857D01*
X172082154Y-84598495D01*
X171849312Y-84830930D01*
X171723144Y-85134778D01*
X171723132Y-85147999D01*
X165150961Y-85147999D01*
X165226856Y-84965222D01*
X165226977Y-84827024D01*
X165363779Y-84827143D01*
X165600205Y-84729454D01*
X165834778Y-84826856D01*
X166163779Y-84827143D01*
X166400205Y-84729454D01*
X166634778Y-84826856D01*
X166963779Y-84827143D01*
X167200205Y-84729454D01*
X167434778Y-84826856D01*
X167763779Y-84827143D01*
X168000205Y-84729454D01*
X168234778Y-84826856D01*
X168563779Y-84827143D01*
X168867846Y-84701505D01*
X168942481Y-84627000D01*
X169500000Y-84627000D01*
X169549410Y-84616994D01*
X169591035Y-84588553D01*
X169618315Y-84546159D01*
X169627000Y-84499670D01*
X169619219Y-81502000D01*
X178373000Y-81502000D01*
X178373000Y-84553336D01*
X178373000Y-84553336D01*
G37*
X178373000Y-84553336D02*
X178319070Y-84499312D01*
X178015222Y-84373144D01*
X177686221Y-84372857D01*
X177382154Y-84498495D01*
X177149312Y-84730930D01*
X177023144Y-85034778D01*
X177022857Y-85363779D01*
X177148495Y-85667846D01*
X177298000Y-85817613D01*
X177298000Y-88771354D01*
X177121354Y-88948000D01*
X167863245Y-88948000D01*
X167876856Y-88915222D01*
X167877143Y-88586221D01*
X167751505Y-88282154D01*
X167519070Y-88049312D01*
X167215222Y-87923144D01*
X166886221Y-87922857D01*
X166582154Y-88048495D01*
X166432387Y-88198000D01*
X166012961Y-88198000D01*
X164066960Y-86251999D01*
X166644683Y-86251999D01*
X166532154Y-86298495D01*
X166299312Y-86530930D01*
X166173144Y-86834778D01*
X166172857Y-87163779D01*
X166298495Y-87467846D01*
X166530930Y-87700688D01*
X166834778Y-87826856D01*
X167163779Y-87827143D01*
X167467846Y-87701505D01*
X167700688Y-87469070D01*
X167826856Y-87165222D01*
X167827143Y-86836221D01*
X167701505Y-86532154D01*
X167469070Y-86299312D01*
X167355127Y-86251999D01*
X172150001Y-86251999D01*
X172361243Y-86209981D01*
X172485516Y-86126944D01*
X172713779Y-86127143D01*
X173017846Y-86001505D01*
X173250688Y-85769070D01*
X173376856Y-85465222D01*
X173377143Y-85136221D01*
X173251505Y-84832154D01*
X173019070Y-84599312D01*
X172715222Y-84473144D01*
X172386221Y-84472857D01*
X172082154Y-84598495D01*
X171849312Y-84830930D01*
X171723144Y-85134778D01*
X171723132Y-85147999D01*
X165150961Y-85147999D01*
X165226856Y-84965222D01*
X165226977Y-84827024D01*
X165363779Y-84827143D01*
X165600205Y-84729454D01*
X165834778Y-84826856D01*
X166163779Y-84827143D01*
X166400205Y-84729454D01*
X166634778Y-84826856D01*
X166963779Y-84827143D01*
X167200205Y-84729454D01*
X167434778Y-84826856D01*
X167763779Y-84827143D01*
X168000205Y-84729454D01*
X168234778Y-84826856D01*
X168563779Y-84827143D01*
X168867846Y-84701505D01*
X168942481Y-84627000D01*
X169500000Y-84627000D01*
X169549410Y-84616994D01*
X169591035Y-84588553D01*
X169618315Y-84546159D01*
X169627000Y-84499670D01*
X169619219Y-81502000D01*
X178373000Y-81502000D01*
X178373000Y-84553336D01*
G36*
X161123000Y-82122998D02*
X161025015Y-82122998D01*
X160813773Y-82165016D01*
X160634692Y-82284675D01*
X160346327Y-82573040D01*
X160136234Y-82572857D01*
X159832167Y-82698495D01*
X159800154Y-82730452D01*
X159769068Y-82699312D01*
X159465220Y-82573144D01*
X159136219Y-82572857D01*
X158832152Y-82698495D01*
X158599310Y-82930930D01*
X158473142Y-83234778D01*
X158472957Y-83446395D01*
X155271352Y-86648000D01*
X154575790Y-86648000D01*
X154695846Y-86598394D01*
X155027230Y-86267588D01*
X155206795Y-85835147D01*
X155207204Y-85366907D01*
X155028394Y-84934154D01*
X154697588Y-84602770D01*
X154265147Y-84423205D01*
X153796907Y-84422796D01*
X153364154Y-84601606D01*
X153032770Y-84932412D01*
X152853205Y-85364853D01*
X152852796Y-85833093D01*
X153031606Y-86265846D01*
X153362412Y-86597230D01*
X153516950Y-86661400D01*
X153373073Y-86690018D01*
X153193992Y-86809677D01*
X152559677Y-87443992D01*
X152440018Y-87623073D01*
X152440018Y-87623074D01*
X152410860Y-87769665D01*
X152249312Y-87930930D01*
X152123144Y-88234778D01*
X152122857Y-88563779D01*
X152248495Y-88867846D01*
X152480930Y-89100688D01*
X152784778Y-89226856D01*
X153113779Y-89227143D01*
X153417846Y-89101505D01*
X153579840Y-88939794D01*
X153517009Y-89091109D01*
X153516722Y-89420110D01*
X153642360Y-89724177D01*
X153874795Y-89957019D01*
X154178643Y-90083187D01*
X154240143Y-90083241D01*
X154240119Y-90110560D01*
X154365757Y-90414627D01*
X154598192Y-90647469D01*
X154902040Y-90773637D01*
X155231041Y-90773924D01*
X155535108Y-90648286D01*
X155767950Y-90415851D01*
X155894118Y-90112003D01*
X155894405Y-89783002D01*
X155768767Y-89478935D01*
X155536332Y-89246093D01*
X155232484Y-89119925D01*
X155170984Y-89119871D01*
X155171008Y-89092552D01*
X155045370Y-88788485D01*
X154812935Y-88555643D01*
X154679304Y-88500155D01*
X154776856Y-88265222D01*
X154777143Y-87936221D01*
X154701024Y-87752000D01*
X155499998Y-87752000D01*
X155711240Y-87709982D01*
X155890321Y-87590323D01*
X159253684Y-84226960D01*
X159463777Y-84227143D01*
X159767844Y-84101505D01*
X159799857Y-84069548D01*
X159830943Y-84100688D01*
X160134791Y-84226856D01*
X160463792Y-84227143D01*
X160767859Y-84101505D01*
X161000701Y-83869070D01*
X161123000Y-83574540D01*
X161123000Y-87006628D01*
X161082154Y-87023505D01*
X161012478Y-87093059D01*
X160819070Y-86899312D01*
X160515222Y-86773144D01*
X160186221Y-86772857D01*
X159882154Y-86898495D01*
X159649312Y-87130930D01*
X159523144Y-87434778D01*
X159522857Y-87763779D01*
X159648495Y-88067846D01*
X159880930Y-88300688D01*
X160184778Y-88426856D01*
X160396395Y-88427041D01*
X161123000Y-89153646D01*
X161123000Y-89548000D01*
X160350000Y-89548000D01*
X160138758Y-89590018D01*
X159959677Y-89709677D01*
X158659677Y-91009677D01*
X158540018Y-91188758D01*
X158540018Y-91188759D01*
X158498000Y-91400000D01*
X158498000Y-91978947D01*
X158290254Y-91892684D01*
X157961253Y-91892397D01*
X157657186Y-92018035D01*
X157424344Y-92250470D01*
X157298176Y-92554318D01*
X157297889Y-92883319D01*
X157423527Y-93187386D01*
X157655962Y-93420228D01*
X157959810Y-93546396D01*
X158288811Y-93546683D01*
X158457581Y-93476948D01*
X158680930Y-93700688D01*
X158984778Y-93826856D01*
X159313779Y-93827143D01*
X159617846Y-93701505D01*
X159850688Y-93469070D01*
X159976856Y-93165222D01*
X159977143Y-92836221D01*
X159851505Y-92532154D01*
X159689101Y-92369465D01*
X159659982Y-92223074D01*
X159602000Y-92136298D01*
X159602000Y-91628646D01*
X159879661Y-91350985D01*
X159865521Y-91385038D01*
X159865234Y-91714039D01*
X159990872Y-92018106D01*
X160223307Y-92250948D01*
X160527155Y-92377116D01*
X160540376Y-92377128D01*
X160540376Y-95870389D01*
X160582394Y-96081631D01*
X160702053Y-96260712D01*
X161123000Y-96681659D01*
X161123000Y-96953000D01*
X158881676Y-96953000D01*
X158670434Y-96995018D01*
X158491353Y-97114677D01*
X158233030Y-97373000D01*
X156855703Y-97373000D01*
X156615222Y-97273144D01*
X156286221Y-97272857D01*
X156043857Y-97373000D01*
X151377000Y-97373000D01*
X151377000Y-96333721D01*
X151675394Y-96457624D01*
X152004395Y-96457911D01*
X152308462Y-96332273D01*
X152541304Y-96099838D01*
X152667472Y-95795990D01*
X152667582Y-95668779D01*
X152672857Y-95668779D01*
X152798495Y-95972846D01*
X153030930Y-96205688D01*
X153334778Y-96331856D01*
X153663779Y-96332143D01*
X153967846Y-96206505D01*
X154200688Y-95974070D01*
X154326856Y-95670222D01*
X154327101Y-95388445D01*
X155343226Y-95388445D01*
X155468864Y-95692512D01*
X155701299Y-95925354D01*
X156005147Y-96051522D01*
X156334148Y-96051809D01*
X156638215Y-95926171D01*
X156871057Y-95693736D01*
X156997225Y-95389888D01*
X156997512Y-95060887D01*
X156871874Y-94756820D01*
X156639439Y-94523978D01*
X156335591Y-94397810D01*
X156006590Y-94397523D01*
X155702523Y-94523161D01*
X155469681Y-94755596D01*
X155343513Y-95059444D01*
X155343226Y-95388445D01*
X154327101Y-95388445D01*
X154327143Y-95341221D01*
X154201505Y-95037154D01*
X153969070Y-94804312D01*
X153665222Y-94678144D01*
X153336221Y-94677857D01*
X153032154Y-94803495D01*
X152799312Y-95035930D01*
X152673144Y-95339778D01*
X152672857Y-95668779D01*
X152667582Y-95668779D01*
X152667759Y-95466989D01*
X152542121Y-95162922D01*
X152309686Y-94930080D01*
X152005838Y-94803912D01*
X151676837Y-94803625D01*
X151372770Y-94929263D01*
X151139928Y-95161698D01*
X151013760Y-95465546D01*
X151013473Y-95794547D01*
X151045889Y-95873000D01*
X150790699Y-95873000D01*
X149221917Y-94752441D01*
X149450688Y-94524070D01*
X149576856Y-94220222D01*
X149577143Y-93891221D01*
X149567257Y-93867294D01*
X149740457Y-93939213D01*
X150069458Y-93939500D01*
X150373525Y-93813862D01*
X150606367Y-93581427D01*
X150732535Y-93277579D01*
X150732765Y-93013779D01*
X152897867Y-93013779D01*
X153023505Y-93317846D01*
X153255940Y-93550688D01*
X153559788Y-93676856D01*
X153888789Y-93677143D01*
X154192856Y-93551505D01*
X154425698Y-93319070D01*
X154551866Y-93015222D01*
X154552153Y-92686221D01*
X154470990Y-92489791D01*
X154473389Y-92490787D01*
X154802390Y-92491074D01*
X155106457Y-92365436D01*
X155339299Y-92133001D01*
X155465467Y-91829153D01*
X155465754Y-91500152D01*
X155340116Y-91196085D01*
X155107681Y-90963243D01*
X154803833Y-90837075D01*
X154496086Y-90836807D01*
X154434871Y-90688655D01*
X154202436Y-90455813D01*
X153898588Y-90329645D01*
X153569587Y-90329358D01*
X153265520Y-90454996D01*
X153032678Y-90687431D01*
X152906510Y-90991279D01*
X152906223Y-91320280D01*
X153031861Y-91624347D01*
X153264296Y-91857189D01*
X153568144Y-91983357D01*
X153875891Y-91983625D01*
X153892631Y-92024140D01*
X153890232Y-92023144D01*
X153561231Y-92022857D01*
X153257164Y-92148495D01*
X153024322Y-92380930D01*
X152898154Y-92684778D01*
X152897867Y-93013779D01*
X150732765Y-93013779D01*
X150732822Y-92948578D01*
X150607184Y-92644511D01*
X150374749Y-92411669D01*
X150070901Y-92285501D01*
X149741900Y-92285214D01*
X149437833Y-92410852D01*
X149220248Y-92628057D01*
X149186035Y-92545255D01*
X148953600Y-92312413D01*
X148649752Y-92186245D01*
X148320751Y-92185958D01*
X148016684Y-92311596D01*
X147783842Y-92544031D01*
X147754316Y-92615139D01*
X147665222Y-92578144D01*
X147336221Y-92577857D01*
X147092864Y-92678410D01*
X146919070Y-92504312D01*
X146615222Y-92378144D01*
X146286221Y-92377857D01*
X145982154Y-92503495D01*
X145925105Y-92560445D01*
X145869070Y-92504312D01*
X145565222Y-92378144D01*
X145236221Y-92377857D01*
X144932154Y-92503495D01*
X144850061Y-92585445D01*
X144769070Y-92504312D01*
X144465222Y-92378144D01*
X144136221Y-92377857D01*
X143832154Y-92503495D01*
X143749930Y-92585576D01*
X143519070Y-92354312D01*
X143215222Y-92228144D01*
X142886221Y-92227857D01*
X142582154Y-92353495D01*
X142349312Y-92585930D01*
X142223144Y-92889778D01*
X142222977Y-93081364D01*
X142215222Y-93078144D01*
X141886221Y-93077857D01*
X141582154Y-93203495D01*
X141349312Y-93435930D01*
X141223144Y-93739778D01*
X141222857Y-94068779D01*
X141348495Y-94372846D01*
X141452945Y-94477479D01*
X141349312Y-94580930D01*
X141223144Y-94884778D01*
X141222857Y-95213779D01*
X141348495Y-95517846D01*
X141530445Y-95700114D01*
X141349312Y-95880930D01*
X141223144Y-96184778D01*
X141222857Y-96513779D01*
X141348495Y-96817846D01*
X141382988Y-96852400D01*
X141299312Y-96935930D01*
X141173144Y-97239778D01*
X141172857Y-97568779D01*
X141298495Y-97872846D01*
X141530930Y-98105688D01*
X141673118Y-98164729D01*
X141672857Y-98463779D01*
X141798495Y-98767846D01*
X142030930Y-99000688D01*
X142334778Y-99126856D01*
X142663779Y-99127143D01*
X142967846Y-99001505D01*
X143200688Y-98769070D01*
X143279996Y-98578075D01*
X143298495Y-98622846D01*
X143530930Y-98855688D01*
X143834778Y-98981856D01*
X144163779Y-98982143D01*
X144467846Y-98856505D01*
X144625027Y-98699599D01*
X144730930Y-98805688D01*
X145034778Y-98931856D01*
X145363779Y-98932143D01*
X145623000Y-98825035D01*
X145623000Y-101500000D01*
X145633006Y-101549410D01*
X145661447Y-101591035D01*
X145703841Y-101618315D01*
X145750000Y-101627000D01*
X149871943Y-101627000D01*
X149995404Y-101750677D01*
X150299252Y-101876845D01*
X150628253Y-101877132D01*
X150932320Y-101751494D01*
X151002165Y-101681771D01*
X151301754Y-101981360D01*
X151301526Y-101981454D01*
X151068684Y-102213889D01*
X150942516Y-102517737D01*
X150942229Y-102846738D01*
X151067867Y-103150805D01*
X151300302Y-103383647D01*
X151604150Y-103509815D01*
X151933151Y-103510102D01*
X152237218Y-103384464D01*
X152470060Y-103152029D01*
X152596228Y-102848181D01*
X152596421Y-102627000D01*
X160188961Y-102627000D01*
X160279215Y-102739817D01*
X160058421Y-102648136D01*
X159729420Y-102647849D01*
X159425353Y-102773487D01*
X159192511Y-103005922D01*
X159066343Y-103309770D01*
X159066056Y-103638771D01*
X159124159Y-103779391D01*
X159108130Y-103786014D01*
X158875288Y-104018449D01*
X158749120Y-104322297D01*
X158748833Y-104651298D01*
X158874471Y-104955365D01*
X159106906Y-105188207D01*
X159410754Y-105314375D01*
X159739755Y-105314662D01*
X159863721Y-105263440D01*
X160068270Y-105468348D01*
X160372118Y-105594516D01*
X160583735Y-105594701D01*
X161123000Y-106133966D01*
X161123000Y-110046354D01*
X161121354Y-110048000D01*
X160667498Y-110048000D01*
X160519070Y-109899312D01*
X160215222Y-109773144D01*
X159886221Y-109772857D01*
X159582154Y-109898495D01*
X159349312Y-110130930D01*
X159223144Y-110434778D01*
X159222857Y-110763779D01*
X159348495Y-111067846D01*
X159580930Y-111300688D01*
X159884778Y-111426856D01*
X160213779Y-111427143D01*
X160517846Y-111301505D01*
X160667613Y-111152000D01*
X161123000Y-111152000D01*
X161123000Y-112498000D01*
X141452244Y-112498000D01*
X141865392Y-112085573D01*
X142426361Y-110734609D01*
X142426783Y-110250000D01*
X142684635Y-110250000D01*
X142684635Y-111750000D01*
X142714409Y-111908237D01*
X142807927Y-112053567D01*
X142950619Y-112151064D01*
X143120000Y-112185365D01*
X144620000Y-112185365D01*
X144778237Y-112155591D01*
X144923567Y-112062073D01*
X145021064Y-111919381D01*
X145055365Y-111750000D01*
X145055365Y-111233093D01*
X145232796Y-111233093D01*
X145411606Y-111665846D01*
X145742412Y-111997230D01*
X146174853Y-112176795D01*
X146643093Y-112177204D01*
X147075846Y-111998394D01*
X147407230Y-111667588D01*
X147586795Y-111235147D01*
X147586796Y-111233093D01*
X147772796Y-111233093D01*
X147951606Y-111665846D01*
X148282412Y-111997230D01*
X148714853Y-112176795D01*
X149183093Y-112177204D01*
X149615846Y-111998394D01*
X149947230Y-111667588D01*
X150126795Y-111235147D01*
X150126796Y-111233093D01*
X150312796Y-111233093D01*
X150491606Y-111665846D01*
X150822412Y-111997230D01*
X151254853Y-112176795D01*
X151723093Y-112177204D01*
X152155846Y-111998394D01*
X152487230Y-111667588D01*
X152666795Y-111235147D01*
X152666796Y-111233093D01*
X152852796Y-111233093D01*
X153031606Y-111665846D01*
X153362412Y-111997230D01*
X153794853Y-112176795D01*
X154263093Y-112177204D01*
X154695846Y-111998394D01*
X155027230Y-111667588D01*
X155206795Y-111235147D01*
X155207204Y-110766907D01*
X155028394Y-110334154D01*
X154697588Y-110002770D01*
X154265147Y-109823205D01*
X153796907Y-109822796D01*
X153364154Y-110001606D01*
X153032770Y-110332412D01*
X152853205Y-110764853D01*
X152852796Y-111233093D01*
X152666796Y-111233093D01*
X152667204Y-110766907D01*
X152488394Y-110334154D01*
X152157588Y-110002770D01*
X151725147Y-109823205D01*
X151256907Y-109822796D01*
X150824154Y-110001606D01*
X150492770Y-110332412D01*
X150313205Y-110764853D01*
X150312796Y-111233093D01*
X150126796Y-111233093D01*
X150127204Y-110766907D01*
X149948394Y-110334154D01*
X149617588Y-110002770D01*
X149185147Y-109823205D01*
X148716907Y-109822796D01*
X148284154Y-110001606D01*
X147952770Y-110332412D01*
X147773205Y-110764853D01*
X147772796Y-111233093D01*
X147586796Y-111233093D01*
X147587204Y-110766907D01*
X147408394Y-110334154D01*
X147077588Y-110002770D01*
X146645147Y-109823205D01*
X146176907Y-109822796D01*
X145744154Y-110001606D01*
X145412770Y-110332412D01*
X145233205Y-110764853D01*
X145232796Y-111233093D01*
X145055365Y-111233093D01*
X145055365Y-110250000D01*
X145025591Y-110091763D01*
X144932073Y-109946433D01*
X144789381Y-109848936D01*
X144620000Y-109814635D01*
X143120000Y-109814635D01*
X142961763Y-109844409D01*
X142816433Y-109937927D01*
X142718936Y-110080619D01*
X142684635Y-110250000D01*
X142426783Y-110250000D01*
X142427637Y-109271808D01*
X142135082Y-108563769D01*
X143122857Y-108563769D01*
X143248495Y-108867836D01*
X143480930Y-109100678D01*
X143784778Y-109226846D01*
X144113779Y-109227133D01*
X144417846Y-109101495D01*
X144650688Y-108869060D01*
X144776856Y-108565212D01*
X144776857Y-108563779D01*
X148022857Y-108563779D01*
X148148495Y-108867846D01*
X148380930Y-109100688D01*
X148684778Y-109226856D01*
X149013779Y-109227143D01*
X149317846Y-109101505D01*
X149550688Y-108869070D01*
X149676856Y-108565222D01*
X149677143Y-108236221D01*
X149551505Y-107932154D01*
X149319070Y-107699312D01*
X149309107Y-107695175D01*
X156066780Y-107695175D01*
X156192418Y-107999242D01*
X156424853Y-108232084D01*
X156728701Y-108358252D01*
X157057702Y-108358539D01*
X157361769Y-108232901D01*
X157572225Y-108022813D01*
X157729845Y-108180709D01*
X158033693Y-108306877D01*
X158362694Y-108307164D01*
X158666761Y-108181526D01*
X158899603Y-107949091D01*
X159025771Y-107645243D01*
X159026058Y-107316242D01*
X158900420Y-107012175D01*
X158667985Y-106779333D01*
X158364137Y-106653165D01*
X158035136Y-106652878D01*
X157731069Y-106778516D01*
X157520613Y-106988604D01*
X157362993Y-106830708D01*
X157059145Y-106704540D01*
X156730144Y-106704253D01*
X156426077Y-106829891D01*
X156193235Y-107062326D01*
X156067067Y-107366174D01*
X156066780Y-107695175D01*
X149309107Y-107695175D01*
X149015222Y-107573144D01*
X148686221Y-107572857D01*
X148382154Y-107698495D01*
X148149312Y-107930930D01*
X148023144Y-108234778D01*
X148022857Y-108563779D01*
X144776857Y-108563779D01*
X144777143Y-108236211D01*
X144651505Y-107932144D01*
X144419070Y-107699302D01*
X144115222Y-107573134D01*
X143786221Y-107572847D01*
X143482154Y-107698485D01*
X143249312Y-107930920D01*
X143123144Y-108234768D01*
X143122857Y-108563769D01*
X142135082Y-108563769D01*
X141869027Y-107919868D01*
X140835573Y-106884608D01*
X139484609Y-106323639D01*
X138021808Y-106322363D01*
X136752000Y-106847037D01*
X136752000Y-105868779D01*
X155372857Y-105868779D01*
X155498495Y-106172846D01*
X155730930Y-106405688D01*
X156034778Y-106531856D01*
X156363779Y-106532143D01*
X156667846Y-106406505D01*
X156752527Y-106321972D01*
X156930930Y-106500688D01*
X157234778Y-106626856D01*
X157563779Y-106627143D01*
X157867846Y-106501505D01*
X158100688Y-106269070D01*
X158226856Y-105965222D01*
X158227143Y-105636221D01*
X158101505Y-105332154D01*
X157869070Y-105099312D01*
X157565222Y-104973144D01*
X157236221Y-104972857D01*
X156932154Y-105098495D01*
X156847473Y-105183028D01*
X156669070Y-105004312D01*
X156365222Y-104878144D01*
X156036221Y-104877857D01*
X155732154Y-105003495D01*
X155499312Y-105235930D01*
X155373144Y-105539778D01*
X155372857Y-105868779D01*
X136752000Y-105868779D01*
X136752000Y-104963779D01*
X137422857Y-104963779D01*
X137548495Y-105267846D01*
X137780930Y-105500688D01*
X138084778Y-105626856D01*
X138413779Y-105627143D01*
X138717846Y-105501505D01*
X138950688Y-105269070D01*
X139076856Y-104965222D01*
X139077143Y-104636221D01*
X138951505Y-104332154D01*
X138783425Y-104163779D01*
X148172857Y-104163779D01*
X148298495Y-104467846D01*
X148530930Y-104700688D01*
X148834778Y-104826856D01*
X149163779Y-104827143D01*
X149467846Y-104701505D01*
X149700688Y-104469070D01*
X149826856Y-104165222D01*
X149827143Y-103836221D01*
X149701505Y-103532154D01*
X149469070Y-103299312D01*
X149165222Y-103173144D01*
X148836221Y-103172857D01*
X148532154Y-103298495D01*
X148299312Y-103530930D01*
X148173144Y-103834778D01*
X148172857Y-104163779D01*
X138783425Y-104163779D01*
X138719070Y-104099312D01*
X138415222Y-103973144D01*
X138086221Y-103972857D01*
X137782154Y-104098495D01*
X137549312Y-104330930D01*
X137423144Y-104634778D01*
X137422857Y-104963779D01*
X136752000Y-104963779D01*
X136752000Y-100663779D01*
X137422857Y-100663779D01*
X137548495Y-100967846D01*
X137780930Y-101200688D01*
X138084778Y-101326856D01*
X138413779Y-101327143D01*
X138717846Y-101201505D01*
X138950688Y-100969070D01*
X139076856Y-100665222D01*
X139077143Y-100336221D01*
X139005892Y-100163779D01*
X141872857Y-100163779D01*
X141998495Y-100467846D01*
X142230930Y-100700688D01*
X142534778Y-100826856D01*
X142863779Y-100827143D01*
X143167846Y-100701505D01*
X143400688Y-100469070D01*
X143526856Y-100165222D01*
X143527143Y-99836221D01*
X143401505Y-99532154D01*
X143169070Y-99299312D01*
X142865222Y-99173144D01*
X142536221Y-99172857D01*
X142232154Y-99298495D01*
X141999312Y-99530930D01*
X141873144Y-99834778D01*
X141872857Y-100163779D01*
X139005892Y-100163779D01*
X138951505Y-100032154D01*
X138719070Y-99799312D01*
X138415222Y-99673144D01*
X138086221Y-99672857D01*
X137782154Y-99798495D01*
X137549312Y-100030930D01*
X137423144Y-100334778D01*
X137422857Y-100663779D01*
X136752000Y-100663779D01*
X136752000Y-98613779D01*
X139522857Y-98613779D01*
X139648495Y-98917846D01*
X139880930Y-99150688D01*
X140184778Y-99276856D01*
X140513779Y-99277143D01*
X140817846Y-99151505D01*
X141050688Y-98919070D01*
X141176856Y-98615222D01*
X141177143Y-98286221D01*
X141051505Y-97982154D01*
X140819070Y-97749312D01*
X140515222Y-97623144D01*
X140186221Y-97622857D01*
X139882154Y-97748495D01*
X139649312Y-97980930D01*
X139523144Y-98284778D01*
X139522857Y-98613779D01*
X136752000Y-98613779D01*
X136752000Y-91363779D01*
X137222857Y-91363779D01*
X137348495Y-91667846D01*
X137580930Y-91900688D01*
X137884778Y-92026856D01*
X138213779Y-92027143D01*
X138517846Y-91901505D01*
X138750688Y-91669070D01*
X138825546Y-91488789D01*
X148922857Y-91488789D01*
X149048495Y-91792856D01*
X149280930Y-92025698D01*
X149584778Y-92151866D01*
X149913779Y-92152153D01*
X150217846Y-92026515D01*
X150450688Y-91794080D01*
X150576856Y-91490232D01*
X150577143Y-91161231D01*
X150451505Y-90857164D01*
X150219070Y-90624322D01*
X149915222Y-90498154D01*
X149586221Y-90497867D01*
X149282154Y-90623505D01*
X149049312Y-90855940D01*
X148923144Y-91159788D01*
X148922857Y-91488789D01*
X138825546Y-91488789D01*
X138876856Y-91365222D01*
X138877143Y-91036221D01*
X138751505Y-90732154D01*
X138519070Y-90499312D01*
X138215222Y-90373144D01*
X137886221Y-90372857D01*
X137582154Y-90498495D01*
X137349312Y-90730930D01*
X137223144Y-91034778D01*
X137222857Y-91363779D01*
X136752000Y-91363779D01*
X136752000Y-89563779D01*
X140422857Y-89563779D01*
X140548495Y-89867846D01*
X140780930Y-90100688D01*
X141084778Y-90226856D01*
X141413779Y-90227143D01*
X141717846Y-90101505D01*
X141950688Y-89869070D01*
X142076856Y-89565222D01*
X142077143Y-89236221D01*
X141951505Y-88932154D01*
X141719070Y-88699312D01*
X141415222Y-88573144D01*
X141086221Y-88572857D01*
X140782154Y-88698495D01*
X140549312Y-88930930D01*
X140423144Y-89234778D01*
X140422857Y-89563779D01*
X136752000Y-89563779D01*
X136752000Y-86702244D01*
X137164427Y-87115392D01*
X137730226Y-87350332D01*
X137549312Y-87530930D01*
X137423144Y-87834778D01*
X137422857Y-88163779D01*
X137548495Y-88467846D01*
X137780930Y-88700688D01*
X138084778Y-88826856D01*
X138413779Y-88827143D01*
X138717846Y-88701505D01*
X138950688Y-88469070D01*
X139076856Y-88165222D01*
X139076944Y-88063779D01*
X146172857Y-88063779D01*
X146298495Y-88367846D01*
X146530930Y-88600688D01*
X146834778Y-88726856D01*
X147163779Y-88727143D01*
X147467846Y-88601505D01*
X147700688Y-88369070D01*
X147826856Y-88065222D01*
X147827143Y-87736221D01*
X147701505Y-87432154D01*
X147469070Y-87199312D01*
X147165222Y-87073144D01*
X146836221Y-87072857D01*
X146532154Y-87198495D01*
X146299312Y-87430930D01*
X146173144Y-87734778D01*
X146172857Y-88063779D01*
X139076944Y-88063779D01*
X139077143Y-87836221D01*
X139011269Y-87676794D01*
X139978192Y-87677637D01*
X141330132Y-87119027D01*
X142365392Y-86085573D01*
X142684635Y-85316750D01*
X142684635Y-86350000D01*
X142714409Y-86508237D01*
X142807927Y-86653567D01*
X142950619Y-86751064D01*
X143120000Y-86785365D01*
X144620000Y-86785365D01*
X144778237Y-86755591D01*
X144923567Y-86662073D01*
X145021064Y-86519381D01*
X145055365Y-86350000D01*
X145055365Y-85833093D01*
X145232796Y-85833093D01*
X145411606Y-86265846D01*
X145742412Y-86597230D01*
X146174853Y-86776795D01*
X146643093Y-86777204D01*
X147075846Y-86598394D01*
X147407230Y-86267588D01*
X147586795Y-85835147D01*
X147586796Y-85833093D01*
X147772796Y-85833093D01*
X147951606Y-86265846D01*
X148282412Y-86597230D01*
X148714853Y-86776795D01*
X149183093Y-86777204D01*
X149615846Y-86598394D01*
X149756830Y-86457655D01*
X150811950Y-86457655D01*
X150891329Y-86640065D01*
X151334916Y-86789996D01*
X151802113Y-86758761D01*
X152088671Y-86640065D01*
X152168050Y-86457655D01*
X151490000Y-85779605D01*
X150811950Y-86457655D01*
X149756830Y-86457655D01*
X149947230Y-86267588D01*
X150126795Y-85835147D01*
X150127135Y-85444916D01*
X150300004Y-85444916D01*
X150331239Y-85912113D01*
X150449935Y-86198671D01*
X150632345Y-86278050D01*
X151310395Y-85600000D01*
X151669605Y-85600000D01*
X152347655Y-86278050D01*
X152530065Y-86198671D01*
X152679996Y-85755084D01*
X152648761Y-85287887D01*
X152530065Y-85001329D01*
X152347655Y-84921950D01*
X151669605Y-85600000D01*
X151310395Y-85600000D01*
X150632345Y-84921950D01*
X150449935Y-85001329D01*
X150300004Y-85444916D01*
X150127135Y-85444916D01*
X150127204Y-85366907D01*
X149948394Y-84934154D01*
X149756920Y-84742345D01*
X150811950Y-84742345D01*
X151490000Y-85420395D01*
X152168050Y-84742345D01*
X152088671Y-84559935D01*
X151645084Y-84410004D01*
X151177887Y-84441239D01*
X150891329Y-84559935D01*
X150811950Y-84742345D01*
X149756920Y-84742345D01*
X149617588Y-84602770D01*
X149185147Y-84423205D01*
X148716907Y-84422796D01*
X148284154Y-84601606D01*
X147952770Y-84932412D01*
X147773205Y-85364853D01*
X147772796Y-85833093D01*
X147586796Y-85833093D01*
X147587204Y-85366907D01*
X147408394Y-84934154D01*
X147077588Y-84602770D01*
X146645147Y-84423205D01*
X146176907Y-84422796D01*
X145744154Y-84601606D01*
X145412770Y-84932412D01*
X145233205Y-85364853D01*
X145232796Y-85833093D01*
X145055365Y-85833093D01*
X145055365Y-84850000D01*
X145025591Y-84691763D01*
X144932073Y-84546433D01*
X144789381Y-84448936D01*
X144620000Y-84414635D01*
X143120000Y-84414635D01*
X142961763Y-84444409D01*
X142926594Y-84467040D01*
X142926834Y-84192169D01*
X143035065Y-84237000D01*
X143636250Y-84237000D01*
X143743000Y-84130250D01*
X143743000Y-83187000D01*
X143997000Y-83187000D01*
X143997000Y-84130250D01*
X144103750Y-84237000D01*
X144704935Y-84237000D01*
X144861876Y-84171993D01*
X144981993Y-84051876D01*
X145047000Y-83894936D01*
X145047000Y-83293750D01*
X145046343Y-83293093D01*
X145232796Y-83293093D01*
X145411606Y-83725846D01*
X145742412Y-84057230D01*
X146174853Y-84236795D01*
X146643093Y-84237204D01*
X147075846Y-84058394D01*
X147407230Y-83727588D01*
X147586795Y-83295147D01*
X147586796Y-83293093D01*
X147772796Y-83293093D01*
X147951606Y-83725846D01*
X148282412Y-84057230D01*
X148714853Y-84236795D01*
X149183093Y-84237204D01*
X149615846Y-84058394D01*
X149947230Y-83727588D01*
X150126795Y-83295147D01*
X150126796Y-83293093D01*
X150312796Y-83293093D01*
X150491606Y-83725846D01*
X150822412Y-84057230D01*
X151254853Y-84236795D01*
X151723093Y-84237204D01*
X152155846Y-84058394D01*
X152487230Y-83727588D01*
X152666795Y-83295147D01*
X152666796Y-83293093D01*
X152852796Y-83293093D01*
X153031606Y-83725846D01*
X153362412Y-84057230D01*
X153794853Y-84236795D01*
X154263093Y-84237204D01*
X154695846Y-84058394D01*
X155027230Y-83727588D01*
X155206795Y-83295147D01*
X155206796Y-83293093D01*
X155392796Y-83293093D01*
X155571606Y-83725846D01*
X155902412Y-84057230D01*
X156334853Y-84236795D01*
X156803093Y-84237204D01*
X157235846Y-84058394D01*
X157567230Y-83727588D01*
X157746795Y-83295147D01*
X157747204Y-82826907D01*
X157568394Y-82394154D01*
X157237588Y-82062770D01*
X156805147Y-81883205D01*
X156336907Y-81882796D01*
X155904154Y-82061606D01*
X155572770Y-82392412D01*
X155393205Y-82824853D01*
X155392796Y-83293093D01*
X155206796Y-83293093D01*
X155207204Y-82826907D01*
X155028394Y-82394154D01*
X154697588Y-82062770D01*
X154265147Y-81883205D01*
X153796907Y-81882796D01*
X153364154Y-82061606D01*
X153032770Y-82392412D01*
X152853205Y-82824853D01*
X152852796Y-83293093D01*
X152666796Y-83293093D01*
X152667204Y-82826907D01*
X152488394Y-82394154D01*
X152157588Y-82062770D01*
X151725147Y-81883205D01*
X151256907Y-81882796D01*
X150824154Y-82061606D01*
X150492770Y-82392412D01*
X150313205Y-82824853D01*
X150312796Y-83293093D01*
X150126796Y-83293093D01*
X150127204Y-82826907D01*
X149948394Y-82394154D01*
X149617588Y-82062770D01*
X149185147Y-81883205D01*
X148716907Y-81882796D01*
X148284154Y-82061606D01*
X147952770Y-82392412D01*
X147773205Y-82824853D01*
X147772796Y-83293093D01*
X147586796Y-83293093D01*
X147587204Y-82826907D01*
X147408394Y-82394154D01*
X147077588Y-82062770D01*
X146645147Y-81883205D01*
X146176907Y-81882796D01*
X145744154Y-82061606D01*
X145412770Y-82392412D01*
X145233205Y-82824853D01*
X145232796Y-83293093D01*
X145046343Y-83293093D01*
X144940250Y-83187000D01*
X143997000Y-83187000D01*
X143743000Y-83187000D01*
X143723000Y-83187000D01*
X143723000Y-82933000D01*
X143743000Y-82933000D01*
X143743000Y-81989750D01*
X143997000Y-81989750D01*
X143997000Y-82933000D01*
X144940250Y-82933000D01*
X145047000Y-82826250D01*
X145047000Y-82225064D01*
X144981993Y-82068124D01*
X144861876Y-81948007D01*
X144704935Y-81883000D01*
X144103750Y-81883000D01*
X143997000Y-81989750D01*
X143743000Y-81989750D01*
X143636250Y-81883000D01*
X143035065Y-81883000D01*
X142878124Y-81948007D01*
X142758007Y-82068124D01*
X142693000Y-82225064D01*
X142693000Y-82703943D01*
X142369027Y-81919868D01*
X141951888Y-81502000D01*
X161123000Y-81502000D01*
X161123000Y-82122998D01*
X161123000Y-82122998D01*
G37*
X161123000Y-82122998D02*
X161025015Y-82122998D01*
X160813773Y-82165016D01*
X160634692Y-82284675D01*
X160346327Y-82573040D01*
X160136234Y-82572857D01*
X159832167Y-82698495D01*
X159800154Y-82730452D01*
X159769068Y-82699312D01*
X159465220Y-82573144D01*
X159136219Y-82572857D01*
X158832152Y-82698495D01*
X158599310Y-82930930D01*
X158473142Y-83234778D01*
X158472957Y-83446395D01*
X155271352Y-86648000D01*
X154575790Y-86648000D01*
X154695846Y-86598394D01*
X155027230Y-86267588D01*
X155206795Y-85835147D01*
X155207204Y-85366907D01*
X155028394Y-84934154D01*
X154697588Y-84602770D01*
X154265147Y-84423205D01*
X153796907Y-84422796D01*
X153364154Y-84601606D01*
X153032770Y-84932412D01*
X152853205Y-85364853D01*
X152852796Y-85833093D01*
X153031606Y-86265846D01*
X153362412Y-86597230D01*
X153516950Y-86661400D01*
X153373073Y-86690018D01*
X153193992Y-86809677D01*
X152559677Y-87443992D01*
X152440018Y-87623073D01*
X152440018Y-87623074D01*
X152410860Y-87769665D01*
X152249312Y-87930930D01*
X152123144Y-88234778D01*
X152122857Y-88563779D01*
X152248495Y-88867846D01*
X152480930Y-89100688D01*
X152784778Y-89226856D01*
X153113779Y-89227143D01*
X153417846Y-89101505D01*
X153579840Y-88939794D01*
X153517009Y-89091109D01*
X153516722Y-89420110D01*
X153642360Y-89724177D01*
X153874795Y-89957019D01*
X154178643Y-90083187D01*
X154240143Y-90083241D01*
X154240119Y-90110560D01*
X154365757Y-90414627D01*
X154598192Y-90647469D01*
X154902040Y-90773637D01*
X155231041Y-90773924D01*
X155535108Y-90648286D01*
X155767950Y-90415851D01*
X155894118Y-90112003D01*
X155894405Y-89783002D01*
X155768767Y-89478935D01*
X155536332Y-89246093D01*
X155232484Y-89119925D01*
X155170984Y-89119871D01*
X155171008Y-89092552D01*
X155045370Y-88788485D01*
X154812935Y-88555643D01*
X154679304Y-88500155D01*
X154776856Y-88265222D01*
X154777143Y-87936221D01*
X154701024Y-87752000D01*
X155499998Y-87752000D01*
X155711240Y-87709982D01*
X155890321Y-87590323D01*
X159253684Y-84226960D01*
X159463777Y-84227143D01*
X159767844Y-84101505D01*
X159799857Y-84069548D01*
X159830943Y-84100688D01*
X160134791Y-84226856D01*
X160463792Y-84227143D01*
X160767859Y-84101505D01*
X161000701Y-83869070D01*
X161123000Y-83574540D01*
X161123000Y-87006628D01*
X161082154Y-87023505D01*
X161012478Y-87093059D01*
X160819070Y-86899312D01*
X160515222Y-86773144D01*
X160186221Y-86772857D01*
X159882154Y-86898495D01*
X159649312Y-87130930D01*
X159523144Y-87434778D01*
X159522857Y-87763779D01*
X159648495Y-88067846D01*
X159880930Y-88300688D01*
X160184778Y-88426856D01*
X160396395Y-88427041D01*
X161123000Y-89153646D01*
X161123000Y-89548000D01*
X160350000Y-89548000D01*
X160138758Y-89590018D01*
X159959677Y-89709677D01*
X158659677Y-91009677D01*
X158540018Y-91188758D01*
X158540018Y-91188759D01*
X158498000Y-91400000D01*
X158498000Y-91978947D01*
X158290254Y-91892684D01*
X157961253Y-91892397D01*
X157657186Y-92018035D01*
X157424344Y-92250470D01*
X157298176Y-92554318D01*
X157297889Y-92883319D01*
X157423527Y-93187386D01*
X157655962Y-93420228D01*
X157959810Y-93546396D01*
X158288811Y-93546683D01*
X158457581Y-93476948D01*
X158680930Y-93700688D01*
X158984778Y-93826856D01*
X159313779Y-93827143D01*
X159617846Y-93701505D01*
X159850688Y-93469070D01*
X159976856Y-93165222D01*
X159977143Y-92836221D01*
X159851505Y-92532154D01*
X159689101Y-92369465D01*
X159659982Y-92223074D01*
X159602000Y-92136298D01*
X159602000Y-91628646D01*
X159879661Y-91350985D01*
X159865521Y-91385038D01*
X159865234Y-91714039D01*
X159990872Y-92018106D01*
X160223307Y-92250948D01*
X160527155Y-92377116D01*
X160540376Y-92377128D01*
X160540376Y-95870389D01*
X160582394Y-96081631D01*
X160702053Y-96260712D01*
X161123000Y-96681659D01*
X161123000Y-96953000D01*
X158881676Y-96953000D01*
X158670434Y-96995018D01*
X158491353Y-97114677D01*
X158233030Y-97373000D01*
X156855703Y-97373000D01*
X156615222Y-97273144D01*
X156286221Y-97272857D01*
X156043857Y-97373000D01*
X151377000Y-97373000D01*
X151377000Y-96333721D01*
X151675394Y-96457624D01*
X152004395Y-96457911D01*
X152308462Y-96332273D01*
X152541304Y-96099838D01*
X152667472Y-95795990D01*
X152667582Y-95668779D01*
X152672857Y-95668779D01*
X152798495Y-95972846D01*
X153030930Y-96205688D01*
X153334778Y-96331856D01*
X153663779Y-96332143D01*
X153967846Y-96206505D01*
X154200688Y-95974070D01*
X154326856Y-95670222D01*
X154327101Y-95388445D01*
X155343226Y-95388445D01*
X155468864Y-95692512D01*
X155701299Y-95925354D01*
X156005147Y-96051522D01*
X156334148Y-96051809D01*
X156638215Y-95926171D01*
X156871057Y-95693736D01*
X156997225Y-95389888D01*
X156997512Y-95060887D01*
X156871874Y-94756820D01*
X156639439Y-94523978D01*
X156335591Y-94397810D01*
X156006590Y-94397523D01*
X155702523Y-94523161D01*
X155469681Y-94755596D01*
X155343513Y-95059444D01*
X155343226Y-95388445D01*
X154327101Y-95388445D01*
X154327143Y-95341221D01*
X154201505Y-95037154D01*
X153969070Y-94804312D01*
X153665222Y-94678144D01*
X153336221Y-94677857D01*
X153032154Y-94803495D01*
X152799312Y-95035930D01*
X152673144Y-95339778D01*
X152672857Y-95668779D01*
X152667582Y-95668779D01*
X152667759Y-95466989D01*
X152542121Y-95162922D01*
X152309686Y-94930080D01*
X152005838Y-94803912D01*
X151676837Y-94803625D01*
X151372770Y-94929263D01*
X151139928Y-95161698D01*
X151013760Y-95465546D01*
X151013473Y-95794547D01*
X151045889Y-95873000D01*
X150790699Y-95873000D01*
X149221917Y-94752441D01*
X149450688Y-94524070D01*
X149576856Y-94220222D01*
X149577143Y-93891221D01*
X149567257Y-93867294D01*
X149740457Y-93939213D01*
X150069458Y-93939500D01*
X150373525Y-93813862D01*
X150606367Y-93581427D01*
X150732535Y-93277579D01*
X150732765Y-93013779D01*
X152897867Y-93013779D01*
X153023505Y-93317846D01*
X153255940Y-93550688D01*
X153559788Y-93676856D01*
X153888789Y-93677143D01*
X154192856Y-93551505D01*
X154425698Y-93319070D01*
X154551866Y-93015222D01*
X154552153Y-92686221D01*
X154470990Y-92489791D01*
X154473389Y-92490787D01*
X154802390Y-92491074D01*
X155106457Y-92365436D01*
X155339299Y-92133001D01*
X155465467Y-91829153D01*
X155465754Y-91500152D01*
X155340116Y-91196085D01*
X155107681Y-90963243D01*
X154803833Y-90837075D01*
X154496086Y-90836807D01*
X154434871Y-90688655D01*
X154202436Y-90455813D01*
X153898588Y-90329645D01*
X153569587Y-90329358D01*
X153265520Y-90454996D01*
X153032678Y-90687431D01*
X152906510Y-90991279D01*
X152906223Y-91320280D01*
X153031861Y-91624347D01*
X153264296Y-91857189D01*
X153568144Y-91983357D01*
X153875891Y-91983625D01*
X153892631Y-92024140D01*
X153890232Y-92023144D01*
X153561231Y-92022857D01*
X153257164Y-92148495D01*
X153024322Y-92380930D01*
X152898154Y-92684778D01*
X152897867Y-93013779D01*
X150732765Y-93013779D01*
X150732822Y-92948578D01*
X150607184Y-92644511D01*
X150374749Y-92411669D01*
X150070901Y-92285501D01*
X149741900Y-92285214D01*
X149437833Y-92410852D01*
X149220248Y-92628057D01*
X149186035Y-92545255D01*
X148953600Y-92312413D01*
X148649752Y-92186245D01*
X148320751Y-92185958D01*
X148016684Y-92311596D01*
X147783842Y-92544031D01*
X147754316Y-92615139D01*
X147665222Y-92578144D01*
X147336221Y-92577857D01*
X147092864Y-92678410D01*
X146919070Y-92504312D01*
X146615222Y-92378144D01*
X146286221Y-92377857D01*
X145982154Y-92503495D01*
X145925105Y-92560445D01*
X145869070Y-92504312D01*
X145565222Y-92378144D01*
X145236221Y-92377857D01*
X144932154Y-92503495D01*
X144850061Y-92585445D01*
X144769070Y-92504312D01*
X144465222Y-92378144D01*
X144136221Y-92377857D01*
X143832154Y-92503495D01*
X143749930Y-92585576D01*
X143519070Y-92354312D01*
X143215222Y-92228144D01*
X142886221Y-92227857D01*
X142582154Y-92353495D01*
X142349312Y-92585930D01*
X142223144Y-92889778D01*
X142222977Y-93081364D01*
X142215222Y-93078144D01*
X141886221Y-93077857D01*
X141582154Y-93203495D01*
X141349312Y-93435930D01*
X141223144Y-93739778D01*
X141222857Y-94068779D01*
X141348495Y-94372846D01*
X141452945Y-94477479D01*
X141349312Y-94580930D01*
X141223144Y-94884778D01*
X141222857Y-95213779D01*
X141348495Y-95517846D01*
X141530445Y-95700114D01*
X141349312Y-95880930D01*
X141223144Y-96184778D01*
X141222857Y-96513779D01*
X141348495Y-96817846D01*
X141382988Y-96852400D01*
X141299312Y-96935930D01*
X141173144Y-97239778D01*
X141172857Y-97568779D01*
X141298495Y-97872846D01*
X141530930Y-98105688D01*
X141673118Y-98164729D01*
X141672857Y-98463779D01*
X141798495Y-98767846D01*
X142030930Y-99000688D01*
X142334778Y-99126856D01*
X142663779Y-99127143D01*
X142967846Y-99001505D01*
X143200688Y-98769070D01*
X143279996Y-98578075D01*
X143298495Y-98622846D01*
X143530930Y-98855688D01*
X143834778Y-98981856D01*
X144163779Y-98982143D01*
X144467846Y-98856505D01*
X144625027Y-98699599D01*
X144730930Y-98805688D01*
X145034778Y-98931856D01*
X145363779Y-98932143D01*
X145623000Y-98825035D01*
X145623000Y-101500000D01*
X145633006Y-101549410D01*
X145661447Y-101591035D01*
X145703841Y-101618315D01*
X145750000Y-101627000D01*
X149871943Y-101627000D01*
X149995404Y-101750677D01*
X150299252Y-101876845D01*
X150628253Y-101877132D01*
X150932320Y-101751494D01*
X151002165Y-101681771D01*
X151301754Y-101981360D01*
X151301526Y-101981454D01*
X151068684Y-102213889D01*
X150942516Y-102517737D01*
X150942229Y-102846738D01*
X151067867Y-103150805D01*
X151300302Y-103383647D01*
X151604150Y-103509815D01*
X151933151Y-103510102D01*
X152237218Y-103384464D01*
X152470060Y-103152029D01*
X152596228Y-102848181D01*
X152596421Y-102627000D01*
X160188961Y-102627000D01*
X160279215Y-102739817D01*
X160058421Y-102648136D01*
X159729420Y-102647849D01*
X159425353Y-102773487D01*
X159192511Y-103005922D01*
X159066343Y-103309770D01*
X159066056Y-103638771D01*
X159124159Y-103779391D01*
X159108130Y-103786014D01*
X158875288Y-104018449D01*
X158749120Y-104322297D01*
X158748833Y-104651298D01*
X158874471Y-104955365D01*
X159106906Y-105188207D01*
X159410754Y-105314375D01*
X159739755Y-105314662D01*
X159863721Y-105263440D01*
X160068270Y-105468348D01*
X160372118Y-105594516D01*
X160583735Y-105594701D01*
X161123000Y-106133966D01*
X161123000Y-110046354D01*
X161121354Y-110048000D01*
X160667498Y-110048000D01*
X160519070Y-109899312D01*
X160215222Y-109773144D01*
X159886221Y-109772857D01*
X159582154Y-109898495D01*
X159349312Y-110130930D01*
X159223144Y-110434778D01*
X159222857Y-110763779D01*
X159348495Y-111067846D01*
X159580930Y-111300688D01*
X159884778Y-111426856D01*
X160213779Y-111427143D01*
X160517846Y-111301505D01*
X160667613Y-111152000D01*
X161123000Y-111152000D01*
X161123000Y-112498000D01*
X141452244Y-112498000D01*
X141865392Y-112085573D01*
X142426361Y-110734609D01*
X142426783Y-110250000D01*
X142684635Y-110250000D01*
X142684635Y-111750000D01*
X142714409Y-111908237D01*
X142807927Y-112053567D01*
X142950619Y-112151064D01*
X143120000Y-112185365D01*
X144620000Y-112185365D01*
X144778237Y-112155591D01*
X144923567Y-112062073D01*
X145021064Y-111919381D01*
X145055365Y-111750000D01*
X145055365Y-111233093D01*
X145232796Y-111233093D01*
X145411606Y-111665846D01*
X145742412Y-111997230D01*
X146174853Y-112176795D01*
X146643093Y-112177204D01*
X147075846Y-111998394D01*
X147407230Y-111667588D01*
X147586795Y-111235147D01*
X147586796Y-111233093D01*
X147772796Y-111233093D01*
X147951606Y-111665846D01*
X148282412Y-111997230D01*
X148714853Y-112176795D01*
X149183093Y-112177204D01*
X149615846Y-111998394D01*
X149947230Y-111667588D01*
X150126795Y-111235147D01*
X150126796Y-111233093D01*
X150312796Y-111233093D01*
X150491606Y-111665846D01*
X150822412Y-111997230D01*
X151254853Y-112176795D01*
X151723093Y-112177204D01*
X152155846Y-111998394D01*
X152487230Y-111667588D01*
X152666795Y-111235147D01*
X152666796Y-111233093D01*
X152852796Y-111233093D01*
X153031606Y-111665846D01*
X153362412Y-111997230D01*
X153794853Y-112176795D01*
X154263093Y-112177204D01*
X154695846Y-111998394D01*
X155027230Y-111667588D01*
X155206795Y-111235147D01*
X155207204Y-110766907D01*
X155028394Y-110334154D01*
X154697588Y-110002770D01*
X154265147Y-109823205D01*
X153796907Y-109822796D01*
X153364154Y-110001606D01*
X153032770Y-110332412D01*
X152853205Y-110764853D01*
X152852796Y-111233093D01*
X152666796Y-111233093D01*
X152667204Y-110766907D01*
X152488394Y-110334154D01*
X152157588Y-110002770D01*
X151725147Y-109823205D01*
X151256907Y-109822796D01*
X150824154Y-110001606D01*
X150492770Y-110332412D01*
X150313205Y-110764853D01*
X150312796Y-111233093D01*
X150126796Y-111233093D01*
X150127204Y-110766907D01*
X149948394Y-110334154D01*
X149617588Y-110002770D01*
X149185147Y-109823205D01*
X148716907Y-109822796D01*
X148284154Y-110001606D01*
X147952770Y-110332412D01*
X147773205Y-110764853D01*
X147772796Y-111233093D01*
X147586796Y-111233093D01*
X147587204Y-110766907D01*
X147408394Y-110334154D01*
X147077588Y-110002770D01*
X146645147Y-109823205D01*
X146176907Y-109822796D01*
X145744154Y-110001606D01*
X145412770Y-110332412D01*
X145233205Y-110764853D01*
X145232796Y-111233093D01*
X145055365Y-111233093D01*
X145055365Y-110250000D01*
X145025591Y-110091763D01*
X144932073Y-109946433D01*
X144789381Y-109848936D01*
X144620000Y-109814635D01*
X143120000Y-109814635D01*
X142961763Y-109844409D01*
X142816433Y-109937927D01*
X142718936Y-110080619D01*
X142684635Y-110250000D01*
X142426783Y-110250000D01*
X142427637Y-109271808D01*
X142135082Y-108563769D01*
X143122857Y-108563769D01*
X143248495Y-108867836D01*
X143480930Y-109100678D01*
X143784778Y-109226846D01*
X144113779Y-109227133D01*
X144417846Y-109101495D01*
X144650688Y-108869060D01*
X144776856Y-108565212D01*
X144776857Y-108563779D01*
X148022857Y-108563779D01*
X148148495Y-108867846D01*
X148380930Y-109100688D01*
X148684778Y-109226856D01*
X149013779Y-109227143D01*
X149317846Y-109101505D01*
X149550688Y-108869070D01*
X149676856Y-108565222D01*
X149677143Y-108236221D01*
X149551505Y-107932154D01*
X149319070Y-107699312D01*
X149309107Y-107695175D01*
X156066780Y-107695175D01*
X156192418Y-107999242D01*
X156424853Y-108232084D01*
X156728701Y-108358252D01*
X157057702Y-108358539D01*
X157361769Y-108232901D01*
X157572225Y-108022813D01*
X157729845Y-108180709D01*
X158033693Y-108306877D01*
X158362694Y-108307164D01*
X158666761Y-108181526D01*
X158899603Y-107949091D01*
X159025771Y-107645243D01*
X159026058Y-107316242D01*
X158900420Y-107012175D01*
X158667985Y-106779333D01*
X158364137Y-106653165D01*
X158035136Y-106652878D01*
X157731069Y-106778516D01*
X157520613Y-106988604D01*
X157362993Y-106830708D01*
X157059145Y-106704540D01*
X156730144Y-106704253D01*
X156426077Y-106829891D01*
X156193235Y-107062326D01*
X156067067Y-107366174D01*
X156066780Y-107695175D01*
X149309107Y-107695175D01*
X149015222Y-107573144D01*
X148686221Y-107572857D01*
X148382154Y-107698495D01*
X148149312Y-107930930D01*
X148023144Y-108234778D01*
X148022857Y-108563779D01*
X144776857Y-108563779D01*
X144777143Y-108236211D01*
X144651505Y-107932144D01*
X144419070Y-107699302D01*
X144115222Y-107573134D01*
X143786221Y-107572847D01*
X143482154Y-107698485D01*
X143249312Y-107930920D01*
X143123144Y-108234768D01*
X143122857Y-108563769D01*
X142135082Y-108563769D01*
X141869027Y-107919868D01*
X140835573Y-106884608D01*
X139484609Y-106323639D01*
X138021808Y-106322363D01*
X136752000Y-106847037D01*
X136752000Y-105868779D01*
X155372857Y-105868779D01*
X155498495Y-106172846D01*
X155730930Y-106405688D01*
X156034778Y-106531856D01*
X156363779Y-106532143D01*
X156667846Y-106406505D01*
X156752527Y-106321972D01*
X156930930Y-106500688D01*
X157234778Y-106626856D01*
X157563779Y-106627143D01*
X157867846Y-106501505D01*
X158100688Y-106269070D01*
X158226856Y-105965222D01*
X158227143Y-105636221D01*
X158101505Y-105332154D01*
X157869070Y-105099312D01*
X157565222Y-104973144D01*
X157236221Y-104972857D01*
X156932154Y-105098495D01*
X156847473Y-105183028D01*
X156669070Y-105004312D01*
X156365222Y-104878144D01*
X156036221Y-104877857D01*
X155732154Y-105003495D01*
X155499312Y-105235930D01*
X155373144Y-105539778D01*
X155372857Y-105868779D01*
X136752000Y-105868779D01*
X136752000Y-104963779D01*
X137422857Y-104963779D01*
X137548495Y-105267846D01*
X137780930Y-105500688D01*
X138084778Y-105626856D01*
X138413779Y-105627143D01*
X138717846Y-105501505D01*
X138950688Y-105269070D01*
X139076856Y-104965222D01*
X139077143Y-104636221D01*
X138951505Y-104332154D01*
X138783425Y-104163779D01*
X148172857Y-104163779D01*
X148298495Y-104467846D01*
X148530930Y-104700688D01*
X148834778Y-104826856D01*
X149163779Y-104827143D01*
X149467846Y-104701505D01*
X149700688Y-104469070D01*
X149826856Y-104165222D01*
X149827143Y-103836221D01*
X149701505Y-103532154D01*
X149469070Y-103299312D01*
X149165222Y-103173144D01*
X148836221Y-103172857D01*
X148532154Y-103298495D01*
X148299312Y-103530930D01*
X148173144Y-103834778D01*
X148172857Y-104163779D01*
X138783425Y-104163779D01*
X138719070Y-104099312D01*
X138415222Y-103973144D01*
X138086221Y-103972857D01*
X137782154Y-104098495D01*
X137549312Y-104330930D01*
X137423144Y-104634778D01*
X137422857Y-104963779D01*
X136752000Y-104963779D01*
X136752000Y-100663779D01*
X137422857Y-100663779D01*
X137548495Y-100967846D01*
X137780930Y-101200688D01*
X138084778Y-101326856D01*
X138413779Y-101327143D01*
X138717846Y-101201505D01*
X138950688Y-100969070D01*
X139076856Y-100665222D01*
X139077143Y-100336221D01*
X139005892Y-100163779D01*
X141872857Y-100163779D01*
X141998495Y-100467846D01*
X142230930Y-100700688D01*
X142534778Y-100826856D01*
X142863779Y-100827143D01*
X143167846Y-100701505D01*
X143400688Y-100469070D01*
X143526856Y-100165222D01*
X143527143Y-99836221D01*
X143401505Y-99532154D01*
X143169070Y-99299312D01*
X142865222Y-99173144D01*
X142536221Y-99172857D01*
X142232154Y-99298495D01*
X141999312Y-99530930D01*
X141873144Y-99834778D01*
X141872857Y-100163779D01*
X139005892Y-100163779D01*
X138951505Y-100032154D01*
X138719070Y-99799312D01*
X138415222Y-99673144D01*
X138086221Y-99672857D01*
X137782154Y-99798495D01*
X137549312Y-100030930D01*
X137423144Y-100334778D01*
X137422857Y-100663779D01*
X136752000Y-100663779D01*
X136752000Y-98613779D01*
X139522857Y-98613779D01*
X139648495Y-98917846D01*
X139880930Y-99150688D01*
X140184778Y-99276856D01*
X140513779Y-99277143D01*
X140817846Y-99151505D01*
X141050688Y-98919070D01*
X141176856Y-98615222D01*
X141177143Y-98286221D01*
X141051505Y-97982154D01*
X140819070Y-97749312D01*
X140515222Y-97623144D01*
X140186221Y-97622857D01*
X139882154Y-97748495D01*
X139649312Y-97980930D01*
X139523144Y-98284778D01*
X139522857Y-98613779D01*
X136752000Y-98613779D01*
X136752000Y-91363779D01*
X137222857Y-91363779D01*
X137348495Y-91667846D01*
X137580930Y-91900688D01*
X137884778Y-92026856D01*
X138213779Y-92027143D01*
X138517846Y-91901505D01*
X138750688Y-91669070D01*
X138825546Y-91488789D01*
X148922857Y-91488789D01*
X149048495Y-91792856D01*
X149280930Y-92025698D01*
X149584778Y-92151866D01*
X149913779Y-92152153D01*
X150217846Y-92026515D01*
X150450688Y-91794080D01*
X150576856Y-91490232D01*
X150577143Y-91161231D01*
X150451505Y-90857164D01*
X150219070Y-90624322D01*
X149915222Y-90498154D01*
X149586221Y-90497867D01*
X149282154Y-90623505D01*
X149049312Y-90855940D01*
X148923144Y-91159788D01*
X148922857Y-91488789D01*
X138825546Y-91488789D01*
X138876856Y-91365222D01*
X138877143Y-91036221D01*
X138751505Y-90732154D01*
X138519070Y-90499312D01*
X138215222Y-90373144D01*
X137886221Y-90372857D01*
X137582154Y-90498495D01*
X137349312Y-90730930D01*
X137223144Y-91034778D01*
X137222857Y-91363779D01*
X136752000Y-91363779D01*
X136752000Y-89563779D01*
X140422857Y-89563779D01*
X140548495Y-89867846D01*
X140780930Y-90100688D01*
X141084778Y-90226856D01*
X141413779Y-90227143D01*
X141717846Y-90101505D01*
X141950688Y-89869070D01*
X142076856Y-89565222D01*
X142077143Y-89236221D01*
X141951505Y-88932154D01*
X141719070Y-88699312D01*
X141415222Y-88573144D01*
X141086221Y-88572857D01*
X140782154Y-88698495D01*
X140549312Y-88930930D01*
X140423144Y-89234778D01*
X140422857Y-89563779D01*
X136752000Y-89563779D01*
X136752000Y-86702244D01*
X137164427Y-87115392D01*
X137730226Y-87350332D01*
X137549312Y-87530930D01*
X137423144Y-87834778D01*
X137422857Y-88163779D01*
X137548495Y-88467846D01*
X137780930Y-88700688D01*
X138084778Y-88826856D01*
X138413779Y-88827143D01*
X138717846Y-88701505D01*
X138950688Y-88469070D01*
X139076856Y-88165222D01*
X139076944Y-88063779D01*
X146172857Y-88063779D01*
X146298495Y-88367846D01*
X146530930Y-88600688D01*
X146834778Y-88726856D01*
X147163779Y-88727143D01*
X147467846Y-88601505D01*
X147700688Y-88369070D01*
X147826856Y-88065222D01*
X147827143Y-87736221D01*
X147701505Y-87432154D01*
X147469070Y-87199312D01*
X147165222Y-87073144D01*
X146836221Y-87072857D01*
X146532154Y-87198495D01*
X146299312Y-87430930D01*
X146173144Y-87734778D01*
X146172857Y-88063779D01*
X139076944Y-88063779D01*
X139077143Y-87836221D01*
X139011269Y-87676794D01*
X139978192Y-87677637D01*
X141330132Y-87119027D01*
X142365392Y-86085573D01*
X142684635Y-85316750D01*
X142684635Y-86350000D01*
X142714409Y-86508237D01*
X142807927Y-86653567D01*
X142950619Y-86751064D01*
X143120000Y-86785365D01*
X144620000Y-86785365D01*
X144778237Y-86755591D01*
X144923567Y-86662073D01*
X145021064Y-86519381D01*
X145055365Y-86350000D01*
X145055365Y-85833093D01*
X145232796Y-85833093D01*
X145411606Y-86265846D01*
X145742412Y-86597230D01*
X146174853Y-86776795D01*
X146643093Y-86777204D01*
X147075846Y-86598394D01*
X147407230Y-86267588D01*
X147586795Y-85835147D01*
X147586796Y-85833093D01*
X147772796Y-85833093D01*
X147951606Y-86265846D01*
X148282412Y-86597230D01*
X148714853Y-86776795D01*
X149183093Y-86777204D01*
X149615846Y-86598394D01*
X149756830Y-86457655D01*
X150811950Y-86457655D01*
X150891329Y-86640065D01*
X151334916Y-86789996D01*
X151802113Y-86758761D01*
X152088671Y-86640065D01*
X152168050Y-86457655D01*
X151490000Y-85779605D01*
X150811950Y-86457655D01*
X149756830Y-86457655D01*
X149947230Y-86267588D01*
X150126795Y-85835147D01*
X150127135Y-85444916D01*
X150300004Y-85444916D01*
X150331239Y-85912113D01*
X150449935Y-86198671D01*
X150632345Y-86278050D01*
X151310395Y-85600000D01*
X151669605Y-85600000D01*
X152347655Y-86278050D01*
X152530065Y-86198671D01*
X152679996Y-85755084D01*
X152648761Y-85287887D01*
X152530065Y-85001329D01*
X152347655Y-84921950D01*
X151669605Y-85600000D01*
X151310395Y-85600000D01*
X150632345Y-84921950D01*
X150449935Y-85001329D01*
X150300004Y-85444916D01*
X150127135Y-85444916D01*
X150127204Y-85366907D01*
X149948394Y-84934154D01*
X149756920Y-84742345D01*
X150811950Y-84742345D01*
X151490000Y-85420395D01*
X152168050Y-84742345D01*
X152088671Y-84559935D01*
X151645084Y-84410004D01*
X151177887Y-84441239D01*
X150891329Y-84559935D01*
X150811950Y-84742345D01*
X149756920Y-84742345D01*
X149617588Y-84602770D01*
X149185147Y-84423205D01*
X148716907Y-84422796D01*
X148284154Y-84601606D01*
X147952770Y-84932412D01*
X147773205Y-85364853D01*
X147772796Y-85833093D01*
X147586796Y-85833093D01*
X147587204Y-85366907D01*
X147408394Y-84934154D01*
X147077588Y-84602770D01*
X146645147Y-84423205D01*
X146176907Y-84422796D01*
X145744154Y-84601606D01*
X145412770Y-84932412D01*
X145233205Y-85364853D01*
X145232796Y-85833093D01*
X145055365Y-85833093D01*
X145055365Y-84850000D01*
X145025591Y-84691763D01*
X144932073Y-84546433D01*
X144789381Y-84448936D01*
X144620000Y-84414635D01*
X143120000Y-84414635D01*
X142961763Y-84444409D01*
X142926594Y-84467040D01*
X142926834Y-84192169D01*
X143035065Y-84237000D01*
X143636250Y-84237000D01*
X143743000Y-84130250D01*
X143743000Y-83187000D01*
X143997000Y-83187000D01*
X143997000Y-84130250D01*
X144103750Y-84237000D01*
X144704935Y-84237000D01*
X144861876Y-84171993D01*
X144981993Y-84051876D01*
X145047000Y-83894936D01*
X145047000Y-83293750D01*
X145046343Y-83293093D01*
X145232796Y-83293093D01*
X145411606Y-83725846D01*
X145742412Y-84057230D01*
X146174853Y-84236795D01*
X146643093Y-84237204D01*
X147075846Y-84058394D01*
X147407230Y-83727588D01*
X147586795Y-83295147D01*
X147586796Y-83293093D01*
X147772796Y-83293093D01*
X147951606Y-83725846D01*
X148282412Y-84057230D01*
X148714853Y-84236795D01*
X149183093Y-84237204D01*
X149615846Y-84058394D01*
X149947230Y-83727588D01*
X150126795Y-83295147D01*
X150126796Y-83293093D01*
X150312796Y-83293093D01*
X150491606Y-83725846D01*
X150822412Y-84057230D01*
X151254853Y-84236795D01*
X151723093Y-84237204D01*
X152155846Y-84058394D01*
X152487230Y-83727588D01*
X152666795Y-83295147D01*
X152666796Y-83293093D01*
X152852796Y-83293093D01*
X153031606Y-83725846D01*
X153362412Y-84057230D01*
X153794853Y-84236795D01*
X154263093Y-84237204D01*
X154695846Y-84058394D01*
X155027230Y-83727588D01*
X155206795Y-83295147D01*
X155206796Y-83293093D01*
X155392796Y-83293093D01*
X155571606Y-83725846D01*
X155902412Y-84057230D01*
X156334853Y-84236795D01*
X156803093Y-84237204D01*
X157235846Y-84058394D01*
X157567230Y-83727588D01*
X157746795Y-83295147D01*
X157747204Y-82826907D01*
X157568394Y-82394154D01*
X157237588Y-82062770D01*
X156805147Y-81883205D01*
X156336907Y-81882796D01*
X155904154Y-82061606D01*
X155572770Y-82392412D01*
X155393205Y-82824853D01*
X155392796Y-83293093D01*
X155206796Y-83293093D01*
X155207204Y-82826907D01*
X155028394Y-82394154D01*
X154697588Y-82062770D01*
X154265147Y-81883205D01*
X153796907Y-81882796D01*
X153364154Y-82061606D01*
X153032770Y-82392412D01*
X152853205Y-82824853D01*
X152852796Y-83293093D01*
X152666796Y-83293093D01*
X152667204Y-82826907D01*
X152488394Y-82394154D01*
X152157588Y-82062770D01*
X151725147Y-81883205D01*
X151256907Y-81882796D01*
X150824154Y-82061606D01*
X150492770Y-82392412D01*
X150313205Y-82824853D01*
X150312796Y-83293093D01*
X150126796Y-83293093D01*
X150127204Y-82826907D01*
X149948394Y-82394154D01*
X149617588Y-82062770D01*
X149185147Y-81883205D01*
X148716907Y-81882796D01*
X148284154Y-82061606D01*
X147952770Y-82392412D01*
X147773205Y-82824853D01*
X147772796Y-83293093D01*
X147586796Y-83293093D01*
X147587204Y-82826907D01*
X147408394Y-82394154D01*
X147077588Y-82062770D01*
X146645147Y-81883205D01*
X146176907Y-81882796D01*
X145744154Y-82061606D01*
X145412770Y-82392412D01*
X145233205Y-82824853D01*
X145232796Y-83293093D01*
X145046343Y-83293093D01*
X144940250Y-83187000D01*
X143997000Y-83187000D01*
X143743000Y-83187000D01*
X143723000Y-83187000D01*
X143723000Y-82933000D01*
X143743000Y-82933000D01*
X143743000Y-81989750D01*
X143997000Y-81989750D01*
X143997000Y-82933000D01*
X144940250Y-82933000D01*
X145047000Y-82826250D01*
X145047000Y-82225064D01*
X144981993Y-82068124D01*
X144861876Y-81948007D01*
X144704935Y-81883000D01*
X144103750Y-81883000D01*
X143997000Y-81989750D01*
X143743000Y-81989750D01*
X143636250Y-81883000D01*
X143035065Y-81883000D01*
X142878124Y-81948007D01*
X142758007Y-82068124D01*
X142693000Y-82225064D01*
X142693000Y-82703943D01*
X142369027Y-81919868D01*
X141951888Y-81502000D01*
X161123000Y-81502000D01*
X161123000Y-82122998D01*
G36*
X184748000Y-107297756D02*
X184335573Y-106884608D01*
X182984609Y-106323639D01*
X181521808Y-106322363D01*
X180169868Y-106880973D01*
X179134608Y-107914427D01*
X179127000Y-107932749D01*
X179127000Y-101127000D01*
X184748000Y-101127000D01*
X184748000Y-107297756D01*
X184748000Y-107297756D01*
G37*
X184748000Y-107297756D02*
X184335573Y-106884608D01*
X182984609Y-106323639D01*
X181521808Y-106322363D01*
X180169868Y-106880973D01*
X179134608Y-107914427D01*
X179127000Y-107932749D01*
X179127000Y-101127000D01*
X184748000Y-101127000D01*
X184748000Y-107297756D01*
G36*
X184748000Y-99873000D02*
X179552606Y-99873000D01*
X179127000Y-99447394D01*
X179127000Y-94377000D01*
X184748000Y-94377000D01*
X184748000Y-99873000D01*
X184748000Y-99873000D01*
G37*
X184748000Y-99873000D02*
X179552606Y-99873000D01*
X179127000Y-99447394D01*
X179127000Y-94377000D01*
X184748000Y-94377000D01*
X184748000Y-99873000D01*
G36*
X179130973Y-86080132D02*
X180164427Y-87115392D01*
X181515391Y-87676361D01*
X182978192Y-87677637D01*
X184330132Y-87119027D01*
X184748000Y-86701888D01*
X184748000Y-93123000D01*
X179567968Y-93123000D01*
X179127000Y-92461548D01*
X179127000Y-86070517D01*
X179130973Y-86080132D01*
X179130973Y-86080132D01*
G37*
X179130973Y-86080132D02*
X180164427Y-87115392D01*
X181515391Y-87676361D01*
X182978192Y-87677637D01*
X184330132Y-87119027D01*
X184748000Y-86701888D01*
X184748000Y-93123000D01*
X179567968Y-93123000D01*
X179127000Y-92461548D01*
X179127000Y-86070517D01*
X179130973Y-86080132D01*
M02*
