G04 #@! TF.FileFunction,Soldermask,Bot*
%FSLAX46Y46*%
G04 Gerber Fmt 4.6, Leading zero omitted, Abs format (unit mm)*
G04 Created by KiCad (PCBNEW 4.0.6-e0-6349~53~ubuntu16.04.1) date Fri Mar 10 07:50:29 2017*
%MOMM*%
%LPD*%
G01*
G04 APERTURE LIST*
%ADD10C,0.100000*%
%ADD11C,0.850000*%
%ADD12C,1.500000*%
%ADD13C,0.800000*%
G04 APERTURE END LIST*
D10*
D11*
X174010000Y-89400000D02*
X172620000Y-89400000D01*
X174160000Y-88140000D02*
X172510000Y-88140000D01*
X173690000Y-86860000D02*
X172510000Y-86860000D01*
D12*
X172550000Y-89600000D02*
X172580000Y-87180000D01*
X170650000Y-89700000D02*
X172550000Y-89600000D01*
D13*
X173250000Y-95900000D02*
X173250000Y-97900000D01*
X172150000Y-97500000D02*
X173750000Y-98400000D01*
X173950000Y-97100000D02*
X172350000Y-97100000D01*
X173950000Y-95900000D02*
X172250000Y-95900000D01*
D12*
X172250000Y-93900000D02*
X172250000Y-97160000D01*
X170750000Y-93700000D02*
X172250000Y-93700000D01*
D13*
X173680000Y-107340000D02*
X172860000Y-107240000D01*
X173670000Y-104750000D02*
X172500000Y-105000000D01*
D12*
X172950000Y-105300000D02*
X172950000Y-106900000D01*
X172750000Y-105300000D02*
X171250000Y-105300000D01*
X164800000Y-78705000D02*
X166100000Y-78705000D01*
X164800000Y-81905000D02*
X164800000Y-78805000D01*
X166100000Y-84505000D02*
X164800000Y-82105000D01*
X166100000Y-115105000D02*
X166100000Y-78805000D01*
D10*
G36*
X178550000Y-115605000D02*
X173650000Y-115605000D01*
X173650000Y-113205000D01*
X178550000Y-113205000D01*
X178550000Y-115605000D01*
X178550000Y-115605000D01*
G37*
G36*
X138399674Y-111575947D02*
X138673426Y-111632140D01*
X138931045Y-111740433D01*
X139162727Y-111896704D01*
X139359641Y-112094999D01*
X139514290Y-112327764D01*
X139620783Y-112586134D01*
X139674996Y-112859928D01*
X139674996Y-112859943D01*
X139675061Y-112860272D01*
X139670604Y-113179464D01*
X139670528Y-113179798D01*
X139670528Y-113179807D01*
X139608694Y-113451975D01*
X139495025Y-113707278D01*
X139333939Y-113935633D01*
X139131567Y-114128348D01*
X138895612Y-114278091D01*
X138635064Y-114379151D01*
X138359854Y-114427677D01*
X138080459Y-114421825D01*
X137807516Y-114361814D01*
X137551435Y-114249935D01*
X137321960Y-114090446D01*
X137127830Y-113889419D01*
X136976448Y-113654518D01*
X136873572Y-113394684D01*
X136823124Y-113119819D01*
X136827026Y-112840386D01*
X136885128Y-112567040D01*
X136995219Y-112310176D01*
X137153101Y-112079595D01*
X137352768Y-111884067D01*
X137586605Y-111731048D01*
X137845718Y-111626360D01*
X138120222Y-111573996D01*
X138399674Y-111575947D01*
X138399674Y-111575947D01*
G37*
G36*
X182399674Y-111575947D02*
X182673426Y-111632140D01*
X182931045Y-111740433D01*
X183162727Y-111896704D01*
X183359641Y-112094999D01*
X183514290Y-112327764D01*
X183620783Y-112586134D01*
X183674996Y-112859928D01*
X183674996Y-112859943D01*
X183675061Y-112860272D01*
X183670604Y-113179464D01*
X183670528Y-113179798D01*
X183670528Y-113179807D01*
X183608694Y-113451975D01*
X183495025Y-113707278D01*
X183333939Y-113935633D01*
X183131567Y-114128348D01*
X182895612Y-114278091D01*
X182635064Y-114379151D01*
X182359854Y-114427677D01*
X182080459Y-114421825D01*
X181807516Y-114361814D01*
X181551435Y-114249935D01*
X181321960Y-114090446D01*
X181127830Y-113889419D01*
X180976448Y-113654518D01*
X180873572Y-113394684D01*
X180823124Y-113119819D01*
X180827026Y-112840386D01*
X180885128Y-112567040D01*
X180995219Y-112310176D01*
X181153101Y-112079595D01*
X181352768Y-111884067D01*
X181586605Y-111731048D01*
X181845718Y-111626360D01*
X182120222Y-111573996D01*
X182399674Y-111575947D01*
X182399674Y-111575947D01*
G37*
G36*
X151486653Y-110935547D02*
X151645143Y-110968081D01*
X151794290Y-111030776D01*
X151928422Y-111121249D01*
X152042425Y-111236051D01*
X152131957Y-111370809D01*
X152193612Y-111520394D01*
X152224970Y-111678761D01*
X152224970Y-111678771D01*
X152225036Y-111679105D01*
X152222455Y-111863900D01*
X152222379Y-111864234D01*
X152222379Y-111864243D01*
X152186614Y-112021670D01*
X152120804Y-112169479D01*
X152027544Y-112301684D01*
X151910383Y-112413254D01*
X151773776Y-112499948D01*
X151622931Y-112558457D01*
X151463600Y-112586551D01*
X151301845Y-112583163D01*
X151143825Y-112548420D01*
X150995566Y-112483647D01*
X150862713Y-112391312D01*
X150750321Y-112274927D01*
X150662679Y-112138932D01*
X150603119Y-111988501D01*
X150573912Y-111829369D01*
X150576172Y-111667591D01*
X150609809Y-111509339D01*
X150673547Y-111360627D01*
X150764952Y-111227133D01*
X150880549Y-111113933D01*
X151015928Y-111025343D01*
X151165943Y-110964734D01*
X151324864Y-110934417D01*
X151486653Y-110935547D01*
X151486653Y-110935547D01*
G37*
G36*
X156566653Y-110935547D02*
X156725143Y-110968081D01*
X156874290Y-111030776D01*
X157008422Y-111121249D01*
X157122425Y-111236051D01*
X157211957Y-111370809D01*
X157273612Y-111520394D01*
X157304970Y-111678761D01*
X157304970Y-111678771D01*
X157305036Y-111679105D01*
X157302455Y-111863900D01*
X157302379Y-111864234D01*
X157302379Y-111864243D01*
X157266614Y-112021670D01*
X157200804Y-112169479D01*
X157107544Y-112301684D01*
X156990383Y-112413254D01*
X156853776Y-112499948D01*
X156702931Y-112558457D01*
X156543600Y-112586551D01*
X156381845Y-112583163D01*
X156223825Y-112548420D01*
X156075566Y-112483647D01*
X155942713Y-112391312D01*
X155830321Y-112274927D01*
X155742679Y-112138932D01*
X155683119Y-111988501D01*
X155653912Y-111829369D01*
X155656172Y-111667591D01*
X155689809Y-111509339D01*
X155753547Y-111360627D01*
X155844952Y-111227133D01*
X155960549Y-111113933D01*
X156095928Y-111025343D01*
X156245943Y-110964734D01*
X156404864Y-110934417D01*
X156566653Y-110935547D01*
X156566653Y-110935547D01*
G37*
G36*
X148946653Y-110935547D02*
X149105143Y-110968081D01*
X149254290Y-111030776D01*
X149388422Y-111121249D01*
X149502425Y-111236051D01*
X149591957Y-111370809D01*
X149653612Y-111520394D01*
X149684970Y-111678761D01*
X149684970Y-111678771D01*
X149685036Y-111679105D01*
X149682455Y-111863900D01*
X149682379Y-111864234D01*
X149682379Y-111864243D01*
X149646614Y-112021670D01*
X149580804Y-112169479D01*
X149487544Y-112301684D01*
X149370383Y-112413254D01*
X149233776Y-112499948D01*
X149082931Y-112558457D01*
X148923600Y-112586551D01*
X148761845Y-112583163D01*
X148603825Y-112548420D01*
X148455566Y-112483647D01*
X148322713Y-112391312D01*
X148210321Y-112274927D01*
X148122679Y-112138932D01*
X148063119Y-111988501D01*
X148033912Y-111829369D01*
X148036172Y-111667591D01*
X148069809Y-111509339D01*
X148133547Y-111360627D01*
X148224952Y-111227133D01*
X148340549Y-111113933D01*
X148475928Y-111025343D01*
X148625943Y-110964734D01*
X148784864Y-110934417D01*
X148946653Y-110935547D01*
X148946653Y-110935547D01*
G37*
G36*
X154026653Y-110935547D02*
X154185143Y-110968081D01*
X154334290Y-111030776D01*
X154468422Y-111121249D01*
X154582425Y-111236051D01*
X154671957Y-111370809D01*
X154733612Y-111520394D01*
X154764970Y-111678761D01*
X154764970Y-111678771D01*
X154765036Y-111679105D01*
X154762455Y-111863900D01*
X154762379Y-111864234D01*
X154762379Y-111864243D01*
X154726614Y-112021670D01*
X154660804Y-112169479D01*
X154567544Y-112301684D01*
X154450383Y-112413254D01*
X154313776Y-112499948D01*
X154162931Y-112558457D01*
X154003600Y-112586551D01*
X153841845Y-112583163D01*
X153683825Y-112548420D01*
X153535566Y-112483647D01*
X153402713Y-112391312D01*
X153290321Y-112274927D01*
X153202679Y-112138932D01*
X153143119Y-111988501D01*
X153113912Y-111829369D01*
X153116172Y-111667591D01*
X153149809Y-111509339D01*
X153213547Y-111360627D01*
X153304952Y-111227133D01*
X153420549Y-111113933D01*
X153555928Y-111025343D01*
X153705943Y-110964734D01*
X153864864Y-110934417D01*
X154026653Y-110935547D01*
X154026653Y-110935547D01*
G37*
G36*
X147145000Y-112585000D02*
X145495000Y-112585000D01*
X145495000Y-110935000D01*
X147145000Y-110935000D01*
X147145000Y-112585000D01*
X147145000Y-112585000D01*
G37*
G36*
X171050000Y-111980000D02*
X167450000Y-111980000D01*
X167450000Y-110330000D01*
X171050000Y-110330000D01*
X171050000Y-111980000D01*
X171050000Y-111980000D01*
G37*
G36*
X161710000Y-111220000D02*
X160910000Y-111220000D01*
X160910000Y-110080000D01*
X161710000Y-110080000D01*
X161710000Y-111220000D01*
X161710000Y-111220000D01*
G37*
G36*
X160290000Y-111220000D02*
X159490000Y-111220000D01*
X159490000Y-110080000D01*
X160290000Y-110080000D01*
X160290000Y-111220000D01*
X160290000Y-111220000D01*
G37*
G36*
X164610000Y-109825000D02*
X163810000Y-109825000D01*
X163810000Y-108685000D01*
X164610000Y-108685000D01*
X164610000Y-109825000D01*
X164610000Y-109825000D01*
G37*
G36*
X163190000Y-109825000D02*
X162390000Y-109825000D01*
X162390000Y-108685000D01*
X163190000Y-108685000D01*
X163190000Y-109825000D01*
X163190000Y-109825000D01*
G37*
G36*
X156870000Y-109610000D02*
X155730000Y-109610000D01*
X155730000Y-108810000D01*
X156870000Y-108810000D01*
X156870000Y-109610000D01*
X156870000Y-109610000D01*
G37*
G36*
X158570000Y-109610000D02*
X157430000Y-109610000D01*
X157430000Y-108810000D01*
X158570000Y-108810000D01*
X158570000Y-109610000D01*
X158570000Y-109610000D01*
G37*
G36*
X160265000Y-109525000D02*
X159215000Y-109525000D01*
X159215000Y-108375000D01*
X160265000Y-108375000D01*
X160265000Y-109525000D01*
X160265000Y-109525000D01*
G37*
G36*
X161925000Y-109525000D02*
X160875000Y-109525000D01*
X160875000Y-108375000D01*
X161925000Y-108375000D01*
X161925000Y-109525000D01*
X161925000Y-109525000D01*
G37*
G36*
X158570000Y-108190000D02*
X157430000Y-108190000D01*
X157430000Y-107390000D01*
X158570000Y-107390000D01*
X158570000Y-108190000D01*
X158570000Y-108190000D01*
G37*
G36*
X156870000Y-108190000D02*
X155730000Y-108190000D01*
X155730000Y-107390000D01*
X156870000Y-107390000D01*
X156870000Y-108190000D01*
X156870000Y-108190000D01*
G37*
G36*
X164610000Y-108175000D02*
X163810000Y-108175000D01*
X163810000Y-107035000D01*
X164610000Y-107035000D01*
X164610000Y-108175000D01*
X164610000Y-108175000D01*
G37*
G36*
X163190000Y-108175000D02*
X162390000Y-108175000D01*
X162390000Y-107035000D01*
X163190000Y-107035000D01*
X163190000Y-108175000D01*
X163190000Y-108175000D01*
G37*
G36*
X180650000Y-107830000D02*
X178950000Y-107830000D01*
X178950000Y-107629950D01*
X178948022Y-107616034D01*
X178942246Y-107603220D01*
X178933129Y-107592523D01*
X178921393Y-107584789D01*
X178907966Y-107580631D01*
X178900050Y-107580000D01*
X175875000Y-107580000D01*
X175875000Y-103230000D01*
X178900050Y-103230000D01*
X178913966Y-103228022D01*
X178926780Y-103222246D01*
X178937477Y-103213129D01*
X178945211Y-103201393D01*
X178949369Y-103187966D01*
X178950000Y-103180050D01*
X178950000Y-102980000D01*
X180650000Y-102980000D01*
X180650000Y-107830000D01*
X180650000Y-107830000D01*
G37*
G36*
X174975000Y-107735000D02*
X173675000Y-107735000D01*
X173675000Y-106885000D01*
X174975000Y-106885000D01*
X174975000Y-107735000D01*
X174975000Y-107735000D01*
G37*
G36*
X163190000Y-106475000D02*
X162390000Y-106475000D01*
X162390000Y-105335000D01*
X163190000Y-105335000D01*
X163190000Y-106475000D01*
X163190000Y-106475000D01*
G37*
G36*
X164610000Y-106475000D02*
X163810000Y-106475000D01*
X163810000Y-105335000D01*
X164610000Y-105335000D01*
X164610000Y-106475000D01*
X164610000Y-106475000D01*
G37*
G36*
X174975000Y-106465000D02*
X173675000Y-106465000D01*
X173675000Y-105615000D01*
X174975000Y-105615000D01*
X174975000Y-106465000D01*
X174975000Y-106465000D01*
G37*
G36*
X171050000Y-106180000D02*
X167450000Y-106180000D01*
X167450000Y-104530000D01*
X171050000Y-104530000D01*
X171050000Y-106180000D01*
X171050000Y-106180000D01*
G37*
G36*
X174975000Y-105195000D02*
X173675000Y-105195000D01*
X173675000Y-104345000D01*
X174975000Y-104345000D01*
X174975000Y-105195000D01*
X174975000Y-105195000D01*
G37*
G36*
X158475000Y-104475000D02*
X157725000Y-104475000D01*
X157725000Y-103525000D01*
X158475000Y-103525000D01*
X158475000Y-104475000D01*
X158475000Y-104475000D01*
G37*
G36*
X174975000Y-103925000D02*
X173675000Y-103925000D01*
X173675000Y-103075000D01*
X174975000Y-103075000D01*
X174975000Y-103925000D01*
X174975000Y-103925000D01*
G37*
G36*
X183857661Y-101725681D02*
X184054570Y-101766101D01*
X184239875Y-101843996D01*
X184406523Y-101956401D01*
X184548163Y-102099034D01*
X184659401Y-102266461D01*
X184736002Y-102452308D01*
X184774978Y-102649150D01*
X184774978Y-102649160D01*
X184775044Y-102649494D01*
X184771838Y-102879088D01*
X184771762Y-102879422D01*
X184771762Y-102879430D01*
X184727305Y-103075107D01*
X184645546Y-103258743D01*
X184529675Y-103423000D01*
X184384108Y-103561621D01*
X184214390Y-103669327D01*
X184026975Y-103742021D01*
X183829018Y-103776926D01*
X183628050Y-103772717D01*
X183431721Y-103729551D01*
X183247524Y-103649077D01*
X183082463Y-103534356D01*
X182942825Y-103389757D01*
X182833935Y-103220794D01*
X182759937Y-103033895D01*
X182723650Y-102836187D01*
X182726458Y-102635195D01*
X182768251Y-102438569D01*
X182847438Y-102253810D01*
X182961002Y-102087954D01*
X183104622Y-101947311D01*
X183272822Y-101837244D01*
X183459200Y-101761943D01*
X183656650Y-101724277D01*
X183857661Y-101725681D01*
X183857661Y-101725681D01*
G37*
G36*
X160200000Y-103570000D02*
X159400000Y-103570000D01*
X159400000Y-102430000D01*
X160200000Y-102430000D01*
X160200000Y-103570000D01*
X160200000Y-103570000D01*
G37*
G36*
X161620000Y-103570000D02*
X160820000Y-103570000D01*
X160820000Y-102430000D01*
X161620000Y-102430000D01*
X161620000Y-103570000D01*
X161620000Y-103570000D01*
G37*
G36*
X158475000Y-102075000D02*
X157725000Y-102075000D01*
X157725000Y-101125000D01*
X158475000Y-101125000D01*
X158475000Y-102075000D01*
X158475000Y-102075000D01*
G37*
G36*
X161610000Y-101870000D02*
X160810000Y-101870000D01*
X160810000Y-100730000D01*
X161610000Y-100730000D01*
X161610000Y-101870000D01*
X161610000Y-101870000D01*
G37*
G36*
X160190000Y-101870000D02*
X159390000Y-101870000D01*
X159390000Y-100730000D01*
X160190000Y-100730000D01*
X160190000Y-101870000D01*
X160190000Y-101870000D01*
G37*
G36*
X170800000Y-100330000D02*
X167200000Y-100330000D01*
X167200000Y-98680000D01*
X170800000Y-98680000D01*
X170800000Y-100330000D01*
X170800000Y-100330000D01*
G37*
G36*
X165010000Y-99175000D02*
X164210000Y-99175000D01*
X164210000Y-98035000D01*
X165010000Y-98035000D01*
X165010000Y-99175000D01*
X165010000Y-99175000D01*
G37*
G36*
X163590000Y-99175000D02*
X162790000Y-99175000D01*
X162790000Y-98035000D01*
X163590000Y-98035000D01*
X163590000Y-99175000D01*
X163590000Y-99175000D01*
G37*
G36*
X160690000Y-99070000D02*
X159890000Y-99070000D01*
X159890000Y-97930000D01*
X160690000Y-97930000D01*
X160690000Y-99070000D01*
X160690000Y-99070000D01*
G37*
G36*
X162110000Y-99070000D02*
X161310000Y-99070000D01*
X161310000Y-97930000D01*
X162110000Y-97930000D01*
X162110000Y-99070000D01*
X162110000Y-99070000D01*
G37*
G36*
X180600000Y-98920000D02*
X178900000Y-98920000D01*
X178900000Y-98719950D01*
X178898022Y-98706034D01*
X178892246Y-98693220D01*
X178883129Y-98682523D01*
X178871393Y-98674789D01*
X178857966Y-98670631D01*
X178850050Y-98670000D01*
X175825000Y-98670000D01*
X175825000Y-94320000D01*
X178850050Y-94320000D01*
X178863966Y-94318022D01*
X178876780Y-94312246D01*
X178887477Y-94303129D01*
X178895211Y-94291393D01*
X178899369Y-94277966D01*
X178900000Y-94270050D01*
X178900000Y-94070000D01*
X180600000Y-94070000D01*
X180600000Y-98920000D01*
X180600000Y-98920000D01*
G37*
G36*
X174925000Y-98825000D02*
X173625000Y-98825000D01*
X173625000Y-97975000D01*
X174925000Y-97975000D01*
X174925000Y-98825000D01*
X174925000Y-98825000D01*
G37*
G36*
X174925000Y-97555000D02*
X173625000Y-97555000D01*
X173625000Y-96705000D01*
X174925000Y-96705000D01*
X174925000Y-97555000D01*
X174925000Y-97555000D01*
G37*
G36*
X165010000Y-97475000D02*
X164210000Y-97475000D01*
X164210000Y-96335000D01*
X165010000Y-96335000D01*
X165010000Y-97475000D01*
X165010000Y-97475000D01*
G37*
G36*
X163590000Y-97475000D02*
X162790000Y-97475000D01*
X162790000Y-96335000D01*
X163590000Y-96335000D01*
X163590000Y-97475000D01*
X163590000Y-97475000D01*
G37*
G36*
X162355000Y-97425000D02*
X161305000Y-97425000D01*
X161305000Y-96275000D01*
X162355000Y-96275000D01*
X162355000Y-97425000D01*
X162355000Y-97425000D01*
G37*
G36*
X160695000Y-97425000D02*
X159645000Y-97425000D01*
X159645000Y-96275000D01*
X160695000Y-96275000D01*
X160695000Y-97425000D01*
X160695000Y-97425000D01*
G37*
G36*
X174925000Y-96285000D02*
X173625000Y-96285000D01*
X173625000Y-95435000D01*
X174925000Y-95435000D01*
X174925000Y-96285000D01*
X174925000Y-96285000D01*
G37*
G36*
X153820000Y-96010000D02*
X152680000Y-96010000D01*
X152680000Y-95210000D01*
X153820000Y-95210000D01*
X153820000Y-96010000D01*
X153820000Y-96010000D01*
G37*
G36*
X160570000Y-95910000D02*
X159430000Y-95910000D01*
X159430000Y-95110000D01*
X160570000Y-95110000D01*
X160570000Y-95910000D01*
X160570000Y-95910000D01*
G37*
G36*
X162220000Y-95910000D02*
X161080000Y-95910000D01*
X161080000Y-95110000D01*
X162220000Y-95110000D01*
X162220000Y-95910000D01*
X162220000Y-95910000D01*
G37*
G36*
X183857661Y-93225681D02*
X184054570Y-93266101D01*
X184239875Y-93343996D01*
X184406523Y-93456401D01*
X184548163Y-93599034D01*
X184659401Y-93766461D01*
X184736002Y-93952308D01*
X184774978Y-94149150D01*
X184774978Y-94149160D01*
X184775044Y-94149494D01*
X184771838Y-94379088D01*
X184771762Y-94379422D01*
X184771762Y-94379430D01*
X184727305Y-94575107D01*
X184645546Y-94758743D01*
X184529675Y-94923000D01*
X184384108Y-95061621D01*
X184214390Y-95169327D01*
X184026975Y-95242021D01*
X183829018Y-95276926D01*
X183628050Y-95272717D01*
X183431721Y-95229551D01*
X183247524Y-95149077D01*
X183082463Y-95034356D01*
X182942825Y-94889757D01*
X182833935Y-94720794D01*
X182759937Y-94533895D01*
X182723650Y-94336187D01*
X182726458Y-94135195D01*
X182768251Y-93938569D01*
X182847438Y-93753810D01*
X182961002Y-93587954D01*
X183104622Y-93447311D01*
X183272822Y-93337244D01*
X183459200Y-93261943D01*
X183656650Y-93224277D01*
X183857661Y-93225681D01*
X183857661Y-93225681D01*
G37*
G36*
X174925000Y-95015000D02*
X173625000Y-95015000D01*
X173625000Y-94165000D01*
X174925000Y-94165000D01*
X174925000Y-95015000D01*
X174925000Y-95015000D01*
G37*
G36*
X164950000Y-94870000D02*
X164150000Y-94870000D01*
X164150000Y-93730000D01*
X164950000Y-93730000D01*
X164950000Y-94870000D01*
X164950000Y-94870000D01*
G37*
G36*
X163530000Y-94870000D02*
X162730000Y-94870000D01*
X162730000Y-93730000D01*
X163530000Y-93730000D01*
X163530000Y-94870000D01*
X163530000Y-94870000D01*
G37*
G36*
X153820000Y-94590000D02*
X152680000Y-94590000D01*
X152680000Y-93790000D01*
X153820000Y-93790000D01*
X153820000Y-94590000D01*
X153820000Y-94590000D01*
G37*
G36*
X170800000Y-94530000D02*
X167200000Y-94530000D01*
X167200000Y-92880000D01*
X170800000Y-92880000D01*
X170800000Y-94530000D01*
X170800000Y-94530000D01*
G37*
G36*
X162220000Y-94490000D02*
X161080000Y-94490000D01*
X161080000Y-93690000D01*
X162220000Y-93690000D01*
X162220000Y-94490000D01*
X162220000Y-94490000D01*
G37*
G36*
X160570000Y-94490000D02*
X159430000Y-94490000D01*
X159430000Y-93690000D01*
X160570000Y-93690000D01*
X160570000Y-94490000D01*
X160570000Y-94490000D01*
G37*
G36*
X154120000Y-93210000D02*
X152980000Y-93210000D01*
X152980000Y-92410000D01*
X154120000Y-92410000D01*
X154120000Y-93210000D01*
X154120000Y-93210000D01*
G37*
G36*
X160665000Y-91945000D02*
X159865000Y-91945000D01*
X159865000Y-90805000D01*
X160665000Y-90805000D01*
X160665000Y-91945000D01*
X160665000Y-91945000D01*
G37*
G36*
X162085000Y-91945000D02*
X161285000Y-91945000D01*
X161285000Y-90805000D01*
X162085000Y-90805000D01*
X162085000Y-91945000D01*
X162085000Y-91945000D01*
G37*
G36*
X148995000Y-91880000D02*
X147945000Y-91880000D01*
X147945000Y-90730000D01*
X148995000Y-90730000D01*
X148995000Y-91880000D01*
X148995000Y-91880000D01*
G37*
G36*
X150655000Y-91880000D02*
X149605000Y-91880000D01*
X149605000Y-90730000D01*
X150655000Y-90730000D01*
X150655000Y-91880000D01*
X150655000Y-91880000D01*
G37*
G36*
X146040000Y-91875000D02*
X145240000Y-91875000D01*
X145240000Y-90735000D01*
X146040000Y-90735000D01*
X146040000Y-91875000D01*
X146040000Y-91875000D01*
G37*
G36*
X147460000Y-91875000D02*
X146660000Y-91875000D01*
X146660000Y-90735000D01*
X147460000Y-90735000D01*
X147460000Y-91875000D01*
X147460000Y-91875000D01*
G37*
G36*
X154120000Y-91790000D02*
X152980000Y-91790000D01*
X152980000Y-90990000D01*
X154120000Y-90990000D01*
X154120000Y-91790000D01*
X154120000Y-91790000D01*
G37*
G36*
X158550000Y-90825000D02*
X157800000Y-90825000D01*
X157800000Y-89875000D01*
X158550000Y-89875000D01*
X158550000Y-90825000D01*
X158550000Y-90825000D01*
G37*
G36*
X170800000Y-90525000D02*
X167200000Y-90525000D01*
X167200000Y-88875000D01*
X170800000Y-88875000D01*
X170800000Y-90525000D01*
X170800000Y-90525000D01*
G37*
G36*
X161635000Y-90270000D02*
X160835000Y-90270000D01*
X160835000Y-89130000D01*
X161635000Y-89130000D01*
X161635000Y-90270000D01*
X161635000Y-90270000D01*
G37*
G36*
X160215000Y-90270000D02*
X159415000Y-90270000D01*
X159415000Y-89130000D01*
X160215000Y-89130000D01*
X160215000Y-90270000D01*
X160215000Y-90270000D01*
G37*
G36*
X144710000Y-90170000D02*
X143910000Y-90170000D01*
X143910000Y-89030000D01*
X144710000Y-89030000D01*
X144710000Y-90170000D01*
X144710000Y-90170000D01*
G37*
G36*
X152710000Y-90170000D02*
X151910000Y-90170000D01*
X151910000Y-89030000D01*
X152710000Y-89030000D01*
X152710000Y-90170000D01*
X152710000Y-90170000D01*
G37*
G36*
X151290000Y-90170000D02*
X150490000Y-90170000D01*
X150490000Y-89030000D01*
X151290000Y-89030000D01*
X151290000Y-90170000D01*
X151290000Y-90170000D01*
G37*
G36*
X143290000Y-90170000D02*
X142490000Y-90170000D01*
X142490000Y-89030000D01*
X143290000Y-89030000D01*
X143290000Y-90170000D01*
X143290000Y-90170000D01*
G37*
G36*
X148710000Y-90170000D02*
X147910000Y-90170000D01*
X147910000Y-89030000D01*
X148710000Y-89030000D01*
X148710000Y-90170000D01*
X148710000Y-90170000D01*
G37*
G36*
X147290000Y-90170000D02*
X146490000Y-90170000D01*
X146490000Y-89030000D01*
X147290000Y-89030000D01*
X147290000Y-90170000D01*
X147290000Y-90170000D01*
G37*
G36*
X180600000Y-89925000D02*
X178900000Y-89925000D01*
X178900000Y-89724950D01*
X178898022Y-89711034D01*
X178892246Y-89698220D01*
X178883129Y-89687523D01*
X178871393Y-89679789D01*
X178857966Y-89675631D01*
X178850050Y-89675000D01*
X175825000Y-89675000D01*
X175825000Y-85325000D01*
X178850050Y-85325000D01*
X178863966Y-85323022D01*
X178876780Y-85317246D01*
X178887477Y-85308129D01*
X178895211Y-85296393D01*
X178899369Y-85282966D01*
X178900000Y-85275050D01*
X178900000Y-85075000D01*
X180600000Y-85075000D01*
X180600000Y-89925000D01*
X180600000Y-89925000D01*
G37*
G36*
X174925000Y-89830000D02*
X173625000Y-89830000D01*
X173625000Y-88980000D01*
X174925000Y-88980000D01*
X174925000Y-89830000D01*
X174925000Y-89830000D01*
G37*
G36*
X161635000Y-88595000D02*
X160835000Y-88595000D01*
X160835000Y-87455000D01*
X161635000Y-87455000D01*
X161635000Y-88595000D01*
X161635000Y-88595000D01*
G37*
G36*
X160215000Y-88595000D02*
X159415000Y-88595000D01*
X159415000Y-87455000D01*
X160215000Y-87455000D01*
X160215000Y-88595000D01*
X160215000Y-88595000D01*
G37*
G36*
X164310000Y-88570000D02*
X163510000Y-88570000D01*
X163510000Y-87430000D01*
X164310000Y-87430000D01*
X164310000Y-88570000D01*
X164310000Y-88570000D01*
G37*
G36*
X162890000Y-88570000D02*
X162090000Y-88570000D01*
X162090000Y-87430000D01*
X162890000Y-87430000D01*
X162890000Y-88570000D01*
X162890000Y-88570000D01*
G37*
G36*
X174925000Y-88560000D02*
X173625000Y-88560000D01*
X173625000Y-87710000D01*
X174925000Y-87710000D01*
X174925000Y-88560000D01*
X174925000Y-88560000D01*
G37*
G36*
X147295000Y-88475000D02*
X146245000Y-88475000D01*
X146245000Y-87325000D01*
X147295000Y-87325000D01*
X147295000Y-88475000D01*
X147295000Y-88475000D01*
G37*
G36*
X151295000Y-88475000D02*
X150245000Y-88475000D01*
X150245000Y-87325000D01*
X151295000Y-87325000D01*
X151295000Y-88475000D01*
X151295000Y-88475000D01*
G37*
G36*
X152955000Y-88475000D02*
X151905000Y-88475000D01*
X151905000Y-87325000D01*
X152955000Y-87325000D01*
X152955000Y-88475000D01*
X152955000Y-88475000D01*
G37*
G36*
X148955000Y-88475000D02*
X147905000Y-88475000D01*
X147905000Y-87325000D01*
X148955000Y-87325000D01*
X148955000Y-88475000D01*
X148955000Y-88475000D01*
G37*
G36*
X144955000Y-88475000D02*
X143905000Y-88475000D01*
X143905000Y-87325000D01*
X144955000Y-87325000D01*
X144955000Y-88475000D01*
X144955000Y-88475000D01*
G37*
G36*
X143295000Y-88475000D02*
X142245000Y-88475000D01*
X142245000Y-87325000D01*
X143295000Y-87325000D01*
X143295000Y-88475000D01*
X143295000Y-88475000D01*
G37*
G36*
X158550000Y-88425000D02*
X157800000Y-88425000D01*
X157800000Y-87475000D01*
X158550000Y-87475000D01*
X158550000Y-88425000D01*
X158550000Y-88425000D01*
G37*
G36*
X174925000Y-87290000D02*
X173625000Y-87290000D01*
X173625000Y-86440000D01*
X174925000Y-86440000D01*
X174925000Y-87290000D01*
X174925000Y-87290000D01*
G37*
G36*
X161855000Y-86975000D02*
X160805000Y-86975000D01*
X160805000Y-85825000D01*
X161855000Y-85825000D01*
X161855000Y-86975000D01*
X161855000Y-86975000D01*
G37*
G36*
X160195000Y-86975000D02*
X159145000Y-86975000D01*
X159145000Y-85825000D01*
X160195000Y-85825000D01*
X160195000Y-86975000D01*
X160195000Y-86975000D01*
G37*
G36*
X164510000Y-86970000D02*
X163710000Y-86970000D01*
X163710000Y-85830000D01*
X164510000Y-85830000D01*
X164510000Y-86970000D01*
X164510000Y-86970000D01*
G37*
G36*
X163090000Y-86970000D02*
X162290000Y-86970000D01*
X162290000Y-85830000D01*
X163090000Y-85830000D01*
X163090000Y-86970000D01*
X163090000Y-86970000D01*
G37*
G36*
X152610000Y-86770000D02*
X151810000Y-86770000D01*
X151810000Y-85630000D01*
X152610000Y-85630000D01*
X152610000Y-86770000D01*
X152610000Y-86770000D01*
G37*
G36*
X143280000Y-86770000D02*
X142480000Y-86770000D01*
X142480000Y-85630000D01*
X143280000Y-85630000D01*
X143280000Y-86770000D01*
X143280000Y-86770000D01*
G37*
G36*
X144700000Y-86770000D02*
X143900000Y-86770000D01*
X143900000Y-85630000D01*
X144700000Y-85630000D01*
X144700000Y-86770000D01*
X144700000Y-86770000D01*
G37*
G36*
X151190000Y-86770000D02*
X150390000Y-86770000D01*
X150390000Y-85630000D01*
X151190000Y-85630000D01*
X151190000Y-86770000D01*
X151190000Y-86770000D01*
G37*
G36*
X148710000Y-86770000D02*
X147910000Y-86770000D01*
X147910000Y-85630000D01*
X148710000Y-85630000D01*
X148710000Y-86770000D01*
X148710000Y-86770000D01*
G37*
G36*
X147290000Y-86770000D02*
X146490000Y-86770000D01*
X146490000Y-85630000D01*
X147290000Y-85630000D01*
X147290000Y-86770000D01*
X147290000Y-86770000D01*
G37*
G36*
X183857661Y-84475681D02*
X184054570Y-84516101D01*
X184239875Y-84593996D01*
X184406523Y-84706401D01*
X184548163Y-84849034D01*
X184659401Y-85016461D01*
X184736002Y-85202308D01*
X184774978Y-85399150D01*
X184774978Y-85399160D01*
X184775044Y-85399494D01*
X184771838Y-85629088D01*
X184771762Y-85629422D01*
X184771762Y-85629430D01*
X184727305Y-85825107D01*
X184645546Y-86008743D01*
X184529675Y-86173000D01*
X184384108Y-86311621D01*
X184214390Y-86419327D01*
X184026975Y-86492021D01*
X183829018Y-86526926D01*
X183628050Y-86522717D01*
X183431721Y-86479551D01*
X183247524Y-86399077D01*
X183082463Y-86284356D01*
X182942825Y-86139757D01*
X182833935Y-85970794D01*
X182759937Y-85783895D01*
X182723650Y-85586187D01*
X182726458Y-85385195D01*
X182768251Y-85188569D01*
X182847438Y-85003810D01*
X182961002Y-84837954D01*
X183104622Y-84697311D01*
X183272822Y-84587244D01*
X183459200Y-84511943D01*
X183656650Y-84474277D01*
X183857661Y-84475681D01*
X183857661Y-84475681D01*
G37*
G36*
X174925000Y-86020000D02*
X173625000Y-86020000D01*
X173625000Y-85170000D01*
X174925000Y-85170000D01*
X174925000Y-86020000D01*
X174925000Y-86020000D01*
G37*
G36*
X158695000Y-85910000D02*
X157555000Y-85910000D01*
X157555000Y-85110000D01*
X158695000Y-85110000D01*
X158695000Y-85910000D01*
X158695000Y-85910000D01*
G37*
G36*
X156970000Y-85900000D02*
X155830000Y-85900000D01*
X155830000Y-85100000D01*
X156970000Y-85100000D01*
X156970000Y-85900000D01*
X156970000Y-85900000D01*
G37*
G36*
X160065000Y-85320000D02*
X159265000Y-85320000D01*
X159265000Y-84180000D01*
X160065000Y-84180000D01*
X160065000Y-85320000D01*
X160065000Y-85320000D01*
G37*
G36*
X161485000Y-85320000D02*
X160685000Y-85320000D01*
X160685000Y-84180000D01*
X161485000Y-84180000D01*
X161485000Y-85320000D01*
X161485000Y-85320000D01*
G37*
G36*
X170800000Y-84725000D02*
X167200000Y-84725000D01*
X167200000Y-83075000D01*
X170800000Y-83075000D01*
X170800000Y-84725000D01*
X170800000Y-84725000D01*
G37*
G36*
X146406653Y-82995547D02*
X146565143Y-83028081D01*
X146714290Y-83090776D01*
X146848422Y-83181249D01*
X146962425Y-83296051D01*
X147051957Y-83430809D01*
X147113612Y-83580394D01*
X147144970Y-83738761D01*
X147144970Y-83738771D01*
X147145036Y-83739105D01*
X147142455Y-83923900D01*
X147142379Y-83924234D01*
X147142379Y-83924243D01*
X147106614Y-84081670D01*
X147040804Y-84229479D01*
X146947544Y-84361684D01*
X146830383Y-84473254D01*
X146693776Y-84559948D01*
X146542931Y-84618457D01*
X146383600Y-84646551D01*
X146221845Y-84643163D01*
X146063825Y-84608420D01*
X145915566Y-84543647D01*
X145782713Y-84451312D01*
X145670321Y-84334927D01*
X145582679Y-84198932D01*
X145523119Y-84048501D01*
X145493912Y-83889369D01*
X145496172Y-83727591D01*
X145529809Y-83569339D01*
X145593547Y-83420627D01*
X145684952Y-83287133D01*
X145800549Y-83173933D01*
X145935928Y-83085343D01*
X146085943Y-83024734D01*
X146244864Y-82994417D01*
X146406653Y-82995547D01*
X146406653Y-82995547D01*
G37*
G36*
X148946653Y-82995547D02*
X149105143Y-83028081D01*
X149254290Y-83090776D01*
X149388422Y-83181249D01*
X149502425Y-83296051D01*
X149591957Y-83430809D01*
X149653612Y-83580394D01*
X149684970Y-83738761D01*
X149684970Y-83738771D01*
X149685036Y-83739105D01*
X149682455Y-83923900D01*
X149682379Y-83924234D01*
X149682379Y-83924243D01*
X149646614Y-84081670D01*
X149580804Y-84229479D01*
X149487544Y-84361684D01*
X149370383Y-84473254D01*
X149233776Y-84559948D01*
X149082931Y-84618457D01*
X148923600Y-84646551D01*
X148761845Y-84643163D01*
X148603825Y-84608420D01*
X148455566Y-84543647D01*
X148322713Y-84451312D01*
X148210321Y-84334927D01*
X148122679Y-84198932D01*
X148063119Y-84048501D01*
X148033912Y-83889369D01*
X148036172Y-83727591D01*
X148069809Y-83569339D01*
X148133547Y-83420627D01*
X148224952Y-83287133D01*
X148340549Y-83173933D01*
X148475928Y-83085343D01*
X148625943Y-83024734D01*
X148784864Y-82994417D01*
X148946653Y-82995547D01*
X148946653Y-82995547D01*
G37*
G36*
X151486653Y-82995547D02*
X151645143Y-83028081D01*
X151794290Y-83090776D01*
X151928422Y-83181249D01*
X152042425Y-83296051D01*
X152131957Y-83430809D01*
X152193612Y-83580394D01*
X152224970Y-83738761D01*
X152224970Y-83738771D01*
X152225036Y-83739105D01*
X152222455Y-83923900D01*
X152222379Y-83924234D01*
X152222379Y-83924243D01*
X152186614Y-84081670D01*
X152120804Y-84229479D01*
X152027544Y-84361684D01*
X151910383Y-84473254D01*
X151773776Y-84559948D01*
X151622931Y-84618457D01*
X151463600Y-84646551D01*
X151301845Y-84643163D01*
X151143825Y-84608420D01*
X150995566Y-84543647D01*
X150862713Y-84451312D01*
X150750321Y-84334927D01*
X150662679Y-84198932D01*
X150603119Y-84048501D01*
X150573912Y-83889369D01*
X150576172Y-83727591D01*
X150609809Y-83569339D01*
X150673547Y-83420627D01*
X150764952Y-83287133D01*
X150880549Y-83173933D01*
X151015928Y-83085343D01*
X151165943Y-83024734D01*
X151324864Y-82994417D01*
X151486653Y-82995547D01*
X151486653Y-82995547D01*
G37*
G36*
X154026653Y-82995547D02*
X154185143Y-83028081D01*
X154334290Y-83090776D01*
X154468422Y-83181249D01*
X154582425Y-83296051D01*
X154671957Y-83430809D01*
X154733612Y-83580394D01*
X154764970Y-83738761D01*
X154764970Y-83738771D01*
X154765036Y-83739105D01*
X154762455Y-83923900D01*
X154762379Y-83924234D01*
X154762379Y-83924243D01*
X154726614Y-84081670D01*
X154660804Y-84229479D01*
X154567544Y-84361684D01*
X154450383Y-84473254D01*
X154313776Y-84559948D01*
X154162931Y-84618457D01*
X154003600Y-84646551D01*
X153841845Y-84643163D01*
X153683825Y-84608420D01*
X153535566Y-84543647D01*
X153402713Y-84451312D01*
X153290321Y-84334927D01*
X153202679Y-84198932D01*
X153143119Y-84048501D01*
X153113912Y-83889369D01*
X153116172Y-83727591D01*
X153149809Y-83569339D01*
X153213547Y-83420627D01*
X153304952Y-83287133D01*
X153420549Y-83173933D01*
X153555928Y-83085343D01*
X153705943Y-83024734D01*
X153864864Y-82994417D01*
X154026653Y-82995547D01*
X154026653Y-82995547D01*
G37*
G36*
X144605000Y-84645000D02*
X142955000Y-84645000D01*
X142955000Y-82995000D01*
X144605000Y-82995000D01*
X144605000Y-84645000D01*
X144605000Y-84645000D01*
G37*
G36*
X158695000Y-84490000D02*
X157555000Y-84490000D01*
X157555000Y-83690000D01*
X158695000Y-83690000D01*
X158695000Y-84490000D01*
X158695000Y-84490000D01*
G37*
G36*
X156970000Y-84480000D02*
X155830000Y-84480000D01*
X155830000Y-83680000D01*
X156970000Y-83680000D01*
X156970000Y-84480000D01*
X156970000Y-84480000D01*
G37*
G36*
X163010000Y-83370000D02*
X162210000Y-83370000D01*
X162210000Y-82230000D01*
X163010000Y-82230000D01*
X163010000Y-83370000D01*
X163010000Y-83370000D01*
G37*
G36*
X161590000Y-83370000D02*
X160790000Y-83370000D01*
X160790000Y-82230000D01*
X161590000Y-82230000D01*
X161590000Y-83370000D01*
X161590000Y-83370000D01*
G37*
G36*
X159225000Y-82580000D02*
X158475000Y-82580000D01*
X158475000Y-81630000D01*
X159225000Y-81630000D01*
X159225000Y-82580000D01*
X159225000Y-82580000D01*
G37*
G36*
X138399674Y-79575947D02*
X138673426Y-79632140D01*
X138931045Y-79740433D01*
X139162727Y-79896704D01*
X139359641Y-80094999D01*
X139514290Y-80327764D01*
X139620783Y-80586134D01*
X139674996Y-80859928D01*
X139674996Y-80859943D01*
X139675061Y-80860272D01*
X139670604Y-81179464D01*
X139670528Y-81179798D01*
X139670528Y-81179807D01*
X139608694Y-81451975D01*
X139495025Y-81707278D01*
X139333939Y-81935633D01*
X139131567Y-82128348D01*
X138895612Y-82278091D01*
X138635064Y-82379151D01*
X138359854Y-82427677D01*
X138080459Y-82421825D01*
X137807516Y-82361814D01*
X137551435Y-82249935D01*
X137321960Y-82090446D01*
X137127830Y-81889419D01*
X136976448Y-81654518D01*
X136873572Y-81394684D01*
X136823124Y-81119819D01*
X136827026Y-80840386D01*
X136885128Y-80567040D01*
X136995219Y-80310176D01*
X137153101Y-80079595D01*
X137352768Y-79884067D01*
X137586605Y-79731048D01*
X137845718Y-79626360D01*
X138120222Y-79573996D01*
X138399674Y-79575947D01*
X138399674Y-79575947D01*
G37*
G36*
X182399674Y-79575947D02*
X182673426Y-79632140D01*
X182931045Y-79740433D01*
X183162727Y-79896704D01*
X183359641Y-80094999D01*
X183514290Y-80327764D01*
X183620783Y-80586134D01*
X183674996Y-80859928D01*
X183674996Y-80859943D01*
X183675061Y-80860272D01*
X183670604Y-81179464D01*
X183670528Y-81179798D01*
X183670528Y-81179807D01*
X183608694Y-81451975D01*
X183495025Y-81707278D01*
X183333939Y-81935633D01*
X183131567Y-82128348D01*
X182895612Y-82278091D01*
X182635064Y-82379151D01*
X182359854Y-82427677D01*
X182080459Y-82421825D01*
X181807516Y-82361814D01*
X181551435Y-82249935D01*
X181321960Y-82090446D01*
X181127830Y-81889419D01*
X180976448Y-81654518D01*
X180873572Y-81394684D01*
X180823124Y-81119819D01*
X180827026Y-80840386D01*
X180885128Y-80567040D01*
X180995219Y-80310176D01*
X181153101Y-80079595D01*
X181352768Y-79884067D01*
X181586605Y-79731048D01*
X181845718Y-79626360D01*
X182120222Y-79573996D01*
X182399674Y-79575947D01*
X182399674Y-79575947D01*
G37*
G36*
X156566653Y-80455547D02*
X156725143Y-80488081D01*
X156874290Y-80550776D01*
X157008422Y-80641249D01*
X157122425Y-80756051D01*
X157211957Y-80890809D01*
X157273612Y-81040394D01*
X157304970Y-81198761D01*
X157304970Y-81198771D01*
X157305036Y-81199105D01*
X157302455Y-81383900D01*
X157302379Y-81384234D01*
X157302379Y-81384243D01*
X157266614Y-81541670D01*
X157200804Y-81689479D01*
X157107544Y-81821684D01*
X156990383Y-81933254D01*
X156853776Y-82019948D01*
X156702931Y-82078457D01*
X156543600Y-82106551D01*
X156381845Y-82103163D01*
X156223825Y-82068420D01*
X156075566Y-82003647D01*
X155942713Y-81911312D01*
X155830321Y-81794927D01*
X155742679Y-81658932D01*
X155683119Y-81508501D01*
X155653912Y-81349369D01*
X155656172Y-81187591D01*
X155689809Y-81029339D01*
X155753547Y-80880627D01*
X155844952Y-80747133D01*
X155960549Y-80633933D01*
X156095928Y-80545343D01*
X156245943Y-80484734D01*
X156404864Y-80454417D01*
X156566653Y-80455547D01*
X156566653Y-80455547D01*
G37*
G36*
X154026653Y-80455547D02*
X154185143Y-80488081D01*
X154334290Y-80550776D01*
X154468422Y-80641249D01*
X154582425Y-80756051D01*
X154671957Y-80890809D01*
X154733612Y-81040394D01*
X154764970Y-81198761D01*
X154764970Y-81198771D01*
X154765036Y-81199105D01*
X154762455Y-81383900D01*
X154762379Y-81384234D01*
X154762379Y-81384243D01*
X154726614Y-81541670D01*
X154660804Y-81689479D01*
X154567544Y-81821684D01*
X154450383Y-81933254D01*
X154313776Y-82019948D01*
X154162931Y-82078457D01*
X154003600Y-82106551D01*
X153841845Y-82103163D01*
X153683825Y-82068420D01*
X153535566Y-82003647D01*
X153402713Y-81911312D01*
X153290321Y-81794927D01*
X153202679Y-81658932D01*
X153143119Y-81508501D01*
X153113912Y-81349369D01*
X153116172Y-81187591D01*
X153149809Y-81029339D01*
X153213547Y-80880627D01*
X153304952Y-80747133D01*
X153420549Y-80633933D01*
X153555928Y-80545343D01*
X153705943Y-80484734D01*
X153864864Y-80454417D01*
X154026653Y-80455547D01*
X154026653Y-80455547D01*
G37*
G36*
X151486653Y-80455547D02*
X151645143Y-80488081D01*
X151794290Y-80550776D01*
X151928422Y-80641249D01*
X152042425Y-80756051D01*
X152131957Y-80890809D01*
X152193612Y-81040394D01*
X152224970Y-81198761D01*
X152224970Y-81198771D01*
X152225036Y-81199105D01*
X152222455Y-81383900D01*
X152222379Y-81384234D01*
X152222379Y-81384243D01*
X152186614Y-81541670D01*
X152120804Y-81689479D01*
X152027544Y-81821684D01*
X151910383Y-81933254D01*
X151773776Y-82019948D01*
X151622931Y-82078457D01*
X151463600Y-82106551D01*
X151301845Y-82103163D01*
X151143825Y-82068420D01*
X150995566Y-82003647D01*
X150862713Y-81911312D01*
X150750321Y-81794927D01*
X150662679Y-81658932D01*
X150603119Y-81508501D01*
X150573912Y-81349369D01*
X150576172Y-81187591D01*
X150609809Y-81029339D01*
X150673547Y-80880627D01*
X150764952Y-80747133D01*
X150880549Y-80633933D01*
X151015928Y-80545343D01*
X151165943Y-80484734D01*
X151324864Y-80454417D01*
X151486653Y-80455547D01*
X151486653Y-80455547D01*
G37*
G36*
X148946653Y-80455547D02*
X149105143Y-80488081D01*
X149254290Y-80550776D01*
X149388422Y-80641249D01*
X149502425Y-80756051D01*
X149591957Y-80890809D01*
X149653612Y-81040394D01*
X149684970Y-81198761D01*
X149684970Y-81198771D01*
X149685036Y-81199105D01*
X149682455Y-81383900D01*
X149682379Y-81384234D01*
X149682379Y-81384243D01*
X149646614Y-81541670D01*
X149580804Y-81689479D01*
X149487544Y-81821684D01*
X149370383Y-81933254D01*
X149233776Y-82019948D01*
X149082931Y-82078457D01*
X148923600Y-82106551D01*
X148761845Y-82103163D01*
X148603825Y-82068420D01*
X148455566Y-82003647D01*
X148322713Y-81911312D01*
X148210321Y-81794927D01*
X148122679Y-81658932D01*
X148063119Y-81508501D01*
X148033912Y-81349369D01*
X148036172Y-81187591D01*
X148069809Y-81029339D01*
X148133547Y-80880627D01*
X148224952Y-80747133D01*
X148340549Y-80633933D01*
X148475928Y-80545343D01*
X148625943Y-80484734D01*
X148784864Y-80454417D01*
X148946653Y-80455547D01*
X148946653Y-80455547D01*
G37*
G36*
X146406653Y-80455547D02*
X146565143Y-80488081D01*
X146714290Y-80550776D01*
X146848422Y-80641249D01*
X146962425Y-80756051D01*
X147051957Y-80890809D01*
X147113612Y-81040394D01*
X147144970Y-81198761D01*
X147144970Y-81198771D01*
X147145036Y-81199105D01*
X147142455Y-81383900D01*
X147142379Y-81384234D01*
X147142379Y-81384243D01*
X147106614Y-81541670D01*
X147040804Y-81689479D01*
X146947544Y-81821684D01*
X146830383Y-81933254D01*
X146693776Y-82019948D01*
X146542931Y-82078457D01*
X146383600Y-82106551D01*
X146221845Y-82103163D01*
X146063825Y-82068420D01*
X145915566Y-82003647D01*
X145782713Y-81911312D01*
X145670321Y-81794927D01*
X145582679Y-81658932D01*
X145523119Y-81508501D01*
X145493912Y-81349369D01*
X145496172Y-81187591D01*
X145529809Y-81029339D01*
X145593547Y-80880627D01*
X145684952Y-80747133D01*
X145800549Y-80633933D01*
X145935928Y-80545343D01*
X146085943Y-80484734D01*
X146244864Y-80454417D01*
X146406653Y-80455547D01*
X146406653Y-80455547D01*
G37*
G36*
X144605000Y-82105000D02*
X142955000Y-82105000D01*
X142955000Y-80455000D01*
X144605000Y-80455000D01*
X144605000Y-82105000D01*
X144605000Y-82105000D01*
G37*
G36*
X173357661Y-79975681D02*
X173554570Y-80016101D01*
X173739875Y-80093996D01*
X173906523Y-80206401D01*
X174048163Y-80349034D01*
X174159401Y-80516461D01*
X174236002Y-80702308D01*
X174274978Y-80899150D01*
X174274978Y-80899160D01*
X174275044Y-80899494D01*
X174271838Y-81129088D01*
X174271762Y-81129422D01*
X174271762Y-81129430D01*
X174227305Y-81325107D01*
X174145546Y-81508743D01*
X174029675Y-81673000D01*
X173884108Y-81811621D01*
X173714390Y-81919327D01*
X173526975Y-81992021D01*
X173329018Y-82026926D01*
X173128050Y-82022717D01*
X172931721Y-81979551D01*
X172747524Y-81899077D01*
X172582463Y-81784356D01*
X172442825Y-81639757D01*
X172333935Y-81470794D01*
X172259937Y-81283895D01*
X172223650Y-81086187D01*
X172226458Y-80885195D01*
X172268251Y-80688569D01*
X172347438Y-80503810D01*
X172461002Y-80337954D01*
X172604622Y-80197311D01*
X172772822Y-80087244D01*
X172959200Y-80011943D01*
X173156650Y-79974277D01*
X173357661Y-79975681D01*
X173357661Y-79975681D01*
G37*
G36*
X161590000Y-81670000D02*
X160790000Y-81670000D01*
X160790000Y-80530000D01*
X161590000Y-80530000D01*
X161590000Y-81670000D01*
X161590000Y-81670000D01*
G37*
G36*
X163010000Y-81670000D02*
X162210000Y-81670000D01*
X162210000Y-80530000D01*
X163010000Y-80530000D01*
X163010000Y-81670000D01*
X163010000Y-81670000D01*
G37*
G36*
X165607661Y-78475681D02*
X165804570Y-78516101D01*
X165989875Y-78593996D01*
X166156523Y-78706401D01*
X166298163Y-78849034D01*
X166409401Y-79016461D01*
X166486002Y-79202308D01*
X166524978Y-79399150D01*
X166524978Y-79399160D01*
X166525044Y-79399494D01*
X166521838Y-79629088D01*
X166521762Y-79629422D01*
X166521762Y-79629430D01*
X166477305Y-79825107D01*
X166395546Y-80008743D01*
X166279675Y-80173000D01*
X166134108Y-80311621D01*
X165964390Y-80419327D01*
X165776975Y-80492021D01*
X165579018Y-80526926D01*
X165378050Y-80522717D01*
X165181721Y-80479551D01*
X164997524Y-80399077D01*
X164832463Y-80284356D01*
X164692825Y-80139757D01*
X164583935Y-79970794D01*
X164509937Y-79783895D01*
X164473650Y-79586187D01*
X164476458Y-79385195D01*
X164518251Y-79188569D01*
X164597438Y-79003810D01*
X164711002Y-78837954D01*
X164854622Y-78697311D01*
X165022822Y-78587244D01*
X165209200Y-78511943D01*
X165406650Y-78474277D01*
X165607661Y-78475681D01*
X165607661Y-78475681D01*
G37*
G36*
X159225000Y-80180000D02*
X158475000Y-80180000D01*
X158475000Y-79230000D01*
X159225000Y-79230000D01*
X159225000Y-80180000D01*
X159225000Y-80180000D01*
G37*
G36*
X172576150Y-78525481D02*
X172715429Y-78554071D01*
X172846498Y-78609167D01*
X172964371Y-78688673D01*
X173064555Y-78789560D01*
X173143235Y-78907983D01*
X173197417Y-79039437D01*
X173224966Y-79178566D01*
X173224966Y-79178581D01*
X173225031Y-79178910D01*
X173222763Y-79341306D01*
X173222688Y-79341635D01*
X173222688Y-79341648D01*
X173191266Y-79479954D01*
X173133436Y-79609844D01*
X173051480Y-79726023D01*
X172948516Y-79824074D01*
X172828470Y-79900258D01*
X172695909Y-79951675D01*
X172555891Y-79976363D01*
X172413743Y-79973386D01*
X172274876Y-79942854D01*
X172144592Y-79885934D01*
X172027836Y-79804787D01*
X171929070Y-79702512D01*
X171852051Y-79583002D01*
X171799711Y-79450804D01*
X171774044Y-79310961D01*
X171776030Y-79168792D01*
X171805589Y-79029723D01*
X171861602Y-78899035D01*
X171941927Y-78781724D01*
X172043513Y-78682244D01*
X172162481Y-78604392D01*
X172294314Y-78551129D01*
X172433971Y-78524488D01*
X172576150Y-78525481D01*
X172576150Y-78525481D01*
G37*
G36*
X167576150Y-78525481D02*
X167715429Y-78554071D01*
X167846498Y-78609167D01*
X167964371Y-78688673D01*
X168064555Y-78789560D01*
X168143235Y-78907983D01*
X168197417Y-79039437D01*
X168224966Y-79178566D01*
X168224966Y-79178581D01*
X168225031Y-79178910D01*
X168222763Y-79341306D01*
X168222688Y-79341635D01*
X168222688Y-79341648D01*
X168191266Y-79479954D01*
X168133436Y-79609844D01*
X168051480Y-79726023D01*
X167948516Y-79824074D01*
X167828470Y-79900258D01*
X167695909Y-79951675D01*
X167555891Y-79976363D01*
X167413743Y-79973386D01*
X167274876Y-79942854D01*
X167144592Y-79885934D01*
X167027836Y-79804787D01*
X166929070Y-79702512D01*
X166852051Y-79583002D01*
X166799711Y-79450804D01*
X166774044Y-79310961D01*
X166776030Y-79168792D01*
X166805589Y-79029723D01*
X166861602Y-78899035D01*
X166941927Y-78781724D01*
X167043513Y-78682244D01*
X167162481Y-78604392D01*
X167294314Y-78551129D01*
X167433971Y-78524488D01*
X167576150Y-78525481D01*
X167576150Y-78525481D01*
G37*
M02*
