M48
;DRILL file {KiCad 4.0.6-e0-6349~53~ubuntu16.04.1} date Thu Mar 23 00:32:02 2017
;FORMAT={3:3/ absolute / metric / suppress leading zeros}
FMAT,2
METRIC,TZ
T1C0.400
T2C0.800
T3C1.000
T4C1.500
%
G90
G05
M71
T1
X1800Y21800
X1950Y13800
X2000Y25000
X2000Y12500
X2000Y8200
X3250Y7200
X4100Y14550
X4100Y12850
X5000Y23600
X5100Y22400
X5750Y15595
X5800Y19095
X5800Y17950
X5800Y16650
X6250Y14700
X6450Y13000
X6800Y19945
X7700Y4600
X7750Y14845
X8050Y19795
X8950Y14895
X9150Y19795
X10100Y14895
X10200Y19795
X10750Y25100
X10875Y12906
X10950Y23400
X11250Y19595
X11400Y13700
X11400Y15245
X12235Y19987
X12500Y18945
X12600Y4600
X12750Y9000
X12994Y20637
X13500Y21675
X13656Y19888
X14000Y10500
X14214Y11950
X15519Y10317
X15550Y14500
X15591Y17369
X16700Y24600
X16750Y13245
X17250Y17495
X17475Y20150
X17483Y21843
X17700Y24900
X18094Y23744
X18389Y21336
X18817Y23053
X19188Y13002
X19450Y2600
X19920Y17775
X19950Y7295
X20187Y13050
X20200Y14900
X20644Y5469
X21150Y7200
X21864Y20267
X21949Y5520
X22700Y7400
X23000Y20000
X23050Y29600
X23336Y8542
X23643Y9525
X23800Y2400
X24050Y29600
X24087Y20038
X24100Y25400
X24287Y8232
X24513Y21484
X25300Y25275
X25500Y13100
X25537Y20397
X25708Y21382
X25850Y29600
X25936Y17109
X26750Y11750
X26750Y10950
X27000Y1595
X27000Y795
X27350Y30600
X27350Y29800
X27350Y29000
X27350Y28200
X27550Y11750
X27550Y10950
X27800Y1595
X27800Y795
X28150Y30600
X28150Y29800
X28150Y29000
X28150Y28200
X28350Y11750
X28350Y10950
X28600Y1595
X28600Y795
X28950Y29000
X29150Y11750
X29150Y10950
X29400Y16300
X29400Y1595
X29400Y795
X29750Y29000
X29950Y11750
X29950Y10950
X30200Y1595
X30200Y795
X30550Y29000
X30700Y18000
X30700Y14900
X30750Y26000
X30750Y11750
X30750Y10950
X30800Y24250
X30800Y7600
X30950Y29800
X31000Y4800
X31000Y1595
X31000Y795
X31350Y29000
X31550Y11750
X31550Y10950
X31700Y6000
X31750Y29800
X31800Y1595
X31800Y795
X32150Y29000
X32350Y11750
X32350Y10950
X32600Y1595
X32600Y795
X34700Y2000
X34900Y20600
X35000Y13000
X36300Y27700
X36300Y12600
X36737Y19987
X37100Y4600
X38500Y12800
X38750Y27900
X38900Y19900
X39000Y4600
X41300Y19600
X41500Y12000
X41600Y27800
X43350Y6000
X43500Y25050
X43500Y24250
X43500Y23450
X43500Y22650
X43500Y21850
X43500Y21050
X43500Y20250
X43500Y18350
X43500Y17550
X43500Y16750
X43500Y15950
X43500Y15150
X43500Y14350
X43500Y13550
X43500Y11600
X43500Y10800
X43500Y10000
X43500Y9200
X43500Y8400
X43500Y7600
X43500Y6800
X44300Y25050
X44300Y24250
X44300Y23450
X44300Y22650
X44300Y21850
X44300Y21050
X44300Y20250
X44300Y18350
X44300Y17550
X44300Y16750
X44300Y15950
X44300Y15150
X44300Y14350
X44300Y13550
X44300Y11600
X44300Y10800
X44300Y10000
X44300Y9200
X44300Y8400
X44300Y7600
X44300Y6800
X45100Y25050
X45100Y24250
X45100Y23450
X45100Y22650
X45100Y21850
X45100Y21050
X45100Y20250
X45100Y18350
X45100Y17550
X45100Y16750
X45100Y15950
X45100Y15150
X45100Y14350
X45100Y13550
X45100Y11600
X45100Y10800
X45100Y10000
X45100Y9200
X45100Y8400
X45100Y7600
X45900Y25050
X45900Y24250
X45900Y23450
X45900Y22650
X45900Y21850
X45900Y21050
X45900Y20250
X45900Y18350
X45900Y17550
X45900Y16750
X45900Y15950
X45900Y15150
X45900Y14350
X45900Y13550
X45900Y11600
X45900Y10800
X45900Y10000
X45900Y9200
X45900Y8400
X45900Y7600
T2
X31750Y30800
X36750Y30750
T3
X7620Y29940
X7620Y27400
X7620Y2000
X10160Y29940
X10160Y27400
X10160Y2000
X12700Y29940
X12700Y27400
X12700Y2000
X15240Y29940
X15240Y27400
X15240Y2000
X17780Y29940
X17780Y27400
X17780Y2000
X20320Y29940
T4
X29550Y30500
X34750Y30500
X47250Y23000
X47250Y16000
X47250Y8500
T0
M30
