%TF.GenerationSoftware,KiCad,Pcbnew,4.0.6-e0-6349~53~ubuntu16.04.1*%
%TF.CreationDate,2017-03-19T23:40:33+02:00*%
%TF.ProjectId,BLDC_controller,424C44435F636F6E74726F6C6C65722E,1.0*%
%TF.FileFunction,Copper,L1,Top,Signal*%
%FSLAX46Y46*%
G04 Gerber Fmt 4.6, Leading zero omitted, Abs format (unit mm)*
G04 Created by KiCad (PCBNEW 4.0.6-e0-6349~53~ubuntu16.04.1) date Sun Mar 19 23:40:33 2017*
%MOMM*%
%LPD*%
G01*
G04 APERTURE LIST*
%ADD10C,0.100000*%
%ADD11C,0.250000*%
%ADD12C,0.800000*%
%ADD13R,1.500000X1.500000*%
%ADD14C,1.500000*%
%ADD15C,1.300000*%
%ADD16R,1.000000X2.700000*%
%ADD17R,0.900000X1.000000*%
%ADD18R,0.600000X0.800000*%
%ADD19R,2.700000X1.500000*%
%ADD20R,0.400000X0.600000*%
%ADD21R,1.640000X1.400000*%
%ADD22R,1.350000X1.550000*%
%ADD23R,1.000000X0.900000*%
%ADD24R,0.650000X0.990000*%
%ADD25R,0.720000X0.720000*%
%ADD26R,0.640000X0.720000*%
%ADD27R,1.400000X1.400000*%
%ADD28O,1.050000X0.250000*%
%ADD29O,0.250000X1.050000*%
%ADD30R,0.600000X0.900000*%
%ADD31R,0.900000X0.600000*%
%ADD32R,1.150000X0.700000*%
%ADD33R,1.500000X4.700000*%
%ADD34R,3.600000X4.200000*%
%ADD35C,2.100000*%
%ADD36C,0.500000*%
%ADD37C,0.300000*%
%ADD38C,0.400000*%
%ADD39C,1.000000*%
%ADD40C,0.254000*%
G04 APERTURE END LIST*
D10*
D11*
X175335715Y-112107381D02*
X174764286Y-112107381D01*
X175050000Y-112107381D02*
X175050000Y-111107381D01*
X174954762Y-111250238D01*
X174859524Y-111345476D01*
X174764286Y-111393095D01*
D12*
X175000000Y-85100000D03*
X164400000Y-82400000D03*
X163600000Y-82400000D03*
X163600000Y-83200000D03*
X164400000Y-83200000D03*
X163600000Y-84800000D03*
X164400000Y-84800000D03*
X168000000Y-83200000D03*
X167200000Y-83200000D03*
X168400000Y-84000000D03*
X167600000Y-84000000D03*
X166800000Y-84000000D03*
X166000000Y-84000000D03*
X165200000Y-84000000D03*
X164400000Y-84000000D03*
X163600000Y-84000000D03*
X168600000Y-102050000D03*
X167800000Y-102050000D03*
X167000000Y-102050000D03*
X166200000Y-102050000D03*
X165400000Y-102050000D03*
X164600000Y-102050000D03*
X163800000Y-102050000D03*
X163000000Y-102050000D03*
X168600000Y-101250000D03*
X167800000Y-101250000D03*
X167000000Y-101250000D03*
X166200000Y-101250000D03*
X165400000Y-101250000D03*
X164600000Y-101250000D03*
X163800000Y-101250000D03*
X182150000Y-99450000D03*
X181350000Y-99450000D03*
X180550000Y-99450000D03*
X179750000Y-99450000D03*
X182150000Y-98650000D03*
X181350000Y-98650000D03*
X180550000Y-98650000D03*
X179750000Y-98650000D03*
X182150000Y-97850000D03*
X181350000Y-97850000D03*
X180550000Y-97850000D03*
X179750000Y-97850000D03*
X182150000Y-97050000D03*
X181350000Y-97050000D03*
X180550000Y-97050000D03*
X179750000Y-97050000D03*
X182150000Y-96250000D03*
X181350000Y-96250000D03*
X180550000Y-96250000D03*
X179750000Y-96250000D03*
X182150000Y-95450000D03*
X181350000Y-95450000D03*
X180550000Y-95450000D03*
X179750000Y-95450000D03*
X182150000Y-94650000D03*
X181350000Y-94650000D03*
X180550000Y-94650000D03*
X182150000Y-92750000D03*
X181350000Y-92750000D03*
X180550000Y-92750000D03*
X179750000Y-92750000D03*
X182150000Y-91950000D03*
X181350000Y-91950000D03*
X180550000Y-91950000D03*
X179750000Y-91950000D03*
X182150000Y-91150000D03*
X181350000Y-91150000D03*
X180550000Y-91150000D03*
X179750000Y-91150000D03*
X182150000Y-90350000D03*
X181350000Y-90350000D03*
X180550000Y-90350000D03*
X179750000Y-90350000D03*
X182150000Y-89550000D03*
X181350000Y-89550000D03*
X180550000Y-89550000D03*
X179750000Y-89550000D03*
X182150000Y-88750000D03*
X181350000Y-88750000D03*
X180550000Y-88750000D03*
X179750000Y-88750000D03*
X182150000Y-87950000D03*
X181350000Y-87950000D03*
X180550000Y-87950000D03*
X179600000Y-107000000D03*
X180550000Y-106200000D03*
X179750000Y-106200000D03*
X182150000Y-105400000D03*
X181350000Y-105400000D03*
X180550000Y-105400000D03*
X179750000Y-105400000D03*
X182150000Y-104600000D03*
X181350000Y-104600000D03*
X180550000Y-104600000D03*
X179750000Y-104600000D03*
X182150000Y-103800000D03*
X181350000Y-103800000D03*
X180550000Y-103800000D03*
X179750000Y-103800000D03*
X182150000Y-103000000D03*
X181350000Y-103000000D03*
X180550000Y-103000000D03*
X179750000Y-103000000D03*
X182150000Y-102200000D03*
X181350000Y-102200000D03*
X180550000Y-102200000D03*
X179750000Y-102200000D03*
X182150000Y-101400000D03*
X181350000Y-101400000D03*
X180550000Y-101400000D03*
X168850000Y-112205000D03*
X168050000Y-112205000D03*
X167250000Y-112205000D03*
X166450000Y-112205000D03*
X165650000Y-112205000D03*
X164850000Y-112205000D03*
X164050000Y-112205000D03*
X163250000Y-112205000D03*
X168850000Y-111405000D03*
X168050000Y-111405000D03*
X167250000Y-111405000D03*
X166450000Y-111405000D03*
X165650000Y-111405000D03*
X164850000Y-111405000D03*
X164050000Y-111405000D03*
X170950000Y-111000000D03*
X173350000Y-108400000D03*
X175250000Y-108400000D03*
X174750000Y-100200000D03*
X175150000Y-93100000D03*
X171150000Y-92400000D03*
X171250000Y-100000000D03*
X179750000Y-101400000D03*
X179750000Y-94650000D03*
X179750000Y-87950000D03*
D13*
X143870000Y-85600000D03*
D14*
X146410000Y-85600000D03*
X148950000Y-85600000D03*
X151490000Y-85600000D03*
X154030000Y-85600000D03*
D15*
X168000000Y-82200000D03*
D12*
X142500000Y-98300000D03*
X138250000Y-88000000D03*
X138050000Y-91200000D03*
X138250000Y-100500000D03*
X138250000Y-104800000D03*
X163000000Y-101250000D03*
X163250000Y-111405000D03*
X147650000Y-97755000D03*
X146350000Y-98105000D03*
X145200000Y-98105000D03*
X143050000Y-93055000D03*
X144000000Y-98155000D03*
X142000000Y-97405000D03*
X142050000Y-93905000D03*
X148750000Y-94055000D03*
X147500000Y-93405000D03*
X146450000Y-93205000D03*
X145400000Y-93205000D03*
D16*
X140350000Y-102750000D03*
X142550000Y-102750000D03*
D17*
X160680000Y-94200000D03*
X159020000Y-94200000D03*
D18*
X157850000Y-87100000D03*
X157850000Y-84700000D03*
D19*
X145650000Y-96650000D03*
X145650000Y-94750000D03*
D20*
X164850000Y-89300000D03*
X165750000Y-89300000D03*
X155550000Y-108900000D03*
X156450000Y-108900000D03*
D21*
X146500000Y-104235000D03*
X146500000Y-108265000D03*
D18*
X158550000Y-90600000D03*
X158550000Y-88200000D03*
D22*
X169600000Y-85300000D03*
X167600000Y-85300000D03*
D18*
X164000000Y-99105000D03*
X164000000Y-96705000D03*
X162000000Y-105305000D03*
X162000000Y-107705000D03*
D22*
X169600000Y-99600000D03*
X167600000Y-99600000D03*
X141250000Y-106100000D03*
X143250000Y-106100000D03*
X146750000Y-101900000D03*
X144750000Y-101900000D03*
X169600000Y-92700000D03*
X167600000Y-92700000D03*
X169600000Y-109600000D03*
X167600000Y-109600000D03*
D13*
X143870000Y-83060000D03*
D14*
X146410000Y-83060000D03*
X148950000Y-83060000D03*
X151490000Y-83060000D03*
X154030000Y-83060000D03*
X156570000Y-83060000D03*
D13*
X143870000Y-111000000D03*
D14*
X146410000Y-111000000D03*
X148950000Y-111000000D03*
X151490000Y-111000000D03*
X154030000Y-111000000D03*
D17*
X145930000Y-99800000D03*
X144270000Y-99800000D03*
D23*
X151000000Y-92580000D03*
X151000000Y-90920000D03*
X149000000Y-100870000D03*
X149000000Y-102530000D03*
D17*
X162280000Y-96925000D03*
X160620000Y-96925000D03*
D23*
X159200000Y-100930000D03*
X159200000Y-99270000D03*
D24*
X161560000Y-88900000D03*
X160140000Y-88900000D03*
X161560000Y-90500000D03*
X160140000Y-90500000D03*
X165410000Y-95305000D03*
X163990000Y-95305000D03*
X165420000Y-93605000D03*
X164000000Y-93605000D03*
X165460000Y-107005000D03*
X164040000Y-107005000D03*
X165460000Y-105005000D03*
X164040000Y-105005000D03*
X160160000Y-82300000D03*
X158740000Y-82300000D03*
X160960000Y-86300000D03*
X159540000Y-86300000D03*
X169560000Y-89000000D03*
X168140000Y-89000000D03*
X156990000Y-104500000D03*
X158410000Y-104500000D03*
D17*
X157070000Y-102900000D03*
X158730000Y-102900000D03*
D24*
X150640000Y-104100000D03*
X152060000Y-104100000D03*
X159060000Y-108900000D03*
X157640000Y-108900000D03*
D25*
X143100000Y-94050000D03*
X143100000Y-95050000D03*
X143100000Y-97350000D03*
X143100000Y-96350000D03*
D26*
X149240000Y-96700000D03*
X148160000Y-96700000D03*
D12*
X144300000Y-93205000D03*
D15*
X173000000Y-82250000D03*
D24*
X150560000Y-105750000D03*
X149140000Y-105750000D03*
D20*
X150150000Y-107250000D03*
X149250000Y-107250000D03*
D27*
X154950000Y-98325000D03*
X153550000Y-98325000D03*
X154950000Y-96925000D03*
D28*
X150725000Y-94875000D03*
X150725000Y-95375000D03*
X150725000Y-95875000D03*
X150725000Y-96375000D03*
X150725000Y-96875000D03*
X150725000Y-97375000D03*
X150725000Y-97875000D03*
X150725000Y-98375000D03*
X150725000Y-98875000D03*
X150725000Y-99375000D03*
X150725000Y-99875000D03*
X150725000Y-100375000D03*
D29*
X151500000Y-101150000D03*
X152000000Y-101150000D03*
X152500000Y-101150000D03*
X153000000Y-101150000D03*
X153500000Y-101150000D03*
X154000000Y-101150000D03*
X154500000Y-101150000D03*
X155000000Y-101150000D03*
X155500000Y-101150000D03*
X156000000Y-101150000D03*
X156500000Y-101150000D03*
X157000000Y-101150000D03*
D28*
X157775000Y-100375000D03*
X157775000Y-99875000D03*
X157775000Y-99375000D03*
X157775000Y-98875000D03*
X157775000Y-98375000D03*
X157775000Y-97875000D03*
X157775000Y-97375000D03*
X157775000Y-96875000D03*
X157775000Y-96375000D03*
X157775000Y-95875000D03*
X157775000Y-95375000D03*
X157775000Y-94875000D03*
D29*
X157000000Y-94100000D03*
X156500000Y-94100000D03*
X156000000Y-94100000D03*
X155500000Y-94100000D03*
X155000000Y-94100000D03*
X154500000Y-94100000D03*
X154000000Y-94100000D03*
X153500000Y-94100000D03*
X153000000Y-94100000D03*
X152500000Y-94100000D03*
X152000000Y-94100000D03*
X151500000Y-94100000D03*
D27*
X153550000Y-96925000D03*
D30*
X174800000Y-90055000D03*
X175650000Y-90055000D03*
X173950000Y-90055000D03*
X174800000Y-87755000D03*
X175650000Y-87755000D03*
X173950000Y-87755000D03*
X173950000Y-88905000D03*
X175650000Y-88905000D03*
D31*
X172100000Y-90780000D03*
X172100000Y-87030000D03*
X172100000Y-89505000D03*
D32*
X177825000Y-89540000D03*
X177825000Y-90810000D03*
X177825000Y-88270000D03*
D33*
X172330000Y-88905000D03*
D34*
X174330000Y-88905000D03*
D32*
X177825000Y-87000000D03*
D31*
X172100000Y-88305000D03*
D30*
X174800000Y-88905000D03*
X174800000Y-97615000D03*
X175650000Y-97615000D03*
X173950000Y-97615000D03*
X174800000Y-95315000D03*
X175650000Y-95315000D03*
X173950000Y-95315000D03*
X173950000Y-96465000D03*
X175650000Y-96465000D03*
D31*
X172100000Y-98340000D03*
X172100000Y-94590000D03*
X172100000Y-97065000D03*
D32*
X177825000Y-97100000D03*
X177825000Y-98370000D03*
X177825000Y-95830000D03*
D33*
X172330000Y-96465000D03*
D34*
X174330000Y-96465000D03*
D32*
X177825000Y-94560000D03*
D31*
X172100000Y-95865000D03*
D30*
X174800000Y-96465000D03*
X174800000Y-105405000D03*
X175650000Y-105405000D03*
X173950000Y-105405000D03*
X174800000Y-103105000D03*
X175650000Y-103105000D03*
X173950000Y-103105000D03*
X173950000Y-104255000D03*
X175650000Y-104255000D03*
D31*
X172100000Y-106130000D03*
X172100000Y-102380000D03*
X172100000Y-104855000D03*
D32*
X177825000Y-104890000D03*
X177825000Y-106160000D03*
X177825000Y-103620000D03*
D33*
X172330000Y-104255000D03*
D34*
X174330000Y-104255000D03*
D32*
X177825000Y-102350000D03*
D31*
X172100000Y-103655000D03*
D30*
X174800000Y-104255000D03*
D35*
X183500000Y-90000000D03*
X183500000Y-97000000D03*
X183500000Y-104500000D03*
X171000000Y-82500000D03*
X165800000Y-82500000D03*
D12*
X147125365Y-100093856D03*
X147649988Y-99300000D03*
X151799861Y-98500000D03*
X149750000Y-91325010D03*
X167000000Y-87000000D03*
X149000000Y-104000000D03*
X166950006Y-98100000D03*
X160050000Y-110600000D03*
X141250000Y-89400000D03*
X161750000Y-99900000D03*
X158125032Y-92719540D03*
X161550000Y-87725010D03*
X142700000Y-100000000D03*
X147000000Y-87900000D03*
X148850000Y-108400000D03*
X143950000Y-108399990D03*
X167250000Y-108200000D03*
X153500000Y-95505000D03*
X159575976Y-104487519D03*
X153000000Y-99755000D03*
X142050000Y-96350000D03*
X142050000Y-95050000D03*
X156436664Y-99950012D03*
X162185865Y-95890868D03*
X159150000Y-93000000D03*
X172550000Y-100400000D03*
X159893199Y-103474992D03*
X172987345Y-93012664D03*
X160692377Y-91550260D03*
X160300013Y-83400000D03*
X172550000Y-85300000D03*
X167950000Y-107000000D03*
X177750000Y-101000000D03*
X177850000Y-85200000D03*
X160350000Y-87600000D03*
X165650000Y-96700000D03*
X177550000Y-93399996D03*
X150250000Y-102500000D03*
X141350000Y-90600006D03*
X160299809Y-92998900D03*
X140350000Y-100150000D03*
X139500000Y-105800000D03*
X138200000Y-99200000D03*
X149244014Y-92362557D03*
X159100000Y-105505000D03*
X147200000Y-89600000D03*
X155700000Y-110400000D03*
X155437812Y-99998167D03*
X161824990Y-92833481D03*
X160537340Y-104767660D03*
X167050004Y-105400000D03*
X162100000Y-83400000D03*
X167050000Y-88750000D03*
X166950000Y-95000000D03*
X161910518Y-91828733D03*
X159299998Y-83400000D03*
X152950000Y-88400000D03*
X157400000Y-105800000D03*
X140350000Y-98450000D03*
X156893923Y-107531396D03*
X150464474Y-101049989D03*
X153725010Y-92850000D03*
X154343865Y-89256331D03*
X151769372Y-102682959D03*
X154638611Y-91663931D03*
X153733366Y-91156501D03*
X151840616Y-95630768D03*
X158198915Y-107480021D03*
X156450000Y-98100000D03*
X155067262Y-89946781D03*
X149905679Y-93112357D03*
X148484530Y-93013101D03*
X156200000Y-105705000D03*
X156170369Y-95224666D03*
X153950000Y-88100000D03*
D11*
X150950000Y-107450000D02*
X150850000Y-107450000D01*
X149415000Y-96875000D02*
X149240000Y-96700000D01*
X150825000Y-96875000D02*
X149415000Y-96875000D01*
X157675000Y-101275000D02*
X158179999Y-101779999D01*
X162000000Y-104533088D02*
X162000000Y-105305000D01*
X157675000Y-100375000D02*
X157675000Y-101275000D01*
X158179999Y-101779999D02*
X159246911Y-101779999D01*
X159246911Y-101779999D02*
X162000000Y-104533088D01*
X162450000Y-105305000D02*
X162750000Y-105005000D01*
X162750000Y-105005000D02*
X164040000Y-105005000D01*
X162000000Y-105305000D02*
X162450000Y-105305000D01*
X163840000Y-104805000D02*
X164040000Y-105005000D01*
X164000000Y-99105000D02*
X163605000Y-99105000D01*
X163605000Y-99105000D02*
X162875000Y-98375000D01*
X162875000Y-98375000D02*
X157600000Y-98375000D01*
X164000000Y-98455000D02*
X164000000Y-99105000D01*
X164700000Y-94475000D02*
X164700000Y-96231962D01*
X164000000Y-93775000D02*
X164700000Y-94475000D01*
X164000000Y-93605000D02*
X164000000Y-93775000D01*
X164625001Y-96306961D02*
X164625001Y-97829999D01*
X164700000Y-96231962D02*
X164625001Y-96306961D01*
X164625001Y-97829999D02*
X164000000Y-98455000D01*
X159319115Y-91250000D02*
X159100000Y-91250000D01*
X161264991Y-95150011D02*
X161455001Y-94960001D01*
X160652279Y-92275261D02*
X160344376Y-92275261D01*
X160344376Y-92275261D02*
X159319115Y-91250000D01*
X161051947Y-92674929D02*
X160652279Y-92275261D01*
X158550000Y-90700000D02*
X158550000Y-90600000D01*
X161455001Y-93502753D02*
X161051947Y-93099699D01*
X161455001Y-94960001D02*
X161455001Y-93502753D01*
X159100000Y-91250000D02*
X158550000Y-90700000D01*
X160336400Y-95150011D02*
X161264991Y-95150011D01*
X157600000Y-96375000D02*
X159111410Y-96375000D01*
X159111410Y-96375000D02*
X160336400Y-95150011D01*
X161051947Y-93099699D02*
X161051947Y-92674929D01*
X158550000Y-90600000D02*
X160040000Y-90600000D01*
X160040000Y-90600000D02*
X160140000Y-90500000D01*
D36*
X169600000Y-109600000D02*
X171000000Y-111000000D01*
X169600000Y-85000000D02*
X171000000Y-85000000D01*
X173000000Y-83000000D02*
X173000000Y-82250000D01*
X171000000Y-85000000D02*
X173000000Y-83000000D01*
X169600000Y-99600000D02*
X170850000Y-99600000D01*
X170850000Y-99600000D02*
X171250000Y-100000000D01*
X169600000Y-92700000D02*
X170850000Y-92700000D01*
X170850000Y-92700000D02*
X171150000Y-92400000D01*
D37*
X169560000Y-89000000D02*
X172235000Y-89000000D01*
D11*
X172235000Y-89000000D02*
X172330000Y-88905000D01*
X170250000Y-91750000D02*
X172085000Y-91750000D01*
X172085000Y-91750000D02*
X172330000Y-91505000D01*
X172330000Y-91505000D02*
X172330000Y-88905000D01*
X150725000Y-98375000D02*
X151674861Y-98375000D01*
X151674861Y-98375000D02*
X151799861Y-98500000D01*
D36*
X147125365Y-100659541D02*
X147125365Y-100093856D01*
D11*
X146831510Y-99800001D02*
X147125365Y-100093856D01*
D36*
X146800000Y-102100000D02*
X147125365Y-101774635D01*
D11*
X146799999Y-99800001D02*
X146831510Y-99800001D01*
D36*
X147125365Y-101774635D02*
X147125365Y-100659541D01*
D11*
X146700000Y-99900000D02*
X146799999Y-99800001D01*
D36*
X147150001Y-100069220D02*
X147125365Y-100093856D01*
X147150001Y-99699999D02*
X147150001Y-100069220D01*
D38*
X147915685Y-99300000D02*
X147649988Y-99300000D01*
X148600000Y-98615685D02*
X147915685Y-99300000D01*
X148600000Y-98600000D02*
X148600000Y-98615685D01*
D36*
X147150001Y-99699999D02*
X147249989Y-99699999D01*
X146700000Y-99900000D02*
X146950000Y-99900000D01*
X147249989Y-99699999D02*
X147649988Y-99300000D01*
X146950000Y-99900000D02*
X147150001Y-99699999D01*
D11*
X151250000Y-98375000D02*
X150725000Y-98375000D01*
X151500000Y-98375000D02*
X151250000Y-98375000D01*
X151250000Y-98375000D02*
X151674861Y-98375000D01*
X151650000Y-98225000D02*
X151799861Y-98374861D01*
X151799861Y-98374861D02*
X151799861Y-98500000D01*
X150725000Y-97375000D02*
X151500000Y-97375000D01*
X151500000Y-97375000D02*
X151650000Y-97525000D01*
X151650000Y-97525000D02*
X151650000Y-98225000D01*
X151650000Y-98225000D02*
X151500000Y-98375000D01*
X150825000Y-98375000D02*
X148825000Y-98375000D01*
X148825000Y-98375000D02*
X148600000Y-98600000D01*
D36*
X145930000Y-99900000D02*
X146700000Y-99900000D01*
D11*
X145930000Y-99850000D02*
X145930000Y-99900000D01*
X154030000Y-111000000D02*
X155550000Y-109480000D01*
X155550000Y-109480000D02*
X155550000Y-108900000D01*
X150155010Y-90920000D02*
X150149999Y-90925011D01*
X151000000Y-90920000D02*
X150155010Y-90920000D01*
X150149999Y-90925011D02*
X149750000Y-91325010D01*
X166600001Y-87399999D02*
X167000000Y-87000000D01*
X166274990Y-87725010D02*
X166600001Y-87399999D01*
X161550000Y-87725010D02*
X166274990Y-87725010D01*
X150150000Y-107250000D02*
X150150000Y-107450000D01*
X149415685Y-108184315D02*
X149415685Y-108400000D01*
X149415685Y-108400000D02*
X148850000Y-108400000D01*
X154712810Y-99512190D02*
X154950000Y-99275000D01*
X155000000Y-101050000D02*
X155000000Y-100613590D01*
X155000000Y-100613590D02*
X154712810Y-100326400D01*
X154712810Y-100326400D02*
X154712810Y-99512190D01*
X154950000Y-99275000D02*
X154950000Y-98325000D01*
D39*
X143265685Y-100000000D02*
X142700000Y-100000000D01*
X143315685Y-100150000D02*
X143315685Y-100050000D01*
X144750000Y-101584315D02*
X143315685Y-100150000D01*
D36*
X144800000Y-102100000D02*
X142700000Y-100000000D01*
D39*
X144750000Y-101900000D02*
X144750000Y-101584315D01*
X144270000Y-99800000D02*
X143920000Y-100150000D01*
X143315685Y-100050000D02*
X143265685Y-100000000D01*
X143920000Y-100150000D02*
X143315685Y-100150000D01*
X143950000Y-108399990D02*
X143950000Y-107300000D01*
X143950000Y-107300000D02*
X143250000Y-106600000D01*
X146500000Y-108330000D02*
X144019990Y-108330000D01*
X144019990Y-108330000D02*
X143950000Y-108399990D01*
X148850000Y-108400000D02*
X146570000Y-108400000D01*
X146570000Y-108400000D02*
X146500000Y-108330000D01*
D36*
X148849990Y-108399990D02*
X148850000Y-108400000D01*
D11*
X149900000Y-108400000D02*
X149415685Y-108400000D01*
D36*
X148900000Y-108450000D02*
X148850000Y-108400000D01*
D11*
X148750000Y-94055000D02*
X148750000Y-95000000D01*
D36*
X149100000Y-102830000D02*
X149100000Y-104250000D01*
X149100000Y-104250000D02*
X149250000Y-104400000D01*
D11*
X153500000Y-95505000D02*
X153500000Y-96875000D01*
X153500000Y-94200000D02*
X153500000Y-95505000D01*
X159575976Y-104487519D02*
X159175977Y-104087520D01*
X159175977Y-104087520D02*
X159175977Y-103580977D01*
X159175977Y-103580977D02*
X158630000Y-103035000D01*
X158630000Y-103035000D02*
X158630000Y-102900000D01*
X153550000Y-98325000D02*
X153550000Y-99205000D01*
X153550000Y-99205000D02*
X153000000Y-99755000D01*
X142050000Y-96350000D02*
X142050000Y-97750000D01*
X142050000Y-97750000D02*
X142374998Y-98074998D01*
X142374998Y-98074998D02*
X144788591Y-98074998D01*
X144788591Y-98074998D02*
X145013598Y-97849991D01*
X145013598Y-97849991D02*
X147450009Y-97849991D01*
X142050000Y-95050000D02*
X142050000Y-96350000D01*
X146935001Y-93364999D02*
X147570002Y-94000000D01*
X142050000Y-93750000D02*
X142435001Y-93364999D01*
X142435001Y-93364999D02*
X146935001Y-93364999D01*
X142050000Y-95050000D02*
X142050000Y-93750000D01*
X143100000Y-96350000D02*
X142050000Y-96350000D01*
X143100000Y-95050000D02*
X142050000Y-95050000D01*
X153500000Y-96875000D02*
X153550000Y-96925000D01*
X153425000Y-96875000D02*
X153475000Y-96925000D01*
X154925000Y-98375000D02*
X154875000Y-98325000D01*
X157077361Y-99875000D02*
X157002349Y-99950012D01*
X158375000Y-99875000D02*
X157077361Y-99875000D01*
X157002349Y-99950012D02*
X156436664Y-99950012D01*
X158375000Y-99875000D02*
X157775000Y-99875000D01*
X158375000Y-99875000D02*
X158670000Y-100170000D01*
X158670000Y-100170000D02*
X158670000Y-100400000D01*
X158670000Y-100400000D02*
X159200000Y-100930000D01*
X162185865Y-95890868D02*
X162185865Y-96830865D01*
X162185865Y-96830865D02*
X162280000Y-96925000D01*
X157675000Y-97875000D02*
X161380000Y-97875000D01*
X161380000Y-97875000D02*
X162280000Y-96975000D01*
X162280000Y-96975000D02*
X162280000Y-96925000D01*
X157600000Y-95875000D02*
X158975000Y-95875000D01*
X158975000Y-95875000D02*
X159795001Y-95054999D01*
X159795001Y-95054999D02*
X159795001Y-94904999D01*
X159795001Y-94904999D02*
X160000000Y-94700000D01*
X160000000Y-94700000D02*
X160180000Y-94700000D01*
X160180000Y-94700000D02*
X160680000Y-94200000D01*
X160680000Y-94200000D02*
X160680000Y-94180000D01*
X160680000Y-94180000D02*
X160250000Y-93750000D01*
X160250000Y-93750000D02*
X159981014Y-93750000D01*
X159981014Y-93750000D02*
X159795001Y-93563987D01*
X159231014Y-93000000D02*
X159795001Y-93563987D01*
X159150000Y-93000000D02*
X159231014Y-93000000D01*
X160700012Y-83799999D02*
X160300013Y-83400000D01*
X160960000Y-84059987D02*
X160700012Y-83799999D01*
X160960000Y-86300000D02*
X160960000Y-84059987D01*
X160160000Y-82300000D02*
X160160000Y-83259987D01*
X160090000Y-83400000D02*
X160300013Y-83400000D01*
X160160000Y-83259987D02*
X160300013Y-83400000D01*
X167945000Y-107005000D02*
X167950000Y-107000000D01*
X165460000Y-107005000D02*
X167945000Y-107005000D01*
X177725000Y-102350000D02*
X177725000Y-101025000D01*
X177725000Y-101025000D02*
X177750000Y-101000000D01*
X177750000Y-102325000D02*
X177750000Y-101000000D01*
X165460000Y-105005000D02*
X165460000Y-107005000D01*
X177825000Y-87000000D02*
X177825000Y-85225000D01*
X177825000Y-85225000D02*
X177850000Y-85200000D01*
X161560000Y-88900000D02*
X161560000Y-88810000D01*
X161560000Y-88810000D02*
X160350000Y-87600000D01*
X161560000Y-90500000D02*
X161560000Y-88900000D01*
X165410000Y-95305000D02*
X165410000Y-96460000D01*
X165410000Y-96460000D02*
X165650000Y-96700000D01*
X177925000Y-93774996D02*
X177550000Y-93399996D01*
X177925000Y-94560000D02*
X177925000Y-93774996D01*
X165410000Y-95305000D02*
X165410000Y-93615000D01*
X165410000Y-93615000D02*
X165420000Y-93605000D01*
X160140000Y-88900000D02*
X160140000Y-88690000D01*
X160140000Y-88690000D02*
X159650000Y-88200000D01*
X159650000Y-88200000D02*
X158550000Y-88200000D01*
X164000000Y-96705000D02*
X164000000Y-95315000D01*
X164000000Y-95315000D02*
X163990000Y-95305000D01*
X162000000Y-107705000D02*
X162550000Y-107705000D01*
X162550000Y-107705000D02*
X163250000Y-107005000D01*
X163250000Y-107005000D02*
X164040000Y-107005000D01*
D36*
X150250000Y-103065685D02*
X150250000Y-102500000D01*
D37*
X149850001Y-102100001D02*
X150250000Y-102500000D01*
X149850001Y-101670001D02*
X149850001Y-102100001D01*
X149050000Y-100870000D02*
X149850001Y-101670001D01*
D36*
X150640000Y-104100000D02*
X150250000Y-103710000D01*
X150250000Y-103710000D02*
X150250000Y-103065685D01*
D39*
X140350000Y-105100000D02*
X140350000Y-104450000D01*
X140350000Y-104450000D02*
X140350000Y-102750000D01*
X139500000Y-105800000D02*
X140350000Y-104950000D01*
X140350000Y-104950000D02*
X140350000Y-104450000D01*
X140650000Y-106100000D02*
X140350000Y-105800000D01*
X140350000Y-105800000D02*
X139500000Y-105800000D01*
X141250000Y-106100000D02*
X140650000Y-106100000D01*
X140350000Y-102750000D02*
X140350000Y-100150000D01*
X141250000Y-105750000D02*
X141000000Y-105750000D01*
X141000000Y-105750000D02*
X140350000Y-105100000D01*
X141250000Y-106100000D02*
X141250000Y-105750000D01*
D11*
X138200000Y-93200000D02*
X138200000Y-93350000D01*
X138300000Y-93250000D02*
X138250000Y-93250000D01*
X138250000Y-93250000D02*
X138200000Y-93200000D01*
X138599999Y-93549999D02*
X138300000Y-93250000D01*
X138200000Y-99200000D02*
X138599999Y-98800001D01*
X138599999Y-98800001D02*
X138599999Y-93549999D01*
X151000000Y-92580000D02*
X150782557Y-92362557D01*
X150782557Y-92362557D02*
X149809699Y-92362557D01*
X149809699Y-92362557D02*
X149244014Y-92362557D01*
D36*
X149150000Y-100200000D02*
X149150000Y-100770000D01*
X149150000Y-100770000D02*
X149050000Y-100870000D01*
X149550000Y-99800000D02*
X149550000Y-99799976D01*
X149150000Y-100200000D02*
X149550000Y-99800000D01*
D11*
X149974976Y-99375000D02*
X149949999Y-99399977D01*
X150175000Y-99375000D02*
X149974976Y-99375000D01*
X149550000Y-99775000D02*
X149550000Y-99799976D01*
X149950000Y-99375000D02*
X149550000Y-99775000D01*
X150725000Y-99375000D02*
X149950000Y-99375000D01*
X149949999Y-99399977D02*
X149550000Y-99799976D01*
X159060000Y-108900000D02*
X159060000Y-105545000D01*
X159060000Y-105545000D02*
X159100000Y-105505000D01*
X151500000Y-94100000D02*
X151500000Y-93080000D01*
X151500000Y-93080000D02*
X151000000Y-92580000D01*
X150825000Y-99375000D02*
X150375000Y-99375000D01*
X159100000Y-105360000D02*
X159100000Y-105505000D01*
X158410000Y-104670000D02*
X159100000Y-105360000D01*
X158410000Y-104500000D02*
X158410000Y-104670000D01*
X155437812Y-99744184D02*
X155437812Y-99998167D01*
X157238590Y-98875000D02*
X156888588Y-99225002D01*
X157600000Y-98875000D02*
X157238590Y-98875000D01*
X156888588Y-99225002D02*
X155956994Y-99225002D01*
X155956994Y-99225002D02*
X155437812Y-99744184D01*
X162224989Y-93233480D02*
X161824990Y-92833481D01*
X160522800Y-95600022D02*
X161451391Y-95600022D01*
X159247822Y-96875000D02*
X160522800Y-95600022D01*
X161451391Y-95600022D02*
X162224989Y-94826424D01*
X157600000Y-96875000D02*
X159247822Y-96875000D01*
X162224989Y-94826424D02*
X162224989Y-93233480D01*
X157775000Y-94875000D02*
X157775000Y-93492585D01*
X157775000Y-93492585D02*
X157400022Y-93117607D01*
X157400022Y-93117607D02*
X157400022Y-87699978D01*
X157400022Y-87699978D02*
X157850000Y-87250000D01*
X157850000Y-87250000D02*
X157850000Y-87100000D01*
X159540000Y-86300000D02*
X158550000Y-86300000D01*
X158550000Y-86300000D02*
X157850000Y-87000000D01*
X157850000Y-87000000D02*
X157850000Y-87100000D01*
X157850000Y-83190000D02*
X157850000Y-84700000D01*
X157850000Y-83190000D02*
X158740000Y-82300000D01*
X156450000Y-108900000D02*
X157640000Y-108900000D01*
X157540000Y-109005000D02*
X157640000Y-109105000D01*
X156990000Y-104400000D02*
X156990000Y-105390000D01*
X156990000Y-105390000D02*
X157400000Y-105800000D01*
X156970000Y-102800000D02*
X156970000Y-104380000D01*
X156970000Y-104380000D02*
X156990000Y-104400000D01*
X157000000Y-101050000D02*
X157000000Y-102770000D01*
X157000000Y-102770000D02*
X156970000Y-102800000D01*
X157000000Y-101050000D02*
X157000000Y-101325000D01*
X142898013Y-98974989D02*
X142848001Y-99025001D01*
X147002014Y-98574982D02*
X146602007Y-98974989D01*
X148580000Y-97875000D02*
X147880018Y-98574982D01*
X146602007Y-98974989D02*
X142898013Y-98974989D01*
X140925001Y-99025001D02*
X140749999Y-98849999D01*
X142848001Y-99025001D02*
X140925001Y-99025001D01*
X140749999Y-98849999D02*
X140350000Y-98450000D01*
X147880018Y-98574982D02*
X147002014Y-98574982D01*
X150825000Y-97875000D02*
X148580000Y-97875000D01*
D39*
X145150000Y-104300000D02*
X146500000Y-104300000D01*
D36*
X145150000Y-104300000D02*
X145050000Y-104200000D01*
D39*
X142850000Y-103500000D02*
X144350000Y-103500000D01*
X144350000Y-103500000D02*
X145050000Y-104200000D01*
X142550000Y-103200000D02*
X142850000Y-103500000D01*
D36*
X147950000Y-100300000D02*
X147950000Y-100550000D01*
X147950000Y-100550000D02*
X147950000Y-100650000D01*
D38*
X148750000Y-99500000D02*
X147950000Y-100300000D01*
X147950000Y-100550000D02*
X148000000Y-100600000D01*
D36*
X147950000Y-100650000D02*
X147950000Y-102800000D01*
X147950000Y-102800000D02*
X146565000Y-104185000D01*
X146565000Y-104185000D02*
X146500000Y-104185000D01*
X146720000Y-104485000D02*
X146500000Y-104485000D01*
D11*
X150825000Y-98875000D02*
X149375000Y-98875000D01*
X149375000Y-98875000D02*
X149250000Y-99000000D01*
D37*
X148750000Y-99500000D02*
X149250000Y-99000000D01*
D11*
X157000000Y-94100000D02*
X157000000Y-93325000D01*
X157000000Y-93325000D02*
X156950011Y-93275011D01*
X156950011Y-93275011D02*
X156950011Y-86000011D01*
X156950011Y-86000011D02*
X155450000Y-84500000D01*
X155450000Y-84500000D02*
X152930000Y-84500000D01*
X152930000Y-84500000D02*
X151490000Y-83060000D01*
X146410000Y-84010000D02*
X146410000Y-83060000D01*
X146924999Y-84524999D02*
X152006001Y-84524999D01*
X146410000Y-84010000D02*
X146924999Y-84524999D01*
X154200000Y-86900000D02*
X156500000Y-89200000D01*
X152006001Y-84524999D02*
X152700000Y-85218998D01*
X152700000Y-85218998D02*
X152700000Y-86000000D01*
X152700000Y-86000000D02*
X153600000Y-86900000D01*
X153600000Y-86900000D02*
X154200000Y-86900000D01*
X156500000Y-89200000D02*
X156500000Y-94200000D01*
X165750000Y-89300000D02*
X166150000Y-89300000D01*
X166150000Y-89300000D02*
X166550000Y-89700000D01*
X166550000Y-89700000D02*
X167440000Y-89700000D01*
X167440000Y-89700000D02*
X168140000Y-89000000D01*
X154700000Y-102000000D02*
X154813590Y-102000000D01*
X154813590Y-102000000D02*
X154813600Y-102000010D01*
X154813600Y-102000010D02*
X155186400Y-102000010D01*
X155186400Y-102000010D02*
X155450010Y-101736400D01*
X155450010Y-101736400D02*
X155450010Y-101712166D01*
X155450010Y-101712166D02*
X155500000Y-101662176D01*
X155500000Y-101662176D02*
X155500000Y-101050000D01*
X154700000Y-106305000D02*
X154700000Y-102000000D01*
X154700000Y-102000000D02*
X154500000Y-101800000D01*
X156893923Y-107531396D02*
X155926396Y-107531396D01*
X155926396Y-107531396D02*
X154700000Y-106305000D01*
X154500000Y-101800000D02*
X154500000Y-101050000D01*
X150864473Y-100414473D02*
X150864473Y-100649990D01*
X150864473Y-100649990D02*
X150464474Y-101049989D01*
X150825000Y-100375000D02*
X150864473Y-100414473D01*
X153725010Y-92850000D02*
X153725010Y-92875010D01*
X153725010Y-92875010D02*
X154000000Y-93150000D01*
X154000000Y-93150000D02*
X154000000Y-94100000D01*
X153778180Y-89256331D02*
X154343865Y-89256331D01*
X153127984Y-89256331D02*
X153778180Y-89256331D01*
X152000000Y-90384315D02*
X153127984Y-89256331D01*
X152000000Y-94700000D02*
X152000000Y-90384315D01*
X152000000Y-94700000D02*
X152000000Y-94100000D01*
X152573835Y-95273835D02*
X152000000Y-94700000D01*
X152573835Y-95926165D02*
X152573835Y-95273835D01*
X152524999Y-99048130D02*
X152524999Y-95975001D01*
X152524999Y-95975001D02*
X152573835Y-95926165D01*
X150750000Y-99875000D02*
X151698124Y-99875000D01*
X151698124Y-99875000D02*
X152524999Y-99048130D01*
X150825000Y-96375000D02*
X150075000Y-96375000D01*
X150075000Y-96375000D02*
X149700000Y-96000000D01*
X149700000Y-96000000D02*
X148500000Y-96000000D01*
X148500000Y-96000000D02*
X147250000Y-94750000D01*
X147250000Y-94750000D02*
X145650000Y-94750000D01*
X145650000Y-94750000D02*
X144050000Y-94750000D01*
X144050000Y-94750000D02*
X143350000Y-94050000D01*
X143350000Y-94050000D02*
X143100000Y-94050000D01*
X145650000Y-96650000D02*
X144050000Y-96650000D01*
X144050000Y-96650000D02*
X143350000Y-97350000D01*
X143350000Y-97350000D02*
X143100000Y-97350000D01*
X145650000Y-96650000D02*
X144600000Y-96650000D01*
X148160000Y-96700000D02*
X145700000Y-96700000D01*
X145700000Y-96700000D02*
X145650000Y-96650000D01*
X152000000Y-101050000D02*
X152000000Y-101886646D01*
X152000000Y-101886646D02*
X151769372Y-102117274D01*
X151769372Y-102117274D02*
X151769372Y-102682959D01*
X155204296Y-91663931D02*
X154638611Y-91663931D01*
X156000000Y-94100000D02*
X156000000Y-92459635D01*
X156000000Y-92459635D02*
X155204296Y-91663931D01*
X156000000Y-94200000D02*
X156000000Y-93675908D01*
X154323004Y-92400000D02*
X153733366Y-91810362D01*
X153733366Y-91810362D02*
X153733366Y-91722186D01*
X153733366Y-91722186D02*
X153733366Y-91156501D01*
X155500000Y-92750000D02*
X155150000Y-92400000D01*
X155500000Y-94200000D02*
X155500000Y-92750000D01*
X155150000Y-92400000D02*
X154323004Y-92400000D01*
X151840616Y-95630768D02*
X151596384Y-95875000D01*
X151596384Y-95875000D02*
X150825000Y-95875000D01*
X143870000Y-111000000D02*
X144670000Y-111000000D01*
X152010000Y-107217180D02*
X149752190Y-109474988D01*
X152010000Y-103913002D02*
X152010000Y-107217180D01*
X152500704Y-101050704D02*
X152500704Y-103422298D01*
X152500000Y-101050000D02*
X152500704Y-101050704D01*
X146195012Y-109474988D02*
X144670000Y-111000000D01*
X152500704Y-103422298D02*
X152010000Y-103913002D01*
X149752190Y-109474988D02*
X146195012Y-109474988D01*
X153000000Y-101050000D02*
X153000000Y-106863590D01*
X147700000Y-110800000D02*
X147500000Y-111000000D01*
X153000000Y-106863590D02*
X149938591Y-109924999D01*
X149938591Y-109924999D02*
X148075001Y-109924999D01*
X148075001Y-109924999D02*
X147700000Y-110300000D01*
X147700000Y-110300000D02*
X147700000Y-110800000D01*
X147500000Y-111000000D02*
X146410000Y-111000000D01*
X149700000Y-111000000D02*
X148950000Y-111000000D01*
X153500000Y-101050000D02*
X153500000Y-107200000D01*
X153500000Y-107200000D02*
X149700000Y-111000000D01*
X154000000Y-101050000D02*
X154000000Y-108700000D01*
X151590000Y-110900000D02*
X151490000Y-111000000D01*
X154000000Y-108700000D02*
X152700000Y-110000000D01*
X152700000Y-110000000D02*
X152700000Y-110600000D01*
X152700000Y-110600000D02*
X152400000Y-110900000D01*
X152400000Y-110900000D02*
X151590000Y-110900000D01*
X155844988Y-101953599D02*
X156000000Y-101798587D01*
X155300000Y-102736411D02*
X155844988Y-102191423D01*
X155300000Y-106105000D02*
X155300000Y-102736411D01*
X158198915Y-107480021D02*
X157493892Y-106774998D01*
X157493892Y-106774998D02*
X155969998Y-106774998D01*
X155969998Y-106774998D02*
X155300000Y-106105000D01*
X155844988Y-102191423D02*
X155844988Y-101953599D01*
X156000000Y-101798587D02*
X156000000Y-101050000D01*
X155199999Y-95899999D02*
X155865684Y-95899999D01*
X154500000Y-95200000D02*
X155199999Y-95899999D01*
X154500000Y-94200000D02*
X154500000Y-95200000D01*
X156450000Y-96484315D02*
X156450000Y-97534315D01*
X156450000Y-97534315D02*
X156450000Y-98100000D01*
X155865684Y-95899999D02*
X156450000Y-96484315D01*
X153059310Y-89975005D02*
X153989761Y-89975005D01*
X155028479Y-89985564D02*
X155067262Y-89946781D01*
X152500000Y-94200000D02*
X152500000Y-90534315D01*
X153989761Y-89975005D02*
X154000320Y-89985564D01*
X152500000Y-90534315D02*
X153059310Y-89975005D01*
X154000320Y-89985564D02*
X155028479Y-89985564D01*
X150825000Y-94875000D02*
X150825000Y-94031678D01*
X150305678Y-93512356D02*
X149905679Y-93112357D01*
X150825000Y-94031678D02*
X150305678Y-93512356D01*
X150020000Y-95375000D02*
X149475001Y-94830001D01*
X149475001Y-94830001D02*
X149475001Y-93706999D01*
X148781103Y-93013101D02*
X148484530Y-93013101D01*
X150825000Y-95375000D02*
X150020000Y-95375000D01*
X149475001Y-93706999D02*
X148781103Y-93013101D01*
X156294999Y-102441412D02*
X156200000Y-102536411D01*
X156500000Y-101934998D02*
X156294999Y-102139999D01*
X156500000Y-101050000D02*
X156500000Y-101934998D01*
X156294999Y-102139999D02*
X156294999Y-102441412D01*
X156200000Y-102536411D02*
X156200000Y-105705000D01*
X155000000Y-94200000D02*
X155000000Y-94875000D01*
X155000000Y-94875000D02*
X155349666Y-95224666D01*
X155349666Y-95224666D02*
X156170369Y-95224666D01*
X154515685Y-88100000D02*
X153950000Y-88100000D01*
X153814375Y-90436030D02*
X154483507Y-90436030D01*
X155792284Y-89376599D02*
X154515685Y-88100000D01*
X155415284Y-90671803D02*
X155792284Y-90294803D01*
X154719280Y-90671803D02*
X155415284Y-90671803D01*
X154483507Y-90436030D02*
X154719280Y-90671803D01*
X153374984Y-90425016D02*
X153803361Y-90425016D01*
X153000000Y-94200000D02*
X153000000Y-90800000D01*
X153803361Y-90425016D02*
X153814375Y-90436030D01*
X153000000Y-90800000D02*
X153374984Y-90425016D01*
X155792284Y-90294803D02*
X155792284Y-89376599D01*
X158475000Y-95375000D02*
X158795000Y-95375000D01*
X158795000Y-95375000D02*
X159020000Y-95150000D01*
X159020000Y-95150000D02*
X159020000Y-94400000D01*
X158475000Y-95375000D02*
X157775000Y-95375000D01*
X157600000Y-95375000D02*
X158475000Y-95375000D01*
X157675000Y-97375000D02*
X159475000Y-97375000D01*
X159925000Y-96925000D02*
X160370000Y-96925000D01*
X159475000Y-97375000D02*
X159925000Y-96925000D01*
X157675000Y-99375000D02*
X159095000Y-99375000D01*
X159095000Y-99375000D02*
X159200000Y-99270000D01*
X151500000Y-101550000D02*
X150975002Y-102074998D01*
X150560000Y-105580000D02*
X150560000Y-105750000D01*
X151500000Y-101150000D02*
X151500000Y-101550000D01*
X151350000Y-103525032D02*
X151350000Y-104790000D01*
X150975002Y-102074998D02*
X150975002Y-103150034D01*
X150975002Y-103150034D02*
X151350000Y-103525032D01*
X151350000Y-104790000D02*
X150560000Y-105580000D01*
X149140000Y-105750000D02*
X149140000Y-107140000D01*
X149140000Y-107140000D02*
X149250000Y-107250000D01*
D40*
G36*
X176373000Y-109873000D02*
X173750000Y-109873000D01*
X173714619Y-109878028D01*
X173682039Y-109892714D01*
X173654840Y-109915895D01*
X173635177Y-109945736D01*
X173624605Y-109979873D01*
X173623000Y-110000000D01*
X173623000Y-112498000D01*
X170377000Y-112498000D01*
X170377000Y-111250000D01*
X170371972Y-111214619D01*
X170351600Y-111173800D01*
X169627000Y-110207667D01*
X169627000Y-100469536D01*
X171721913Y-100469536D01*
X171751191Y-100629055D01*
X171810894Y-100779849D01*
X171898750Y-100916174D01*
X172011412Y-101032839D01*
X172144588Y-101125399D01*
X172293207Y-101190329D01*
X172451606Y-101225155D01*
X172613754Y-101228552D01*
X172773473Y-101200389D01*
X172924680Y-101141740D01*
X173061615Y-101054838D01*
X173179064Y-100942993D01*
X173272551Y-100810466D01*
X173338517Y-100662305D01*
X173374448Y-100504152D01*
X173377035Y-100318909D01*
X173345533Y-100159814D01*
X173283730Y-100009869D01*
X173193980Y-99874783D01*
X173079700Y-99759703D01*
X172945244Y-99669011D01*
X172795734Y-99606163D01*
X172636863Y-99573551D01*
X172474684Y-99572419D01*
X172315374Y-99602809D01*
X172165001Y-99663564D01*
X172029292Y-99752369D01*
X171913416Y-99865843D01*
X171821788Y-99999662D01*
X171757898Y-100148730D01*
X171724178Y-100307369D01*
X171721913Y-100469536D01*
X169627000Y-100469536D01*
X169627000Y-93082200D01*
X172159258Y-93082200D01*
X172188536Y-93241719D01*
X172248239Y-93392513D01*
X172336095Y-93528838D01*
X172448757Y-93645503D01*
X172581933Y-93738063D01*
X172730552Y-93802993D01*
X172888951Y-93837819D01*
X173051099Y-93841216D01*
X173210818Y-93813053D01*
X173362025Y-93754404D01*
X173498960Y-93667502D01*
X173616409Y-93555657D01*
X173709896Y-93423130D01*
X173775862Y-93274969D01*
X173811793Y-93116816D01*
X173814380Y-92931573D01*
X173782878Y-92772478D01*
X173721075Y-92622533D01*
X173631325Y-92487447D01*
X173517045Y-92372367D01*
X173382589Y-92281675D01*
X173233079Y-92218827D01*
X173074208Y-92186215D01*
X172912029Y-92185083D01*
X172752719Y-92215473D01*
X172602346Y-92276228D01*
X172466637Y-92365033D01*
X172350761Y-92478507D01*
X172259133Y-92612326D01*
X172195243Y-92761394D01*
X172161523Y-92920033D01*
X172159258Y-93082200D01*
X169627000Y-93082200D01*
X169627000Y-89859250D01*
X169689750Y-89922000D01*
X169927056Y-89922000D01*
X170009551Y-89905591D01*
X170087261Y-89873402D01*
X170157197Y-89826672D01*
X170216673Y-89767197D01*
X170263403Y-89697260D01*
X170295591Y-89619551D01*
X170312000Y-89537056D01*
X170312000Y-89129750D01*
X170205250Y-89023000D01*
X169627000Y-89023000D01*
X169627000Y-88977000D01*
X170205250Y-88977000D01*
X170312000Y-88870250D01*
X170312000Y-88462944D01*
X170295591Y-88380449D01*
X170263403Y-88302740D01*
X170216673Y-88232803D01*
X170157197Y-88173328D01*
X170087261Y-88126598D01*
X170009551Y-88094409D01*
X169927056Y-88078000D01*
X169689750Y-88078000D01*
X169627000Y-88140750D01*
X169627000Y-85369536D01*
X171721913Y-85369536D01*
X171751191Y-85529055D01*
X171810894Y-85679849D01*
X171898750Y-85816174D01*
X172011412Y-85932839D01*
X172144588Y-86025399D01*
X172293207Y-86090329D01*
X172451606Y-86125155D01*
X172613754Y-86128552D01*
X172773473Y-86100389D01*
X172924680Y-86041740D01*
X173061615Y-85954838D01*
X173179064Y-85842993D01*
X173272551Y-85710466D01*
X173338517Y-85562305D01*
X173374448Y-85404152D01*
X173377035Y-85218909D01*
X173345533Y-85059814D01*
X173283730Y-84909869D01*
X173193980Y-84774783D01*
X173079700Y-84659703D01*
X172945244Y-84569011D01*
X172795734Y-84506163D01*
X172636863Y-84473551D01*
X172474684Y-84472419D01*
X172315374Y-84502809D01*
X172165001Y-84563564D01*
X172029292Y-84652369D01*
X171913416Y-84765843D01*
X171821788Y-84899662D01*
X171757898Y-85048730D01*
X171724178Y-85207369D01*
X171721913Y-85369536D01*
X169627000Y-85369536D01*
X169627000Y-81502000D01*
X176373000Y-81502000D01*
X176373000Y-109873000D01*
X176373000Y-109873000D01*
G37*
X176373000Y-109873000D02*
X173750000Y-109873000D01*
X173714619Y-109878028D01*
X173682039Y-109892714D01*
X173654840Y-109915895D01*
X173635177Y-109945736D01*
X173624605Y-109979873D01*
X173623000Y-110000000D01*
X173623000Y-112498000D01*
X170377000Y-112498000D01*
X170377000Y-111250000D01*
X170371972Y-111214619D01*
X170351600Y-111173800D01*
X169627000Y-110207667D01*
X169627000Y-100469536D01*
X171721913Y-100469536D01*
X171751191Y-100629055D01*
X171810894Y-100779849D01*
X171898750Y-100916174D01*
X172011412Y-101032839D01*
X172144588Y-101125399D01*
X172293207Y-101190329D01*
X172451606Y-101225155D01*
X172613754Y-101228552D01*
X172773473Y-101200389D01*
X172924680Y-101141740D01*
X173061615Y-101054838D01*
X173179064Y-100942993D01*
X173272551Y-100810466D01*
X173338517Y-100662305D01*
X173374448Y-100504152D01*
X173377035Y-100318909D01*
X173345533Y-100159814D01*
X173283730Y-100009869D01*
X173193980Y-99874783D01*
X173079700Y-99759703D01*
X172945244Y-99669011D01*
X172795734Y-99606163D01*
X172636863Y-99573551D01*
X172474684Y-99572419D01*
X172315374Y-99602809D01*
X172165001Y-99663564D01*
X172029292Y-99752369D01*
X171913416Y-99865843D01*
X171821788Y-99999662D01*
X171757898Y-100148730D01*
X171724178Y-100307369D01*
X171721913Y-100469536D01*
X169627000Y-100469536D01*
X169627000Y-93082200D01*
X172159258Y-93082200D01*
X172188536Y-93241719D01*
X172248239Y-93392513D01*
X172336095Y-93528838D01*
X172448757Y-93645503D01*
X172581933Y-93738063D01*
X172730552Y-93802993D01*
X172888951Y-93837819D01*
X173051099Y-93841216D01*
X173210818Y-93813053D01*
X173362025Y-93754404D01*
X173498960Y-93667502D01*
X173616409Y-93555657D01*
X173709896Y-93423130D01*
X173775862Y-93274969D01*
X173811793Y-93116816D01*
X173814380Y-92931573D01*
X173782878Y-92772478D01*
X173721075Y-92622533D01*
X173631325Y-92487447D01*
X173517045Y-92372367D01*
X173382589Y-92281675D01*
X173233079Y-92218827D01*
X173074208Y-92186215D01*
X172912029Y-92185083D01*
X172752719Y-92215473D01*
X172602346Y-92276228D01*
X172466637Y-92365033D01*
X172350761Y-92478507D01*
X172259133Y-92612326D01*
X172195243Y-92761394D01*
X172161523Y-92920033D01*
X172159258Y-93082200D01*
X169627000Y-93082200D01*
X169627000Y-89859250D01*
X169689750Y-89922000D01*
X169927056Y-89922000D01*
X170009551Y-89905591D01*
X170087261Y-89873402D01*
X170157197Y-89826672D01*
X170216673Y-89767197D01*
X170263403Y-89697260D01*
X170295591Y-89619551D01*
X170312000Y-89537056D01*
X170312000Y-89129750D01*
X170205250Y-89023000D01*
X169627000Y-89023000D01*
X169627000Y-88977000D01*
X170205250Y-88977000D01*
X170312000Y-88870250D01*
X170312000Y-88462944D01*
X170295591Y-88380449D01*
X170263403Y-88302740D01*
X170216673Y-88232803D01*
X170157197Y-88173328D01*
X170087261Y-88126598D01*
X170009551Y-88094409D01*
X169927056Y-88078000D01*
X169689750Y-88078000D01*
X169627000Y-88140750D01*
X169627000Y-85369536D01*
X171721913Y-85369536D01*
X171751191Y-85529055D01*
X171810894Y-85679849D01*
X171898750Y-85816174D01*
X172011412Y-85932839D01*
X172144588Y-86025399D01*
X172293207Y-86090329D01*
X172451606Y-86125155D01*
X172613754Y-86128552D01*
X172773473Y-86100389D01*
X172924680Y-86041740D01*
X173061615Y-85954838D01*
X173179064Y-85842993D01*
X173272551Y-85710466D01*
X173338517Y-85562305D01*
X173374448Y-85404152D01*
X173377035Y-85218909D01*
X173345533Y-85059814D01*
X173283730Y-84909869D01*
X173193980Y-84774783D01*
X173079700Y-84659703D01*
X172945244Y-84569011D01*
X172795734Y-84506163D01*
X172636863Y-84473551D01*
X172474684Y-84472419D01*
X172315374Y-84502809D01*
X172165001Y-84563564D01*
X172029292Y-84652369D01*
X171913416Y-84765843D01*
X171821788Y-84899662D01*
X171757898Y-85048730D01*
X171724178Y-85207369D01*
X171721913Y-85369536D01*
X169627000Y-85369536D01*
X169627000Y-81502000D01*
X176373000Y-81502000D01*
X176373000Y-109873000D01*
G36*
X164441439Y-88399070D02*
X164349215Y-88437270D01*
X164245211Y-88506763D01*
X164156763Y-88595211D01*
X164087270Y-88699215D01*
X164039403Y-88814777D01*
X164015000Y-88937458D01*
X164015000Y-89014250D01*
X164173750Y-89173000D01*
X164750000Y-89173000D01*
X164750000Y-89153000D01*
X164950000Y-89153000D01*
X164950000Y-89173000D01*
X164997000Y-89173000D01*
X164997000Y-89427000D01*
X164950000Y-89427000D01*
X164950000Y-90076250D01*
X165108750Y-90235000D01*
X165112542Y-90235000D01*
X165235223Y-90210597D01*
X165350785Y-90162730D01*
X165454789Y-90093237D01*
X165522822Y-90025204D01*
X165550000Y-90029066D01*
X165950000Y-90029066D01*
X166017998Y-90023644D01*
X166075264Y-90005910D01*
X166159677Y-90090323D01*
X166199075Y-90122685D01*
X166238138Y-90155463D01*
X166240683Y-90156862D01*
X166242924Y-90158703D01*
X166287832Y-90182782D01*
X166332544Y-90207363D01*
X166335312Y-90208241D01*
X166337869Y-90209612D01*
X166386668Y-90224532D01*
X166435233Y-90239937D01*
X166438111Y-90240260D01*
X166440892Y-90241110D01*
X166491648Y-90246265D01*
X166542293Y-90251946D01*
X166547973Y-90251986D01*
X166548073Y-90251996D01*
X166548167Y-90251987D01*
X166550000Y-90252000D01*
X167440000Y-90252000D01*
X167490690Y-90247030D01*
X167541541Y-90242581D01*
X167544333Y-90241770D01*
X167547217Y-90241487D01*
X167595981Y-90226764D01*
X167644995Y-90212524D01*
X167647573Y-90211188D01*
X167650351Y-90210349D01*
X167695381Y-90186406D01*
X167740641Y-90162946D01*
X167742908Y-90161136D01*
X167745472Y-90159773D01*
X167785016Y-90127522D01*
X167824835Y-90095734D01*
X167828875Y-90091751D01*
X167828958Y-90091683D01*
X167829022Y-90091606D01*
X167830323Y-90090323D01*
X167996580Y-89924066D01*
X168465000Y-89924066D01*
X168532998Y-89918644D01*
X168648330Y-89882927D01*
X168749146Y-89816494D01*
X168827463Y-89724605D01*
X168847815Y-89679456D01*
X168873000Y-89717676D01*
X168873000Y-91500080D01*
X168857002Y-91501356D01*
X168741670Y-91537073D01*
X168640854Y-91603506D01*
X168562537Y-91695395D01*
X168512921Y-91805465D01*
X168495934Y-91925000D01*
X168495934Y-93475000D01*
X168501356Y-93542998D01*
X168537073Y-93658330D01*
X168603506Y-93759146D01*
X168695395Y-93837463D01*
X168805465Y-93887079D01*
X168873000Y-93896676D01*
X168873000Y-98400080D01*
X168857002Y-98401356D01*
X168741670Y-98437073D01*
X168640854Y-98503506D01*
X168562537Y-98595395D01*
X168512921Y-98705465D01*
X168495934Y-98825000D01*
X168495934Y-100375000D01*
X168501356Y-100442998D01*
X168537073Y-100558330D01*
X168603506Y-100659146D01*
X168695395Y-100737463D01*
X168805465Y-100787079D01*
X168873000Y-100796676D01*
X168873000Y-108400080D01*
X168857002Y-108401356D01*
X168741670Y-108437073D01*
X168640854Y-108503506D01*
X168562537Y-108595395D01*
X168512921Y-108705465D01*
X168495934Y-108825000D01*
X168495934Y-110375000D01*
X168501356Y-110442998D01*
X168537073Y-110558330D01*
X168603506Y-110659146D01*
X168695395Y-110737463D01*
X168805465Y-110787079D01*
X168883812Y-110798213D01*
X168892714Y-110817961D01*
X168910197Y-110839803D01*
X169373000Y-111302606D01*
X169373000Y-112498000D01*
X141458996Y-112498000D01*
X141546939Y-112414253D01*
X141962602Y-111825012D01*
X142255899Y-111166257D01*
X142415656Y-110463080D01*
X142427157Y-109639452D01*
X142287095Y-108932088D01*
X142012307Y-108265401D01*
X141613258Y-107664784D01*
X141255049Y-107304066D01*
X141925000Y-107304066D01*
X141992998Y-107298644D01*
X142076983Y-107272635D01*
X142081763Y-107279789D01*
X142170211Y-107368237D01*
X142274215Y-107437730D01*
X142389777Y-107485597D01*
X142512458Y-107510000D01*
X142964250Y-107510000D01*
X143123000Y-107351250D01*
X143123000Y-106227000D01*
X143377000Y-106227000D01*
X143377000Y-107351250D01*
X143535750Y-107510000D01*
X143987542Y-107510000D01*
X144025457Y-107502458D01*
X145045000Y-107502458D01*
X145045000Y-107979250D01*
X145203750Y-108138000D01*
X146373000Y-108138000D01*
X146373000Y-107088750D01*
X146627000Y-107088750D01*
X146627000Y-108138000D01*
X147796250Y-108138000D01*
X147955000Y-107979250D01*
X147955000Y-107502458D01*
X147930597Y-107379777D01*
X147882730Y-107264215D01*
X147813237Y-107160211D01*
X147724789Y-107071763D01*
X147620785Y-107002270D01*
X147505223Y-106954403D01*
X147382542Y-106930000D01*
X146785750Y-106930000D01*
X146627000Y-107088750D01*
X146373000Y-107088750D01*
X146214250Y-106930000D01*
X145617458Y-106930000D01*
X145494777Y-106954403D01*
X145379215Y-107002270D01*
X145275211Y-107071763D01*
X145186763Y-107160211D01*
X145117270Y-107264215D01*
X145069403Y-107379777D01*
X145045000Y-107502458D01*
X144025457Y-107502458D01*
X144110223Y-107485597D01*
X144225785Y-107437730D01*
X144329789Y-107368237D01*
X144418237Y-107279789D01*
X144487730Y-107175785D01*
X144535597Y-107060223D01*
X144560000Y-106937542D01*
X144560000Y-106385750D01*
X144401250Y-106227000D01*
X143377000Y-106227000D01*
X143123000Y-106227000D01*
X143103000Y-106227000D01*
X143103000Y-105973000D01*
X143123000Y-105973000D01*
X143123000Y-104848750D01*
X143377000Y-104848750D01*
X143377000Y-105973000D01*
X144401250Y-105973000D01*
X144560000Y-105814250D01*
X144560000Y-105262458D01*
X144535597Y-105139777D01*
X144487730Y-105024215D01*
X144418237Y-104920211D01*
X144329789Y-104831763D01*
X144225785Y-104762270D01*
X144110223Y-104714403D01*
X143987542Y-104690000D01*
X143535750Y-104690000D01*
X143377000Y-104848750D01*
X143123000Y-104848750D01*
X142964250Y-104690000D01*
X142512458Y-104690000D01*
X142389777Y-104714403D01*
X142274215Y-104762270D01*
X142170211Y-104831763D01*
X142081763Y-104920211D01*
X142076889Y-104927505D01*
X142044535Y-104912921D01*
X141925000Y-104895934D01*
X141610154Y-104895934D01*
X141609227Y-104895433D01*
X141525896Y-104869638D01*
X141442734Y-104843257D01*
X141439502Y-104842894D01*
X141436399Y-104841934D01*
X141398977Y-104838001D01*
X141277000Y-104716024D01*
X141277000Y-104114538D01*
X141279066Y-104100000D01*
X141279066Y-101400000D01*
X141277000Y-101374090D01*
X141277000Y-100150000D01*
X141259345Y-99969945D01*
X141207054Y-99796748D01*
X141122118Y-99637006D01*
X141073179Y-99577001D01*
X142848001Y-99577001D01*
X142898691Y-99572031D01*
X142949542Y-99567582D01*
X142952334Y-99566771D01*
X142955218Y-99566488D01*
X143003982Y-99551765D01*
X143052996Y-99537525D01*
X143055574Y-99536189D01*
X143058352Y-99535350D01*
X143074077Y-99526989D01*
X143197739Y-99526989D01*
X143343750Y-99673000D01*
X144143000Y-99673000D01*
X144143000Y-99653000D01*
X144397000Y-99653000D01*
X144397000Y-99673000D01*
X144417000Y-99673000D01*
X144417000Y-99927000D01*
X144397000Y-99927000D01*
X144397000Y-99947000D01*
X144143000Y-99947000D01*
X144143000Y-99927000D01*
X143343750Y-99927000D01*
X143185000Y-100085750D01*
X143185000Y-100362542D01*
X143209403Y-100485223D01*
X143257270Y-100600785D01*
X143326763Y-100704789D01*
X143415211Y-100793237D01*
X143501280Y-100850747D01*
X143464403Y-100939777D01*
X143440000Y-101062458D01*
X143440000Y-101223364D01*
X143437927Y-101216670D01*
X143371494Y-101115854D01*
X143279605Y-101037537D01*
X143169535Y-100987921D01*
X143050000Y-100970934D01*
X142050000Y-100970934D01*
X141982002Y-100976356D01*
X141866670Y-101012073D01*
X141765854Y-101078506D01*
X141687537Y-101170395D01*
X141637921Y-101280465D01*
X141620934Y-101400000D01*
X141620934Y-104100000D01*
X141626356Y-104167998D01*
X141662073Y-104283330D01*
X141728506Y-104384146D01*
X141820395Y-104462463D01*
X141930465Y-104512079D01*
X142050000Y-104529066D01*
X143050000Y-104529066D01*
X143117998Y-104523644D01*
X143233330Y-104487927D01*
X143325790Y-104427000D01*
X143966024Y-104427000D01*
X144394512Y-104855488D01*
X144448455Y-104899797D01*
X144487684Y-104948588D01*
X144626276Y-105064880D01*
X144784816Y-105152038D01*
X144957266Y-105206743D01*
X145137057Y-105226910D01*
X145150000Y-105227000D01*
X145367721Y-105227000D01*
X145450395Y-105297463D01*
X145560465Y-105347079D01*
X145680000Y-105364066D01*
X147320000Y-105364066D01*
X147387998Y-105358644D01*
X147503330Y-105322927D01*
X147604146Y-105256494D01*
X147682463Y-105164605D01*
X147732079Y-105054535D01*
X147749066Y-104935000D01*
X147749066Y-103958356D01*
X148178520Y-103528902D01*
X148199215Y-103542730D01*
X148314777Y-103590597D01*
X148437458Y-103615000D01*
X148714250Y-103615000D01*
X148873000Y-103456250D01*
X148873000Y-102657000D01*
X148853000Y-102657000D01*
X148853000Y-102403000D01*
X148873000Y-102403000D01*
X148873000Y-102383000D01*
X149127000Y-102383000D01*
X149127000Y-102403000D01*
X149147000Y-102403000D01*
X149147000Y-102657000D01*
X149127000Y-102657000D01*
X149127000Y-103456250D01*
X149285750Y-103615000D01*
X149562542Y-103615000D01*
X149573000Y-103612920D01*
X149573000Y-103710000D01*
X149579100Y-103772210D01*
X149584552Y-103834535D01*
X149585546Y-103837955D01*
X149585893Y-103841497D01*
X149603969Y-103901368D01*
X149621415Y-103961416D01*
X149623052Y-103964575D01*
X149624082Y-103967985D01*
X149653451Y-104023219D01*
X149682220Y-104078721D01*
X149684441Y-104081503D01*
X149686112Y-104084646D01*
X149725628Y-104133097D01*
X149764652Y-104181981D01*
X149769539Y-104186937D01*
X149769621Y-104187037D01*
X149769714Y-104187114D01*
X149771289Y-104188711D01*
X149885934Y-104303356D01*
X149885934Y-104595000D01*
X149891356Y-104662998D01*
X149927073Y-104778330D01*
X149993506Y-104879146D01*
X150010879Y-104893953D01*
X149950854Y-104933506D01*
X149872537Y-105025395D01*
X149852185Y-105070544D01*
X149786494Y-104970854D01*
X149694605Y-104892537D01*
X149584535Y-104842921D01*
X149465000Y-104825934D01*
X148815000Y-104825934D01*
X148747002Y-104831356D01*
X148631670Y-104867073D01*
X148530854Y-104933506D01*
X148452537Y-105025395D01*
X148402921Y-105135465D01*
X148385934Y-105255000D01*
X148385934Y-106245000D01*
X148391356Y-106312998D01*
X148427073Y-106428330D01*
X148493506Y-106529146D01*
X148585395Y-106607463D01*
X148588000Y-106608637D01*
X148588000Y-107140000D01*
X148592970Y-107190690D01*
X148597419Y-107241541D01*
X148598230Y-107244333D01*
X148598513Y-107247217D01*
X148613236Y-107295981D01*
X148620934Y-107322478D01*
X148620934Y-107550000D01*
X148626356Y-107617998D01*
X148662073Y-107733330D01*
X148728506Y-107834146D01*
X148820395Y-107912463D01*
X148930465Y-107962079D01*
X149050000Y-107979066D01*
X149450000Y-107979066D01*
X149478748Y-107976774D01*
X149545211Y-108043237D01*
X149649215Y-108112730D01*
X149764777Y-108160597D01*
X149887458Y-108185000D01*
X149891250Y-108185000D01*
X150050000Y-108026250D01*
X150050000Y-107377000D01*
X150003000Y-107377000D01*
X150003000Y-107123000D01*
X150050000Y-107123000D01*
X150050000Y-107103000D01*
X150250000Y-107103000D01*
X150250000Y-107123000D01*
X150297000Y-107123000D01*
X150297000Y-107377000D01*
X150250000Y-107377000D01*
X150250000Y-108026250D01*
X150335141Y-108111391D01*
X149523544Y-108922988D01*
X147955000Y-108922988D01*
X147955000Y-108550750D01*
X147796250Y-108392000D01*
X146627000Y-108392000D01*
X146627000Y-108412000D01*
X146373000Y-108412000D01*
X146373000Y-108392000D01*
X145203750Y-108392000D01*
X145045000Y-108550750D01*
X145045000Y-109027542D01*
X145069403Y-109150223D01*
X145117270Y-109265785D01*
X145186763Y-109369789D01*
X145275211Y-109458237D01*
X145368670Y-109520684D01*
X144931780Y-109957574D01*
X144849605Y-109887537D01*
X144739535Y-109837921D01*
X144620000Y-109820934D01*
X143120000Y-109820934D01*
X143052002Y-109826356D01*
X142936670Y-109862073D01*
X142835854Y-109928506D01*
X142757537Y-110020395D01*
X142707921Y-110130465D01*
X142690934Y-110250000D01*
X142690934Y-111750000D01*
X142696356Y-111817998D01*
X142732073Y-111933330D01*
X142798506Y-112034146D01*
X142890395Y-112112463D01*
X143000465Y-112162079D01*
X143120000Y-112179066D01*
X144620000Y-112179066D01*
X144687998Y-112173644D01*
X144803330Y-112137927D01*
X144904146Y-112071494D01*
X144982463Y-111979605D01*
X145032079Y-111869535D01*
X145049066Y-111750000D01*
X145049066Y-111400339D01*
X145054835Y-111395734D01*
X145058875Y-111391751D01*
X145058958Y-111391683D01*
X145059022Y-111391606D01*
X145060323Y-111390323D01*
X145250097Y-111200549D01*
X145273121Y-111325995D01*
X145358092Y-111540607D01*
X145483130Y-111734628D01*
X145643472Y-111900668D01*
X145833011Y-112032401D01*
X146044527Y-112124810D01*
X146269964Y-112174375D01*
X146500735Y-112179209D01*
X146728050Y-112139128D01*
X146943251Y-112055657D01*
X147138140Y-111931976D01*
X147305294Y-111772797D01*
X147438347Y-111584183D01*
X147452676Y-111552000D01*
X147500000Y-111552000D01*
X147550690Y-111547030D01*
X147601541Y-111542581D01*
X147604333Y-111541770D01*
X147607217Y-111541487D01*
X147655981Y-111526764D01*
X147704995Y-111512524D01*
X147707573Y-111511188D01*
X147710351Y-111510349D01*
X147755381Y-111486406D01*
X147800641Y-111462946D01*
X147802908Y-111461136D01*
X147805472Y-111459773D01*
X147845016Y-111427522D01*
X147851324Y-111422486D01*
X147898092Y-111540607D01*
X148023130Y-111734628D01*
X148183472Y-111900668D01*
X148373011Y-112032401D01*
X148584527Y-112124810D01*
X148809964Y-112174375D01*
X149040735Y-112179209D01*
X149268050Y-112139128D01*
X149483251Y-112055657D01*
X149678140Y-111931976D01*
X149845294Y-111772797D01*
X149978347Y-111584183D01*
X150049797Y-111423705D01*
X150084835Y-111395734D01*
X150088875Y-111391751D01*
X150088958Y-111391683D01*
X150089022Y-111391606D01*
X150090323Y-111390323D01*
X150322344Y-111158302D01*
X150353121Y-111325995D01*
X150438092Y-111540607D01*
X150563130Y-111734628D01*
X150723472Y-111900668D01*
X150913011Y-112032401D01*
X151124527Y-112124810D01*
X151349964Y-112174375D01*
X151580735Y-112179209D01*
X151808050Y-112139128D01*
X152023251Y-112055657D01*
X152178719Y-111956993D01*
X153252612Y-111956993D01*
X153318137Y-112195860D01*
X153565116Y-112311760D01*
X153829960Y-112377250D01*
X154102492Y-112389812D01*
X154372238Y-112348965D01*
X154628832Y-112256277D01*
X154741863Y-112195860D01*
X154807388Y-111956993D01*
X154030000Y-111179605D01*
X153252612Y-111956993D01*
X152178719Y-111956993D01*
X152218140Y-111931976D01*
X152385294Y-111772797D01*
X152518347Y-111584183D01*
X152593256Y-111415934D01*
X152604995Y-111412524D01*
X152607573Y-111411188D01*
X152610351Y-111410349D01*
X152655381Y-111386406D01*
X152690428Y-111368240D01*
X152773723Y-111598832D01*
X152834140Y-111711863D01*
X153073007Y-111777388D01*
X153850395Y-111000000D01*
X153836253Y-110985858D01*
X154015858Y-110806253D01*
X154030000Y-110820395D01*
X154044143Y-110806253D01*
X154223748Y-110985858D01*
X154209605Y-111000000D01*
X154986993Y-111777388D01*
X155225860Y-111711863D01*
X155341760Y-111464884D01*
X155407250Y-111200040D01*
X155408399Y-111175122D01*
X155443207Y-111190329D01*
X155601606Y-111225155D01*
X155763754Y-111228552D01*
X155923473Y-111200389D01*
X156074680Y-111141740D01*
X156211615Y-111054838D01*
X156329064Y-110942993D01*
X156422551Y-110810466D01*
X156488517Y-110662305D01*
X156524448Y-110504152D01*
X156527035Y-110318909D01*
X156495533Y-110159814D01*
X156433730Y-110009869D01*
X156343980Y-109874783D01*
X156229700Y-109759703D01*
X156142919Y-109701168D01*
X156154789Y-109693237D01*
X156222822Y-109625204D01*
X156250000Y-109629066D01*
X156650000Y-109629066D01*
X156717998Y-109623644D01*
X156833330Y-109587927D01*
X156913653Y-109534998D01*
X156927073Y-109578330D01*
X156993506Y-109679146D01*
X157085395Y-109757463D01*
X157195465Y-109807079D01*
X157315000Y-109824066D01*
X157965000Y-109824066D01*
X158032998Y-109818644D01*
X158148330Y-109782927D01*
X158249146Y-109716494D01*
X158327463Y-109624605D01*
X158347815Y-109579456D01*
X158413506Y-109679146D01*
X158505395Y-109757463D01*
X158615465Y-109807079D01*
X158735000Y-109824066D01*
X159385000Y-109824066D01*
X159452998Y-109818644D01*
X159523621Y-109796773D01*
X159160197Y-110160197D01*
X159133006Y-110200590D01*
X159123000Y-110250000D01*
X159123000Y-111000000D01*
X159132334Y-111047789D01*
X159160197Y-111089803D01*
X159660197Y-111589803D01*
X159700590Y-111616994D01*
X159750000Y-111627000D01*
X160500000Y-111627000D01*
X160547789Y-111617666D01*
X160589803Y-111589803D01*
X161089803Y-111089803D01*
X161113592Y-111056796D01*
X161354374Y-110575232D01*
X161802606Y-110127000D01*
X162250000Y-110127000D01*
X162297789Y-110117666D01*
X162339803Y-110089803D01*
X162589803Y-109839803D01*
X162616994Y-109799410D01*
X162627000Y-109750000D01*
X162627000Y-108500000D01*
X162613592Y-108443204D01*
X162597439Y-108410898D01*
X162662463Y-108334605D01*
X162709248Y-108230815D01*
X162754995Y-108217524D01*
X162757573Y-108216188D01*
X162760351Y-108215349D01*
X162805381Y-108191406D01*
X162850641Y-108167946D01*
X162852908Y-108166136D01*
X162855472Y-108164773D01*
X162895016Y-108132522D01*
X162934835Y-108100734D01*
X162938875Y-108096751D01*
X162938958Y-108096683D01*
X162939022Y-108096606D01*
X162940323Y-108095323D01*
X163337100Y-107698546D01*
X163393506Y-107784146D01*
X163485395Y-107862463D01*
X163595465Y-107912079D01*
X163715000Y-107929066D01*
X164365000Y-107929066D01*
X164432998Y-107923644D01*
X164548330Y-107887927D01*
X164649146Y-107821494D01*
X164727463Y-107729605D01*
X164747815Y-107684456D01*
X164813506Y-107784146D01*
X164905395Y-107862463D01*
X165015465Y-107912079D01*
X165135000Y-107929066D01*
X165785000Y-107929066D01*
X165852998Y-107923644D01*
X165968330Y-107887927D01*
X166069146Y-107821494D01*
X166147463Y-107729605D01*
X166197079Y-107619535D01*
X166205966Y-107557000D01*
X166373000Y-107557000D01*
X166373000Y-108750000D01*
X166382334Y-108797789D01*
X166410197Y-108839803D01*
X166660197Y-109089803D01*
X166700590Y-109116994D01*
X166750000Y-109127000D01*
X167750000Y-109127000D01*
X167797789Y-109117666D01*
X167839803Y-109089803D01*
X168089803Y-108839803D01*
X168116994Y-108799410D01*
X168127000Y-108750000D01*
X168127000Y-107808584D01*
X168173473Y-107800389D01*
X168324680Y-107741740D01*
X168461615Y-107654838D01*
X168579064Y-107542993D01*
X168672551Y-107410466D01*
X168738517Y-107262305D01*
X168774448Y-107104152D01*
X168777035Y-106918909D01*
X168745533Y-106759814D01*
X168683730Y-106609869D01*
X168593980Y-106474783D01*
X168479700Y-106359703D01*
X168345244Y-106269011D01*
X168195734Y-106206163D01*
X168036863Y-106173551D01*
X167874684Y-106172419D01*
X167715374Y-106202809D01*
X167565001Y-106263564D01*
X167429292Y-106352369D01*
X167326531Y-106453000D01*
X166209521Y-106453000D01*
X166208644Y-106442002D01*
X166172927Y-106326670D01*
X166106494Y-106225854D01*
X166014605Y-106147537D01*
X166012000Y-106146363D01*
X166012000Y-105859151D01*
X166069146Y-105821494D01*
X166147463Y-105729605D01*
X166197079Y-105619535D01*
X166214066Y-105500000D01*
X166214066Y-105469536D01*
X166221917Y-105469536D01*
X166251195Y-105629055D01*
X166310898Y-105779849D01*
X166398754Y-105916174D01*
X166511416Y-106032839D01*
X166644592Y-106125399D01*
X166793211Y-106190329D01*
X166951610Y-106225155D01*
X167113758Y-106228552D01*
X167273477Y-106200389D01*
X167424684Y-106141740D01*
X167561619Y-106054838D01*
X167679068Y-105942993D01*
X167772555Y-105810466D01*
X167838521Y-105662305D01*
X167874452Y-105504152D01*
X167877039Y-105318909D01*
X167845537Y-105159814D01*
X167783734Y-105009869D01*
X167693984Y-104874783D01*
X167579704Y-104759703D01*
X167445248Y-104669011D01*
X167295738Y-104606163D01*
X167136867Y-104573551D01*
X166974688Y-104572419D01*
X166815378Y-104602809D01*
X166665005Y-104663564D01*
X166529296Y-104752369D01*
X166413420Y-104865843D01*
X166321792Y-104999662D01*
X166257902Y-105148730D01*
X166224182Y-105307369D01*
X166221917Y-105469536D01*
X166214066Y-105469536D01*
X166214066Y-104510000D01*
X166208644Y-104442002D01*
X166172927Y-104326670D01*
X166106494Y-104225854D01*
X166014605Y-104147537D01*
X165904535Y-104097921D01*
X165785000Y-104080934D01*
X165135000Y-104080934D01*
X165067002Y-104086356D01*
X164951670Y-104122073D01*
X164850854Y-104188506D01*
X164772537Y-104280395D01*
X164752185Y-104325544D01*
X164686494Y-104225854D01*
X164594605Y-104147537D01*
X164484535Y-104097921D01*
X164365000Y-104080934D01*
X163715000Y-104080934D01*
X163647002Y-104086356D01*
X163531670Y-104122073D01*
X163430854Y-104188506D01*
X163352537Y-104280395D01*
X163302921Y-104390465D01*
X163294034Y-104453000D01*
X162750000Y-104453000D01*
X162699310Y-104457970D01*
X162648459Y-104462419D01*
X162645667Y-104463230D01*
X162642783Y-104463513D01*
X162594019Y-104478236D01*
X162547934Y-104491625D01*
X162547030Y-104482398D01*
X162542581Y-104431547D01*
X162541770Y-104428755D01*
X162541487Y-104425871D01*
X162526778Y-104377153D01*
X162512525Y-104328093D01*
X162511186Y-104325511D01*
X162510349Y-104322737D01*
X162486414Y-104277722D01*
X162462946Y-104232448D01*
X162461138Y-104230183D01*
X162459773Y-104227616D01*
X162427529Y-104188081D01*
X162395735Y-104148253D01*
X162391749Y-104144212D01*
X162391683Y-104144130D01*
X162391608Y-104144068D01*
X162390323Y-104142765D01*
X159962992Y-101715434D01*
X159984146Y-101701494D01*
X160062463Y-101609605D01*
X160112079Y-101499535D01*
X160129066Y-101380000D01*
X160129066Y-100480000D01*
X160123644Y-100412002D01*
X160087927Y-100296670D01*
X160021494Y-100195854D01*
X159929605Y-100117537D01*
X159893467Y-100101247D01*
X159984146Y-100041494D01*
X160062463Y-99949605D01*
X160112079Y-99839535D01*
X160129066Y-99720000D01*
X160129066Y-99500000D01*
X160923000Y-99500000D01*
X160923000Y-100300000D01*
X160938331Y-100360491D01*
X160970664Y-100399170D01*
X161470664Y-100799170D01*
X161500590Y-100816994D01*
X161550000Y-100827000D01*
X162050000Y-100827000D01*
X162080668Y-100823241D01*
X162126200Y-100801600D01*
X162526200Y-100501600D01*
X162566994Y-100449410D01*
X162577000Y-100400000D01*
X162577000Y-99600000D01*
X162573241Y-99569332D01*
X162551600Y-99523800D01*
X162251600Y-99123800D01*
X162199410Y-99083006D01*
X162150000Y-99073000D01*
X161550000Y-99073000D01*
X161484659Y-99091098D01*
X160984659Y-99391098D01*
X160961447Y-99408965D01*
X160933006Y-99450590D01*
X160923000Y-99500000D01*
X160129066Y-99500000D01*
X160129066Y-98927000D01*
X162646354Y-98927000D01*
X163214677Y-99495323D01*
X163254053Y-99527666D01*
X163274081Y-99544473D01*
X163276356Y-99572998D01*
X163312073Y-99688330D01*
X163378506Y-99789146D01*
X163470395Y-99867463D01*
X163580465Y-99917079D01*
X163700000Y-99934066D01*
X164300000Y-99934066D01*
X164367998Y-99928644D01*
X164483330Y-99892927D01*
X164584146Y-99826494D01*
X164662463Y-99734605D01*
X164712079Y-99624535D01*
X164729066Y-99505000D01*
X164729066Y-98705000D01*
X164723644Y-98637002D01*
X164694087Y-98541559D01*
X165015324Y-98220322D01*
X165047667Y-98180946D01*
X165080464Y-98141861D01*
X165081865Y-98139313D01*
X165083704Y-98137074D01*
X165107772Y-98092188D01*
X165132364Y-98047455D01*
X165133242Y-98044687D01*
X165134613Y-98042130D01*
X165149529Y-97993344D01*
X165164938Y-97944766D01*
X165165261Y-97941886D01*
X165166111Y-97939106D01*
X165171271Y-97888312D01*
X165176947Y-97837706D01*
X165176987Y-97832037D01*
X165176998Y-97831926D01*
X165176988Y-97831823D01*
X165177001Y-97829999D01*
X165177001Y-97378425D01*
X165244588Y-97425399D01*
X165393207Y-97490329D01*
X165551606Y-97525155D01*
X165713754Y-97528552D01*
X165873000Y-97500472D01*
X165873000Y-98750000D01*
X165882334Y-98797789D01*
X165910197Y-98839803D01*
X166160197Y-99089803D01*
X166200590Y-99116994D01*
X166250000Y-99127000D01*
X167500000Y-99127000D01*
X167547789Y-99117666D01*
X167589803Y-99089803D01*
X167839803Y-98839803D01*
X167866994Y-98799410D01*
X167877000Y-98750000D01*
X167877000Y-97500000D01*
X167867666Y-97452211D01*
X167839803Y-97410197D01*
X167589803Y-97160197D01*
X167549410Y-97133006D01*
X167500000Y-97123000D01*
X166363709Y-97123000D01*
X166372551Y-97110466D01*
X166438517Y-96962305D01*
X166474448Y-96804152D01*
X166477035Y-96618909D01*
X166445533Y-96459814D01*
X166383730Y-96309869D01*
X166293980Y-96174783D01*
X166179700Y-96059703D01*
X166106233Y-96010149D01*
X166147079Y-95919535D01*
X166164066Y-95800000D01*
X166164066Y-95261574D01*
X166210894Y-95379849D01*
X166298750Y-95516174D01*
X166411412Y-95632839D01*
X166544588Y-95725399D01*
X166693207Y-95790329D01*
X166851606Y-95825155D01*
X167013754Y-95828552D01*
X167173473Y-95800389D01*
X167324680Y-95741740D01*
X167461615Y-95654838D01*
X167579064Y-95542993D01*
X167672551Y-95410466D01*
X167738517Y-95262305D01*
X167774448Y-95104152D01*
X167777035Y-94918909D01*
X167745533Y-94759814D01*
X167683730Y-94609869D01*
X167593980Y-94474783D01*
X167479700Y-94359703D01*
X167345244Y-94269011D01*
X167195734Y-94206163D01*
X167036863Y-94173551D01*
X166874684Y-94172419D01*
X166715374Y-94202809D01*
X166565001Y-94263564D01*
X166429292Y-94352369D01*
X166313416Y-94465843D01*
X166221788Y-94599662D01*
X166158979Y-94746207D01*
X166158644Y-94742002D01*
X166122927Y-94626670D01*
X166056494Y-94525854D01*
X165975514Y-94456835D01*
X166029146Y-94421494D01*
X166107463Y-94329605D01*
X166157079Y-94219535D01*
X166174066Y-94100000D01*
X166174066Y-93110000D01*
X166168644Y-93042002D01*
X166132927Y-92926670D01*
X166066494Y-92825854D01*
X165974605Y-92747537D01*
X165864535Y-92697921D01*
X165745000Y-92680934D01*
X165095000Y-92680934D01*
X165027002Y-92686356D01*
X164911670Y-92722073D01*
X164810854Y-92788506D01*
X164732537Y-92880395D01*
X164712185Y-92925544D01*
X164646494Y-92825854D01*
X164554605Y-92747537D01*
X164444535Y-92697921D01*
X164325000Y-92680934D01*
X163675000Y-92680934D01*
X163607002Y-92686356D01*
X163491670Y-92722073D01*
X163390854Y-92788506D01*
X163312537Y-92880395D01*
X163262921Y-92990465D01*
X163245934Y-93110000D01*
X163245934Y-94100000D01*
X163251356Y-94167998D01*
X163287073Y-94283330D01*
X163353506Y-94384146D01*
X163434486Y-94453165D01*
X163380854Y-94488506D01*
X163302537Y-94580395D01*
X163252921Y-94690465D01*
X163235934Y-94810000D01*
X163235934Y-95800000D01*
X163241356Y-95867998D01*
X163277073Y-95983330D01*
X163337651Y-96075261D01*
X163337537Y-96075395D01*
X163287921Y-96185465D01*
X163270934Y-96305000D01*
X163270934Y-97105000D01*
X163276356Y-97172998D01*
X163312073Y-97288330D01*
X163378506Y-97389146D01*
X163470395Y-97467463D01*
X163580465Y-97517079D01*
X163700000Y-97534066D01*
X164073001Y-97534066D01*
X164073001Y-97601353D01*
X163609677Y-98064677D01*
X163577334Y-98104053D01*
X163544537Y-98143138D01*
X163543136Y-98145686D01*
X163541297Y-98147925D01*
X163517229Y-98192811D01*
X163501702Y-98221056D01*
X163265323Y-97984677D01*
X163225947Y-97952334D01*
X163186862Y-97919537D01*
X163184314Y-97918136D01*
X163182075Y-97916297D01*
X163137189Y-97892229D01*
X163092456Y-97867637D01*
X163089688Y-97866759D01*
X163087131Y-97865388D01*
X163038345Y-97850472D01*
X162989767Y-97835063D01*
X162986887Y-97834740D01*
X162984107Y-97833890D01*
X162933313Y-97828730D01*
X162882707Y-97823054D01*
X162880675Y-97823040D01*
X162913330Y-97812927D01*
X163014146Y-97746494D01*
X163092463Y-97654605D01*
X163142079Y-97544535D01*
X163159066Y-97425000D01*
X163159066Y-96425000D01*
X163153644Y-96357002D01*
X163117927Y-96241670D01*
X163051494Y-96140854D01*
X162989236Y-96087792D01*
X163010313Y-95995020D01*
X163012900Y-95809777D01*
X162981398Y-95650682D01*
X162919595Y-95500737D01*
X162829845Y-95365651D01*
X162715565Y-95250571D01*
X162633176Y-95194999D01*
X162647655Y-95177371D01*
X162680452Y-95138286D01*
X162681853Y-95135738D01*
X162683692Y-95133499D01*
X162707749Y-95088632D01*
X162732352Y-95043880D01*
X162733231Y-95041109D01*
X162734601Y-95038554D01*
X162749517Y-94989767D01*
X162764926Y-94941191D01*
X162765249Y-94938311D01*
X162766099Y-94935531D01*
X162771259Y-94884737D01*
X162776935Y-94834131D01*
X162776975Y-94828462D01*
X162776986Y-94828351D01*
X162776976Y-94828248D01*
X162776989Y-94826424D01*
X162776989Y-93233480D01*
X162772019Y-93182790D01*
X162767570Y-93131939D01*
X162766759Y-93129147D01*
X162766476Y-93126263D01*
X162751753Y-93077499D01*
X162737513Y-93028485D01*
X162736177Y-93025907D01*
X162735338Y-93023129D01*
X162711395Y-92978099D01*
X162687935Y-92932839D01*
X162686125Y-92930572D01*
X162684762Y-92928008D01*
X162652511Y-92888464D01*
X162650166Y-92885527D01*
X162652025Y-92752390D01*
X162620523Y-92593295D01*
X162558720Y-92443350D01*
X162522158Y-92388319D01*
X162539582Y-92371726D01*
X162633069Y-92239199D01*
X162699035Y-92091038D01*
X162734966Y-91932885D01*
X162737553Y-91747642D01*
X162706051Y-91588547D01*
X162644248Y-91438602D01*
X162554498Y-91303516D01*
X162440218Y-91188436D01*
X162305762Y-91097744D01*
X162299820Y-91095246D01*
X162314066Y-90995000D01*
X162314066Y-90005000D01*
X162308644Y-89937002D01*
X162272927Y-89821670D01*
X162249176Y-89785627D01*
X162349114Y-89585750D01*
X164015000Y-89585750D01*
X164015000Y-89662542D01*
X164039403Y-89785223D01*
X164087270Y-89900785D01*
X164156763Y-90004789D01*
X164245211Y-90093237D01*
X164349215Y-90162730D01*
X164464777Y-90210597D01*
X164587458Y-90235000D01*
X164591250Y-90235000D01*
X164750000Y-90076250D01*
X164750000Y-89427000D01*
X164173750Y-89427000D01*
X164015000Y-89585750D01*
X162349114Y-89585750D01*
X162363592Y-89556796D01*
X162377000Y-89500000D01*
X162377000Y-88552606D01*
X162552007Y-88377599D01*
X164441439Y-88399070D01*
X164441439Y-88399070D01*
G37*
X164441439Y-88399070D02*
X164349215Y-88437270D01*
X164245211Y-88506763D01*
X164156763Y-88595211D01*
X164087270Y-88699215D01*
X164039403Y-88814777D01*
X164015000Y-88937458D01*
X164015000Y-89014250D01*
X164173750Y-89173000D01*
X164750000Y-89173000D01*
X164750000Y-89153000D01*
X164950000Y-89153000D01*
X164950000Y-89173000D01*
X164997000Y-89173000D01*
X164997000Y-89427000D01*
X164950000Y-89427000D01*
X164950000Y-90076250D01*
X165108750Y-90235000D01*
X165112542Y-90235000D01*
X165235223Y-90210597D01*
X165350785Y-90162730D01*
X165454789Y-90093237D01*
X165522822Y-90025204D01*
X165550000Y-90029066D01*
X165950000Y-90029066D01*
X166017998Y-90023644D01*
X166075264Y-90005910D01*
X166159677Y-90090323D01*
X166199075Y-90122685D01*
X166238138Y-90155463D01*
X166240683Y-90156862D01*
X166242924Y-90158703D01*
X166287832Y-90182782D01*
X166332544Y-90207363D01*
X166335312Y-90208241D01*
X166337869Y-90209612D01*
X166386668Y-90224532D01*
X166435233Y-90239937D01*
X166438111Y-90240260D01*
X166440892Y-90241110D01*
X166491648Y-90246265D01*
X166542293Y-90251946D01*
X166547973Y-90251986D01*
X166548073Y-90251996D01*
X166548167Y-90251987D01*
X166550000Y-90252000D01*
X167440000Y-90252000D01*
X167490690Y-90247030D01*
X167541541Y-90242581D01*
X167544333Y-90241770D01*
X167547217Y-90241487D01*
X167595981Y-90226764D01*
X167644995Y-90212524D01*
X167647573Y-90211188D01*
X167650351Y-90210349D01*
X167695381Y-90186406D01*
X167740641Y-90162946D01*
X167742908Y-90161136D01*
X167745472Y-90159773D01*
X167785016Y-90127522D01*
X167824835Y-90095734D01*
X167828875Y-90091751D01*
X167828958Y-90091683D01*
X167829022Y-90091606D01*
X167830323Y-90090323D01*
X167996580Y-89924066D01*
X168465000Y-89924066D01*
X168532998Y-89918644D01*
X168648330Y-89882927D01*
X168749146Y-89816494D01*
X168827463Y-89724605D01*
X168847815Y-89679456D01*
X168873000Y-89717676D01*
X168873000Y-91500080D01*
X168857002Y-91501356D01*
X168741670Y-91537073D01*
X168640854Y-91603506D01*
X168562537Y-91695395D01*
X168512921Y-91805465D01*
X168495934Y-91925000D01*
X168495934Y-93475000D01*
X168501356Y-93542998D01*
X168537073Y-93658330D01*
X168603506Y-93759146D01*
X168695395Y-93837463D01*
X168805465Y-93887079D01*
X168873000Y-93896676D01*
X168873000Y-98400080D01*
X168857002Y-98401356D01*
X168741670Y-98437073D01*
X168640854Y-98503506D01*
X168562537Y-98595395D01*
X168512921Y-98705465D01*
X168495934Y-98825000D01*
X168495934Y-100375000D01*
X168501356Y-100442998D01*
X168537073Y-100558330D01*
X168603506Y-100659146D01*
X168695395Y-100737463D01*
X168805465Y-100787079D01*
X168873000Y-100796676D01*
X168873000Y-108400080D01*
X168857002Y-108401356D01*
X168741670Y-108437073D01*
X168640854Y-108503506D01*
X168562537Y-108595395D01*
X168512921Y-108705465D01*
X168495934Y-108825000D01*
X168495934Y-110375000D01*
X168501356Y-110442998D01*
X168537073Y-110558330D01*
X168603506Y-110659146D01*
X168695395Y-110737463D01*
X168805465Y-110787079D01*
X168883812Y-110798213D01*
X168892714Y-110817961D01*
X168910197Y-110839803D01*
X169373000Y-111302606D01*
X169373000Y-112498000D01*
X141458996Y-112498000D01*
X141546939Y-112414253D01*
X141962602Y-111825012D01*
X142255899Y-111166257D01*
X142415656Y-110463080D01*
X142427157Y-109639452D01*
X142287095Y-108932088D01*
X142012307Y-108265401D01*
X141613258Y-107664784D01*
X141255049Y-107304066D01*
X141925000Y-107304066D01*
X141992998Y-107298644D01*
X142076983Y-107272635D01*
X142081763Y-107279789D01*
X142170211Y-107368237D01*
X142274215Y-107437730D01*
X142389777Y-107485597D01*
X142512458Y-107510000D01*
X142964250Y-107510000D01*
X143123000Y-107351250D01*
X143123000Y-106227000D01*
X143377000Y-106227000D01*
X143377000Y-107351250D01*
X143535750Y-107510000D01*
X143987542Y-107510000D01*
X144025457Y-107502458D01*
X145045000Y-107502458D01*
X145045000Y-107979250D01*
X145203750Y-108138000D01*
X146373000Y-108138000D01*
X146373000Y-107088750D01*
X146627000Y-107088750D01*
X146627000Y-108138000D01*
X147796250Y-108138000D01*
X147955000Y-107979250D01*
X147955000Y-107502458D01*
X147930597Y-107379777D01*
X147882730Y-107264215D01*
X147813237Y-107160211D01*
X147724789Y-107071763D01*
X147620785Y-107002270D01*
X147505223Y-106954403D01*
X147382542Y-106930000D01*
X146785750Y-106930000D01*
X146627000Y-107088750D01*
X146373000Y-107088750D01*
X146214250Y-106930000D01*
X145617458Y-106930000D01*
X145494777Y-106954403D01*
X145379215Y-107002270D01*
X145275211Y-107071763D01*
X145186763Y-107160211D01*
X145117270Y-107264215D01*
X145069403Y-107379777D01*
X145045000Y-107502458D01*
X144025457Y-107502458D01*
X144110223Y-107485597D01*
X144225785Y-107437730D01*
X144329789Y-107368237D01*
X144418237Y-107279789D01*
X144487730Y-107175785D01*
X144535597Y-107060223D01*
X144560000Y-106937542D01*
X144560000Y-106385750D01*
X144401250Y-106227000D01*
X143377000Y-106227000D01*
X143123000Y-106227000D01*
X143103000Y-106227000D01*
X143103000Y-105973000D01*
X143123000Y-105973000D01*
X143123000Y-104848750D01*
X143377000Y-104848750D01*
X143377000Y-105973000D01*
X144401250Y-105973000D01*
X144560000Y-105814250D01*
X144560000Y-105262458D01*
X144535597Y-105139777D01*
X144487730Y-105024215D01*
X144418237Y-104920211D01*
X144329789Y-104831763D01*
X144225785Y-104762270D01*
X144110223Y-104714403D01*
X143987542Y-104690000D01*
X143535750Y-104690000D01*
X143377000Y-104848750D01*
X143123000Y-104848750D01*
X142964250Y-104690000D01*
X142512458Y-104690000D01*
X142389777Y-104714403D01*
X142274215Y-104762270D01*
X142170211Y-104831763D01*
X142081763Y-104920211D01*
X142076889Y-104927505D01*
X142044535Y-104912921D01*
X141925000Y-104895934D01*
X141610154Y-104895934D01*
X141609227Y-104895433D01*
X141525896Y-104869638D01*
X141442734Y-104843257D01*
X141439502Y-104842894D01*
X141436399Y-104841934D01*
X141398977Y-104838001D01*
X141277000Y-104716024D01*
X141277000Y-104114538D01*
X141279066Y-104100000D01*
X141279066Y-101400000D01*
X141277000Y-101374090D01*
X141277000Y-100150000D01*
X141259345Y-99969945D01*
X141207054Y-99796748D01*
X141122118Y-99637006D01*
X141073179Y-99577001D01*
X142848001Y-99577001D01*
X142898691Y-99572031D01*
X142949542Y-99567582D01*
X142952334Y-99566771D01*
X142955218Y-99566488D01*
X143003982Y-99551765D01*
X143052996Y-99537525D01*
X143055574Y-99536189D01*
X143058352Y-99535350D01*
X143074077Y-99526989D01*
X143197739Y-99526989D01*
X143343750Y-99673000D01*
X144143000Y-99673000D01*
X144143000Y-99653000D01*
X144397000Y-99653000D01*
X144397000Y-99673000D01*
X144417000Y-99673000D01*
X144417000Y-99927000D01*
X144397000Y-99927000D01*
X144397000Y-99947000D01*
X144143000Y-99947000D01*
X144143000Y-99927000D01*
X143343750Y-99927000D01*
X143185000Y-100085750D01*
X143185000Y-100362542D01*
X143209403Y-100485223D01*
X143257270Y-100600785D01*
X143326763Y-100704789D01*
X143415211Y-100793237D01*
X143501280Y-100850747D01*
X143464403Y-100939777D01*
X143440000Y-101062458D01*
X143440000Y-101223364D01*
X143437927Y-101216670D01*
X143371494Y-101115854D01*
X143279605Y-101037537D01*
X143169535Y-100987921D01*
X143050000Y-100970934D01*
X142050000Y-100970934D01*
X141982002Y-100976356D01*
X141866670Y-101012073D01*
X141765854Y-101078506D01*
X141687537Y-101170395D01*
X141637921Y-101280465D01*
X141620934Y-101400000D01*
X141620934Y-104100000D01*
X141626356Y-104167998D01*
X141662073Y-104283330D01*
X141728506Y-104384146D01*
X141820395Y-104462463D01*
X141930465Y-104512079D01*
X142050000Y-104529066D01*
X143050000Y-104529066D01*
X143117998Y-104523644D01*
X143233330Y-104487927D01*
X143325790Y-104427000D01*
X143966024Y-104427000D01*
X144394512Y-104855488D01*
X144448455Y-104899797D01*
X144487684Y-104948588D01*
X144626276Y-105064880D01*
X144784816Y-105152038D01*
X144957266Y-105206743D01*
X145137057Y-105226910D01*
X145150000Y-105227000D01*
X145367721Y-105227000D01*
X145450395Y-105297463D01*
X145560465Y-105347079D01*
X145680000Y-105364066D01*
X147320000Y-105364066D01*
X147387998Y-105358644D01*
X147503330Y-105322927D01*
X147604146Y-105256494D01*
X147682463Y-105164605D01*
X147732079Y-105054535D01*
X147749066Y-104935000D01*
X147749066Y-103958356D01*
X148178520Y-103528902D01*
X148199215Y-103542730D01*
X148314777Y-103590597D01*
X148437458Y-103615000D01*
X148714250Y-103615000D01*
X148873000Y-103456250D01*
X148873000Y-102657000D01*
X148853000Y-102657000D01*
X148853000Y-102403000D01*
X148873000Y-102403000D01*
X148873000Y-102383000D01*
X149127000Y-102383000D01*
X149127000Y-102403000D01*
X149147000Y-102403000D01*
X149147000Y-102657000D01*
X149127000Y-102657000D01*
X149127000Y-103456250D01*
X149285750Y-103615000D01*
X149562542Y-103615000D01*
X149573000Y-103612920D01*
X149573000Y-103710000D01*
X149579100Y-103772210D01*
X149584552Y-103834535D01*
X149585546Y-103837955D01*
X149585893Y-103841497D01*
X149603969Y-103901368D01*
X149621415Y-103961416D01*
X149623052Y-103964575D01*
X149624082Y-103967985D01*
X149653451Y-104023219D01*
X149682220Y-104078721D01*
X149684441Y-104081503D01*
X149686112Y-104084646D01*
X149725628Y-104133097D01*
X149764652Y-104181981D01*
X149769539Y-104186937D01*
X149769621Y-104187037D01*
X149769714Y-104187114D01*
X149771289Y-104188711D01*
X149885934Y-104303356D01*
X149885934Y-104595000D01*
X149891356Y-104662998D01*
X149927073Y-104778330D01*
X149993506Y-104879146D01*
X150010879Y-104893953D01*
X149950854Y-104933506D01*
X149872537Y-105025395D01*
X149852185Y-105070544D01*
X149786494Y-104970854D01*
X149694605Y-104892537D01*
X149584535Y-104842921D01*
X149465000Y-104825934D01*
X148815000Y-104825934D01*
X148747002Y-104831356D01*
X148631670Y-104867073D01*
X148530854Y-104933506D01*
X148452537Y-105025395D01*
X148402921Y-105135465D01*
X148385934Y-105255000D01*
X148385934Y-106245000D01*
X148391356Y-106312998D01*
X148427073Y-106428330D01*
X148493506Y-106529146D01*
X148585395Y-106607463D01*
X148588000Y-106608637D01*
X148588000Y-107140000D01*
X148592970Y-107190690D01*
X148597419Y-107241541D01*
X148598230Y-107244333D01*
X148598513Y-107247217D01*
X148613236Y-107295981D01*
X148620934Y-107322478D01*
X148620934Y-107550000D01*
X148626356Y-107617998D01*
X148662073Y-107733330D01*
X148728506Y-107834146D01*
X148820395Y-107912463D01*
X148930465Y-107962079D01*
X149050000Y-107979066D01*
X149450000Y-107979066D01*
X149478748Y-107976774D01*
X149545211Y-108043237D01*
X149649215Y-108112730D01*
X149764777Y-108160597D01*
X149887458Y-108185000D01*
X149891250Y-108185000D01*
X150050000Y-108026250D01*
X150050000Y-107377000D01*
X150003000Y-107377000D01*
X150003000Y-107123000D01*
X150050000Y-107123000D01*
X150050000Y-107103000D01*
X150250000Y-107103000D01*
X150250000Y-107123000D01*
X150297000Y-107123000D01*
X150297000Y-107377000D01*
X150250000Y-107377000D01*
X150250000Y-108026250D01*
X150335141Y-108111391D01*
X149523544Y-108922988D01*
X147955000Y-108922988D01*
X147955000Y-108550750D01*
X147796250Y-108392000D01*
X146627000Y-108392000D01*
X146627000Y-108412000D01*
X146373000Y-108412000D01*
X146373000Y-108392000D01*
X145203750Y-108392000D01*
X145045000Y-108550750D01*
X145045000Y-109027542D01*
X145069403Y-109150223D01*
X145117270Y-109265785D01*
X145186763Y-109369789D01*
X145275211Y-109458237D01*
X145368670Y-109520684D01*
X144931780Y-109957574D01*
X144849605Y-109887537D01*
X144739535Y-109837921D01*
X144620000Y-109820934D01*
X143120000Y-109820934D01*
X143052002Y-109826356D01*
X142936670Y-109862073D01*
X142835854Y-109928506D01*
X142757537Y-110020395D01*
X142707921Y-110130465D01*
X142690934Y-110250000D01*
X142690934Y-111750000D01*
X142696356Y-111817998D01*
X142732073Y-111933330D01*
X142798506Y-112034146D01*
X142890395Y-112112463D01*
X143000465Y-112162079D01*
X143120000Y-112179066D01*
X144620000Y-112179066D01*
X144687998Y-112173644D01*
X144803330Y-112137927D01*
X144904146Y-112071494D01*
X144982463Y-111979605D01*
X145032079Y-111869535D01*
X145049066Y-111750000D01*
X145049066Y-111400339D01*
X145054835Y-111395734D01*
X145058875Y-111391751D01*
X145058958Y-111391683D01*
X145059022Y-111391606D01*
X145060323Y-111390323D01*
X145250097Y-111200549D01*
X145273121Y-111325995D01*
X145358092Y-111540607D01*
X145483130Y-111734628D01*
X145643472Y-111900668D01*
X145833011Y-112032401D01*
X146044527Y-112124810D01*
X146269964Y-112174375D01*
X146500735Y-112179209D01*
X146728050Y-112139128D01*
X146943251Y-112055657D01*
X147138140Y-111931976D01*
X147305294Y-111772797D01*
X147438347Y-111584183D01*
X147452676Y-111552000D01*
X147500000Y-111552000D01*
X147550690Y-111547030D01*
X147601541Y-111542581D01*
X147604333Y-111541770D01*
X147607217Y-111541487D01*
X147655981Y-111526764D01*
X147704995Y-111512524D01*
X147707573Y-111511188D01*
X147710351Y-111510349D01*
X147755381Y-111486406D01*
X147800641Y-111462946D01*
X147802908Y-111461136D01*
X147805472Y-111459773D01*
X147845016Y-111427522D01*
X147851324Y-111422486D01*
X147898092Y-111540607D01*
X148023130Y-111734628D01*
X148183472Y-111900668D01*
X148373011Y-112032401D01*
X148584527Y-112124810D01*
X148809964Y-112174375D01*
X149040735Y-112179209D01*
X149268050Y-112139128D01*
X149483251Y-112055657D01*
X149678140Y-111931976D01*
X149845294Y-111772797D01*
X149978347Y-111584183D01*
X150049797Y-111423705D01*
X150084835Y-111395734D01*
X150088875Y-111391751D01*
X150088958Y-111391683D01*
X150089022Y-111391606D01*
X150090323Y-111390323D01*
X150322344Y-111158302D01*
X150353121Y-111325995D01*
X150438092Y-111540607D01*
X150563130Y-111734628D01*
X150723472Y-111900668D01*
X150913011Y-112032401D01*
X151124527Y-112124810D01*
X151349964Y-112174375D01*
X151580735Y-112179209D01*
X151808050Y-112139128D01*
X152023251Y-112055657D01*
X152178719Y-111956993D01*
X153252612Y-111956993D01*
X153318137Y-112195860D01*
X153565116Y-112311760D01*
X153829960Y-112377250D01*
X154102492Y-112389812D01*
X154372238Y-112348965D01*
X154628832Y-112256277D01*
X154741863Y-112195860D01*
X154807388Y-111956993D01*
X154030000Y-111179605D01*
X153252612Y-111956993D01*
X152178719Y-111956993D01*
X152218140Y-111931976D01*
X152385294Y-111772797D01*
X152518347Y-111584183D01*
X152593256Y-111415934D01*
X152604995Y-111412524D01*
X152607573Y-111411188D01*
X152610351Y-111410349D01*
X152655381Y-111386406D01*
X152690428Y-111368240D01*
X152773723Y-111598832D01*
X152834140Y-111711863D01*
X153073007Y-111777388D01*
X153850395Y-111000000D01*
X153836253Y-110985858D01*
X154015858Y-110806253D01*
X154030000Y-110820395D01*
X154044143Y-110806253D01*
X154223748Y-110985858D01*
X154209605Y-111000000D01*
X154986993Y-111777388D01*
X155225860Y-111711863D01*
X155341760Y-111464884D01*
X155407250Y-111200040D01*
X155408399Y-111175122D01*
X155443207Y-111190329D01*
X155601606Y-111225155D01*
X155763754Y-111228552D01*
X155923473Y-111200389D01*
X156074680Y-111141740D01*
X156211615Y-111054838D01*
X156329064Y-110942993D01*
X156422551Y-110810466D01*
X156488517Y-110662305D01*
X156524448Y-110504152D01*
X156527035Y-110318909D01*
X156495533Y-110159814D01*
X156433730Y-110009869D01*
X156343980Y-109874783D01*
X156229700Y-109759703D01*
X156142919Y-109701168D01*
X156154789Y-109693237D01*
X156222822Y-109625204D01*
X156250000Y-109629066D01*
X156650000Y-109629066D01*
X156717998Y-109623644D01*
X156833330Y-109587927D01*
X156913653Y-109534998D01*
X156927073Y-109578330D01*
X156993506Y-109679146D01*
X157085395Y-109757463D01*
X157195465Y-109807079D01*
X157315000Y-109824066D01*
X157965000Y-109824066D01*
X158032998Y-109818644D01*
X158148330Y-109782927D01*
X158249146Y-109716494D01*
X158327463Y-109624605D01*
X158347815Y-109579456D01*
X158413506Y-109679146D01*
X158505395Y-109757463D01*
X158615465Y-109807079D01*
X158735000Y-109824066D01*
X159385000Y-109824066D01*
X159452998Y-109818644D01*
X159523621Y-109796773D01*
X159160197Y-110160197D01*
X159133006Y-110200590D01*
X159123000Y-110250000D01*
X159123000Y-111000000D01*
X159132334Y-111047789D01*
X159160197Y-111089803D01*
X159660197Y-111589803D01*
X159700590Y-111616994D01*
X159750000Y-111627000D01*
X160500000Y-111627000D01*
X160547789Y-111617666D01*
X160589803Y-111589803D01*
X161089803Y-111089803D01*
X161113592Y-111056796D01*
X161354374Y-110575232D01*
X161802606Y-110127000D01*
X162250000Y-110127000D01*
X162297789Y-110117666D01*
X162339803Y-110089803D01*
X162589803Y-109839803D01*
X162616994Y-109799410D01*
X162627000Y-109750000D01*
X162627000Y-108500000D01*
X162613592Y-108443204D01*
X162597439Y-108410898D01*
X162662463Y-108334605D01*
X162709248Y-108230815D01*
X162754995Y-108217524D01*
X162757573Y-108216188D01*
X162760351Y-108215349D01*
X162805381Y-108191406D01*
X162850641Y-108167946D01*
X162852908Y-108166136D01*
X162855472Y-108164773D01*
X162895016Y-108132522D01*
X162934835Y-108100734D01*
X162938875Y-108096751D01*
X162938958Y-108096683D01*
X162939022Y-108096606D01*
X162940323Y-108095323D01*
X163337100Y-107698546D01*
X163393506Y-107784146D01*
X163485395Y-107862463D01*
X163595465Y-107912079D01*
X163715000Y-107929066D01*
X164365000Y-107929066D01*
X164432998Y-107923644D01*
X164548330Y-107887927D01*
X164649146Y-107821494D01*
X164727463Y-107729605D01*
X164747815Y-107684456D01*
X164813506Y-107784146D01*
X164905395Y-107862463D01*
X165015465Y-107912079D01*
X165135000Y-107929066D01*
X165785000Y-107929066D01*
X165852998Y-107923644D01*
X165968330Y-107887927D01*
X166069146Y-107821494D01*
X166147463Y-107729605D01*
X166197079Y-107619535D01*
X166205966Y-107557000D01*
X166373000Y-107557000D01*
X166373000Y-108750000D01*
X166382334Y-108797789D01*
X166410197Y-108839803D01*
X166660197Y-109089803D01*
X166700590Y-109116994D01*
X166750000Y-109127000D01*
X167750000Y-109127000D01*
X167797789Y-109117666D01*
X167839803Y-109089803D01*
X168089803Y-108839803D01*
X168116994Y-108799410D01*
X168127000Y-108750000D01*
X168127000Y-107808584D01*
X168173473Y-107800389D01*
X168324680Y-107741740D01*
X168461615Y-107654838D01*
X168579064Y-107542993D01*
X168672551Y-107410466D01*
X168738517Y-107262305D01*
X168774448Y-107104152D01*
X168777035Y-106918909D01*
X168745533Y-106759814D01*
X168683730Y-106609869D01*
X168593980Y-106474783D01*
X168479700Y-106359703D01*
X168345244Y-106269011D01*
X168195734Y-106206163D01*
X168036863Y-106173551D01*
X167874684Y-106172419D01*
X167715374Y-106202809D01*
X167565001Y-106263564D01*
X167429292Y-106352369D01*
X167326531Y-106453000D01*
X166209521Y-106453000D01*
X166208644Y-106442002D01*
X166172927Y-106326670D01*
X166106494Y-106225854D01*
X166014605Y-106147537D01*
X166012000Y-106146363D01*
X166012000Y-105859151D01*
X166069146Y-105821494D01*
X166147463Y-105729605D01*
X166197079Y-105619535D01*
X166214066Y-105500000D01*
X166214066Y-105469536D01*
X166221917Y-105469536D01*
X166251195Y-105629055D01*
X166310898Y-105779849D01*
X166398754Y-105916174D01*
X166511416Y-106032839D01*
X166644592Y-106125399D01*
X166793211Y-106190329D01*
X166951610Y-106225155D01*
X167113758Y-106228552D01*
X167273477Y-106200389D01*
X167424684Y-106141740D01*
X167561619Y-106054838D01*
X167679068Y-105942993D01*
X167772555Y-105810466D01*
X167838521Y-105662305D01*
X167874452Y-105504152D01*
X167877039Y-105318909D01*
X167845537Y-105159814D01*
X167783734Y-105009869D01*
X167693984Y-104874783D01*
X167579704Y-104759703D01*
X167445248Y-104669011D01*
X167295738Y-104606163D01*
X167136867Y-104573551D01*
X166974688Y-104572419D01*
X166815378Y-104602809D01*
X166665005Y-104663564D01*
X166529296Y-104752369D01*
X166413420Y-104865843D01*
X166321792Y-104999662D01*
X166257902Y-105148730D01*
X166224182Y-105307369D01*
X166221917Y-105469536D01*
X166214066Y-105469536D01*
X166214066Y-104510000D01*
X166208644Y-104442002D01*
X166172927Y-104326670D01*
X166106494Y-104225854D01*
X166014605Y-104147537D01*
X165904535Y-104097921D01*
X165785000Y-104080934D01*
X165135000Y-104080934D01*
X165067002Y-104086356D01*
X164951670Y-104122073D01*
X164850854Y-104188506D01*
X164772537Y-104280395D01*
X164752185Y-104325544D01*
X164686494Y-104225854D01*
X164594605Y-104147537D01*
X164484535Y-104097921D01*
X164365000Y-104080934D01*
X163715000Y-104080934D01*
X163647002Y-104086356D01*
X163531670Y-104122073D01*
X163430854Y-104188506D01*
X163352537Y-104280395D01*
X163302921Y-104390465D01*
X163294034Y-104453000D01*
X162750000Y-104453000D01*
X162699310Y-104457970D01*
X162648459Y-104462419D01*
X162645667Y-104463230D01*
X162642783Y-104463513D01*
X162594019Y-104478236D01*
X162547934Y-104491625D01*
X162547030Y-104482398D01*
X162542581Y-104431547D01*
X162541770Y-104428755D01*
X162541487Y-104425871D01*
X162526778Y-104377153D01*
X162512525Y-104328093D01*
X162511186Y-104325511D01*
X162510349Y-104322737D01*
X162486414Y-104277722D01*
X162462946Y-104232448D01*
X162461138Y-104230183D01*
X162459773Y-104227616D01*
X162427529Y-104188081D01*
X162395735Y-104148253D01*
X162391749Y-104144212D01*
X162391683Y-104144130D01*
X162391608Y-104144068D01*
X162390323Y-104142765D01*
X159962992Y-101715434D01*
X159984146Y-101701494D01*
X160062463Y-101609605D01*
X160112079Y-101499535D01*
X160129066Y-101380000D01*
X160129066Y-100480000D01*
X160123644Y-100412002D01*
X160087927Y-100296670D01*
X160021494Y-100195854D01*
X159929605Y-100117537D01*
X159893467Y-100101247D01*
X159984146Y-100041494D01*
X160062463Y-99949605D01*
X160112079Y-99839535D01*
X160129066Y-99720000D01*
X160129066Y-99500000D01*
X160923000Y-99500000D01*
X160923000Y-100300000D01*
X160938331Y-100360491D01*
X160970664Y-100399170D01*
X161470664Y-100799170D01*
X161500590Y-100816994D01*
X161550000Y-100827000D01*
X162050000Y-100827000D01*
X162080668Y-100823241D01*
X162126200Y-100801600D01*
X162526200Y-100501600D01*
X162566994Y-100449410D01*
X162577000Y-100400000D01*
X162577000Y-99600000D01*
X162573241Y-99569332D01*
X162551600Y-99523800D01*
X162251600Y-99123800D01*
X162199410Y-99083006D01*
X162150000Y-99073000D01*
X161550000Y-99073000D01*
X161484659Y-99091098D01*
X160984659Y-99391098D01*
X160961447Y-99408965D01*
X160933006Y-99450590D01*
X160923000Y-99500000D01*
X160129066Y-99500000D01*
X160129066Y-98927000D01*
X162646354Y-98927000D01*
X163214677Y-99495323D01*
X163254053Y-99527666D01*
X163274081Y-99544473D01*
X163276356Y-99572998D01*
X163312073Y-99688330D01*
X163378506Y-99789146D01*
X163470395Y-99867463D01*
X163580465Y-99917079D01*
X163700000Y-99934066D01*
X164300000Y-99934066D01*
X164367998Y-99928644D01*
X164483330Y-99892927D01*
X164584146Y-99826494D01*
X164662463Y-99734605D01*
X164712079Y-99624535D01*
X164729066Y-99505000D01*
X164729066Y-98705000D01*
X164723644Y-98637002D01*
X164694087Y-98541559D01*
X165015324Y-98220322D01*
X165047667Y-98180946D01*
X165080464Y-98141861D01*
X165081865Y-98139313D01*
X165083704Y-98137074D01*
X165107772Y-98092188D01*
X165132364Y-98047455D01*
X165133242Y-98044687D01*
X165134613Y-98042130D01*
X165149529Y-97993344D01*
X165164938Y-97944766D01*
X165165261Y-97941886D01*
X165166111Y-97939106D01*
X165171271Y-97888312D01*
X165176947Y-97837706D01*
X165176987Y-97832037D01*
X165176998Y-97831926D01*
X165176988Y-97831823D01*
X165177001Y-97829999D01*
X165177001Y-97378425D01*
X165244588Y-97425399D01*
X165393207Y-97490329D01*
X165551606Y-97525155D01*
X165713754Y-97528552D01*
X165873000Y-97500472D01*
X165873000Y-98750000D01*
X165882334Y-98797789D01*
X165910197Y-98839803D01*
X166160197Y-99089803D01*
X166200590Y-99116994D01*
X166250000Y-99127000D01*
X167500000Y-99127000D01*
X167547789Y-99117666D01*
X167589803Y-99089803D01*
X167839803Y-98839803D01*
X167866994Y-98799410D01*
X167877000Y-98750000D01*
X167877000Y-97500000D01*
X167867666Y-97452211D01*
X167839803Y-97410197D01*
X167589803Y-97160197D01*
X167549410Y-97133006D01*
X167500000Y-97123000D01*
X166363709Y-97123000D01*
X166372551Y-97110466D01*
X166438517Y-96962305D01*
X166474448Y-96804152D01*
X166477035Y-96618909D01*
X166445533Y-96459814D01*
X166383730Y-96309869D01*
X166293980Y-96174783D01*
X166179700Y-96059703D01*
X166106233Y-96010149D01*
X166147079Y-95919535D01*
X166164066Y-95800000D01*
X166164066Y-95261574D01*
X166210894Y-95379849D01*
X166298750Y-95516174D01*
X166411412Y-95632839D01*
X166544588Y-95725399D01*
X166693207Y-95790329D01*
X166851606Y-95825155D01*
X167013754Y-95828552D01*
X167173473Y-95800389D01*
X167324680Y-95741740D01*
X167461615Y-95654838D01*
X167579064Y-95542993D01*
X167672551Y-95410466D01*
X167738517Y-95262305D01*
X167774448Y-95104152D01*
X167777035Y-94918909D01*
X167745533Y-94759814D01*
X167683730Y-94609869D01*
X167593980Y-94474783D01*
X167479700Y-94359703D01*
X167345244Y-94269011D01*
X167195734Y-94206163D01*
X167036863Y-94173551D01*
X166874684Y-94172419D01*
X166715374Y-94202809D01*
X166565001Y-94263564D01*
X166429292Y-94352369D01*
X166313416Y-94465843D01*
X166221788Y-94599662D01*
X166158979Y-94746207D01*
X166158644Y-94742002D01*
X166122927Y-94626670D01*
X166056494Y-94525854D01*
X165975514Y-94456835D01*
X166029146Y-94421494D01*
X166107463Y-94329605D01*
X166157079Y-94219535D01*
X166174066Y-94100000D01*
X166174066Y-93110000D01*
X166168644Y-93042002D01*
X166132927Y-92926670D01*
X166066494Y-92825854D01*
X165974605Y-92747537D01*
X165864535Y-92697921D01*
X165745000Y-92680934D01*
X165095000Y-92680934D01*
X165027002Y-92686356D01*
X164911670Y-92722073D01*
X164810854Y-92788506D01*
X164732537Y-92880395D01*
X164712185Y-92925544D01*
X164646494Y-92825854D01*
X164554605Y-92747537D01*
X164444535Y-92697921D01*
X164325000Y-92680934D01*
X163675000Y-92680934D01*
X163607002Y-92686356D01*
X163491670Y-92722073D01*
X163390854Y-92788506D01*
X163312537Y-92880395D01*
X163262921Y-92990465D01*
X163245934Y-93110000D01*
X163245934Y-94100000D01*
X163251356Y-94167998D01*
X163287073Y-94283330D01*
X163353506Y-94384146D01*
X163434486Y-94453165D01*
X163380854Y-94488506D01*
X163302537Y-94580395D01*
X163252921Y-94690465D01*
X163235934Y-94810000D01*
X163235934Y-95800000D01*
X163241356Y-95867998D01*
X163277073Y-95983330D01*
X163337651Y-96075261D01*
X163337537Y-96075395D01*
X163287921Y-96185465D01*
X163270934Y-96305000D01*
X163270934Y-97105000D01*
X163276356Y-97172998D01*
X163312073Y-97288330D01*
X163378506Y-97389146D01*
X163470395Y-97467463D01*
X163580465Y-97517079D01*
X163700000Y-97534066D01*
X164073001Y-97534066D01*
X164073001Y-97601353D01*
X163609677Y-98064677D01*
X163577334Y-98104053D01*
X163544537Y-98143138D01*
X163543136Y-98145686D01*
X163541297Y-98147925D01*
X163517229Y-98192811D01*
X163501702Y-98221056D01*
X163265323Y-97984677D01*
X163225947Y-97952334D01*
X163186862Y-97919537D01*
X163184314Y-97918136D01*
X163182075Y-97916297D01*
X163137189Y-97892229D01*
X163092456Y-97867637D01*
X163089688Y-97866759D01*
X163087131Y-97865388D01*
X163038345Y-97850472D01*
X162989767Y-97835063D01*
X162986887Y-97834740D01*
X162984107Y-97833890D01*
X162933313Y-97828730D01*
X162882707Y-97823054D01*
X162880675Y-97823040D01*
X162913330Y-97812927D01*
X163014146Y-97746494D01*
X163092463Y-97654605D01*
X163142079Y-97544535D01*
X163159066Y-97425000D01*
X163159066Y-96425000D01*
X163153644Y-96357002D01*
X163117927Y-96241670D01*
X163051494Y-96140854D01*
X162989236Y-96087792D01*
X163010313Y-95995020D01*
X163012900Y-95809777D01*
X162981398Y-95650682D01*
X162919595Y-95500737D01*
X162829845Y-95365651D01*
X162715565Y-95250571D01*
X162633176Y-95194999D01*
X162647655Y-95177371D01*
X162680452Y-95138286D01*
X162681853Y-95135738D01*
X162683692Y-95133499D01*
X162707749Y-95088632D01*
X162732352Y-95043880D01*
X162733231Y-95041109D01*
X162734601Y-95038554D01*
X162749517Y-94989767D01*
X162764926Y-94941191D01*
X162765249Y-94938311D01*
X162766099Y-94935531D01*
X162771259Y-94884737D01*
X162776935Y-94834131D01*
X162776975Y-94828462D01*
X162776986Y-94828351D01*
X162776976Y-94828248D01*
X162776989Y-94826424D01*
X162776989Y-93233480D01*
X162772019Y-93182790D01*
X162767570Y-93131939D01*
X162766759Y-93129147D01*
X162766476Y-93126263D01*
X162751753Y-93077499D01*
X162737513Y-93028485D01*
X162736177Y-93025907D01*
X162735338Y-93023129D01*
X162711395Y-92978099D01*
X162687935Y-92932839D01*
X162686125Y-92930572D01*
X162684762Y-92928008D01*
X162652511Y-92888464D01*
X162650166Y-92885527D01*
X162652025Y-92752390D01*
X162620523Y-92593295D01*
X162558720Y-92443350D01*
X162522158Y-92388319D01*
X162539582Y-92371726D01*
X162633069Y-92239199D01*
X162699035Y-92091038D01*
X162734966Y-91932885D01*
X162737553Y-91747642D01*
X162706051Y-91588547D01*
X162644248Y-91438602D01*
X162554498Y-91303516D01*
X162440218Y-91188436D01*
X162305762Y-91097744D01*
X162299820Y-91095246D01*
X162314066Y-90995000D01*
X162314066Y-90005000D01*
X162308644Y-89937002D01*
X162272927Y-89821670D01*
X162249176Y-89785627D01*
X162349114Y-89585750D01*
X164015000Y-89585750D01*
X164015000Y-89662542D01*
X164039403Y-89785223D01*
X164087270Y-89900785D01*
X164156763Y-90004789D01*
X164245211Y-90093237D01*
X164349215Y-90162730D01*
X164464777Y-90210597D01*
X164587458Y-90235000D01*
X164591250Y-90235000D01*
X164750000Y-90076250D01*
X164750000Y-89427000D01*
X164173750Y-89427000D01*
X164015000Y-89585750D01*
X162349114Y-89585750D01*
X162363592Y-89556796D01*
X162377000Y-89500000D01*
X162377000Y-88552606D01*
X162552007Y-88377599D01*
X164441439Y-88399070D01*
G36*
X155536073Y-107921719D02*
X155575449Y-107954062D01*
X155614534Y-107986859D01*
X155617082Y-107988260D01*
X155619321Y-107990099D01*
X155664207Y-108014167D01*
X155708940Y-108038759D01*
X155711708Y-108039637D01*
X155714265Y-108041008D01*
X155728416Y-108045334D01*
X155650000Y-108123750D01*
X155650000Y-108773000D01*
X155697000Y-108773000D01*
X155697000Y-109027000D01*
X155650000Y-109027000D01*
X155650000Y-109047000D01*
X155450000Y-109047000D01*
X155450000Y-109027000D01*
X154873750Y-109027000D01*
X154715000Y-109185750D01*
X154715000Y-109262542D01*
X154739403Y-109385223D01*
X154787270Y-109500785D01*
X154856763Y-109604789D01*
X154945211Y-109693237D01*
X155049215Y-109762730D01*
X155133191Y-109797514D01*
X155063416Y-109865843D01*
X154982017Y-109984723D01*
X154923843Y-109926549D01*
X154807387Y-110043005D01*
X154741863Y-109804140D01*
X154494884Y-109688240D01*
X154230040Y-109622750D01*
X153957508Y-109610188D01*
X153854924Y-109625722D01*
X154390323Y-109090323D01*
X154422666Y-109050947D01*
X154455463Y-109011862D01*
X154456864Y-109009314D01*
X154458703Y-109007075D01*
X154482760Y-108962208D01*
X154507363Y-108917456D01*
X154508242Y-108914685D01*
X154509612Y-108912130D01*
X154524523Y-108863359D01*
X154539937Y-108814767D01*
X154540260Y-108811887D01*
X154541110Y-108809107D01*
X154546270Y-108758313D01*
X154551946Y-108707707D01*
X154551986Y-108702038D01*
X154551997Y-108701927D01*
X154551987Y-108701824D01*
X154552000Y-108700000D01*
X154552000Y-108537458D01*
X154715000Y-108537458D01*
X154715000Y-108614250D01*
X154873750Y-108773000D01*
X155450000Y-108773000D01*
X155450000Y-108123750D01*
X155291250Y-107965000D01*
X155287458Y-107965000D01*
X155164777Y-107989403D01*
X155049215Y-108037270D01*
X154945211Y-108106763D01*
X154856763Y-108195211D01*
X154787270Y-108299215D01*
X154739403Y-108414777D01*
X154715000Y-108537458D01*
X154552000Y-108537458D01*
X154552000Y-106937646D01*
X155536073Y-107921719D01*
X155536073Y-107921719D01*
G37*
X155536073Y-107921719D02*
X155575449Y-107954062D01*
X155614534Y-107986859D01*
X155617082Y-107988260D01*
X155619321Y-107990099D01*
X155664207Y-108014167D01*
X155708940Y-108038759D01*
X155711708Y-108039637D01*
X155714265Y-108041008D01*
X155728416Y-108045334D01*
X155650000Y-108123750D01*
X155650000Y-108773000D01*
X155697000Y-108773000D01*
X155697000Y-109027000D01*
X155650000Y-109027000D01*
X155650000Y-109047000D01*
X155450000Y-109047000D01*
X155450000Y-109027000D01*
X154873750Y-109027000D01*
X154715000Y-109185750D01*
X154715000Y-109262542D01*
X154739403Y-109385223D01*
X154787270Y-109500785D01*
X154856763Y-109604789D01*
X154945211Y-109693237D01*
X155049215Y-109762730D01*
X155133191Y-109797514D01*
X155063416Y-109865843D01*
X154982017Y-109984723D01*
X154923843Y-109926549D01*
X154807387Y-110043005D01*
X154741863Y-109804140D01*
X154494884Y-109688240D01*
X154230040Y-109622750D01*
X153957508Y-109610188D01*
X153854924Y-109625722D01*
X154390323Y-109090323D01*
X154422666Y-109050947D01*
X154455463Y-109011862D01*
X154456864Y-109009314D01*
X154458703Y-109007075D01*
X154482760Y-108962208D01*
X154507363Y-108917456D01*
X154508242Y-108914685D01*
X154509612Y-108912130D01*
X154524523Y-108863359D01*
X154539937Y-108814767D01*
X154540260Y-108811887D01*
X154541110Y-108809107D01*
X154546270Y-108758313D01*
X154551946Y-108707707D01*
X154551986Y-108702038D01*
X154551997Y-108701927D01*
X154551987Y-108701824D01*
X154552000Y-108700000D01*
X154552000Y-108537458D01*
X154715000Y-108537458D01*
X154715000Y-108614250D01*
X154873750Y-108773000D01*
X155450000Y-108773000D01*
X155450000Y-108123750D01*
X155291250Y-107965000D01*
X155287458Y-107965000D01*
X155164777Y-107989403D01*
X155049215Y-108037270D01*
X154945211Y-108106763D01*
X154856763Y-108195211D01*
X154787270Y-108299215D01*
X154739403Y-108414777D01*
X154715000Y-108537458D01*
X154552000Y-108537458D01*
X154552000Y-106937646D01*
X155536073Y-107921719D01*
G36*
X158052537Y-81575395D02*
X158002921Y-81685465D01*
X157985934Y-81805000D01*
X157985934Y-82273420D01*
X157655218Y-82604136D01*
X157614258Y-82504758D01*
X157486523Y-82312502D01*
X157323878Y-82148718D01*
X157132518Y-82019644D01*
X156919732Y-81930197D01*
X156693625Y-81883784D01*
X156462809Y-81882173D01*
X156236076Y-81925424D01*
X156022062Y-82011891D01*
X155828919Y-82138281D01*
X155664003Y-82299778D01*
X155533596Y-82490232D01*
X155442666Y-82702389D01*
X155394676Y-82928166D01*
X155391453Y-83158965D01*
X155433121Y-83385995D01*
X155518092Y-83600607D01*
X155643130Y-83794628D01*
X155803472Y-83960668D01*
X155993011Y-84092401D01*
X156204527Y-84184810D01*
X156429964Y-84234375D01*
X156660735Y-84239209D01*
X156888050Y-84199128D01*
X157103251Y-84115657D01*
X157202811Y-84052474D01*
X157187537Y-84070395D01*
X157137921Y-84180465D01*
X157120934Y-84300000D01*
X157120934Y-85100000D01*
X157126356Y-85167998D01*
X157162073Y-85283330D01*
X157228506Y-85384146D01*
X157320395Y-85462463D01*
X157430465Y-85512079D01*
X157550000Y-85529066D01*
X158150000Y-85529066D01*
X158217998Y-85523644D01*
X158333330Y-85487927D01*
X158434146Y-85421494D01*
X158512463Y-85329605D01*
X158562079Y-85219535D01*
X158579066Y-85100000D01*
X158579066Y-84300000D01*
X158573644Y-84232002D01*
X158537927Y-84116670D01*
X158471494Y-84015854D01*
X158402000Y-83956624D01*
X158402000Y-83418646D01*
X158473622Y-83347024D01*
X158471911Y-83469536D01*
X158501189Y-83629055D01*
X158560892Y-83779849D01*
X158648748Y-83916174D01*
X158761410Y-84032839D01*
X158894586Y-84125399D01*
X159043205Y-84190329D01*
X159201604Y-84225155D01*
X159363752Y-84228552D01*
X159523471Y-84200389D01*
X159674678Y-84141740D01*
X159801924Y-84060987D01*
X159894601Y-84125399D01*
X160043220Y-84190329D01*
X160201619Y-84225155D01*
X160347580Y-84228213D01*
X160408000Y-84288633D01*
X160408000Y-85445849D01*
X160350854Y-85483506D01*
X160272537Y-85575395D01*
X160252185Y-85620544D01*
X160186494Y-85520854D01*
X160094605Y-85442537D01*
X159984535Y-85392921D01*
X159865000Y-85375934D01*
X159215000Y-85375934D01*
X159147002Y-85381356D01*
X159031670Y-85417073D01*
X158930854Y-85483506D01*
X158852537Y-85575395D01*
X158802921Y-85685465D01*
X158794034Y-85748000D01*
X158550000Y-85748000D01*
X158499224Y-85752979D01*
X158448458Y-85757420D01*
X158445670Y-85758230D01*
X158442783Y-85758513D01*
X158394003Y-85773241D01*
X158345004Y-85787476D01*
X158342425Y-85788813D01*
X158339649Y-85789651D01*
X158294598Y-85813605D01*
X158249359Y-85837055D01*
X158247096Y-85838862D01*
X158244528Y-85840227D01*
X158204957Y-85872501D01*
X158165165Y-85904266D01*
X158161125Y-85908249D01*
X158161042Y-85908317D01*
X158160978Y-85908394D01*
X158159677Y-85909677D01*
X157798420Y-86270934D01*
X157550000Y-86270934D01*
X157502011Y-86274761D01*
X157502011Y-86000011D01*
X157497041Y-85949321D01*
X157492592Y-85898470D01*
X157491781Y-85895678D01*
X157491498Y-85892794D01*
X157476789Y-85844076D01*
X157462536Y-85795016D01*
X157461197Y-85792434D01*
X157460360Y-85789660D01*
X157436436Y-85744666D01*
X157412957Y-85699370D01*
X157411147Y-85697103D01*
X157409784Y-85694539D01*
X157377557Y-85655026D01*
X157345746Y-85615176D01*
X157341760Y-85611135D01*
X157341694Y-85611053D01*
X157341619Y-85610991D01*
X157340334Y-85609688D01*
X155840323Y-84109677D01*
X155800947Y-84077334D01*
X155761862Y-84044537D01*
X155759314Y-84043136D01*
X155757075Y-84041297D01*
X155712189Y-84017229D01*
X155667456Y-83992637D01*
X155664688Y-83991759D01*
X155662131Y-83990388D01*
X155613345Y-83975472D01*
X155564767Y-83960063D01*
X155561887Y-83959740D01*
X155559107Y-83958890D01*
X155508313Y-83953730D01*
X155457707Y-83948054D01*
X155452038Y-83948014D01*
X155451927Y-83948003D01*
X155451824Y-83948013D01*
X155450000Y-83948000D01*
X154804319Y-83948000D01*
X154925294Y-83832797D01*
X155058347Y-83644183D01*
X155152231Y-83433317D01*
X155203369Y-83208231D01*
X155207050Y-82944589D01*
X155162217Y-82718164D01*
X155074258Y-82504758D01*
X154946523Y-82312502D01*
X154783878Y-82148718D01*
X154592518Y-82019644D01*
X154379732Y-81930197D01*
X154153625Y-81883784D01*
X153922809Y-81882173D01*
X153696076Y-81925424D01*
X153482062Y-82011891D01*
X153288919Y-82138281D01*
X153124003Y-82299778D01*
X152993596Y-82490232D01*
X152902666Y-82702389D01*
X152854676Y-82928166D01*
X152851453Y-83158965D01*
X152893121Y-83385995D01*
X152978092Y-83600607D01*
X153103130Y-83794628D01*
X153251239Y-83948000D01*
X153158646Y-83948000D01*
X152618106Y-83407460D01*
X152663369Y-83208231D01*
X152667050Y-82944589D01*
X152622217Y-82718164D01*
X152534258Y-82504758D01*
X152406523Y-82312502D01*
X152243878Y-82148718D01*
X152052518Y-82019644D01*
X151839732Y-81930197D01*
X151613625Y-81883784D01*
X151382809Y-81882173D01*
X151156076Y-81925424D01*
X150942062Y-82011891D01*
X150748919Y-82138281D01*
X150584003Y-82299778D01*
X150453596Y-82490232D01*
X150362666Y-82702389D01*
X150324107Y-82883796D01*
X150298965Y-82717762D01*
X150206277Y-82461168D01*
X150145860Y-82348137D01*
X149906993Y-82282612D01*
X149129605Y-83060000D01*
X149143748Y-83074143D01*
X148964143Y-83253748D01*
X148950000Y-83239605D01*
X148935858Y-83253748D01*
X148756253Y-83074143D01*
X148770395Y-83060000D01*
X147993007Y-82282612D01*
X147754140Y-82348137D01*
X147638240Y-82595116D01*
X147572750Y-82859960D01*
X147572286Y-82870025D01*
X147542217Y-82718164D01*
X147454258Y-82504758D01*
X147326523Y-82312502D01*
X147163878Y-82148718D01*
X147096109Y-82103007D01*
X148172612Y-82103007D01*
X148950000Y-82880395D01*
X149727388Y-82103007D01*
X149661863Y-81864140D01*
X149414884Y-81748240D01*
X149150040Y-81682750D01*
X148877508Y-81670188D01*
X148607762Y-81711035D01*
X148351168Y-81803723D01*
X148238137Y-81864140D01*
X148172612Y-82103007D01*
X147096109Y-82103007D01*
X146972518Y-82019644D01*
X146759732Y-81930197D01*
X146533625Y-81883784D01*
X146302809Y-81882173D01*
X146076076Y-81925424D01*
X145862062Y-82011891D01*
X145668919Y-82138281D01*
X145504003Y-82299778D01*
X145373596Y-82490232D01*
X145282666Y-82702389D01*
X145234676Y-82928166D01*
X145231453Y-83158965D01*
X145273121Y-83385995D01*
X145358092Y-83600607D01*
X145483130Y-83794628D01*
X145643472Y-83960668D01*
X145833011Y-84092401D01*
X145867045Y-84107270D01*
X145867419Y-84111541D01*
X145868230Y-84114333D01*
X145868513Y-84117217D01*
X145883236Y-84165981D01*
X145897476Y-84214995D01*
X145898812Y-84217573D01*
X145899651Y-84220351D01*
X145923594Y-84265381D01*
X145947054Y-84310641D01*
X145948864Y-84312908D01*
X145950227Y-84315472D01*
X145982478Y-84355016D01*
X146014266Y-84394835D01*
X146018249Y-84398875D01*
X146018317Y-84398958D01*
X146018394Y-84399022D01*
X146019677Y-84400323D01*
X146083384Y-84464030D01*
X146076076Y-84465424D01*
X145862062Y-84551891D01*
X145668919Y-84678281D01*
X145504003Y-84839778D01*
X145373596Y-85030232D01*
X145282666Y-85242389D01*
X145234676Y-85468166D01*
X145231453Y-85698965D01*
X145273121Y-85925995D01*
X145358092Y-86140607D01*
X145483130Y-86334628D01*
X145643472Y-86500668D01*
X145833011Y-86632401D01*
X146044527Y-86724810D01*
X146269964Y-86774375D01*
X146500735Y-86779209D01*
X146728050Y-86739128D01*
X146943251Y-86655657D01*
X147138140Y-86531976D01*
X147305294Y-86372797D01*
X147438347Y-86184183D01*
X147532231Y-85973317D01*
X147583369Y-85748231D01*
X147587050Y-85484589D01*
X147542217Y-85258164D01*
X147467547Y-85076999D01*
X147893552Y-85076999D01*
X147822666Y-85242389D01*
X147774676Y-85468166D01*
X147771453Y-85698965D01*
X147813121Y-85925995D01*
X147898092Y-86140607D01*
X148023130Y-86334628D01*
X148183472Y-86500668D01*
X148373011Y-86632401D01*
X148584527Y-86724810D01*
X148809964Y-86774375D01*
X149040735Y-86779209D01*
X149268050Y-86739128D01*
X149483251Y-86655657D01*
X149678140Y-86531976D01*
X149845294Y-86372797D01*
X149978347Y-86184183D01*
X150072231Y-85973317D01*
X150123369Y-85748231D01*
X150127050Y-85484589D01*
X150082217Y-85258164D01*
X150007547Y-85076999D01*
X150433552Y-85076999D01*
X150362666Y-85242389D01*
X150314676Y-85468166D01*
X150311453Y-85698965D01*
X150353121Y-85925995D01*
X150438092Y-86140607D01*
X150563130Y-86334628D01*
X150723472Y-86500668D01*
X150913011Y-86632401D01*
X151124527Y-86724810D01*
X151349964Y-86774375D01*
X151580735Y-86779209D01*
X151808050Y-86739128D01*
X152023251Y-86655657D01*
X152218140Y-86531976D01*
X152337584Y-86418230D01*
X153209677Y-87290323D01*
X153249053Y-87322666D01*
X153288138Y-87355463D01*
X153290686Y-87356864D01*
X153292925Y-87358703D01*
X153337811Y-87382771D01*
X153382544Y-87407363D01*
X153385312Y-87408241D01*
X153387869Y-87409612D01*
X153436655Y-87424528D01*
X153460352Y-87432044D01*
X153429292Y-87452369D01*
X153313416Y-87565843D01*
X153265677Y-87635564D01*
X153195734Y-87606163D01*
X153036863Y-87573551D01*
X152874684Y-87572419D01*
X152715374Y-87602809D01*
X152565001Y-87663564D01*
X152429292Y-87752369D01*
X152313416Y-87865843D01*
X152221788Y-87999662D01*
X152157898Y-88148730D01*
X152124178Y-88307369D01*
X152121913Y-88469536D01*
X152151191Y-88629055D01*
X152210894Y-88779849D01*
X152298750Y-88916174D01*
X152411412Y-89032839D01*
X152505463Y-89098206D01*
X151726973Y-89876696D01*
X151685223Y-89859403D01*
X151562542Y-89835000D01*
X151285750Y-89835000D01*
X151127000Y-89993750D01*
X151127000Y-90793000D01*
X151147000Y-90793000D01*
X151147000Y-91047000D01*
X151127000Y-91047000D01*
X151127000Y-91067000D01*
X150873000Y-91067000D01*
X150873000Y-91047000D01*
X150023750Y-91047000D01*
X149865000Y-91205750D01*
X149865000Y-91432542D01*
X149889403Y-91555223D01*
X149937270Y-91670785D01*
X150006763Y-91774789D01*
X150042531Y-91810557D01*
X149861397Y-91810557D01*
X149773714Y-91722260D01*
X149639258Y-91631568D01*
X149489748Y-91568720D01*
X149330877Y-91536108D01*
X149168698Y-91534976D01*
X149009388Y-91565366D01*
X148859015Y-91626121D01*
X148723306Y-91714926D01*
X148607430Y-91828400D01*
X148515802Y-91962219D01*
X148451912Y-92111287D01*
X148436093Y-92185708D01*
X148409214Y-92185520D01*
X148249904Y-92215910D01*
X148099531Y-92276665D01*
X147963822Y-92365470D01*
X147847946Y-92478944D01*
X147756318Y-92612763D01*
X147692428Y-92761831D01*
X147658708Y-92920470D01*
X147656443Y-93082637D01*
X147685721Y-93242156D01*
X147745424Y-93392950D01*
X147833280Y-93529275D01*
X147945942Y-93645940D01*
X148079118Y-93738500D01*
X148227737Y-93803430D01*
X148386136Y-93838256D01*
X148548284Y-93841653D01*
X148708003Y-93813490D01*
X148774899Y-93787543D01*
X148923001Y-93935645D01*
X148923001Y-94830001D01*
X148927971Y-94880691D01*
X148932420Y-94931542D01*
X148933231Y-94934334D01*
X148933514Y-94937218D01*
X148948237Y-94985982D01*
X148962477Y-95034996D01*
X148963813Y-95037574D01*
X148964652Y-95040352D01*
X148988578Y-95085351D01*
X149012055Y-95130642D01*
X149013865Y-95132909D01*
X149015228Y-95135473D01*
X149047479Y-95175017D01*
X149079267Y-95214836D01*
X149083250Y-95218876D01*
X149083318Y-95218959D01*
X149083395Y-95219023D01*
X149084678Y-95220324D01*
X149312354Y-95448000D01*
X148728646Y-95448000D01*
X147640323Y-94359677D01*
X147600947Y-94327334D01*
X147561862Y-94294537D01*
X147559314Y-94293136D01*
X147557075Y-94291297D01*
X147512189Y-94267229D01*
X147467456Y-94242637D01*
X147464688Y-94241759D01*
X147462131Y-94240388D01*
X147429066Y-94230279D01*
X147429066Y-94000000D01*
X147423644Y-93932002D01*
X147387927Y-93816670D01*
X147321494Y-93715854D01*
X147229605Y-93637537D01*
X147119535Y-93587921D01*
X147000000Y-93570934D01*
X144300000Y-93570934D01*
X144232002Y-93576356D01*
X144116670Y-93612073D01*
X144015854Y-93678506D01*
X143937537Y-93770395D01*
X143910662Y-93830016D01*
X143889066Y-93808420D01*
X143889066Y-93690000D01*
X143883644Y-93622002D01*
X143847927Y-93506670D01*
X143781494Y-93405854D01*
X143689605Y-93327537D01*
X143579535Y-93277921D01*
X143460000Y-93260934D01*
X142740000Y-93260934D01*
X142672002Y-93266356D01*
X142556670Y-93302073D01*
X142455854Y-93368506D01*
X142377537Y-93460395D01*
X142327921Y-93570465D01*
X142310934Y-93690000D01*
X142310934Y-94221040D01*
X142246763Y-94285211D01*
X142177270Y-94389215D01*
X142129403Y-94504777D01*
X142105000Y-94627458D01*
X142105000Y-94764250D01*
X142263750Y-94923000D01*
X142973000Y-94923000D01*
X142973000Y-94903000D01*
X143227000Y-94903000D01*
X143227000Y-94923000D01*
X143247000Y-94923000D01*
X143247000Y-95177000D01*
X143227000Y-95177000D01*
X143227000Y-96223000D01*
X143247000Y-96223000D01*
X143247000Y-96477000D01*
X143227000Y-96477000D01*
X143227000Y-96497000D01*
X142973000Y-96497000D01*
X142973000Y-96477000D01*
X142263750Y-96477000D01*
X142105000Y-96635750D01*
X142105000Y-96772542D01*
X142129403Y-96895223D01*
X142177270Y-97010785D01*
X142246763Y-97114789D01*
X142310934Y-97178960D01*
X142310934Y-97710000D01*
X142316356Y-97777998D01*
X142352073Y-97893330D01*
X142418506Y-97994146D01*
X142510395Y-98072463D01*
X142620465Y-98122079D01*
X142740000Y-98139066D01*
X143460000Y-98139066D01*
X143527998Y-98133644D01*
X143643330Y-98097927D01*
X143744146Y-98031494D01*
X143822463Y-97939605D01*
X143872079Y-97829535D01*
X143889066Y-97710000D01*
X143889066Y-97591580D01*
X143908584Y-97572062D01*
X143912073Y-97583330D01*
X143978506Y-97684146D01*
X144070395Y-97762463D01*
X144180465Y-97812079D01*
X144300000Y-97829066D01*
X147000000Y-97829066D01*
X147067998Y-97823644D01*
X147183330Y-97787927D01*
X147284146Y-97721494D01*
X147362463Y-97629605D01*
X147412079Y-97519535D01*
X147429066Y-97400000D01*
X147429066Y-97252000D01*
X147457786Y-97252000D01*
X147518506Y-97344146D01*
X147610395Y-97422463D01*
X147720465Y-97472079D01*
X147840000Y-97489066D01*
X148185288Y-97489066D01*
X147651372Y-98022982D01*
X147002014Y-98022982D01*
X146951233Y-98027961D01*
X146900473Y-98032402D01*
X146897686Y-98033212D01*
X146894797Y-98033495D01*
X146845992Y-98048230D01*
X146797019Y-98062458D01*
X146794441Y-98063794D01*
X146791663Y-98064633D01*
X146746594Y-98088597D01*
X146701373Y-98112037D01*
X146699110Y-98113844D01*
X146696542Y-98115209D01*
X146656971Y-98147483D01*
X146617179Y-98179248D01*
X146613139Y-98183231D01*
X146613056Y-98183299D01*
X146612992Y-98183376D01*
X146611691Y-98184659D01*
X146373361Y-98422989D01*
X142898013Y-98422989D01*
X142847323Y-98427959D01*
X142796472Y-98432408D01*
X142793680Y-98433219D01*
X142790796Y-98433502D01*
X142742078Y-98448211D01*
X142693018Y-98462464D01*
X142690436Y-98463803D01*
X142687662Y-98464640D01*
X142671937Y-98473001D01*
X141175581Y-98473001D01*
X141177035Y-98368909D01*
X141145533Y-98209814D01*
X141083730Y-98059869D01*
X140993980Y-97924783D01*
X140879700Y-97809703D01*
X140745244Y-97719011D01*
X140595734Y-97656163D01*
X140436863Y-97623551D01*
X140274684Y-97622419D01*
X140115374Y-97652809D01*
X139965001Y-97713564D01*
X139829292Y-97802369D01*
X139713416Y-97915843D01*
X139621788Y-98049662D01*
X139557898Y-98198730D01*
X139524178Y-98357369D01*
X139521913Y-98519536D01*
X139551191Y-98679055D01*
X139610894Y-98829849D01*
X139698750Y-98966174D01*
X139811412Y-99082839D01*
X139944588Y-99175399D01*
X140093207Y-99240329D01*
X140139000Y-99250397D01*
X140002740Y-99290501D01*
X139842409Y-99374319D01*
X139701412Y-99487684D01*
X139585120Y-99626276D01*
X139497962Y-99784816D01*
X139443257Y-99957266D01*
X139423090Y-100137057D01*
X139423000Y-100150000D01*
X139423000Y-101385462D01*
X139420934Y-101400000D01*
X139420934Y-104100000D01*
X139423000Y-104125910D01*
X139423000Y-104566024D01*
X138844512Y-105144512D01*
X138788183Y-105213088D01*
X138731482Y-105281628D01*
X138730707Y-105283061D01*
X138729678Y-105284314D01*
X138687731Y-105362544D01*
X138645433Y-105440773D01*
X138644953Y-105442324D01*
X138644184Y-105443758D01*
X138618200Y-105528749D01*
X138591934Y-105613601D01*
X138591764Y-105615218D01*
X138591289Y-105616772D01*
X138582312Y-105705152D01*
X138573023Y-105793528D01*
X138573170Y-105795147D01*
X138573006Y-105796764D01*
X138581380Y-105885359D01*
X138589420Y-105973702D01*
X138589878Y-105975257D01*
X138590031Y-105976880D01*
X138615471Y-106062214D01*
X138640501Y-106147260D01*
X138641253Y-106148699D01*
X138641718Y-106150258D01*
X138683163Y-106228866D01*
X138724319Y-106307591D01*
X138725338Y-106308858D01*
X138726096Y-106310296D01*
X138736105Y-106322656D01*
X138415132Y-106320415D01*
X137706807Y-106455535D01*
X137038218Y-106725663D01*
X136752000Y-106912959D01*
X136752000Y-99269536D01*
X137371913Y-99269536D01*
X137401191Y-99429055D01*
X137460894Y-99579849D01*
X137548750Y-99716174D01*
X137661412Y-99832839D01*
X137794588Y-99925399D01*
X137943207Y-99990329D01*
X138101606Y-100025155D01*
X138263754Y-100028552D01*
X138423473Y-100000389D01*
X138574680Y-99941740D01*
X138711615Y-99854838D01*
X138829064Y-99742993D01*
X138922551Y-99610466D01*
X138988517Y-99462305D01*
X139024448Y-99304152D01*
X139026654Y-99146195D01*
X139055462Y-99111863D01*
X139056863Y-99109315D01*
X139058702Y-99107076D01*
X139082770Y-99062190D01*
X139107362Y-99017457D01*
X139108240Y-99014689D01*
X139109611Y-99012132D01*
X139124527Y-98963346D01*
X139139936Y-98914768D01*
X139140259Y-98911888D01*
X139141109Y-98909108D01*
X139146269Y-98858314D01*
X139151945Y-98807708D01*
X139151985Y-98802039D01*
X139151996Y-98801928D01*
X139151986Y-98801825D01*
X139151999Y-98800001D01*
X139151999Y-95335750D01*
X142105000Y-95335750D01*
X142105000Y-95472542D01*
X142129403Y-95595223D01*
X142172803Y-95700000D01*
X142129403Y-95804777D01*
X142105000Y-95927458D01*
X142105000Y-96064250D01*
X142263750Y-96223000D01*
X142973000Y-96223000D01*
X142973000Y-95177000D01*
X142263750Y-95177000D01*
X142105000Y-95335750D01*
X139151999Y-95335750D01*
X139151999Y-93549999D01*
X139147029Y-93499309D01*
X139142580Y-93448458D01*
X139141769Y-93445666D01*
X139141486Y-93442782D01*
X139126777Y-93394064D01*
X139112524Y-93345004D01*
X139111185Y-93342422D01*
X139110348Y-93339648D01*
X139086413Y-93294633D01*
X139062945Y-93249359D01*
X139061137Y-93247094D01*
X139059772Y-93244527D01*
X139027528Y-93204992D01*
X138995734Y-93165164D01*
X138991748Y-93161123D01*
X138991682Y-93161041D01*
X138991607Y-93160979D01*
X138990322Y-93159676D01*
X138690323Y-92859677D01*
X138650947Y-92827334D01*
X138611862Y-92794537D01*
X138609314Y-92793136D01*
X138607075Y-92791297D01*
X138562189Y-92767229D01*
X138517456Y-92742637D01*
X138514688Y-92741759D01*
X138512131Y-92740388D01*
X138496424Y-92735586D01*
X138460485Y-92716315D01*
X138413909Y-92691132D01*
X138412985Y-92690846D01*
X138412131Y-92690388D01*
X138361514Y-92674913D01*
X138310995Y-92659274D01*
X138310032Y-92659173D01*
X138309107Y-92658890D01*
X138256505Y-92653547D01*
X138203854Y-92648013D01*
X138202890Y-92648101D01*
X138201927Y-92648003D01*
X138149343Y-92652974D01*
X138096566Y-92657777D01*
X138095635Y-92658051D01*
X138094673Y-92658142D01*
X138043908Y-92673275D01*
X137993217Y-92688195D01*
X137992363Y-92688641D01*
X137991432Y-92688919D01*
X137944527Y-92713649D01*
X137897745Y-92738106D01*
X137896991Y-92738712D01*
X137896134Y-92739164D01*
X137854897Y-92772557D01*
X137813786Y-92805611D01*
X137813167Y-92806349D01*
X137812411Y-92806961D01*
X137778479Y-92847688D01*
X137744537Y-92888138D01*
X137744070Y-92888987D01*
X137743452Y-92889729D01*
X137718229Y-92935993D01*
X137692637Y-92982544D01*
X137692343Y-92983472D01*
X137691882Y-92984317D01*
X137676075Y-93034754D01*
X137660063Y-93085233D01*
X137659956Y-93086191D01*
X137659665Y-93087118D01*
X137653932Y-93139893D01*
X137648054Y-93192293D01*
X137648041Y-93194116D01*
X137648030Y-93194219D01*
X137648040Y-93194330D01*
X137648000Y-93200000D01*
X137648000Y-93350000D01*
X137658513Y-93457217D01*
X137689651Y-93560351D01*
X137740227Y-93655472D01*
X137808317Y-93738958D01*
X137891326Y-93807629D01*
X137986091Y-93858868D01*
X138047999Y-93878032D01*
X138047999Y-98387047D01*
X137965374Y-98402809D01*
X137815001Y-98463564D01*
X137679292Y-98552369D01*
X137563416Y-98665843D01*
X137471788Y-98799662D01*
X137407898Y-98948730D01*
X137374178Y-99107369D01*
X137371913Y-99269536D01*
X136752000Y-99269536D01*
X136752000Y-90669542D01*
X140521913Y-90669542D01*
X140551191Y-90829061D01*
X140610894Y-90979855D01*
X140698750Y-91116180D01*
X140811412Y-91232845D01*
X140944588Y-91325405D01*
X141093207Y-91390335D01*
X141251606Y-91425161D01*
X141413754Y-91428558D01*
X141573473Y-91400395D01*
X141724680Y-91341746D01*
X141861615Y-91254844D01*
X141979064Y-91142999D01*
X142072551Y-91010472D01*
X142138517Y-90862311D01*
X142174448Y-90704158D01*
X142177035Y-90518915D01*
X142145533Y-90359820D01*
X142083730Y-90209875D01*
X141993980Y-90074789D01*
X141879700Y-89959709D01*
X141745244Y-89869017D01*
X141595734Y-89806169D01*
X141436863Y-89773557D01*
X141274684Y-89772425D01*
X141115374Y-89802815D01*
X140965001Y-89863570D01*
X140829292Y-89952375D01*
X140713416Y-90065849D01*
X140621788Y-90199668D01*
X140557898Y-90348736D01*
X140524178Y-90507375D01*
X140521913Y-90669542D01*
X136752000Y-90669542D01*
X136752000Y-89669536D01*
X146371913Y-89669536D01*
X146401191Y-89829055D01*
X146460894Y-89979849D01*
X146548750Y-90116174D01*
X146661412Y-90232839D01*
X146794588Y-90325399D01*
X146943207Y-90390329D01*
X147101606Y-90425155D01*
X147263754Y-90428552D01*
X147383383Y-90407458D01*
X149865000Y-90407458D01*
X149865000Y-90634250D01*
X150023750Y-90793000D01*
X150873000Y-90793000D01*
X150873000Y-89993750D01*
X150714250Y-89835000D01*
X150437458Y-89835000D01*
X150314777Y-89859403D01*
X150199215Y-89907270D01*
X150095211Y-89976763D01*
X150006763Y-90065211D01*
X149937270Y-90169215D01*
X149889403Y-90284777D01*
X149865000Y-90407458D01*
X147383383Y-90407458D01*
X147423473Y-90400389D01*
X147574680Y-90341740D01*
X147711615Y-90254838D01*
X147829064Y-90142993D01*
X147922551Y-90010466D01*
X147988517Y-89862305D01*
X148024448Y-89704152D01*
X148027035Y-89518909D01*
X147995533Y-89359814D01*
X147933730Y-89209869D01*
X147843980Y-89074783D01*
X147729700Y-88959703D01*
X147595244Y-88869011D01*
X147445734Y-88806163D01*
X147286863Y-88773551D01*
X147124684Y-88772419D01*
X146965374Y-88802809D01*
X146815001Y-88863564D01*
X146679292Y-88952369D01*
X146563416Y-89065843D01*
X146471788Y-89199662D01*
X146407898Y-89348730D01*
X146374178Y-89507369D01*
X146371913Y-89669536D01*
X136752000Y-89669536D01*
X136752000Y-86706722D01*
X136855332Y-86813725D01*
X137447461Y-87225265D01*
X138108247Y-87513955D01*
X138812522Y-87668800D01*
X139533461Y-87683902D01*
X140243603Y-87558684D01*
X140915898Y-87297918D01*
X141524740Y-86911535D01*
X142046939Y-86414253D01*
X142462602Y-85825012D01*
X142690934Y-85312171D01*
X142690934Y-86350000D01*
X142696356Y-86417998D01*
X142732073Y-86533330D01*
X142798506Y-86634146D01*
X142890395Y-86712463D01*
X143000465Y-86762079D01*
X143120000Y-86779066D01*
X144620000Y-86779066D01*
X144687998Y-86773644D01*
X144803330Y-86737927D01*
X144904146Y-86671494D01*
X144982463Y-86579605D01*
X145032079Y-86469535D01*
X145049066Y-86350000D01*
X145049066Y-84850000D01*
X145043644Y-84782002D01*
X145007927Y-84666670D01*
X144941494Y-84565854D01*
X144849605Y-84487537D01*
X144739535Y-84437921D01*
X144620000Y-84420934D01*
X143120000Y-84420934D01*
X143052002Y-84426356D01*
X142936670Y-84462073D01*
X142912225Y-84478181D01*
X142915656Y-84463080D01*
X142919531Y-84185596D01*
X143000465Y-84222079D01*
X143120000Y-84239066D01*
X144620000Y-84239066D01*
X144687998Y-84233644D01*
X144803330Y-84197927D01*
X144904146Y-84131494D01*
X144982463Y-84039605D01*
X145032079Y-83929535D01*
X145049066Y-83810000D01*
X145049066Y-82310000D01*
X145043644Y-82242002D01*
X145007927Y-82126670D01*
X144941494Y-82025854D01*
X144849605Y-81947537D01*
X144739535Y-81897921D01*
X144620000Y-81880934D01*
X143120000Y-81880934D01*
X143052002Y-81886356D01*
X142936670Y-81922073D01*
X142835854Y-81988506D01*
X142757537Y-82080395D01*
X142707921Y-82190465D01*
X142690934Y-82310000D01*
X142690934Y-82698783D01*
X142512307Y-82265401D01*
X142113258Y-81664784D01*
X141951606Y-81502000D01*
X158115092Y-81502000D01*
X158052537Y-81575395D01*
X158052537Y-81575395D01*
G37*
X158052537Y-81575395D02*
X158002921Y-81685465D01*
X157985934Y-81805000D01*
X157985934Y-82273420D01*
X157655218Y-82604136D01*
X157614258Y-82504758D01*
X157486523Y-82312502D01*
X157323878Y-82148718D01*
X157132518Y-82019644D01*
X156919732Y-81930197D01*
X156693625Y-81883784D01*
X156462809Y-81882173D01*
X156236076Y-81925424D01*
X156022062Y-82011891D01*
X155828919Y-82138281D01*
X155664003Y-82299778D01*
X155533596Y-82490232D01*
X155442666Y-82702389D01*
X155394676Y-82928166D01*
X155391453Y-83158965D01*
X155433121Y-83385995D01*
X155518092Y-83600607D01*
X155643130Y-83794628D01*
X155803472Y-83960668D01*
X155993011Y-84092401D01*
X156204527Y-84184810D01*
X156429964Y-84234375D01*
X156660735Y-84239209D01*
X156888050Y-84199128D01*
X157103251Y-84115657D01*
X157202811Y-84052474D01*
X157187537Y-84070395D01*
X157137921Y-84180465D01*
X157120934Y-84300000D01*
X157120934Y-85100000D01*
X157126356Y-85167998D01*
X157162073Y-85283330D01*
X157228506Y-85384146D01*
X157320395Y-85462463D01*
X157430465Y-85512079D01*
X157550000Y-85529066D01*
X158150000Y-85529066D01*
X158217998Y-85523644D01*
X158333330Y-85487927D01*
X158434146Y-85421494D01*
X158512463Y-85329605D01*
X158562079Y-85219535D01*
X158579066Y-85100000D01*
X158579066Y-84300000D01*
X158573644Y-84232002D01*
X158537927Y-84116670D01*
X158471494Y-84015854D01*
X158402000Y-83956624D01*
X158402000Y-83418646D01*
X158473622Y-83347024D01*
X158471911Y-83469536D01*
X158501189Y-83629055D01*
X158560892Y-83779849D01*
X158648748Y-83916174D01*
X158761410Y-84032839D01*
X158894586Y-84125399D01*
X159043205Y-84190329D01*
X159201604Y-84225155D01*
X159363752Y-84228552D01*
X159523471Y-84200389D01*
X159674678Y-84141740D01*
X159801924Y-84060987D01*
X159894601Y-84125399D01*
X160043220Y-84190329D01*
X160201619Y-84225155D01*
X160347580Y-84228213D01*
X160408000Y-84288633D01*
X160408000Y-85445849D01*
X160350854Y-85483506D01*
X160272537Y-85575395D01*
X160252185Y-85620544D01*
X160186494Y-85520854D01*
X160094605Y-85442537D01*
X159984535Y-85392921D01*
X159865000Y-85375934D01*
X159215000Y-85375934D01*
X159147002Y-85381356D01*
X159031670Y-85417073D01*
X158930854Y-85483506D01*
X158852537Y-85575395D01*
X158802921Y-85685465D01*
X158794034Y-85748000D01*
X158550000Y-85748000D01*
X158499224Y-85752979D01*
X158448458Y-85757420D01*
X158445670Y-85758230D01*
X158442783Y-85758513D01*
X158394003Y-85773241D01*
X158345004Y-85787476D01*
X158342425Y-85788813D01*
X158339649Y-85789651D01*
X158294598Y-85813605D01*
X158249359Y-85837055D01*
X158247096Y-85838862D01*
X158244528Y-85840227D01*
X158204957Y-85872501D01*
X158165165Y-85904266D01*
X158161125Y-85908249D01*
X158161042Y-85908317D01*
X158160978Y-85908394D01*
X158159677Y-85909677D01*
X157798420Y-86270934D01*
X157550000Y-86270934D01*
X157502011Y-86274761D01*
X157502011Y-86000011D01*
X157497041Y-85949321D01*
X157492592Y-85898470D01*
X157491781Y-85895678D01*
X157491498Y-85892794D01*
X157476789Y-85844076D01*
X157462536Y-85795016D01*
X157461197Y-85792434D01*
X157460360Y-85789660D01*
X157436436Y-85744666D01*
X157412957Y-85699370D01*
X157411147Y-85697103D01*
X157409784Y-85694539D01*
X157377557Y-85655026D01*
X157345746Y-85615176D01*
X157341760Y-85611135D01*
X157341694Y-85611053D01*
X157341619Y-85610991D01*
X157340334Y-85609688D01*
X155840323Y-84109677D01*
X155800947Y-84077334D01*
X155761862Y-84044537D01*
X155759314Y-84043136D01*
X155757075Y-84041297D01*
X155712189Y-84017229D01*
X155667456Y-83992637D01*
X155664688Y-83991759D01*
X155662131Y-83990388D01*
X155613345Y-83975472D01*
X155564767Y-83960063D01*
X155561887Y-83959740D01*
X155559107Y-83958890D01*
X155508313Y-83953730D01*
X155457707Y-83948054D01*
X155452038Y-83948014D01*
X155451927Y-83948003D01*
X155451824Y-83948013D01*
X155450000Y-83948000D01*
X154804319Y-83948000D01*
X154925294Y-83832797D01*
X155058347Y-83644183D01*
X155152231Y-83433317D01*
X155203369Y-83208231D01*
X155207050Y-82944589D01*
X155162217Y-82718164D01*
X155074258Y-82504758D01*
X154946523Y-82312502D01*
X154783878Y-82148718D01*
X154592518Y-82019644D01*
X154379732Y-81930197D01*
X154153625Y-81883784D01*
X153922809Y-81882173D01*
X153696076Y-81925424D01*
X153482062Y-82011891D01*
X153288919Y-82138281D01*
X153124003Y-82299778D01*
X152993596Y-82490232D01*
X152902666Y-82702389D01*
X152854676Y-82928166D01*
X152851453Y-83158965D01*
X152893121Y-83385995D01*
X152978092Y-83600607D01*
X153103130Y-83794628D01*
X153251239Y-83948000D01*
X153158646Y-83948000D01*
X152618106Y-83407460D01*
X152663369Y-83208231D01*
X152667050Y-82944589D01*
X152622217Y-82718164D01*
X152534258Y-82504758D01*
X152406523Y-82312502D01*
X152243878Y-82148718D01*
X152052518Y-82019644D01*
X151839732Y-81930197D01*
X151613625Y-81883784D01*
X151382809Y-81882173D01*
X151156076Y-81925424D01*
X150942062Y-82011891D01*
X150748919Y-82138281D01*
X150584003Y-82299778D01*
X150453596Y-82490232D01*
X150362666Y-82702389D01*
X150324107Y-82883796D01*
X150298965Y-82717762D01*
X150206277Y-82461168D01*
X150145860Y-82348137D01*
X149906993Y-82282612D01*
X149129605Y-83060000D01*
X149143748Y-83074143D01*
X148964143Y-83253748D01*
X148950000Y-83239605D01*
X148935858Y-83253748D01*
X148756253Y-83074143D01*
X148770395Y-83060000D01*
X147993007Y-82282612D01*
X147754140Y-82348137D01*
X147638240Y-82595116D01*
X147572750Y-82859960D01*
X147572286Y-82870025D01*
X147542217Y-82718164D01*
X147454258Y-82504758D01*
X147326523Y-82312502D01*
X147163878Y-82148718D01*
X147096109Y-82103007D01*
X148172612Y-82103007D01*
X148950000Y-82880395D01*
X149727388Y-82103007D01*
X149661863Y-81864140D01*
X149414884Y-81748240D01*
X149150040Y-81682750D01*
X148877508Y-81670188D01*
X148607762Y-81711035D01*
X148351168Y-81803723D01*
X148238137Y-81864140D01*
X148172612Y-82103007D01*
X147096109Y-82103007D01*
X146972518Y-82019644D01*
X146759732Y-81930197D01*
X146533625Y-81883784D01*
X146302809Y-81882173D01*
X146076076Y-81925424D01*
X145862062Y-82011891D01*
X145668919Y-82138281D01*
X145504003Y-82299778D01*
X145373596Y-82490232D01*
X145282666Y-82702389D01*
X145234676Y-82928166D01*
X145231453Y-83158965D01*
X145273121Y-83385995D01*
X145358092Y-83600607D01*
X145483130Y-83794628D01*
X145643472Y-83960668D01*
X145833011Y-84092401D01*
X145867045Y-84107270D01*
X145867419Y-84111541D01*
X145868230Y-84114333D01*
X145868513Y-84117217D01*
X145883236Y-84165981D01*
X145897476Y-84214995D01*
X145898812Y-84217573D01*
X145899651Y-84220351D01*
X145923594Y-84265381D01*
X145947054Y-84310641D01*
X145948864Y-84312908D01*
X145950227Y-84315472D01*
X145982478Y-84355016D01*
X146014266Y-84394835D01*
X146018249Y-84398875D01*
X146018317Y-84398958D01*
X146018394Y-84399022D01*
X146019677Y-84400323D01*
X146083384Y-84464030D01*
X146076076Y-84465424D01*
X145862062Y-84551891D01*
X145668919Y-84678281D01*
X145504003Y-84839778D01*
X145373596Y-85030232D01*
X145282666Y-85242389D01*
X145234676Y-85468166D01*
X145231453Y-85698965D01*
X145273121Y-85925995D01*
X145358092Y-86140607D01*
X145483130Y-86334628D01*
X145643472Y-86500668D01*
X145833011Y-86632401D01*
X146044527Y-86724810D01*
X146269964Y-86774375D01*
X146500735Y-86779209D01*
X146728050Y-86739128D01*
X146943251Y-86655657D01*
X147138140Y-86531976D01*
X147305294Y-86372797D01*
X147438347Y-86184183D01*
X147532231Y-85973317D01*
X147583369Y-85748231D01*
X147587050Y-85484589D01*
X147542217Y-85258164D01*
X147467547Y-85076999D01*
X147893552Y-85076999D01*
X147822666Y-85242389D01*
X147774676Y-85468166D01*
X147771453Y-85698965D01*
X147813121Y-85925995D01*
X147898092Y-86140607D01*
X148023130Y-86334628D01*
X148183472Y-86500668D01*
X148373011Y-86632401D01*
X148584527Y-86724810D01*
X148809964Y-86774375D01*
X149040735Y-86779209D01*
X149268050Y-86739128D01*
X149483251Y-86655657D01*
X149678140Y-86531976D01*
X149845294Y-86372797D01*
X149978347Y-86184183D01*
X150072231Y-85973317D01*
X150123369Y-85748231D01*
X150127050Y-85484589D01*
X150082217Y-85258164D01*
X150007547Y-85076999D01*
X150433552Y-85076999D01*
X150362666Y-85242389D01*
X150314676Y-85468166D01*
X150311453Y-85698965D01*
X150353121Y-85925995D01*
X150438092Y-86140607D01*
X150563130Y-86334628D01*
X150723472Y-86500668D01*
X150913011Y-86632401D01*
X151124527Y-86724810D01*
X151349964Y-86774375D01*
X151580735Y-86779209D01*
X151808050Y-86739128D01*
X152023251Y-86655657D01*
X152218140Y-86531976D01*
X152337584Y-86418230D01*
X153209677Y-87290323D01*
X153249053Y-87322666D01*
X153288138Y-87355463D01*
X153290686Y-87356864D01*
X153292925Y-87358703D01*
X153337811Y-87382771D01*
X153382544Y-87407363D01*
X153385312Y-87408241D01*
X153387869Y-87409612D01*
X153436655Y-87424528D01*
X153460352Y-87432044D01*
X153429292Y-87452369D01*
X153313416Y-87565843D01*
X153265677Y-87635564D01*
X153195734Y-87606163D01*
X153036863Y-87573551D01*
X152874684Y-87572419D01*
X152715374Y-87602809D01*
X152565001Y-87663564D01*
X152429292Y-87752369D01*
X152313416Y-87865843D01*
X152221788Y-87999662D01*
X152157898Y-88148730D01*
X152124178Y-88307369D01*
X152121913Y-88469536D01*
X152151191Y-88629055D01*
X152210894Y-88779849D01*
X152298750Y-88916174D01*
X152411412Y-89032839D01*
X152505463Y-89098206D01*
X151726973Y-89876696D01*
X151685223Y-89859403D01*
X151562542Y-89835000D01*
X151285750Y-89835000D01*
X151127000Y-89993750D01*
X151127000Y-90793000D01*
X151147000Y-90793000D01*
X151147000Y-91047000D01*
X151127000Y-91047000D01*
X151127000Y-91067000D01*
X150873000Y-91067000D01*
X150873000Y-91047000D01*
X150023750Y-91047000D01*
X149865000Y-91205750D01*
X149865000Y-91432542D01*
X149889403Y-91555223D01*
X149937270Y-91670785D01*
X150006763Y-91774789D01*
X150042531Y-91810557D01*
X149861397Y-91810557D01*
X149773714Y-91722260D01*
X149639258Y-91631568D01*
X149489748Y-91568720D01*
X149330877Y-91536108D01*
X149168698Y-91534976D01*
X149009388Y-91565366D01*
X148859015Y-91626121D01*
X148723306Y-91714926D01*
X148607430Y-91828400D01*
X148515802Y-91962219D01*
X148451912Y-92111287D01*
X148436093Y-92185708D01*
X148409214Y-92185520D01*
X148249904Y-92215910D01*
X148099531Y-92276665D01*
X147963822Y-92365470D01*
X147847946Y-92478944D01*
X147756318Y-92612763D01*
X147692428Y-92761831D01*
X147658708Y-92920470D01*
X147656443Y-93082637D01*
X147685721Y-93242156D01*
X147745424Y-93392950D01*
X147833280Y-93529275D01*
X147945942Y-93645940D01*
X148079118Y-93738500D01*
X148227737Y-93803430D01*
X148386136Y-93838256D01*
X148548284Y-93841653D01*
X148708003Y-93813490D01*
X148774899Y-93787543D01*
X148923001Y-93935645D01*
X148923001Y-94830001D01*
X148927971Y-94880691D01*
X148932420Y-94931542D01*
X148933231Y-94934334D01*
X148933514Y-94937218D01*
X148948237Y-94985982D01*
X148962477Y-95034996D01*
X148963813Y-95037574D01*
X148964652Y-95040352D01*
X148988578Y-95085351D01*
X149012055Y-95130642D01*
X149013865Y-95132909D01*
X149015228Y-95135473D01*
X149047479Y-95175017D01*
X149079267Y-95214836D01*
X149083250Y-95218876D01*
X149083318Y-95218959D01*
X149083395Y-95219023D01*
X149084678Y-95220324D01*
X149312354Y-95448000D01*
X148728646Y-95448000D01*
X147640323Y-94359677D01*
X147600947Y-94327334D01*
X147561862Y-94294537D01*
X147559314Y-94293136D01*
X147557075Y-94291297D01*
X147512189Y-94267229D01*
X147467456Y-94242637D01*
X147464688Y-94241759D01*
X147462131Y-94240388D01*
X147429066Y-94230279D01*
X147429066Y-94000000D01*
X147423644Y-93932002D01*
X147387927Y-93816670D01*
X147321494Y-93715854D01*
X147229605Y-93637537D01*
X147119535Y-93587921D01*
X147000000Y-93570934D01*
X144300000Y-93570934D01*
X144232002Y-93576356D01*
X144116670Y-93612073D01*
X144015854Y-93678506D01*
X143937537Y-93770395D01*
X143910662Y-93830016D01*
X143889066Y-93808420D01*
X143889066Y-93690000D01*
X143883644Y-93622002D01*
X143847927Y-93506670D01*
X143781494Y-93405854D01*
X143689605Y-93327537D01*
X143579535Y-93277921D01*
X143460000Y-93260934D01*
X142740000Y-93260934D01*
X142672002Y-93266356D01*
X142556670Y-93302073D01*
X142455854Y-93368506D01*
X142377537Y-93460395D01*
X142327921Y-93570465D01*
X142310934Y-93690000D01*
X142310934Y-94221040D01*
X142246763Y-94285211D01*
X142177270Y-94389215D01*
X142129403Y-94504777D01*
X142105000Y-94627458D01*
X142105000Y-94764250D01*
X142263750Y-94923000D01*
X142973000Y-94923000D01*
X142973000Y-94903000D01*
X143227000Y-94903000D01*
X143227000Y-94923000D01*
X143247000Y-94923000D01*
X143247000Y-95177000D01*
X143227000Y-95177000D01*
X143227000Y-96223000D01*
X143247000Y-96223000D01*
X143247000Y-96477000D01*
X143227000Y-96477000D01*
X143227000Y-96497000D01*
X142973000Y-96497000D01*
X142973000Y-96477000D01*
X142263750Y-96477000D01*
X142105000Y-96635750D01*
X142105000Y-96772542D01*
X142129403Y-96895223D01*
X142177270Y-97010785D01*
X142246763Y-97114789D01*
X142310934Y-97178960D01*
X142310934Y-97710000D01*
X142316356Y-97777998D01*
X142352073Y-97893330D01*
X142418506Y-97994146D01*
X142510395Y-98072463D01*
X142620465Y-98122079D01*
X142740000Y-98139066D01*
X143460000Y-98139066D01*
X143527998Y-98133644D01*
X143643330Y-98097927D01*
X143744146Y-98031494D01*
X143822463Y-97939605D01*
X143872079Y-97829535D01*
X143889066Y-97710000D01*
X143889066Y-97591580D01*
X143908584Y-97572062D01*
X143912073Y-97583330D01*
X143978506Y-97684146D01*
X144070395Y-97762463D01*
X144180465Y-97812079D01*
X144300000Y-97829066D01*
X147000000Y-97829066D01*
X147067998Y-97823644D01*
X147183330Y-97787927D01*
X147284146Y-97721494D01*
X147362463Y-97629605D01*
X147412079Y-97519535D01*
X147429066Y-97400000D01*
X147429066Y-97252000D01*
X147457786Y-97252000D01*
X147518506Y-97344146D01*
X147610395Y-97422463D01*
X147720465Y-97472079D01*
X147840000Y-97489066D01*
X148185288Y-97489066D01*
X147651372Y-98022982D01*
X147002014Y-98022982D01*
X146951233Y-98027961D01*
X146900473Y-98032402D01*
X146897686Y-98033212D01*
X146894797Y-98033495D01*
X146845992Y-98048230D01*
X146797019Y-98062458D01*
X146794441Y-98063794D01*
X146791663Y-98064633D01*
X146746594Y-98088597D01*
X146701373Y-98112037D01*
X146699110Y-98113844D01*
X146696542Y-98115209D01*
X146656971Y-98147483D01*
X146617179Y-98179248D01*
X146613139Y-98183231D01*
X146613056Y-98183299D01*
X146612992Y-98183376D01*
X146611691Y-98184659D01*
X146373361Y-98422989D01*
X142898013Y-98422989D01*
X142847323Y-98427959D01*
X142796472Y-98432408D01*
X142793680Y-98433219D01*
X142790796Y-98433502D01*
X142742078Y-98448211D01*
X142693018Y-98462464D01*
X142690436Y-98463803D01*
X142687662Y-98464640D01*
X142671937Y-98473001D01*
X141175581Y-98473001D01*
X141177035Y-98368909D01*
X141145533Y-98209814D01*
X141083730Y-98059869D01*
X140993980Y-97924783D01*
X140879700Y-97809703D01*
X140745244Y-97719011D01*
X140595734Y-97656163D01*
X140436863Y-97623551D01*
X140274684Y-97622419D01*
X140115374Y-97652809D01*
X139965001Y-97713564D01*
X139829292Y-97802369D01*
X139713416Y-97915843D01*
X139621788Y-98049662D01*
X139557898Y-98198730D01*
X139524178Y-98357369D01*
X139521913Y-98519536D01*
X139551191Y-98679055D01*
X139610894Y-98829849D01*
X139698750Y-98966174D01*
X139811412Y-99082839D01*
X139944588Y-99175399D01*
X140093207Y-99240329D01*
X140139000Y-99250397D01*
X140002740Y-99290501D01*
X139842409Y-99374319D01*
X139701412Y-99487684D01*
X139585120Y-99626276D01*
X139497962Y-99784816D01*
X139443257Y-99957266D01*
X139423090Y-100137057D01*
X139423000Y-100150000D01*
X139423000Y-101385462D01*
X139420934Y-101400000D01*
X139420934Y-104100000D01*
X139423000Y-104125910D01*
X139423000Y-104566024D01*
X138844512Y-105144512D01*
X138788183Y-105213088D01*
X138731482Y-105281628D01*
X138730707Y-105283061D01*
X138729678Y-105284314D01*
X138687731Y-105362544D01*
X138645433Y-105440773D01*
X138644953Y-105442324D01*
X138644184Y-105443758D01*
X138618200Y-105528749D01*
X138591934Y-105613601D01*
X138591764Y-105615218D01*
X138591289Y-105616772D01*
X138582312Y-105705152D01*
X138573023Y-105793528D01*
X138573170Y-105795147D01*
X138573006Y-105796764D01*
X138581380Y-105885359D01*
X138589420Y-105973702D01*
X138589878Y-105975257D01*
X138590031Y-105976880D01*
X138615471Y-106062214D01*
X138640501Y-106147260D01*
X138641253Y-106148699D01*
X138641718Y-106150258D01*
X138683163Y-106228866D01*
X138724319Y-106307591D01*
X138725338Y-106308858D01*
X138726096Y-106310296D01*
X138736105Y-106322656D01*
X138415132Y-106320415D01*
X137706807Y-106455535D01*
X137038218Y-106725663D01*
X136752000Y-106912959D01*
X136752000Y-99269536D01*
X137371913Y-99269536D01*
X137401191Y-99429055D01*
X137460894Y-99579849D01*
X137548750Y-99716174D01*
X137661412Y-99832839D01*
X137794588Y-99925399D01*
X137943207Y-99990329D01*
X138101606Y-100025155D01*
X138263754Y-100028552D01*
X138423473Y-100000389D01*
X138574680Y-99941740D01*
X138711615Y-99854838D01*
X138829064Y-99742993D01*
X138922551Y-99610466D01*
X138988517Y-99462305D01*
X139024448Y-99304152D01*
X139026654Y-99146195D01*
X139055462Y-99111863D01*
X139056863Y-99109315D01*
X139058702Y-99107076D01*
X139082770Y-99062190D01*
X139107362Y-99017457D01*
X139108240Y-99014689D01*
X139109611Y-99012132D01*
X139124527Y-98963346D01*
X139139936Y-98914768D01*
X139140259Y-98911888D01*
X139141109Y-98909108D01*
X139146269Y-98858314D01*
X139151945Y-98807708D01*
X139151985Y-98802039D01*
X139151996Y-98801928D01*
X139151986Y-98801825D01*
X139151999Y-98800001D01*
X139151999Y-95335750D01*
X142105000Y-95335750D01*
X142105000Y-95472542D01*
X142129403Y-95595223D01*
X142172803Y-95700000D01*
X142129403Y-95804777D01*
X142105000Y-95927458D01*
X142105000Y-96064250D01*
X142263750Y-96223000D01*
X142973000Y-96223000D01*
X142973000Y-95177000D01*
X142263750Y-95177000D01*
X142105000Y-95335750D01*
X139151999Y-95335750D01*
X139151999Y-93549999D01*
X139147029Y-93499309D01*
X139142580Y-93448458D01*
X139141769Y-93445666D01*
X139141486Y-93442782D01*
X139126777Y-93394064D01*
X139112524Y-93345004D01*
X139111185Y-93342422D01*
X139110348Y-93339648D01*
X139086413Y-93294633D01*
X139062945Y-93249359D01*
X139061137Y-93247094D01*
X139059772Y-93244527D01*
X139027528Y-93204992D01*
X138995734Y-93165164D01*
X138991748Y-93161123D01*
X138991682Y-93161041D01*
X138991607Y-93160979D01*
X138990322Y-93159676D01*
X138690323Y-92859677D01*
X138650947Y-92827334D01*
X138611862Y-92794537D01*
X138609314Y-92793136D01*
X138607075Y-92791297D01*
X138562189Y-92767229D01*
X138517456Y-92742637D01*
X138514688Y-92741759D01*
X138512131Y-92740388D01*
X138496424Y-92735586D01*
X138460485Y-92716315D01*
X138413909Y-92691132D01*
X138412985Y-92690846D01*
X138412131Y-92690388D01*
X138361514Y-92674913D01*
X138310995Y-92659274D01*
X138310032Y-92659173D01*
X138309107Y-92658890D01*
X138256505Y-92653547D01*
X138203854Y-92648013D01*
X138202890Y-92648101D01*
X138201927Y-92648003D01*
X138149343Y-92652974D01*
X138096566Y-92657777D01*
X138095635Y-92658051D01*
X138094673Y-92658142D01*
X138043908Y-92673275D01*
X137993217Y-92688195D01*
X137992363Y-92688641D01*
X137991432Y-92688919D01*
X137944527Y-92713649D01*
X137897745Y-92738106D01*
X137896991Y-92738712D01*
X137896134Y-92739164D01*
X137854897Y-92772557D01*
X137813786Y-92805611D01*
X137813167Y-92806349D01*
X137812411Y-92806961D01*
X137778479Y-92847688D01*
X137744537Y-92888138D01*
X137744070Y-92888987D01*
X137743452Y-92889729D01*
X137718229Y-92935993D01*
X137692637Y-92982544D01*
X137692343Y-92983472D01*
X137691882Y-92984317D01*
X137676075Y-93034754D01*
X137660063Y-93085233D01*
X137659956Y-93086191D01*
X137659665Y-93087118D01*
X137653932Y-93139893D01*
X137648054Y-93192293D01*
X137648041Y-93194116D01*
X137648030Y-93194219D01*
X137648040Y-93194330D01*
X137648000Y-93200000D01*
X137648000Y-93350000D01*
X137658513Y-93457217D01*
X137689651Y-93560351D01*
X137740227Y-93655472D01*
X137808317Y-93738958D01*
X137891326Y-93807629D01*
X137986091Y-93858868D01*
X138047999Y-93878032D01*
X138047999Y-98387047D01*
X137965374Y-98402809D01*
X137815001Y-98463564D01*
X137679292Y-98552369D01*
X137563416Y-98665843D01*
X137471788Y-98799662D01*
X137407898Y-98948730D01*
X137374178Y-99107369D01*
X137371913Y-99269536D01*
X136752000Y-99269536D01*
X136752000Y-90669542D01*
X140521913Y-90669542D01*
X140551191Y-90829061D01*
X140610894Y-90979855D01*
X140698750Y-91116180D01*
X140811412Y-91232845D01*
X140944588Y-91325405D01*
X141093207Y-91390335D01*
X141251606Y-91425161D01*
X141413754Y-91428558D01*
X141573473Y-91400395D01*
X141724680Y-91341746D01*
X141861615Y-91254844D01*
X141979064Y-91142999D01*
X142072551Y-91010472D01*
X142138517Y-90862311D01*
X142174448Y-90704158D01*
X142177035Y-90518915D01*
X142145533Y-90359820D01*
X142083730Y-90209875D01*
X141993980Y-90074789D01*
X141879700Y-89959709D01*
X141745244Y-89869017D01*
X141595734Y-89806169D01*
X141436863Y-89773557D01*
X141274684Y-89772425D01*
X141115374Y-89802815D01*
X140965001Y-89863570D01*
X140829292Y-89952375D01*
X140713416Y-90065849D01*
X140621788Y-90199668D01*
X140557898Y-90348736D01*
X140524178Y-90507375D01*
X140521913Y-90669542D01*
X136752000Y-90669542D01*
X136752000Y-89669536D01*
X146371913Y-89669536D01*
X146401191Y-89829055D01*
X146460894Y-89979849D01*
X146548750Y-90116174D01*
X146661412Y-90232839D01*
X146794588Y-90325399D01*
X146943207Y-90390329D01*
X147101606Y-90425155D01*
X147263754Y-90428552D01*
X147383383Y-90407458D01*
X149865000Y-90407458D01*
X149865000Y-90634250D01*
X150023750Y-90793000D01*
X150873000Y-90793000D01*
X150873000Y-89993750D01*
X150714250Y-89835000D01*
X150437458Y-89835000D01*
X150314777Y-89859403D01*
X150199215Y-89907270D01*
X150095211Y-89976763D01*
X150006763Y-90065211D01*
X149937270Y-90169215D01*
X149889403Y-90284777D01*
X149865000Y-90407458D01*
X147383383Y-90407458D01*
X147423473Y-90400389D01*
X147574680Y-90341740D01*
X147711615Y-90254838D01*
X147829064Y-90142993D01*
X147922551Y-90010466D01*
X147988517Y-89862305D01*
X148024448Y-89704152D01*
X148027035Y-89518909D01*
X147995533Y-89359814D01*
X147933730Y-89209869D01*
X147843980Y-89074783D01*
X147729700Y-88959703D01*
X147595244Y-88869011D01*
X147445734Y-88806163D01*
X147286863Y-88773551D01*
X147124684Y-88772419D01*
X146965374Y-88802809D01*
X146815001Y-88863564D01*
X146679292Y-88952369D01*
X146563416Y-89065843D01*
X146471788Y-89199662D01*
X146407898Y-89348730D01*
X146374178Y-89507369D01*
X146371913Y-89669536D01*
X136752000Y-89669536D01*
X136752000Y-86706722D01*
X136855332Y-86813725D01*
X137447461Y-87225265D01*
X138108247Y-87513955D01*
X138812522Y-87668800D01*
X139533461Y-87683902D01*
X140243603Y-87558684D01*
X140915898Y-87297918D01*
X141524740Y-86911535D01*
X142046939Y-86414253D01*
X142462602Y-85825012D01*
X142690934Y-85312171D01*
X142690934Y-86350000D01*
X142696356Y-86417998D01*
X142732073Y-86533330D01*
X142798506Y-86634146D01*
X142890395Y-86712463D01*
X143000465Y-86762079D01*
X143120000Y-86779066D01*
X144620000Y-86779066D01*
X144687998Y-86773644D01*
X144803330Y-86737927D01*
X144904146Y-86671494D01*
X144982463Y-86579605D01*
X145032079Y-86469535D01*
X145049066Y-86350000D01*
X145049066Y-84850000D01*
X145043644Y-84782002D01*
X145007927Y-84666670D01*
X144941494Y-84565854D01*
X144849605Y-84487537D01*
X144739535Y-84437921D01*
X144620000Y-84420934D01*
X143120000Y-84420934D01*
X143052002Y-84426356D01*
X142936670Y-84462073D01*
X142912225Y-84478181D01*
X142915656Y-84463080D01*
X142919531Y-84185596D01*
X143000465Y-84222079D01*
X143120000Y-84239066D01*
X144620000Y-84239066D01*
X144687998Y-84233644D01*
X144803330Y-84197927D01*
X144904146Y-84131494D01*
X144982463Y-84039605D01*
X145032079Y-83929535D01*
X145049066Y-83810000D01*
X145049066Y-82310000D01*
X145043644Y-82242002D01*
X145007927Y-82126670D01*
X144941494Y-82025854D01*
X144849605Y-81947537D01*
X144739535Y-81897921D01*
X144620000Y-81880934D01*
X143120000Y-81880934D01*
X143052002Y-81886356D01*
X142936670Y-81922073D01*
X142835854Y-81988506D01*
X142757537Y-82080395D01*
X142707921Y-82190465D01*
X142690934Y-82310000D01*
X142690934Y-82698783D01*
X142512307Y-82265401D01*
X142113258Y-81664784D01*
X141951606Y-81502000D01*
X158115092Y-81502000D01*
X158052537Y-81575395D01*
G36*
X159354611Y-104107831D02*
X159487787Y-104200391D01*
X159636406Y-104265321D01*
X159794805Y-104300147D01*
X159854271Y-104301393D01*
X159809128Y-104367322D01*
X159745238Y-104516390D01*
X159711518Y-104675029D01*
X159709253Y-104837196D01*
X159733483Y-104969213D01*
X159629700Y-104864703D01*
X159495244Y-104774011D01*
X159345734Y-104711163D01*
X159202383Y-104681737D01*
X159164066Y-104643420D01*
X159164066Y-104035000D01*
X159242542Y-104035000D01*
X159277554Y-104028036D01*
X159354611Y-104107831D01*
X159354611Y-104107831D01*
G37*
X159354611Y-104107831D02*
X159487787Y-104200391D01*
X159636406Y-104265321D01*
X159794805Y-104300147D01*
X159854271Y-104301393D01*
X159809128Y-104367322D01*
X159745238Y-104516390D01*
X159711518Y-104675029D01*
X159709253Y-104837196D01*
X159733483Y-104969213D01*
X159629700Y-104864703D01*
X159495244Y-104774011D01*
X159345734Y-104711163D01*
X159202383Y-104681737D01*
X159164066Y-104643420D01*
X159164066Y-104035000D01*
X159242542Y-104035000D01*
X159277554Y-104028036D01*
X159354611Y-104107831D01*
G36*
X158857000Y-102773000D02*
X158877000Y-102773000D01*
X158877000Y-103027000D01*
X158857000Y-103027000D01*
X158857000Y-103047000D01*
X158603000Y-103047000D01*
X158603000Y-103027000D01*
X158583000Y-103027000D01*
X158583000Y-102773000D01*
X158603000Y-102773000D01*
X158603000Y-102753000D01*
X158857000Y-102753000D01*
X158857000Y-102773000D01*
X158857000Y-102773000D01*
G37*
X158857000Y-102773000D02*
X158877000Y-102773000D01*
X158877000Y-103027000D01*
X158857000Y-103027000D01*
X158857000Y-103047000D01*
X158603000Y-103047000D01*
X158603000Y-103027000D01*
X158583000Y-103027000D01*
X158583000Y-102773000D01*
X158603000Y-102773000D01*
X158603000Y-102753000D01*
X158857000Y-102753000D01*
X158857000Y-102773000D01*
G36*
X144877000Y-101773000D02*
X144897000Y-101773000D01*
X144897000Y-102027000D01*
X144877000Y-102027000D01*
X144877000Y-102047000D01*
X144623000Y-102047000D01*
X144623000Y-102027000D01*
X144603000Y-102027000D01*
X144603000Y-101773000D01*
X144623000Y-101773000D01*
X144623000Y-101753000D01*
X144877000Y-101753000D01*
X144877000Y-101773000D01*
X144877000Y-101773000D01*
G37*
X144877000Y-101773000D02*
X144897000Y-101773000D01*
X144897000Y-102027000D01*
X144877000Y-102027000D01*
X144877000Y-102047000D01*
X144623000Y-102047000D01*
X144623000Y-102027000D01*
X144603000Y-102027000D01*
X144603000Y-101773000D01*
X144623000Y-101773000D01*
X144623000Y-101753000D01*
X144877000Y-101753000D01*
X144877000Y-101773000D01*
G36*
X153540227Y-94810078D02*
X153562500Y-94837387D01*
X153562500Y-95097993D01*
X153680218Y-95238324D01*
X153816636Y-95202474D01*
X153947598Y-95127204D01*
X153948000Y-95126853D01*
X153948000Y-95200000D01*
X153952970Y-95250690D01*
X153957419Y-95301541D01*
X153958230Y-95304333D01*
X153958513Y-95307217D01*
X153973236Y-95355981D01*
X153987476Y-95404995D01*
X153988812Y-95407573D01*
X153989651Y-95410351D01*
X154013594Y-95455381D01*
X154037054Y-95500641D01*
X154038864Y-95502908D01*
X154040227Y-95505472D01*
X154072478Y-95545016D01*
X154104266Y-95584835D01*
X154108249Y-95588875D01*
X154108317Y-95588958D01*
X154108394Y-95589022D01*
X154109359Y-95590000D01*
X153835750Y-95590000D01*
X153677000Y-95748750D01*
X153677000Y-95949009D01*
X153639403Y-96039777D01*
X153615000Y-96162458D01*
X153615000Y-96639250D01*
X153677000Y-96701250D01*
X153677000Y-96798000D01*
X154823000Y-96798000D01*
X154823000Y-96778000D01*
X155077000Y-96778000D01*
X155077000Y-96798000D01*
X155097000Y-96798000D01*
X155097000Y-97052000D01*
X155077000Y-97052000D01*
X155077000Y-98198000D01*
X155097000Y-98198000D01*
X155097000Y-98452000D01*
X155077000Y-98452000D01*
X155077000Y-98472000D01*
X154823000Y-98472000D01*
X154823000Y-98452000D01*
X153677000Y-98452000D01*
X153677000Y-98548750D01*
X153615000Y-98610750D01*
X153615000Y-99087542D01*
X153639403Y-99210223D01*
X153677000Y-99300991D01*
X153677000Y-99501250D01*
X153835750Y-99660000D01*
X154664250Y-99660000D01*
X154696983Y-99627267D01*
X154645710Y-99746897D01*
X154611990Y-99905536D01*
X154609725Y-100067703D01*
X154613402Y-100087736D01*
X154552402Y-100122796D01*
X154467813Y-100196687D01*
X154396566Y-100203171D01*
X154293217Y-100233589D01*
X154250133Y-100256112D01*
X154213909Y-100236526D01*
X154110995Y-100204668D01*
X154003854Y-100193407D01*
X153896566Y-100203171D01*
X153793217Y-100233589D01*
X153750133Y-100256112D01*
X153713909Y-100236526D01*
X153610995Y-100204668D01*
X153503854Y-100193407D01*
X153396566Y-100203171D01*
X153293217Y-100233589D01*
X153250133Y-100256112D01*
X153213909Y-100236526D01*
X153110995Y-100204668D01*
X153003854Y-100193407D01*
X152896566Y-100203171D01*
X152793217Y-100233589D01*
X152750133Y-100256112D01*
X152713909Y-100236526D01*
X152610995Y-100204668D01*
X152503854Y-100193407D01*
X152396566Y-100203171D01*
X152293217Y-100233589D01*
X152250133Y-100256112D01*
X152213909Y-100236526D01*
X152140094Y-100213676D01*
X152709317Y-99644457D01*
X152787458Y-99660000D01*
X153264250Y-99660000D01*
X153423000Y-99501250D01*
X153423000Y-98452000D01*
X153403000Y-98452000D01*
X153403000Y-98198000D01*
X153423000Y-98198000D01*
X153423000Y-97210750D01*
X153615000Y-97210750D01*
X153615000Y-98039250D01*
X153677000Y-98101250D01*
X153677000Y-98198000D01*
X153773750Y-98198000D01*
X153835750Y-98260000D01*
X154664250Y-98260000D01*
X154726250Y-98198000D01*
X154823000Y-98198000D01*
X154823000Y-98101250D01*
X154885000Y-98039250D01*
X154885000Y-97210750D01*
X154823000Y-97148750D01*
X154823000Y-97052000D01*
X154726250Y-97052000D01*
X154664250Y-96990000D01*
X153835750Y-96990000D01*
X153773750Y-97052000D01*
X153677000Y-97052000D01*
X153677000Y-97148750D01*
X153615000Y-97210750D01*
X153423000Y-97210750D01*
X153423000Y-97052000D01*
X153403000Y-97052000D01*
X153403000Y-96798000D01*
X153423000Y-96798000D01*
X153423000Y-95748750D01*
X153264250Y-95590000D01*
X153125835Y-95590000D01*
X153125835Y-95273835D01*
X153120865Y-95223149D01*
X153116416Y-95172294D01*
X153115605Y-95169502D01*
X153115322Y-95166618D01*
X153114134Y-95162685D01*
X153183364Y-95202474D01*
X153319782Y-95238324D01*
X153437500Y-95097993D01*
X153437500Y-94837875D01*
X153455463Y-94816468D01*
X153500280Y-94734947D01*
X153540227Y-94810078D01*
X153540227Y-94810078D01*
G37*
X153540227Y-94810078D02*
X153562500Y-94837387D01*
X153562500Y-95097993D01*
X153680218Y-95238324D01*
X153816636Y-95202474D01*
X153947598Y-95127204D01*
X153948000Y-95126853D01*
X153948000Y-95200000D01*
X153952970Y-95250690D01*
X153957419Y-95301541D01*
X153958230Y-95304333D01*
X153958513Y-95307217D01*
X153973236Y-95355981D01*
X153987476Y-95404995D01*
X153988812Y-95407573D01*
X153989651Y-95410351D01*
X154013594Y-95455381D01*
X154037054Y-95500641D01*
X154038864Y-95502908D01*
X154040227Y-95505472D01*
X154072478Y-95545016D01*
X154104266Y-95584835D01*
X154108249Y-95588875D01*
X154108317Y-95588958D01*
X154108394Y-95589022D01*
X154109359Y-95590000D01*
X153835750Y-95590000D01*
X153677000Y-95748750D01*
X153677000Y-95949009D01*
X153639403Y-96039777D01*
X153615000Y-96162458D01*
X153615000Y-96639250D01*
X153677000Y-96701250D01*
X153677000Y-96798000D01*
X154823000Y-96798000D01*
X154823000Y-96778000D01*
X155077000Y-96778000D01*
X155077000Y-96798000D01*
X155097000Y-96798000D01*
X155097000Y-97052000D01*
X155077000Y-97052000D01*
X155077000Y-98198000D01*
X155097000Y-98198000D01*
X155097000Y-98452000D01*
X155077000Y-98452000D01*
X155077000Y-98472000D01*
X154823000Y-98472000D01*
X154823000Y-98452000D01*
X153677000Y-98452000D01*
X153677000Y-98548750D01*
X153615000Y-98610750D01*
X153615000Y-99087542D01*
X153639403Y-99210223D01*
X153677000Y-99300991D01*
X153677000Y-99501250D01*
X153835750Y-99660000D01*
X154664250Y-99660000D01*
X154696983Y-99627267D01*
X154645710Y-99746897D01*
X154611990Y-99905536D01*
X154609725Y-100067703D01*
X154613402Y-100087736D01*
X154552402Y-100122796D01*
X154467813Y-100196687D01*
X154396566Y-100203171D01*
X154293217Y-100233589D01*
X154250133Y-100256112D01*
X154213909Y-100236526D01*
X154110995Y-100204668D01*
X154003854Y-100193407D01*
X153896566Y-100203171D01*
X153793217Y-100233589D01*
X153750133Y-100256112D01*
X153713909Y-100236526D01*
X153610995Y-100204668D01*
X153503854Y-100193407D01*
X153396566Y-100203171D01*
X153293217Y-100233589D01*
X153250133Y-100256112D01*
X153213909Y-100236526D01*
X153110995Y-100204668D01*
X153003854Y-100193407D01*
X152896566Y-100203171D01*
X152793217Y-100233589D01*
X152750133Y-100256112D01*
X152713909Y-100236526D01*
X152610995Y-100204668D01*
X152503854Y-100193407D01*
X152396566Y-100203171D01*
X152293217Y-100233589D01*
X152250133Y-100256112D01*
X152213909Y-100236526D01*
X152140094Y-100213676D01*
X152709317Y-99644457D01*
X152787458Y-99660000D01*
X153264250Y-99660000D01*
X153423000Y-99501250D01*
X153423000Y-98452000D01*
X153403000Y-98452000D01*
X153403000Y-98198000D01*
X153423000Y-98198000D01*
X153423000Y-97210750D01*
X153615000Y-97210750D01*
X153615000Y-98039250D01*
X153677000Y-98101250D01*
X153677000Y-98198000D01*
X153773750Y-98198000D01*
X153835750Y-98260000D01*
X154664250Y-98260000D01*
X154726250Y-98198000D01*
X154823000Y-98198000D01*
X154823000Y-98101250D01*
X154885000Y-98039250D01*
X154885000Y-97210750D01*
X154823000Y-97148750D01*
X154823000Y-97052000D01*
X154726250Y-97052000D01*
X154664250Y-96990000D01*
X153835750Y-96990000D01*
X153773750Y-97052000D01*
X153677000Y-97052000D01*
X153677000Y-97148750D01*
X153615000Y-97210750D01*
X153423000Y-97210750D01*
X153423000Y-97052000D01*
X153403000Y-97052000D01*
X153403000Y-96798000D01*
X153423000Y-96798000D01*
X153423000Y-95748750D01*
X153264250Y-95590000D01*
X153125835Y-95590000D01*
X153125835Y-95273835D01*
X153120865Y-95223149D01*
X153116416Y-95172294D01*
X153115605Y-95169502D01*
X153115322Y-95166618D01*
X153114134Y-95162685D01*
X153183364Y-95202474D01*
X153319782Y-95238324D01*
X153437500Y-95097993D01*
X153437500Y-94837875D01*
X153455463Y-94816468D01*
X153500280Y-94734947D01*
X153540227Y-94810078D01*
G36*
X158020395Y-91362463D02*
X158130465Y-91412079D01*
X158250000Y-91429066D01*
X158498420Y-91429066D01*
X158709677Y-91640323D01*
X158749063Y-91672675D01*
X158788138Y-91705463D01*
X158790683Y-91706862D01*
X158792924Y-91708703D01*
X158837832Y-91732782D01*
X158882544Y-91757363D01*
X158885312Y-91758241D01*
X158887869Y-91759612D01*
X158936668Y-91774532D01*
X158985233Y-91789937D01*
X158988111Y-91790260D01*
X158990892Y-91791110D01*
X159041648Y-91796265D01*
X159090178Y-91801709D01*
X159582837Y-92294368D01*
X159545244Y-92269011D01*
X159395734Y-92206163D01*
X159236863Y-92173551D01*
X159074684Y-92172419D01*
X158915374Y-92202809D01*
X158765001Y-92263564D01*
X158629292Y-92352369D01*
X158513416Y-92465843D01*
X158421788Y-92599662D01*
X158357898Y-92748730D01*
X158324178Y-92907369D01*
X158321913Y-93069536D01*
X158351191Y-93229055D01*
X158384600Y-93313437D01*
X158309676Y-93362808D01*
X158301764Y-93336604D01*
X158287524Y-93287590D01*
X158286188Y-93285012D01*
X158285349Y-93282234D01*
X158261406Y-93237204D01*
X158237946Y-93191944D01*
X158236136Y-93189677D01*
X158234773Y-93187113D01*
X158202522Y-93147569D01*
X158170734Y-93107750D01*
X158166751Y-93103710D01*
X158166683Y-93103627D01*
X158166606Y-93103563D01*
X158165323Y-93102262D01*
X157952022Y-92888961D01*
X157952022Y-91304189D01*
X158020395Y-91362463D01*
X158020395Y-91362463D01*
G37*
X158020395Y-91362463D02*
X158130465Y-91412079D01*
X158250000Y-91429066D01*
X158498420Y-91429066D01*
X158709677Y-91640323D01*
X158749063Y-91672675D01*
X158788138Y-91705463D01*
X158790683Y-91706862D01*
X158792924Y-91708703D01*
X158837832Y-91732782D01*
X158882544Y-91757363D01*
X158885312Y-91758241D01*
X158887869Y-91759612D01*
X158936668Y-91774532D01*
X158985233Y-91789937D01*
X158988111Y-91790260D01*
X158990892Y-91791110D01*
X159041648Y-91796265D01*
X159090178Y-91801709D01*
X159582837Y-92294368D01*
X159545244Y-92269011D01*
X159395734Y-92206163D01*
X159236863Y-92173551D01*
X159074684Y-92172419D01*
X158915374Y-92202809D01*
X158765001Y-92263564D01*
X158629292Y-92352369D01*
X158513416Y-92465843D01*
X158421788Y-92599662D01*
X158357898Y-92748730D01*
X158324178Y-92907369D01*
X158321913Y-93069536D01*
X158351191Y-93229055D01*
X158384600Y-93313437D01*
X158309676Y-93362808D01*
X158301764Y-93336604D01*
X158287524Y-93287590D01*
X158286188Y-93285012D01*
X158285349Y-93282234D01*
X158261406Y-93237204D01*
X158237946Y-93191944D01*
X158236136Y-93189677D01*
X158234773Y-93187113D01*
X158202522Y-93147569D01*
X158170734Y-93107750D01*
X158166751Y-93103710D01*
X158166683Y-93103627D01*
X158166606Y-93103563D01*
X158165323Y-93102262D01*
X157952022Y-92888961D01*
X157952022Y-91304189D01*
X158020395Y-91362463D01*
G36*
X168873000Y-84100080D02*
X168857002Y-84101356D01*
X168741670Y-84137073D01*
X168640854Y-84203506D01*
X168562537Y-84295395D01*
X168512921Y-84405465D01*
X168495934Y-84525000D01*
X168495934Y-86075000D01*
X168501356Y-86142998D01*
X168537073Y-86258330D01*
X168603506Y-86359146D01*
X168695395Y-86437463D01*
X168805465Y-86487079D01*
X168873000Y-86496676D01*
X168873000Y-88274852D01*
X168872537Y-88275395D01*
X168852185Y-88320544D01*
X168786494Y-88220854D01*
X168694605Y-88142537D01*
X168584535Y-88092921D01*
X168465000Y-88075934D01*
X167815000Y-88075934D01*
X167747002Y-88081356D01*
X167631670Y-88117073D01*
X167604680Y-88134858D01*
X167579700Y-88109703D01*
X167445244Y-88019011D01*
X167357099Y-87981958D01*
X167894398Y-87384959D01*
X167916994Y-87349410D01*
X167927000Y-87300000D01*
X167927000Y-86500000D01*
X167905670Y-86429553D01*
X167705670Y-86129553D01*
X167649410Y-86083006D01*
X167600000Y-86073000D01*
X166500000Y-86073000D01*
X166452211Y-86082334D01*
X166410197Y-86110197D01*
X165447394Y-87073000D01*
X161606216Y-87073000D01*
X161647463Y-87024605D01*
X161697079Y-86914535D01*
X161714066Y-86795000D01*
X161714066Y-85805000D01*
X161708644Y-85737002D01*
X161672927Y-85621670D01*
X161606494Y-85520854D01*
X161514605Y-85442537D01*
X161512000Y-85441363D01*
X161512000Y-84059987D01*
X161507030Y-84009297D01*
X161503877Y-83973260D01*
X161561412Y-84032839D01*
X161694588Y-84125399D01*
X161843207Y-84190329D01*
X162001606Y-84225155D01*
X162163754Y-84228552D01*
X162323473Y-84200389D01*
X162474680Y-84141740D01*
X162611615Y-84054838D01*
X162729064Y-83942993D01*
X162822551Y-83810466D01*
X162888517Y-83662305D01*
X162924448Y-83504152D01*
X162927035Y-83318909D01*
X162895533Y-83159814D01*
X162833730Y-83009869D01*
X162743980Y-82874783D01*
X162629700Y-82759703D01*
X162495244Y-82669011D01*
X162345734Y-82606163D01*
X162186863Y-82573551D01*
X162024684Y-82572419D01*
X161865374Y-82602809D01*
X161715001Y-82663564D01*
X161579292Y-82752369D01*
X161463416Y-82865843D01*
X161371788Y-82999662D01*
X161307898Y-83148730D01*
X161274178Y-83307369D01*
X161271913Y-83469536D01*
X161299275Y-83618616D01*
X161125292Y-83444633D01*
X161127048Y-83318909D01*
X161095546Y-83159814D01*
X161033743Y-83009869D01*
X160943993Y-82874783D01*
X160907894Y-82838431D01*
X160914066Y-82795000D01*
X160914066Y-81805000D01*
X160908644Y-81737002D01*
X160872927Y-81621670D01*
X160806494Y-81520854D01*
X160784373Y-81502000D01*
X168873000Y-81502000D01*
X168873000Y-84100080D01*
X168873000Y-84100080D01*
G37*
X168873000Y-84100080D02*
X168857002Y-84101356D01*
X168741670Y-84137073D01*
X168640854Y-84203506D01*
X168562537Y-84295395D01*
X168512921Y-84405465D01*
X168495934Y-84525000D01*
X168495934Y-86075000D01*
X168501356Y-86142998D01*
X168537073Y-86258330D01*
X168603506Y-86359146D01*
X168695395Y-86437463D01*
X168805465Y-86487079D01*
X168873000Y-86496676D01*
X168873000Y-88274852D01*
X168872537Y-88275395D01*
X168852185Y-88320544D01*
X168786494Y-88220854D01*
X168694605Y-88142537D01*
X168584535Y-88092921D01*
X168465000Y-88075934D01*
X167815000Y-88075934D01*
X167747002Y-88081356D01*
X167631670Y-88117073D01*
X167604680Y-88134858D01*
X167579700Y-88109703D01*
X167445244Y-88019011D01*
X167357099Y-87981958D01*
X167894398Y-87384959D01*
X167916994Y-87349410D01*
X167927000Y-87300000D01*
X167927000Y-86500000D01*
X167905670Y-86429553D01*
X167705670Y-86129553D01*
X167649410Y-86083006D01*
X167600000Y-86073000D01*
X166500000Y-86073000D01*
X166452211Y-86082334D01*
X166410197Y-86110197D01*
X165447394Y-87073000D01*
X161606216Y-87073000D01*
X161647463Y-87024605D01*
X161697079Y-86914535D01*
X161714066Y-86795000D01*
X161714066Y-85805000D01*
X161708644Y-85737002D01*
X161672927Y-85621670D01*
X161606494Y-85520854D01*
X161514605Y-85442537D01*
X161512000Y-85441363D01*
X161512000Y-84059987D01*
X161507030Y-84009297D01*
X161503877Y-83973260D01*
X161561412Y-84032839D01*
X161694588Y-84125399D01*
X161843207Y-84190329D01*
X162001606Y-84225155D01*
X162163754Y-84228552D01*
X162323473Y-84200389D01*
X162474680Y-84141740D01*
X162611615Y-84054838D01*
X162729064Y-83942993D01*
X162822551Y-83810466D01*
X162888517Y-83662305D01*
X162924448Y-83504152D01*
X162927035Y-83318909D01*
X162895533Y-83159814D01*
X162833730Y-83009869D01*
X162743980Y-82874783D01*
X162629700Y-82759703D01*
X162495244Y-82669011D01*
X162345734Y-82606163D01*
X162186863Y-82573551D01*
X162024684Y-82572419D01*
X161865374Y-82602809D01*
X161715001Y-82663564D01*
X161579292Y-82752369D01*
X161463416Y-82865843D01*
X161371788Y-82999662D01*
X161307898Y-83148730D01*
X161274178Y-83307369D01*
X161271913Y-83469536D01*
X161299275Y-83618616D01*
X161125292Y-83444633D01*
X161127048Y-83318909D01*
X161095546Y-83159814D01*
X161033743Y-83009869D01*
X160943993Y-82874783D01*
X160907894Y-82838431D01*
X160914066Y-82795000D01*
X160914066Y-81805000D01*
X160908644Y-81737002D01*
X160872927Y-81621670D01*
X160806494Y-81520854D01*
X160784373Y-81502000D01*
X168873000Y-81502000D01*
X168873000Y-84100080D01*
G36*
X156398011Y-86228657D02*
X156398011Y-88317365D01*
X154770847Y-86690201D01*
X154807388Y-86556993D01*
X154030000Y-85779605D01*
X154015858Y-85793748D01*
X153836253Y-85614143D01*
X153850395Y-85600000D01*
X153836253Y-85585858D01*
X154015858Y-85406253D01*
X154030000Y-85420395D01*
X154044143Y-85406253D01*
X154223748Y-85585858D01*
X154209605Y-85600000D01*
X154986993Y-86377388D01*
X155225860Y-86311863D01*
X155341760Y-86064884D01*
X155407250Y-85800040D01*
X155419812Y-85527508D01*
X155378965Y-85257762D01*
X155351736Y-85182382D01*
X156398011Y-86228657D01*
X156398011Y-86228657D01*
G37*
X156398011Y-86228657D02*
X156398011Y-88317365D01*
X154770847Y-86690201D01*
X154807388Y-86556993D01*
X154030000Y-85779605D01*
X154015858Y-85793748D01*
X153836253Y-85614143D01*
X153850395Y-85600000D01*
X153836253Y-85585858D01*
X154015858Y-85406253D01*
X154030000Y-85420395D01*
X154044143Y-85406253D01*
X154223748Y-85585858D01*
X154209605Y-85600000D01*
X154986993Y-86377388D01*
X155225860Y-86311863D01*
X155341760Y-86064884D01*
X155407250Y-85800040D01*
X155419812Y-85527508D01*
X155378965Y-85257762D01*
X155351736Y-85182382D01*
X156398011Y-86228657D01*
G36*
X178572363Y-84728192D02*
X179130973Y-86080132D01*
X180164427Y-87115392D01*
X181515391Y-87676361D01*
X182978192Y-87677637D01*
X184330132Y-87119027D01*
X184748000Y-86701888D01*
X184748000Y-93123000D01*
X178330363Y-93123000D01*
X178251505Y-92932150D01*
X178019070Y-92699308D01*
X177715222Y-92573140D01*
X177386221Y-92572853D01*
X177127000Y-92679961D01*
X177127000Y-87760457D01*
X177250000Y-87785365D01*
X178400000Y-87785365D01*
X178558237Y-87755591D01*
X178703567Y-87662073D01*
X178801064Y-87519381D01*
X178835365Y-87350000D01*
X178835365Y-86650000D01*
X178805591Y-86491763D01*
X178712073Y-86346433D01*
X178569381Y-86248936D01*
X178400000Y-86214635D01*
X178377000Y-86214635D01*
X178377000Y-85842454D01*
X178550688Y-85669070D01*
X178676856Y-85365222D01*
X178677143Y-85036221D01*
X178551505Y-84732154D01*
X178319070Y-84499312D01*
X178015222Y-84373144D01*
X177686221Y-84372857D01*
X177382154Y-84498495D01*
X177149312Y-84730930D01*
X177127000Y-84784664D01*
X177127000Y-84127000D01*
X178572887Y-84127000D01*
X178572363Y-84728192D01*
X178572363Y-84728192D01*
G37*
X178572363Y-84728192D02*
X179130973Y-86080132D01*
X180164427Y-87115392D01*
X181515391Y-87676361D01*
X182978192Y-87677637D01*
X184330132Y-87119027D01*
X184748000Y-86701888D01*
X184748000Y-93123000D01*
X178330363Y-93123000D01*
X178251505Y-92932150D01*
X178019070Y-92699308D01*
X177715222Y-92573140D01*
X177386221Y-92572853D01*
X177127000Y-92679961D01*
X177127000Y-87760457D01*
X177250000Y-87785365D01*
X178400000Y-87785365D01*
X178558237Y-87755591D01*
X178703567Y-87662073D01*
X178801064Y-87519381D01*
X178835365Y-87350000D01*
X178835365Y-86650000D01*
X178805591Y-86491763D01*
X178712073Y-86346433D01*
X178569381Y-86248936D01*
X178400000Y-86214635D01*
X178377000Y-86214635D01*
X178377000Y-85842454D01*
X178550688Y-85669070D01*
X178676856Y-85365222D01*
X178677143Y-85036221D01*
X178551505Y-84732154D01*
X178319070Y-84499312D01*
X178015222Y-84373144D01*
X177686221Y-84372857D01*
X177382154Y-84498495D01*
X177149312Y-84730930D01*
X177127000Y-84784664D01*
X177127000Y-84127000D01*
X178572887Y-84127000D01*
X178572363Y-84728192D01*
G36*
X184748000Y-99873000D02*
X177177000Y-99873000D01*
X177177000Y-95330582D01*
X177250000Y-95345365D01*
X178400000Y-95345365D01*
X178558237Y-95315591D01*
X178703567Y-95222073D01*
X178801064Y-95079381D01*
X178835365Y-94910000D01*
X178835365Y-94377000D01*
X184748000Y-94377000D01*
X184748000Y-99873000D01*
X184748000Y-99873000D01*
G37*
X184748000Y-99873000D02*
X177177000Y-99873000D01*
X177177000Y-95330582D01*
X177250000Y-95345365D01*
X178400000Y-95345365D01*
X178558237Y-95315591D01*
X178703567Y-95222073D01*
X178801064Y-95079381D01*
X178835365Y-94910000D01*
X178835365Y-94377000D01*
X184748000Y-94377000D01*
X184748000Y-99873000D01*
G36*
X184748000Y-101126842D02*
X184748000Y-107297756D01*
X184335573Y-106884608D01*
X182984609Y-106323639D01*
X181521808Y-106322363D01*
X180169868Y-106880973D01*
X179134608Y-107914427D01*
X178573639Y-109265391D01*
X178573109Y-109873497D01*
X177127000Y-109873040D01*
X177127000Y-103110457D01*
X177250000Y-103135365D01*
X178400000Y-103135365D01*
X178558237Y-103105591D01*
X178703567Y-103012073D01*
X178801064Y-102869381D01*
X178835365Y-102700000D01*
X178835365Y-102000000D01*
X178805591Y-101841763D01*
X178712073Y-101696433D01*
X178569381Y-101598936D01*
X178400000Y-101564635D01*
X178354956Y-101564635D01*
X178450688Y-101469070D01*
X178576856Y-101165222D01*
X178576891Y-101124893D01*
X184748000Y-101126842D01*
X184748000Y-101126842D01*
G37*
X184748000Y-101126842D02*
X184748000Y-107297756D01*
X184335573Y-106884608D01*
X182984609Y-106323639D01*
X181521808Y-106322363D01*
X180169868Y-106880973D01*
X179134608Y-107914427D01*
X178573639Y-109265391D01*
X178573109Y-109873497D01*
X177127000Y-109873040D01*
X177127000Y-103110457D01*
X177250000Y-103135365D01*
X178400000Y-103135365D01*
X178558237Y-103105591D01*
X178703567Y-103012073D01*
X178801064Y-102869381D01*
X178835365Y-102700000D01*
X178835365Y-102000000D01*
X178805591Y-101841763D01*
X178712073Y-101696433D01*
X178569381Y-101598936D01*
X178400000Y-101564635D01*
X178354956Y-101564635D01*
X178450688Y-101469070D01*
X178576856Y-101165222D01*
X178576891Y-101124893D01*
X184748000Y-101126842D01*
M02*
