%TF.GenerationSoftware,KiCad,Pcbnew,4.0.6-e0-6349~53~ubuntu16.04.1*%
%TF.CreationDate,2017-03-23T00:14:44+02:00*%
%TF.ProjectId,BLDC_controller,424C44435F636F6E74726F6C6C65722E,1.0*%
%TF.FileFunction,Copper,L3,Inr,Plane*%
%FSLAX46Y46*%
G04 Gerber Fmt 4.6, Leading zero omitted, Abs format (unit mm)*
G04 Created by KiCad (PCBNEW 4.0.6-e0-6349~53~ubuntu16.04.1) date Thu Mar 23 00:14:44 2017*
%MOMM*%
%LPD*%
G01*
G04 APERTURE LIST*
%ADD10C,0.100000*%
%ADD11C,0.250000*%
%ADD12C,0.800000*%
%ADD13R,1.500000X1.500000*%
%ADD14C,1.500000*%
%ADD15C,1.300000*%
%ADD16C,2.100000*%
%ADD17C,0.254000*%
G04 APERTURE END LIST*
D10*
D11*
X40816667Y1892619D02*
X41435715Y1892619D01*
X41102381Y1511667D01*
X41245239Y1511667D01*
X41340477Y1464048D01*
X41388096Y1416429D01*
X41435715Y1321190D01*
X41435715Y1083095D01*
X41388096Y987857D01*
X41340477Y940238D01*
X41245239Y892619D01*
X40959524Y892619D01*
X40864286Y940238D01*
X40816667Y987857D01*
D12*
X38750000Y27900000D03*
X28150000Y30600000D03*
X27350000Y30600000D03*
X27350000Y29800000D03*
X28150000Y29800000D03*
X27350000Y28200000D03*
X28150000Y28200000D03*
X31750000Y29800000D03*
X30950000Y29800000D03*
X32150000Y29000000D03*
X31350000Y29000000D03*
X30550000Y29000000D03*
X29750000Y29000000D03*
X28950000Y29000000D03*
X28150000Y29000000D03*
X27350000Y29000000D03*
X32350000Y10950000D03*
X31550000Y10950000D03*
X30750000Y10950000D03*
X29950000Y10950000D03*
X29150000Y10950000D03*
X28350000Y10950000D03*
X27550000Y10950000D03*
X26750000Y10950000D03*
X32350000Y11750000D03*
X31550000Y11750000D03*
X30750000Y11750000D03*
X29950000Y11750000D03*
X29150000Y11750000D03*
X28350000Y11750000D03*
X27550000Y11750000D03*
X45900000Y13550000D03*
X45100000Y13550000D03*
X44300000Y13550000D03*
X43500000Y13550000D03*
X45900000Y14350000D03*
X45100000Y14350000D03*
X44300000Y14350000D03*
X43500000Y14350000D03*
X45900000Y15150000D03*
X45100000Y15150000D03*
X44300000Y15150000D03*
X43500000Y15150000D03*
X45900000Y15950000D03*
X45100000Y15950000D03*
X44300000Y15950000D03*
X43500000Y15950000D03*
X45900000Y16750000D03*
X45100000Y16750000D03*
X44300000Y16750000D03*
X43500000Y16750000D03*
X45900000Y17550000D03*
X45100000Y17550000D03*
X44300000Y17550000D03*
X43500000Y17550000D03*
X45900000Y18350000D03*
X45100000Y18350000D03*
X44300000Y18350000D03*
X45900000Y20250000D03*
X45100000Y20250000D03*
X44300000Y20250000D03*
X43500000Y20250000D03*
X45900000Y21050000D03*
X45100000Y21050000D03*
X44300000Y21050000D03*
X43500000Y21050000D03*
X45900000Y21850000D03*
X45100000Y21850000D03*
X44300000Y21850000D03*
X43500000Y21850000D03*
X45900000Y22650000D03*
X45100000Y22650000D03*
X44300000Y22650000D03*
X43500000Y22650000D03*
X45900000Y23450000D03*
X45100000Y23450000D03*
X44300000Y23450000D03*
X43500000Y23450000D03*
X45900000Y24250000D03*
X45100000Y24250000D03*
X44300000Y24250000D03*
X43500000Y24250000D03*
X45900000Y25050000D03*
X45100000Y25050000D03*
X44300000Y25050000D03*
X43350000Y6000000D03*
X44300000Y6800000D03*
X43500000Y6800000D03*
X45900000Y7600000D03*
X45100000Y7600000D03*
X44300000Y7600000D03*
X43500000Y7600000D03*
X45900000Y8400000D03*
X45100000Y8400000D03*
X44300000Y8400000D03*
X43500000Y8400000D03*
X45900000Y9200000D03*
X45100000Y9200000D03*
X44300000Y9200000D03*
X43500000Y9200000D03*
X45900000Y10000000D03*
X45100000Y10000000D03*
X44300000Y10000000D03*
X43500000Y10000000D03*
X45900000Y10800000D03*
X45100000Y10800000D03*
X44300000Y10800000D03*
X43500000Y10800000D03*
X45900000Y11600000D03*
X45100000Y11600000D03*
X44300000Y11600000D03*
X32600000Y795000D03*
X31800000Y795000D03*
X31000000Y795000D03*
X30200000Y795000D03*
X29400000Y795000D03*
X28600000Y795000D03*
X27800000Y795000D03*
X27000000Y795000D03*
X32600000Y1595000D03*
X31800000Y1595000D03*
X31000000Y1595000D03*
X30200000Y1595000D03*
X29400000Y1595000D03*
X28600000Y1595000D03*
X27800000Y1595000D03*
X34700000Y2000000D03*
X37100000Y4600000D03*
X39000000Y4600000D03*
X38500000Y12800000D03*
X38900000Y19900000D03*
X34900000Y20600000D03*
X35000000Y13000000D03*
X43500000Y11600000D03*
X43500000Y18350000D03*
X43500000Y25050000D03*
D13*
X7620000Y27400000D03*
D14*
X10160000Y27400000D03*
X12700000Y27400000D03*
X15240000Y27400000D03*
X17780000Y27400000D03*
D15*
X31750000Y30800000D03*
D12*
X6250000Y14700000D03*
X2000000Y25000000D03*
X1800000Y21800000D03*
X2000000Y12500000D03*
X2000000Y8200000D03*
X26750000Y11750000D03*
X27000000Y1595000D03*
X11400000Y15245000D03*
X10100000Y14895000D03*
X8950000Y14895000D03*
X6800000Y19945000D03*
X7750000Y14845000D03*
X5750000Y15595000D03*
X5800000Y19095000D03*
X12500000Y18945000D03*
X11250000Y19595000D03*
X10200000Y19795000D03*
X9150000Y19795000D03*
D13*
X7620000Y29940000D03*
D14*
X10160000Y29940000D03*
X12700000Y29940000D03*
X15240000Y29940000D03*
X17780000Y29940000D03*
X20320000Y29940000D03*
D13*
X7620000Y2000000D03*
D14*
X10160000Y2000000D03*
X12700000Y2000000D03*
X15240000Y2000000D03*
X17780000Y2000000D03*
D12*
X8050000Y19795000D03*
D15*
X36750000Y30750000D03*
D16*
X47250000Y23000000D03*
X47250000Y16000000D03*
X47250000Y8500000D03*
X34750000Y30500000D03*
X29550000Y30500000D03*
D12*
X10875365Y12906144D03*
X11399988Y13700000D03*
X15549861Y14500000D03*
X23336422Y8541723D03*
X21864031Y20266970D03*
X13500000Y21674990D03*
X30750000Y26000000D03*
X12750000Y9000000D03*
X30700006Y14900000D03*
X23800000Y2400000D03*
X5000000Y23600000D03*
X25500000Y13100000D03*
X25300000Y25274990D03*
X6450000Y13000000D03*
X10750000Y25100000D03*
X12600000Y4600000D03*
X7700000Y4600010D03*
X31000000Y4800000D03*
X17250000Y17495000D03*
X16750000Y13245000D03*
X5800000Y16650000D03*
X5800000Y17950000D03*
X20186664Y13049988D03*
X25935865Y17109132D03*
X23000000Y19999992D03*
X36300000Y12600000D03*
X23643199Y9525008D03*
X24512821Y21484129D03*
X36737345Y19987336D03*
X24050013Y29600000D03*
X36300000Y27700000D03*
X31700000Y6000000D03*
X41500000Y12000000D03*
X41600000Y27800000D03*
X24100000Y25400000D03*
X29400000Y16300000D03*
X41300000Y19600004D03*
X22700000Y7400000D03*
X24087014Y20038305D03*
X14000000Y10500000D03*
X5100000Y22399994D03*
X4100000Y12850000D03*
X3250000Y7200000D03*
X1950000Y13800000D03*
X12994014Y20637443D03*
X10950000Y23400000D03*
X19450000Y2600000D03*
X19187812Y13001833D03*
X25536944Y20397155D03*
X24287369Y8232331D03*
X30800004Y7600000D03*
X25850000Y29600000D03*
X30800000Y24250000D03*
X25707865Y21382452D03*
X30700000Y18000000D03*
X23049998Y29600000D03*
X16700000Y24600000D03*
X21150000Y7200000D03*
X4100000Y14550000D03*
X20643923Y5468604D03*
X14214474Y11950011D03*
X17475010Y20150000D03*
X18093865Y23743669D03*
X15519372Y10317041D03*
X18388611Y21336069D03*
X17483366Y21843499D03*
X15590616Y17369232D03*
X21948915Y5519979D03*
X20200000Y14900000D03*
X18817262Y23053219D03*
X13655679Y19887643D03*
X12234530Y19986899D03*
X19950000Y7295000D03*
X19920369Y17775334D03*
X17700000Y24900000D03*
D17*
G36*
X32623000Y2350000D02*
X32633006Y2300590D01*
X32652436Y2268697D01*
X33123000Y1704020D01*
X33123000Y502000D01*
X5202244Y502000D01*
X5615392Y914427D01*
X6176361Y2265391D01*
X6176783Y2750000D01*
X6434635Y2750000D01*
X6434635Y1250000D01*
X6464409Y1091763D01*
X6557927Y946433D01*
X6700619Y848936D01*
X6870000Y814635D01*
X8370000Y814635D01*
X8528237Y844409D01*
X8673567Y937927D01*
X8771064Y1080619D01*
X8805365Y1250000D01*
X8805365Y1766907D01*
X8982796Y1766907D01*
X9161606Y1334154D01*
X9492412Y1002770D01*
X9924853Y823205D01*
X10393093Y822796D01*
X10825846Y1001606D01*
X11157230Y1332412D01*
X11336795Y1764853D01*
X11336796Y1766907D01*
X11522796Y1766907D01*
X11701606Y1334154D01*
X12032412Y1002770D01*
X12464853Y823205D01*
X12933093Y822796D01*
X13365846Y1001606D01*
X13697230Y1332412D01*
X13876795Y1764853D01*
X13876796Y1766907D01*
X14062796Y1766907D01*
X14241606Y1334154D01*
X14572412Y1002770D01*
X15004853Y823205D01*
X15473093Y822796D01*
X15905846Y1001606D01*
X15932769Y1028483D01*
X16988088Y1028483D01*
X17056077Y787540D01*
X17575171Y602799D01*
X18125448Y630770D01*
X18503923Y787540D01*
X18571912Y1028483D01*
X17780000Y1820395D01*
X16988088Y1028483D01*
X15932769Y1028483D01*
X16237230Y1332412D01*
X16406432Y1739896D01*
X16410770Y1654552D01*
X16567540Y1276077D01*
X16808483Y1208088D01*
X17600395Y2000000D01*
X16808483Y2791912D01*
X16567540Y2723923D01*
X16404124Y2264749D01*
X16238394Y2665846D01*
X15933257Y2971517D01*
X16988088Y2971517D01*
X17780000Y2179605D01*
X17794143Y2193747D01*
X17973748Y2014142D01*
X17959605Y2000000D01*
X18751517Y1208088D01*
X18992460Y1276077D01*
X19177201Y1795171D01*
X19176025Y1818302D01*
X19284778Y1773144D01*
X19613779Y1772857D01*
X19917846Y1898495D01*
X20150688Y2130930D01*
X20276856Y2434778D01*
X20277143Y2763779D01*
X20151505Y3067846D01*
X19919070Y3300688D01*
X19615222Y3426856D01*
X19286221Y3427143D01*
X18982154Y3301505D01*
X18749312Y3069070D01*
X18736155Y3037385D01*
X18686966Y3086574D01*
X18571911Y2971519D01*
X18503923Y3212460D01*
X17984829Y3397201D01*
X17434552Y3369230D01*
X17056077Y3212460D01*
X16988088Y2971517D01*
X15933257Y2971517D01*
X15907588Y2997230D01*
X15475147Y3176795D01*
X15006907Y3177204D01*
X14574154Y2998394D01*
X14242770Y2667588D01*
X14063205Y2235147D01*
X14062796Y1766907D01*
X13876796Y1766907D01*
X13877204Y2233093D01*
X13698394Y2665846D01*
X13367588Y2997230D01*
X12935147Y3176795D01*
X12466907Y3177204D01*
X12034154Y2998394D01*
X11702770Y2667588D01*
X11523205Y2235147D01*
X11522796Y1766907D01*
X11336796Y1766907D01*
X11337204Y2233093D01*
X11158394Y2665846D01*
X10827588Y2997230D01*
X10395147Y3176795D01*
X9926907Y3177204D01*
X9494154Y2998394D01*
X9162770Y2667588D01*
X8983205Y2235147D01*
X8982796Y1766907D01*
X8805365Y1766907D01*
X8805365Y2750000D01*
X8775591Y2908237D01*
X8682073Y3053567D01*
X8539381Y3151064D01*
X8370000Y3185365D01*
X6870000Y3185365D01*
X6711763Y3155591D01*
X6566433Y3062073D01*
X6468936Y2919381D01*
X6434635Y2750000D01*
X6176783Y2750000D01*
X6177637Y3728192D01*
X5619027Y5080132D01*
X5394726Y5304825D01*
X19816780Y5304825D01*
X19942418Y5000758D01*
X20174853Y4767916D01*
X20478701Y4641748D01*
X20807702Y4641461D01*
X21111769Y4767099D01*
X21322225Y4977187D01*
X21479845Y4819291D01*
X21783693Y4693123D01*
X22112694Y4692836D01*
X22416761Y4818474D01*
X22649603Y5050909D01*
X22775771Y5354757D01*
X22776058Y5683758D01*
X22713062Y5836221D01*
X30872857Y5836221D01*
X30998495Y5532154D01*
X31230930Y5299312D01*
X31534778Y5173144D01*
X31863779Y5172857D01*
X32167846Y5298495D01*
X32400688Y5530930D01*
X32526856Y5834778D01*
X32527143Y6163779D01*
X32401505Y6467846D01*
X32169070Y6700688D01*
X31865222Y6826856D01*
X31536221Y6827143D01*
X31232154Y6701505D01*
X30999312Y6469070D01*
X30873144Y6165222D01*
X30872857Y5836221D01*
X22713062Y5836221D01*
X22650420Y5987825D01*
X22417985Y6220667D01*
X22114137Y6346835D01*
X21785136Y6347122D01*
X21481069Y6221484D01*
X21270613Y6011396D01*
X21112993Y6169292D01*
X20809145Y6295460D01*
X20480144Y6295747D01*
X20176077Y6170109D01*
X19943235Y5937674D01*
X19817067Y5633826D01*
X19816780Y5304825D01*
X5394726Y5304825D01*
X4585573Y6115392D01*
X3690334Y6487127D01*
X3717846Y6498495D01*
X3950688Y6730930D01*
X4076856Y7034778D01*
X4076940Y7131221D01*
X19122857Y7131221D01*
X19248495Y6827154D01*
X19480930Y6594312D01*
X19784778Y6468144D01*
X20113779Y6467857D01*
X20417846Y6593495D01*
X20502527Y6678028D01*
X20680930Y6499312D01*
X20984778Y6373144D01*
X21313779Y6372857D01*
X21617846Y6498495D01*
X21850688Y6730930D01*
X21966448Y7009713D01*
X21998495Y6932154D01*
X22230930Y6699312D01*
X22534778Y6573144D01*
X22863779Y6572857D01*
X23167846Y6698495D01*
X23400688Y6930930D01*
X23526856Y7234778D01*
X23527143Y7563779D01*
X23401505Y7867846D01*
X23169070Y8100688D01*
X22865222Y8226856D01*
X22536221Y8227143D01*
X22232154Y8101505D01*
X21999312Y7869070D01*
X21883552Y7590287D01*
X21851505Y7667846D01*
X21619070Y7900688D01*
X21315222Y8026856D01*
X20986221Y8027143D01*
X20682154Y7901505D01*
X20597473Y7816972D01*
X20419070Y7995688D01*
X20115222Y8121856D01*
X19786221Y8122143D01*
X19482154Y7996505D01*
X19249312Y7764070D01*
X19123144Y7460222D01*
X19122857Y7131221D01*
X4076940Y7131221D01*
X4077143Y7363779D01*
X3951505Y7667846D01*
X3719070Y7900688D01*
X3415222Y8026856D01*
X3086221Y8027143D01*
X2782154Y7901505D01*
X2549312Y7669070D01*
X2423144Y7365222D01*
X2422857Y7036221D01*
X2548495Y6732154D01*
X2603641Y6676911D01*
X1771808Y6677637D01*
X502000Y6152963D01*
X502000Y9361229D01*
X22816056Y9361229D01*
X22941694Y9057162D01*
X23174129Y8824320D01*
X23477977Y8698152D01*
X23585293Y8698058D01*
X23460513Y8397553D01*
X23460226Y8068552D01*
X23585864Y7764485D01*
X23818299Y7531643D01*
X24122147Y7405475D01*
X24451148Y7405188D01*
X24526253Y7436221D01*
X29972861Y7436221D01*
X30098499Y7132154D01*
X30330934Y6899312D01*
X30634782Y6773144D01*
X30963783Y6772857D01*
X31267850Y6898495D01*
X31500692Y7130930D01*
X31626860Y7434778D01*
X31627147Y7763779D01*
X31501509Y8067846D01*
X31269074Y8300688D01*
X30965226Y8426856D01*
X30636225Y8427143D01*
X30332158Y8301505D01*
X30099316Y8069070D01*
X29973148Y7765222D01*
X29972861Y7436221D01*
X24526253Y7436221D01*
X24755215Y7530826D01*
X24988057Y7763261D01*
X25114225Y8067109D01*
X25114512Y8396110D01*
X24988874Y8700177D01*
X24756439Y8933019D01*
X24452591Y9059187D01*
X24345275Y9059281D01*
X24470055Y9359786D01*
X24470342Y9688787D01*
X24344704Y9992854D01*
X24112269Y10225696D01*
X23808421Y10351864D01*
X23479420Y10352151D01*
X23175353Y10226513D01*
X22942511Y9994078D01*
X22816343Y9690230D01*
X22816056Y9361229D01*
X502000Y9361229D01*
X502000Y10336221D01*
X13172857Y10336221D01*
X13298495Y10032154D01*
X13530930Y9799312D01*
X13834778Y9673144D01*
X14163779Y9672857D01*
X14467846Y9798495D01*
X14700688Y10030930D01*
X14721784Y10081734D01*
X14817867Y9849195D01*
X15050302Y9616353D01*
X15354150Y9490185D01*
X15683151Y9489898D01*
X15987218Y9615536D01*
X16220060Y9847971D01*
X16346228Y10151819D01*
X16346515Y10480820D01*
X16220877Y10784887D01*
X15988442Y11017729D01*
X15684594Y11143897D01*
X15355593Y11144184D01*
X15051526Y11018546D01*
X14818684Y10786111D01*
X14797588Y10735307D01*
X14701505Y10967846D01*
X14497548Y11172160D01*
X14682320Y11248506D01*
X14915162Y11480941D01*
X15041330Y11784789D01*
X15041617Y12113790D01*
X14915979Y12417857D01*
X14683544Y12650699D01*
X14379696Y12776867D01*
X14050695Y12777154D01*
X13746628Y12651516D01*
X13513786Y12419081D01*
X13387618Y12115233D01*
X13387331Y11786232D01*
X13512969Y11482165D01*
X13716926Y11277851D01*
X13532154Y11201505D01*
X13299312Y10969070D01*
X13173144Y10665222D01*
X13172857Y10336221D01*
X502000Y10336221D01*
X502000Y12686221D01*
X3272857Y12686221D01*
X3398495Y12382154D01*
X3630930Y12149312D01*
X3934778Y12023144D01*
X4263779Y12022857D01*
X4567846Y12148495D01*
X4800688Y12380930D01*
X4926856Y12684778D01*
X4926906Y12742365D01*
X10048222Y12742365D01*
X10173860Y12438298D01*
X10406295Y12205456D01*
X10710143Y12079288D01*
X11039144Y12079001D01*
X11343211Y12204639D01*
X11576053Y12437074D01*
X11702221Y12740922D01*
X11702305Y12838054D01*
X18360669Y12838054D01*
X18486307Y12533987D01*
X18718742Y12301145D01*
X19022590Y12174977D01*
X19351591Y12174690D01*
X19655658Y12300328D01*
X19711166Y12355739D01*
X19717594Y12349300D01*
X20021442Y12223132D01*
X20350443Y12222845D01*
X20654510Y12348483D01*
X20887352Y12580918D01*
X21013520Y12884766D01*
X21013807Y13213767D01*
X20888169Y13517834D01*
X20655734Y13750676D01*
X20351886Y13876844D01*
X20022885Y13877131D01*
X19718818Y13751493D01*
X19663310Y13696082D01*
X19656882Y13702521D01*
X19353034Y13828689D01*
X19024033Y13828976D01*
X18719966Y13703338D01*
X18487124Y13470903D01*
X18360956Y13167055D01*
X18360669Y12838054D01*
X11702305Y12838054D01*
X11702386Y12930133D01*
X11867834Y12998495D01*
X12100676Y13230930D01*
X12226844Y13534778D01*
X12227131Y13863779D01*
X12101493Y14167846D01*
X11933413Y14336221D01*
X14722718Y14336221D01*
X14848356Y14032154D01*
X15080791Y13799312D01*
X15384639Y13673144D01*
X15713640Y13672857D01*
X16017707Y13798495D01*
X16250549Y14030930D01*
X16376717Y14334778D01*
X16377004Y14663779D01*
X16347072Y14736221D01*
X19372857Y14736221D01*
X19498495Y14432154D01*
X19730930Y14199312D01*
X20034778Y14073144D01*
X20363779Y14072857D01*
X20667846Y14198495D01*
X20900688Y14430930D01*
X21026856Y14734778D01*
X21027143Y15063779D01*
X20901505Y15367846D01*
X20669070Y15600688D01*
X20365222Y15726856D01*
X20036221Y15727143D01*
X19732154Y15601505D01*
X19499312Y15369070D01*
X19373144Y15065222D01*
X19372857Y14736221D01*
X16347072Y14736221D01*
X16251366Y14967846D01*
X16018931Y15200688D01*
X15715083Y15326856D01*
X15386082Y15327143D01*
X15082015Y15201505D01*
X14849173Y14969070D01*
X14723005Y14665222D01*
X14722718Y14336221D01*
X11933413Y14336221D01*
X11869058Y14400688D01*
X11565210Y14526856D01*
X11236209Y14527143D01*
X10932142Y14401505D01*
X10699300Y14169070D01*
X10573132Y13865222D01*
X10572967Y13676011D01*
X10407519Y13607649D01*
X10174677Y13375214D01*
X10048509Y13071366D01*
X10048222Y12742365D01*
X4926906Y12742365D01*
X4927143Y13013779D01*
X4801505Y13317846D01*
X4569070Y13550688D01*
X4265222Y13676856D01*
X3936221Y13677143D01*
X3632154Y13551505D01*
X3399312Y13319070D01*
X3273144Y13015222D01*
X3272857Y12686221D01*
X502000Y12686221D01*
X502000Y13636221D01*
X1122857Y13636221D01*
X1248495Y13332154D01*
X1480930Y13099312D01*
X1784778Y12973144D01*
X2113779Y12972857D01*
X2417846Y13098495D01*
X2650688Y13330930D01*
X2776856Y13634778D01*
X2777143Y13963779D01*
X2651505Y14267846D01*
X2533337Y14386221D01*
X3272857Y14386221D01*
X3398495Y14082154D01*
X3630930Y13849312D01*
X3934778Y13723144D01*
X4263779Y13722857D01*
X4567846Y13848495D01*
X4800688Y14080930D01*
X4926856Y14384778D01*
X4927143Y14713779D01*
X4801505Y15017846D01*
X4569070Y15250688D01*
X4265222Y15376856D01*
X3936221Y15377143D01*
X3632154Y15251505D01*
X3399312Y15019070D01*
X3273144Y14715222D01*
X3272857Y14386221D01*
X2533337Y14386221D01*
X2419070Y14500688D01*
X2115222Y14626856D01*
X1786221Y14627143D01*
X1482154Y14501505D01*
X1249312Y14269070D01*
X1123144Y13965222D01*
X1122857Y13636221D01*
X502000Y13636221D01*
X502000Y19250000D01*
X6123000Y19250000D01*
X6123000Y15495000D01*
X6131726Y15448738D01*
X6159042Y15406367D01*
X6200692Y15377963D01*
X6250110Y15368000D01*
X12000110Y15373000D01*
X14750000Y15373000D01*
X14796159Y15381685D01*
X14838553Y15408965D01*
X14866994Y15450590D01*
X14877000Y15500000D01*
X14877000Y16136221D01*
X28572857Y16136221D01*
X28698495Y15832154D01*
X28930930Y15599312D01*
X29234778Y15473144D01*
X29563779Y15472857D01*
X29867846Y15598495D01*
X30100688Y15830930D01*
X30226856Y16134778D01*
X30227143Y16463779D01*
X30101505Y16767846D01*
X29869070Y17000688D01*
X29565222Y17126856D01*
X29236221Y17127143D01*
X28932154Y17001505D01*
X28699312Y16769070D01*
X28573144Y16465222D01*
X28572857Y16136221D01*
X14877000Y16136221D01*
X14877000Y16750000D01*
X14856008Y16819937D01*
X14820447Y16855670D01*
X14295773Y17205453D01*
X14763473Y17205453D01*
X14889111Y16901386D01*
X15121546Y16668544D01*
X15425394Y16542376D01*
X15754395Y16542089D01*
X16058462Y16667727D01*
X16291304Y16900162D01*
X16310068Y16945353D01*
X25108722Y16945353D01*
X25234360Y16641286D01*
X25466795Y16408444D01*
X25770643Y16282276D01*
X26099644Y16281989D01*
X26403711Y16407627D01*
X26636553Y16640062D01*
X26762721Y16943910D01*
X26763008Y17272911D01*
X26637370Y17576978D01*
X26404935Y17809820D01*
X26341354Y17836221D01*
X29872857Y17836221D01*
X29998495Y17532154D01*
X30230930Y17299312D01*
X30534778Y17173144D01*
X30863779Y17172857D01*
X31167846Y17298495D01*
X31400688Y17530930D01*
X31526856Y17834778D01*
X31527143Y18163779D01*
X31401505Y18467846D01*
X31169070Y18700688D01*
X30865222Y18826856D01*
X30536221Y18827143D01*
X30232154Y18701505D01*
X29999312Y18469070D01*
X29873144Y18165222D01*
X29872857Y17836221D01*
X26341354Y17836221D01*
X26101087Y17935988D01*
X25772086Y17936275D01*
X25468019Y17810637D01*
X25235177Y17578202D01*
X25109009Y17274354D01*
X25108722Y16945353D01*
X16310068Y16945353D01*
X16417472Y17204010D01*
X16417759Y17533011D01*
X16385306Y17611555D01*
X19093226Y17611555D01*
X19218864Y17307488D01*
X19451299Y17074646D01*
X19755147Y16948478D01*
X20084148Y16948191D01*
X20388215Y17073829D01*
X20621057Y17306264D01*
X20747225Y17610112D01*
X20747512Y17939113D01*
X20621874Y18243180D01*
X20389439Y18476022D01*
X20085591Y18602190D01*
X19756590Y18602477D01*
X19452523Y18476839D01*
X19219681Y18244404D01*
X19093513Y17940556D01*
X19093226Y17611555D01*
X16385306Y17611555D01*
X16292121Y17837078D01*
X16059686Y18069920D01*
X15755838Y18196088D01*
X15426837Y18196375D01*
X15122770Y18070737D01*
X14889928Y17838302D01*
X14763760Y17534454D01*
X14763473Y17205453D01*
X14295773Y17205453D01*
X11070447Y19355670D01*
X11000000Y19377000D01*
X6250000Y19377000D01*
X6203841Y19368315D01*
X6161447Y19341035D01*
X6133006Y19299410D01*
X6123000Y19250000D01*
X502000Y19250000D01*
X502000Y19823120D01*
X11407387Y19823120D01*
X11533025Y19519053D01*
X11765460Y19286211D01*
X12069308Y19160043D01*
X12398309Y19159756D01*
X12702376Y19285394D01*
X12919961Y19502599D01*
X12954174Y19419797D01*
X13186609Y19186955D01*
X13490457Y19060787D01*
X13819458Y19060500D01*
X14123525Y19186138D01*
X14356367Y19418573D01*
X14482535Y19722421D01*
X14482765Y19986221D01*
X16647867Y19986221D01*
X16773505Y19682154D01*
X17005940Y19449312D01*
X17309788Y19323144D01*
X17638789Y19322857D01*
X17942856Y19448495D01*
X18175698Y19680930D01*
X18240176Y19836213D01*
X22172857Y19836213D01*
X22298495Y19532146D01*
X22530930Y19299304D01*
X22834778Y19173136D01*
X23163779Y19172849D01*
X23467846Y19298487D01*
X23562591Y19393067D01*
X23617944Y19337617D01*
X23921792Y19211449D01*
X24250793Y19211162D01*
X24554860Y19336800D01*
X24787702Y19569235D01*
X24907318Y19857304D01*
X25067874Y19696467D01*
X25371722Y19570299D01*
X25700723Y19570012D01*
X26004790Y19695650D01*
X26237632Y19928085D01*
X26363800Y20231933D01*
X26364087Y20560934D01*
X26273970Y20779034D01*
X26408553Y20913382D01*
X26534721Y21217230D01*
X26535008Y21546231D01*
X26409370Y21850298D01*
X26176935Y22083140D01*
X25873087Y22209308D01*
X25544086Y22209595D01*
X25240019Y22083957D01*
X25161159Y22005235D01*
X24981891Y22184817D01*
X24678043Y22310985D01*
X24349042Y22311272D01*
X24044975Y22185634D01*
X23812133Y21953199D01*
X23685965Y21649351D01*
X23685678Y21320350D01*
X23811316Y21016283D01*
X23961921Y20865414D01*
X23923235Y20865448D01*
X23619168Y20739810D01*
X23524423Y20645230D01*
X23469070Y20700680D01*
X23165222Y20826848D01*
X22836221Y20827135D01*
X22532154Y20701497D01*
X22299312Y20469062D01*
X22173144Y20165214D01*
X22172857Y19836213D01*
X18240176Y19836213D01*
X18301866Y19984778D01*
X18302153Y20313779D01*
X18220990Y20510209D01*
X18223389Y20509213D01*
X18552390Y20508926D01*
X18856457Y20634564D01*
X19089299Y20866999D01*
X19215467Y21170847D01*
X19215754Y21499848D01*
X19090116Y21803915D01*
X18857681Y22036757D01*
X18553833Y22162925D01*
X18246086Y22163193D01*
X18184871Y22311345D01*
X17952436Y22544187D01*
X17648588Y22670355D01*
X17319587Y22670642D01*
X17015520Y22545004D01*
X16782678Y22312569D01*
X16656510Y22008721D01*
X16656223Y21679720D01*
X16781861Y21375653D01*
X17014296Y21142811D01*
X17318144Y21016643D01*
X17625891Y21016375D01*
X17642631Y20975860D01*
X17640232Y20976856D01*
X17311231Y20977143D01*
X17007164Y20851505D01*
X16774322Y20619070D01*
X16648154Y20315222D01*
X16647867Y19986221D01*
X14482765Y19986221D01*
X14482822Y20051422D01*
X14357184Y20355489D01*
X14124749Y20588331D01*
X13821081Y20714424D01*
X13821157Y20801222D01*
X13695519Y21105289D01*
X13463084Y21338131D01*
X13159236Y21464299D01*
X12830235Y21464586D01*
X12526168Y21338948D01*
X12293326Y21106513D01*
X12171845Y20813954D01*
X12070751Y20814042D01*
X11766684Y20688404D01*
X11533842Y20455969D01*
X11407674Y20152121D01*
X11407387Y19823120D01*
X502000Y19823120D01*
X502000Y22236215D01*
X4272857Y22236215D01*
X4398495Y21932148D01*
X4630930Y21699306D01*
X4934778Y21573138D01*
X5263779Y21572851D01*
X5567846Y21698489D01*
X5800688Y21930924D01*
X5926856Y22234772D01*
X5927143Y22563773D01*
X5801505Y22867840D01*
X5569070Y23100682D01*
X5265222Y23226850D01*
X4936221Y23227137D01*
X4632154Y23101499D01*
X4399312Y22869064D01*
X4273144Y22565216D01*
X4272857Y22236215D01*
X502000Y22236215D01*
X502000Y23236221D01*
X10122857Y23236221D01*
X10248495Y22932154D01*
X10480930Y22699312D01*
X10784778Y22573144D01*
X11113779Y22572857D01*
X11417846Y22698495D01*
X11650688Y22930930D01*
X11776856Y23234778D01*
X11777143Y23563779D01*
X11651505Y23867846D01*
X11419070Y24100688D01*
X11115222Y24226856D01*
X10786221Y24227143D01*
X10482154Y24101505D01*
X10249312Y23869070D01*
X10123144Y23565222D01*
X10122857Y23236221D01*
X502000Y23236221D01*
X502000Y24436221D01*
X15872857Y24436221D01*
X15998495Y24132154D01*
X16230930Y23899312D01*
X16534778Y23773144D01*
X16863779Y23772857D01*
X17167846Y23898495D01*
X17329840Y24060206D01*
X17267009Y23908891D01*
X17266722Y23579890D01*
X17392360Y23275823D01*
X17624795Y23042981D01*
X17928643Y22916813D01*
X17990143Y22916759D01*
X17990119Y22889440D01*
X18115757Y22585373D01*
X18348192Y22352531D01*
X18652040Y22226363D01*
X18981041Y22226076D01*
X19285108Y22351714D01*
X19517950Y22584149D01*
X19644118Y22887997D01*
X19644405Y23216998D01*
X19518767Y23521065D01*
X19286332Y23753907D01*
X18982484Y23880075D01*
X18920984Y23880129D01*
X18921008Y23907448D01*
X18847141Y24086221D01*
X29972857Y24086221D01*
X30098495Y23782154D01*
X30330930Y23549312D01*
X30634778Y23423144D01*
X30963779Y23422857D01*
X31267846Y23548495D01*
X31500688Y23780930D01*
X31626856Y24084778D01*
X31627143Y24413779D01*
X31501505Y24717846D01*
X31269070Y24950688D01*
X30965222Y25076856D01*
X30636221Y25077143D01*
X30332154Y24951505D01*
X30099312Y24719070D01*
X29973144Y24415222D01*
X29972857Y24086221D01*
X18847141Y24086221D01*
X18795370Y24211515D01*
X18562935Y24444357D01*
X18429304Y24499845D01*
X18526856Y24734778D01*
X18527143Y25063779D01*
X18455892Y25236221D01*
X23272857Y25236221D01*
X23398495Y24932154D01*
X23630930Y24699312D01*
X23934778Y24573144D01*
X24263779Y24572857D01*
X24567846Y24698495D01*
X24800688Y24930930D01*
X24926856Y25234778D01*
X24927143Y25563779D01*
X24801505Y25867846D01*
X24569070Y26100688D01*
X24265222Y26226856D01*
X23936221Y26227143D01*
X23632154Y26101505D01*
X23399312Y25869070D01*
X23273144Y25565222D01*
X23272857Y25236221D01*
X18455892Y25236221D01*
X18401505Y25367846D01*
X18169070Y25600688D01*
X17865222Y25726856D01*
X17536221Y25727143D01*
X17232154Y25601505D01*
X17000803Y25370558D01*
X16865222Y25426856D01*
X16536221Y25427143D01*
X16232154Y25301505D01*
X15999312Y25069070D01*
X15873144Y24765222D01*
X15872857Y24436221D01*
X502000Y24436221D01*
X502000Y26297756D01*
X914427Y25884608D01*
X2265391Y25323639D01*
X3728192Y25322363D01*
X5080132Y25880973D01*
X6115392Y26914427D01*
X6434635Y27683250D01*
X6434635Y26650000D01*
X6464409Y26491763D01*
X6557927Y26346433D01*
X6700619Y26248936D01*
X6870000Y26214635D01*
X8370000Y26214635D01*
X8528237Y26244409D01*
X8673567Y26337927D01*
X8771064Y26480619D01*
X8805365Y26650000D01*
X8805365Y27166907D01*
X8982796Y27166907D01*
X9161606Y26734154D01*
X9492412Y26402770D01*
X9924853Y26223205D01*
X10393093Y26222796D01*
X10825846Y26401606D01*
X11157230Y26732412D01*
X11336795Y27164853D01*
X11336796Y27166907D01*
X11522796Y27166907D01*
X11701606Y26734154D01*
X12032412Y26402770D01*
X12464853Y26223205D01*
X12933093Y26222796D01*
X13365846Y26401606D01*
X13697230Y26732412D01*
X13876795Y27164853D01*
X13876796Y27166907D01*
X14062796Y27166907D01*
X14241606Y26734154D01*
X14572412Y26402770D01*
X15004853Y26223205D01*
X15473093Y26222796D01*
X15905846Y26401606D01*
X15932769Y26428483D01*
X16988088Y26428483D01*
X17056077Y26187540D01*
X17575171Y26002799D01*
X18125448Y26030770D01*
X18503923Y26187540D01*
X18571912Y26428483D01*
X17780000Y27220395D01*
X16988088Y26428483D01*
X15932769Y26428483D01*
X16237230Y26732412D01*
X16406432Y27139896D01*
X16410770Y27054552D01*
X16567540Y26676077D01*
X16808483Y26608088D01*
X17600395Y27400000D01*
X17959605Y27400000D01*
X18751517Y26608088D01*
X18992460Y26676077D01*
X19177201Y27195171D01*
X19149230Y27745448D01*
X18992460Y28123923D01*
X18751517Y28191912D01*
X17959605Y27400000D01*
X17600395Y27400000D01*
X16808483Y28191912D01*
X16567540Y28123923D01*
X16404124Y27664749D01*
X16238394Y28065846D01*
X15907588Y28397230D01*
X15475147Y28576795D01*
X15006907Y28577204D01*
X14574154Y28398394D01*
X14242770Y28067588D01*
X14063205Y27635147D01*
X14062796Y27166907D01*
X13876796Y27166907D01*
X13877204Y27633093D01*
X13698394Y28065846D01*
X13367588Y28397230D01*
X12960104Y28566432D01*
X13045448Y28570770D01*
X13423923Y28727540D01*
X13491912Y28968483D01*
X12700000Y29760395D01*
X11908088Y28968483D01*
X11976077Y28727540D01*
X12435251Y28564124D01*
X12034154Y28398394D01*
X11702770Y28067588D01*
X11523205Y27635147D01*
X11522796Y27166907D01*
X11336796Y27166907D01*
X11337204Y27633093D01*
X11158394Y28065846D01*
X10827588Y28397230D01*
X10395147Y28576795D01*
X9926907Y28577204D01*
X9494154Y28398394D01*
X9162770Y28067588D01*
X8983205Y27635147D01*
X8982796Y27166907D01*
X8805365Y27166907D01*
X8805365Y28150000D01*
X8775591Y28308237D01*
X8682073Y28453567D01*
X8539381Y28551064D01*
X8370000Y28585365D01*
X6870000Y28585365D01*
X6711763Y28555591D01*
X6676594Y28532960D01*
X6676832Y28805189D01*
X6700619Y28788936D01*
X6870000Y28754635D01*
X8370000Y28754635D01*
X8528237Y28784409D01*
X8673567Y28877927D01*
X8771064Y29020619D01*
X8805365Y29190000D01*
X8805365Y29706907D01*
X8982796Y29706907D01*
X9161606Y29274154D01*
X9492412Y28942770D01*
X9924853Y28763205D01*
X10393093Y28762796D01*
X10825846Y28941606D01*
X11157230Y29272412D01*
X11326432Y29679896D01*
X11330770Y29594552D01*
X11487540Y29216077D01*
X11728483Y29148088D01*
X12520395Y29940000D01*
X12879605Y29940000D01*
X13671517Y29148088D01*
X13912460Y29216077D01*
X14075876Y29675251D01*
X14241606Y29274154D01*
X14572412Y28942770D01*
X15004853Y28763205D01*
X15473093Y28762796D01*
X15905846Y28941606D01*
X16237230Y29272412D01*
X16416795Y29704853D01*
X16416796Y29706907D01*
X16602796Y29706907D01*
X16781606Y29274154D01*
X17112412Y28942770D01*
X17519896Y28773568D01*
X17434552Y28769230D01*
X17056077Y28612460D01*
X16988088Y28371517D01*
X17780000Y27579605D01*
X18571912Y28371517D01*
X18503923Y28612460D01*
X18044749Y28775876D01*
X18445846Y28941606D01*
X18777230Y29272412D01*
X18956795Y29704853D01*
X18956796Y29706907D01*
X19142796Y29706907D01*
X19321606Y29274154D01*
X19652412Y28942770D01*
X20084853Y28763205D01*
X20553093Y28762796D01*
X20985846Y28941606D01*
X21317230Y29272412D01*
X21385249Y29436221D01*
X22222855Y29436221D01*
X22348493Y29132154D01*
X22580928Y28899312D01*
X22884776Y28773144D01*
X23213777Y28772857D01*
X23517844Y28898495D01*
X23549857Y28930452D01*
X23580943Y28899312D01*
X23884791Y28773144D01*
X24213792Y28772857D01*
X24517859Y28898495D01*
X24750701Y29130930D01*
X24876869Y29434778D01*
X24876870Y29436221D01*
X25022857Y29436221D01*
X25148495Y29132154D01*
X25380930Y28899312D01*
X25684778Y28773144D01*
X26013779Y28772857D01*
X26317846Y28898495D01*
X26550688Y29130930D01*
X26676856Y29434778D01*
X26677143Y29763779D01*
X26551505Y30067846D01*
X26319070Y30300688D01*
X26015222Y30426856D01*
X25686221Y30427143D01*
X25382154Y30301505D01*
X25149312Y30069070D01*
X25023144Y29765222D01*
X25022857Y29436221D01*
X24876870Y29436221D01*
X24877156Y29763779D01*
X24751518Y30067846D01*
X24519083Y30300688D01*
X24215235Y30426856D01*
X23886234Y30427143D01*
X23582167Y30301505D01*
X23550154Y30269548D01*
X23519068Y30300688D01*
X23215220Y30426856D01*
X22886219Y30427143D01*
X22582152Y30301505D01*
X22349310Y30069070D01*
X22223142Y29765222D01*
X22222855Y29436221D01*
X21385249Y29436221D01*
X21496795Y29704853D01*
X21497204Y30173093D01*
X21318394Y30605846D01*
X20987588Y30937230D01*
X20555147Y31116795D01*
X20086907Y31117204D01*
X19654154Y30938394D01*
X19322770Y30607588D01*
X19143205Y30175147D01*
X19142796Y29706907D01*
X18956796Y29706907D01*
X18957204Y30173093D01*
X18778394Y30605846D01*
X18447588Y30937230D01*
X18015147Y31116795D01*
X17546907Y31117204D01*
X17114154Y30938394D01*
X16782770Y30607588D01*
X16603205Y30175147D01*
X16602796Y29706907D01*
X16416796Y29706907D01*
X16417204Y30173093D01*
X16238394Y30605846D01*
X15907588Y30937230D01*
X15475147Y31116795D01*
X15006907Y31117204D01*
X14574154Y30938394D01*
X14242770Y30607588D01*
X14073568Y30200104D01*
X14069230Y30285448D01*
X13912460Y30663923D01*
X13671517Y30731912D01*
X12879605Y29940000D01*
X12520395Y29940000D01*
X11728483Y30731912D01*
X11487540Y30663923D01*
X11324124Y30204749D01*
X11158394Y30605846D01*
X10853257Y30911517D01*
X11908088Y30911517D01*
X12700000Y30119605D01*
X13491912Y30911517D01*
X13423923Y31152460D01*
X12904829Y31337201D01*
X12354552Y31309230D01*
X11976077Y31152460D01*
X11908088Y30911517D01*
X10853257Y30911517D01*
X10827588Y30937230D01*
X10395147Y31116795D01*
X9926907Y31117204D01*
X9494154Y30938394D01*
X9162770Y30607588D01*
X8983205Y30175147D01*
X8982796Y29706907D01*
X8805365Y29706907D01*
X8805365Y30690000D01*
X8775591Y30848237D01*
X8682073Y30993567D01*
X8539381Y31091064D01*
X8370000Y31125365D01*
X6870000Y31125365D01*
X6711763Y31095591D01*
X6566433Y31002073D01*
X6468936Y30859381D01*
X6434635Y30690000D01*
X6434635Y30316302D01*
X6119027Y31080132D01*
X5701888Y31498000D01*
X32623000Y31498000D01*
X32623000Y2350000D01*
X32623000Y2350000D01*
G37*
X32623000Y2350000D02*
X32633006Y2300590D01*
X32652436Y2268697D01*
X33123000Y1704020D01*
X33123000Y502000D01*
X5202244Y502000D01*
X5615392Y914427D01*
X6176361Y2265391D01*
X6176783Y2750000D01*
X6434635Y2750000D01*
X6434635Y1250000D01*
X6464409Y1091763D01*
X6557927Y946433D01*
X6700619Y848936D01*
X6870000Y814635D01*
X8370000Y814635D01*
X8528237Y844409D01*
X8673567Y937927D01*
X8771064Y1080619D01*
X8805365Y1250000D01*
X8805365Y1766907D01*
X8982796Y1766907D01*
X9161606Y1334154D01*
X9492412Y1002770D01*
X9924853Y823205D01*
X10393093Y822796D01*
X10825846Y1001606D01*
X11157230Y1332412D01*
X11336795Y1764853D01*
X11336796Y1766907D01*
X11522796Y1766907D01*
X11701606Y1334154D01*
X12032412Y1002770D01*
X12464853Y823205D01*
X12933093Y822796D01*
X13365846Y1001606D01*
X13697230Y1332412D01*
X13876795Y1764853D01*
X13876796Y1766907D01*
X14062796Y1766907D01*
X14241606Y1334154D01*
X14572412Y1002770D01*
X15004853Y823205D01*
X15473093Y822796D01*
X15905846Y1001606D01*
X15932769Y1028483D01*
X16988088Y1028483D01*
X17056077Y787540D01*
X17575171Y602799D01*
X18125448Y630770D01*
X18503923Y787540D01*
X18571912Y1028483D01*
X17780000Y1820395D01*
X16988088Y1028483D01*
X15932769Y1028483D01*
X16237230Y1332412D01*
X16406432Y1739896D01*
X16410770Y1654552D01*
X16567540Y1276077D01*
X16808483Y1208088D01*
X17600395Y2000000D01*
X16808483Y2791912D01*
X16567540Y2723923D01*
X16404124Y2264749D01*
X16238394Y2665846D01*
X15933257Y2971517D01*
X16988088Y2971517D01*
X17780000Y2179605D01*
X17794143Y2193747D01*
X17973748Y2014142D01*
X17959605Y2000000D01*
X18751517Y1208088D01*
X18992460Y1276077D01*
X19177201Y1795171D01*
X19176025Y1818302D01*
X19284778Y1773144D01*
X19613779Y1772857D01*
X19917846Y1898495D01*
X20150688Y2130930D01*
X20276856Y2434778D01*
X20277143Y2763779D01*
X20151505Y3067846D01*
X19919070Y3300688D01*
X19615222Y3426856D01*
X19286221Y3427143D01*
X18982154Y3301505D01*
X18749312Y3069070D01*
X18736155Y3037385D01*
X18686966Y3086574D01*
X18571911Y2971519D01*
X18503923Y3212460D01*
X17984829Y3397201D01*
X17434552Y3369230D01*
X17056077Y3212460D01*
X16988088Y2971517D01*
X15933257Y2971517D01*
X15907588Y2997230D01*
X15475147Y3176795D01*
X15006907Y3177204D01*
X14574154Y2998394D01*
X14242770Y2667588D01*
X14063205Y2235147D01*
X14062796Y1766907D01*
X13876796Y1766907D01*
X13877204Y2233093D01*
X13698394Y2665846D01*
X13367588Y2997230D01*
X12935147Y3176795D01*
X12466907Y3177204D01*
X12034154Y2998394D01*
X11702770Y2667588D01*
X11523205Y2235147D01*
X11522796Y1766907D01*
X11336796Y1766907D01*
X11337204Y2233093D01*
X11158394Y2665846D01*
X10827588Y2997230D01*
X10395147Y3176795D01*
X9926907Y3177204D01*
X9494154Y2998394D01*
X9162770Y2667588D01*
X8983205Y2235147D01*
X8982796Y1766907D01*
X8805365Y1766907D01*
X8805365Y2750000D01*
X8775591Y2908237D01*
X8682073Y3053567D01*
X8539381Y3151064D01*
X8370000Y3185365D01*
X6870000Y3185365D01*
X6711763Y3155591D01*
X6566433Y3062073D01*
X6468936Y2919381D01*
X6434635Y2750000D01*
X6176783Y2750000D01*
X6177637Y3728192D01*
X5619027Y5080132D01*
X5394726Y5304825D01*
X19816780Y5304825D01*
X19942418Y5000758D01*
X20174853Y4767916D01*
X20478701Y4641748D01*
X20807702Y4641461D01*
X21111769Y4767099D01*
X21322225Y4977187D01*
X21479845Y4819291D01*
X21783693Y4693123D01*
X22112694Y4692836D01*
X22416761Y4818474D01*
X22649603Y5050909D01*
X22775771Y5354757D01*
X22776058Y5683758D01*
X22713062Y5836221D01*
X30872857Y5836221D01*
X30998495Y5532154D01*
X31230930Y5299312D01*
X31534778Y5173144D01*
X31863779Y5172857D01*
X32167846Y5298495D01*
X32400688Y5530930D01*
X32526856Y5834778D01*
X32527143Y6163779D01*
X32401505Y6467846D01*
X32169070Y6700688D01*
X31865222Y6826856D01*
X31536221Y6827143D01*
X31232154Y6701505D01*
X30999312Y6469070D01*
X30873144Y6165222D01*
X30872857Y5836221D01*
X22713062Y5836221D01*
X22650420Y5987825D01*
X22417985Y6220667D01*
X22114137Y6346835D01*
X21785136Y6347122D01*
X21481069Y6221484D01*
X21270613Y6011396D01*
X21112993Y6169292D01*
X20809145Y6295460D01*
X20480144Y6295747D01*
X20176077Y6170109D01*
X19943235Y5937674D01*
X19817067Y5633826D01*
X19816780Y5304825D01*
X5394726Y5304825D01*
X4585573Y6115392D01*
X3690334Y6487127D01*
X3717846Y6498495D01*
X3950688Y6730930D01*
X4076856Y7034778D01*
X4076940Y7131221D01*
X19122857Y7131221D01*
X19248495Y6827154D01*
X19480930Y6594312D01*
X19784778Y6468144D01*
X20113779Y6467857D01*
X20417846Y6593495D01*
X20502527Y6678028D01*
X20680930Y6499312D01*
X20984778Y6373144D01*
X21313779Y6372857D01*
X21617846Y6498495D01*
X21850688Y6730930D01*
X21966448Y7009713D01*
X21998495Y6932154D01*
X22230930Y6699312D01*
X22534778Y6573144D01*
X22863779Y6572857D01*
X23167846Y6698495D01*
X23400688Y6930930D01*
X23526856Y7234778D01*
X23527143Y7563779D01*
X23401505Y7867846D01*
X23169070Y8100688D01*
X22865222Y8226856D01*
X22536221Y8227143D01*
X22232154Y8101505D01*
X21999312Y7869070D01*
X21883552Y7590287D01*
X21851505Y7667846D01*
X21619070Y7900688D01*
X21315222Y8026856D01*
X20986221Y8027143D01*
X20682154Y7901505D01*
X20597473Y7816972D01*
X20419070Y7995688D01*
X20115222Y8121856D01*
X19786221Y8122143D01*
X19482154Y7996505D01*
X19249312Y7764070D01*
X19123144Y7460222D01*
X19122857Y7131221D01*
X4076940Y7131221D01*
X4077143Y7363779D01*
X3951505Y7667846D01*
X3719070Y7900688D01*
X3415222Y8026856D01*
X3086221Y8027143D01*
X2782154Y7901505D01*
X2549312Y7669070D01*
X2423144Y7365222D01*
X2422857Y7036221D01*
X2548495Y6732154D01*
X2603641Y6676911D01*
X1771808Y6677637D01*
X502000Y6152963D01*
X502000Y9361229D01*
X22816056Y9361229D01*
X22941694Y9057162D01*
X23174129Y8824320D01*
X23477977Y8698152D01*
X23585293Y8698058D01*
X23460513Y8397553D01*
X23460226Y8068552D01*
X23585864Y7764485D01*
X23818299Y7531643D01*
X24122147Y7405475D01*
X24451148Y7405188D01*
X24526253Y7436221D01*
X29972861Y7436221D01*
X30098499Y7132154D01*
X30330934Y6899312D01*
X30634782Y6773144D01*
X30963783Y6772857D01*
X31267850Y6898495D01*
X31500692Y7130930D01*
X31626860Y7434778D01*
X31627147Y7763779D01*
X31501509Y8067846D01*
X31269074Y8300688D01*
X30965226Y8426856D01*
X30636225Y8427143D01*
X30332158Y8301505D01*
X30099316Y8069070D01*
X29973148Y7765222D01*
X29972861Y7436221D01*
X24526253Y7436221D01*
X24755215Y7530826D01*
X24988057Y7763261D01*
X25114225Y8067109D01*
X25114512Y8396110D01*
X24988874Y8700177D01*
X24756439Y8933019D01*
X24452591Y9059187D01*
X24345275Y9059281D01*
X24470055Y9359786D01*
X24470342Y9688787D01*
X24344704Y9992854D01*
X24112269Y10225696D01*
X23808421Y10351864D01*
X23479420Y10352151D01*
X23175353Y10226513D01*
X22942511Y9994078D01*
X22816343Y9690230D01*
X22816056Y9361229D01*
X502000Y9361229D01*
X502000Y10336221D01*
X13172857Y10336221D01*
X13298495Y10032154D01*
X13530930Y9799312D01*
X13834778Y9673144D01*
X14163779Y9672857D01*
X14467846Y9798495D01*
X14700688Y10030930D01*
X14721784Y10081734D01*
X14817867Y9849195D01*
X15050302Y9616353D01*
X15354150Y9490185D01*
X15683151Y9489898D01*
X15987218Y9615536D01*
X16220060Y9847971D01*
X16346228Y10151819D01*
X16346515Y10480820D01*
X16220877Y10784887D01*
X15988442Y11017729D01*
X15684594Y11143897D01*
X15355593Y11144184D01*
X15051526Y11018546D01*
X14818684Y10786111D01*
X14797588Y10735307D01*
X14701505Y10967846D01*
X14497548Y11172160D01*
X14682320Y11248506D01*
X14915162Y11480941D01*
X15041330Y11784789D01*
X15041617Y12113790D01*
X14915979Y12417857D01*
X14683544Y12650699D01*
X14379696Y12776867D01*
X14050695Y12777154D01*
X13746628Y12651516D01*
X13513786Y12419081D01*
X13387618Y12115233D01*
X13387331Y11786232D01*
X13512969Y11482165D01*
X13716926Y11277851D01*
X13532154Y11201505D01*
X13299312Y10969070D01*
X13173144Y10665222D01*
X13172857Y10336221D01*
X502000Y10336221D01*
X502000Y12686221D01*
X3272857Y12686221D01*
X3398495Y12382154D01*
X3630930Y12149312D01*
X3934778Y12023144D01*
X4263779Y12022857D01*
X4567846Y12148495D01*
X4800688Y12380930D01*
X4926856Y12684778D01*
X4926906Y12742365D01*
X10048222Y12742365D01*
X10173860Y12438298D01*
X10406295Y12205456D01*
X10710143Y12079288D01*
X11039144Y12079001D01*
X11343211Y12204639D01*
X11576053Y12437074D01*
X11702221Y12740922D01*
X11702305Y12838054D01*
X18360669Y12838054D01*
X18486307Y12533987D01*
X18718742Y12301145D01*
X19022590Y12174977D01*
X19351591Y12174690D01*
X19655658Y12300328D01*
X19711166Y12355739D01*
X19717594Y12349300D01*
X20021442Y12223132D01*
X20350443Y12222845D01*
X20654510Y12348483D01*
X20887352Y12580918D01*
X21013520Y12884766D01*
X21013807Y13213767D01*
X20888169Y13517834D01*
X20655734Y13750676D01*
X20351886Y13876844D01*
X20022885Y13877131D01*
X19718818Y13751493D01*
X19663310Y13696082D01*
X19656882Y13702521D01*
X19353034Y13828689D01*
X19024033Y13828976D01*
X18719966Y13703338D01*
X18487124Y13470903D01*
X18360956Y13167055D01*
X18360669Y12838054D01*
X11702305Y12838054D01*
X11702386Y12930133D01*
X11867834Y12998495D01*
X12100676Y13230930D01*
X12226844Y13534778D01*
X12227131Y13863779D01*
X12101493Y14167846D01*
X11933413Y14336221D01*
X14722718Y14336221D01*
X14848356Y14032154D01*
X15080791Y13799312D01*
X15384639Y13673144D01*
X15713640Y13672857D01*
X16017707Y13798495D01*
X16250549Y14030930D01*
X16376717Y14334778D01*
X16377004Y14663779D01*
X16347072Y14736221D01*
X19372857Y14736221D01*
X19498495Y14432154D01*
X19730930Y14199312D01*
X20034778Y14073144D01*
X20363779Y14072857D01*
X20667846Y14198495D01*
X20900688Y14430930D01*
X21026856Y14734778D01*
X21027143Y15063779D01*
X20901505Y15367846D01*
X20669070Y15600688D01*
X20365222Y15726856D01*
X20036221Y15727143D01*
X19732154Y15601505D01*
X19499312Y15369070D01*
X19373144Y15065222D01*
X19372857Y14736221D01*
X16347072Y14736221D01*
X16251366Y14967846D01*
X16018931Y15200688D01*
X15715083Y15326856D01*
X15386082Y15327143D01*
X15082015Y15201505D01*
X14849173Y14969070D01*
X14723005Y14665222D01*
X14722718Y14336221D01*
X11933413Y14336221D01*
X11869058Y14400688D01*
X11565210Y14526856D01*
X11236209Y14527143D01*
X10932142Y14401505D01*
X10699300Y14169070D01*
X10573132Y13865222D01*
X10572967Y13676011D01*
X10407519Y13607649D01*
X10174677Y13375214D01*
X10048509Y13071366D01*
X10048222Y12742365D01*
X4926906Y12742365D01*
X4927143Y13013779D01*
X4801505Y13317846D01*
X4569070Y13550688D01*
X4265222Y13676856D01*
X3936221Y13677143D01*
X3632154Y13551505D01*
X3399312Y13319070D01*
X3273144Y13015222D01*
X3272857Y12686221D01*
X502000Y12686221D01*
X502000Y13636221D01*
X1122857Y13636221D01*
X1248495Y13332154D01*
X1480930Y13099312D01*
X1784778Y12973144D01*
X2113779Y12972857D01*
X2417846Y13098495D01*
X2650688Y13330930D01*
X2776856Y13634778D01*
X2777143Y13963779D01*
X2651505Y14267846D01*
X2533337Y14386221D01*
X3272857Y14386221D01*
X3398495Y14082154D01*
X3630930Y13849312D01*
X3934778Y13723144D01*
X4263779Y13722857D01*
X4567846Y13848495D01*
X4800688Y14080930D01*
X4926856Y14384778D01*
X4927143Y14713779D01*
X4801505Y15017846D01*
X4569070Y15250688D01*
X4265222Y15376856D01*
X3936221Y15377143D01*
X3632154Y15251505D01*
X3399312Y15019070D01*
X3273144Y14715222D01*
X3272857Y14386221D01*
X2533337Y14386221D01*
X2419070Y14500688D01*
X2115222Y14626856D01*
X1786221Y14627143D01*
X1482154Y14501505D01*
X1249312Y14269070D01*
X1123144Y13965222D01*
X1122857Y13636221D01*
X502000Y13636221D01*
X502000Y19250000D01*
X6123000Y19250000D01*
X6123000Y15495000D01*
X6131726Y15448738D01*
X6159042Y15406367D01*
X6200692Y15377963D01*
X6250110Y15368000D01*
X12000110Y15373000D01*
X14750000Y15373000D01*
X14796159Y15381685D01*
X14838553Y15408965D01*
X14866994Y15450590D01*
X14877000Y15500000D01*
X14877000Y16136221D01*
X28572857Y16136221D01*
X28698495Y15832154D01*
X28930930Y15599312D01*
X29234778Y15473144D01*
X29563779Y15472857D01*
X29867846Y15598495D01*
X30100688Y15830930D01*
X30226856Y16134778D01*
X30227143Y16463779D01*
X30101505Y16767846D01*
X29869070Y17000688D01*
X29565222Y17126856D01*
X29236221Y17127143D01*
X28932154Y17001505D01*
X28699312Y16769070D01*
X28573144Y16465222D01*
X28572857Y16136221D01*
X14877000Y16136221D01*
X14877000Y16750000D01*
X14856008Y16819937D01*
X14820447Y16855670D01*
X14295773Y17205453D01*
X14763473Y17205453D01*
X14889111Y16901386D01*
X15121546Y16668544D01*
X15425394Y16542376D01*
X15754395Y16542089D01*
X16058462Y16667727D01*
X16291304Y16900162D01*
X16310068Y16945353D01*
X25108722Y16945353D01*
X25234360Y16641286D01*
X25466795Y16408444D01*
X25770643Y16282276D01*
X26099644Y16281989D01*
X26403711Y16407627D01*
X26636553Y16640062D01*
X26762721Y16943910D01*
X26763008Y17272911D01*
X26637370Y17576978D01*
X26404935Y17809820D01*
X26341354Y17836221D01*
X29872857Y17836221D01*
X29998495Y17532154D01*
X30230930Y17299312D01*
X30534778Y17173144D01*
X30863779Y17172857D01*
X31167846Y17298495D01*
X31400688Y17530930D01*
X31526856Y17834778D01*
X31527143Y18163779D01*
X31401505Y18467846D01*
X31169070Y18700688D01*
X30865222Y18826856D01*
X30536221Y18827143D01*
X30232154Y18701505D01*
X29999312Y18469070D01*
X29873144Y18165222D01*
X29872857Y17836221D01*
X26341354Y17836221D01*
X26101087Y17935988D01*
X25772086Y17936275D01*
X25468019Y17810637D01*
X25235177Y17578202D01*
X25109009Y17274354D01*
X25108722Y16945353D01*
X16310068Y16945353D01*
X16417472Y17204010D01*
X16417759Y17533011D01*
X16385306Y17611555D01*
X19093226Y17611555D01*
X19218864Y17307488D01*
X19451299Y17074646D01*
X19755147Y16948478D01*
X20084148Y16948191D01*
X20388215Y17073829D01*
X20621057Y17306264D01*
X20747225Y17610112D01*
X20747512Y17939113D01*
X20621874Y18243180D01*
X20389439Y18476022D01*
X20085591Y18602190D01*
X19756590Y18602477D01*
X19452523Y18476839D01*
X19219681Y18244404D01*
X19093513Y17940556D01*
X19093226Y17611555D01*
X16385306Y17611555D01*
X16292121Y17837078D01*
X16059686Y18069920D01*
X15755838Y18196088D01*
X15426837Y18196375D01*
X15122770Y18070737D01*
X14889928Y17838302D01*
X14763760Y17534454D01*
X14763473Y17205453D01*
X14295773Y17205453D01*
X11070447Y19355670D01*
X11000000Y19377000D01*
X6250000Y19377000D01*
X6203841Y19368315D01*
X6161447Y19341035D01*
X6133006Y19299410D01*
X6123000Y19250000D01*
X502000Y19250000D01*
X502000Y19823120D01*
X11407387Y19823120D01*
X11533025Y19519053D01*
X11765460Y19286211D01*
X12069308Y19160043D01*
X12398309Y19159756D01*
X12702376Y19285394D01*
X12919961Y19502599D01*
X12954174Y19419797D01*
X13186609Y19186955D01*
X13490457Y19060787D01*
X13819458Y19060500D01*
X14123525Y19186138D01*
X14356367Y19418573D01*
X14482535Y19722421D01*
X14482765Y19986221D01*
X16647867Y19986221D01*
X16773505Y19682154D01*
X17005940Y19449312D01*
X17309788Y19323144D01*
X17638789Y19322857D01*
X17942856Y19448495D01*
X18175698Y19680930D01*
X18240176Y19836213D01*
X22172857Y19836213D01*
X22298495Y19532146D01*
X22530930Y19299304D01*
X22834778Y19173136D01*
X23163779Y19172849D01*
X23467846Y19298487D01*
X23562591Y19393067D01*
X23617944Y19337617D01*
X23921792Y19211449D01*
X24250793Y19211162D01*
X24554860Y19336800D01*
X24787702Y19569235D01*
X24907318Y19857304D01*
X25067874Y19696467D01*
X25371722Y19570299D01*
X25700723Y19570012D01*
X26004790Y19695650D01*
X26237632Y19928085D01*
X26363800Y20231933D01*
X26364087Y20560934D01*
X26273970Y20779034D01*
X26408553Y20913382D01*
X26534721Y21217230D01*
X26535008Y21546231D01*
X26409370Y21850298D01*
X26176935Y22083140D01*
X25873087Y22209308D01*
X25544086Y22209595D01*
X25240019Y22083957D01*
X25161159Y22005235D01*
X24981891Y22184817D01*
X24678043Y22310985D01*
X24349042Y22311272D01*
X24044975Y22185634D01*
X23812133Y21953199D01*
X23685965Y21649351D01*
X23685678Y21320350D01*
X23811316Y21016283D01*
X23961921Y20865414D01*
X23923235Y20865448D01*
X23619168Y20739810D01*
X23524423Y20645230D01*
X23469070Y20700680D01*
X23165222Y20826848D01*
X22836221Y20827135D01*
X22532154Y20701497D01*
X22299312Y20469062D01*
X22173144Y20165214D01*
X22172857Y19836213D01*
X18240176Y19836213D01*
X18301866Y19984778D01*
X18302153Y20313779D01*
X18220990Y20510209D01*
X18223389Y20509213D01*
X18552390Y20508926D01*
X18856457Y20634564D01*
X19089299Y20866999D01*
X19215467Y21170847D01*
X19215754Y21499848D01*
X19090116Y21803915D01*
X18857681Y22036757D01*
X18553833Y22162925D01*
X18246086Y22163193D01*
X18184871Y22311345D01*
X17952436Y22544187D01*
X17648588Y22670355D01*
X17319587Y22670642D01*
X17015520Y22545004D01*
X16782678Y22312569D01*
X16656510Y22008721D01*
X16656223Y21679720D01*
X16781861Y21375653D01*
X17014296Y21142811D01*
X17318144Y21016643D01*
X17625891Y21016375D01*
X17642631Y20975860D01*
X17640232Y20976856D01*
X17311231Y20977143D01*
X17007164Y20851505D01*
X16774322Y20619070D01*
X16648154Y20315222D01*
X16647867Y19986221D01*
X14482765Y19986221D01*
X14482822Y20051422D01*
X14357184Y20355489D01*
X14124749Y20588331D01*
X13821081Y20714424D01*
X13821157Y20801222D01*
X13695519Y21105289D01*
X13463084Y21338131D01*
X13159236Y21464299D01*
X12830235Y21464586D01*
X12526168Y21338948D01*
X12293326Y21106513D01*
X12171845Y20813954D01*
X12070751Y20814042D01*
X11766684Y20688404D01*
X11533842Y20455969D01*
X11407674Y20152121D01*
X11407387Y19823120D01*
X502000Y19823120D01*
X502000Y22236215D01*
X4272857Y22236215D01*
X4398495Y21932148D01*
X4630930Y21699306D01*
X4934778Y21573138D01*
X5263779Y21572851D01*
X5567846Y21698489D01*
X5800688Y21930924D01*
X5926856Y22234772D01*
X5927143Y22563773D01*
X5801505Y22867840D01*
X5569070Y23100682D01*
X5265222Y23226850D01*
X4936221Y23227137D01*
X4632154Y23101499D01*
X4399312Y22869064D01*
X4273144Y22565216D01*
X4272857Y22236215D01*
X502000Y22236215D01*
X502000Y23236221D01*
X10122857Y23236221D01*
X10248495Y22932154D01*
X10480930Y22699312D01*
X10784778Y22573144D01*
X11113779Y22572857D01*
X11417846Y22698495D01*
X11650688Y22930930D01*
X11776856Y23234778D01*
X11777143Y23563779D01*
X11651505Y23867846D01*
X11419070Y24100688D01*
X11115222Y24226856D01*
X10786221Y24227143D01*
X10482154Y24101505D01*
X10249312Y23869070D01*
X10123144Y23565222D01*
X10122857Y23236221D01*
X502000Y23236221D01*
X502000Y24436221D01*
X15872857Y24436221D01*
X15998495Y24132154D01*
X16230930Y23899312D01*
X16534778Y23773144D01*
X16863779Y23772857D01*
X17167846Y23898495D01*
X17329840Y24060206D01*
X17267009Y23908891D01*
X17266722Y23579890D01*
X17392360Y23275823D01*
X17624795Y23042981D01*
X17928643Y22916813D01*
X17990143Y22916759D01*
X17990119Y22889440D01*
X18115757Y22585373D01*
X18348192Y22352531D01*
X18652040Y22226363D01*
X18981041Y22226076D01*
X19285108Y22351714D01*
X19517950Y22584149D01*
X19644118Y22887997D01*
X19644405Y23216998D01*
X19518767Y23521065D01*
X19286332Y23753907D01*
X18982484Y23880075D01*
X18920984Y23880129D01*
X18921008Y23907448D01*
X18847141Y24086221D01*
X29972857Y24086221D01*
X30098495Y23782154D01*
X30330930Y23549312D01*
X30634778Y23423144D01*
X30963779Y23422857D01*
X31267846Y23548495D01*
X31500688Y23780930D01*
X31626856Y24084778D01*
X31627143Y24413779D01*
X31501505Y24717846D01*
X31269070Y24950688D01*
X30965222Y25076856D01*
X30636221Y25077143D01*
X30332154Y24951505D01*
X30099312Y24719070D01*
X29973144Y24415222D01*
X29972857Y24086221D01*
X18847141Y24086221D01*
X18795370Y24211515D01*
X18562935Y24444357D01*
X18429304Y24499845D01*
X18526856Y24734778D01*
X18527143Y25063779D01*
X18455892Y25236221D01*
X23272857Y25236221D01*
X23398495Y24932154D01*
X23630930Y24699312D01*
X23934778Y24573144D01*
X24263779Y24572857D01*
X24567846Y24698495D01*
X24800688Y24930930D01*
X24926856Y25234778D01*
X24927143Y25563779D01*
X24801505Y25867846D01*
X24569070Y26100688D01*
X24265222Y26226856D01*
X23936221Y26227143D01*
X23632154Y26101505D01*
X23399312Y25869070D01*
X23273144Y25565222D01*
X23272857Y25236221D01*
X18455892Y25236221D01*
X18401505Y25367846D01*
X18169070Y25600688D01*
X17865222Y25726856D01*
X17536221Y25727143D01*
X17232154Y25601505D01*
X17000803Y25370558D01*
X16865222Y25426856D01*
X16536221Y25427143D01*
X16232154Y25301505D01*
X15999312Y25069070D01*
X15873144Y24765222D01*
X15872857Y24436221D01*
X502000Y24436221D01*
X502000Y26297756D01*
X914427Y25884608D01*
X2265391Y25323639D01*
X3728192Y25322363D01*
X5080132Y25880973D01*
X6115392Y26914427D01*
X6434635Y27683250D01*
X6434635Y26650000D01*
X6464409Y26491763D01*
X6557927Y26346433D01*
X6700619Y26248936D01*
X6870000Y26214635D01*
X8370000Y26214635D01*
X8528237Y26244409D01*
X8673567Y26337927D01*
X8771064Y26480619D01*
X8805365Y26650000D01*
X8805365Y27166907D01*
X8982796Y27166907D01*
X9161606Y26734154D01*
X9492412Y26402770D01*
X9924853Y26223205D01*
X10393093Y26222796D01*
X10825846Y26401606D01*
X11157230Y26732412D01*
X11336795Y27164853D01*
X11336796Y27166907D01*
X11522796Y27166907D01*
X11701606Y26734154D01*
X12032412Y26402770D01*
X12464853Y26223205D01*
X12933093Y26222796D01*
X13365846Y26401606D01*
X13697230Y26732412D01*
X13876795Y27164853D01*
X13876796Y27166907D01*
X14062796Y27166907D01*
X14241606Y26734154D01*
X14572412Y26402770D01*
X15004853Y26223205D01*
X15473093Y26222796D01*
X15905846Y26401606D01*
X15932769Y26428483D01*
X16988088Y26428483D01*
X17056077Y26187540D01*
X17575171Y26002799D01*
X18125448Y26030770D01*
X18503923Y26187540D01*
X18571912Y26428483D01*
X17780000Y27220395D01*
X16988088Y26428483D01*
X15932769Y26428483D01*
X16237230Y26732412D01*
X16406432Y27139896D01*
X16410770Y27054552D01*
X16567540Y26676077D01*
X16808483Y26608088D01*
X17600395Y27400000D01*
X17959605Y27400000D01*
X18751517Y26608088D01*
X18992460Y26676077D01*
X19177201Y27195171D01*
X19149230Y27745448D01*
X18992460Y28123923D01*
X18751517Y28191912D01*
X17959605Y27400000D01*
X17600395Y27400000D01*
X16808483Y28191912D01*
X16567540Y28123923D01*
X16404124Y27664749D01*
X16238394Y28065846D01*
X15907588Y28397230D01*
X15475147Y28576795D01*
X15006907Y28577204D01*
X14574154Y28398394D01*
X14242770Y28067588D01*
X14063205Y27635147D01*
X14062796Y27166907D01*
X13876796Y27166907D01*
X13877204Y27633093D01*
X13698394Y28065846D01*
X13367588Y28397230D01*
X12960104Y28566432D01*
X13045448Y28570770D01*
X13423923Y28727540D01*
X13491912Y28968483D01*
X12700000Y29760395D01*
X11908088Y28968483D01*
X11976077Y28727540D01*
X12435251Y28564124D01*
X12034154Y28398394D01*
X11702770Y28067588D01*
X11523205Y27635147D01*
X11522796Y27166907D01*
X11336796Y27166907D01*
X11337204Y27633093D01*
X11158394Y28065846D01*
X10827588Y28397230D01*
X10395147Y28576795D01*
X9926907Y28577204D01*
X9494154Y28398394D01*
X9162770Y28067588D01*
X8983205Y27635147D01*
X8982796Y27166907D01*
X8805365Y27166907D01*
X8805365Y28150000D01*
X8775591Y28308237D01*
X8682073Y28453567D01*
X8539381Y28551064D01*
X8370000Y28585365D01*
X6870000Y28585365D01*
X6711763Y28555591D01*
X6676594Y28532960D01*
X6676832Y28805189D01*
X6700619Y28788936D01*
X6870000Y28754635D01*
X8370000Y28754635D01*
X8528237Y28784409D01*
X8673567Y28877927D01*
X8771064Y29020619D01*
X8805365Y29190000D01*
X8805365Y29706907D01*
X8982796Y29706907D01*
X9161606Y29274154D01*
X9492412Y28942770D01*
X9924853Y28763205D01*
X10393093Y28762796D01*
X10825846Y28941606D01*
X11157230Y29272412D01*
X11326432Y29679896D01*
X11330770Y29594552D01*
X11487540Y29216077D01*
X11728483Y29148088D01*
X12520395Y29940000D01*
X12879605Y29940000D01*
X13671517Y29148088D01*
X13912460Y29216077D01*
X14075876Y29675251D01*
X14241606Y29274154D01*
X14572412Y28942770D01*
X15004853Y28763205D01*
X15473093Y28762796D01*
X15905846Y28941606D01*
X16237230Y29272412D01*
X16416795Y29704853D01*
X16416796Y29706907D01*
X16602796Y29706907D01*
X16781606Y29274154D01*
X17112412Y28942770D01*
X17519896Y28773568D01*
X17434552Y28769230D01*
X17056077Y28612460D01*
X16988088Y28371517D01*
X17780000Y27579605D01*
X18571912Y28371517D01*
X18503923Y28612460D01*
X18044749Y28775876D01*
X18445846Y28941606D01*
X18777230Y29272412D01*
X18956795Y29704853D01*
X18956796Y29706907D01*
X19142796Y29706907D01*
X19321606Y29274154D01*
X19652412Y28942770D01*
X20084853Y28763205D01*
X20553093Y28762796D01*
X20985846Y28941606D01*
X21317230Y29272412D01*
X21385249Y29436221D01*
X22222855Y29436221D01*
X22348493Y29132154D01*
X22580928Y28899312D01*
X22884776Y28773144D01*
X23213777Y28772857D01*
X23517844Y28898495D01*
X23549857Y28930452D01*
X23580943Y28899312D01*
X23884791Y28773144D01*
X24213792Y28772857D01*
X24517859Y28898495D01*
X24750701Y29130930D01*
X24876869Y29434778D01*
X24876870Y29436221D01*
X25022857Y29436221D01*
X25148495Y29132154D01*
X25380930Y28899312D01*
X25684778Y28773144D01*
X26013779Y28772857D01*
X26317846Y28898495D01*
X26550688Y29130930D01*
X26676856Y29434778D01*
X26677143Y29763779D01*
X26551505Y30067846D01*
X26319070Y30300688D01*
X26015222Y30426856D01*
X25686221Y30427143D01*
X25382154Y30301505D01*
X25149312Y30069070D01*
X25023144Y29765222D01*
X25022857Y29436221D01*
X24876870Y29436221D01*
X24877156Y29763779D01*
X24751518Y30067846D01*
X24519083Y30300688D01*
X24215235Y30426856D01*
X23886234Y30427143D01*
X23582167Y30301505D01*
X23550154Y30269548D01*
X23519068Y30300688D01*
X23215220Y30426856D01*
X22886219Y30427143D01*
X22582152Y30301505D01*
X22349310Y30069070D01*
X22223142Y29765222D01*
X22222855Y29436221D01*
X21385249Y29436221D01*
X21496795Y29704853D01*
X21497204Y30173093D01*
X21318394Y30605846D01*
X20987588Y30937230D01*
X20555147Y31116795D01*
X20086907Y31117204D01*
X19654154Y30938394D01*
X19322770Y30607588D01*
X19143205Y30175147D01*
X19142796Y29706907D01*
X18956796Y29706907D01*
X18957204Y30173093D01*
X18778394Y30605846D01*
X18447588Y30937230D01*
X18015147Y31116795D01*
X17546907Y31117204D01*
X17114154Y30938394D01*
X16782770Y30607588D01*
X16603205Y30175147D01*
X16602796Y29706907D01*
X16416796Y29706907D01*
X16417204Y30173093D01*
X16238394Y30605846D01*
X15907588Y30937230D01*
X15475147Y31116795D01*
X15006907Y31117204D01*
X14574154Y30938394D01*
X14242770Y30607588D01*
X14073568Y30200104D01*
X14069230Y30285448D01*
X13912460Y30663923D01*
X13671517Y30731912D01*
X12879605Y29940000D01*
X12520395Y29940000D01*
X11728483Y30731912D01*
X11487540Y30663923D01*
X11324124Y30204749D01*
X11158394Y30605846D01*
X10853257Y30911517D01*
X11908088Y30911517D01*
X12700000Y30119605D01*
X13491912Y30911517D01*
X13423923Y31152460D01*
X12904829Y31337201D01*
X12354552Y31309230D01*
X11976077Y31152460D01*
X11908088Y30911517D01*
X10853257Y30911517D01*
X10827588Y30937230D01*
X10395147Y31116795D01*
X9926907Y31117204D01*
X9494154Y30938394D01*
X9162770Y30607588D01*
X8983205Y30175147D01*
X8982796Y29706907D01*
X8805365Y29706907D01*
X8805365Y30690000D01*
X8775591Y30848237D01*
X8682073Y30993567D01*
X8539381Y31091064D01*
X8370000Y31125365D01*
X6870000Y31125365D01*
X6711763Y31095591D01*
X6566433Y31002073D01*
X6468936Y30859381D01*
X6434635Y30690000D01*
X6434635Y30316302D01*
X6119027Y31080132D01*
X5701888Y31498000D01*
X32623000Y31498000D01*
X32623000Y2350000D01*
G36*
X42123000Y28446664D02*
X42069070Y28500688D01*
X41765222Y28626856D01*
X41436221Y28627143D01*
X41132154Y28501505D01*
X40899312Y28269070D01*
X40773144Y27965222D01*
X40772857Y27636221D01*
X40898495Y27332154D01*
X41130930Y27099312D01*
X41434778Y26973144D01*
X41763779Y26972857D01*
X42067846Y27098495D01*
X42123000Y27153553D01*
X42123000Y19773810D01*
X42001505Y20067850D01*
X41769070Y20300692D01*
X41465222Y20426860D01*
X41136221Y20427147D01*
X40832154Y20301509D01*
X40599312Y20069074D01*
X40473144Y19765226D01*
X40472857Y19436225D01*
X40598495Y19132158D01*
X40830930Y18899316D01*
X41134778Y18773148D01*
X41463779Y18772861D01*
X41767846Y18898499D01*
X42000688Y19130934D01*
X42123000Y19425496D01*
X42123000Y12546488D01*
X41969070Y12700688D01*
X41665222Y12826856D01*
X41336221Y12827143D01*
X41032154Y12701505D01*
X40799312Y12469070D01*
X40673144Y12165222D01*
X40672857Y11836221D01*
X40798495Y11532154D01*
X41030930Y11299312D01*
X41334778Y11173144D01*
X41663779Y11172857D01*
X41967846Y11298495D01*
X42123000Y11453378D01*
X42123000Y3127000D01*
X37500000Y3127000D01*
X37450590Y3116994D01*
X37408965Y3088553D01*
X37381685Y3046159D01*
X37373000Y3000000D01*
X37373000Y502000D01*
X34127000Y502000D01*
X34127000Y1750000D01*
X34116994Y1799410D01*
X34101600Y1826200D01*
X33377000Y2792333D01*
X33377000Y12436221D01*
X35472857Y12436221D01*
X35598495Y12132154D01*
X35830930Y11899312D01*
X36134778Y11773144D01*
X36463779Y11772857D01*
X36767846Y11898495D01*
X37000688Y12130930D01*
X37126856Y12434778D01*
X37127143Y12763779D01*
X37001505Y13067846D01*
X36769070Y13300688D01*
X36465222Y13426856D01*
X36136221Y13427143D01*
X35832154Y13301505D01*
X35599312Y13069070D01*
X35473144Y12765222D01*
X35472857Y12436221D01*
X33377000Y12436221D01*
X33377000Y19823557D01*
X35910202Y19823557D01*
X36035840Y19519490D01*
X36268275Y19286648D01*
X36572123Y19160480D01*
X36901124Y19160193D01*
X37205191Y19285831D01*
X37438033Y19518266D01*
X37564201Y19822114D01*
X37564488Y20151115D01*
X37438850Y20455182D01*
X37206415Y20688024D01*
X36902567Y20814192D01*
X36573566Y20814479D01*
X36269499Y20688841D01*
X36036657Y20456406D01*
X35910489Y20152558D01*
X35910202Y19823557D01*
X33377000Y19823557D01*
X33377000Y27536221D01*
X35472857Y27536221D01*
X35598495Y27232154D01*
X35830930Y26999312D01*
X36134778Y26873144D01*
X36463779Y26872857D01*
X36767846Y26998495D01*
X37000688Y27230930D01*
X37126856Y27534778D01*
X37127143Y27863779D01*
X37001505Y28167846D01*
X36769070Y28400688D01*
X36465222Y28526856D01*
X36136221Y28527143D01*
X35832154Y28401505D01*
X35599312Y28169070D01*
X35473144Y27865222D01*
X35472857Y27536221D01*
X33377000Y27536221D01*
X33377000Y31498000D01*
X42123000Y31498000D01*
X42123000Y28446664D01*
X42123000Y28446664D01*
G37*
X42123000Y28446664D02*
X42069070Y28500688D01*
X41765222Y28626856D01*
X41436221Y28627143D01*
X41132154Y28501505D01*
X40899312Y28269070D01*
X40773144Y27965222D01*
X40772857Y27636221D01*
X40898495Y27332154D01*
X41130930Y27099312D01*
X41434778Y26973144D01*
X41763779Y26972857D01*
X42067846Y27098495D01*
X42123000Y27153553D01*
X42123000Y19773810D01*
X42001505Y20067850D01*
X41769070Y20300692D01*
X41465222Y20426860D01*
X41136221Y20427147D01*
X40832154Y20301509D01*
X40599312Y20069074D01*
X40473144Y19765226D01*
X40472857Y19436225D01*
X40598495Y19132158D01*
X40830930Y18899316D01*
X41134778Y18773148D01*
X41463779Y18772861D01*
X41767846Y18898499D01*
X42000688Y19130934D01*
X42123000Y19425496D01*
X42123000Y12546488D01*
X41969070Y12700688D01*
X41665222Y12826856D01*
X41336221Y12827143D01*
X41032154Y12701505D01*
X40799312Y12469070D01*
X40673144Y12165222D01*
X40672857Y11836221D01*
X40798495Y11532154D01*
X41030930Y11299312D01*
X41334778Y11173144D01*
X41663779Y11172857D01*
X41967846Y11298495D01*
X42123000Y11453378D01*
X42123000Y3127000D01*
X37500000Y3127000D01*
X37450590Y3116994D01*
X37408965Y3088553D01*
X37381685Y3046159D01*
X37373000Y3000000D01*
X37373000Y502000D01*
X34127000Y502000D01*
X34127000Y1750000D01*
X34116994Y1799410D01*
X34101600Y1826200D01*
X33377000Y2792333D01*
X33377000Y12436221D01*
X35472857Y12436221D01*
X35598495Y12132154D01*
X35830930Y11899312D01*
X36134778Y11773144D01*
X36463779Y11772857D01*
X36767846Y11898495D01*
X37000688Y12130930D01*
X37126856Y12434778D01*
X37127143Y12763779D01*
X37001505Y13067846D01*
X36769070Y13300688D01*
X36465222Y13426856D01*
X36136221Y13427143D01*
X35832154Y13301505D01*
X35599312Y13069070D01*
X35473144Y12765222D01*
X35472857Y12436221D01*
X33377000Y12436221D01*
X33377000Y19823557D01*
X35910202Y19823557D01*
X36035840Y19519490D01*
X36268275Y19286648D01*
X36572123Y19160480D01*
X36901124Y19160193D01*
X37205191Y19285831D01*
X37438033Y19518266D01*
X37564201Y19822114D01*
X37564488Y20151115D01*
X37438850Y20455182D01*
X37206415Y20688024D01*
X36902567Y20814192D01*
X36573566Y20814479D01*
X36269499Y20688841D01*
X36036657Y20456406D01*
X35910489Y20152558D01*
X35910202Y19823557D01*
X33377000Y19823557D01*
X33377000Y27536221D01*
X35472857Y27536221D01*
X35598495Y27232154D01*
X35830930Y26999312D01*
X36134778Y26873144D01*
X36463779Y26872857D01*
X36767846Y26998495D01*
X37000688Y27230930D01*
X37126856Y27534778D01*
X37127143Y27863779D01*
X37001505Y28167846D01*
X36769070Y28400688D01*
X36465222Y28526856D01*
X36136221Y28527143D01*
X35832154Y28401505D01*
X35599312Y28169070D01*
X35473144Y27865222D01*
X35472857Y27536221D01*
X33377000Y27536221D01*
X33377000Y31498000D01*
X42123000Y31498000D01*
X42123000Y28446664D01*
G36*
X48498000Y13127000D02*
X42877000Y13127000D01*
X42877000Y18623000D01*
X48498000Y18623000D01*
X48498000Y13127000D01*
X48498000Y13127000D01*
G37*
X48498000Y13127000D02*
X42877000Y13127000D01*
X42877000Y18623000D01*
X48498000Y18623000D01*
X48498000Y13127000D01*
G36*
X48498000Y5702244D02*
X48085573Y6115392D01*
X46734609Y6676361D01*
X45271808Y6677637D01*
X43919868Y6119027D01*
X42884608Y5085573D01*
X42877000Y5067251D01*
X42877000Y11873000D01*
X48498000Y11873000D01*
X48498000Y5702244D01*
X48498000Y5702244D01*
G37*
X48498000Y5702244D02*
X48085573Y6115392D01*
X46734609Y6676361D01*
X45271808Y6677637D01*
X43919868Y6119027D01*
X42884608Y5085573D01*
X42877000Y5067251D01*
X42877000Y11873000D01*
X48498000Y11873000D01*
X48498000Y5702244D01*
G36*
X42880973Y26919868D02*
X43914427Y25884608D01*
X45265391Y25323639D01*
X46728192Y25322363D01*
X48080132Y25880973D01*
X48498000Y26298112D01*
X48498000Y19877000D01*
X42877000Y19877000D01*
X42877000Y26929483D01*
X42880973Y26919868D01*
X42880973Y26919868D01*
G37*
X42880973Y26919868D02*
X43914427Y25884608D01*
X45265391Y25323639D01*
X46728192Y25322363D01*
X48080132Y25880973D01*
X48498000Y26298112D01*
X48498000Y19877000D01*
X42877000Y19877000D01*
X42877000Y26929483D01*
X42880973Y26919868D01*
M02*
