G04 #@! TF.FileFunction,Soldermask,Top*
%FSLAX46Y46*%
G04 Gerber Fmt 4.6, Leading zero omitted, Abs format (unit mm)*
G04 Created by KiCad (PCBNEW 4.0.6-e0-6349~53~ubuntu16.04.1) date Sat Mar 11 23:46:16 2017*
%MOMM*%
%LPD*%
G01*
G04 APERTURE LIST*
%ADD10C,0.150000*%
%ADD11C,1.500000*%
G04 APERTURE END LIST*
D10*
D11*
X172500000Y-78750000D02*
X172500000Y-110750000D01*
D10*
X135250000Y-116000000D02*
X135250000Y-78000000D01*
X185250000Y-116000000D02*
X135250000Y-116005000D01*
X185250000Y-78000000D02*
X185250000Y-116000000D01*
X135250000Y-78000000D02*
X185250000Y-78000000D01*
G36*
X178550000Y-115605000D02*
X173650000Y-115605000D01*
X173650000Y-113205000D01*
X178550000Y-113205000D01*
X178550000Y-115605000D01*
X178550000Y-115605000D01*
G37*
G36*
X138399674Y-111575947D02*
X138673426Y-111632140D01*
X138931045Y-111740433D01*
X139162727Y-111896704D01*
X139359641Y-112094999D01*
X139514290Y-112327764D01*
X139620783Y-112586134D01*
X139674996Y-112859928D01*
X139674996Y-112859943D01*
X139675061Y-112860272D01*
X139670604Y-113179464D01*
X139670528Y-113179798D01*
X139670528Y-113179807D01*
X139608694Y-113451975D01*
X139495025Y-113707278D01*
X139333939Y-113935633D01*
X139131567Y-114128348D01*
X138895612Y-114278091D01*
X138635064Y-114379151D01*
X138359854Y-114427677D01*
X138080459Y-114421825D01*
X137807516Y-114361814D01*
X137551435Y-114249935D01*
X137321960Y-114090446D01*
X137127830Y-113889419D01*
X136976448Y-113654518D01*
X136873572Y-113394684D01*
X136823124Y-113119819D01*
X136827026Y-112840386D01*
X136885128Y-112567040D01*
X136995219Y-112310176D01*
X137153101Y-112079595D01*
X137352768Y-111884067D01*
X137586605Y-111731048D01*
X137845718Y-111626360D01*
X138120222Y-111573996D01*
X138399674Y-111575947D01*
X138399674Y-111575947D01*
G37*
G36*
X182399674Y-111575947D02*
X182673426Y-111632140D01*
X182931045Y-111740433D01*
X183162727Y-111896704D01*
X183359641Y-112094999D01*
X183514290Y-112327764D01*
X183620783Y-112586134D01*
X183674996Y-112859928D01*
X183674996Y-112859943D01*
X183675061Y-112860272D01*
X183670604Y-113179464D01*
X183670528Y-113179798D01*
X183670528Y-113179807D01*
X183608694Y-113451975D01*
X183495025Y-113707278D01*
X183333939Y-113935633D01*
X183131567Y-114128348D01*
X182895612Y-114278091D01*
X182635064Y-114379151D01*
X182359854Y-114427677D01*
X182080459Y-114421825D01*
X181807516Y-114361814D01*
X181551435Y-114249935D01*
X181321960Y-114090446D01*
X181127830Y-113889419D01*
X180976448Y-113654518D01*
X180873572Y-113394684D01*
X180823124Y-113119819D01*
X180827026Y-112840386D01*
X180885128Y-112567040D01*
X180995219Y-112310176D01*
X181153101Y-112079595D01*
X181352768Y-111884067D01*
X181586605Y-111731048D01*
X181845718Y-111626360D01*
X182120222Y-111573996D01*
X182399674Y-111575947D01*
X182399674Y-111575947D01*
G37*
G36*
X162240000Y-112675000D02*
X161440000Y-112675000D01*
X161440000Y-111535000D01*
X162240000Y-111535000D01*
X162240000Y-112675000D01*
X162240000Y-112675000D01*
G37*
G36*
X163660000Y-112675000D02*
X162860000Y-112675000D01*
X162860000Y-111535000D01*
X163660000Y-111535000D01*
X163660000Y-112675000D01*
X163660000Y-112675000D01*
G37*
G36*
X148946653Y-110935547D02*
X149105143Y-110968081D01*
X149254290Y-111030776D01*
X149388422Y-111121249D01*
X149502425Y-111236051D01*
X149591957Y-111370809D01*
X149653612Y-111520394D01*
X149684970Y-111678761D01*
X149684970Y-111678771D01*
X149685036Y-111679105D01*
X149682455Y-111863900D01*
X149682379Y-111864234D01*
X149682379Y-111864243D01*
X149646614Y-112021670D01*
X149580804Y-112169479D01*
X149487544Y-112301684D01*
X149370383Y-112413254D01*
X149233776Y-112499948D01*
X149082931Y-112558457D01*
X148923600Y-112586551D01*
X148761845Y-112583163D01*
X148603825Y-112548420D01*
X148455566Y-112483647D01*
X148322713Y-112391312D01*
X148210321Y-112274927D01*
X148122679Y-112138932D01*
X148063119Y-111988501D01*
X148033912Y-111829369D01*
X148036172Y-111667591D01*
X148069809Y-111509339D01*
X148133547Y-111360627D01*
X148224952Y-111227133D01*
X148340549Y-111113933D01*
X148475928Y-111025343D01*
X148625943Y-110964734D01*
X148784864Y-110934417D01*
X148946653Y-110935547D01*
X148946653Y-110935547D01*
G37*
G36*
X156566653Y-110935547D02*
X156725143Y-110968081D01*
X156874290Y-111030776D01*
X157008422Y-111121249D01*
X157122425Y-111236051D01*
X157211957Y-111370809D01*
X157273612Y-111520394D01*
X157304970Y-111678761D01*
X157304970Y-111678771D01*
X157305036Y-111679105D01*
X157302455Y-111863900D01*
X157302379Y-111864234D01*
X157302379Y-111864243D01*
X157266614Y-112021670D01*
X157200804Y-112169479D01*
X157107544Y-112301684D01*
X156990383Y-112413254D01*
X156853776Y-112499948D01*
X156702931Y-112558457D01*
X156543600Y-112586551D01*
X156381845Y-112583163D01*
X156223825Y-112548420D01*
X156075566Y-112483647D01*
X155942713Y-112391312D01*
X155830321Y-112274927D01*
X155742679Y-112138932D01*
X155683119Y-111988501D01*
X155653912Y-111829369D01*
X155656172Y-111667591D01*
X155689809Y-111509339D01*
X155753547Y-111360627D01*
X155844952Y-111227133D01*
X155960549Y-111113933D01*
X156095928Y-111025343D01*
X156245943Y-110964734D01*
X156404864Y-110934417D01*
X156566653Y-110935547D01*
X156566653Y-110935547D01*
G37*
G36*
X151486653Y-110935547D02*
X151645143Y-110968081D01*
X151794290Y-111030776D01*
X151928422Y-111121249D01*
X152042425Y-111236051D01*
X152131957Y-111370809D01*
X152193612Y-111520394D01*
X152224970Y-111678761D01*
X152224970Y-111678771D01*
X152225036Y-111679105D01*
X152222455Y-111863900D01*
X152222379Y-111864234D01*
X152222379Y-111864243D01*
X152186614Y-112021670D01*
X152120804Y-112169479D01*
X152027544Y-112301684D01*
X151910383Y-112413254D01*
X151773776Y-112499948D01*
X151622931Y-112558457D01*
X151463600Y-112586551D01*
X151301845Y-112583163D01*
X151143825Y-112548420D01*
X150995566Y-112483647D01*
X150862713Y-112391312D01*
X150750321Y-112274927D01*
X150662679Y-112138932D01*
X150603119Y-111988501D01*
X150573912Y-111829369D01*
X150576172Y-111667591D01*
X150609809Y-111509339D01*
X150673547Y-111360627D01*
X150764952Y-111227133D01*
X150880549Y-111113933D01*
X151015928Y-111025343D01*
X151165943Y-110964734D01*
X151324864Y-110934417D01*
X151486653Y-110935547D01*
X151486653Y-110935547D01*
G37*
G36*
X154026653Y-110935547D02*
X154185143Y-110968081D01*
X154334290Y-111030776D01*
X154468422Y-111121249D01*
X154582425Y-111236051D01*
X154671957Y-111370809D01*
X154733612Y-111520394D01*
X154764970Y-111678761D01*
X154764970Y-111678771D01*
X154765036Y-111679105D01*
X154762455Y-111863900D01*
X154762379Y-111864234D01*
X154762379Y-111864243D01*
X154726614Y-112021670D01*
X154660804Y-112169479D01*
X154567544Y-112301684D01*
X154450383Y-112413254D01*
X154313776Y-112499948D01*
X154162931Y-112558457D01*
X154003600Y-112586551D01*
X153841845Y-112583163D01*
X153683825Y-112548420D01*
X153535566Y-112483647D01*
X153402713Y-112391312D01*
X153290321Y-112274927D01*
X153202679Y-112138932D01*
X153143119Y-111988501D01*
X153113912Y-111829369D01*
X153116172Y-111667591D01*
X153149809Y-111509339D01*
X153213547Y-111360627D01*
X153304952Y-111227133D01*
X153420549Y-111113933D01*
X153555928Y-111025343D01*
X153705943Y-110964734D01*
X153864864Y-110934417D01*
X154026653Y-110935547D01*
X154026653Y-110935547D01*
G37*
G36*
X147145000Y-112585000D02*
X145495000Y-112585000D01*
X145495000Y-110935000D01*
X147145000Y-110935000D01*
X147145000Y-112585000D01*
X147145000Y-112585000D01*
G37*
G36*
X177920000Y-112540000D02*
X176220000Y-112540000D01*
X176220000Y-111040000D01*
X177920000Y-111040000D01*
X177920000Y-112540000D01*
X177920000Y-112540000D01*
G37*
G36*
X159825000Y-112430000D02*
X159275000Y-112430000D01*
X159275000Y-111680000D01*
X159825000Y-111680000D01*
X159825000Y-112430000D01*
X159825000Y-112430000D01*
G37*
G36*
X160725000Y-112430000D02*
X160175000Y-112430000D01*
X160175000Y-111680000D01*
X160725000Y-111680000D01*
X160725000Y-112430000D01*
X160725000Y-112430000D01*
G37*
G36*
X177920000Y-110540000D02*
X176220000Y-110540000D01*
X176220000Y-109040000D01*
X177920000Y-109040000D01*
X177920000Y-110540000D01*
X177920000Y-110540000D01*
G37*
G36*
X161960000Y-109675000D02*
X161160000Y-109675000D01*
X161160000Y-108535000D01*
X161960000Y-108535000D01*
X161960000Y-109675000D01*
X161960000Y-109675000D01*
G37*
G36*
X160540000Y-109675000D02*
X159740000Y-109675000D01*
X159740000Y-108535000D01*
X160540000Y-108535000D01*
X160540000Y-109675000D01*
X160540000Y-109675000D01*
G37*
G36*
X158125000Y-109380000D02*
X157575000Y-109380000D01*
X157575000Y-108630000D01*
X158125000Y-108630000D01*
X158125000Y-109380000D01*
X158125000Y-109380000D01*
G37*
G36*
X159025000Y-109380000D02*
X158475000Y-109380000D01*
X158475000Y-108630000D01*
X159025000Y-108630000D01*
X159025000Y-109380000D01*
X159025000Y-109380000D01*
G37*
G36*
X149895000Y-109290000D02*
X148105000Y-109290000D01*
X148105000Y-107740000D01*
X149895000Y-107740000D01*
X149895000Y-109290000D01*
X149895000Y-109290000D01*
G37*
G36*
X143950000Y-109100000D02*
X142450000Y-109100000D01*
X142450000Y-107400000D01*
X143950000Y-107400000D01*
X143950000Y-109100000D01*
X143950000Y-109100000D01*
G37*
G36*
X145950000Y-109100000D02*
X144450000Y-109100000D01*
X144450000Y-107400000D01*
X145950000Y-107400000D01*
X145950000Y-109100000D01*
X145950000Y-109100000D01*
G37*
G36*
X164875000Y-108180000D02*
X164125000Y-108180000D01*
X164125000Y-107230000D01*
X164875000Y-107230000D01*
X164875000Y-108180000D01*
X164875000Y-108180000D01*
G37*
G36*
X175380000Y-103150050D02*
X175381978Y-103163966D01*
X175387754Y-103176780D01*
X175396871Y-103187477D01*
X175408607Y-103195211D01*
X175422034Y-103199369D01*
X175429950Y-103200000D01*
X178600000Y-103200000D01*
X178600000Y-107550000D01*
X175429950Y-107550000D01*
X175416034Y-107551978D01*
X175403220Y-107557754D01*
X175392523Y-107566871D01*
X175384789Y-107578607D01*
X175380631Y-107592034D01*
X175380000Y-107599950D01*
X175380000Y-107800000D01*
X173730000Y-107800000D01*
X173730000Y-102950000D01*
X175380000Y-102950000D01*
X175380000Y-103150050D01*
X175380000Y-103150050D01*
G37*
G36*
X180700000Y-107705000D02*
X179400000Y-107705000D01*
X179400000Y-106855000D01*
X180700000Y-106855000D01*
X180700000Y-107705000D01*
X180700000Y-107705000D01*
G37*
G36*
X166940000Y-107575000D02*
X166140000Y-107575000D01*
X166140000Y-106435000D01*
X166940000Y-106435000D01*
X166940000Y-107575000D01*
X166940000Y-107575000D01*
G37*
G36*
X168360000Y-107575000D02*
X167560000Y-107575000D01*
X167560000Y-106435000D01*
X168360000Y-106435000D01*
X168360000Y-107575000D01*
X168360000Y-107575000D01*
G37*
G36*
X180700000Y-106435000D02*
X179400000Y-106435000D01*
X179400000Y-105585000D01*
X180700000Y-105585000D01*
X180700000Y-106435000D01*
X180700000Y-106435000D01*
G37*
G36*
X143375000Y-106175000D02*
X142225000Y-106175000D01*
X142225000Y-103325000D01*
X143375000Y-103325000D01*
X143375000Y-106175000D01*
X143375000Y-106175000D01*
G37*
G36*
X145575000Y-106175000D02*
X144425000Y-106175000D01*
X144425000Y-103325000D01*
X145575000Y-103325000D01*
X145575000Y-106175000D01*
X145575000Y-106175000D01*
G37*
G36*
X164875000Y-105780000D02*
X164125000Y-105780000D01*
X164125000Y-104830000D01*
X164875000Y-104830000D01*
X164875000Y-105780000D01*
X164875000Y-105780000D01*
G37*
G36*
X166940000Y-105575000D02*
X166140000Y-105575000D01*
X166140000Y-104435000D01*
X166940000Y-104435000D01*
X166940000Y-105575000D01*
X166940000Y-105575000D01*
G37*
G36*
X168360000Y-105575000D02*
X167560000Y-105575000D01*
X167560000Y-104435000D01*
X168360000Y-104435000D01*
X168360000Y-105575000D01*
X168360000Y-105575000D01*
G37*
G36*
X149895000Y-105260000D02*
X148105000Y-105260000D01*
X148105000Y-103710000D01*
X149895000Y-103710000D01*
X149895000Y-105260000D01*
X149895000Y-105260000D01*
G37*
G36*
X180700000Y-105165000D02*
X179400000Y-105165000D01*
X179400000Y-104315000D01*
X180700000Y-104315000D01*
X180700000Y-105165000D01*
X180700000Y-105165000D01*
G37*
G36*
X159890000Y-105070000D02*
X159090000Y-105070000D01*
X159090000Y-103930000D01*
X159890000Y-103930000D01*
X159890000Y-105070000D01*
X159890000Y-105070000D01*
G37*
G36*
X161310000Y-105070000D02*
X160510000Y-105070000D01*
X160510000Y-103930000D01*
X161310000Y-103930000D01*
X161310000Y-105070000D01*
X161310000Y-105070000D01*
G37*
G36*
X154910000Y-104970000D02*
X154110000Y-104970000D01*
X154110000Y-103830000D01*
X154910000Y-103830000D01*
X154910000Y-104970000D01*
X154910000Y-104970000D01*
G37*
G36*
X153490000Y-104970000D02*
X152690000Y-104970000D01*
X152690000Y-103830000D01*
X153490000Y-103830000D01*
X153490000Y-104970000D01*
X153490000Y-104970000D01*
G37*
G36*
X180700000Y-103895000D02*
X179400000Y-103895000D01*
X179400000Y-103045000D01*
X180700000Y-103045000D01*
X180700000Y-103895000D01*
X180700000Y-103895000D01*
G37*
G36*
X183857661Y-101725681D02*
X184054570Y-101766101D01*
X184239875Y-101843996D01*
X184406523Y-101956401D01*
X184548163Y-102099034D01*
X184659401Y-102266461D01*
X184736002Y-102452308D01*
X184774978Y-102649150D01*
X184774978Y-102649160D01*
X184775044Y-102649494D01*
X184771838Y-102879088D01*
X184771762Y-102879422D01*
X184771762Y-102879430D01*
X184727305Y-103075107D01*
X184645546Y-103258743D01*
X184529675Y-103423000D01*
X184384108Y-103561621D01*
X184214390Y-103669327D01*
X184026975Y-103742021D01*
X183829018Y-103776926D01*
X183628050Y-103772717D01*
X183431721Y-103729551D01*
X183247524Y-103649077D01*
X183082463Y-103534356D01*
X182942825Y-103389757D01*
X182833935Y-103220794D01*
X182759937Y-103033895D01*
X182723650Y-102836187D01*
X182726458Y-102635195D01*
X182768251Y-102438569D01*
X182847438Y-102253810D01*
X182961002Y-102087954D01*
X183104622Y-101947311D01*
X183272822Y-101837244D01*
X183459200Y-101761943D01*
X183656650Y-101724277D01*
X183857661Y-101725681D01*
X183857661Y-101725681D01*
G37*
G36*
X161755000Y-103475000D02*
X160705000Y-103475000D01*
X160705000Y-102325000D01*
X161755000Y-102325000D01*
X161755000Y-103475000D01*
X161755000Y-103475000D01*
G37*
G36*
X160095000Y-103475000D02*
X159045000Y-103475000D01*
X159045000Y-102325000D01*
X160095000Y-102325000D01*
X160095000Y-103475000D01*
X160095000Y-103475000D01*
G37*
G36*
X152175000Y-103355000D02*
X151025000Y-103355000D01*
X151025000Y-102305000D01*
X152175000Y-102305000D01*
X152175000Y-103355000D01*
X152175000Y-103355000D01*
G37*
G36*
X150050000Y-102950000D02*
X148550000Y-102950000D01*
X148550000Y-101250000D01*
X150050000Y-101250000D01*
X150050000Y-102950000D01*
X150050000Y-102950000D01*
G37*
G36*
X148050000Y-102950000D02*
X146550000Y-102950000D01*
X146550000Y-101250000D01*
X148050000Y-101250000D01*
X148050000Y-102950000D01*
X148050000Y-102950000D01*
G37*
G36*
X155040167Y-100551174D02*
X155040181Y-100551178D01*
X155040216Y-100551182D01*
X155077503Y-100562724D01*
X155111839Y-100581289D01*
X155141914Y-100606170D01*
X155166584Y-100636419D01*
X155184909Y-100670883D01*
X155196191Y-100708250D01*
X155200000Y-100747097D01*
X155200000Y-101552903D01*
X155199981Y-101555695D01*
X155195630Y-101594485D01*
X155183827Y-101631691D01*
X155165023Y-101665896D01*
X155139933Y-101695798D01*
X155109513Y-101720256D01*
X155074921Y-101738340D01*
X155037476Y-101749360D01*
X155037446Y-101749363D01*
X155037428Y-101749368D01*
X154998606Y-101752901D01*
X154959833Y-101748826D01*
X154959819Y-101748822D01*
X154959784Y-101748818D01*
X154922497Y-101737276D01*
X154888161Y-101718711D01*
X154858086Y-101693830D01*
X154833416Y-101663581D01*
X154815091Y-101629117D01*
X154803809Y-101591750D01*
X154800000Y-101552903D01*
X154800000Y-100747097D01*
X154800019Y-100744305D01*
X154804370Y-100705515D01*
X154816173Y-100668309D01*
X154834977Y-100634104D01*
X154860067Y-100604202D01*
X154890487Y-100579744D01*
X154925079Y-100561660D01*
X154962524Y-100550640D01*
X154962554Y-100550637D01*
X154962572Y-100550632D01*
X155001394Y-100547099D01*
X155040167Y-100551174D01*
X155040167Y-100551174D01*
G37*
G36*
X159040167Y-100551174D02*
X159040181Y-100551178D01*
X159040216Y-100551182D01*
X159077503Y-100562724D01*
X159111839Y-100581289D01*
X159141914Y-100606170D01*
X159166584Y-100636419D01*
X159184909Y-100670883D01*
X159196191Y-100708250D01*
X159200000Y-100747097D01*
X159200000Y-101552903D01*
X159199981Y-101555695D01*
X159195630Y-101594485D01*
X159183827Y-101631691D01*
X159165023Y-101665896D01*
X159139933Y-101695798D01*
X159109513Y-101720256D01*
X159074921Y-101738340D01*
X159037476Y-101749360D01*
X159037446Y-101749363D01*
X159037428Y-101749368D01*
X158998606Y-101752901D01*
X158959833Y-101748826D01*
X158959819Y-101748822D01*
X158959784Y-101748818D01*
X158922497Y-101737276D01*
X158888161Y-101718711D01*
X158858086Y-101693830D01*
X158833416Y-101663581D01*
X158815091Y-101629117D01*
X158803809Y-101591750D01*
X158800000Y-101552903D01*
X158800000Y-100747097D01*
X158800019Y-100744305D01*
X158804370Y-100705515D01*
X158816173Y-100668309D01*
X158834977Y-100634104D01*
X158860067Y-100604202D01*
X158890487Y-100579744D01*
X158925079Y-100561660D01*
X158962524Y-100550640D01*
X158962554Y-100550637D01*
X158962572Y-100550632D01*
X159001394Y-100547099D01*
X159040167Y-100551174D01*
X159040167Y-100551174D01*
G37*
G36*
X158040167Y-100551174D02*
X158040181Y-100551178D01*
X158040216Y-100551182D01*
X158077503Y-100562724D01*
X158111839Y-100581289D01*
X158141914Y-100606170D01*
X158166584Y-100636419D01*
X158184909Y-100670883D01*
X158196191Y-100708250D01*
X158200000Y-100747097D01*
X158200000Y-101552903D01*
X158199981Y-101555695D01*
X158195630Y-101594485D01*
X158183827Y-101631691D01*
X158165023Y-101665896D01*
X158139933Y-101695798D01*
X158109513Y-101720256D01*
X158074921Y-101738340D01*
X158037476Y-101749360D01*
X158037446Y-101749363D01*
X158037428Y-101749368D01*
X157998606Y-101752901D01*
X157959833Y-101748826D01*
X157959819Y-101748822D01*
X157959784Y-101748818D01*
X157922497Y-101737276D01*
X157888161Y-101718711D01*
X157858086Y-101693830D01*
X157833416Y-101663581D01*
X157815091Y-101629117D01*
X157803809Y-101591750D01*
X157800000Y-101552903D01*
X157800000Y-100747097D01*
X157800019Y-100744305D01*
X157804370Y-100705515D01*
X157816173Y-100668309D01*
X157834977Y-100634104D01*
X157860067Y-100604202D01*
X157890487Y-100579744D01*
X157925079Y-100561660D01*
X157962524Y-100550640D01*
X157962554Y-100550637D01*
X157962572Y-100550632D01*
X158001394Y-100547099D01*
X158040167Y-100551174D01*
X158040167Y-100551174D01*
G37*
G36*
X159540167Y-100551174D02*
X159540181Y-100551178D01*
X159540216Y-100551182D01*
X159577503Y-100562724D01*
X159611839Y-100581289D01*
X159641914Y-100606170D01*
X159666584Y-100636419D01*
X159684909Y-100670883D01*
X159696191Y-100708250D01*
X159700000Y-100747097D01*
X159700000Y-101552903D01*
X159699981Y-101555695D01*
X159695630Y-101594485D01*
X159683827Y-101631691D01*
X159665023Y-101665896D01*
X159639933Y-101695798D01*
X159609513Y-101720256D01*
X159574921Y-101738340D01*
X159537476Y-101749360D01*
X159537446Y-101749363D01*
X159537428Y-101749368D01*
X159498606Y-101752901D01*
X159459833Y-101748826D01*
X159459819Y-101748822D01*
X159459784Y-101748818D01*
X159422497Y-101737276D01*
X159388161Y-101718711D01*
X159358086Y-101693830D01*
X159333416Y-101663581D01*
X159315091Y-101629117D01*
X159303809Y-101591750D01*
X159300000Y-101552903D01*
X159300000Y-100747097D01*
X159300019Y-100744305D01*
X159304370Y-100705515D01*
X159316173Y-100668309D01*
X159334977Y-100634104D01*
X159360067Y-100604202D01*
X159390487Y-100579744D01*
X159425079Y-100561660D01*
X159462524Y-100550640D01*
X159462554Y-100550637D01*
X159462572Y-100550632D01*
X159501394Y-100547099D01*
X159540167Y-100551174D01*
X159540167Y-100551174D01*
G37*
G36*
X157540167Y-100551174D02*
X157540181Y-100551178D01*
X157540216Y-100551182D01*
X157577503Y-100562724D01*
X157611839Y-100581289D01*
X157641914Y-100606170D01*
X157666584Y-100636419D01*
X157684909Y-100670883D01*
X157696191Y-100708250D01*
X157700000Y-100747097D01*
X157700000Y-101552903D01*
X157699981Y-101555695D01*
X157695630Y-101594485D01*
X157683827Y-101631691D01*
X157665023Y-101665896D01*
X157639933Y-101695798D01*
X157609513Y-101720256D01*
X157574921Y-101738340D01*
X157537476Y-101749360D01*
X157537446Y-101749363D01*
X157537428Y-101749368D01*
X157498606Y-101752901D01*
X157459833Y-101748826D01*
X157459819Y-101748822D01*
X157459784Y-101748818D01*
X157422497Y-101737276D01*
X157388161Y-101718711D01*
X157358086Y-101693830D01*
X157333416Y-101663581D01*
X157315091Y-101629117D01*
X157303809Y-101591750D01*
X157300000Y-101552903D01*
X157300000Y-100747097D01*
X157300019Y-100744305D01*
X157304370Y-100705515D01*
X157316173Y-100668309D01*
X157334977Y-100634104D01*
X157360067Y-100604202D01*
X157390487Y-100579744D01*
X157425079Y-100561660D01*
X157462524Y-100550640D01*
X157462554Y-100550637D01*
X157462572Y-100550632D01*
X157501394Y-100547099D01*
X157540167Y-100551174D01*
X157540167Y-100551174D01*
G37*
G36*
X157040167Y-100551174D02*
X157040181Y-100551178D01*
X157040216Y-100551182D01*
X157077503Y-100562724D01*
X157111839Y-100581289D01*
X157141914Y-100606170D01*
X157166584Y-100636419D01*
X157184909Y-100670883D01*
X157196191Y-100708250D01*
X157200000Y-100747097D01*
X157200000Y-101552903D01*
X157199981Y-101555695D01*
X157195630Y-101594485D01*
X157183827Y-101631691D01*
X157165023Y-101665896D01*
X157139933Y-101695798D01*
X157109513Y-101720256D01*
X157074921Y-101738340D01*
X157037476Y-101749360D01*
X157037446Y-101749363D01*
X157037428Y-101749368D01*
X156998606Y-101752901D01*
X156959833Y-101748826D01*
X156959819Y-101748822D01*
X156959784Y-101748818D01*
X156922497Y-101737276D01*
X156888161Y-101718711D01*
X156858086Y-101693830D01*
X156833416Y-101663581D01*
X156815091Y-101629117D01*
X156803809Y-101591750D01*
X156800000Y-101552903D01*
X156800000Y-100747097D01*
X156800019Y-100744305D01*
X156804370Y-100705515D01*
X156816173Y-100668309D01*
X156834977Y-100634104D01*
X156860067Y-100604202D01*
X156890487Y-100579744D01*
X156925079Y-100561660D01*
X156962524Y-100550640D01*
X156962554Y-100550637D01*
X156962572Y-100550632D01*
X157001394Y-100547099D01*
X157040167Y-100551174D01*
X157040167Y-100551174D01*
G37*
G36*
X156540167Y-100551174D02*
X156540181Y-100551178D01*
X156540216Y-100551182D01*
X156577503Y-100562724D01*
X156611839Y-100581289D01*
X156641914Y-100606170D01*
X156666584Y-100636419D01*
X156684909Y-100670883D01*
X156696191Y-100708250D01*
X156700000Y-100747097D01*
X156700000Y-101552903D01*
X156699981Y-101555695D01*
X156695630Y-101594485D01*
X156683827Y-101631691D01*
X156665023Y-101665896D01*
X156639933Y-101695798D01*
X156609513Y-101720256D01*
X156574921Y-101738340D01*
X156537476Y-101749360D01*
X156537446Y-101749363D01*
X156537428Y-101749368D01*
X156498606Y-101752901D01*
X156459833Y-101748826D01*
X156459819Y-101748822D01*
X156459784Y-101748818D01*
X156422497Y-101737276D01*
X156388161Y-101718711D01*
X156358086Y-101693830D01*
X156333416Y-101663581D01*
X156315091Y-101629117D01*
X156303809Y-101591750D01*
X156300000Y-101552903D01*
X156300000Y-100747097D01*
X156300019Y-100744305D01*
X156304370Y-100705515D01*
X156316173Y-100668309D01*
X156334977Y-100634104D01*
X156360067Y-100604202D01*
X156390487Y-100579744D01*
X156425079Y-100561660D01*
X156462524Y-100550640D01*
X156462554Y-100550637D01*
X156462572Y-100550632D01*
X156501394Y-100547099D01*
X156540167Y-100551174D01*
X156540167Y-100551174D01*
G37*
G36*
X158540167Y-100551174D02*
X158540181Y-100551178D01*
X158540216Y-100551182D01*
X158577503Y-100562724D01*
X158611839Y-100581289D01*
X158641914Y-100606170D01*
X158666584Y-100636419D01*
X158684909Y-100670883D01*
X158696191Y-100708250D01*
X158700000Y-100747097D01*
X158700000Y-101552903D01*
X158699981Y-101555695D01*
X158695630Y-101594485D01*
X158683827Y-101631691D01*
X158665023Y-101665896D01*
X158639933Y-101695798D01*
X158609513Y-101720256D01*
X158574921Y-101738340D01*
X158537476Y-101749360D01*
X158537446Y-101749363D01*
X158537428Y-101749368D01*
X158498606Y-101752901D01*
X158459833Y-101748826D01*
X158459819Y-101748822D01*
X158459784Y-101748818D01*
X158422497Y-101737276D01*
X158388161Y-101718711D01*
X158358086Y-101693830D01*
X158333416Y-101663581D01*
X158315091Y-101629117D01*
X158303809Y-101591750D01*
X158300000Y-101552903D01*
X158300000Y-100747097D01*
X158300019Y-100744305D01*
X158304370Y-100705515D01*
X158316173Y-100668309D01*
X158334977Y-100634104D01*
X158360067Y-100604202D01*
X158390487Y-100579744D01*
X158425079Y-100561660D01*
X158462524Y-100550640D01*
X158462554Y-100550637D01*
X158462572Y-100550632D01*
X158501394Y-100547099D01*
X158540167Y-100551174D01*
X158540167Y-100551174D01*
G37*
G36*
X155540167Y-100551174D02*
X155540181Y-100551178D01*
X155540216Y-100551182D01*
X155577503Y-100562724D01*
X155611839Y-100581289D01*
X155641914Y-100606170D01*
X155666584Y-100636419D01*
X155684909Y-100670883D01*
X155696191Y-100708250D01*
X155700000Y-100747097D01*
X155700000Y-101552903D01*
X155699981Y-101555695D01*
X155695630Y-101594485D01*
X155683827Y-101631691D01*
X155665023Y-101665896D01*
X155639933Y-101695798D01*
X155609513Y-101720256D01*
X155574921Y-101738340D01*
X155537476Y-101749360D01*
X155537446Y-101749363D01*
X155537428Y-101749368D01*
X155498606Y-101752901D01*
X155459833Y-101748826D01*
X155459819Y-101748822D01*
X155459784Y-101748818D01*
X155422497Y-101737276D01*
X155388161Y-101718711D01*
X155358086Y-101693830D01*
X155333416Y-101663581D01*
X155315091Y-101629117D01*
X155303809Y-101591750D01*
X155300000Y-101552903D01*
X155300000Y-100747097D01*
X155300019Y-100744305D01*
X155304370Y-100705515D01*
X155316173Y-100668309D01*
X155334977Y-100634104D01*
X155360067Y-100604202D01*
X155390487Y-100579744D01*
X155425079Y-100561660D01*
X155462524Y-100550640D01*
X155462554Y-100550637D01*
X155462572Y-100550632D01*
X155501394Y-100547099D01*
X155540167Y-100551174D01*
X155540167Y-100551174D01*
G37*
G36*
X154040167Y-100551174D02*
X154040181Y-100551178D01*
X154040216Y-100551182D01*
X154077503Y-100562724D01*
X154111839Y-100581289D01*
X154141914Y-100606170D01*
X154166584Y-100636419D01*
X154184909Y-100670883D01*
X154196191Y-100708250D01*
X154200000Y-100747097D01*
X154200000Y-101552903D01*
X154199981Y-101555695D01*
X154195630Y-101594485D01*
X154183827Y-101631691D01*
X154165023Y-101665896D01*
X154139933Y-101695798D01*
X154109513Y-101720256D01*
X154074921Y-101738340D01*
X154037476Y-101749360D01*
X154037446Y-101749363D01*
X154037428Y-101749368D01*
X153998606Y-101752901D01*
X153959833Y-101748826D01*
X153959819Y-101748822D01*
X153959784Y-101748818D01*
X153922497Y-101737276D01*
X153888161Y-101718711D01*
X153858086Y-101693830D01*
X153833416Y-101663581D01*
X153815091Y-101629117D01*
X153803809Y-101591750D01*
X153800000Y-101552903D01*
X153800000Y-100747097D01*
X153800019Y-100744305D01*
X153804370Y-100705515D01*
X153816173Y-100668309D01*
X153834977Y-100634104D01*
X153860067Y-100604202D01*
X153890487Y-100579744D01*
X153925079Y-100561660D01*
X153962524Y-100550640D01*
X153962554Y-100550637D01*
X153962572Y-100550632D01*
X154001394Y-100547099D01*
X154040167Y-100551174D01*
X154040167Y-100551174D01*
G37*
G36*
X154540167Y-100551174D02*
X154540181Y-100551178D01*
X154540216Y-100551182D01*
X154577503Y-100562724D01*
X154611839Y-100581289D01*
X154641914Y-100606170D01*
X154666584Y-100636419D01*
X154684909Y-100670883D01*
X154696191Y-100708250D01*
X154700000Y-100747097D01*
X154700000Y-101552903D01*
X154699981Y-101555695D01*
X154695630Y-101594485D01*
X154683827Y-101631691D01*
X154665023Y-101665896D01*
X154639933Y-101695798D01*
X154609513Y-101720256D01*
X154574921Y-101738340D01*
X154537476Y-101749360D01*
X154537446Y-101749363D01*
X154537428Y-101749368D01*
X154498606Y-101752901D01*
X154459833Y-101748826D01*
X154459819Y-101748822D01*
X154459784Y-101748818D01*
X154422497Y-101737276D01*
X154388161Y-101718711D01*
X154358086Y-101693830D01*
X154333416Y-101663581D01*
X154315091Y-101629117D01*
X154303809Y-101591750D01*
X154300000Y-101552903D01*
X154300000Y-100747097D01*
X154300019Y-100744305D01*
X154304370Y-100705515D01*
X154316173Y-100668309D01*
X154334977Y-100634104D01*
X154360067Y-100604202D01*
X154390487Y-100579744D01*
X154425079Y-100561660D01*
X154462524Y-100550640D01*
X154462554Y-100550637D01*
X154462572Y-100550632D01*
X154501394Y-100547099D01*
X154540167Y-100551174D01*
X154540167Y-100551174D01*
G37*
G36*
X156040167Y-100551174D02*
X156040181Y-100551178D01*
X156040216Y-100551182D01*
X156077503Y-100562724D01*
X156111839Y-100581289D01*
X156141914Y-100606170D01*
X156166584Y-100636419D01*
X156184909Y-100670883D01*
X156196191Y-100708250D01*
X156200000Y-100747097D01*
X156200000Y-101552903D01*
X156199981Y-101555695D01*
X156195630Y-101594485D01*
X156183827Y-101631691D01*
X156165023Y-101665896D01*
X156139933Y-101695798D01*
X156109513Y-101720256D01*
X156074921Y-101738340D01*
X156037476Y-101749360D01*
X156037446Y-101749363D01*
X156037428Y-101749368D01*
X155998606Y-101752901D01*
X155959833Y-101748826D01*
X155959819Y-101748822D01*
X155959784Y-101748818D01*
X155922497Y-101737276D01*
X155888161Y-101718711D01*
X155858086Y-101693830D01*
X155833416Y-101663581D01*
X155815091Y-101629117D01*
X155803809Y-101591750D01*
X155800000Y-101552903D01*
X155800000Y-100747097D01*
X155800019Y-100744305D01*
X155804370Y-100705515D01*
X155816173Y-100668309D01*
X155834977Y-100634104D01*
X155860067Y-100604202D01*
X155890487Y-100579744D01*
X155925079Y-100561660D01*
X155962524Y-100550640D01*
X155962554Y-100550637D01*
X155962572Y-100550632D01*
X156001394Y-100547099D01*
X156040167Y-100551174D01*
X156040167Y-100551174D01*
G37*
G36*
X152175000Y-101695000D02*
X151025000Y-101695000D01*
X151025000Y-100645000D01*
X152175000Y-100645000D01*
X152175000Y-101695000D01*
X152175000Y-101695000D01*
G37*
G36*
X179050000Y-101550000D02*
X177550000Y-101550000D01*
X177550000Y-99850000D01*
X179050000Y-99850000D01*
X179050000Y-101550000D01*
X179050000Y-101550000D01*
G37*
G36*
X177050000Y-101550000D02*
X175550000Y-101550000D01*
X175550000Y-99850000D01*
X177050000Y-99850000D01*
X177050000Y-101550000D01*
X177050000Y-101550000D01*
G37*
G36*
X162275000Y-101455000D02*
X161125000Y-101455000D01*
X161125000Y-100405000D01*
X162275000Y-100405000D01*
X162275000Y-101455000D01*
X162275000Y-101455000D01*
G37*
G36*
X160678670Y-100175005D02*
X160678672Y-100175005D01*
X160680695Y-100175019D01*
X160719485Y-100179370D01*
X160756691Y-100191173D01*
X160790896Y-100209977D01*
X160820798Y-100235067D01*
X160845256Y-100265487D01*
X160863340Y-100300079D01*
X160874360Y-100337524D01*
X160874363Y-100337554D01*
X160874368Y-100337572D01*
X160877901Y-100376394D01*
X160873826Y-100415167D01*
X160873822Y-100415181D01*
X160873818Y-100415216D01*
X160862276Y-100452503D01*
X160843711Y-100486839D01*
X160818830Y-100516914D01*
X160788581Y-100541584D01*
X160754117Y-100559909D01*
X160716750Y-100571191D01*
X160677903Y-100575000D01*
X159872053Y-100575000D01*
X159871330Y-100574995D01*
X159871328Y-100574995D01*
X159869305Y-100574981D01*
X159830515Y-100570630D01*
X159793309Y-100558827D01*
X159759104Y-100540023D01*
X159729202Y-100514933D01*
X159704744Y-100484513D01*
X159686660Y-100449921D01*
X159675640Y-100412476D01*
X159675637Y-100412446D01*
X159675632Y-100412428D01*
X159672099Y-100373606D01*
X159676174Y-100334833D01*
X159676178Y-100334819D01*
X159676182Y-100334784D01*
X159687724Y-100297497D01*
X159706289Y-100263161D01*
X159731170Y-100233086D01*
X159761419Y-100208416D01*
X159795883Y-100190091D01*
X159833250Y-100178809D01*
X159872097Y-100175000D01*
X160677947Y-100175000D01*
X160678670Y-100175005D01*
X160678670Y-100175005D01*
G37*
G36*
X153628670Y-100175005D02*
X153628672Y-100175005D01*
X153630695Y-100175019D01*
X153669485Y-100179370D01*
X153706691Y-100191173D01*
X153740896Y-100209977D01*
X153770798Y-100235067D01*
X153795256Y-100265487D01*
X153813340Y-100300079D01*
X153824360Y-100337524D01*
X153824363Y-100337554D01*
X153824368Y-100337572D01*
X153827901Y-100376394D01*
X153823826Y-100415167D01*
X153823822Y-100415181D01*
X153823818Y-100415216D01*
X153812276Y-100452503D01*
X153793711Y-100486839D01*
X153768830Y-100516914D01*
X153738581Y-100541584D01*
X153704117Y-100559909D01*
X153666750Y-100571191D01*
X153627903Y-100575000D01*
X152822053Y-100575000D01*
X152821330Y-100574995D01*
X152821328Y-100574995D01*
X152819305Y-100574981D01*
X152780515Y-100570630D01*
X152743309Y-100558827D01*
X152709104Y-100540023D01*
X152679202Y-100514933D01*
X152654744Y-100484513D01*
X152636660Y-100449921D01*
X152625640Y-100412476D01*
X152625637Y-100412446D01*
X152625632Y-100412428D01*
X152622099Y-100373606D01*
X152626174Y-100334833D01*
X152626178Y-100334819D01*
X152626182Y-100334784D01*
X152637724Y-100297497D01*
X152656289Y-100263161D01*
X152681170Y-100233086D01*
X152711419Y-100208416D01*
X152745883Y-100190091D01*
X152783250Y-100178809D01*
X152822097Y-100175000D01*
X153627947Y-100175000D01*
X153628670Y-100175005D01*
X153628670Y-100175005D01*
G37*
G36*
X148955000Y-100475000D02*
X147905000Y-100475000D01*
X147905000Y-99325000D01*
X148955000Y-99325000D01*
X148955000Y-100475000D01*
X148955000Y-100475000D01*
G37*
G36*
X147295000Y-100475000D02*
X146245000Y-100475000D01*
X146245000Y-99325000D01*
X147295000Y-99325000D01*
X147295000Y-100475000D01*
X147295000Y-100475000D01*
G37*
G36*
X139375000Y-100475000D02*
X138625000Y-100475000D01*
X138625000Y-99925000D01*
X139375000Y-99925000D01*
X139375000Y-100475000D01*
X139375000Y-100475000D01*
G37*
G36*
X160678670Y-99675005D02*
X160678672Y-99675005D01*
X160680695Y-99675019D01*
X160719485Y-99679370D01*
X160756691Y-99691173D01*
X160790896Y-99709977D01*
X160820798Y-99735067D01*
X160845256Y-99765487D01*
X160863340Y-99800079D01*
X160874360Y-99837524D01*
X160874363Y-99837554D01*
X160874368Y-99837572D01*
X160877901Y-99876394D01*
X160873826Y-99915167D01*
X160873822Y-99915181D01*
X160873818Y-99915216D01*
X160862276Y-99952503D01*
X160843711Y-99986839D01*
X160818830Y-100016914D01*
X160788581Y-100041584D01*
X160754117Y-100059909D01*
X160716750Y-100071191D01*
X160677903Y-100075000D01*
X159872053Y-100075000D01*
X159871330Y-100074995D01*
X159871328Y-100074995D01*
X159869305Y-100074981D01*
X159830515Y-100070630D01*
X159793309Y-100058827D01*
X159759104Y-100040023D01*
X159729202Y-100014933D01*
X159704744Y-99984513D01*
X159686660Y-99949921D01*
X159675640Y-99912476D01*
X159675637Y-99912446D01*
X159675632Y-99912428D01*
X159672099Y-99873606D01*
X159676174Y-99834833D01*
X159676178Y-99834819D01*
X159676182Y-99834784D01*
X159687724Y-99797497D01*
X159706289Y-99763161D01*
X159731170Y-99733086D01*
X159761419Y-99708416D01*
X159795883Y-99690091D01*
X159833250Y-99678809D01*
X159872097Y-99675000D01*
X160677947Y-99675000D01*
X160678670Y-99675005D01*
X160678670Y-99675005D01*
G37*
G36*
X153628670Y-99675005D02*
X153628672Y-99675005D01*
X153630695Y-99675019D01*
X153669485Y-99679370D01*
X153706691Y-99691173D01*
X153740896Y-99709977D01*
X153770798Y-99735067D01*
X153795256Y-99765487D01*
X153813340Y-99800079D01*
X153824360Y-99837524D01*
X153824363Y-99837554D01*
X153824368Y-99837572D01*
X153827901Y-99876394D01*
X153823826Y-99915167D01*
X153823822Y-99915181D01*
X153823818Y-99915216D01*
X153812276Y-99952503D01*
X153793711Y-99986839D01*
X153768830Y-100016914D01*
X153738581Y-100041584D01*
X153704117Y-100059909D01*
X153666750Y-100071191D01*
X153627903Y-100075000D01*
X152822053Y-100075000D01*
X152821330Y-100074995D01*
X152821328Y-100074995D01*
X152819305Y-100074981D01*
X152780515Y-100070630D01*
X152743309Y-100058827D01*
X152709104Y-100040023D01*
X152679202Y-100014933D01*
X152654744Y-99984513D01*
X152636660Y-99949921D01*
X152625640Y-99912476D01*
X152625637Y-99912446D01*
X152625632Y-99912428D01*
X152622099Y-99873606D01*
X152626174Y-99834833D01*
X152626178Y-99834819D01*
X152626182Y-99834784D01*
X152637724Y-99797497D01*
X152656289Y-99763161D01*
X152681170Y-99733086D01*
X152711419Y-99708416D01*
X152745883Y-99690091D01*
X152783250Y-99678809D01*
X152822097Y-99675000D01*
X153627947Y-99675000D01*
X153628670Y-99675005D01*
X153628670Y-99675005D01*
G37*
G36*
X162275000Y-99795000D02*
X161125000Y-99795000D01*
X161125000Y-98745000D01*
X162275000Y-98745000D01*
X162275000Y-99795000D01*
X162275000Y-99795000D01*
G37*
G36*
X166875000Y-99580000D02*
X166125000Y-99580000D01*
X166125000Y-98630000D01*
X166875000Y-98630000D01*
X166875000Y-99580000D01*
X166875000Y-99580000D01*
G37*
G36*
X139375000Y-99575000D02*
X138625000Y-99575000D01*
X138625000Y-99025000D01*
X139375000Y-99025000D01*
X139375000Y-99575000D01*
X139375000Y-99575000D01*
G37*
G36*
X153628670Y-99175005D02*
X153628672Y-99175005D01*
X153630695Y-99175019D01*
X153669485Y-99179370D01*
X153706691Y-99191173D01*
X153740896Y-99209977D01*
X153770798Y-99235067D01*
X153795256Y-99265487D01*
X153813340Y-99300079D01*
X153824360Y-99337524D01*
X153824363Y-99337554D01*
X153824368Y-99337572D01*
X153827901Y-99376394D01*
X153823826Y-99415167D01*
X153823822Y-99415181D01*
X153823818Y-99415216D01*
X153812276Y-99452503D01*
X153793711Y-99486839D01*
X153768830Y-99516914D01*
X153738581Y-99541584D01*
X153704117Y-99559909D01*
X153666750Y-99571191D01*
X153627903Y-99575000D01*
X152822053Y-99575000D01*
X152821330Y-99574995D01*
X152821328Y-99574995D01*
X152819305Y-99574981D01*
X152780515Y-99570630D01*
X152743309Y-99558827D01*
X152709104Y-99540023D01*
X152679202Y-99514933D01*
X152654744Y-99484513D01*
X152636660Y-99449921D01*
X152625640Y-99412476D01*
X152625637Y-99412446D01*
X152625632Y-99412428D01*
X152622099Y-99373606D01*
X152626174Y-99334833D01*
X152626178Y-99334819D01*
X152626182Y-99334784D01*
X152637724Y-99297497D01*
X152656289Y-99263161D01*
X152681170Y-99233086D01*
X152711419Y-99208416D01*
X152745883Y-99190091D01*
X152783250Y-99178809D01*
X152822097Y-99175000D01*
X153627947Y-99175000D01*
X153628670Y-99175005D01*
X153628670Y-99175005D01*
G37*
G36*
X160678670Y-99175005D02*
X160678672Y-99175005D01*
X160680695Y-99175019D01*
X160719485Y-99179370D01*
X160756691Y-99191173D01*
X160790896Y-99209977D01*
X160820798Y-99235067D01*
X160845256Y-99265487D01*
X160863340Y-99300079D01*
X160874360Y-99337524D01*
X160874363Y-99337554D01*
X160874368Y-99337572D01*
X160877901Y-99376394D01*
X160873826Y-99415167D01*
X160873822Y-99415181D01*
X160873818Y-99415216D01*
X160862276Y-99452503D01*
X160843711Y-99486839D01*
X160818830Y-99516914D01*
X160788581Y-99541584D01*
X160754117Y-99559909D01*
X160716750Y-99571191D01*
X160677903Y-99575000D01*
X159872053Y-99575000D01*
X159871330Y-99574995D01*
X159871328Y-99574995D01*
X159869305Y-99574981D01*
X159830515Y-99570630D01*
X159793309Y-99558827D01*
X159759104Y-99540023D01*
X159729202Y-99514933D01*
X159704744Y-99484513D01*
X159686660Y-99449921D01*
X159675640Y-99412476D01*
X159675637Y-99412446D01*
X159675632Y-99412428D01*
X159672099Y-99373606D01*
X159676174Y-99334833D01*
X159676178Y-99334819D01*
X159676182Y-99334784D01*
X159687724Y-99297497D01*
X159706289Y-99263161D01*
X159731170Y-99233086D01*
X159761419Y-99208416D01*
X159795883Y-99190091D01*
X159833250Y-99178809D01*
X159872097Y-99175000D01*
X160677947Y-99175000D01*
X160678670Y-99175005D01*
X160678670Y-99175005D01*
G37*
G36*
X158225000Y-99100000D02*
X155275000Y-99100000D01*
X155275000Y-96150000D01*
X158225000Y-96150000D01*
X158225000Y-99100000D01*
X158225000Y-99100000D01*
G37*
G36*
X160678670Y-98675005D02*
X160678672Y-98675005D01*
X160680695Y-98675019D01*
X160719485Y-98679370D01*
X160756691Y-98691173D01*
X160790896Y-98709977D01*
X160820798Y-98735067D01*
X160845256Y-98765487D01*
X160863340Y-98800079D01*
X160874360Y-98837524D01*
X160874363Y-98837554D01*
X160874368Y-98837572D01*
X160877901Y-98876394D01*
X160873826Y-98915167D01*
X160873822Y-98915181D01*
X160873818Y-98915216D01*
X160862276Y-98952503D01*
X160843711Y-98986839D01*
X160818830Y-99016914D01*
X160788581Y-99041584D01*
X160754117Y-99059909D01*
X160716750Y-99071191D01*
X160677903Y-99075000D01*
X159872053Y-99075000D01*
X159871330Y-99074995D01*
X159871328Y-99074995D01*
X159869305Y-99074981D01*
X159830515Y-99070630D01*
X159793309Y-99058827D01*
X159759104Y-99040023D01*
X159729202Y-99014933D01*
X159704744Y-98984513D01*
X159686660Y-98949921D01*
X159675640Y-98912476D01*
X159675637Y-98912446D01*
X159675632Y-98912428D01*
X159672099Y-98873606D01*
X159676174Y-98834833D01*
X159676178Y-98834819D01*
X159676182Y-98834784D01*
X159687724Y-98797497D01*
X159706289Y-98763161D01*
X159731170Y-98733086D01*
X159761419Y-98708416D01*
X159795883Y-98690091D01*
X159833250Y-98678809D01*
X159872097Y-98675000D01*
X160677947Y-98675000D01*
X160678670Y-98675005D01*
X160678670Y-98675005D01*
G37*
G36*
X153628670Y-98675005D02*
X153628672Y-98675005D01*
X153630695Y-98675019D01*
X153669485Y-98679370D01*
X153706691Y-98691173D01*
X153740896Y-98709977D01*
X153770798Y-98735067D01*
X153795256Y-98765487D01*
X153813340Y-98800079D01*
X153824360Y-98837524D01*
X153824363Y-98837554D01*
X153824368Y-98837572D01*
X153827901Y-98876394D01*
X153823826Y-98915167D01*
X153823822Y-98915181D01*
X153823818Y-98915216D01*
X153812276Y-98952503D01*
X153793711Y-98986839D01*
X153768830Y-99016914D01*
X153738581Y-99041584D01*
X153704117Y-99059909D01*
X153666750Y-99071191D01*
X153627903Y-99075000D01*
X152822053Y-99075000D01*
X152821330Y-99074995D01*
X152821328Y-99074995D01*
X152819305Y-99074981D01*
X152780515Y-99070630D01*
X152743309Y-99058827D01*
X152709104Y-99040023D01*
X152679202Y-99014933D01*
X152654744Y-98984513D01*
X152636660Y-98949921D01*
X152625640Y-98912476D01*
X152625637Y-98912446D01*
X152625632Y-98912428D01*
X152622099Y-98873606D01*
X152626174Y-98834833D01*
X152626178Y-98834819D01*
X152626182Y-98834784D01*
X152637724Y-98797497D01*
X152656289Y-98763161D01*
X152681170Y-98733086D01*
X152711419Y-98708416D01*
X152745883Y-98690091D01*
X152783250Y-98678809D01*
X152822097Y-98675000D01*
X153627947Y-98675000D01*
X153628670Y-98675005D01*
X153628670Y-98675005D01*
G37*
G36*
X175330000Y-94240050D02*
X175331978Y-94253966D01*
X175337754Y-94266780D01*
X175346871Y-94277477D01*
X175358607Y-94285211D01*
X175372034Y-94289369D01*
X175379950Y-94290000D01*
X178550000Y-94290000D01*
X178550000Y-98640000D01*
X175379950Y-98640000D01*
X175366034Y-98641978D01*
X175353220Y-98647754D01*
X175342523Y-98656871D01*
X175334789Y-98668607D01*
X175330631Y-98682034D01*
X175330000Y-98689950D01*
X175330000Y-98890000D01*
X173680000Y-98890000D01*
X173680000Y-94040000D01*
X175330000Y-94040000D01*
X175330000Y-94240050D01*
X175330000Y-94240050D01*
G37*
G36*
X180650000Y-98795000D02*
X179350000Y-98795000D01*
X179350000Y-97945000D01*
X180650000Y-97945000D01*
X180650000Y-98795000D01*
X180650000Y-98795000D01*
G37*
G36*
X153628670Y-98175005D02*
X153628672Y-98175005D01*
X153630695Y-98175019D01*
X153669485Y-98179370D01*
X153706691Y-98191173D01*
X153740896Y-98209977D01*
X153770798Y-98235067D01*
X153795256Y-98265487D01*
X153813340Y-98300079D01*
X153824360Y-98337524D01*
X153824363Y-98337554D01*
X153824368Y-98337572D01*
X153827901Y-98376394D01*
X153823826Y-98415167D01*
X153823822Y-98415181D01*
X153823818Y-98415216D01*
X153812276Y-98452503D01*
X153793711Y-98486839D01*
X153768830Y-98516914D01*
X153738581Y-98541584D01*
X153704117Y-98559909D01*
X153666750Y-98571191D01*
X153627903Y-98575000D01*
X152822053Y-98575000D01*
X152821330Y-98574995D01*
X152821328Y-98574995D01*
X152819305Y-98574981D01*
X152780515Y-98570630D01*
X152743309Y-98558827D01*
X152709104Y-98540023D01*
X152679202Y-98514933D01*
X152654744Y-98484513D01*
X152636660Y-98449921D01*
X152625640Y-98412476D01*
X152625637Y-98412446D01*
X152625632Y-98412428D01*
X152622099Y-98373606D01*
X152626174Y-98334833D01*
X152626178Y-98334819D01*
X152626182Y-98334784D01*
X152637724Y-98297497D01*
X152656289Y-98263161D01*
X152681170Y-98233086D01*
X152711419Y-98208416D01*
X152745883Y-98190091D01*
X152783250Y-98178809D01*
X152822097Y-98175000D01*
X153627947Y-98175000D01*
X153628670Y-98175005D01*
X153628670Y-98175005D01*
G37*
G36*
X160678670Y-98175005D02*
X160678672Y-98175005D01*
X160680695Y-98175019D01*
X160719485Y-98179370D01*
X160756691Y-98191173D01*
X160790896Y-98209977D01*
X160820798Y-98235067D01*
X160845256Y-98265487D01*
X160863340Y-98300079D01*
X160874360Y-98337524D01*
X160874363Y-98337554D01*
X160874368Y-98337572D01*
X160877901Y-98376394D01*
X160873826Y-98415167D01*
X160873822Y-98415181D01*
X160873818Y-98415216D01*
X160862276Y-98452503D01*
X160843711Y-98486839D01*
X160818830Y-98516914D01*
X160788581Y-98541584D01*
X160754117Y-98559909D01*
X160716750Y-98571191D01*
X160677903Y-98575000D01*
X159872053Y-98575000D01*
X159871330Y-98574995D01*
X159871328Y-98574995D01*
X159869305Y-98574981D01*
X159830515Y-98570630D01*
X159793309Y-98558827D01*
X159759104Y-98540023D01*
X159729202Y-98514933D01*
X159704744Y-98484513D01*
X159686660Y-98449921D01*
X159675640Y-98412476D01*
X159675637Y-98412446D01*
X159675632Y-98412428D01*
X159672099Y-98373606D01*
X159676174Y-98334833D01*
X159676178Y-98334819D01*
X159676182Y-98334784D01*
X159687724Y-98297497D01*
X159706289Y-98263161D01*
X159731170Y-98233086D01*
X159761419Y-98208416D01*
X159795883Y-98190091D01*
X159833250Y-98178809D01*
X159872097Y-98175000D01*
X160677947Y-98175000D01*
X160678670Y-98175005D01*
X160678670Y-98175005D01*
G37*
G36*
X139570000Y-98110000D02*
X138430000Y-98110000D01*
X138430000Y-97310000D01*
X139570000Y-97310000D01*
X139570000Y-98110000D01*
X139570000Y-98110000D01*
G37*
G36*
X153628670Y-97675005D02*
X153628672Y-97675005D01*
X153630695Y-97675019D01*
X153669485Y-97679370D01*
X153706691Y-97691173D01*
X153740896Y-97709977D01*
X153770798Y-97735067D01*
X153795256Y-97765487D01*
X153813340Y-97800079D01*
X153824360Y-97837524D01*
X153824363Y-97837554D01*
X153824368Y-97837572D01*
X153827901Y-97876394D01*
X153823826Y-97915167D01*
X153823822Y-97915181D01*
X153823818Y-97915216D01*
X153812276Y-97952503D01*
X153793711Y-97986839D01*
X153768830Y-98016914D01*
X153738581Y-98041584D01*
X153704117Y-98059909D01*
X153666750Y-98071191D01*
X153627903Y-98075000D01*
X152822053Y-98075000D01*
X152821330Y-98074995D01*
X152821328Y-98074995D01*
X152819305Y-98074981D01*
X152780515Y-98070630D01*
X152743309Y-98058827D01*
X152709104Y-98040023D01*
X152679202Y-98014933D01*
X152654744Y-97984513D01*
X152636660Y-97949921D01*
X152625640Y-97912476D01*
X152625637Y-97912446D01*
X152625632Y-97912428D01*
X152622099Y-97873606D01*
X152626174Y-97834833D01*
X152626178Y-97834819D01*
X152626182Y-97834784D01*
X152637724Y-97797497D01*
X152656289Y-97763161D01*
X152681170Y-97733086D01*
X152711419Y-97708416D01*
X152745883Y-97690091D01*
X152783250Y-97678809D01*
X152822097Y-97675000D01*
X153627947Y-97675000D01*
X153628670Y-97675005D01*
X153628670Y-97675005D01*
G37*
G36*
X160678670Y-97675005D02*
X160678672Y-97675005D01*
X160680695Y-97675019D01*
X160719485Y-97679370D01*
X160756691Y-97691173D01*
X160790896Y-97709977D01*
X160820798Y-97735067D01*
X160845256Y-97765487D01*
X160863340Y-97800079D01*
X160874360Y-97837524D01*
X160874363Y-97837554D01*
X160874368Y-97837572D01*
X160877901Y-97876394D01*
X160873826Y-97915167D01*
X160873822Y-97915181D01*
X160873818Y-97915216D01*
X160862276Y-97952503D01*
X160843711Y-97986839D01*
X160818830Y-98016914D01*
X160788581Y-98041584D01*
X160754117Y-98059909D01*
X160716750Y-98071191D01*
X160677903Y-98075000D01*
X159872053Y-98075000D01*
X159871330Y-98074995D01*
X159871328Y-98074995D01*
X159869305Y-98074981D01*
X159830515Y-98070630D01*
X159793309Y-98058827D01*
X159759104Y-98040023D01*
X159729202Y-98014933D01*
X159704744Y-97984513D01*
X159686660Y-97949921D01*
X159675640Y-97912476D01*
X159675637Y-97912446D01*
X159675632Y-97912428D01*
X159672099Y-97873606D01*
X159676174Y-97834833D01*
X159676178Y-97834819D01*
X159676182Y-97834784D01*
X159687724Y-97797497D01*
X159706289Y-97763161D01*
X159731170Y-97733086D01*
X159761419Y-97708416D01*
X159795883Y-97690091D01*
X159833250Y-97678809D01*
X159872097Y-97675000D01*
X160677947Y-97675000D01*
X160678670Y-97675005D01*
X160678670Y-97675005D01*
G37*
G36*
X146035000Y-97785000D02*
X145165000Y-97785000D01*
X145165000Y-96915000D01*
X146035000Y-96915000D01*
X146035000Y-97785000D01*
X146035000Y-97785000D01*
G37*
G36*
X153628670Y-97175005D02*
X153628672Y-97175005D01*
X153630695Y-97175019D01*
X153669485Y-97179370D01*
X153706691Y-97191173D01*
X153740896Y-97209977D01*
X153770798Y-97235067D01*
X153795256Y-97265487D01*
X153813340Y-97300079D01*
X153824360Y-97337524D01*
X153824363Y-97337554D01*
X153824368Y-97337572D01*
X153827901Y-97376394D01*
X153823826Y-97415167D01*
X153823822Y-97415181D01*
X153823818Y-97415216D01*
X153812276Y-97452503D01*
X153793711Y-97486839D01*
X153768830Y-97516914D01*
X153738581Y-97541584D01*
X153704117Y-97559909D01*
X153666750Y-97571191D01*
X153627903Y-97575000D01*
X152822053Y-97575000D01*
X152821330Y-97574995D01*
X152821328Y-97574995D01*
X152819305Y-97574981D01*
X152780515Y-97570630D01*
X152743309Y-97558827D01*
X152709104Y-97540023D01*
X152679202Y-97514933D01*
X152654744Y-97484513D01*
X152636660Y-97449921D01*
X152625640Y-97412476D01*
X152625637Y-97412446D01*
X152625632Y-97412428D01*
X152622099Y-97373606D01*
X152626174Y-97334833D01*
X152626178Y-97334819D01*
X152626182Y-97334784D01*
X152637724Y-97297497D01*
X152656289Y-97263161D01*
X152681170Y-97233086D01*
X152711419Y-97208416D01*
X152745883Y-97190091D01*
X152783250Y-97178809D01*
X152822097Y-97175000D01*
X153627947Y-97175000D01*
X153628670Y-97175005D01*
X153628670Y-97175005D01*
G37*
G36*
X160678670Y-97175005D02*
X160678672Y-97175005D01*
X160680695Y-97175019D01*
X160719485Y-97179370D01*
X160756691Y-97191173D01*
X160790896Y-97209977D01*
X160820798Y-97235067D01*
X160845256Y-97265487D01*
X160863340Y-97300079D01*
X160874360Y-97337524D01*
X160874363Y-97337554D01*
X160874368Y-97337572D01*
X160877901Y-97376394D01*
X160873826Y-97415167D01*
X160873822Y-97415181D01*
X160873818Y-97415216D01*
X160862276Y-97452503D01*
X160843711Y-97486839D01*
X160818830Y-97516914D01*
X160788581Y-97541584D01*
X160754117Y-97559909D01*
X160716750Y-97571191D01*
X160677903Y-97575000D01*
X159872053Y-97575000D01*
X159871330Y-97574995D01*
X159871328Y-97574995D01*
X159869305Y-97574981D01*
X159830515Y-97570630D01*
X159793309Y-97558827D01*
X159759104Y-97540023D01*
X159729202Y-97514933D01*
X159704744Y-97484513D01*
X159686660Y-97449921D01*
X159675640Y-97412476D01*
X159675637Y-97412446D01*
X159675632Y-97412428D01*
X159672099Y-97373606D01*
X159676174Y-97334833D01*
X159676178Y-97334819D01*
X159676182Y-97334784D01*
X159687724Y-97297497D01*
X159706289Y-97263161D01*
X159731170Y-97233086D01*
X159761419Y-97208416D01*
X159795883Y-97190091D01*
X159833250Y-97178809D01*
X159872097Y-97175000D01*
X160677947Y-97175000D01*
X160678670Y-97175005D01*
X160678670Y-97175005D01*
G37*
G36*
X180650000Y-97525000D02*
X179350000Y-97525000D01*
X179350000Y-96675000D01*
X180650000Y-96675000D01*
X180650000Y-97525000D01*
X180650000Y-97525000D01*
G37*
G36*
X165055000Y-97500000D02*
X164005000Y-97500000D01*
X164005000Y-96350000D01*
X165055000Y-96350000D01*
X165055000Y-97500000D01*
X165055000Y-97500000D01*
G37*
G36*
X163395000Y-97500000D02*
X162345000Y-97500000D01*
X162345000Y-96350000D01*
X163395000Y-96350000D01*
X163395000Y-97500000D01*
X163395000Y-97500000D01*
G37*
G36*
X149575000Y-97475000D02*
X146725000Y-97475000D01*
X146725000Y-95825000D01*
X149575000Y-95825000D01*
X149575000Y-97475000D01*
X149575000Y-97475000D01*
G37*
G36*
X166875000Y-97180000D02*
X166125000Y-97180000D01*
X166125000Y-96230000D01*
X166875000Y-96230000D01*
X166875000Y-97180000D01*
X166875000Y-97180000D01*
G37*
G36*
X152135000Y-97135000D02*
X151345000Y-97135000D01*
X151345000Y-96265000D01*
X152135000Y-96265000D01*
X152135000Y-97135000D01*
X152135000Y-97135000D01*
G37*
G36*
X151055000Y-97135000D02*
X150265000Y-97135000D01*
X150265000Y-96265000D01*
X151055000Y-96265000D01*
X151055000Y-97135000D01*
X151055000Y-97135000D01*
G37*
G36*
X153628670Y-96675005D02*
X153628672Y-96675005D01*
X153630695Y-96675019D01*
X153669485Y-96679370D01*
X153706691Y-96691173D01*
X153740896Y-96709977D01*
X153770798Y-96735067D01*
X153795256Y-96765487D01*
X153813340Y-96800079D01*
X153824360Y-96837524D01*
X153824363Y-96837554D01*
X153824368Y-96837572D01*
X153827901Y-96876394D01*
X153823826Y-96915167D01*
X153823822Y-96915181D01*
X153823818Y-96915216D01*
X153812276Y-96952503D01*
X153793711Y-96986839D01*
X153768830Y-97016914D01*
X153738581Y-97041584D01*
X153704117Y-97059909D01*
X153666750Y-97071191D01*
X153627903Y-97075000D01*
X152822053Y-97075000D01*
X152821330Y-97074995D01*
X152821328Y-97074995D01*
X152819305Y-97074981D01*
X152780515Y-97070630D01*
X152743309Y-97058827D01*
X152709104Y-97040023D01*
X152679202Y-97014933D01*
X152654744Y-96984513D01*
X152636660Y-96949921D01*
X152625640Y-96912476D01*
X152625637Y-96912446D01*
X152625632Y-96912428D01*
X152622099Y-96873606D01*
X152626174Y-96834833D01*
X152626178Y-96834819D01*
X152626182Y-96834784D01*
X152637724Y-96797497D01*
X152656289Y-96763161D01*
X152681170Y-96733086D01*
X152711419Y-96708416D01*
X152745883Y-96690091D01*
X152783250Y-96678809D01*
X152822097Y-96675000D01*
X153627947Y-96675000D01*
X153628670Y-96675005D01*
X153628670Y-96675005D01*
G37*
G36*
X160678670Y-96675005D02*
X160678672Y-96675005D01*
X160680695Y-96675019D01*
X160719485Y-96679370D01*
X160756691Y-96691173D01*
X160790896Y-96709977D01*
X160820798Y-96735067D01*
X160845256Y-96765487D01*
X160863340Y-96800079D01*
X160874360Y-96837524D01*
X160874363Y-96837554D01*
X160874368Y-96837572D01*
X160877901Y-96876394D01*
X160873826Y-96915167D01*
X160873822Y-96915181D01*
X160873818Y-96915216D01*
X160862276Y-96952503D01*
X160843711Y-96986839D01*
X160818830Y-97016914D01*
X160788581Y-97041584D01*
X160754117Y-97059909D01*
X160716750Y-97071191D01*
X160677903Y-97075000D01*
X159872053Y-97075000D01*
X159871330Y-97074995D01*
X159871328Y-97074995D01*
X159869305Y-97074981D01*
X159830515Y-97070630D01*
X159793309Y-97058827D01*
X159759104Y-97040023D01*
X159729202Y-97014933D01*
X159704744Y-96984513D01*
X159686660Y-96949921D01*
X159675640Y-96912476D01*
X159675637Y-96912446D01*
X159675632Y-96912428D01*
X159672099Y-96873606D01*
X159676174Y-96834833D01*
X159676178Y-96834819D01*
X159676182Y-96834784D01*
X159687724Y-96797497D01*
X159706289Y-96763161D01*
X159731170Y-96733086D01*
X159761419Y-96708416D01*
X159795883Y-96690091D01*
X159833250Y-96678809D01*
X159872097Y-96675000D01*
X160677947Y-96675000D01*
X160678670Y-96675005D01*
X160678670Y-96675005D01*
G37*
G36*
X146035000Y-96785000D02*
X145165000Y-96785000D01*
X145165000Y-95915000D01*
X146035000Y-95915000D01*
X146035000Y-96785000D01*
X146035000Y-96785000D01*
G37*
G36*
X139570000Y-96690000D02*
X138430000Y-96690000D01*
X138430000Y-95890000D01*
X139570000Y-95890000D01*
X139570000Y-96690000D01*
X139570000Y-96690000D01*
G37*
G36*
X160678670Y-96175005D02*
X160678672Y-96175005D01*
X160680695Y-96175019D01*
X160719485Y-96179370D01*
X160756691Y-96191173D01*
X160790896Y-96209977D01*
X160820798Y-96235067D01*
X160845256Y-96265487D01*
X160863340Y-96300079D01*
X160874360Y-96337524D01*
X160874363Y-96337554D01*
X160874368Y-96337572D01*
X160877901Y-96376394D01*
X160873826Y-96415167D01*
X160873822Y-96415181D01*
X160873818Y-96415216D01*
X160862276Y-96452503D01*
X160843711Y-96486839D01*
X160818830Y-96516914D01*
X160788581Y-96541584D01*
X160754117Y-96559909D01*
X160716750Y-96571191D01*
X160677903Y-96575000D01*
X159872053Y-96575000D01*
X159871330Y-96574995D01*
X159871328Y-96574995D01*
X159869305Y-96574981D01*
X159830515Y-96570630D01*
X159793309Y-96558827D01*
X159759104Y-96540023D01*
X159729202Y-96514933D01*
X159704744Y-96484513D01*
X159686660Y-96449921D01*
X159675640Y-96412476D01*
X159675637Y-96412446D01*
X159675632Y-96412428D01*
X159672099Y-96373606D01*
X159676174Y-96334833D01*
X159676178Y-96334819D01*
X159676182Y-96334784D01*
X159687724Y-96297497D01*
X159706289Y-96263161D01*
X159731170Y-96233086D01*
X159761419Y-96208416D01*
X159795883Y-96190091D01*
X159833250Y-96178809D01*
X159872097Y-96175000D01*
X160677947Y-96175000D01*
X160678670Y-96175005D01*
X160678670Y-96175005D01*
G37*
G36*
X153628670Y-96175005D02*
X153628672Y-96175005D01*
X153630695Y-96175019D01*
X153669485Y-96179370D01*
X153706691Y-96191173D01*
X153740896Y-96209977D01*
X153770798Y-96235067D01*
X153795256Y-96265487D01*
X153813340Y-96300079D01*
X153824360Y-96337524D01*
X153824363Y-96337554D01*
X153824368Y-96337572D01*
X153827901Y-96376394D01*
X153823826Y-96415167D01*
X153823822Y-96415181D01*
X153823818Y-96415216D01*
X153812276Y-96452503D01*
X153793711Y-96486839D01*
X153768830Y-96516914D01*
X153738581Y-96541584D01*
X153704117Y-96559909D01*
X153666750Y-96571191D01*
X153627903Y-96575000D01*
X152822053Y-96575000D01*
X152821330Y-96574995D01*
X152821328Y-96574995D01*
X152819305Y-96574981D01*
X152780515Y-96570630D01*
X152743309Y-96558827D01*
X152709104Y-96540023D01*
X152679202Y-96514933D01*
X152654744Y-96484513D01*
X152636660Y-96449921D01*
X152625640Y-96412476D01*
X152625637Y-96412446D01*
X152625632Y-96412428D01*
X152622099Y-96373606D01*
X152626174Y-96334833D01*
X152626178Y-96334819D01*
X152626182Y-96334784D01*
X152637724Y-96297497D01*
X152656289Y-96263161D01*
X152681170Y-96233086D01*
X152711419Y-96208416D01*
X152745883Y-96190091D01*
X152783250Y-96178809D01*
X152822097Y-96175000D01*
X153627947Y-96175000D01*
X153628670Y-96175005D01*
X153628670Y-96175005D01*
G37*
G36*
X180650000Y-96255000D02*
X179350000Y-96255000D01*
X179350000Y-95405000D01*
X180650000Y-95405000D01*
X180650000Y-96255000D01*
X180650000Y-96255000D01*
G37*
G36*
X153628670Y-95675005D02*
X153628672Y-95675005D01*
X153630695Y-95675019D01*
X153669485Y-95679370D01*
X153706691Y-95691173D01*
X153740896Y-95709977D01*
X153770798Y-95735067D01*
X153795256Y-95765487D01*
X153813340Y-95800079D01*
X153824360Y-95837524D01*
X153824363Y-95837554D01*
X153824368Y-95837572D01*
X153827901Y-95876394D01*
X153823826Y-95915167D01*
X153823822Y-95915181D01*
X153823818Y-95915216D01*
X153812276Y-95952503D01*
X153793711Y-95986839D01*
X153768830Y-96016914D01*
X153738581Y-96041584D01*
X153704117Y-96059909D01*
X153666750Y-96071191D01*
X153627903Y-96075000D01*
X152822053Y-96075000D01*
X152821330Y-96074995D01*
X152821328Y-96074995D01*
X152819305Y-96074981D01*
X152780515Y-96070630D01*
X152743309Y-96058827D01*
X152709104Y-96040023D01*
X152679202Y-96014933D01*
X152654744Y-95984513D01*
X152636660Y-95949921D01*
X152625640Y-95912476D01*
X152625637Y-95912446D01*
X152625632Y-95912428D01*
X152622099Y-95873606D01*
X152626174Y-95834833D01*
X152626178Y-95834819D01*
X152626182Y-95834784D01*
X152637724Y-95797497D01*
X152656289Y-95763161D01*
X152681170Y-95733086D01*
X152711419Y-95708416D01*
X152745883Y-95690091D01*
X152783250Y-95678809D01*
X152822097Y-95675000D01*
X153627947Y-95675000D01*
X153628670Y-95675005D01*
X153628670Y-95675005D01*
G37*
G36*
X160678670Y-95675005D02*
X160678672Y-95675005D01*
X160680695Y-95675019D01*
X160719485Y-95679370D01*
X160756691Y-95691173D01*
X160790896Y-95709977D01*
X160820798Y-95735067D01*
X160845256Y-95765487D01*
X160863340Y-95800079D01*
X160874360Y-95837524D01*
X160874363Y-95837554D01*
X160874368Y-95837572D01*
X160877901Y-95876394D01*
X160873826Y-95915167D01*
X160873822Y-95915181D01*
X160873818Y-95915216D01*
X160862276Y-95952503D01*
X160843711Y-95986839D01*
X160818830Y-96016914D01*
X160788581Y-96041584D01*
X160754117Y-96059909D01*
X160716750Y-96071191D01*
X160677903Y-96075000D01*
X159872053Y-96075000D01*
X159871330Y-96074995D01*
X159871328Y-96074995D01*
X159869305Y-96074981D01*
X159830515Y-96070630D01*
X159793309Y-96058827D01*
X159759104Y-96040023D01*
X159729202Y-96014933D01*
X159704744Y-95984513D01*
X159686660Y-95949921D01*
X159675640Y-95912476D01*
X159675637Y-95912446D01*
X159675632Y-95912428D01*
X159672099Y-95873606D01*
X159676174Y-95834833D01*
X159676178Y-95834819D01*
X159676182Y-95834784D01*
X159687724Y-95797497D01*
X159706289Y-95763161D01*
X159731170Y-95733086D01*
X159761419Y-95708416D01*
X159795883Y-95690091D01*
X159833250Y-95678809D01*
X159872097Y-95675000D01*
X160677947Y-95675000D01*
X160678670Y-95675005D01*
X160678670Y-95675005D01*
G37*
G36*
X166890000Y-95875000D02*
X166090000Y-95875000D01*
X166090000Y-94735000D01*
X166890000Y-94735000D01*
X166890000Y-95875000D01*
X166890000Y-95875000D01*
G37*
G36*
X168310000Y-95875000D02*
X167510000Y-95875000D01*
X167510000Y-94735000D01*
X168310000Y-94735000D01*
X168310000Y-95875000D01*
X168310000Y-95875000D01*
G37*
G36*
X149575000Y-95575000D02*
X146725000Y-95575000D01*
X146725000Y-93925000D01*
X149575000Y-93925000D01*
X149575000Y-95575000D01*
X149575000Y-95575000D01*
G37*
G36*
X153628670Y-95175005D02*
X153628672Y-95175005D01*
X153630695Y-95175019D01*
X153669485Y-95179370D01*
X153706691Y-95191173D01*
X153740896Y-95209977D01*
X153770798Y-95235067D01*
X153795256Y-95265487D01*
X153813340Y-95300079D01*
X153824360Y-95337524D01*
X153824363Y-95337554D01*
X153824368Y-95337572D01*
X153827901Y-95376394D01*
X153823826Y-95415167D01*
X153823822Y-95415181D01*
X153823818Y-95415216D01*
X153812276Y-95452503D01*
X153793711Y-95486839D01*
X153768830Y-95516914D01*
X153738581Y-95541584D01*
X153704117Y-95559909D01*
X153666750Y-95571191D01*
X153627903Y-95575000D01*
X152822053Y-95575000D01*
X152821330Y-95574995D01*
X152821328Y-95574995D01*
X152819305Y-95574981D01*
X152780515Y-95570630D01*
X152743309Y-95558827D01*
X152709104Y-95540023D01*
X152679202Y-95514933D01*
X152654744Y-95484513D01*
X152636660Y-95449921D01*
X152625640Y-95412476D01*
X152625637Y-95412446D01*
X152625632Y-95412428D01*
X152622099Y-95373606D01*
X152626174Y-95334833D01*
X152626178Y-95334819D01*
X152626182Y-95334784D01*
X152637724Y-95297497D01*
X152656289Y-95263161D01*
X152681170Y-95233086D01*
X152711419Y-95208416D01*
X152745883Y-95190091D01*
X152783250Y-95178809D01*
X152822097Y-95175000D01*
X153627947Y-95175000D01*
X153628670Y-95175005D01*
X153628670Y-95175005D01*
G37*
G36*
X160678670Y-95175005D02*
X160678672Y-95175005D01*
X160680695Y-95175019D01*
X160719485Y-95179370D01*
X160756691Y-95191173D01*
X160790896Y-95209977D01*
X160820798Y-95235067D01*
X160845256Y-95265487D01*
X160863340Y-95300079D01*
X160874360Y-95337524D01*
X160874363Y-95337554D01*
X160874368Y-95337572D01*
X160877901Y-95376394D01*
X160873826Y-95415167D01*
X160873822Y-95415181D01*
X160873818Y-95415216D01*
X160862276Y-95452503D01*
X160843711Y-95486839D01*
X160818830Y-95516914D01*
X160788581Y-95541584D01*
X160754117Y-95559909D01*
X160716750Y-95571191D01*
X160677903Y-95575000D01*
X159872053Y-95575000D01*
X159871330Y-95574995D01*
X159871328Y-95574995D01*
X159869305Y-95574981D01*
X159830515Y-95570630D01*
X159793309Y-95558827D01*
X159759104Y-95540023D01*
X159729202Y-95514933D01*
X159704744Y-95484513D01*
X159686660Y-95449921D01*
X159675640Y-95412476D01*
X159675637Y-95412446D01*
X159675632Y-95412428D01*
X159672099Y-95373606D01*
X159676174Y-95334833D01*
X159676178Y-95334819D01*
X159676182Y-95334784D01*
X159687724Y-95297497D01*
X159706289Y-95263161D01*
X159731170Y-95233086D01*
X159761419Y-95208416D01*
X159795883Y-95190091D01*
X159833250Y-95178809D01*
X159872097Y-95175000D01*
X160677947Y-95175000D01*
X160678670Y-95175005D01*
X160678670Y-95175005D01*
G37*
G36*
X146035000Y-95485000D02*
X145165000Y-95485000D01*
X145165000Y-94615000D01*
X146035000Y-94615000D01*
X146035000Y-95485000D01*
X146035000Y-95485000D01*
G37*
G36*
X183857661Y-93225681D02*
X184054570Y-93266101D01*
X184239875Y-93343996D01*
X184406523Y-93456401D01*
X184548163Y-93599034D01*
X184659401Y-93766461D01*
X184736002Y-93952308D01*
X184774978Y-94149150D01*
X184774978Y-94149160D01*
X184775044Y-94149494D01*
X184771838Y-94379088D01*
X184771762Y-94379422D01*
X184771762Y-94379430D01*
X184727305Y-94575107D01*
X184645546Y-94758743D01*
X184529675Y-94923000D01*
X184384108Y-95061621D01*
X184214390Y-95169327D01*
X184026975Y-95242021D01*
X183829018Y-95276926D01*
X183628050Y-95272717D01*
X183431721Y-95229551D01*
X183247524Y-95149077D01*
X183082463Y-95034356D01*
X182942825Y-94889757D01*
X182833935Y-94720794D01*
X182759937Y-94533895D01*
X182723650Y-94336187D01*
X182726458Y-94135195D01*
X182768251Y-93938569D01*
X182847438Y-93753810D01*
X182961002Y-93587954D01*
X183104622Y-93447311D01*
X183272822Y-93337244D01*
X183459200Y-93261943D01*
X183656650Y-93224277D01*
X183857661Y-93225681D01*
X183857661Y-93225681D01*
G37*
G36*
X153628670Y-94675005D02*
X153628672Y-94675005D01*
X153630695Y-94675019D01*
X153669485Y-94679370D01*
X153706691Y-94691173D01*
X153740896Y-94709977D01*
X153770798Y-94735067D01*
X153795256Y-94765487D01*
X153813340Y-94800079D01*
X153824360Y-94837524D01*
X153824363Y-94837554D01*
X153824368Y-94837572D01*
X153827901Y-94876394D01*
X153823826Y-94915167D01*
X153823822Y-94915181D01*
X153823818Y-94915216D01*
X153812276Y-94952503D01*
X153793711Y-94986839D01*
X153768830Y-95016914D01*
X153738581Y-95041584D01*
X153704117Y-95059909D01*
X153666750Y-95071191D01*
X153627903Y-95075000D01*
X152822053Y-95075000D01*
X152821330Y-95074995D01*
X152821328Y-95074995D01*
X152819305Y-95074981D01*
X152780515Y-95070630D01*
X152743309Y-95058827D01*
X152709104Y-95040023D01*
X152679202Y-95014933D01*
X152654744Y-94984513D01*
X152636660Y-94949921D01*
X152625640Y-94912476D01*
X152625637Y-94912446D01*
X152625632Y-94912428D01*
X152622099Y-94873606D01*
X152626174Y-94834833D01*
X152626178Y-94834819D01*
X152626182Y-94834784D01*
X152637724Y-94797497D01*
X152656289Y-94763161D01*
X152681170Y-94733086D01*
X152711419Y-94708416D01*
X152745883Y-94690091D01*
X152783250Y-94678809D01*
X152822097Y-94675000D01*
X153627947Y-94675000D01*
X153628670Y-94675005D01*
X153628670Y-94675005D01*
G37*
G36*
X160678670Y-94675005D02*
X160678672Y-94675005D01*
X160680695Y-94675019D01*
X160719485Y-94679370D01*
X160756691Y-94691173D01*
X160790896Y-94709977D01*
X160820798Y-94735067D01*
X160845256Y-94765487D01*
X160863340Y-94800079D01*
X160874360Y-94837524D01*
X160874363Y-94837554D01*
X160874368Y-94837572D01*
X160877901Y-94876394D01*
X160873826Y-94915167D01*
X160873822Y-94915181D01*
X160873818Y-94915216D01*
X160862276Y-94952503D01*
X160843711Y-94986839D01*
X160818830Y-95016914D01*
X160788581Y-95041584D01*
X160754117Y-95059909D01*
X160716750Y-95071191D01*
X160677903Y-95075000D01*
X159872053Y-95075000D01*
X159871330Y-95074995D01*
X159871328Y-95074995D01*
X159869305Y-95074981D01*
X159830515Y-95070630D01*
X159793309Y-95058827D01*
X159759104Y-95040023D01*
X159729202Y-95014933D01*
X159704744Y-94984513D01*
X159686660Y-94949921D01*
X159675640Y-94912476D01*
X159675637Y-94912446D01*
X159675632Y-94912428D01*
X159672099Y-94873606D01*
X159676174Y-94834833D01*
X159676178Y-94834819D01*
X159676182Y-94834784D01*
X159687724Y-94797497D01*
X159706289Y-94763161D01*
X159731170Y-94733086D01*
X159761419Y-94708416D01*
X159795883Y-94690091D01*
X159833250Y-94678809D01*
X159872097Y-94675000D01*
X160677947Y-94675000D01*
X160678670Y-94675005D01*
X160678670Y-94675005D01*
G37*
G36*
X180650000Y-94985000D02*
X179350000Y-94985000D01*
X179350000Y-94135000D01*
X180650000Y-94135000D01*
X180650000Y-94985000D01*
X180650000Y-94985000D01*
G37*
G36*
X154040167Y-93501174D02*
X154040181Y-93501178D01*
X154040216Y-93501182D01*
X154077503Y-93512724D01*
X154111839Y-93531289D01*
X154141914Y-93556170D01*
X154166584Y-93586419D01*
X154184909Y-93620883D01*
X154196191Y-93658250D01*
X154200000Y-93697097D01*
X154200000Y-94502903D01*
X154199981Y-94505695D01*
X154195630Y-94544485D01*
X154183827Y-94581691D01*
X154165023Y-94615896D01*
X154139933Y-94645798D01*
X154109513Y-94670256D01*
X154074921Y-94688340D01*
X154037476Y-94699360D01*
X154037446Y-94699363D01*
X154037428Y-94699368D01*
X153998606Y-94702901D01*
X153959833Y-94698826D01*
X153959819Y-94698822D01*
X153959784Y-94698818D01*
X153922497Y-94687276D01*
X153888161Y-94668711D01*
X153858086Y-94643830D01*
X153833416Y-94613581D01*
X153815091Y-94579117D01*
X153803809Y-94541750D01*
X153800000Y-94502903D01*
X153800000Y-93697097D01*
X153800019Y-93694305D01*
X153804370Y-93655515D01*
X153816173Y-93618309D01*
X153834977Y-93584104D01*
X153860067Y-93554202D01*
X153890487Y-93529744D01*
X153925079Y-93511660D01*
X153962524Y-93500640D01*
X153962554Y-93500637D01*
X153962572Y-93500632D01*
X154001394Y-93497099D01*
X154040167Y-93501174D01*
X154040167Y-93501174D01*
G37*
G36*
X154540167Y-93501174D02*
X154540181Y-93501178D01*
X154540216Y-93501182D01*
X154577503Y-93512724D01*
X154611839Y-93531289D01*
X154641914Y-93556170D01*
X154666584Y-93586419D01*
X154684909Y-93620883D01*
X154696191Y-93658250D01*
X154700000Y-93697097D01*
X154700000Y-94502903D01*
X154699981Y-94505695D01*
X154695630Y-94544485D01*
X154683827Y-94581691D01*
X154665023Y-94615896D01*
X154639933Y-94645798D01*
X154609513Y-94670256D01*
X154574921Y-94688340D01*
X154537476Y-94699360D01*
X154537446Y-94699363D01*
X154537428Y-94699368D01*
X154498606Y-94702901D01*
X154459833Y-94698826D01*
X154459819Y-94698822D01*
X154459784Y-94698818D01*
X154422497Y-94687276D01*
X154388161Y-94668711D01*
X154358086Y-94643830D01*
X154333416Y-94613581D01*
X154315091Y-94579117D01*
X154303809Y-94541750D01*
X154300000Y-94502903D01*
X154300000Y-93697097D01*
X154300019Y-93694305D01*
X154304370Y-93655515D01*
X154316173Y-93618309D01*
X154334977Y-93584104D01*
X154360067Y-93554202D01*
X154390487Y-93529744D01*
X154425079Y-93511660D01*
X154462524Y-93500640D01*
X154462554Y-93500637D01*
X154462572Y-93500632D01*
X154501394Y-93497099D01*
X154540167Y-93501174D01*
X154540167Y-93501174D01*
G37*
G36*
X155040167Y-93501174D02*
X155040181Y-93501178D01*
X155040216Y-93501182D01*
X155077503Y-93512724D01*
X155111839Y-93531289D01*
X155141914Y-93556170D01*
X155166584Y-93586419D01*
X155184909Y-93620883D01*
X155196191Y-93658250D01*
X155200000Y-93697097D01*
X155200000Y-94502903D01*
X155199981Y-94505695D01*
X155195630Y-94544485D01*
X155183827Y-94581691D01*
X155165023Y-94615896D01*
X155139933Y-94645798D01*
X155109513Y-94670256D01*
X155074921Y-94688340D01*
X155037476Y-94699360D01*
X155037446Y-94699363D01*
X155037428Y-94699368D01*
X154998606Y-94702901D01*
X154959833Y-94698826D01*
X154959819Y-94698822D01*
X154959784Y-94698818D01*
X154922497Y-94687276D01*
X154888161Y-94668711D01*
X154858086Y-94643830D01*
X154833416Y-94613581D01*
X154815091Y-94579117D01*
X154803809Y-94541750D01*
X154800000Y-94502903D01*
X154800000Y-93697097D01*
X154800019Y-93694305D01*
X154804370Y-93655515D01*
X154816173Y-93618309D01*
X154834977Y-93584104D01*
X154860067Y-93554202D01*
X154890487Y-93529744D01*
X154925079Y-93511660D01*
X154962524Y-93500640D01*
X154962554Y-93500637D01*
X154962572Y-93500632D01*
X155001394Y-93497099D01*
X155040167Y-93501174D01*
X155040167Y-93501174D01*
G37*
G36*
X155540167Y-93501174D02*
X155540181Y-93501178D01*
X155540216Y-93501182D01*
X155577503Y-93512724D01*
X155611839Y-93531289D01*
X155641914Y-93556170D01*
X155666584Y-93586419D01*
X155684909Y-93620883D01*
X155696191Y-93658250D01*
X155700000Y-93697097D01*
X155700000Y-94502903D01*
X155699981Y-94505695D01*
X155695630Y-94544485D01*
X155683827Y-94581691D01*
X155665023Y-94615896D01*
X155639933Y-94645798D01*
X155609513Y-94670256D01*
X155574921Y-94688340D01*
X155537476Y-94699360D01*
X155537446Y-94699363D01*
X155537428Y-94699368D01*
X155498606Y-94702901D01*
X155459833Y-94698826D01*
X155459819Y-94698822D01*
X155459784Y-94698818D01*
X155422497Y-94687276D01*
X155388161Y-94668711D01*
X155358086Y-94643830D01*
X155333416Y-94613581D01*
X155315091Y-94579117D01*
X155303809Y-94541750D01*
X155300000Y-94502903D01*
X155300000Y-93697097D01*
X155300019Y-93694305D01*
X155304370Y-93655515D01*
X155316173Y-93618309D01*
X155334977Y-93584104D01*
X155360067Y-93554202D01*
X155390487Y-93529744D01*
X155425079Y-93511660D01*
X155462524Y-93500640D01*
X155462554Y-93500637D01*
X155462572Y-93500632D01*
X155501394Y-93497099D01*
X155540167Y-93501174D01*
X155540167Y-93501174D01*
G37*
G36*
X156040167Y-93501174D02*
X156040181Y-93501178D01*
X156040216Y-93501182D01*
X156077503Y-93512724D01*
X156111839Y-93531289D01*
X156141914Y-93556170D01*
X156166584Y-93586419D01*
X156184909Y-93620883D01*
X156196191Y-93658250D01*
X156200000Y-93697097D01*
X156200000Y-94502903D01*
X156199981Y-94505695D01*
X156195630Y-94544485D01*
X156183827Y-94581691D01*
X156165023Y-94615896D01*
X156139933Y-94645798D01*
X156109513Y-94670256D01*
X156074921Y-94688340D01*
X156037476Y-94699360D01*
X156037446Y-94699363D01*
X156037428Y-94699368D01*
X155998606Y-94702901D01*
X155959833Y-94698826D01*
X155959819Y-94698822D01*
X155959784Y-94698818D01*
X155922497Y-94687276D01*
X155888161Y-94668711D01*
X155858086Y-94643830D01*
X155833416Y-94613581D01*
X155815091Y-94579117D01*
X155803809Y-94541750D01*
X155800000Y-94502903D01*
X155800000Y-93697097D01*
X155800019Y-93694305D01*
X155804370Y-93655515D01*
X155816173Y-93618309D01*
X155834977Y-93584104D01*
X155860067Y-93554202D01*
X155890487Y-93529744D01*
X155925079Y-93511660D01*
X155962524Y-93500640D01*
X155962554Y-93500637D01*
X155962572Y-93500632D01*
X156001394Y-93497099D01*
X156040167Y-93501174D01*
X156040167Y-93501174D01*
G37*
G36*
X156540167Y-93501174D02*
X156540181Y-93501178D01*
X156540216Y-93501182D01*
X156577503Y-93512724D01*
X156611839Y-93531289D01*
X156641914Y-93556170D01*
X156666584Y-93586419D01*
X156684909Y-93620883D01*
X156696191Y-93658250D01*
X156700000Y-93697097D01*
X156700000Y-94502903D01*
X156699981Y-94505695D01*
X156695630Y-94544485D01*
X156683827Y-94581691D01*
X156665023Y-94615896D01*
X156639933Y-94645798D01*
X156609513Y-94670256D01*
X156574921Y-94688340D01*
X156537476Y-94699360D01*
X156537446Y-94699363D01*
X156537428Y-94699368D01*
X156498606Y-94702901D01*
X156459833Y-94698826D01*
X156459819Y-94698822D01*
X156459784Y-94698818D01*
X156422497Y-94687276D01*
X156388161Y-94668711D01*
X156358086Y-94643830D01*
X156333416Y-94613581D01*
X156315091Y-94579117D01*
X156303809Y-94541750D01*
X156300000Y-94502903D01*
X156300000Y-93697097D01*
X156300019Y-93694305D01*
X156304370Y-93655515D01*
X156316173Y-93618309D01*
X156334977Y-93584104D01*
X156360067Y-93554202D01*
X156390487Y-93529744D01*
X156425079Y-93511660D01*
X156462524Y-93500640D01*
X156462554Y-93500637D01*
X156462572Y-93500632D01*
X156501394Y-93497099D01*
X156540167Y-93501174D01*
X156540167Y-93501174D01*
G37*
G36*
X157040167Y-93501174D02*
X157040181Y-93501178D01*
X157040216Y-93501182D01*
X157077503Y-93512724D01*
X157111839Y-93531289D01*
X157141914Y-93556170D01*
X157166584Y-93586419D01*
X157184909Y-93620883D01*
X157196191Y-93658250D01*
X157200000Y-93697097D01*
X157200000Y-94502903D01*
X157199981Y-94505695D01*
X157195630Y-94544485D01*
X157183827Y-94581691D01*
X157165023Y-94615896D01*
X157139933Y-94645798D01*
X157109513Y-94670256D01*
X157074921Y-94688340D01*
X157037476Y-94699360D01*
X157037446Y-94699363D01*
X157037428Y-94699368D01*
X156998606Y-94702901D01*
X156959833Y-94698826D01*
X156959819Y-94698822D01*
X156959784Y-94698818D01*
X156922497Y-94687276D01*
X156888161Y-94668711D01*
X156858086Y-94643830D01*
X156833416Y-94613581D01*
X156815091Y-94579117D01*
X156803809Y-94541750D01*
X156800000Y-94502903D01*
X156800000Y-93697097D01*
X156800019Y-93694305D01*
X156804370Y-93655515D01*
X156816173Y-93618309D01*
X156834977Y-93584104D01*
X156860067Y-93554202D01*
X156890487Y-93529744D01*
X156925079Y-93511660D01*
X156962524Y-93500640D01*
X156962554Y-93500637D01*
X156962572Y-93500632D01*
X157001394Y-93497099D01*
X157040167Y-93501174D01*
X157040167Y-93501174D01*
G37*
G36*
X158040167Y-93501174D02*
X158040181Y-93501178D01*
X158040216Y-93501182D01*
X158077503Y-93512724D01*
X158111839Y-93531289D01*
X158141914Y-93556170D01*
X158166584Y-93586419D01*
X158184909Y-93620883D01*
X158196191Y-93658250D01*
X158200000Y-93697097D01*
X158200000Y-94502903D01*
X158199981Y-94505695D01*
X158195630Y-94544485D01*
X158183827Y-94581691D01*
X158165023Y-94615896D01*
X158139933Y-94645798D01*
X158109513Y-94670256D01*
X158074921Y-94688340D01*
X158037476Y-94699360D01*
X158037446Y-94699363D01*
X158037428Y-94699368D01*
X157998606Y-94702901D01*
X157959833Y-94698826D01*
X157959819Y-94698822D01*
X157959784Y-94698818D01*
X157922497Y-94687276D01*
X157888161Y-94668711D01*
X157858086Y-94643830D01*
X157833416Y-94613581D01*
X157815091Y-94579117D01*
X157803809Y-94541750D01*
X157800000Y-94502903D01*
X157800000Y-93697097D01*
X157800019Y-93694305D01*
X157804370Y-93655515D01*
X157816173Y-93618309D01*
X157834977Y-93584104D01*
X157860067Y-93554202D01*
X157890487Y-93529744D01*
X157925079Y-93511660D01*
X157962524Y-93500640D01*
X157962554Y-93500637D01*
X157962572Y-93500632D01*
X158001394Y-93497099D01*
X158040167Y-93501174D01*
X158040167Y-93501174D01*
G37*
G36*
X158540167Y-93501174D02*
X158540181Y-93501178D01*
X158540216Y-93501182D01*
X158577503Y-93512724D01*
X158611839Y-93531289D01*
X158641914Y-93556170D01*
X158666584Y-93586419D01*
X158684909Y-93620883D01*
X158696191Y-93658250D01*
X158700000Y-93697097D01*
X158700000Y-94502903D01*
X158699981Y-94505695D01*
X158695630Y-94544485D01*
X158683827Y-94581691D01*
X158665023Y-94615896D01*
X158639933Y-94645798D01*
X158609513Y-94670256D01*
X158574921Y-94688340D01*
X158537476Y-94699360D01*
X158537446Y-94699363D01*
X158537428Y-94699368D01*
X158498606Y-94702901D01*
X158459833Y-94698826D01*
X158459819Y-94698822D01*
X158459784Y-94698818D01*
X158422497Y-94687276D01*
X158388161Y-94668711D01*
X158358086Y-94643830D01*
X158333416Y-94613581D01*
X158315091Y-94579117D01*
X158303809Y-94541750D01*
X158300000Y-94502903D01*
X158300000Y-93697097D01*
X158300019Y-93694305D01*
X158304370Y-93655515D01*
X158316173Y-93618309D01*
X158334977Y-93584104D01*
X158360067Y-93554202D01*
X158390487Y-93529744D01*
X158425079Y-93511660D01*
X158462524Y-93500640D01*
X158462554Y-93500637D01*
X158462572Y-93500632D01*
X158501394Y-93497099D01*
X158540167Y-93501174D01*
X158540167Y-93501174D01*
G37*
G36*
X159040167Y-93501174D02*
X159040181Y-93501178D01*
X159040216Y-93501182D01*
X159077503Y-93512724D01*
X159111839Y-93531289D01*
X159141914Y-93556170D01*
X159166584Y-93586419D01*
X159184909Y-93620883D01*
X159196191Y-93658250D01*
X159200000Y-93697097D01*
X159200000Y-94502903D01*
X159199981Y-94505695D01*
X159195630Y-94544485D01*
X159183827Y-94581691D01*
X159165023Y-94615896D01*
X159139933Y-94645798D01*
X159109513Y-94670256D01*
X159074921Y-94688340D01*
X159037476Y-94699360D01*
X159037446Y-94699363D01*
X159037428Y-94699368D01*
X158998606Y-94702901D01*
X158959833Y-94698826D01*
X158959819Y-94698822D01*
X158959784Y-94698818D01*
X158922497Y-94687276D01*
X158888161Y-94668711D01*
X158858086Y-94643830D01*
X158833416Y-94613581D01*
X158815091Y-94579117D01*
X158803809Y-94541750D01*
X158800000Y-94502903D01*
X158800000Y-93697097D01*
X158800019Y-93694305D01*
X158804370Y-93655515D01*
X158816173Y-93618309D01*
X158834977Y-93584104D01*
X158860067Y-93554202D01*
X158890487Y-93529744D01*
X158925079Y-93511660D01*
X158962524Y-93500640D01*
X158962554Y-93500637D01*
X158962572Y-93500632D01*
X159001394Y-93497099D01*
X159040167Y-93501174D01*
X159040167Y-93501174D01*
G37*
G36*
X157540167Y-93501174D02*
X157540181Y-93501178D01*
X157540216Y-93501182D01*
X157577503Y-93512724D01*
X157611839Y-93531289D01*
X157641914Y-93556170D01*
X157666584Y-93586419D01*
X157684909Y-93620883D01*
X157696191Y-93658250D01*
X157700000Y-93697097D01*
X157700000Y-94502903D01*
X157699981Y-94505695D01*
X157695630Y-94544485D01*
X157683827Y-94581691D01*
X157665023Y-94615896D01*
X157639933Y-94645798D01*
X157609513Y-94670256D01*
X157574921Y-94688340D01*
X157537476Y-94699360D01*
X157537446Y-94699363D01*
X157537428Y-94699368D01*
X157498606Y-94702901D01*
X157459833Y-94698826D01*
X157459819Y-94698822D01*
X157459784Y-94698818D01*
X157422497Y-94687276D01*
X157388161Y-94668711D01*
X157358086Y-94643830D01*
X157333416Y-94613581D01*
X157315091Y-94579117D01*
X157303809Y-94541750D01*
X157300000Y-94502903D01*
X157300000Y-93697097D01*
X157300019Y-93694305D01*
X157304370Y-93655515D01*
X157316173Y-93618309D01*
X157334977Y-93584104D01*
X157360067Y-93554202D01*
X157390487Y-93529744D01*
X157425079Y-93511660D01*
X157462524Y-93500640D01*
X157462554Y-93500637D01*
X157462572Y-93500632D01*
X157501394Y-93497099D01*
X157540167Y-93501174D01*
X157540167Y-93501174D01*
G37*
G36*
X159540167Y-93501174D02*
X159540181Y-93501178D01*
X159540216Y-93501182D01*
X159577503Y-93512724D01*
X159611839Y-93531289D01*
X159641914Y-93556170D01*
X159666584Y-93586419D01*
X159684909Y-93620883D01*
X159696191Y-93658250D01*
X159700000Y-93697097D01*
X159700000Y-94502903D01*
X159699981Y-94505695D01*
X159695630Y-94544485D01*
X159683827Y-94581691D01*
X159665023Y-94615896D01*
X159639933Y-94645798D01*
X159609513Y-94670256D01*
X159574921Y-94688340D01*
X159537476Y-94699360D01*
X159537446Y-94699363D01*
X159537428Y-94699368D01*
X159498606Y-94702901D01*
X159459833Y-94698826D01*
X159459819Y-94698822D01*
X159459784Y-94698818D01*
X159422497Y-94687276D01*
X159388161Y-94668711D01*
X159358086Y-94643830D01*
X159333416Y-94613581D01*
X159315091Y-94579117D01*
X159303809Y-94541750D01*
X159300000Y-94502903D01*
X159300000Y-93697097D01*
X159300019Y-93694305D01*
X159304370Y-93655515D01*
X159316173Y-93618309D01*
X159334977Y-93584104D01*
X159360067Y-93554202D01*
X159390487Y-93529744D01*
X159425079Y-93511660D01*
X159462524Y-93500640D01*
X159462554Y-93500637D01*
X159462572Y-93500632D01*
X159501394Y-93497099D01*
X159540167Y-93501174D01*
X159540167Y-93501174D01*
G37*
G36*
X146035000Y-94485000D02*
X145165000Y-94485000D01*
X145165000Y-93615000D01*
X146035000Y-93615000D01*
X146035000Y-94485000D01*
X146035000Y-94485000D01*
G37*
G36*
X168320000Y-94175000D02*
X167520000Y-94175000D01*
X167520000Y-93035000D01*
X168320000Y-93035000D01*
X168320000Y-94175000D01*
X168320000Y-94175000D01*
G37*
G36*
X166900000Y-94175000D02*
X166100000Y-94175000D01*
X166100000Y-93035000D01*
X166900000Y-93035000D01*
X166900000Y-94175000D01*
X166900000Y-94175000D01*
G37*
G36*
X154075000Y-93105000D02*
X152925000Y-93105000D01*
X152925000Y-92055000D01*
X154075000Y-92055000D01*
X154075000Y-93105000D01*
X154075000Y-93105000D01*
G37*
G36*
X176450000Y-92650000D02*
X174950000Y-92650000D01*
X174950000Y-90950000D01*
X176450000Y-90950000D01*
X176450000Y-92650000D01*
X176450000Y-92650000D01*
G37*
G36*
X178450000Y-92650000D02*
X176950000Y-92650000D01*
X176950000Y-90950000D01*
X178450000Y-90950000D01*
X178450000Y-92650000D01*
X178450000Y-92650000D01*
G37*
G36*
X154075000Y-91445000D02*
X152925000Y-91445000D01*
X152925000Y-90395000D01*
X154075000Y-90395000D01*
X154075000Y-91445000D01*
X154075000Y-91445000D01*
G37*
G36*
X175205000Y-85275050D02*
X175206978Y-85288966D01*
X175212754Y-85301780D01*
X175221871Y-85312477D01*
X175233607Y-85320211D01*
X175247034Y-85324369D01*
X175254950Y-85325000D01*
X178425000Y-85325000D01*
X178425000Y-89675000D01*
X175254950Y-89675000D01*
X175241034Y-89676978D01*
X175228220Y-89682754D01*
X175217523Y-89691871D01*
X175209789Y-89703607D01*
X175205631Y-89717034D01*
X175205000Y-89724950D01*
X175205000Y-89925000D01*
X173555000Y-89925000D01*
X173555000Y-85075000D01*
X175205000Y-85075000D01*
X175205000Y-85275050D01*
X175205000Y-85275050D01*
G37*
G36*
X180525000Y-89830000D02*
X179225000Y-89830000D01*
X179225000Y-88980000D01*
X180525000Y-88980000D01*
X180525000Y-89830000D01*
X180525000Y-89830000D01*
G37*
G36*
X180525000Y-88560000D02*
X179225000Y-88560000D01*
X179225000Y-87710000D01*
X180525000Y-87710000D01*
X180525000Y-88560000D01*
X180525000Y-88560000D01*
G37*
G36*
X180525000Y-87290000D02*
X179225000Y-87290000D01*
X179225000Y-86440000D01*
X180525000Y-86440000D01*
X180525000Y-87290000D01*
X180525000Y-87290000D01*
G37*
G36*
X183857661Y-84475681D02*
X184054570Y-84516101D01*
X184239875Y-84593996D01*
X184406523Y-84706401D01*
X184548163Y-84849034D01*
X184659401Y-85016461D01*
X184736002Y-85202308D01*
X184774978Y-85399150D01*
X184774978Y-85399160D01*
X184775044Y-85399494D01*
X184771838Y-85629088D01*
X184771762Y-85629422D01*
X184771762Y-85629430D01*
X184727305Y-85825107D01*
X184645546Y-86008743D01*
X184529675Y-86173000D01*
X184384108Y-86311621D01*
X184214390Y-86419327D01*
X184026975Y-86492021D01*
X183829018Y-86526926D01*
X183628050Y-86522717D01*
X183431721Y-86479551D01*
X183247524Y-86399077D01*
X183082463Y-86284356D01*
X182942825Y-86139757D01*
X182833935Y-85970794D01*
X182759937Y-85783895D01*
X182723650Y-85586187D01*
X182726458Y-85385195D01*
X182768251Y-85188569D01*
X182847438Y-85003810D01*
X182961002Y-84837954D01*
X183104622Y-84697311D01*
X183272822Y-84587244D01*
X183459200Y-84511943D01*
X183656650Y-84474277D01*
X183857661Y-84475681D01*
X183857661Y-84475681D01*
G37*
G36*
X160295000Y-86275000D02*
X159245000Y-86275000D01*
X159245000Y-85125000D01*
X160295000Y-85125000D01*
X160295000Y-86275000D01*
X160295000Y-86275000D01*
G37*
G36*
X161955000Y-86275000D02*
X160905000Y-86275000D01*
X160905000Y-85125000D01*
X161955000Y-85125000D01*
X161955000Y-86275000D01*
X161955000Y-86275000D01*
G37*
G36*
X180525000Y-86020000D02*
X179225000Y-86020000D01*
X179225000Y-85170000D01*
X180525000Y-85170000D01*
X180525000Y-86020000D01*
X180525000Y-86020000D01*
G37*
G36*
X154026653Y-82995547D02*
X154185143Y-83028081D01*
X154334290Y-83090776D01*
X154468422Y-83181249D01*
X154582425Y-83296051D01*
X154671957Y-83430809D01*
X154733612Y-83580394D01*
X154764970Y-83738761D01*
X154764970Y-83738771D01*
X154765036Y-83739105D01*
X154762455Y-83923900D01*
X154762379Y-83924234D01*
X154762379Y-83924243D01*
X154726614Y-84081670D01*
X154660804Y-84229479D01*
X154567544Y-84361684D01*
X154450383Y-84473254D01*
X154313776Y-84559948D01*
X154162931Y-84618457D01*
X154003600Y-84646551D01*
X153841845Y-84643163D01*
X153683825Y-84608420D01*
X153535566Y-84543647D01*
X153402713Y-84451312D01*
X153290321Y-84334927D01*
X153202679Y-84198932D01*
X153143119Y-84048501D01*
X153113912Y-83889369D01*
X153116172Y-83727591D01*
X153149809Y-83569339D01*
X153213547Y-83420627D01*
X153304952Y-83287133D01*
X153420549Y-83173933D01*
X153555928Y-83085343D01*
X153705943Y-83024734D01*
X153864864Y-82994417D01*
X154026653Y-82995547D01*
X154026653Y-82995547D01*
G37*
G36*
X146406653Y-82995547D02*
X146565143Y-83028081D01*
X146714290Y-83090776D01*
X146848422Y-83181249D01*
X146962425Y-83296051D01*
X147051957Y-83430809D01*
X147113612Y-83580394D01*
X147144970Y-83738761D01*
X147144970Y-83738771D01*
X147145036Y-83739105D01*
X147142455Y-83923900D01*
X147142379Y-83924234D01*
X147142379Y-83924243D01*
X147106614Y-84081670D01*
X147040804Y-84229479D01*
X146947544Y-84361684D01*
X146830383Y-84473254D01*
X146693776Y-84559948D01*
X146542931Y-84618457D01*
X146383600Y-84646551D01*
X146221845Y-84643163D01*
X146063825Y-84608420D01*
X145915566Y-84543647D01*
X145782713Y-84451312D01*
X145670321Y-84334927D01*
X145582679Y-84198932D01*
X145523119Y-84048501D01*
X145493912Y-83889369D01*
X145496172Y-83727591D01*
X145529809Y-83569339D01*
X145593547Y-83420627D01*
X145684952Y-83287133D01*
X145800549Y-83173933D01*
X145935928Y-83085343D01*
X146085943Y-83024734D01*
X146244864Y-82994417D01*
X146406653Y-82995547D01*
X146406653Y-82995547D01*
G37*
G36*
X151486653Y-82995547D02*
X151645143Y-83028081D01*
X151794290Y-83090776D01*
X151928422Y-83181249D01*
X152042425Y-83296051D01*
X152131957Y-83430809D01*
X152193612Y-83580394D01*
X152224970Y-83738761D01*
X152224970Y-83738771D01*
X152225036Y-83739105D01*
X152222455Y-83923900D01*
X152222379Y-83924234D01*
X152222379Y-83924243D01*
X152186614Y-84081670D01*
X152120804Y-84229479D01*
X152027544Y-84361684D01*
X151910383Y-84473254D01*
X151773776Y-84559948D01*
X151622931Y-84618457D01*
X151463600Y-84646551D01*
X151301845Y-84643163D01*
X151143825Y-84608420D01*
X150995566Y-84543647D01*
X150862713Y-84451312D01*
X150750321Y-84334927D01*
X150662679Y-84198932D01*
X150603119Y-84048501D01*
X150573912Y-83889369D01*
X150576172Y-83727591D01*
X150609809Y-83569339D01*
X150673547Y-83420627D01*
X150764952Y-83287133D01*
X150880549Y-83173933D01*
X151015928Y-83085343D01*
X151165943Y-83024734D01*
X151324864Y-82994417D01*
X151486653Y-82995547D01*
X151486653Y-82995547D01*
G37*
G36*
X148946653Y-82995547D02*
X149105143Y-83028081D01*
X149254290Y-83090776D01*
X149388422Y-83181249D01*
X149502425Y-83296051D01*
X149591957Y-83430809D01*
X149653612Y-83580394D01*
X149684970Y-83738761D01*
X149684970Y-83738771D01*
X149685036Y-83739105D01*
X149682455Y-83923900D01*
X149682379Y-83924234D01*
X149682379Y-83924243D01*
X149646614Y-84081670D01*
X149580804Y-84229479D01*
X149487544Y-84361684D01*
X149370383Y-84473254D01*
X149233776Y-84559948D01*
X149082931Y-84618457D01*
X148923600Y-84646551D01*
X148761845Y-84643163D01*
X148603825Y-84608420D01*
X148455566Y-84543647D01*
X148322713Y-84451312D01*
X148210321Y-84334927D01*
X148122679Y-84198932D01*
X148063119Y-84048501D01*
X148033912Y-83889369D01*
X148036172Y-83727591D01*
X148069809Y-83569339D01*
X148133547Y-83420627D01*
X148224952Y-83287133D01*
X148340549Y-83173933D01*
X148475928Y-83085343D01*
X148625943Y-83024734D01*
X148784864Y-82994417D01*
X148946653Y-82995547D01*
X148946653Y-82995547D01*
G37*
G36*
X144605000Y-84645000D02*
X142955000Y-84645000D01*
X142955000Y-82995000D01*
X144605000Y-82995000D01*
X144605000Y-84645000D01*
X144605000Y-84645000D01*
G37*
G36*
X161575000Y-84075000D02*
X160825000Y-84075000D01*
X160825000Y-83125000D01*
X161575000Y-83125000D01*
X161575000Y-84075000D01*
X161575000Y-84075000D01*
G37*
G36*
X163190000Y-83970000D02*
X162390000Y-83970000D01*
X162390000Y-82830000D01*
X163190000Y-82830000D01*
X163190000Y-83970000D01*
X163190000Y-83970000D01*
G37*
G36*
X164610000Y-83970000D02*
X163810000Y-83970000D01*
X163810000Y-82830000D01*
X164610000Y-82830000D01*
X164610000Y-83970000D01*
X164610000Y-83970000D01*
G37*
G36*
X176000000Y-82850000D02*
X174500000Y-82850000D01*
X174500000Y-81150000D01*
X176000000Y-81150000D01*
X176000000Y-82850000D01*
X176000000Y-82850000D01*
G37*
G36*
X178000000Y-82850000D02*
X176500000Y-82850000D01*
X176500000Y-81150000D01*
X178000000Y-81150000D01*
X178000000Y-82850000D01*
X178000000Y-82850000D01*
G37*
G36*
X138399674Y-79575947D02*
X138673426Y-79632140D01*
X138931045Y-79740433D01*
X139162727Y-79896704D01*
X139359641Y-80094999D01*
X139514290Y-80327764D01*
X139620783Y-80586134D01*
X139674996Y-80859928D01*
X139674996Y-80859943D01*
X139675061Y-80860272D01*
X139670604Y-81179464D01*
X139670528Y-81179798D01*
X139670528Y-81179807D01*
X139608694Y-81451975D01*
X139495025Y-81707278D01*
X139333939Y-81935633D01*
X139131567Y-82128348D01*
X138895612Y-82278091D01*
X138635064Y-82379151D01*
X138359854Y-82427677D01*
X138080459Y-82421825D01*
X137807516Y-82361814D01*
X137551435Y-82249935D01*
X137321960Y-82090446D01*
X137127830Y-81889419D01*
X136976448Y-81654518D01*
X136873572Y-81394684D01*
X136823124Y-81119819D01*
X136827026Y-80840386D01*
X136885128Y-80567040D01*
X136995219Y-80310176D01*
X137153101Y-80079595D01*
X137352768Y-79884067D01*
X137586605Y-79731048D01*
X137845718Y-79626360D01*
X138120222Y-79573996D01*
X138399674Y-79575947D01*
X138399674Y-79575947D01*
G37*
G36*
X182399674Y-79575947D02*
X182673426Y-79632140D01*
X182931045Y-79740433D01*
X183162727Y-79896704D01*
X183359641Y-80094999D01*
X183514290Y-80327764D01*
X183620783Y-80586134D01*
X183674996Y-80859928D01*
X183674996Y-80859943D01*
X183675061Y-80860272D01*
X183670604Y-81179464D01*
X183670528Y-81179798D01*
X183670528Y-81179807D01*
X183608694Y-81451975D01*
X183495025Y-81707278D01*
X183333939Y-81935633D01*
X183131567Y-82128348D01*
X182895612Y-82278091D01*
X182635064Y-82379151D01*
X182359854Y-82427677D01*
X182080459Y-82421825D01*
X181807516Y-82361814D01*
X181551435Y-82249935D01*
X181321960Y-82090446D01*
X181127830Y-81889419D01*
X180976448Y-81654518D01*
X180873572Y-81394684D01*
X180823124Y-81119819D01*
X180827026Y-80840386D01*
X180885128Y-80567040D01*
X180995219Y-80310176D01*
X181153101Y-80079595D01*
X181352768Y-79884067D01*
X181586605Y-79731048D01*
X181845718Y-79626360D01*
X182120222Y-79573996D01*
X182399674Y-79575947D01*
X182399674Y-79575947D01*
G37*
G36*
X164610000Y-82270000D02*
X163810000Y-82270000D01*
X163810000Y-81130000D01*
X164610000Y-81130000D01*
X164610000Y-82270000D01*
X164610000Y-82270000D01*
G37*
G36*
X163190000Y-82270000D02*
X162390000Y-82270000D01*
X162390000Y-81130000D01*
X163190000Y-81130000D01*
X163190000Y-82270000D01*
X163190000Y-82270000D01*
G37*
G36*
X156566653Y-80455547D02*
X156725143Y-80488081D01*
X156874290Y-80550776D01*
X157008422Y-80641249D01*
X157122425Y-80756051D01*
X157211957Y-80890809D01*
X157273612Y-81040394D01*
X157304970Y-81198761D01*
X157304970Y-81198771D01*
X157305036Y-81199105D01*
X157302455Y-81383900D01*
X157302379Y-81384234D01*
X157302379Y-81384243D01*
X157266614Y-81541670D01*
X157200804Y-81689479D01*
X157107544Y-81821684D01*
X156990383Y-81933254D01*
X156853776Y-82019948D01*
X156702931Y-82078457D01*
X156543600Y-82106551D01*
X156381845Y-82103163D01*
X156223825Y-82068420D01*
X156075566Y-82003647D01*
X155942713Y-81911312D01*
X155830321Y-81794927D01*
X155742679Y-81658932D01*
X155683119Y-81508501D01*
X155653912Y-81349369D01*
X155656172Y-81187591D01*
X155689809Y-81029339D01*
X155753547Y-80880627D01*
X155844952Y-80747133D01*
X155960549Y-80633933D01*
X156095928Y-80545343D01*
X156245943Y-80484734D01*
X156404864Y-80454417D01*
X156566653Y-80455547D01*
X156566653Y-80455547D01*
G37*
G36*
X154026653Y-80455547D02*
X154185143Y-80488081D01*
X154334290Y-80550776D01*
X154468422Y-80641249D01*
X154582425Y-80756051D01*
X154671957Y-80890809D01*
X154733612Y-81040394D01*
X154764970Y-81198761D01*
X154764970Y-81198771D01*
X154765036Y-81199105D01*
X154762455Y-81383900D01*
X154762379Y-81384234D01*
X154762379Y-81384243D01*
X154726614Y-81541670D01*
X154660804Y-81689479D01*
X154567544Y-81821684D01*
X154450383Y-81933254D01*
X154313776Y-82019948D01*
X154162931Y-82078457D01*
X154003600Y-82106551D01*
X153841845Y-82103163D01*
X153683825Y-82068420D01*
X153535566Y-82003647D01*
X153402713Y-81911312D01*
X153290321Y-81794927D01*
X153202679Y-81658932D01*
X153143119Y-81508501D01*
X153113912Y-81349369D01*
X153116172Y-81187591D01*
X153149809Y-81029339D01*
X153213547Y-80880627D01*
X153304952Y-80747133D01*
X153420549Y-80633933D01*
X153555928Y-80545343D01*
X153705943Y-80484734D01*
X153864864Y-80454417D01*
X154026653Y-80455547D01*
X154026653Y-80455547D01*
G37*
G36*
X151486653Y-80455547D02*
X151645143Y-80488081D01*
X151794290Y-80550776D01*
X151928422Y-80641249D01*
X152042425Y-80756051D01*
X152131957Y-80890809D01*
X152193612Y-81040394D01*
X152224970Y-81198761D01*
X152224970Y-81198771D01*
X152225036Y-81199105D01*
X152222455Y-81383900D01*
X152222379Y-81384234D01*
X152222379Y-81384243D01*
X152186614Y-81541670D01*
X152120804Y-81689479D01*
X152027544Y-81821684D01*
X151910383Y-81933254D01*
X151773776Y-82019948D01*
X151622931Y-82078457D01*
X151463600Y-82106551D01*
X151301845Y-82103163D01*
X151143825Y-82068420D01*
X150995566Y-82003647D01*
X150862713Y-81911312D01*
X150750321Y-81794927D01*
X150662679Y-81658932D01*
X150603119Y-81508501D01*
X150573912Y-81349369D01*
X150576172Y-81187591D01*
X150609809Y-81029339D01*
X150673547Y-80880627D01*
X150764952Y-80747133D01*
X150880549Y-80633933D01*
X151015928Y-80545343D01*
X151165943Y-80484734D01*
X151324864Y-80454417D01*
X151486653Y-80455547D01*
X151486653Y-80455547D01*
G37*
G36*
X146406653Y-80455547D02*
X146565143Y-80488081D01*
X146714290Y-80550776D01*
X146848422Y-80641249D01*
X146962425Y-80756051D01*
X147051957Y-80890809D01*
X147113612Y-81040394D01*
X147144970Y-81198761D01*
X147144970Y-81198771D01*
X147145036Y-81199105D01*
X147142455Y-81383900D01*
X147142379Y-81384234D01*
X147142379Y-81384243D01*
X147106614Y-81541670D01*
X147040804Y-81689479D01*
X146947544Y-81821684D01*
X146830383Y-81933254D01*
X146693776Y-82019948D01*
X146542931Y-82078457D01*
X146383600Y-82106551D01*
X146221845Y-82103163D01*
X146063825Y-82068420D01*
X145915566Y-82003647D01*
X145782713Y-81911312D01*
X145670321Y-81794927D01*
X145582679Y-81658932D01*
X145523119Y-81508501D01*
X145493912Y-81349369D01*
X145496172Y-81187591D01*
X145529809Y-81029339D01*
X145593547Y-80880627D01*
X145684952Y-80747133D01*
X145800549Y-80633933D01*
X145935928Y-80545343D01*
X146085943Y-80484734D01*
X146244864Y-80454417D01*
X146406653Y-80455547D01*
X146406653Y-80455547D01*
G37*
G36*
X148946653Y-80455547D02*
X149105143Y-80488081D01*
X149254290Y-80550776D01*
X149388422Y-80641249D01*
X149502425Y-80756051D01*
X149591957Y-80890809D01*
X149653612Y-81040394D01*
X149684970Y-81198761D01*
X149684970Y-81198771D01*
X149685036Y-81199105D01*
X149682455Y-81383900D01*
X149682379Y-81384234D01*
X149682379Y-81384243D01*
X149646614Y-81541670D01*
X149580804Y-81689479D01*
X149487544Y-81821684D01*
X149370383Y-81933254D01*
X149233776Y-82019948D01*
X149082931Y-82078457D01*
X148923600Y-82106551D01*
X148761845Y-82103163D01*
X148603825Y-82068420D01*
X148455566Y-82003647D01*
X148322713Y-81911312D01*
X148210321Y-81794927D01*
X148122679Y-81658932D01*
X148063119Y-81508501D01*
X148033912Y-81349369D01*
X148036172Y-81187591D01*
X148069809Y-81029339D01*
X148133547Y-80880627D01*
X148224952Y-80747133D01*
X148340549Y-80633933D01*
X148475928Y-80545343D01*
X148625943Y-80484734D01*
X148784864Y-80454417D01*
X148946653Y-80455547D01*
X148946653Y-80455547D01*
G37*
G36*
X144605000Y-82105000D02*
X142955000Y-82105000D01*
X142955000Y-80455000D01*
X144605000Y-80455000D01*
X144605000Y-82105000D01*
X144605000Y-82105000D01*
G37*
G36*
X173357661Y-79975681D02*
X173554570Y-80016101D01*
X173739875Y-80093996D01*
X173906523Y-80206401D01*
X174048163Y-80349034D01*
X174159401Y-80516461D01*
X174236002Y-80702308D01*
X174274978Y-80899150D01*
X174274978Y-80899160D01*
X174275044Y-80899494D01*
X174271838Y-81129088D01*
X174271762Y-81129422D01*
X174271762Y-81129430D01*
X174227305Y-81325107D01*
X174145546Y-81508743D01*
X174029675Y-81673000D01*
X173884108Y-81811621D01*
X173714390Y-81919327D01*
X173526975Y-81992021D01*
X173329018Y-82026926D01*
X173128050Y-82022717D01*
X172931721Y-81979551D01*
X172747524Y-81899077D01*
X172582463Y-81784356D01*
X172442825Y-81639757D01*
X172333935Y-81470794D01*
X172259937Y-81283895D01*
X172223650Y-81086187D01*
X172226458Y-80885195D01*
X172268251Y-80688569D01*
X172347438Y-80503810D01*
X172461002Y-80337954D01*
X172604622Y-80197311D01*
X172772822Y-80087244D01*
X172959200Y-80011943D01*
X173156650Y-79974277D01*
X173357661Y-79975681D01*
X173357661Y-79975681D01*
G37*
G36*
X161575000Y-81675000D02*
X160825000Y-81675000D01*
X160825000Y-80725000D01*
X161575000Y-80725000D01*
X161575000Y-81675000D01*
X161575000Y-81675000D01*
G37*
G36*
X165607661Y-78475681D02*
X165804570Y-78516101D01*
X165989875Y-78593996D01*
X166156523Y-78706401D01*
X166298163Y-78849034D01*
X166409401Y-79016461D01*
X166486002Y-79202308D01*
X166524978Y-79399150D01*
X166524978Y-79399160D01*
X166525044Y-79399494D01*
X166521838Y-79629088D01*
X166521762Y-79629422D01*
X166521762Y-79629430D01*
X166477305Y-79825107D01*
X166395546Y-80008743D01*
X166279675Y-80173000D01*
X166134108Y-80311621D01*
X165964390Y-80419327D01*
X165776975Y-80492021D01*
X165579018Y-80526926D01*
X165378050Y-80522717D01*
X165181721Y-80479551D01*
X164997524Y-80399077D01*
X164832463Y-80284356D01*
X164692825Y-80139757D01*
X164583935Y-79970794D01*
X164509937Y-79783895D01*
X164473650Y-79586187D01*
X164476458Y-79385195D01*
X164518251Y-79188569D01*
X164597438Y-79003810D01*
X164711002Y-78837954D01*
X164854622Y-78697311D01*
X165022822Y-78587244D01*
X165209200Y-78511943D01*
X165406650Y-78474277D01*
X165607661Y-78475681D01*
X165607661Y-78475681D01*
G37*
G36*
X167576150Y-78525481D02*
X167715429Y-78554071D01*
X167846498Y-78609167D01*
X167964371Y-78688673D01*
X168064555Y-78789560D01*
X168143235Y-78907983D01*
X168197417Y-79039437D01*
X168224966Y-79178566D01*
X168224966Y-79178581D01*
X168225031Y-79178910D01*
X168222763Y-79341306D01*
X168222688Y-79341635D01*
X168222688Y-79341648D01*
X168191266Y-79479954D01*
X168133436Y-79609844D01*
X168051480Y-79726023D01*
X167948516Y-79824074D01*
X167828470Y-79900258D01*
X167695909Y-79951675D01*
X167555891Y-79976363D01*
X167413743Y-79973386D01*
X167274876Y-79942854D01*
X167144592Y-79885934D01*
X167027836Y-79804787D01*
X166929070Y-79702512D01*
X166852051Y-79583002D01*
X166799711Y-79450804D01*
X166774044Y-79310961D01*
X166776030Y-79168792D01*
X166805589Y-79029723D01*
X166861602Y-78899035D01*
X166941927Y-78781724D01*
X167043513Y-78682244D01*
X167162481Y-78604392D01*
X167294314Y-78551129D01*
X167433971Y-78524488D01*
X167576150Y-78525481D01*
X167576150Y-78525481D01*
G37*
G36*
X172576150Y-78525481D02*
X172715429Y-78554071D01*
X172846498Y-78609167D01*
X172964371Y-78688673D01*
X173064555Y-78789560D01*
X173143235Y-78907983D01*
X173197417Y-79039437D01*
X173224966Y-79178566D01*
X173224966Y-79178581D01*
X173225031Y-79178910D01*
X173222763Y-79341306D01*
X173222688Y-79341635D01*
X173222688Y-79341648D01*
X173191266Y-79479954D01*
X173133436Y-79609844D01*
X173051480Y-79726023D01*
X172948516Y-79824074D01*
X172828470Y-79900258D01*
X172695909Y-79951675D01*
X172555891Y-79976363D01*
X172413743Y-79973386D01*
X172274876Y-79942854D01*
X172144592Y-79885934D01*
X172027836Y-79804787D01*
X171929070Y-79702512D01*
X171852051Y-79583002D01*
X171799711Y-79450804D01*
X171774044Y-79310961D01*
X171776030Y-79168792D01*
X171805589Y-79029723D01*
X171861602Y-78899035D01*
X171941927Y-78781724D01*
X172043513Y-78682244D01*
X172162481Y-78604392D01*
X172294314Y-78551129D01*
X172433971Y-78524488D01*
X172576150Y-78525481D01*
X172576150Y-78525481D01*
G37*
M02*
