G04 #@! TF.FileFunction,Paste,Bot*
%FSLAX46Y46*%
G04 Gerber Fmt 4.6, Leading zero omitted, Abs format (unit mm)*
G04 Created by KiCad (PCBNEW 4.0.6-e0-6349~53~ubuntu16.04.1) date Tue Mar 14 23:45:42 2017*
%MOMM*%
%LPD*%
G01*
G04 APERTURE LIST*
%ADD10C,0.150000*%
%ADD11R,0.500000X0.700000*%
%ADD12R,0.550000X0.890000*%
%ADD13R,3.350000X1.400000*%
%ADD14R,0.890000X0.550000*%
%ADD15R,0.800000X0.900000*%
%ADD16R,0.500000X0.800000*%
%ADD17R,0.800000X0.500000*%
%ADD18R,1.050000X0.600000*%
G04 APERTURE END LIST*
D10*
X135250000Y-116000000D02*
X135250000Y-78000000D01*
X185250000Y-116000000D02*
X135250000Y-116005000D01*
X185250000Y-78000000D02*
X185250000Y-116000000D01*
X135250000Y-78000000D02*
X185250000Y-78000000D01*
D11*
X158850000Y-82105000D03*
X158850000Y-79705000D03*
D12*
X164210000Y-109000000D03*
X162790000Y-109000000D03*
D13*
X169250000Y-105355000D03*
X169250000Y-111155000D03*
D11*
X158175000Y-90350000D03*
X158175000Y-87950000D03*
X158100000Y-104000000D03*
X158100000Y-101600000D03*
D13*
X169000000Y-93705000D03*
X169000000Y-99505000D03*
X169000000Y-89700000D03*
X169000000Y-83900000D03*
D12*
X162610000Y-81100000D03*
X161190000Y-81100000D03*
X162610000Y-82800000D03*
X161190000Y-82800000D03*
X161235000Y-89700000D03*
X159815000Y-89700000D03*
X161685000Y-91375000D03*
X160265000Y-91375000D03*
X161210000Y-101300000D03*
X159790000Y-101300000D03*
X161220000Y-103000000D03*
X159800000Y-103000000D03*
X163910000Y-88000000D03*
X162490000Y-88000000D03*
X164610000Y-98605000D03*
X163190000Y-98605000D03*
X162790000Y-107605000D03*
X164210000Y-107605000D03*
X163190000Y-96905000D03*
X164610000Y-96905000D03*
X162690000Y-86400000D03*
X164110000Y-86400000D03*
D14*
X158000000Y-109210000D03*
X158000000Y-107790000D03*
X161650000Y-94090000D03*
X161650000Y-95510000D03*
X158125000Y-84090000D03*
X158125000Y-85510000D03*
X156300000Y-107790000D03*
X156300000Y-109210000D03*
X160000000Y-95510000D03*
X160000000Y-94090000D03*
X156400000Y-85500000D03*
X156400000Y-84080000D03*
D12*
X159890000Y-110650000D03*
X161310000Y-110650000D03*
X160290000Y-98500000D03*
X161710000Y-98500000D03*
X159815000Y-88025000D03*
X161235000Y-88025000D03*
D14*
X153550000Y-92810000D03*
X153550000Y-91390000D03*
D15*
X159740000Y-108950000D03*
X161400000Y-108950000D03*
X160170000Y-96850000D03*
X161830000Y-96850000D03*
X159670000Y-86400000D03*
X161330000Y-86400000D03*
D12*
X164210000Y-105905000D03*
X162790000Y-105905000D03*
X164550000Y-94300000D03*
X163130000Y-94300000D03*
X161085000Y-84750000D03*
X159665000Y-84750000D03*
D15*
X142770000Y-87900000D03*
X144430000Y-87900000D03*
X148430000Y-87900000D03*
X146770000Y-87900000D03*
X152430000Y-87900000D03*
X150770000Y-87900000D03*
D12*
X145640000Y-91305000D03*
X147060000Y-91305000D03*
X142880000Y-86200000D03*
X144300000Y-86200000D03*
X148310000Y-86200000D03*
X146890000Y-86200000D03*
X152210000Y-86200000D03*
X150790000Y-86200000D03*
X144310000Y-89600000D03*
X142890000Y-89600000D03*
X146890000Y-89600000D03*
X148310000Y-89600000D03*
X150890000Y-89600000D03*
X152310000Y-89600000D03*
D14*
X153250000Y-95610000D03*
X153250000Y-94190000D03*
D15*
X148470000Y-91305000D03*
X150130000Y-91305000D03*
D16*
X177300000Y-88650000D03*
X176450000Y-88650000D03*
X178150000Y-88650000D03*
X177300000Y-86350000D03*
X176450000Y-86350000D03*
X178150000Y-86350000D03*
X178150000Y-87500000D03*
X176450000Y-87500000D03*
D17*
X180000000Y-89375000D03*
X180000000Y-85625000D03*
X180000000Y-88100000D03*
D18*
X174275000Y-88135000D03*
X174275000Y-89405000D03*
X174275000Y-86865000D03*
X174275000Y-85595000D03*
D17*
X180000000Y-86900000D03*
D16*
X177300000Y-87500000D03*
X177300000Y-97645000D03*
X176450000Y-97645000D03*
X178150000Y-97645000D03*
X177300000Y-95345000D03*
X176450000Y-95345000D03*
X178150000Y-95345000D03*
X178150000Y-96495000D03*
X176450000Y-96495000D03*
D17*
X180000000Y-98370000D03*
X180000000Y-94620000D03*
X180000000Y-97095000D03*
D18*
X174275000Y-97130000D03*
X174275000Y-98400000D03*
X174275000Y-95860000D03*
X174275000Y-94590000D03*
D17*
X180000000Y-95895000D03*
D16*
X177300000Y-96495000D03*
X177300000Y-106555000D03*
X176450000Y-106555000D03*
X178150000Y-106555000D03*
X177300000Y-104255000D03*
X176450000Y-104255000D03*
X178150000Y-104255000D03*
X178150000Y-105405000D03*
X176450000Y-105405000D03*
D17*
X180000000Y-107280000D03*
X180000000Y-103530000D03*
X180000000Y-106005000D03*
D18*
X174275000Y-106040000D03*
X174275000Y-107310000D03*
X174275000Y-104770000D03*
X174275000Y-103500000D03*
D17*
X180000000Y-104805000D03*
D16*
X177300000Y-105405000D03*
M02*
