G04 #@! TF.FileFunction,Copper,L3,Inr,Plane*
%FSLAX46Y46*%
G04 Gerber Fmt 4.6, Leading zero omitted, Abs format (unit mm)*
G04 Created by KiCad (PCBNEW 4.0.6-e0-6349~53~ubuntu16.04.1) date Tue Mar  7 23:33:07 2017*
%MOMM*%
%LPD*%
G01*
G04 APERTURE LIST*
%ADD10C,0.100000*%
%ADD11C,0.150000*%
%ADD12C,0.300000*%
%ADD13C,0.400000*%
%ADD14C,0.250000*%
%ADD15C,0.800000*%
%ADD16C,6.000000*%
%ADD17R,1.500000X1.500000*%
%ADD18C,1.500000*%
%ADD19C,1.200000*%
%ADD20C,0.254000*%
G04 APERTURE END LIST*
D10*
D11*
X177002200Y-166007200D02*
X177002200Y-198007200D01*
X285002200Y-198007200D01*
X285002200Y-166007200D01*
X177002200Y-166007200D01*
D10*
D11*
X10000000Y-10000000D02*
X10000000Y-200007200D01*
X287002200Y-200007200D01*
X287002200Y-10000000D01*
X10000000Y-10000000D01*
D10*
D11*
X12000000Y-12000000D02*
X12000000Y-198007200D01*
X285002200Y-198007200D01*
X285002200Y-12000000D01*
X12000000Y-12000000D01*
D10*
D11*
X60000000Y-12000000D02*
X60000000Y-10000000D01*
D10*
D11*
X110000000Y-12000000D02*
X110000000Y-10000000D01*
D10*
D11*
X160000000Y-12000000D02*
X160000000Y-10000000D01*
D10*
D11*
X210000000Y-12000000D02*
X210000000Y-10000000D01*
D10*
D11*
X260000000Y-12000000D02*
X260000000Y-10000000D01*
D10*
D11*
X35990476Y-11588095D02*
X35247619Y-11588095D01*
X35619048Y-11588095D02*
X35619048Y-10288095D01*
X35495238Y-10473810D01*
X35371429Y-10597619D01*
X35247619Y-10659524D01*
D10*
D11*
X85247619Y-10411905D02*
X85309524Y-10350000D01*
X85433333Y-10288095D01*
X85742857Y-10288095D01*
X85866667Y-10350000D01*
X85928571Y-10411905D01*
X85990476Y-10535714D01*
X85990476Y-10659524D01*
X85928571Y-10845238D01*
X85185714Y-11588095D01*
X85990476Y-11588095D01*
D10*
D11*
X135185714Y-10288095D02*
X135990476Y-10288095D01*
X135557143Y-10783333D01*
X135742857Y-10783333D01*
X135866667Y-10845238D01*
X135928571Y-10907143D01*
X135990476Y-11030952D01*
X135990476Y-11340476D01*
X135928571Y-11464286D01*
X135866667Y-11526190D01*
X135742857Y-11588095D01*
X135371429Y-11588095D01*
X135247619Y-11526190D01*
X135185714Y-11464286D01*
D10*
D11*
X185866667Y-10721429D02*
X185866667Y-11588095D01*
X185557143Y-10226190D02*
X185247619Y-11154762D01*
X186052381Y-11154762D01*
D10*
D11*
X235928571Y-10288095D02*
X235309524Y-10288095D01*
X235247619Y-10907143D01*
X235309524Y-10845238D01*
X235433333Y-10783333D01*
X235742857Y-10783333D01*
X235866667Y-10845238D01*
X235928571Y-10907143D01*
X235990476Y-11030952D01*
X235990476Y-11340476D01*
X235928571Y-11464286D01*
X235866667Y-11526190D01*
X235742857Y-11588095D01*
X235433333Y-11588095D01*
X235309524Y-11526190D01*
X235247619Y-11464286D01*
D10*
D11*
X285866667Y-10288095D02*
X285619048Y-10288095D01*
X285495238Y-10350000D01*
X285433333Y-10411905D01*
X285309524Y-10597619D01*
X285247619Y-10845238D01*
X285247619Y-11340476D01*
X285309524Y-11464286D01*
X285371429Y-11526190D01*
X285495238Y-11588095D01*
X285742857Y-11588095D01*
X285866667Y-11526190D01*
X285928571Y-11464286D01*
X285990476Y-11340476D01*
X285990476Y-11030952D01*
X285928571Y-10907143D01*
X285866667Y-10845238D01*
X285742857Y-10783333D01*
X285495238Y-10783333D01*
X285371429Y-10845238D01*
X285309524Y-10907143D01*
X285247619Y-11030952D01*
D10*
D11*
X60000000Y-198007200D02*
X60000000Y-200007200D01*
D10*
D11*
X110000000Y-198007200D02*
X110000000Y-200007200D01*
D10*
D11*
X160000000Y-198007200D02*
X160000000Y-200007200D01*
D10*
D11*
X210000000Y-198007200D02*
X210000000Y-200007200D01*
D10*
D11*
X260000000Y-198007200D02*
X260000000Y-200007200D01*
D10*
D11*
X35990476Y-199595295D02*
X35247619Y-199595295D01*
X35619048Y-199595295D02*
X35619048Y-198295295D01*
X35495238Y-198481010D01*
X35371429Y-198604819D01*
X35247619Y-198666724D01*
D10*
D11*
X85247619Y-198419105D02*
X85309524Y-198357200D01*
X85433333Y-198295295D01*
X85742857Y-198295295D01*
X85866667Y-198357200D01*
X85928571Y-198419105D01*
X85990476Y-198542914D01*
X85990476Y-198666724D01*
X85928571Y-198852438D01*
X85185714Y-199595295D01*
X85990476Y-199595295D01*
D10*
D11*
X135185714Y-198295295D02*
X135990476Y-198295295D01*
X135557143Y-198790533D01*
X135742857Y-198790533D01*
X135866667Y-198852438D01*
X135928571Y-198914343D01*
X135990476Y-199038152D01*
X135990476Y-199347676D01*
X135928571Y-199471486D01*
X135866667Y-199533390D01*
X135742857Y-199595295D01*
X135371429Y-199595295D01*
X135247619Y-199533390D01*
X135185714Y-199471486D01*
D10*
D11*
X185866667Y-198728629D02*
X185866667Y-199595295D01*
X185557143Y-198233390D02*
X185247619Y-199161962D01*
X186052381Y-199161962D01*
D10*
D11*
X235928571Y-198295295D02*
X235309524Y-198295295D01*
X235247619Y-198914343D01*
X235309524Y-198852438D01*
X235433333Y-198790533D01*
X235742857Y-198790533D01*
X235866667Y-198852438D01*
X235928571Y-198914343D01*
X235990476Y-199038152D01*
X235990476Y-199347676D01*
X235928571Y-199471486D01*
X235866667Y-199533390D01*
X235742857Y-199595295D01*
X235433333Y-199595295D01*
X235309524Y-199533390D01*
X235247619Y-199471486D01*
D10*
D11*
X285866667Y-198295295D02*
X285619048Y-198295295D01*
X285495238Y-198357200D01*
X285433333Y-198419105D01*
X285309524Y-198604819D01*
X285247619Y-198852438D01*
X285247619Y-199347676D01*
X285309524Y-199471486D01*
X285371429Y-199533390D01*
X285495238Y-199595295D01*
X285742857Y-199595295D01*
X285866667Y-199533390D01*
X285928571Y-199471486D01*
X285990476Y-199347676D01*
X285990476Y-199038152D01*
X285928571Y-198914343D01*
X285866667Y-198852438D01*
X285742857Y-198790533D01*
X285495238Y-198790533D01*
X285371429Y-198852438D01*
X285309524Y-198914343D01*
X285247619Y-199038152D01*
D10*
D11*
X10000000Y-60000000D02*
X12000000Y-60000000D01*
D10*
D11*
X10000000Y-110000000D02*
X12000000Y-110000000D01*
D10*
D11*
X10000000Y-160000000D02*
X12000000Y-160000000D01*
D10*
D11*
X10690476Y-35216667D02*
X11309524Y-35216667D01*
X10566667Y-35588095D02*
X11000000Y-34288095D01*
X11433333Y-35588095D01*
D10*
D11*
X11092857Y-84907143D02*
X11278571Y-84969048D01*
X11340476Y-85030952D01*
X11402381Y-85154762D01*
X11402381Y-85340476D01*
X11340476Y-85464286D01*
X11278571Y-85526190D01*
X11154762Y-85588095D01*
X10659524Y-85588095D01*
X10659524Y-84288095D01*
X11092857Y-84288095D01*
X11216667Y-84350000D01*
X11278571Y-84411905D01*
X11340476Y-84535714D01*
X11340476Y-84659524D01*
X11278571Y-84783333D01*
X11216667Y-84845238D01*
X11092857Y-84907143D01*
X10659524Y-84907143D01*
D10*
D11*
X11402381Y-135464286D02*
X11340476Y-135526190D01*
X11154762Y-135588095D01*
X11030952Y-135588095D01*
X10845238Y-135526190D01*
X10721429Y-135402381D01*
X10659524Y-135278571D01*
X10597619Y-135030952D01*
X10597619Y-134845238D01*
X10659524Y-134597619D01*
X10721429Y-134473810D01*
X10845238Y-134350000D01*
X11030952Y-134288095D01*
X11154762Y-134288095D01*
X11340476Y-134350000D01*
X11402381Y-134411905D01*
D10*
D11*
X10659524Y-185588095D02*
X10659524Y-184288095D01*
X10969048Y-184288095D01*
X11154762Y-184350000D01*
X11278571Y-184473810D01*
X11340476Y-184597619D01*
X11402381Y-184845238D01*
X11402381Y-185030952D01*
X11340476Y-185278571D01*
X11278571Y-185402381D01*
X11154762Y-185526190D01*
X10969048Y-185588095D01*
X10659524Y-185588095D01*
D10*
D11*
X287002200Y-60000000D02*
X285002200Y-60000000D01*
D10*
D11*
X287002200Y-110000000D02*
X285002200Y-110000000D01*
D10*
D11*
X287002200Y-160000000D02*
X285002200Y-160000000D01*
D10*
D11*
X285692676Y-35216667D02*
X286311724Y-35216667D01*
X285568867Y-35588095D02*
X286002200Y-34288095D01*
X286435533Y-35588095D01*
D10*
D11*
X286095057Y-84907143D02*
X286280771Y-84969048D01*
X286342676Y-85030952D01*
X286404581Y-85154762D01*
X286404581Y-85340476D01*
X286342676Y-85464286D01*
X286280771Y-85526190D01*
X286156962Y-85588095D01*
X285661724Y-85588095D01*
X285661724Y-84288095D01*
X286095057Y-84288095D01*
X286218867Y-84350000D01*
X286280771Y-84411905D01*
X286342676Y-84535714D01*
X286342676Y-84659524D01*
X286280771Y-84783333D01*
X286218867Y-84845238D01*
X286095057Y-84907143D01*
X285661724Y-84907143D01*
D10*
D11*
X286404581Y-135464286D02*
X286342676Y-135526190D01*
X286156962Y-135588095D01*
X286033152Y-135588095D01*
X285847438Y-135526190D01*
X285723629Y-135402381D01*
X285661724Y-135278571D01*
X285599819Y-135030952D01*
X285599819Y-134845238D01*
X285661724Y-134597619D01*
X285723629Y-134473810D01*
X285847438Y-134350000D01*
X286033152Y-134288095D01*
X286156962Y-134288095D01*
X286342676Y-134350000D01*
X286404581Y-134411905D01*
D10*
D11*
X285661724Y-185588095D02*
X285661724Y-184288095D01*
X285971248Y-184288095D01*
X286156962Y-184350000D01*
X286280771Y-184473810D01*
X286342676Y-184597619D01*
X286404581Y-184845238D01*
X286404581Y-185030952D01*
X286342676Y-185278571D01*
X286280771Y-185402381D01*
X286156962Y-185526190D01*
X285971248Y-185588095D01*
X285661724Y-185588095D01*
D10*
D11*
X200359343Y-193785771D02*
X200359343Y-192285771D01*
X200716486Y-192285771D01*
X200930771Y-192357200D01*
X201073629Y-192500057D01*
X201145057Y-192642914D01*
X201216486Y-192928629D01*
X201216486Y-193142914D01*
X201145057Y-193428629D01*
X201073629Y-193571486D01*
X200930771Y-193714343D01*
X200716486Y-193785771D01*
X200359343Y-193785771D01*
X202502200Y-193785771D02*
X202502200Y-193000057D01*
X202430771Y-192857200D01*
X202287914Y-192785771D01*
X202002200Y-192785771D01*
X201859343Y-192857200D01*
X202502200Y-193714343D02*
X202359343Y-193785771D01*
X202002200Y-193785771D01*
X201859343Y-193714343D01*
X201787914Y-193571486D01*
X201787914Y-193428629D01*
X201859343Y-193285771D01*
X202002200Y-193214343D01*
X202359343Y-193214343D01*
X202502200Y-193142914D01*
X203002200Y-192785771D02*
X203573629Y-192785771D01*
X203216486Y-192285771D02*
X203216486Y-193571486D01*
X203287914Y-193714343D01*
X203430772Y-193785771D01*
X203573629Y-193785771D01*
X204645057Y-193714343D02*
X204502200Y-193785771D01*
X204216486Y-193785771D01*
X204073629Y-193714343D01*
X204002200Y-193571486D01*
X204002200Y-193000057D01*
X204073629Y-192857200D01*
X204216486Y-192785771D01*
X204502200Y-192785771D01*
X204645057Y-192857200D01*
X204716486Y-193000057D01*
X204716486Y-193142914D01*
X204002200Y-193285771D01*
X205359343Y-193642914D02*
X205430771Y-193714343D01*
X205359343Y-193785771D01*
X205287914Y-193714343D01*
X205359343Y-193642914D01*
X205359343Y-193785771D01*
X205359343Y-192857200D02*
X205430771Y-192928629D01*
X205359343Y-193000057D01*
X205287914Y-192928629D01*
X205359343Y-192857200D01*
X205359343Y-193000057D01*
X207502200Y-192285771D02*
X207645057Y-192285771D01*
X207787914Y-192357200D01*
X207859343Y-192428629D01*
X207930772Y-192571486D01*
X208002200Y-192857200D01*
X208002200Y-193214343D01*
X207930772Y-193500057D01*
X207859343Y-193642914D01*
X207787914Y-193714343D01*
X207645057Y-193785771D01*
X207502200Y-193785771D01*
X207359343Y-193714343D01*
X207287914Y-193642914D01*
X207216486Y-193500057D01*
X207145057Y-193214343D01*
X207145057Y-192857200D01*
X207216486Y-192571486D01*
X207287914Y-192428629D01*
X207359343Y-192357200D01*
X207502200Y-192285771D01*
X208502200Y-192285771D02*
X209502200Y-192285771D01*
X208859343Y-193785771D01*
X210073628Y-193642914D02*
X210145056Y-193714343D01*
X210073628Y-193785771D01*
X210002199Y-193714343D01*
X210073628Y-193642914D01*
X210073628Y-193785771D01*
X211073628Y-192285771D02*
X211216485Y-192285771D01*
X211359342Y-192357200D01*
X211430771Y-192428629D01*
X211502200Y-192571486D01*
X211573628Y-192857200D01*
X211573628Y-193214343D01*
X211502200Y-193500057D01*
X211430771Y-193642914D01*
X211359342Y-193714343D01*
X211216485Y-193785771D01*
X211073628Y-193785771D01*
X210930771Y-193714343D01*
X210859342Y-193642914D01*
X210787914Y-193500057D01*
X210716485Y-193214343D01*
X210716485Y-192857200D01*
X210787914Y-192571486D01*
X210859342Y-192428629D01*
X210930771Y-192357200D01*
X211073628Y-192285771D01*
X212073628Y-192285771D02*
X213002199Y-192285771D01*
X212502199Y-192857200D01*
X212716485Y-192857200D01*
X212859342Y-192928629D01*
X212930771Y-193000057D01*
X213002199Y-193142914D01*
X213002199Y-193500057D01*
X212930771Y-193642914D01*
X212859342Y-193714343D01*
X212716485Y-193785771D01*
X212287913Y-193785771D01*
X212145056Y-193714343D01*
X212073628Y-193642914D01*
X213645056Y-193642914D02*
X213716484Y-193714343D01*
X213645056Y-193785771D01*
X213573627Y-193714343D01*
X213645056Y-193642914D01*
X213645056Y-193785771D01*
X214287913Y-192428629D02*
X214359342Y-192357200D01*
X214502199Y-192285771D01*
X214859342Y-192285771D01*
X215002199Y-192357200D01*
X215073628Y-192428629D01*
X215145056Y-192571486D01*
X215145056Y-192714343D01*
X215073628Y-192928629D01*
X214216485Y-193785771D01*
X215145056Y-193785771D01*
X216073627Y-192285771D02*
X216216484Y-192285771D01*
X216359341Y-192357200D01*
X216430770Y-192428629D01*
X216502199Y-192571486D01*
X216573627Y-192857200D01*
X216573627Y-193214343D01*
X216502199Y-193500057D01*
X216430770Y-193642914D01*
X216359341Y-193714343D01*
X216216484Y-193785771D01*
X216073627Y-193785771D01*
X215930770Y-193714343D01*
X215859341Y-193642914D01*
X215787913Y-193500057D01*
X215716484Y-193214343D01*
X215716484Y-192857200D01*
X215787913Y-192571486D01*
X215859341Y-192428629D01*
X215930770Y-192357200D01*
X216073627Y-192285771D01*
X218002198Y-193785771D02*
X217145055Y-193785771D01*
X217573627Y-193785771D02*
X217573627Y-192285771D01*
X217430770Y-192500057D01*
X217287912Y-192642914D01*
X217145055Y-192714343D01*
X218502198Y-192285771D02*
X219502198Y-192285771D01*
X218859341Y-193785771D01*
D10*
D11*
X177002200Y-194507200D02*
X285002200Y-194507200D01*
D10*
D11*
X178359343Y-196585771D02*
X178359343Y-195085771D01*
X179216486Y-196585771D02*
X178573629Y-195728629D01*
X179216486Y-195085771D02*
X178359343Y-195942914D01*
X179859343Y-196585771D02*
X179859343Y-195585771D01*
X179859343Y-195085771D02*
X179787914Y-195157200D01*
X179859343Y-195228629D01*
X179930771Y-195157200D01*
X179859343Y-195085771D01*
X179859343Y-195228629D01*
X181430772Y-196442914D02*
X181359343Y-196514343D01*
X181145057Y-196585771D01*
X181002200Y-196585771D01*
X180787915Y-196514343D01*
X180645057Y-196371486D01*
X180573629Y-196228629D01*
X180502200Y-195942914D01*
X180502200Y-195728629D01*
X180573629Y-195442914D01*
X180645057Y-195300057D01*
X180787915Y-195157200D01*
X181002200Y-195085771D01*
X181145057Y-195085771D01*
X181359343Y-195157200D01*
X181430772Y-195228629D01*
X182716486Y-196585771D02*
X182716486Y-195800057D01*
X182645057Y-195657200D01*
X182502200Y-195585771D01*
X182216486Y-195585771D01*
X182073629Y-195657200D01*
X182716486Y-196514343D02*
X182573629Y-196585771D01*
X182216486Y-196585771D01*
X182073629Y-196514343D01*
X182002200Y-196371486D01*
X182002200Y-196228629D01*
X182073629Y-196085771D01*
X182216486Y-196014343D01*
X182573629Y-196014343D01*
X182716486Y-195942914D01*
X184073629Y-196585771D02*
X184073629Y-195085771D01*
X184073629Y-196514343D02*
X183930772Y-196585771D01*
X183645058Y-196585771D01*
X183502200Y-196514343D01*
X183430772Y-196442914D01*
X183359343Y-196300057D01*
X183359343Y-195871486D01*
X183430772Y-195728629D01*
X183502200Y-195657200D01*
X183645058Y-195585771D01*
X183930772Y-195585771D01*
X184073629Y-195657200D01*
X185930772Y-195800057D02*
X186430772Y-195800057D01*
X186645058Y-196585771D02*
X185930772Y-196585771D01*
X185930772Y-195085771D01*
X186645058Y-195085771D01*
X187287915Y-196442914D02*
X187359343Y-196514343D01*
X187287915Y-196585771D01*
X187216486Y-196514343D01*
X187287915Y-196442914D01*
X187287915Y-196585771D01*
X188002201Y-196585771D02*
X188002201Y-195085771D01*
X188359344Y-195085771D01*
X188573629Y-195157200D01*
X188716487Y-195300057D01*
X188787915Y-195442914D01*
X188859344Y-195728629D01*
X188859344Y-195942914D01*
X188787915Y-196228629D01*
X188716487Y-196371486D01*
X188573629Y-196514343D01*
X188359344Y-196585771D01*
X188002201Y-196585771D01*
X189502201Y-196442914D02*
X189573629Y-196514343D01*
X189502201Y-196585771D01*
X189430772Y-196514343D01*
X189502201Y-196442914D01*
X189502201Y-196585771D01*
X190145058Y-196157200D02*
X190859344Y-196157200D01*
X190002201Y-196585771D02*
X190502201Y-195085771D01*
X191002201Y-196585771D01*
X191502201Y-196442914D02*
X191573629Y-196514343D01*
X191502201Y-196585771D01*
X191430772Y-196514343D01*
X191502201Y-196442914D01*
X191502201Y-196585771D01*
X194502201Y-196585771D02*
X194502201Y-195085771D01*
X194645058Y-196014343D02*
X195073629Y-196585771D01*
X195073629Y-195585771D02*
X194502201Y-196157200D01*
X195716487Y-196585771D02*
X195716487Y-195585771D01*
X195716487Y-195085771D02*
X195645058Y-195157200D01*
X195716487Y-195228629D01*
X195787915Y-195157200D01*
X195716487Y-195085771D01*
X195716487Y-195228629D01*
X197073630Y-196514343D02*
X196930773Y-196585771D01*
X196645059Y-196585771D01*
X196502201Y-196514343D01*
X196430773Y-196442914D01*
X196359344Y-196300057D01*
X196359344Y-195871486D01*
X196430773Y-195728629D01*
X196502201Y-195657200D01*
X196645059Y-195585771D01*
X196930773Y-195585771D01*
X197073630Y-195657200D01*
X198359344Y-196585771D02*
X198359344Y-195800057D01*
X198287915Y-195657200D01*
X198145058Y-195585771D01*
X197859344Y-195585771D01*
X197716487Y-195657200D01*
X198359344Y-196514343D02*
X198216487Y-196585771D01*
X197859344Y-196585771D01*
X197716487Y-196514343D01*
X197645058Y-196371486D01*
X197645058Y-196228629D01*
X197716487Y-196085771D01*
X197859344Y-196014343D01*
X198216487Y-196014343D01*
X198359344Y-195942914D01*
X199716487Y-196585771D02*
X199716487Y-195085771D01*
X199716487Y-196514343D02*
X199573630Y-196585771D01*
X199287916Y-196585771D01*
X199145058Y-196514343D01*
X199073630Y-196442914D01*
X199002201Y-196300057D01*
X199002201Y-195871486D01*
X199073630Y-195728629D01*
X199145058Y-195657200D01*
X199287916Y-195585771D01*
X199573630Y-195585771D01*
X199716487Y-195657200D01*
X202216487Y-195585771D02*
X202216487Y-196585771D01*
X201859344Y-195014343D02*
X201502201Y-196085771D01*
X202430773Y-196085771D01*
X203002201Y-196442914D02*
X203073629Y-196514343D01*
X203002201Y-196585771D01*
X202930772Y-196514343D01*
X203002201Y-196442914D01*
X203002201Y-196585771D01*
X204002201Y-195085771D02*
X204145058Y-195085771D01*
X204287915Y-195157200D01*
X204359344Y-195228629D01*
X204430773Y-195371486D01*
X204502201Y-195657200D01*
X204502201Y-196014343D01*
X204430773Y-196300057D01*
X204359344Y-196442914D01*
X204287915Y-196514343D01*
X204145058Y-196585771D01*
X204002201Y-196585771D01*
X203859344Y-196514343D01*
X203787915Y-196442914D01*
X203716487Y-196300057D01*
X203645058Y-196014343D01*
X203645058Y-195657200D01*
X203716487Y-195371486D01*
X203787915Y-195228629D01*
X203859344Y-195157200D01*
X204002201Y-195085771D01*
X205145058Y-196442914D02*
X205216486Y-196514343D01*
X205145058Y-196585771D01*
X205073629Y-196514343D01*
X205145058Y-196442914D01*
X205145058Y-196585771D01*
X206502201Y-195085771D02*
X206216487Y-195085771D01*
X206073630Y-195157200D01*
X206002201Y-195228629D01*
X205859344Y-195442914D01*
X205787915Y-195728629D01*
X205787915Y-196300057D01*
X205859344Y-196442914D01*
X205930772Y-196514343D01*
X206073630Y-196585771D01*
X206359344Y-196585771D01*
X206502201Y-196514343D01*
X206573630Y-196442914D01*
X206645058Y-196300057D01*
X206645058Y-195942914D01*
X206573630Y-195800057D01*
X206502201Y-195728629D01*
X206359344Y-195657200D01*
X206073630Y-195657200D01*
X205930772Y-195728629D01*
X205859344Y-195800057D01*
X205787915Y-195942914D01*
X207287915Y-196014343D02*
X208430772Y-196014343D01*
X209716486Y-196514343D02*
X209573629Y-196585771D01*
X209287915Y-196585771D01*
X209145058Y-196514343D01*
X209073629Y-196371486D01*
X209073629Y-195800057D01*
X209145058Y-195657200D01*
X209287915Y-195585771D01*
X209573629Y-195585771D01*
X209716486Y-195657200D01*
X209787915Y-195800057D01*
X209787915Y-195942914D01*
X209073629Y-196085771D01*
X210716486Y-195085771D02*
X210859343Y-195085771D01*
X211002200Y-195157200D01*
X211073629Y-195228629D01*
X211145058Y-195371486D01*
X211216486Y-195657200D01*
X211216486Y-196014343D01*
X211145058Y-196300057D01*
X211073629Y-196442914D01*
X211002200Y-196514343D01*
X210859343Y-196585771D01*
X210716486Y-196585771D01*
X210573629Y-196514343D01*
X210502200Y-196442914D01*
X210430772Y-196300057D01*
X210359343Y-196014343D01*
X210359343Y-195657200D01*
X210430772Y-195371486D01*
X210502200Y-195228629D01*
X210573629Y-195157200D01*
X210716486Y-195085771D01*
X211859343Y-196014343D02*
X213002200Y-196014343D01*
X214359343Y-195085771D02*
X214073629Y-195085771D01*
X213930772Y-195157200D01*
X213859343Y-195228629D01*
X213716486Y-195442914D01*
X213645057Y-195728629D01*
X213645057Y-196300057D01*
X213716486Y-196442914D01*
X213787914Y-196514343D01*
X213930772Y-196585771D01*
X214216486Y-196585771D01*
X214359343Y-196514343D01*
X214430772Y-196442914D01*
X214502200Y-196300057D01*
X214502200Y-195942914D01*
X214430772Y-195800057D01*
X214359343Y-195728629D01*
X214216486Y-195657200D01*
X213930772Y-195657200D01*
X213787914Y-195728629D01*
X213716486Y-195800057D01*
X213645057Y-195942914D01*
X215002200Y-195085771D02*
X215930771Y-195085771D01*
X215430771Y-195657200D01*
X215645057Y-195657200D01*
X215787914Y-195728629D01*
X215859343Y-195800057D01*
X215930771Y-195942914D01*
X215930771Y-196300057D01*
X215859343Y-196442914D01*
X215787914Y-196514343D01*
X215645057Y-196585771D01*
X215216485Y-196585771D01*
X215073628Y-196514343D01*
X215002200Y-196442914D01*
X217216485Y-195585771D02*
X217216485Y-196585771D01*
X216859342Y-195014343D02*
X216502199Y-196085771D01*
X217430771Y-196085771D01*
X218073627Y-196585771D02*
X218359342Y-196585771D01*
X218502199Y-196514343D01*
X218573627Y-196442914D01*
X218716485Y-196228629D01*
X218787913Y-195942914D01*
X218787913Y-195371486D01*
X218716485Y-195228629D01*
X218645056Y-195157200D01*
X218502199Y-195085771D01*
X218216485Y-195085771D01*
X218073627Y-195157200D01*
X218002199Y-195228629D01*
X217930770Y-195371486D01*
X217930770Y-195728629D01*
X218002199Y-195871486D01*
X218073627Y-195942914D01*
X218216485Y-196014343D01*
X218502199Y-196014343D01*
X218645056Y-195942914D01*
X218716485Y-195871486D01*
X218787913Y-195728629D01*
X220145056Y-195085771D02*
X219430770Y-195085771D01*
X219359341Y-195800057D01*
X219430770Y-195728629D01*
X219573627Y-195657200D01*
X219930770Y-195657200D01*
X220073627Y-195728629D01*
X220145056Y-195800057D01*
X220216484Y-195942914D01*
X220216484Y-196300057D01*
X220145056Y-196442914D01*
X220073627Y-196514343D01*
X219930770Y-196585771D01*
X219573627Y-196585771D01*
X219430770Y-196514343D01*
X219359341Y-196442914D01*
X220716484Y-195085771D02*
X221645055Y-195085771D01*
X221145055Y-195657200D01*
X221359341Y-195657200D01*
X221502198Y-195728629D01*
X221573627Y-195800057D01*
X221645055Y-195942914D01*
X221645055Y-196300057D01*
X221573627Y-196442914D01*
X221502198Y-196514343D01*
X221359341Y-196585771D01*
X220930769Y-196585771D01*
X220787912Y-196514343D01*
X220716484Y-196442914D01*
X219073627Y-194827200D02*
X221930769Y-194827200D01*
X222930769Y-195585771D02*
X222930769Y-196585771D01*
X222287912Y-195585771D02*
X222287912Y-196371486D01*
X222359340Y-196514343D01*
X222502198Y-196585771D01*
X222716483Y-196585771D01*
X222859340Y-196514343D01*
X222930769Y-196442914D01*
X223645055Y-196585771D02*
X223645055Y-195085771D01*
X223645055Y-195657200D02*
X223787912Y-195585771D01*
X224073626Y-195585771D01*
X224216483Y-195657200D01*
X224287912Y-195728629D01*
X224359341Y-195871486D01*
X224359341Y-196300057D01*
X224287912Y-196442914D01*
X224216483Y-196514343D01*
X224073626Y-196585771D01*
X223787912Y-196585771D01*
X223645055Y-196514343D01*
X225645055Y-195585771D02*
X225645055Y-196585771D01*
X225002198Y-195585771D02*
X225002198Y-196371486D01*
X225073626Y-196514343D01*
X225216484Y-196585771D01*
X225430769Y-196585771D01*
X225573626Y-196514343D01*
X225645055Y-196442914D01*
X226359341Y-195585771D02*
X226359341Y-196585771D01*
X226359341Y-195728629D02*
X226430769Y-195657200D01*
X226573627Y-195585771D01*
X226787912Y-195585771D01*
X226930769Y-195657200D01*
X227002198Y-195800057D01*
X227002198Y-196585771D01*
X227502198Y-195585771D02*
X228073627Y-195585771D01*
X227716484Y-195085771D02*
X227716484Y-196371486D01*
X227787912Y-196514343D01*
X227930770Y-196585771D01*
X228073627Y-196585771D01*
X229216484Y-195585771D02*
X229216484Y-196585771D01*
X228573627Y-195585771D02*
X228573627Y-196371486D01*
X228645055Y-196514343D01*
X228787913Y-196585771D01*
X229002198Y-196585771D01*
X229145055Y-196514343D01*
X229216484Y-196442914D01*
X230716484Y-196585771D02*
X229859341Y-196585771D01*
X230287913Y-196585771D02*
X230287913Y-195085771D01*
X230145056Y-195300057D01*
X230002198Y-195442914D01*
X229859341Y-195514343D01*
X232002198Y-195085771D02*
X231716484Y-195085771D01*
X231573627Y-195157200D01*
X231502198Y-195228629D01*
X231359341Y-195442914D01*
X231287912Y-195728629D01*
X231287912Y-196300057D01*
X231359341Y-196442914D01*
X231430769Y-196514343D01*
X231573627Y-196585771D01*
X231859341Y-196585771D01*
X232002198Y-196514343D01*
X232073627Y-196442914D01*
X232145055Y-196300057D01*
X232145055Y-195942914D01*
X232073627Y-195800057D01*
X232002198Y-195728629D01*
X231859341Y-195657200D01*
X231573627Y-195657200D01*
X231430769Y-195728629D01*
X231359341Y-195800057D01*
X231287912Y-195942914D01*
X232787912Y-196442914D02*
X232859340Y-196514343D01*
X232787912Y-196585771D01*
X232716483Y-196514343D01*
X232787912Y-196442914D01*
X232787912Y-196585771D01*
X233787912Y-195085771D02*
X233930769Y-195085771D01*
X234073626Y-195157200D01*
X234145055Y-195228629D01*
X234216484Y-195371486D01*
X234287912Y-195657200D01*
X234287912Y-196014343D01*
X234216484Y-196300057D01*
X234145055Y-196442914D01*
X234073626Y-196514343D01*
X233930769Y-196585771D01*
X233787912Y-196585771D01*
X233645055Y-196514343D01*
X233573626Y-196442914D01*
X233502198Y-196300057D01*
X233430769Y-196014343D01*
X233430769Y-195657200D01*
X233502198Y-195371486D01*
X233573626Y-195228629D01*
X233645055Y-195157200D01*
X233787912Y-195085771D01*
X235573626Y-195585771D02*
X235573626Y-196585771D01*
X235216483Y-195014343D02*
X234859340Y-196085771D01*
X235787912Y-196085771D01*
X236359340Y-196442914D02*
X236430768Y-196514343D01*
X236359340Y-196585771D01*
X236287911Y-196514343D01*
X236359340Y-196442914D01*
X236359340Y-196585771D01*
X237859340Y-196585771D02*
X237002197Y-196585771D01*
X237430769Y-196585771D02*
X237430769Y-195085771D01*
X237287912Y-195300057D01*
X237145054Y-195442914D01*
X237002197Y-195514343D01*
D10*
D11*
X177002200Y-191507200D02*
X285002200Y-191507200D01*
D10*
D12*
X264216486Y-193785771D02*
X263716486Y-193071486D01*
X263359343Y-193785771D02*
X263359343Y-192285771D01*
X263930771Y-192285771D01*
X264073629Y-192357200D01*
X264145057Y-192428629D01*
X264216486Y-192571486D01*
X264216486Y-192785771D01*
X264145057Y-192928629D01*
X264073629Y-193000057D01*
X263930771Y-193071486D01*
X263359343Y-193071486D01*
X265430771Y-193714343D02*
X265287914Y-193785771D01*
X265002200Y-193785771D01*
X264859343Y-193714343D01*
X264787914Y-193571486D01*
X264787914Y-193000057D01*
X264859343Y-192857200D01*
X265002200Y-192785771D01*
X265287914Y-192785771D01*
X265430771Y-192857200D01*
X265502200Y-193000057D01*
X265502200Y-193142914D01*
X264787914Y-193285771D01*
X266002200Y-192785771D02*
X266359343Y-193785771D01*
X266716485Y-192785771D01*
X267287914Y-193642914D02*
X267359342Y-193714343D01*
X267287914Y-193785771D01*
X267216485Y-193714343D01*
X267287914Y-193642914D01*
X267287914Y-193785771D01*
X267287914Y-192857200D02*
X267359342Y-192928629D01*
X267287914Y-193000057D01*
X267216485Y-192928629D01*
X267287914Y-192857200D01*
X267287914Y-193000057D01*
X269930771Y-193785771D02*
X269073628Y-193785771D01*
X269502200Y-193785771D02*
X269502200Y-192285771D01*
X269359343Y-192500057D01*
X269216485Y-192642914D01*
X269073628Y-192714343D01*
X270573628Y-193642914D02*
X270645056Y-193714343D01*
X270573628Y-193785771D01*
X270502199Y-193714343D01*
X270573628Y-193642914D01*
X270573628Y-193785771D01*
X271573628Y-192285771D02*
X271716485Y-192285771D01*
X271859342Y-192357200D01*
X271930771Y-192428629D01*
X272002200Y-192571486D01*
X272073628Y-192857200D01*
X272073628Y-193214343D01*
X272002200Y-193500057D01*
X271930771Y-193642914D01*
X271859342Y-193714343D01*
X271716485Y-193785771D01*
X271573628Y-193785771D01*
X271430771Y-193714343D01*
X271359342Y-193642914D01*
X271287914Y-193500057D01*
X271216485Y-193214343D01*
X271216485Y-192857200D01*
X271287914Y-192571486D01*
X271359342Y-192428629D01*
X271430771Y-192357200D01*
X271573628Y-192285771D01*
D10*
D11*
X178287914Y-193714343D02*
X178502200Y-193785771D01*
X178859343Y-193785771D01*
X179002200Y-193714343D01*
X179073629Y-193642914D01*
X179145057Y-193500057D01*
X179145057Y-193357200D01*
X179073629Y-193214343D01*
X179002200Y-193142914D01*
X178859343Y-193071486D01*
X178573629Y-193000057D01*
X178430771Y-192928629D01*
X178359343Y-192857200D01*
X178287914Y-192714343D01*
X178287914Y-192571486D01*
X178359343Y-192428629D01*
X178430771Y-192357200D01*
X178573629Y-192285771D01*
X178930771Y-192285771D01*
X179145057Y-192357200D01*
X179787914Y-193785771D02*
X179787914Y-192785771D01*
X179787914Y-192285771D02*
X179716485Y-192357200D01*
X179787914Y-192428629D01*
X179859342Y-192357200D01*
X179787914Y-192285771D01*
X179787914Y-192428629D01*
X180359343Y-192785771D02*
X181145057Y-192785771D01*
X180359343Y-193785771D01*
X181145057Y-193785771D01*
X182287914Y-193714343D02*
X182145057Y-193785771D01*
X181859343Y-193785771D01*
X181716486Y-193714343D01*
X181645057Y-193571486D01*
X181645057Y-193000057D01*
X181716486Y-192857200D01*
X181859343Y-192785771D01*
X182145057Y-192785771D01*
X182287914Y-192857200D01*
X182359343Y-193000057D01*
X182359343Y-193142914D01*
X181645057Y-193285771D01*
X183002200Y-193642914D02*
X183073628Y-193714343D01*
X183002200Y-193785771D01*
X182930771Y-193714343D01*
X183002200Y-193642914D01*
X183002200Y-193785771D01*
X183002200Y-192857200D02*
X183073628Y-192928629D01*
X183002200Y-193000057D01*
X182930771Y-192928629D01*
X183002200Y-192857200D01*
X183002200Y-193000057D01*
X184787914Y-193357200D02*
X185502200Y-193357200D01*
X184645057Y-193785771D02*
X185145057Y-192285771D01*
X185645057Y-193785771D01*
X186787914Y-192785771D02*
X186787914Y-193785771D01*
X186430771Y-192214343D02*
X186073628Y-193285771D01*
X187002200Y-193285771D01*
D10*
D11*
X263359343Y-196585771D02*
X263359343Y-195085771D01*
X264716486Y-196585771D02*
X264716486Y-195085771D01*
X264716486Y-196514343D02*
X264573629Y-196585771D01*
X264287915Y-196585771D01*
X264145057Y-196514343D01*
X264073629Y-196442914D01*
X264002200Y-196300057D01*
X264002200Y-195871486D01*
X264073629Y-195728629D01*
X264145057Y-195657200D01*
X264287915Y-195585771D01*
X264573629Y-195585771D01*
X264716486Y-195657200D01*
X265430772Y-196442914D02*
X265502200Y-196514343D01*
X265430772Y-196585771D01*
X265359343Y-196514343D01*
X265430772Y-196442914D01*
X265430772Y-196585771D01*
X265430772Y-195657200D02*
X265502200Y-195728629D01*
X265430772Y-195800057D01*
X265359343Y-195728629D01*
X265430772Y-195657200D01*
X265430772Y-195800057D01*
X268073629Y-196585771D02*
X267216486Y-196585771D01*
X267645058Y-196585771D02*
X267645058Y-195085771D01*
X267502201Y-195300057D01*
X267359343Y-195442914D01*
X267216486Y-195514343D01*
X269787914Y-195014343D02*
X268502200Y-196942914D01*
X271073629Y-196585771D02*
X270216486Y-196585771D01*
X270645058Y-196585771D02*
X270645058Y-195085771D01*
X270502201Y-195300057D01*
X270359343Y-195442914D01*
X270216486Y-195514343D01*
D10*
D11*
X177002200Y-187507200D02*
X285002200Y-187507200D01*
D10*
D13*
X178454581Y-188211962D02*
X179597438Y-188211962D01*
X178776010Y-190211962D02*
X179026010Y-188211962D01*
X180014105Y-190211962D02*
X180180771Y-188878629D01*
X180264105Y-188211962D02*
X180156962Y-188307200D01*
X180240295Y-188402438D01*
X180347439Y-188307200D01*
X180264105Y-188211962D01*
X180240295Y-188402438D01*
X180847438Y-188878629D02*
X181609343Y-188878629D01*
X181216486Y-188211962D02*
X181002200Y-189926248D01*
X181073630Y-190116724D01*
X181252201Y-190211962D01*
X181442677Y-190211962D01*
X182395058Y-190211962D02*
X182216487Y-190116724D01*
X182145057Y-189926248D01*
X182359343Y-188211962D01*
X183930772Y-190116724D02*
X183728391Y-190211962D01*
X183347439Y-190211962D01*
X183168867Y-190116724D01*
X183097438Y-189926248D01*
X183192676Y-189164343D01*
X183311724Y-188973867D01*
X183514105Y-188878629D01*
X183895057Y-188878629D01*
X184073629Y-188973867D01*
X184145057Y-189164343D01*
X184121248Y-189354819D01*
X183145057Y-189545295D01*
X184895057Y-190021486D02*
X184978392Y-190116724D01*
X184871248Y-190211962D01*
X184787915Y-190116724D01*
X184895057Y-190021486D01*
X184871248Y-190211962D01*
X185026010Y-188973867D02*
X185109344Y-189069105D01*
X185002200Y-189164343D01*
X184918867Y-189069105D01*
X185026010Y-188973867D01*
X185002200Y-189164343D01*
X188145058Y-189164343D02*
X188418867Y-189259581D01*
X188502202Y-189354819D01*
X188573630Y-189545295D01*
X188537916Y-189831010D01*
X188418868Y-190021486D01*
X188311725Y-190116724D01*
X188109344Y-190211962D01*
X187347439Y-190211962D01*
X187597439Y-188211962D01*
X188264106Y-188211962D01*
X188442677Y-188307200D01*
X188526010Y-188402438D01*
X188597440Y-188592914D01*
X188573630Y-188783390D01*
X188454582Y-188973867D01*
X188347439Y-189069105D01*
X188145058Y-189164343D01*
X187478391Y-189164343D01*
X190299820Y-190211962D02*
X189347439Y-190211962D01*
X189597439Y-188211962D01*
X190966487Y-190211962D02*
X191216487Y-188211962D01*
X191692678Y-188211962D01*
X191966487Y-188307200D01*
X192133154Y-188497676D01*
X192204583Y-188688152D01*
X192252202Y-189069105D01*
X192216488Y-189354819D01*
X192073631Y-189735771D01*
X191954582Y-189926248D01*
X191740297Y-190116724D01*
X191442678Y-190211962D01*
X190966487Y-190211962D01*
X194133154Y-190021486D02*
X194026012Y-190116724D01*
X193728392Y-190211962D01*
X193537916Y-190211962D01*
X193264107Y-190116724D01*
X193097440Y-189926248D01*
X193026011Y-189735771D01*
X192978392Y-189354819D01*
X193014106Y-189069105D01*
X193156963Y-188688152D01*
X193276012Y-188497676D01*
X193490297Y-188307200D01*
X193787916Y-188211962D01*
X193978392Y-188211962D01*
X194252202Y-188307200D01*
X194335535Y-188402438D01*
X197656964Y-190021486D02*
X197549822Y-190116724D01*
X197252202Y-190211962D01*
X197061726Y-190211962D01*
X196787917Y-190116724D01*
X196621250Y-189926248D01*
X196549821Y-189735771D01*
X196502202Y-189354819D01*
X196537916Y-189069105D01*
X196680773Y-188688152D01*
X196799822Y-188497676D01*
X197014107Y-188307200D01*
X197311726Y-188211962D01*
X197502202Y-188211962D01*
X197776012Y-188307200D01*
X197859345Y-188402438D01*
X199121250Y-188211962D02*
X199502202Y-188211962D01*
X199680773Y-188307200D01*
X199847441Y-188497676D01*
X199895059Y-188878629D01*
X199811726Y-189545295D01*
X199668869Y-189926248D01*
X199454583Y-190116724D01*
X199252202Y-190211962D01*
X198871250Y-190211962D01*
X198692679Y-190116724D01*
X198526011Y-189926248D01*
X198478392Y-189545295D01*
X198561725Y-188878629D01*
X198704583Y-188497676D01*
X198918869Y-188307200D01*
X199121250Y-188211962D01*
X200585535Y-190211962D02*
X200835535Y-188211962D01*
X201728393Y-190211962D01*
X201978393Y-188211962D01*
X202645059Y-188211962D02*
X203787916Y-188211962D01*
X202966488Y-190211962D02*
X203216488Y-188211962D01*
X205347441Y-190211962D02*
X204799821Y-189259581D01*
X204204583Y-190211962D02*
X204454583Y-188211962D01*
X205216488Y-188211962D01*
X205395059Y-188307200D01*
X205478393Y-188402438D01*
X205549822Y-188592914D01*
X205514107Y-188878629D01*
X205395060Y-189069105D01*
X205287916Y-189164343D01*
X205085535Y-189259581D01*
X204323630Y-189259581D01*
X206835536Y-188211962D02*
X207216488Y-188211962D01*
X207395059Y-188307200D01*
X207561727Y-188497676D01*
X207609345Y-188878629D01*
X207526012Y-189545295D01*
X207383155Y-189926248D01*
X207168869Y-190116724D01*
X206966488Y-190211962D01*
X206585536Y-190211962D01*
X206406965Y-190116724D01*
X206240297Y-189926248D01*
X206192678Y-189545295D01*
X206276011Y-188878629D01*
X206418869Y-188497676D01*
X206633155Y-188307200D01*
X206835536Y-188211962D01*
X209252202Y-190211962D02*
X208299821Y-190211962D01*
X208549821Y-188211962D01*
X210871250Y-190211962D02*
X209918869Y-190211962D01*
X210168869Y-188211962D01*
X211668869Y-189164343D02*
X212335536Y-189164343D01*
X212490298Y-190211962D02*
X211537917Y-190211962D01*
X211787917Y-188211962D01*
X212740298Y-188211962D01*
X214490299Y-190211962D02*
X213942679Y-189259581D01*
X213347441Y-190211962D02*
X213597441Y-188211962D01*
X214359346Y-188211962D01*
X214537917Y-188307200D01*
X214621251Y-188402438D01*
X214692680Y-188592914D01*
X214656965Y-188878629D01*
X214537918Y-189069105D01*
X214430774Y-189164343D01*
X214228393Y-189259581D01*
X213466488Y-189259581D01*
D10*
D11*
X178859343Y-185600057D02*
X178359343Y-185600057D01*
X178359343Y-186385771D02*
X178359343Y-184885771D01*
X179073629Y-184885771D01*
X179645057Y-186385771D02*
X179645057Y-185385771D01*
X179645057Y-184885771D02*
X179573628Y-184957200D01*
X179645057Y-185028629D01*
X179716485Y-184957200D01*
X179645057Y-184885771D01*
X179645057Y-185028629D01*
X180573629Y-186385771D02*
X180430771Y-186314343D01*
X180359343Y-186171486D01*
X180359343Y-184885771D01*
X181716485Y-186314343D02*
X181573628Y-186385771D01*
X181287914Y-186385771D01*
X181145057Y-186314343D01*
X181073628Y-186171486D01*
X181073628Y-185600057D01*
X181145057Y-185457200D01*
X181287914Y-185385771D01*
X181573628Y-185385771D01*
X181716485Y-185457200D01*
X181787914Y-185600057D01*
X181787914Y-185742914D01*
X181073628Y-185885771D01*
X182430771Y-186242914D02*
X182502199Y-186314343D01*
X182430771Y-186385771D01*
X182359342Y-186314343D01*
X182430771Y-186242914D01*
X182430771Y-186385771D01*
X182430771Y-185457200D02*
X182502199Y-185528629D01*
X182430771Y-185600057D01*
X182359342Y-185528629D01*
X182430771Y-185457200D01*
X182430771Y-185600057D01*
X184787914Y-185600057D02*
X185002200Y-185671486D01*
X185073628Y-185742914D01*
X185145057Y-185885771D01*
X185145057Y-186100057D01*
X185073628Y-186242914D01*
X185002200Y-186314343D01*
X184859342Y-186385771D01*
X184287914Y-186385771D01*
X184287914Y-184885771D01*
X184787914Y-184885771D01*
X184930771Y-184957200D01*
X185002200Y-185028629D01*
X185073628Y-185171486D01*
X185073628Y-185314343D01*
X185002200Y-185457200D01*
X184930771Y-185528629D01*
X184787914Y-185600057D01*
X184287914Y-185600057D01*
X186502200Y-186385771D02*
X185787914Y-186385771D01*
X185787914Y-184885771D01*
X187002200Y-186385771D02*
X187002200Y-184885771D01*
X187359343Y-184885771D01*
X187573628Y-184957200D01*
X187716486Y-185100057D01*
X187787914Y-185242914D01*
X187859343Y-185528629D01*
X187859343Y-185742914D01*
X187787914Y-186028629D01*
X187716486Y-186171486D01*
X187573628Y-186314343D01*
X187359343Y-186385771D01*
X187002200Y-186385771D01*
X189359343Y-186242914D02*
X189287914Y-186314343D01*
X189073628Y-186385771D01*
X188930771Y-186385771D01*
X188716486Y-186314343D01*
X188573628Y-186171486D01*
X188502200Y-186028629D01*
X188430771Y-185742914D01*
X188430771Y-185528629D01*
X188502200Y-185242914D01*
X188573628Y-185100057D01*
X188716486Y-184957200D01*
X188930771Y-184885771D01*
X189073628Y-184885771D01*
X189287914Y-184957200D01*
X189359343Y-185028629D01*
X189645057Y-186528629D02*
X190787914Y-186528629D01*
X191787914Y-186314343D02*
X191645057Y-186385771D01*
X191359343Y-186385771D01*
X191216485Y-186314343D01*
X191145057Y-186242914D01*
X191073628Y-186100057D01*
X191073628Y-185671486D01*
X191145057Y-185528629D01*
X191216485Y-185457200D01*
X191359343Y-185385771D01*
X191645057Y-185385771D01*
X191787914Y-185457200D01*
X192645057Y-186385771D02*
X192502199Y-186314343D01*
X192430771Y-186242914D01*
X192359342Y-186100057D01*
X192359342Y-185671486D01*
X192430771Y-185528629D01*
X192502199Y-185457200D01*
X192645057Y-185385771D01*
X192859342Y-185385771D01*
X193002199Y-185457200D01*
X193073628Y-185528629D01*
X193145057Y-185671486D01*
X193145057Y-186100057D01*
X193073628Y-186242914D01*
X193002199Y-186314343D01*
X192859342Y-186385771D01*
X192645057Y-186385771D01*
X193787914Y-185385771D02*
X193787914Y-186385771D01*
X193787914Y-185528629D02*
X193859342Y-185457200D01*
X194002200Y-185385771D01*
X194216485Y-185385771D01*
X194359342Y-185457200D01*
X194430771Y-185600057D01*
X194430771Y-186385771D01*
X194930771Y-185385771D02*
X195502200Y-185385771D01*
X195145057Y-184885771D02*
X195145057Y-186171486D01*
X195216485Y-186314343D01*
X195359343Y-186385771D01*
X195502200Y-186385771D01*
X196002200Y-186385771D02*
X196002200Y-185385771D01*
X196002200Y-185671486D02*
X196073628Y-185528629D01*
X196145057Y-185457200D01*
X196287914Y-185385771D01*
X196430771Y-185385771D01*
X197145057Y-186385771D02*
X197002199Y-186314343D01*
X196930771Y-186242914D01*
X196859342Y-186100057D01*
X196859342Y-185671486D01*
X196930771Y-185528629D01*
X197002199Y-185457200D01*
X197145057Y-185385771D01*
X197359342Y-185385771D01*
X197502199Y-185457200D01*
X197573628Y-185528629D01*
X197645057Y-185671486D01*
X197645057Y-186100057D01*
X197573628Y-186242914D01*
X197502199Y-186314343D01*
X197359342Y-186385771D01*
X197145057Y-186385771D01*
X198502200Y-186385771D02*
X198359342Y-186314343D01*
X198287914Y-186171486D01*
X198287914Y-184885771D01*
X199287914Y-186385771D02*
X199145056Y-186314343D01*
X199073628Y-186171486D01*
X199073628Y-184885771D01*
X200430770Y-186314343D02*
X200287913Y-186385771D01*
X200002199Y-186385771D01*
X199859342Y-186314343D01*
X199787913Y-186171486D01*
X199787913Y-185600057D01*
X199859342Y-185457200D01*
X200002199Y-185385771D01*
X200287913Y-185385771D01*
X200430770Y-185457200D01*
X200502199Y-185600057D01*
X200502199Y-185742914D01*
X199787913Y-185885771D01*
X201145056Y-186385771D02*
X201145056Y-185385771D01*
X201145056Y-185671486D02*
X201216484Y-185528629D01*
X201287913Y-185457200D01*
X201430770Y-185385771D01*
X201573627Y-185385771D01*
X202073627Y-186242914D02*
X202145055Y-186314343D01*
X202073627Y-186385771D01*
X202002198Y-186314343D01*
X202073627Y-186242914D01*
X202073627Y-186385771D01*
X202787913Y-186385771D02*
X202787913Y-184885771D01*
X202930770Y-185814343D02*
X203359341Y-186385771D01*
X203359341Y-185385771D02*
X202787913Y-185957200D01*
X204002199Y-186385771D02*
X204002199Y-185385771D01*
X204002199Y-184885771D02*
X203930770Y-184957200D01*
X204002199Y-185028629D01*
X204073627Y-184957200D01*
X204002199Y-184885771D01*
X204002199Y-185028629D01*
X205359342Y-186314343D02*
X205216485Y-186385771D01*
X204930771Y-186385771D01*
X204787913Y-186314343D01*
X204716485Y-186242914D01*
X204645056Y-186100057D01*
X204645056Y-185671486D01*
X204716485Y-185528629D01*
X204787913Y-185457200D01*
X204930771Y-185385771D01*
X205216485Y-185385771D01*
X205359342Y-185457200D01*
X206645056Y-186385771D02*
X206645056Y-185600057D01*
X206573627Y-185457200D01*
X206430770Y-185385771D01*
X206145056Y-185385771D01*
X206002199Y-185457200D01*
X206645056Y-186314343D02*
X206502199Y-186385771D01*
X206145056Y-186385771D01*
X206002199Y-186314343D01*
X205930770Y-186171486D01*
X205930770Y-186028629D01*
X206002199Y-185885771D01*
X206145056Y-185814343D01*
X206502199Y-185814343D01*
X206645056Y-185742914D01*
X208002199Y-186385771D02*
X208002199Y-184885771D01*
X208002199Y-186314343D02*
X207859342Y-186385771D01*
X207573628Y-186385771D01*
X207430770Y-186314343D01*
X207359342Y-186242914D01*
X207287913Y-186100057D01*
X207287913Y-185671486D01*
X207359342Y-185528629D01*
X207430770Y-185457200D01*
X207573628Y-185385771D01*
X207859342Y-185385771D01*
X208002199Y-185457200D01*
X208359342Y-186528629D02*
X209502199Y-186528629D01*
X209859342Y-185385771D02*
X209859342Y-186885771D01*
X209859342Y-185457200D02*
X210002199Y-185385771D01*
X210287913Y-185385771D01*
X210430770Y-185457200D01*
X210502199Y-185528629D01*
X210573628Y-185671486D01*
X210573628Y-186100057D01*
X210502199Y-186242914D01*
X210430770Y-186314343D01*
X210287913Y-186385771D01*
X210002199Y-186385771D01*
X209859342Y-186314343D01*
X211859342Y-186314343D02*
X211716485Y-186385771D01*
X211430771Y-186385771D01*
X211287913Y-186314343D01*
X211216485Y-186242914D01*
X211145056Y-186100057D01*
X211145056Y-185671486D01*
X211216485Y-185528629D01*
X211287913Y-185457200D01*
X211430771Y-185385771D01*
X211716485Y-185385771D01*
X211859342Y-185457200D01*
X212502199Y-186385771D02*
X212502199Y-184885771D01*
X212502199Y-185457200D02*
X212645056Y-185385771D01*
X212930770Y-185385771D01*
X213073627Y-185457200D01*
X213145056Y-185528629D01*
X213216485Y-185671486D01*
X213216485Y-186100057D01*
X213145056Y-186242914D01*
X213073627Y-186314343D01*
X212930770Y-186385771D01*
X212645056Y-186385771D01*
X212502199Y-186314343D01*
D10*
D11*
X177002200Y-181507200D02*
X285002200Y-181507200D01*
D10*
D11*
X178287914Y-183614343D02*
X178502200Y-183685771D01*
X178859343Y-183685771D01*
X179002200Y-183614343D01*
X179073629Y-183542914D01*
X179145057Y-183400057D01*
X179145057Y-183257200D01*
X179073629Y-183114343D01*
X179002200Y-183042914D01*
X178859343Y-182971486D01*
X178573629Y-182900057D01*
X178430771Y-182828629D01*
X178359343Y-182757200D01*
X178287914Y-182614343D01*
X178287914Y-182471486D01*
X178359343Y-182328629D01*
X178430771Y-182257200D01*
X178573629Y-182185771D01*
X178930771Y-182185771D01*
X179145057Y-182257200D01*
X179787914Y-183685771D02*
X179787914Y-182185771D01*
X180430771Y-183685771D02*
X180430771Y-182900057D01*
X180359342Y-182757200D01*
X180216485Y-182685771D01*
X180002200Y-182685771D01*
X179859342Y-182757200D01*
X179787914Y-182828629D01*
X181716485Y-183614343D02*
X181573628Y-183685771D01*
X181287914Y-183685771D01*
X181145057Y-183614343D01*
X181073628Y-183471486D01*
X181073628Y-182900057D01*
X181145057Y-182757200D01*
X181287914Y-182685771D01*
X181573628Y-182685771D01*
X181716485Y-182757200D01*
X181787914Y-182900057D01*
X181787914Y-183042914D01*
X181073628Y-183185771D01*
X183002199Y-183614343D02*
X182859342Y-183685771D01*
X182573628Y-183685771D01*
X182430771Y-183614343D01*
X182359342Y-183471486D01*
X182359342Y-182900057D01*
X182430771Y-182757200D01*
X182573628Y-182685771D01*
X182859342Y-182685771D01*
X183002199Y-182757200D01*
X183073628Y-182900057D01*
X183073628Y-183042914D01*
X182359342Y-183185771D01*
X183502199Y-182685771D02*
X184073628Y-182685771D01*
X183716485Y-182185771D02*
X183716485Y-183471486D01*
X183787913Y-183614343D01*
X183930771Y-183685771D01*
X184073628Y-183685771D01*
X184573628Y-183542914D02*
X184645056Y-183614343D01*
X184573628Y-183685771D01*
X184502199Y-183614343D01*
X184573628Y-183542914D01*
X184573628Y-183685771D01*
X184573628Y-182757200D02*
X184645056Y-182828629D01*
X184573628Y-182900057D01*
X184502199Y-182828629D01*
X184573628Y-182757200D01*
X184573628Y-182900057D01*
D10*
D12*
X178359343Y-180685771D02*
X178359343Y-179185771D01*
X178359343Y-179900057D02*
X179216486Y-179900057D01*
X179216486Y-180685771D02*
X179216486Y-179185771D01*
X180502200Y-180614343D02*
X180359343Y-180685771D01*
X180073629Y-180685771D01*
X179930772Y-180614343D01*
X179859343Y-180471486D01*
X179859343Y-179900057D01*
X179930772Y-179757200D01*
X180073629Y-179685771D01*
X180359343Y-179685771D01*
X180502200Y-179757200D01*
X180573629Y-179900057D01*
X180573629Y-180042914D01*
X179859343Y-180185771D01*
X181430772Y-180685771D02*
X181287914Y-180614343D01*
X181216486Y-180471486D01*
X181216486Y-179185771D01*
X181930771Y-180614343D02*
X182073628Y-180685771D01*
X182359343Y-180685771D01*
X182502200Y-180614343D01*
X182573628Y-180471486D01*
X182573628Y-180400057D01*
X182502200Y-180257200D01*
X182359343Y-180185771D01*
X182145057Y-180185771D01*
X182002200Y-180114343D01*
X181930771Y-179971486D01*
X181930771Y-179900057D01*
X182002200Y-179757200D01*
X182145057Y-179685771D01*
X182359343Y-179685771D01*
X182502200Y-179757200D01*
X183216486Y-180685771D02*
X183216486Y-179685771D01*
X183216486Y-179185771D02*
X183145057Y-179257200D01*
X183216486Y-179328629D01*
X183287914Y-179257200D01*
X183216486Y-179185771D01*
X183216486Y-179328629D01*
X183930772Y-179685771D02*
X183930772Y-180685771D01*
X183930772Y-179828629D02*
X184002200Y-179757200D01*
X184145058Y-179685771D01*
X184359343Y-179685771D01*
X184502200Y-179757200D01*
X184573629Y-179900057D01*
X184573629Y-180685771D01*
X185287915Y-180685771D02*
X185287915Y-179185771D01*
X185430772Y-180114343D02*
X185859343Y-180685771D01*
X185859343Y-179685771D02*
X185287915Y-180257200D01*
X186502201Y-180685771D02*
X186502201Y-179685771D01*
X186502201Y-179185771D02*
X186430772Y-179257200D01*
X186502201Y-179328629D01*
X186573629Y-179257200D01*
X186502201Y-179185771D01*
X186502201Y-179328629D01*
X188359344Y-180685771D02*
X188359344Y-179185771D01*
X188359344Y-179900057D02*
X189216487Y-179900057D01*
X189216487Y-180685771D02*
X189216487Y-179185771D01*
X190573630Y-180685771D02*
X190573630Y-179900057D01*
X190502201Y-179757200D01*
X190359344Y-179685771D01*
X190073630Y-179685771D01*
X189930773Y-179757200D01*
X190573630Y-180614343D02*
X190430773Y-180685771D01*
X190073630Y-180685771D01*
X189930773Y-180614343D01*
X189859344Y-180471486D01*
X189859344Y-180328629D01*
X189930773Y-180185771D01*
X190073630Y-180114343D01*
X190430773Y-180114343D01*
X190573630Y-180042914D01*
X191930773Y-180614343D02*
X191787916Y-180685771D01*
X191502202Y-180685771D01*
X191359344Y-180614343D01*
X191287916Y-180542914D01*
X191216487Y-180400057D01*
X191216487Y-179971486D01*
X191287916Y-179828629D01*
X191359344Y-179757200D01*
X191502202Y-179685771D01*
X191787916Y-179685771D01*
X191930773Y-179757200D01*
X192573630Y-180685771D02*
X192573630Y-179185771D01*
X192716487Y-180114343D02*
X193145058Y-180685771D01*
X193145058Y-179685771D02*
X192573630Y-180257200D01*
X194002202Y-180685771D02*
X193859344Y-180614343D01*
X193787916Y-180471486D01*
X193787916Y-179185771D01*
X195216487Y-180685771D02*
X195216487Y-179900057D01*
X195145058Y-179757200D01*
X195002201Y-179685771D01*
X194716487Y-179685771D01*
X194573630Y-179757200D01*
X195216487Y-180614343D02*
X195073630Y-180685771D01*
X194716487Y-180685771D01*
X194573630Y-180614343D01*
X194502201Y-180471486D01*
X194502201Y-180328629D01*
X194573630Y-180185771D01*
X194716487Y-180114343D01*
X195073630Y-180114343D01*
X195216487Y-180042914D01*
X195930773Y-180685771D02*
X195930773Y-179185771D01*
X195930773Y-179757200D02*
X196073630Y-179685771D01*
X196359344Y-179685771D01*
X196502201Y-179757200D01*
X196573630Y-179828629D01*
X196645059Y-179971486D01*
X196645059Y-180400057D01*
X196573630Y-180542914D01*
X196502201Y-180614343D01*
X196359344Y-180685771D01*
X196073630Y-180685771D01*
X195930773Y-180614343D01*
D10*
D11*
X178145057Y-176185771D02*
X179002200Y-176185771D01*
X178573629Y-177685771D02*
X178573629Y-176185771D01*
X180073628Y-177614343D02*
X179930771Y-177685771D01*
X179645057Y-177685771D01*
X179502200Y-177614343D01*
X179430771Y-177471486D01*
X179430771Y-176900057D01*
X179502200Y-176757200D01*
X179645057Y-176685771D01*
X179930771Y-176685771D01*
X180073628Y-176757200D01*
X180145057Y-176900057D01*
X180145057Y-177042914D01*
X179430771Y-177185771D01*
X180787914Y-177685771D02*
X180787914Y-176685771D01*
X180787914Y-176971486D02*
X180859342Y-176828629D01*
X180930771Y-176757200D01*
X181073628Y-176685771D01*
X181216485Y-176685771D01*
X181930771Y-177685771D02*
X181787913Y-177614343D01*
X181716485Y-177542914D01*
X181645056Y-177400057D01*
X181645056Y-176971486D01*
X181716485Y-176828629D01*
X181787913Y-176757200D01*
X181930771Y-176685771D01*
X182145056Y-176685771D01*
X182287913Y-176757200D01*
X182359342Y-176828629D01*
X182430771Y-176971486D01*
X182430771Y-177400057D01*
X182359342Y-177542914D01*
X182287913Y-177614343D01*
X182145056Y-177685771D01*
X181930771Y-177685771D01*
X184216485Y-177685771D02*
X184216485Y-176185771D01*
X185073628Y-177685771D02*
X184430771Y-176828629D01*
X185073628Y-176185771D02*
X184216485Y-177042914D01*
X186359342Y-177685771D02*
X186359342Y-176900057D01*
X186287913Y-176757200D01*
X186145056Y-176685771D01*
X185859342Y-176685771D01*
X185716485Y-176757200D01*
X186359342Y-177614343D02*
X186216485Y-177685771D01*
X185859342Y-177685771D01*
X185716485Y-177614343D01*
X185645056Y-177471486D01*
X185645056Y-177328629D01*
X185716485Y-177185771D01*
X185859342Y-177114343D01*
X186216485Y-177114343D01*
X186359342Y-177042914D01*
X187073628Y-176685771D02*
X187073628Y-178185771D01*
X187073628Y-176757200D02*
X187216485Y-176685771D01*
X187502199Y-176685771D01*
X187645056Y-176757200D01*
X187716485Y-176828629D01*
X187787914Y-176971486D01*
X187787914Y-177400057D01*
X187716485Y-177542914D01*
X187645056Y-177614343D01*
X187502199Y-177685771D01*
X187216485Y-177685771D01*
X187073628Y-177614343D01*
X189073628Y-177685771D02*
X189073628Y-176900057D01*
X189002199Y-176757200D01*
X188859342Y-176685771D01*
X188573628Y-176685771D01*
X188430771Y-176757200D01*
X189073628Y-177614343D02*
X188930771Y-177685771D01*
X188573628Y-177685771D01*
X188430771Y-177614343D01*
X188359342Y-177471486D01*
X188359342Y-177328629D01*
X188430771Y-177185771D01*
X188573628Y-177114343D01*
X188930771Y-177114343D01*
X189073628Y-177042914D01*
X189787914Y-176685771D02*
X189787914Y-177685771D01*
X189787914Y-176828629D02*
X189859342Y-176757200D01*
X190002200Y-176685771D01*
X190216485Y-176685771D01*
X190359342Y-176757200D01*
X190430771Y-176900057D01*
X190430771Y-177685771D01*
X191716485Y-177614343D02*
X191573628Y-177685771D01*
X191287914Y-177685771D01*
X191145057Y-177614343D01*
X191073628Y-177471486D01*
X191073628Y-176900057D01*
X191145057Y-176757200D01*
X191287914Y-176685771D01*
X191573628Y-176685771D01*
X191716485Y-176757200D01*
X191787914Y-176900057D01*
X191787914Y-177042914D01*
X191073628Y-177185771D01*
X192430771Y-176685771D02*
X192430771Y-177685771D01*
X192430771Y-176828629D02*
X192502199Y-176757200D01*
X192645057Y-176685771D01*
X192859342Y-176685771D01*
X193002199Y-176757200D01*
X193073628Y-176900057D01*
X193073628Y-177685771D01*
D10*
D11*
X197002200Y-191507200D02*
X197002200Y-194507200D01*
D10*
D11*
X261002200Y-191507200D02*
X261002200Y-198007200D01*
D14*
X176316667Y-113957381D02*
X176935715Y-113957381D01*
X176602381Y-114338333D01*
X176745239Y-114338333D01*
X176840477Y-114385952D01*
X176888096Y-114433571D01*
X176935715Y-114528810D01*
X176935715Y-114766905D01*
X176888096Y-114862143D01*
X176840477Y-114909762D01*
X176745239Y-114957381D01*
X176459524Y-114957381D01*
X176364286Y-114909762D01*
X176316667Y-114862143D01*
D15*
X178700000Y-109900000D03*
X173100000Y-109250000D03*
X146000000Y-98300000D03*
X162250000Y-115005000D03*
X160750000Y-79005000D03*
X136250000Y-109505000D03*
X156750000Y-79005000D03*
X151750000Y-79005000D03*
X146750000Y-79005000D03*
X141750000Y-79005000D03*
X136250000Y-84505000D03*
X136250000Y-89505000D03*
X136250000Y-94505000D03*
X136250000Y-99505000D03*
X136250000Y-104505000D03*
X142250000Y-115005000D03*
X147250000Y-115005000D03*
X152250000Y-115005000D03*
X157250000Y-115005000D03*
X173000000Y-82005000D03*
X173000000Y-83005000D03*
X172250000Y-91200000D03*
X173000000Y-100505000D03*
X172750000Y-103505000D03*
X173000000Y-110755000D03*
X184450000Y-108805000D03*
X183750000Y-108805000D03*
X183050000Y-108805000D03*
X182350000Y-108805000D03*
X181650000Y-108805000D03*
X184450000Y-108105000D03*
X183750000Y-108105000D03*
X183050000Y-108105000D03*
X182350000Y-108105000D03*
X181650000Y-108105000D03*
X184450000Y-107405000D03*
X183750000Y-107405000D03*
X183050000Y-107405000D03*
X182350000Y-107405000D03*
X181650000Y-107405000D03*
X184450000Y-106705000D03*
X183750000Y-106705000D03*
X183050000Y-106705000D03*
X182350000Y-106705000D03*
X181650000Y-106705000D03*
X184450000Y-106005000D03*
X183750000Y-106005000D03*
X183050000Y-106005000D03*
X182350000Y-106005000D03*
X181650000Y-106005000D03*
X184450000Y-105305000D03*
X183750000Y-105305000D03*
X183050000Y-105305000D03*
X182350000Y-105305000D03*
X181650000Y-105305000D03*
X184450000Y-104605000D03*
X183750000Y-104605000D03*
X183050000Y-104605000D03*
X182350000Y-104605000D03*
X181650000Y-104605000D03*
X184450000Y-103905000D03*
X183750000Y-103905000D03*
X183050000Y-103905000D03*
X182350000Y-103905000D03*
X184450000Y-100605000D03*
X183750000Y-100605000D03*
X183050000Y-100605000D03*
X182350000Y-100605000D03*
X181650000Y-100605000D03*
X184450000Y-99905000D03*
X183750000Y-99905000D03*
X183050000Y-99905000D03*
X182350000Y-99905000D03*
X181650000Y-99905000D03*
X184450000Y-99205000D03*
X183750000Y-99205000D03*
X183050000Y-99205000D03*
X182350000Y-99205000D03*
X181650000Y-99205000D03*
X184450000Y-98505000D03*
X183750000Y-98505000D03*
X183050000Y-98505000D03*
X182350000Y-98505000D03*
X181650000Y-98505000D03*
X184450000Y-97805000D03*
X183750000Y-97805000D03*
X183050000Y-97805000D03*
X182350000Y-97805000D03*
X181650000Y-97805000D03*
X184450000Y-97105000D03*
X183750000Y-97105000D03*
X183050000Y-97105000D03*
X182350000Y-97105000D03*
X181650000Y-97105000D03*
X184450000Y-96405000D03*
X183750000Y-96405000D03*
X183050000Y-96405000D03*
X182350000Y-96405000D03*
X181650000Y-96405000D03*
X184450000Y-95705000D03*
X183750000Y-95705000D03*
X183050000Y-95705000D03*
X182350000Y-95705000D03*
X181650000Y-103905000D03*
X184450000Y-91605000D03*
X183750000Y-91605000D03*
X183050000Y-91605000D03*
X182350000Y-91605000D03*
X181650000Y-91605000D03*
X184450000Y-90905000D03*
X183750000Y-90905000D03*
X183050000Y-90905000D03*
X182350000Y-90905000D03*
X181650000Y-90905000D03*
X184450000Y-90205000D03*
X183750000Y-90205000D03*
X183050000Y-90205000D03*
X182350000Y-90205000D03*
X181650000Y-90205000D03*
X184450000Y-89505000D03*
X183750000Y-89505000D03*
X183050000Y-89505000D03*
X182350000Y-89505000D03*
X181650000Y-89505000D03*
X184450000Y-88805000D03*
X183750000Y-88805000D03*
X183050000Y-88805000D03*
X182350000Y-88805000D03*
X181650000Y-88805000D03*
X184450000Y-88105000D03*
X183750000Y-88105000D03*
X183050000Y-88105000D03*
X182350000Y-88105000D03*
X181650000Y-88105000D03*
X184450000Y-87405000D03*
X183750000Y-87405000D03*
X183050000Y-87405000D03*
X182350000Y-87405000D03*
X181650000Y-87405000D03*
X181650000Y-95705000D03*
X184450000Y-86705000D03*
X183750000Y-86705000D03*
X183050000Y-86705000D03*
X182350000Y-86705000D03*
X181650000Y-86705000D03*
X167250000Y-83405000D03*
X167450000Y-100205000D03*
X166750000Y-100205000D03*
X171450000Y-82005000D03*
X170750000Y-82005000D03*
X170050000Y-82005000D03*
X169350000Y-82005000D03*
X168650000Y-82005000D03*
X167950000Y-82005000D03*
X167250000Y-82005000D03*
X166550000Y-82005000D03*
X171450000Y-81305000D03*
X170750000Y-81305000D03*
X170050000Y-81305000D03*
X169350000Y-81305000D03*
X168650000Y-81305000D03*
X167950000Y-81305000D03*
X167250000Y-81305000D03*
X166550000Y-81305000D03*
X171450000Y-80605000D03*
X170750000Y-80605000D03*
X170050000Y-80605000D03*
X169350000Y-80605000D03*
X168650000Y-80605000D03*
X167950000Y-80605000D03*
X167250000Y-80605000D03*
X166550000Y-80605000D03*
X171450000Y-79905000D03*
X170750000Y-79905000D03*
X170050000Y-79905000D03*
X169350000Y-79905000D03*
X168650000Y-79905000D03*
X167950000Y-79905000D03*
X167250000Y-79905000D03*
X166550000Y-79905000D03*
X167250000Y-82705000D03*
X166550000Y-82705000D03*
X171450000Y-79205000D03*
X170750000Y-79205000D03*
X170050000Y-79205000D03*
X169350000Y-79205000D03*
X167250000Y-79205000D03*
X166550000Y-79205000D03*
X167550000Y-112305000D03*
X166850000Y-112305000D03*
X167550000Y-111605000D03*
X166850000Y-111605000D03*
X167550000Y-110905000D03*
X166850000Y-110905000D03*
X170950000Y-103805000D03*
X170250000Y-103805000D03*
X169550000Y-103805000D03*
X168850000Y-103805000D03*
X168150000Y-103805000D03*
X167450000Y-103805000D03*
X170950000Y-103105000D03*
X170250000Y-103105000D03*
X169550000Y-103105000D03*
X168850000Y-103105000D03*
X168150000Y-103105000D03*
X167450000Y-103105000D03*
X166750000Y-103105000D03*
X170950000Y-102405000D03*
X170250000Y-102405000D03*
X169550000Y-102405000D03*
X168850000Y-102405000D03*
X168150000Y-102405000D03*
X167450000Y-102405000D03*
X166750000Y-102405000D03*
X170950000Y-101705000D03*
X170250000Y-101705000D03*
X169550000Y-101705000D03*
X168850000Y-101705000D03*
X168150000Y-101705000D03*
X167450000Y-101705000D03*
X166750000Y-101705000D03*
X170950000Y-101005000D03*
X170250000Y-101005000D03*
X169550000Y-101005000D03*
X168850000Y-101005000D03*
X168150000Y-101005000D03*
X167450000Y-101005000D03*
X166750000Y-101005000D03*
X172450000Y-115105000D03*
X171750000Y-115105000D03*
X171050000Y-115105000D03*
X170350000Y-115105000D03*
X169650000Y-115105000D03*
X168950000Y-115105000D03*
X168250000Y-115105000D03*
X167550000Y-115105000D03*
X166850000Y-115105000D03*
X172450000Y-114405000D03*
X171750000Y-114405000D03*
X171050000Y-114405000D03*
X170350000Y-114405000D03*
X169650000Y-114405000D03*
X168950000Y-114405000D03*
X168250000Y-114405000D03*
X167550000Y-114405000D03*
X166850000Y-114405000D03*
X172450000Y-113705000D03*
X171750000Y-113705000D03*
X171050000Y-113705000D03*
X170350000Y-113705000D03*
X169650000Y-113705000D03*
X168950000Y-113705000D03*
X168250000Y-113705000D03*
X167550000Y-113705000D03*
X166850000Y-113705000D03*
X172450000Y-113005000D03*
X171750000Y-113005000D03*
X171050000Y-113005000D03*
X170350000Y-113005000D03*
X169650000Y-113005000D03*
X168950000Y-113005000D03*
X168250000Y-113005000D03*
X167550000Y-113005000D03*
X166850000Y-113005000D03*
X151150000Y-97755000D03*
X149850000Y-98105000D03*
X148700000Y-98105000D03*
X146550000Y-93055000D03*
X147500000Y-98155000D03*
X145500000Y-97405000D03*
X145550000Y-93905000D03*
X152250000Y-94055000D03*
X151000000Y-93405000D03*
X149950000Y-93205000D03*
X148900000Y-93205000D03*
D16*
X182000000Y-81255000D03*
X138500000Y-81255000D03*
X182000000Y-112755000D03*
X138500000Y-112755000D03*
D17*
X144780000Y-83820000D03*
D18*
X147320000Y-83820000D03*
X149860000Y-83820000D03*
X152400000Y-83820000D03*
X154940000Y-83820000D03*
D17*
X144780000Y-81280000D03*
D18*
X147320000Y-81280000D03*
X149860000Y-81280000D03*
X152400000Y-81280000D03*
X154940000Y-81280000D03*
X157480000Y-81280000D03*
D17*
X147320000Y-111760000D03*
D18*
X149860000Y-111760000D03*
X152400000Y-111760000D03*
X154940000Y-111760000D03*
X157480000Y-111760000D03*
D15*
X147800000Y-93205000D03*
X154000000Y-107250000D03*
X152500000Y-107250000D03*
X147500000Y-106500000D03*
X176417940Y-84309707D03*
X176850000Y-99299991D03*
X165149921Y-113005000D03*
D19*
X173250000Y-79005000D03*
D15*
X176950000Y-93404998D03*
X175000000Y-79000000D03*
X174900000Y-109900000D03*
X174500000Y-100700000D03*
X173900000Y-91700000D03*
X150711603Y-99522136D03*
X150600000Y-100500000D03*
X159250000Y-112054994D03*
X177267753Y-83754618D03*
X152750000Y-104005000D03*
X146500000Y-100254988D03*
X146750000Y-101755016D03*
X180250010Y-100505000D03*
X161675021Y-92738583D03*
D19*
X168250000Y-79005000D03*
D15*
X174900000Y-112000000D03*
X179500000Y-91005000D03*
X157000000Y-95505000D03*
X152185000Y-108915000D03*
X170000000Y-85530010D03*
X170250000Y-109605000D03*
X169963201Y-97917119D03*
X165284254Y-99941045D03*
X163075976Y-104487519D03*
X164900000Y-89205000D03*
X165250000Y-110755000D03*
X156500000Y-99755000D03*
X157400000Y-82975000D03*
X147750000Y-109250000D03*
X145550000Y-96350000D03*
X145550000Y-95050000D03*
X152850000Y-91550000D03*
X153900000Y-102300000D03*
X150600000Y-87900000D03*
X146600000Y-87900000D03*
D18*
X183750000Y-102705000D03*
D15*
X160000000Y-99755000D03*
D18*
X183750000Y-94505000D03*
D15*
X165627313Y-95705014D03*
D18*
X183750000Y-85505000D03*
D15*
X161899998Y-79005000D03*
X163393199Y-103474992D03*
X175700004Y-102405000D03*
X174600000Y-93505000D03*
X163340955Y-90189166D03*
X162900000Y-79305000D03*
X175200000Y-84305000D03*
X178750000Y-102075110D03*
X170350000Y-108005000D03*
X178450000Y-83255000D03*
X164000000Y-79805000D03*
X168999992Y-96755000D03*
X179972175Y-93227175D03*
X154500000Y-105505000D03*
X143750002Y-102255000D03*
X144250000Y-110255000D03*
X163575043Y-93142754D03*
X162600000Y-105505000D03*
X158700000Y-82905000D03*
X150700000Y-89600000D03*
X146600000Y-89600000D03*
X159200000Y-110400000D03*
X159012660Y-99987340D03*
X165025054Y-93265344D03*
X160000000Y-83205000D03*
X170243857Y-106991177D03*
X164037340Y-104767660D03*
X164250000Y-84805000D03*
X170000000Y-88005000D03*
X170000000Y-95005000D03*
X166024911Y-93247699D03*
X160900000Y-105800000D03*
X144450000Y-98905000D03*
X160393923Y-107531396D03*
X157225010Y-92850000D03*
X154000000Y-101300000D03*
X157274808Y-87623751D03*
X154900000Y-102900000D03*
X158160782Y-91646103D03*
X157250000Y-91004962D03*
X155340616Y-95630768D03*
X161698915Y-107480021D03*
X159981218Y-98165420D03*
X157275000Y-88675000D03*
X153348647Y-92447770D03*
X152350000Y-92500000D03*
X159700000Y-105705000D03*
X159670369Y-95224666D03*
X157400000Y-86625000D03*
D20*
G36*
X161199310Y-78535930D02*
X161073142Y-78839778D01*
X161072855Y-79168779D01*
X161198493Y-79472846D01*
X161430928Y-79705688D01*
X161734776Y-79831856D01*
X162063777Y-79832143D01*
X162201062Y-79775418D01*
X162430930Y-80005688D01*
X162734778Y-80131856D01*
X163063779Y-80132143D01*
X163214607Y-80069822D01*
X163298495Y-80272846D01*
X163530930Y-80505688D01*
X163834778Y-80631856D01*
X164163779Y-80632143D01*
X164467846Y-80506505D01*
X164700688Y-80274070D01*
X164826856Y-79970222D01*
X164827143Y-79641221D01*
X164701505Y-79337154D01*
X164469070Y-79104312D01*
X164165222Y-78978144D01*
X163836221Y-78977857D01*
X163685393Y-79040178D01*
X163601505Y-78837154D01*
X163369070Y-78604312D01*
X163134715Y-78507000D01*
X171623000Y-78507000D01*
X171623000Y-81937032D01*
X170929553Y-82399330D01*
X170893992Y-82435063D01*
X170873000Y-82505000D01*
X170873000Y-100255000D01*
X170883006Y-100304410D01*
X170910197Y-100344803D01*
X171373000Y-100807606D01*
X171373000Y-104202394D01*
X170910197Y-104665197D01*
X170882334Y-104707211D01*
X170873000Y-104755000D01*
X170873000Y-106450842D01*
X170712927Y-106290489D01*
X170409079Y-106164321D01*
X170080078Y-106164034D01*
X169776011Y-106289672D01*
X169543169Y-106522107D01*
X169417001Y-106825955D01*
X169416714Y-107154956D01*
X169542352Y-107459023D01*
X169640444Y-107557287D01*
X169523144Y-107839778D01*
X169522857Y-108168779D01*
X169648495Y-108472846D01*
X169880930Y-108705688D01*
X170184778Y-108831856D01*
X170513779Y-108832143D01*
X170817846Y-108706505D01*
X170873000Y-108651447D01*
X170873000Y-111755000D01*
X170883006Y-111804410D01*
X170911447Y-111846035D01*
X170943204Y-111868592D01*
X172873000Y-112833490D01*
X172873000Y-115503000D01*
X140881034Y-115503000D01*
X141573028Y-114812213D01*
X142126369Y-113479620D01*
X142126640Y-113168779D01*
X164322778Y-113168779D01*
X164448416Y-113472846D01*
X164680851Y-113705688D01*
X164984699Y-113831856D01*
X165313700Y-113832143D01*
X165617767Y-113706505D01*
X165850609Y-113474070D01*
X165976777Y-113170222D01*
X165977064Y-112841221D01*
X165851426Y-112537154D01*
X165618991Y-112304312D01*
X165315143Y-112178144D01*
X164986142Y-112177857D01*
X164682075Y-112303495D01*
X164449233Y-112535930D01*
X164323065Y-112839778D01*
X164322778Y-113168779D01*
X142126640Y-113168779D01*
X142127628Y-112036710D01*
X141576614Y-110703154D01*
X141292735Y-110418779D01*
X143422857Y-110418779D01*
X143548495Y-110722846D01*
X143780930Y-110955688D01*
X144084778Y-111081856D01*
X144413779Y-111082143D01*
X144588378Y-111010000D01*
X146134635Y-111010000D01*
X146134635Y-112510000D01*
X146164409Y-112668237D01*
X146257927Y-112813567D01*
X146400619Y-112911064D01*
X146570000Y-112945365D01*
X148070000Y-112945365D01*
X148228237Y-112915591D01*
X148373567Y-112822073D01*
X148471064Y-112679381D01*
X148505365Y-112510000D01*
X148505365Y-111993093D01*
X148682796Y-111993093D01*
X148861606Y-112425846D01*
X149192412Y-112757230D01*
X149624853Y-112936795D01*
X150093093Y-112937204D01*
X150525846Y-112758394D01*
X150857230Y-112427588D01*
X151036795Y-111995147D01*
X151036796Y-111993093D01*
X151222796Y-111993093D01*
X151401606Y-112425846D01*
X151732412Y-112757230D01*
X152164853Y-112936795D01*
X152633093Y-112937204D01*
X153065846Y-112758394D01*
X153397230Y-112427588D01*
X153576795Y-111995147D01*
X153576796Y-111993093D01*
X153762796Y-111993093D01*
X153941606Y-112425846D01*
X154272412Y-112757230D01*
X154704853Y-112936795D01*
X155173093Y-112937204D01*
X155605846Y-112758394D01*
X155632769Y-112731517D01*
X156688088Y-112731517D01*
X156756077Y-112972460D01*
X157275171Y-113157201D01*
X157825448Y-113129230D01*
X158203923Y-112972460D01*
X158271912Y-112731517D01*
X157480000Y-111939605D01*
X156688088Y-112731517D01*
X155632769Y-112731517D01*
X155937230Y-112427588D01*
X156106432Y-112020104D01*
X156110770Y-112105448D01*
X156267540Y-112483923D01*
X156508483Y-112551912D01*
X157300395Y-111760000D01*
X156508483Y-110968088D01*
X156267540Y-111036077D01*
X156104124Y-111495251D01*
X155938394Y-111094154D01*
X155633257Y-110788483D01*
X156688088Y-110788483D01*
X157480000Y-111580395D01*
X157494143Y-111566253D01*
X157673748Y-111745858D01*
X157659605Y-111760000D01*
X158451517Y-112551912D01*
X158692460Y-112483923D01*
X158877201Y-111964829D01*
X158849230Y-111414552D01*
X158710920Y-111080643D01*
X158730930Y-111100688D01*
X159034778Y-111226856D01*
X159363779Y-111227143D01*
X159667846Y-111101505D01*
X159900688Y-110869070D01*
X160026856Y-110565222D01*
X160027143Y-110236221D01*
X159901505Y-109932154D01*
X159669070Y-109699312D01*
X159365222Y-109573144D01*
X159036221Y-109572857D01*
X158732154Y-109698495D01*
X158499312Y-109930930D01*
X158373144Y-110234778D01*
X158372857Y-110563779D01*
X158440129Y-110726589D01*
X158386966Y-110673426D01*
X158271911Y-110788481D01*
X158203923Y-110547540D01*
X157684829Y-110362799D01*
X157134552Y-110390770D01*
X156756077Y-110547540D01*
X156688088Y-110788483D01*
X155633257Y-110788483D01*
X155607588Y-110762770D01*
X155175147Y-110583205D01*
X154706907Y-110582796D01*
X154274154Y-110761606D01*
X153942770Y-111092412D01*
X153763205Y-111524853D01*
X153762796Y-111993093D01*
X153576796Y-111993093D01*
X153577204Y-111526907D01*
X153398394Y-111094154D01*
X153067588Y-110762770D01*
X152635147Y-110583205D01*
X152166907Y-110582796D01*
X151734154Y-110761606D01*
X151402770Y-111092412D01*
X151223205Y-111524853D01*
X151222796Y-111993093D01*
X151036796Y-111993093D01*
X151037204Y-111526907D01*
X150858394Y-111094154D01*
X150527588Y-110762770D01*
X150095147Y-110583205D01*
X149626907Y-110582796D01*
X149194154Y-110761606D01*
X148862770Y-111092412D01*
X148683205Y-111524853D01*
X148682796Y-111993093D01*
X148505365Y-111993093D01*
X148505365Y-111010000D01*
X148475591Y-110851763D01*
X148382073Y-110706433D01*
X148239381Y-110608936D01*
X148070000Y-110574635D01*
X146570000Y-110574635D01*
X146411763Y-110604409D01*
X146266433Y-110697927D01*
X146168936Y-110840619D01*
X146134635Y-111010000D01*
X144588378Y-111010000D01*
X144717846Y-110956505D01*
X144950688Y-110724070D01*
X145076856Y-110420222D01*
X145077143Y-110091221D01*
X144951505Y-109787154D01*
X144719070Y-109554312D01*
X144415222Y-109428144D01*
X144086221Y-109427857D01*
X143782154Y-109553495D01*
X143549312Y-109785930D01*
X143423144Y-110089778D01*
X143422857Y-110418779D01*
X141292735Y-110418779D01*
X140557213Y-109681972D01*
X139224620Y-109128631D01*
X137781710Y-109127372D01*
X136448154Y-109678386D01*
X135752000Y-110373326D01*
X135752000Y-107413779D01*
X151672857Y-107413779D01*
X151798495Y-107717846D01*
X152030930Y-107950688D01*
X152334778Y-108076856D01*
X152663779Y-108077143D01*
X152967846Y-107951505D01*
X153200688Y-107719070D01*
X153249966Y-107600396D01*
X153298495Y-107717846D01*
X153530930Y-107950688D01*
X153834778Y-108076856D01*
X154163779Y-108077143D01*
X154467846Y-107951505D01*
X154700688Y-107719070D01*
X154710610Y-107695175D01*
X159566780Y-107695175D01*
X159692418Y-107999242D01*
X159924853Y-108232084D01*
X160228701Y-108358252D01*
X160557702Y-108358539D01*
X160861769Y-108232901D01*
X161072225Y-108022813D01*
X161229845Y-108180709D01*
X161533693Y-108306877D01*
X161862694Y-108307164D01*
X162166761Y-108181526D01*
X162399603Y-107949091D01*
X162525771Y-107645243D01*
X162526058Y-107316242D01*
X162400420Y-107012175D01*
X162167985Y-106779333D01*
X161864137Y-106653165D01*
X161535136Y-106652878D01*
X161231069Y-106778516D01*
X161020613Y-106988604D01*
X160862993Y-106830708D01*
X160559145Y-106704540D01*
X160230144Y-106704253D01*
X159926077Y-106829891D01*
X159693235Y-107062326D01*
X159567067Y-107366174D01*
X159566780Y-107695175D01*
X154710610Y-107695175D01*
X154826856Y-107415222D01*
X154827143Y-107086221D01*
X154701505Y-106782154D01*
X154469070Y-106549312D01*
X154165222Y-106423144D01*
X153836221Y-106422857D01*
X153532154Y-106548495D01*
X153299312Y-106780930D01*
X153250034Y-106899604D01*
X153201505Y-106782154D01*
X152969070Y-106549312D01*
X152665222Y-106423144D01*
X152336221Y-106422857D01*
X152032154Y-106548495D01*
X151799312Y-106780930D01*
X151673144Y-107084778D01*
X151672857Y-107413779D01*
X135752000Y-107413779D01*
X135752000Y-106663779D01*
X146672857Y-106663779D01*
X146798495Y-106967846D01*
X147030930Y-107200688D01*
X147334778Y-107326856D01*
X147663779Y-107327143D01*
X147967846Y-107201505D01*
X148200688Y-106969070D01*
X148326856Y-106665222D01*
X148327143Y-106336221D01*
X148201505Y-106032154D01*
X147969070Y-105799312D01*
X147665222Y-105673144D01*
X147336221Y-105672857D01*
X147032154Y-105798495D01*
X146799312Y-106030930D01*
X146673144Y-106334778D01*
X146672857Y-106663779D01*
X135752000Y-106663779D01*
X135752000Y-105668779D01*
X153672857Y-105668779D01*
X153798495Y-105972846D01*
X154030930Y-106205688D01*
X154334778Y-106331856D01*
X154663779Y-106332143D01*
X154967846Y-106206505D01*
X155200688Y-105974070D01*
X155244408Y-105868779D01*
X158872857Y-105868779D01*
X158998495Y-106172846D01*
X159230930Y-106405688D01*
X159534778Y-106531856D01*
X159863779Y-106532143D01*
X160167846Y-106406505D01*
X160252527Y-106321972D01*
X160430930Y-106500688D01*
X160734778Y-106626856D01*
X161063779Y-106627143D01*
X161367846Y-106501505D01*
X161600688Y-106269070D01*
X161726856Y-105965222D01*
X161727114Y-105668779D01*
X161772857Y-105668779D01*
X161898495Y-105972846D01*
X162130930Y-106205688D01*
X162434778Y-106331856D01*
X162763779Y-106332143D01*
X163067846Y-106206505D01*
X163300688Y-105974070D01*
X163426856Y-105670222D01*
X163427143Y-105341221D01*
X163417099Y-105316912D01*
X163568270Y-105468348D01*
X163872118Y-105594516D01*
X164201119Y-105594803D01*
X164505186Y-105469165D01*
X164738028Y-105236730D01*
X164864196Y-104932882D01*
X164864483Y-104603881D01*
X164738845Y-104299814D01*
X164506410Y-104066972D01*
X164202562Y-103940804D01*
X164095279Y-103940710D01*
X164220055Y-103640214D01*
X164220342Y-103311213D01*
X164094704Y-103007146D01*
X163862269Y-102774304D01*
X163558421Y-102648136D01*
X163229420Y-102647849D01*
X162925353Y-102773487D01*
X162692511Y-103005922D01*
X162566343Y-103309770D01*
X162566056Y-103638771D01*
X162691694Y-103942838D01*
X162924129Y-104175680D01*
X163227977Y-104301848D01*
X163335260Y-104301942D01*
X163210484Y-104602438D01*
X163210197Y-104931439D01*
X163220241Y-104955748D01*
X163069070Y-104804312D01*
X162765222Y-104678144D01*
X162436221Y-104677857D01*
X162132154Y-104803495D01*
X161899312Y-105035930D01*
X161773144Y-105339778D01*
X161772857Y-105668779D01*
X161727114Y-105668779D01*
X161727143Y-105636221D01*
X161601505Y-105332154D01*
X161369070Y-105099312D01*
X161065222Y-104973144D01*
X160736221Y-104972857D01*
X160432154Y-105098495D01*
X160347473Y-105183028D01*
X160169070Y-105004312D01*
X159865222Y-104878144D01*
X159536221Y-104877857D01*
X159232154Y-105003495D01*
X158999312Y-105235930D01*
X158873144Y-105539778D01*
X158872857Y-105868779D01*
X155244408Y-105868779D01*
X155326856Y-105670222D01*
X155327143Y-105341221D01*
X155201505Y-105037154D01*
X154969070Y-104804312D01*
X154665222Y-104678144D01*
X154336221Y-104677857D01*
X154032154Y-104803495D01*
X153799312Y-105035930D01*
X153673144Y-105339778D01*
X153672857Y-105668779D01*
X135752000Y-105668779D01*
X135752000Y-102418779D01*
X142922859Y-102418779D01*
X143048497Y-102722846D01*
X143280932Y-102955688D01*
X143584780Y-103081856D01*
X143913781Y-103082143D01*
X143958225Y-103063779D01*
X154072857Y-103063779D01*
X154198495Y-103367846D01*
X154430930Y-103600688D01*
X154734778Y-103726856D01*
X155063779Y-103727143D01*
X155367846Y-103601505D01*
X155600688Y-103369070D01*
X155726856Y-103065222D01*
X155727143Y-102736221D01*
X155601505Y-102432154D01*
X155369070Y-102199312D01*
X155065222Y-102073144D01*
X154736221Y-102072857D01*
X154432154Y-102198495D01*
X154199312Y-102430930D01*
X154073144Y-102734778D01*
X154072857Y-103063779D01*
X143958225Y-103063779D01*
X144217848Y-102956505D01*
X144450690Y-102724070D01*
X144576858Y-102420222D01*
X144577145Y-102091221D01*
X144451507Y-101787154D01*
X144219072Y-101554312D01*
X144001044Y-101463779D01*
X153172857Y-101463779D01*
X153298495Y-101767846D01*
X153530930Y-102000688D01*
X153834778Y-102126856D01*
X154163779Y-102127143D01*
X154467846Y-102001505D01*
X154700688Y-101769070D01*
X154826856Y-101465222D01*
X154827143Y-101136221D01*
X154701505Y-100832154D01*
X154469070Y-100599312D01*
X154165222Y-100473144D01*
X153836221Y-100472857D01*
X153532154Y-100598495D01*
X153299312Y-100830930D01*
X153173144Y-101134778D01*
X153172857Y-101463779D01*
X144001044Y-101463779D01*
X143915224Y-101428144D01*
X143586223Y-101427857D01*
X143282156Y-101553495D01*
X143049314Y-101785930D01*
X142923146Y-102089778D01*
X142922859Y-102418779D01*
X135752000Y-102418779D01*
X135752000Y-100663779D01*
X149772857Y-100663779D01*
X149898495Y-100967846D01*
X150130930Y-101200688D01*
X150434778Y-101326856D01*
X150763779Y-101327143D01*
X151067846Y-101201505D01*
X151300688Y-100969070D01*
X151426856Y-100665222D01*
X151427143Y-100336221D01*
X151350661Y-100151119D01*
X158185517Y-100151119D01*
X158311155Y-100455186D01*
X158543590Y-100688028D01*
X158847438Y-100814196D01*
X159176439Y-100814483D01*
X159480506Y-100688845D01*
X159660271Y-100509395D01*
X159834778Y-100581856D01*
X160163779Y-100582143D01*
X160467846Y-100456505D01*
X160700688Y-100224070D01*
X160826856Y-99920222D01*
X160827143Y-99591221D01*
X160701505Y-99287154D01*
X160469070Y-99054312D01*
X160232895Y-98956244D01*
X160449064Y-98866925D01*
X160681906Y-98634490D01*
X160808074Y-98330642D01*
X160808361Y-98001641D01*
X160682723Y-97697574D01*
X160450288Y-97464732D01*
X160146440Y-97338564D01*
X159817439Y-97338277D01*
X159513372Y-97463915D01*
X159280530Y-97696350D01*
X159154362Y-98000198D01*
X159154075Y-98329199D01*
X159279713Y-98633266D01*
X159512148Y-98866108D01*
X159748323Y-98964176D01*
X159532154Y-99053495D01*
X159352389Y-99232945D01*
X159177882Y-99160484D01*
X158848881Y-99160197D01*
X158544814Y-99285835D01*
X158311972Y-99518270D01*
X158185804Y-99822118D01*
X158185517Y-100151119D01*
X151350661Y-100151119D01*
X151321878Y-100081461D01*
X151412291Y-99991206D01*
X151538459Y-99687358D01*
X151538746Y-99358357D01*
X151413108Y-99054290D01*
X151180673Y-98821448D01*
X150876825Y-98695280D01*
X150547824Y-98694993D01*
X150243757Y-98820631D01*
X150010915Y-99053066D01*
X149884747Y-99356914D01*
X149884460Y-99685915D01*
X149989725Y-99940675D01*
X149899312Y-100030930D01*
X149773144Y-100334778D01*
X149772857Y-100663779D01*
X135752000Y-100663779D01*
X135752000Y-99068779D01*
X143622857Y-99068779D01*
X143748495Y-99372846D01*
X143980930Y-99605688D01*
X144284778Y-99731856D01*
X144613779Y-99732143D01*
X144917846Y-99606505D01*
X145150688Y-99374070D01*
X145276856Y-99070222D01*
X145277143Y-98741221D01*
X145151505Y-98437154D01*
X144919070Y-98204312D01*
X144615222Y-98078144D01*
X144286221Y-98077857D01*
X143982154Y-98203495D01*
X143749312Y-98435930D01*
X143623144Y-98739778D01*
X143622857Y-99068779D01*
X135752000Y-99068779D01*
X135752000Y-93755000D01*
X145873000Y-93755000D01*
X145873000Y-97505000D01*
X145881685Y-97551159D01*
X145908965Y-97593553D01*
X145950590Y-97621994D01*
X146000000Y-97632000D01*
X154500000Y-97632000D01*
X154546159Y-97623315D01*
X154588553Y-97596035D01*
X154616994Y-97554410D01*
X154627000Y-97505000D01*
X154627000Y-96918779D01*
X168172849Y-96918779D01*
X168298487Y-97222846D01*
X168530922Y-97455688D01*
X168834770Y-97581856D01*
X169163771Y-97582143D01*
X169467838Y-97456505D01*
X169700680Y-97224070D01*
X169826848Y-96920222D01*
X169827135Y-96591221D01*
X169701497Y-96287154D01*
X169469062Y-96054312D01*
X169165214Y-95928144D01*
X168836213Y-95927857D01*
X168532146Y-96053495D01*
X168299304Y-96285930D01*
X168173136Y-96589778D01*
X168172849Y-96918779D01*
X154627000Y-96918779D01*
X154627000Y-96255000D01*
X154606008Y-96185063D01*
X154570447Y-96149330D01*
X154038273Y-95794547D01*
X154513473Y-95794547D01*
X154639111Y-96098614D01*
X154871546Y-96331456D01*
X155175394Y-96457624D01*
X155504395Y-96457911D01*
X155808462Y-96332273D01*
X156041304Y-96099838D01*
X156167472Y-95795990D01*
X156167759Y-95466989D01*
X156135306Y-95388445D01*
X158843226Y-95388445D01*
X158968864Y-95692512D01*
X159201299Y-95925354D01*
X159505147Y-96051522D01*
X159834148Y-96051809D01*
X160138215Y-95926171D01*
X160195693Y-95868793D01*
X164800170Y-95868793D01*
X164925808Y-96172860D01*
X165158243Y-96405702D01*
X165462091Y-96531870D01*
X165791092Y-96532157D01*
X166095159Y-96406519D01*
X166328001Y-96174084D01*
X166454169Y-95870236D01*
X166454456Y-95541235D01*
X166328818Y-95237168D01*
X166260549Y-95168779D01*
X169172857Y-95168779D01*
X169298495Y-95472846D01*
X169530930Y-95705688D01*
X169834778Y-95831856D01*
X170163779Y-95832143D01*
X170467846Y-95706505D01*
X170700688Y-95474070D01*
X170826856Y-95170222D01*
X170827143Y-94841221D01*
X170701505Y-94537154D01*
X170469070Y-94304312D01*
X170165222Y-94178144D01*
X169836221Y-94177857D01*
X169532154Y-94303495D01*
X169299312Y-94535930D01*
X169173144Y-94839778D01*
X169172857Y-95168779D01*
X166260549Y-95168779D01*
X166096383Y-95004326D01*
X165792535Y-94878158D01*
X165463534Y-94877871D01*
X165159467Y-95003509D01*
X164926625Y-95235944D01*
X164800457Y-95539792D01*
X164800170Y-95868793D01*
X160195693Y-95868793D01*
X160371057Y-95693736D01*
X160497225Y-95389888D01*
X160497512Y-95060887D01*
X160371874Y-94756820D01*
X160139439Y-94523978D01*
X159835591Y-94397810D01*
X159506590Y-94397523D01*
X159202523Y-94523161D01*
X158969681Y-94755596D01*
X158843513Y-95059444D01*
X158843226Y-95388445D01*
X156135306Y-95388445D01*
X156042121Y-95162922D01*
X155809686Y-94930080D01*
X155505838Y-94803912D01*
X155176837Y-94803625D01*
X154872770Y-94929263D01*
X154639928Y-95161698D01*
X154513760Y-95465546D01*
X154513473Y-95794547D01*
X154038273Y-95794547D01*
X150820447Y-93649330D01*
X150750000Y-93628000D01*
X146000000Y-93628000D01*
X145953841Y-93636685D01*
X145911447Y-93663965D01*
X145883006Y-93705590D01*
X145873000Y-93755000D01*
X135752000Y-93755000D01*
X135752000Y-92663779D01*
X151522857Y-92663779D01*
X151648495Y-92967846D01*
X151880930Y-93200688D01*
X152184778Y-93326856D01*
X152513779Y-93327143D01*
X152817846Y-93201505D01*
X152875289Y-93144162D01*
X152879577Y-93148458D01*
X153183425Y-93274626D01*
X153512426Y-93274913D01*
X153816493Y-93149275D01*
X153952226Y-93013779D01*
X156397867Y-93013779D01*
X156523505Y-93317846D01*
X156755940Y-93550688D01*
X157059788Y-93676856D01*
X157388789Y-93677143D01*
X157692856Y-93551505D01*
X157925698Y-93319070D01*
X157930903Y-93306533D01*
X162747900Y-93306533D01*
X162873538Y-93610600D01*
X163105973Y-93843442D01*
X163409821Y-93969610D01*
X163738822Y-93969897D01*
X164042889Y-93844259D01*
X164274082Y-93613470D01*
X164323549Y-93733190D01*
X164555984Y-93966032D01*
X164859832Y-94092200D01*
X165188833Y-94092487D01*
X165492900Y-93966849D01*
X165533657Y-93926164D01*
X165555841Y-93948387D01*
X165859689Y-94074555D01*
X166188690Y-94074842D01*
X166492757Y-93949204D01*
X166725599Y-93716769D01*
X166851767Y-93412921D01*
X166852054Y-93083920D01*
X166726416Y-92779853D01*
X166493981Y-92547011D01*
X166190133Y-92420843D01*
X165861132Y-92420556D01*
X165557065Y-92546194D01*
X165516308Y-92586879D01*
X165494124Y-92564656D01*
X165190276Y-92438488D01*
X164861275Y-92438201D01*
X164557208Y-92563839D01*
X164326015Y-92794628D01*
X164276548Y-92674908D01*
X164044113Y-92442066D01*
X163740265Y-92315898D01*
X163411264Y-92315611D01*
X163107197Y-92441249D01*
X162874355Y-92673684D01*
X162748187Y-92977532D01*
X162747900Y-93306533D01*
X157930903Y-93306533D01*
X158051866Y-93015222D01*
X158052153Y-92686221D01*
X157957506Y-92457158D01*
X157995560Y-92472959D01*
X158324561Y-92473246D01*
X158628628Y-92347608D01*
X158861470Y-92115173D01*
X158987638Y-91811325D01*
X158987925Y-91482324D01*
X158862287Y-91178257D01*
X158629852Y-90945415D01*
X158326004Y-90819247D01*
X158067986Y-90819022D01*
X157951505Y-90537116D01*
X157767656Y-90352945D01*
X162513812Y-90352945D01*
X162639450Y-90657012D01*
X162871885Y-90889854D01*
X163175733Y-91016022D01*
X163504734Y-91016309D01*
X163808801Y-90890671D01*
X164041643Y-90658236D01*
X164167811Y-90354388D01*
X164168098Y-90025387D01*
X164042460Y-89721320D01*
X163810025Y-89488478D01*
X163506177Y-89362310D01*
X163177176Y-89362023D01*
X162873109Y-89487661D01*
X162640267Y-89720096D01*
X162514099Y-90023944D01*
X162513812Y-90352945D01*
X157767656Y-90352945D01*
X157719070Y-90304274D01*
X157415222Y-90178106D01*
X157086221Y-90177819D01*
X156782154Y-90303457D01*
X156549312Y-90535892D01*
X156423144Y-90839740D01*
X156422857Y-91168741D01*
X156548495Y-91472808D01*
X156780930Y-91705650D01*
X157084778Y-91831818D01*
X157342796Y-91832043D01*
X157428286Y-92038945D01*
X157390232Y-92023144D01*
X157061231Y-92022857D01*
X156757164Y-92148495D01*
X156524322Y-92380930D01*
X156398154Y-92684778D01*
X156397867Y-93013779D01*
X153952226Y-93013779D01*
X154049335Y-92916840D01*
X154175503Y-92612992D01*
X154175790Y-92283991D01*
X154050152Y-91979924D01*
X153817717Y-91747082D01*
X153513869Y-91620914D01*
X153184868Y-91620627D01*
X152880801Y-91746265D01*
X152823358Y-91803608D01*
X152819070Y-91799312D01*
X152515222Y-91673144D01*
X152186221Y-91672857D01*
X151882154Y-91798495D01*
X151649312Y-92030930D01*
X151523144Y-92334778D01*
X151522857Y-92663779D01*
X135752000Y-92663779D01*
X135752000Y-89763779D01*
X145772857Y-89763779D01*
X145898495Y-90067846D01*
X146130930Y-90300688D01*
X146434778Y-90426856D01*
X146763779Y-90427143D01*
X147067846Y-90301505D01*
X147300688Y-90069070D01*
X147426856Y-89765222D01*
X147426857Y-89763779D01*
X149872857Y-89763779D01*
X149998495Y-90067846D01*
X150230930Y-90300688D01*
X150534778Y-90426856D01*
X150863779Y-90427143D01*
X151167846Y-90301505D01*
X151400688Y-90069070D01*
X151526856Y-89765222D01*
X151527143Y-89436221D01*
X151401505Y-89132154D01*
X151169070Y-88899312D01*
X150865222Y-88773144D01*
X150536221Y-88772857D01*
X150232154Y-88898495D01*
X149999312Y-89130930D01*
X149873144Y-89434778D01*
X149872857Y-89763779D01*
X147426857Y-89763779D01*
X147427143Y-89436221D01*
X147301505Y-89132154D01*
X147069070Y-88899312D01*
X146765222Y-88773144D01*
X146436221Y-88772857D01*
X146132154Y-88898495D01*
X145899312Y-89130930D01*
X145773144Y-89434778D01*
X145772857Y-89763779D01*
X135752000Y-89763779D01*
X135752000Y-87787530D01*
X156447665Y-87787530D01*
X156573303Y-88091597D01*
X156630973Y-88149368D01*
X156574312Y-88205930D01*
X156448144Y-88509778D01*
X156447857Y-88838779D01*
X156573495Y-89142846D01*
X156805930Y-89375688D01*
X157109778Y-89501856D01*
X157438779Y-89502143D01*
X157742846Y-89376505D01*
X157975688Y-89144070D01*
X158101856Y-88840222D01*
X158102143Y-88511221D01*
X157976505Y-88207154D01*
X157938198Y-88168779D01*
X169172857Y-88168779D01*
X169298495Y-88472846D01*
X169530930Y-88705688D01*
X169834778Y-88831856D01*
X170163779Y-88832143D01*
X170467846Y-88706505D01*
X170700688Y-88474070D01*
X170826856Y-88170222D01*
X170827143Y-87841221D01*
X170701505Y-87537154D01*
X170469070Y-87304312D01*
X170165222Y-87178144D01*
X169836221Y-87177857D01*
X169532154Y-87303495D01*
X169299312Y-87535930D01*
X169173144Y-87839778D01*
X169172857Y-88168779D01*
X157938198Y-88168779D01*
X157918835Y-88149383D01*
X157975496Y-88092821D01*
X158101664Y-87788973D01*
X158101951Y-87459972D01*
X157994544Y-87200028D01*
X158100688Y-87094070D01*
X158226856Y-86790222D01*
X158227143Y-86461221D01*
X158101505Y-86157154D01*
X157869070Y-85924312D01*
X157565222Y-85798144D01*
X157236221Y-85797857D01*
X156932154Y-85923495D01*
X156699312Y-86155930D01*
X156573144Y-86459778D01*
X156572857Y-86788779D01*
X156680264Y-87048723D01*
X156574120Y-87154681D01*
X156447952Y-87458529D01*
X156447665Y-87787530D01*
X135752000Y-87787530D01*
X135752000Y-83636034D01*
X136442787Y-84328028D01*
X137775380Y-84881369D01*
X139218290Y-84882628D01*
X140551846Y-84331614D01*
X141573028Y-83312213D01*
X141673603Y-83070000D01*
X143594635Y-83070000D01*
X143594635Y-84570000D01*
X143624409Y-84728237D01*
X143717927Y-84873567D01*
X143860619Y-84971064D01*
X144030000Y-85005365D01*
X145530000Y-85005365D01*
X145688237Y-84975591D01*
X145833567Y-84882073D01*
X145931064Y-84739381D01*
X145965365Y-84570000D01*
X145965365Y-84053093D01*
X146142796Y-84053093D01*
X146321606Y-84485846D01*
X146652412Y-84817230D01*
X147084853Y-84996795D01*
X147553093Y-84997204D01*
X147985846Y-84818394D01*
X148317230Y-84487588D01*
X148496795Y-84055147D01*
X148496796Y-84053093D01*
X148682796Y-84053093D01*
X148861606Y-84485846D01*
X149192412Y-84817230D01*
X149624853Y-84996795D01*
X150093093Y-84997204D01*
X150525846Y-84818394D01*
X150857230Y-84487588D01*
X151036795Y-84055147D01*
X151036796Y-84053093D01*
X151222796Y-84053093D01*
X151401606Y-84485846D01*
X151732412Y-84817230D01*
X152164853Y-84996795D01*
X152633093Y-84997204D01*
X153065846Y-84818394D01*
X153092769Y-84791517D01*
X154148088Y-84791517D01*
X154216077Y-85032460D01*
X154735171Y-85217201D01*
X155285448Y-85189230D01*
X155663923Y-85032460D01*
X155681892Y-84968779D01*
X163422857Y-84968779D01*
X163548495Y-85272846D01*
X163780930Y-85505688D01*
X164084778Y-85631856D01*
X164413779Y-85632143D01*
X164717846Y-85506505D01*
X164950688Y-85274070D01*
X165076856Y-84970222D01*
X165077143Y-84641221D01*
X164951505Y-84337154D01*
X164719070Y-84104312D01*
X164415222Y-83978144D01*
X164086221Y-83977857D01*
X163782154Y-84103495D01*
X163549312Y-84335930D01*
X163423144Y-84639778D01*
X163422857Y-84968779D01*
X155681892Y-84968779D01*
X155731912Y-84791517D01*
X154940000Y-83999605D01*
X154148088Y-84791517D01*
X153092769Y-84791517D01*
X153397230Y-84487588D01*
X153566432Y-84080104D01*
X153570770Y-84165448D01*
X153727540Y-84543923D01*
X153968483Y-84611912D01*
X154760395Y-83820000D01*
X155119605Y-83820000D01*
X155911517Y-84611912D01*
X156152460Y-84543923D01*
X156337201Y-84024829D01*
X156309230Y-83474552D01*
X156152460Y-83096077D01*
X156055720Y-83068779D01*
X157872857Y-83068779D01*
X157998495Y-83372846D01*
X158230930Y-83605688D01*
X158534778Y-83731856D01*
X158863779Y-83732143D01*
X159167846Y-83606505D01*
X159240936Y-83533543D01*
X159298495Y-83672846D01*
X159530930Y-83905688D01*
X159834778Y-84031856D01*
X160163779Y-84032143D01*
X160467846Y-83906505D01*
X160700688Y-83674070D01*
X160826856Y-83370222D01*
X160827143Y-83041221D01*
X160701505Y-82737154D01*
X160469070Y-82504312D01*
X160165222Y-82378144D01*
X159836221Y-82377857D01*
X159532154Y-82503495D01*
X159459064Y-82576457D01*
X159401505Y-82437154D01*
X159169070Y-82204312D01*
X158865222Y-82078144D01*
X158536221Y-82077857D01*
X158232154Y-82203495D01*
X157999312Y-82435930D01*
X157873144Y-82739778D01*
X157872857Y-83068779D01*
X156055720Y-83068779D01*
X155911517Y-83028088D01*
X155119605Y-83820000D01*
X154760395Y-83820000D01*
X153968483Y-83028088D01*
X153727540Y-83096077D01*
X153564124Y-83555251D01*
X153398394Y-83154154D01*
X153067588Y-82822770D01*
X152635147Y-82643205D01*
X152166907Y-82642796D01*
X151734154Y-82821606D01*
X151402770Y-83152412D01*
X151223205Y-83584853D01*
X151222796Y-84053093D01*
X151036796Y-84053093D01*
X151037204Y-83586907D01*
X150858394Y-83154154D01*
X150527588Y-82822770D01*
X150120104Y-82653568D01*
X150205448Y-82649230D01*
X150583923Y-82492460D01*
X150651912Y-82251517D01*
X149860000Y-81459605D01*
X149068088Y-82251517D01*
X149136077Y-82492460D01*
X149595251Y-82655876D01*
X149194154Y-82821606D01*
X148862770Y-83152412D01*
X148683205Y-83584853D01*
X148682796Y-84053093D01*
X148496796Y-84053093D01*
X148497204Y-83586907D01*
X148318394Y-83154154D01*
X147987588Y-82822770D01*
X147555147Y-82643205D01*
X147086907Y-82642796D01*
X146654154Y-82821606D01*
X146322770Y-83152412D01*
X146143205Y-83584853D01*
X146142796Y-84053093D01*
X145965365Y-84053093D01*
X145965365Y-83070000D01*
X145935591Y-82911763D01*
X145842073Y-82766433D01*
X145699381Y-82668936D01*
X145530000Y-82634635D01*
X144030000Y-82634635D01*
X143871763Y-82664409D01*
X143726433Y-82757927D01*
X143628936Y-82900619D01*
X143594635Y-83070000D01*
X141673603Y-83070000D01*
X142126369Y-81979620D01*
X142127628Y-80536710D01*
X142124856Y-80530000D01*
X143594635Y-80530000D01*
X143594635Y-82030000D01*
X143624409Y-82188237D01*
X143717927Y-82333567D01*
X143860619Y-82431064D01*
X144030000Y-82465365D01*
X145530000Y-82465365D01*
X145688237Y-82435591D01*
X145833567Y-82342073D01*
X145931064Y-82199381D01*
X145965365Y-82030000D01*
X145965365Y-81513093D01*
X146142796Y-81513093D01*
X146321606Y-81945846D01*
X146652412Y-82277230D01*
X147084853Y-82456795D01*
X147553093Y-82457204D01*
X147985846Y-82278394D01*
X148317230Y-81947588D01*
X148486432Y-81540104D01*
X148490770Y-81625448D01*
X148647540Y-82003923D01*
X148888483Y-82071912D01*
X149680395Y-81280000D01*
X150039605Y-81280000D01*
X150831517Y-82071912D01*
X151072460Y-82003923D01*
X151235876Y-81544749D01*
X151401606Y-81945846D01*
X151732412Y-82277230D01*
X152164853Y-82456795D01*
X152633093Y-82457204D01*
X153065846Y-82278394D01*
X153397230Y-81947588D01*
X153576795Y-81515147D01*
X153576796Y-81513093D01*
X153762796Y-81513093D01*
X153941606Y-81945846D01*
X154272412Y-82277230D01*
X154679896Y-82446432D01*
X154594552Y-82450770D01*
X154216077Y-82607540D01*
X154148088Y-82848483D01*
X154940000Y-83640395D01*
X155731912Y-82848483D01*
X155663923Y-82607540D01*
X155204749Y-82444124D01*
X155605846Y-82278394D01*
X155937230Y-81947588D01*
X156116795Y-81515147D01*
X156116796Y-81513093D01*
X156302796Y-81513093D01*
X156481606Y-81945846D01*
X156812412Y-82277230D01*
X157244853Y-82456795D01*
X157713093Y-82457204D01*
X158145846Y-82278394D01*
X158477230Y-81947588D01*
X158656795Y-81515147D01*
X158657204Y-81046907D01*
X158478394Y-80614154D01*
X158147588Y-80282770D01*
X157715147Y-80103205D01*
X157246907Y-80102796D01*
X156814154Y-80281606D01*
X156482770Y-80612412D01*
X156303205Y-81044853D01*
X156302796Y-81513093D01*
X156116796Y-81513093D01*
X156117204Y-81046907D01*
X155938394Y-80614154D01*
X155607588Y-80282770D01*
X155175147Y-80103205D01*
X154706907Y-80102796D01*
X154274154Y-80281606D01*
X153942770Y-80612412D01*
X153763205Y-81044853D01*
X153762796Y-81513093D01*
X153576796Y-81513093D01*
X153577204Y-81046907D01*
X153398394Y-80614154D01*
X153067588Y-80282770D01*
X152635147Y-80103205D01*
X152166907Y-80102796D01*
X151734154Y-80281606D01*
X151402770Y-80612412D01*
X151233568Y-81019896D01*
X151229230Y-80934552D01*
X151072460Y-80556077D01*
X150831517Y-80488088D01*
X150039605Y-81280000D01*
X149680395Y-81280000D01*
X148888483Y-80488088D01*
X148647540Y-80556077D01*
X148484124Y-81015251D01*
X148318394Y-80614154D01*
X148013257Y-80308483D01*
X149068088Y-80308483D01*
X149860000Y-81100395D01*
X150651912Y-80308483D01*
X150583923Y-80067540D01*
X150064829Y-79882799D01*
X149514552Y-79910770D01*
X149136077Y-80067540D01*
X149068088Y-80308483D01*
X148013257Y-80308483D01*
X147987588Y-80282770D01*
X147555147Y-80103205D01*
X147086907Y-80102796D01*
X146654154Y-80281606D01*
X146322770Y-80612412D01*
X146143205Y-81044853D01*
X146142796Y-81513093D01*
X145965365Y-81513093D01*
X145965365Y-80530000D01*
X145935591Y-80371763D01*
X145842073Y-80226433D01*
X145699381Y-80128936D01*
X145530000Y-80094635D01*
X144030000Y-80094635D01*
X143871763Y-80124409D01*
X143726433Y-80217927D01*
X143628936Y-80360619D01*
X143594635Y-80530000D01*
X142124856Y-80530000D01*
X141576614Y-79203154D01*
X140881674Y-78507000D01*
X161228291Y-78507000D01*
X161199310Y-78535930D01*
X161199310Y-78535930D01*
G37*
X161199310Y-78535930D02*
X161073142Y-78839778D01*
X161072855Y-79168779D01*
X161198493Y-79472846D01*
X161430928Y-79705688D01*
X161734776Y-79831856D01*
X162063777Y-79832143D01*
X162201062Y-79775418D01*
X162430930Y-80005688D01*
X162734778Y-80131856D01*
X163063779Y-80132143D01*
X163214607Y-80069822D01*
X163298495Y-80272846D01*
X163530930Y-80505688D01*
X163834778Y-80631856D01*
X164163779Y-80632143D01*
X164467846Y-80506505D01*
X164700688Y-80274070D01*
X164826856Y-79970222D01*
X164827143Y-79641221D01*
X164701505Y-79337154D01*
X164469070Y-79104312D01*
X164165222Y-78978144D01*
X163836221Y-78977857D01*
X163685393Y-79040178D01*
X163601505Y-78837154D01*
X163369070Y-78604312D01*
X163134715Y-78507000D01*
X171623000Y-78507000D01*
X171623000Y-81937032D01*
X170929553Y-82399330D01*
X170893992Y-82435063D01*
X170873000Y-82505000D01*
X170873000Y-100255000D01*
X170883006Y-100304410D01*
X170910197Y-100344803D01*
X171373000Y-100807606D01*
X171373000Y-104202394D01*
X170910197Y-104665197D01*
X170882334Y-104707211D01*
X170873000Y-104755000D01*
X170873000Y-106450842D01*
X170712927Y-106290489D01*
X170409079Y-106164321D01*
X170080078Y-106164034D01*
X169776011Y-106289672D01*
X169543169Y-106522107D01*
X169417001Y-106825955D01*
X169416714Y-107154956D01*
X169542352Y-107459023D01*
X169640444Y-107557287D01*
X169523144Y-107839778D01*
X169522857Y-108168779D01*
X169648495Y-108472846D01*
X169880930Y-108705688D01*
X170184778Y-108831856D01*
X170513779Y-108832143D01*
X170817846Y-108706505D01*
X170873000Y-108651447D01*
X170873000Y-111755000D01*
X170883006Y-111804410D01*
X170911447Y-111846035D01*
X170943204Y-111868592D01*
X172873000Y-112833490D01*
X172873000Y-115503000D01*
X140881034Y-115503000D01*
X141573028Y-114812213D01*
X142126369Y-113479620D01*
X142126640Y-113168779D01*
X164322778Y-113168779D01*
X164448416Y-113472846D01*
X164680851Y-113705688D01*
X164984699Y-113831856D01*
X165313700Y-113832143D01*
X165617767Y-113706505D01*
X165850609Y-113474070D01*
X165976777Y-113170222D01*
X165977064Y-112841221D01*
X165851426Y-112537154D01*
X165618991Y-112304312D01*
X165315143Y-112178144D01*
X164986142Y-112177857D01*
X164682075Y-112303495D01*
X164449233Y-112535930D01*
X164323065Y-112839778D01*
X164322778Y-113168779D01*
X142126640Y-113168779D01*
X142127628Y-112036710D01*
X141576614Y-110703154D01*
X141292735Y-110418779D01*
X143422857Y-110418779D01*
X143548495Y-110722846D01*
X143780930Y-110955688D01*
X144084778Y-111081856D01*
X144413779Y-111082143D01*
X144588378Y-111010000D01*
X146134635Y-111010000D01*
X146134635Y-112510000D01*
X146164409Y-112668237D01*
X146257927Y-112813567D01*
X146400619Y-112911064D01*
X146570000Y-112945365D01*
X148070000Y-112945365D01*
X148228237Y-112915591D01*
X148373567Y-112822073D01*
X148471064Y-112679381D01*
X148505365Y-112510000D01*
X148505365Y-111993093D01*
X148682796Y-111993093D01*
X148861606Y-112425846D01*
X149192412Y-112757230D01*
X149624853Y-112936795D01*
X150093093Y-112937204D01*
X150525846Y-112758394D01*
X150857230Y-112427588D01*
X151036795Y-111995147D01*
X151036796Y-111993093D01*
X151222796Y-111993093D01*
X151401606Y-112425846D01*
X151732412Y-112757230D01*
X152164853Y-112936795D01*
X152633093Y-112937204D01*
X153065846Y-112758394D01*
X153397230Y-112427588D01*
X153576795Y-111995147D01*
X153576796Y-111993093D01*
X153762796Y-111993093D01*
X153941606Y-112425846D01*
X154272412Y-112757230D01*
X154704853Y-112936795D01*
X155173093Y-112937204D01*
X155605846Y-112758394D01*
X155632769Y-112731517D01*
X156688088Y-112731517D01*
X156756077Y-112972460D01*
X157275171Y-113157201D01*
X157825448Y-113129230D01*
X158203923Y-112972460D01*
X158271912Y-112731517D01*
X157480000Y-111939605D01*
X156688088Y-112731517D01*
X155632769Y-112731517D01*
X155937230Y-112427588D01*
X156106432Y-112020104D01*
X156110770Y-112105448D01*
X156267540Y-112483923D01*
X156508483Y-112551912D01*
X157300395Y-111760000D01*
X156508483Y-110968088D01*
X156267540Y-111036077D01*
X156104124Y-111495251D01*
X155938394Y-111094154D01*
X155633257Y-110788483D01*
X156688088Y-110788483D01*
X157480000Y-111580395D01*
X157494143Y-111566253D01*
X157673748Y-111745858D01*
X157659605Y-111760000D01*
X158451517Y-112551912D01*
X158692460Y-112483923D01*
X158877201Y-111964829D01*
X158849230Y-111414552D01*
X158710920Y-111080643D01*
X158730930Y-111100688D01*
X159034778Y-111226856D01*
X159363779Y-111227143D01*
X159667846Y-111101505D01*
X159900688Y-110869070D01*
X160026856Y-110565222D01*
X160027143Y-110236221D01*
X159901505Y-109932154D01*
X159669070Y-109699312D01*
X159365222Y-109573144D01*
X159036221Y-109572857D01*
X158732154Y-109698495D01*
X158499312Y-109930930D01*
X158373144Y-110234778D01*
X158372857Y-110563779D01*
X158440129Y-110726589D01*
X158386966Y-110673426D01*
X158271911Y-110788481D01*
X158203923Y-110547540D01*
X157684829Y-110362799D01*
X157134552Y-110390770D01*
X156756077Y-110547540D01*
X156688088Y-110788483D01*
X155633257Y-110788483D01*
X155607588Y-110762770D01*
X155175147Y-110583205D01*
X154706907Y-110582796D01*
X154274154Y-110761606D01*
X153942770Y-111092412D01*
X153763205Y-111524853D01*
X153762796Y-111993093D01*
X153576796Y-111993093D01*
X153577204Y-111526907D01*
X153398394Y-111094154D01*
X153067588Y-110762770D01*
X152635147Y-110583205D01*
X152166907Y-110582796D01*
X151734154Y-110761606D01*
X151402770Y-111092412D01*
X151223205Y-111524853D01*
X151222796Y-111993093D01*
X151036796Y-111993093D01*
X151037204Y-111526907D01*
X150858394Y-111094154D01*
X150527588Y-110762770D01*
X150095147Y-110583205D01*
X149626907Y-110582796D01*
X149194154Y-110761606D01*
X148862770Y-111092412D01*
X148683205Y-111524853D01*
X148682796Y-111993093D01*
X148505365Y-111993093D01*
X148505365Y-111010000D01*
X148475591Y-110851763D01*
X148382073Y-110706433D01*
X148239381Y-110608936D01*
X148070000Y-110574635D01*
X146570000Y-110574635D01*
X146411763Y-110604409D01*
X146266433Y-110697927D01*
X146168936Y-110840619D01*
X146134635Y-111010000D01*
X144588378Y-111010000D01*
X144717846Y-110956505D01*
X144950688Y-110724070D01*
X145076856Y-110420222D01*
X145077143Y-110091221D01*
X144951505Y-109787154D01*
X144719070Y-109554312D01*
X144415222Y-109428144D01*
X144086221Y-109427857D01*
X143782154Y-109553495D01*
X143549312Y-109785930D01*
X143423144Y-110089778D01*
X143422857Y-110418779D01*
X141292735Y-110418779D01*
X140557213Y-109681972D01*
X139224620Y-109128631D01*
X137781710Y-109127372D01*
X136448154Y-109678386D01*
X135752000Y-110373326D01*
X135752000Y-107413779D01*
X151672857Y-107413779D01*
X151798495Y-107717846D01*
X152030930Y-107950688D01*
X152334778Y-108076856D01*
X152663779Y-108077143D01*
X152967846Y-107951505D01*
X153200688Y-107719070D01*
X153249966Y-107600396D01*
X153298495Y-107717846D01*
X153530930Y-107950688D01*
X153834778Y-108076856D01*
X154163779Y-108077143D01*
X154467846Y-107951505D01*
X154700688Y-107719070D01*
X154710610Y-107695175D01*
X159566780Y-107695175D01*
X159692418Y-107999242D01*
X159924853Y-108232084D01*
X160228701Y-108358252D01*
X160557702Y-108358539D01*
X160861769Y-108232901D01*
X161072225Y-108022813D01*
X161229845Y-108180709D01*
X161533693Y-108306877D01*
X161862694Y-108307164D01*
X162166761Y-108181526D01*
X162399603Y-107949091D01*
X162525771Y-107645243D01*
X162526058Y-107316242D01*
X162400420Y-107012175D01*
X162167985Y-106779333D01*
X161864137Y-106653165D01*
X161535136Y-106652878D01*
X161231069Y-106778516D01*
X161020613Y-106988604D01*
X160862993Y-106830708D01*
X160559145Y-106704540D01*
X160230144Y-106704253D01*
X159926077Y-106829891D01*
X159693235Y-107062326D01*
X159567067Y-107366174D01*
X159566780Y-107695175D01*
X154710610Y-107695175D01*
X154826856Y-107415222D01*
X154827143Y-107086221D01*
X154701505Y-106782154D01*
X154469070Y-106549312D01*
X154165222Y-106423144D01*
X153836221Y-106422857D01*
X153532154Y-106548495D01*
X153299312Y-106780930D01*
X153250034Y-106899604D01*
X153201505Y-106782154D01*
X152969070Y-106549312D01*
X152665222Y-106423144D01*
X152336221Y-106422857D01*
X152032154Y-106548495D01*
X151799312Y-106780930D01*
X151673144Y-107084778D01*
X151672857Y-107413779D01*
X135752000Y-107413779D01*
X135752000Y-106663779D01*
X146672857Y-106663779D01*
X146798495Y-106967846D01*
X147030930Y-107200688D01*
X147334778Y-107326856D01*
X147663779Y-107327143D01*
X147967846Y-107201505D01*
X148200688Y-106969070D01*
X148326856Y-106665222D01*
X148327143Y-106336221D01*
X148201505Y-106032154D01*
X147969070Y-105799312D01*
X147665222Y-105673144D01*
X147336221Y-105672857D01*
X147032154Y-105798495D01*
X146799312Y-106030930D01*
X146673144Y-106334778D01*
X146672857Y-106663779D01*
X135752000Y-106663779D01*
X135752000Y-105668779D01*
X153672857Y-105668779D01*
X153798495Y-105972846D01*
X154030930Y-106205688D01*
X154334778Y-106331856D01*
X154663779Y-106332143D01*
X154967846Y-106206505D01*
X155200688Y-105974070D01*
X155244408Y-105868779D01*
X158872857Y-105868779D01*
X158998495Y-106172846D01*
X159230930Y-106405688D01*
X159534778Y-106531856D01*
X159863779Y-106532143D01*
X160167846Y-106406505D01*
X160252527Y-106321972D01*
X160430930Y-106500688D01*
X160734778Y-106626856D01*
X161063779Y-106627143D01*
X161367846Y-106501505D01*
X161600688Y-106269070D01*
X161726856Y-105965222D01*
X161727114Y-105668779D01*
X161772857Y-105668779D01*
X161898495Y-105972846D01*
X162130930Y-106205688D01*
X162434778Y-106331856D01*
X162763779Y-106332143D01*
X163067846Y-106206505D01*
X163300688Y-105974070D01*
X163426856Y-105670222D01*
X163427143Y-105341221D01*
X163417099Y-105316912D01*
X163568270Y-105468348D01*
X163872118Y-105594516D01*
X164201119Y-105594803D01*
X164505186Y-105469165D01*
X164738028Y-105236730D01*
X164864196Y-104932882D01*
X164864483Y-104603881D01*
X164738845Y-104299814D01*
X164506410Y-104066972D01*
X164202562Y-103940804D01*
X164095279Y-103940710D01*
X164220055Y-103640214D01*
X164220342Y-103311213D01*
X164094704Y-103007146D01*
X163862269Y-102774304D01*
X163558421Y-102648136D01*
X163229420Y-102647849D01*
X162925353Y-102773487D01*
X162692511Y-103005922D01*
X162566343Y-103309770D01*
X162566056Y-103638771D01*
X162691694Y-103942838D01*
X162924129Y-104175680D01*
X163227977Y-104301848D01*
X163335260Y-104301942D01*
X163210484Y-104602438D01*
X163210197Y-104931439D01*
X163220241Y-104955748D01*
X163069070Y-104804312D01*
X162765222Y-104678144D01*
X162436221Y-104677857D01*
X162132154Y-104803495D01*
X161899312Y-105035930D01*
X161773144Y-105339778D01*
X161772857Y-105668779D01*
X161727114Y-105668779D01*
X161727143Y-105636221D01*
X161601505Y-105332154D01*
X161369070Y-105099312D01*
X161065222Y-104973144D01*
X160736221Y-104972857D01*
X160432154Y-105098495D01*
X160347473Y-105183028D01*
X160169070Y-105004312D01*
X159865222Y-104878144D01*
X159536221Y-104877857D01*
X159232154Y-105003495D01*
X158999312Y-105235930D01*
X158873144Y-105539778D01*
X158872857Y-105868779D01*
X155244408Y-105868779D01*
X155326856Y-105670222D01*
X155327143Y-105341221D01*
X155201505Y-105037154D01*
X154969070Y-104804312D01*
X154665222Y-104678144D01*
X154336221Y-104677857D01*
X154032154Y-104803495D01*
X153799312Y-105035930D01*
X153673144Y-105339778D01*
X153672857Y-105668779D01*
X135752000Y-105668779D01*
X135752000Y-102418779D01*
X142922859Y-102418779D01*
X143048497Y-102722846D01*
X143280932Y-102955688D01*
X143584780Y-103081856D01*
X143913781Y-103082143D01*
X143958225Y-103063779D01*
X154072857Y-103063779D01*
X154198495Y-103367846D01*
X154430930Y-103600688D01*
X154734778Y-103726856D01*
X155063779Y-103727143D01*
X155367846Y-103601505D01*
X155600688Y-103369070D01*
X155726856Y-103065222D01*
X155727143Y-102736221D01*
X155601505Y-102432154D01*
X155369070Y-102199312D01*
X155065222Y-102073144D01*
X154736221Y-102072857D01*
X154432154Y-102198495D01*
X154199312Y-102430930D01*
X154073144Y-102734778D01*
X154072857Y-103063779D01*
X143958225Y-103063779D01*
X144217848Y-102956505D01*
X144450690Y-102724070D01*
X144576858Y-102420222D01*
X144577145Y-102091221D01*
X144451507Y-101787154D01*
X144219072Y-101554312D01*
X144001044Y-101463779D01*
X153172857Y-101463779D01*
X153298495Y-101767846D01*
X153530930Y-102000688D01*
X153834778Y-102126856D01*
X154163779Y-102127143D01*
X154467846Y-102001505D01*
X154700688Y-101769070D01*
X154826856Y-101465222D01*
X154827143Y-101136221D01*
X154701505Y-100832154D01*
X154469070Y-100599312D01*
X154165222Y-100473144D01*
X153836221Y-100472857D01*
X153532154Y-100598495D01*
X153299312Y-100830930D01*
X153173144Y-101134778D01*
X153172857Y-101463779D01*
X144001044Y-101463779D01*
X143915224Y-101428144D01*
X143586223Y-101427857D01*
X143282156Y-101553495D01*
X143049314Y-101785930D01*
X142923146Y-102089778D01*
X142922859Y-102418779D01*
X135752000Y-102418779D01*
X135752000Y-100663779D01*
X149772857Y-100663779D01*
X149898495Y-100967846D01*
X150130930Y-101200688D01*
X150434778Y-101326856D01*
X150763779Y-101327143D01*
X151067846Y-101201505D01*
X151300688Y-100969070D01*
X151426856Y-100665222D01*
X151427143Y-100336221D01*
X151350661Y-100151119D01*
X158185517Y-100151119D01*
X158311155Y-100455186D01*
X158543590Y-100688028D01*
X158847438Y-100814196D01*
X159176439Y-100814483D01*
X159480506Y-100688845D01*
X159660271Y-100509395D01*
X159834778Y-100581856D01*
X160163779Y-100582143D01*
X160467846Y-100456505D01*
X160700688Y-100224070D01*
X160826856Y-99920222D01*
X160827143Y-99591221D01*
X160701505Y-99287154D01*
X160469070Y-99054312D01*
X160232895Y-98956244D01*
X160449064Y-98866925D01*
X160681906Y-98634490D01*
X160808074Y-98330642D01*
X160808361Y-98001641D01*
X160682723Y-97697574D01*
X160450288Y-97464732D01*
X160146440Y-97338564D01*
X159817439Y-97338277D01*
X159513372Y-97463915D01*
X159280530Y-97696350D01*
X159154362Y-98000198D01*
X159154075Y-98329199D01*
X159279713Y-98633266D01*
X159512148Y-98866108D01*
X159748323Y-98964176D01*
X159532154Y-99053495D01*
X159352389Y-99232945D01*
X159177882Y-99160484D01*
X158848881Y-99160197D01*
X158544814Y-99285835D01*
X158311972Y-99518270D01*
X158185804Y-99822118D01*
X158185517Y-100151119D01*
X151350661Y-100151119D01*
X151321878Y-100081461D01*
X151412291Y-99991206D01*
X151538459Y-99687358D01*
X151538746Y-99358357D01*
X151413108Y-99054290D01*
X151180673Y-98821448D01*
X150876825Y-98695280D01*
X150547824Y-98694993D01*
X150243757Y-98820631D01*
X150010915Y-99053066D01*
X149884747Y-99356914D01*
X149884460Y-99685915D01*
X149989725Y-99940675D01*
X149899312Y-100030930D01*
X149773144Y-100334778D01*
X149772857Y-100663779D01*
X135752000Y-100663779D01*
X135752000Y-99068779D01*
X143622857Y-99068779D01*
X143748495Y-99372846D01*
X143980930Y-99605688D01*
X144284778Y-99731856D01*
X144613779Y-99732143D01*
X144917846Y-99606505D01*
X145150688Y-99374070D01*
X145276856Y-99070222D01*
X145277143Y-98741221D01*
X145151505Y-98437154D01*
X144919070Y-98204312D01*
X144615222Y-98078144D01*
X144286221Y-98077857D01*
X143982154Y-98203495D01*
X143749312Y-98435930D01*
X143623144Y-98739778D01*
X143622857Y-99068779D01*
X135752000Y-99068779D01*
X135752000Y-93755000D01*
X145873000Y-93755000D01*
X145873000Y-97505000D01*
X145881685Y-97551159D01*
X145908965Y-97593553D01*
X145950590Y-97621994D01*
X146000000Y-97632000D01*
X154500000Y-97632000D01*
X154546159Y-97623315D01*
X154588553Y-97596035D01*
X154616994Y-97554410D01*
X154627000Y-97505000D01*
X154627000Y-96918779D01*
X168172849Y-96918779D01*
X168298487Y-97222846D01*
X168530922Y-97455688D01*
X168834770Y-97581856D01*
X169163771Y-97582143D01*
X169467838Y-97456505D01*
X169700680Y-97224070D01*
X169826848Y-96920222D01*
X169827135Y-96591221D01*
X169701497Y-96287154D01*
X169469062Y-96054312D01*
X169165214Y-95928144D01*
X168836213Y-95927857D01*
X168532146Y-96053495D01*
X168299304Y-96285930D01*
X168173136Y-96589778D01*
X168172849Y-96918779D01*
X154627000Y-96918779D01*
X154627000Y-96255000D01*
X154606008Y-96185063D01*
X154570447Y-96149330D01*
X154038273Y-95794547D01*
X154513473Y-95794547D01*
X154639111Y-96098614D01*
X154871546Y-96331456D01*
X155175394Y-96457624D01*
X155504395Y-96457911D01*
X155808462Y-96332273D01*
X156041304Y-96099838D01*
X156167472Y-95795990D01*
X156167759Y-95466989D01*
X156135306Y-95388445D01*
X158843226Y-95388445D01*
X158968864Y-95692512D01*
X159201299Y-95925354D01*
X159505147Y-96051522D01*
X159834148Y-96051809D01*
X160138215Y-95926171D01*
X160195693Y-95868793D01*
X164800170Y-95868793D01*
X164925808Y-96172860D01*
X165158243Y-96405702D01*
X165462091Y-96531870D01*
X165791092Y-96532157D01*
X166095159Y-96406519D01*
X166328001Y-96174084D01*
X166454169Y-95870236D01*
X166454456Y-95541235D01*
X166328818Y-95237168D01*
X166260549Y-95168779D01*
X169172857Y-95168779D01*
X169298495Y-95472846D01*
X169530930Y-95705688D01*
X169834778Y-95831856D01*
X170163779Y-95832143D01*
X170467846Y-95706505D01*
X170700688Y-95474070D01*
X170826856Y-95170222D01*
X170827143Y-94841221D01*
X170701505Y-94537154D01*
X170469070Y-94304312D01*
X170165222Y-94178144D01*
X169836221Y-94177857D01*
X169532154Y-94303495D01*
X169299312Y-94535930D01*
X169173144Y-94839778D01*
X169172857Y-95168779D01*
X166260549Y-95168779D01*
X166096383Y-95004326D01*
X165792535Y-94878158D01*
X165463534Y-94877871D01*
X165159467Y-95003509D01*
X164926625Y-95235944D01*
X164800457Y-95539792D01*
X164800170Y-95868793D01*
X160195693Y-95868793D01*
X160371057Y-95693736D01*
X160497225Y-95389888D01*
X160497512Y-95060887D01*
X160371874Y-94756820D01*
X160139439Y-94523978D01*
X159835591Y-94397810D01*
X159506590Y-94397523D01*
X159202523Y-94523161D01*
X158969681Y-94755596D01*
X158843513Y-95059444D01*
X158843226Y-95388445D01*
X156135306Y-95388445D01*
X156042121Y-95162922D01*
X155809686Y-94930080D01*
X155505838Y-94803912D01*
X155176837Y-94803625D01*
X154872770Y-94929263D01*
X154639928Y-95161698D01*
X154513760Y-95465546D01*
X154513473Y-95794547D01*
X154038273Y-95794547D01*
X150820447Y-93649330D01*
X150750000Y-93628000D01*
X146000000Y-93628000D01*
X145953841Y-93636685D01*
X145911447Y-93663965D01*
X145883006Y-93705590D01*
X145873000Y-93755000D01*
X135752000Y-93755000D01*
X135752000Y-92663779D01*
X151522857Y-92663779D01*
X151648495Y-92967846D01*
X151880930Y-93200688D01*
X152184778Y-93326856D01*
X152513779Y-93327143D01*
X152817846Y-93201505D01*
X152875289Y-93144162D01*
X152879577Y-93148458D01*
X153183425Y-93274626D01*
X153512426Y-93274913D01*
X153816493Y-93149275D01*
X153952226Y-93013779D01*
X156397867Y-93013779D01*
X156523505Y-93317846D01*
X156755940Y-93550688D01*
X157059788Y-93676856D01*
X157388789Y-93677143D01*
X157692856Y-93551505D01*
X157925698Y-93319070D01*
X157930903Y-93306533D01*
X162747900Y-93306533D01*
X162873538Y-93610600D01*
X163105973Y-93843442D01*
X163409821Y-93969610D01*
X163738822Y-93969897D01*
X164042889Y-93844259D01*
X164274082Y-93613470D01*
X164323549Y-93733190D01*
X164555984Y-93966032D01*
X164859832Y-94092200D01*
X165188833Y-94092487D01*
X165492900Y-93966849D01*
X165533657Y-93926164D01*
X165555841Y-93948387D01*
X165859689Y-94074555D01*
X166188690Y-94074842D01*
X166492757Y-93949204D01*
X166725599Y-93716769D01*
X166851767Y-93412921D01*
X166852054Y-93083920D01*
X166726416Y-92779853D01*
X166493981Y-92547011D01*
X166190133Y-92420843D01*
X165861132Y-92420556D01*
X165557065Y-92546194D01*
X165516308Y-92586879D01*
X165494124Y-92564656D01*
X165190276Y-92438488D01*
X164861275Y-92438201D01*
X164557208Y-92563839D01*
X164326015Y-92794628D01*
X164276548Y-92674908D01*
X164044113Y-92442066D01*
X163740265Y-92315898D01*
X163411264Y-92315611D01*
X163107197Y-92441249D01*
X162874355Y-92673684D01*
X162748187Y-92977532D01*
X162747900Y-93306533D01*
X157930903Y-93306533D01*
X158051866Y-93015222D01*
X158052153Y-92686221D01*
X157957506Y-92457158D01*
X157995560Y-92472959D01*
X158324561Y-92473246D01*
X158628628Y-92347608D01*
X158861470Y-92115173D01*
X158987638Y-91811325D01*
X158987925Y-91482324D01*
X158862287Y-91178257D01*
X158629852Y-90945415D01*
X158326004Y-90819247D01*
X158067986Y-90819022D01*
X157951505Y-90537116D01*
X157767656Y-90352945D01*
X162513812Y-90352945D01*
X162639450Y-90657012D01*
X162871885Y-90889854D01*
X163175733Y-91016022D01*
X163504734Y-91016309D01*
X163808801Y-90890671D01*
X164041643Y-90658236D01*
X164167811Y-90354388D01*
X164168098Y-90025387D01*
X164042460Y-89721320D01*
X163810025Y-89488478D01*
X163506177Y-89362310D01*
X163177176Y-89362023D01*
X162873109Y-89487661D01*
X162640267Y-89720096D01*
X162514099Y-90023944D01*
X162513812Y-90352945D01*
X157767656Y-90352945D01*
X157719070Y-90304274D01*
X157415222Y-90178106D01*
X157086221Y-90177819D01*
X156782154Y-90303457D01*
X156549312Y-90535892D01*
X156423144Y-90839740D01*
X156422857Y-91168741D01*
X156548495Y-91472808D01*
X156780930Y-91705650D01*
X157084778Y-91831818D01*
X157342796Y-91832043D01*
X157428286Y-92038945D01*
X157390232Y-92023144D01*
X157061231Y-92022857D01*
X156757164Y-92148495D01*
X156524322Y-92380930D01*
X156398154Y-92684778D01*
X156397867Y-93013779D01*
X153952226Y-93013779D01*
X154049335Y-92916840D01*
X154175503Y-92612992D01*
X154175790Y-92283991D01*
X154050152Y-91979924D01*
X153817717Y-91747082D01*
X153513869Y-91620914D01*
X153184868Y-91620627D01*
X152880801Y-91746265D01*
X152823358Y-91803608D01*
X152819070Y-91799312D01*
X152515222Y-91673144D01*
X152186221Y-91672857D01*
X151882154Y-91798495D01*
X151649312Y-92030930D01*
X151523144Y-92334778D01*
X151522857Y-92663779D01*
X135752000Y-92663779D01*
X135752000Y-89763779D01*
X145772857Y-89763779D01*
X145898495Y-90067846D01*
X146130930Y-90300688D01*
X146434778Y-90426856D01*
X146763779Y-90427143D01*
X147067846Y-90301505D01*
X147300688Y-90069070D01*
X147426856Y-89765222D01*
X147426857Y-89763779D01*
X149872857Y-89763779D01*
X149998495Y-90067846D01*
X150230930Y-90300688D01*
X150534778Y-90426856D01*
X150863779Y-90427143D01*
X151167846Y-90301505D01*
X151400688Y-90069070D01*
X151526856Y-89765222D01*
X151527143Y-89436221D01*
X151401505Y-89132154D01*
X151169070Y-88899312D01*
X150865222Y-88773144D01*
X150536221Y-88772857D01*
X150232154Y-88898495D01*
X149999312Y-89130930D01*
X149873144Y-89434778D01*
X149872857Y-89763779D01*
X147426857Y-89763779D01*
X147427143Y-89436221D01*
X147301505Y-89132154D01*
X147069070Y-88899312D01*
X146765222Y-88773144D01*
X146436221Y-88772857D01*
X146132154Y-88898495D01*
X145899312Y-89130930D01*
X145773144Y-89434778D01*
X145772857Y-89763779D01*
X135752000Y-89763779D01*
X135752000Y-87787530D01*
X156447665Y-87787530D01*
X156573303Y-88091597D01*
X156630973Y-88149368D01*
X156574312Y-88205930D01*
X156448144Y-88509778D01*
X156447857Y-88838779D01*
X156573495Y-89142846D01*
X156805930Y-89375688D01*
X157109778Y-89501856D01*
X157438779Y-89502143D01*
X157742846Y-89376505D01*
X157975688Y-89144070D01*
X158101856Y-88840222D01*
X158102143Y-88511221D01*
X157976505Y-88207154D01*
X157938198Y-88168779D01*
X169172857Y-88168779D01*
X169298495Y-88472846D01*
X169530930Y-88705688D01*
X169834778Y-88831856D01*
X170163779Y-88832143D01*
X170467846Y-88706505D01*
X170700688Y-88474070D01*
X170826856Y-88170222D01*
X170827143Y-87841221D01*
X170701505Y-87537154D01*
X170469070Y-87304312D01*
X170165222Y-87178144D01*
X169836221Y-87177857D01*
X169532154Y-87303495D01*
X169299312Y-87535930D01*
X169173144Y-87839778D01*
X169172857Y-88168779D01*
X157938198Y-88168779D01*
X157918835Y-88149383D01*
X157975496Y-88092821D01*
X158101664Y-87788973D01*
X158101951Y-87459972D01*
X157994544Y-87200028D01*
X158100688Y-87094070D01*
X158226856Y-86790222D01*
X158227143Y-86461221D01*
X158101505Y-86157154D01*
X157869070Y-85924312D01*
X157565222Y-85798144D01*
X157236221Y-85797857D01*
X156932154Y-85923495D01*
X156699312Y-86155930D01*
X156573144Y-86459778D01*
X156572857Y-86788779D01*
X156680264Y-87048723D01*
X156574120Y-87154681D01*
X156447952Y-87458529D01*
X156447665Y-87787530D01*
X135752000Y-87787530D01*
X135752000Y-83636034D01*
X136442787Y-84328028D01*
X137775380Y-84881369D01*
X139218290Y-84882628D01*
X140551846Y-84331614D01*
X141573028Y-83312213D01*
X141673603Y-83070000D01*
X143594635Y-83070000D01*
X143594635Y-84570000D01*
X143624409Y-84728237D01*
X143717927Y-84873567D01*
X143860619Y-84971064D01*
X144030000Y-85005365D01*
X145530000Y-85005365D01*
X145688237Y-84975591D01*
X145833567Y-84882073D01*
X145931064Y-84739381D01*
X145965365Y-84570000D01*
X145965365Y-84053093D01*
X146142796Y-84053093D01*
X146321606Y-84485846D01*
X146652412Y-84817230D01*
X147084853Y-84996795D01*
X147553093Y-84997204D01*
X147985846Y-84818394D01*
X148317230Y-84487588D01*
X148496795Y-84055147D01*
X148496796Y-84053093D01*
X148682796Y-84053093D01*
X148861606Y-84485846D01*
X149192412Y-84817230D01*
X149624853Y-84996795D01*
X150093093Y-84997204D01*
X150525846Y-84818394D01*
X150857230Y-84487588D01*
X151036795Y-84055147D01*
X151036796Y-84053093D01*
X151222796Y-84053093D01*
X151401606Y-84485846D01*
X151732412Y-84817230D01*
X152164853Y-84996795D01*
X152633093Y-84997204D01*
X153065846Y-84818394D01*
X153092769Y-84791517D01*
X154148088Y-84791517D01*
X154216077Y-85032460D01*
X154735171Y-85217201D01*
X155285448Y-85189230D01*
X155663923Y-85032460D01*
X155681892Y-84968779D01*
X163422857Y-84968779D01*
X163548495Y-85272846D01*
X163780930Y-85505688D01*
X164084778Y-85631856D01*
X164413779Y-85632143D01*
X164717846Y-85506505D01*
X164950688Y-85274070D01*
X165076856Y-84970222D01*
X165077143Y-84641221D01*
X164951505Y-84337154D01*
X164719070Y-84104312D01*
X164415222Y-83978144D01*
X164086221Y-83977857D01*
X163782154Y-84103495D01*
X163549312Y-84335930D01*
X163423144Y-84639778D01*
X163422857Y-84968779D01*
X155681892Y-84968779D01*
X155731912Y-84791517D01*
X154940000Y-83999605D01*
X154148088Y-84791517D01*
X153092769Y-84791517D01*
X153397230Y-84487588D01*
X153566432Y-84080104D01*
X153570770Y-84165448D01*
X153727540Y-84543923D01*
X153968483Y-84611912D01*
X154760395Y-83820000D01*
X155119605Y-83820000D01*
X155911517Y-84611912D01*
X156152460Y-84543923D01*
X156337201Y-84024829D01*
X156309230Y-83474552D01*
X156152460Y-83096077D01*
X156055720Y-83068779D01*
X157872857Y-83068779D01*
X157998495Y-83372846D01*
X158230930Y-83605688D01*
X158534778Y-83731856D01*
X158863779Y-83732143D01*
X159167846Y-83606505D01*
X159240936Y-83533543D01*
X159298495Y-83672846D01*
X159530930Y-83905688D01*
X159834778Y-84031856D01*
X160163779Y-84032143D01*
X160467846Y-83906505D01*
X160700688Y-83674070D01*
X160826856Y-83370222D01*
X160827143Y-83041221D01*
X160701505Y-82737154D01*
X160469070Y-82504312D01*
X160165222Y-82378144D01*
X159836221Y-82377857D01*
X159532154Y-82503495D01*
X159459064Y-82576457D01*
X159401505Y-82437154D01*
X159169070Y-82204312D01*
X158865222Y-82078144D01*
X158536221Y-82077857D01*
X158232154Y-82203495D01*
X157999312Y-82435930D01*
X157873144Y-82739778D01*
X157872857Y-83068779D01*
X156055720Y-83068779D01*
X155911517Y-83028088D01*
X155119605Y-83820000D01*
X154760395Y-83820000D01*
X153968483Y-83028088D01*
X153727540Y-83096077D01*
X153564124Y-83555251D01*
X153398394Y-83154154D01*
X153067588Y-82822770D01*
X152635147Y-82643205D01*
X152166907Y-82642796D01*
X151734154Y-82821606D01*
X151402770Y-83152412D01*
X151223205Y-83584853D01*
X151222796Y-84053093D01*
X151036796Y-84053093D01*
X151037204Y-83586907D01*
X150858394Y-83154154D01*
X150527588Y-82822770D01*
X150120104Y-82653568D01*
X150205448Y-82649230D01*
X150583923Y-82492460D01*
X150651912Y-82251517D01*
X149860000Y-81459605D01*
X149068088Y-82251517D01*
X149136077Y-82492460D01*
X149595251Y-82655876D01*
X149194154Y-82821606D01*
X148862770Y-83152412D01*
X148683205Y-83584853D01*
X148682796Y-84053093D01*
X148496796Y-84053093D01*
X148497204Y-83586907D01*
X148318394Y-83154154D01*
X147987588Y-82822770D01*
X147555147Y-82643205D01*
X147086907Y-82642796D01*
X146654154Y-82821606D01*
X146322770Y-83152412D01*
X146143205Y-83584853D01*
X146142796Y-84053093D01*
X145965365Y-84053093D01*
X145965365Y-83070000D01*
X145935591Y-82911763D01*
X145842073Y-82766433D01*
X145699381Y-82668936D01*
X145530000Y-82634635D01*
X144030000Y-82634635D01*
X143871763Y-82664409D01*
X143726433Y-82757927D01*
X143628936Y-82900619D01*
X143594635Y-83070000D01*
X141673603Y-83070000D01*
X142126369Y-81979620D01*
X142127628Y-80536710D01*
X142124856Y-80530000D01*
X143594635Y-80530000D01*
X143594635Y-82030000D01*
X143624409Y-82188237D01*
X143717927Y-82333567D01*
X143860619Y-82431064D01*
X144030000Y-82465365D01*
X145530000Y-82465365D01*
X145688237Y-82435591D01*
X145833567Y-82342073D01*
X145931064Y-82199381D01*
X145965365Y-82030000D01*
X145965365Y-81513093D01*
X146142796Y-81513093D01*
X146321606Y-81945846D01*
X146652412Y-82277230D01*
X147084853Y-82456795D01*
X147553093Y-82457204D01*
X147985846Y-82278394D01*
X148317230Y-81947588D01*
X148486432Y-81540104D01*
X148490770Y-81625448D01*
X148647540Y-82003923D01*
X148888483Y-82071912D01*
X149680395Y-81280000D01*
X150039605Y-81280000D01*
X150831517Y-82071912D01*
X151072460Y-82003923D01*
X151235876Y-81544749D01*
X151401606Y-81945846D01*
X151732412Y-82277230D01*
X152164853Y-82456795D01*
X152633093Y-82457204D01*
X153065846Y-82278394D01*
X153397230Y-81947588D01*
X153576795Y-81515147D01*
X153576796Y-81513093D01*
X153762796Y-81513093D01*
X153941606Y-81945846D01*
X154272412Y-82277230D01*
X154679896Y-82446432D01*
X154594552Y-82450770D01*
X154216077Y-82607540D01*
X154148088Y-82848483D01*
X154940000Y-83640395D01*
X155731912Y-82848483D01*
X155663923Y-82607540D01*
X155204749Y-82444124D01*
X155605846Y-82278394D01*
X155937230Y-81947588D01*
X156116795Y-81515147D01*
X156116796Y-81513093D01*
X156302796Y-81513093D01*
X156481606Y-81945846D01*
X156812412Y-82277230D01*
X157244853Y-82456795D01*
X157713093Y-82457204D01*
X158145846Y-82278394D01*
X158477230Y-81947588D01*
X158656795Y-81515147D01*
X158657204Y-81046907D01*
X158478394Y-80614154D01*
X158147588Y-80282770D01*
X157715147Y-80103205D01*
X157246907Y-80102796D01*
X156814154Y-80281606D01*
X156482770Y-80612412D01*
X156303205Y-81044853D01*
X156302796Y-81513093D01*
X156116796Y-81513093D01*
X156117204Y-81046907D01*
X155938394Y-80614154D01*
X155607588Y-80282770D01*
X155175147Y-80103205D01*
X154706907Y-80102796D01*
X154274154Y-80281606D01*
X153942770Y-80612412D01*
X153763205Y-81044853D01*
X153762796Y-81513093D01*
X153576796Y-81513093D01*
X153577204Y-81046907D01*
X153398394Y-80614154D01*
X153067588Y-80282770D01*
X152635147Y-80103205D01*
X152166907Y-80102796D01*
X151734154Y-80281606D01*
X151402770Y-80612412D01*
X151233568Y-81019896D01*
X151229230Y-80934552D01*
X151072460Y-80556077D01*
X150831517Y-80488088D01*
X150039605Y-81280000D01*
X149680395Y-81280000D01*
X148888483Y-80488088D01*
X148647540Y-80556077D01*
X148484124Y-81015251D01*
X148318394Y-80614154D01*
X148013257Y-80308483D01*
X149068088Y-80308483D01*
X149860000Y-81100395D01*
X150651912Y-80308483D01*
X150583923Y-80067540D01*
X150064829Y-79882799D01*
X149514552Y-79910770D01*
X149136077Y-80067540D01*
X149068088Y-80308483D01*
X148013257Y-80308483D01*
X147987588Y-80282770D01*
X147555147Y-80103205D01*
X147086907Y-80102796D01*
X146654154Y-80281606D01*
X146322770Y-80612412D01*
X146143205Y-81044853D01*
X146142796Y-81513093D01*
X145965365Y-81513093D01*
X145965365Y-80530000D01*
X145935591Y-80371763D01*
X145842073Y-80226433D01*
X145699381Y-80128936D01*
X145530000Y-80094635D01*
X144030000Y-80094635D01*
X143871763Y-80124409D01*
X143726433Y-80217927D01*
X143628936Y-80360619D01*
X143594635Y-80530000D01*
X142124856Y-80530000D01*
X141576614Y-79203154D01*
X140881674Y-78507000D01*
X161228291Y-78507000D01*
X161199310Y-78535930D01*
G36*
X178373000Y-81253554D02*
X178372372Y-81973290D01*
X178373000Y-81974810D01*
X178373000Y-82427933D01*
X178286221Y-82427857D01*
X177982154Y-82553495D01*
X177749312Y-82785930D01*
X177652558Y-83018940D01*
X177432975Y-82927762D01*
X177103974Y-82927475D01*
X176799907Y-83053113D01*
X176567065Y-83285548D01*
X176440897Y-83589396D01*
X176440610Y-83918397D01*
X176566248Y-84222464D01*
X176798683Y-84455306D01*
X177102531Y-84581474D01*
X177431532Y-84581761D01*
X177735599Y-84456123D01*
X177968441Y-84223688D01*
X178065195Y-83990678D01*
X178284778Y-84081856D01*
X178613779Y-84082143D01*
X178917846Y-83956505D01*
X179126959Y-83747758D01*
X179623000Y-84541424D01*
X179623000Y-90178107D01*
X179336221Y-90177857D01*
X179032154Y-90303495D01*
X178799312Y-90535930D01*
X178673144Y-90839778D01*
X178672857Y-91168779D01*
X178798495Y-91472846D01*
X179030930Y-91705688D01*
X179334778Y-91831856D01*
X179623000Y-91832107D01*
X179623000Y-92476636D01*
X179504329Y-92525670D01*
X179271487Y-92758105D01*
X179145319Y-93061953D01*
X179145032Y-93390954D01*
X179270670Y-93695021D01*
X179503105Y-93927863D01*
X179623000Y-93977647D01*
X179623000Y-99962381D01*
X179549322Y-100035930D01*
X179423154Y-100339778D01*
X179422867Y-100668779D01*
X179548505Y-100972846D01*
X179623000Y-101047471D01*
X179623000Y-109378000D01*
X178750000Y-109378000D01*
X178700590Y-109388006D01*
X178658965Y-109416447D01*
X178631685Y-109458841D01*
X178623323Y-109495952D01*
X178456557Y-111830671D01*
X178373631Y-112030380D01*
X178372891Y-112878000D01*
X173627000Y-112878000D01*
X173627000Y-112255000D01*
X173616994Y-112205590D01*
X173588553Y-112163965D01*
X173588292Y-112163779D01*
X174072857Y-112163779D01*
X174198495Y-112467846D01*
X174430930Y-112700688D01*
X174734778Y-112826856D01*
X175063779Y-112827143D01*
X175367846Y-112701505D01*
X175600688Y-112469070D01*
X175726856Y-112165222D01*
X175727143Y-111836221D01*
X175601505Y-111532154D01*
X175369070Y-111299312D01*
X175065222Y-111173144D01*
X174736221Y-111172857D01*
X174432154Y-111298495D01*
X174199312Y-111530930D01*
X174073144Y-111834778D01*
X174072857Y-112163779D01*
X173588292Y-112163779D01*
X173556796Y-112141408D01*
X171627000Y-111176510D01*
X171627000Y-105057606D01*
X172089803Y-104594803D01*
X172117666Y-104552789D01*
X172127000Y-104505000D01*
X172127000Y-102568779D01*
X174872861Y-102568779D01*
X174998499Y-102872846D01*
X175230934Y-103105688D01*
X175534782Y-103231856D01*
X175863783Y-103232143D01*
X176167850Y-103106505D01*
X176400692Y-102874070D01*
X176526860Y-102570222D01*
X176527147Y-102241221D01*
X176526184Y-102238889D01*
X177922857Y-102238889D01*
X178048495Y-102542956D01*
X178280930Y-102775798D01*
X178584778Y-102901966D01*
X178913779Y-102902253D01*
X179217846Y-102776615D01*
X179450688Y-102544180D01*
X179576856Y-102240332D01*
X179577143Y-101911331D01*
X179451505Y-101607264D01*
X179219070Y-101374422D01*
X178915222Y-101248254D01*
X178586221Y-101247967D01*
X178282154Y-101373605D01*
X178049312Y-101606040D01*
X177923144Y-101909888D01*
X177922857Y-102238889D01*
X176526184Y-102238889D01*
X176401509Y-101937154D01*
X176169074Y-101704312D01*
X175865226Y-101578144D01*
X175536225Y-101577857D01*
X175232158Y-101703495D01*
X174999316Y-101935930D01*
X174873148Y-102239778D01*
X174872861Y-102568779D01*
X172127000Y-102568779D01*
X172127000Y-100505000D01*
X172116994Y-100455590D01*
X172089803Y-100415197D01*
X171627000Y-99952394D01*
X171627000Y-93668779D01*
X173772857Y-93668779D01*
X173898495Y-93972846D01*
X174130930Y-94205688D01*
X174434778Y-94331856D01*
X174763779Y-94332143D01*
X175067846Y-94206505D01*
X175300688Y-93974070D01*
X175426856Y-93670222D01*
X175427143Y-93341221D01*
X175301505Y-93037154D01*
X175069070Y-92804312D01*
X174765222Y-92678144D01*
X174436221Y-92677857D01*
X174132154Y-92803495D01*
X173899312Y-93035930D01*
X173773144Y-93339778D01*
X173772857Y-93668779D01*
X171627000Y-93668779D01*
X171627000Y-84468779D01*
X174372857Y-84468779D01*
X174498495Y-84772846D01*
X174730930Y-85005688D01*
X175034778Y-85131856D01*
X175363779Y-85132143D01*
X175667846Y-85006505D01*
X175900688Y-84774070D01*
X176026856Y-84470222D01*
X176027143Y-84141221D01*
X175901505Y-83837154D01*
X175669070Y-83604312D01*
X175365222Y-83478144D01*
X175036221Y-83477857D01*
X174732154Y-83603495D01*
X174499312Y-83835930D01*
X174373144Y-84139778D01*
X174372857Y-84468779D01*
X171627000Y-84468779D01*
X171627000Y-83072968D01*
X172320447Y-82610670D01*
X172356008Y-82574937D01*
X172377000Y-82505000D01*
X172377000Y-78507000D01*
X178373000Y-78507000D01*
X178373000Y-81253554D01*
X178373000Y-81253554D01*
G37*
X178373000Y-81253554D02*
X178372372Y-81973290D01*
X178373000Y-81974810D01*
X178373000Y-82427933D01*
X178286221Y-82427857D01*
X177982154Y-82553495D01*
X177749312Y-82785930D01*
X177652558Y-83018940D01*
X177432975Y-82927762D01*
X177103974Y-82927475D01*
X176799907Y-83053113D01*
X176567065Y-83285548D01*
X176440897Y-83589396D01*
X176440610Y-83918397D01*
X176566248Y-84222464D01*
X176798683Y-84455306D01*
X177102531Y-84581474D01*
X177431532Y-84581761D01*
X177735599Y-84456123D01*
X177968441Y-84223688D01*
X178065195Y-83990678D01*
X178284778Y-84081856D01*
X178613779Y-84082143D01*
X178917846Y-83956505D01*
X179126959Y-83747758D01*
X179623000Y-84541424D01*
X179623000Y-90178107D01*
X179336221Y-90177857D01*
X179032154Y-90303495D01*
X178799312Y-90535930D01*
X178673144Y-90839778D01*
X178672857Y-91168779D01*
X178798495Y-91472846D01*
X179030930Y-91705688D01*
X179334778Y-91831856D01*
X179623000Y-91832107D01*
X179623000Y-92476636D01*
X179504329Y-92525670D01*
X179271487Y-92758105D01*
X179145319Y-93061953D01*
X179145032Y-93390954D01*
X179270670Y-93695021D01*
X179503105Y-93927863D01*
X179623000Y-93977647D01*
X179623000Y-99962381D01*
X179549322Y-100035930D01*
X179423154Y-100339778D01*
X179422867Y-100668779D01*
X179548505Y-100972846D01*
X179623000Y-101047471D01*
X179623000Y-109378000D01*
X178750000Y-109378000D01*
X178700590Y-109388006D01*
X178658965Y-109416447D01*
X178631685Y-109458841D01*
X178623323Y-109495952D01*
X178456557Y-111830671D01*
X178373631Y-112030380D01*
X178372891Y-112878000D01*
X173627000Y-112878000D01*
X173627000Y-112255000D01*
X173616994Y-112205590D01*
X173588553Y-112163965D01*
X173588292Y-112163779D01*
X174072857Y-112163779D01*
X174198495Y-112467846D01*
X174430930Y-112700688D01*
X174734778Y-112826856D01*
X175063779Y-112827143D01*
X175367846Y-112701505D01*
X175600688Y-112469070D01*
X175726856Y-112165222D01*
X175727143Y-111836221D01*
X175601505Y-111532154D01*
X175369070Y-111299312D01*
X175065222Y-111173144D01*
X174736221Y-111172857D01*
X174432154Y-111298495D01*
X174199312Y-111530930D01*
X174073144Y-111834778D01*
X174072857Y-112163779D01*
X173588292Y-112163779D01*
X173556796Y-112141408D01*
X171627000Y-111176510D01*
X171627000Y-105057606D01*
X172089803Y-104594803D01*
X172117666Y-104552789D01*
X172127000Y-104505000D01*
X172127000Y-102568779D01*
X174872861Y-102568779D01*
X174998499Y-102872846D01*
X175230934Y-103105688D01*
X175534782Y-103231856D01*
X175863783Y-103232143D01*
X176167850Y-103106505D01*
X176400692Y-102874070D01*
X176526860Y-102570222D01*
X176527147Y-102241221D01*
X176526184Y-102238889D01*
X177922857Y-102238889D01*
X178048495Y-102542956D01*
X178280930Y-102775798D01*
X178584778Y-102901966D01*
X178913779Y-102902253D01*
X179217846Y-102776615D01*
X179450688Y-102544180D01*
X179576856Y-102240332D01*
X179577143Y-101911331D01*
X179451505Y-101607264D01*
X179219070Y-101374422D01*
X178915222Y-101248254D01*
X178586221Y-101247967D01*
X178282154Y-101373605D01*
X178049312Y-101606040D01*
X177923144Y-101909888D01*
X177922857Y-102238889D01*
X176526184Y-102238889D01*
X176401509Y-101937154D01*
X176169074Y-101704312D01*
X175865226Y-101578144D01*
X175536225Y-101577857D01*
X175232158Y-101703495D01*
X174999316Y-101935930D01*
X174873148Y-102239778D01*
X174872861Y-102568779D01*
X172127000Y-102568779D01*
X172127000Y-100505000D01*
X172116994Y-100455590D01*
X172089803Y-100415197D01*
X171627000Y-99952394D01*
X171627000Y-93668779D01*
X173772857Y-93668779D01*
X173898495Y-93972846D01*
X174130930Y-94205688D01*
X174434778Y-94331856D01*
X174763779Y-94332143D01*
X175067846Y-94206505D01*
X175300688Y-93974070D01*
X175426856Y-93670222D01*
X175427143Y-93341221D01*
X175301505Y-93037154D01*
X175069070Y-92804312D01*
X174765222Y-92678144D01*
X174436221Y-92677857D01*
X174132154Y-92803495D01*
X173899312Y-93035930D01*
X173773144Y-93339778D01*
X173772857Y-93668779D01*
X171627000Y-93668779D01*
X171627000Y-84468779D01*
X174372857Y-84468779D01*
X174498495Y-84772846D01*
X174730930Y-85005688D01*
X175034778Y-85131856D01*
X175363779Y-85132143D01*
X175667846Y-85006505D01*
X175900688Y-84774070D01*
X176026856Y-84470222D01*
X176027143Y-84141221D01*
X175901505Y-83837154D01*
X175669070Y-83604312D01*
X175365222Y-83478144D01*
X175036221Y-83477857D01*
X174732154Y-83603495D01*
X174499312Y-83835930D01*
X174373144Y-84139778D01*
X174372857Y-84468779D01*
X171627000Y-84468779D01*
X171627000Y-83072968D01*
X172320447Y-82610670D01*
X172356008Y-82574937D01*
X172377000Y-82505000D01*
X172377000Y-78507000D01*
X178373000Y-78507000D01*
X178373000Y-81253554D01*
G36*
X184748000Y-92378000D02*
X180627000Y-92378000D01*
X180627000Y-84612138D01*
X181275380Y-84881369D01*
X182718290Y-84882628D01*
X184051846Y-84331614D01*
X184251809Y-84132000D01*
X184748000Y-84132000D01*
X184748000Y-92378000D01*
X184748000Y-92378000D01*
G37*
X184748000Y-92378000D02*
X180627000Y-92378000D01*
X180627000Y-84612138D01*
X181275380Y-84881369D01*
X182718290Y-84882628D01*
X184051846Y-84331614D01*
X184251809Y-84132000D01*
X184748000Y-84132000D01*
X184748000Y-92378000D01*
G36*
X184748000Y-101128000D02*
X180796498Y-101128000D01*
X180950698Y-100974070D01*
X181076866Y-100670222D01*
X181077153Y-100341221D01*
X180951515Y-100037154D01*
X180719080Y-99804312D01*
X180627000Y-99766077D01*
X180627000Y-93742028D01*
X180672863Y-93696245D01*
X180799031Y-93392397D01*
X180799258Y-93132000D01*
X184748000Y-93132000D01*
X184748000Y-101128000D01*
X184748000Y-101128000D01*
G37*
X184748000Y-101128000D02*
X180796498Y-101128000D01*
X180950698Y-100974070D01*
X181076866Y-100670222D01*
X181077153Y-100341221D01*
X180951515Y-100037154D01*
X180719080Y-99804312D01*
X180627000Y-99766077D01*
X180627000Y-93742028D01*
X180672863Y-93696245D01*
X180799031Y-93392397D01*
X180799258Y-93132000D01*
X184748000Y-93132000D01*
X184748000Y-101128000D01*
G36*
X184748000Y-109378000D02*
X183325167Y-109378000D01*
X182724620Y-109128631D01*
X181281710Y-109127372D01*
X180675144Y-109378000D01*
X180627000Y-109378000D01*
X180627000Y-101882000D01*
X184748000Y-101882000D01*
X184748000Y-109378000D01*
X184748000Y-109378000D01*
G37*
X184748000Y-109378000D02*
X183325167Y-109378000D01*
X182724620Y-109128631D01*
X181281710Y-109127372D01*
X180675144Y-109378000D01*
X180627000Y-109378000D01*
X180627000Y-101882000D01*
X184748000Y-101882000D01*
X184748000Y-109378000D01*
M02*
