%TF.GenerationSoftware,KiCad,Pcbnew,4.0.6-e0-6349~53~ubuntu16.04.1*%
%TF.CreationDate,2017-03-23T00:14:44+02:00*%
%TF.ProjectId,BLDC_controller,424C44435F636F6E74726F6C6C65722E,1.0*%
%TF.FileFunction,Copper,L1,Top,Signal*%
%FSLAX46Y46*%
G04 Gerber Fmt 4.6, Leading zero omitted, Abs format (unit mm)*
G04 Created by KiCad (PCBNEW 4.0.6-e0-6349~53~ubuntu16.04.1) date Thu Mar 23 00:14:44 2017*
%MOMM*%
%LPD*%
G01*
G04 APERTURE LIST*
%ADD10C,0.100000*%
%ADD11C,0.250000*%
%ADD12C,0.800000*%
%ADD13R,1.500000X1.500000*%
%ADD14C,1.500000*%
%ADD15C,1.300000*%
%ADD16R,1.000000X2.700000*%
%ADD17R,0.900000X1.000000*%
%ADD18R,0.600000X0.800000*%
%ADD19R,2.700000X1.500000*%
%ADD20R,0.400000X0.600000*%
%ADD21R,1.640000X1.400000*%
%ADD22R,1.350000X1.550000*%
%ADD23R,1.000000X0.900000*%
%ADD24R,0.650000X0.990000*%
%ADD25R,0.720000X0.720000*%
%ADD26R,0.640000X0.720000*%
%ADD27R,0.600000X0.900000*%
%ADD28R,0.900000X0.600000*%
%ADD29R,1.150000X0.700000*%
%ADD30R,1.500000X4.700000*%
%ADD31R,3.600000X4.200000*%
%ADD32C,2.100000*%
%ADD33O,1.050000X0.250000*%
%ADD34O,0.250000X1.050000*%
%ADD35C,0.500000*%
%ADD36C,0.300000*%
%ADD37C,0.400000*%
%ADD38C,1.000000*%
%ADD39C,0.254000*%
G04 APERTURE END LIST*
D10*
D11*
X39085715Y892619D02*
X38514286Y892619D01*
X38800000Y892619D02*
X38800000Y1892619D01*
X38704762Y1749762D01*
X38609524Y1654524D01*
X38514286Y1606905D01*
D12*
X38750000Y27900000D03*
X28150000Y30600000D03*
X27350000Y30600000D03*
X27350000Y29800000D03*
X28150000Y29800000D03*
X27350000Y28200000D03*
X28150000Y28200000D03*
X31750000Y29800000D03*
X30950000Y29800000D03*
X32150000Y29000000D03*
X31350000Y29000000D03*
X30550000Y29000000D03*
X29750000Y29000000D03*
X28950000Y29000000D03*
X28150000Y29000000D03*
X27350000Y29000000D03*
X32350000Y10950000D03*
X31550000Y10950000D03*
X30750000Y10950000D03*
X29950000Y10950000D03*
X29150000Y10950000D03*
X28350000Y10950000D03*
X27550000Y10950000D03*
X26750000Y10950000D03*
X32350000Y11750000D03*
X31550000Y11750000D03*
X30750000Y11750000D03*
X29950000Y11750000D03*
X29150000Y11750000D03*
X28350000Y11750000D03*
X27550000Y11750000D03*
X45900000Y13550000D03*
X45100000Y13550000D03*
X44300000Y13550000D03*
X43500000Y13550000D03*
X45900000Y14350000D03*
X45100000Y14350000D03*
X44300000Y14350000D03*
X43500000Y14350000D03*
X45900000Y15150000D03*
X45100000Y15150000D03*
X44300000Y15150000D03*
X43500000Y15150000D03*
X45900000Y15950000D03*
X45100000Y15950000D03*
X44300000Y15950000D03*
X43500000Y15950000D03*
X45900000Y16750000D03*
X45100000Y16750000D03*
X44300000Y16750000D03*
X43500000Y16750000D03*
X45900000Y17550000D03*
X45100000Y17550000D03*
X44300000Y17550000D03*
X43500000Y17550000D03*
X45900000Y18350000D03*
X45100000Y18350000D03*
X44300000Y18350000D03*
X45900000Y20250000D03*
X45100000Y20250000D03*
X44300000Y20250000D03*
X43500000Y20250000D03*
X45900000Y21050000D03*
X45100000Y21050000D03*
X44300000Y21050000D03*
X43500000Y21050000D03*
X45900000Y21850000D03*
X45100000Y21850000D03*
X44300000Y21850000D03*
X43500000Y21850000D03*
X45900000Y22650000D03*
X45100000Y22650000D03*
X44300000Y22650000D03*
X43500000Y22650000D03*
X45900000Y23450000D03*
X45100000Y23450000D03*
X44300000Y23450000D03*
X43500000Y23450000D03*
X45900000Y24250000D03*
X45100000Y24250000D03*
X44300000Y24250000D03*
X43500000Y24250000D03*
X45900000Y25050000D03*
X45100000Y25050000D03*
X44300000Y25050000D03*
X43350000Y6000000D03*
X44300000Y6800000D03*
X43500000Y6800000D03*
X45900000Y7600000D03*
X45100000Y7600000D03*
X44300000Y7600000D03*
X43500000Y7600000D03*
X45900000Y8400000D03*
X45100000Y8400000D03*
X44300000Y8400000D03*
X43500000Y8400000D03*
X45900000Y9200000D03*
X45100000Y9200000D03*
X44300000Y9200000D03*
X43500000Y9200000D03*
X45900000Y10000000D03*
X45100000Y10000000D03*
X44300000Y10000000D03*
X43500000Y10000000D03*
X45900000Y10800000D03*
X45100000Y10800000D03*
X44300000Y10800000D03*
X43500000Y10800000D03*
X45900000Y11600000D03*
X45100000Y11600000D03*
X44300000Y11600000D03*
X32600000Y795000D03*
X31800000Y795000D03*
X31000000Y795000D03*
X30200000Y795000D03*
X29400000Y795000D03*
X28600000Y795000D03*
X27800000Y795000D03*
X27000000Y795000D03*
X32600000Y1595000D03*
X31800000Y1595000D03*
X31000000Y1595000D03*
X30200000Y1595000D03*
X29400000Y1595000D03*
X28600000Y1595000D03*
X27800000Y1595000D03*
X34700000Y2000000D03*
X37100000Y4600000D03*
X39000000Y4600000D03*
X38500000Y12800000D03*
X38900000Y19900000D03*
X34900000Y20600000D03*
X35000000Y13000000D03*
X43500000Y11600000D03*
X43500000Y18350000D03*
X43500000Y25050000D03*
D13*
X7620000Y27400000D03*
D14*
X10160000Y27400000D03*
X12700000Y27400000D03*
X15240000Y27400000D03*
X17780000Y27400000D03*
D15*
X31750000Y30800000D03*
D12*
X6250000Y14700000D03*
X2000000Y25000000D03*
X1800000Y21800000D03*
X2000000Y12500000D03*
X2000000Y8200000D03*
X26750000Y11750000D03*
X27000000Y1595000D03*
X11400000Y15245000D03*
X10100000Y14895000D03*
X8950000Y14895000D03*
X6800000Y19945000D03*
X7750000Y14845000D03*
X5750000Y15595000D03*
X5800000Y19095000D03*
X12500000Y18945000D03*
X11250000Y19595000D03*
X10200000Y19795000D03*
X9150000Y19795000D03*
D16*
X4100000Y10250000D03*
X6300000Y10250000D03*
D17*
X24430000Y18800000D03*
X22770000Y18800000D03*
D18*
X21600000Y25900000D03*
X21600000Y28300000D03*
D19*
X9400000Y16350000D03*
X9400000Y18250000D03*
D20*
X28600000Y23700000D03*
X29500000Y23700000D03*
X19300000Y4100000D03*
X20200000Y4100000D03*
D21*
X10250000Y8765000D03*
X10250000Y4735000D03*
D18*
X22300000Y22400000D03*
X22300000Y24800000D03*
D22*
X33350000Y27700000D03*
X31350000Y27700000D03*
D18*
X27750000Y13895000D03*
X27750000Y16295000D03*
X25750000Y7695000D03*
X25750000Y5295000D03*
D22*
X33350000Y13400000D03*
X31350000Y13400000D03*
X5000000Y6900000D03*
X7000000Y6900000D03*
X10500000Y11100000D03*
X8500000Y11100000D03*
X33350000Y20300000D03*
X31350000Y20300000D03*
X33350000Y3400000D03*
X31350000Y3400000D03*
D13*
X7620000Y29940000D03*
D14*
X10160000Y29940000D03*
X12700000Y29940000D03*
X15240000Y29940000D03*
X17780000Y29940000D03*
X20320000Y29940000D03*
D13*
X7620000Y2000000D03*
D14*
X10160000Y2000000D03*
X12700000Y2000000D03*
X15240000Y2000000D03*
X17780000Y2000000D03*
D17*
X9680000Y13200000D03*
X8020000Y13200000D03*
D23*
X14750000Y20420000D03*
X14750000Y22080000D03*
X12750000Y12130000D03*
X12750000Y10470000D03*
D17*
X26030000Y16075000D03*
X24370000Y16075000D03*
D23*
X22950000Y12070000D03*
X22950000Y13730000D03*
D24*
X25310000Y24100000D03*
X23890000Y24100000D03*
X25310000Y22500000D03*
X23890000Y22500000D03*
X29160000Y17695000D03*
X27740000Y17695000D03*
X29170000Y19395000D03*
X27750000Y19395000D03*
X29210000Y5995000D03*
X27790000Y5995000D03*
X29210000Y7995000D03*
X27790000Y7995000D03*
X23910000Y30700000D03*
X22490000Y30700000D03*
X24710000Y26700000D03*
X23290000Y26700000D03*
X33310000Y24000000D03*
X31890000Y24000000D03*
X20740000Y8500000D03*
X22160000Y8500000D03*
D17*
X20820000Y10100000D03*
X22480000Y10100000D03*
D24*
X14390000Y8900000D03*
X15810000Y8900000D03*
X22810000Y4100000D03*
X21390000Y4100000D03*
D25*
X6850000Y18950000D03*
X6850000Y17950000D03*
X6850000Y15650000D03*
X6850000Y16650000D03*
D26*
X12990000Y16300000D03*
X11910000Y16300000D03*
D12*
X8050000Y19795000D03*
D15*
X36750000Y30750000D03*
D24*
X14310000Y7250000D03*
X12890000Y7250000D03*
D20*
X13900000Y5750000D03*
X13000000Y5750000D03*
D27*
X38550000Y22945000D03*
X39400000Y22945000D03*
X37700000Y22945000D03*
X38550000Y25245000D03*
X39400000Y25245000D03*
X37700000Y25245000D03*
X37700000Y24095000D03*
X39400000Y24095000D03*
D28*
X35850000Y22220000D03*
X35850000Y25970000D03*
X35850000Y23495000D03*
D29*
X41575000Y23460000D03*
X41575000Y22190000D03*
X41575000Y24730000D03*
D30*
X36080000Y24095000D03*
D31*
X38080000Y24095000D03*
D29*
X41575000Y26000000D03*
D28*
X35850000Y24695000D03*
D27*
X38550000Y24095000D03*
X38550000Y15385000D03*
X39400000Y15385000D03*
X37700000Y15385000D03*
X38550000Y17685000D03*
X39400000Y17685000D03*
X37700000Y17685000D03*
X37700000Y16535000D03*
X39400000Y16535000D03*
D28*
X35850000Y14660000D03*
X35850000Y18410000D03*
X35850000Y15935000D03*
D29*
X41575000Y15900000D03*
X41575000Y14630000D03*
X41575000Y17170000D03*
D30*
X36080000Y16535000D03*
D31*
X38080000Y16535000D03*
D29*
X41575000Y18440000D03*
D28*
X35850000Y17135000D03*
D27*
X38550000Y16535000D03*
X38550000Y7595000D03*
X39400000Y7595000D03*
X37700000Y7595000D03*
X38550000Y9895000D03*
X39400000Y9895000D03*
X37700000Y9895000D03*
X37700000Y8745000D03*
X39400000Y8745000D03*
D28*
X35850000Y6870000D03*
X35850000Y10620000D03*
X35850000Y8145000D03*
D29*
X41575000Y8110000D03*
X41575000Y6840000D03*
X41575000Y9380000D03*
D30*
X36080000Y8745000D03*
D31*
X38080000Y8745000D03*
D29*
X41575000Y10650000D03*
D28*
X35850000Y9345000D03*
D27*
X38550000Y8745000D03*
D32*
X47250000Y23000000D03*
X47250000Y16000000D03*
X47250000Y8500000D03*
X34750000Y30500000D03*
X29550000Y30500000D03*
D13*
X18650000Y14725000D03*
X17350000Y14725000D03*
X18650000Y16025000D03*
D33*
X14475000Y18125000D03*
X14475000Y17625000D03*
X14475000Y17125000D03*
X14475000Y16625000D03*
X14475000Y16125000D03*
X14475000Y15625000D03*
X14475000Y15125000D03*
X14475000Y14625000D03*
X14475000Y14125000D03*
X14475000Y13625000D03*
X14475000Y13125000D03*
X14475000Y12625000D03*
D34*
X15250000Y11850000D03*
X15750000Y11850000D03*
X16250000Y11850000D03*
X16750000Y11850000D03*
X17250000Y11850000D03*
X17750000Y11850000D03*
X18250000Y11850000D03*
X18750000Y11850000D03*
X19250000Y11850000D03*
X19750000Y11850000D03*
X20250000Y11850000D03*
X20750000Y11850000D03*
D33*
X21525000Y12625000D03*
X21525000Y13125000D03*
X21525000Y13625000D03*
X21525000Y14125000D03*
X21525000Y14625000D03*
X21525000Y15125000D03*
X21525000Y15625000D03*
X21525000Y16125000D03*
X21525000Y16625000D03*
X21525000Y17125000D03*
X21525000Y17625000D03*
X21525000Y18125000D03*
D34*
X20750000Y18900000D03*
X20250000Y18900000D03*
X19750000Y18900000D03*
X19250000Y18900000D03*
X18750000Y18900000D03*
X18250000Y18900000D03*
X17750000Y18900000D03*
X17250000Y18900000D03*
X16750000Y18900000D03*
X16250000Y18900000D03*
X15750000Y18900000D03*
X15250000Y18900000D03*
D13*
X17350000Y16025000D03*
D12*
X10875365Y12906144D03*
X11399988Y13700000D03*
X15549861Y14500000D03*
X23336422Y8541723D03*
X21864031Y20266970D03*
X13500000Y21674990D03*
X30750000Y26000000D03*
X12750000Y9000000D03*
X30700006Y14900000D03*
X23800000Y2400000D03*
X5000000Y23600000D03*
X25500000Y13100000D03*
X25300000Y25274990D03*
X6450000Y13000000D03*
X10750000Y25100000D03*
X12600000Y4600000D03*
X7700000Y4600010D03*
X31000000Y4800000D03*
X17250000Y17495000D03*
X16750000Y13245000D03*
X5800000Y16650000D03*
X5800000Y17950000D03*
X20186664Y13049988D03*
X25935865Y17109132D03*
X23000000Y19999992D03*
X36300000Y12600000D03*
X23643199Y9525008D03*
X24512821Y21484129D03*
X36737345Y19987336D03*
X24050013Y29600000D03*
X36300000Y27700000D03*
X31700000Y6000000D03*
X41500000Y12000000D03*
X41600000Y27800000D03*
X24100000Y25400000D03*
X29400000Y16300000D03*
X41300000Y19600004D03*
X22700000Y7400000D03*
X24087014Y20038305D03*
X14000000Y10500000D03*
X5100000Y22399994D03*
X4100000Y12850000D03*
X3250000Y7200000D03*
X1950000Y13800000D03*
X12994014Y20637443D03*
X10950000Y23400000D03*
X19450000Y2600000D03*
X19187812Y13001833D03*
X25536944Y20397155D03*
X24287369Y8232331D03*
X30800004Y7600000D03*
X25850000Y29600000D03*
X30800000Y24250000D03*
X25707865Y21382452D03*
X30700000Y18000000D03*
X23049998Y29600000D03*
X16700000Y24600000D03*
X21150000Y7200000D03*
X4100000Y14550000D03*
X20643923Y5468604D03*
X14214474Y11950011D03*
X17475010Y20150000D03*
X18093865Y23743669D03*
X15519372Y10317041D03*
X18388611Y21336069D03*
X17483366Y21843499D03*
X15590616Y17369232D03*
X21948915Y5519979D03*
X20200000Y14900000D03*
X18817262Y23053219D03*
X13655679Y19887643D03*
X12234530Y19986899D03*
X19950000Y7295000D03*
X19920369Y17775334D03*
X17700000Y24900000D03*
D11*
X14700000Y5550000D02*
X14600000Y5550000D01*
X13165000Y16125000D02*
X12990000Y16300000D01*
X14575000Y16125000D02*
X13165000Y16125000D01*
X21425000Y11725000D02*
X21929999Y11220001D01*
X25750000Y8466912D02*
X25750000Y7695000D01*
X21425000Y12625000D02*
X21425000Y11725000D01*
X21929999Y11220001D02*
X22996911Y11220001D01*
X22996911Y11220001D02*
X25750000Y8466912D01*
X26200000Y7695000D02*
X26500000Y7995000D01*
X26500000Y7995000D02*
X27790000Y7995000D01*
X25750000Y7695000D02*
X26200000Y7695000D01*
X27590000Y8195000D02*
X27790000Y7995000D01*
X27750000Y13895000D02*
X27355000Y13895000D01*
X27355000Y13895000D02*
X26625000Y14625000D01*
X26625000Y14625000D02*
X21350000Y14625000D01*
X27750000Y14545000D02*
X27750000Y13895000D01*
X28450000Y18525000D02*
X28450000Y16768038D01*
X27750000Y19225000D02*
X28450000Y18525000D01*
X27750000Y19395000D02*
X27750000Y19225000D01*
X28375001Y16693039D02*
X28375001Y15170001D01*
X28450000Y16768038D02*
X28375001Y16693039D01*
X28375001Y15170001D02*
X27750000Y14545000D01*
X24812015Y20386306D02*
X24435015Y20763306D01*
X21350000Y16625000D02*
X22861410Y16625000D01*
X22300000Y22300000D02*
X22300000Y22400000D01*
X24086400Y17849989D02*
X25014991Y17849989D01*
X25205001Y18039999D02*
X25205001Y19497247D01*
X23836694Y20763306D02*
X22300000Y22300000D01*
X24435015Y20763306D02*
X23836694Y20763306D01*
X25014991Y17849989D02*
X25205001Y18039999D01*
X22861410Y16625000D02*
X24086400Y17849989D01*
X24812015Y19890233D02*
X24812015Y20386306D01*
X25205001Y19497247D02*
X24812015Y19890233D01*
X22300000Y22400000D02*
X23790000Y22400000D01*
X23790000Y22400000D02*
X23890000Y22500000D01*
D35*
X33350000Y3400000D02*
X34750000Y2000000D01*
X33350000Y28000000D02*
X34750000Y28000000D01*
X36750000Y30000000D02*
X36750000Y30750000D01*
X34750000Y28000000D02*
X36750000Y30000000D01*
X33350000Y13400000D02*
X34600000Y13400000D01*
X34600000Y13400000D02*
X35000000Y13000000D01*
X33350000Y20300000D02*
X34600000Y20300000D01*
X34600000Y20300000D02*
X34900000Y20600000D01*
D36*
X33310000Y24000000D02*
X35985000Y24000000D01*
D11*
X35985000Y24000000D02*
X36080000Y24095000D01*
X34000000Y21250000D02*
X35835000Y21250000D01*
X35835000Y21250000D02*
X36080000Y21495000D01*
X36080000Y21495000D02*
X36080000Y24095000D01*
X14475000Y14625000D02*
X15424861Y14625000D01*
X15424861Y14625000D02*
X15549861Y14500000D01*
D35*
X10875365Y12340459D02*
X10875365Y12906144D01*
D11*
X10581510Y13199999D02*
X10875365Y12906144D01*
D35*
X10550000Y10900000D02*
X10875365Y11225365D01*
D11*
X10549999Y13199999D02*
X10581510Y13199999D01*
D35*
X10875365Y11225365D02*
X10875365Y12340459D01*
D11*
X10450000Y13100000D02*
X10549999Y13199999D01*
D35*
X10900001Y12930780D02*
X10875365Y12906144D01*
X10900001Y13300001D02*
X10900001Y12930780D01*
D37*
X11665685Y13700000D02*
X11399988Y13700000D01*
X12350000Y14384315D02*
X11665685Y13700000D01*
X12350000Y14400000D02*
X12350000Y14384315D01*
D35*
X10900001Y13300001D02*
X10999989Y13300001D01*
X10450000Y13100000D02*
X10700000Y13100000D01*
X10999989Y13300001D02*
X11399988Y13700000D01*
X10700000Y13100000D02*
X10900001Y13300001D01*
D11*
X15000000Y14625000D02*
X14475000Y14625000D01*
X15250000Y14625000D02*
X15000000Y14625000D01*
X15000000Y14625000D02*
X15424861Y14625000D01*
X15400000Y14775000D02*
X15549861Y14625139D01*
X15549861Y14625139D02*
X15549861Y14500000D01*
X14475000Y15625000D02*
X15250000Y15625000D01*
X15250000Y15625000D02*
X15400000Y15475000D01*
X15400000Y15475000D02*
X15400000Y14775000D01*
X15400000Y14775000D02*
X15250000Y14625000D01*
X14575000Y14625000D02*
X12575000Y14625000D01*
X12575000Y14625000D02*
X12350000Y14400000D01*
D35*
X9680000Y13100000D02*
X10450000Y13100000D01*
D11*
X9680000Y13150000D02*
X9680000Y13100000D01*
X22936423Y8941722D02*
X23336422Y8541723D01*
X22380000Y9965000D02*
X22925977Y9419023D01*
X22380000Y10100000D02*
X22380000Y9965000D01*
X22925977Y8952168D02*
X22936423Y8941722D01*
X22925977Y9419023D02*
X22925977Y8952168D01*
X17780000Y2000000D02*
X19300000Y3520000D01*
X19300000Y3520000D02*
X19300000Y4100000D01*
X13905010Y22080000D02*
X13899999Y22074989D01*
X14750000Y22080000D02*
X13905010Y22080000D01*
X13899999Y22074989D02*
X13500000Y21674990D01*
X30350001Y25600001D02*
X30750000Y26000000D01*
X30024990Y25274990D02*
X30350001Y25600001D01*
X25300000Y25274990D02*
X30024990Y25274990D01*
X13900000Y5750000D02*
X13900000Y5550000D01*
X13165685Y4815685D02*
X13165685Y4600000D01*
X13165685Y4600000D02*
X12600000Y4600000D01*
X18462810Y13487810D02*
X18700000Y13725000D01*
X18750000Y11950000D02*
X18750000Y12386410D01*
X18750000Y12386410D02*
X18462810Y12673600D01*
X18462810Y12673600D02*
X18462810Y13487810D01*
X18700000Y13725000D02*
X18700000Y14675000D01*
D38*
X7015685Y13000000D02*
X6450000Y13000000D01*
X7065685Y12850000D02*
X7065685Y12950000D01*
X8500000Y11415685D02*
X7065685Y12850000D01*
D35*
X8550000Y10900000D02*
X6450000Y13000000D01*
D38*
X8500000Y11100000D02*
X8500000Y11415685D01*
X8020000Y13200000D02*
X7670000Y12850000D01*
X7065685Y12950000D02*
X7015685Y13000000D01*
X7670000Y12850000D02*
X7065685Y12850000D01*
X7700000Y4600010D02*
X7700000Y5700000D01*
X7700000Y5700000D02*
X7000000Y6400000D01*
X10250000Y4670000D02*
X7769990Y4670000D01*
X7769990Y4670000D02*
X7700000Y4600010D01*
X12600000Y4600000D02*
X10320000Y4600000D01*
X10320000Y4600000D02*
X10250000Y4670000D01*
D35*
X12599990Y4600010D02*
X12600000Y4600000D01*
D11*
X13650000Y4600000D02*
X13165685Y4600000D01*
D35*
X12650000Y4550000D02*
X12600000Y4600000D01*
D11*
X12500000Y18945000D02*
X12500000Y18000000D01*
D35*
X12850000Y10170000D02*
X12850000Y8750000D01*
X12850000Y8750000D02*
X13000000Y8600000D01*
D11*
X17250000Y17495000D02*
X17250000Y16125000D01*
X17250000Y18800000D02*
X17250000Y17495000D01*
X17300000Y14675000D02*
X17300000Y13795000D01*
X17300000Y13795000D02*
X16750000Y13245000D01*
X5800000Y16650000D02*
X5800000Y15250000D01*
X5800000Y15250000D02*
X6124998Y14925002D01*
X6124998Y14925002D02*
X8538591Y14925002D01*
X8538591Y14925002D02*
X8763598Y15150009D01*
X8763598Y15150009D02*
X11200009Y15150009D01*
X5800000Y17950000D02*
X5800000Y16650000D01*
X10685001Y19635001D02*
X11320002Y19000000D01*
X5800000Y19250000D02*
X6185001Y19635001D01*
X6185001Y19635001D02*
X10685001Y19635001D01*
X5800000Y17950000D02*
X5800000Y19250000D01*
X6850000Y16650000D02*
X5800000Y16650000D01*
X6850000Y17950000D02*
X5800000Y17950000D01*
X17250000Y16125000D02*
X17300000Y16075000D01*
X17175000Y16125000D02*
X17225000Y16075000D01*
X18675000Y14625000D02*
X18625000Y14675000D01*
X20827361Y13125000D02*
X20752349Y13049988D01*
X22125000Y13125000D02*
X20827361Y13125000D01*
X20752349Y13049988D02*
X20186664Y13049988D01*
X22125000Y13125000D02*
X21525000Y13125000D01*
X22125000Y13125000D02*
X22420000Y12830000D01*
X22420000Y12830000D02*
X22420000Y12600000D01*
X22420000Y12600000D02*
X22950000Y12070000D01*
X25935865Y17109132D02*
X25935865Y16169135D01*
X25935865Y16169135D02*
X26030000Y16075000D01*
X21425000Y15125000D02*
X25130000Y15125000D01*
X25130000Y15125000D02*
X26030000Y16025000D01*
X26030000Y16025000D02*
X26030000Y16075000D01*
X24430000Y18800000D02*
X24199992Y18800000D01*
X24199992Y18800000D02*
X23399999Y19599993D01*
X23399999Y19599993D02*
X23000000Y19999992D01*
X21350000Y17125000D02*
X22725000Y17125000D01*
X22725000Y17125000D02*
X23900000Y18300000D01*
X23900000Y18300000D02*
X23930000Y18300000D01*
X23930000Y18300000D02*
X24430000Y18800000D01*
X24450012Y29200001D02*
X24050013Y29600000D01*
X24710000Y28940013D02*
X24450012Y29200001D01*
X24710000Y26700000D02*
X24710000Y28940013D01*
X23910000Y30700000D02*
X23910000Y29740013D01*
X23840000Y29600000D02*
X24050013Y29600000D01*
X23910000Y29740013D02*
X24050013Y29600000D01*
X31695000Y5995000D02*
X31700000Y6000000D01*
X29210000Y5995000D02*
X31695000Y5995000D01*
X41475000Y10650000D02*
X41475000Y11975000D01*
X41475000Y11975000D02*
X41500000Y12000000D01*
X41500000Y10675000D02*
X41500000Y12000000D01*
X29210000Y7995000D02*
X29210000Y5995000D01*
X41575000Y26000000D02*
X41575000Y27775000D01*
X41575000Y27775000D02*
X41600000Y27800000D01*
X25310000Y24100000D02*
X25310000Y24190000D01*
X25310000Y24190000D02*
X24100000Y25400000D01*
X25310000Y22500000D02*
X25310000Y24100000D01*
X29400000Y16300000D02*
X29400000Y16800000D01*
X29400000Y16800000D02*
X29160000Y17040000D01*
X29160000Y17040000D02*
X29160000Y17695000D01*
X41675000Y19225004D02*
X41300000Y19600004D01*
X41675000Y18440000D02*
X41675000Y19225004D01*
X29160000Y17695000D02*
X29160000Y19385000D01*
X29160000Y19385000D02*
X29170000Y19395000D01*
X23890000Y24100000D02*
X23890000Y24310000D01*
X23890000Y24310000D02*
X23400000Y24800000D01*
X23400000Y24800000D02*
X22300000Y24800000D01*
X27750000Y16295000D02*
X27750000Y17685000D01*
X27750000Y17685000D02*
X27740000Y17695000D01*
X25750000Y5295000D02*
X26300000Y5295000D01*
X26300000Y5295000D02*
X27000000Y5995000D01*
X27000000Y5995000D02*
X27790000Y5995000D01*
X22800000Y6400000D02*
X22700000Y6500000D01*
X22700000Y6500000D02*
X22700000Y7400000D01*
X22810000Y4100000D02*
X22810000Y6400000D01*
X22810000Y6400000D02*
X22800000Y6400000D01*
X22160000Y8500000D02*
X22160000Y8440000D01*
X22160000Y8440000D02*
X22700000Y7900000D01*
X22700000Y7900000D02*
X22700000Y7400000D01*
D35*
X14000000Y9934315D02*
X14000000Y10500000D01*
D36*
X13600001Y10899999D02*
X14000000Y10500000D01*
X13600001Y11329999D02*
X13600001Y10899999D01*
X12800000Y12130000D02*
X13600001Y11329999D01*
D35*
X14390000Y8900000D02*
X14000000Y9290000D01*
X14000000Y9290000D02*
X14000000Y9934315D01*
D38*
X4100000Y7900000D02*
X4100000Y8550000D01*
X4100000Y8550000D02*
X4100000Y10250000D01*
X3250000Y7200000D02*
X4100000Y8050000D01*
X4100000Y8050000D02*
X4100000Y8550000D01*
X4400000Y6900000D02*
X4100000Y7200000D01*
X4100000Y7200000D02*
X3250000Y7200000D01*
X5000000Y6900000D02*
X4400000Y6900000D01*
X4100000Y10250000D02*
X4100000Y12850000D01*
X5000000Y7250000D02*
X4750000Y7250000D01*
X4750000Y7250000D02*
X4100000Y7900000D01*
X5000000Y6900000D02*
X5000000Y7250000D01*
D11*
X1950000Y19800000D02*
X1950000Y19650000D01*
X2050000Y19750000D02*
X2000000Y19750000D01*
X2000000Y19750000D02*
X1950000Y19800000D01*
X2349999Y19450001D02*
X2050000Y19750000D01*
X1950000Y13800000D02*
X2349999Y14199999D01*
X2349999Y14199999D02*
X2349999Y19450001D01*
X14750000Y20420000D02*
X14532557Y20637443D01*
X14532557Y20637443D02*
X13559699Y20637443D01*
X13559699Y20637443D02*
X12994014Y20637443D01*
D35*
X12900000Y12800000D02*
X12900000Y12230000D01*
X12900000Y12230000D02*
X12800000Y12130000D01*
X13300000Y13200000D02*
X13300000Y13200024D01*
X12900000Y12800000D02*
X13300000Y13200000D01*
D11*
X13724976Y13625000D02*
X13699999Y13600023D01*
X13925000Y13625000D02*
X13724976Y13625000D01*
X13300000Y13225000D02*
X13300000Y13200024D01*
X13700000Y13625000D02*
X13300000Y13225000D01*
X14475000Y13625000D02*
X13700000Y13625000D01*
X13699999Y13600023D02*
X13300000Y13200024D01*
X15250000Y18900000D02*
X15250000Y19920000D01*
X15250000Y19920000D02*
X14750000Y20420000D01*
X14575000Y13625000D02*
X14125000Y13625000D01*
X19187812Y13255816D02*
X19187812Y13001833D01*
X20988590Y14125000D02*
X20638588Y13774998D01*
X21350000Y14125000D02*
X20988590Y14125000D01*
X20638588Y13774998D02*
X19706994Y13774998D01*
X19706994Y13774998D02*
X19187812Y13255816D01*
X22997822Y16125000D02*
X24272800Y17399978D01*
X21350000Y16125000D02*
X22997822Y16125000D01*
X25936943Y19997156D02*
X25536944Y20397155D01*
X24272800Y17399978D02*
X25201391Y17399978D01*
X25201391Y17399978D02*
X25936943Y18135530D01*
X25936943Y18135530D02*
X25936943Y19997156D01*
X21139030Y19918969D02*
X21139030Y20614971D01*
X21139030Y20614971D02*
X21600000Y21075941D01*
X21600000Y25250000D02*
X21600000Y25900000D01*
X21525000Y18125000D02*
X21525000Y19532999D01*
X21600000Y21075941D02*
X21600000Y25250000D01*
X21525000Y19532999D02*
X21139030Y19918969D01*
X23290000Y26700000D02*
X22300000Y26700000D01*
X22300000Y26700000D02*
X21600000Y26000000D01*
X21600000Y26000000D02*
X21600000Y25900000D01*
X21600000Y29810000D02*
X21600000Y28300000D01*
X21600000Y29810000D02*
X22490000Y30700000D01*
X20200000Y4100000D02*
X21390000Y4100000D01*
X21290000Y3995000D02*
X21390000Y3895000D01*
X20740000Y8600000D02*
X20740000Y7610000D01*
X20740000Y7610000D02*
X21150000Y7200000D01*
X20720000Y10200000D02*
X20720000Y8620000D01*
X20720000Y8620000D02*
X20740000Y8600000D01*
X20750000Y11950000D02*
X20750000Y10230000D01*
X20750000Y10230000D02*
X20720000Y10200000D01*
X20750000Y11950000D02*
X20750000Y11675000D01*
X6648013Y14025011D02*
X6598001Y13974999D01*
X10752014Y14425018D02*
X10352007Y14025011D01*
X12330000Y15125000D02*
X11630018Y14425018D01*
X10352007Y14025011D02*
X6648013Y14025011D01*
X4675001Y13974999D02*
X4499999Y14150001D01*
X6598001Y13974999D02*
X4675001Y13974999D01*
X4499999Y14150001D02*
X4100000Y14550000D01*
X11630018Y14425018D02*
X10752014Y14425018D01*
X14575000Y15125000D02*
X12330000Y15125000D01*
D38*
X8900000Y8700000D02*
X10250000Y8700000D01*
D35*
X8900000Y8700000D02*
X8800000Y8800000D01*
D38*
X6600000Y9500000D02*
X8100000Y9500000D01*
X8100000Y9500000D02*
X8800000Y8800000D01*
X6300000Y9800000D02*
X6600000Y9500000D01*
D35*
X11700000Y12700000D02*
X11700000Y12450000D01*
X11700000Y12450000D02*
X11700000Y12350000D01*
D37*
X12500000Y13500000D02*
X11700000Y12700000D01*
X11700000Y12450000D02*
X11750000Y12400000D01*
D35*
X11700000Y12350000D02*
X11700000Y10200000D01*
X11700000Y10200000D02*
X10315000Y8815000D01*
X10315000Y8815000D02*
X10250000Y8815000D01*
X10470000Y8515000D02*
X10250000Y8515000D01*
D11*
X14575000Y14125000D02*
X13125000Y14125000D01*
X13125000Y14125000D02*
X13000000Y14000000D01*
D36*
X12500000Y13500000D02*
X13000000Y14000000D01*
D11*
X20689019Y20801371D02*
X20700011Y20812363D01*
X19200000Y28500000D02*
X16680000Y28500000D01*
X20750000Y19675000D02*
X20689019Y19735981D01*
X20689019Y19735981D02*
X20689019Y20801371D01*
X16680000Y28500000D02*
X15989999Y29190001D01*
X20700011Y26999989D02*
X19200000Y28500000D01*
X20700011Y20812363D02*
X20700011Y26999989D01*
X20750000Y18900000D02*
X20750000Y19675000D01*
X15989999Y29190001D02*
X15240000Y29940000D01*
X17950000Y26100000D02*
X20250000Y23800000D01*
X20239008Y18810992D02*
X20250000Y18800000D01*
X17350000Y26100000D02*
X17950000Y26100000D01*
X16450000Y27781002D02*
X16450000Y27000000D01*
X11624999Y28475001D02*
X15756001Y28475001D01*
X16450000Y27000000D02*
X17350000Y26100000D01*
X20239008Y20987771D02*
X20239008Y18810992D01*
X20250000Y20998763D02*
X20239008Y20987771D01*
X10160000Y29940000D02*
X11624999Y28475001D01*
X15756001Y28475001D02*
X16450000Y27781002D01*
X20250000Y23800000D02*
X20250000Y20998763D01*
X29500000Y23700000D02*
X29900000Y23700000D01*
X29900000Y23700000D02*
X30300000Y23300000D01*
X30300000Y23300000D02*
X31190000Y23300000D01*
X31190000Y23300000D02*
X31890000Y24000000D01*
X18450000Y11000000D02*
X18563590Y11000000D01*
X18563590Y11000000D02*
X18563600Y10999990D01*
X18563600Y10999990D02*
X18936400Y10999990D01*
X18936400Y10999990D02*
X19200010Y11263600D01*
X19200010Y11263600D02*
X19200010Y11287834D01*
X19200010Y11287834D02*
X19250000Y11337824D01*
X19250000Y11337824D02*
X19250000Y11950000D01*
X18450000Y6695000D02*
X18450000Y11000000D01*
X18450000Y11000000D02*
X18250000Y11200000D01*
X20643923Y5468604D02*
X19676396Y5468604D01*
X19676396Y5468604D02*
X18450000Y6695000D01*
X18250000Y11200000D02*
X18250000Y11950000D01*
X17750000Y18900000D02*
X17750000Y19750000D01*
X17750000Y19750000D02*
X17475010Y20024990D01*
X17475010Y20024990D02*
X17475010Y20150000D01*
X14614473Y12585527D02*
X14614473Y12350010D01*
X14614473Y12350010D02*
X14214474Y11950011D01*
X14575000Y12625000D02*
X14614473Y12585527D01*
X17528180Y23743669D02*
X18093865Y23743669D01*
X16877984Y23743669D02*
X17528180Y23743669D01*
X15750000Y22615685D02*
X16877984Y23743669D01*
X15750000Y18300000D02*
X15750000Y22615685D01*
X15750000Y18300000D02*
X15750000Y18900000D01*
X16323835Y17726165D02*
X15750000Y18300000D01*
X16323835Y17073835D02*
X16323835Y17726165D01*
X16274999Y13951870D02*
X16274999Y17024999D01*
X16274999Y17024999D02*
X16323835Y17073835D01*
X14500000Y13125000D02*
X15448124Y13125000D01*
X15448124Y13125000D02*
X16274999Y13951870D01*
X14575000Y16625000D02*
X13825000Y16625000D01*
X13825000Y16625000D02*
X13450000Y17000000D01*
X13450000Y17000000D02*
X12250000Y17000000D01*
X12250000Y17000000D02*
X11000000Y18250000D01*
X11000000Y18250000D02*
X9400000Y18250000D01*
X9400000Y18250000D02*
X7800000Y18250000D01*
X7800000Y18250000D02*
X7100000Y18950000D01*
X7100000Y18950000D02*
X6850000Y18950000D01*
X9400000Y16350000D02*
X7800000Y16350000D01*
X7800000Y16350000D02*
X7100000Y15650000D01*
X7100000Y15650000D02*
X6850000Y15650000D01*
X9400000Y16350000D02*
X8350000Y16350000D01*
X11910000Y16300000D02*
X9450000Y16300000D01*
X9450000Y16300000D02*
X9400000Y16350000D01*
X15750000Y11950000D02*
X15750000Y11113354D01*
X15750000Y11113354D02*
X15519372Y10882726D01*
X15519372Y10882726D02*
X15519372Y10317041D01*
X18954296Y21336069D02*
X18388611Y21336069D01*
X19750000Y18900000D02*
X19750000Y20540365D01*
X19750000Y20540365D02*
X18954296Y21336069D01*
X19750000Y18800000D02*
X19750000Y19324092D01*
X18073004Y20600000D02*
X17483366Y21189638D01*
X17483366Y21189638D02*
X17483366Y21277814D01*
X17483366Y21277814D02*
X17483366Y21843499D01*
X19250000Y20250000D02*
X18900000Y20600000D01*
X19250000Y18800000D02*
X19250000Y20250000D01*
X18900000Y20600000D02*
X18073004Y20600000D01*
X15590616Y17369232D02*
X15346384Y17125000D01*
X15346384Y17125000D02*
X14575000Y17125000D01*
X7620000Y2000000D02*
X8420000Y2000000D01*
X15760000Y5782820D02*
X13502190Y3525012D01*
X15760000Y9086998D02*
X15760000Y5782820D01*
X16250704Y11949296D02*
X16250704Y9577702D01*
X16250000Y11950000D02*
X16250704Y11949296D01*
X9945012Y3525012D02*
X8420000Y2000000D01*
X16250704Y9577702D02*
X15760000Y9086998D01*
X13502190Y3525012D02*
X9945012Y3525012D01*
X16750000Y11950000D02*
X16750000Y6136410D01*
X11450000Y2200000D02*
X11250000Y2000000D01*
X16750000Y6136410D02*
X13688591Y3075001D01*
X13688591Y3075001D02*
X11825001Y3075001D01*
X11825001Y3075001D02*
X11450000Y2700000D01*
X11450000Y2700000D02*
X11450000Y2200000D01*
X11250000Y2000000D02*
X10160000Y2000000D01*
X13450000Y2000000D02*
X12700000Y2000000D01*
X17250000Y11950000D02*
X17250000Y5800000D01*
X17250000Y5800000D02*
X13450000Y2000000D01*
X17750000Y11950000D02*
X17750000Y4300000D01*
X15340000Y2100000D02*
X15240000Y2000000D01*
X17750000Y4300000D02*
X16450000Y3000000D01*
X16450000Y3000000D02*
X16450000Y2400000D01*
X16450000Y2400000D02*
X16150000Y2100000D01*
X16150000Y2100000D02*
X15340000Y2100000D01*
X19594988Y11046401D02*
X19750000Y11201413D01*
X19050000Y10263589D02*
X19594988Y10808577D01*
X19050000Y6895000D02*
X19050000Y10263589D01*
X21948915Y5519979D02*
X21243892Y6225002D01*
X21243892Y6225002D02*
X19719998Y6225002D01*
X19719998Y6225002D02*
X19050000Y6895000D01*
X19594988Y10808577D02*
X19594988Y11046401D01*
X19750000Y11201413D02*
X19750000Y11950000D01*
X18949999Y17100001D02*
X19615684Y17100001D01*
X18250000Y17800000D02*
X18949999Y17100001D01*
X18250000Y18800000D02*
X18250000Y17800000D01*
X20200000Y16515685D02*
X20200000Y15465685D01*
X20200000Y15465685D02*
X20200000Y14900000D01*
X19615684Y17100001D02*
X20200000Y16515685D01*
X16809310Y23024995D02*
X17739761Y23024995D01*
X18778479Y23014436D02*
X18817262Y23053219D01*
X16250000Y18800000D02*
X16250000Y22465685D01*
X17739761Y23024995D02*
X17750320Y23014436D01*
X16250000Y22465685D02*
X16809310Y23024995D01*
X17750320Y23014436D02*
X18778479Y23014436D01*
X14575000Y18125000D02*
X14575000Y18968322D01*
X14055678Y19487644D02*
X13655679Y19887643D01*
X14575000Y18968322D02*
X14055678Y19487644D01*
X14575000Y17625000D02*
X13770000Y17625000D01*
X13225001Y18169999D02*
X13225001Y19293001D01*
X13770000Y17625000D02*
X13225001Y18169999D01*
X13225001Y19293001D02*
X12848001Y19670001D01*
X12848001Y19670001D02*
X12629999Y19670001D01*
X12629999Y19670001D02*
X12313101Y19986899D01*
X12313101Y19986899D02*
X12234530Y19986899D01*
X20044999Y10558588D02*
X19950000Y10463589D01*
X20250000Y11065002D02*
X20044999Y10860001D01*
X20250000Y11950000D02*
X20250000Y11065002D01*
X20044999Y10860001D02*
X20044999Y10558588D01*
X19950000Y10463589D02*
X19950000Y7295000D01*
X18750000Y18800000D02*
X18750000Y18125000D01*
X18750000Y18125000D02*
X19099666Y17775334D01*
X19099666Y17775334D02*
X19920369Y17775334D01*
X18265685Y24900000D02*
X17700000Y24900000D01*
X17564375Y22563970D02*
X18233507Y22563970D01*
X19542284Y23623401D02*
X18265685Y24900000D01*
X19165284Y22328197D02*
X19542284Y22705197D01*
X18469280Y22328197D02*
X19165284Y22328197D01*
X18233507Y22563970D02*
X18469280Y22328197D01*
X17124984Y22574984D02*
X17553361Y22574984D01*
X16750000Y18800000D02*
X16750000Y22200000D01*
X17553361Y22574984D02*
X17564375Y22563970D01*
X16750000Y22200000D02*
X17124984Y22574984D01*
X19542284Y22705197D02*
X19542284Y23623401D01*
X22225000Y17625000D02*
X22545000Y17625000D01*
X22545000Y17625000D02*
X22770000Y17850000D01*
X22770000Y17850000D02*
X22770000Y18600000D01*
X22225000Y17625000D02*
X21525000Y17625000D01*
X21350000Y17625000D02*
X22225000Y17625000D01*
X21425000Y15625000D02*
X23225000Y15625000D01*
X23675000Y16075000D02*
X24120000Y16075000D01*
X23225000Y15625000D02*
X23675000Y16075000D01*
X21425000Y13625000D02*
X22845000Y13625000D01*
X22845000Y13625000D02*
X22950000Y13730000D01*
X15250000Y11450000D02*
X14725002Y10925002D01*
X14310000Y7420000D02*
X14310000Y7250000D01*
X15250000Y11850000D02*
X15250000Y11450000D01*
X15100000Y9474968D02*
X15100000Y8210000D01*
X14725002Y10925002D02*
X14725002Y9849966D01*
X14725002Y9849966D02*
X15100000Y9474968D01*
X15100000Y8210000D02*
X14310000Y7420000D01*
X12890000Y7250000D02*
X12890000Y5860000D01*
X12890000Y5860000D02*
X13000000Y5750000D01*
D39*
G36*
X40123000Y3127000D02*
X37500000Y3127000D01*
X37464619Y3121972D01*
X37432039Y3107286D01*
X37404840Y3084105D01*
X37385177Y3054264D01*
X37374605Y3020127D01*
X37373000Y3000000D01*
X37373000Y502000D01*
X34127000Y502000D01*
X34127000Y1750000D01*
X34121972Y1785381D01*
X34101600Y1826200D01*
X33377000Y2792333D01*
X33377000Y12530464D01*
X35471913Y12530464D01*
X35501191Y12370945D01*
X35560894Y12220151D01*
X35648750Y12083826D01*
X35761412Y11967161D01*
X35894588Y11874601D01*
X36043207Y11809671D01*
X36201606Y11774845D01*
X36363754Y11771448D01*
X36523473Y11799611D01*
X36674680Y11858260D01*
X36811615Y11945162D01*
X36929064Y12057007D01*
X37022551Y12189534D01*
X37088517Y12337695D01*
X37124448Y12495848D01*
X37127035Y12681091D01*
X37095533Y12840186D01*
X37033730Y12990131D01*
X36943980Y13125217D01*
X36829700Y13240297D01*
X36695244Y13330989D01*
X36545734Y13393837D01*
X36386863Y13426449D01*
X36224684Y13427581D01*
X36065374Y13397191D01*
X35915001Y13336436D01*
X35779292Y13247631D01*
X35663416Y13134157D01*
X35571788Y13000338D01*
X35507898Y12851270D01*
X35474178Y12692631D01*
X35471913Y12530464D01*
X33377000Y12530464D01*
X33377000Y19917800D01*
X35909258Y19917800D01*
X35938536Y19758281D01*
X35998239Y19607487D01*
X36086095Y19471162D01*
X36198757Y19354497D01*
X36331933Y19261937D01*
X36480552Y19197007D01*
X36638951Y19162181D01*
X36801099Y19158784D01*
X36960818Y19186947D01*
X37112025Y19245596D01*
X37248960Y19332498D01*
X37366409Y19444343D01*
X37459896Y19576870D01*
X37525862Y19725031D01*
X37561793Y19883184D01*
X37564380Y20068427D01*
X37532878Y20227522D01*
X37471075Y20377467D01*
X37381325Y20512553D01*
X37267045Y20627633D01*
X37132589Y20718325D01*
X36983079Y20781173D01*
X36824208Y20813785D01*
X36662029Y20814917D01*
X36502719Y20784527D01*
X36352346Y20723772D01*
X36216637Y20634967D01*
X36100761Y20521493D01*
X36009133Y20387674D01*
X35945243Y20238606D01*
X35911523Y20079967D01*
X35909258Y19917800D01*
X33377000Y19917800D01*
X33377000Y23140750D01*
X33439750Y23078000D01*
X33677056Y23078000D01*
X33759551Y23094409D01*
X33837261Y23126598D01*
X33907197Y23173328D01*
X33966673Y23232803D01*
X34013403Y23302740D01*
X34045591Y23380449D01*
X34062000Y23462944D01*
X34062000Y23870250D01*
X33955250Y23977000D01*
X33377000Y23977000D01*
X33377000Y24023000D01*
X33955250Y24023000D01*
X34062000Y24129750D01*
X34062000Y24537056D01*
X34045591Y24619551D01*
X34013403Y24697260D01*
X33966673Y24767197D01*
X33907197Y24826672D01*
X33837261Y24873402D01*
X33759551Y24905591D01*
X33677056Y24922000D01*
X33439750Y24922000D01*
X33377000Y24859250D01*
X33377000Y27630464D01*
X35471913Y27630464D01*
X35501191Y27470945D01*
X35560894Y27320151D01*
X35648750Y27183826D01*
X35761412Y27067161D01*
X35894588Y26974601D01*
X36043207Y26909671D01*
X36201606Y26874845D01*
X36363754Y26871448D01*
X36523473Y26899611D01*
X36674680Y26958260D01*
X36811615Y27045162D01*
X36929064Y27157007D01*
X37022551Y27289534D01*
X37088517Y27437695D01*
X37124448Y27595848D01*
X37127035Y27781091D01*
X37095533Y27940186D01*
X37033730Y28090131D01*
X36943980Y28225217D01*
X36829700Y28340297D01*
X36695244Y28430989D01*
X36545734Y28493837D01*
X36386863Y28526449D01*
X36224684Y28527581D01*
X36065374Y28497191D01*
X35915001Y28436436D01*
X35779292Y28347631D01*
X35663416Y28234157D01*
X35571788Y28100338D01*
X35507898Y27951270D01*
X35474178Y27792631D01*
X35471913Y27630464D01*
X33377000Y27630464D01*
X33377000Y31498000D01*
X40123000Y31498000D01*
X40123000Y3127000D01*
X40123000Y3127000D01*
G37*
X40123000Y3127000D02*
X37500000Y3127000D01*
X37464619Y3121972D01*
X37432039Y3107286D01*
X37404840Y3084105D01*
X37385177Y3054264D01*
X37374605Y3020127D01*
X37373000Y3000000D01*
X37373000Y502000D01*
X34127000Y502000D01*
X34127000Y1750000D01*
X34121972Y1785381D01*
X34101600Y1826200D01*
X33377000Y2792333D01*
X33377000Y12530464D01*
X35471913Y12530464D01*
X35501191Y12370945D01*
X35560894Y12220151D01*
X35648750Y12083826D01*
X35761412Y11967161D01*
X35894588Y11874601D01*
X36043207Y11809671D01*
X36201606Y11774845D01*
X36363754Y11771448D01*
X36523473Y11799611D01*
X36674680Y11858260D01*
X36811615Y11945162D01*
X36929064Y12057007D01*
X37022551Y12189534D01*
X37088517Y12337695D01*
X37124448Y12495848D01*
X37127035Y12681091D01*
X37095533Y12840186D01*
X37033730Y12990131D01*
X36943980Y13125217D01*
X36829700Y13240297D01*
X36695244Y13330989D01*
X36545734Y13393837D01*
X36386863Y13426449D01*
X36224684Y13427581D01*
X36065374Y13397191D01*
X35915001Y13336436D01*
X35779292Y13247631D01*
X35663416Y13134157D01*
X35571788Y13000338D01*
X35507898Y12851270D01*
X35474178Y12692631D01*
X35471913Y12530464D01*
X33377000Y12530464D01*
X33377000Y19917800D01*
X35909258Y19917800D01*
X35938536Y19758281D01*
X35998239Y19607487D01*
X36086095Y19471162D01*
X36198757Y19354497D01*
X36331933Y19261937D01*
X36480552Y19197007D01*
X36638951Y19162181D01*
X36801099Y19158784D01*
X36960818Y19186947D01*
X37112025Y19245596D01*
X37248960Y19332498D01*
X37366409Y19444343D01*
X37459896Y19576870D01*
X37525862Y19725031D01*
X37561793Y19883184D01*
X37564380Y20068427D01*
X37532878Y20227522D01*
X37471075Y20377467D01*
X37381325Y20512553D01*
X37267045Y20627633D01*
X37132589Y20718325D01*
X36983079Y20781173D01*
X36824208Y20813785D01*
X36662029Y20814917D01*
X36502719Y20784527D01*
X36352346Y20723772D01*
X36216637Y20634967D01*
X36100761Y20521493D01*
X36009133Y20387674D01*
X35945243Y20238606D01*
X35911523Y20079967D01*
X35909258Y19917800D01*
X33377000Y19917800D01*
X33377000Y23140750D01*
X33439750Y23078000D01*
X33677056Y23078000D01*
X33759551Y23094409D01*
X33837261Y23126598D01*
X33907197Y23173328D01*
X33966673Y23232803D01*
X34013403Y23302740D01*
X34045591Y23380449D01*
X34062000Y23462944D01*
X34062000Y23870250D01*
X33955250Y23977000D01*
X33377000Y23977000D01*
X33377000Y24023000D01*
X33955250Y24023000D01*
X34062000Y24129750D01*
X34062000Y24537056D01*
X34045591Y24619551D01*
X34013403Y24697260D01*
X33966673Y24767197D01*
X33907197Y24826672D01*
X33837261Y24873402D01*
X33759551Y24905591D01*
X33677056Y24922000D01*
X33439750Y24922000D01*
X33377000Y24859250D01*
X33377000Y27630464D01*
X35471913Y27630464D01*
X35501191Y27470945D01*
X35560894Y27320151D01*
X35648750Y27183826D01*
X35761412Y27067161D01*
X35894588Y26974601D01*
X36043207Y26909671D01*
X36201606Y26874845D01*
X36363754Y26871448D01*
X36523473Y26899611D01*
X36674680Y26958260D01*
X36811615Y27045162D01*
X36929064Y27157007D01*
X37022551Y27289534D01*
X37088517Y27437695D01*
X37124448Y27595848D01*
X37127035Y27781091D01*
X37095533Y27940186D01*
X37033730Y28090131D01*
X36943980Y28225217D01*
X36829700Y28340297D01*
X36695244Y28430989D01*
X36545734Y28493837D01*
X36386863Y28526449D01*
X36224684Y28527581D01*
X36065374Y28497191D01*
X35915001Y28436436D01*
X35779292Y28347631D01*
X35663416Y28234157D01*
X35571788Y28100338D01*
X35507898Y27951270D01*
X35474178Y27792631D01*
X35471913Y27630464D01*
X33377000Y27630464D01*
X33377000Y31498000D01*
X40123000Y31498000D01*
X40123000Y3127000D01*
G36*
X28191439Y24600930D02*
X28099215Y24562730D01*
X27995211Y24493237D01*
X27906763Y24404789D01*
X27837270Y24300785D01*
X27789403Y24185223D01*
X27765000Y24062542D01*
X27765000Y23985750D01*
X27923750Y23827000D01*
X28500000Y23827000D01*
X28500000Y23847000D01*
X28700000Y23847000D01*
X28700000Y23827000D01*
X28747000Y23827000D01*
X28747000Y23573000D01*
X28700000Y23573000D01*
X28700000Y22923750D01*
X28858750Y22765000D01*
X28862542Y22765000D01*
X28985223Y22789403D01*
X29100785Y22837270D01*
X29204789Y22906763D01*
X29272822Y22974796D01*
X29300000Y22970934D01*
X29700000Y22970934D01*
X29767998Y22976356D01*
X29825264Y22994090D01*
X29909677Y22909677D01*
X29949075Y22877315D01*
X29988138Y22844537D01*
X29990683Y22843138D01*
X29992924Y22841297D01*
X30037832Y22817218D01*
X30082544Y22792637D01*
X30085312Y22791759D01*
X30087869Y22790388D01*
X30136668Y22775468D01*
X30185233Y22760063D01*
X30188111Y22759740D01*
X30190892Y22758890D01*
X30241648Y22753735D01*
X30292293Y22748054D01*
X30297973Y22748014D01*
X30298073Y22748004D01*
X30298167Y22748013D01*
X30300000Y22748000D01*
X31190000Y22748000D01*
X31240690Y22752970D01*
X31291541Y22757419D01*
X31294333Y22758230D01*
X31297217Y22758513D01*
X31345981Y22773236D01*
X31394995Y22787476D01*
X31397573Y22788812D01*
X31400351Y22789651D01*
X31445381Y22813594D01*
X31490641Y22837054D01*
X31492908Y22838864D01*
X31495472Y22840227D01*
X31535016Y22872478D01*
X31574835Y22904266D01*
X31578875Y22908249D01*
X31578958Y22908317D01*
X31579022Y22908394D01*
X31580323Y22909677D01*
X31746580Y23075934D01*
X32215000Y23075934D01*
X32282998Y23081356D01*
X32398330Y23117073D01*
X32499146Y23183506D01*
X32577463Y23275395D01*
X32597815Y23320544D01*
X32623000Y23282324D01*
X32623000Y21499920D01*
X32607002Y21498644D01*
X32491670Y21462927D01*
X32390854Y21396494D01*
X32312537Y21304605D01*
X32262921Y21194535D01*
X32245934Y21075000D01*
X32245934Y19525000D01*
X32251356Y19457002D01*
X32287073Y19341670D01*
X32353506Y19240854D01*
X32445395Y19162537D01*
X32555465Y19112921D01*
X32623000Y19103324D01*
X32623000Y14599920D01*
X32607002Y14598644D01*
X32491670Y14562927D01*
X32390854Y14496494D01*
X32312537Y14404605D01*
X32262921Y14294535D01*
X32245934Y14175000D01*
X32245934Y12625000D01*
X32251356Y12557002D01*
X32287073Y12441670D01*
X32353506Y12340854D01*
X32445395Y12262537D01*
X32555465Y12212921D01*
X32623000Y12203324D01*
X32623000Y4599920D01*
X32607002Y4598644D01*
X32491670Y4562927D01*
X32390854Y4496494D01*
X32312537Y4404605D01*
X32262921Y4294535D01*
X32245934Y4175000D01*
X32245934Y2625000D01*
X32251356Y2557002D01*
X32287073Y2441670D01*
X32353506Y2340854D01*
X32445395Y2262537D01*
X32555465Y2212921D01*
X32633812Y2201787D01*
X32642714Y2182039D01*
X32660197Y2160197D01*
X33123000Y1697394D01*
X33123000Y502000D01*
X5208996Y502000D01*
X5296939Y585747D01*
X5712602Y1174988D01*
X6005899Y1833743D01*
X6165656Y2536920D01*
X6177157Y3360548D01*
X6037095Y4067912D01*
X5762307Y4734599D01*
X5363258Y5335216D01*
X5005049Y5695934D01*
X5675000Y5695934D01*
X5742998Y5701356D01*
X5826983Y5727365D01*
X5831763Y5720211D01*
X5920211Y5631763D01*
X6024215Y5562270D01*
X6139777Y5514403D01*
X6262458Y5490000D01*
X6714250Y5490000D01*
X6873000Y5648750D01*
X6873000Y6773000D01*
X7127000Y6773000D01*
X7127000Y5648750D01*
X7285750Y5490000D01*
X7737542Y5490000D01*
X7775457Y5497542D01*
X8795000Y5497542D01*
X8795000Y5020750D01*
X8953750Y4862000D01*
X10123000Y4862000D01*
X10123000Y5911250D01*
X10377000Y5911250D01*
X10377000Y4862000D01*
X11546250Y4862000D01*
X11705000Y5020750D01*
X11705000Y5497542D01*
X11680597Y5620223D01*
X11632730Y5735785D01*
X11563237Y5839789D01*
X11474789Y5928237D01*
X11370785Y5997730D01*
X11255223Y6045597D01*
X11132542Y6070000D01*
X10535750Y6070000D01*
X10377000Y5911250D01*
X10123000Y5911250D01*
X9964250Y6070000D01*
X9367458Y6070000D01*
X9244777Y6045597D01*
X9129215Y5997730D01*
X9025211Y5928237D01*
X8936763Y5839789D01*
X8867270Y5735785D01*
X8819403Y5620223D01*
X8795000Y5497542D01*
X7775457Y5497542D01*
X7860223Y5514403D01*
X7975785Y5562270D01*
X8079789Y5631763D01*
X8168237Y5720211D01*
X8237730Y5824215D01*
X8285597Y5939777D01*
X8310000Y6062458D01*
X8310000Y6614250D01*
X8151250Y6773000D01*
X7127000Y6773000D01*
X6873000Y6773000D01*
X6853000Y6773000D01*
X6853000Y7027000D01*
X6873000Y7027000D01*
X6873000Y8151250D01*
X7127000Y8151250D01*
X7127000Y7027000D01*
X8151250Y7027000D01*
X8310000Y7185750D01*
X8310000Y7737542D01*
X8285597Y7860223D01*
X8237730Y7975785D01*
X8168237Y8079789D01*
X8079789Y8168237D01*
X7975785Y8237730D01*
X7860223Y8285597D01*
X7737542Y8310000D01*
X7285750Y8310000D01*
X7127000Y8151250D01*
X6873000Y8151250D01*
X6714250Y8310000D01*
X6262458Y8310000D01*
X6139777Y8285597D01*
X6024215Y8237730D01*
X5920211Y8168237D01*
X5831763Y8079789D01*
X5826889Y8072495D01*
X5794535Y8087079D01*
X5675000Y8104066D01*
X5360154Y8104066D01*
X5359227Y8104567D01*
X5275896Y8130362D01*
X5192734Y8156743D01*
X5189502Y8157106D01*
X5186399Y8158066D01*
X5148977Y8161999D01*
X5027000Y8283976D01*
X5027000Y8885462D01*
X5029066Y8900000D01*
X5029066Y11600000D01*
X5027000Y11625910D01*
X5027000Y12850000D01*
X5009345Y13030055D01*
X4957054Y13203252D01*
X4872118Y13362994D01*
X4823179Y13422999D01*
X6598001Y13422999D01*
X6648691Y13427969D01*
X6699542Y13432418D01*
X6702334Y13433229D01*
X6705218Y13433512D01*
X6753982Y13448235D01*
X6802996Y13462475D01*
X6805574Y13463811D01*
X6808352Y13464650D01*
X6824077Y13473011D01*
X6947739Y13473011D01*
X7093750Y13327000D01*
X7893000Y13327000D01*
X7893000Y13347000D01*
X8147000Y13347000D01*
X8147000Y13327000D01*
X8167000Y13327000D01*
X8167000Y13073000D01*
X8147000Y13073000D01*
X8147000Y13053000D01*
X7893000Y13053000D01*
X7893000Y13073000D01*
X7093750Y13073000D01*
X6935000Y12914250D01*
X6935000Y12637458D01*
X6959403Y12514777D01*
X7007270Y12399215D01*
X7076763Y12295211D01*
X7165211Y12206763D01*
X7251280Y12149253D01*
X7214403Y12060223D01*
X7190000Y11937542D01*
X7190000Y11776636D01*
X7187927Y11783330D01*
X7121494Y11884146D01*
X7029605Y11962463D01*
X6919535Y12012079D01*
X6800000Y12029066D01*
X5800000Y12029066D01*
X5732002Y12023644D01*
X5616670Y11987927D01*
X5515854Y11921494D01*
X5437537Y11829605D01*
X5387921Y11719535D01*
X5370934Y11600000D01*
X5370934Y8900000D01*
X5376356Y8832002D01*
X5412073Y8716670D01*
X5478506Y8615854D01*
X5570395Y8537537D01*
X5680465Y8487921D01*
X5800000Y8470934D01*
X6800000Y8470934D01*
X6867998Y8476356D01*
X6983330Y8512073D01*
X7075790Y8573000D01*
X7716024Y8573000D01*
X8144512Y8144512D01*
X8198455Y8100203D01*
X8237684Y8051412D01*
X8376276Y7935120D01*
X8534816Y7847962D01*
X8707266Y7793257D01*
X8887057Y7773090D01*
X8900000Y7773000D01*
X9117721Y7773000D01*
X9200395Y7702537D01*
X9310465Y7652921D01*
X9430000Y7635934D01*
X11070000Y7635934D01*
X11137998Y7641356D01*
X11253330Y7677073D01*
X11354146Y7743506D01*
X11432463Y7835395D01*
X11482079Y7945465D01*
X11499066Y8065000D01*
X11499066Y9041644D01*
X11928520Y9471098D01*
X11949215Y9457270D01*
X12064777Y9409403D01*
X12187458Y9385000D01*
X12464250Y9385000D01*
X12623000Y9543750D01*
X12623000Y10343000D01*
X12603000Y10343000D01*
X12603000Y10597000D01*
X12623000Y10597000D01*
X12623000Y10617000D01*
X12877000Y10617000D01*
X12877000Y10597000D01*
X12897000Y10597000D01*
X12897000Y10343000D01*
X12877000Y10343000D01*
X12877000Y9543750D01*
X13035750Y9385000D01*
X13312542Y9385000D01*
X13323000Y9387080D01*
X13323000Y9290000D01*
X13329100Y9227790D01*
X13334552Y9165465D01*
X13335546Y9162045D01*
X13335893Y9158503D01*
X13353969Y9098632D01*
X13371415Y9038584D01*
X13373052Y9035425D01*
X13374082Y9032015D01*
X13403451Y8976781D01*
X13432220Y8921279D01*
X13434441Y8918497D01*
X13436112Y8915354D01*
X13475628Y8866903D01*
X13514652Y8818019D01*
X13519539Y8813063D01*
X13519621Y8812963D01*
X13519714Y8812886D01*
X13521289Y8811289D01*
X13635934Y8696644D01*
X13635934Y8405000D01*
X13641356Y8337002D01*
X13677073Y8221670D01*
X13743506Y8120854D01*
X13760879Y8106047D01*
X13700854Y8066494D01*
X13622537Y7974605D01*
X13602185Y7929456D01*
X13536494Y8029146D01*
X13444605Y8107463D01*
X13334535Y8157079D01*
X13215000Y8174066D01*
X12565000Y8174066D01*
X12497002Y8168644D01*
X12381670Y8132927D01*
X12280854Y8066494D01*
X12202537Y7974605D01*
X12152921Y7864535D01*
X12135934Y7745000D01*
X12135934Y6755000D01*
X12141356Y6687002D01*
X12177073Y6571670D01*
X12243506Y6470854D01*
X12335395Y6392537D01*
X12338000Y6391363D01*
X12338000Y5860000D01*
X12342970Y5809310D01*
X12347419Y5758459D01*
X12348230Y5755667D01*
X12348513Y5752783D01*
X12363236Y5704019D01*
X12370934Y5677522D01*
X12370934Y5450000D01*
X12376356Y5382002D01*
X12412073Y5266670D01*
X12478506Y5165854D01*
X12570395Y5087537D01*
X12680465Y5037921D01*
X12800000Y5020934D01*
X13200000Y5020934D01*
X13228748Y5023226D01*
X13295211Y4956763D01*
X13399215Y4887270D01*
X13514777Y4839403D01*
X13637458Y4815000D01*
X13641250Y4815000D01*
X13800000Y4973750D01*
X13800000Y5623000D01*
X13753000Y5623000D01*
X13753000Y5877000D01*
X13800000Y5877000D01*
X13800000Y5897000D01*
X14000000Y5897000D01*
X14000000Y5877000D01*
X14047000Y5877000D01*
X14047000Y5623000D01*
X14000000Y5623000D01*
X14000000Y4973750D01*
X14085141Y4888609D01*
X13273544Y4077012D01*
X11705000Y4077012D01*
X11705000Y4449250D01*
X11546250Y4608000D01*
X10377000Y4608000D01*
X10377000Y4588000D01*
X10123000Y4588000D01*
X10123000Y4608000D01*
X8953750Y4608000D01*
X8795000Y4449250D01*
X8795000Y3972458D01*
X8819403Y3849777D01*
X8867270Y3734215D01*
X8936763Y3630211D01*
X9025211Y3541763D01*
X9118670Y3479316D01*
X8681780Y3042426D01*
X8599605Y3112463D01*
X8489535Y3162079D01*
X8370000Y3179066D01*
X6870000Y3179066D01*
X6802002Y3173644D01*
X6686670Y3137927D01*
X6585854Y3071494D01*
X6507537Y2979605D01*
X6457921Y2869535D01*
X6440934Y2750000D01*
X6440934Y1250000D01*
X6446356Y1182002D01*
X6482073Y1066670D01*
X6548506Y965854D01*
X6640395Y887537D01*
X6750465Y837921D01*
X6870000Y820934D01*
X8370000Y820934D01*
X8437998Y826356D01*
X8553330Y862073D01*
X8654146Y928506D01*
X8732463Y1020395D01*
X8782079Y1130465D01*
X8799066Y1250000D01*
X8799066Y1599661D01*
X8804835Y1604266D01*
X8808875Y1608249D01*
X8808958Y1608317D01*
X8809022Y1608394D01*
X8810323Y1609677D01*
X9000097Y1799451D01*
X9023121Y1674005D01*
X9108092Y1459393D01*
X9233130Y1265372D01*
X9393472Y1099332D01*
X9583011Y967599D01*
X9794527Y875190D01*
X10019964Y825625D01*
X10250735Y820791D01*
X10478050Y860872D01*
X10693251Y944343D01*
X10888140Y1068024D01*
X11055294Y1227203D01*
X11188347Y1415817D01*
X11202676Y1448000D01*
X11250000Y1448000D01*
X11300690Y1452970D01*
X11351541Y1457419D01*
X11354333Y1458230D01*
X11357217Y1458513D01*
X11405981Y1473236D01*
X11454995Y1487476D01*
X11457573Y1488812D01*
X11460351Y1489651D01*
X11505381Y1513594D01*
X11550641Y1537054D01*
X11552908Y1538864D01*
X11555472Y1540227D01*
X11595016Y1572478D01*
X11601324Y1577514D01*
X11648092Y1459393D01*
X11773130Y1265372D01*
X11933472Y1099332D01*
X12123011Y967599D01*
X12334527Y875190D01*
X12559964Y825625D01*
X12790735Y820791D01*
X13018050Y860872D01*
X13233251Y944343D01*
X13428140Y1068024D01*
X13595294Y1227203D01*
X13728347Y1415817D01*
X13799797Y1576295D01*
X13834835Y1604266D01*
X13838875Y1608249D01*
X13838958Y1608317D01*
X13839022Y1608394D01*
X13840323Y1609677D01*
X14072344Y1841698D01*
X14103121Y1674005D01*
X14188092Y1459393D01*
X14313130Y1265372D01*
X14473472Y1099332D01*
X14663011Y967599D01*
X14874527Y875190D01*
X15099964Y825625D01*
X15330735Y820791D01*
X15558050Y860872D01*
X15773251Y944343D01*
X15928719Y1043007D01*
X17002612Y1043007D01*
X17068137Y804140D01*
X17315116Y688240D01*
X17579960Y622750D01*
X17852492Y610188D01*
X18122238Y651035D01*
X18378832Y743723D01*
X18491863Y804140D01*
X18557388Y1043007D01*
X17780000Y1820395D01*
X17002612Y1043007D01*
X15928719Y1043007D01*
X15968140Y1068024D01*
X16135294Y1227203D01*
X16268347Y1415817D01*
X16343256Y1584066D01*
X16354995Y1587476D01*
X16357573Y1588812D01*
X16360351Y1589651D01*
X16405381Y1613594D01*
X16440428Y1631760D01*
X16523723Y1401168D01*
X16584140Y1288137D01*
X16823007Y1222612D01*
X17600395Y2000000D01*
X17586253Y2014142D01*
X17765858Y2193747D01*
X17780000Y2179605D01*
X17794143Y2193747D01*
X17973748Y2014142D01*
X17959605Y2000000D01*
X18736993Y1222612D01*
X18975860Y1288137D01*
X19091760Y1535116D01*
X19157250Y1799960D01*
X19158399Y1824878D01*
X19193207Y1809671D01*
X19351606Y1774845D01*
X19513754Y1771448D01*
X19673473Y1799611D01*
X19824680Y1858260D01*
X19961615Y1945162D01*
X20079064Y2057007D01*
X20172551Y2189534D01*
X20238517Y2337695D01*
X20274448Y2495848D01*
X20277035Y2681091D01*
X20245533Y2840186D01*
X20183730Y2990131D01*
X20093980Y3125217D01*
X19979700Y3240297D01*
X19892919Y3298832D01*
X19904789Y3306763D01*
X19972822Y3374796D01*
X20000000Y3370934D01*
X20400000Y3370934D01*
X20467998Y3376356D01*
X20583330Y3412073D01*
X20663653Y3465002D01*
X20677073Y3421670D01*
X20743506Y3320854D01*
X20835395Y3242537D01*
X20945465Y3192921D01*
X21065000Y3175934D01*
X21715000Y3175934D01*
X21782998Y3181356D01*
X21898330Y3217073D01*
X21999146Y3283506D01*
X22077463Y3375395D01*
X22097815Y3420544D01*
X22163506Y3320854D01*
X22255395Y3242537D01*
X22365465Y3192921D01*
X22485000Y3175934D01*
X23135000Y3175934D01*
X23202998Y3181356D01*
X23273621Y3203227D01*
X22910197Y2839803D01*
X22883006Y2799410D01*
X22873000Y2750000D01*
X22873000Y2000000D01*
X22882334Y1952211D01*
X22910197Y1910197D01*
X23410197Y1410197D01*
X23450590Y1383006D01*
X23500000Y1373000D01*
X24250000Y1373000D01*
X24297789Y1382334D01*
X24339803Y1410197D01*
X24839803Y1910197D01*
X24863592Y1943204D01*
X25104374Y2424768D01*
X25552606Y2873000D01*
X26000000Y2873000D01*
X26047789Y2882334D01*
X26089803Y2910197D01*
X26339803Y3160197D01*
X26366994Y3200590D01*
X26377000Y3250000D01*
X26377000Y4500000D01*
X26363592Y4556796D01*
X26347439Y4589102D01*
X26412463Y4665395D01*
X26459248Y4769185D01*
X26504995Y4782476D01*
X26507573Y4783812D01*
X26510351Y4784651D01*
X26555381Y4808594D01*
X26600641Y4832054D01*
X26602908Y4833864D01*
X26605472Y4835227D01*
X26645016Y4867478D01*
X26684835Y4899266D01*
X26688875Y4903249D01*
X26688958Y4903317D01*
X26689022Y4903394D01*
X26690323Y4904677D01*
X27087100Y5301454D01*
X27143506Y5215854D01*
X27235395Y5137537D01*
X27345465Y5087921D01*
X27465000Y5070934D01*
X28115000Y5070934D01*
X28182998Y5076356D01*
X28298330Y5112073D01*
X28399146Y5178506D01*
X28477463Y5270395D01*
X28497815Y5315544D01*
X28563506Y5215854D01*
X28655395Y5137537D01*
X28765465Y5087921D01*
X28885000Y5070934D01*
X29535000Y5070934D01*
X29602998Y5076356D01*
X29718330Y5112073D01*
X29819146Y5178506D01*
X29897463Y5270395D01*
X29947079Y5380465D01*
X29955966Y5443000D01*
X30123000Y5443000D01*
X30123000Y4250000D01*
X30132334Y4202211D01*
X30160197Y4160197D01*
X30410197Y3910197D01*
X30450590Y3883006D01*
X30500000Y3873000D01*
X31500000Y3873000D01*
X31547789Y3882334D01*
X31589803Y3910197D01*
X31839803Y4160197D01*
X31866994Y4200590D01*
X31877000Y4250000D01*
X31877000Y5191416D01*
X31923473Y5199611D01*
X32074680Y5258260D01*
X32211615Y5345162D01*
X32329064Y5457007D01*
X32422551Y5589534D01*
X32488517Y5737695D01*
X32524448Y5895848D01*
X32527035Y6081091D01*
X32495533Y6240186D01*
X32433730Y6390131D01*
X32343980Y6525217D01*
X32229700Y6640297D01*
X32095244Y6730989D01*
X31945734Y6793837D01*
X31786863Y6826449D01*
X31624684Y6827581D01*
X31465374Y6797191D01*
X31315001Y6736436D01*
X31179292Y6647631D01*
X31076531Y6547000D01*
X29959521Y6547000D01*
X29958644Y6557998D01*
X29922927Y6673330D01*
X29856494Y6774146D01*
X29764605Y6852463D01*
X29762000Y6853637D01*
X29762000Y7140849D01*
X29819146Y7178506D01*
X29897463Y7270395D01*
X29947079Y7380465D01*
X29964066Y7500000D01*
X29964066Y7530464D01*
X29971917Y7530464D01*
X30001195Y7370945D01*
X30060898Y7220151D01*
X30148754Y7083826D01*
X30261416Y6967161D01*
X30394592Y6874601D01*
X30543211Y6809671D01*
X30701610Y6774845D01*
X30863758Y6771448D01*
X31023477Y6799611D01*
X31174684Y6858260D01*
X31311619Y6945162D01*
X31429068Y7057007D01*
X31522555Y7189534D01*
X31588521Y7337695D01*
X31624452Y7495848D01*
X31627039Y7681091D01*
X31595537Y7840186D01*
X31533734Y7990131D01*
X31443984Y8125217D01*
X31329704Y8240297D01*
X31195248Y8330989D01*
X31045738Y8393837D01*
X30886867Y8426449D01*
X30724688Y8427581D01*
X30565378Y8397191D01*
X30415005Y8336436D01*
X30279296Y8247631D01*
X30163420Y8134157D01*
X30071792Y8000338D01*
X30007902Y7851270D01*
X29974182Y7692631D01*
X29971917Y7530464D01*
X29964066Y7530464D01*
X29964066Y8490000D01*
X29958644Y8557998D01*
X29922927Y8673330D01*
X29856494Y8774146D01*
X29764605Y8852463D01*
X29654535Y8902079D01*
X29535000Y8919066D01*
X28885000Y8919066D01*
X28817002Y8913644D01*
X28701670Y8877927D01*
X28600854Y8811494D01*
X28522537Y8719605D01*
X28502185Y8674456D01*
X28436494Y8774146D01*
X28344605Y8852463D01*
X28234535Y8902079D01*
X28115000Y8919066D01*
X27465000Y8919066D01*
X27397002Y8913644D01*
X27281670Y8877927D01*
X27180854Y8811494D01*
X27102537Y8719605D01*
X27052921Y8609535D01*
X27044034Y8547000D01*
X26500000Y8547000D01*
X26449310Y8542030D01*
X26398459Y8537581D01*
X26395667Y8536770D01*
X26392783Y8536487D01*
X26344019Y8521764D01*
X26297934Y8508375D01*
X26297030Y8517602D01*
X26292581Y8568453D01*
X26291770Y8571245D01*
X26291487Y8574129D01*
X26276778Y8622847D01*
X26262525Y8671907D01*
X26261186Y8674489D01*
X26260349Y8677263D01*
X26236414Y8722278D01*
X26212946Y8767552D01*
X26211138Y8769817D01*
X26209773Y8772384D01*
X26177529Y8811919D01*
X26145735Y8851747D01*
X26141749Y8855788D01*
X26141683Y8855870D01*
X26141608Y8855932D01*
X26140323Y8857235D01*
X23712992Y11284566D01*
X23734146Y11298506D01*
X23812463Y11390395D01*
X23862079Y11500465D01*
X23879066Y11620000D01*
X23879066Y12520000D01*
X23873644Y12587998D01*
X23837927Y12703330D01*
X23771494Y12804146D01*
X23679605Y12882463D01*
X23643467Y12898753D01*
X23734146Y12958506D01*
X23812463Y13050395D01*
X23862079Y13160465D01*
X23879066Y13280000D01*
X23879066Y13500000D01*
X24673000Y13500000D01*
X24673000Y12700000D01*
X24688331Y12639509D01*
X24720664Y12600830D01*
X25220664Y12200830D01*
X25250590Y12183006D01*
X25300000Y12173000D01*
X25800000Y12173000D01*
X25830668Y12176759D01*
X25876200Y12198400D01*
X26276200Y12498400D01*
X26316994Y12550590D01*
X26327000Y12600000D01*
X26327000Y13400000D01*
X26323241Y13430668D01*
X26301600Y13476200D01*
X26001600Y13876200D01*
X25949410Y13916994D01*
X25900000Y13927000D01*
X25300000Y13927000D01*
X25234659Y13908902D01*
X24734659Y13608902D01*
X24711447Y13591035D01*
X24683006Y13549410D01*
X24673000Y13500000D01*
X23879066Y13500000D01*
X23879066Y14073000D01*
X26396354Y14073000D01*
X26964677Y13504677D01*
X27004053Y13472334D01*
X27024081Y13455527D01*
X27026356Y13427002D01*
X27062073Y13311670D01*
X27128506Y13210854D01*
X27220395Y13132537D01*
X27330465Y13082921D01*
X27450000Y13065934D01*
X28050000Y13065934D01*
X28117998Y13071356D01*
X28233330Y13107073D01*
X28334146Y13173506D01*
X28412463Y13265395D01*
X28462079Y13375465D01*
X28479066Y13495000D01*
X28479066Y14295000D01*
X28473644Y14362998D01*
X28444087Y14458441D01*
X28765324Y14779678D01*
X28797667Y14819054D01*
X28830464Y14858139D01*
X28831865Y14860687D01*
X28833704Y14862926D01*
X28857772Y14907812D01*
X28882364Y14952545D01*
X28883242Y14955313D01*
X28884613Y14957870D01*
X28899529Y15006656D01*
X28914938Y15055234D01*
X28915261Y15058114D01*
X28916111Y15060894D01*
X28921271Y15111688D01*
X28926947Y15162294D01*
X28926987Y15167963D01*
X28926998Y15168074D01*
X28926988Y15168177D01*
X28927001Y15170001D01*
X28927001Y15621575D01*
X28994588Y15574601D01*
X29143207Y15509671D01*
X29301606Y15474845D01*
X29463754Y15471448D01*
X29623000Y15499528D01*
X29623000Y14250000D01*
X29632334Y14202211D01*
X29660197Y14160197D01*
X29910197Y13910197D01*
X29950590Y13883006D01*
X30000000Y13873000D01*
X31250000Y13873000D01*
X31297789Y13882334D01*
X31339803Y13910197D01*
X31589803Y14160197D01*
X31616994Y14200590D01*
X31627000Y14250000D01*
X31627000Y15500000D01*
X31617666Y15547789D01*
X31589803Y15589803D01*
X31339803Y15839803D01*
X31299410Y15866994D01*
X31250000Y15877000D01*
X30113709Y15877000D01*
X30122551Y15889534D01*
X30188517Y16037695D01*
X30224448Y16195848D01*
X30227035Y16381091D01*
X30195533Y16540186D01*
X30133730Y16690131D01*
X30043980Y16825217D01*
X29932286Y16937693D01*
X29926764Y16955981D01*
X29912524Y17004995D01*
X29911188Y17007573D01*
X29910349Y17010351D01*
X29886385Y17055420D01*
X29886067Y17056035D01*
X29897079Y17080465D01*
X29914066Y17200000D01*
X29914066Y17738426D01*
X29960894Y17620151D01*
X30048750Y17483826D01*
X30161412Y17367161D01*
X30294588Y17274601D01*
X30443207Y17209671D01*
X30601606Y17174845D01*
X30763754Y17171448D01*
X30923473Y17199611D01*
X31074680Y17258260D01*
X31211615Y17345162D01*
X31329064Y17457007D01*
X31422551Y17589534D01*
X31488517Y17737695D01*
X31524448Y17895848D01*
X31527035Y18081091D01*
X31495533Y18240186D01*
X31433730Y18390131D01*
X31343980Y18525217D01*
X31229700Y18640297D01*
X31095244Y18730989D01*
X30945734Y18793837D01*
X30786863Y18826449D01*
X30624684Y18827581D01*
X30465374Y18797191D01*
X30315001Y18736436D01*
X30179292Y18647631D01*
X30063416Y18534157D01*
X29971788Y18400338D01*
X29908979Y18253793D01*
X29908644Y18257998D01*
X29872927Y18373330D01*
X29806494Y18474146D01*
X29725514Y18543165D01*
X29779146Y18578506D01*
X29857463Y18670395D01*
X29907079Y18780465D01*
X29924066Y18900000D01*
X29924066Y19890000D01*
X29918644Y19957998D01*
X29882927Y20073330D01*
X29816494Y20174146D01*
X29724605Y20252463D01*
X29614535Y20302079D01*
X29495000Y20319066D01*
X28845000Y20319066D01*
X28777002Y20313644D01*
X28661670Y20277927D01*
X28560854Y20211494D01*
X28482537Y20119605D01*
X28462185Y20074456D01*
X28396494Y20174146D01*
X28304605Y20252463D01*
X28194535Y20302079D01*
X28075000Y20319066D01*
X27425000Y20319066D01*
X27357002Y20313644D01*
X27241670Y20277927D01*
X27140854Y20211494D01*
X27062537Y20119605D01*
X27012921Y20009535D01*
X26995934Y19890000D01*
X26995934Y18900000D01*
X27001356Y18832002D01*
X27037073Y18716670D01*
X27103506Y18615854D01*
X27184486Y18546835D01*
X27130854Y18511494D01*
X27052537Y18419605D01*
X27002921Y18309535D01*
X26985934Y18190000D01*
X26985934Y17200000D01*
X26991356Y17132002D01*
X27027073Y17016670D01*
X27087651Y16924739D01*
X27087537Y16924605D01*
X27037921Y16814535D01*
X27020934Y16695000D01*
X27020934Y15895000D01*
X27026356Y15827002D01*
X27062073Y15711670D01*
X27128506Y15610854D01*
X27220395Y15532537D01*
X27330465Y15482921D01*
X27450000Y15465934D01*
X27823001Y15465934D01*
X27823001Y15398647D01*
X27359677Y14935323D01*
X27327334Y14895947D01*
X27294537Y14856862D01*
X27293136Y14854314D01*
X27291297Y14852075D01*
X27267229Y14807189D01*
X27251702Y14778944D01*
X27015323Y15015323D01*
X26975947Y15047666D01*
X26936862Y15080463D01*
X26934314Y15081864D01*
X26932075Y15083703D01*
X26887189Y15107771D01*
X26842456Y15132363D01*
X26839688Y15133241D01*
X26837131Y15134612D01*
X26788345Y15149528D01*
X26739767Y15164937D01*
X26736887Y15165260D01*
X26734107Y15166110D01*
X26683313Y15171270D01*
X26632707Y15176946D01*
X26630675Y15176960D01*
X26663330Y15187073D01*
X26764146Y15253506D01*
X26842463Y15345395D01*
X26892079Y15455465D01*
X26909066Y15575000D01*
X26909066Y16575000D01*
X26903644Y16642998D01*
X26867927Y16758330D01*
X26801494Y16859146D01*
X26739236Y16912208D01*
X26760313Y17004980D01*
X26762900Y17190223D01*
X26731398Y17349318D01*
X26669595Y17499263D01*
X26579845Y17634349D01*
X26465565Y17749429D01*
X26379068Y17807772D01*
X26392406Y17823668D01*
X26393807Y17826216D01*
X26395646Y17828455D01*
X26419703Y17873322D01*
X26444306Y17918074D01*
X26445185Y17920845D01*
X26446555Y17923400D01*
X26461466Y17972171D01*
X26476880Y18020763D01*
X26477203Y18023643D01*
X26478053Y18026423D01*
X26483213Y18077217D01*
X26488889Y18127823D01*
X26488929Y18133492D01*
X26488940Y18133603D01*
X26488930Y18133706D01*
X26488943Y18135530D01*
X26488943Y19997156D01*
X26483973Y20047846D01*
X26479524Y20098697D01*
X26478713Y20101489D01*
X26478430Y20104373D01*
X26463707Y20153137D01*
X26449467Y20202151D01*
X26448131Y20204729D01*
X26447292Y20207507D01*
X26423349Y20252537D01*
X26399889Y20297797D01*
X26398079Y20300064D01*
X26396716Y20302628D01*
X26364465Y20342172D01*
X26362120Y20345109D01*
X26363979Y20478246D01*
X26332477Y20637341D01*
X26273906Y20779444D01*
X26336929Y20839459D01*
X26430416Y20971986D01*
X26496382Y21120147D01*
X26532313Y21278300D01*
X26534900Y21463543D01*
X26503398Y21622638D01*
X26441595Y21772583D01*
X26351845Y21907669D01*
X26237565Y22022749D01*
X26103109Y22113441D01*
X26064066Y22129853D01*
X26064066Y22995000D01*
X26058644Y23062998D01*
X26022927Y23178330D01*
X25999176Y23214373D01*
X26099114Y23414250D01*
X27765000Y23414250D01*
X27765000Y23337458D01*
X27789403Y23214777D01*
X27837270Y23099215D01*
X27906763Y22995211D01*
X27995211Y22906763D01*
X28099215Y22837270D01*
X28214777Y22789403D01*
X28337458Y22765000D01*
X28341250Y22765000D01*
X28500000Y22923750D01*
X28500000Y23573000D01*
X27923750Y23573000D01*
X27765000Y23414250D01*
X26099114Y23414250D01*
X26113592Y23443204D01*
X26127000Y23500000D01*
X26127000Y24447394D01*
X26302007Y24622401D01*
X28191439Y24600930D01*
X28191439Y24600930D01*
G37*
X28191439Y24600930D02*
X28099215Y24562730D01*
X27995211Y24493237D01*
X27906763Y24404789D01*
X27837270Y24300785D01*
X27789403Y24185223D01*
X27765000Y24062542D01*
X27765000Y23985750D01*
X27923750Y23827000D01*
X28500000Y23827000D01*
X28500000Y23847000D01*
X28700000Y23847000D01*
X28700000Y23827000D01*
X28747000Y23827000D01*
X28747000Y23573000D01*
X28700000Y23573000D01*
X28700000Y22923750D01*
X28858750Y22765000D01*
X28862542Y22765000D01*
X28985223Y22789403D01*
X29100785Y22837270D01*
X29204789Y22906763D01*
X29272822Y22974796D01*
X29300000Y22970934D01*
X29700000Y22970934D01*
X29767998Y22976356D01*
X29825264Y22994090D01*
X29909677Y22909677D01*
X29949075Y22877315D01*
X29988138Y22844537D01*
X29990683Y22843138D01*
X29992924Y22841297D01*
X30037832Y22817218D01*
X30082544Y22792637D01*
X30085312Y22791759D01*
X30087869Y22790388D01*
X30136668Y22775468D01*
X30185233Y22760063D01*
X30188111Y22759740D01*
X30190892Y22758890D01*
X30241648Y22753735D01*
X30292293Y22748054D01*
X30297973Y22748014D01*
X30298073Y22748004D01*
X30298167Y22748013D01*
X30300000Y22748000D01*
X31190000Y22748000D01*
X31240690Y22752970D01*
X31291541Y22757419D01*
X31294333Y22758230D01*
X31297217Y22758513D01*
X31345981Y22773236D01*
X31394995Y22787476D01*
X31397573Y22788812D01*
X31400351Y22789651D01*
X31445381Y22813594D01*
X31490641Y22837054D01*
X31492908Y22838864D01*
X31495472Y22840227D01*
X31535016Y22872478D01*
X31574835Y22904266D01*
X31578875Y22908249D01*
X31578958Y22908317D01*
X31579022Y22908394D01*
X31580323Y22909677D01*
X31746580Y23075934D01*
X32215000Y23075934D01*
X32282998Y23081356D01*
X32398330Y23117073D01*
X32499146Y23183506D01*
X32577463Y23275395D01*
X32597815Y23320544D01*
X32623000Y23282324D01*
X32623000Y21499920D01*
X32607002Y21498644D01*
X32491670Y21462927D01*
X32390854Y21396494D01*
X32312537Y21304605D01*
X32262921Y21194535D01*
X32245934Y21075000D01*
X32245934Y19525000D01*
X32251356Y19457002D01*
X32287073Y19341670D01*
X32353506Y19240854D01*
X32445395Y19162537D01*
X32555465Y19112921D01*
X32623000Y19103324D01*
X32623000Y14599920D01*
X32607002Y14598644D01*
X32491670Y14562927D01*
X32390854Y14496494D01*
X32312537Y14404605D01*
X32262921Y14294535D01*
X32245934Y14175000D01*
X32245934Y12625000D01*
X32251356Y12557002D01*
X32287073Y12441670D01*
X32353506Y12340854D01*
X32445395Y12262537D01*
X32555465Y12212921D01*
X32623000Y12203324D01*
X32623000Y4599920D01*
X32607002Y4598644D01*
X32491670Y4562927D01*
X32390854Y4496494D01*
X32312537Y4404605D01*
X32262921Y4294535D01*
X32245934Y4175000D01*
X32245934Y2625000D01*
X32251356Y2557002D01*
X32287073Y2441670D01*
X32353506Y2340854D01*
X32445395Y2262537D01*
X32555465Y2212921D01*
X32633812Y2201787D01*
X32642714Y2182039D01*
X32660197Y2160197D01*
X33123000Y1697394D01*
X33123000Y502000D01*
X5208996Y502000D01*
X5296939Y585747D01*
X5712602Y1174988D01*
X6005899Y1833743D01*
X6165656Y2536920D01*
X6177157Y3360548D01*
X6037095Y4067912D01*
X5762307Y4734599D01*
X5363258Y5335216D01*
X5005049Y5695934D01*
X5675000Y5695934D01*
X5742998Y5701356D01*
X5826983Y5727365D01*
X5831763Y5720211D01*
X5920211Y5631763D01*
X6024215Y5562270D01*
X6139777Y5514403D01*
X6262458Y5490000D01*
X6714250Y5490000D01*
X6873000Y5648750D01*
X6873000Y6773000D01*
X7127000Y6773000D01*
X7127000Y5648750D01*
X7285750Y5490000D01*
X7737542Y5490000D01*
X7775457Y5497542D01*
X8795000Y5497542D01*
X8795000Y5020750D01*
X8953750Y4862000D01*
X10123000Y4862000D01*
X10123000Y5911250D01*
X10377000Y5911250D01*
X10377000Y4862000D01*
X11546250Y4862000D01*
X11705000Y5020750D01*
X11705000Y5497542D01*
X11680597Y5620223D01*
X11632730Y5735785D01*
X11563237Y5839789D01*
X11474789Y5928237D01*
X11370785Y5997730D01*
X11255223Y6045597D01*
X11132542Y6070000D01*
X10535750Y6070000D01*
X10377000Y5911250D01*
X10123000Y5911250D01*
X9964250Y6070000D01*
X9367458Y6070000D01*
X9244777Y6045597D01*
X9129215Y5997730D01*
X9025211Y5928237D01*
X8936763Y5839789D01*
X8867270Y5735785D01*
X8819403Y5620223D01*
X8795000Y5497542D01*
X7775457Y5497542D01*
X7860223Y5514403D01*
X7975785Y5562270D01*
X8079789Y5631763D01*
X8168237Y5720211D01*
X8237730Y5824215D01*
X8285597Y5939777D01*
X8310000Y6062458D01*
X8310000Y6614250D01*
X8151250Y6773000D01*
X7127000Y6773000D01*
X6873000Y6773000D01*
X6853000Y6773000D01*
X6853000Y7027000D01*
X6873000Y7027000D01*
X6873000Y8151250D01*
X7127000Y8151250D01*
X7127000Y7027000D01*
X8151250Y7027000D01*
X8310000Y7185750D01*
X8310000Y7737542D01*
X8285597Y7860223D01*
X8237730Y7975785D01*
X8168237Y8079789D01*
X8079789Y8168237D01*
X7975785Y8237730D01*
X7860223Y8285597D01*
X7737542Y8310000D01*
X7285750Y8310000D01*
X7127000Y8151250D01*
X6873000Y8151250D01*
X6714250Y8310000D01*
X6262458Y8310000D01*
X6139777Y8285597D01*
X6024215Y8237730D01*
X5920211Y8168237D01*
X5831763Y8079789D01*
X5826889Y8072495D01*
X5794535Y8087079D01*
X5675000Y8104066D01*
X5360154Y8104066D01*
X5359227Y8104567D01*
X5275896Y8130362D01*
X5192734Y8156743D01*
X5189502Y8157106D01*
X5186399Y8158066D01*
X5148977Y8161999D01*
X5027000Y8283976D01*
X5027000Y8885462D01*
X5029066Y8900000D01*
X5029066Y11600000D01*
X5027000Y11625910D01*
X5027000Y12850000D01*
X5009345Y13030055D01*
X4957054Y13203252D01*
X4872118Y13362994D01*
X4823179Y13422999D01*
X6598001Y13422999D01*
X6648691Y13427969D01*
X6699542Y13432418D01*
X6702334Y13433229D01*
X6705218Y13433512D01*
X6753982Y13448235D01*
X6802996Y13462475D01*
X6805574Y13463811D01*
X6808352Y13464650D01*
X6824077Y13473011D01*
X6947739Y13473011D01*
X7093750Y13327000D01*
X7893000Y13327000D01*
X7893000Y13347000D01*
X8147000Y13347000D01*
X8147000Y13327000D01*
X8167000Y13327000D01*
X8167000Y13073000D01*
X8147000Y13073000D01*
X8147000Y13053000D01*
X7893000Y13053000D01*
X7893000Y13073000D01*
X7093750Y13073000D01*
X6935000Y12914250D01*
X6935000Y12637458D01*
X6959403Y12514777D01*
X7007270Y12399215D01*
X7076763Y12295211D01*
X7165211Y12206763D01*
X7251280Y12149253D01*
X7214403Y12060223D01*
X7190000Y11937542D01*
X7190000Y11776636D01*
X7187927Y11783330D01*
X7121494Y11884146D01*
X7029605Y11962463D01*
X6919535Y12012079D01*
X6800000Y12029066D01*
X5800000Y12029066D01*
X5732002Y12023644D01*
X5616670Y11987927D01*
X5515854Y11921494D01*
X5437537Y11829605D01*
X5387921Y11719535D01*
X5370934Y11600000D01*
X5370934Y8900000D01*
X5376356Y8832002D01*
X5412073Y8716670D01*
X5478506Y8615854D01*
X5570395Y8537537D01*
X5680465Y8487921D01*
X5800000Y8470934D01*
X6800000Y8470934D01*
X6867998Y8476356D01*
X6983330Y8512073D01*
X7075790Y8573000D01*
X7716024Y8573000D01*
X8144512Y8144512D01*
X8198455Y8100203D01*
X8237684Y8051412D01*
X8376276Y7935120D01*
X8534816Y7847962D01*
X8707266Y7793257D01*
X8887057Y7773090D01*
X8900000Y7773000D01*
X9117721Y7773000D01*
X9200395Y7702537D01*
X9310465Y7652921D01*
X9430000Y7635934D01*
X11070000Y7635934D01*
X11137998Y7641356D01*
X11253330Y7677073D01*
X11354146Y7743506D01*
X11432463Y7835395D01*
X11482079Y7945465D01*
X11499066Y8065000D01*
X11499066Y9041644D01*
X11928520Y9471098D01*
X11949215Y9457270D01*
X12064777Y9409403D01*
X12187458Y9385000D01*
X12464250Y9385000D01*
X12623000Y9543750D01*
X12623000Y10343000D01*
X12603000Y10343000D01*
X12603000Y10597000D01*
X12623000Y10597000D01*
X12623000Y10617000D01*
X12877000Y10617000D01*
X12877000Y10597000D01*
X12897000Y10597000D01*
X12897000Y10343000D01*
X12877000Y10343000D01*
X12877000Y9543750D01*
X13035750Y9385000D01*
X13312542Y9385000D01*
X13323000Y9387080D01*
X13323000Y9290000D01*
X13329100Y9227790D01*
X13334552Y9165465D01*
X13335546Y9162045D01*
X13335893Y9158503D01*
X13353969Y9098632D01*
X13371415Y9038584D01*
X13373052Y9035425D01*
X13374082Y9032015D01*
X13403451Y8976781D01*
X13432220Y8921279D01*
X13434441Y8918497D01*
X13436112Y8915354D01*
X13475628Y8866903D01*
X13514652Y8818019D01*
X13519539Y8813063D01*
X13519621Y8812963D01*
X13519714Y8812886D01*
X13521289Y8811289D01*
X13635934Y8696644D01*
X13635934Y8405000D01*
X13641356Y8337002D01*
X13677073Y8221670D01*
X13743506Y8120854D01*
X13760879Y8106047D01*
X13700854Y8066494D01*
X13622537Y7974605D01*
X13602185Y7929456D01*
X13536494Y8029146D01*
X13444605Y8107463D01*
X13334535Y8157079D01*
X13215000Y8174066D01*
X12565000Y8174066D01*
X12497002Y8168644D01*
X12381670Y8132927D01*
X12280854Y8066494D01*
X12202537Y7974605D01*
X12152921Y7864535D01*
X12135934Y7745000D01*
X12135934Y6755000D01*
X12141356Y6687002D01*
X12177073Y6571670D01*
X12243506Y6470854D01*
X12335395Y6392537D01*
X12338000Y6391363D01*
X12338000Y5860000D01*
X12342970Y5809310D01*
X12347419Y5758459D01*
X12348230Y5755667D01*
X12348513Y5752783D01*
X12363236Y5704019D01*
X12370934Y5677522D01*
X12370934Y5450000D01*
X12376356Y5382002D01*
X12412073Y5266670D01*
X12478506Y5165854D01*
X12570395Y5087537D01*
X12680465Y5037921D01*
X12800000Y5020934D01*
X13200000Y5020934D01*
X13228748Y5023226D01*
X13295211Y4956763D01*
X13399215Y4887270D01*
X13514777Y4839403D01*
X13637458Y4815000D01*
X13641250Y4815000D01*
X13800000Y4973750D01*
X13800000Y5623000D01*
X13753000Y5623000D01*
X13753000Y5877000D01*
X13800000Y5877000D01*
X13800000Y5897000D01*
X14000000Y5897000D01*
X14000000Y5877000D01*
X14047000Y5877000D01*
X14047000Y5623000D01*
X14000000Y5623000D01*
X14000000Y4973750D01*
X14085141Y4888609D01*
X13273544Y4077012D01*
X11705000Y4077012D01*
X11705000Y4449250D01*
X11546250Y4608000D01*
X10377000Y4608000D01*
X10377000Y4588000D01*
X10123000Y4588000D01*
X10123000Y4608000D01*
X8953750Y4608000D01*
X8795000Y4449250D01*
X8795000Y3972458D01*
X8819403Y3849777D01*
X8867270Y3734215D01*
X8936763Y3630211D01*
X9025211Y3541763D01*
X9118670Y3479316D01*
X8681780Y3042426D01*
X8599605Y3112463D01*
X8489535Y3162079D01*
X8370000Y3179066D01*
X6870000Y3179066D01*
X6802002Y3173644D01*
X6686670Y3137927D01*
X6585854Y3071494D01*
X6507537Y2979605D01*
X6457921Y2869535D01*
X6440934Y2750000D01*
X6440934Y1250000D01*
X6446356Y1182002D01*
X6482073Y1066670D01*
X6548506Y965854D01*
X6640395Y887537D01*
X6750465Y837921D01*
X6870000Y820934D01*
X8370000Y820934D01*
X8437998Y826356D01*
X8553330Y862073D01*
X8654146Y928506D01*
X8732463Y1020395D01*
X8782079Y1130465D01*
X8799066Y1250000D01*
X8799066Y1599661D01*
X8804835Y1604266D01*
X8808875Y1608249D01*
X8808958Y1608317D01*
X8809022Y1608394D01*
X8810323Y1609677D01*
X9000097Y1799451D01*
X9023121Y1674005D01*
X9108092Y1459393D01*
X9233130Y1265372D01*
X9393472Y1099332D01*
X9583011Y967599D01*
X9794527Y875190D01*
X10019964Y825625D01*
X10250735Y820791D01*
X10478050Y860872D01*
X10693251Y944343D01*
X10888140Y1068024D01*
X11055294Y1227203D01*
X11188347Y1415817D01*
X11202676Y1448000D01*
X11250000Y1448000D01*
X11300690Y1452970D01*
X11351541Y1457419D01*
X11354333Y1458230D01*
X11357217Y1458513D01*
X11405981Y1473236D01*
X11454995Y1487476D01*
X11457573Y1488812D01*
X11460351Y1489651D01*
X11505381Y1513594D01*
X11550641Y1537054D01*
X11552908Y1538864D01*
X11555472Y1540227D01*
X11595016Y1572478D01*
X11601324Y1577514D01*
X11648092Y1459393D01*
X11773130Y1265372D01*
X11933472Y1099332D01*
X12123011Y967599D01*
X12334527Y875190D01*
X12559964Y825625D01*
X12790735Y820791D01*
X13018050Y860872D01*
X13233251Y944343D01*
X13428140Y1068024D01*
X13595294Y1227203D01*
X13728347Y1415817D01*
X13799797Y1576295D01*
X13834835Y1604266D01*
X13838875Y1608249D01*
X13838958Y1608317D01*
X13839022Y1608394D01*
X13840323Y1609677D01*
X14072344Y1841698D01*
X14103121Y1674005D01*
X14188092Y1459393D01*
X14313130Y1265372D01*
X14473472Y1099332D01*
X14663011Y967599D01*
X14874527Y875190D01*
X15099964Y825625D01*
X15330735Y820791D01*
X15558050Y860872D01*
X15773251Y944343D01*
X15928719Y1043007D01*
X17002612Y1043007D01*
X17068137Y804140D01*
X17315116Y688240D01*
X17579960Y622750D01*
X17852492Y610188D01*
X18122238Y651035D01*
X18378832Y743723D01*
X18491863Y804140D01*
X18557388Y1043007D01*
X17780000Y1820395D01*
X17002612Y1043007D01*
X15928719Y1043007D01*
X15968140Y1068024D01*
X16135294Y1227203D01*
X16268347Y1415817D01*
X16343256Y1584066D01*
X16354995Y1587476D01*
X16357573Y1588812D01*
X16360351Y1589651D01*
X16405381Y1613594D01*
X16440428Y1631760D01*
X16523723Y1401168D01*
X16584140Y1288137D01*
X16823007Y1222612D01*
X17600395Y2000000D01*
X17586253Y2014142D01*
X17765858Y2193747D01*
X17780000Y2179605D01*
X17794143Y2193747D01*
X17973748Y2014142D01*
X17959605Y2000000D01*
X18736993Y1222612D01*
X18975860Y1288137D01*
X19091760Y1535116D01*
X19157250Y1799960D01*
X19158399Y1824878D01*
X19193207Y1809671D01*
X19351606Y1774845D01*
X19513754Y1771448D01*
X19673473Y1799611D01*
X19824680Y1858260D01*
X19961615Y1945162D01*
X20079064Y2057007D01*
X20172551Y2189534D01*
X20238517Y2337695D01*
X20274448Y2495848D01*
X20277035Y2681091D01*
X20245533Y2840186D01*
X20183730Y2990131D01*
X20093980Y3125217D01*
X19979700Y3240297D01*
X19892919Y3298832D01*
X19904789Y3306763D01*
X19972822Y3374796D01*
X20000000Y3370934D01*
X20400000Y3370934D01*
X20467998Y3376356D01*
X20583330Y3412073D01*
X20663653Y3465002D01*
X20677073Y3421670D01*
X20743506Y3320854D01*
X20835395Y3242537D01*
X20945465Y3192921D01*
X21065000Y3175934D01*
X21715000Y3175934D01*
X21782998Y3181356D01*
X21898330Y3217073D01*
X21999146Y3283506D01*
X22077463Y3375395D01*
X22097815Y3420544D01*
X22163506Y3320854D01*
X22255395Y3242537D01*
X22365465Y3192921D01*
X22485000Y3175934D01*
X23135000Y3175934D01*
X23202998Y3181356D01*
X23273621Y3203227D01*
X22910197Y2839803D01*
X22883006Y2799410D01*
X22873000Y2750000D01*
X22873000Y2000000D01*
X22882334Y1952211D01*
X22910197Y1910197D01*
X23410197Y1410197D01*
X23450590Y1383006D01*
X23500000Y1373000D01*
X24250000Y1373000D01*
X24297789Y1382334D01*
X24339803Y1410197D01*
X24839803Y1910197D01*
X24863592Y1943204D01*
X25104374Y2424768D01*
X25552606Y2873000D01*
X26000000Y2873000D01*
X26047789Y2882334D01*
X26089803Y2910197D01*
X26339803Y3160197D01*
X26366994Y3200590D01*
X26377000Y3250000D01*
X26377000Y4500000D01*
X26363592Y4556796D01*
X26347439Y4589102D01*
X26412463Y4665395D01*
X26459248Y4769185D01*
X26504995Y4782476D01*
X26507573Y4783812D01*
X26510351Y4784651D01*
X26555381Y4808594D01*
X26600641Y4832054D01*
X26602908Y4833864D01*
X26605472Y4835227D01*
X26645016Y4867478D01*
X26684835Y4899266D01*
X26688875Y4903249D01*
X26688958Y4903317D01*
X26689022Y4903394D01*
X26690323Y4904677D01*
X27087100Y5301454D01*
X27143506Y5215854D01*
X27235395Y5137537D01*
X27345465Y5087921D01*
X27465000Y5070934D01*
X28115000Y5070934D01*
X28182998Y5076356D01*
X28298330Y5112073D01*
X28399146Y5178506D01*
X28477463Y5270395D01*
X28497815Y5315544D01*
X28563506Y5215854D01*
X28655395Y5137537D01*
X28765465Y5087921D01*
X28885000Y5070934D01*
X29535000Y5070934D01*
X29602998Y5076356D01*
X29718330Y5112073D01*
X29819146Y5178506D01*
X29897463Y5270395D01*
X29947079Y5380465D01*
X29955966Y5443000D01*
X30123000Y5443000D01*
X30123000Y4250000D01*
X30132334Y4202211D01*
X30160197Y4160197D01*
X30410197Y3910197D01*
X30450590Y3883006D01*
X30500000Y3873000D01*
X31500000Y3873000D01*
X31547789Y3882334D01*
X31589803Y3910197D01*
X31839803Y4160197D01*
X31866994Y4200590D01*
X31877000Y4250000D01*
X31877000Y5191416D01*
X31923473Y5199611D01*
X32074680Y5258260D01*
X32211615Y5345162D01*
X32329064Y5457007D01*
X32422551Y5589534D01*
X32488517Y5737695D01*
X32524448Y5895848D01*
X32527035Y6081091D01*
X32495533Y6240186D01*
X32433730Y6390131D01*
X32343980Y6525217D01*
X32229700Y6640297D01*
X32095244Y6730989D01*
X31945734Y6793837D01*
X31786863Y6826449D01*
X31624684Y6827581D01*
X31465374Y6797191D01*
X31315001Y6736436D01*
X31179292Y6647631D01*
X31076531Y6547000D01*
X29959521Y6547000D01*
X29958644Y6557998D01*
X29922927Y6673330D01*
X29856494Y6774146D01*
X29764605Y6852463D01*
X29762000Y6853637D01*
X29762000Y7140849D01*
X29819146Y7178506D01*
X29897463Y7270395D01*
X29947079Y7380465D01*
X29964066Y7500000D01*
X29964066Y7530464D01*
X29971917Y7530464D01*
X30001195Y7370945D01*
X30060898Y7220151D01*
X30148754Y7083826D01*
X30261416Y6967161D01*
X30394592Y6874601D01*
X30543211Y6809671D01*
X30701610Y6774845D01*
X30863758Y6771448D01*
X31023477Y6799611D01*
X31174684Y6858260D01*
X31311619Y6945162D01*
X31429068Y7057007D01*
X31522555Y7189534D01*
X31588521Y7337695D01*
X31624452Y7495848D01*
X31627039Y7681091D01*
X31595537Y7840186D01*
X31533734Y7990131D01*
X31443984Y8125217D01*
X31329704Y8240297D01*
X31195248Y8330989D01*
X31045738Y8393837D01*
X30886867Y8426449D01*
X30724688Y8427581D01*
X30565378Y8397191D01*
X30415005Y8336436D01*
X30279296Y8247631D01*
X30163420Y8134157D01*
X30071792Y8000338D01*
X30007902Y7851270D01*
X29974182Y7692631D01*
X29971917Y7530464D01*
X29964066Y7530464D01*
X29964066Y8490000D01*
X29958644Y8557998D01*
X29922927Y8673330D01*
X29856494Y8774146D01*
X29764605Y8852463D01*
X29654535Y8902079D01*
X29535000Y8919066D01*
X28885000Y8919066D01*
X28817002Y8913644D01*
X28701670Y8877927D01*
X28600854Y8811494D01*
X28522537Y8719605D01*
X28502185Y8674456D01*
X28436494Y8774146D01*
X28344605Y8852463D01*
X28234535Y8902079D01*
X28115000Y8919066D01*
X27465000Y8919066D01*
X27397002Y8913644D01*
X27281670Y8877927D01*
X27180854Y8811494D01*
X27102537Y8719605D01*
X27052921Y8609535D01*
X27044034Y8547000D01*
X26500000Y8547000D01*
X26449310Y8542030D01*
X26398459Y8537581D01*
X26395667Y8536770D01*
X26392783Y8536487D01*
X26344019Y8521764D01*
X26297934Y8508375D01*
X26297030Y8517602D01*
X26292581Y8568453D01*
X26291770Y8571245D01*
X26291487Y8574129D01*
X26276778Y8622847D01*
X26262525Y8671907D01*
X26261186Y8674489D01*
X26260349Y8677263D01*
X26236414Y8722278D01*
X26212946Y8767552D01*
X26211138Y8769817D01*
X26209773Y8772384D01*
X26177529Y8811919D01*
X26145735Y8851747D01*
X26141749Y8855788D01*
X26141683Y8855870D01*
X26141608Y8855932D01*
X26140323Y8857235D01*
X23712992Y11284566D01*
X23734146Y11298506D01*
X23812463Y11390395D01*
X23862079Y11500465D01*
X23879066Y11620000D01*
X23879066Y12520000D01*
X23873644Y12587998D01*
X23837927Y12703330D01*
X23771494Y12804146D01*
X23679605Y12882463D01*
X23643467Y12898753D01*
X23734146Y12958506D01*
X23812463Y13050395D01*
X23862079Y13160465D01*
X23879066Y13280000D01*
X23879066Y13500000D01*
X24673000Y13500000D01*
X24673000Y12700000D01*
X24688331Y12639509D01*
X24720664Y12600830D01*
X25220664Y12200830D01*
X25250590Y12183006D01*
X25300000Y12173000D01*
X25800000Y12173000D01*
X25830668Y12176759D01*
X25876200Y12198400D01*
X26276200Y12498400D01*
X26316994Y12550590D01*
X26327000Y12600000D01*
X26327000Y13400000D01*
X26323241Y13430668D01*
X26301600Y13476200D01*
X26001600Y13876200D01*
X25949410Y13916994D01*
X25900000Y13927000D01*
X25300000Y13927000D01*
X25234659Y13908902D01*
X24734659Y13608902D01*
X24711447Y13591035D01*
X24683006Y13549410D01*
X24673000Y13500000D01*
X23879066Y13500000D01*
X23879066Y14073000D01*
X26396354Y14073000D01*
X26964677Y13504677D01*
X27004053Y13472334D01*
X27024081Y13455527D01*
X27026356Y13427002D01*
X27062073Y13311670D01*
X27128506Y13210854D01*
X27220395Y13132537D01*
X27330465Y13082921D01*
X27450000Y13065934D01*
X28050000Y13065934D01*
X28117998Y13071356D01*
X28233330Y13107073D01*
X28334146Y13173506D01*
X28412463Y13265395D01*
X28462079Y13375465D01*
X28479066Y13495000D01*
X28479066Y14295000D01*
X28473644Y14362998D01*
X28444087Y14458441D01*
X28765324Y14779678D01*
X28797667Y14819054D01*
X28830464Y14858139D01*
X28831865Y14860687D01*
X28833704Y14862926D01*
X28857772Y14907812D01*
X28882364Y14952545D01*
X28883242Y14955313D01*
X28884613Y14957870D01*
X28899529Y15006656D01*
X28914938Y15055234D01*
X28915261Y15058114D01*
X28916111Y15060894D01*
X28921271Y15111688D01*
X28926947Y15162294D01*
X28926987Y15167963D01*
X28926998Y15168074D01*
X28926988Y15168177D01*
X28927001Y15170001D01*
X28927001Y15621575D01*
X28994588Y15574601D01*
X29143207Y15509671D01*
X29301606Y15474845D01*
X29463754Y15471448D01*
X29623000Y15499528D01*
X29623000Y14250000D01*
X29632334Y14202211D01*
X29660197Y14160197D01*
X29910197Y13910197D01*
X29950590Y13883006D01*
X30000000Y13873000D01*
X31250000Y13873000D01*
X31297789Y13882334D01*
X31339803Y13910197D01*
X31589803Y14160197D01*
X31616994Y14200590D01*
X31627000Y14250000D01*
X31627000Y15500000D01*
X31617666Y15547789D01*
X31589803Y15589803D01*
X31339803Y15839803D01*
X31299410Y15866994D01*
X31250000Y15877000D01*
X30113709Y15877000D01*
X30122551Y15889534D01*
X30188517Y16037695D01*
X30224448Y16195848D01*
X30227035Y16381091D01*
X30195533Y16540186D01*
X30133730Y16690131D01*
X30043980Y16825217D01*
X29932286Y16937693D01*
X29926764Y16955981D01*
X29912524Y17004995D01*
X29911188Y17007573D01*
X29910349Y17010351D01*
X29886385Y17055420D01*
X29886067Y17056035D01*
X29897079Y17080465D01*
X29914066Y17200000D01*
X29914066Y17738426D01*
X29960894Y17620151D01*
X30048750Y17483826D01*
X30161412Y17367161D01*
X30294588Y17274601D01*
X30443207Y17209671D01*
X30601606Y17174845D01*
X30763754Y17171448D01*
X30923473Y17199611D01*
X31074680Y17258260D01*
X31211615Y17345162D01*
X31329064Y17457007D01*
X31422551Y17589534D01*
X31488517Y17737695D01*
X31524448Y17895848D01*
X31527035Y18081091D01*
X31495533Y18240186D01*
X31433730Y18390131D01*
X31343980Y18525217D01*
X31229700Y18640297D01*
X31095244Y18730989D01*
X30945734Y18793837D01*
X30786863Y18826449D01*
X30624684Y18827581D01*
X30465374Y18797191D01*
X30315001Y18736436D01*
X30179292Y18647631D01*
X30063416Y18534157D01*
X29971788Y18400338D01*
X29908979Y18253793D01*
X29908644Y18257998D01*
X29872927Y18373330D01*
X29806494Y18474146D01*
X29725514Y18543165D01*
X29779146Y18578506D01*
X29857463Y18670395D01*
X29907079Y18780465D01*
X29924066Y18900000D01*
X29924066Y19890000D01*
X29918644Y19957998D01*
X29882927Y20073330D01*
X29816494Y20174146D01*
X29724605Y20252463D01*
X29614535Y20302079D01*
X29495000Y20319066D01*
X28845000Y20319066D01*
X28777002Y20313644D01*
X28661670Y20277927D01*
X28560854Y20211494D01*
X28482537Y20119605D01*
X28462185Y20074456D01*
X28396494Y20174146D01*
X28304605Y20252463D01*
X28194535Y20302079D01*
X28075000Y20319066D01*
X27425000Y20319066D01*
X27357002Y20313644D01*
X27241670Y20277927D01*
X27140854Y20211494D01*
X27062537Y20119605D01*
X27012921Y20009535D01*
X26995934Y19890000D01*
X26995934Y18900000D01*
X27001356Y18832002D01*
X27037073Y18716670D01*
X27103506Y18615854D01*
X27184486Y18546835D01*
X27130854Y18511494D01*
X27052537Y18419605D01*
X27002921Y18309535D01*
X26985934Y18190000D01*
X26985934Y17200000D01*
X26991356Y17132002D01*
X27027073Y17016670D01*
X27087651Y16924739D01*
X27087537Y16924605D01*
X27037921Y16814535D01*
X27020934Y16695000D01*
X27020934Y15895000D01*
X27026356Y15827002D01*
X27062073Y15711670D01*
X27128506Y15610854D01*
X27220395Y15532537D01*
X27330465Y15482921D01*
X27450000Y15465934D01*
X27823001Y15465934D01*
X27823001Y15398647D01*
X27359677Y14935323D01*
X27327334Y14895947D01*
X27294537Y14856862D01*
X27293136Y14854314D01*
X27291297Y14852075D01*
X27267229Y14807189D01*
X27251702Y14778944D01*
X27015323Y15015323D01*
X26975947Y15047666D01*
X26936862Y15080463D01*
X26934314Y15081864D01*
X26932075Y15083703D01*
X26887189Y15107771D01*
X26842456Y15132363D01*
X26839688Y15133241D01*
X26837131Y15134612D01*
X26788345Y15149528D01*
X26739767Y15164937D01*
X26736887Y15165260D01*
X26734107Y15166110D01*
X26683313Y15171270D01*
X26632707Y15176946D01*
X26630675Y15176960D01*
X26663330Y15187073D01*
X26764146Y15253506D01*
X26842463Y15345395D01*
X26892079Y15455465D01*
X26909066Y15575000D01*
X26909066Y16575000D01*
X26903644Y16642998D01*
X26867927Y16758330D01*
X26801494Y16859146D01*
X26739236Y16912208D01*
X26760313Y17004980D01*
X26762900Y17190223D01*
X26731398Y17349318D01*
X26669595Y17499263D01*
X26579845Y17634349D01*
X26465565Y17749429D01*
X26379068Y17807772D01*
X26392406Y17823668D01*
X26393807Y17826216D01*
X26395646Y17828455D01*
X26419703Y17873322D01*
X26444306Y17918074D01*
X26445185Y17920845D01*
X26446555Y17923400D01*
X26461466Y17972171D01*
X26476880Y18020763D01*
X26477203Y18023643D01*
X26478053Y18026423D01*
X26483213Y18077217D01*
X26488889Y18127823D01*
X26488929Y18133492D01*
X26488940Y18133603D01*
X26488930Y18133706D01*
X26488943Y18135530D01*
X26488943Y19997156D01*
X26483973Y20047846D01*
X26479524Y20098697D01*
X26478713Y20101489D01*
X26478430Y20104373D01*
X26463707Y20153137D01*
X26449467Y20202151D01*
X26448131Y20204729D01*
X26447292Y20207507D01*
X26423349Y20252537D01*
X26399889Y20297797D01*
X26398079Y20300064D01*
X26396716Y20302628D01*
X26364465Y20342172D01*
X26362120Y20345109D01*
X26363979Y20478246D01*
X26332477Y20637341D01*
X26273906Y20779444D01*
X26336929Y20839459D01*
X26430416Y20971986D01*
X26496382Y21120147D01*
X26532313Y21278300D01*
X26534900Y21463543D01*
X26503398Y21622638D01*
X26441595Y21772583D01*
X26351845Y21907669D01*
X26237565Y22022749D01*
X26103109Y22113441D01*
X26064066Y22129853D01*
X26064066Y22995000D01*
X26058644Y23062998D01*
X26022927Y23178330D01*
X25999176Y23214373D01*
X26099114Y23414250D01*
X27765000Y23414250D01*
X27765000Y23337458D01*
X27789403Y23214777D01*
X27837270Y23099215D01*
X27906763Y22995211D01*
X27995211Y22906763D01*
X28099215Y22837270D01*
X28214777Y22789403D01*
X28337458Y22765000D01*
X28341250Y22765000D01*
X28500000Y22923750D01*
X28500000Y23573000D01*
X27923750Y23573000D01*
X27765000Y23414250D01*
X26099114Y23414250D01*
X26113592Y23443204D01*
X26127000Y23500000D01*
X26127000Y24447394D01*
X26302007Y24622401D01*
X28191439Y24600930D01*
G36*
X19286073Y5078281D02*
X19325449Y5045938D01*
X19364534Y5013141D01*
X19367082Y5011740D01*
X19369321Y5009901D01*
X19414207Y4985833D01*
X19458940Y4961241D01*
X19461708Y4960363D01*
X19464265Y4958992D01*
X19478416Y4954666D01*
X19400000Y4876250D01*
X19400000Y4227000D01*
X19447000Y4227000D01*
X19447000Y3973000D01*
X19400000Y3973000D01*
X19400000Y3953000D01*
X19200000Y3953000D01*
X19200000Y3973000D01*
X18623750Y3973000D01*
X18465000Y3814250D01*
X18465000Y3737458D01*
X18489403Y3614777D01*
X18537270Y3499215D01*
X18606763Y3395211D01*
X18695211Y3306763D01*
X18799215Y3237270D01*
X18883191Y3202486D01*
X18813416Y3134157D01*
X18732017Y3015277D01*
X18673843Y3073451D01*
X18557387Y2956995D01*
X18491863Y3195860D01*
X18244884Y3311760D01*
X17980040Y3377250D01*
X17707508Y3389812D01*
X17604924Y3374278D01*
X18140323Y3909677D01*
X18172666Y3949053D01*
X18205463Y3988138D01*
X18206864Y3990686D01*
X18208703Y3992925D01*
X18232760Y4037792D01*
X18257363Y4082544D01*
X18258242Y4085315D01*
X18259612Y4087870D01*
X18274523Y4136641D01*
X18289937Y4185233D01*
X18290260Y4188113D01*
X18291110Y4190893D01*
X18296270Y4241687D01*
X18301946Y4292293D01*
X18301986Y4297962D01*
X18301997Y4298073D01*
X18301987Y4298176D01*
X18302000Y4300000D01*
X18302000Y4462542D01*
X18465000Y4462542D01*
X18465000Y4385750D01*
X18623750Y4227000D01*
X19200000Y4227000D01*
X19200000Y4876250D01*
X19041250Y5035000D01*
X19037458Y5035000D01*
X18914777Y5010597D01*
X18799215Y4962730D01*
X18695211Y4893237D01*
X18606763Y4804789D01*
X18537270Y4700785D01*
X18489403Y4585223D01*
X18465000Y4462542D01*
X18302000Y4462542D01*
X18302000Y6062354D01*
X19286073Y5078281D01*
X19286073Y5078281D01*
G37*
X19286073Y5078281D02*
X19325449Y5045938D01*
X19364534Y5013141D01*
X19367082Y5011740D01*
X19369321Y5009901D01*
X19414207Y4985833D01*
X19458940Y4961241D01*
X19461708Y4960363D01*
X19464265Y4958992D01*
X19478416Y4954666D01*
X19400000Y4876250D01*
X19400000Y4227000D01*
X19447000Y4227000D01*
X19447000Y3973000D01*
X19400000Y3973000D01*
X19400000Y3953000D01*
X19200000Y3953000D01*
X19200000Y3973000D01*
X18623750Y3973000D01*
X18465000Y3814250D01*
X18465000Y3737458D01*
X18489403Y3614777D01*
X18537270Y3499215D01*
X18606763Y3395211D01*
X18695211Y3306763D01*
X18799215Y3237270D01*
X18883191Y3202486D01*
X18813416Y3134157D01*
X18732017Y3015277D01*
X18673843Y3073451D01*
X18557387Y2956995D01*
X18491863Y3195860D01*
X18244884Y3311760D01*
X17980040Y3377250D01*
X17707508Y3389812D01*
X17604924Y3374278D01*
X18140323Y3909677D01*
X18172666Y3949053D01*
X18205463Y3988138D01*
X18206864Y3990686D01*
X18208703Y3992925D01*
X18232760Y4037792D01*
X18257363Y4082544D01*
X18258242Y4085315D01*
X18259612Y4087870D01*
X18274523Y4136641D01*
X18289937Y4185233D01*
X18290260Y4188113D01*
X18291110Y4190893D01*
X18296270Y4241687D01*
X18301946Y4292293D01*
X18301986Y4297962D01*
X18301997Y4298073D01*
X18301987Y4298176D01*
X18302000Y4300000D01*
X18302000Y4462542D01*
X18465000Y4462542D01*
X18465000Y4385750D01*
X18623750Y4227000D01*
X19200000Y4227000D01*
X19200000Y4876250D01*
X19041250Y5035000D01*
X19037458Y5035000D01*
X18914777Y5010597D01*
X18799215Y4962730D01*
X18695211Y4893237D01*
X18606763Y4804789D01*
X18537270Y4700785D01*
X18489403Y4585223D01*
X18465000Y4462542D01*
X18302000Y4462542D01*
X18302000Y6062354D01*
X19286073Y5078281D01*
G36*
X23104611Y8892169D02*
X23237787Y8799609D01*
X23386406Y8734679D01*
X23544805Y8699853D01*
X23604305Y8698606D01*
X23559157Y8632669D01*
X23495267Y8483601D01*
X23461547Y8324962D01*
X23459282Y8162795D01*
X23488560Y8003276D01*
X23548263Y7852482D01*
X23636119Y7716157D01*
X23748781Y7599492D01*
X23881957Y7506932D01*
X24030576Y7442002D01*
X24188975Y7407176D01*
X24351123Y7403779D01*
X24510842Y7431942D01*
X24662049Y7490591D01*
X24798984Y7577493D01*
X24916433Y7689338D01*
X25009920Y7821865D01*
X25020934Y7846603D01*
X25020934Y7295000D01*
X25026356Y7227002D01*
X25062073Y7111670D01*
X25128506Y7010854D01*
X25220395Y6932537D01*
X25330465Y6882921D01*
X25450000Y6865934D01*
X26050000Y6865934D01*
X26117998Y6871356D01*
X26233330Y6907073D01*
X26334146Y6973506D01*
X26412463Y7065395D01*
X26462079Y7175465D01*
X26467694Y7214976D01*
X26500641Y7232054D01*
X26502908Y7233864D01*
X26505472Y7235227D01*
X26545016Y7267478D01*
X26584835Y7299266D01*
X26588875Y7303249D01*
X26588958Y7303317D01*
X26589022Y7303394D01*
X26590323Y7304677D01*
X26728646Y7443000D01*
X27040479Y7443000D01*
X27041356Y7432002D01*
X27077073Y7316670D01*
X27143506Y7215854D01*
X27235395Y7137537D01*
X27345465Y7087921D01*
X27465000Y7070934D01*
X28115000Y7070934D01*
X28182998Y7076356D01*
X28298330Y7112073D01*
X28399146Y7178506D01*
X28477463Y7270395D01*
X28497815Y7315544D01*
X28563506Y7215854D01*
X28655395Y7137537D01*
X28658000Y7136363D01*
X28658000Y6849151D01*
X28600854Y6811494D01*
X28522537Y6719605D01*
X28502185Y6674456D01*
X28436494Y6774146D01*
X28344605Y6852463D01*
X28234535Y6902079D01*
X28115000Y6919066D01*
X27465000Y6919066D01*
X27397002Y6913644D01*
X27281670Y6877927D01*
X27180854Y6811494D01*
X27102537Y6719605D01*
X27052921Y6609535D01*
X27044034Y6547000D01*
X27000000Y6547000D01*
X26949224Y6542021D01*
X26898458Y6537580D01*
X26895670Y6536770D01*
X26892783Y6536487D01*
X26844003Y6521759D01*
X26795004Y6507524D01*
X26792425Y6506187D01*
X26789649Y6505349D01*
X26744598Y6481395D01*
X26699359Y6457945D01*
X26697096Y6456138D01*
X26694528Y6454773D01*
X26654957Y6422499D01*
X26615165Y6390734D01*
X26611125Y6386751D01*
X26611042Y6386683D01*
X26610978Y6386606D01*
X26609677Y6385323D01*
X26280799Y6056445D01*
X26279605Y6057463D01*
X26169535Y6107079D01*
X26050000Y6124066D01*
X25450000Y6124066D01*
X25382002Y6118644D01*
X25266670Y6082927D01*
X25165854Y6016494D01*
X25087537Y5924605D01*
X25037921Y5814535D01*
X25020934Y5695000D01*
X25020934Y5127000D01*
X24750000Y5127000D01*
X24686170Y5109794D01*
X24648483Y5076310D01*
X24626792Y5030802D01*
X24388700Y4078435D01*
X23679553Y3605670D01*
X23660197Y3589803D01*
X23539873Y3469479D01*
X23547079Y3485465D01*
X23564066Y3605000D01*
X23564066Y4595000D01*
X23558644Y4662998D01*
X23522927Y4778330D01*
X23456494Y4879146D01*
X23364605Y4957463D01*
X23362000Y4958637D01*
X23362000Y6400000D01*
X23356938Y6451623D01*
X23352223Y6503434D01*
X23351676Y6505294D01*
X23351487Y6507217D01*
X23336483Y6556912D01*
X23321805Y6606783D01*
X23320908Y6608498D01*
X23320349Y6610351D01*
X23295953Y6656234D01*
X23271894Y6702255D01*
X23270682Y6703762D01*
X23269773Y6705472D01*
X23252000Y6727264D01*
X23252000Y6783620D01*
X23329064Y6857007D01*
X23422551Y6989534D01*
X23488517Y7137695D01*
X23524448Y7295848D01*
X23527035Y7481091D01*
X23495533Y7640186D01*
X23433730Y7790131D01*
X23343980Y7925217D01*
X23232286Y8037693D01*
X23226752Y8056022D01*
X23212524Y8104995D01*
X23211188Y8107573D01*
X23210349Y8110351D01*
X23186385Y8155420D01*
X23162945Y8200641D01*
X23161138Y8202904D01*
X23159773Y8205472D01*
X23127499Y8245043D01*
X23095734Y8284835D01*
X23091751Y8288875D01*
X23091683Y8288958D01*
X23091606Y8289022D01*
X23090323Y8290323D01*
X22914066Y8466580D01*
X22914066Y8965000D01*
X22992542Y8965000D01*
X23027554Y8971964D01*
X23104611Y8892169D01*
X23104611Y8892169D01*
G37*
X23104611Y8892169D02*
X23237787Y8799609D01*
X23386406Y8734679D01*
X23544805Y8699853D01*
X23604305Y8698606D01*
X23559157Y8632669D01*
X23495267Y8483601D01*
X23461547Y8324962D01*
X23459282Y8162795D01*
X23488560Y8003276D01*
X23548263Y7852482D01*
X23636119Y7716157D01*
X23748781Y7599492D01*
X23881957Y7506932D01*
X24030576Y7442002D01*
X24188975Y7407176D01*
X24351123Y7403779D01*
X24510842Y7431942D01*
X24662049Y7490591D01*
X24798984Y7577493D01*
X24916433Y7689338D01*
X25009920Y7821865D01*
X25020934Y7846603D01*
X25020934Y7295000D01*
X25026356Y7227002D01*
X25062073Y7111670D01*
X25128506Y7010854D01*
X25220395Y6932537D01*
X25330465Y6882921D01*
X25450000Y6865934D01*
X26050000Y6865934D01*
X26117998Y6871356D01*
X26233330Y6907073D01*
X26334146Y6973506D01*
X26412463Y7065395D01*
X26462079Y7175465D01*
X26467694Y7214976D01*
X26500641Y7232054D01*
X26502908Y7233864D01*
X26505472Y7235227D01*
X26545016Y7267478D01*
X26584835Y7299266D01*
X26588875Y7303249D01*
X26588958Y7303317D01*
X26589022Y7303394D01*
X26590323Y7304677D01*
X26728646Y7443000D01*
X27040479Y7443000D01*
X27041356Y7432002D01*
X27077073Y7316670D01*
X27143506Y7215854D01*
X27235395Y7137537D01*
X27345465Y7087921D01*
X27465000Y7070934D01*
X28115000Y7070934D01*
X28182998Y7076356D01*
X28298330Y7112073D01*
X28399146Y7178506D01*
X28477463Y7270395D01*
X28497815Y7315544D01*
X28563506Y7215854D01*
X28655395Y7137537D01*
X28658000Y7136363D01*
X28658000Y6849151D01*
X28600854Y6811494D01*
X28522537Y6719605D01*
X28502185Y6674456D01*
X28436494Y6774146D01*
X28344605Y6852463D01*
X28234535Y6902079D01*
X28115000Y6919066D01*
X27465000Y6919066D01*
X27397002Y6913644D01*
X27281670Y6877927D01*
X27180854Y6811494D01*
X27102537Y6719605D01*
X27052921Y6609535D01*
X27044034Y6547000D01*
X27000000Y6547000D01*
X26949224Y6542021D01*
X26898458Y6537580D01*
X26895670Y6536770D01*
X26892783Y6536487D01*
X26844003Y6521759D01*
X26795004Y6507524D01*
X26792425Y6506187D01*
X26789649Y6505349D01*
X26744598Y6481395D01*
X26699359Y6457945D01*
X26697096Y6456138D01*
X26694528Y6454773D01*
X26654957Y6422499D01*
X26615165Y6390734D01*
X26611125Y6386751D01*
X26611042Y6386683D01*
X26610978Y6386606D01*
X26609677Y6385323D01*
X26280799Y6056445D01*
X26279605Y6057463D01*
X26169535Y6107079D01*
X26050000Y6124066D01*
X25450000Y6124066D01*
X25382002Y6118644D01*
X25266670Y6082927D01*
X25165854Y6016494D01*
X25087537Y5924605D01*
X25037921Y5814535D01*
X25020934Y5695000D01*
X25020934Y5127000D01*
X24750000Y5127000D01*
X24686170Y5109794D01*
X24648483Y5076310D01*
X24626792Y5030802D01*
X24388700Y4078435D01*
X23679553Y3605670D01*
X23660197Y3589803D01*
X23539873Y3469479D01*
X23547079Y3485465D01*
X23564066Y3605000D01*
X23564066Y4595000D01*
X23558644Y4662998D01*
X23522927Y4778330D01*
X23456494Y4879146D01*
X23364605Y4957463D01*
X23362000Y4958637D01*
X23362000Y6400000D01*
X23356938Y6451623D01*
X23352223Y6503434D01*
X23351676Y6505294D01*
X23351487Y6507217D01*
X23336483Y6556912D01*
X23321805Y6606783D01*
X23320908Y6608498D01*
X23320349Y6610351D01*
X23295953Y6656234D01*
X23271894Y6702255D01*
X23270682Y6703762D01*
X23269773Y6705472D01*
X23252000Y6727264D01*
X23252000Y6783620D01*
X23329064Y6857007D01*
X23422551Y6989534D01*
X23488517Y7137695D01*
X23524448Y7295848D01*
X23527035Y7481091D01*
X23495533Y7640186D01*
X23433730Y7790131D01*
X23343980Y7925217D01*
X23232286Y8037693D01*
X23226752Y8056022D01*
X23212524Y8104995D01*
X23211188Y8107573D01*
X23210349Y8110351D01*
X23186385Y8155420D01*
X23162945Y8200641D01*
X23161138Y8202904D01*
X23159773Y8205472D01*
X23127499Y8245043D01*
X23095734Y8284835D01*
X23091751Y8288875D01*
X23091683Y8288958D01*
X23091606Y8289022D01*
X23090323Y8290323D01*
X22914066Y8466580D01*
X22914066Y8965000D01*
X22992542Y8965000D01*
X23027554Y8971964D01*
X23104611Y8892169D01*
G36*
X21802537Y31424605D02*
X21752921Y31314535D01*
X21735934Y31195000D01*
X21735934Y30726580D01*
X21405218Y30395864D01*
X21364258Y30495242D01*
X21236523Y30687498D01*
X21073878Y30851282D01*
X20882518Y30980356D01*
X20669732Y31069803D01*
X20443625Y31116216D01*
X20212809Y31117827D01*
X19986076Y31074576D01*
X19772062Y30988109D01*
X19578919Y30861719D01*
X19414003Y30700222D01*
X19283596Y30509768D01*
X19192666Y30297611D01*
X19144676Y30071834D01*
X19141453Y29841035D01*
X19183121Y29614005D01*
X19268092Y29399393D01*
X19393130Y29205372D01*
X19553472Y29039332D01*
X19743011Y28907599D01*
X19954527Y28815190D01*
X20179964Y28765625D01*
X20410735Y28760791D01*
X20638050Y28800872D01*
X20853251Y28884343D01*
X20952811Y28947526D01*
X20937537Y28929605D01*
X20887921Y28819535D01*
X20870934Y28700000D01*
X20870934Y27900000D01*
X20876356Y27832002D01*
X20912073Y27716670D01*
X20978506Y27615854D01*
X21070395Y27537537D01*
X21180465Y27487921D01*
X21300000Y27470934D01*
X21900000Y27470934D01*
X21967998Y27476356D01*
X22083330Y27512073D01*
X22184146Y27578506D01*
X22262463Y27670395D01*
X22312079Y27780465D01*
X22329066Y27900000D01*
X22329066Y28700000D01*
X22323644Y28767998D01*
X22287927Y28883330D01*
X22221494Y28984146D01*
X22152000Y29043376D01*
X22152000Y29581354D01*
X22223622Y29652976D01*
X22221911Y29530464D01*
X22251189Y29370945D01*
X22310892Y29220151D01*
X22398748Y29083826D01*
X22511410Y28967161D01*
X22644586Y28874601D01*
X22793205Y28809671D01*
X22951604Y28774845D01*
X23113752Y28771448D01*
X23273471Y28799611D01*
X23424678Y28858260D01*
X23551924Y28939013D01*
X23644601Y28874601D01*
X23793220Y28809671D01*
X23951619Y28774845D01*
X24097580Y28771787D01*
X24158000Y28711367D01*
X24158000Y27554151D01*
X24100854Y27516494D01*
X24022537Y27424605D01*
X24002185Y27379456D01*
X23936494Y27479146D01*
X23844605Y27557463D01*
X23734535Y27607079D01*
X23615000Y27624066D01*
X22965000Y27624066D01*
X22897002Y27618644D01*
X22781670Y27582927D01*
X22680854Y27516494D01*
X22602537Y27424605D01*
X22552921Y27314535D01*
X22544034Y27252000D01*
X22300000Y27252000D01*
X22249224Y27247021D01*
X22198458Y27242580D01*
X22195670Y27241770D01*
X22192783Y27241487D01*
X22144003Y27226759D01*
X22095004Y27212524D01*
X22092425Y27211187D01*
X22089649Y27210349D01*
X22044598Y27186395D01*
X21999359Y27162945D01*
X21997096Y27161138D01*
X21994528Y27159773D01*
X21954957Y27127499D01*
X21915165Y27095734D01*
X21911125Y27091751D01*
X21911042Y27091683D01*
X21910978Y27091606D01*
X21909677Y27090323D01*
X21548420Y26729066D01*
X21300000Y26729066D01*
X21252011Y26725239D01*
X21252011Y26999989D01*
X21247041Y27050679D01*
X21242592Y27101530D01*
X21241781Y27104322D01*
X21241498Y27107206D01*
X21226789Y27155924D01*
X21212536Y27204984D01*
X21211197Y27207566D01*
X21210360Y27210340D01*
X21186436Y27255334D01*
X21162957Y27300630D01*
X21161147Y27302897D01*
X21159784Y27305461D01*
X21127557Y27344974D01*
X21095746Y27384824D01*
X21091760Y27388865D01*
X21091694Y27388947D01*
X21091619Y27389009D01*
X21090334Y27390312D01*
X19590323Y28890323D01*
X19550947Y28922666D01*
X19511862Y28955463D01*
X19509314Y28956864D01*
X19507075Y28958703D01*
X19462189Y28982771D01*
X19417456Y29007363D01*
X19414688Y29008241D01*
X19412131Y29009612D01*
X19363345Y29024528D01*
X19314767Y29039937D01*
X19311887Y29040260D01*
X19309107Y29041110D01*
X19258313Y29046270D01*
X19207707Y29051946D01*
X19202038Y29051986D01*
X19201927Y29051997D01*
X19201824Y29051987D01*
X19200000Y29052000D01*
X18554319Y29052000D01*
X18675294Y29167203D01*
X18808347Y29355817D01*
X18902231Y29566683D01*
X18953369Y29791769D01*
X18957050Y30055411D01*
X18912217Y30281836D01*
X18824258Y30495242D01*
X18696523Y30687498D01*
X18533878Y30851282D01*
X18342518Y30980356D01*
X18129732Y31069803D01*
X17903625Y31116216D01*
X17672809Y31117827D01*
X17446076Y31074576D01*
X17232062Y30988109D01*
X17038919Y30861719D01*
X16874003Y30700222D01*
X16743596Y30509768D01*
X16652666Y30297611D01*
X16604676Y30071834D01*
X16601453Y29841035D01*
X16643121Y29614005D01*
X16728092Y29399393D01*
X16853130Y29205372D01*
X17001239Y29052000D01*
X16908646Y29052000D01*
X16368106Y29592540D01*
X16413369Y29791769D01*
X16417050Y30055411D01*
X16372217Y30281836D01*
X16284258Y30495242D01*
X16156523Y30687498D01*
X15993878Y30851282D01*
X15802518Y30980356D01*
X15589732Y31069803D01*
X15363625Y31116216D01*
X15132809Y31117827D01*
X14906076Y31074576D01*
X14692062Y30988109D01*
X14498919Y30861719D01*
X14334003Y30700222D01*
X14203596Y30509768D01*
X14112666Y30297611D01*
X14074107Y30116204D01*
X14048965Y30282238D01*
X13956277Y30538832D01*
X13895860Y30651863D01*
X13656993Y30717388D01*
X12879605Y29940000D01*
X12893748Y29925857D01*
X12714143Y29746252D01*
X12700000Y29760395D01*
X12685858Y29746252D01*
X12506253Y29925857D01*
X12520395Y29940000D01*
X11743007Y30717388D01*
X11504140Y30651863D01*
X11388240Y30404884D01*
X11322750Y30140040D01*
X11322286Y30129975D01*
X11292217Y30281836D01*
X11204258Y30495242D01*
X11076523Y30687498D01*
X10913878Y30851282D01*
X10846109Y30896993D01*
X11922612Y30896993D01*
X12700000Y30119605D01*
X13477388Y30896993D01*
X13411863Y31135860D01*
X13164884Y31251760D01*
X12900040Y31317250D01*
X12627508Y31329812D01*
X12357762Y31288965D01*
X12101168Y31196277D01*
X11988137Y31135860D01*
X11922612Y30896993D01*
X10846109Y30896993D01*
X10722518Y30980356D01*
X10509732Y31069803D01*
X10283625Y31116216D01*
X10052809Y31117827D01*
X9826076Y31074576D01*
X9612062Y30988109D01*
X9418919Y30861719D01*
X9254003Y30700222D01*
X9123596Y30509768D01*
X9032666Y30297611D01*
X8984676Y30071834D01*
X8981453Y29841035D01*
X9023121Y29614005D01*
X9108092Y29399393D01*
X9233130Y29205372D01*
X9393472Y29039332D01*
X9583011Y28907599D01*
X9794527Y28815190D01*
X10019964Y28765625D01*
X10250735Y28760791D01*
X10478050Y28800872D01*
X10507182Y28812172D01*
X11234676Y28084678D01*
X11274074Y28052316D01*
X11313137Y28019538D01*
X11315682Y28018139D01*
X11317923Y28016298D01*
X11362831Y27992219D01*
X11407543Y27967638D01*
X11410311Y27966760D01*
X11412868Y27965389D01*
X11461667Y27950469D01*
X11510232Y27935064D01*
X11513110Y27934741D01*
X11515891Y27933891D01*
X11566647Y27928736D01*
X11617292Y27923055D01*
X11622972Y27923015D01*
X11623072Y27923005D01*
X11623166Y27923014D01*
X11624999Y27923001D01*
X11643552Y27923001D01*
X11572666Y27757611D01*
X11524676Y27531834D01*
X11521453Y27301035D01*
X11563121Y27074005D01*
X11648092Y26859393D01*
X11773130Y26665372D01*
X11933472Y26499332D01*
X12123011Y26367599D01*
X12334527Y26275190D01*
X12559964Y26225625D01*
X12790735Y26220791D01*
X13018050Y26260872D01*
X13233251Y26344343D01*
X13428140Y26468024D01*
X13595294Y26627203D01*
X13728347Y26815817D01*
X13822231Y27026683D01*
X13873369Y27251769D01*
X13877050Y27515411D01*
X13832217Y27741836D01*
X13757547Y27923001D01*
X14183552Y27923001D01*
X14112666Y27757611D01*
X14064676Y27531834D01*
X14061453Y27301035D01*
X14103121Y27074005D01*
X14188092Y26859393D01*
X14313130Y26665372D01*
X14473472Y26499332D01*
X14663011Y26367599D01*
X14874527Y26275190D01*
X15099964Y26225625D01*
X15330735Y26220791D01*
X15558050Y26260872D01*
X15773251Y26344343D01*
X15968140Y26468024D01*
X16087584Y26581770D01*
X16959677Y25709677D01*
X16999053Y25677334D01*
X17038138Y25644537D01*
X17040686Y25643136D01*
X17042925Y25641297D01*
X17087811Y25617229D01*
X17132544Y25592637D01*
X17135312Y25591759D01*
X17137869Y25590388D01*
X17186655Y25575472D01*
X17210352Y25567956D01*
X17179292Y25547631D01*
X17063416Y25434157D01*
X17015677Y25364436D01*
X16945734Y25393837D01*
X16786863Y25426449D01*
X16624684Y25427581D01*
X16465374Y25397191D01*
X16315001Y25336436D01*
X16179292Y25247631D01*
X16063416Y25134157D01*
X15971788Y25000338D01*
X15907898Y24851270D01*
X15874178Y24692631D01*
X15871913Y24530464D01*
X15901191Y24370945D01*
X15960894Y24220151D01*
X16048750Y24083826D01*
X16161412Y23967161D01*
X16255463Y23901794D01*
X15476973Y23123304D01*
X15435223Y23140597D01*
X15312542Y23165000D01*
X15035750Y23165000D01*
X14877000Y23006250D01*
X14877000Y22207000D01*
X14897000Y22207000D01*
X14897000Y21953000D01*
X14877000Y21953000D01*
X14877000Y21933000D01*
X14623000Y21933000D01*
X14623000Y21953000D01*
X13773750Y21953000D01*
X13615000Y21794250D01*
X13615000Y21567458D01*
X13639403Y21444777D01*
X13687270Y21329215D01*
X13756763Y21225211D01*
X13792531Y21189443D01*
X13611397Y21189443D01*
X13523714Y21277740D01*
X13389258Y21368432D01*
X13239748Y21431280D01*
X13080877Y21463892D01*
X12918698Y21465024D01*
X12759388Y21434634D01*
X12609015Y21373879D01*
X12473306Y21285074D01*
X12357430Y21171600D01*
X12265802Y21037781D01*
X12201912Y20888713D01*
X12186093Y20814292D01*
X12159214Y20814480D01*
X11999904Y20784090D01*
X11849531Y20723335D01*
X11713822Y20634530D01*
X11597946Y20521056D01*
X11506318Y20387237D01*
X11442428Y20238169D01*
X11408708Y20079530D01*
X11406443Y19917363D01*
X11435721Y19757844D01*
X11495424Y19607050D01*
X11583280Y19470725D01*
X11695942Y19354060D01*
X11829118Y19261500D01*
X11977737Y19196570D01*
X12136136Y19161744D01*
X12298284Y19158347D01*
X12390705Y19174643D01*
X12412543Y19162638D01*
X12415311Y19161760D01*
X12417868Y19160389D01*
X12466667Y19145469D01*
X12515232Y19130064D01*
X12518110Y19129741D01*
X12520891Y19128891D01*
X12571647Y19123736D01*
X12618923Y19118433D01*
X12673001Y19064355D01*
X12673001Y18169999D01*
X12677971Y18119309D01*
X12682420Y18068458D01*
X12683231Y18065666D01*
X12683514Y18062782D01*
X12698237Y18014018D01*
X12712477Y17965004D01*
X12713813Y17962426D01*
X12714652Y17959648D01*
X12738578Y17914649D01*
X12762055Y17869358D01*
X12763865Y17867091D01*
X12765228Y17864527D01*
X12797479Y17824983D01*
X12829267Y17785164D01*
X12833250Y17781124D01*
X12833318Y17781041D01*
X12833395Y17780977D01*
X12834678Y17779676D01*
X13062354Y17552000D01*
X12478646Y17552000D01*
X11390323Y18640323D01*
X11350947Y18672666D01*
X11311862Y18705463D01*
X11309314Y18706864D01*
X11307075Y18708703D01*
X11262189Y18732771D01*
X11217456Y18757363D01*
X11214688Y18758241D01*
X11212131Y18759612D01*
X11179066Y18769721D01*
X11179066Y19000000D01*
X11173644Y19067998D01*
X11137927Y19183330D01*
X11071494Y19284146D01*
X10979605Y19362463D01*
X10869535Y19412079D01*
X10750000Y19429066D01*
X8050000Y19429066D01*
X7982002Y19423644D01*
X7866670Y19387927D01*
X7765854Y19321494D01*
X7687537Y19229605D01*
X7660662Y19169984D01*
X7639066Y19191580D01*
X7639066Y19310000D01*
X7633644Y19377998D01*
X7597927Y19493330D01*
X7531494Y19594146D01*
X7439605Y19672463D01*
X7329535Y19722079D01*
X7210000Y19739066D01*
X6490000Y19739066D01*
X6422002Y19733644D01*
X6306670Y19697927D01*
X6205854Y19631494D01*
X6127537Y19539605D01*
X6077921Y19429535D01*
X6060934Y19310000D01*
X6060934Y18778960D01*
X5996763Y18714789D01*
X5927270Y18610785D01*
X5879403Y18495223D01*
X5855000Y18372542D01*
X5855000Y18235750D01*
X6013750Y18077000D01*
X6723000Y18077000D01*
X6723000Y18097000D01*
X6977000Y18097000D01*
X6977000Y18077000D01*
X6997000Y18077000D01*
X6997000Y17823000D01*
X6977000Y17823000D01*
X6977000Y16777000D01*
X6997000Y16777000D01*
X6997000Y16523000D01*
X6977000Y16523000D01*
X6977000Y16503000D01*
X6723000Y16503000D01*
X6723000Y16523000D01*
X6013750Y16523000D01*
X5855000Y16364250D01*
X5855000Y16227458D01*
X5879403Y16104777D01*
X5927270Y15989215D01*
X5996763Y15885211D01*
X6060934Y15821040D01*
X6060934Y15290000D01*
X6066356Y15222002D01*
X6102073Y15106670D01*
X6168506Y15005854D01*
X6260395Y14927537D01*
X6370465Y14877921D01*
X6490000Y14860934D01*
X7210000Y14860934D01*
X7277998Y14866356D01*
X7393330Y14902073D01*
X7494146Y14968506D01*
X7572463Y15060395D01*
X7622079Y15170465D01*
X7639066Y15290000D01*
X7639066Y15408420D01*
X7658584Y15427938D01*
X7662073Y15416670D01*
X7728506Y15315854D01*
X7820395Y15237537D01*
X7930465Y15187921D01*
X8050000Y15170934D01*
X10750000Y15170934D01*
X10817998Y15176356D01*
X10933330Y15212073D01*
X11034146Y15278506D01*
X11112463Y15370395D01*
X11162079Y15480465D01*
X11179066Y15600000D01*
X11179066Y15748000D01*
X11207786Y15748000D01*
X11268506Y15655854D01*
X11360395Y15577537D01*
X11470465Y15527921D01*
X11590000Y15510934D01*
X11935288Y15510934D01*
X11401372Y14977018D01*
X10752014Y14977018D01*
X10701233Y14972039D01*
X10650473Y14967598D01*
X10647686Y14966788D01*
X10644797Y14966505D01*
X10595992Y14951770D01*
X10547019Y14937542D01*
X10544441Y14936206D01*
X10541663Y14935367D01*
X10496594Y14911403D01*
X10451373Y14887963D01*
X10449110Y14886156D01*
X10446542Y14884791D01*
X10406971Y14852517D01*
X10367179Y14820752D01*
X10363139Y14816769D01*
X10363056Y14816701D01*
X10362992Y14816624D01*
X10361691Y14815341D01*
X10123361Y14577011D01*
X6648013Y14577011D01*
X6597323Y14572041D01*
X6546472Y14567592D01*
X6543680Y14566781D01*
X6540796Y14566498D01*
X6492078Y14551789D01*
X6443018Y14537536D01*
X6440436Y14536197D01*
X6437662Y14535360D01*
X6421937Y14526999D01*
X4925581Y14526999D01*
X4927035Y14631091D01*
X4895533Y14790186D01*
X4833730Y14940131D01*
X4743980Y15075217D01*
X4629700Y15190297D01*
X4495244Y15280989D01*
X4345734Y15343837D01*
X4186863Y15376449D01*
X4024684Y15377581D01*
X3865374Y15347191D01*
X3715001Y15286436D01*
X3579292Y15197631D01*
X3463416Y15084157D01*
X3371788Y14950338D01*
X3307898Y14801270D01*
X3274178Y14642631D01*
X3271913Y14480464D01*
X3301191Y14320945D01*
X3360894Y14170151D01*
X3448750Y14033826D01*
X3561412Y13917161D01*
X3694588Y13824601D01*
X3843207Y13759671D01*
X3889000Y13749603D01*
X3752740Y13709499D01*
X3592409Y13625681D01*
X3451412Y13512316D01*
X3335120Y13373724D01*
X3247962Y13215184D01*
X3193257Y13042734D01*
X3173090Y12862943D01*
X3173000Y12850000D01*
X3173000Y11614538D01*
X3170934Y11600000D01*
X3170934Y8900000D01*
X3173000Y8874090D01*
X3173000Y8433976D01*
X2594512Y7855488D01*
X2538183Y7786912D01*
X2481482Y7718372D01*
X2480707Y7716939D01*
X2479678Y7715686D01*
X2437731Y7637456D01*
X2395433Y7559227D01*
X2394953Y7557676D01*
X2394184Y7556242D01*
X2368200Y7471251D01*
X2341934Y7386399D01*
X2341764Y7384782D01*
X2341289Y7383228D01*
X2332312Y7294848D01*
X2323023Y7206472D01*
X2323170Y7204853D01*
X2323006Y7203236D01*
X2331380Y7114641D01*
X2339420Y7026298D01*
X2339878Y7024743D01*
X2340031Y7023120D01*
X2365471Y6937786D01*
X2390501Y6852740D01*
X2391253Y6851301D01*
X2391718Y6849742D01*
X2433163Y6771134D01*
X2474319Y6692409D01*
X2475338Y6691142D01*
X2476096Y6689704D01*
X2486105Y6677344D01*
X2165132Y6679585D01*
X1456807Y6544465D01*
X788218Y6274337D01*
X502000Y6087041D01*
X502000Y13730464D01*
X1121913Y13730464D01*
X1151191Y13570945D01*
X1210894Y13420151D01*
X1298750Y13283826D01*
X1411412Y13167161D01*
X1544588Y13074601D01*
X1693207Y13009671D01*
X1851606Y12974845D01*
X2013754Y12971448D01*
X2173473Y12999611D01*
X2324680Y13058260D01*
X2461615Y13145162D01*
X2579064Y13257007D01*
X2672551Y13389534D01*
X2738517Y13537695D01*
X2774448Y13695848D01*
X2776654Y13853805D01*
X2805462Y13888137D01*
X2806863Y13890685D01*
X2808702Y13892924D01*
X2832770Y13937810D01*
X2857362Y13982543D01*
X2858240Y13985311D01*
X2859611Y13987868D01*
X2874527Y14036654D01*
X2889936Y14085232D01*
X2890259Y14088112D01*
X2891109Y14090892D01*
X2896269Y14141686D01*
X2901945Y14192292D01*
X2901985Y14197961D01*
X2901996Y14198072D01*
X2901986Y14198175D01*
X2901999Y14199999D01*
X2901999Y17664250D01*
X5855000Y17664250D01*
X5855000Y17527458D01*
X5879403Y17404777D01*
X5922803Y17300000D01*
X5879403Y17195223D01*
X5855000Y17072542D01*
X5855000Y16935750D01*
X6013750Y16777000D01*
X6723000Y16777000D01*
X6723000Y17823000D01*
X6013750Y17823000D01*
X5855000Y17664250D01*
X2901999Y17664250D01*
X2901999Y19450001D01*
X2897029Y19500691D01*
X2892580Y19551542D01*
X2891769Y19554334D01*
X2891486Y19557218D01*
X2876777Y19605936D01*
X2862524Y19654996D01*
X2861185Y19657578D01*
X2860348Y19660352D01*
X2836413Y19705367D01*
X2812945Y19750641D01*
X2811137Y19752906D01*
X2809772Y19755473D01*
X2777528Y19795008D01*
X2745734Y19834836D01*
X2741748Y19838877D01*
X2741682Y19838959D01*
X2741607Y19839021D01*
X2740322Y19840324D01*
X2440323Y20140323D01*
X2400947Y20172666D01*
X2361862Y20205463D01*
X2359314Y20206864D01*
X2357075Y20208703D01*
X2312189Y20232771D01*
X2267456Y20257363D01*
X2264688Y20258241D01*
X2262131Y20259612D01*
X2246424Y20264414D01*
X2210485Y20283685D01*
X2163909Y20308868D01*
X2162985Y20309154D01*
X2162131Y20309612D01*
X2111514Y20325087D01*
X2060995Y20340726D01*
X2060032Y20340827D01*
X2059107Y20341110D01*
X2006505Y20346453D01*
X1953854Y20351987D01*
X1952890Y20351899D01*
X1951927Y20351997D01*
X1899343Y20347026D01*
X1846566Y20342223D01*
X1845635Y20341949D01*
X1844673Y20341858D01*
X1793908Y20326725D01*
X1743217Y20311805D01*
X1742363Y20311359D01*
X1741432Y20311081D01*
X1694527Y20286351D01*
X1647745Y20261894D01*
X1646991Y20261288D01*
X1646134Y20260836D01*
X1604897Y20227443D01*
X1563786Y20194389D01*
X1563167Y20193651D01*
X1562411Y20193039D01*
X1528479Y20152312D01*
X1494537Y20111862D01*
X1494070Y20111013D01*
X1493452Y20110271D01*
X1468229Y20064007D01*
X1442637Y20017456D01*
X1442343Y20016528D01*
X1441882Y20015683D01*
X1426075Y19965246D01*
X1410063Y19914767D01*
X1409956Y19913809D01*
X1409665Y19912882D01*
X1403932Y19860107D01*
X1398054Y19807707D01*
X1398041Y19805884D01*
X1398030Y19805781D01*
X1398040Y19805670D01*
X1398000Y19800000D01*
X1398000Y19650000D01*
X1408513Y19542783D01*
X1439651Y19439649D01*
X1490227Y19344528D01*
X1558317Y19261042D01*
X1641326Y19192371D01*
X1736091Y19141132D01*
X1797999Y19121968D01*
X1797999Y14612953D01*
X1715374Y14597191D01*
X1565001Y14536436D01*
X1429292Y14447631D01*
X1313416Y14334157D01*
X1221788Y14200338D01*
X1157898Y14051270D01*
X1124178Y13892631D01*
X1121913Y13730464D01*
X502000Y13730464D01*
X502000Y22330458D01*
X4271913Y22330458D01*
X4301191Y22170939D01*
X4360894Y22020145D01*
X4448750Y21883820D01*
X4561412Y21767155D01*
X4694588Y21674595D01*
X4843207Y21609665D01*
X5001606Y21574839D01*
X5163754Y21571442D01*
X5323473Y21599605D01*
X5474680Y21658254D01*
X5611615Y21745156D01*
X5729064Y21857001D01*
X5822551Y21989528D01*
X5888517Y22137689D01*
X5924448Y22295842D01*
X5927035Y22481085D01*
X5895533Y22640180D01*
X5833730Y22790125D01*
X5743980Y22925211D01*
X5629700Y23040291D01*
X5495244Y23130983D01*
X5345734Y23193831D01*
X5186863Y23226443D01*
X5024684Y23227575D01*
X4865374Y23197185D01*
X4715001Y23136430D01*
X4579292Y23047625D01*
X4463416Y22934151D01*
X4371788Y22800332D01*
X4307898Y22651264D01*
X4274178Y22492625D01*
X4271913Y22330458D01*
X502000Y22330458D01*
X502000Y23330464D01*
X10121913Y23330464D01*
X10151191Y23170945D01*
X10210894Y23020151D01*
X10298750Y22883826D01*
X10411412Y22767161D01*
X10544588Y22674601D01*
X10693207Y22609671D01*
X10851606Y22574845D01*
X11013754Y22571448D01*
X11133383Y22592542D01*
X13615000Y22592542D01*
X13615000Y22365750D01*
X13773750Y22207000D01*
X14623000Y22207000D01*
X14623000Y23006250D01*
X14464250Y23165000D01*
X14187458Y23165000D01*
X14064777Y23140597D01*
X13949215Y23092730D01*
X13845211Y23023237D01*
X13756763Y22934789D01*
X13687270Y22830785D01*
X13639403Y22715223D01*
X13615000Y22592542D01*
X11133383Y22592542D01*
X11173473Y22599611D01*
X11324680Y22658260D01*
X11461615Y22745162D01*
X11579064Y22857007D01*
X11672551Y22989534D01*
X11738517Y23137695D01*
X11774448Y23295848D01*
X11777035Y23481091D01*
X11745533Y23640186D01*
X11683730Y23790131D01*
X11593980Y23925217D01*
X11479700Y24040297D01*
X11345244Y24130989D01*
X11195734Y24193837D01*
X11036863Y24226449D01*
X10874684Y24227581D01*
X10715374Y24197191D01*
X10565001Y24136436D01*
X10429292Y24047631D01*
X10313416Y23934157D01*
X10221788Y23800338D01*
X10157898Y23651270D01*
X10124178Y23492631D01*
X10121913Y23330464D01*
X502000Y23330464D01*
X502000Y26293278D01*
X605332Y26186275D01*
X1197461Y25774735D01*
X1858247Y25486045D01*
X2562522Y25331200D01*
X3283461Y25316098D01*
X3993603Y25441316D01*
X4665898Y25702082D01*
X5274740Y26088465D01*
X5796939Y26585747D01*
X6212602Y27174988D01*
X6440934Y27687829D01*
X6440934Y26650000D01*
X6446356Y26582002D01*
X6482073Y26466670D01*
X6548506Y26365854D01*
X6640395Y26287537D01*
X6750465Y26237921D01*
X6870000Y26220934D01*
X8370000Y26220934D01*
X8437998Y26226356D01*
X8553330Y26262073D01*
X8654146Y26328506D01*
X8732463Y26420395D01*
X8782079Y26530465D01*
X8799066Y26650000D01*
X8799066Y27301035D01*
X8981453Y27301035D01*
X9023121Y27074005D01*
X9108092Y26859393D01*
X9233130Y26665372D01*
X9393472Y26499332D01*
X9583011Y26367599D01*
X9794527Y26275190D01*
X10019964Y26225625D01*
X10250735Y26220791D01*
X10478050Y26260872D01*
X10693251Y26344343D01*
X10888140Y26468024D01*
X11055294Y26627203D01*
X11188347Y26815817D01*
X11282231Y27026683D01*
X11333369Y27251769D01*
X11337050Y27515411D01*
X11292217Y27741836D01*
X11204258Y27955242D01*
X11076523Y28147498D01*
X10913878Y28311282D01*
X10722518Y28440356D01*
X10509732Y28529803D01*
X10283625Y28576216D01*
X10052809Y28577827D01*
X9826076Y28534576D01*
X9612062Y28448109D01*
X9418919Y28321719D01*
X9254003Y28160222D01*
X9123596Y27969768D01*
X9032666Y27757611D01*
X8984676Y27531834D01*
X8981453Y27301035D01*
X8799066Y27301035D01*
X8799066Y28150000D01*
X8793644Y28217998D01*
X8757927Y28333330D01*
X8691494Y28434146D01*
X8599605Y28512463D01*
X8489535Y28562079D01*
X8370000Y28579066D01*
X6870000Y28579066D01*
X6802002Y28573644D01*
X6686670Y28537927D01*
X6662225Y28521819D01*
X6665656Y28536920D01*
X6669531Y28814404D01*
X6750465Y28777921D01*
X6870000Y28760934D01*
X8370000Y28760934D01*
X8437998Y28766356D01*
X8553330Y28802073D01*
X8654146Y28868506D01*
X8732463Y28960395D01*
X8782079Y29070465D01*
X8799066Y29190000D01*
X8799066Y30690000D01*
X8793644Y30757998D01*
X8757927Y30873330D01*
X8691494Y30974146D01*
X8599605Y31052463D01*
X8489535Y31102079D01*
X8370000Y31119066D01*
X6870000Y31119066D01*
X6802002Y31113644D01*
X6686670Y31077927D01*
X6585854Y31011494D01*
X6507537Y30919605D01*
X6457921Y30809535D01*
X6440934Y30690000D01*
X6440934Y30301217D01*
X6262307Y30734599D01*
X5863258Y31335216D01*
X5701606Y31498000D01*
X21865092Y31498000D01*
X21802537Y31424605D01*
X21802537Y31424605D01*
G37*
X21802537Y31424605D02*
X21752921Y31314535D01*
X21735934Y31195000D01*
X21735934Y30726580D01*
X21405218Y30395864D01*
X21364258Y30495242D01*
X21236523Y30687498D01*
X21073878Y30851282D01*
X20882518Y30980356D01*
X20669732Y31069803D01*
X20443625Y31116216D01*
X20212809Y31117827D01*
X19986076Y31074576D01*
X19772062Y30988109D01*
X19578919Y30861719D01*
X19414003Y30700222D01*
X19283596Y30509768D01*
X19192666Y30297611D01*
X19144676Y30071834D01*
X19141453Y29841035D01*
X19183121Y29614005D01*
X19268092Y29399393D01*
X19393130Y29205372D01*
X19553472Y29039332D01*
X19743011Y28907599D01*
X19954527Y28815190D01*
X20179964Y28765625D01*
X20410735Y28760791D01*
X20638050Y28800872D01*
X20853251Y28884343D01*
X20952811Y28947526D01*
X20937537Y28929605D01*
X20887921Y28819535D01*
X20870934Y28700000D01*
X20870934Y27900000D01*
X20876356Y27832002D01*
X20912073Y27716670D01*
X20978506Y27615854D01*
X21070395Y27537537D01*
X21180465Y27487921D01*
X21300000Y27470934D01*
X21900000Y27470934D01*
X21967998Y27476356D01*
X22083330Y27512073D01*
X22184146Y27578506D01*
X22262463Y27670395D01*
X22312079Y27780465D01*
X22329066Y27900000D01*
X22329066Y28700000D01*
X22323644Y28767998D01*
X22287927Y28883330D01*
X22221494Y28984146D01*
X22152000Y29043376D01*
X22152000Y29581354D01*
X22223622Y29652976D01*
X22221911Y29530464D01*
X22251189Y29370945D01*
X22310892Y29220151D01*
X22398748Y29083826D01*
X22511410Y28967161D01*
X22644586Y28874601D01*
X22793205Y28809671D01*
X22951604Y28774845D01*
X23113752Y28771448D01*
X23273471Y28799611D01*
X23424678Y28858260D01*
X23551924Y28939013D01*
X23644601Y28874601D01*
X23793220Y28809671D01*
X23951619Y28774845D01*
X24097580Y28771787D01*
X24158000Y28711367D01*
X24158000Y27554151D01*
X24100854Y27516494D01*
X24022537Y27424605D01*
X24002185Y27379456D01*
X23936494Y27479146D01*
X23844605Y27557463D01*
X23734535Y27607079D01*
X23615000Y27624066D01*
X22965000Y27624066D01*
X22897002Y27618644D01*
X22781670Y27582927D01*
X22680854Y27516494D01*
X22602537Y27424605D01*
X22552921Y27314535D01*
X22544034Y27252000D01*
X22300000Y27252000D01*
X22249224Y27247021D01*
X22198458Y27242580D01*
X22195670Y27241770D01*
X22192783Y27241487D01*
X22144003Y27226759D01*
X22095004Y27212524D01*
X22092425Y27211187D01*
X22089649Y27210349D01*
X22044598Y27186395D01*
X21999359Y27162945D01*
X21997096Y27161138D01*
X21994528Y27159773D01*
X21954957Y27127499D01*
X21915165Y27095734D01*
X21911125Y27091751D01*
X21911042Y27091683D01*
X21910978Y27091606D01*
X21909677Y27090323D01*
X21548420Y26729066D01*
X21300000Y26729066D01*
X21252011Y26725239D01*
X21252011Y26999989D01*
X21247041Y27050679D01*
X21242592Y27101530D01*
X21241781Y27104322D01*
X21241498Y27107206D01*
X21226789Y27155924D01*
X21212536Y27204984D01*
X21211197Y27207566D01*
X21210360Y27210340D01*
X21186436Y27255334D01*
X21162957Y27300630D01*
X21161147Y27302897D01*
X21159784Y27305461D01*
X21127557Y27344974D01*
X21095746Y27384824D01*
X21091760Y27388865D01*
X21091694Y27388947D01*
X21091619Y27389009D01*
X21090334Y27390312D01*
X19590323Y28890323D01*
X19550947Y28922666D01*
X19511862Y28955463D01*
X19509314Y28956864D01*
X19507075Y28958703D01*
X19462189Y28982771D01*
X19417456Y29007363D01*
X19414688Y29008241D01*
X19412131Y29009612D01*
X19363345Y29024528D01*
X19314767Y29039937D01*
X19311887Y29040260D01*
X19309107Y29041110D01*
X19258313Y29046270D01*
X19207707Y29051946D01*
X19202038Y29051986D01*
X19201927Y29051997D01*
X19201824Y29051987D01*
X19200000Y29052000D01*
X18554319Y29052000D01*
X18675294Y29167203D01*
X18808347Y29355817D01*
X18902231Y29566683D01*
X18953369Y29791769D01*
X18957050Y30055411D01*
X18912217Y30281836D01*
X18824258Y30495242D01*
X18696523Y30687498D01*
X18533878Y30851282D01*
X18342518Y30980356D01*
X18129732Y31069803D01*
X17903625Y31116216D01*
X17672809Y31117827D01*
X17446076Y31074576D01*
X17232062Y30988109D01*
X17038919Y30861719D01*
X16874003Y30700222D01*
X16743596Y30509768D01*
X16652666Y30297611D01*
X16604676Y30071834D01*
X16601453Y29841035D01*
X16643121Y29614005D01*
X16728092Y29399393D01*
X16853130Y29205372D01*
X17001239Y29052000D01*
X16908646Y29052000D01*
X16368106Y29592540D01*
X16413369Y29791769D01*
X16417050Y30055411D01*
X16372217Y30281836D01*
X16284258Y30495242D01*
X16156523Y30687498D01*
X15993878Y30851282D01*
X15802518Y30980356D01*
X15589732Y31069803D01*
X15363625Y31116216D01*
X15132809Y31117827D01*
X14906076Y31074576D01*
X14692062Y30988109D01*
X14498919Y30861719D01*
X14334003Y30700222D01*
X14203596Y30509768D01*
X14112666Y30297611D01*
X14074107Y30116204D01*
X14048965Y30282238D01*
X13956277Y30538832D01*
X13895860Y30651863D01*
X13656993Y30717388D01*
X12879605Y29940000D01*
X12893748Y29925857D01*
X12714143Y29746252D01*
X12700000Y29760395D01*
X12685858Y29746252D01*
X12506253Y29925857D01*
X12520395Y29940000D01*
X11743007Y30717388D01*
X11504140Y30651863D01*
X11388240Y30404884D01*
X11322750Y30140040D01*
X11322286Y30129975D01*
X11292217Y30281836D01*
X11204258Y30495242D01*
X11076523Y30687498D01*
X10913878Y30851282D01*
X10846109Y30896993D01*
X11922612Y30896993D01*
X12700000Y30119605D01*
X13477388Y30896993D01*
X13411863Y31135860D01*
X13164884Y31251760D01*
X12900040Y31317250D01*
X12627508Y31329812D01*
X12357762Y31288965D01*
X12101168Y31196277D01*
X11988137Y31135860D01*
X11922612Y30896993D01*
X10846109Y30896993D01*
X10722518Y30980356D01*
X10509732Y31069803D01*
X10283625Y31116216D01*
X10052809Y31117827D01*
X9826076Y31074576D01*
X9612062Y30988109D01*
X9418919Y30861719D01*
X9254003Y30700222D01*
X9123596Y30509768D01*
X9032666Y30297611D01*
X8984676Y30071834D01*
X8981453Y29841035D01*
X9023121Y29614005D01*
X9108092Y29399393D01*
X9233130Y29205372D01*
X9393472Y29039332D01*
X9583011Y28907599D01*
X9794527Y28815190D01*
X10019964Y28765625D01*
X10250735Y28760791D01*
X10478050Y28800872D01*
X10507182Y28812172D01*
X11234676Y28084678D01*
X11274074Y28052316D01*
X11313137Y28019538D01*
X11315682Y28018139D01*
X11317923Y28016298D01*
X11362831Y27992219D01*
X11407543Y27967638D01*
X11410311Y27966760D01*
X11412868Y27965389D01*
X11461667Y27950469D01*
X11510232Y27935064D01*
X11513110Y27934741D01*
X11515891Y27933891D01*
X11566647Y27928736D01*
X11617292Y27923055D01*
X11622972Y27923015D01*
X11623072Y27923005D01*
X11623166Y27923014D01*
X11624999Y27923001D01*
X11643552Y27923001D01*
X11572666Y27757611D01*
X11524676Y27531834D01*
X11521453Y27301035D01*
X11563121Y27074005D01*
X11648092Y26859393D01*
X11773130Y26665372D01*
X11933472Y26499332D01*
X12123011Y26367599D01*
X12334527Y26275190D01*
X12559964Y26225625D01*
X12790735Y26220791D01*
X13018050Y26260872D01*
X13233251Y26344343D01*
X13428140Y26468024D01*
X13595294Y26627203D01*
X13728347Y26815817D01*
X13822231Y27026683D01*
X13873369Y27251769D01*
X13877050Y27515411D01*
X13832217Y27741836D01*
X13757547Y27923001D01*
X14183552Y27923001D01*
X14112666Y27757611D01*
X14064676Y27531834D01*
X14061453Y27301035D01*
X14103121Y27074005D01*
X14188092Y26859393D01*
X14313130Y26665372D01*
X14473472Y26499332D01*
X14663011Y26367599D01*
X14874527Y26275190D01*
X15099964Y26225625D01*
X15330735Y26220791D01*
X15558050Y26260872D01*
X15773251Y26344343D01*
X15968140Y26468024D01*
X16087584Y26581770D01*
X16959677Y25709677D01*
X16999053Y25677334D01*
X17038138Y25644537D01*
X17040686Y25643136D01*
X17042925Y25641297D01*
X17087811Y25617229D01*
X17132544Y25592637D01*
X17135312Y25591759D01*
X17137869Y25590388D01*
X17186655Y25575472D01*
X17210352Y25567956D01*
X17179292Y25547631D01*
X17063416Y25434157D01*
X17015677Y25364436D01*
X16945734Y25393837D01*
X16786863Y25426449D01*
X16624684Y25427581D01*
X16465374Y25397191D01*
X16315001Y25336436D01*
X16179292Y25247631D01*
X16063416Y25134157D01*
X15971788Y25000338D01*
X15907898Y24851270D01*
X15874178Y24692631D01*
X15871913Y24530464D01*
X15901191Y24370945D01*
X15960894Y24220151D01*
X16048750Y24083826D01*
X16161412Y23967161D01*
X16255463Y23901794D01*
X15476973Y23123304D01*
X15435223Y23140597D01*
X15312542Y23165000D01*
X15035750Y23165000D01*
X14877000Y23006250D01*
X14877000Y22207000D01*
X14897000Y22207000D01*
X14897000Y21953000D01*
X14877000Y21953000D01*
X14877000Y21933000D01*
X14623000Y21933000D01*
X14623000Y21953000D01*
X13773750Y21953000D01*
X13615000Y21794250D01*
X13615000Y21567458D01*
X13639403Y21444777D01*
X13687270Y21329215D01*
X13756763Y21225211D01*
X13792531Y21189443D01*
X13611397Y21189443D01*
X13523714Y21277740D01*
X13389258Y21368432D01*
X13239748Y21431280D01*
X13080877Y21463892D01*
X12918698Y21465024D01*
X12759388Y21434634D01*
X12609015Y21373879D01*
X12473306Y21285074D01*
X12357430Y21171600D01*
X12265802Y21037781D01*
X12201912Y20888713D01*
X12186093Y20814292D01*
X12159214Y20814480D01*
X11999904Y20784090D01*
X11849531Y20723335D01*
X11713822Y20634530D01*
X11597946Y20521056D01*
X11506318Y20387237D01*
X11442428Y20238169D01*
X11408708Y20079530D01*
X11406443Y19917363D01*
X11435721Y19757844D01*
X11495424Y19607050D01*
X11583280Y19470725D01*
X11695942Y19354060D01*
X11829118Y19261500D01*
X11977737Y19196570D01*
X12136136Y19161744D01*
X12298284Y19158347D01*
X12390705Y19174643D01*
X12412543Y19162638D01*
X12415311Y19161760D01*
X12417868Y19160389D01*
X12466667Y19145469D01*
X12515232Y19130064D01*
X12518110Y19129741D01*
X12520891Y19128891D01*
X12571647Y19123736D01*
X12618923Y19118433D01*
X12673001Y19064355D01*
X12673001Y18169999D01*
X12677971Y18119309D01*
X12682420Y18068458D01*
X12683231Y18065666D01*
X12683514Y18062782D01*
X12698237Y18014018D01*
X12712477Y17965004D01*
X12713813Y17962426D01*
X12714652Y17959648D01*
X12738578Y17914649D01*
X12762055Y17869358D01*
X12763865Y17867091D01*
X12765228Y17864527D01*
X12797479Y17824983D01*
X12829267Y17785164D01*
X12833250Y17781124D01*
X12833318Y17781041D01*
X12833395Y17780977D01*
X12834678Y17779676D01*
X13062354Y17552000D01*
X12478646Y17552000D01*
X11390323Y18640323D01*
X11350947Y18672666D01*
X11311862Y18705463D01*
X11309314Y18706864D01*
X11307075Y18708703D01*
X11262189Y18732771D01*
X11217456Y18757363D01*
X11214688Y18758241D01*
X11212131Y18759612D01*
X11179066Y18769721D01*
X11179066Y19000000D01*
X11173644Y19067998D01*
X11137927Y19183330D01*
X11071494Y19284146D01*
X10979605Y19362463D01*
X10869535Y19412079D01*
X10750000Y19429066D01*
X8050000Y19429066D01*
X7982002Y19423644D01*
X7866670Y19387927D01*
X7765854Y19321494D01*
X7687537Y19229605D01*
X7660662Y19169984D01*
X7639066Y19191580D01*
X7639066Y19310000D01*
X7633644Y19377998D01*
X7597927Y19493330D01*
X7531494Y19594146D01*
X7439605Y19672463D01*
X7329535Y19722079D01*
X7210000Y19739066D01*
X6490000Y19739066D01*
X6422002Y19733644D01*
X6306670Y19697927D01*
X6205854Y19631494D01*
X6127537Y19539605D01*
X6077921Y19429535D01*
X6060934Y19310000D01*
X6060934Y18778960D01*
X5996763Y18714789D01*
X5927270Y18610785D01*
X5879403Y18495223D01*
X5855000Y18372542D01*
X5855000Y18235750D01*
X6013750Y18077000D01*
X6723000Y18077000D01*
X6723000Y18097000D01*
X6977000Y18097000D01*
X6977000Y18077000D01*
X6997000Y18077000D01*
X6997000Y17823000D01*
X6977000Y17823000D01*
X6977000Y16777000D01*
X6997000Y16777000D01*
X6997000Y16523000D01*
X6977000Y16523000D01*
X6977000Y16503000D01*
X6723000Y16503000D01*
X6723000Y16523000D01*
X6013750Y16523000D01*
X5855000Y16364250D01*
X5855000Y16227458D01*
X5879403Y16104777D01*
X5927270Y15989215D01*
X5996763Y15885211D01*
X6060934Y15821040D01*
X6060934Y15290000D01*
X6066356Y15222002D01*
X6102073Y15106670D01*
X6168506Y15005854D01*
X6260395Y14927537D01*
X6370465Y14877921D01*
X6490000Y14860934D01*
X7210000Y14860934D01*
X7277998Y14866356D01*
X7393330Y14902073D01*
X7494146Y14968506D01*
X7572463Y15060395D01*
X7622079Y15170465D01*
X7639066Y15290000D01*
X7639066Y15408420D01*
X7658584Y15427938D01*
X7662073Y15416670D01*
X7728506Y15315854D01*
X7820395Y15237537D01*
X7930465Y15187921D01*
X8050000Y15170934D01*
X10750000Y15170934D01*
X10817998Y15176356D01*
X10933330Y15212073D01*
X11034146Y15278506D01*
X11112463Y15370395D01*
X11162079Y15480465D01*
X11179066Y15600000D01*
X11179066Y15748000D01*
X11207786Y15748000D01*
X11268506Y15655854D01*
X11360395Y15577537D01*
X11470465Y15527921D01*
X11590000Y15510934D01*
X11935288Y15510934D01*
X11401372Y14977018D01*
X10752014Y14977018D01*
X10701233Y14972039D01*
X10650473Y14967598D01*
X10647686Y14966788D01*
X10644797Y14966505D01*
X10595992Y14951770D01*
X10547019Y14937542D01*
X10544441Y14936206D01*
X10541663Y14935367D01*
X10496594Y14911403D01*
X10451373Y14887963D01*
X10449110Y14886156D01*
X10446542Y14884791D01*
X10406971Y14852517D01*
X10367179Y14820752D01*
X10363139Y14816769D01*
X10363056Y14816701D01*
X10362992Y14816624D01*
X10361691Y14815341D01*
X10123361Y14577011D01*
X6648013Y14577011D01*
X6597323Y14572041D01*
X6546472Y14567592D01*
X6543680Y14566781D01*
X6540796Y14566498D01*
X6492078Y14551789D01*
X6443018Y14537536D01*
X6440436Y14536197D01*
X6437662Y14535360D01*
X6421937Y14526999D01*
X4925581Y14526999D01*
X4927035Y14631091D01*
X4895533Y14790186D01*
X4833730Y14940131D01*
X4743980Y15075217D01*
X4629700Y15190297D01*
X4495244Y15280989D01*
X4345734Y15343837D01*
X4186863Y15376449D01*
X4024684Y15377581D01*
X3865374Y15347191D01*
X3715001Y15286436D01*
X3579292Y15197631D01*
X3463416Y15084157D01*
X3371788Y14950338D01*
X3307898Y14801270D01*
X3274178Y14642631D01*
X3271913Y14480464D01*
X3301191Y14320945D01*
X3360894Y14170151D01*
X3448750Y14033826D01*
X3561412Y13917161D01*
X3694588Y13824601D01*
X3843207Y13759671D01*
X3889000Y13749603D01*
X3752740Y13709499D01*
X3592409Y13625681D01*
X3451412Y13512316D01*
X3335120Y13373724D01*
X3247962Y13215184D01*
X3193257Y13042734D01*
X3173090Y12862943D01*
X3173000Y12850000D01*
X3173000Y11614538D01*
X3170934Y11600000D01*
X3170934Y8900000D01*
X3173000Y8874090D01*
X3173000Y8433976D01*
X2594512Y7855488D01*
X2538183Y7786912D01*
X2481482Y7718372D01*
X2480707Y7716939D01*
X2479678Y7715686D01*
X2437731Y7637456D01*
X2395433Y7559227D01*
X2394953Y7557676D01*
X2394184Y7556242D01*
X2368200Y7471251D01*
X2341934Y7386399D01*
X2341764Y7384782D01*
X2341289Y7383228D01*
X2332312Y7294848D01*
X2323023Y7206472D01*
X2323170Y7204853D01*
X2323006Y7203236D01*
X2331380Y7114641D01*
X2339420Y7026298D01*
X2339878Y7024743D01*
X2340031Y7023120D01*
X2365471Y6937786D01*
X2390501Y6852740D01*
X2391253Y6851301D01*
X2391718Y6849742D01*
X2433163Y6771134D01*
X2474319Y6692409D01*
X2475338Y6691142D01*
X2476096Y6689704D01*
X2486105Y6677344D01*
X2165132Y6679585D01*
X1456807Y6544465D01*
X788218Y6274337D01*
X502000Y6087041D01*
X502000Y13730464D01*
X1121913Y13730464D01*
X1151191Y13570945D01*
X1210894Y13420151D01*
X1298750Y13283826D01*
X1411412Y13167161D01*
X1544588Y13074601D01*
X1693207Y13009671D01*
X1851606Y12974845D01*
X2013754Y12971448D01*
X2173473Y12999611D01*
X2324680Y13058260D01*
X2461615Y13145162D01*
X2579064Y13257007D01*
X2672551Y13389534D01*
X2738517Y13537695D01*
X2774448Y13695848D01*
X2776654Y13853805D01*
X2805462Y13888137D01*
X2806863Y13890685D01*
X2808702Y13892924D01*
X2832770Y13937810D01*
X2857362Y13982543D01*
X2858240Y13985311D01*
X2859611Y13987868D01*
X2874527Y14036654D01*
X2889936Y14085232D01*
X2890259Y14088112D01*
X2891109Y14090892D01*
X2896269Y14141686D01*
X2901945Y14192292D01*
X2901985Y14197961D01*
X2901996Y14198072D01*
X2901986Y14198175D01*
X2901999Y14199999D01*
X2901999Y17664250D01*
X5855000Y17664250D01*
X5855000Y17527458D01*
X5879403Y17404777D01*
X5922803Y17300000D01*
X5879403Y17195223D01*
X5855000Y17072542D01*
X5855000Y16935750D01*
X6013750Y16777000D01*
X6723000Y16777000D01*
X6723000Y17823000D01*
X6013750Y17823000D01*
X5855000Y17664250D01*
X2901999Y17664250D01*
X2901999Y19450001D01*
X2897029Y19500691D01*
X2892580Y19551542D01*
X2891769Y19554334D01*
X2891486Y19557218D01*
X2876777Y19605936D01*
X2862524Y19654996D01*
X2861185Y19657578D01*
X2860348Y19660352D01*
X2836413Y19705367D01*
X2812945Y19750641D01*
X2811137Y19752906D01*
X2809772Y19755473D01*
X2777528Y19795008D01*
X2745734Y19834836D01*
X2741748Y19838877D01*
X2741682Y19838959D01*
X2741607Y19839021D01*
X2740322Y19840324D01*
X2440323Y20140323D01*
X2400947Y20172666D01*
X2361862Y20205463D01*
X2359314Y20206864D01*
X2357075Y20208703D01*
X2312189Y20232771D01*
X2267456Y20257363D01*
X2264688Y20258241D01*
X2262131Y20259612D01*
X2246424Y20264414D01*
X2210485Y20283685D01*
X2163909Y20308868D01*
X2162985Y20309154D01*
X2162131Y20309612D01*
X2111514Y20325087D01*
X2060995Y20340726D01*
X2060032Y20340827D01*
X2059107Y20341110D01*
X2006505Y20346453D01*
X1953854Y20351987D01*
X1952890Y20351899D01*
X1951927Y20351997D01*
X1899343Y20347026D01*
X1846566Y20342223D01*
X1845635Y20341949D01*
X1844673Y20341858D01*
X1793908Y20326725D01*
X1743217Y20311805D01*
X1742363Y20311359D01*
X1741432Y20311081D01*
X1694527Y20286351D01*
X1647745Y20261894D01*
X1646991Y20261288D01*
X1646134Y20260836D01*
X1604897Y20227443D01*
X1563786Y20194389D01*
X1563167Y20193651D01*
X1562411Y20193039D01*
X1528479Y20152312D01*
X1494537Y20111862D01*
X1494070Y20111013D01*
X1493452Y20110271D01*
X1468229Y20064007D01*
X1442637Y20017456D01*
X1442343Y20016528D01*
X1441882Y20015683D01*
X1426075Y19965246D01*
X1410063Y19914767D01*
X1409956Y19913809D01*
X1409665Y19912882D01*
X1403932Y19860107D01*
X1398054Y19807707D01*
X1398041Y19805884D01*
X1398030Y19805781D01*
X1398040Y19805670D01*
X1398000Y19800000D01*
X1398000Y19650000D01*
X1408513Y19542783D01*
X1439651Y19439649D01*
X1490227Y19344528D01*
X1558317Y19261042D01*
X1641326Y19192371D01*
X1736091Y19141132D01*
X1797999Y19121968D01*
X1797999Y14612953D01*
X1715374Y14597191D01*
X1565001Y14536436D01*
X1429292Y14447631D01*
X1313416Y14334157D01*
X1221788Y14200338D01*
X1157898Y14051270D01*
X1124178Y13892631D01*
X1121913Y13730464D01*
X502000Y13730464D01*
X502000Y22330458D01*
X4271913Y22330458D01*
X4301191Y22170939D01*
X4360894Y22020145D01*
X4448750Y21883820D01*
X4561412Y21767155D01*
X4694588Y21674595D01*
X4843207Y21609665D01*
X5001606Y21574839D01*
X5163754Y21571442D01*
X5323473Y21599605D01*
X5474680Y21658254D01*
X5611615Y21745156D01*
X5729064Y21857001D01*
X5822551Y21989528D01*
X5888517Y22137689D01*
X5924448Y22295842D01*
X5927035Y22481085D01*
X5895533Y22640180D01*
X5833730Y22790125D01*
X5743980Y22925211D01*
X5629700Y23040291D01*
X5495244Y23130983D01*
X5345734Y23193831D01*
X5186863Y23226443D01*
X5024684Y23227575D01*
X4865374Y23197185D01*
X4715001Y23136430D01*
X4579292Y23047625D01*
X4463416Y22934151D01*
X4371788Y22800332D01*
X4307898Y22651264D01*
X4274178Y22492625D01*
X4271913Y22330458D01*
X502000Y22330458D01*
X502000Y23330464D01*
X10121913Y23330464D01*
X10151191Y23170945D01*
X10210894Y23020151D01*
X10298750Y22883826D01*
X10411412Y22767161D01*
X10544588Y22674601D01*
X10693207Y22609671D01*
X10851606Y22574845D01*
X11013754Y22571448D01*
X11133383Y22592542D01*
X13615000Y22592542D01*
X13615000Y22365750D01*
X13773750Y22207000D01*
X14623000Y22207000D01*
X14623000Y23006250D01*
X14464250Y23165000D01*
X14187458Y23165000D01*
X14064777Y23140597D01*
X13949215Y23092730D01*
X13845211Y23023237D01*
X13756763Y22934789D01*
X13687270Y22830785D01*
X13639403Y22715223D01*
X13615000Y22592542D01*
X11133383Y22592542D01*
X11173473Y22599611D01*
X11324680Y22658260D01*
X11461615Y22745162D01*
X11579064Y22857007D01*
X11672551Y22989534D01*
X11738517Y23137695D01*
X11774448Y23295848D01*
X11777035Y23481091D01*
X11745533Y23640186D01*
X11683730Y23790131D01*
X11593980Y23925217D01*
X11479700Y24040297D01*
X11345244Y24130989D01*
X11195734Y24193837D01*
X11036863Y24226449D01*
X10874684Y24227581D01*
X10715374Y24197191D01*
X10565001Y24136436D01*
X10429292Y24047631D01*
X10313416Y23934157D01*
X10221788Y23800338D01*
X10157898Y23651270D01*
X10124178Y23492631D01*
X10121913Y23330464D01*
X502000Y23330464D01*
X502000Y26293278D01*
X605332Y26186275D01*
X1197461Y25774735D01*
X1858247Y25486045D01*
X2562522Y25331200D01*
X3283461Y25316098D01*
X3993603Y25441316D01*
X4665898Y25702082D01*
X5274740Y26088465D01*
X5796939Y26585747D01*
X6212602Y27174988D01*
X6440934Y27687829D01*
X6440934Y26650000D01*
X6446356Y26582002D01*
X6482073Y26466670D01*
X6548506Y26365854D01*
X6640395Y26287537D01*
X6750465Y26237921D01*
X6870000Y26220934D01*
X8370000Y26220934D01*
X8437998Y26226356D01*
X8553330Y26262073D01*
X8654146Y26328506D01*
X8732463Y26420395D01*
X8782079Y26530465D01*
X8799066Y26650000D01*
X8799066Y27301035D01*
X8981453Y27301035D01*
X9023121Y27074005D01*
X9108092Y26859393D01*
X9233130Y26665372D01*
X9393472Y26499332D01*
X9583011Y26367599D01*
X9794527Y26275190D01*
X10019964Y26225625D01*
X10250735Y26220791D01*
X10478050Y26260872D01*
X10693251Y26344343D01*
X10888140Y26468024D01*
X11055294Y26627203D01*
X11188347Y26815817D01*
X11282231Y27026683D01*
X11333369Y27251769D01*
X11337050Y27515411D01*
X11292217Y27741836D01*
X11204258Y27955242D01*
X11076523Y28147498D01*
X10913878Y28311282D01*
X10722518Y28440356D01*
X10509732Y28529803D01*
X10283625Y28576216D01*
X10052809Y28577827D01*
X9826076Y28534576D01*
X9612062Y28448109D01*
X9418919Y28321719D01*
X9254003Y28160222D01*
X9123596Y27969768D01*
X9032666Y27757611D01*
X8984676Y27531834D01*
X8981453Y27301035D01*
X8799066Y27301035D01*
X8799066Y28150000D01*
X8793644Y28217998D01*
X8757927Y28333330D01*
X8691494Y28434146D01*
X8599605Y28512463D01*
X8489535Y28562079D01*
X8370000Y28579066D01*
X6870000Y28579066D01*
X6802002Y28573644D01*
X6686670Y28537927D01*
X6662225Y28521819D01*
X6665656Y28536920D01*
X6669531Y28814404D01*
X6750465Y28777921D01*
X6870000Y28760934D01*
X8370000Y28760934D01*
X8437998Y28766356D01*
X8553330Y28802073D01*
X8654146Y28868506D01*
X8732463Y28960395D01*
X8782079Y29070465D01*
X8799066Y29190000D01*
X8799066Y30690000D01*
X8793644Y30757998D01*
X8757927Y30873330D01*
X8691494Y30974146D01*
X8599605Y31052463D01*
X8489535Y31102079D01*
X8370000Y31119066D01*
X6870000Y31119066D01*
X6802002Y31113644D01*
X6686670Y31077927D01*
X6585854Y31011494D01*
X6507537Y30919605D01*
X6457921Y30809535D01*
X6440934Y30690000D01*
X6440934Y30301217D01*
X6262307Y30734599D01*
X5863258Y31335216D01*
X5701606Y31498000D01*
X21865092Y31498000D01*
X21802537Y31424605D01*
G36*
X22607000Y10227000D02*
X22627000Y10227000D01*
X22627000Y9973000D01*
X22607000Y9973000D01*
X22607000Y9953000D01*
X22353000Y9953000D01*
X22353000Y9973000D01*
X22333000Y9973000D01*
X22333000Y10227000D01*
X22353000Y10227000D01*
X22353000Y10247000D01*
X22607000Y10247000D01*
X22607000Y10227000D01*
X22607000Y10227000D01*
G37*
X22607000Y10227000D02*
X22627000Y10227000D01*
X22627000Y9973000D01*
X22607000Y9973000D01*
X22607000Y9953000D01*
X22353000Y9953000D01*
X22353000Y9973000D01*
X22333000Y9973000D01*
X22333000Y10227000D01*
X22353000Y10227000D01*
X22353000Y10247000D01*
X22607000Y10247000D01*
X22607000Y10227000D01*
G36*
X8627000Y11227000D02*
X8647000Y11227000D01*
X8647000Y10973000D01*
X8627000Y10973000D01*
X8627000Y10953000D01*
X8373000Y10953000D01*
X8373000Y10973000D01*
X8353000Y10973000D01*
X8353000Y11227000D01*
X8373000Y11227000D01*
X8373000Y11247000D01*
X8627000Y11247000D01*
X8627000Y11227000D01*
X8627000Y11227000D01*
G37*
X8627000Y11227000D02*
X8647000Y11227000D01*
X8647000Y10973000D01*
X8627000Y10973000D01*
X8627000Y10953000D01*
X8373000Y10953000D01*
X8373000Y10973000D01*
X8353000Y10973000D01*
X8353000Y11227000D01*
X8373000Y11227000D01*
X8373000Y11247000D01*
X8627000Y11247000D01*
X8627000Y11227000D01*
G36*
X17290227Y18189922D02*
X17312500Y18162613D01*
X17312500Y17902007D01*
X17430218Y17761676D01*
X17566636Y17797526D01*
X17697598Y17872796D01*
X17698000Y17873147D01*
X17698000Y17800000D01*
X17702970Y17749310D01*
X17707419Y17698459D01*
X17708230Y17695667D01*
X17708513Y17692783D01*
X17723236Y17644019D01*
X17737476Y17595005D01*
X17738812Y17592427D01*
X17739651Y17589649D01*
X17763594Y17544619D01*
X17787054Y17499359D01*
X17788864Y17497092D01*
X17790227Y17494528D01*
X17822478Y17454984D01*
X17854266Y17415165D01*
X17858249Y17411125D01*
X17858317Y17411042D01*
X17858394Y17410978D01*
X17859359Y17410000D01*
X17635750Y17410000D01*
X17477000Y17251250D01*
X17477000Y17250026D01*
X17406763Y17179789D01*
X17337270Y17075785D01*
X17289403Y16960223D01*
X17265000Y16837542D01*
X17265000Y16310750D01*
X17423750Y16152000D01*
X18576250Y16152000D01*
X18596250Y16172000D01*
X18777000Y16172000D01*
X18777000Y16152000D01*
X18797000Y16152000D01*
X18797000Y15971250D01*
X18777000Y15951250D01*
X18777000Y14798750D01*
X18797000Y14778750D01*
X18797000Y14598000D01*
X18777000Y14598000D01*
X18777000Y14578000D01*
X18596250Y14578000D01*
X18576250Y14598000D01*
X17423750Y14598000D01*
X17265000Y14439250D01*
X17265000Y13912458D01*
X17289403Y13789777D01*
X17337270Y13674215D01*
X17406763Y13570211D01*
X17477000Y13499974D01*
X17477000Y13498750D01*
X17635750Y13340000D01*
X18364250Y13340000D01*
X18522998Y13498748D01*
X18522998Y13494761D01*
X18459600Y13402171D01*
X18395710Y13253103D01*
X18361990Y13094464D01*
X18359725Y12932297D01*
X18363402Y12912264D01*
X18302402Y12877204D01*
X18217813Y12803313D01*
X18146566Y12796829D01*
X18043217Y12766411D01*
X18000133Y12743888D01*
X17963909Y12763474D01*
X17860995Y12795332D01*
X17753854Y12806593D01*
X17646566Y12796829D01*
X17543217Y12766411D01*
X17500133Y12743888D01*
X17463909Y12763474D01*
X17360995Y12795332D01*
X17253854Y12806593D01*
X17146566Y12796829D01*
X17043217Y12766411D01*
X17000133Y12743888D01*
X16963909Y12763474D01*
X16860995Y12795332D01*
X16753854Y12806593D01*
X16646566Y12796829D01*
X16543217Y12766411D01*
X16500133Y12743888D01*
X16463909Y12763474D01*
X16360995Y12795332D01*
X16253854Y12806593D01*
X16146566Y12796829D01*
X16043217Y12766411D01*
X16000133Y12743888D01*
X15963909Y12763474D01*
X15890094Y12786324D01*
X16459317Y13355543D01*
X16537458Y13340000D01*
X17064250Y13340000D01*
X17223000Y13498750D01*
X17223000Y14598000D01*
X17203000Y14598000D01*
X17203000Y14778750D01*
X17223000Y14798750D01*
X17223000Y15739250D01*
X17265000Y15739250D01*
X17265000Y15010750D01*
X17423750Y14852000D01*
X17424974Y14852000D01*
X17477000Y14799974D01*
X17477000Y14798750D01*
X17635750Y14640000D01*
X18364250Y14640000D01*
X18523000Y14798750D01*
X18523000Y14799974D01*
X18575026Y14852000D01*
X18576250Y14852000D01*
X18735000Y15010750D01*
X18735000Y15739250D01*
X18576250Y15898000D01*
X18575026Y15898000D01*
X18523000Y15950026D01*
X18523000Y15951250D01*
X18364250Y16110000D01*
X17635750Y16110000D01*
X17477000Y15951250D01*
X17477000Y15950026D01*
X17424974Y15898000D01*
X17423750Y15898000D01*
X17265000Y15739250D01*
X17223000Y15739250D01*
X17223000Y15951250D01*
X17203000Y15971250D01*
X17203000Y16152000D01*
X17223000Y16152000D01*
X17223000Y17251250D01*
X17064250Y17410000D01*
X16875835Y17410000D01*
X16875835Y17726165D01*
X16870865Y17776851D01*
X16866416Y17827706D01*
X16865605Y17830498D01*
X16865322Y17833382D01*
X16864134Y17837315D01*
X16933364Y17797526D01*
X17069782Y17761676D01*
X17187500Y17902007D01*
X17187500Y18162125D01*
X17205463Y18183532D01*
X17250280Y18265053D01*
X17290227Y18189922D01*
X17290227Y18189922D01*
G37*
X17290227Y18189922D02*
X17312500Y18162613D01*
X17312500Y17902007D01*
X17430218Y17761676D01*
X17566636Y17797526D01*
X17697598Y17872796D01*
X17698000Y17873147D01*
X17698000Y17800000D01*
X17702970Y17749310D01*
X17707419Y17698459D01*
X17708230Y17695667D01*
X17708513Y17692783D01*
X17723236Y17644019D01*
X17737476Y17595005D01*
X17738812Y17592427D01*
X17739651Y17589649D01*
X17763594Y17544619D01*
X17787054Y17499359D01*
X17788864Y17497092D01*
X17790227Y17494528D01*
X17822478Y17454984D01*
X17854266Y17415165D01*
X17858249Y17411125D01*
X17858317Y17411042D01*
X17858394Y17410978D01*
X17859359Y17410000D01*
X17635750Y17410000D01*
X17477000Y17251250D01*
X17477000Y17250026D01*
X17406763Y17179789D01*
X17337270Y17075785D01*
X17289403Y16960223D01*
X17265000Y16837542D01*
X17265000Y16310750D01*
X17423750Y16152000D01*
X18576250Y16152000D01*
X18596250Y16172000D01*
X18777000Y16172000D01*
X18777000Y16152000D01*
X18797000Y16152000D01*
X18797000Y15971250D01*
X18777000Y15951250D01*
X18777000Y14798750D01*
X18797000Y14778750D01*
X18797000Y14598000D01*
X18777000Y14598000D01*
X18777000Y14578000D01*
X18596250Y14578000D01*
X18576250Y14598000D01*
X17423750Y14598000D01*
X17265000Y14439250D01*
X17265000Y13912458D01*
X17289403Y13789777D01*
X17337270Y13674215D01*
X17406763Y13570211D01*
X17477000Y13499974D01*
X17477000Y13498750D01*
X17635750Y13340000D01*
X18364250Y13340000D01*
X18522998Y13498748D01*
X18522998Y13494761D01*
X18459600Y13402171D01*
X18395710Y13253103D01*
X18361990Y13094464D01*
X18359725Y12932297D01*
X18363402Y12912264D01*
X18302402Y12877204D01*
X18217813Y12803313D01*
X18146566Y12796829D01*
X18043217Y12766411D01*
X18000133Y12743888D01*
X17963909Y12763474D01*
X17860995Y12795332D01*
X17753854Y12806593D01*
X17646566Y12796829D01*
X17543217Y12766411D01*
X17500133Y12743888D01*
X17463909Y12763474D01*
X17360995Y12795332D01*
X17253854Y12806593D01*
X17146566Y12796829D01*
X17043217Y12766411D01*
X17000133Y12743888D01*
X16963909Y12763474D01*
X16860995Y12795332D01*
X16753854Y12806593D01*
X16646566Y12796829D01*
X16543217Y12766411D01*
X16500133Y12743888D01*
X16463909Y12763474D01*
X16360995Y12795332D01*
X16253854Y12806593D01*
X16146566Y12796829D01*
X16043217Y12766411D01*
X16000133Y12743888D01*
X15963909Y12763474D01*
X15890094Y12786324D01*
X16459317Y13355543D01*
X16537458Y13340000D01*
X17064250Y13340000D01*
X17223000Y13498750D01*
X17223000Y14598000D01*
X17203000Y14598000D01*
X17203000Y14778750D01*
X17223000Y14798750D01*
X17223000Y15739250D01*
X17265000Y15739250D01*
X17265000Y15010750D01*
X17423750Y14852000D01*
X17424974Y14852000D01*
X17477000Y14799974D01*
X17477000Y14798750D01*
X17635750Y14640000D01*
X18364250Y14640000D01*
X18523000Y14798750D01*
X18523000Y14799974D01*
X18575026Y14852000D01*
X18576250Y14852000D01*
X18735000Y15010750D01*
X18735000Y15739250D01*
X18576250Y15898000D01*
X18575026Y15898000D01*
X18523000Y15950026D01*
X18523000Y15951250D01*
X18364250Y16110000D01*
X17635750Y16110000D01*
X17477000Y15951250D01*
X17477000Y15950026D01*
X17424974Y15898000D01*
X17423750Y15898000D01*
X17265000Y15739250D01*
X17223000Y15739250D01*
X17223000Y15951250D01*
X17203000Y15971250D01*
X17203000Y16152000D01*
X17223000Y16152000D01*
X17223000Y17251250D01*
X17064250Y17410000D01*
X16875835Y17410000D01*
X16875835Y17726165D01*
X16870865Y17776851D01*
X16866416Y17827706D01*
X16865605Y17830498D01*
X16865322Y17833382D01*
X16864134Y17837315D01*
X16933364Y17797526D01*
X17069782Y17761676D01*
X17187500Y17902007D01*
X17187500Y18162125D01*
X17205463Y18183532D01*
X17250280Y18265053D01*
X17290227Y18189922D01*
G36*
X22992253Y20827101D02*
X22924684Y20827573D01*
X22765374Y20797183D01*
X22615001Y20736428D01*
X22479292Y20647623D01*
X22363416Y20534149D01*
X22271788Y20400330D01*
X22207898Y20251262D01*
X22174178Y20092623D01*
X22171913Y19930456D01*
X22201191Y19770937D01*
X22223420Y19714792D01*
X22136670Y19687927D01*
X22066118Y19641437D01*
X22051764Y19688980D01*
X22037524Y19737994D01*
X22036188Y19740572D01*
X22035349Y19743350D01*
X22011406Y19788380D01*
X21987946Y19833640D01*
X21986136Y19835907D01*
X21984773Y19838471D01*
X21952522Y19878015D01*
X21920734Y19917834D01*
X21916751Y19921874D01*
X21916683Y19921957D01*
X21916606Y19922021D01*
X21915323Y19923322D01*
X21691030Y20147615D01*
X21691030Y20386325D01*
X21990323Y20685618D01*
X22022666Y20724994D01*
X22055463Y20764079D01*
X22056864Y20766627D01*
X22058703Y20768866D01*
X22082771Y20813752D01*
X22107363Y20858485D01*
X22108241Y20861253D01*
X22109612Y20863810D01*
X22124528Y20912596D01*
X22139937Y20961174D01*
X22140260Y20964054D01*
X22141110Y20966834D01*
X22146270Y21017628D01*
X22151946Y21068234D01*
X22151986Y21073903D01*
X22151997Y21074014D01*
X22151987Y21074117D01*
X22152000Y21075941D01*
X22152000Y21570934D01*
X22248420Y21570934D01*
X22992253Y20827101D01*
X22992253Y20827101D01*
G37*
X22992253Y20827101D02*
X22924684Y20827573D01*
X22765374Y20797183D01*
X22615001Y20736428D01*
X22479292Y20647623D01*
X22363416Y20534149D01*
X22271788Y20400330D01*
X22207898Y20251262D01*
X22174178Y20092623D01*
X22171913Y19930456D01*
X22201191Y19770937D01*
X22223420Y19714792D01*
X22136670Y19687927D01*
X22066118Y19641437D01*
X22051764Y19688980D01*
X22037524Y19737994D01*
X22036188Y19740572D01*
X22035349Y19743350D01*
X22011406Y19788380D01*
X21987946Y19833640D01*
X21986136Y19835907D01*
X21984773Y19838471D01*
X21952522Y19878015D01*
X21920734Y19917834D01*
X21916751Y19921874D01*
X21916683Y19921957D01*
X21916606Y19922021D01*
X21915323Y19923322D01*
X21691030Y20147615D01*
X21691030Y20386325D01*
X21990323Y20685618D01*
X22022666Y20724994D01*
X22055463Y20764079D01*
X22056864Y20766627D01*
X22058703Y20768866D01*
X22082771Y20813752D01*
X22107363Y20858485D01*
X22108241Y20861253D01*
X22109612Y20863810D01*
X22124528Y20912596D01*
X22139937Y20961174D01*
X22140260Y20964054D01*
X22141110Y20966834D01*
X22146270Y21017628D01*
X22151946Y21068234D01*
X22151986Y21073903D01*
X22151997Y21074014D01*
X22151987Y21074117D01*
X22152000Y21075941D01*
X22152000Y21570934D01*
X22248420Y21570934D01*
X22992253Y20827101D01*
G36*
X32623000Y28899920D02*
X32607002Y28898644D01*
X32491670Y28862927D01*
X32390854Y28796494D01*
X32312537Y28704605D01*
X32262921Y28594535D01*
X32245934Y28475000D01*
X32245934Y26925000D01*
X32251356Y26857002D01*
X32287073Y26741670D01*
X32353506Y26640854D01*
X32445395Y26562537D01*
X32555465Y26512921D01*
X32623000Y26503324D01*
X32623000Y24725148D01*
X32622537Y24724605D01*
X32602185Y24679456D01*
X32536494Y24779146D01*
X32444605Y24857463D01*
X32334535Y24907079D01*
X32215000Y24924066D01*
X31565000Y24924066D01*
X31497002Y24918644D01*
X31381670Y24882927D01*
X31354680Y24865142D01*
X31329700Y24890297D01*
X31195244Y24980989D01*
X31107099Y25018042D01*
X31644398Y25615041D01*
X31666994Y25650590D01*
X31677000Y25700000D01*
X31677000Y26500000D01*
X31655670Y26570447D01*
X31455670Y26870447D01*
X31399410Y26916994D01*
X31350000Y26927000D01*
X30250000Y26927000D01*
X30202211Y26917666D01*
X30160197Y26889803D01*
X29197394Y25927000D01*
X25356216Y25927000D01*
X25397463Y25975395D01*
X25447079Y26085465D01*
X25464066Y26205000D01*
X25464066Y27195000D01*
X25458644Y27262998D01*
X25422927Y27378330D01*
X25356494Y27479146D01*
X25264605Y27557463D01*
X25262000Y27558637D01*
X25262000Y28940013D01*
X25257030Y28990703D01*
X25253877Y29026740D01*
X25311412Y28967161D01*
X25444588Y28874601D01*
X25593207Y28809671D01*
X25751606Y28774845D01*
X25913754Y28771448D01*
X26073473Y28799611D01*
X26224680Y28858260D01*
X26361615Y28945162D01*
X26479064Y29057007D01*
X26572551Y29189534D01*
X26638517Y29337695D01*
X26674448Y29495848D01*
X26677035Y29681091D01*
X26645533Y29840186D01*
X26583730Y29990131D01*
X26493980Y30125217D01*
X26379700Y30240297D01*
X26245244Y30330989D01*
X26095734Y30393837D01*
X25936863Y30426449D01*
X25774684Y30427581D01*
X25615374Y30397191D01*
X25465001Y30336436D01*
X25329292Y30247631D01*
X25213416Y30134157D01*
X25121788Y30000338D01*
X25057898Y29851270D01*
X25024178Y29692631D01*
X25021913Y29530464D01*
X25049275Y29381384D01*
X24875292Y29555367D01*
X24877048Y29681091D01*
X24845546Y29840186D01*
X24783743Y29990131D01*
X24693993Y30125217D01*
X24657894Y30161569D01*
X24664066Y30205000D01*
X24664066Y31195000D01*
X24658644Y31262998D01*
X24622927Y31378330D01*
X24556494Y31479146D01*
X24534373Y31498000D01*
X32623000Y31498000D01*
X32623000Y28899920D01*
X32623000Y28899920D01*
G37*
X32623000Y28899920D02*
X32607002Y28898644D01*
X32491670Y28862927D01*
X32390854Y28796494D01*
X32312537Y28704605D01*
X32262921Y28594535D01*
X32245934Y28475000D01*
X32245934Y26925000D01*
X32251356Y26857002D01*
X32287073Y26741670D01*
X32353506Y26640854D01*
X32445395Y26562537D01*
X32555465Y26512921D01*
X32623000Y26503324D01*
X32623000Y24725148D01*
X32622537Y24724605D01*
X32602185Y24679456D01*
X32536494Y24779146D01*
X32444605Y24857463D01*
X32334535Y24907079D01*
X32215000Y24924066D01*
X31565000Y24924066D01*
X31497002Y24918644D01*
X31381670Y24882927D01*
X31354680Y24865142D01*
X31329700Y24890297D01*
X31195244Y24980989D01*
X31107099Y25018042D01*
X31644398Y25615041D01*
X31666994Y25650590D01*
X31677000Y25700000D01*
X31677000Y26500000D01*
X31655670Y26570447D01*
X31455670Y26870447D01*
X31399410Y26916994D01*
X31350000Y26927000D01*
X30250000Y26927000D01*
X30202211Y26917666D01*
X30160197Y26889803D01*
X29197394Y25927000D01*
X25356216Y25927000D01*
X25397463Y25975395D01*
X25447079Y26085465D01*
X25464066Y26205000D01*
X25464066Y27195000D01*
X25458644Y27262998D01*
X25422927Y27378330D01*
X25356494Y27479146D01*
X25264605Y27557463D01*
X25262000Y27558637D01*
X25262000Y28940013D01*
X25257030Y28990703D01*
X25253877Y29026740D01*
X25311412Y28967161D01*
X25444588Y28874601D01*
X25593207Y28809671D01*
X25751606Y28774845D01*
X25913754Y28771448D01*
X26073473Y28799611D01*
X26224680Y28858260D01*
X26361615Y28945162D01*
X26479064Y29057007D01*
X26572551Y29189534D01*
X26638517Y29337695D01*
X26674448Y29495848D01*
X26677035Y29681091D01*
X26645533Y29840186D01*
X26583730Y29990131D01*
X26493980Y30125217D01*
X26379700Y30240297D01*
X26245244Y30330989D01*
X26095734Y30393837D01*
X25936863Y30426449D01*
X25774684Y30427581D01*
X25615374Y30397191D01*
X25465001Y30336436D01*
X25329292Y30247631D01*
X25213416Y30134157D01*
X25121788Y30000338D01*
X25057898Y29851270D01*
X25024178Y29692631D01*
X25021913Y29530464D01*
X25049275Y29381384D01*
X24875292Y29555367D01*
X24877048Y29681091D01*
X24845546Y29840186D01*
X24783743Y29990131D01*
X24693993Y30125217D01*
X24657894Y30161569D01*
X24664066Y30205000D01*
X24664066Y31195000D01*
X24658644Y31262998D01*
X24622927Y31378330D01*
X24556494Y31479146D01*
X24534373Y31498000D01*
X32623000Y31498000D01*
X32623000Y28899920D01*
G36*
X20148011Y26771343D02*
X20148011Y24682635D01*
X18520847Y26309799D01*
X18557388Y26443007D01*
X17780000Y27220395D01*
X17765858Y27206252D01*
X17586253Y27385857D01*
X17600395Y27400000D01*
X17586253Y27414142D01*
X17765858Y27593747D01*
X17780000Y27579605D01*
X17794143Y27593747D01*
X17973748Y27414142D01*
X17959605Y27400000D01*
X18736993Y26622612D01*
X18975860Y26688137D01*
X19091760Y26935116D01*
X19157250Y27199960D01*
X19169812Y27472492D01*
X19128965Y27742238D01*
X19101736Y27817618D01*
X20148011Y26771343D01*
X20148011Y26771343D01*
G37*
X20148011Y26771343D02*
X20148011Y24682635D01*
X18520847Y26309799D01*
X18557388Y26443007D01*
X17780000Y27220395D01*
X17765858Y27206252D01*
X17586253Y27385857D01*
X17600395Y27400000D01*
X17586253Y27414142D01*
X17765858Y27593747D01*
X17780000Y27579605D01*
X17794143Y27593747D01*
X17973748Y27414142D01*
X17959605Y27400000D01*
X18736993Y26622612D01*
X18975860Y26688137D01*
X19091760Y26935116D01*
X19157250Y27199960D01*
X19169812Y27472492D01*
X19128965Y27742238D01*
X19101736Y27817618D01*
X20148011Y26771343D01*
G36*
X42322363Y28271808D02*
X42880973Y26919868D01*
X43914427Y25884608D01*
X45265391Y25323639D01*
X46728192Y25322363D01*
X48080132Y25880973D01*
X48498000Y26298112D01*
X48498000Y19877000D01*
X42080363Y19877000D01*
X42001505Y20067850D01*
X41769070Y20300692D01*
X41465222Y20426860D01*
X41136221Y20427147D01*
X40877000Y20320039D01*
X40877000Y25239543D01*
X41000000Y25214635D01*
X42150000Y25214635D01*
X42308237Y25244409D01*
X42453567Y25337927D01*
X42551064Y25480619D01*
X42585365Y25650000D01*
X42585365Y26350000D01*
X42555591Y26508237D01*
X42462073Y26653567D01*
X42319381Y26751064D01*
X42150000Y26785365D01*
X42127000Y26785365D01*
X42127000Y27157546D01*
X42300688Y27330930D01*
X42426856Y27634778D01*
X42427143Y27963779D01*
X42301505Y28267846D01*
X42069070Y28500688D01*
X41765222Y28626856D01*
X41436221Y28627143D01*
X41132154Y28501505D01*
X40899312Y28269070D01*
X40877000Y28215336D01*
X40877000Y28873000D01*
X42322887Y28873000D01*
X42322363Y28271808D01*
X42322363Y28271808D01*
G37*
X42322363Y28271808D02*
X42880973Y26919868D01*
X43914427Y25884608D01*
X45265391Y25323639D01*
X46728192Y25322363D01*
X48080132Y25880973D01*
X48498000Y26298112D01*
X48498000Y19877000D01*
X42080363Y19877000D01*
X42001505Y20067850D01*
X41769070Y20300692D01*
X41465222Y20426860D01*
X41136221Y20427147D01*
X40877000Y20320039D01*
X40877000Y25239543D01*
X41000000Y25214635D01*
X42150000Y25214635D01*
X42308237Y25244409D01*
X42453567Y25337927D01*
X42551064Y25480619D01*
X42585365Y25650000D01*
X42585365Y26350000D01*
X42555591Y26508237D01*
X42462073Y26653567D01*
X42319381Y26751064D01*
X42150000Y26785365D01*
X42127000Y26785365D01*
X42127000Y27157546D01*
X42300688Y27330930D01*
X42426856Y27634778D01*
X42427143Y27963779D01*
X42301505Y28267846D01*
X42069070Y28500688D01*
X41765222Y28626856D01*
X41436221Y28627143D01*
X41132154Y28501505D01*
X40899312Y28269070D01*
X40877000Y28215336D01*
X40877000Y28873000D01*
X42322887Y28873000D01*
X42322363Y28271808D01*
G36*
X48498000Y13127000D02*
X40927000Y13127000D01*
X40927000Y17669418D01*
X41000000Y17654635D01*
X42150000Y17654635D01*
X42308237Y17684409D01*
X42453567Y17777927D01*
X42551064Y17920619D01*
X42585365Y18090000D01*
X42585365Y18623000D01*
X48498000Y18623000D01*
X48498000Y13127000D01*
X48498000Y13127000D01*
G37*
X48498000Y13127000D02*
X40927000Y13127000D01*
X40927000Y17669418D01*
X41000000Y17654635D01*
X42150000Y17654635D01*
X42308237Y17684409D01*
X42453567Y17777927D01*
X42551064Y17920619D01*
X42585365Y18090000D01*
X42585365Y18623000D01*
X48498000Y18623000D01*
X48498000Y13127000D01*
G36*
X48498000Y11873158D02*
X48498000Y5702244D01*
X48085573Y6115392D01*
X46734609Y6676361D01*
X45271808Y6677637D01*
X43919868Y6119027D01*
X42884608Y5085573D01*
X42323639Y3734609D01*
X42323109Y3126503D01*
X40877000Y3126960D01*
X40877000Y9889543D01*
X41000000Y9864635D01*
X42150000Y9864635D01*
X42308237Y9894409D01*
X42453567Y9987927D01*
X42551064Y10130619D01*
X42585365Y10300000D01*
X42585365Y11000000D01*
X42555591Y11158237D01*
X42462073Y11303567D01*
X42319381Y11401064D01*
X42150000Y11435365D01*
X42104956Y11435365D01*
X42200688Y11530930D01*
X42326856Y11834778D01*
X42326891Y11875107D01*
X48498000Y11873158D01*
X48498000Y11873158D01*
G37*
X48498000Y11873158D02*
X48498000Y5702244D01*
X48085573Y6115392D01*
X46734609Y6676361D01*
X45271808Y6677637D01*
X43919868Y6119027D01*
X42884608Y5085573D01*
X42323639Y3734609D01*
X42323109Y3126503D01*
X40877000Y3126960D01*
X40877000Y9889543D01*
X41000000Y9864635D01*
X42150000Y9864635D01*
X42308237Y9894409D01*
X42453567Y9987927D01*
X42551064Y10130619D01*
X42585365Y10300000D01*
X42585365Y11000000D01*
X42555591Y11158237D01*
X42462073Y11303567D01*
X42319381Y11401064D01*
X42150000Y11435365D01*
X42104956Y11435365D01*
X42200688Y11530930D01*
X42326856Y11834778D01*
X42326891Y11875107D01*
X48498000Y11873158D01*
M02*
