G04 #@! TF.FileFunction,Soldermask,Top*
%FSLAX46Y46*%
G04 Gerber Fmt 4.6, Leading zero omitted, Abs format (unit mm)*
G04 Created by KiCad (PCBNEW 4.0.6-e0-6349~53~ubuntu16.04.1) date Wed Mar  8 22:49:17 2017*
%MOMM*%
%LPD*%
G01*
G04 APERTURE LIST*
%ADD10C,0.100000*%
%ADD11C,1.500000*%
G04 APERTURE END LIST*
D10*
D11*
X173000000Y-100005000D02*
X173000000Y-111005000D01*
X172500000Y-99505000D02*
X173000000Y-100005000D01*
X172500000Y-84005000D02*
X172500000Y-99505000D01*
X173000000Y-83505000D02*
X172500000Y-84005000D01*
X173000000Y-79005000D02*
X173000000Y-83505000D01*
D10*
G36*
X182322980Y-109682046D02*
X182913704Y-109803304D01*
X183469621Y-110036990D01*
X183969563Y-110374205D01*
X184394487Y-110802107D01*
X184728204Y-111304389D01*
X184958003Y-111861924D01*
X185075066Y-112453137D01*
X185075066Y-112453147D01*
X185075132Y-112453481D01*
X185065514Y-113142265D01*
X185065438Y-113142599D01*
X185065438Y-113142611D01*
X184931915Y-113730316D01*
X184686636Y-114281221D01*
X184339026Y-114773991D01*
X183902318Y-115189862D01*
X183393159Y-115512983D01*
X182830930Y-115731059D01*
X182237055Y-115835774D01*
X181634148Y-115823146D01*
X181045170Y-115693651D01*
X180492572Y-115452226D01*
X179997387Y-115108063D01*
X179578479Y-114674271D01*
X179251810Y-114167381D01*
X179029816Y-113606689D01*
X178920955Y-113013552D01*
X178929375Y-112410573D01*
X179054753Y-111820715D01*
X179292317Y-111266438D01*
X179633014Y-110768863D01*
X180063870Y-110346936D01*
X180568470Y-110016736D01*
X181127599Y-109790833D01*
X181719953Y-109677835D01*
X182322980Y-109682046D01*
X182322980Y-109682046D01*
G37*
G36*
X138822980Y-109677046D02*
X139413704Y-109798304D01*
X139969621Y-110031990D01*
X140469563Y-110369205D01*
X140894487Y-110797107D01*
X141228204Y-111299389D01*
X141458003Y-111856924D01*
X141575066Y-112448137D01*
X141575066Y-112448147D01*
X141575132Y-112448481D01*
X141565514Y-113137265D01*
X141565438Y-113137599D01*
X141565438Y-113137611D01*
X141431915Y-113725316D01*
X141186636Y-114276221D01*
X140839026Y-114768991D01*
X140402318Y-115184862D01*
X139893159Y-115507983D01*
X139330930Y-115726059D01*
X138737055Y-115830774D01*
X138134148Y-115818146D01*
X137545170Y-115688651D01*
X136992572Y-115447226D01*
X136497387Y-115103063D01*
X136078479Y-114669271D01*
X135751810Y-114162381D01*
X135529816Y-113601689D01*
X135420955Y-113008552D01*
X135429375Y-112405573D01*
X135554753Y-111815715D01*
X135792317Y-111261438D01*
X136133014Y-110763863D01*
X136563870Y-110341936D01*
X137068470Y-110011736D01*
X137627599Y-109785833D01*
X138219953Y-109672835D01*
X138822980Y-109677046D01*
X138822980Y-109677046D01*
G37*
G36*
X178550000Y-115605000D02*
X173650000Y-115605000D01*
X173650000Y-113205000D01*
X178550000Y-113205000D01*
X178550000Y-115605000D01*
X178550000Y-115605000D01*
G37*
G36*
X163240000Y-112675000D02*
X162440000Y-112675000D01*
X162440000Y-111535000D01*
X163240000Y-111535000D01*
X163240000Y-112675000D01*
X163240000Y-112675000D01*
G37*
G36*
X164660000Y-112675000D02*
X163860000Y-112675000D01*
X163860000Y-111535000D01*
X164660000Y-111535000D01*
X164660000Y-112675000D01*
X164660000Y-112675000D01*
G37*
G36*
X177850000Y-112650000D02*
X176150000Y-112650000D01*
X176150000Y-111150000D01*
X177850000Y-111150000D01*
X177850000Y-112650000D01*
X177850000Y-112650000D01*
G37*
G36*
X152486653Y-110935548D02*
X152645142Y-110968081D01*
X152794288Y-111030776D01*
X152928423Y-111121251D01*
X153042426Y-111236052D01*
X153131958Y-111370810D01*
X153193612Y-111520392D01*
X153224970Y-111678761D01*
X153224970Y-111678771D01*
X153225036Y-111679105D01*
X153222455Y-111863900D01*
X153222379Y-111864234D01*
X153222379Y-111864246D01*
X153186614Y-112021669D01*
X153120807Y-112169474D01*
X153027546Y-112301681D01*
X152910377Y-112413259D01*
X152773776Y-112499948D01*
X152622933Y-112558456D01*
X152463601Y-112586551D01*
X152301846Y-112583163D01*
X152143823Y-112548419D01*
X151995567Y-112483648D01*
X151862713Y-112391311D01*
X151750321Y-112274926D01*
X151662680Y-112138934D01*
X151603120Y-111988504D01*
X151573913Y-111829365D01*
X151576172Y-111667592D01*
X151609809Y-111509339D01*
X151673547Y-111360629D01*
X151764954Y-111227133D01*
X151880551Y-111113932D01*
X152015930Y-111025342D01*
X152165941Y-110964734D01*
X152324863Y-110934418D01*
X152486653Y-110935548D01*
X152486653Y-110935548D01*
G37*
G36*
X155026653Y-110935548D02*
X155185142Y-110968081D01*
X155334288Y-111030776D01*
X155468423Y-111121251D01*
X155582426Y-111236052D01*
X155671958Y-111370810D01*
X155733612Y-111520392D01*
X155764970Y-111678761D01*
X155764970Y-111678771D01*
X155765036Y-111679105D01*
X155762455Y-111863900D01*
X155762379Y-111864234D01*
X155762379Y-111864246D01*
X155726614Y-112021669D01*
X155660807Y-112169474D01*
X155567546Y-112301681D01*
X155450377Y-112413259D01*
X155313776Y-112499948D01*
X155162933Y-112558456D01*
X155003601Y-112586551D01*
X154841846Y-112583163D01*
X154683823Y-112548419D01*
X154535567Y-112483648D01*
X154402713Y-112391311D01*
X154290321Y-112274926D01*
X154202680Y-112138934D01*
X154143120Y-111988504D01*
X154113913Y-111829365D01*
X154116172Y-111667592D01*
X154149809Y-111509339D01*
X154213547Y-111360629D01*
X154304954Y-111227133D01*
X154420551Y-111113932D01*
X154555930Y-111025342D01*
X154705941Y-110964734D01*
X154864863Y-110934418D01*
X155026653Y-110935548D01*
X155026653Y-110935548D01*
G37*
G36*
X157566653Y-110935548D02*
X157725142Y-110968081D01*
X157874288Y-111030776D01*
X158008423Y-111121251D01*
X158122426Y-111236052D01*
X158211958Y-111370810D01*
X158273612Y-111520392D01*
X158304970Y-111678761D01*
X158304970Y-111678771D01*
X158305036Y-111679105D01*
X158302455Y-111863900D01*
X158302379Y-111864234D01*
X158302379Y-111864246D01*
X158266614Y-112021669D01*
X158200807Y-112169474D01*
X158107546Y-112301681D01*
X157990377Y-112413259D01*
X157853776Y-112499948D01*
X157702933Y-112558456D01*
X157543601Y-112586551D01*
X157381846Y-112583163D01*
X157223823Y-112548419D01*
X157075567Y-112483648D01*
X156942713Y-112391311D01*
X156830321Y-112274926D01*
X156742680Y-112138934D01*
X156683120Y-111988504D01*
X156653913Y-111829365D01*
X156656172Y-111667592D01*
X156689809Y-111509339D01*
X156753547Y-111360629D01*
X156844954Y-111227133D01*
X156960551Y-111113932D01*
X157095930Y-111025342D01*
X157245941Y-110964734D01*
X157404863Y-110934418D01*
X157566653Y-110935548D01*
X157566653Y-110935548D01*
G37*
G36*
X149946653Y-110935548D02*
X150105142Y-110968081D01*
X150254288Y-111030776D01*
X150388423Y-111121251D01*
X150502426Y-111236052D01*
X150591958Y-111370810D01*
X150653612Y-111520392D01*
X150684970Y-111678761D01*
X150684970Y-111678771D01*
X150685036Y-111679105D01*
X150682455Y-111863900D01*
X150682379Y-111864234D01*
X150682379Y-111864246D01*
X150646614Y-112021669D01*
X150580807Y-112169474D01*
X150487546Y-112301681D01*
X150370377Y-112413259D01*
X150233776Y-112499948D01*
X150082933Y-112558456D01*
X149923601Y-112586551D01*
X149761846Y-112583163D01*
X149603823Y-112548419D01*
X149455567Y-112483648D01*
X149322713Y-112391311D01*
X149210321Y-112274926D01*
X149122680Y-112138934D01*
X149063120Y-111988504D01*
X149033913Y-111829365D01*
X149036172Y-111667592D01*
X149069809Y-111509339D01*
X149133547Y-111360629D01*
X149224954Y-111227133D01*
X149340551Y-111113932D01*
X149475930Y-111025342D01*
X149625941Y-110964734D01*
X149784863Y-110934418D01*
X149946653Y-110935548D01*
X149946653Y-110935548D01*
G37*
G36*
X148145000Y-112585000D02*
X146495000Y-112585000D01*
X146495000Y-110935000D01*
X148145000Y-110935000D01*
X148145000Y-112585000D01*
X148145000Y-112585000D01*
G37*
G36*
X161725000Y-112430000D02*
X161175000Y-112430000D01*
X161175000Y-111680000D01*
X161725000Y-111680000D01*
X161725000Y-112430000D01*
X161725000Y-112430000D01*
G37*
G36*
X160825000Y-112430000D02*
X160275000Y-112430000D01*
X160275000Y-111680000D01*
X160825000Y-111680000D01*
X160825000Y-112430000D01*
X160825000Y-112430000D01*
G37*
G36*
X177850000Y-110650000D02*
X176150000Y-110650000D01*
X176150000Y-109150000D01*
X177850000Y-109150000D01*
X177850000Y-110650000D01*
X177850000Y-110650000D01*
G37*
G36*
X162960000Y-109675000D02*
X162160000Y-109675000D01*
X162160000Y-108535000D01*
X162960000Y-108535000D01*
X162960000Y-109675000D01*
X162960000Y-109675000D01*
G37*
G36*
X161540000Y-109675000D02*
X160740000Y-109675000D01*
X160740000Y-108535000D01*
X161540000Y-108535000D01*
X161540000Y-109675000D01*
X161540000Y-109675000D01*
G37*
G36*
X160025000Y-109380000D02*
X159475000Y-109380000D01*
X159475000Y-108630000D01*
X160025000Y-108630000D01*
X160025000Y-109380000D01*
X160025000Y-109380000D01*
G37*
G36*
X159125000Y-109380000D02*
X158575000Y-109380000D01*
X158575000Y-108630000D01*
X159125000Y-108630000D01*
X159125000Y-109380000D01*
X159125000Y-109380000D01*
G37*
G36*
X150895000Y-109290000D02*
X149105000Y-109290000D01*
X149105000Y-107740000D01*
X150895000Y-107740000D01*
X150895000Y-109290000D01*
X150895000Y-109290000D01*
G37*
G36*
X146950000Y-109100000D02*
X145450000Y-109100000D01*
X145450000Y-107400000D01*
X146950000Y-107400000D01*
X146950000Y-109100000D01*
X146950000Y-109100000D01*
G37*
G36*
X144950000Y-109100000D02*
X143450000Y-109100000D01*
X143450000Y-107400000D01*
X144950000Y-107400000D01*
X144950000Y-109100000D01*
X144950000Y-109100000D01*
G37*
G36*
X165875000Y-108180000D02*
X165125000Y-108180000D01*
X165125000Y-107230000D01*
X165875000Y-107230000D01*
X165875000Y-108180000D01*
X165875000Y-108180000D01*
G37*
G36*
X175425000Y-103150000D02*
X175426980Y-103163930D01*
X175432761Y-103176756D01*
X175441888Y-103187464D01*
X175453636Y-103195206D01*
X175467076Y-103199368D01*
X175475000Y-103200000D01*
X178500000Y-103200000D01*
X178500000Y-107550000D01*
X175475000Y-107550000D01*
X175461070Y-107551980D01*
X175448244Y-107557761D01*
X175437536Y-107566888D01*
X175429794Y-107578636D01*
X175425632Y-107592076D01*
X175425000Y-107600000D01*
X175425000Y-107800000D01*
X173725000Y-107800000D01*
X173725000Y-102950000D01*
X175425000Y-102950000D01*
X175425000Y-103150000D01*
X175425000Y-103150000D01*
G37*
G36*
X180700000Y-107705000D02*
X179400000Y-107705000D01*
X179400000Y-106855000D01*
X180700000Y-106855000D01*
X180700000Y-107705000D01*
X180700000Y-107705000D01*
G37*
G36*
X169360000Y-107575000D02*
X168560000Y-107575000D01*
X168560000Y-106435000D01*
X169360000Y-106435000D01*
X169360000Y-107575000D01*
X169360000Y-107575000D01*
G37*
G36*
X167940000Y-107575000D02*
X167140000Y-107575000D01*
X167140000Y-106435000D01*
X167940000Y-106435000D01*
X167940000Y-107575000D01*
X167940000Y-107575000D01*
G37*
G36*
X180700000Y-106435000D02*
X179400000Y-106435000D01*
X179400000Y-105585000D01*
X180700000Y-105585000D01*
X180700000Y-106435000D01*
X180700000Y-106435000D01*
G37*
G36*
X146575000Y-106175000D02*
X145425000Y-106175000D01*
X145425000Y-103325000D01*
X146575000Y-103325000D01*
X146575000Y-106175000D01*
X146575000Y-106175000D01*
G37*
G36*
X144375000Y-106175000D02*
X143225000Y-106175000D01*
X143225000Y-103325000D01*
X144375000Y-103325000D01*
X144375000Y-106175000D01*
X144375000Y-106175000D01*
G37*
G36*
X165875000Y-105780000D02*
X165125000Y-105780000D01*
X165125000Y-104830000D01*
X165875000Y-104830000D01*
X165875000Y-105780000D01*
X165875000Y-105780000D01*
G37*
G36*
X167940000Y-105575000D02*
X167140000Y-105575000D01*
X167140000Y-104435000D01*
X167940000Y-104435000D01*
X167940000Y-105575000D01*
X167940000Y-105575000D01*
G37*
G36*
X169360000Y-105575000D02*
X168560000Y-105575000D01*
X168560000Y-104435000D01*
X169360000Y-104435000D01*
X169360000Y-105575000D01*
X169360000Y-105575000D01*
G37*
G36*
X150895000Y-105260000D02*
X149105000Y-105260000D01*
X149105000Y-103710000D01*
X150895000Y-103710000D01*
X150895000Y-105260000D01*
X150895000Y-105260000D01*
G37*
G36*
X180700000Y-105165000D02*
X179400000Y-105165000D01*
X179400000Y-104315000D01*
X180700000Y-104315000D01*
X180700000Y-105165000D01*
X180700000Y-105165000D01*
G37*
G36*
X162310000Y-105070000D02*
X161510000Y-105070000D01*
X161510000Y-103930000D01*
X162310000Y-103930000D01*
X162310000Y-105070000D01*
X162310000Y-105070000D01*
G37*
G36*
X160890000Y-105070000D02*
X160090000Y-105070000D01*
X160090000Y-103930000D01*
X160890000Y-103930000D01*
X160890000Y-105070000D01*
X160890000Y-105070000D01*
G37*
G36*
X154490000Y-104970000D02*
X153690000Y-104970000D01*
X153690000Y-103830000D01*
X154490000Y-103830000D01*
X154490000Y-104970000D01*
X154490000Y-104970000D01*
G37*
G36*
X155910000Y-104970000D02*
X155110000Y-104970000D01*
X155110000Y-103830000D01*
X155910000Y-103830000D01*
X155910000Y-104970000D01*
X155910000Y-104970000D01*
G37*
G36*
X180700000Y-103895000D02*
X179400000Y-103895000D01*
X179400000Y-103045000D01*
X180700000Y-103045000D01*
X180700000Y-103895000D01*
X180700000Y-103895000D01*
G37*
G36*
X162755000Y-103475000D02*
X161705000Y-103475000D01*
X161705000Y-102325000D01*
X162755000Y-102325000D01*
X162755000Y-103475000D01*
X162755000Y-103475000D01*
G37*
G36*
X161095000Y-103475000D02*
X160045000Y-103475000D01*
X160045000Y-102325000D01*
X161095000Y-102325000D01*
X161095000Y-103475000D01*
X161095000Y-103475000D01*
G37*
G36*
X151050000Y-102950000D02*
X149550000Y-102950000D01*
X149550000Y-101250000D01*
X151050000Y-101250000D01*
X151050000Y-102950000D01*
X151050000Y-102950000D01*
G37*
G36*
X149050000Y-102950000D02*
X147550000Y-102950000D01*
X147550000Y-101250000D01*
X149050000Y-101250000D01*
X149050000Y-102950000D01*
X149050000Y-102950000D01*
G37*
G36*
X153175000Y-102855000D02*
X152025000Y-102855000D01*
X152025000Y-101805000D01*
X153175000Y-101805000D01*
X153175000Y-102855000D01*
X153175000Y-102855000D01*
G37*
G36*
X160540167Y-100551174D02*
X160540181Y-100551178D01*
X160540216Y-100551182D01*
X160577503Y-100562724D01*
X160611839Y-100581289D01*
X160641914Y-100606170D01*
X160666584Y-100636419D01*
X160684909Y-100670883D01*
X160696191Y-100708250D01*
X160700000Y-100747097D01*
X160700000Y-101552903D01*
X160699981Y-101555695D01*
X160695630Y-101594485D01*
X160683827Y-101631691D01*
X160665023Y-101665896D01*
X160639933Y-101695798D01*
X160609513Y-101720256D01*
X160574921Y-101738340D01*
X160537476Y-101749360D01*
X160537442Y-101749363D01*
X160537429Y-101749367D01*
X160498606Y-101752901D01*
X160459833Y-101748826D01*
X160459819Y-101748822D01*
X160459784Y-101748818D01*
X160422497Y-101737276D01*
X160388161Y-101718711D01*
X160358086Y-101693830D01*
X160333416Y-101663581D01*
X160315091Y-101629117D01*
X160303809Y-101591750D01*
X160300000Y-101552903D01*
X160300000Y-101550703D01*
X160299761Y-101548266D01*
X160296432Y-101534596D01*
X160289426Y-101522395D01*
X160279298Y-101512628D01*
X160266851Y-101506070D01*
X160253069Y-101503239D01*
X160239044Y-101504360D01*
X160225887Y-101509344D01*
X160214639Y-101517796D01*
X160206190Y-101529047D01*
X160201211Y-101542206D01*
X160200001Y-101552801D01*
X160200000Y-101552903D01*
X160199981Y-101555695D01*
X160195630Y-101594485D01*
X160183827Y-101631691D01*
X160165023Y-101665896D01*
X160139933Y-101695798D01*
X160109513Y-101720256D01*
X160074921Y-101738340D01*
X160037476Y-101749360D01*
X160037442Y-101749363D01*
X160037429Y-101749367D01*
X159998606Y-101752901D01*
X159959833Y-101748826D01*
X159959819Y-101748822D01*
X159959784Y-101748818D01*
X159922497Y-101737276D01*
X159888161Y-101718711D01*
X159858086Y-101693830D01*
X159833416Y-101663581D01*
X159815091Y-101629117D01*
X159803809Y-101591750D01*
X159800000Y-101552903D01*
X159800000Y-101550703D01*
X159799761Y-101548266D01*
X159796432Y-101534596D01*
X159789426Y-101522395D01*
X159779298Y-101512628D01*
X159766851Y-101506070D01*
X159753069Y-101503239D01*
X159739044Y-101504360D01*
X159725887Y-101509344D01*
X159714639Y-101517796D01*
X159706190Y-101529047D01*
X159701211Y-101542206D01*
X159700001Y-101552801D01*
X159700000Y-101552903D01*
X159699981Y-101555695D01*
X159695630Y-101594485D01*
X159683827Y-101631691D01*
X159665023Y-101665896D01*
X159639933Y-101695798D01*
X159609513Y-101720256D01*
X159574921Y-101738340D01*
X159537476Y-101749360D01*
X159537442Y-101749363D01*
X159537429Y-101749367D01*
X159498606Y-101752901D01*
X159459833Y-101748826D01*
X159459819Y-101748822D01*
X159459784Y-101748818D01*
X159422497Y-101737276D01*
X159388161Y-101718711D01*
X159358086Y-101693830D01*
X159333416Y-101663581D01*
X159315091Y-101629117D01*
X159303809Y-101591750D01*
X159300000Y-101552903D01*
X159300000Y-101550703D01*
X159299761Y-101548266D01*
X159296432Y-101534596D01*
X159289426Y-101522395D01*
X159279298Y-101512628D01*
X159266851Y-101506070D01*
X159253069Y-101503239D01*
X159239044Y-101504360D01*
X159225887Y-101509344D01*
X159214639Y-101517796D01*
X159206190Y-101529047D01*
X159201211Y-101542206D01*
X159200001Y-101552801D01*
X159200000Y-101552903D01*
X159199981Y-101555695D01*
X159195630Y-101594485D01*
X159183827Y-101631691D01*
X159165023Y-101665896D01*
X159139933Y-101695798D01*
X159109513Y-101720256D01*
X159074921Y-101738340D01*
X159037476Y-101749360D01*
X159037442Y-101749363D01*
X159037429Y-101749367D01*
X158998606Y-101752901D01*
X158959833Y-101748826D01*
X158959819Y-101748822D01*
X158959784Y-101748818D01*
X158922497Y-101737276D01*
X158888161Y-101718711D01*
X158858086Y-101693830D01*
X158833416Y-101663581D01*
X158815091Y-101629117D01*
X158803809Y-101591750D01*
X158800000Y-101552903D01*
X158800000Y-101550703D01*
X158799761Y-101548266D01*
X158796432Y-101534596D01*
X158789426Y-101522395D01*
X158779298Y-101512628D01*
X158766851Y-101506070D01*
X158753069Y-101503239D01*
X158739044Y-101504360D01*
X158725887Y-101509344D01*
X158714639Y-101517796D01*
X158706190Y-101529047D01*
X158701211Y-101542206D01*
X158700001Y-101552801D01*
X158700000Y-101552903D01*
X158699981Y-101555695D01*
X158695630Y-101594485D01*
X158683827Y-101631691D01*
X158665023Y-101665896D01*
X158639933Y-101695798D01*
X158609513Y-101720256D01*
X158574921Y-101738340D01*
X158537476Y-101749360D01*
X158537442Y-101749363D01*
X158537429Y-101749367D01*
X158498606Y-101752901D01*
X158459833Y-101748826D01*
X158459819Y-101748822D01*
X158459784Y-101748818D01*
X158422497Y-101737276D01*
X158388161Y-101718711D01*
X158358086Y-101693830D01*
X158333416Y-101663581D01*
X158315091Y-101629117D01*
X158303809Y-101591750D01*
X158300000Y-101552903D01*
X158300000Y-101550703D01*
X158299761Y-101548266D01*
X158296432Y-101534596D01*
X158289426Y-101522395D01*
X158279298Y-101512628D01*
X158266851Y-101506070D01*
X158253069Y-101503239D01*
X158239044Y-101504360D01*
X158225887Y-101509344D01*
X158214639Y-101517796D01*
X158206190Y-101529047D01*
X158201211Y-101542206D01*
X158200001Y-101552801D01*
X158200000Y-101552903D01*
X158199981Y-101555695D01*
X158195630Y-101594485D01*
X158183827Y-101631691D01*
X158165023Y-101665896D01*
X158139933Y-101695798D01*
X158109513Y-101720256D01*
X158074921Y-101738340D01*
X158037476Y-101749360D01*
X158037442Y-101749363D01*
X158037429Y-101749367D01*
X157998606Y-101752901D01*
X157959833Y-101748826D01*
X157959819Y-101748822D01*
X157959784Y-101748818D01*
X157922497Y-101737276D01*
X157888161Y-101718711D01*
X157858086Y-101693830D01*
X157833416Y-101663581D01*
X157815091Y-101629117D01*
X157803809Y-101591750D01*
X157800000Y-101552903D01*
X157800000Y-101550703D01*
X157799761Y-101548266D01*
X157796432Y-101534596D01*
X157789426Y-101522395D01*
X157779298Y-101512628D01*
X157766851Y-101506070D01*
X157753069Y-101503239D01*
X157739044Y-101504360D01*
X157725887Y-101509344D01*
X157714639Y-101517796D01*
X157706190Y-101529047D01*
X157701211Y-101542206D01*
X157700001Y-101552801D01*
X157700000Y-101552903D01*
X157699981Y-101555695D01*
X157695630Y-101594485D01*
X157683827Y-101631691D01*
X157665023Y-101665896D01*
X157639933Y-101695798D01*
X157609513Y-101720256D01*
X157574921Y-101738340D01*
X157537476Y-101749360D01*
X157537442Y-101749363D01*
X157537429Y-101749367D01*
X157498606Y-101752901D01*
X157459833Y-101748826D01*
X157459819Y-101748822D01*
X157459784Y-101748818D01*
X157422497Y-101737276D01*
X157388161Y-101718711D01*
X157358086Y-101693830D01*
X157333416Y-101663581D01*
X157315091Y-101629117D01*
X157303809Y-101591750D01*
X157300000Y-101552903D01*
X157300000Y-101550703D01*
X157299761Y-101548266D01*
X157296432Y-101534596D01*
X157289426Y-101522395D01*
X157279298Y-101512628D01*
X157266851Y-101506070D01*
X157253069Y-101503239D01*
X157239044Y-101504360D01*
X157225887Y-101509344D01*
X157214639Y-101517796D01*
X157206190Y-101529047D01*
X157201211Y-101542206D01*
X157200001Y-101552801D01*
X157200000Y-101552903D01*
X157199981Y-101555695D01*
X157195630Y-101594485D01*
X157183827Y-101631691D01*
X157165023Y-101665896D01*
X157139933Y-101695798D01*
X157109513Y-101720256D01*
X157074921Y-101738340D01*
X157037476Y-101749360D01*
X157037442Y-101749363D01*
X157037429Y-101749367D01*
X156998606Y-101752901D01*
X156959833Y-101748826D01*
X156959819Y-101748822D01*
X156959784Y-101748818D01*
X156922497Y-101737276D01*
X156888161Y-101718711D01*
X156858086Y-101693830D01*
X156833416Y-101663581D01*
X156815091Y-101629117D01*
X156803809Y-101591750D01*
X156800000Y-101552903D01*
X156800000Y-101550703D01*
X156799761Y-101548266D01*
X156796432Y-101534596D01*
X156789426Y-101522395D01*
X156779298Y-101512628D01*
X156766851Y-101506070D01*
X156753069Y-101503239D01*
X156739044Y-101504360D01*
X156725887Y-101509344D01*
X156714639Y-101517796D01*
X156706190Y-101529047D01*
X156701211Y-101542206D01*
X156700001Y-101552801D01*
X156700000Y-101552903D01*
X156699981Y-101555695D01*
X156695630Y-101594485D01*
X156683827Y-101631691D01*
X156665023Y-101665896D01*
X156639933Y-101695798D01*
X156609513Y-101720256D01*
X156574921Y-101738340D01*
X156537476Y-101749360D01*
X156537442Y-101749363D01*
X156537429Y-101749367D01*
X156498606Y-101752901D01*
X156459833Y-101748826D01*
X156459819Y-101748822D01*
X156459784Y-101748818D01*
X156422497Y-101737276D01*
X156388161Y-101718711D01*
X156358086Y-101693830D01*
X156333416Y-101663581D01*
X156315091Y-101629117D01*
X156303809Y-101591750D01*
X156300000Y-101552903D01*
X156300000Y-101550703D01*
X156299761Y-101548266D01*
X156296432Y-101534596D01*
X156289426Y-101522395D01*
X156279298Y-101512628D01*
X156266851Y-101506070D01*
X156253069Y-101503239D01*
X156239044Y-101504360D01*
X156225887Y-101509344D01*
X156214639Y-101517796D01*
X156206190Y-101529047D01*
X156201211Y-101542206D01*
X156200001Y-101552801D01*
X156200000Y-101552903D01*
X156199981Y-101555695D01*
X156195630Y-101594485D01*
X156183827Y-101631691D01*
X156165023Y-101665896D01*
X156139933Y-101695798D01*
X156109513Y-101720256D01*
X156074921Y-101738340D01*
X156037476Y-101749360D01*
X156037442Y-101749363D01*
X156037429Y-101749367D01*
X155998606Y-101752901D01*
X155959833Y-101748826D01*
X155959819Y-101748822D01*
X155959784Y-101748818D01*
X155922497Y-101737276D01*
X155888161Y-101718711D01*
X155858086Y-101693830D01*
X155833416Y-101663581D01*
X155815091Y-101629117D01*
X155803809Y-101591750D01*
X155800000Y-101552903D01*
X155800000Y-101550703D01*
X155799761Y-101548266D01*
X155796432Y-101534596D01*
X155789426Y-101522395D01*
X155779298Y-101512628D01*
X155766851Y-101506070D01*
X155753069Y-101503239D01*
X155739044Y-101504360D01*
X155725887Y-101509344D01*
X155714639Y-101517796D01*
X155706190Y-101529047D01*
X155701211Y-101542206D01*
X155700001Y-101552801D01*
X155700000Y-101552903D01*
X155699981Y-101555695D01*
X155695630Y-101594485D01*
X155683827Y-101631691D01*
X155665023Y-101665896D01*
X155639933Y-101695798D01*
X155609513Y-101720256D01*
X155574921Y-101738340D01*
X155537476Y-101749360D01*
X155537442Y-101749363D01*
X155537429Y-101749367D01*
X155498606Y-101752901D01*
X155459833Y-101748826D01*
X155459819Y-101748822D01*
X155459784Y-101748818D01*
X155422497Y-101737276D01*
X155388161Y-101718711D01*
X155358086Y-101693830D01*
X155333416Y-101663581D01*
X155315091Y-101629117D01*
X155303809Y-101591750D01*
X155300000Y-101552903D01*
X155300000Y-101550703D01*
X155299761Y-101548266D01*
X155296432Y-101534596D01*
X155289426Y-101522395D01*
X155279298Y-101512628D01*
X155266851Y-101506070D01*
X155253069Y-101503239D01*
X155239044Y-101504360D01*
X155225887Y-101509344D01*
X155214639Y-101517796D01*
X155206190Y-101529047D01*
X155201211Y-101542206D01*
X155200001Y-101552801D01*
X155200000Y-101552903D01*
X155199981Y-101555695D01*
X155195630Y-101594485D01*
X155183827Y-101631691D01*
X155165023Y-101665896D01*
X155139933Y-101695798D01*
X155109513Y-101720256D01*
X155074921Y-101738340D01*
X155037476Y-101749360D01*
X155037442Y-101749363D01*
X155037429Y-101749367D01*
X154998606Y-101752901D01*
X154959833Y-101748826D01*
X154959819Y-101748822D01*
X154959784Y-101748818D01*
X154922497Y-101737276D01*
X154888161Y-101718711D01*
X154858086Y-101693830D01*
X154833416Y-101663581D01*
X154815091Y-101629117D01*
X154803809Y-101591750D01*
X154800000Y-101552903D01*
X154800000Y-100747097D01*
X154800019Y-100744305D01*
X154804370Y-100705515D01*
X154816173Y-100668309D01*
X154834977Y-100634104D01*
X154860067Y-100604202D01*
X154890487Y-100579744D01*
X154925079Y-100561660D01*
X154962524Y-100550640D01*
X154962558Y-100550637D01*
X154962571Y-100550633D01*
X155001394Y-100547099D01*
X155040167Y-100551174D01*
X155040181Y-100551178D01*
X155040216Y-100551182D01*
X155077503Y-100562724D01*
X155111839Y-100581289D01*
X155141914Y-100606170D01*
X155166584Y-100636419D01*
X155184909Y-100670883D01*
X155196191Y-100708250D01*
X155200000Y-100747097D01*
X155200000Y-100749296D01*
X155200239Y-100751734D01*
X155203568Y-100765404D01*
X155210574Y-100777605D01*
X155220702Y-100787372D01*
X155233149Y-100793930D01*
X155246931Y-100796761D01*
X155260956Y-100795640D01*
X155274113Y-100790656D01*
X155285361Y-100782204D01*
X155293810Y-100770953D01*
X155298789Y-100757794D01*
X155299999Y-100747199D01*
X155300005Y-100746326D01*
X155300005Y-100746324D01*
X155300019Y-100744305D01*
X155304370Y-100705515D01*
X155316173Y-100668309D01*
X155334977Y-100634104D01*
X155360067Y-100604202D01*
X155390487Y-100579744D01*
X155425079Y-100561660D01*
X155462524Y-100550640D01*
X155462558Y-100550637D01*
X155462571Y-100550633D01*
X155501394Y-100547099D01*
X155540167Y-100551174D01*
X155540181Y-100551178D01*
X155540216Y-100551182D01*
X155577503Y-100562724D01*
X155611839Y-100581289D01*
X155641914Y-100606170D01*
X155666584Y-100636419D01*
X155684909Y-100670883D01*
X155696191Y-100708250D01*
X155700000Y-100747097D01*
X155700000Y-100749296D01*
X155700239Y-100751734D01*
X155703568Y-100765404D01*
X155710574Y-100777605D01*
X155720702Y-100787372D01*
X155733149Y-100793930D01*
X155746931Y-100796761D01*
X155760956Y-100795640D01*
X155774113Y-100790656D01*
X155785361Y-100782204D01*
X155793810Y-100770953D01*
X155798789Y-100757794D01*
X155799999Y-100747199D01*
X155800005Y-100746326D01*
X155800005Y-100746324D01*
X155800019Y-100744305D01*
X155804370Y-100705515D01*
X155816173Y-100668309D01*
X155834977Y-100634104D01*
X155860067Y-100604202D01*
X155890487Y-100579744D01*
X155925079Y-100561660D01*
X155962524Y-100550640D01*
X155962558Y-100550637D01*
X155962571Y-100550633D01*
X156001394Y-100547099D01*
X156040167Y-100551174D01*
X156040181Y-100551178D01*
X156040216Y-100551182D01*
X156077503Y-100562724D01*
X156111839Y-100581289D01*
X156141914Y-100606170D01*
X156166584Y-100636419D01*
X156184909Y-100670883D01*
X156196191Y-100708250D01*
X156200000Y-100747097D01*
X156200000Y-100749296D01*
X156200239Y-100751734D01*
X156203568Y-100765404D01*
X156210574Y-100777605D01*
X156220702Y-100787372D01*
X156233149Y-100793930D01*
X156246931Y-100796761D01*
X156260956Y-100795640D01*
X156274113Y-100790656D01*
X156285361Y-100782204D01*
X156293810Y-100770953D01*
X156298789Y-100757794D01*
X156299999Y-100747199D01*
X156300005Y-100746326D01*
X156300005Y-100746324D01*
X156300019Y-100744305D01*
X156304370Y-100705515D01*
X156316173Y-100668309D01*
X156334977Y-100634104D01*
X156360067Y-100604202D01*
X156390487Y-100579744D01*
X156425079Y-100561660D01*
X156462524Y-100550640D01*
X156462558Y-100550637D01*
X156462571Y-100550633D01*
X156501394Y-100547099D01*
X156540167Y-100551174D01*
X156540181Y-100551178D01*
X156540216Y-100551182D01*
X156577503Y-100562724D01*
X156611839Y-100581289D01*
X156641914Y-100606170D01*
X156666584Y-100636419D01*
X156684909Y-100670883D01*
X156696191Y-100708250D01*
X156700000Y-100747097D01*
X156700000Y-100749296D01*
X156700239Y-100751734D01*
X156703568Y-100765404D01*
X156710574Y-100777605D01*
X156720702Y-100787372D01*
X156733149Y-100793930D01*
X156746931Y-100796761D01*
X156760956Y-100795640D01*
X156774113Y-100790656D01*
X156785361Y-100782204D01*
X156793810Y-100770953D01*
X156798789Y-100757794D01*
X156799999Y-100747199D01*
X156800005Y-100746326D01*
X156800005Y-100746324D01*
X156800019Y-100744305D01*
X156804370Y-100705515D01*
X156816173Y-100668309D01*
X156834977Y-100634104D01*
X156860067Y-100604202D01*
X156890487Y-100579744D01*
X156925079Y-100561660D01*
X156962524Y-100550640D01*
X156962558Y-100550637D01*
X156962571Y-100550633D01*
X157001394Y-100547099D01*
X157040167Y-100551174D01*
X157040181Y-100551178D01*
X157040216Y-100551182D01*
X157077503Y-100562724D01*
X157111839Y-100581289D01*
X157141914Y-100606170D01*
X157166584Y-100636419D01*
X157184909Y-100670883D01*
X157196191Y-100708250D01*
X157200000Y-100747097D01*
X157200000Y-100749296D01*
X157200239Y-100751734D01*
X157203568Y-100765404D01*
X157210574Y-100777605D01*
X157220702Y-100787372D01*
X157233149Y-100793930D01*
X157246931Y-100796761D01*
X157260956Y-100795640D01*
X157274113Y-100790656D01*
X157285361Y-100782204D01*
X157293810Y-100770953D01*
X157298789Y-100757794D01*
X157299999Y-100747199D01*
X157300005Y-100746326D01*
X157300005Y-100746324D01*
X157300019Y-100744305D01*
X157304370Y-100705515D01*
X157316173Y-100668309D01*
X157334977Y-100634104D01*
X157360067Y-100604202D01*
X157390487Y-100579744D01*
X157425079Y-100561660D01*
X157462524Y-100550640D01*
X157462558Y-100550637D01*
X157462571Y-100550633D01*
X157501394Y-100547099D01*
X157540167Y-100551174D01*
X157540181Y-100551178D01*
X157540216Y-100551182D01*
X157577503Y-100562724D01*
X157611839Y-100581289D01*
X157641914Y-100606170D01*
X157666584Y-100636419D01*
X157684909Y-100670883D01*
X157696191Y-100708250D01*
X157700000Y-100747097D01*
X157700000Y-100749296D01*
X157700239Y-100751734D01*
X157703568Y-100765404D01*
X157710574Y-100777605D01*
X157720702Y-100787372D01*
X157733149Y-100793930D01*
X157746931Y-100796761D01*
X157760956Y-100795640D01*
X157774113Y-100790656D01*
X157785361Y-100782204D01*
X157793810Y-100770953D01*
X157798789Y-100757794D01*
X157799999Y-100747199D01*
X157800005Y-100746326D01*
X157800005Y-100746324D01*
X157800019Y-100744305D01*
X157804370Y-100705515D01*
X157816173Y-100668309D01*
X157834977Y-100634104D01*
X157860067Y-100604202D01*
X157890487Y-100579744D01*
X157925079Y-100561660D01*
X157962524Y-100550640D01*
X157962558Y-100550637D01*
X157962571Y-100550633D01*
X158001394Y-100547099D01*
X158040167Y-100551174D01*
X158040181Y-100551178D01*
X158040216Y-100551182D01*
X158077503Y-100562724D01*
X158111839Y-100581289D01*
X158141914Y-100606170D01*
X158166584Y-100636419D01*
X158184909Y-100670883D01*
X158196191Y-100708250D01*
X158200000Y-100747097D01*
X158200000Y-100749296D01*
X158200239Y-100751734D01*
X158203568Y-100765404D01*
X158210574Y-100777605D01*
X158220702Y-100787372D01*
X158233149Y-100793930D01*
X158246931Y-100796761D01*
X158260956Y-100795640D01*
X158274113Y-100790656D01*
X158285361Y-100782204D01*
X158293810Y-100770953D01*
X158298789Y-100757794D01*
X158299999Y-100747199D01*
X158300005Y-100746326D01*
X158300005Y-100746324D01*
X158300019Y-100744305D01*
X158304370Y-100705515D01*
X158316173Y-100668309D01*
X158334977Y-100634104D01*
X158360067Y-100604202D01*
X158390487Y-100579744D01*
X158425079Y-100561660D01*
X158462524Y-100550640D01*
X158462558Y-100550637D01*
X158462571Y-100550633D01*
X158501394Y-100547099D01*
X158540167Y-100551174D01*
X158540181Y-100551178D01*
X158540216Y-100551182D01*
X158577503Y-100562724D01*
X158611839Y-100581289D01*
X158641914Y-100606170D01*
X158666584Y-100636419D01*
X158684909Y-100670883D01*
X158696191Y-100708250D01*
X158700000Y-100747097D01*
X158700000Y-100749296D01*
X158700239Y-100751734D01*
X158703568Y-100765404D01*
X158710574Y-100777605D01*
X158720702Y-100787372D01*
X158733149Y-100793930D01*
X158746931Y-100796761D01*
X158760956Y-100795640D01*
X158774113Y-100790656D01*
X158785361Y-100782204D01*
X158793810Y-100770953D01*
X158798789Y-100757794D01*
X158799999Y-100747199D01*
X158800005Y-100746326D01*
X158800005Y-100746324D01*
X158800019Y-100744305D01*
X158804370Y-100705515D01*
X158816173Y-100668309D01*
X158834977Y-100634104D01*
X158860067Y-100604202D01*
X158890487Y-100579744D01*
X158925079Y-100561660D01*
X158962524Y-100550640D01*
X158962558Y-100550637D01*
X158962571Y-100550633D01*
X159001394Y-100547099D01*
X159040167Y-100551174D01*
X159040181Y-100551178D01*
X159040216Y-100551182D01*
X159077503Y-100562724D01*
X159111839Y-100581289D01*
X159141914Y-100606170D01*
X159166584Y-100636419D01*
X159184909Y-100670883D01*
X159196191Y-100708250D01*
X159200000Y-100747097D01*
X159200000Y-100749296D01*
X159200239Y-100751734D01*
X159203568Y-100765404D01*
X159210574Y-100777605D01*
X159220702Y-100787372D01*
X159233149Y-100793930D01*
X159246931Y-100796761D01*
X159260956Y-100795640D01*
X159274113Y-100790656D01*
X159285361Y-100782204D01*
X159293810Y-100770953D01*
X159298789Y-100757794D01*
X159299999Y-100747199D01*
X159300005Y-100746326D01*
X159300005Y-100746324D01*
X159300019Y-100744305D01*
X159304370Y-100705515D01*
X159316173Y-100668309D01*
X159334977Y-100634104D01*
X159360067Y-100604202D01*
X159390487Y-100579744D01*
X159425079Y-100561660D01*
X159462524Y-100550640D01*
X159462558Y-100550637D01*
X159462571Y-100550633D01*
X159501394Y-100547099D01*
X159540167Y-100551174D01*
X159540181Y-100551178D01*
X159540216Y-100551182D01*
X159577503Y-100562724D01*
X159611839Y-100581289D01*
X159641914Y-100606170D01*
X159666584Y-100636419D01*
X159684909Y-100670883D01*
X159696191Y-100708250D01*
X159700000Y-100747097D01*
X159700000Y-100749296D01*
X159700239Y-100751734D01*
X159703568Y-100765404D01*
X159710574Y-100777605D01*
X159720702Y-100787372D01*
X159733149Y-100793930D01*
X159746931Y-100796761D01*
X159760956Y-100795640D01*
X159774113Y-100790656D01*
X159785361Y-100782204D01*
X159793810Y-100770953D01*
X159798789Y-100757794D01*
X159799999Y-100747199D01*
X159800005Y-100746326D01*
X159800005Y-100746324D01*
X159800019Y-100744305D01*
X159804370Y-100705515D01*
X159816173Y-100668309D01*
X159834977Y-100634104D01*
X159860067Y-100604202D01*
X159890487Y-100579744D01*
X159925079Y-100561660D01*
X159962524Y-100550640D01*
X159962558Y-100550637D01*
X159962571Y-100550633D01*
X160001394Y-100547099D01*
X160040167Y-100551174D01*
X160040181Y-100551178D01*
X160040216Y-100551182D01*
X160077503Y-100562724D01*
X160111839Y-100581289D01*
X160141914Y-100606170D01*
X160166584Y-100636419D01*
X160184909Y-100670883D01*
X160196191Y-100708250D01*
X160200000Y-100747097D01*
X160200000Y-100749296D01*
X160200239Y-100751734D01*
X160203568Y-100765404D01*
X160210574Y-100777605D01*
X160220702Y-100787372D01*
X160233149Y-100793930D01*
X160246931Y-100796761D01*
X160260956Y-100795640D01*
X160274113Y-100790656D01*
X160285361Y-100782204D01*
X160293810Y-100770953D01*
X160298789Y-100757794D01*
X160299999Y-100747199D01*
X160300005Y-100746326D01*
X160300005Y-100746324D01*
X160300019Y-100744305D01*
X160304370Y-100705515D01*
X160316173Y-100668309D01*
X160334977Y-100634104D01*
X160360067Y-100604202D01*
X160390487Y-100579744D01*
X160425079Y-100561660D01*
X160462524Y-100550640D01*
X160462558Y-100550637D01*
X160462571Y-100550633D01*
X160501394Y-100547099D01*
X160540167Y-100551174D01*
X160540167Y-100551174D01*
G37*
G36*
X177050000Y-101550000D02*
X175550000Y-101550000D01*
X175550000Y-99850000D01*
X177050000Y-99850000D01*
X177050000Y-101550000D01*
X177050000Y-101550000D01*
G37*
G36*
X179050000Y-101550000D02*
X177550000Y-101550000D01*
X177550000Y-99850000D01*
X179050000Y-99850000D01*
X179050000Y-101550000D01*
X179050000Y-101550000D01*
G37*
G36*
X163275000Y-101455000D02*
X162125000Y-101455000D01*
X162125000Y-100405000D01*
X163275000Y-100405000D01*
X163275000Y-101455000D01*
X163275000Y-101455000D01*
G37*
G36*
X153175000Y-101195000D02*
X152025000Y-101195000D01*
X152025000Y-100145000D01*
X153175000Y-100145000D01*
X153175000Y-101195000D01*
X153175000Y-101195000D01*
G37*
G36*
X161678674Y-94675005D02*
X161678676Y-94675005D01*
X161680695Y-94675019D01*
X161719485Y-94679370D01*
X161756691Y-94691173D01*
X161790896Y-94709977D01*
X161820798Y-94735067D01*
X161845256Y-94765487D01*
X161863340Y-94800079D01*
X161874360Y-94837524D01*
X161874363Y-94837558D01*
X161874367Y-94837571D01*
X161877901Y-94876394D01*
X161873826Y-94915167D01*
X161873822Y-94915181D01*
X161873818Y-94915216D01*
X161862276Y-94952503D01*
X161843711Y-94986839D01*
X161818830Y-95016914D01*
X161788581Y-95041584D01*
X161754117Y-95059909D01*
X161716750Y-95071191D01*
X161677903Y-95075000D01*
X161675703Y-95075000D01*
X161673266Y-95075239D01*
X161659596Y-95078568D01*
X161647395Y-95085574D01*
X161637628Y-95095702D01*
X161631070Y-95108149D01*
X161628239Y-95121931D01*
X161629360Y-95135956D01*
X161634344Y-95149113D01*
X161642796Y-95160361D01*
X161654047Y-95168810D01*
X161667206Y-95173789D01*
X161677801Y-95174999D01*
X161678674Y-95175005D01*
X161678676Y-95175005D01*
X161680695Y-95175019D01*
X161719485Y-95179370D01*
X161756691Y-95191173D01*
X161790896Y-95209977D01*
X161820798Y-95235067D01*
X161845256Y-95265487D01*
X161863340Y-95300079D01*
X161874360Y-95337524D01*
X161874363Y-95337558D01*
X161874367Y-95337571D01*
X161877901Y-95376394D01*
X161873826Y-95415167D01*
X161873822Y-95415181D01*
X161873818Y-95415216D01*
X161862276Y-95452503D01*
X161843711Y-95486839D01*
X161818830Y-95516914D01*
X161788581Y-95541584D01*
X161754117Y-95559909D01*
X161716750Y-95571191D01*
X161677903Y-95575000D01*
X161675703Y-95575000D01*
X161673266Y-95575239D01*
X161659596Y-95578568D01*
X161647395Y-95585574D01*
X161637628Y-95595702D01*
X161631070Y-95608149D01*
X161628239Y-95621931D01*
X161629360Y-95635956D01*
X161634344Y-95649113D01*
X161642796Y-95660361D01*
X161654047Y-95668810D01*
X161667206Y-95673789D01*
X161677801Y-95674999D01*
X161678674Y-95675005D01*
X161678676Y-95675005D01*
X161680695Y-95675019D01*
X161719485Y-95679370D01*
X161756691Y-95691173D01*
X161790896Y-95709977D01*
X161820798Y-95735067D01*
X161845256Y-95765487D01*
X161863340Y-95800079D01*
X161874360Y-95837524D01*
X161874363Y-95837558D01*
X161874367Y-95837571D01*
X161877901Y-95876394D01*
X161873826Y-95915167D01*
X161873822Y-95915181D01*
X161873818Y-95915216D01*
X161862276Y-95952503D01*
X161843711Y-95986839D01*
X161818830Y-96016914D01*
X161788581Y-96041584D01*
X161754117Y-96059909D01*
X161716750Y-96071191D01*
X161677903Y-96075000D01*
X161675703Y-96075000D01*
X161673266Y-96075239D01*
X161659596Y-96078568D01*
X161647395Y-96085574D01*
X161637628Y-96095702D01*
X161631070Y-96108149D01*
X161628239Y-96121931D01*
X161629360Y-96135956D01*
X161634344Y-96149113D01*
X161642796Y-96160361D01*
X161654047Y-96168810D01*
X161667206Y-96173789D01*
X161677801Y-96174999D01*
X161678674Y-96175005D01*
X161678676Y-96175005D01*
X161680695Y-96175019D01*
X161719485Y-96179370D01*
X161756691Y-96191173D01*
X161790896Y-96209977D01*
X161820798Y-96235067D01*
X161845256Y-96265487D01*
X161863340Y-96300079D01*
X161874360Y-96337524D01*
X161874363Y-96337558D01*
X161874367Y-96337571D01*
X161877901Y-96376394D01*
X161873826Y-96415167D01*
X161873822Y-96415181D01*
X161873818Y-96415216D01*
X161862276Y-96452503D01*
X161843711Y-96486839D01*
X161818830Y-96516914D01*
X161788581Y-96541584D01*
X161754117Y-96559909D01*
X161716750Y-96571191D01*
X161677903Y-96575000D01*
X161675703Y-96575000D01*
X161673266Y-96575239D01*
X161659596Y-96578568D01*
X161647395Y-96585574D01*
X161637628Y-96595702D01*
X161631070Y-96608149D01*
X161628239Y-96621931D01*
X161629360Y-96635956D01*
X161634344Y-96649113D01*
X161642796Y-96660361D01*
X161654047Y-96668810D01*
X161667206Y-96673789D01*
X161677801Y-96674999D01*
X161678674Y-96675005D01*
X161678676Y-96675005D01*
X161680695Y-96675019D01*
X161719485Y-96679370D01*
X161756691Y-96691173D01*
X161790896Y-96709977D01*
X161820798Y-96735067D01*
X161845256Y-96765487D01*
X161863340Y-96800079D01*
X161874360Y-96837524D01*
X161874363Y-96837558D01*
X161874367Y-96837571D01*
X161877901Y-96876394D01*
X161873826Y-96915167D01*
X161873822Y-96915181D01*
X161873818Y-96915216D01*
X161862276Y-96952503D01*
X161843711Y-96986839D01*
X161818830Y-97016914D01*
X161788581Y-97041584D01*
X161754117Y-97059909D01*
X161716750Y-97071191D01*
X161677903Y-97075000D01*
X161675703Y-97075000D01*
X161673266Y-97075239D01*
X161659596Y-97078568D01*
X161647395Y-97085574D01*
X161637628Y-97095702D01*
X161631070Y-97108149D01*
X161628239Y-97121931D01*
X161629360Y-97135956D01*
X161634344Y-97149113D01*
X161642796Y-97160361D01*
X161654047Y-97168810D01*
X161667206Y-97173789D01*
X161677801Y-97174999D01*
X161678674Y-97175005D01*
X161678676Y-97175005D01*
X161680695Y-97175019D01*
X161719485Y-97179370D01*
X161756691Y-97191173D01*
X161790896Y-97209977D01*
X161820798Y-97235067D01*
X161845256Y-97265487D01*
X161863340Y-97300079D01*
X161874360Y-97337524D01*
X161874363Y-97337558D01*
X161874367Y-97337571D01*
X161877901Y-97376394D01*
X161873826Y-97415167D01*
X161873822Y-97415181D01*
X161873818Y-97415216D01*
X161862276Y-97452503D01*
X161843711Y-97486839D01*
X161818830Y-97516914D01*
X161788581Y-97541584D01*
X161754117Y-97559909D01*
X161716750Y-97571191D01*
X161677903Y-97575000D01*
X161675703Y-97575000D01*
X161673266Y-97575239D01*
X161659596Y-97578568D01*
X161647395Y-97585574D01*
X161637628Y-97595702D01*
X161631070Y-97608149D01*
X161628239Y-97621931D01*
X161629360Y-97635956D01*
X161634344Y-97649113D01*
X161642796Y-97660361D01*
X161654047Y-97668810D01*
X161667206Y-97673789D01*
X161677801Y-97674999D01*
X161678674Y-97675005D01*
X161678676Y-97675005D01*
X161680695Y-97675019D01*
X161719485Y-97679370D01*
X161756691Y-97691173D01*
X161790896Y-97709977D01*
X161820798Y-97735067D01*
X161845256Y-97765487D01*
X161863340Y-97800079D01*
X161874360Y-97837524D01*
X161874363Y-97837558D01*
X161874367Y-97837571D01*
X161877901Y-97876394D01*
X161873826Y-97915167D01*
X161873822Y-97915181D01*
X161873818Y-97915216D01*
X161862276Y-97952503D01*
X161843711Y-97986839D01*
X161818830Y-98016914D01*
X161788581Y-98041584D01*
X161754117Y-98059909D01*
X161716750Y-98071191D01*
X161677903Y-98075000D01*
X161675703Y-98075000D01*
X161673266Y-98075239D01*
X161659596Y-98078568D01*
X161647395Y-98085574D01*
X161637628Y-98095702D01*
X161631070Y-98108149D01*
X161628239Y-98121931D01*
X161629360Y-98135956D01*
X161634344Y-98149113D01*
X161642796Y-98160361D01*
X161654047Y-98168810D01*
X161667206Y-98173789D01*
X161677801Y-98174999D01*
X161678674Y-98175005D01*
X161678676Y-98175005D01*
X161680695Y-98175019D01*
X161719485Y-98179370D01*
X161756691Y-98191173D01*
X161790896Y-98209977D01*
X161820798Y-98235067D01*
X161845256Y-98265487D01*
X161863340Y-98300079D01*
X161874360Y-98337524D01*
X161874363Y-98337558D01*
X161874367Y-98337571D01*
X161877901Y-98376394D01*
X161873826Y-98415167D01*
X161873822Y-98415181D01*
X161873818Y-98415216D01*
X161862276Y-98452503D01*
X161843711Y-98486839D01*
X161818830Y-98516914D01*
X161788581Y-98541584D01*
X161754117Y-98559909D01*
X161716750Y-98571191D01*
X161677903Y-98575000D01*
X161675703Y-98575000D01*
X161673266Y-98575239D01*
X161659596Y-98578568D01*
X161647395Y-98585574D01*
X161637628Y-98595702D01*
X161631070Y-98608149D01*
X161628239Y-98621931D01*
X161629360Y-98635956D01*
X161634344Y-98649113D01*
X161642796Y-98660361D01*
X161654047Y-98668810D01*
X161667206Y-98673789D01*
X161677801Y-98674999D01*
X161678674Y-98675005D01*
X161678676Y-98675005D01*
X161680695Y-98675019D01*
X161719485Y-98679370D01*
X161756691Y-98691173D01*
X161790896Y-98709977D01*
X161820798Y-98735067D01*
X161845256Y-98765487D01*
X161863340Y-98800079D01*
X161874360Y-98837524D01*
X161874363Y-98837558D01*
X161874367Y-98837571D01*
X161877901Y-98876394D01*
X161873826Y-98915167D01*
X161873822Y-98915181D01*
X161873818Y-98915216D01*
X161862276Y-98952503D01*
X161843711Y-98986839D01*
X161818830Y-99016914D01*
X161788581Y-99041584D01*
X161754117Y-99059909D01*
X161716750Y-99071191D01*
X161677903Y-99075000D01*
X161675703Y-99075000D01*
X161673266Y-99075239D01*
X161659596Y-99078568D01*
X161647395Y-99085574D01*
X161637628Y-99095702D01*
X161631070Y-99108149D01*
X161628239Y-99121931D01*
X161629360Y-99135956D01*
X161634344Y-99149113D01*
X161642796Y-99160361D01*
X161654047Y-99168810D01*
X161667206Y-99173789D01*
X161677801Y-99174999D01*
X161678674Y-99175005D01*
X161678676Y-99175005D01*
X161680695Y-99175019D01*
X161719485Y-99179370D01*
X161756691Y-99191173D01*
X161790896Y-99209977D01*
X161820798Y-99235067D01*
X161845256Y-99265487D01*
X161863340Y-99300079D01*
X161874360Y-99337524D01*
X161874363Y-99337558D01*
X161874367Y-99337571D01*
X161877901Y-99376394D01*
X161873826Y-99415167D01*
X161873822Y-99415181D01*
X161873818Y-99415216D01*
X161862276Y-99452503D01*
X161843711Y-99486839D01*
X161818830Y-99516914D01*
X161788581Y-99541584D01*
X161754117Y-99559909D01*
X161716750Y-99571191D01*
X161677903Y-99575000D01*
X161675703Y-99575000D01*
X161673266Y-99575239D01*
X161659596Y-99578568D01*
X161647395Y-99585574D01*
X161637628Y-99595702D01*
X161631070Y-99608149D01*
X161628239Y-99621931D01*
X161629360Y-99635956D01*
X161634344Y-99649113D01*
X161642796Y-99660361D01*
X161654047Y-99668810D01*
X161667206Y-99673789D01*
X161677801Y-99674999D01*
X161678674Y-99675005D01*
X161678676Y-99675005D01*
X161680695Y-99675019D01*
X161719485Y-99679370D01*
X161756691Y-99691173D01*
X161790896Y-99709977D01*
X161820798Y-99735067D01*
X161845256Y-99765487D01*
X161863340Y-99800079D01*
X161874360Y-99837524D01*
X161874363Y-99837558D01*
X161874367Y-99837571D01*
X161877901Y-99876394D01*
X161873826Y-99915167D01*
X161873822Y-99915181D01*
X161873818Y-99915216D01*
X161862276Y-99952503D01*
X161843711Y-99986839D01*
X161818830Y-100016914D01*
X161788581Y-100041584D01*
X161754117Y-100059909D01*
X161716750Y-100071191D01*
X161677903Y-100075000D01*
X161675703Y-100075000D01*
X161673266Y-100075239D01*
X161659596Y-100078568D01*
X161647395Y-100085574D01*
X161637628Y-100095702D01*
X161631070Y-100108149D01*
X161628239Y-100121931D01*
X161629360Y-100135956D01*
X161634344Y-100149113D01*
X161642796Y-100160361D01*
X161654047Y-100168810D01*
X161667206Y-100173789D01*
X161677801Y-100174999D01*
X161678674Y-100175005D01*
X161678676Y-100175005D01*
X161680695Y-100175019D01*
X161719485Y-100179370D01*
X161756691Y-100191173D01*
X161790896Y-100209977D01*
X161820798Y-100235067D01*
X161845256Y-100265487D01*
X161863340Y-100300079D01*
X161874360Y-100337524D01*
X161874363Y-100337558D01*
X161874367Y-100337571D01*
X161877901Y-100376394D01*
X161873826Y-100415167D01*
X161873822Y-100415181D01*
X161873818Y-100415216D01*
X161862276Y-100452503D01*
X161843711Y-100486839D01*
X161818830Y-100516914D01*
X161788581Y-100541584D01*
X161754117Y-100559909D01*
X161716750Y-100571191D01*
X161677903Y-100575000D01*
X160872054Y-100575000D01*
X160871326Y-100574995D01*
X160871324Y-100574995D01*
X160869305Y-100574981D01*
X160830515Y-100570630D01*
X160793309Y-100558827D01*
X160759104Y-100540023D01*
X160729202Y-100514933D01*
X160704744Y-100484513D01*
X160686660Y-100449921D01*
X160675640Y-100412476D01*
X160675637Y-100412442D01*
X160675633Y-100412429D01*
X160672099Y-100373606D01*
X160676174Y-100334833D01*
X160676178Y-100334819D01*
X160676182Y-100334784D01*
X160687724Y-100297497D01*
X160706289Y-100263161D01*
X160731170Y-100233086D01*
X160761419Y-100208416D01*
X160795883Y-100190091D01*
X160833250Y-100178809D01*
X160872097Y-100175000D01*
X160874297Y-100175000D01*
X160876734Y-100174761D01*
X160890404Y-100171432D01*
X160902605Y-100164426D01*
X160912372Y-100154298D01*
X160918930Y-100141851D01*
X160921761Y-100128069D01*
X160920640Y-100114044D01*
X160915656Y-100100887D01*
X160907204Y-100089639D01*
X160895953Y-100081190D01*
X160882794Y-100076211D01*
X160872199Y-100075001D01*
X160871326Y-100074995D01*
X160871324Y-100074995D01*
X160869305Y-100074981D01*
X160830515Y-100070630D01*
X160793309Y-100058827D01*
X160759104Y-100040023D01*
X160729202Y-100014933D01*
X160704744Y-99984513D01*
X160686660Y-99949921D01*
X160675640Y-99912476D01*
X160675637Y-99912442D01*
X160675633Y-99912429D01*
X160672099Y-99873606D01*
X160676174Y-99834833D01*
X160676178Y-99834819D01*
X160676182Y-99834784D01*
X160687724Y-99797497D01*
X160706289Y-99763161D01*
X160731170Y-99733086D01*
X160761419Y-99708416D01*
X160795883Y-99690091D01*
X160833250Y-99678809D01*
X160872097Y-99675000D01*
X160874297Y-99675000D01*
X160876734Y-99674761D01*
X160890404Y-99671432D01*
X160902605Y-99664426D01*
X160912372Y-99654298D01*
X160918930Y-99641851D01*
X160921761Y-99628069D01*
X160920640Y-99614044D01*
X160915656Y-99600887D01*
X160907204Y-99589639D01*
X160895953Y-99581190D01*
X160882794Y-99576211D01*
X160872199Y-99575001D01*
X160871326Y-99574995D01*
X160871324Y-99574995D01*
X160869305Y-99574981D01*
X160830515Y-99570630D01*
X160793309Y-99558827D01*
X160759104Y-99540023D01*
X160729202Y-99514933D01*
X160704744Y-99484513D01*
X160686660Y-99449921D01*
X160675640Y-99412476D01*
X160675637Y-99412442D01*
X160675633Y-99412429D01*
X160672099Y-99373606D01*
X160676174Y-99334833D01*
X160676178Y-99334819D01*
X160676182Y-99334784D01*
X160687724Y-99297497D01*
X160706289Y-99263161D01*
X160731170Y-99233086D01*
X160761419Y-99208416D01*
X160795883Y-99190091D01*
X160833250Y-99178809D01*
X160872097Y-99175000D01*
X160874297Y-99175000D01*
X160876734Y-99174761D01*
X160890404Y-99171432D01*
X160902605Y-99164426D01*
X160912372Y-99154298D01*
X160918930Y-99141851D01*
X160921761Y-99128069D01*
X160920640Y-99114044D01*
X160915656Y-99100887D01*
X160907204Y-99089639D01*
X160895953Y-99081190D01*
X160882794Y-99076211D01*
X160872199Y-99075001D01*
X160871326Y-99074995D01*
X160871324Y-99074995D01*
X160869305Y-99074981D01*
X160830515Y-99070630D01*
X160793309Y-99058827D01*
X160759104Y-99040023D01*
X160729202Y-99014933D01*
X160704744Y-98984513D01*
X160686660Y-98949921D01*
X160675640Y-98912476D01*
X160675637Y-98912442D01*
X160675633Y-98912429D01*
X160672099Y-98873606D01*
X160676174Y-98834833D01*
X160676178Y-98834819D01*
X160676182Y-98834784D01*
X160687724Y-98797497D01*
X160706289Y-98763161D01*
X160731170Y-98733086D01*
X160761419Y-98708416D01*
X160795883Y-98690091D01*
X160833250Y-98678809D01*
X160872097Y-98675000D01*
X160874297Y-98675000D01*
X160876734Y-98674761D01*
X160890404Y-98671432D01*
X160902605Y-98664426D01*
X160912372Y-98654298D01*
X160918930Y-98641851D01*
X160921761Y-98628069D01*
X160920640Y-98614044D01*
X160915656Y-98600887D01*
X160907204Y-98589639D01*
X160895953Y-98581190D01*
X160882794Y-98576211D01*
X160872199Y-98575001D01*
X160871326Y-98574995D01*
X160871324Y-98574995D01*
X160869305Y-98574981D01*
X160830515Y-98570630D01*
X160793309Y-98558827D01*
X160759104Y-98540023D01*
X160729202Y-98514933D01*
X160704744Y-98484513D01*
X160686660Y-98449921D01*
X160675640Y-98412476D01*
X160675637Y-98412442D01*
X160675633Y-98412429D01*
X160672099Y-98373606D01*
X160676174Y-98334833D01*
X160676178Y-98334819D01*
X160676182Y-98334784D01*
X160687724Y-98297497D01*
X160706289Y-98263161D01*
X160731170Y-98233086D01*
X160761419Y-98208416D01*
X160795883Y-98190091D01*
X160833250Y-98178809D01*
X160872097Y-98175000D01*
X160874297Y-98175000D01*
X160876734Y-98174761D01*
X160890404Y-98171432D01*
X160902605Y-98164426D01*
X160912372Y-98154298D01*
X160918930Y-98141851D01*
X160921761Y-98128069D01*
X160920640Y-98114044D01*
X160915656Y-98100887D01*
X160907204Y-98089639D01*
X160895953Y-98081190D01*
X160882794Y-98076211D01*
X160872199Y-98075001D01*
X160871326Y-98074995D01*
X160871324Y-98074995D01*
X160869305Y-98074981D01*
X160830515Y-98070630D01*
X160793309Y-98058827D01*
X160759104Y-98040023D01*
X160729202Y-98014933D01*
X160704744Y-97984513D01*
X160686660Y-97949921D01*
X160675640Y-97912476D01*
X160675637Y-97912442D01*
X160675633Y-97912429D01*
X160672099Y-97873606D01*
X160676174Y-97834833D01*
X160676178Y-97834819D01*
X160676182Y-97834784D01*
X160687724Y-97797497D01*
X160706289Y-97763161D01*
X160731170Y-97733086D01*
X160761419Y-97708416D01*
X160795883Y-97690091D01*
X160833250Y-97678809D01*
X160872097Y-97675000D01*
X160874297Y-97675000D01*
X160876734Y-97674761D01*
X160890404Y-97671432D01*
X160902605Y-97664426D01*
X160912372Y-97654298D01*
X160918930Y-97641851D01*
X160921761Y-97628069D01*
X160920640Y-97614044D01*
X160915656Y-97600887D01*
X160907204Y-97589639D01*
X160895953Y-97581190D01*
X160882794Y-97576211D01*
X160872199Y-97575001D01*
X160871326Y-97574995D01*
X160871324Y-97574995D01*
X160869305Y-97574981D01*
X160830515Y-97570630D01*
X160793309Y-97558827D01*
X160759104Y-97540023D01*
X160729202Y-97514933D01*
X160704744Y-97484513D01*
X160686660Y-97449921D01*
X160675640Y-97412476D01*
X160675637Y-97412442D01*
X160675633Y-97412429D01*
X160672099Y-97373606D01*
X160676174Y-97334833D01*
X160676178Y-97334819D01*
X160676182Y-97334784D01*
X160687724Y-97297497D01*
X160706289Y-97263161D01*
X160731170Y-97233086D01*
X160761419Y-97208416D01*
X160795883Y-97190091D01*
X160833250Y-97178809D01*
X160872097Y-97175000D01*
X160874297Y-97175000D01*
X160876734Y-97174761D01*
X160890404Y-97171432D01*
X160902605Y-97164426D01*
X160912372Y-97154298D01*
X160918930Y-97141851D01*
X160921761Y-97128069D01*
X160920640Y-97114044D01*
X160915656Y-97100887D01*
X160907204Y-97089639D01*
X160895953Y-97081190D01*
X160882794Y-97076211D01*
X160872199Y-97075001D01*
X160871326Y-97074995D01*
X160871324Y-97074995D01*
X160869305Y-97074981D01*
X160830515Y-97070630D01*
X160793309Y-97058827D01*
X160759104Y-97040023D01*
X160729202Y-97014933D01*
X160704744Y-96984513D01*
X160686660Y-96949921D01*
X160675640Y-96912476D01*
X160675637Y-96912442D01*
X160675633Y-96912429D01*
X160672099Y-96873606D01*
X160676174Y-96834833D01*
X160676178Y-96834819D01*
X160676182Y-96834784D01*
X160687724Y-96797497D01*
X160706289Y-96763161D01*
X160731170Y-96733086D01*
X160761419Y-96708416D01*
X160795883Y-96690091D01*
X160833250Y-96678809D01*
X160872097Y-96675000D01*
X160874297Y-96675000D01*
X160876734Y-96674761D01*
X160890404Y-96671432D01*
X160902605Y-96664426D01*
X160912372Y-96654298D01*
X160918930Y-96641851D01*
X160921761Y-96628069D01*
X160920640Y-96614044D01*
X160915656Y-96600887D01*
X160907204Y-96589639D01*
X160895953Y-96581190D01*
X160882794Y-96576211D01*
X160872199Y-96575001D01*
X160871326Y-96574995D01*
X160871324Y-96574995D01*
X160869305Y-96574981D01*
X160830515Y-96570630D01*
X160793309Y-96558827D01*
X160759104Y-96540023D01*
X160729202Y-96514933D01*
X160704744Y-96484513D01*
X160686660Y-96449921D01*
X160675640Y-96412476D01*
X160675637Y-96412442D01*
X160675633Y-96412429D01*
X160672099Y-96373606D01*
X160676174Y-96334833D01*
X160676178Y-96334819D01*
X160676182Y-96334784D01*
X160687724Y-96297497D01*
X160706289Y-96263161D01*
X160731170Y-96233086D01*
X160761419Y-96208416D01*
X160795883Y-96190091D01*
X160833250Y-96178809D01*
X160872097Y-96175000D01*
X160874297Y-96175000D01*
X160876734Y-96174761D01*
X160890404Y-96171432D01*
X160902605Y-96164426D01*
X160912372Y-96154298D01*
X160918930Y-96141851D01*
X160921761Y-96128069D01*
X160920640Y-96114044D01*
X160915656Y-96100887D01*
X160907204Y-96089639D01*
X160895953Y-96081190D01*
X160882794Y-96076211D01*
X160872199Y-96075001D01*
X160871326Y-96074995D01*
X160871324Y-96074995D01*
X160869305Y-96074981D01*
X160830515Y-96070630D01*
X160793309Y-96058827D01*
X160759104Y-96040023D01*
X160729202Y-96014933D01*
X160704744Y-95984513D01*
X160686660Y-95949921D01*
X160675640Y-95912476D01*
X160675637Y-95912442D01*
X160675633Y-95912429D01*
X160672099Y-95873606D01*
X160676174Y-95834833D01*
X160676178Y-95834819D01*
X160676182Y-95834784D01*
X160687724Y-95797497D01*
X160706289Y-95763161D01*
X160731170Y-95733086D01*
X160761419Y-95708416D01*
X160795883Y-95690091D01*
X160833250Y-95678809D01*
X160872097Y-95675000D01*
X160874297Y-95675000D01*
X160876734Y-95674761D01*
X160890404Y-95671432D01*
X160902605Y-95664426D01*
X160912372Y-95654298D01*
X160918930Y-95641851D01*
X160921761Y-95628069D01*
X160920640Y-95614044D01*
X160915656Y-95600887D01*
X160907204Y-95589639D01*
X160895953Y-95581190D01*
X160882794Y-95576211D01*
X160872199Y-95575001D01*
X160871326Y-95574995D01*
X160871324Y-95574995D01*
X160869305Y-95574981D01*
X160830515Y-95570630D01*
X160793309Y-95558827D01*
X160759104Y-95540023D01*
X160729202Y-95514933D01*
X160704744Y-95484513D01*
X160686660Y-95449921D01*
X160675640Y-95412476D01*
X160675637Y-95412442D01*
X160675633Y-95412429D01*
X160672099Y-95373606D01*
X160676174Y-95334833D01*
X160676178Y-95334819D01*
X160676182Y-95334784D01*
X160687724Y-95297497D01*
X160706289Y-95263161D01*
X160731170Y-95233086D01*
X160761419Y-95208416D01*
X160795883Y-95190091D01*
X160833250Y-95178809D01*
X160872097Y-95175000D01*
X160874297Y-95175000D01*
X160876734Y-95174761D01*
X160890404Y-95171432D01*
X160902605Y-95164426D01*
X160912372Y-95154298D01*
X160918930Y-95141851D01*
X160921761Y-95128069D01*
X160920640Y-95114044D01*
X160915656Y-95100887D01*
X160907204Y-95089639D01*
X160895953Y-95081190D01*
X160882794Y-95076211D01*
X160872199Y-95075001D01*
X160871326Y-95074995D01*
X160871324Y-95074995D01*
X160869305Y-95074981D01*
X160830515Y-95070630D01*
X160793309Y-95058827D01*
X160759104Y-95040023D01*
X160729202Y-95014933D01*
X160704744Y-94984513D01*
X160686660Y-94949921D01*
X160675640Y-94912476D01*
X160675637Y-94912442D01*
X160675633Y-94912429D01*
X160672099Y-94873606D01*
X160676174Y-94834833D01*
X160676178Y-94834819D01*
X160676182Y-94834784D01*
X160687724Y-94797497D01*
X160706289Y-94763161D01*
X160731170Y-94733086D01*
X160761419Y-94708416D01*
X160795883Y-94690091D01*
X160833250Y-94678809D01*
X160872097Y-94675000D01*
X161677946Y-94675000D01*
X161678674Y-94675005D01*
X161678674Y-94675005D01*
G37*
G36*
X154628674Y-94675005D02*
X154628676Y-94675005D01*
X154630695Y-94675019D01*
X154669485Y-94679370D01*
X154706691Y-94691173D01*
X154740896Y-94709977D01*
X154770798Y-94735067D01*
X154795256Y-94765487D01*
X154813340Y-94800079D01*
X154824360Y-94837524D01*
X154824363Y-94837558D01*
X154824367Y-94837571D01*
X154827901Y-94876394D01*
X154823826Y-94915167D01*
X154823822Y-94915181D01*
X154823818Y-94915216D01*
X154812276Y-94952503D01*
X154793711Y-94986839D01*
X154768830Y-95016914D01*
X154738581Y-95041584D01*
X154704117Y-95059909D01*
X154666750Y-95071191D01*
X154627903Y-95075000D01*
X154625703Y-95075000D01*
X154623266Y-95075239D01*
X154609596Y-95078568D01*
X154597395Y-95085574D01*
X154587628Y-95095702D01*
X154581070Y-95108149D01*
X154578239Y-95121931D01*
X154579360Y-95135956D01*
X154584344Y-95149113D01*
X154592796Y-95160361D01*
X154604047Y-95168810D01*
X154617206Y-95173789D01*
X154627801Y-95174999D01*
X154628674Y-95175005D01*
X154628676Y-95175005D01*
X154630695Y-95175019D01*
X154669485Y-95179370D01*
X154706691Y-95191173D01*
X154740896Y-95209977D01*
X154770798Y-95235067D01*
X154795256Y-95265487D01*
X154813340Y-95300079D01*
X154824360Y-95337524D01*
X154824363Y-95337558D01*
X154824367Y-95337571D01*
X154827901Y-95376394D01*
X154823826Y-95415167D01*
X154823822Y-95415181D01*
X154823818Y-95415216D01*
X154812276Y-95452503D01*
X154793711Y-95486839D01*
X154768830Y-95516914D01*
X154738581Y-95541584D01*
X154704117Y-95559909D01*
X154666750Y-95571191D01*
X154627903Y-95575000D01*
X154625703Y-95575000D01*
X154623266Y-95575239D01*
X154609596Y-95578568D01*
X154597395Y-95585574D01*
X154587628Y-95595702D01*
X154581070Y-95608149D01*
X154578239Y-95621931D01*
X154579360Y-95635956D01*
X154584344Y-95649113D01*
X154592796Y-95660361D01*
X154604047Y-95668810D01*
X154617206Y-95673789D01*
X154627801Y-95674999D01*
X154628674Y-95675005D01*
X154628676Y-95675005D01*
X154630695Y-95675019D01*
X154669485Y-95679370D01*
X154706691Y-95691173D01*
X154740896Y-95709977D01*
X154770798Y-95735067D01*
X154795256Y-95765487D01*
X154813340Y-95800079D01*
X154824360Y-95837524D01*
X154824363Y-95837558D01*
X154824367Y-95837571D01*
X154827901Y-95876394D01*
X154823826Y-95915167D01*
X154823822Y-95915181D01*
X154823818Y-95915216D01*
X154812276Y-95952503D01*
X154793711Y-95986839D01*
X154768830Y-96016914D01*
X154738581Y-96041584D01*
X154704117Y-96059909D01*
X154666750Y-96071191D01*
X154627903Y-96075000D01*
X154625703Y-96075000D01*
X154623266Y-96075239D01*
X154609596Y-96078568D01*
X154597395Y-96085574D01*
X154587628Y-96095702D01*
X154581070Y-96108149D01*
X154578239Y-96121931D01*
X154579360Y-96135956D01*
X154584344Y-96149113D01*
X154592796Y-96160361D01*
X154604047Y-96168810D01*
X154617206Y-96173789D01*
X154627801Y-96174999D01*
X154628674Y-96175005D01*
X154628676Y-96175005D01*
X154630695Y-96175019D01*
X154669485Y-96179370D01*
X154706691Y-96191173D01*
X154740896Y-96209977D01*
X154770798Y-96235067D01*
X154795256Y-96265487D01*
X154813340Y-96300079D01*
X154824360Y-96337524D01*
X154824363Y-96337558D01*
X154824367Y-96337571D01*
X154827901Y-96376394D01*
X154823826Y-96415167D01*
X154823822Y-96415181D01*
X154823818Y-96415216D01*
X154812276Y-96452503D01*
X154793711Y-96486839D01*
X154768830Y-96516914D01*
X154738581Y-96541584D01*
X154704117Y-96559909D01*
X154666750Y-96571191D01*
X154627903Y-96575000D01*
X154625703Y-96575000D01*
X154623266Y-96575239D01*
X154609596Y-96578568D01*
X154597395Y-96585574D01*
X154587628Y-96595702D01*
X154581070Y-96608149D01*
X154578239Y-96621931D01*
X154579360Y-96635956D01*
X154584344Y-96649113D01*
X154592796Y-96660361D01*
X154604047Y-96668810D01*
X154617206Y-96673789D01*
X154627801Y-96674999D01*
X154628674Y-96675005D01*
X154628676Y-96675005D01*
X154630695Y-96675019D01*
X154669485Y-96679370D01*
X154706691Y-96691173D01*
X154740896Y-96709977D01*
X154770798Y-96735067D01*
X154795256Y-96765487D01*
X154813340Y-96800079D01*
X154824360Y-96837524D01*
X154824363Y-96837558D01*
X154824367Y-96837571D01*
X154827901Y-96876394D01*
X154823826Y-96915167D01*
X154823822Y-96915181D01*
X154823818Y-96915216D01*
X154812276Y-96952503D01*
X154793711Y-96986839D01*
X154768830Y-97016914D01*
X154738581Y-97041584D01*
X154704117Y-97059909D01*
X154666750Y-97071191D01*
X154627903Y-97075000D01*
X154625703Y-97075000D01*
X154623266Y-97075239D01*
X154609596Y-97078568D01*
X154597395Y-97085574D01*
X154587628Y-97095702D01*
X154581070Y-97108149D01*
X154578239Y-97121931D01*
X154579360Y-97135956D01*
X154584344Y-97149113D01*
X154592796Y-97160361D01*
X154604047Y-97168810D01*
X154617206Y-97173789D01*
X154627801Y-97174999D01*
X154628674Y-97175005D01*
X154628676Y-97175005D01*
X154630695Y-97175019D01*
X154669485Y-97179370D01*
X154706691Y-97191173D01*
X154740896Y-97209977D01*
X154770798Y-97235067D01*
X154795256Y-97265487D01*
X154813340Y-97300079D01*
X154824360Y-97337524D01*
X154824363Y-97337558D01*
X154824367Y-97337571D01*
X154827901Y-97376394D01*
X154823826Y-97415167D01*
X154823822Y-97415181D01*
X154823818Y-97415216D01*
X154812276Y-97452503D01*
X154793711Y-97486839D01*
X154768830Y-97516914D01*
X154738581Y-97541584D01*
X154704117Y-97559909D01*
X154666750Y-97571191D01*
X154627903Y-97575000D01*
X154625703Y-97575000D01*
X154623266Y-97575239D01*
X154609596Y-97578568D01*
X154597395Y-97585574D01*
X154587628Y-97595702D01*
X154581070Y-97608149D01*
X154578239Y-97621931D01*
X154579360Y-97635956D01*
X154584344Y-97649113D01*
X154592796Y-97660361D01*
X154604047Y-97668810D01*
X154617206Y-97673789D01*
X154627801Y-97674999D01*
X154628674Y-97675005D01*
X154628676Y-97675005D01*
X154630695Y-97675019D01*
X154669485Y-97679370D01*
X154706691Y-97691173D01*
X154740896Y-97709977D01*
X154770798Y-97735067D01*
X154795256Y-97765487D01*
X154813340Y-97800079D01*
X154824360Y-97837524D01*
X154824363Y-97837558D01*
X154824367Y-97837571D01*
X154827901Y-97876394D01*
X154823826Y-97915167D01*
X154823822Y-97915181D01*
X154823818Y-97915216D01*
X154812276Y-97952503D01*
X154793711Y-97986839D01*
X154768830Y-98016914D01*
X154738581Y-98041584D01*
X154704117Y-98059909D01*
X154666750Y-98071191D01*
X154627903Y-98075000D01*
X154625703Y-98075000D01*
X154623266Y-98075239D01*
X154609596Y-98078568D01*
X154597395Y-98085574D01*
X154587628Y-98095702D01*
X154581070Y-98108149D01*
X154578239Y-98121931D01*
X154579360Y-98135956D01*
X154584344Y-98149113D01*
X154592796Y-98160361D01*
X154604047Y-98168810D01*
X154617206Y-98173789D01*
X154627801Y-98174999D01*
X154628674Y-98175005D01*
X154628676Y-98175005D01*
X154630695Y-98175019D01*
X154669485Y-98179370D01*
X154706691Y-98191173D01*
X154740896Y-98209977D01*
X154770798Y-98235067D01*
X154795256Y-98265487D01*
X154813340Y-98300079D01*
X154824360Y-98337524D01*
X154824363Y-98337558D01*
X154824367Y-98337571D01*
X154827901Y-98376394D01*
X154823826Y-98415167D01*
X154823822Y-98415181D01*
X154823818Y-98415216D01*
X154812276Y-98452503D01*
X154793711Y-98486839D01*
X154768830Y-98516914D01*
X154738581Y-98541584D01*
X154704117Y-98559909D01*
X154666750Y-98571191D01*
X154627903Y-98575000D01*
X154625703Y-98575000D01*
X154623266Y-98575239D01*
X154609596Y-98578568D01*
X154597395Y-98585574D01*
X154587628Y-98595702D01*
X154581070Y-98608149D01*
X154578239Y-98621931D01*
X154579360Y-98635956D01*
X154584344Y-98649113D01*
X154592796Y-98660361D01*
X154604047Y-98668810D01*
X154617206Y-98673789D01*
X154627801Y-98674999D01*
X154628674Y-98675005D01*
X154628676Y-98675005D01*
X154630695Y-98675019D01*
X154669485Y-98679370D01*
X154706691Y-98691173D01*
X154740896Y-98709977D01*
X154770798Y-98735067D01*
X154795256Y-98765487D01*
X154813340Y-98800079D01*
X154824360Y-98837524D01*
X154824363Y-98837558D01*
X154824367Y-98837571D01*
X154827901Y-98876394D01*
X154823826Y-98915167D01*
X154823822Y-98915181D01*
X154823818Y-98915216D01*
X154812276Y-98952503D01*
X154793711Y-98986839D01*
X154768830Y-99016914D01*
X154738581Y-99041584D01*
X154704117Y-99059909D01*
X154666750Y-99071191D01*
X154627903Y-99075000D01*
X154625703Y-99075000D01*
X154623266Y-99075239D01*
X154609596Y-99078568D01*
X154597395Y-99085574D01*
X154587628Y-99095702D01*
X154581070Y-99108149D01*
X154578239Y-99121931D01*
X154579360Y-99135956D01*
X154584344Y-99149113D01*
X154592796Y-99160361D01*
X154604047Y-99168810D01*
X154617206Y-99173789D01*
X154627801Y-99174999D01*
X154628674Y-99175005D01*
X154628676Y-99175005D01*
X154630695Y-99175019D01*
X154669485Y-99179370D01*
X154706691Y-99191173D01*
X154740896Y-99209977D01*
X154770798Y-99235067D01*
X154795256Y-99265487D01*
X154813340Y-99300079D01*
X154824360Y-99337524D01*
X154824363Y-99337558D01*
X154824367Y-99337571D01*
X154827901Y-99376394D01*
X154823826Y-99415167D01*
X154823822Y-99415181D01*
X154823818Y-99415216D01*
X154812276Y-99452503D01*
X154793711Y-99486839D01*
X154768830Y-99516914D01*
X154738581Y-99541584D01*
X154704117Y-99559909D01*
X154666750Y-99571191D01*
X154627903Y-99575000D01*
X154625703Y-99575000D01*
X154623266Y-99575239D01*
X154609596Y-99578568D01*
X154597395Y-99585574D01*
X154587628Y-99595702D01*
X154581070Y-99608149D01*
X154578239Y-99621931D01*
X154579360Y-99635956D01*
X154584344Y-99649113D01*
X154592796Y-99660361D01*
X154604047Y-99668810D01*
X154617206Y-99673789D01*
X154627801Y-99674999D01*
X154628674Y-99675005D01*
X154628676Y-99675005D01*
X154630695Y-99675019D01*
X154669485Y-99679370D01*
X154706691Y-99691173D01*
X154740896Y-99709977D01*
X154770798Y-99735067D01*
X154795256Y-99765487D01*
X154813340Y-99800079D01*
X154824360Y-99837524D01*
X154824363Y-99837558D01*
X154824367Y-99837571D01*
X154827901Y-99876394D01*
X154823826Y-99915167D01*
X154823822Y-99915181D01*
X154823818Y-99915216D01*
X154812276Y-99952503D01*
X154793711Y-99986839D01*
X154768830Y-100016914D01*
X154738581Y-100041584D01*
X154704117Y-100059909D01*
X154666750Y-100071191D01*
X154627903Y-100075000D01*
X154625703Y-100075000D01*
X154623266Y-100075239D01*
X154609596Y-100078568D01*
X154597395Y-100085574D01*
X154587628Y-100095702D01*
X154581070Y-100108149D01*
X154578239Y-100121931D01*
X154579360Y-100135956D01*
X154584344Y-100149113D01*
X154592796Y-100160361D01*
X154604047Y-100168810D01*
X154617206Y-100173789D01*
X154627801Y-100174999D01*
X154628674Y-100175005D01*
X154628676Y-100175005D01*
X154630695Y-100175019D01*
X154669485Y-100179370D01*
X154706691Y-100191173D01*
X154740896Y-100209977D01*
X154770798Y-100235067D01*
X154795256Y-100265487D01*
X154813340Y-100300079D01*
X154824360Y-100337524D01*
X154824363Y-100337558D01*
X154824367Y-100337571D01*
X154827901Y-100376394D01*
X154823826Y-100415167D01*
X154823822Y-100415181D01*
X154823818Y-100415216D01*
X154812276Y-100452503D01*
X154793711Y-100486839D01*
X154768830Y-100516914D01*
X154738581Y-100541584D01*
X154704117Y-100559909D01*
X154666750Y-100571191D01*
X154627903Y-100575000D01*
X153822054Y-100575000D01*
X153821326Y-100574995D01*
X153821324Y-100574995D01*
X153819305Y-100574981D01*
X153780515Y-100570630D01*
X153743309Y-100558827D01*
X153709104Y-100540023D01*
X153679202Y-100514933D01*
X153654744Y-100484513D01*
X153636660Y-100449921D01*
X153625640Y-100412476D01*
X153625637Y-100412442D01*
X153625633Y-100412429D01*
X153622099Y-100373606D01*
X153626174Y-100334833D01*
X153626178Y-100334819D01*
X153626182Y-100334784D01*
X153637724Y-100297497D01*
X153656289Y-100263161D01*
X153681170Y-100233086D01*
X153711419Y-100208416D01*
X153745883Y-100190091D01*
X153783250Y-100178809D01*
X153822097Y-100175000D01*
X153824297Y-100175000D01*
X153826734Y-100174761D01*
X153840404Y-100171432D01*
X153852605Y-100164426D01*
X153862372Y-100154298D01*
X153868930Y-100141851D01*
X153871761Y-100128069D01*
X153870640Y-100114044D01*
X153865656Y-100100887D01*
X153857204Y-100089639D01*
X153845953Y-100081190D01*
X153832794Y-100076211D01*
X153822199Y-100075001D01*
X153821326Y-100074995D01*
X153821324Y-100074995D01*
X153819305Y-100074981D01*
X153780515Y-100070630D01*
X153743309Y-100058827D01*
X153709104Y-100040023D01*
X153679202Y-100014933D01*
X153654744Y-99984513D01*
X153636660Y-99949921D01*
X153625640Y-99912476D01*
X153625637Y-99912442D01*
X153625633Y-99912429D01*
X153622099Y-99873606D01*
X153626174Y-99834833D01*
X153626178Y-99834819D01*
X153626182Y-99834784D01*
X153637724Y-99797497D01*
X153656289Y-99763161D01*
X153681170Y-99733086D01*
X153711419Y-99708416D01*
X153745883Y-99690091D01*
X153783250Y-99678809D01*
X153822097Y-99675000D01*
X153824297Y-99675000D01*
X153826734Y-99674761D01*
X153840404Y-99671432D01*
X153852605Y-99664426D01*
X153862372Y-99654298D01*
X153868930Y-99641851D01*
X153871761Y-99628069D01*
X153870640Y-99614044D01*
X153865656Y-99600887D01*
X153857204Y-99589639D01*
X153845953Y-99581190D01*
X153832794Y-99576211D01*
X153822199Y-99575001D01*
X153821326Y-99574995D01*
X153821324Y-99574995D01*
X153819305Y-99574981D01*
X153780515Y-99570630D01*
X153743309Y-99558827D01*
X153709104Y-99540023D01*
X153679202Y-99514933D01*
X153654744Y-99484513D01*
X153636660Y-99449921D01*
X153625640Y-99412476D01*
X153625637Y-99412442D01*
X153625633Y-99412429D01*
X153622099Y-99373606D01*
X153626174Y-99334833D01*
X153626178Y-99334819D01*
X153626182Y-99334784D01*
X153637724Y-99297497D01*
X153656289Y-99263161D01*
X153681170Y-99233086D01*
X153711419Y-99208416D01*
X153745883Y-99190091D01*
X153783250Y-99178809D01*
X153822097Y-99175000D01*
X153824297Y-99175000D01*
X153826734Y-99174761D01*
X153840404Y-99171432D01*
X153852605Y-99164426D01*
X153862372Y-99154298D01*
X153868930Y-99141851D01*
X153871761Y-99128069D01*
X153870640Y-99114044D01*
X153865656Y-99100887D01*
X153857204Y-99089639D01*
X153845953Y-99081190D01*
X153832794Y-99076211D01*
X153822199Y-99075001D01*
X153821326Y-99074995D01*
X153821324Y-99074995D01*
X153819305Y-99074981D01*
X153780515Y-99070630D01*
X153743309Y-99058827D01*
X153709104Y-99040023D01*
X153679202Y-99014933D01*
X153654744Y-98984513D01*
X153636660Y-98949921D01*
X153625640Y-98912476D01*
X153625637Y-98912442D01*
X153625633Y-98912429D01*
X153622099Y-98873606D01*
X153626174Y-98834833D01*
X153626178Y-98834819D01*
X153626182Y-98834784D01*
X153637724Y-98797497D01*
X153656289Y-98763161D01*
X153681170Y-98733086D01*
X153711419Y-98708416D01*
X153745883Y-98690091D01*
X153783250Y-98678809D01*
X153822097Y-98675000D01*
X153824297Y-98675000D01*
X153826734Y-98674761D01*
X153840404Y-98671432D01*
X153852605Y-98664426D01*
X153862372Y-98654298D01*
X153868930Y-98641851D01*
X153871761Y-98628069D01*
X153870640Y-98614044D01*
X153865656Y-98600887D01*
X153857204Y-98589639D01*
X153845953Y-98581190D01*
X153832794Y-98576211D01*
X153822199Y-98575001D01*
X153821326Y-98574995D01*
X153821324Y-98574995D01*
X153819305Y-98574981D01*
X153780515Y-98570630D01*
X153743309Y-98558827D01*
X153709104Y-98540023D01*
X153679202Y-98514933D01*
X153654744Y-98484513D01*
X153636660Y-98449921D01*
X153625640Y-98412476D01*
X153625637Y-98412442D01*
X153625633Y-98412429D01*
X153622099Y-98373606D01*
X153626174Y-98334833D01*
X153626178Y-98334819D01*
X153626182Y-98334784D01*
X153637724Y-98297497D01*
X153656289Y-98263161D01*
X153681170Y-98233086D01*
X153711419Y-98208416D01*
X153745883Y-98190091D01*
X153783250Y-98178809D01*
X153822097Y-98175000D01*
X153824297Y-98175000D01*
X153826734Y-98174761D01*
X153840404Y-98171432D01*
X153852605Y-98164426D01*
X153862372Y-98154298D01*
X153868930Y-98141851D01*
X153871761Y-98128069D01*
X153870640Y-98114044D01*
X153865656Y-98100887D01*
X153857204Y-98089639D01*
X153845953Y-98081190D01*
X153832794Y-98076211D01*
X153822199Y-98075001D01*
X153821326Y-98074995D01*
X153821324Y-98074995D01*
X153819305Y-98074981D01*
X153780515Y-98070630D01*
X153743309Y-98058827D01*
X153709104Y-98040023D01*
X153679202Y-98014933D01*
X153654744Y-97984513D01*
X153636660Y-97949921D01*
X153625640Y-97912476D01*
X153625637Y-97912442D01*
X153625633Y-97912429D01*
X153622099Y-97873606D01*
X153626174Y-97834833D01*
X153626178Y-97834819D01*
X153626182Y-97834784D01*
X153637724Y-97797497D01*
X153656289Y-97763161D01*
X153681170Y-97733086D01*
X153711419Y-97708416D01*
X153745883Y-97690091D01*
X153783250Y-97678809D01*
X153822097Y-97675000D01*
X153824297Y-97675000D01*
X153826734Y-97674761D01*
X153840404Y-97671432D01*
X153852605Y-97664426D01*
X153862372Y-97654298D01*
X153868930Y-97641851D01*
X153871761Y-97628069D01*
X153870640Y-97614044D01*
X153865656Y-97600887D01*
X153857204Y-97589639D01*
X153845953Y-97581190D01*
X153832794Y-97576211D01*
X153822199Y-97575001D01*
X153821326Y-97574995D01*
X153821324Y-97574995D01*
X153819305Y-97574981D01*
X153780515Y-97570630D01*
X153743309Y-97558827D01*
X153709104Y-97540023D01*
X153679202Y-97514933D01*
X153654744Y-97484513D01*
X153636660Y-97449921D01*
X153625640Y-97412476D01*
X153625637Y-97412442D01*
X153625633Y-97412429D01*
X153622099Y-97373606D01*
X153626174Y-97334833D01*
X153626178Y-97334819D01*
X153626182Y-97334784D01*
X153637724Y-97297497D01*
X153656289Y-97263161D01*
X153681170Y-97233086D01*
X153711419Y-97208416D01*
X153745883Y-97190091D01*
X153783250Y-97178809D01*
X153822097Y-97175000D01*
X153824297Y-97175000D01*
X153826734Y-97174761D01*
X153840404Y-97171432D01*
X153852605Y-97164426D01*
X153862372Y-97154298D01*
X153868930Y-97141851D01*
X153871761Y-97128069D01*
X153870640Y-97114044D01*
X153865656Y-97100887D01*
X153857204Y-97089639D01*
X153845953Y-97081190D01*
X153832794Y-97076211D01*
X153822199Y-97075001D01*
X153821326Y-97074995D01*
X153821324Y-97074995D01*
X153819305Y-97074981D01*
X153780515Y-97070630D01*
X153743309Y-97058827D01*
X153709104Y-97040023D01*
X153679202Y-97014933D01*
X153654744Y-96984513D01*
X153636660Y-96949921D01*
X153625640Y-96912476D01*
X153625637Y-96912442D01*
X153625633Y-96912429D01*
X153622099Y-96873606D01*
X153626174Y-96834833D01*
X153626178Y-96834819D01*
X153626182Y-96834784D01*
X153637724Y-96797497D01*
X153656289Y-96763161D01*
X153681170Y-96733086D01*
X153711419Y-96708416D01*
X153745883Y-96690091D01*
X153783250Y-96678809D01*
X153822097Y-96675000D01*
X153824297Y-96675000D01*
X153826734Y-96674761D01*
X153840404Y-96671432D01*
X153852605Y-96664426D01*
X153862372Y-96654298D01*
X153868930Y-96641851D01*
X153871761Y-96628069D01*
X153870640Y-96614044D01*
X153865656Y-96600887D01*
X153857204Y-96589639D01*
X153845953Y-96581190D01*
X153832794Y-96576211D01*
X153822199Y-96575001D01*
X153821326Y-96574995D01*
X153821324Y-96574995D01*
X153819305Y-96574981D01*
X153780515Y-96570630D01*
X153743309Y-96558827D01*
X153709104Y-96540023D01*
X153679202Y-96514933D01*
X153654744Y-96484513D01*
X153636660Y-96449921D01*
X153625640Y-96412476D01*
X153625637Y-96412442D01*
X153625633Y-96412429D01*
X153622099Y-96373606D01*
X153626174Y-96334833D01*
X153626178Y-96334819D01*
X153626182Y-96334784D01*
X153637724Y-96297497D01*
X153656289Y-96263161D01*
X153681170Y-96233086D01*
X153711419Y-96208416D01*
X153745883Y-96190091D01*
X153783250Y-96178809D01*
X153822097Y-96175000D01*
X153824297Y-96175000D01*
X153826734Y-96174761D01*
X153840404Y-96171432D01*
X153852605Y-96164426D01*
X153862372Y-96154298D01*
X153868930Y-96141851D01*
X153871761Y-96128069D01*
X153870640Y-96114044D01*
X153865656Y-96100887D01*
X153857204Y-96089639D01*
X153845953Y-96081190D01*
X153832794Y-96076211D01*
X153822199Y-96075001D01*
X153821326Y-96074995D01*
X153821324Y-96074995D01*
X153819305Y-96074981D01*
X153780515Y-96070630D01*
X153743309Y-96058827D01*
X153709104Y-96040023D01*
X153679202Y-96014933D01*
X153654744Y-95984513D01*
X153636660Y-95949921D01*
X153625640Y-95912476D01*
X153625637Y-95912442D01*
X153625633Y-95912429D01*
X153622099Y-95873606D01*
X153626174Y-95834833D01*
X153626178Y-95834819D01*
X153626182Y-95834784D01*
X153637724Y-95797497D01*
X153656289Y-95763161D01*
X153681170Y-95733086D01*
X153711419Y-95708416D01*
X153745883Y-95690091D01*
X153783250Y-95678809D01*
X153822097Y-95675000D01*
X153824297Y-95675000D01*
X153826734Y-95674761D01*
X153840404Y-95671432D01*
X153852605Y-95664426D01*
X153862372Y-95654298D01*
X153868930Y-95641851D01*
X153871761Y-95628069D01*
X153870640Y-95614044D01*
X153865656Y-95600887D01*
X153857204Y-95589639D01*
X153845953Y-95581190D01*
X153832794Y-95576211D01*
X153822199Y-95575001D01*
X153821326Y-95574995D01*
X153821324Y-95574995D01*
X153819305Y-95574981D01*
X153780515Y-95570630D01*
X153743309Y-95558827D01*
X153709104Y-95540023D01*
X153679202Y-95514933D01*
X153654744Y-95484513D01*
X153636660Y-95449921D01*
X153625640Y-95412476D01*
X153625637Y-95412442D01*
X153625633Y-95412429D01*
X153622099Y-95373606D01*
X153626174Y-95334833D01*
X153626178Y-95334819D01*
X153626182Y-95334784D01*
X153637724Y-95297497D01*
X153656289Y-95263161D01*
X153681170Y-95233086D01*
X153711419Y-95208416D01*
X153745883Y-95190091D01*
X153783250Y-95178809D01*
X153822097Y-95175000D01*
X153824297Y-95175000D01*
X153826734Y-95174761D01*
X153840404Y-95171432D01*
X153852605Y-95164426D01*
X153862372Y-95154298D01*
X153868930Y-95141851D01*
X153871761Y-95128069D01*
X153870640Y-95114044D01*
X153865656Y-95100887D01*
X153857204Y-95089639D01*
X153845953Y-95081190D01*
X153832794Y-95076211D01*
X153822199Y-95075001D01*
X153821326Y-95074995D01*
X153821324Y-95074995D01*
X153819305Y-95074981D01*
X153780515Y-95070630D01*
X153743309Y-95058827D01*
X153709104Y-95040023D01*
X153679202Y-95014933D01*
X153654744Y-94984513D01*
X153636660Y-94949921D01*
X153625640Y-94912476D01*
X153625637Y-94912442D01*
X153625633Y-94912429D01*
X153622099Y-94873606D01*
X153626174Y-94834833D01*
X153626178Y-94834819D01*
X153626182Y-94834784D01*
X153637724Y-94797497D01*
X153656289Y-94763161D01*
X153681170Y-94733086D01*
X153711419Y-94708416D01*
X153745883Y-94690091D01*
X153783250Y-94678809D01*
X153822097Y-94675000D01*
X154627946Y-94675000D01*
X154628674Y-94675005D01*
X154628674Y-94675005D01*
G37*
G36*
X149955000Y-100475000D02*
X148905000Y-100475000D01*
X148905000Y-99325000D01*
X149955000Y-99325000D01*
X149955000Y-100475000D01*
X149955000Y-100475000D01*
G37*
G36*
X148295000Y-100475000D02*
X147245000Y-100475000D01*
X147245000Y-99325000D01*
X148295000Y-99325000D01*
X148295000Y-100475000D01*
X148295000Y-100475000D01*
G37*
G36*
X163275000Y-99795000D02*
X162125000Y-99795000D01*
X162125000Y-98745000D01*
X163275000Y-98745000D01*
X163275000Y-99795000D01*
X163275000Y-99795000D01*
G37*
G36*
X167875000Y-99580000D02*
X167125000Y-99580000D01*
X167125000Y-98630000D01*
X167875000Y-98630000D01*
X167875000Y-99580000D01*
X167875000Y-99580000D01*
G37*
G36*
X159225000Y-99100000D02*
X156275000Y-99100000D01*
X156275000Y-96150000D01*
X159225000Y-96150000D01*
X159225000Y-99100000D01*
X159225000Y-99100000D01*
G37*
G36*
X175375000Y-94240000D02*
X175376980Y-94253930D01*
X175382761Y-94266756D01*
X175391888Y-94277464D01*
X175403636Y-94285206D01*
X175417076Y-94289368D01*
X175425000Y-94290000D01*
X178450000Y-94290000D01*
X178450000Y-98640000D01*
X175425000Y-98640000D01*
X175411070Y-98641980D01*
X175398244Y-98647761D01*
X175387536Y-98656888D01*
X175379794Y-98668636D01*
X175375632Y-98682076D01*
X175375000Y-98690000D01*
X175375000Y-98890000D01*
X173675000Y-98890000D01*
X173675000Y-94040000D01*
X175375000Y-94040000D01*
X175375000Y-94240000D01*
X175375000Y-94240000D01*
G37*
G36*
X180650000Y-98795000D02*
X179350000Y-98795000D01*
X179350000Y-97945000D01*
X180650000Y-97945000D01*
X180650000Y-98795000D01*
X180650000Y-98795000D01*
G37*
G36*
X147035000Y-97785000D02*
X146165000Y-97785000D01*
X146165000Y-96915000D01*
X147035000Y-96915000D01*
X147035000Y-97785000D01*
X147035000Y-97785000D01*
G37*
G36*
X180650000Y-97525000D02*
X179350000Y-97525000D01*
X179350000Y-96675000D01*
X180650000Y-96675000D01*
X180650000Y-97525000D01*
X180650000Y-97525000D01*
G37*
G36*
X166055000Y-97500000D02*
X165005000Y-97500000D01*
X165005000Y-96350000D01*
X166055000Y-96350000D01*
X166055000Y-97500000D01*
X166055000Y-97500000D01*
G37*
G36*
X164395000Y-97500000D02*
X163345000Y-97500000D01*
X163345000Y-96350000D01*
X164395000Y-96350000D01*
X164395000Y-97500000D01*
X164395000Y-97500000D01*
G37*
G36*
X150575000Y-97475000D02*
X147725000Y-97475000D01*
X147725000Y-95825000D01*
X150575000Y-95825000D01*
X150575000Y-97475000D01*
X150575000Y-97475000D01*
G37*
G36*
X167875000Y-97180000D02*
X167125000Y-97180000D01*
X167125000Y-96230000D01*
X167875000Y-96230000D01*
X167875000Y-97180000D01*
X167875000Y-97180000D01*
G37*
G36*
X152055000Y-97135000D02*
X151265000Y-97135000D01*
X151265000Y-96265000D01*
X152055000Y-96265000D01*
X152055000Y-97135000D01*
X152055000Y-97135000D01*
G37*
G36*
X153135000Y-97135000D02*
X152345000Y-97135000D01*
X152345000Y-96265000D01*
X153135000Y-96265000D01*
X153135000Y-97135000D01*
X153135000Y-97135000D01*
G37*
G36*
X147035000Y-96785000D02*
X146165000Y-96785000D01*
X146165000Y-95915000D01*
X147035000Y-95915000D01*
X147035000Y-96785000D01*
X147035000Y-96785000D01*
G37*
G36*
X180650000Y-96255000D02*
X179350000Y-96255000D01*
X179350000Y-95405000D01*
X180650000Y-95405000D01*
X180650000Y-96255000D01*
X180650000Y-96255000D01*
G37*
G36*
X167890000Y-95875000D02*
X167090000Y-95875000D01*
X167090000Y-94735000D01*
X167890000Y-94735000D01*
X167890000Y-95875000D01*
X167890000Y-95875000D01*
G37*
G36*
X169310000Y-95875000D02*
X168510000Y-95875000D01*
X168510000Y-94735000D01*
X169310000Y-94735000D01*
X169310000Y-95875000D01*
X169310000Y-95875000D01*
G37*
G36*
X150575000Y-95575000D02*
X147725000Y-95575000D01*
X147725000Y-93925000D01*
X150575000Y-93925000D01*
X150575000Y-95575000D01*
X150575000Y-95575000D01*
G37*
G36*
X147035000Y-95485000D02*
X146165000Y-95485000D01*
X146165000Y-94615000D01*
X147035000Y-94615000D01*
X147035000Y-95485000D01*
X147035000Y-95485000D01*
G37*
G36*
X180650000Y-94985000D02*
X179350000Y-94985000D01*
X179350000Y-94135000D01*
X180650000Y-94135000D01*
X180650000Y-94985000D01*
X180650000Y-94985000D01*
G37*
G36*
X160540167Y-93501174D02*
X160540181Y-93501178D01*
X160540216Y-93501182D01*
X160577503Y-93512724D01*
X160611839Y-93531289D01*
X160641914Y-93556170D01*
X160666584Y-93586419D01*
X160684909Y-93620883D01*
X160696191Y-93658250D01*
X160700000Y-93697097D01*
X160700000Y-94502903D01*
X160699981Y-94505695D01*
X160695630Y-94544485D01*
X160683827Y-94581691D01*
X160665023Y-94615896D01*
X160639933Y-94645798D01*
X160609513Y-94670256D01*
X160574921Y-94688340D01*
X160537476Y-94699360D01*
X160537442Y-94699363D01*
X160537429Y-94699367D01*
X160498606Y-94702901D01*
X160459833Y-94698826D01*
X160459819Y-94698822D01*
X160459784Y-94698818D01*
X160422497Y-94687276D01*
X160388161Y-94668711D01*
X160358086Y-94643830D01*
X160333416Y-94613581D01*
X160315091Y-94579117D01*
X160303809Y-94541750D01*
X160300000Y-94502903D01*
X160300000Y-94500703D01*
X160299761Y-94498266D01*
X160296432Y-94484596D01*
X160289426Y-94472395D01*
X160279298Y-94462628D01*
X160266851Y-94456070D01*
X160253069Y-94453239D01*
X160239044Y-94454360D01*
X160225887Y-94459344D01*
X160214639Y-94467796D01*
X160206190Y-94479047D01*
X160201211Y-94492206D01*
X160200001Y-94502801D01*
X160200000Y-94502903D01*
X160199981Y-94505695D01*
X160195630Y-94544485D01*
X160183827Y-94581691D01*
X160165023Y-94615896D01*
X160139933Y-94645798D01*
X160109513Y-94670256D01*
X160074921Y-94688340D01*
X160037476Y-94699360D01*
X160037442Y-94699363D01*
X160037429Y-94699367D01*
X159998606Y-94702901D01*
X159959833Y-94698826D01*
X159959819Y-94698822D01*
X159959784Y-94698818D01*
X159922497Y-94687276D01*
X159888161Y-94668711D01*
X159858086Y-94643830D01*
X159833416Y-94613581D01*
X159815091Y-94579117D01*
X159803809Y-94541750D01*
X159800000Y-94502903D01*
X159800000Y-94500703D01*
X159799761Y-94498266D01*
X159796432Y-94484596D01*
X159789426Y-94472395D01*
X159779298Y-94462628D01*
X159766851Y-94456070D01*
X159753069Y-94453239D01*
X159739044Y-94454360D01*
X159725887Y-94459344D01*
X159714639Y-94467796D01*
X159706190Y-94479047D01*
X159701211Y-94492206D01*
X159700001Y-94502801D01*
X159700000Y-94502903D01*
X159699981Y-94505695D01*
X159695630Y-94544485D01*
X159683827Y-94581691D01*
X159665023Y-94615896D01*
X159639933Y-94645798D01*
X159609513Y-94670256D01*
X159574921Y-94688340D01*
X159537476Y-94699360D01*
X159537442Y-94699363D01*
X159537429Y-94699367D01*
X159498606Y-94702901D01*
X159459833Y-94698826D01*
X159459819Y-94698822D01*
X159459784Y-94698818D01*
X159422497Y-94687276D01*
X159388161Y-94668711D01*
X159358086Y-94643830D01*
X159333416Y-94613581D01*
X159315091Y-94579117D01*
X159303809Y-94541750D01*
X159300000Y-94502903D01*
X159300000Y-94500703D01*
X159299761Y-94498266D01*
X159296432Y-94484596D01*
X159289426Y-94472395D01*
X159279298Y-94462628D01*
X159266851Y-94456070D01*
X159253069Y-94453239D01*
X159239044Y-94454360D01*
X159225887Y-94459344D01*
X159214639Y-94467796D01*
X159206190Y-94479047D01*
X159201211Y-94492206D01*
X159200001Y-94502801D01*
X159200000Y-94502903D01*
X159199981Y-94505695D01*
X159195630Y-94544485D01*
X159183827Y-94581691D01*
X159165023Y-94615896D01*
X159139933Y-94645798D01*
X159109513Y-94670256D01*
X159074921Y-94688340D01*
X159037476Y-94699360D01*
X159037442Y-94699363D01*
X159037429Y-94699367D01*
X158998606Y-94702901D01*
X158959833Y-94698826D01*
X158959819Y-94698822D01*
X158959784Y-94698818D01*
X158922497Y-94687276D01*
X158888161Y-94668711D01*
X158858086Y-94643830D01*
X158833416Y-94613581D01*
X158815091Y-94579117D01*
X158803809Y-94541750D01*
X158800000Y-94502903D01*
X158800000Y-94500703D01*
X158799761Y-94498266D01*
X158796432Y-94484596D01*
X158789426Y-94472395D01*
X158779298Y-94462628D01*
X158766851Y-94456070D01*
X158753069Y-94453239D01*
X158739044Y-94454360D01*
X158725887Y-94459344D01*
X158714639Y-94467796D01*
X158706190Y-94479047D01*
X158701211Y-94492206D01*
X158700001Y-94502801D01*
X158700000Y-94502903D01*
X158699981Y-94505695D01*
X158695630Y-94544485D01*
X158683827Y-94581691D01*
X158665023Y-94615896D01*
X158639933Y-94645798D01*
X158609513Y-94670256D01*
X158574921Y-94688340D01*
X158537476Y-94699360D01*
X158537442Y-94699363D01*
X158537429Y-94699367D01*
X158498606Y-94702901D01*
X158459833Y-94698826D01*
X158459819Y-94698822D01*
X158459784Y-94698818D01*
X158422497Y-94687276D01*
X158388161Y-94668711D01*
X158358086Y-94643830D01*
X158333416Y-94613581D01*
X158315091Y-94579117D01*
X158303809Y-94541750D01*
X158300000Y-94502903D01*
X158300000Y-94500703D01*
X158299761Y-94498266D01*
X158296432Y-94484596D01*
X158289426Y-94472395D01*
X158279298Y-94462628D01*
X158266851Y-94456070D01*
X158253069Y-94453239D01*
X158239044Y-94454360D01*
X158225887Y-94459344D01*
X158214639Y-94467796D01*
X158206190Y-94479047D01*
X158201211Y-94492206D01*
X158200001Y-94502801D01*
X158200000Y-94502903D01*
X158199981Y-94505695D01*
X158195630Y-94544485D01*
X158183827Y-94581691D01*
X158165023Y-94615896D01*
X158139933Y-94645798D01*
X158109513Y-94670256D01*
X158074921Y-94688340D01*
X158037476Y-94699360D01*
X158037442Y-94699363D01*
X158037429Y-94699367D01*
X157998606Y-94702901D01*
X157959833Y-94698826D01*
X157959819Y-94698822D01*
X157959784Y-94698818D01*
X157922497Y-94687276D01*
X157888161Y-94668711D01*
X157858086Y-94643830D01*
X157833416Y-94613581D01*
X157815091Y-94579117D01*
X157803809Y-94541750D01*
X157800000Y-94502903D01*
X157800000Y-94500703D01*
X157799761Y-94498266D01*
X157796432Y-94484596D01*
X157789426Y-94472395D01*
X157779298Y-94462628D01*
X157766851Y-94456070D01*
X157753069Y-94453239D01*
X157739044Y-94454360D01*
X157725887Y-94459344D01*
X157714639Y-94467796D01*
X157706190Y-94479047D01*
X157701211Y-94492206D01*
X157700001Y-94502801D01*
X157700000Y-94502903D01*
X157699981Y-94505695D01*
X157695630Y-94544485D01*
X157683827Y-94581691D01*
X157665023Y-94615896D01*
X157639933Y-94645798D01*
X157609513Y-94670256D01*
X157574921Y-94688340D01*
X157537476Y-94699360D01*
X157537442Y-94699363D01*
X157537429Y-94699367D01*
X157498606Y-94702901D01*
X157459833Y-94698826D01*
X157459819Y-94698822D01*
X157459784Y-94698818D01*
X157422497Y-94687276D01*
X157388161Y-94668711D01*
X157358086Y-94643830D01*
X157333416Y-94613581D01*
X157315091Y-94579117D01*
X157303809Y-94541750D01*
X157300000Y-94502903D01*
X157300000Y-94500703D01*
X157299761Y-94498266D01*
X157296432Y-94484596D01*
X157289426Y-94472395D01*
X157279298Y-94462628D01*
X157266851Y-94456070D01*
X157253069Y-94453239D01*
X157239044Y-94454360D01*
X157225887Y-94459344D01*
X157214639Y-94467796D01*
X157206190Y-94479047D01*
X157201211Y-94492206D01*
X157200001Y-94502801D01*
X157200000Y-94502903D01*
X157199981Y-94505695D01*
X157195630Y-94544485D01*
X157183827Y-94581691D01*
X157165023Y-94615896D01*
X157139933Y-94645798D01*
X157109513Y-94670256D01*
X157074921Y-94688340D01*
X157037476Y-94699360D01*
X157037442Y-94699363D01*
X157037429Y-94699367D01*
X156998606Y-94702901D01*
X156959833Y-94698826D01*
X156959819Y-94698822D01*
X156959784Y-94698818D01*
X156922497Y-94687276D01*
X156888161Y-94668711D01*
X156858086Y-94643830D01*
X156833416Y-94613581D01*
X156815091Y-94579117D01*
X156803809Y-94541750D01*
X156800000Y-94502903D01*
X156800000Y-94500703D01*
X156799761Y-94498266D01*
X156796432Y-94484596D01*
X156789426Y-94472395D01*
X156779298Y-94462628D01*
X156766851Y-94456070D01*
X156753069Y-94453239D01*
X156739044Y-94454360D01*
X156725887Y-94459344D01*
X156714639Y-94467796D01*
X156706190Y-94479047D01*
X156701211Y-94492206D01*
X156700001Y-94502801D01*
X156700000Y-94502903D01*
X156699981Y-94505695D01*
X156695630Y-94544485D01*
X156683827Y-94581691D01*
X156665023Y-94615896D01*
X156639933Y-94645798D01*
X156609513Y-94670256D01*
X156574921Y-94688340D01*
X156537476Y-94699360D01*
X156537442Y-94699363D01*
X156537429Y-94699367D01*
X156498606Y-94702901D01*
X156459833Y-94698826D01*
X156459819Y-94698822D01*
X156459784Y-94698818D01*
X156422497Y-94687276D01*
X156388161Y-94668711D01*
X156358086Y-94643830D01*
X156333416Y-94613581D01*
X156315091Y-94579117D01*
X156303809Y-94541750D01*
X156300000Y-94502903D01*
X156300000Y-94500703D01*
X156299761Y-94498266D01*
X156296432Y-94484596D01*
X156289426Y-94472395D01*
X156279298Y-94462628D01*
X156266851Y-94456070D01*
X156253069Y-94453239D01*
X156239044Y-94454360D01*
X156225887Y-94459344D01*
X156214639Y-94467796D01*
X156206190Y-94479047D01*
X156201211Y-94492206D01*
X156200001Y-94502801D01*
X156200000Y-94502903D01*
X156199981Y-94505695D01*
X156195630Y-94544485D01*
X156183827Y-94581691D01*
X156165023Y-94615896D01*
X156139933Y-94645798D01*
X156109513Y-94670256D01*
X156074921Y-94688340D01*
X156037476Y-94699360D01*
X156037442Y-94699363D01*
X156037429Y-94699367D01*
X155998606Y-94702901D01*
X155959833Y-94698826D01*
X155959819Y-94698822D01*
X155959784Y-94698818D01*
X155922497Y-94687276D01*
X155888161Y-94668711D01*
X155858086Y-94643830D01*
X155833416Y-94613581D01*
X155815091Y-94579117D01*
X155803809Y-94541750D01*
X155800000Y-94502903D01*
X155800000Y-94500703D01*
X155799761Y-94498266D01*
X155796432Y-94484596D01*
X155789426Y-94472395D01*
X155779298Y-94462628D01*
X155766851Y-94456070D01*
X155753069Y-94453239D01*
X155739044Y-94454360D01*
X155725887Y-94459344D01*
X155714639Y-94467796D01*
X155706190Y-94479047D01*
X155701211Y-94492206D01*
X155700001Y-94502801D01*
X155700000Y-94502903D01*
X155699981Y-94505695D01*
X155695630Y-94544485D01*
X155683827Y-94581691D01*
X155665023Y-94615896D01*
X155639933Y-94645798D01*
X155609513Y-94670256D01*
X155574921Y-94688340D01*
X155537476Y-94699360D01*
X155537442Y-94699363D01*
X155537429Y-94699367D01*
X155498606Y-94702901D01*
X155459833Y-94698826D01*
X155459819Y-94698822D01*
X155459784Y-94698818D01*
X155422497Y-94687276D01*
X155388161Y-94668711D01*
X155358086Y-94643830D01*
X155333416Y-94613581D01*
X155315091Y-94579117D01*
X155303809Y-94541750D01*
X155300000Y-94502903D01*
X155300000Y-94500703D01*
X155299761Y-94498266D01*
X155296432Y-94484596D01*
X155289426Y-94472395D01*
X155279298Y-94462628D01*
X155266851Y-94456070D01*
X155253069Y-94453239D01*
X155239044Y-94454360D01*
X155225887Y-94459344D01*
X155214639Y-94467796D01*
X155206190Y-94479047D01*
X155201211Y-94492206D01*
X155200001Y-94502801D01*
X155200000Y-94502903D01*
X155199981Y-94505695D01*
X155195630Y-94544485D01*
X155183827Y-94581691D01*
X155165023Y-94615896D01*
X155139933Y-94645798D01*
X155109513Y-94670256D01*
X155074921Y-94688340D01*
X155037476Y-94699360D01*
X155037442Y-94699363D01*
X155037429Y-94699367D01*
X154998606Y-94702901D01*
X154959833Y-94698826D01*
X154959819Y-94698822D01*
X154959784Y-94698818D01*
X154922497Y-94687276D01*
X154888161Y-94668711D01*
X154858086Y-94643830D01*
X154833416Y-94613581D01*
X154815091Y-94579117D01*
X154803809Y-94541750D01*
X154800000Y-94502903D01*
X154800000Y-93697097D01*
X154800019Y-93694305D01*
X154804370Y-93655515D01*
X154816173Y-93618309D01*
X154834977Y-93584104D01*
X154860067Y-93554202D01*
X154890487Y-93529744D01*
X154925079Y-93511660D01*
X154962524Y-93500640D01*
X154962558Y-93500637D01*
X154962571Y-93500633D01*
X155001394Y-93497099D01*
X155040167Y-93501174D01*
X155040181Y-93501178D01*
X155040216Y-93501182D01*
X155077503Y-93512724D01*
X155111839Y-93531289D01*
X155141914Y-93556170D01*
X155166584Y-93586419D01*
X155184909Y-93620883D01*
X155196191Y-93658250D01*
X155200000Y-93697097D01*
X155200000Y-93699296D01*
X155200239Y-93701734D01*
X155203568Y-93715404D01*
X155210574Y-93727605D01*
X155220702Y-93737372D01*
X155233149Y-93743930D01*
X155246931Y-93746761D01*
X155260956Y-93745640D01*
X155274113Y-93740656D01*
X155285361Y-93732204D01*
X155293810Y-93720953D01*
X155298789Y-93707794D01*
X155299999Y-93697199D01*
X155300005Y-93696326D01*
X155300005Y-93696324D01*
X155300019Y-93694305D01*
X155304370Y-93655515D01*
X155316173Y-93618309D01*
X155334977Y-93584104D01*
X155360067Y-93554202D01*
X155390487Y-93529744D01*
X155425079Y-93511660D01*
X155462524Y-93500640D01*
X155462558Y-93500637D01*
X155462571Y-93500633D01*
X155501394Y-93497099D01*
X155540167Y-93501174D01*
X155540181Y-93501178D01*
X155540216Y-93501182D01*
X155577503Y-93512724D01*
X155611839Y-93531289D01*
X155641914Y-93556170D01*
X155666584Y-93586419D01*
X155684909Y-93620883D01*
X155696191Y-93658250D01*
X155700000Y-93697097D01*
X155700000Y-93699296D01*
X155700239Y-93701734D01*
X155703568Y-93715404D01*
X155710574Y-93727605D01*
X155720702Y-93737372D01*
X155733149Y-93743930D01*
X155746931Y-93746761D01*
X155760956Y-93745640D01*
X155774113Y-93740656D01*
X155785361Y-93732204D01*
X155793810Y-93720953D01*
X155798789Y-93707794D01*
X155799999Y-93697199D01*
X155800005Y-93696326D01*
X155800005Y-93696324D01*
X155800019Y-93694305D01*
X155804370Y-93655515D01*
X155816173Y-93618309D01*
X155834977Y-93584104D01*
X155860067Y-93554202D01*
X155890487Y-93529744D01*
X155925079Y-93511660D01*
X155962524Y-93500640D01*
X155962558Y-93500637D01*
X155962571Y-93500633D01*
X156001394Y-93497099D01*
X156040167Y-93501174D01*
X156040181Y-93501178D01*
X156040216Y-93501182D01*
X156077503Y-93512724D01*
X156111839Y-93531289D01*
X156141914Y-93556170D01*
X156166584Y-93586419D01*
X156184909Y-93620883D01*
X156196191Y-93658250D01*
X156200000Y-93697097D01*
X156200000Y-93699296D01*
X156200239Y-93701734D01*
X156203568Y-93715404D01*
X156210574Y-93727605D01*
X156220702Y-93737372D01*
X156233149Y-93743930D01*
X156246931Y-93746761D01*
X156260956Y-93745640D01*
X156274113Y-93740656D01*
X156285361Y-93732204D01*
X156293810Y-93720953D01*
X156298789Y-93707794D01*
X156299999Y-93697199D01*
X156300005Y-93696326D01*
X156300005Y-93696324D01*
X156300019Y-93694305D01*
X156304370Y-93655515D01*
X156316173Y-93618309D01*
X156334977Y-93584104D01*
X156360067Y-93554202D01*
X156390487Y-93529744D01*
X156425079Y-93511660D01*
X156462524Y-93500640D01*
X156462558Y-93500637D01*
X156462571Y-93500633D01*
X156501394Y-93497099D01*
X156540167Y-93501174D01*
X156540181Y-93501178D01*
X156540216Y-93501182D01*
X156577503Y-93512724D01*
X156611839Y-93531289D01*
X156641914Y-93556170D01*
X156666584Y-93586419D01*
X156684909Y-93620883D01*
X156696191Y-93658250D01*
X156700000Y-93697097D01*
X156700000Y-93699296D01*
X156700239Y-93701734D01*
X156703568Y-93715404D01*
X156710574Y-93727605D01*
X156720702Y-93737372D01*
X156733149Y-93743930D01*
X156746931Y-93746761D01*
X156760956Y-93745640D01*
X156774113Y-93740656D01*
X156785361Y-93732204D01*
X156793810Y-93720953D01*
X156798789Y-93707794D01*
X156799999Y-93697199D01*
X156800005Y-93696326D01*
X156800005Y-93696324D01*
X156800019Y-93694305D01*
X156804370Y-93655515D01*
X156816173Y-93618309D01*
X156834977Y-93584104D01*
X156860067Y-93554202D01*
X156890487Y-93529744D01*
X156925079Y-93511660D01*
X156962524Y-93500640D01*
X156962558Y-93500637D01*
X156962571Y-93500633D01*
X157001394Y-93497099D01*
X157040167Y-93501174D01*
X157040181Y-93501178D01*
X157040216Y-93501182D01*
X157077503Y-93512724D01*
X157111839Y-93531289D01*
X157141914Y-93556170D01*
X157166584Y-93586419D01*
X157184909Y-93620883D01*
X157196191Y-93658250D01*
X157200000Y-93697097D01*
X157200000Y-93699296D01*
X157200239Y-93701734D01*
X157203568Y-93715404D01*
X157210574Y-93727605D01*
X157220702Y-93737372D01*
X157233149Y-93743930D01*
X157246931Y-93746761D01*
X157260956Y-93745640D01*
X157274113Y-93740656D01*
X157285361Y-93732204D01*
X157293810Y-93720953D01*
X157298789Y-93707794D01*
X157299999Y-93697199D01*
X157300005Y-93696326D01*
X157300005Y-93696324D01*
X157300019Y-93694305D01*
X157304370Y-93655515D01*
X157316173Y-93618309D01*
X157334977Y-93584104D01*
X157360067Y-93554202D01*
X157390487Y-93529744D01*
X157425079Y-93511660D01*
X157462524Y-93500640D01*
X157462558Y-93500637D01*
X157462571Y-93500633D01*
X157501394Y-93497099D01*
X157540167Y-93501174D01*
X157540181Y-93501178D01*
X157540216Y-93501182D01*
X157577503Y-93512724D01*
X157611839Y-93531289D01*
X157641914Y-93556170D01*
X157666584Y-93586419D01*
X157684909Y-93620883D01*
X157696191Y-93658250D01*
X157700000Y-93697097D01*
X157700000Y-93699296D01*
X157700239Y-93701734D01*
X157703568Y-93715404D01*
X157710574Y-93727605D01*
X157720702Y-93737372D01*
X157733149Y-93743930D01*
X157746931Y-93746761D01*
X157760956Y-93745640D01*
X157774113Y-93740656D01*
X157785361Y-93732204D01*
X157793810Y-93720953D01*
X157798789Y-93707794D01*
X157799999Y-93697199D01*
X157800005Y-93696326D01*
X157800005Y-93696324D01*
X157800019Y-93694305D01*
X157804370Y-93655515D01*
X157816173Y-93618309D01*
X157834977Y-93584104D01*
X157860067Y-93554202D01*
X157890487Y-93529744D01*
X157925079Y-93511660D01*
X157962524Y-93500640D01*
X157962558Y-93500637D01*
X157962571Y-93500633D01*
X158001394Y-93497099D01*
X158040167Y-93501174D01*
X158040181Y-93501178D01*
X158040216Y-93501182D01*
X158077503Y-93512724D01*
X158111839Y-93531289D01*
X158141914Y-93556170D01*
X158166584Y-93586419D01*
X158184909Y-93620883D01*
X158196191Y-93658250D01*
X158200000Y-93697097D01*
X158200000Y-93699296D01*
X158200239Y-93701734D01*
X158203568Y-93715404D01*
X158210574Y-93727605D01*
X158220702Y-93737372D01*
X158233149Y-93743930D01*
X158246931Y-93746761D01*
X158260956Y-93745640D01*
X158274113Y-93740656D01*
X158285361Y-93732204D01*
X158293810Y-93720953D01*
X158298789Y-93707794D01*
X158299999Y-93697199D01*
X158300005Y-93696326D01*
X158300005Y-93696324D01*
X158300019Y-93694305D01*
X158304370Y-93655515D01*
X158316173Y-93618309D01*
X158334977Y-93584104D01*
X158360067Y-93554202D01*
X158390487Y-93529744D01*
X158425079Y-93511660D01*
X158462524Y-93500640D01*
X158462558Y-93500637D01*
X158462571Y-93500633D01*
X158501394Y-93497099D01*
X158540167Y-93501174D01*
X158540181Y-93501178D01*
X158540216Y-93501182D01*
X158577503Y-93512724D01*
X158611839Y-93531289D01*
X158641914Y-93556170D01*
X158666584Y-93586419D01*
X158684909Y-93620883D01*
X158696191Y-93658250D01*
X158700000Y-93697097D01*
X158700000Y-93699296D01*
X158700239Y-93701734D01*
X158703568Y-93715404D01*
X158710574Y-93727605D01*
X158720702Y-93737372D01*
X158733149Y-93743930D01*
X158746931Y-93746761D01*
X158760956Y-93745640D01*
X158774113Y-93740656D01*
X158785361Y-93732204D01*
X158793810Y-93720953D01*
X158798789Y-93707794D01*
X158799999Y-93697199D01*
X158800005Y-93696326D01*
X158800005Y-93696324D01*
X158800019Y-93694305D01*
X158804370Y-93655515D01*
X158816173Y-93618309D01*
X158834977Y-93584104D01*
X158860067Y-93554202D01*
X158890487Y-93529744D01*
X158925079Y-93511660D01*
X158962524Y-93500640D01*
X158962558Y-93500637D01*
X158962571Y-93500633D01*
X159001394Y-93497099D01*
X159040167Y-93501174D01*
X159040181Y-93501178D01*
X159040216Y-93501182D01*
X159077503Y-93512724D01*
X159111839Y-93531289D01*
X159141914Y-93556170D01*
X159166584Y-93586419D01*
X159184909Y-93620883D01*
X159196191Y-93658250D01*
X159200000Y-93697097D01*
X159200000Y-93699296D01*
X159200239Y-93701734D01*
X159203568Y-93715404D01*
X159210574Y-93727605D01*
X159220702Y-93737372D01*
X159233149Y-93743930D01*
X159246931Y-93746761D01*
X159260956Y-93745640D01*
X159274113Y-93740656D01*
X159285361Y-93732204D01*
X159293810Y-93720953D01*
X159298789Y-93707794D01*
X159299999Y-93697199D01*
X159300005Y-93696326D01*
X159300005Y-93696324D01*
X159300019Y-93694305D01*
X159304370Y-93655515D01*
X159316173Y-93618309D01*
X159334977Y-93584104D01*
X159360067Y-93554202D01*
X159390487Y-93529744D01*
X159425079Y-93511660D01*
X159462524Y-93500640D01*
X159462558Y-93500637D01*
X159462571Y-93500633D01*
X159501394Y-93497099D01*
X159540167Y-93501174D01*
X159540181Y-93501178D01*
X159540216Y-93501182D01*
X159577503Y-93512724D01*
X159611839Y-93531289D01*
X159641914Y-93556170D01*
X159666584Y-93586419D01*
X159684909Y-93620883D01*
X159696191Y-93658250D01*
X159700000Y-93697097D01*
X159700000Y-93699296D01*
X159700239Y-93701734D01*
X159703568Y-93715404D01*
X159710574Y-93727605D01*
X159720702Y-93737372D01*
X159733149Y-93743930D01*
X159746931Y-93746761D01*
X159760956Y-93745640D01*
X159774113Y-93740656D01*
X159785361Y-93732204D01*
X159793810Y-93720953D01*
X159798789Y-93707794D01*
X159799999Y-93697199D01*
X159800005Y-93696326D01*
X159800005Y-93696324D01*
X159800019Y-93694305D01*
X159804370Y-93655515D01*
X159816173Y-93618309D01*
X159834977Y-93584104D01*
X159860067Y-93554202D01*
X159890487Y-93529744D01*
X159925079Y-93511660D01*
X159962524Y-93500640D01*
X159962558Y-93500637D01*
X159962571Y-93500633D01*
X160001394Y-93497099D01*
X160040167Y-93501174D01*
X160040181Y-93501178D01*
X160040216Y-93501182D01*
X160077503Y-93512724D01*
X160111839Y-93531289D01*
X160141914Y-93556170D01*
X160166584Y-93586419D01*
X160184909Y-93620883D01*
X160196191Y-93658250D01*
X160200000Y-93697097D01*
X160200000Y-93699296D01*
X160200239Y-93701734D01*
X160203568Y-93715404D01*
X160210574Y-93727605D01*
X160220702Y-93737372D01*
X160233149Y-93743930D01*
X160246931Y-93746761D01*
X160260956Y-93745640D01*
X160274113Y-93740656D01*
X160285361Y-93732204D01*
X160293810Y-93720953D01*
X160298789Y-93707794D01*
X160299999Y-93697199D01*
X160300005Y-93696326D01*
X160300005Y-93696324D01*
X160300019Y-93694305D01*
X160304370Y-93655515D01*
X160316173Y-93618309D01*
X160334977Y-93584104D01*
X160360067Y-93554202D01*
X160390487Y-93529744D01*
X160425079Y-93511660D01*
X160462524Y-93500640D01*
X160462558Y-93500637D01*
X160462571Y-93500633D01*
X160501394Y-93497099D01*
X160540167Y-93501174D01*
X160540167Y-93501174D01*
G37*
G36*
X147035000Y-94485000D02*
X146165000Y-94485000D01*
X146165000Y-93615000D01*
X147035000Y-93615000D01*
X147035000Y-94485000D01*
X147035000Y-94485000D01*
G37*
G36*
X169320000Y-94175000D02*
X168520000Y-94175000D01*
X168520000Y-93035000D01*
X169320000Y-93035000D01*
X169320000Y-94175000D01*
X169320000Y-94175000D01*
G37*
G36*
X167900000Y-94175000D02*
X167100000Y-94175000D01*
X167100000Y-93035000D01*
X167900000Y-93035000D01*
X167900000Y-94175000D01*
X167900000Y-94175000D01*
G37*
G36*
X155075000Y-93355000D02*
X153925000Y-93355000D01*
X153925000Y-92305000D01*
X155075000Y-92305000D01*
X155075000Y-93355000D01*
X155075000Y-93355000D01*
G37*
G36*
X178450000Y-92650000D02*
X176950000Y-92650000D01*
X176950000Y-90950000D01*
X178450000Y-90950000D01*
X178450000Y-92650000D01*
X178450000Y-92650000D01*
G37*
G36*
X176450000Y-92650000D02*
X174950000Y-92650000D01*
X174950000Y-90950000D01*
X176450000Y-90950000D01*
X176450000Y-92650000D01*
X176450000Y-92650000D01*
G37*
G36*
X155075000Y-91695000D02*
X153925000Y-91695000D01*
X153925000Y-90645000D01*
X155075000Y-90645000D01*
X155075000Y-91695000D01*
X155075000Y-91695000D01*
G37*
G36*
X175250000Y-85275000D02*
X175251980Y-85288930D01*
X175257761Y-85301756D01*
X175266888Y-85312464D01*
X175278636Y-85320206D01*
X175292076Y-85324368D01*
X175300000Y-85325000D01*
X178325000Y-85325000D01*
X178325000Y-89675000D01*
X175300000Y-89675000D01*
X175286070Y-89676980D01*
X175273244Y-89682761D01*
X175262536Y-89691888D01*
X175254794Y-89703636D01*
X175250632Y-89717076D01*
X175250000Y-89725000D01*
X175250000Y-89925000D01*
X173550000Y-89925000D01*
X173550000Y-85075000D01*
X175250000Y-85075000D01*
X175250000Y-85275000D01*
X175250000Y-85275000D01*
G37*
G36*
X180525000Y-89830000D02*
X179225000Y-89830000D01*
X179225000Y-88980000D01*
X180525000Y-88980000D01*
X180525000Y-89830000D01*
X180525000Y-89830000D01*
G37*
G36*
X180525000Y-88560000D02*
X179225000Y-88560000D01*
X179225000Y-87710000D01*
X180525000Y-87710000D01*
X180525000Y-88560000D01*
X180525000Y-88560000D01*
G37*
G36*
X180525000Y-87290000D02*
X179225000Y-87290000D01*
X179225000Y-86440000D01*
X180525000Y-86440000D01*
X180525000Y-87290000D01*
X180525000Y-87290000D01*
G37*
G36*
X162955000Y-86275000D02*
X161905000Y-86275000D01*
X161905000Y-85125000D01*
X162955000Y-85125000D01*
X162955000Y-86275000D01*
X162955000Y-86275000D01*
G37*
G36*
X161295000Y-86275000D02*
X160245000Y-86275000D01*
X160245000Y-85125000D01*
X161295000Y-85125000D01*
X161295000Y-86275000D01*
X161295000Y-86275000D01*
G37*
G36*
X180525000Y-86020000D02*
X179225000Y-86020000D01*
X179225000Y-85170000D01*
X180525000Y-85170000D01*
X180525000Y-86020000D01*
X180525000Y-86020000D01*
G37*
G36*
X147406653Y-82995548D02*
X147565142Y-83028081D01*
X147714288Y-83090776D01*
X147848423Y-83181251D01*
X147962426Y-83296052D01*
X148051958Y-83430810D01*
X148113612Y-83580392D01*
X148144970Y-83738761D01*
X148144970Y-83738771D01*
X148145036Y-83739105D01*
X148142455Y-83923900D01*
X148142379Y-83924234D01*
X148142379Y-83924246D01*
X148106614Y-84081669D01*
X148040807Y-84229474D01*
X147947546Y-84361681D01*
X147830377Y-84473259D01*
X147693776Y-84559948D01*
X147542933Y-84618456D01*
X147383601Y-84646551D01*
X147221846Y-84643163D01*
X147063823Y-84608419D01*
X146915567Y-84543648D01*
X146782713Y-84451311D01*
X146670321Y-84334926D01*
X146582680Y-84198934D01*
X146523120Y-84048504D01*
X146493913Y-83889365D01*
X146496172Y-83727592D01*
X146529809Y-83569339D01*
X146593547Y-83420629D01*
X146684954Y-83287133D01*
X146800551Y-83173932D01*
X146935930Y-83085342D01*
X147085941Y-83024734D01*
X147244863Y-82994418D01*
X147406653Y-82995548D01*
X147406653Y-82995548D01*
G37*
G36*
X152486653Y-82995548D02*
X152645142Y-83028081D01*
X152794288Y-83090776D01*
X152928423Y-83181251D01*
X153042426Y-83296052D01*
X153131958Y-83430810D01*
X153193612Y-83580392D01*
X153224970Y-83738761D01*
X153224970Y-83738771D01*
X153225036Y-83739105D01*
X153222455Y-83923900D01*
X153222379Y-83924234D01*
X153222379Y-83924246D01*
X153186614Y-84081669D01*
X153120807Y-84229474D01*
X153027546Y-84361681D01*
X152910377Y-84473259D01*
X152773776Y-84559948D01*
X152622933Y-84618456D01*
X152463601Y-84646551D01*
X152301846Y-84643163D01*
X152143823Y-84608419D01*
X151995567Y-84543648D01*
X151862713Y-84451311D01*
X151750321Y-84334926D01*
X151662680Y-84198934D01*
X151603120Y-84048504D01*
X151573913Y-83889365D01*
X151576172Y-83727592D01*
X151609809Y-83569339D01*
X151673547Y-83420629D01*
X151764954Y-83287133D01*
X151880551Y-83173932D01*
X152015930Y-83085342D01*
X152165941Y-83024734D01*
X152324863Y-82994418D01*
X152486653Y-82995548D01*
X152486653Y-82995548D01*
G37*
G36*
X155026653Y-82995548D02*
X155185142Y-83028081D01*
X155334288Y-83090776D01*
X155468423Y-83181251D01*
X155582426Y-83296052D01*
X155671958Y-83430810D01*
X155733612Y-83580392D01*
X155764970Y-83738761D01*
X155764970Y-83738771D01*
X155765036Y-83739105D01*
X155762455Y-83923900D01*
X155762379Y-83924234D01*
X155762379Y-83924246D01*
X155726614Y-84081669D01*
X155660807Y-84229474D01*
X155567546Y-84361681D01*
X155450377Y-84473259D01*
X155313776Y-84559948D01*
X155162933Y-84618456D01*
X155003601Y-84646551D01*
X154841846Y-84643163D01*
X154683823Y-84608419D01*
X154535567Y-84543648D01*
X154402713Y-84451311D01*
X154290321Y-84334926D01*
X154202680Y-84198934D01*
X154143120Y-84048504D01*
X154113913Y-83889365D01*
X154116172Y-83727592D01*
X154149809Y-83569339D01*
X154213547Y-83420629D01*
X154304954Y-83287133D01*
X154420551Y-83173932D01*
X154555930Y-83085342D01*
X154705941Y-83024734D01*
X154864863Y-82994418D01*
X155026653Y-82995548D01*
X155026653Y-82995548D01*
G37*
G36*
X149946653Y-82995548D02*
X150105142Y-83028081D01*
X150254288Y-83090776D01*
X150388423Y-83181251D01*
X150502426Y-83296052D01*
X150591958Y-83430810D01*
X150653612Y-83580392D01*
X150684970Y-83738761D01*
X150684970Y-83738771D01*
X150685036Y-83739105D01*
X150682455Y-83923900D01*
X150682379Y-83924234D01*
X150682379Y-83924246D01*
X150646614Y-84081669D01*
X150580807Y-84229474D01*
X150487546Y-84361681D01*
X150370377Y-84473259D01*
X150233776Y-84559948D01*
X150082933Y-84618456D01*
X149923601Y-84646551D01*
X149761846Y-84643163D01*
X149603823Y-84608419D01*
X149455567Y-84543648D01*
X149322713Y-84451311D01*
X149210321Y-84334926D01*
X149122680Y-84198934D01*
X149063120Y-84048504D01*
X149033913Y-83889365D01*
X149036172Y-83727592D01*
X149069809Y-83569339D01*
X149133547Y-83420629D01*
X149224954Y-83287133D01*
X149340551Y-83173932D01*
X149475930Y-83085342D01*
X149625941Y-83024734D01*
X149784863Y-82994418D01*
X149946653Y-82995548D01*
X149946653Y-82995548D01*
G37*
G36*
X145605000Y-84645000D02*
X143955000Y-84645000D01*
X143955000Y-82995000D01*
X145605000Y-82995000D01*
X145605000Y-84645000D01*
X145605000Y-84645000D01*
G37*
G36*
X182322980Y-78182046D02*
X182913704Y-78303304D01*
X183469621Y-78536990D01*
X183969563Y-78874205D01*
X184394487Y-79302107D01*
X184728204Y-79804389D01*
X184958003Y-80361924D01*
X185075066Y-80953137D01*
X185075066Y-80953147D01*
X185075132Y-80953481D01*
X185065514Y-81642265D01*
X185065438Y-81642599D01*
X185065438Y-81642611D01*
X184931915Y-82230316D01*
X184686636Y-82781221D01*
X184339026Y-83273991D01*
X183902318Y-83689862D01*
X183393159Y-84012983D01*
X182830930Y-84231059D01*
X182237055Y-84335774D01*
X181634148Y-84323146D01*
X181045170Y-84193651D01*
X180492572Y-83952226D01*
X179997387Y-83608063D01*
X179578479Y-83174271D01*
X179251810Y-82667381D01*
X179029816Y-82106689D01*
X178920955Y-81513552D01*
X178929375Y-80910573D01*
X179054753Y-80320715D01*
X179292317Y-79766438D01*
X179633014Y-79268863D01*
X180063870Y-78846936D01*
X180568470Y-78516736D01*
X181127599Y-78290833D01*
X181719953Y-78177835D01*
X182322980Y-78182046D01*
X182322980Y-78182046D01*
G37*
G36*
X138822980Y-78177046D02*
X139413704Y-78298304D01*
X139969621Y-78531990D01*
X140469563Y-78869205D01*
X140894487Y-79297107D01*
X141228204Y-79799389D01*
X141458003Y-80356924D01*
X141575066Y-80948137D01*
X141575066Y-80948147D01*
X141575132Y-80948481D01*
X141565514Y-81637265D01*
X141565438Y-81637599D01*
X141565438Y-81637611D01*
X141431915Y-82225316D01*
X141186636Y-82776221D01*
X140839026Y-83268991D01*
X140402318Y-83684862D01*
X139893159Y-84007983D01*
X139330930Y-84226059D01*
X138737055Y-84330774D01*
X138134148Y-84318146D01*
X137545170Y-84188651D01*
X136992572Y-83947226D01*
X136497387Y-83603063D01*
X136078479Y-83169271D01*
X135751810Y-82662381D01*
X135529816Y-82101689D01*
X135420955Y-81508552D01*
X135429375Y-80905573D01*
X135554753Y-80315715D01*
X135792317Y-79761438D01*
X136133014Y-79263863D01*
X136563870Y-78841936D01*
X137068470Y-78511736D01*
X137627599Y-78285833D01*
X138219953Y-78172835D01*
X138822980Y-78177046D01*
X138822980Y-78177046D01*
G37*
G36*
X162575000Y-84075000D02*
X161825000Y-84075000D01*
X161825000Y-83125000D01*
X162575000Y-83125000D01*
X162575000Y-84075000D01*
X162575000Y-84075000D01*
G37*
G36*
X165610000Y-83970000D02*
X164810000Y-83970000D01*
X164810000Y-82830000D01*
X165610000Y-82830000D01*
X165610000Y-83970000D01*
X165610000Y-83970000D01*
G37*
G36*
X164190000Y-83970000D02*
X163390000Y-83970000D01*
X163390000Y-82830000D01*
X164190000Y-82830000D01*
X164190000Y-83970000D01*
X164190000Y-83970000D01*
G37*
G36*
X177750000Y-83000000D02*
X176250000Y-83000000D01*
X176250000Y-81300000D01*
X177750000Y-81300000D01*
X177750000Y-83000000D01*
X177750000Y-83000000D01*
G37*
G36*
X175750000Y-83000000D02*
X174250000Y-83000000D01*
X174250000Y-81300000D01*
X175750000Y-81300000D01*
X175750000Y-83000000D01*
X175750000Y-83000000D01*
G37*
G36*
X165610000Y-82270000D02*
X164810000Y-82270000D01*
X164810000Y-81130000D01*
X165610000Y-81130000D01*
X165610000Y-82270000D01*
X165610000Y-82270000D01*
G37*
G36*
X164190000Y-82270000D02*
X163390000Y-82270000D01*
X163390000Y-81130000D01*
X164190000Y-81130000D01*
X164190000Y-82270000D01*
X164190000Y-82270000D01*
G37*
G36*
X147406653Y-80455548D02*
X147565142Y-80488081D01*
X147714288Y-80550776D01*
X147848423Y-80641251D01*
X147962426Y-80756052D01*
X148051958Y-80890810D01*
X148113612Y-81040392D01*
X148144970Y-81198761D01*
X148144970Y-81198771D01*
X148145036Y-81199105D01*
X148142455Y-81383900D01*
X148142379Y-81384234D01*
X148142379Y-81384246D01*
X148106614Y-81541669D01*
X148040807Y-81689474D01*
X147947546Y-81821681D01*
X147830377Y-81933259D01*
X147693776Y-82019948D01*
X147542933Y-82078456D01*
X147383601Y-82106551D01*
X147221846Y-82103163D01*
X147063823Y-82068419D01*
X146915567Y-82003648D01*
X146782713Y-81911311D01*
X146670321Y-81794926D01*
X146582680Y-81658934D01*
X146523120Y-81508504D01*
X146493913Y-81349365D01*
X146496172Y-81187592D01*
X146529809Y-81029339D01*
X146593547Y-80880629D01*
X146684954Y-80747133D01*
X146800551Y-80633932D01*
X146935930Y-80545342D01*
X147085941Y-80484734D01*
X147244863Y-80454418D01*
X147406653Y-80455548D01*
X147406653Y-80455548D01*
G37*
G36*
X149946653Y-80455548D02*
X150105142Y-80488081D01*
X150254288Y-80550776D01*
X150388423Y-80641251D01*
X150502426Y-80756052D01*
X150591958Y-80890810D01*
X150653612Y-81040392D01*
X150684970Y-81198761D01*
X150684970Y-81198771D01*
X150685036Y-81199105D01*
X150682455Y-81383900D01*
X150682379Y-81384234D01*
X150682379Y-81384246D01*
X150646614Y-81541669D01*
X150580807Y-81689474D01*
X150487546Y-81821681D01*
X150370377Y-81933259D01*
X150233776Y-82019948D01*
X150082933Y-82078456D01*
X149923601Y-82106551D01*
X149761846Y-82103163D01*
X149603823Y-82068419D01*
X149455567Y-82003648D01*
X149322713Y-81911311D01*
X149210321Y-81794926D01*
X149122680Y-81658934D01*
X149063120Y-81508504D01*
X149033913Y-81349365D01*
X149036172Y-81187592D01*
X149069809Y-81029339D01*
X149133547Y-80880629D01*
X149224954Y-80747133D01*
X149340551Y-80633932D01*
X149475930Y-80545342D01*
X149625941Y-80484734D01*
X149784863Y-80454418D01*
X149946653Y-80455548D01*
X149946653Y-80455548D01*
G37*
G36*
X152486653Y-80455548D02*
X152645142Y-80488081D01*
X152794288Y-80550776D01*
X152928423Y-80641251D01*
X153042426Y-80756052D01*
X153131958Y-80890810D01*
X153193612Y-81040392D01*
X153224970Y-81198761D01*
X153224970Y-81198771D01*
X153225036Y-81199105D01*
X153222455Y-81383900D01*
X153222379Y-81384234D01*
X153222379Y-81384246D01*
X153186614Y-81541669D01*
X153120807Y-81689474D01*
X153027546Y-81821681D01*
X152910377Y-81933259D01*
X152773776Y-82019948D01*
X152622933Y-82078456D01*
X152463601Y-82106551D01*
X152301846Y-82103163D01*
X152143823Y-82068419D01*
X151995567Y-82003648D01*
X151862713Y-81911311D01*
X151750321Y-81794926D01*
X151662680Y-81658934D01*
X151603120Y-81508504D01*
X151573913Y-81349365D01*
X151576172Y-81187592D01*
X151609809Y-81029339D01*
X151673547Y-80880629D01*
X151764954Y-80747133D01*
X151880551Y-80633932D01*
X152015930Y-80545342D01*
X152165941Y-80484734D01*
X152324863Y-80454418D01*
X152486653Y-80455548D01*
X152486653Y-80455548D01*
G37*
G36*
X155026653Y-80455548D02*
X155185142Y-80488081D01*
X155334288Y-80550776D01*
X155468423Y-80641251D01*
X155582426Y-80756052D01*
X155671958Y-80890810D01*
X155733612Y-81040392D01*
X155764970Y-81198761D01*
X155764970Y-81198771D01*
X155765036Y-81199105D01*
X155762455Y-81383900D01*
X155762379Y-81384234D01*
X155762379Y-81384246D01*
X155726614Y-81541669D01*
X155660807Y-81689474D01*
X155567546Y-81821681D01*
X155450377Y-81933259D01*
X155313776Y-82019948D01*
X155162933Y-82078456D01*
X155003601Y-82106551D01*
X154841846Y-82103163D01*
X154683823Y-82068419D01*
X154535567Y-82003648D01*
X154402713Y-81911311D01*
X154290321Y-81794926D01*
X154202680Y-81658934D01*
X154143120Y-81508504D01*
X154113913Y-81349365D01*
X154116172Y-81187592D01*
X154149809Y-81029339D01*
X154213547Y-80880629D01*
X154304954Y-80747133D01*
X154420551Y-80633932D01*
X154555930Y-80545342D01*
X154705941Y-80484734D01*
X154864863Y-80454418D01*
X155026653Y-80455548D01*
X155026653Y-80455548D01*
G37*
G36*
X157566653Y-80455548D02*
X157725142Y-80488081D01*
X157874288Y-80550776D01*
X158008423Y-80641251D01*
X158122426Y-80756052D01*
X158211958Y-80890810D01*
X158273612Y-81040392D01*
X158304970Y-81198761D01*
X158304970Y-81198771D01*
X158305036Y-81199105D01*
X158302455Y-81383900D01*
X158302379Y-81384234D01*
X158302379Y-81384246D01*
X158266614Y-81541669D01*
X158200807Y-81689474D01*
X158107546Y-81821681D01*
X157990377Y-81933259D01*
X157853776Y-82019948D01*
X157702933Y-82078456D01*
X157543601Y-82106551D01*
X157381846Y-82103163D01*
X157223823Y-82068419D01*
X157075567Y-82003648D01*
X156942713Y-81911311D01*
X156830321Y-81794926D01*
X156742680Y-81658934D01*
X156683120Y-81508504D01*
X156653913Y-81349365D01*
X156656172Y-81187592D01*
X156689809Y-81029339D01*
X156753547Y-80880629D01*
X156844954Y-80747133D01*
X156960551Y-80633932D01*
X157095930Y-80545342D01*
X157245941Y-80484734D01*
X157404863Y-80454418D01*
X157566653Y-80455548D01*
X157566653Y-80455548D01*
G37*
G36*
X145605000Y-82105000D02*
X143955000Y-82105000D01*
X143955000Y-80455000D01*
X145605000Y-80455000D01*
X145605000Y-82105000D01*
X145605000Y-82105000D01*
G37*
G36*
X162575000Y-81675000D02*
X161825000Y-81675000D01*
X161825000Y-80725000D01*
X162575000Y-80725000D01*
X162575000Y-81675000D01*
X162575000Y-81675000D01*
G37*
M02*
