%TF.GenerationSoftware,KiCad,Pcbnew,4.0.6-e0-6349~53~ubuntu16.04.1*%
%TF.CreationDate,2017-03-23T00:14:44+02:00*%
%TF.ProjectId,BLDC_controller,424C44435F636F6E74726F6C6C65722E,1.0*%
%TF.FileFunction,Soldermask,Top*%
%FSLAX46Y46*%
G04 Gerber Fmt 4.6, Leading zero omitted, Abs format (unit mm)*
G04 Created by KiCad (PCBNEW 4.0.6-e0-6349~53~ubuntu16.04.1) date Thu Mar 23 00:14:44 2017*
%MOMM*%
%LPD*%
G01*
G04 APERTURE LIST*
%ADD10C,0.100000*%
%ADD11C,1.500000*%
G04 APERTURE END LIST*
D10*
D11*
X34700000Y31300000D02*
X34700000Y2000000D01*
D10*
G36*
X43050000Y150000D02*
X38150000Y150000D01*
X38150000Y2550000D01*
X43050000Y2550000D01*
X43050000Y150000D01*
X43050000Y150000D01*
G37*
G36*
X10246653Y2824453D02*
X10405143Y2791919D01*
X10554290Y2729224D01*
X10688422Y2638751D01*
X10802425Y2523949D01*
X10891957Y2389191D01*
X10953612Y2239606D01*
X10984970Y2081239D01*
X10984970Y2081229D01*
X10985036Y2080895D01*
X10982455Y1896100D01*
X10982379Y1895766D01*
X10982379Y1895757D01*
X10946614Y1738330D01*
X10880804Y1590521D01*
X10787544Y1458316D01*
X10670383Y1346746D01*
X10533776Y1260052D01*
X10382931Y1201543D01*
X10223600Y1173449D01*
X10061845Y1176837D01*
X9903825Y1211580D01*
X9755566Y1276353D01*
X9622713Y1368688D01*
X9510321Y1485073D01*
X9422679Y1621068D01*
X9363119Y1771499D01*
X9333912Y1930631D01*
X9336172Y2092409D01*
X9369809Y2250661D01*
X9433547Y2399373D01*
X9524952Y2532867D01*
X9640549Y2646067D01*
X9775928Y2734657D01*
X9925943Y2795266D01*
X10084864Y2825583D01*
X10246653Y2824453D01*
X10246653Y2824453D01*
G37*
G36*
X12786653Y2824453D02*
X12945143Y2791919D01*
X13094290Y2729224D01*
X13228422Y2638751D01*
X13342425Y2523949D01*
X13431957Y2389191D01*
X13493612Y2239606D01*
X13524970Y2081239D01*
X13524970Y2081229D01*
X13525036Y2080895D01*
X13522455Y1896100D01*
X13522379Y1895766D01*
X13522379Y1895757D01*
X13486614Y1738330D01*
X13420804Y1590521D01*
X13327544Y1458316D01*
X13210383Y1346746D01*
X13073776Y1260052D01*
X12922931Y1201543D01*
X12763600Y1173449D01*
X12601845Y1176837D01*
X12443825Y1211580D01*
X12295566Y1276353D01*
X12162713Y1368688D01*
X12050321Y1485073D01*
X11962679Y1621068D01*
X11903119Y1771499D01*
X11873912Y1930631D01*
X11876172Y2092409D01*
X11909809Y2250661D01*
X11973547Y2399373D01*
X12064952Y2532867D01*
X12180549Y2646067D01*
X12315928Y2734657D01*
X12465943Y2795266D01*
X12624864Y2825583D01*
X12786653Y2824453D01*
X12786653Y2824453D01*
G37*
G36*
X17866653Y2824453D02*
X18025143Y2791919D01*
X18174290Y2729224D01*
X18308422Y2638751D01*
X18422425Y2523949D01*
X18511957Y2389191D01*
X18573612Y2239606D01*
X18604970Y2081239D01*
X18604970Y2081229D01*
X18605036Y2080895D01*
X18602455Y1896100D01*
X18602379Y1895766D01*
X18602379Y1895757D01*
X18566614Y1738330D01*
X18500804Y1590521D01*
X18407544Y1458316D01*
X18290383Y1346746D01*
X18153776Y1260052D01*
X18002931Y1201543D01*
X17843600Y1173449D01*
X17681845Y1176837D01*
X17523825Y1211580D01*
X17375566Y1276353D01*
X17242713Y1368688D01*
X17130321Y1485073D01*
X17042679Y1621068D01*
X16983119Y1771499D01*
X16953912Y1930631D01*
X16956172Y2092409D01*
X16989809Y2250661D01*
X17053547Y2399373D01*
X17144952Y2532867D01*
X17260549Y2646067D01*
X17395928Y2734657D01*
X17545943Y2795266D01*
X17704864Y2825583D01*
X17866653Y2824453D01*
X17866653Y2824453D01*
G37*
G36*
X15326653Y2824453D02*
X15485143Y2791919D01*
X15634290Y2729224D01*
X15768422Y2638751D01*
X15882425Y2523949D01*
X15971957Y2389191D01*
X16033612Y2239606D01*
X16064970Y2081239D01*
X16064970Y2081229D01*
X16065036Y2080895D01*
X16062455Y1896100D01*
X16062379Y1895766D01*
X16062379Y1895757D01*
X16026614Y1738330D01*
X15960804Y1590521D01*
X15867544Y1458316D01*
X15750383Y1346746D01*
X15613776Y1260052D01*
X15462931Y1201543D01*
X15303600Y1173449D01*
X15141845Y1176837D01*
X14983825Y1211580D01*
X14835566Y1276353D01*
X14702713Y1368688D01*
X14590321Y1485073D01*
X14502679Y1621068D01*
X14443119Y1771499D01*
X14413912Y1930631D01*
X14416172Y2092409D01*
X14449809Y2250661D01*
X14513547Y2399373D01*
X14604952Y2532867D01*
X14720549Y2646067D01*
X14855928Y2734657D01*
X15005943Y2795266D01*
X15164864Y2825583D01*
X15326653Y2824453D01*
X15326653Y2824453D01*
G37*
G36*
X8445000Y1175000D02*
X6795000Y1175000D01*
X6795000Y2825000D01*
X8445000Y2825000D01*
X8445000Y1175000D01*
X8445000Y1175000D01*
G37*
G36*
X2649674Y4424053D02*
X2923426Y4367860D01*
X3181045Y4259567D01*
X3412727Y4103296D01*
X3609641Y3905001D01*
X3764290Y3672236D01*
X3870783Y3413866D01*
X3924996Y3140072D01*
X3924996Y3140057D01*
X3925061Y3139728D01*
X3920604Y2820536D01*
X3920528Y2820202D01*
X3920528Y2820193D01*
X3858694Y2548025D01*
X3745025Y2292722D01*
X3583939Y2064367D01*
X3381567Y1871652D01*
X3145612Y1721909D01*
X2885064Y1620849D01*
X2609854Y1572323D01*
X2330459Y1578175D01*
X2057516Y1638186D01*
X1801435Y1750065D01*
X1571960Y1909554D01*
X1377830Y2110581D01*
X1226448Y2345482D01*
X1123572Y2605316D01*
X1073124Y2880181D01*
X1077026Y3159614D01*
X1135128Y3432960D01*
X1245219Y3689824D01*
X1403101Y3920405D01*
X1602768Y4115933D01*
X1836605Y4268952D01*
X2095718Y4373640D01*
X2370222Y4426004D01*
X2649674Y4424053D01*
X2649674Y4424053D01*
G37*
G36*
X46149674Y4424053D02*
X46423426Y4367860D01*
X46681045Y4259567D01*
X46912727Y4103296D01*
X47109641Y3905001D01*
X47264290Y3672236D01*
X47370783Y3413866D01*
X47424996Y3140072D01*
X47424996Y3140057D01*
X47425061Y3139728D01*
X47420604Y2820536D01*
X47420528Y2820202D01*
X47420528Y2820193D01*
X47358694Y2548025D01*
X47245025Y2292722D01*
X47083939Y2064367D01*
X46881567Y1871652D01*
X46645612Y1721909D01*
X46385064Y1620849D01*
X46109854Y1572323D01*
X45830459Y1578175D01*
X45557516Y1638186D01*
X45301435Y1750065D01*
X45071960Y1909554D01*
X44877830Y2110581D01*
X44726448Y2345482D01*
X44623572Y2605316D01*
X44573124Y2880181D01*
X44577026Y3159614D01*
X44635128Y3432960D01*
X44745219Y3689824D01*
X44903101Y3920405D01*
X45102768Y4115933D01*
X45336605Y4268952D01*
X45595718Y4373640D01*
X45870222Y4426004D01*
X46149674Y4424053D01*
X46149674Y4424053D01*
G37*
G36*
X34100000Y2550000D02*
X32600000Y2550000D01*
X32600000Y4250000D01*
X34100000Y4250000D01*
X34100000Y2550000D01*
X34100000Y2550000D01*
G37*
G36*
X32100000Y2550000D02*
X30600000Y2550000D01*
X30600000Y4250000D01*
X32100000Y4250000D01*
X32100000Y2550000D01*
X32100000Y2550000D01*
G37*
G36*
X21790000Y3530000D02*
X20990000Y3530000D01*
X20990000Y4670000D01*
X21790000Y4670000D01*
X21790000Y3530000D01*
X21790000Y3530000D01*
G37*
G36*
X23210000Y3530000D02*
X22410000Y3530000D01*
X22410000Y4670000D01*
X23210000Y4670000D01*
X23210000Y3530000D01*
X23210000Y3530000D01*
G37*
G36*
X19575000Y3725000D02*
X19025000Y3725000D01*
X19025000Y4475000D01*
X19575000Y4475000D01*
X19575000Y3725000D01*
X19575000Y3725000D01*
G37*
G36*
X20475000Y3725000D02*
X19925000Y3725000D01*
X19925000Y4475000D01*
X20475000Y4475000D01*
X20475000Y3725000D01*
X20475000Y3725000D01*
G37*
G36*
X11145000Y3960000D02*
X9355000Y3960000D01*
X9355000Y5510000D01*
X11145000Y5510000D01*
X11145000Y3960000D01*
X11145000Y3960000D01*
G37*
G36*
X26125000Y4820000D02*
X25375000Y4820000D01*
X25375000Y5770000D01*
X26125000Y5770000D01*
X26125000Y4820000D01*
X26125000Y4820000D01*
G37*
G36*
X13275000Y5375000D02*
X12725000Y5375000D01*
X12725000Y6125000D01*
X13275000Y6125000D01*
X13275000Y5375000D01*
X13275000Y5375000D01*
G37*
G36*
X14175000Y5375000D02*
X13625000Y5375000D01*
X13625000Y6125000D01*
X14175000Y6125000D01*
X14175000Y5375000D01*
X14175000Y5375000D01*
G37*
G36*
X29610000Y5425000D02*
X28810000Y5425000D01*
X28810000Y6565000D01*
X29610000Y6565000D01*
X29610000Y5425000D01*
X29610000Y5425000D01*
G37*
G36*
X28190000Y5425000D02*
X27390000Y5425000D01*
X27390000Y6565000D01*
X28190000Y6565000D01*
X28190000Y5425000D01*
X28190000Y5425000D01*
G37*
G36*
X7750000Y6050000D02*
X6250000Y6050000D01*
X6250000Y7750000D01*
X7750000Y7750000D01*
X7750000Y6050000D01*
X7750000Y6050000D01*
G37*
G36*
X5750000Y6050000D02*
X4250000Y6050000D01*
X4250000Y7750000D01*
X5750000Y7750000D01*
X5750000Y6050000D01*
X5750000Y6050000D01*
G37*
G36*
X36905000Y10969950D02*
X36906978Y10956034D01*
X36912754Y10943220D01*
X36921871Y10932523D01*
X36933607Y10924789D01*
X36947034Y10920631D01*
X36954950Y10920000D01*
X39955000Y10920000D01*
X39955000Y6570000D01*
X36954950Y6570000D01*
X36941034Y6568022D01*
X36928220Y6562246D01*
X36917523Y6553129D01*
X36909789Y6541393D01*
X36905631Y6527966D01*
X36905000Y6520050D01*
X36905000Y6320000D01*
X35255000Y6320000D01*
X35255000Y11170000D01*
X36905000Y11170000D01*
X36905000Y10969950D01*
X36905000Y10969950D01*
G37*
G36*
X42225000Y6415000D02*
X40925000Y6415000D01*
X40925000Y7265000D01*
X42225000Y7265000D01*
X42225000Y6415000D01*
X42225000Y6415000D01*
G37*
G36*
X14710000Y6680000D02*
X13910000Y6680000D01*
X13910000Y7820000D01*
X14710000Y7820000D01*
X14710000Y6680000D01*
X14710000Y6680000D01*
G37*
G36*
X13290000Y6680000D02*
X12490000Y6680000D01*
X12490000Y7820000D01*
X13290000Y7820000D01*
X13290000Y6680000D01*
X13290000Y6680000D01*
G37*
G36*
X26125000Y7220000D02*
X25375000Y7220000D01*
X25375000Y8170000D01*
X26125000Y8170000D01*
X26125000Y7220000D01*
X26125000Y7220000D01*
G37*
G36*
X47368164Y9624252D02*
X47584284Y9579889D01*
X47787668Y9494395D01*
X47970571Y9371025D01*
X48126035Y9214472D01*
X48248124Y9030713D01*
X48332197Y8826737D01*
X48374982Y8610656D01*
X48374982Y8610646D01*
X48375048Y8610312D01*
X48371529Y8358318D01*
X48371453Y8357984D01*
X48371453Y8357975D01*
X48322652Y8143176D01*
X48232916Y7941624D01*
X48105741Y7761342D01*
X47945974Y7609199D01*
X47759694Y7490981D01*
X47553997Y7411197D01*
X47336727Y7372887D01*
X47116152Y7377506D01*
X46900672Y7424883D01*
X46698500Y7513210D01*
X46517337Y7639121D01*
X46364076Y7797827D01*
X46244564Y7983275D01*
X46163346Y8188408D01*
X46123519Y8405406D01*
X46126600Y8626011D01*
X46172469Y8841810D01*
X46259383Y9044594D01*
X46384030Y9226639D01*
X46541659Y9381000D01*
X46726266Y9501804D01*
X46930831Y9584453D01*
X47147543Y9625793D01*
X47368164Y9624252D01*
X47368164Y9624252D01*
G37*
G36*
X29610000Y7425000D02*
X28810000Y7425000D01*
X28810000Y8565000D01*
X29610000Y8565000D01*
X29610000Y7425000D01*
X29610000Y7425000D01*
G37*
G36*
X28190000Y7425000D02*
X27390000Y7425000D01*
X27390000Y8565000D01*
X28190000Y8565000D01*
X28190000Y7425000D01*
X28190000Y7425000D01*
G37*
G36*
X42225000Y7685000D02*
X40925000Y7685000D01*
X40925000Y8535000D01*
X42225000Y8535000D01*
X42225000Y7685000D01*
X42225000Y7685000D01*
G37*
G36*
X21140000Y7930000D02*
X20340000Y7930000D01*
X20340000Y9070000D01*
X21140000Y9070000D01*
X21140000Y7930000D01*
X21140000Y7930000D01*
G37*
G36*
X22560000Y7930000D02*
X21760000Y7930000D01*
X21760000Y9070000D01*
X22560000Y9070000D01*
X22560000Y7930000D01*
X22560000Y7930000D01*
G37*
G36*
X11145000Y7990000D02*
X9355000Y7990000D01*
X9355000Y9540000D01*
X11145000Y9540000D01*
X11145000Y7990000D01*
X11145000Y7990000D01*
G37*
G36*
X16210000Y8330000D02*
X15410000Y8330000D01*
X15410000Y9470000D01*
X16210000Y9470000D01*
X16210000Y8330000D01*
X16210000Y8330000D01*
G37*
G36*
X14790000Y8330000D02*
X13990000Y8330000D01*
X13990000Y9470000D01*
X14790000Y9470000D01*
X14790000Y8330000D01*
X14790000Y8330000D01*
G37*
G36*
X6875000Y8825000D02*
X5725000Y8825000D01*
X5725000Y11675000D01*
X6875000Y11675000D01*
X6875000Y8825000D01*
X6875000Y8825000D01*
G37*
G36*
X4675000Y8825000D02*
X3525000Y8825000D01*
X3525000Y11675000D01*
X4675000Y11675000D01*
X4675000Y8825000D01*
X4675000Y8825000D01*
G37*
G36*
X42225000Y8955000D02*
X40925000Y8955000D01*
X40925000Y9805000D01*
X42225000Y9805000D01*
X42225000Y8955000D01*
X42225000Y8955000D01*
G37*
G36*
X21345000Y9525000D02*
X20295000Y9525000D01*
X20295000Y10675000D01*
X21345000Y10675000D01*
X21345000Y9525000D01*
X21345000Y9525000D01*
G37*
G36*
X23005000Y9525000D02*
X21955000Y9525000D01*
X21955000Y10675000D01*
X23005000Y10675000D01*
X23005000Y9525000D01*
X23005000Y9525000D01*
G37*
G36*
X13325000Y9945000D02*
X12175000Y9945000D01*
X12175000Y10995000D01*
X13325000Y10995000D01*
X13325000Y9945000D01*
X13325000Y9945000D01*
G37*
G36*
X42225000Y10225000D02*
X40925000Y10225000D01*
X40925000Y11075000D01*
X42225000Y11075000D01*
X42225000Y10225000D01*
X42225000Y10225000D01*
G37*
G36*
X11250000Y10250000D02*
X9750000Y10250000D01*
X9750000Y11950000D01*
X11250000Y11950000D01*
X11250000Y10250000D01*
X11250000Y10250000D01*
G37*
G36*
X9250000Y10250000D02*
X7750000Y10250000D01*
X7750000Y11950000D01*
X9250000Y11950000D01*
X9250000Y10250000D01*
X9250000Y10250000D01*
G37*
G36*
X17790167Y12448826D02*
X17790181Y12448822D01*
X17790216Y12448818D01*
X17827503Y12437276D01*
X17861839Y12418711D01*
X17891914Y12393830D01*
X17916584Y12363581D01*
X17934909Y12329117D01*
X17946191Y12291750D01*
X17950000Y12252903D01*
X17950000Y11447097D01*
X17949981Y11444305D01*
X17945630Y11405515D01*
X17933827Y11368309D01*
X17915023Y11334104D01*
X17889933Y11304202D01*
X17859513Y11279744D01*
X17824921Y11261660D01*
X17787476Y11250640D01*
X17787446Y11250637D01*
X17787428Y11250632D01*
X17748606Y11247099D01*
X17709833Y11251174D01*
X17709819Y11251178D01*
X17709784Y11251182D01*
X17672497Y11262724D01*
X17638161Y11281289D01*
X17608086Y11306170D01*
X17583416Y11336419D01*
X17565091Y11370883D01*
X17553809Y11408250D01*
X17550000Y11447097D01*
X17550000Y12252903D01*
X17550019Y12255695D01*
X17554370Y12294485D01*
X17566173Y12331691D01*
X17584977Y12365896D01*
X17610067Y12395798D01*
X17640487Y12420256D01*
X17675079Y12438340D01*
X17712524Y12449360D01*
X17712554Y12449363D01*
X17712572Y12449368D01*
X17751394Y12452901D01*
X17790167Y12448826D01*
X17790167Y12448826D01*
G37*
G36*
X20790167Y12448826D02*
X20790181Y12448822D01*
X20790216Y12448818D01*
X20827503Y12437276D01*
X20861839Y12418711D01*
X20891914Y12393830D01*
X20916584Y12363581D01*
X20934909Y12329117D01*
X20946191Y12291750D01*
X20950000Y12252903D01*
X20950000Y11447097D01*
X20949981Y11444305D01*
X20945630Y11405515D01*
X20933827Y11368309D01*
X20915023Y11334104D01*
X20889933Y11304202D01*
X20859513Y11279744D01*
X20824921Y11261660D01*
X20787476Y11250640D01*
X20787446Y11250637D01*
X20787428Y11250632D01*
X20748606Y11247099D01*
X20709833Y11251174D01*
X20709819Y11251178D01*
X20709784Y11251182D01*
X20672497Y11262724D01*
X20638161Y11281289D01*
X20608086Y11306170D01*
X20583416Y11336419D01*
X20565091Y11370883D01*
X20553809Y11408250D01*
X20550000Y11447097D01*
X20550000Y12252903D01*
X20550019Y12255695D01*
X20554370Y12294485D01*
X20566173Y12331691D01*
X20584977Y12365896D01*
X20610067Y12395798D01*
X20640487Y12420256D01*
X20675079Y12438340D01*
X20712524Y12449360D01*
X20712554Y12449363D01*
X20712572Y12449368D01*
X20751394Y12452901D01*
X20790167Y12448826D01*
X20790167Y12448826D01*
G37*
G36*
X19790167Y12448826D02*
X19790181Y12448822D01*
X19790216Y12448818D01*
X19827503Y12437276D01*
X19861839Y12418711D01*
X19891914Y12393830D01*
X19916584Y12363581D01*
X19934909Y12329117D01*
X19946191Y12291750D01*
X19950000Y12252903D01*
X19950000Y11447097D01*
X19949981Y11444305D01*
X19945630Y11405515D01*
X19933827Y11368309D01*
X19915023Y11334104D01*
X19889933Y11304202D01*
X19859513Y11279744D01*
X19824921Y11261660D01*
X19787476Y11250640D01*
X19787446Y11250637D01*
X19787428Y11250632D01*
X19748606Y11247099D01*
X19709833Y11251174D01*
X19709819Y11251178D01*
X19709784Y11251182D01*
X19672497Y11262724D01*
X19638161Y11281289D01*
X19608086Y11306170D01*
X19583416Y11336419D01*
X19565091Y11370883D01*
X19553809Y11408250D01*
X19550000Y11447097D01*
X19550000Y12252903D01*
X19550019Y12255695D01*
X19554370Y12294485D01*
X19566173Y12331691D01*
X19584977Y12365896D01*
X19610067Y12395798D01*
X19640487Y12420256D01*
X19675079Y12438340D01*
X19712524Y12449360D01*
X19712554Y12449363D01*
X19712572Y12449368D01*
X19751394Y12452901D01*
X19790167Y12448826D01*
X19790167Y12448826D01*
G37*
G36*
X19290167Y12448826D02*
X19290181Y12448822D01*
X19290216Y12448818D01*
X19327503Y12437276D01*
X19361839Y12418711D01*
X19391914Y12393830D01*
X19416584Y12363581D01*
X19434909Y12329117D01*
X19446191Y12291750D01*
X19450000Y12252903D01*
X19450000Y11447097D01*
X19449981Y11444305D01*
X19445630Y11405515D01*
X19433827Y11368309D01*
X19415023Y11334104D01*
X19389933Y11304202D01*
X19359513Y11279744D01*
X19324921Y11261660D01*
X19287476Y11250640D01*
X19287446Y11250637D01*
X19287428Y11250632D01*
X19248606Y11247099D01*
X19209833Y11251174D01*
X19209819Y11251178D01*
X19209784Y11251182D01*
X19172497Y11262724D01*
X19138161Y11281289D01*
X19108086Y11306170D01*
X19083416Y11336419D01*
X19065091Y11370883D01*
X19053809Y11408250D01*
X19050000Y11447097D01*
X19050000Y12252903D01*
X19050019Y12255695D01*
X19054370Y12294485D01*
X19066173Y12331691D01*
X19084977Y12365896D01*
X19110067Y12395798D01*
X19140487Y12420256D01*
X19175079Y12438340D01*
X19212524Y12449360D01*
X19212554Y12449363D01*
X19212572Y12449368D01*
X19251394Y12452901D01*
X19290167Y12448826D01*
X19290167Y12448826D01*
G37*
G36*
X18790167Y12448826D02*
X18790181Y12448822D01*
X18790216Y12448818D01*
X18827503Y12437276D01*
X18861839Y12418711D01*
X18891914Y12393830D01*
X18916584Y12363581D01*
X18934909Y12329117D01*
X18946191Y12291750D01*
X18950000Y12252903D01*
X18950000Y11447097D01*
X18949981Y11444305D01*
X18945630Y11405515D01*
X18933827Y11368309D01*
X18915023Y11334104D01*
X18889933Y11304202D01*
X18859513Y11279744D01*
X18824921Y11261660D01*
X18787476Y11250640D01*
X18787446Y11250637D01*
X18787428Y11250632D01*
X18748606Y11247099D01*
X18709833Y11251174D01*
X18709819Y11251178D01*
X18709784Y11251182D01*
X18672497Y11262724D01*
X18638161Y11281289D01*
X18608086Y11306170D01*
X18583416Y11336419D01*
X18565091Y11370883D01*
X18553809Y11408250D01*
X18550000Y11447097D01*
X18550000Y12252903D01*
X18550019Y12255695D01*
X18554370Y12294485D01*
X18566173Y12331691D01*
X18584977Y12365896D01*
X18610067Y12395798D01*
X18640487Y12420256D01*
X18675079Y12438340D01*
X18712524Y12449360D01*
X18712554Y12449363D01*
X18712572Y12449368D01*
X18751394Y12452901D01*
X18790167Y12448826D01*
X18790167Y12448826D01*
G37*
G36*
X18290167Y12448826D02*
X18290181Y12448822D01*
X18290216Y12448818D01*
X18327503Y12437276D01*
X18361839Y12418711D01*
X18391914Y12393830D01*
X18416584Y12363581D01*
X18434909Y12329117D01*
X18446191Y12291750D01*
X18450000Y12252903D01*
X18450000Y11447097D01*
X18449981Y11444305D01*
X18445630Y11405515D01*
X18433827Y11368309D01*
X18415023Y11334104D01*
X18389933Y11304202D01*
X18359513Y11279744D01*
X18324921Y11261660D01*
X18287476Y11250640D01*
X18287446Y11250637D01*
X18287428Y11250632D01*
X18248606Y11247099D01*
X18209833Y11251174D01*
X18209819Y11251178D01*
X18209784Y11251182D01*
X18172497Y11262724D01*
X18138161Y11281289D01*
X18108086Y11306170D01*
X18083416Y11336419D01*
X18065091Y11370883D01*
X18053809Y11408250D01*
X18050000Y11447097D01*
X18050000Y12252903D01*
X18050019Y12255695D01*
X18054370Y12294485D01*
X18066173Y12331691D01*
X18084977Y12365896D01*
X18110067Y12395798D01*
X18140487Y12420256D01*
X18175079Y12438340D01*
X18212524Y12449360D01*
X18212554Y12449363D01*
X18212572Y12449368D01*
X18251394Y12452901D01*
X18290167Y12448826D01*
X18290167Y12448826D01*
G37*
G36*
X20290167Y12448826D02*
X20290181Y12448822D01*
X20290216Y12448818D01*
X20327503Y12437276D01*
X20361839Y12418711D01*
X20391914Y12393830D01*
X20416584Y12363581D01*
X20434909Y12329117D01*
X20446191Y12291750D01*
X20450000Y12252903D01*
X20450000Y11447097D01*
X20449981Y11444305D01*
X20445630Y11405515D01*
X20433827Y11368309D01*
X20415023Y11334104D01*
X20389933Y11304202D01*
X20359513Y11279744D01*
X20324921Y11261660D01*
X20287476Y11250640D01*
X20287446Y11250637D01*
X20287428Y11250632D01*
X20248606Y11247099D01*
X20209833Y11251174D01*
X20209819Y11251178D01*
X20209784Y11251182D01*
X20172497Y11262724D01*
X20138161Y11281289D01*
X20108086Y11306170D01*
X20083416Y11336419D01*
X20065091Y11370883D01*
X20053809Y11408250D01*
X20050000Y11447097D01*
X20050000Y12252903D01*
X20050019Y12255695D01*
X20054370Y12294485D01*
X20066173Y12331691D01*
X20084977Y12365896D01*
X20110067Y12395798D01*
X20140487Y12420256D01*
X20175079Y12438340D01*
X20212524Y12449360D01*
X20212554Y12449363D01*
X20212572Y12449368D01*
X20251394Y12452901D01*
X20290167Y12448826D01*
X20290167Y12448826D01*
G37*
G36*
X17290167Y12448826D02*
X17290181Y12448822D01*
X17290216Y12448818D01*
X17327503Y12437276D01*
X17361839Y12418711D01*
X17391914Y12393830D01*
X17416584Y12363581D01*
X17434909Y12329117D01*
X17446191Y12291750D01*
X17450000Y12252903D01*
X17450000Y11447097D01*
X17449981Y11444305D01*
X17445630Y11405515D01*
X17433827Y11368309D01*
X17415023Y11334104D01*
X17389933Y11304202D01*
X17359513Y11279744D01*
X17324921Y11261660D01*
X17287476Y11250640D01*
X17287446Y11250637D01*
X17287428Y11250632D01*
X17248606Y11247099D01*
X17209833Y11251174D01*
X17209819Y11251178D01*
X17209784Y11251182D01*
X17172497Y11262724D01*
X17138161Y11281289D01*
X17108086Y11306170D01*
X17083416Y11336419D01*
X17065091Y11370883D01*
X17053809Y11408250D01*
X17050000Y11447097D01*
X17050000Y12252903D01*
X17050019Y12255695D01*
X17054370Y12294485D01*
X17066173Y12331691D01*
X17084977Y12365896D01*
X17110067Y12395798D01*
X17140487Y12420256D01*
X17175079Y12438340D01*
X17212524Y12449360D01*
X17212554Y12449363D01*
X17212572Y12449368D01*
X17251394Y12452901D01*
X17290167Y12448826D01*
X17290167Y12448826D01*
G37*
G36*
X16790167Y12448826D02*
X16790181Y12448822D01*
X16790216Y12448818D01*
X16827503Y12437276D01*
X16861839Y12418711D01*
X16891914Y12393830D01*
X16916584Y12363581D01*
X16934909Y12329117D01*
X16946191Y12291750D01*
X16950000Y12252903D01*
X16950000Y11447097D01*
X16949981Y11444305D01*
X16945630Y11405515D01*
X16933827Y11368309D01*
X16915023Y11334104D01*
X16889933Y11304202D01*
X16859513Y11279744D01*
X16824921Y11261660D01*
X16787476Y11250640D01*
X16787446Y11250637D01*
X16787428Y11250632D01*
X16748606Y11247099D01*
X16709833Y11251174D01*
X16709819Y11251178D01*
X16709784Y11251182D01*
X16672497Y11262724D01*
X16638161Y11281289D01*
X16608086Y11306170D01*
X16583416Y11336419D01*
X16565091Y11370883D01*
X16553809Y11408250D01*
X16550000Y11447097D01*
X16550000Y12252903D01*
X16550019Y12255695D01*
X16554370Y12294485D01*
X16566173Y12331691D01*
X16584977Y12365896D01*
X16610067Y12395798D01*
X16640487Y12420256D01*
X16675079Y12438340D01*
X16712524Y12449360D01*
X16712554Y12449363D01*
X16712572Y12449368D01*
X16751394Y12452901D01*
X16790167Y12448826D01*
X16790167Y12448826D01*
G37*
G36*
X16290167Y12448826D02*
X16290181Y12448822D01*
X16290216Y12448818D01*
X16327503Y12437276D01*
X16361839Y12418711D01*
X16391914Y12393830D01*
X16416584Y12363581D01*
X16434909Y12329117D01*
X16446191Y12291750D01*
X16450000Y12252903D01*
X16450000Y11447097D01*
X16449981Y11444305D01*
X16445630Y11405515D01*
X16433827Y11368309D01*
X16415023Y11334104D01*
X16389933Y11304202D01*
X16359513Y11279744D01*
X16324921Y11261660D01*
X16287476Y11250640D01*
X16287446Y11250637D01*
X16287428Y11250632D01*
X16248606Y11247099D01*
X16209833Y11251174D01*
X16209819Y11251178D01*
X16209784Y11251182D01*
X16172497Y11262724D01*
X16138161Y11281289D01*
X16108086Y11306170D01*
X16083416Y11336419D01*
X16065091Y11370883D01*
X16053809Y11408250D01*
X16050000Y11447097D01*
X16050000Y12252903D01*
X16050019Y12255695D01*
X16054370Y12294485D01*
X16066173Y12331691D01*
X16084977Y12365896D01*
X16110067Y12395798D01*
X16140487Y12420256D01*
X16175079Y12438340D01*
X16212524Y12449360D01*
X16212554Y12449363D01*
X16212572Y12449368D01*
X16251394Y12452901D01*
X16290167Y12448826D01*
X16290167Y12448826D01*
G37*
G36*
X15790167Y12448826D02*
X15790181Y12448822D01*
X15790216Y12448818D01*
X15827503Y12437276D01*
X15861839Y12418711D01*
X15891914Y12393830D01*
X15916584Y12363581D01*
X15934909Y12329117D01*
X15946191Y12291750D01*
X15950000Y12252903D01*
X15950000Y11447097D01*
X15949981Y11444305D01*
X15945630Y11405515D01*
X15933827Y11368309D01*
X15915023Y11334104D01*
X15889933Y11304202D01*
X15859513Y11279744D01*
X15824921Y11261660D01*
X15787476Y11250640D01*
X15787446Y11250637D01*
X15787428Y11250632D01*
X15748606Y11247099D01*
X15709833Y11251174D01*
X15709819Y11251178D01*
X15709784Y11251182D01*
X15672497Y11262724D01*
X15638161Y11281289D01*
X15608086Y11306170D01*
X15583416Y11336419D01*
X15565091Y11370883D01*
X15553809Y11408250D01*
X15550000Y11447097D01*
X15550000Y12252903D01*
X15550019Y12255695D01*
X15554370Y12294485D01*
X15566173Y12331691D01*
X15584977Y12365896D01*
X15610067Y12395798D01*
X15640487Y12420256D01*
X15675079Y12438340D01*
X15712524Y12449360D01*
X15712554Y12449363D01*
X15712572Y12449368D01*
X15751394Y12452901D01*
X15790167Y12448826D01*
X15790167Y12448826D01*
G37*
G36*
X15290167Y12448826D02*
X15290181Y12448822D01*
X15290216Y12448818D01*
X15327503Y12437276D01*
X15361839Y12418711D01*
X15391914Y12393830D01*
X15416584Y12363581D01*
X15434909Y12329117D01*
X15446191Y12291750D01*
X15450000Y12252903D01*
X15450000Y11447097D01*
X15449981Y11444305D01*
X15445630Y11405515D01*
X15433827Y11368309D01*
X15415023Y11334104D01*
X15389933Y11304202D01*
X15359513Y11279744D01*
X15324921Y11261660D01*
X15287476Y11250640D01*
X15287446Y11250637D01*
X15287428Y11250632D01*
X15248606Y11247099D01*
X15209833Y11251174D01*
X15209819Y11251178D01*
X15209784Y11251182D01*
X15172497Y11262724D01*
X15138161Y11281289D01*
X15108086Y11306170D01*
X15083416Y11336419D01*
X15065091Y11370883D01*
X15053809Y11408250D01*
X15050000Y11447097D01*
X15050000Y12252903D01*
X15050019Y12255695D01*
X15054370Y12294485D01*
X15066173Y12331691D01*
X15084977Y12365896D01*
X15110067Y12395798D01*
X15140487Y12420256D01*
X15175079Y12438340D01*
X15212524Y12449360D01*
X15212554Y12449363D01*
X15212572Y12449368D01*
X15251394Y12452901D01*
X15290167Y12448826D01*
X15290167Y12448826D01*
G37*
G36*
X23525000Y11545000D02*
X22375000Y11545000D01*
X22375000Y12595000D01*
X23525000Y12595000D01*
X23525000Y11545000D01*
X23525000Y11545000D01*
G37*
G36*
X13325000Y11605000D02*
X12175000Y11605000D01*
X12175000Y12655000D01*
X13325000Y12655000D01*
X13325000Y11605000D01*
X13325000Y11605000D01*
G37*
G36*
X14878670Y12824995D02*
X14878672Y12824995D01*
X14880695Y12824981D01*
X14919485Y12820630D01*
X14956691Y12808827D01*
X14990896Y12790023D01*
X15020798Y12764933D01*
X15045256Y12734513D01*
X15063340Y12699921D01*
X15074360Y12662476D01*
X15074363Y12662446D01*
X15074368Y12662428D01*
X15077901Y12623606D01*
X15073826Y12584833D01*
X15073822Y12584819D01*
X15073818Y12584784D01*
X15062276Y12547497D01*
X15043711Y12513161D01*
X15018830Y12483086D01*
X14988581Y12458416D01*
X14954117Y12440091D01*
X14916750Y12428809D01*
X14877903Y12425000D01*
X14072053Y12425000D01*
X14071330Y12425005D01*
X14071328Y12425005D01*
X14069305Y12425019D01*
X14030515Y12429370D01*
X13993309Y12441173D01*
X13959104Y12459977D01*
X13929202Y12485067D01*
X13904744Y12515487D01*
X13886660Y12550079D01*
X13875640Y12587524D01*
X13875637Y12587554D01*
X13875632Y12587572D01*
X13872099Y12626394D01*
X13876174Y12665167D01*
X13876178Y12665181D01*
X13876182Y12665216D01*
X13887724Y12702503D01*
X13906289Y12736839D01*
X13931170Y12766914D01*
X13961419Y12791584D01*
X13995883Y12809909D01*
X14033250Y12821191D01*
X14072097Y12825000D01*
X14877947Y12825000D01*
X14878670Y12824995D01*
X14878670Y12824995D01*
G37*
G36*
X21928670Y12824995D02*
X21928672Y12824995D01*
X21930695Y12824981D01*
X21969485Y12820630D01*
X22006691Y12808827D01*
X22040896Y12790023D01*
X22070798Y12764933D01*
X22095256Y12734513D01*
X22113340Y12699921D01*
X22124360Y12662476D01*
X22124363Y12662446D01*
X22124368Y12662428D01*
X22127901Y12623606D01*
X22123826Y12584833D01*
X22123822Y12584819D01*
X22123818Y12584784D01*
X22112276Y12547497D01*
X22093711Y12513161D01*
X22068830Y12483086D01*
X22038581Y12458416D01*
X22004117Y12440091D01*
X21966750Y12428809D01*
X21927903Y12425000D01*
X21122053Y12425000D01*
X21121330Y12425005D01*
X21121328Y12425005D01*
X21119305Y12425019D01*
X21080515Y12429370D01*
X21043309Y12441173D01*
X21009104Y12459977D01*
X20979202Y12485067D01*
X20954744Y12515487D01*
X20936660Y12550079D01*
X20925640Y12587524D01*
X20925637Y12587554D01*
X20925632Y12587572D01*
X20922099Y12626394D01*
X20926174Y12665167D01*
X20926178Y12665181D01*
X20926182Y12665216D01*
X20937724Y12702503D01*
X20956289Y12736839D01*
X20981170Y12766914D01*
X21011419Y12791584D01*
X21045883Y12809909D01*
X21083250Y12821191D01*
X21122097Y12825000D01*
X21927947Y12825000D01*
X21928670Y12824995D01*
X21928670Y12824995D01*
G37*
G36*
X34100000Y12550000D02*
X32600000Y12550000D01*
X32600000Y14250000D01*
X34100000Y14250000D01*
X34100000Y12550000D01*
X34100000Y12550000D01*
G37*
G36*
X32100000Y12550000D02*
X30600000Y12550000D01*
X30600000Y14250000D01*
X32100000Y14250000D01*
X32100000Y12550000D01*
X32100000Y12550000D01*
G37*
G36*
X10205000Y12625000D02*
X9155000Y12625000D01*
X9155000Y13775000D01*
X10205000Y13775000D01*
X10205000Y12625000D01*
X10205000Y12625000D01*
G37*
G36*
X8545000Y12625000D02*
X7495000Y12625000D01*
X7495000Y13775000D01*
X8545000Y13775000D01*
X8545000Y12625000D01*
X8545000Y12625000D01*
G37*
G36*
X21928670Y13324995D02*
X21928672Y13324995D01*
X21930695Y13324981D01*
X21969485Y13320630D01*
X22006691Y13308827D01*
X22040896Y13290023D01*
X22070798Y13264933D01*
X22095256Y13234513D01*
X22113340Y13199921D01*
X22124360Y13162476D01*
X22124363Y13162446D01*
X22124368Y13162428D01*
X22127901Y13123606D01*
X22123826Y13084833D01*
X22123822Y13084819D01*
X22123818Y13084784D01*
X22112276Y13047497D01*
X22093711Y13013161D01*
X22068830Y12983086D01*
X22038581Y12958416D01*
X22004117Y12940091D01*
X21966750Y12928809D01*
X21927903Y12925000D01*
X21122053Y12925000D01*
X21121330Y12925005D01*
X21121328Y12925005D01*
X21119305Y12925019D01*
X21080515Y12929370D01*
X21043309Y12941173D01*
X21009104Y12959977D01*
X20979202Y12985067D01*
X20954744Y13015487D01*
X20936660Y13050079D01*
X20925640Y13087524D01*
X20925637Y13087554D01*
X20925632Y13087572D01*
X20922099Y13126394D01*
X20926174Y13165167D01*
X20926178Y13165181D01*
X20926182Y13165216D01*
X20937724Y13202503D01*
X20956289Y13236839D01*
X20981170Y13266914D01*
X21011419Y13291584D01*
X21045883Y13309909D01*
X21083250Y13321191D01*
X21122097Y13325000D01*
X21927947Y13325000D01*
X21928670Y13324995D01*
X21928670Y13324995D01*
G37*
G36*
X14878670Y13324995D02*
X14878672Y13324995D01*
X14880695Y13324981D01*
X14919485Y13320630D01*
X14956691Y13308827D01*
X14990896Y13290023D01*
X15020798Y13264933D01*
X15045256Y13234513D01*
X15063340Y13199921D01*
X15074360Y13162476D01*
X15074363Y13162446D01*
X15074368Y13162428D01*
X15077901Y13123606D01*
X15073826Y13084833D01*
X15073822Y13084819D01*
X15073818Y13084784D01*
X15062276Y13047497D01*
X15043711Y13013161D01*
X15018830Y12983086D01*
X14988581Y12958416D01*
X14954117Y12940091D01*
X14916750Y12928809D01*
X14877903Y12925000D01*
X14072053Y12925000D01*
X14071330Y12925005D01*
X14071328Y12925005D01*
X14069305Y12925019D01*
X14030515Y12929370D01*
X13993309Y12941173D01*
X13959104Y12959977D01*
X13929202Y12985067D01*
X13904744Y13015487D01*
X13886660Y13050079D01*
X13875640Y13087524D01*
X13875637Y13087554D01*
X13875632Y13087572D01*
X13872099Y13126394D01*
X13876174Y13165167D01*
X13876178Y13165181D01*
X13876182Y13165216D01*
X13887724Y13202503D01*
X13906289Y13236839D01*
X13931170Y13266914D01*
X13961419Y13291584D01*
X13995883Y13309909D01*
X14033250Y13321191D01*
X14072097Y13325000D01*
X14877947Y13325000D01*
X14878670Y13324995D01*
X14878670Y13324995D01*
G37*
G36*
X23525000Y13205000D02*
X22375000Y13205000D01*
X22375000Y14255000D01*
X23525000Y14255000D01*
X23525000Y13205000D01*
X23525000Y13205000D01*
G37*
G36*
X28125000Y13420000D02*
X27375000Y13420000D01*
X27375000Y14370000D01*
X28125000Y14370000D01*
X28125000Y13420000D01*
X28125000Y13420000D01*
G37*
G36*
X21928670Y13824995D02*
X21928672Y13824995D01*
X21930695Y13824981D01*
X21969485Y13820630D01*
X22006691Y13808827D01*
X22040896Y13790023D01*
X22070798Y13764933D01*
X22095256Y13734513D01*
X22113340Y13699921D01*
X22124360Y13662476D01*
X22124363Y13662446D01*
X22124368Y13662428D01*
X22127901Y13623606D01*
X22123826Y13584833D01*
X22123822Y13584819D01*
X22123818Y13584784D01*
X22112276Y13547497D01*
X22093711Y13513161D01*
X22068830Y13483086D01*
X22038581Y13458416D01*
X22004117Y13440091D01*
X21966750Y13428809D01*
X21927903Y13425000D01*
X21122053Y13425000D01*
X21121330Y13425005D01*
X21121328Y13425005D01*
X21119305Y13425019D01*
X21080515Y13429370D01*
X21043309Y13441173D01*
X21009104Y13459977D01*
X20979202Y13485067D01*
X20954744Y13515487D01*
X20936660Y13550079D01*
X20925640Y13587524D01*
X20925637Y13587554D01*
X20925632Y13587572D01*
X20922099Y13626394D01*
X20926174Y13665167D01*
X20926178Y13665181D01*
X20926182Y13665216D01*
X20937724Y13702503D01*
X20956289Y13736839D01*
X20981170Y13766914D01*
X21011419Y13791584D01*
X21045883Y13809909D01*
X21083250Y13821191D01*
X21122097Y13825000D01*
X21927947Y13825000D01*
X21928670Y13824995D01*
X21928670Y13824995D01*
G37*
G36*
X14878670Y13824995D02*
X14878672Y13824995D01*
X14880695Y13824981D01*
X14919485Y13820630D01*
X14956691Y13808827D01*
X14990896Y13790023D01*
X15020798Y13764933D01*
X15045256Y13734513D01*
X15063340Y13699921D01*
X15074360Y13662476D01*
X15074363Y13662446D01*
X15074368Y13662428D01*
X15077901Y13623606D01*
X15073826Y13584833D01*
X15073822Y13584819D01*
X15073818Y13584784D01*
X15062276Y13547497D01*
X15043711Y13513161D01*
X15018830Y13483086D01*
X14988581Y13458416D01*
X14954117Y13440091D01*
X14916750Y13428809D01*
X14877903Y13425000D01*
X14072053Y13425000D01*
X14071330Y13425005D01*
X14071328Y13425005D01*
X14069305Y13425019D01*
X14030515Y13429370D01*
X13993309Y13441173D01*
X13959104Y13459977D01*
X13929202Y13485067D01*
X13904744Y13515487D01*
X13886660Y13550079D01*
X13875640Y13587524D01*
X13875637Y13587554D01*
X13875632Y13587572D01*
X13872099Y13626394D01*
X13876174Y13665167D01*
X13876178Y13665181D01*
X13876182Y13665216D01*
X13887724Y13702503D01*
X13906289Y13736839D01*
X13931170Y13766914D01*
X13961419Y13791584D01*
X13995883Y13809909D01*
X14033250Y13821191D01*
X14072097Y13825000D01*
X14877947Y13825000D01*
X14878670Y13824995D01*
X14878670Y13824995D01*
G37*
G36*
X19475000Y13900000D02*
X16525000Y13900000D01*
X16525000Y16850000D01*
X19475000Y16850000D01*
X19475000Y13900000D01*
X19475000Y13900000D01*
G37*
G36*
X14878670Y14324995D02*
X14878672Y14324995D01*
X14880695Y14324981D01*
X14919485Y14320630D01*
X14956691Y14308827D01*
X14990896Y14290023D01*
X15020798Y14264933D01*
X15045256Y14234513D01*
X15063340Y14199921D01*
X15074360Y14162476D01*
X15074363Y14162446D01*
X15074368Y14162428D01*
X15077901Y14123606D01*
X15073826Y14084833D01*
X15073822Y14084819D01*
X15073818Y14084784D01*
X15062276Y14047497D01*
X15043711Y14013161D01*
X15018830Y13983086D01*
X14988581Y13958416D01*
X14954117Y13940091D01*
X14916750Y13928809D01*
X14877903Y13925000D01*
X14072053Y13925000D01*
X14071330Y13925005D01*
X14071328Y13925005D01*
X14069305Y13925019D01*
X14030515Y13929370D01*
X13993309Y13941173D01*
X13959104Y13959977D01*
X13929202Y13985067D01*
X13904744Y14015487D01*
X13886660Y14050079D01*
X13875640Y14087524D01*
X13875637Y14087554D01*
X13875632Y14087572D01*
X13872099Y14126394D01*
X13876174Y14165167D01*
X13876178Y14165181D01*
X13876182Y14165216D01*
X13887724Y14202503D01*
X13906289Y14236839D01*
X13931170Y14266914D01*
X13961419Y14291584D01*
X13995883Y14309909D01*
X14033250Y14321191D01*
X14072097Y14325000D01*
X14877947Y14325000D01*
X14878670Y14324995D01*
X14878670Y14324995D01*
G37*
G36*
X21928670Y14324995D02*
X21928672Y14324995D01*
X21930695Y14324981D01*
X21969485Y14320630D01*
X22006691Y14308827D01*
X22040896Y14290023D01*
X22070798Y14264933D01*
X22095256Y14234513D01*
X22113340Y14199921D01*
X22124360Y14162476D01*
X22124363Y14162446D01*
X22124368Y14162428D01*
X22127901Y14123606D01*
X22123826Y14084833D01*
X22123822Y14084819D01*
X22123818Y14084784D01*
X22112276Y14047497D01*
X22093711Y14013161D01*
X22068830Y13983086D01*
X22038581Y13958416D01*
X22004117Y13940091D01*
X21966750Y13928809D01*
X21927903Y13925000D01*
X21122053Y13925000D01*
X21121330Y13925005D01*
X21121328Y13925005D01*
X21119305Y13925019D01*
X21080515Y13929370D01*
X21043309Y13941173D01*
X21009104Y13959977D01*
X20979202Y13985067D01*
X20954744Y14015487D01*
X20936660Y14050079D01*
X20925640Y14087524D01*
X20925637Y14087554D01*
X20925632Y14087572D01*
X20922099Y14126394D01*
X20926174Y14165167D01*
X20926178Y14165181D01*
X20926182Y14165216D01*
X20937724Y14202503D01*
X20956289Y14236839D01*
X20981170Y14266914D01*
X21011419Y14291584D01*
X21045883Y14309909D01*
X21083250Y14321191D01*
X21122097Y14325000D01*
X21927947Y14325000D01*
X21928670Y14324995D01*
X21928670Y14324995D01*
G37*
G36*
X36905000Y18759950D02*
X36906978Y18746034D01*
X36912754Y18733220D01*
X36921871Y18722523D01*
X36933607Y18714789D01*
X36947034Y18710631D01*
X36954950Y18710000D01*
X39955000Y18710000D01*
X39955000Y14360000D01*
X36954950Y14360000D01*
X36941034Y14358022D01*
X36928220Y14352246D01*
X36917523Y14343129D01*
X36909789Y14331393D01*
X36905631Y14317966D01*
X36905000Y14310050D01*
X36905000Y14110000D01*
X35255000Y14110000D01*
X35255000Y18960000D01*
X36905000Y18960000D01*
X36905000Y18759950D01*
X36905000Y18759950D01*
G37*
G36*
X42225000Y14205000D02*
X40925000Y14205000D01*
X40925000Y15055000D01*
X42225000Y15055000D01*
X42225000Y14205000D01*
X42225000Y14205000D01*
G37*
G36*
X14878670Y14824995D02*
X14878672Y14824995D01*
X14880695Y14824981D01*
X14919485Y14820630D01*
X14956691Y14808827D01*
X14990896Y14790023D01*
X15020798Y14764933D01*
X15045256Y14734513D01*
X15063340Y14699921D01*
X15074360Y14662476D01*
X15074363Y14662446D01*
X15074368Y14662428D01*
X15077901Y14623606D01*
X15073826Y14584833D01*
X15073822Y14584819D01*
X15073818Y14584784D01*
X15062276Y14547497D01*
X15043711Y14513161D01*
X15018830Y14483086D01*
X14988581Y14458416D01*
X14954117Y14440091D01*
X14916750Y14428809D01*
X14877903Y14425000D01*
X14072053Y14425000D01*
X14071330Y14425005D01*
X14071328Y14425005D01*
X14069305Y14425019D01*
X14030515Y14429370D01*
X13993309Y14441173D01*
X13959104Y14459977D01*
X13929202Y14485067D01*
X13904744Y14515487D01*
X13886660Y14550079D01*
X13875640Y14587524D01*
X13875637Y14587554D01*
X13875632Y14587572D01*
X13872099Y14626394D01*
X13876174Y14665167D01*
X13876178Y14665181D01*
X13876182Y14665216D01*
X13887724Y14702503D01*
X13906289Y14736839D01*
X13931170Y14766914D01*
X13961419Y14791584D01*
X13995883Y14809909D01*
X14033250Y14821191D01*
X14072097Y14825000D01*
X14877947Y14825000D01*
X14878670Y14824995D01*
X14878670Y14824995D01*
G37*
G36*
X21928670Y14824995D02*
X21928672Y14824995D01*
X21930695Y14824981D01*
X21969485Y14820630D01*
X22006691Y14808827D01*
X22040896Y14790023D01*
X22070798Y14764933D01*
X22095256Y14734513D01*
X22113340Y14699921D01*
X22124360Y14662476D01*
X22124363Y14662446D01*
X22124368Y14662428D01*
X22127901Y14623606D01*
X22123826Y14584833D01*
X22123822Y14584819D01*
X22123818Y14584784D01*
X22112276Y14547497D01*
X22093711Y14513161D01*
X22068830Y14483086D01*
X22038581Y14458416D01*
X22004117Y14440091D01*
X21966750Y14428809D01*
X21927903Y14425000D01*
X21122053Y14425000D01*
X21121330Y14425005D01*
X21121328Y14425005D01*
X21119305Y14425019D01*
X21080515Y14429370D01*
X21043309Y14441173D01*
X21009104Y14459977D01*
X20979202Y14485067D01*
X20954744Y14515487D01*
X20936660Y14550079D01*
X20925640Y14587524D01*
X20925637Y14587554D01*
X20925632Y14587572D01*
X20922099Y14626394D01*
X20926174Y14665167D01*
X20926178Y14665181D01*
X20926182Y14665216D01*
X20937724Y14702503D01*
X20956289Y14736839D01*
X20981170Y14766914D01*
X21011419Y14791584D01*
X21045883Y14809909D01*
X21083250Y14821191D01*
X21122097Y14825000D01*
X21927947Y14825000D01*
X21928670Y14824995D01*
X21928670Y14824995D01*
G37*
G36*
X47368164Y17124252D02*
X47584284Y17079889D01*
X47787668Y16994395D01*
X47970571Y16871025D01*
X48126035Y16714472D01*
X48248124Y16530713D01*
X48332197Y16326737D01*
X48374982Y16110656D01*
X48374982Y16110646D01*
X48375048Y16110312D01*
X48371529Y15858318D01*
X48371453Y15857984D01*
X48371453Y15857975D01*
X48322652Y15643176D01*
X48232916Y15441624D01*
X48105741Y15261342D01*
X47945974Y15109199D01*
X47759694Y14990981D01*
X47553997Y14911197D01*
X47336727Y14872887D01*
X47116152Y14877506D01*
X46900672Y14924883D01*
X46698500Y15013210D01*
X46517337Y15139121D01*
X46364076Y15297827D01*
X46244564Y15483275D01*
X46163346Y15688408D01*
X46123519Y15905406D01*
X46126600Y16126011D01*
X46172469Y16341810D01*
X46259383Y16544594D01*
X46384030Y16726639D01*
X46541659Y16881000D01*
X46726266Y17001804D01*
X46930831Y17084453D01*
X47147543Y17125793D01*
X47368164Y17124252D01*
X47368164Y17124252D01*
G37*
G36*
X21928670Y15324995D02*
X21928672Y15324995D01*
X21930695Y15324981D01*
X21969485Y15320630D01*
X22006691Y15308827D01*
X22040896Y15290023D01*
X22070798Y15264933D01*
X22095256Y15234513D01*
X22113340Y15199921D01*
X22124360Y15162476D01*
X22124363Y15162446D01*
X22124368Y15162428D01*
X22127901Y15123606D01*
X22123826Y15084833D01*
X22123822Y15084819D01*
X22123818Y15084784D01*
X22112276Y15047497D01*
X22093711Y15013161D01*
X22068830Y14983086D01*
X22038581Y14958416D01*
X22004117Y14940091D01*
X21966750Y14928809D01*
X21927903Y14925000D01*
X21122053Y14925000D01*
X21121330Y14925005D01*
X21121328Y14925005D01*
X21119305Y14925019D01*
X21080515Y14929370D01*
X21043309Y14941173D01*
X21009104Y14959977D01*
X20979202Y14985067D01*
X20954744Y15015487D01*
X20936660Y15050079D01*
X20925640Y15087524D01*
X20925637Y15087554D01*
X20925632Y15087572D01*
X20922099Y15126394D01*
X20926174Y15165167D01*
X20926178Y15165181D01*
X20926182Y15165216D01*
X20937724Y15202503D01*
X20956289Y15236839D01*
X20981170Y15266914D01*
X21011419Y15291584D01*
X21045883Y15309909D01*
X21083250Y15321191D01*
X21122097Y15325000D01*
X21927947Y15325000D01*
X21928670Y15324995D01*
X21928670Y15324995D01*
G37*
G36*
X14878670Y15324995D02*
X14878672Y15324995D01*
X14880695Y15324981D01*
X14919485Y15320630D01*
X14956691Y15308827D01*
X14990896Y15290023D01*
X15020798Y15264933D01*
X15045256Y15234513D01*
X15063340Y15199921D01*
X15074360Y15162476D01*
X15074363Y15162446D01*
X15074368Y15162428D01*
X15077901Y15123606D01*
X15073826Y15084833D01*
X15073822Y15084819D01*
X15073818Y15084784D01*
X15062276Y15047497D01*
X15043711Y15013161D01*
X15018830Y14983086D01*
X14988581Y14958416D01*
X14954117Y14940091D01*
X14916750Y14928809D01*
X14877903Y14925000D01*
X14072053Y14925000D01*
X14071330Y14925005D01*
X14071328Y14925005D01*
X14069305Y14925019D01*
X14030515Y14929370D01*
X13993309Y14941173D01*
X13959104Y14959977D01*
X13929202Y14985067D01*
X13904744Y15015487D01*
X13886660Y15050079D01*
X13875640Y15087524D01*
X13875637Y15087554D01*
X13875632Y15087572D01*
X13872099Y15126394D01*
X13876174Y15165167D01*
X13876178Y15165181D01*
X13876182Y15165216D01*
X13887724Y15202503D01*
X13906289Y15236839D01*
X13931170Y15266914D01*
X13961419Y15291584D01*
X13995883Y15309909D01*
X14033250Y15321191D01*
X14072097Y15325000D01*
X14877947Y15325000D01*
X14878670Y15324995D01*
X14878670Y15324995D01*
G37*
G36*
X7285000Y15215000D02*
X6415000Y15215000D01*
X6415000Y16085000D01*
X7285000Y16085000D01*
X7285000Y15215000D01*
X7285000Y15215000D01*
G37*
G36*
X21928670Y15824995D02*
X21928672Y15824995D01*
X21930695Y15824981D01*
X21969485Y15820630D01*
X22006691Y15808827D01*
X22040896Y15790023D01*
X22070798Y15764933D01*
X22095256Y15734513D01*
X22113340Y15699921D01*
X22124360Y15662476D01*
X22124363Y15662446D01*
X22124368Y15662428D01*
X22127901Y15623606D01*
X22123826Y15584833D01*
X22123822Y15584819D01*
X22123818Y15584784D01*
X22112276Y15547497D01*
X22093711Y15513161D01*
X22068830Y15483086D01*
X22038581Y15458416D01*
X22004117Y15440091D01*
X21966750Y15428809D01*
X21927903Y15425000D01*
X21122053Y15425000D01*
X21121330Y15425005D01*
X21121328Y15425005D01*
X21119305Y15425019D01*
X21080515Y15429370D01*
X21043309Y15441173D01*
X21009104Y15459977D01*
X20979202Y15485067D01*
X20954744Y15515487D01*
X20936660Y15550079D01*
X20925640Y15587524D01*
X20925637Y15587554D01*
X20925632Y15587572D01*
X20922099Y15626394D01*
X20926174Y15665167D01*
X20926178Y15665181D01*
X20926182Y15665216D01*
X20937724Y15702503D01*
X20956289Y15736839D01*
X20981170Y15766914D01*
X21011419Y15791584D01*
X21045883Y15809909D01*
X21083250Y15821191D01*
X21122097Y15825000D01*
X21927947Y15825000D01*
X21928670Y15824995D01*
X21928670Y15824995D01*
G37*
G36*
X14878670Y15824995D02*
X14878672Y15824995D01*
X14880695Y15824981D01*
X14919485Y15820630D01*
X14956691Y15808827D01*
X14990896Y15790023D01*
X15020798Y15764933D01*
X15045256Y15734513D01*
X15063340Y15699921D01*
X15074360Y15662476D01*
X15074363Y15662446D01*
X15074368Y15662428D01*
X15077901Y15623606D01*
X15073826Y15584833D01*
X15073822Y15584819D01*
X15073818Y15584784D01*
X15062276Y15547497D01*
X15043711Y15513161D01*
X15018830Y15483086D01*
X14988581Y15458416D01*
X14954117Y15440091D01*
X14916750Y15428809D01*
X14877903Y15425000D01*
X14072053Y15425000D01*
X14071330Y15425005D01*
X14071328Y15425005D01*
X14069305Y15425019D01*
X14030515Y15429370D01*
X13993309Y15441173D01*
X13959104Y15459977D01*
X13929202Y15485067D01*
X13904744Y15515487D01*
X13886660Y15550079D01*
X13875640Y15587524D01*
X13875637Y15587554D01*
X13875632Y15587572D01*
X13872099Y15626394D01*
X13876174Y15665167D01*
X13876178Y15665181D01*
X13876182Y15665216D01*
X13887724Y15702503D01*
X13906289Y15736839D01*
X13931170Y15766914D01*
X13961419Y15791584D01*
X13995883Y15809909D01*
X14033250Y15821191D01*
X14072097Y15825000D01*
X14877947Y15825000D01*
X14878670Y15824995D01*
X14878670Y15824995D01*
G37*
G36*
X42225000Y15475000D02*
X40925000Y15475000D01*
X40925000Y16325000D01*
X42225000Y16325000D01*
X42225000Y15475000D01*
X42225000Y15475000D01*
G37*
G36*
X24895000Y15500000D02*
X23845000Y15500000D01*
X23845000Y16650000D01*
X24895000Y16650000D01*
X24895000Y15500000D01*
X24895000Y15500000D01*
G37*
G36*
X26555000Y15500000D02*
X25505000Y15500000D01*
X25505000Y16650000D01*
X26555000Y16650000D01*
X26555000Y15500000D01*
X26555000Y15500000D01*
G37*
G36*
X10825000Y15525000D02*
X7975000Y15525000D01*
X7975000Y17175000D01*
X10825000Y17175000D01*
X10825000Y15525000D01*
X10825000Y15525000D01*
G37*
G36*
X28125000Y15820000D02*
X27375000Y15820000D01*
X27375000Y16770000D01*
X28125000Y16770000D01*
X28125000Y15820000D01*
X28125000Y15820000D01*
G37*
G36*
X13385000Y15865000D02*
X12595000Y15865000D01*
X12595000Y16735000D01*
X13385000Y16735000D01*
X13385000Y15865000D01*
X13385000Y15865000D01*
G37*
G36*
X12305000Y15865000D02*
X11515000Y15865000D01*
X11515000Y16735000D01*
X12305000Y16735000D01*
X12305000Y15865000D01*
X12305000Y15865000D01*
G37*
G36*
X21928670Y16324995D02*
X21928672Y16324995D01*
X21930695Y16324981D01*
X21969485Y16320630D01*
X22006691Y16308827D01*
X22040896Y16290023D01*
X22070798Y16264933D01*
X22095256Y16234513D01*
X22113340Y16199921D01*
X22124360Y16162476D01*
X22124363Y16162446D01*
X22124368Y16162428D01*
X22127901Y16123606D01*
X22123826Y16084833D01*
X22123822Y16084819D01*
X22123818Y16084784D01*
X22112276Y16047497D01*
X22093711Y16013161D01*
X22068830Y15983086D01*
X22038581Y15958416D01*
X22004117Y15940091D01*
X21966750Y15928809D01*
X21927903Y15925000D01*
X21122053Y15925000D01*
X21121330Y15925005D01*
X21121328Y15925005D01*
X21119305Y15925019D01*
X21080515Y15929370D01*
X21043309Y15941173D01*
X21009104Y15959977D01*
X20979202Y15985067D01*
X20954744Y16015487D01*
X20936660Y16050079D01*
X20925640Y16087524D01*
X20925637Y16087554D01*
X20925632Y16087572D01*
X20922099Y16126394D01*
X20926174Y16165167D01*
X20926178Y16165181D01*
X20926182Y16165216D01*
X20937724Y16202503D01*
X20956289Y16236839D01*
X20981170Y16266914D01*
X21011419Y16291584D01*
X21045883Y16309909D01*
X21083250Y16321191D01*
X21122097Y16325000D01*
X21927947Y16325000D01*
X21928670Y16324995D01*
X21928670Y16324995D01*
G37*
G36*
X14878670Y16324995D02*
X14878672Y16324995D01*
X14880695Y16324981D01*
X14919485Y16320630D01*
X14956691Y16308827D01*
X14990896Y16290023D01*
X15020798Y16264933D01*
X15045256Y16234513D01*
X15063340Y16199921D01*
X15074360Y16162476D01*
X15074363Y16162446D01*
X15074368Y16162428D01*
X15077901Y16123606D01*
X15073826Y16084833D01*
X15073822Y16084819D01*
X15073818Y16084784D01*
X15062276Y16047497D01*
X15043711Y16013161D01*
X15018830Y15983086D01*
X14988581Y15958416D01*
X14954117Y15940091D01*
X14916750Y15928809D01*
X14877903Y15925000D01*
X14072053Y15925000D01*
X14071330Y15925005D01*
X14071328Y15925005D01*
X14069305Y15925019D01*
X14030515Y15929370D01*
X13993309Y15941173D01*
X13959104Y15959977D01*
X13929202Y15985067D01*
X13904744Y16015487D01*
X13886660Y16050079D01*
X13875640Y16087524D01*
X13875637Y16087554D01*
X13875632Y16087572D01*
X13872099Y16126394D01*
X13876174Y16165167D01*
X13876178Y16165181D01*
X13876182Y16165216D01*
X13887724Y16202503D01*
X13906289Y16236839D01*
X13931170Y16266914D01*
X13961419Y16291584D01*
X13995883Y16309909D01*
X14033250Y16321191D01*
X14072097Y16325000D01*
X14877947Y16325000D01*
X14878670Y16324995D01*
X14878670Y16324995D01*
G37*
G36*
X7285000Y16215000D02*
X6415000Y16215000D01*
X6415000Y17085000D01*
X7285000Y17085000D01*
X7285000Y16215000D01*
X7285000Y16215000D01*
G37*
G36*
X21928670Y16824995D02*
X21928672Y16824995D01*
X21930695Y16824981D01*
X21969485Y16820630D01*
X22006691Y16808827D01*
X22040896Y16790023D01*
X22070798Y16764933D01*
X22095256Y16734513D01*
X22113340Y16699921D01*
X22124360Y16662476D01*
X22124363Y16662446D01*
X22124368Y16662428D01*
X22127901Y16623606D01*
X22123826Y16584833D01*
X22123822Y16584819D01*
X22123818Y16584784D01*
X22112276Y16547497D01*
X22093711Y16513161D01*
X22068830Y16483086D01*
X22038581Y16458416D01*
X22004117Y16440091D01*
X21966750Y16428809D01*
X21927903Y16425000D01*
X21122053Y16425000D01*
X21121330Y16425005D01*
X21121328Y16425005D01*
X21119305Y16425019D01*
X21080515Y16429370D01*
X21043309Y16441173D01*
X21009104Y16459977D01*
X20979202Y16485067D01*
X20954744Y16515487D01*
X20936660Y16550079D01*
X20925640Y16587524D01*
X20925637Y16587554D01*
X20925632Y16587572D01*
X20922099Y16626394D01*
X20926174Y16665167D01*
X20926178Y16665181D01*
X20926182Y16665216D01*
X20937724Y16702503D01*
X20956289Y16736839D01*
X20981170Y16766914D01*
X21011419Y16791584D01*
X21045883Y16809909D01*
X21083250Y16821191D01*
X21122097Y16825000D01*
X21927947Y16825000D01*
X21928670Y16824995D01*
X21928670Y16824995D01*
G37*
G36*
X14878670Y16824995D02*
X14878672Y16824995D01*
X14880695Y16824981D01*
X14919485Y16820630D01*
X14956691Y16808827D01*
X14990896Y16790023D01*
X15020798Y16764933D01*
X15045256Y16734513D01*
X15063340Y16699921D01*
X15074360Y16662476D01*
X15074363Y16662446D01*
X15074368Y16662428D01*
X15077901Y16623606D01*
X15073826Y16584833D01*
X15073822Y16584819D01*
X15073818Y16584784D01*
X15062276Y16547497D01*
X15043711Y16513161D01*
X15018830Y16483086D01*
X14988581Y16458416D01*
X14954117Y16440091D01*
X14916750Y16428809D01*
X14877903Y16425000D01*
X14072053Y16425000D01*
X14071330Y16425005D01*
X14071328Y16425005D01*
X14069305Y16425019D01*
X14030515Y16429370D01*
X13993309Y16441173D01*
X13959104Y16459977D01*
X13929202Y16485067D01*
X13904744Y16515487D01*
X13886660Y16550079D01*
X13875640Y16587524D01*
X13875637Y16587554D01*
X13875632Y16587572D01*
X13872099Y16626394D01*
X13876174Y16665167D01*
X13876178Y16665181D01*
X13876182Y16665216D01*
X13887724Y16702503D01*
X13906289Y16736839D01*
X13931170Y16766914D01*
X13961419Y16791584D01*
X13995883Y16809909D01*
X14033250Y16821191D01*
X14072097Y16825000D01*
X14877947Y16825000D01*
X14878670Y16824995D01*
X14878670Y16824995D01*
G37*
G36*
X42225000Y16745000D02*
X40925000Y16745000D01*
X40925000Y17595000D01*
X42225000Y17595000D01*
X42225000Y16745000D01*
X42225000Y16745000D01*
G37*
G36*
X21928670Y17324995D02*
X21928672Y17324995D01*
X21930695Y17324981D01*
X21969485Y17320630D01*
X22006691Y17308827D01*
X22040896Y17290023D01*
X22070798Y17264933D01*
X22095256Y17234513D01*
X22113340Y17199921D01*
X22124360Y17162476D01*
X22124363Y17162446D01*
X22124368Y17162428D01*
X22127901Y17123606D01*
X22123826Y17084833D01*
X22123822Y17084819D01*
X22123818Y17084784D01*
X22112276Y17047497D01*
X22093711Y17013161D01*
X22068830Y16983086D01*
X22038581Y16958416D01*
X22004117Y16940091D01*
X21966750Y16928809D01*
X21927903Y16925000D01*
X21122053Y16925000D01*
X21121330Y16925005D01*
X21121328Y16925005D01*
X21119305Y16925019D01*
X21080515Y16929370D01*
X21043309Y16941173D01*
X21009104Y16959977D01*
X20979202Y16985067D01*
X20954744Y17015487D01*
X20936660Y17050079D01*
X20925640Y17087524D01*
X20925637Y17087554D01*
X20925632Y17087572D01*
X20922099Y17126394D01*
X20926174Y17165167D01*
X20926178Y17165181D01*
X20926182Y17165216D01*
X20937724Y17202503D01*
X20956289Y17236839D01*
X20981170Y17266914D01*
X21011419Y17291584D01*
X21045883Y17309909D01*
X21083250Y17321191D01*
X21122097Y17325000D01*
X21927947Y17325000D01*
X21928670Y17324995D01*
X21928670Y17324995D01*
G37*
G36*
X14878670Y17324995D02*
X14878672Y17324995D01*
X14880695Y17324981D01*
X14919485Y17320630D01*
X14956691Y17308827D01*
X14990896Y17290023D01*
X15020798Y17264933D01*
X15045256Y17234513D01*
X15063340Y17199921D01*
X15074360Y17162476D01*
X15074363Y17162446D01*
X15074368Y17162428D01*
X15077901Y17123606D01*
X15073826Y17084833D01*
X15073822Y17084819D01*
X15073818Y17084784D01*
X15062276Y17047497D01*
X15043711Y17013161D01*
X15018830Y16983086D01*
X14988581Y16958416D01*
X14954117Y16940091D01*
X14916750Y16928809D01*
X14877903Y16925000D01*
X14072053Y16925000D01*
X14071330Y16925005D01*
X14071328Y16925005D01*
X14069305Y16925019D01*
X14030515Y16929370D01*
X13993309Y16941173D01*
X13959104Y16959977D01*
X13929202Y16985067D01*
X13904744Y17015487D01*
X13886660Y17050079D01*
X13875640Y17087524D01*
X13875637Y17087554D01*
X13875632Y17087572D01*
X13872099Y17126394D01*
X13876174Y17165167D01*
X13876178Y17165181D01*
X13876182Y17165216D01*
X13887724Y17202503D01*
X13906289Y17236839D01*
X13931170Y17266914D01*
X13961419Y17291584D01*
X13995883Y17309909D01*
X14033250Y17321191D01*
X14072097Y17325000D01*
X14877947Y17325000D01*
X14878670Y17324995D01*
X14878670Y17324995D01*
G37*
G36*
X29560000Y17125000D02*
X28760000Y17125000D01*
X28760000Y18265000D01*
X29560000Y18265000D01*
X29560000Y17125000D01*
X29560000Y17125000D01*
G37*
G36*
X28140000Y17125000D02*
X27340000Y17125000D01*
X27340000Y18265000D01*
X28140000Y18265000D01*
X28140000Y17125000D01*
X28140000Y17125000D01*
G37*
G36*
X14878670Y17824995D02*
X14878672Y17824995D01*
X14880695Y17824981D01*
X14919485Y17820630D01*
X14956691Y17808827D01*
X14990896Y17790023D01*
X15020798Y17764933D01*
X15045256Y17734513D01*
X15063340Y17699921D01*
X15074360Y17662476D01*
X15074363Y17662446D01*
X15074368Y17662428D01*
X15077901Y17623606D01*
X15073826Y17584833D01*
X15073822Y17584819D01*
X15073818Y17584784D01*
X15062276Y17547497D01*
X15043711Y17513161D01*
X15018830Y17483086D01*
X14988581Y17458416D01*
X14954117Y17440091D01*
X14916750Y17428809D01*
X14877903Y17425000D01*
X14072053Y17425000D01*
X14071330Y17425005D01*
X14071328Y17425005D01*
X14069305Y17425019D01*
X14030515Y17429370D01*
X13993309Y17441173D01*
X13959104Y17459977D01*
X13929202Y17485067D01*
X13904744Y17515487D01*
X13886660Y17550079D01*
X13875640Y17587524D01*
X13875637Y17587554D01*
X13875632Y17587572D01*
X13872099Y17626394D01*
X13876174Y17665167D01*
X13876178Y17665181D01*
X13876182Y17665216D01*
X13887724Y17702503D01*
X13906289Y17736839D01*
X13931170Y17766914D01*
X13961419Y17791584D01*
X13995883Y17809909D01*
X14033250Y17821191D01*
X14072097Y17825000D01*
X14877947Y17825000D01*
X14878670Y17824995D01*
X14878670Y17824995D01*
G37*
G36*
X10825000Y17425000D02*
X7975000Y17425000D01*
X7975000Y19075000D01*
X10825000Y19075000D01*
X10825000Y17425000D01*
X10825000Y17425000D01*
G37*
G36*
X21928670Y17824995D02*
X21928672Y17824995D01*
X21930695Y17824981D01*
X21969485Y17820630D01*
X22006691Y17808827D01*
X22040896Y17790023D01*
X22070798Y17764933D01*
X22095256Y17734513D01*
X22113340Y17699921D01*
X22124360Y17662476D01*
X22124363Y17662446D01*
X22124368Y17662428D01*
X22127901Y17623606D01*
X22123826Y17584833D01*
X22123822Y17584819D01*
X22123818Y17584784D01*
X22112276Y17547497D01*
X22093711Y17513161D01*
X22068830Y17483086D01*
X22038581Y17458416D01*
X22004117Y17440091D01*
X21966750Y17428809D01*
X21927903Y17425000D01*
X21122053Y17425000D01*
X21121330Y17425005D01*
X21121328Y17425005D01*
X21119305Y17425019D01*
X21080515Y17429370D01*
X21043309Y17441173D01*
X21009104Y17459977D01*
X20979202Y17485067D01*
X20954744Y17515487D01*
X20936660Y17550079D01*
X20925640Y17587524D01*
X20925637Y17587554D01*
X20925632Y17587572D01*
X20922099Y17626394D01*
X20926174Y17665167D01*
X20926178Y17665181D01*
X20926182Y17665216D01*
X20937724Y17702503D01*
X20956289Y17736839D01*
X20981170Y17766914D01*
X21011419Y17791584D01*
X21045883Y17809909D01*
X21083250Y17821191D01*
X21122097Y17825000D01*
X21927947Y17825000D01*
X21928670Y17824995D01*
X21928670Y17824995D01*
G37*
G36*
X7285000Y17515000D02*
X6415000Y17515000D01*
X6415000Y18385000D01*
X7285000Y18385000D01*
X7285000Y17515000D01*
X7285000Y17515000D01*
G37*
G36*
X14878670Y18324995D02*
X14878672Y18324995D01*
X14880695Y18324981D01*
X14919485Y18320630D01*
X14956691Y18308827D01*
X14990896Y18290023D01*
X15020798Y18264933D01*
X15045256Y18234513D01*
X15063340Y18199921D01*
X15074360Y18162476D01*
X15074363Y18162446D01*
X15074368Y18162428D01*
X15077901Y18123606D01*
X15073826Y18084833D01*
X15073822Y18084819D01*
X15073818Y18084784D01*
X15062276Y18047497D01*
X15043711Y18013161D01*
X15018830Y17983086D01*
X14988581Y17958416D01*
X14954117Y17940091D01*
X14916750Y17928809D01*
X14877903Y17925000D01*
X14072053Y17925000D01*
X14071330Y17925005D01*
X14071328Y17925005D01*
X14069305Y17925019D01*
X14030515Y17929370D01*
X13993309Y17941173D01*
X13959104Y17959977D01*
X13929202Y17985067D01*
X13904744Y18015487D01*
X13886660Y18050079D01*
X13875640Y18087524D01*
X13875637Y18087554D01*
X13875632Y18087572D01*
X13872099Y18126394D01*
X13876174Y18165167D01*
X13876178Y18165181D01*
X13876182Y18165216D01*
X13887724Y18202503D01*
X13906289Y18236839D01*
X13931170Y18266914D01*
X13961419Y18291584D01*
X13995883Y18309909D01*
X14033250Y18321191D01*
X14072097Y18325000D01*
X14877947Y18325000D01*
X14878670Y18324995D01*
X14878670Y18324995D01*
G37*
G36*
X21928670Y18324995D02*
X21928672Y18324995D01*
X21930695Y18324981D01*
X21969485Y18320630D01*
X22006691Y18308827D01*
X22040896Y18290023D01*
X22070798Y18264933D01*
X22095256Y18234513D01*
X22113340Y18199921D01*
X22124360Y18162476D01*
X22124363Y18162446D01*
X22124368Y18162428D01*
X22127901Y18123606D01*
X22123826Y18084833D01*
X22123822Y18084819D01*
X22123818Y18084784D01*
X22112276Y18047497D01*
X22093711Y18013161D01*
X22068830Y17983086D01*
X22038581Y17958416D01*
X22004117Y17940091D01*
X21966750Y17928809D01*
X21927903Y17925000D01*
X21122053Y17925000D01*
X21121330Y17925005D01*
X21121328Y17925005D01*
X21119305Y17925019D01*
X21080515Y17929370D01*
X21043309Y17941173D01*
X21009104Y17959977D01*
X20979202Y17985067D01*
X20954744Y18015487D01*
X20936660Y18050079D01*
X20925640Y18087524D01*
X20925637Y18087554D01*
X20925632Y18087572D01*
X20922099Y18126394D01*
X20926174Y18165167D01*
X20926178Y18165181D01*
X20926182Y18165216D01*
X20937724Y18202503D01*
X20956289Y18236839D01*
X20981170Y18266914D01*
X21011419Y18291584D01*
X21045883Y18309909D01*
X21083250Y18321191D01*
X21122097Y18325000D01*
X21927947Y18325000D01*
X21928670Y18324995D01*
X21928670Y18324995D01*
G37*
G36*
X42225000Y18015000D02*
X40925000Y18015000D01*
X40925000Y18865000D01*
X42225000Y18865000D01*
X42225000Y18015000D01*
X42225000Y18015000D01*
G37*
G36*
X24955000Y18225000D02*
X23905000Y18225000D01*
X23905000Y19375000D01*
X24955000Y19375000D01*
X24955000Y18225000D01*
X24955000Y18225000D01*
G37*
G36*
X23295000Y18225000D02*
X22245000Y18225000D01*
X22245000Y19375000D01*
X23295000Y19375000D01*
X23295000Y18225000D01*
X23295000Y18225000D01*
G37*
G36*
X17790167Y19498826D02*
X17790181Y19498822D01*
X17790216Y19498818D01*
X17827503Y19487276D01*
X17861839Y19468711D01*
X17891914Y19443830D01*
X17916584Y19413581D01*
X17934909Y19379117D01*
X17946191Y19341750D01*
X17950000Y19302903D01*
X17950000Y18497097D01*
X17949981Y18494305D01*
X17945630Y18455515D01*
X17933827Y18418309D01*
X17915023Y18384104D01*
X17889933Y18354202D01*
X17859513Y18329744D01*
X17824921Y18311660D01*
X17787476Y18300640D01*
X17787446Y18300637D01*
X17787428Y18300632D01*
X17748606Y18297099D01*
X17709833Y18301174D01*
X17709819Y18301178D01*
X17709784Y18301182D01*
X17672497Y18312724D01*
X17638161Y18331289D01*
X17608086Y18356170D01*
X17583416Y18386419D01*
X17565091Y18420883D01*
X17553809Y18458250D01*
X17550000Y18497097D01*
X17550000Y19302903D01*
X17550019Y19305695D01*
X17554370Y19344485D01*
X17566173Y19381691D01*
X17584977Y19415896D01*
X17610067Y19445798D01*
X17640487Y19470256D01*
X17675079Y19488340D01*
X17712524Y19499360D01*
X17712554Y19499363D01*
X17712572Y19499368D01*
X17751394Y19502901D01*
X17790167Y19498826D01*
X17790167Y19498826D01*
G37*
G36*
X20790167Y19498826D02*
X20790181Y19498822D01*
X20790216Y19498818D01*
X20827503Y19487276D01*
X20861839Y19468711D01*
X20891914Y19443830D01*
X20916584Y19413581D01*
X20934909Y19379117D01*
X20946191Y19341750D01*
X20950000Y19302903D01*
X20950000Y18497097D01*
X20949981Y18494305D01*
X20945630Y18455515D01*
X20933827Y18418309D01*
X20915023Y18384104D01*
X20889933Y18354202D01*
X20859513Y18329744D01*
X20824921Y18311660D01*
X20787476Y18300640D01*
X20787446Y18300637D01*
X20787428Y18300632D01*
X20748606Y18297099D01*
X20709833Y18301174D01*
X20709819Y18301178D01*
X20709784Y18301182D01*
X20672497Y18312724D01*
X20638161Y18331289D01*
X20608086Y18356170D01*
X20583416Y18386419D01*
X20565091Y18420883D01*
X20553809Y18458250D01*
X20550000Y18497097D01*
X20550000Y19302903D01*
X20550019Y19305695D01*
X20554370Y19344485D01*
X20566173Y19381691D01*
X20584977Y19415896D01*
X20610067Y19445798D01*
X20640487Y19470256D01*
X20675079Y19488340D01*
X20712524Y19499360D01*
X20712554Y19499363D01*
X20712572Y19499368D01*
X20751394Y19502901D01*
X20790167Y19498826D01*
X20790167Y19498826D01*
G37*
G36*
X19790167Y19498826D02*
X19790181Y19498822D01*
X19790216Y19498818D01*
X19827503Y19487276D01*
X19861839Y19468711D01*
X19891914Y19443830D01*
X19916584Y19413581D01*
X19934909Y19379117D01*
X19946191Y19341750D01*
X19950000Y19302903D01*
X19950000Y18497097D01*
X19949981Y18494305D01*
X19945630Y18455515D01*
X19933827Y18418309D01*
X19915023Y18384104D01*
X19889933Y18354202D01*
X19859513Y18329744D01*
X19824921Y18311660D01*
X19787476Y18300640D01*
X19787446Y18300637D01*
X19787428Y18300632D01*
X19748606Y18297099D01*
X19709833Y18301174D01*
X19709819Y18301178D01*
X19709784Y18301182D01*
X19672497Y18312724D01*
X19638161Y18331289D01*
X19608086Y18356170D01*
X19583416Y18386419D01*
X19565091Y18420883D01*
X19553809Y18458250D01*
X19550000Y18497097D01*
X19550000Y19302903D01*
X19550019Y19305695D01*
X19554370Y19344485D01*
X19566173Y19381691D01*
X19584977Y19415896D01*
X19610067Y19445798D01*
X19640487Y19470256D01*
X19675079Y19488340D01*
X19712524Y19499360D01*
X19712554Y19499363D01*
X19712572Y19499368D01*
X19751394Y19502901D01*
X19790167Y19498826D01*
X19790167Y19498826D01*
G37*
G36*
X20290167Y19498826D02*
X20290181Y19498822D01*
X20290216Y19498818D01*
X20327503Y19487276D01*
X20361839Y19468711D01*
X20391914Y19443830D01*
X20416584Y19413581D01*
X20434909Y19379117D01*
X20446191Y19341750D01*
X20450000Y19302903D01*
X20450000Y18497097D01*
X20449981Y18494305D01*
X20445630Y18455515D01*
X20433827Y18418309D01*
X20415023Y18384104D01*
X20389933Y18354202D01*
X20359513Y18329744D01*
X20324921Y18311660D01*
X20287476Y18300640D01*
X20287446Y18300637D01*
X20287428Y18300632D01*
X20248606Y18297099D01*
X20209833Y18301174D01*
X20209819Y18301178D01*
X20209784Y18301182D01*
X20172497Y18312724D01*
X20138161Y18331289D01*
X20108086Y18356170D01*
X20083416Y18386419D01*
X20065091Y18420883D01*
X20053809Y18458250D01*
X20050000Y18497097D01*
X20050000Y19302903D01*
X20050019Y19305695D01*
X20054370Y19344485D01*
X20066173Y19381691D01*
X20084977Y19415896D01*
X20110067Y19445798D01*
X20140487Y19470256D01*
X20175079Y19488340D01*
X20212524Y19499360D01*
X20212554Y19499363D01*
X20212572Y19499368D01*
X20251394Y19502901D01*
X20290167Y19498826D01*
X20290167Y19498826D01*
G37*
G36*
X15290167Y19498826D02*
X15290181Y19498822D01*
X15290216Y19498818D01*
X15327503Y19487276D01*
X15361839Y19468711D01*
X15391914Y19443830D01*
X15416584Y19413581D01*
X15434909Y19379117D01*
X15446191Y19341750D01*
X15450000Y19302903D01*
X15450000Y18497097D01*
X15449981Y18494305D01*
X15445630Y18455515D01*
X15433827Y18418309D01*
X15415023Y18384104D01*
X15389933Y18354202D01*
X15359513Y18329744D01*
X15324921Y18311660D01*
X15287476Y18300640D01*
X15287446Y18300637D01*
X15287428Y18300632D01*
X15248606Y18297099D01*
X15209833Y18301174D01*
X15209819Y18301178D01*
X15209784Y18301182D01*
X15172497Y18312724D01*
X15138161Y18331289D01*
X15108086Y18356170D01*
X15083416Y18386419D01*
X15065091Y18420883D01*
X15053809Y18458250D01*
X15050000Y18497097D01*
X15050000Y19302903D01*
X15050019Y19305695D01*
X15054370Y19344485D01*
X15066173Y19381691D01*
X15084977Y19415896D01*
X15110067Y19445798D01*
X15140487Y19470256D01*
X15175079Y19488340D01*
X15212524Y19499360D01*
X15212554Y19499363D01*
X15212572Y19499368D01*
X15251394Y19502901D01*
X15290167Y19498826D01*
X15290167Y19498826D01*
G37*
G36*
X19290167Y19498826D02*
X19290181Y19498822D01*
X19290216Y19498818D01*
X19327503Y19487276D01*
X19361839Y19468711D01*
X19391914Y19443830D01*
X19416584Y19413581D01*
X19434909Y19379117D01*
X19446191Y19341750D01*
X19450000Y19302903D01*
X19450000Y18497097D01*
X19449981Y18494305D01*
X19445630Y18455515D01*
X19433827Y18418309D01*
X19415023Y18384104D01*
X19389933Y18354202D01*
X19359513Y18329744D01*
X19324921Y18311660D01*
X19287476Y18300640D01*
X19287446Y18300637D01*
X19287428Y18300632D01*
X19248606Y18297099D01*
X19209833Y18301174D01*
X19209819Y18301178D01*
X19209784Y18301182D01*
X19172497Y18312724D01*
X19138161Y18331289D01*
X19108086Y18356170D01*
X19083416Y18386419D01*
X19065091Y18420883D01*
X19053809Y18458250D01*
X19050000Y18497097D01*
X19050000Y19302903D01*
X19050019Y19305695D01*
X19054370Y19344485D01*
X19066173Y19381691D01*
X19084977Y19415896D01*
X19110067Y19445798D01*
X19140487Y19470256D01*
X19175079Y19488340D01*
X19212524Y19499360D01*
X19212554Y19499363D01*
X19212572Y19499368D01*
X19251394Y19502901D01*
X19290167Y19498826D01*
X19290167Y19498826D01*
G37*
G36*
X18790167Y19498826D02*
X18790181Y19498822D01*
X18790216Y19498818D01*
X18827503Y19487276D01*
X18861839Y19468711D01*
X18891914Y19443830D01*
X18916584Y19413581D01*
X18934909Y19379117D01*
X18946191Y19341750D01*
X18950000Y19302903D01*
X18950000Y18497097D01*
X18949981Y18494305D01*
X18945630Y18455515D01*
X18933827Y18418309D01*
X18915023Y18384104D01*
X18889933Y18354202D01*
X18859513Y18329744D01*
X18824921Y18311660D01*
X18787476Y18300640D01*
X18787446Y18300637D01*
X18787428Y18300632D01*
X18748606Y18297099D01*
X18709833Y18301174D01*
X18709819Y18301178D01*
X18709784Y18301182D01*
X18672497Y18312724D01*
X18638161Y18331289D01*
X18608086Y18356170D01*
X18583416Y18386419D01*
X18565091Y18420883D01*
X18553809Y18458250D01*
X18550000Y18497097D01*
X18550000Y19302903D01*
X18550019Y19305695D01*
X18554370Y19344485D01*
X18566173Y19381691D01*
X18584977Y19415896D01*
X18610067Y19445798D01*
X18640487Y19470256D01*
X18675079Y19488340D01*
X18712524Y19499360D01*
X18712554Y19499363D01*
X18712572Y19499368D01*
X18751394Y19502901D01*
X18790167Y19498826D01*
X18790167Y19498826D01*
G37*
G36*
X17290167Y19498826D02*
X17290181Y19498822D01*
X17290216Y19498818D01*
X17327503Y19487276D01*
X17361839Y19468711D01*
X17391914Y19443830D01*
X17416584Y19413581D01*
X17434909Y19379117D01*
X17446191Y19341750D01*
X17450000Y19302903D01*
X17450000Y18497097D01*
X17449981Y18494305D01*
X17445630Y18455515D01*
X17433827Y18418309D01*
X17415023Y18384104D01*
X17389933Y18354202D01*
X17359513Y18329744D01*
X17324921Y18311660D01*
X17287476Y18300640D01*
X17287446Y18300637D01*
X17287428Y18300632D01*
X17248606Y18297099D01*
X17209833Y18301174D01*
X17209819Y18301178D01*
X17209784Y18301182D01*
X17172497Y18312724D01*
X17138161Y18331289D01*
X17108086Y18356170D01*
X17083416Y18386419D01*
X17065091Y18420883D01*
X17053809Y18458250D01*
X17050000Y18497097D01*
X17050000Y19302903D01*
X17050019Y19305695D01*
X17054370Y19344485D01*
X17066173Y19381691D01*
X17084977Y19415896D01*
X17110067Y19445798D01*
X17140487Y19470256D01*
X17175079Y19488340D01*
X17212524Y19499360D01*
X17212554Y19499363D01*
X17212572Y19499368D01*
X17251394Y19502901D01*
X17290167Y19498826D01*
X17290167Y19498826D01*
G37*
G36*
X15790167Y19498826D02*
X15790181Y19498822D01*
X15790216Y19498818D01*
X15827503Y19487276D01*
X15861839Y19468711D01*
X15891914Y19443830D01*
X15916584Y19413581D01*
X15934909Y19379117D01*
X15946191Y19341750D01*
X15950000Y19302903D01*
X15950000Y18497097D01*
X15949981Y18494305D01*
X15945630Y18455515D01*
X15933827Y18418309D01*
X15915023Y18384104D01*
X15889933Y18354202D01*
X15859513Y18329744D01*
X15824921Y18311660D01*
X15787476Y18300640D01*
X15787446Y18300637D01*
X15787428Y18300632D01*
X15748606Y18297099D01*
X15709833Y18301174D01*
X15709819Y18301178D01*
X15709784Y18301182D01*
X15672497Y18312724D01*
X15638161Y18331289D01*
X15608086Y18356170D01*
X15583416Y18386419D01*
X15565091Y18420883D01*
X15553809Y18458250D01*
X15550000Y18497097D01*
X15550000Y19302903D01*
X15550019Y19305695D01*
X15554370Y19344485D01*
X15566173Y19381691D01*
X15584977Y19415896D01*
X15610067Y19445798D01*
X15640487Y19470256D01*
X15675079Y19488340D01*
X15712524Y19499360D01*
X15712554Y19499363D01*
X15712572Y19499368D01*
X15751394Y19502901D01*
X15790167Y19498826D01*
X15790167Y19498826D01*
G37*
G36*
X16790167Y19498826D02*
X16790181Y19498822D01*
X16790216Y19498818D01*
X16827503Y19487276D01*
X16861839Y19468711D01*
X16891914Y19443830D01*
X16916584Y19413581D01*
X16934909Y19379117D01*
X16946191Y19341750D01*
X16950000Y19302903D01*
X16950000Y18497097D01*
X16949981Y18494305D01*
X16945630Y18455515D01*
X16933827Y18418309D01*
X16915023Y18384104D01*
X16889933Y18354202D01*
X16859513Y18329744D01*
X16824921Y18311660D01*
X16787476Y18300640D01*
X16787446Y18300637D01*
X16787428Y18300632D01*
X16748606Y18297099D01*
X16709833Y18301174D01*
X16709819Y18301178D01*
X16709784Y18301182D01*
X16672497Y18312724D01*
X16638161Y18331289D01*
X16608086Y18356170D01*
X16583416Y18386419D01*
X16565091Y18420883D01*
X16553809Y18458250D01*
X16550000Y18497097D01*
X16550000Y19302903D01*
X16550019Y19305695D01*
X16554370Y19344485D01*
X16566173Y19381691D01*
X16584977Y19415896D01*
X16610067Y19445798D01*
X16640487Y19470256D01*
X16675079Y19488340D01*
X16712524Y19499360D01*
X16712554Y19499363D01*
X16712572Y19499368D01*
X16751394Y19502901D01*
X16790167Y19498826D01*
X16790167Y19498826D01*
G37*
G36*
X16290167Y19498826D02*
X16290181Y19498822D01*
X16290216Y19498818D01*
X16327503Y19487276D01*
X16361839Y19468711D01*
X16391914Y19443830D01*
X16416584Y19413581D01*
X16434909Y19379117D01*
X16446191Y19341750D01*
X16450000Y19302903D01*
X16450000Y18497097D01*
X16449981Y18494305D01*
X16445630Y18455515D01*
X16433827Y18418309D01*
X16415023Y18384104D01*
X16389933Y18354202D01*
X16359513Y18329744D01*
X16324921Y18311660D01*
X16287476Y18300640D01*
X16287446Y18300637D01*
X16287428Y18300632D01*
X16248606Y18297099D01*
X16209833Y18301174D01*
X16209819Y18301178D01*
X16209784Y18301182D01*
X16172497Y18312724D01*
X16138161Y18331289D01*
X16108086Y18356170D01*
X16083416Y18386419D01*
X16065091Y18420883D01*
X16053809Y18458250D01*
X16050000Y18497097D01*
X16050000Y19302903D01*
X16050019Y19305695D01*
X16054370Y19344485D01*
X16066173Y19381691D01*
X16084977Y19415896D01*
X16110067Y19445798D01*
X16140487Y19470256D01*
X16175079Y19488340D01*
X16212524Y19499360D01*
X16212554Y19499363D01*
X16212572Y19499368D01*
X16251394Y19502901D01*
X16290167Y19498826D01*
X16290167Y19498826D01*
G37*
G36*
X18290167Y19498826D02*
X18290181Y19498822D01*
X18290216Y19498818D01*
X18327503Y19487276D01*
X18361839Y19468711D01*
X18391914Y19443830D01*
X18416584Y19413581D01*
X18434909Y19379117D01*
X18446191Y19341750D01*
X18450000Y19302903D01*
X18450000Y18497097D01*
X18449981Y18494305D01*
X18445630Y18455515D01*
X18433827Y18418309D01*
X18415023Y18384104D01*
X18389933Y18354202D01*
X18359513Y18329744D01*
X18324921Y18311660D01*
X18287476Y18300640D01*
X18287446Y18300637D01*
X18287428Y18300632D01*
X18248606Y18297099D01*
X18209833Y18301174D01*
X18209819Y18301178D01*
X18209784Y18301182D01*
X18172497Y18312724D01*
X18138161Y18331289D01*
X18108086Y18356170D01*
X18083416Y18386419D01*
X18065091Y18420883D01*
X18053809Y18458250D01*
X18050000Y18497097D01*
X18050000Y19302903D01*
X18050019Y19305695D01*
X18054370Y19344485D01*
X18066173Y19381691D01*
X18084977Y19415896D01*
X18110067Y19445798D01*
X18140487Y19470256D01*
X18175079Y19488340D01*
X18212524Y19499360D01*
X18212554Y19499363D01*
X18212572Y19499368D01*
X18251394Y19502901D01*
X18290167Y19498826D01*
X18290167Y19498826D01*
G37*
G36*
X7285000Y18515000D02*
X6415000Y18515000D01*
X6415000Y19385000D01*
X7285000Y19385000D01*
X7285000Y18515000D01*
X7285000Y18515000D01*
G37*
G36*
X28150000Y18825000D02*
X27350000Y18825000D01*
X27350000Y19965000D01*
X28150000Y19965000D01*
X28150000Y18825000D01*
X28150000Y18825000D01*
G37*
G36*
X29570000Y18825000D02*
X28770000Y18825000D01*
X28770000Y19965000D01*
X29570000Y19965000D01*
X29570000Y18825000D01*
X29570000Y18825000D01*
G37*
G36*
X34100000Y19450000D02*
X32600000Y19450000D01*
X32600000Y21150000D01*
X34100000Y21150000D01*
X34100000Y19450000D01*
X34100000Y19450000D01*
G37*
G36*
X32100000Y19450000D02*
X30600000Y19450000D01*
X30600000Y21150000D01*
X32100000Y21150000D01*
X32100000Y19450000D01*
X32100000Y19450000D01*
G37*
G36*
X15325000Y19895000D02*
X14175000Y19895000D01*
X14175000Y20945000D01*
X15325000Y20945000D01*
X15325000Y19895000D01*
X15325000Y19895000D01*
G37*
G36*
X15325000Y21555000D02*
X14175000Y21555000D01*
X14175000Y22605000D01*
X15325000Y22605000D01*
X15325000Y21555000D01*
X15325000Y21555000D01*
G37*
G36*
X36905000Y26319950D02*
X36906978Y26306034D01*
X36912754Y26293220D01*
X36921871Y26282523D01*
X36933607Y26274789D01*
X36947034Y26270631D01*
X36954950Y26270000D01*
X39955000Y26270000D01*
X39955000Y21920000D01*
X36954950Y21920000D01*
X36941034Y21918022D01*
X36928220Y21912246D01*
X36917523Y21903129D01*
X36909789Y21891393D01*
X36905631Y21877966D01*
X36905000Y21870050D01*
X36905000Y21670000D01*
X35255000Y21670000D01*
X35255000Y26520000D01*
X36905000Y26520000D01*
X36905000Y26319950D01*
X36905000Y26319950D01*
G37*
G36*
X42225000Y21765000D02*
X40925000Y21765000D01*
X40925000Y22615000D01*
X42225000Y22615000D01*
X42225000Y21765000D01*
X42225000Y21765000D01*
G37*
G36*
X47368164Y24124252D02*
X47584284Y24079889D01*
X47787668Y23994395D01*
X47970571Y23871025D01*
X48126035Y23714472D01*
X48248124Y23530713D01*
X48332197Y23326737D01*
X48374982Y23110656D01*
X48374982Y23110646D01*
X48375048Y23110312D01*
X48371529Y22858318D01*
X48371453Y22857984D01*
X48371453Y22857975D01*
X48322652Y22643176D01*
X48232916Y22441624D01*
X48105741Y22261342D01*
X47945974Y22109199D01*
X47759694Y21990981D01*
X47553997Y21911197D01*
X47336727Y21872887D01*
X47116152Y21877506D01*
X46900672Y21924883D01*
X46698500Y22013210D01*
X46517337Y22139121D01*
X46364076Y22297827D01*
X46244564Y22483275D01*
X46163346Y22688408D01*
X46123519Y22905406D01*
X46126600Y23126011D01*
X46172469Y23341810D01*
X46259383Y23544594D01*
X46384030Y23726639D01*
X46541659Y23881000D01*
X46726266Y24001804D01*
X46930831Y24084453D01*
X47147543Y24125793D01*
X47368164Y24124252D01*
X47368164Y24124252D01*
G37*
G36*
X22675000Y21925000D02*
X21925000Y21925000D01*
X21925000Y22875000D01*
X22675000Y22875000D01*
X22675000Y21925000D01*
X22675000Y21925000D01*
G37*
G36*
X25710000Y21930000D02*
X24910000Y21930000D01*
X24910000Y23070000D01*
X25710000Y23070000D01*
X25710000Y21930000D01*
X25710000Y21930000D01*
G37*
G36*
X24290000Y21930000D02*
X23490000Y21930000D01*
X23490000Y23070000D01*
X24290000Y23070000D01*
X24290000Y21930000D01*
X24290000Y21930000D01*
G37*
G36*
X42225000Y23035000D02*
X40925000Y23035000D01*
X40925000Y23885000D01*
X42225000Y23885000D01*
X42225000Y23035000D01*
X42225000Y23035000D01*
G37*
G36*
X29775000Y23325000D02*
X29225000Y23325000D01*
X29225000Y24075000D01*
X29775000Y24075000D01*
X29775000Y23325000D01*
X29775000Y23325000D01*
G37*
G36*
X28875000Y23325000D02*
X28325000Y23325000D01*
X28325000Y24075000D01*
X28875000Y24075000D01*
X28875000Y23325000D01*
X28875000Y23325000D01*
G37*
G36*
X32290000Y23430000D02*
X31490000Y23430000D01*
X31490000Y24570000D01*
X32290000Y24570000D01*
X32290000Y23430000D01*
X32290000Y23430000D01*
G37*
G36*
X33710000Y23430000D02*
X32910000Y23430000D01*
X32910000Y24570000D01*
X33710000Y24570000D01*
X33710000Y23430000D01*
X33710000Y23430000D01*
G37*
G36*
X25710000Y23530000D02*
X24910000Y23530000D01*
X24910000Y24670000D01*
X25710000Y24670000D01*
X25710000Y23530000D01*
X25710000Y23530000D01*
G37*
G36*
X24290000Y23530000D02*
X23490000Y23530000D01*
X23490000Y24670000D01*
X24290000Y24670000D01*
X24290000Y23530000D01*
X24290000Y23530000D01*
G37*
G36*
X42225000Y24305000D02*
X40925000Y24305000D01*
X40925000Y25155000D01*
X42225000Y25155000D01*
X42225000Y24305000D01*
X42225000Y24305000D01*
G37*
G36*
X22675000Y24325000D02*
X21925000Y24325000D01*
X21925000Y25275000D01*
X22675000Y25275000D01*
X22675000Y24325000D01*
X22675000Y24325000D01*
G37*
G36*
X21975000Y25425000D02*
X21225000Y25425000D01*
X21225000Y26375000D01*
X21975000Y26375000D01*
X21975000Y25425000D01*
X21975000Y25425000D01*
G37*
G36*
X42225000Y25575000D02*
X40925000Y25575000D01*
X40925000Y26425000D01*
X42225000Y26425000D01*
X42225000Y25575000D01*
X42225000Y25575000D01*
G37*
G36*
X25110000Y26130000D02*
X24310000Y26130000D01*
X24310000Y27270000D01*
X25110000Y27270000D01*
X25110000Y26130000D01*
X25110000Y26130000D01*
G37*
G36*
X23690000Y26130000D02*
X22890000Y26130000D01*
X22890000Y27270000D01*
X23690000Y27270000D01*
X23690000Y26130000D01*
X23690000Y26130000D01*
G37*
G36*
X17866653Y28224453D02*
X18025143Y28191919D01*
X18174290Y28129224D01*
X18308422Y28038751D01*
X18422425Y27923949D01*
X18511957Y27789191D01*
X18573612Y27639606D01*
X18604970Y27481239D01*
X18604970Y27481229D01*
X18605036Y27480895D01*
X18602455Y27296100D01*
X18602379Y27295766D01*
X18602379Y27295757D01*
X18566614Y27138330D01*
X18500804Y26990521D01*
X18407544Y26858316D01*
X18290383Y26746746D01*
X18153776Y26660052D01*
X18002931Y26601543D01*
X17843600Y26573449D01*
X17681845Y26576837D01*
X17523825Y26611580D01*
X17375566Y26676353D01*
X17242713Y26768688D01*
X17130321Y26885073D01*
X17042679Y27021068D01*
X16983119Y27171499D01*
X16953912Y27330631D01*
X16956172Y27492409D01*
X16989809Y27650661D01*
X17053547Y27799373D01*
X17144952Y27932867D01*
X17260549Y28046067D01*
X17395928Y28134657D01*
X17545943Y28195266D01*
X17704864Y28225583D01*
X17866653Y28224453D01*
X17866653Y28224453D01*
G37*
G36*
X12786653Y28224453D02*
X12945143Y28191919D01*
X13094290Y28129224D01*
X13228422Y28038751D01*
X13342425Y27923949D01*
X13431957Y27789191D01*
X13493612Y27639606D01*
X13524970Y27481239D01*
X13524970Y27481229D01*
X13525036Y27480895D01*
X13522455Y27296100D01*
X13522379Y27295766D01*
X13522379Y27295757D01*
X13486614Y27138330D01*
X13420804Y26990521D01*
X13327544Y26858316D01*
X13210383Y26746746D01*
X13073776Y26660052D01*
X12922931Y26601543D01*
X12763600Y26573449D01*
X12601845Y26576837D01*
X12443825Y26611580D01*
X12295566Y26676353D01*
X12162713Y26768688D01*
X12050321Y26885073D01*
X11962679Y27021068D01*
X11903119Y27171499D01*
X11873912Y27330631D01*
X11876172Y27492409D01*
X11909809Y27650661D01*
X11973547Y27799373D01*
X12064952Y27932867D01*
X12180549Y28046067D01*
X12315928Y28134657D01*
X12465943Y28195266D01*
X12624864Y28225583D01*
X12786653Y28224453D01*
X12786653Y28224453D01*
G37*
G36*
X10246653Y28224453D02*
X10405143Y28191919D01*
X10554290Y28129224D01*
X10688422Y28038751D01*
X10802425Y27923949D01*
X10891957Y27789191D01*
X10953612Y27639606D01*
X10984970Y27481239D01*
X10984970Y27481229D01*
X10985036Y27480895D01*
X10982455Y27296100D01*
X10982379Y27295766D01*
X10982379Y27295757D01*
X10946614Y27138330D01*
X10880804Y26990521D01*
X10787544Y26858316D01*
X10670383Y26746746D01*
X10533776Y26660052D01*
X10382931Y26601543D01*
X10223600Y26573449D01*
X10061845Y26576837D01*
X9903825Y26611580D01*
X9755566Y26676353D01*
X9622713Y26768688D01*
X9510321Y26885073D01*
X9422679Y27021068D01*
X9363119Y27171499D01*
X9333912Y27330631D01*
X9336172Y27492409D01*
X9369809Y27650661D01*
X9433547Y27799373D01*
X9524952Y27932867D01*
X9640549Y28046067D01*
X9775928Y28134657D01*
X9925943Y28195266D01*
X10084864Y28225583D01*
X10246653Y28224453D01*
X10246653Y28224453D01*
G37*
G36*
X15326653Y28224453D02*
X15485143Y28191919D01*
X15634290Y28129224D01*
X15768422Y28038751D01*
X15882425Y27923949D01*
X15971957Y27789191D01*
X16033612Y27639606D01*
X16064970Y27481239D01*
X16064970Y27481229D01*
X16065036Y27480895D01*
X16062455Y27296100D01*
X16062379Y27295766D01*
X16062379Y27295757D01*
X16026614Y27138330D01*
X15960804Y26990521D01*
X15867544Y26858316D01*
X15750383Y26746746D01*
X15613776Y26660052D01*
X15462931Y26601543D01*
X15303600Y26573449D01*
X15141845Y26576837D01*
X14983825Y26611580D01*
X14835566Y26676353D01*
X14702713Y26768688D01*
X14590321Y26885073D01*
X14502679Y27021068D01*
X14443119Y27171499D01*
X14413912Y27330631D01*
X14416172Y27492409D01*
X14449809Y27650661D01*
X14513547Y27799373D01*
X14604952Y27932867D01*
X14720549Y28046067D01*
X14855928Y28134657D01*
X15005943Y28195266D01*
X15164864Y28225583D01*
X15326653Y28224453D01*
X15326653Y28224453D01*
G37*
G36*
X8445000Y26575000D02*
X6795000Y26575000D01*
X6795000Y28225000D01*
X8445000Y28225000D01*
X8445000Y26575000D01*
X8445000Y26575000D01*
G37*
G36*
X32100000Y26850000D02*
X30600000Y26850000D01*
X30600000Y28550000D01*
X32100000Y28550000D01*
X32100000Y26850000D01*
X32100000Y26850000D01*
G37*
G36*
X34100000Y26850000D02*
X32600000Y26850000D01*
X32600000Y28550000D01*
X34100000Y28550000D01*
X34100000Y26850000D01*
X34100000Y26850000D01*
G37*
G36*
X3149674Y30424053D02*
X3423426Y30367860D01*
X3681045Y30259567D01*
X3912727Y30103296D01*
X4109641Y29905001D01*
X4264290Y29672236D01*
X4370783Y29413866D01*
X4424996Y29140072D01*
X4424996Y29140057D01*
X4425061Y29139728D01*
X4420604Y28820536D01*
X4420528Y28820202D01*
X4420528Y28820193D01*
X4358694Y28548025D01*
X4245025Y28292722D01*
X4083939Y28064367D01*
X3881567Y27871652D01*
X3645612Y27721909D01*
X3385064Y27620849D01*
X3109854Y27572323D01*
X2830459Y27578175D01*
X2557516Y27638186D01*
X2301435Y27750065D01*
X2071960Y27909554D01*
X1877830Y28110581D01*
X1726448Y28345482D01*
X1623572Y28605316D01*
X1573124Y28880181D01*
X1577026Y29159614D01*
X1635128Y29432960D01*
X1745219Y29689824D01*
X1903101Y29920405D01*
X2102768Y30115933D01*
X2336605Y30268952D01*
X2595718Y30373640D01*
X2870222Y30426004D01*
X3149674Y30424053D01*
X3149674Y30424053D01*
G37*
G36*
X46149674Y30424053D02*
X46423426Y30367860D01*
X46681045Y30259567D01*
X46912727Y30103296D01*
X47109641Y29905001D01*
X47264290Y29672236D01*
X47370783Y29413866D01*
X47424996Y29140072D01*
X47424996Y29140057D01*
X47425061Y29139728D01*
X47420604Y28820536D01*
X47420528Y28820202D01*
X47420528Y28820193D01*
X47358694Y28548025D01*
X47245025Y28292722D01*
X47083939Y28064367D01*
X46881567Y27871652D01*
X46645612Y27721909D01*
X46385064Y27620849D01*
X46109854Y27572323D01*
X45830459Y27578175D01*
X45557516Y27638186D01*
X45301435Y27750065D01*
X45071960Y27909554D01*
X44877830Y28110581D01*
X44726448Y28345482D01*
X44623572Y28605316D01*
X44573124Y28880181D01*
X44577026Y29159614D01*
X44635128Y29432960D01*
X44745219Y29689824D01*
X44903101Y29920405D01*
X45102768Y30115933D01*
X45336605Y30268952D01*
X45595718Y30373640D01*
X45870222Y30426004D01*
X46149674Y30424053D01*
X46149674Y30424053D01*
G37*
G36*
X21975000Y27825000D02*
X21225000Y27825000D01*
X21225000Y28775000D01*
X21975000Y28775000D01*
X21975000Y27825000D01*
X21975000Y27825000D01*
G37*
G36*
X15326653Y30764453D02*
X15485143Y30731919D01*
X15634290Y30669224D01*
X15768422Y30578751D01*
X15882425Y30463949D01*
X15971957Y30329191D01*
X16033612Y30179606D01*
X16064970Y30021239D01*
X16064970Y30021229D01*
X16065036Y30020895D01*
X16062455Y29836100D01*
X16062379Y29835766D01*
X16062379Y29835757D01*
X16026614Y29678330D01*
X15960804Y29530521D01*
X15867544Y29398316D01*
X15750383Y29286746D01*
X15613776Y29200052D01*
X15462931Y29141543D01*
X15303600Y29113449D01*
X15141845Y29116837D01*
X14983825Y29151580D01*
X14835566Y29216353D01*
X14702713Y29308688D01*
X14590321Y29425073D01*
X14502679Y29561068D01*
X14443119Y29711499D01*
X14413912Y29870631D01*
X14416172Y30032409D01*
X14449809Y30190661D01*
X14513547Y30339373D01*
X14604952Y30472867D01*
X14720549Y30586067D01*
X14855928Y30674657D01*
X15005943Y30735266D01*
X15164864Y30765583D01*
X15326653Y30764453D01*
X15326653Y30764453D01*
G37*
G36*
X20406653Y30764453D02*
X20565143Y30731919D01*
X20714290Y30669224D01*
X20848422Y30578751D01*
X20962425Y30463949D01*
X21051957Y30329191D01*
X21113612Y30179606D01*
X21144970Y30021239D01*
X21144970Y30021229D01*
X21145036Y30020895D01*
X21142455Y29836100D01*
X21142379Y29835766D01*
X21142379Y29835757D01*
X21106614Y29678330D01*
X21040804Y29530521D01*
X20947544Y29398316D01*
X20830383Y29286746D01*
X20693776Y29200052D01*
X20542931Y29141543D01*
X20383600Y29113449D01*
X20221845Y29116837D01*
X20063825Y29151580D01*
X19915566Y29216353D01*
X19782713Y29308688D01*
X19670321Y29425073D01*
X19582679Y29561068D01*
X19523119Y29711499D01*
X19493912Y29870631D01*
X19496172Y30032409D01*
X19529809Y30190661D01*
X19593547Y30339373D01*
X19684952Y30472867D01*
X19800549Y30586067D01*
X19935928Y30674657D01*
X20085943Y30735266D01*
X20244864Y30765583D01*
X20406653Y30764453D01*
X20406653Y30764453D01*
G37*
G36*
X17866653Y30764453D02*
X18025143Y30731919D01*
X18174290Y30669224D01*
X18308422Y30578751D01*
X18422425Y30463949D01*
X18511957Y30329191D01*
X18573612Y30179606D01*
X18604970Y30021239D01*
X18604970Y30021229D01*
X18605036Y30020895D01*
X18602455Y29836100D01*
X18602379Y29835766D01*
X18602379Y29835757D01*
X18566614Y29678330D01*
X18500804Y29530521D01*
X18407544Y29398316D01*
X18290383Y29286746D01*
X18153776Y29200052D01*
X18002931Y29141543D01*
X17843600Y29113449D01*
X17681845Y29116837D01*
X17523825Y29151580D01*
X17375566Y29216353D01*
X17242713Y29308688D01*
X17130321Y29425073D01*
X17042679Y29561068D01*
X16983119Y29711499D01*
X16953912Y29870631D01*
X16956172Y30032409D01*
X16989809Y30190661D01*
X17053547Y30339373D01*
X17144952Y30472867D01*
X17260549Y30586067D01*
X17395928Y30674657D01*
X17545943Y30735266D01*
X17704864Y30765583D01*
X17866653Y30764453D01*
X17866653Y30764453D01*
G37*
G36*
X12786653Y30764453D02*
X12945143Y30731919D01*
X13094290Y30669224D01*
X13228422Y30578751D01*
X13342425Y30463949D01*
X13431957Y30329191D01*
X13493612Y30179606D01*
X13524970Y30021239D01*
X13524970Y30021229D01*
X13525036Y30020895D01*
X13522455Y29836100D01*
X13522379Y29835766D01*
X13522379Y29835757D01*
X13486614Y29678330D01*
X13420804Y29530521D01*
X13327544Y29398316D01*
X13210383Y29286746D01*
X13073776Y29200052D01*
X12922931Y29141543D01*
X12763600Y29113449D01*
X12601845Y29116837D01*
X12443825Y29151580D01*
X12295566Y29216353D01*
X12162713Y29308688D01*
X12050321Y29425073D01*
X11962679Y29561068D01*
X11903119Y29711499D01*
X11873912Y29870631D01*
X11876172Y30032409D01*
X11909809Y30190661D01*
X11973547Y30339373D01*
X12064952Y30472867D01*
X12180549Y30586067D01*
X12315928Y30674657D01*
X12465943Y30735266D01*
X12624864Y30765583D01*
X12786653Y30764453D01*
X12786653Y30764453D01*
G37*
G36*
X10246653Y30764453D02*
X10405143Y30731919D01*
X10554290Y30669224D01*
X10688422Y30578751D01*
X10802425Y30463949D01*
X10891957Y30329191D01*
X10953612Y30179606D01*
X10984970Y30021239D01*
X10984970Y30021229D01*
X10985036Y30020895D01*
X10982455Y29836100D01*
X10982379Y29835766D01*
X10982379Y29835757D01*
X10946614Y29678330D01*
X10880804Y29530521D01*
X10787544Y29398316D01*
X10670383Y29286746D01*
X10533776Y29200052D01*
X10382931Y29141543D01*
X10223600Y29113449D01*
X10061845Y29116837D01*
X9903825Y29151580D01*
X9755566Y29216353D01*
X9622713Y29308688D01*
X9510321Y29425073D01*
X9422679Y29561068D01*
X9363119Y29711499D01*
X9333912Y29870631D01*
X9336172Y30032409D01*
X9369809Y30190661D01*
X9433547Y30339373D01*
X9524952Y30472867D01*
X9640549Y30586067D01*
X9775928Y30674657D01*
X9925943Y30735266D01*
X10084864Y30765583D01*
X10246653Y30764453D01*
X10246653Y30764453D01*
G37*
G36*
X8445000Y29115000D02*
X6795000Y29115000D01*
X6795000Y30765000D01*
X8445000Y30765000D01*
X8445000Y29115000D01*
X8445000Y29115000D01*
G37*
G36*
X29668164Y31624252D02*
X29884284Y31579889D01*
X30087668Y31494395D01*
X30270571Y31371025D01*
X30426035Y31214472D01*
X30548124Y31030713D01*
X30632197Y30826737D01*
X30674982Y30610656D01*
X30674982Y30610646D01*
X30675048Y30610312D01*
X30671529Y30358318D01*
X30671453Y30357984D01*
X30671453Y30357975D01*
X30622652Y30143176D01*
X30532916Y29941624D01*
X30405741Y29761342D01*
X30245974Y29609199D01*
X30059694Y29490981D01*
X29853997Y29411197D01*
X29636727Y29372887D01*
X29416152Y29377506D01*
X29200672Y29424883D01*
X28998500Y29513210D01*
X28817337Y29639121D01*
X28664076Y29797827D01*
X28544564Y29983275D01*
X28463346Y30188408D01*
X28423519Y30405406D01*
X28426600Y30626011D01*
X28472469Y30841810D01*
X28559383Y31044594D01*
X28684030Y31226639D01*
X28841659Y31381000D01*
X29026266Y31501804D01*
X29230831Y31584453D01*
X29447543Y31625793D01*
X29668164Y31624252D01*
X29668164Y31624252D01*
G37*
G36*
X34868164Y31624252D02*
X35084284Y31579889D01*
X35287668Y31494395D01*
X35470571Y31371025D01*
X35626035Y31214472D01*
X35748124Y31030713D01*
X35832197Y30826737D01*
X35874982Y30610656D01*
X35874982Y30610646D01*
X35875048Y30610312D01*
X35871529Y30358318D01*
X35871453Y30357984D01*
X35871453Y30357975D01*
X35822652Y30143176D01*
X35732916Y29941624D01*
X35605741Y29761342D01*
X35445974Y29609199D01*
X35259694Y29490981D01*
X35053997Y29411197D01*
X34836727Y29372887D01*
X34616152Y29377506D01*
X34400672Y29424883D01*
X34198500Y29513210D01*
X34017337Y29639121D01*
X33864076Y29797827D01*
X33744564Y29983275D01*
X33663346Y30188408D01*
X33623519Y30405406D01*
X33626600Y30626011D01*
X33672469Y30841810D01*
X33759383Y31044594D01*
X33884030Y31226639D01*
X34041659Y31381000D01*
X34226266Y31501804D01*
X34430831Y31584453D01*
X34647543Y31625793D01*
X34868164Y31624252D01*
X34868164Y31624252D01*
G37*
G36*
X36826150Y31474519D02*
X36965429Y31445929D01*
X37096498Y31390833D01*
X37214371Y31311327D01*
X37314555Y31210440D01*
X37393235Y31092017D01*
X37447417Y30960563D01*
X37474966Y30821434D01*
X37474966Y30821419D01*
X37475031Y30821090D01*
X37472763Y30658694D01*
X37472688Y30658365D01*
X37472688Y30658352D01*
X37441266Y30520046D01*
X37383436Y30390156D01*
X37301480Y30273977D01*
X37198516Y30175926D01*
X37078470Y30099742D01*
X36945909Y30048325D01*
X36805891Y30023637D01*
X36663743Y30026614D01*
X36524876Y30057146D01*
X36394592Y30114066D01*
X36277836Y30195213D01*
X36179070Y30297488D01*
X36102051Y30416998D01*
X36049711Y30549196D01*
X36024044Y30689039D01*
X36026030Y30831208D01*
X36055589Y30970277D01*
X36111602Y31100965D01*
X36191927Y31218276D01*
X36293513Y31317756D01*
X36412481Y31395608D01*
X36544314Y31448871D01*
X36683971Y31475512D01*
X36826150Y31474519D01*
X36826150Y31474519D01*
G37*
G36*
X31826150Y31524519D02*
X31965429Y31495929D01*
X32096498Y31440833D01*
X32214371Y31361327D01*
X32314555Y31260440D01*
X32393235Y31142017D01*
X32447417Y31010563D01*
X32474966Y30871434D01*
X32474966Y30871419D01*
X32475031Y30871090D01*
X32472763Y30708694D01*
X32472688Y30708365D01*
X32472688Y30708352D01*
X32441266Y30570046D01*
X32383436Y30440156D01*
X32301480Y30323977D01*
X32198516Y30225926D01*
X32078470Y30149742D01*
X31945909Y30098325D01*
X31805891Y30073637D01*
X31663743Y30076614D01*
X31524876Y30107146D01*
X31394592Y30164066D01*
X31277836Y30245213D01*
X31179070Y30347488D01*
X31102051Y30466998D01*
X31049711Y30599196D01*
X31024044Y30739039D01*
X31026030Y30881208D01*
X31055589Y31020277D01*
X31111602Y31150965D01*
X31191927Y31268276D01*
X31293513Y31367756D01*
X31412481Y31445608D01*
X31544314Y31498871D01*
X31683971Y31525512D01*
X31826150Y31524519D01*
X31826150Y31524519D01*
G37*
G36*
X24310000Y30130000D02*
X23510000Y30130000D01*
X23510000Y31270000D01*
X24310000Y31270000D01*
X24310000Y30130000D01*
X24310000Y30130000D01*
G37*
G36*
X22890000Y30130000D02*
X22090000Y30130000D01*
X22090000Y31270000D01*
X22890000Y31270000D01*
X22890000Y30130000D01*
X22890000Y30130000D01*
G37*
M02*
