M48
;DRILL file {KiCad 4.0.6-e0-6349~53~ubuntu16.04.1} date Sun Mar 19 23:26:42 2017
;FORMAT={3:3/ absolute / metric / suppress leading zeros}
FMAT,2
METRIC,TZ
T1C0.400
T2C0.800
T3C1.000
T4C1.500
%
G90
G05
M71
T1
X138050Y-91200
X138200Y-99200
X138250Y-88000
X138250Y-100500
X138250Y-104800
X139500Y-105800
X140350Y-98450
X140350Y-100150
X141250Y-89400
X141350Y-90600
X142000Y-97405
X142050Y-93905
X142050Y-95050
X142050Y-96350
X142500Y-98300
X142700Y-100000
X143050Y-93055
X143950Y-108400
X144000Y-98155
X144300Y-93205
X145200Y-98105
X145400Y-93205
X146350Y-98105
X146450Y-93205
X147000Y-87900
X147125Y-100094
X147200Y-89600
X147500Y-93405
X147650Y-99300
X147650Y-97755
X148485Y-93013
X148750Y-94055
X148850Y-108400
X149000Y-104000
X149244Y-92363
X149750Y-91325
X149906Y-93112
X150250Y-102500
X150464Y-101050
X151769Y-102683
X151800Y-98500
X151841Y-95631
X152950Y-88400
X153000Y-99755
X153500Y-95505
X153725Y-92850
X153733Y-91157
X153950Y-88100
X154344Y-89256
X154639Y-91664
X155067Y-89947
X155438Y-99998
X155700Y-110400
X156170Y-95225
X156200Y-105705
X156437Y-99950
X156450Y-98100
X156894Y-107531
X157400Y-105800
X158125Y-92720
X158199Y-107480
X159100Y-105505
X159150Y-93000
X159300Y-83400
X159576Y-104488
X159893Y-103475
X160050Y-110600
X160300Y-92999
X160300Y-83400
X160350Y-87600
X160537Y-104768
X160692Y-91550
X161550Y-87725
X161750Y-99900
X161825Y-92833
X161911Y-91829
X162100Y-83400
X162186Y-95891
X163000Y-101250
X163000Y-102050
X163250Y-111405
X163250Y-112205
X163600Y-82400
X163600Y-83200
X163600Y-84000
X163600Y-84800
X163800Y-101250
X163800Y-102050
X164050Y-111405
X164050Y-112205
X164400Y-82400
X164400Y-83200
X164400Y-84000
X164400Y-84800
X164600Y-101250
X164600Y-102050
X164850Y-111405
X164850Y-112205
X165200Y-84000
X165400Y-101250
X165400Y-102050
X165650Y-96700
X165650Y-111405
X165650Y-112205
X166000Y-84000
X166200Y-101250
X166200Y-102050
X166450Y-111405
X166450Y-112205
X166800Y-84000
X166950Y-95000
X166950Y-98100
X167000Y-87000
X167000Y-101250
X167000Y-102050
X167050Y-88750
X167050Y-105400
X167200Y-83200
X167250Y-108200
X167250Y-111405
X167250Y-112205
X167600Y-84000
X167800Y-101250
X167800Y-102050
X167950Y-107000
X168000Y-83200
X168050Y-111405
X168050Y-112205
X168400Y-84000
X168600Y-101250
X168600Y-102050
X168850Y-111405
X168850Y-112205
X171000Y-111000
X171150Y-92400
X171250Y-100000
X172550Y-85300
X172550Y-100400
X172987Y-93013
X173350Y-108400
X174750Y-100200
X175000Y-85100
X175150Y-93100
X175250Y-108400
X177550Y-93400
X177750Y-101000
X177850Y-85200
X179600Y-107000
X179750Y-87950
X179750Y-88750
X179750Y-89550
X179750Y-90350
X179750Y-91150
X179750Y-91950
X179750Y-92750
X179750Y-94650
X179750Y-95450
X179750Y-96250
X179750Y-97050
X179750Y-97850
X179750Y-98650
X179750Y-99450
X179750Y-101400
X179750Y-102200
X179750Y-103000
X179750Y-103800
X179750Y-104600
X179750Y-105400
X179750Y-106200
X180550Y-87950
X180550Y-88750
X180550Y-89550
X180550Y-90350
X180550Y-91150
X180550Y-91950
X180550Y-92750
X180550Y-94650
X180550Y-95450
X180550Y-96250
X180550Y-97050
X180550Y-97850
X180550Y-98650
X180550Y-99450
X180550Y-101400
X180550Y-102200
X180550Y-103000
X180550Y-103800
X180550Y-104600
X180550Y-105400
X180550Y-106200
X181350Y-87950
X181350Y-88750
X181350Y-89550
X181350Y-90350
X181350Y-91150
X181350Y-91950
X181350Y-92750
X181350Y-94650
X181350Y-95450
X181350Y-96250
X181350Y-97050
X181350Y-97850
X181350Y-98650
X181350Y-99450
X181350Y-101400
X181350Y-102200
X181350Y-103000
X181350Y-103800
X181350Y-104600
X181350Y-105400
X182150Y-87950
X182150Y-88750
X182150Y-89550
X182150Y-90350
X182150Y-91150
X182150Y-91950
X182150Y-92750
X182150Y-94650
X182150Y-95450
X182150Y-96250
X182150Y-97050
X182150Y-97850
X182150Y-98650
X182150Y-99450
X182150Y-101400
X182150Y-102200
X182150Y-103000
X182150Y-103800
X182150Y-104600
X182150Y-105400
T2
X168000Y-82200
X173000Y-82250
T3
X143870Y-83060
X143870Y-85600
X143870Y-111000
X146410Y-83060
X146410Y-85600
X146410Y-111000
X148950Y-83060
X148950Y-85600
X148950Y-111000
X151490Y-83060
X151490Y-85600
X151490Y-111000
X154030Y-83060
X154030Y-85600
X154030Y-111000
X156570Y-83060
T4
X165800Y-82500
X171000Y-82500
X183500Y-90000
X183500Y-97000
X183500Y-104500
T0
M30
