G04 #@! TF.FileFunction,Legend,Top*
%FSLAX46Y46*%
G04 Gerber Fmt 4.6, Leading zero omitted, Abs format (unit mm)*
G04 Created by KiCad (PCBNEW 4.0.6-e0-6349~53~ubuntu16.04.1) date Wed Mar  8 22:49:17 2017*
%MOMM*%
%LPD*%
G01*
G04 APERTURE LIST*
%ADD10C,0.100000*%
%ADD11C,0.150000*%
%ADD12C,0.200000*%
%ADD13C,0.250000*%
%ADD14C,0.010000*%
G04 APERTURE END LIST*
D10*
D11*
X157100000Y-110109523D02*
X157061905Y-110185714D01*
X157061905Y-110299999D01*
X157100000Y-110414285D01*
X157176190Y-110490476D01*
X157252381Y-110528571D01*
X157404762Y-110566666D01*
X157519048Y-110566666D01*
X157671429Y-110528571D01*
X157747619Y-110490476D01*
X157823810Y-110414285D01*
X157861905Y-110299999D01*
X157861905Y-110223809D01*
X157823810Y-110109523D01*
X157785714Y-110071428D01*
X157519048Y-110071428D01*
X157519048Y-110223809D01*
X157861905Y-109728571D02*
X157061905Y-109728571D01*
X157861905Y-109271428D01*
X157061905Y-109271428D01*
X157861905Y-108890476D02*
X157061905Y-108890476D01*
X157061905Y-108700000D01*
X157100000Y-108585714D01*
X157176190Y-108509523D01*
X157252381Y-108471428D01*
X157404762Y-108433333D01*
X157519048Y-108433333D01*
X157671429Y-108471428D01*
X157747619Y-108509523D01*
X157823810Y-108585714D01*
X157861905Y-108700000D01*
X157861905Y-108890476D01*
X155611905Y-110507143D02*
X154811905Y-110507143D01*
X155383333Y-110240476D01*
X154811905Y-109973809D01*
X155611905Y-109973809D01*
X154811905Y-109440476D02*
X154811905Y-109288095D01*
X154850000Y-109211904D01*
X154926190Y-109135714D01*
X155078571Y-109097619D01*
X155345238Y-109097619D01*
X155497619Y-109135714D01*
X155573810Y-109211904D01*
X155611905Y-109288095D01*
X155611905Y-109440476D01*
X155573810Y-109516666D01*
X155497619Y-109592857D01*
X155345238Y-109630952D01*
X155078571Y-109630952D01*
X154926190Y-109592857D01*
X154850000Y-109516666D01*
X154811905Y-109440476D01*
X155573810Y-108792857D02*
X155611905Y-108678571D01*
X155611905Y-108488095D01*
X155573810Y-108411905D01*
X155535714Y-108373809D01*
X155459524Y-108335714D01*
X155383333Y-108335714D01*
X155307143Y-108373809D01*
X155269048Y-108411905D01*
X155230952Y-108488095D01*
X155192857Y-108640476D01*
X155154762Y-108716667D01*
X155116667Y-108754762D01*
X155040476Y-108792857D01*
X154964286Y-108792857D01*
X154888095Y-108754762D01*
X154850000Y-108716667D01*
X154811905Y-108640476D01*
X154811905Y-108450000D01*
X154850000Y-108335714D01*
X155611905Y-107992857D02*
X154811905Y-107992857D01*
X148971429Y-110573810D02*
X149085715Y-110611905D01*
X149276191Y-110611905D01*
X149352381Y-110573810D01*
X149390477Y-110535714D01*
X149428572Y-110459524D01*
X149428572Y-110383333D01*
X149390477Y-110307143D01*
X149352381Y-110269048D01*
X149276191Y-110230952D01*
X149123810Y-110192857D01*
X149047619Y-110154762D01*
X149009524Y-110116667D01*
X148971429Y-110040476D01*
X148971429Y-109964286D01*
X149009524Y-109888095D01*
X149047619Y-109850000D01*
X149123810Y-109811905D01*
X149314286Y-109811905D01*
X149428572Y-109850000D01*
X150228572Y-110535714D02*
X150190477Y-110573810D01*
X150076191Y-110611905D01*
X150000001Y-110611905D01*
X149885715Y-110573810D01*
X149809524Y-110497619D01*
X149771429Y-110421429D01*
X149733334Y-110269048D01*
X149733334Y-110154762D01*
X149771429Y-110002381D01*
X149809524Y-109926190D01*
X149885715Y-109850000D01*
X150000001Y-109811905D01*
X150076191Y-109811905D01*
X150190477Y-109850000D01*
X150228572Y-109888095D01*
X150571429Y-110611905D02*
X150571429Y-109811905D01*
X151028572Y-110611905D02*
X150685715Y-110154762D01*
X151028572Y-109811905D02*
X150571429Y-110269048D01*
X145759524Y-110611905D02*
X145759524Y-109811905D01*
X146216667Y-110611905D01*
X146216667Y-109811905D01*
X146559524Y-110573810D02*
X146673810Y-110611905D01*
X146864286Y-110611905D01*
X146940476Y-110573810D01*
X146978572Y-110535714D01*
X147016667Y-110459524D01*
X147016667Y-110383333D01*
X146978572Y-110307143D01*
X146940476Y-110269048D01*
X146864286Y-110230952D01*
X146711905Y-110192857D01*
X146635714Y-110154762D01*
X146597619Y-110116667D01*
X146559524Y-110040476D01*
X146559524Y-109964286D01*
X146597619Y-109888095D01*
X146635714Y-109850000D01*
X146711905Y-109811905D01*
X146902381Y-109811905D01*
X147016667Y-109850000D01*
X147321429Y-110573810D02*
X147435715Y-110611905D01*
X147626191Y-110611905D01*
X147702381Y-110573810D01*
X147740477Y-110535714D01*
X147778572Y-110459524D01*
X147778572Y-110383333D01*
X147740477Y-110307143D01*
X147702381Y-110269048D01*
X147626191Y-110230952D01*
X147473810Y-110192857D01*
X147397619Y-110154762D01*
X147359524Y-110116667D01*
X147321429Y-110040476D01*
X147321429Y-109964286D01*
X147359524Y-109888095D01*
X147397619Y-109850000D01*
X147473810Y-109811905D01*
X147664286Y-109811905D01*
X147778572Y-109850000D01*
X153611905Y-110507143D02*
X152811905Y-110507143D01*
X153383333Y-110240476D01*
X152811905Y-109973809D01*
X153611905Y-109973809D01*
X153611905Y-109592857D02*
X152811905Y-109592857D01*
X153573810Y-109250000D02*
X153611905Y-109135714D01*
X153611905Y-108945238D01*
X153573810Y-108869048D01*
X153535714Y-108830952D01*
X153459524Y-108792857D01*
X153383333Y-108792857D01*
X153307143Y-108830952D01*
X153269048Y-108869048D01*
X153230952Y-108945238D01*
X153192857Y-109097619D01*
X153154762Y-109173810D01*
X153116667Y-109211905D01*
X153040476Y-109250000D01*
X152964286Y-109250000D01*
X152888095Y-109211905D01*
X152850000Y-109173810D01*
X152811905Y-109097619D01*
X152811905Y-108907143D01*
X152850000Y-108792857D01*
X152811905Y-108297619D02*
X152811905Y-108145238D01*
X152850000Y-108069047D01*
X152926190Y-107992857D01*
X153078571Y-107954762D01*
X153345238Y-107954762D01*
X153497619Y-107992857D01*
X153573810Y-108069047D01*
X153611905Y-108145238D01*
X153611905Y-108297619D01*
X153573810Y-108373809D01*
X153497619Y-108450000D01*
X153345238Y-108488095D01*
X153078571Y-108488095D01*
X152926190Y-108450000D01*
X152850000Y-108373809D01*
X152811905Y-108297619D01*
X154600000Y-86859523D02*
X154561905Y-86935714D01*
X154561905Y-87049999D01*
X154600000Y-87164285D01*
X154676190Y-87240476D01*
X154752381Y-87278571D01*
X154904762Y-87316666D01*
X155019048Y-87316666D01*
X155171429Y-87278571D01*
X155247619Y-87240476D01*
X155323810Y-87164285D01*
X155361905Y-87049999D01*
X155361905Y-86973809D01*
X155323810Y-86859523D01*
X155285714Y-86821428D01*
X155019048Y-86821428D01*
X155019048Y-86973809D01*
X155361905Y-86478571D02*
X154561905Y-86478571D01*
X155361905Y-86021428D01*
X154561905Y-86021428D01*
X155361905Y-85640476D02*
X154561905Y-85640476D01*
X154561905Y-85450000D01*
X154600000Y-85335714D01*
X154676190Y-85259523D01*
X154752381Y-85221428D01*
X154904762Y-85183333D01*
X155019048Y-85183333D01*
X155171429Y-85221428D01*
X155247619Y-85259523D01*
X155323810Y-85335714D01*
X155361905Y-85450000D01*
X155361905Y-85640476D01*
X152807143Y-88350000D02*
X152807143Y-87740476D01*
X153111905Y-88045238D02*
X152502381Y-88045238D01*
X152311905Y-87435714D02*
X152311905Y-86940476D01*
X152616667Y-87207143D01*
X152616667Y-87092857D01*
X152654762Y-87016667D01*
X152692857Y-86978571D01*
X152769048Y-86940476D01*
X152959524Y-86940476D01*
X153035714Y-86978571D01*
X153073810Y-87016667D01*
X153111905Y-87092857D01*
X153111905Y-87321429D01*
X153073810Y-87397619D01*
X153035714Y-87435714D01*
X153035714Y-86597619D02*
X153073810Y-86559524D01*
X153111905Y-86597619D01*
X153073810Y-86635714D01*
X153035714Y-86597619D01*
X153111905Y-86597619D01*
X152311905Y-86292857D02*
X152311905Y-85797619D01*
X152616667Y-86064286D01*
X152616667Y-85950000D01*
X152654762Y-85873810D01*
X152692857Y-85835714D01*
X152769048Y-85797619D01*
X152959524Y-85797619D01*
X153035714Y-85835714D01*
X153073810Y-85873810D01*
X153111905Y-85950000D01*
X153111905Y-86178572D01*
X153073810Y-86254762D01*
X153035714Y-86292857D01*
X152311905Y-85569048D02*
X153111905Y-85302381D01*
X152311905Y-85035714D01*
X150061905Y-88400000D02*
X149261905Y-88400000D01*
X149642857Y-88400000D02*
X149642857Y-87942857D01*
X150061905Y-87942857D02*
X149261905Y-87942857D01*
X149833333Y-87600000D02*
X149833333Y-87219048D01*
X150061905Y-87676191D02*
X149261905Y-87409524D01*
X150061905Y-87142857D01*
X150061905Y-86495238D02*
X150061905Y-86876191D01*
X149261905Y-86876191D01*
X150061905Y-85847619D02*
X150061905Y-86228572D01*
X149261905Y-86228572D01*
X149261905Y-85657143D02*
X149261905Y-85161905D01*
X149566667Y-85428572D01*
X149566667Y-85314286D01*
X149604762Y-85238096D01*
X149642857Y-85200000D01*
X149719048Y-85161905D01*
X149909524Y-85161905D01*
X149985714Y-85200000D01*
X150023810Y-85238096D01*
X150061905Y-85314286D01*
X150061905Y-85542858D01*
X150023810Y-85619048D01*
X149985714Y-85657143D01*
X147961905Y-88400000D02*
X147161905Y-88400000D01*
X147542857Y-88400000D02*
X147542857Y-87942857D01*
X147961905Y-87942857D02*
X147161905Y-87942857D01*
X147733333Y-87600000D02*
X147733333Y-87219048D01*
X147961905Y-87676191D02*
X147161905Y-87409524D01*
X147961905Y-87142857D01*
X147961905Y-86495238D02*
X147961905Y-86876191D01*
X147161905Y-86876191D01*
X147961905Y-85847619D02*
X147961905Y-86228572D01*
X147161905Y-86228572D01*
X147238095Y-85619048D02*
X147200000Y-85580953D01*
X147161905Y-85504762D01*
X147161905Y-85314286D01*
X147200000Y-85238096D01*
X147238095Y-85200000D01*
X147314286Y-85161905D01*
X147390476Y-85161905D01*
X147504762Y-85200000D01*
X147961905Y-85657143D01*
X147961905Y-85161905D01*
X145161905Y-88300000D02*
X144361905Y-88300000D01*
X144742857Y-88300000D02*
X144742857Y-87842857D01*
X145161905Y-87842857D02*
X144361905Y-87842857D01*
X144933333Y-87500000D02*
X144933333Y-87119048D01*
X145161905Y-87576191D02*
X144361905Y-87309524D01*
X145161905Y-87042857D01*
X145161905Y-86395238D02*
X145161905Y-86776191D01*
X144361905Y-86776191D01*
X145161905Y-85747619D02*
X145161905Y-86128572D01*
X144361905Y-86128572D01*
X145161905Y-85061905D02*
X145161905Y-85519048D01*
X145161905Y-85290477D02*
X144361905Y-85290477D01*
X144476190Y-85366667D01*
X144552381Y-85442858D01*
X144590476Y-85519048D01*
D12*
X145038096Y-80023810D02*
X145152382Y-80061905D01*
X145342858Y-80061905D01*
X145419048Y-80023810D01*
X145457144Y-79985714D01*
X145495239Y-79909524D01*
X145495239Y-79833333D01*
X145457144Y-79757143D01*
X145419048Y-79719048D01*
X145342858Y-79680952D01*
X145190477Y-79642857D01*
X145114286Y-79604762D01*
X145076191Y-79566667D01*
X145038096Y-79490476D01*
X145038096Y-79414286D01*
X145076191Y-79338095D01*
X145114286Y-79300000D01*
X145190477Y-79261905D01*
X145380953Y-79261905D01*
X145495239Y-79300000D01*
X145723810Y-79261905D02*
X146180953Y-79261905D01*
X145952382Y-80061905D02*
X145952382Y-79261905D01*
X146447620Y-79757143D02*
X147057144Y-79757143D01*
X147819049Y-80061905D02*
X147438096Y-80061905D01*
X147438096Y-79261905D01*
X148085715Y-80061905D02*
X148085715Y-79261905D01*
X148466667Y-80061905D02*
X148466667Y-79261905D01*
X148923810Y-80061905D01*
X148923810Y-79261905D01*
X149304762Y-80061905D02*
X149304762Y-79261905D01*
X149761905Y-80061905D02*
X149419048Y-79604762D01*
X149761905Y-79261905D02*
X149304762Y-79719048D01*
D13*
X174135715Y-80090714D02*
X175050001Y-80090714D01*
X174592858Y-80547857D02*
X174592858Y-79633571D01*
X176250001Y-80547857D02*
X175564286Y-80547857D01*
X175907144Y-80547857D02*
X175907144Y-79347857D01*
X175792858Y-79519286D01*
X175678572Y-79633571D01*
X175564286Y-79690714D01*
X176707143Y-79462143D02*
X176764286Y-79405000D01*
X176878572Y-79347857D01*
X177164286Y-79347857D01*
X177278572Y-79405000D01*
X177335715Y-79462143D01*
X177392858Y-79576429D01*
X177392858Y-79690714D01*
X177335715Y-79862143D01*
X176650001Y-80547857D01*
X177392858Y-80547857D01*
X177735715Y-79347857D02*
X178135715Y-80547857D01*
X178535715Y-79347857D01*
X181821429Y-102157381D02*
X182059524Y-103157381D01*
X182250001Y-102443095D01*
X182440477Y-103157381D01*
X182678572Y-102157381D01*
X181916667Y-93957381D02*
X182250000Y-94957381D01*
X182583334Y-93957381D01*
X181964286Y-84957381D02*
X181964286Y-85766905D01*
X182011905Y-85862143D01*
X182059524Y-85909762D01*
X182154762Y-85957381D01*
X182345239Y-85957381D01*
X182440477Y-85909762D01*
X182488096Y-85862143D01*
X182535715Y-85766905D01*
X182535715Y-84957381D01*
D11*
X142554760Y-113833571D02*
X142554760Y-114481190D01*
X142516665Y-114557381D01*
X142478570Y-114595476D01*
X142402379Y-114633571D01*
X142288094Y-114633571D01*
X142211903Y-114595476D01*
X142554760Y-114328810D02*
X142478570Y-114366905D01*
X142326189Y-114366905D01*
X142249998Y-114328810D01*
X142211903Y-114290714D01*
X142173808Y-114214524D01*
X142173808Y-113985952D01*
X142211903Y-113909762D01*
X142249998Y-113871667D01*
X142326189Y-113833571D01*
X142478570Y-113833571D01*
X142554760Y-113871667D01*
X142935713Y-114366905D02*
X142935713Y-113833571D01*
X142935713Y-113566905D02*
X142897618Y-113605000D01*
X142935713Y-113643095D01*
X142973808Y-113605000D01*
X142935713Y-113566905D01*
X142935713Y-113643095D01*
X143202379Y-113833571D02*
X143507141Y-113833571D01*
X143316665Y-113566905D02*
X143316665Y-114252619D01*
X143354760Y-114328810D01*
X143430951Y-114366905D01*
X143507141Y-114366905D01*
X143773808Y-114366905D02*
X143773808Y-113566905D01*
X144116665Y-114366905D02*
X144116665Y-113947857D01*
X144078570Y-113871667D01*
X144002380Y-113833571D01*
X143888094Y-113833571D01*
X143811903Y-113871667D01*
X143773808Y-113909762D01*
X144840475Y-113833571D02*
X144840475Y-114366905D01*
X144497618Y-113833571D02*
X144497618Y-114252619D01*
X144535713Y-114328810D01*
X144611904Y-114366905D01*
X144726190Y-114366905D01*
X144802380Y-114328810D01*
X144840475Y-114290714D01*
X145221428Y-114366905D02*
X145221428Y-113566905D01*
X145221428Y-113871667D02*
X145297619Y-113833571D01*
X145450000Y-113833571D01*
X145526190Y-113871667D01*
X145564285Y-113909762D01*
X145602381Y-113985952D01*
X145602381Y-114214524D01*
X145564285Y-114290714D01*
X145526190Y-114328810D01*
X145450000Y-114366905D01*
X145297619Y-114366905D01*
X145221428Y-114328810D01*
X145945238Y-114290714D02*
X145983333Y-114328810D01*
X145945238Y-114366905D01*
X145907143Y-114328810D01*
X145945238Y-114290714D01*
X145945238Y-114366905D01*
X146669047Y-114328810D02*
X146592857Y-114366905D01*
X146440476Y-114366905D01*
X146364285Y-114328810D01*
X146326190Y-114290714D01*
X146288095Y-114214524D01*
X146288095Y-113985952D01*
X146326190Y-113909762D01*
X146364285Y-113871667D01*
X146440476Y-113833571D01*
X146592857Y-113833571D01*
X146669047Y-113871667D01*
X147126190Y-114366905D02*
X147049999Y-114328810D01*
X147011904Y-114290714D01*
X146973809Y-114214524D01*
X146973809Y-113985952D01*
X147011904Y-113909762D01*
X147049999Y-113871667D01*
X147126190Y-113833571D01*
X147240476Y-113833571D01*
X147316666Y-113871667D01*
X147354761Y-113909762D01*
X147392857Y-113985952D01*
X147392857Y-114214524D01*
X147354761Y-114290714D01*
X147316666Y-114328810D01*
X147240476Y-114366905D01*
X147126190Y-114366905D01*
X147735714Y-114366905D02*
X147735714Y-113833571D01*
X147735714Y-113909762D02*
X147773809Y-113871667D01*
X147850000Y-113833571D01*
X147964286Y-113833571D01*
X148040476Y-113871667D01*
X148078571Y-113947857D01*
X148078571Y-114366905D01*
X148078571Y-113947857D02*
X148116667Y-113871667D01*
X148192857Y-113833571D01*
X148307143Y-113833571D01*
X148383333Y-113871667D01*
X148421428Y-113947857D01*
X148421428Y-114366905D01*
X149373810Y-113528810D02*
X148688095Y-114557381D01*
X149564286Y-113566905D02*
X149754762Y-114366905D01*
X149907143Y-113795476D01*
X150059524Y-114366905D01*
X150250000Y-113566905D01*
X150897619Y-114366905D02*
X150897619Y-113947857D01*
X150859524Y-113871667D01*
X150783334Y-113833571D01*
X150630953Y-113833571D01*
X150554762Y-113871667D01*
X150897619Y-114328810D02*
X150821429Y-114366905D01*
X150630953Y-114366905D01*
X150554762Y-114328810D01*
X150516667Y-114252619D01*
X150516667Y-114176429D01*
X150554762Y-114100238D01*
X150630953Y-114062143D01*
X150821429Y-114062143D01*
X150897619Y-114024048D01*
X151278572Y-114366905D02*
X151278572Y-113833571D01*
X151278572Y-113985952D02*
X151316667Y-113909762D01*
X151354763Y-113871667D01*
X151430953Y-113833571D01*
X151507144Y-113833571D01*
X151773810Y-114366905D02*
X151773810Y-113833571D01*
X151773810Y-113909762D02*
X151811905Y-113871667D01*
X151888096Y-113833571D01*
X152002382Y-113833571D01*
X152078572Y-113871667D01*
X152116667Y-113947857D01*
X152116667Y-114366905D01*
X152116667Y-113947857D02*
X152154763Y-113871667D01*
X152230953Y-113833571D01*
X152345239Y-113833571D01*
X152421429Y-113871667D01*
X152459524Y-113947857D01*
X152459524Y-114366905D01*
X152726191Y-113566905D02*
X153183334Y-113566905D01*
X152954763Y-114366905D02*
X152954763Y-113566905D01*
X154021430Y-113528810D02*
X153335715Y-114557381D01*
X154554763Y-113947857D02*
X154669049Y-113985952D01*
X154707144Y-114024048D01*
X154745239Y-114100238D01*
X154745239Y-114214524D01*
X154707144Y-114290714D01*
X154669049Y-114328810D01*
X154592858Y-114366905D01*
X154288096Y-114366905D01*
X154288096Y-113566905D01*
X154554763Y-113566905D01*
X154630953Y-113605000D01*
X154669049Y-113643095D01*
X154707144Y-113719286D01*
X154707144Y-113795476D01*
X154669049Y-113871667D01*
X154630953Y-113909762D01*
X154554763Y-113947857D01*
X154288096Y-113947857D01*
X155469049Y-114366905D02*
X155088096Y-114366905D01*
X155088096Y-113566905D01*
X155735715Y-114366905D02*
X155735715Y-113566905D01*
X155926191Y-113566905D01*
X156040477Y-113605000D01*
X156116668Y-113681190D01*
X156154763Y-113757381D01*
X156192858Y-113909762D01*
X156192858Y-114024048D01*
X156154763Y-114176429D01*
X156116668Y-114252619D01*
X156040477Y-114328810D01*
X155926191Y-114366905D01*
X155735715Y-114366905D01*
X156992858Y-114290714D02*
X156954763Y-114328810D01*
X156840477Y-114366905D01*
X156764287Y-114366905D01*
X156650001Y-114328810D01*
X156573810Y-114252619D01*
X156535715Y-114176429D01*
X156497620Y-114024048D01*
X156497620Y-113909762D01*
X156535715Y-113757381D01*
X156573810Y-113681190D01*
X156650001Y-113605000D01*
X156764287Y-113566905D01*
X156840477Y-113566905D01*
X156954763Y-113605000D01*
X156992858Y-113643095D01*
X157335715Y-114062143D02*
X157945239Y-114062143D01*
X158669048Y-114328810D02*
X158592858Y-114366905D01*
X158440477Y-114366905D01*
X158364286Y-114328810D01*
X158326191Y-114290714D01*
X158288096Y-114214524D01*
X158288096Y-113985952D01*
X158326191Y-113909762D01*
X158364286Y-113871667D01*
X158440477Y-113833571D01*
X158592858Y-113833571D01*
X158669048Y-113871667D01*
X159126191Y-114366905D02*
X159050000Y-114328810D01*
X159011905Y-114290714D01*
X158973810Y-114214524D01*
X158973810Y-113985952D01*
X159011905Y-113909762D01*
X159050000Y-113871667D01*
X159126191Y-113833571D01*
X159240477Y-113833571D01*
X159316667Y-113871667D01*
X159354762Y-113909762D01*
X159392858Y-113985952D01*
X159392858Y-114214524D01*
X159354762Y-114290714D01*
X159316667Y-114328810D01*
X159240477Y-114366905D01*
X159126191Y-114366905D01*
X159735715Y-113833571D02*
X159735715Y-114366905D01*
X159735715Y-113909762D02*
X159773810Y-113871667D01*
X159850001Y-113833571D01*
X159964287Y-113833571D01*
X160040477Y-113871667D01*
X160078572Y-113947857D01*
X160078572Y-114366905D01*
X160345239Y-113833571D02*
X160650001Y-113833571D01*
X160459525Y-113566905D02*
X160459525Y-114252619D01*
X160497620Y-114328810D01*
X160573811Y-114366905D01*
X160650001Y-114366905D01*
X160916668Y-114366905D02*
X160916668Y-113833571D01*
X160916668Y-113985952D02*
X160954763Y-113909762D01*
X160992859Y-113871667D01*
X161069049Y-113833571D01*
X161145240Y-113833571D01*
X161526192Y-114366905D02*
X161450001Y-114328810D01*
X161411906Y-114290714D01*
X161373811Y-114214524D01*
X161373811Y-113985952D01*
X161411906Y-113909762D01*
X161450001Y-113871667D01*
X161526192Y-113833571D01*
X161640478Y-113833571D01*
X161716668Y-113871667D01*
X161754763Y-113909762D01*
X161792859Y-113985952D01*
X161792859Y-114214524D01*
X161754763Y-114290714D01*
X161716668Y-114328810D01*
X161640478Y-114366905D01*
X161526192Y-114366905D01*
X162250002Y-114366905D02*
X162173811Y-114328810D01*
X162135716Y-114252619D01*
X162135716Y-113566905D01*
X162669050Y-114366905D02*
X162592859Y-114328810D01*
X162554764Y-114252619D01*
X162554764Y-113566905D01*
X163278574Y-114328810D02*
X163202384Y-114366905D01*
X163050003Y-114366905D01*
X162973812Y-114328810D01*
X162935717Y-114252619D01*
X162935717Y-113947857D01*
X162973812Y-113871667D01*
X163050003Y-113833571D01*
X163202384Y-113833571D01*
X163278574Y-113871667D01*
X163316669Y-113947857D01*
X163316669Y-114024048D01*
X162935717Y-114100238D01*
X163659526Y-114366905D02*
X163659526Y-113833571D01*
X163659526Y-113985952D02*
X163697621Y-113909762D01*
X163735717Y-113871667D01*
X163811907Y-113833571D01*
X163888098Y-113833571D01*
X165183336Y-114366905D02*
X164726193Y-114366905D01*
X164954764Y-114366905D02*
X164954764Y-113566905D01*
X164878574Y-113681190D01*
X164802383Y-113757381D01*
X164726193Y-113795476D01*
X165526193Y-114290714D02*
X165564288Y-114328810D01*
X165526193Y-114366905D01*
X165488098Y-114328810D01*
X165526193Y-114290714D01*
X165526193Y-114366905D01*
X166059526Y-113566905D02*
X166135717Y-113566905D01*
X166211907Y-113605000D01*
X166250002Y-113643095D01*
X166288098Y-113719286D01*
X166326193Y-113871667D01*
X166326193Y-114062143D01*
X166288098Y-114214524D01*
X166250002Y-114290714D01*
X166211907Y-114328810D01*
X166135717Y-114366905D01*
X166059526Y-114366905D01*
X165983336Y-114328810D01*
X165945240Y-114290714D01*
X165907145Y-114214524D01*
X165869050Y-114062143D01*
X165869050Y-113871667D01*
X165907145Y-113719286D01*
X165945240Y-113643095D01*
X165983336Y-113605000D01*
X166059526Y-113566905D01*
X184286000Y-81255000D02*
G75*
G03X184286000Y-81255000I-2286000J0D01*
G01*
X142900000Y-106750000D02*
X142900000Y-102750000D01*
X142900000Y-102750000D02*
X146900000Y-102750000D01*
X146900000Y-102750000D02*
X146900000Y-106750000D01*
X146900000Y-106750000D02*
X142900000Y-106750000D01*
X161950000Y-86380000D02*
X161250000Y-86380000D01*
X161250000Y-85020000D02*
X161950000Y-85020000D01*
X147450000Y-97700000D02*
X147750000Y-97700000D01*
X147450000Y-93700000D02*
X147750000Y-93700000D01*
X150850000Y-93700000D02*
X150550000Y-93700000D01*
X150850000Y-97700000D02*
X150550000Y-97700000D01*
X150850000Y-93700000D02*
X150850000Y-97700000D01*
X147450000Y-93700000D02*
X147450000Y-97700000D01*
X140786000Y-81250000D02*
G75*
G03X140786000Y-81250000I-2286000J0D01*
G01*
X184286000Y-112755000D02*
G75*
G03X184286000Y-112755000I-2286000J0D01*
G01*
X140786000Y-112750000D02*
G75*
G03X140786000Y-112750000I-2286000J0D01*
G01*
X160900000Y-112055000D02*
X161100000Y-112305000D01*
X161100000Y-111805000D02*
X160900000Y-112055000D01*
X161250000Y-111530000D02*
X160200000Y-111530000D01*
X161250000Y-112580000D02*
X160200000Y-112580000D01*
X159200000Y-109005000D02*
X159400000Y-109255000D01*
X159400000Y-108755000D02*
X159200000Y-109005000D01*
X159550000Y-108480000D02*
X158500000Y-108480000D01*
X159550000Y-109530000D02*
X158500000Y-109530000D01*
X148249940Y-104700860D02*
X148600460Y-104700860D01*
X151750060Y-104700860D02*
X151399540Y-104700860D01*
X148249940Y-108750440D02*
X148600460Y-108750440D01*
X148249940Y-104249560D02*
X148600460Y-104249560D01*
X151750060Y-104249560D02*
X151399540Y-104249560D01*
X151750060Y-108750440D02*
X151399540Y-108750440D01*
X148249940Y-104249560D02*
X148249940Y-108750440D01*
X151750060Y-104249560D02*
X151750060Y-108750440D01*
X173150000Y-89500000D02*
X172950000Y-89500000D01*
X172950000Y-89500000D02*
X172950000Y-85500000D01*
X172950000Y-85500000D02*
X173150000Y-85500000D01*
X180950000Y-85900000D02*
X181150000Y-85900000D01*
X181150000Y-85900000D02*
X181150000Y-85300000D01*
X181150000Y-85300000D02*
X180950000Y-85300000D01*
X180950000Y-87200000D02*
X181150000Y-87200000D01*
X181150000Y-87200000D02*
X181150000Y-86600000D01*
X181150000Y-86600000D02*
X180950000Y-86600000D01*
X180950000Y-88400000D02*
X181150000Y-88400000D01*
X181150000Y-88400000D02*
X181150000Y-87800000D01*
X181150000Y-87800000D02*
X180950000Y-87800000D01*
X180950000Y-89700000D02*
X181150000Y-89700000D01*
X181150000Y-89700000D02*
X181150000Y-89100000D01*
X181150000Y-89100000D02*
X180950000Y-89100000D01*
X173150000Y-90300000D02*
X173150000Y-84700000D01*
X173150000Y-84700000D02*
X180950000Y-84700000D01*
X180950000Y-84700000D02*
X180950000Y-90300000D01*
X180950000Y-90300000D02*
X173150000Y-90300000D01*
X173275000Y-98465000D02*
X173075000Y-98465000D01*
X173075000Y-98465000D02*
X173075000Y-94465000D01*
X173075000Y-94465000D02*
X173275000Y-94465000D01*
X181075000Y-94865000D02*
X181275000Y-94865000D01*
X181275000Y-94865000D02*
X181275000Y-94265000D01*
X181275000Y-94265000D02*
X181075000Y-94265000D01*
X181075000Y-96165000D02*
X181275000Y-96165000D01*
X181275000Y-96165000D02*
X181275000Y-95565000D01*
X181275000Y-95565000D02*
X181075000Y-95565000D01*
X181075000Y-97365000D02*
X181275000Y-97365000D01*
X181275000Y-97365000D02*
X181275000Y-96765000D01*
X181275000Y-96765000D02*
X181075000Y-96765000D01*
X181075000Y-98665000D02*
X181275000Y-98665000D01*
X181275000Y-98665000D02*
X181275000Y-98065000D01*
X181275000Y-98065000D02*
X181075000Y-98065000D01*
X173275000Y-99265000D02*
X173275000Y-93665000D01*
X173275000Y-93665000D02*
X181075000Y-93665000D01*
X181075000Y-93665000D02*
X181075000Y-99265000D01*
X181075000Y-99265000D02*
X173275000Y-99265000D01*
X173325000Y-107375000D02*
X173125000Y-107375000D01*
X173125000Y-107375000D02*
X173125000Y-103375000D01*
X173125000Y-103375000D02*
X173325000Y-103375000D01*
X181125000Y-103775000D02*
X181325000Y-103775000D01*
X181325000Y-103775000D02*
X181325000Y-103175000D01*
X181325000Y-103175000D02*
X181125000Y-103175000D01*
X181125000Y-105075000D02*
X181325000Y-105075000D01*
X181325000Y-105075000D02*
X181325000Y-104475000D01*
X181325000Y-104475000D02*
X181125000Y-104475000D01*
X181125000Y-106275000D02*
X181325000Y-106275000D01*
X181325000Y-106275000D02*
X181325000Y-105675000D01*
X181325000Y-105675000D02*
X181125000Y-105675000D01*
X181125000Y-107575000D02*
X181325000Y-107575000D01*
X181325000Y-107575000D02*
X181325000Y-106975000D01*
X181325000Y-106975000D02*
X181125000Y-106975000D01*
X173325000Y-108175000D02*
X173325000Y-102575000D01*
X173325000Y-102575000D02*
X181125000Y-102575000D01*
X181125000Y-102575000D02*
X181125000Y-108175000D01*
X181125000Y-108175000D02*
X173325000Y-108175000D01*
X162200000Y-82150000D02*
X162200000Y-81900000D01*
X162200000Y-82650000D02*
X162200000Y-82900000D01*
X162200000Y-82650000D02*
X161850000Y-82150000D01*
X161850000Y-82150000D02*
X162550000Y-82150000D01*
X162550000Y-82150000D02*
X162200000Y-82650000D01*
X161850000Y-82650000D02*
X162550000Y-82650000D01*
X163000000Y-83700000D02*
X163000000Y-81300000D01*
X161400000Y-83700000D02*
X161400000Y-81300000D01*
X176500000Y-81000000D02*
X175500000Y-81000000D01*
X175500000Y-83300000D02*
X176500000Y-83300000D01*
X167500000Y-97655000D02*
X167500000Y-97405000D01*
X167500000Y-98155000D02*
X167500000Y-98405000D01*
X167500000Y-98155000D02*
X167150000Y-97655000D01*
X167150000Y-97655000D02*
X167850000Y-97655000D01*
X167850000Y-97655000D02*
X167500000Y-98155000D01*
X167150000Y-98155000D02*
X167850000Y-98155000D01*
X168300000Y-99205000D02*
X168300000Y-96805000D01*
X166700000Y-99205000D02*
X166700000Y-96805000D01*
X165500000Y-106755000D02*
X165500000Y-107005000D01*
X165500000Y-106255000D02*
X165500000Y-106005000D01*
X165500000Y-106255000D02*
X165850000Y-106755000D01*
X165850000Y-106755000D02*
X165150000Y-106755000D01*
X165150000Y-106755000D02*
X165500000Y-106255000D01*
X165850000Y-106255000D02*
X165150000Y-106255000D01*
X164700000Y-105205000D02*
X164700000Y-107605000D01*
X166300000Y-105205000D02*
X166300000Y-107605000D01*
X177800000Y-99550000D02*
X176800000Y-99550000D01*
X176800000Y-101850000D02*
X177800000Y-101850000D01*
X145700000Y-107100000D02*
X144700000Y-107100000D01*
X144700000Y-109400000D02*
X145700000Y-109400000D01*
X148800000Y-103250000D02*
X149800000Y-103250000D01*
X149800000Y-100950000D02*
X148800000Y-100950000D01*
X177200000Y-90650000D02*
X176200000Y-90650000D01*
X176200000Y-92950000D02*
X177200000Y-92950000D01*
X178150000Y-111400000D02*
X178150000Y-110400000D01*
X175850000Y-110400000D02*
X175850000Y-111400000D01*
X151130000Y-84820000D02*
X156110000Y-84820000D01*
X151130000Y-82820000D02*
X156110000Y-82820000D01*
X143510000Y-82820000D02*
X143510000Y-84820000D01*
X156110000Y-82820000D02*
X156110000Y-84820000D01*
X143510000Y-82820000D02*
X151130000Y-82820000D01*
X151130000Y-84820000D02*
X143510000Y-84820000D01*
X151130000Y-82280000D02*
X158750000Y-82280000D01*
X151130000Y-80280000D02*
X158750000Y-80280000D01*
X143510000Y-80280000D02*
X143510000Y-82280000D01*
X158750000Y-80280000D02*
X158750000Y-82280000D01*
X143510000Y-80280000D02*
X151130000Y-80280000D01*
X151130000Y-82280000D02*
X143510000Y-82280000D01*
X153670000Y-112760000D02*
X158650000Y-112760000D01*
X153670000Y-110760000D02*
X158650000Y-110760000D01*
X146050000Y-110760000D02*
X146050000Y-112760000D01*
X158650000Y-110760000D02*
X158650000Y-112760000D01*
X146050000Y-110760000D02*
X153670000Y-110760000D01*
X153670000Y-112760000D02*
X146050000Y-112760000D01*
X148950000Y-100580000D02*
X148250000Y-100580000D01*
X148250000Y-99220000D02*
X148950000Y-99220000D01*
X153820000Y-92350000D02*
X153820000Y-91650000D01*
X155180000Y-91650000D02*
X155180000Y-92350000D01*
X153280000Y-101150000D02*
X153280000Y-101850000D01*
X151920000Y-101850000D02*
X151920000Y-101150000D01*
X165050000Y-97605000D02*
X164350000Y-97605000D01*
X164350000Y-96245000D02*
X165050000Y-96245000D01*
X162020000Y-100450000D02*
X162020000Y-99750000D01*
X163380000Y-99750000D02*
X163380000Y-100450000D01*
X164200000Y-81000000D02*
X164800000Y-81000000D01*
X164800000Y-82400000D02*
X164200000Y-82400000D01*
X164200000Y-82700000D02*
X164800000Y-82700000D01*
X164800000Y-84100000D02*
X164200000Y-84100000D01*
X167900000Y-94605000D02*
X168500000Y-94605000D01*
X168500000Y-96005000D02*
X167900000Y-96005000D01*
X167910000Y-92905000D02*
X168510000Y-92905000D01*
X168510000Y-94305000D02*
X167910000Y-94305000D01*
X167950000Y-106305000D02*
X168550000Y-106305000D01*
X168550000Y-107705000D02*
X167950000Y-107705000D01*
X167950000Y-104305000D02*
X168550000Y-104305000D01*
X168550000Y-105705000D02*
X167950000Y-105705000D01*
X163250000Y-111405000D02*
X163850000Y-111405000D01*
X163850000Y-112805000D02*
X163250000Y-112805000D01*
X161500000Y-105200000D02*
X160900000Y-105200000D01*
X160900000Y-103800000D02*
X161500000Y-103800000D01*
X161050000Y-102220000D02*
X161750000Y-102220000D01*
X161750000Y-103580000D02*
X161050000Y-103580000D01*
X155100000Y-105100000D02*
X154500000Y-105100000D01*
X154500000Y-103700000D02*
X155100000Y-103700000D01*
X161550000Y-108405000D02*
X162150000Y-108405000D01*
X162150000Y-109805000D02*
X161550000Y-109805000D01*
X147150000Y-94400000D02*
X147150000Y-94700000D01*
X146050000Y-94700000D02*
X146050000Y-94400000D01*
X146050000Y-97000000D02*
X146050000Y-96700000D01*
X147150000Y-96700000D02*
X147150000Y-97000000D01*
X152080000Y-96200000D02*
X152320000Y-96200000D01*
X152320000Y-97200000D02*
X152080000Y-97200000D01*
D14*
G36*
X137499744Y-92519918D02*
X137555201Y-92547568D01*
X137604148Y-92598480D01*
X137617629Y-92617338D01*
X137632314Y-92642015D01*
X137641842Y-92668816D01*
X137647293Y-92704587D01*
X137649747Y-92756169D01*
X137650286Y-92824267D01*
X137647852Y-92917588D01*
X137639394Y-92987657D01*
X137623174Y-93039931D01*
X137597454Y-93079869D01*
X137560497Y-93112929D01*
X137557782Y-93114886D01*
X137521360Y-93134908D01*
X137477502Y-93144815D01*
X137421724Y-93147257D01*
X137331048Y-93147257D01*
X137331010Y-93235283D01*
X137330166Y-93284308D01*
X137325024Y-93313065D01*
X137311587Y-93330311D01*
X137285858Y-93344808D01*
X137279679Y-93347769D01*
X137250764Y-93361648D01*
X137228376Y-93370414D01*
X137211729Y-93371171D01*
X137200036Y-93361023D01*
X137192510Y-93337073D01*
X137188366Y-93296426D01*
X137186815Y-93236186D01*
X137187071Y-93153455D01*
X137188349Y-93045339D01*
X137188748Y-93013000D01*
X137190185Y-92901524D01*
X137191472Y-92828603D01*
X137330971Y-92828603D01*
X137331755Y-92890499D01*
X137335240Y-92930997D01*
X137343124Y-92957708D01*
X137357105Y-92978244D01*
X137366597Y-92988260D01*
X137405404Y-93017567D01*
X137439763Y-93019952D01*
X137475216Y-92995750D01*
X137476114Y-92994857D01*
X137490539Y-92976153D01*
X137499313Y-92950732D01*
X137503739Y-92911584D01*
X137505118Y-92851697D01*
X137505143Y-92838430D01*
X137501812Y-92755901D01*
X137490969Y-92698691D01*
X137471340Y-92663766D01*
X137441650Y-92648094D01*
X137424491Y-92646514D01*
X137383766Y-92653926D01*
X137355832Y-92678330D01*
X137339017Y-92722980D01*
X137331650Y-92791130D01*
X137330971Y-92828603D01*
X137191472Y-92828603D01*
X137191708Y-92815245D01*
X137193677Y-92750333D01*
X137196450Y-92702958D01*
X137200388Y-92669290D01*
X137205849Y-92645498D01*
X137213192Y-92627753D01*
X137222777Y-92612224D01*
X137226887Y-92606381D01*
X137281405Y-92551185D01*
X137350336Y-92519890D01*
X137430072Y-92511165D01*
X137499744Y-92519918D01*
X137499744Y-92519918D01*
G37*
X137499744Y-92519918D02*
X137555201Y-92547568D01*
X137604148Y-92598480D01*
X137617629Y-92617338D01*
X137632314Y-92642015D01*
X137641842Y-92668816D01*
X137647293Y-92704587D01*
X137649747Y-92756169D01*
X137650286Y-92824267D01*
X137647852Y-92917588D01*
X137639394Y-92987657D01*
X137623174Y-93039931D01*
X137597454Y-93079869D01*
X137560497Y-93112929D01*
X137557782Y-93114886D01*
X137521360Y-93134908D01*
X137477502Y-93144815D01*
X137421724Y-93147257D01*
X137331048Y-93147257D01*
X137331010Y-93235283D01*
X137330166Y-93284308D01*
X137325024Y-93313065D01*
X137311587Y-93330311D01*
X137285858Y-93344808D01*
X137279679Y-93347769D01*
X137250764Y-93361648D01*
X137228376Y-93370414D01*
X137211729Y-93371171D01*
X137200036Y-93361023D01*
X137192510Y-93337073D01*
X137188366Y-93296426D01*
X137186815Y-93236186D01*
X137187071Y-93153455D01*
X137188349Y-93045339D01*
X137188748Y-93013000D01*
X137190185Y-92901524D01*
X137191472Y-92828603D01*
X137330971Y-92828603D01*
X137331755Y-92890499D01*
X137335240Y-92930997D01*
X137343124Y-92957708D01*
X137357105Y-92978244D01*
X137366597Y-92988260D01*
X137405404Y-93017567D01*
X137439763Y-93019952D01*
X137475216Y-92995750D01*
X137476114Y-92994857D01*
X137490539Y-92976153D01*
X137499313Y-92950732D01*
X137503739Y-92911584D01*
X137505118Y-92851697D01*
X137505143Y-92838430D01*
X137501812Y-92755901D01*
X137490969Y-92698691D01*
X137471340Y-92663766D01*
X137441650Y-92648094D01*
X137424491Y-92646514D01*
X137383766Y-92653926D01*
X137355832Y-92678330D01*
X137339017Y-92722980D01*
X137331650Y-92791130D01*
X137330971Y-92828603D01*
X137191472Y-92828603D01*
X137191708Y-92815245D01*
X137193677Y-92750333D01*
X137196450Y-92702958D01*
X137200388Y-92669290D01*
X137205849Y-92645498D01*
X137213192Y-92627753D01*
X137222777Y-92612224D01*
X137226887Y-92606381D01*
X137281405Y-92551185D01*
X137350336Y-92519890D01*
X137430072Y-92511165D01*
X137499744Y-92519918D01*
G36*
X138616093Y-92527780D02*
X138662672Y-92554723D01*
X138695057Y-92581466D01*
X138718742Y-92609484D01*
X138735059Y-92643748D01*
X138745339Y-92689227D01*
X138750914Y-92750892D01*
X138753116Y-92833711D01*
X138753371Y-92893246D01*
X138753371Y-93112391D01*
X138691686Y-93140044D01*
X138630000Y-93167697D01*
X138622743Y-92927670D01*
X138619744Y-92838028D01*
X138616598Y-92772962D01*
X138612701Y-92728026D01*
X138607447Y-92698770D01*
X138600231Y-92680748D01*
X138590450Y-92669511D01*
X138587312Y-92667079D01*
X138539761Y-92648083D01*
X138491697Y-92655600D01*
X138463086Y-92675543D01*
X138451447Y-92689675D01*
X138443391Y-92708220D01*
X138438271Y-92736334D01*
X138435441Y-92779173D01*
X138434256Y-92841895D01*
X138434057Y-92907261D01*
X138434018Y-92989268D01*
X138432614Y-93047316D01*
X138427914Y-93086465D01*
X138417987Y-93111780D01*
X138400903Y-93128323D01*
X138374732Y-93141156D01*
X138339775Y-93154491D01*
X138301596Y-93169007D01*
X138306141Y-92911389D01*
X138307971Y-92818519D01*
X138310112Y-92749889D01*
X138313181Y-92700711D01*
X138317794Y-92666198D01*
X138324568Y-92641562D01*
X138334119Y-92622016D01*
X138345634Y-92604770D01*
X138401190Y-92549680D01*
X138468980Y-92517822D01*
X138542713Y-92510191D01*
X138616093Y-92527780D01*
X138616093Y-92527780D01*
G37*
X138616093Y-92527780D02*
X138662672Y-92554723D01*
X138695057Y-92581466D01*
X138718742Y-92609484D01*
X138735059Y-92643748D01*
X138745339Y-92689227D01*
X138750914Y-92750892D01*
X138753116Y-92833711D01*
X138753371Y-92893246D01*
X138753371Y-93112391D01*
X138691686Y-93140044D01*
X138630000Y-93167697D01*
X138622743Y-92927670D01*
X138619744Y-92838028D01*
X138616598Y-92772962D01*
X138612701Y-92728026D01*
X138607447Y-92698770D01*
X138600231Y-92680748D01*
X138590450Y-92669511D01*
X138587312Y-92667079D01*
X138539761Y-92648083D01*
X138491697Y-92655600D01*
X138463086Y-92675543D01*
X138451447Y-92689675D01*
X138443391Y-92708220D01*
X138438271Y-92736334D01*
X138435441Y-92779173D01*
X138434256Y-92841895D01*
X138434057Y-92907261D01*
X138434018Y-92989268D01*
X138432614Y-93047316D01*
X138427914Y-93086465D01*
X138417987Y-93111780D01*
X138400903Y-93128323D01*
X138374732Y-93141156D01*
X138339775Y-93154491D01*
X138301596Y-93169007D01*
X138306141Y-92911389D01*
X138307971Y-92818519D01*
X138310112Y-92749889D01*
X138313181Y-92700711D01*
X138317794Y-92666198D01*
X138324568Y-92641562D01*
X138334119Y-92622016D01*
X138345634Y-92604770D01*
X138401190Y-92549680D01*
X138468980Y-92517822D01*
X138542713Y-92510191D01*
X138616093Y-92527780D01*
G36*
X136941115Y-92521962D02*
X137009145Y-92557733D01*
X137059351Y-92615301D01*
X137077185Y-92652312D01*
X137091063Y-92707882D01*
X137098167Y-92778096D01*
X137098840Y-92854727D01*
X137093427Y-92929552D01*
X137082270Y-92994342D01*
X137065714Y-93040873D01*
X137060626Y-93048887D01*
X137000355Y-93108707D01*
X136928769Y-93144535D01*
X136851092Y-93155020D01*
X136772548Y-93138810D01*
X136750689Y-93129092D01*
X136708122Y-93099143D01*
X136670763Y-93059433D01*
X136667232Y-93054397D01*
X136652881Y-93030124D01*
X136643394Y-93004178D01*
X136637790Y-92970022D01*
X136635086Y-92921119D01*
X136634299Y-92850935D01*
X136634286Y-92835200D01*
X136634322Y-92830192D01*
X136779429Y-92830192D01*
X136780273Y-92896430D01*
X136783596Y-92940386D01*
X136790583Y-92968779D01*
X136802416Y-92988325D01*
X136808457Y-92994857D01*
X136843186Y-93019680D01*
X136876903Y-93018548D01*
X136910995Y-92997016D01*
X136931329Y-92974029D01*
X136943371Y-92940478D01*
X136950134Y-92887569D01*
X136950598Y-92881399D01*
X136951752Y-92785513D01*
X136939688Y-92714299D01*
X136914570Y-92668194D01*
X136876560Y-92647635D01*
X136862992Y-92646514D01*
X136827364Y-92652152D01*
X136802994Y-92671686D01*
X136788093Y-92709042D01*
X136780875Y-92768150D01*
X136779429Y-92830192D01*
X136634322Y-92830192D01*
X136634826Y-92760413D01*
X136637096Y-92708159D01*
X136642068Y-92671949D01*
X136650713Y-92645299D01*
X136664005Y-92621722D01*
X136666943Y-92617338D01*
X136716313Y-92558249D01*
X136770109Y-92523947D01*
X136835602Y-92510331D01*
X136857842Y-92509665D01*
X136941115Y-92521962D01*
X136941115Y-92521962D01*
G37*
X136941115Y-92521962D02*
X137009145Y-92557733D01*
X137059351Y-92615301D01*
X137077185Y-92652312D01*
X137091063Y-92707882D01*
X137098167Y-92778096D01*
X137098840Y-92854727D01*
X137093427Y-92929552D01*
X137082270Y-92994342D01*
X137065714Y-93040873D01*
X137060626Y-93048887D01*
X137000355Y-93108707D01*
X136928769Y-93144535D01*
X136851092Y-93155020D01*
X136772548Y-93138810D01*
X136750689Y-93129092D01*
X136708122Y-93099143D01*
X136670763Y-93059433D01*
X136667232Y-93054397D01*
X136652881Y-93030124D01*
X136643394Y-93004178D01*
X136637790Y-92970022D01*
X136635086Y-92921119D01*
X136634299Y-92850935D01*
X136634286Y-92835200D01*
X136634322Y-92830192D01*
X136779429Y-92830192D01*
X136780273Y-92896430D01*
X136783596Y-92940386D01*
X136790583Y-92968779D01*
X136802416Y-92988325D01*
X136808457Y-92994857D01*
X136843186Y-93019680D01*
X136876903Y-93018548D01*
X136910995Y-92997016D01*
X136931329Y-92974029D01*
X136943371Y-92940478D01*
X136950134Y-92887569D01*
X136950598Y-92881399D01*
X136951752Y-92785513D01*
X136939688Y-92714299D01*
X136914570Y-92668194D01*
X136876560Y-92647635D01*
X136862992Y-92646514D01*
X136827364Y-92652152D01*
X136802994Y-92671686D01*
X136788093Y-92709042D01*
X136780875Y-92768150D01*
X136779429Y-92830192D01*
X136634322Y-92830192D01*
X136634826Y-92760413D01*
X136637096Y-92708159D01*
X136642068Y-92671949D01*
X136650713Y-92645299D01*
X136664005Y-92621722D01*
X136666943Y-92617338D01*
X136716313Y-92558249D01*
X136770109Y-92523947D01*
X136835602Y-92510331D01*
X136857842Y-92509665D01*
X136941115Y-92521962D01*
G36*
X138068303Y-92531239D02*
X138125527Y-92569735D01*
X138169749Y-92625335D01*
X138196167Y-92696086D01*
X138201510Y-92748162D01*
X138200903Y-92769893D01*
X138195822Y-92786531D01*
X138181855Y-92801437D01*
X138154589Y-92817973D01*
X138109612Y-92839498D01*
X138042511Y-92869374D01*
X138042171Y-92869524D01*
X137980407Y-92897813D01*
X137929759Y-92922933D01*
X137895404Y-92942179D01*
X137882518Y-92952848D01*
X137882514Y-92952934D01*
X137893872Y-92976166D01*
X137920431Y-93001774D01*
X137950923Y-93020221D01*
X137966370Y-93023886D01*
X138008515Y-93011212D01*
X138044808Y-92979471D01*
X138062517Y-92944572D01*
X138079552Y-92918845D01*
X138112922Y-92889546D01*
X138152149Y-92864235D01*
X138186756Y-92850471D01*
X138193993Y-92849714D01*
X138202139Y-92862160D01*
X138202630Y-92893972D01*
X138196643Y-92936866D01*
X138185357Y-92982558D01*
X138169950Y-93022761D01*
X138169171Y-93024322D01*
X138122804Y-93089062D01*
X138062711Y-93133097D01*
X137994465Y-93154711D01*
X137923638Y-93152185D01*
X137855804Y-93123804D01*
X137852788Y-93121808D01*
X137799427Y-93073448D01*
X137764340Y-93010352D01*
X137744922Y-92927387D01*
X137742316Y-92904078D01*
X137737701Y-92794055D01*
X137743233Y-92742748D01*
X137882514Y-92742748D01*
X137884324Y-92774753D01*
X137894222Y-92784093D01*
X137918898Y-92777105D01*
X137957795Y-92760587D01*
X138001275Y-92739881D01*
X138002356Y-92739333D01*
X138039209Y-92719949D01*
X138054000Y-92707013D01*
X138050353Y-92693451D01*
X138034995Y-92675632D01*
X137995923Y-92649845D01*
X137953846Y-92647950D01*
X137916103Y-92666717D01*
X137890034Y-92702915D01*
X137882514Y-92742748D01*
X137743233Y-92742748D01*
X137747194Y-92706027D01*
X137771550Y-92636212D01*
X137805456Y-92587302D01*
X137866653Y-92537878D01*
X137934063Y-92513359D01*
X138002880Y-92511797D01*
X138068303Y-92531239D01*
X138068303Y-92531239D01*
G37*
X138068303Y-92531239D02*
X138125527Y-92569735D01*
X138169749Y-92625335D01*
X138196167Y-92696086D01*
X138201510Y-92748162D01*
X138200903Y-92769893D01*
X138195822Y-92786531D01*
X138181855Y-92801437D01*
X138154589Y-92817973D01*
X138109612Y-92839498D01*
X138042511Y-92869374D01*
X138042171Y-92869524D01*
X137980407Y-92897813D01*
X137929759Y-92922933D01*
X137895404Y-92942179D01*
X137882518Y-92952848D01*
X137882514Y-92952934D01*
X137893872Y-92976166D01*
X137920431Y-93001774D01*
X137950923Y-93020221D01*
X137966370Y-93023886D01*
X138008515Y-93011212D01*
X138044808Y-92979471D01*
X138062517Y-92944572D01*
X138079552Y-92918845D01*
X138112922Y-92889546D01*
X138152149Y-92864235D01*
X138186756Y-92850471D01*
X138193993Y-92849714D01*
X138202139Y-92862160D01*
X138202630Y-92893972D01*
X138196643Y-92936866D01*
X138185357Y-92982558D01*
X138169950Y-93022761D01*
X138169171Y-93024322D01*
X138122804Y-93089062D01*
X138062711Y-93133097D01*
X137994465Y-93154711D01*
X137923638Y-93152185D01*
X137855804Y-93123804D01*
X137852788Y-93121808D01*
X137799427Y-93073448D01*
X137764340Y-93010352D01*
X137744922Y-92927387D01*
X137742316Y-92904078D01*
X137737701Y-92794055D01*
X137743233Y-92742748D01*
X137882514Y-92742748D01*
X137884324Y-92774753D01*
X137894222Y-92784093D01*
X137918898Y-92777105D01*
X137957795Y-92760587D01*
X138001275Y-92739881D01*
X138002356Y-92739333D01*
X138039209Y-92719949D01*
X138054000Y-92707013D01*
X138050353Y-92693451D01*
X138034995Y-92675632D01*
X137995923Y-92649845D01*
X137953846Y-92647950D01*
X137916103Y-92666717D01*
X137890034Y-92702915D01*
X137882514Y-92742748D01*
X137743233Y-92742748D01*
X137747194Y-92706027D01*
X137771550Y-92636212D01*
X137805456Y-92587302D01*
X137866653Y-92537878D01*
X137934063Y-92513359D01*
X138002880Y-92511797D01*
X138068303Y-92531239D01*
G36*
X139275886Y-92451289D02*
X139280139Y-92510613D01*
X139285025Y-92545572D01*
X139291795Y-92560820D01*
X139301702Y-92561015D01*
X139304914Y-92559195D01*
X139347644Y-92546015D01*
X139403227Y-92546785D01*
X139459737Y-92560333D01*
X139495082Y-92577861D01*
X139531321Y-92605861D01*
X139557813Y-92637549D01*
X139575999Y-92677813D01*
X139587322Y-92731543D01*
X139593222Y-92803626D01*
X139595143Y-92898951D01*
X139595177Y-92917237D01*
X139595200Y-93122646D01*
X139549491Y-93138580D01*
X139517027Y-93149420D01*
X139499215Y-93154468D01*
X139498691Y-93154514D01*
X139496937Y-93140828D01*
X139495444Y-93103076D01*
X139494326Y-93046224D01*
X139493697Y-92975234D01*
X139493600Y-92932073D01*
X139493398Y-92846973D01*
X139492358Y-92785981D01*
X139489831Y-92744177D01*
X139485164Y-92716642D01*
X139477707Y-92698456D01*
X139466811Y-92684698D01*
X139460007Y-92678073D01*
X139413272Y-92651375D01*
X139362272Y-92649375D01*
X139316001Y-92671955D01*
X139307444Y-92680107D01*
X139294893Y-92695436D01*
X139286188Y-92713618D01*
X139280631Y-92739909D01*
X139277526Y-92779562D01*
X139276176Y-92837832D01*
X139275886Y-92918173D01*
X139275886Y-93122646D01*
X139230177Y-93138580D01*
X139197713Y-93149420D01*
X139179901Y-93154468D01*
X139179377Y-93154514D01*
X139178037Y-93140623D01*
X139176828Y-93101439D01*
X139175801Y-93040700D01*
X139175002Y-92962141D01*
X139174481Y-92869498D01*
X139174286Y-92766509D01*
X139174286Y-92369342D01*
X139221457Y-92349444D01*
X139268629Y-92329547D01*
X139275886Y-92451289D01*
X139275886Y-92451289D01*
G37*
X139275886Y-92451289D02*
X139280139Y-92510613D01*
X139285025Y-92545572D01*
X139291795Y-92560820D01*
X139301702Y-92561015D01*
X139304914Y-92559195D01*
X139347644Y-92546015D01*
X139403227Y-92546785D01*
X139459737Y-92560333D01*
X139495082Y-92577861D01*
X139531321Y-92605861D01*
X139557813Y-92637549D01*
X139575999Y-92677813D01*
X139587322Y-92731543D01*
X139593222Y-92803626D01*
X139595143Y-92898951D01*
X139595177Y-92917237D01*
X139595200Y-93122646D01*
X139549491Y-93138580D01*
X139517027Y-93149420D01*
X139499215Y-93154468D01*
X139498691Y-93154514D01*
X139496937Y-93140828D01*
X139495444Y-93103076D01*
X139494326Y-93046224D01*
X139493697Y-92975234D01*
X139493600Y-92932073D01*
X139493398Y-92846973D01*
X139492358Y-92785981D01*
X139489831Y-92744177D01*
X139485164Y-92716642D01*
X139477707Y-92698456D01*
X139466811Y-92684698D01*
X139460007Y-92678073D01*
X139413272Y-92651375D01*
X139362272Y-92649375D01*
X139316001Y-92671955D01*
X139307444Y-92680107D01*
X139294893Y-92695436D01*
X139286188Y-92713618D01*
X139280631Y-92739909D01*
X139277526Y-92779562D01*
X139276176Y-92837832D01*
X139275886Y-92918173D01*
X139275886Y-93122646D01*
X139230177Y-93138580D01*
X139197713Y-93149420D01*
X139179901Y-93154468D01*
X139179377Y-93154514D01*
X139178037Y-93140623D01*
X139176828Y-93101439D01*
X139175801Y-93040700D01*
X139175002Y-92962141D01*
X139174481Y-92869498D01*
X139174286Y-92766509D01*
X139174286Y-92369342D01*
X139221457Y-92349444D01*
X139268629Y-92329547D01*
X139275886Y-92451289D01*
G36*
X139939744Y-92550968D02*
X139996616Y-92572087D01*
X139997267Y-92572493D01*
X140032440Y-92598380D01*
X140058407Y-92628633D01*
X140076670Y-92668058D01*
X140088732Y-92721462D01*
X140096096Y-92793651D01*
X140100264Y-92889432D01*
X140100629Y-92903078D01*
X140105876Y-93108842D01*
X140061716Y-93131678D01*
X140029763Y-93147110D01*
X140010470Y-93154423D01*
X140009578Y-93154514D01*
X140006239Y-93141022D01*
X140003587Y-93104626D01*
X140001956Y-93051452D01*
X140001600Y-93008393D01*
X140001592Y-92938641D01*
X139998403Y-92894837D01*
X139987288Y-92873944D01*
X139963501Y-92872925D01*
X139922296Y-92888741D01*
X139860086Y-92917815D01*
X139814341Y-92941963D01*
X139790813Y-92962913D01*
X139783896Y-92985747D01*
X139783886Y-92986877D01*
X139795299Y-93026212D01*
X139829092Y-93047462D01*
X139880809Y-93050539D01*
X139918061Y-93050006D01*
X139937703Y-93060735D01*
X139949952Y-93086505D01*
X139957002Y-93119337D01*
X139946842Y-93137966D01*
X139943017Y-93140632D01*
X139907001Y-93151340D01*
X139856566Y-93152856D01*
X139804626Y-93145759D01*
X139767822Y-93132788D01*
X139716938Y-93089585D01*
X139688014Y-93029446D01*
X139682286Y-92982462D01*
X139686657Y-92940082D01*
X139702475Y-92905488D01*
X139733797Y-92874763D01*
X139784678Y-92843990D01*
X139859176Y-92809252D01*
X139863714Y-92807288D01*
X139930821Y-92776287D01*
X139972232Y-92750862D01*
X139989981Y-92728014D01*
X139986107Y-92704745D01*
X139962643Y-92678056D01*
X139955627Y-92671914D01*
X139908630Y-92648100D01*
X139859933Y-92649103D01*
X139817522Y-92672451D01*
X139789384Y-92715675D01*
X139786769Y-92724160D01*
X139761308Y-92765308D01*
X139729001Y-92785128D01*
X139682286Y-92804770D01*
X139682286Y-92753950D01*
X139696496Y-92680082D01*
X139738675Y-92612327D01*
X139760624Y-92589661D01*
X139810517Y-92560569D01*
X139873967Y-92547400D01*
X139939744Y-92550968D01*
X139939744Y-92550968D01*
G37*
X139939744Y-92550968D02*
X139996616Y-92572087D01*
X139997267Y-92572493D01*
X140032440Y-92598380D01*
X140058407Y-92628633D01*
X140076670Y-92668058D01*
X140088732Y-92721462D01*
X140096096Y-92793651D01*
X140100264Y-92889432D01*
X140100629Y-92903078D01*
X140105876Y-93108842D01*
X140061716Y-93131678D01*
X140029763Y-93147110D01*
X140010470Y-93154423D01*
X140009578Y-93154514D01*
X140006239Y-93141022D01*
X140003587Y-93104626D01*
X140001956Y-93051452D01*
X140001600Y-93008393D01*
X140001592Y-92938641D01*
X139998403Y-92894837D01*
X139987288Y-92873944D01*
X139963501Y-92872925D01*
X139922296Y-92888741D01*
X139860086Y-92917815D01*
X139814341Y-92941963D01*
X139790813Y-92962913D01*
X139783896Y-92985747D01*
X139783886Y-92986877D01*
X139795299Y-93026212D01*
X139829092Y-93047462D01*
X139880809Y-93050539D01*
X139918061Y-93050006D01*
X139937703Y-93060735D01*
X139949952Y-93086505D01*
X139957002Y-93119337D01*
X139946842Y-93137966D01*
X139943017Y-93140632D01*
X139907001Y-93151340D01*
X139856566Y-93152856D01*
X139804626Y-93145759D01*
X139767822Y-93132788D01*
X139716938Y-93089585D01*
X139688014Y-93029446D01*
X139682286Y-92982462D01*
X139686657Y-92940082D01*
X139702475Y-92905488D01*
X139733797Y-92874763D01*
X139784678Y-92843990D01*
X139859176Y-92809252D01*
X139863714Y-92807288D01*
X139930821Y-92776287D01*
X139972232Y-92750862D01*
X139989981Y-92728014D01*
X139986107Y-92704745D01*
X139962643Y-92678056D01*
X139955627Y-92671914D01*
X139908630Y-92648100D01*
X139859933Y-92649103D01*
X139817522Y-92672451D01*
X139789384Y-92715675D01*
X139786769Y-92724160D01*
X139761308Y-92765308D01*
X139729001Y-92785128D01*
X139682286Y-92804770D01*
X139682286Y-92753950D01*
X139696496Y-92680082D01*
X139738675Y-92612327D01*
X139760624Y-92589661D01*
X139810517Y-92560569D01*
X139873967Y-92547400D01*
X139939744Y-92550968D01*
G36*
X140429926Y-92549755D02*
X140495858Y-92574084D01*
X140549273Y-92617117D01*
X140570164Y-92647409D01*
X140592939Y-92702994D01*
X140592466Y-92743186D01*
X140568562Y-92770217D01*
X140559717Y-92774813D01*
X140521530Y-92789144D01*
X140502028Y-92785472D01*
X140495422Y-92761407D01*
X140495086Y-92748114D01*
X140482992Y-92699210D01*
X140451471Y-92664999D01*
X140407659Y-92648476D01*
X140358695Y-92652634D01*
X140318894Y-92674227D01*
X140305450Y-92686544D01*
X140295921Y-92701487D01*
X140289485Y-92724075D01*
X140285317Y-92759328D01*
X140282597Y-92812266D01*
X140280502Y-92887907D01*
X140279960Y-92911857D01*
X140277981Y-92993790D01*
X140275731Y-93051455D01*
X140272357Y-93089608D01*
X140267006Y-93113004D01*
X140258824Y-93126398D01*
X140246959Y-93134545D01*
X140239362Y-93138144D01*
X140207102Y-93150452D01*
X140188111Y-93154514D01*
X140181836Y-93140948D01*
X140178006Y-93099934D01*
X140176600Y-93030999D01*
X140177598Y-92933669D01*
X140177908Y-92918657D01*
X140180101Y-92829859D01*
X140182693Y-92765019D01*
X140186382Y-92719067D01*
X140191864Y-92686935D01*
X140199835Y-92663553D01*
X140210993Y-92643852D01*
X140216830Y-92635410D01*
X140250296Y-92598057D01*
X140287727Y-92569003D01*
X140292309Y-92566467D01*
X140359426Y-92546443D01*
X140429926Y-92549755D01*
X140429926Y-92549755D01*
G37*
X140429926Y-92549755D02*
X140495858Y-92574084D01*
X140549273Y-92617117D01*
X140570164Y-92647409D01*
X140592939Y-92702994D01*
X140592466Y-92743186D01*
X140568562Y-92770217D01*
X140559717Y-92774813D01*
X140521530Y-92789144D01*
X140502028Y-92785472D01*
X140495422Y-92761407D01*
X140495086Y-92748114D01*
X140482992Y-92699210D01*
X140451471Y-92664999D01*
X140407659Y-92648476D01*
X140358695Y-92652634D01*
X140318894Y-92674227D01*
X140305450Y-92686544D01*
X140295921Y-92701487D01*
X140289485Y-92724075D01*
X140285317Y-92759328D01*
X140282597Y-92812266D01*
X140280502Y-92887907D01*
X140279960Y-92911857D01*
X140277981Y-92993790D01*
X140275731Y-93051455D01*
X140272357Y-93089608D01*
X140267006Y-93113004D01*
X140258824Y-93126398D01*
X140246959Y-93134545D01*
X140239362Y-93138144D01*
X140207102Y-93150452D01*
X140188111Y-93154514D01*
X140181836Y-93140948D01*
X140178006Y-93099934D01*
X140176600Y-93030999D01*
X140177598Y-92933669D01*
X140177908Y-92918657D01*
X140180101Y-92829859D01*
X140182693Y-92765019D01*
X140186382Y-92719067D01*
X140191864Y-92686935D01*
X140199835Y-92663553D01*
X140210993Y-92643852D01*
X140216830Y-92635410D01*
X140250296Y-92598057D01*
X140287727Y-92569003D01*
X140292309Y-92566467D01*
X140359426Y-92546443D01*
X140429926Y-92549755D01*
G36*
X141090117Y-92665358D02*
X141089933Y-92773837D01*
X141089219Y-92857287D01*
X141087675Y-92919704D01*
X141085001Y-92965085D01*
X141080894Y-92997429D01*
X141075055Y-93020733D01*
X141067182Y-93038995D01*
X141061221Y-93049418D01*
X141011855Y-93105945D01*
X140949264Y-93141377D01*
X140880013Y-93154090D01*
X140810668Y-93142463D01*
X140769375Y-93121568D01*
X140726025Y-93085422D01*
X140696481Y-93041276D01*
X140678655Y-92983462D01*
X140670463Y-92906313D01*
X140669302Y-92849714D01*
X140669458Y-92845647D01*
X140770857Y-92845647D01*
X140771476Y-92910550D01*
X140774314Y-92953514D01*
X140780840Y-92981622D01*
X140792523Y-93001953D01*
X140806483Y-93017288D01*
X140853365Y-93046890D01*
X140903701Y-93049419D01*
X140951276Y-93024705D01*
X140954979Y-93021356D01*
X140970783Y-93003935D01*
X140980693Y-92983209D01*
X140986058Y-92952362D01*
X140988228Y-92904577D01*
X140988571Y-92851748D01*
X140987827Y-92785381D01*
X140984748Y-92741106D01*
X140978061Y-92712009D01*
X140966496Y-92691173D01*
X140957013Y-92680107D01*
X140912960Y-92652198D01*
X140862224Y-92648843D01*
X140813796Y-92670159D01*
X140804450Y-92678073D01*
X140788540Y-92695647D01*
X140778610Y-92716587D01*
X140773278Y-92747782D01*
X140771163Y-92796122D01*
X140770857Y-92845647D01*
X140669458Y-92845647D01*
X140672810Y-92758568D01*
X140684726Y-92690086D01*
X140707135Y-92638600D01*
X140742124Y-92598443D01*
X140769375Y-92577861D01*
X140818907Y-92555625D01*
X140876316Y-92545304D01*
X140929682Y-92548067D01*
X140959543Y-92559212D01*
X140971261Y-92562383D01*
X140979037Y-92550557D01*
X140984465Y-92518866D01*
X140988571Y-92470593D01*
X140993067Y-92416829D01*
X140999313Y-92384482D01*
X141010676Y-92365985D01*
X141030528Y-92353770D01*
X141043000Y-92348362D01*
X141090171Y-92328601D01*
X141090117Y-92665358D01*
X141090117Y-92665358D01*
G37*
X141090117Y-92665358D02*
X141089933Y-92773837D01*
X141089219Y-92857287D01*
X141087675Y-92919704D01*
X141085001Y-92965085D01*
X141080894Y-92997429D01*
X141075055Y-93020733D01*
X141067182Y-93038995D01*
X141061221Y-93049418D01*
X141011855Y-93105945D01*
X140949264Y-93141377D01*
X140880013Y-93154090D01*
X140810668Y-93142463D01*
X140769375Y-93121568D01*
X140726025Y-93085422D01*
X140696481Y-93041276D01*
X140678655Y-92983462D01*
X140670463Y-92906313D01*
X140669302Y-92849714D01*
X140669458Y-92845647D01*
X140770857Y-92845647D01*
X140771476Y-92910550D01*
X140774314Y-92953514D01*
X140780840Y-92981622D01*
X140792523Y-93001953D01*
X140806483Y-93017288D01*
X140853365Y-93046890D01*
X140903701Y-93049419D01*
X140951276Y-93024705D01*
X140954979Y-93021356D01*
X140970783Y-93003935D01*
X140980693Y-92983209D01*
X140986058Y-92952362D01*
X140988228Y-92904577D01*
X140988571Y-92851748D01*
X140987827Y-92785381D01*
X140984748Y-92741106D01*
X140978061Y-92712009D01*
X140966496Y-92691173D01*
X140957013Y-92680107D01*
X140912960Y-92652198D01*
X140862224Y-92648843D01*
X140813796Y-92670159D01*
X140804450Y-92678073D01*
X140788540Y-92695647D01*
X140778610Y-92716587D01*
X140773278Y-92747782D01*
X140771163Y-92796122D01*
X140770857Y-92845647D01*
X140669458Y-92845647D01*
X140672810Y-92758568D01*
X140684726Y-92690086D01*
X140707135Y-92638600D01*
X140742124Y-92598443D01*
X140769375Y-92577861D01*
X140818907Y-92555625D01*
X140876316Y-92545304D01*
X140929682Y-92548067D01*
X140959543Y-92559212D01*
X140971261Y-92562383D01*
X140979037Y-92550557D01*
X140984465Y-92518866D01*
X140988571Y-92470593D01*
X140993067Y-92416829D01*
X140999313Y-92384482D01*
X141010676Y-92365985D01*
X141030528Y-92353770D01*
X141043000Y-92348362D01*
X141090171Y-92328601D01*
X141090117Y-92665358D01*
G36*
X141679833Y-92558663D02*
X141682048Y-92596850D01*
X141683784Y-92654886D01*
X141684899Y-92728180D01*
X141685257Y-92805055D01*
X141685257Y-93065196D01*
X141639326Y-93111127D01*
X141607675Y-93139429D01*
X141579890Y-93150893D01*
X141541915Y-93150168D01*
X141526840Y-93148321D01*
X141479726Y-93142948D01*
X141440756Y-93139869D01*
X141431257Y-93139585D01*
X141399233Y-93141445D01*
X141353432Y-93146114D01*
X141335674Y-93148321D01*
X141292057Y-93151735D01*
X141262745Y-93144320D01*
X141233680Y-93121427D01*
X141223188Y-93111127D01*
X141177257Y-93065196D01*
X141177257Y-92578602D01*
X141214226Y-92561758D01*
X141246059Y-92549282D01*
X141264683Y-92544914D01*
X141269458Y-92558718D01*
X141273921Y-92597286D01*
X141277775Y-92656356D01*
X141280722Y-92731663D01*
X141282143Y-92795286D01*
X141286114Y-93045657D01*
X141320759Y-93050556D01*
X141352268Y-93047131D01*
X141367708Y-93036041D01*
X141372023Y-93015308D01*
X141375708Y-92971145D01*
X141378469Y-92909146D01*
X141380012Y-92834909D01*
X141380235Y-92796706D01*
X141380457Y-92576783D01*
X141426166Y-92560849D01*
X141458518Y-92550015D01*
X141476115Y-92544962D01*
X141476623Y-92544914D01*
X141478388Y-92558648D01*
X141480329Y-92596730D01*
X141482282Y-92654482D01*
X141484084Y-92727227D01*
X141485343Y-92795286D01*
X141489314Y-93045657D01*
X141576400Y-93045657D01*
X141580396Y-92817240D01*
X141584392Y-92588822D01*
X141626847Y-92566868D01*
X141658192Y-92551793D01*
X141676744Y-92544951D01*
X141677279Y-92544914D01*
X141679833Y-92558663D01*
X141679833Y-92558663D01*
G37*
X141679833Y-92558663D02*
X141682048Y-92596850D01*
X141683784Y-92654886D01*
X141684899Y-92728180D01*
X141685257Y-92805055D01*
X141685257Y-93065196D01*
X141639326Y-93111127D01*
X141607675Y-93139429D01*
X141579890Y-93150893D01*
X141541915Y-93150168D01*
X141526840Y-93148321D01*
X141479726Y-93142948D01*
X141440756Y-93139869D01*
X141431257Y-93139585D01*
X141399233Y-93141445D01*
X141353432Y-93146114D01*
X141335674Y-93148321D01*
X141292057Y-93151735D01*
X141262745Y-93144320D01*
X141233680Y-93121427D01*
X141223188Y-93111127D01*
X141177257Y-93065196D01*
X141177257Y-92578602D01*
X141214226Y-92561758D01*
X141246059Y-92549282D01*
X141264683Y-92544914D01*
X141269458Y-92558718D01*
X141273921Y-92597286D01*
X141277775Y-92656356D01*
X141280722Y-92731663D01*
X141282143Y-92795286D01*
X141286114Y-93045657D01*
X141320759Y-93050556D01*
X141352268Y-93047131D01*
X141367708Y-93036041D01*
X141372023Y-93015308D01*
X141375708Y-92971145D01*
X141378469Y-92909146D01*
X141380012Y-92834909D01*
X141380235Y-92796706D01*
X141380457Y-92576783D01*
X141426166Y-92560849D01*
X141458518Y-92550015D01*
X141476115Y-92544962D01*
X141476623Y-92544914D01*
X141478388Y-92558648D01*
X141480329Y-92596730D01*
X141482282Y-92654482D01*
X141484084Y-92727227D01*
X141485343Y-92795286D01*
X141489314Y-93045657D01*
X141576400Y-93045657D01*
X141580396Y-92817240D01*
X141584392Y-92588822D01*
X141626847Y-92566868D01*
X141658192Y-92551793D01*
X141676744Y-92544951D01*
X141677279Y-92544914D01*
X141679833Y-92558663D01*
G36*
X142044876Y-92556335D02*
X142086667Y-92575344D01*
X142119469Y-92598378D01*
X142143503Y-92624133D01*
X142160097Y-92657358D01*
X142170577Y-92702800D01*
X142176271Y-92765207D01*
X142178507Y-92849327D01*
X142178743Y-92904721D01*
X142178743Y-93120826D01*
X142141774Y-93137670D01*
X142112656Y-93149981D01*
X142098231Y-93154514D01*
X142095472Y-93141025D01*
X142093282Y-93104653D01*
X142091942Y-93051542D01*
X142091657Y-93009372D01*
X142090434Y-92948447D01*
X142087136Y-92900115D01*
X142082321Y-92870518D01*
X142078496Y-92864229D01*
X142052783Y-92870652D01*
X142012418Y-92887125D01*
X141965679Y-92909458D01*
X141920845Y-92933457D01*
X141886193Y-92954930D01*
X141870002Y-92969685D01*
X141869938Y-92969845D01*
X141871330Y-92997152D01*
X141883818Y-93023219D01*
X141905743Y-93044392D01*
X141937743Y-93051474D01*
X141965092Y-93050649D01*
X142003826Y-93050042D01*
X142024158Y-93059116D01*
X142036369Y-93083092D01*
X142037909Y-93087613D01*
X142043203Y-93121806D01*
X142029047Y-93142568D01*
X141992148Y-93152462D01*
X141952289Y-93154292D01*
X141880562Y-93140727D01*
X141843432Y-93121355D01*
X141797576Y-93075845D01*
X141773256Y-93019983D01*
X141771073Y-92960957D01*
X141791629Y-92905953D01*
X141822549Y-92871486D01*
X141853420Y-92852189D01*
X141901942Y-92827759D01*
X141958485Y-92802985D01*
X141967910Y-92799199D01*
X142030019Y-92771791D01*
X142065822Y-92747634D01*
X142077337Y-92723619D01*
X142066580Y-92696635D01*
X142048114Y-92675543D01*
X142004469Y-92649572D01*
X141956446Y-92647624D01*
X141912406Y-92667637D01*
X141880709Y-92707551D01*
X141876549Y-92717848D01*
X141852327Y-92755724D01*
X141816965Y-92783842D01*
X141772343Y-92806917D01*
X141772343Y-92741485D01*
X141774969Y-92701506D01*
X141786230Y-92669997D01*
X141811199Y-92636378D01*
X141835169Y-92610484D01*
X141872441Y-92573817D01*
X141901401Y-92554121D01*
X141932505Y-92546220D01*
X141967713Y-92544914D01*
X142044876Y-92556335D01*
X142044876Y-92556335D01*
G37*
X142044876Y-92556335D02*
X142086667Y-92575344D01*
X142119469Y-92598378D01*
X142143503Y-92624133D01*
X142160097Y-92657358D01*
X142170577Y-92702800D01*
X142176271Y-92765207D01*
X142178507Y-92849327D01*
X142178743Y-92904721D01*
X142178743Y-93120826D01*
X142141774Y-93137670D01*
X142112656Y-93149981D01*
X142098231Y-93154514D01*
X142095472Y-93141025D01*
X142093282Y-93104653D01*
X142091942Y-93051542D01*
X142091657Y-93009372D01*
X142090434Y-92948447D01*
X142087136Y-92900115D01*
X142082321Y-92870518D01*
X142078496Y-92864229D01*
X142052783Y-92870652D01*
X142012418Y-92887125D01*
X141965679Y-92909458D01*
X141920845Y-92933457D01*
X141886193Y-92954930D01*
X141870002Y-92969685D01*
X141869938Y-92969845D01*
X141871330Y-92997152D01*
X141883818Y-93023219D01*
X141905743Y-93044392D01*
X141937743Y-93051474D01*
X141965092Y-93050649D01*
X142003826Y-93050042D01*
X142024158Y-93059116D01*
X142036369Y-93083092D01*
X142037909Y-93087613D01*
X142043203Y-93121806D01*
X142029047Y-93142568D01*
X141992148Y-93152462D01*
X141952289Y-93154292D01*
X141880562Y-93140727D01*
X141843432Y-93121355D01*
X141797576Y-93075845D01*
X141773256Y-93019983D01*
X141771073Y-92960957D01*
X141791629Y-92905953D01*
X141822549Y-92871486D01*
X141853420Y-92852189D01*
X141901942Y-92827759D01*
X141958485Y-92802985D01*
X141967910Y-92799199D01*
X142030019Y-92771791D01*
X142065822Y-92747634D01*
X142077337Y-92723619D01*
X142066580Y-92696635D01*
X142048114Y-92675543D01*
X142004469Y-92649572D01*
X141956446Y-92647624D01*
X141912406Y-92667637D01*
X141880709Y-92707551D01*
X141876549Y-92717848D01*
X141852327Y-92755724D01*
X141816965Y-92783842D01*
X141772343Y-92806917D01*
X141772343Y-92741485D01*
X141774969Y-92701506D01*
X141786230Y-92669997D01*
X141811199Y-92636378D01*
X141835169Y-92610484D01*
X141872441Y-92573817D01*
X141901401Y-92554121D01*
X141932505Y-92546220D01*
X141967713Y-92544914D01*
X142044876Y-92556335D01*
G36*
X142552600Y-92558752D02*
X142569948Y-92566334D01*
X142611356Y-92599128D01*
X142646765Y-92646547D01*
X142668664Y-92697151D01*
X142672229Y-92722098D01*
X142660279Y-92756927D01*
X142634067Y-92775357D01*
X142605964Y-92786516D01*
X142593095Y-92788572D01*
X142586829Y-92773649D01*
X142574456Y-92741175D01*
X142569028Y-92726502D01*
X142538590Y-92675744D01*
X142494520Y-92650427D01*
X142438010Y-92651206D01*
X142433825Y-92652203D01*
X142403655Y-92666507D01*
X142381476Y-92694393D01*
X142366327Y-92739287D01*
X142357250Y-92804615D01*
X142353286Y-92893804D01*
X142352914Y-92941261D01*
X142352730Y-93016071D01*
X142351522Y-93067069D01*
X142348309Y-93099471D01*
X142342109Y-93118495D01*
X142331940Y-93129356D01*
X142316819Y-93137272D01*
X142315946Y-93137670D01*
X142286828Y-93149981D01*
X142272403Y-93154514D01*
X142270186Y-93140809D01*
X142268289Y-93102925D01*
X142266847Y-93045715D01*
X142265998Y-92974027D01*
X142265829Y-92921565D01*
X142266692Y-92820047D01*
X142270070Y-92743032D01*
X142277142Y-92686023D01*
X142289088Y-92644526D01*
X142307090Y-92614043D01*
X142332327Y-92590080D01*
X142357247Y-92573355D01*
X142417171Y-92551097D01*
X142486911Y-92546076D01*
X142552600Y-92558752D01*
X142552600Y-92558752D01*
G37*
X142552600Y-92558752D02*
X142569948Y-92566334D01*
X142611356Y-92599128D01*
X142646765Y-92646547D01*
X142668664Y-92697151D01*
X142672229Y-92722098D01*
X142660279Y-92756927D01*
X142634067Y-92775357D01*
X142605964Y-92786516D01*
X142593095Y-92788572D01*
X142586829Y-92773649D01*
X142574456Y-92741175D01*
X142569028Y-92726502D01*
X142538590Y-92675744D01*
X142494520Y-92650427D01*
X142438010Y-92651206D01*
X142433825Y-92652203D01*
X142403655Y-92666507D01*
X142381476Y-92694393D01*
X142366327Y-92739287D01*
X142357250Y-92804615D01*
X142353286Y-92893804D01*
X142352914Y-92941261D01*
X142352730Y-93016071D01*
X142351522Y-93067069D01*
X142348309Y-93099471D01*
X142342109Y-93118495D01*
X142331940Y-93129356D01*
X142316819Y-93137272D01*
X142315946Y-93137670D01*
X142286828Y-93149981D01*
X142272403Y-93154514D01*
X142270186Y-93140809D01*
X142268289Y-93102925D01*
X142266847Y-93045715D01*
X142265998Y-92974027D01*
X142265829Y-92921565D01*
X142266692Y-92820047D01*
X142270070Y-92743032D01*
X142277142Y-92686023D01*
X142289088Y-92644526D01*
X142307090Y-92614043D01*
X142332327Y-92590080D01*
X142357247Y-92573355D01*
X142417171Y-92551097D01*
X142486911Y-92546076D01*
X142552600Y-92558752D01*
G36*
X143053595Y-92566966D02*
X143111021Y-92604497D01*
X143138719Y-92638096D01*
X143160662Y-92699064D01*
X143162405Y-92747308D01*
X143158457Y-92811816D01*
X143009686Y-92876934D01*
X142937349Y-92910202D01*
X142890084Y-92936964D01*
X142865507Y-92960144D01*
X142861237Y-92982667D01*
X142874889Y-93007455D01*
X142889943Y-93023886D01*
X142933746Y-93050235D01*
X142981389Y-93052081D01*
X143025145Y-93031546D01*
X143057289Y-92990752D01*
X143063038Y-92976347D01*
X143090576Y-92931356D01*
X143122258Y-92912182D01*
X143165714Y-92895779D01*
X143165714Y-92957966D01*
X143161872Y-93000283D01*
X143146823Y-93035969D01*
X143115280Y-93076943D01*
X143110592Y-93082267D01*
X143075506Y-93118720D01*
X143045347Y-93138283D01*
X143007615Y-93147283D01*
X142976335Y-93150230D01*
X142920385Y-93150965D01*
X142880555Y-93141660D01*
X142855708Y-93127846D01*
X142816656Y-93097467D01*
X142789625Y-93064613D01*
X142772517Y-93023294D01*
X142763238Y-92967521D01*
X142759693Y-92891305D01*
X142759410Y-92852622D01*
X142760372Y-92806247D01*
X142848007Y-92806247D01*
X142849023Y-92831126D01*
X142851556Y-92835200D01*
X142868274Y-92829665D01*
X142904249Y-92815017D01*
X142952331Y-92794190D01*
X142962386Y-92789714D01*
X143023152Y-92758814D01*
X143056632Y-92731657D01*
X143063990Y-92706220D01*
X143046391Y-92680481D01*
X143031856Y-92669109D01*
X142979410Y-92646364D01*
X142930322Y-92650122D01*
X142889227Y-92677884D01*
X142860758Y-92727152D01*
X142851631Y-92766257D01*
X142848007Y-92806247D01*
X142760372Y-92806247D01*
X142761285Y-92762249D01*
X142768196Y-92695384D01*
X142781884Y-92646695D01*
X142804096Y-92610849D01*
X142836574Y-92582513D01*
X142850733Y-92573355D01*
X142915053Y-92549507D01*
X142985473Y-92548006D01*
X143053595Y-92566966D01*
X143053595Y-92566966D01*
G37*
X143053595Y-92566966D02*
X143111021Y-92604497D01*
X143138719Y-92638096D01*
X143160662Y-92699064D01*
X143162405Y-92747308D01*
X143158457Y-92811816D01*
X143009686Y-92876934D01*
X142937349Y-92910202D01*
X142890084Y-92936964D01*
X142865507Y-92960144D01*
X142861237Y-92982667D01*
X142874889Y-93007455D01*
X142889943Y-93023886D01*
X142933746Y-93050235D01*
X142981389Y-93052081D01*
X143025145Y-93031546D01*
X143057289Y-92990752D01*
X143063038Y-92976347D01*
X143090576Y-92931356D01*
X143122258Y-92912182D01*
X143165714Y-92895779D01*
X143165714Y-92957966D01*
X143161872Y-93000283D01*
X143146823Y-93035969D01*
X143115280Y-93076943D01*
X143110592Y-93082267D01*
X143075506Y-93118720D01*
X143045347Y-93138283D01*
X143007615Y-93147283D01*
X142976335Y-93150230D01*
X142920385Y-93150965D01*
X142880555Y-93141660D01*
X142855708Y-93127846D01*
X142816656Y-93097467D01*
X142789625Y-93064613D01*
X142772517Y-93023294D01*
X142763238Y-92967521D01*
X142759693Y-92891305D01*
X142759410Y-92852622D01*
X142760372Y-92806247D01*
X142848007Y-92806247D01*
X142849023Y-92831126D01*
X142851556Y-92835200D01*
X142868274Y-92829665D01*
X142904249Y-92815017D01*
X142952331Y-92794190D01*
X142962386Y-92789714D01*
X143023152Y-92758814D01*
X143056632Y-92731657D01*
X143063990Y-92706220D01*
X143046391Y-92680481D01*
X143031856Y-92669109D01*
X142979410Y-92646364D01*
X142930322Y-92650122D01*
X142889227Y-92677884D01*
X142860758Y-92727152D01*
X142851631Y-92766257D01*
X142848007Y-92806247D01*
X142760372Y-92806247D01*
X142761285Y-92762249D01*
X142768196Y-92695384D01*
X142781884Y-92646695D01*
X142804096Y-92610849D01*
X142836574Y-92582513D01*
X142850733Y-92573355D01*
X142915053Y-92549507D01*
X142985473Y-92548006D01*
X143053595Y-92566966D01*
G36*
X140003910Y-87842348D02*
X140082454Y-87842778D01*
X140139298Y-87843942D01*
X140178105Y-87846207D01*
X140202538Y-87849940D01*
X140216262Y-87855506D01*
X140222940Y-87863273D01*
X140226236Y-87873605D01*
X140226556Y-87874943D01*
X140231562Y-87899079D01*
X140240829Y-87946701D01*
X140253392Y-88012741D01*
X140268287Y-88092128D01*
X140284551Y-88179796D01*
X140285119Y-88182875D01*
X140301410Y-88268789D01*
X140316652Y-88344696D01*
X140329861Y-88406045D01*
X140340054Y-88448282D01*
X140346248Y-88466855D01*
X140346543Y-88467184D01*
X140364788Y-88476253D01*
X140402405Y-88491367D01*
X140451271Y-88509262D01*
X140451543Y-88509358D01*
X140513093Y-88532493D01*
X140585657Y-88561965D01*
X140654057Y-88591597D01*
X140657294Y-88593062D01*
X140768702Y-88643626D01*
X141015399Y-88475160D01*
X141091077Y-88423803D01*
X141159631Y-88377889D01*
X141217088Y-88340030D01*
X141259476Y-88312837D01*
X141282825Y-88298921D01*
X141285042Y-88297889D01*
X141302010Y-88302484D01*
X141333701Y-88324655D01*
X141381352Y-88365447D01*
X141446198Y-88425905D01*
X141512397Y-88490227D01*
X141576214Y-88553612D01*
X141633329Y-88611451D01*
X141680305Y-88660175D01*
X141713703Y-88696210D01*
X141730085Y-88715984D01*
X141730694Y-88717002D01*
X141732505Y-88730572D01*
X141725683Y-88752733D01*
X141708540Y-88786478D01*
X141679393Y-88834800D01*
X141636555Y-88900692D01*
X141579448Y-88985517D01*
X141528766Y-89060177D01*
X141483461Y-89127140D01*
X141446150Y-89182516D01*
X141419452Y-89222420D01*
X141405985Y-89242962D01*
X141405137Y-89244356D01*
X141406781Y-89264038D01*
X141419245Y-89302293D01*
X141440048Y-89351889D01*
X141447462Y-89367728D01*
X141479814Y-89438290D01*
X141514328Y-89518353D01*
X141542365Y-89587629D01*
X141562568Y-89639045D01*
X141578615Y-89678119D01*
X141587888Y-89698541D01*
X141589041Y-89700114D01*
X141606096Y-89702721D01*
X141646298Y-89709863D01*
X141704302Y-89720523D01*
X141774763Y-89733685D01*
X141852335Y-89748333D01*
X141931672Y-89763449D01*
X142007431Y-89778018D01*
X142074264Y-89791022D01*
X142126828Y-89801445D01*
X142159776Y-89808270D01*
X142167857Y-89810199D01*
X142176205Y-89814962D01*
X142182506Y-89825718D01*
X142187045Y-89846098D01*
X142190104Y-89879734D01*
X142191967Y-89930255D01*
X142192918Y-90001292D01*
X142193240Y-90096476D01*
X142193257Y-90135492D01*
X142193257Y-90452799D01*
X142117057Y-90467839D01*
X142074663Y-90475995D01*
X142011400Y-90487899D01*
X141934962Y-90502116D01*
X141853043Y-90517210D01*
X141830400Y-90521355D01*
X141754806Y-90536053D01*
X141688953Y-90550505D01*
X141638366Y-90563375D01*
X141608574Y-90573322D01*
X141603612Y-90576287D01*
X141591426Y-90597283D01*
X141573953Y-90637967D01*
X141554577Y-90690322D01*
X141550734Y-90701600D01*
X141525339Y-90771523D01*
X141493817Y-90850418D01*
X141462969Y-90921266D01*
X141462817Y-90921595D01*
X141411447Y-91032733D01*
X141580399Y-91281253D01*
X141749352Y-91529772D01*
X141532429Y-91747058D01*
X141466819Y-91811726D01*
X141406979Y-91868733D01*
X141356267Y-91915033D01*
X141318046Y-91947584D01*
X141295675Y-91963343D01*
X141292466Y-91964343D01*
X141273626Y-91956469D01*
X141235180Y-91934578D01*
X141181330Y-91901267D01*
X141116276Y-91859131D01*
X141045940Y-91811943D01*
X140974555Y-91763810D01*
X140910908Y-91721928D01*
X140859041Y-91688871D01*
X140822995Y-91667218D01*
X140806867Y-91659543D01*
X140787189Y-91666037D01*
X140749875Y-91683150D01*
X140702621Y-91707326D01*
X140697612Y-91710013D01*
X140633977Y-91741927D01*
X140590341Y-91757579D01*
X140563202Y-91757745D01*
X140549057Y-91743204D01*
X140548975Y-91743000D01*
X140541905Y-91725779D01*
X140525042Y-91684899D01*
X140499695Y-91623525D01*
X140467171Y-91544819D01*
X140428778Y-91451947D01*
X140385822Y-91348072D01*
X140344222Y-91247502D01*
X140298504Y-91136516D01*
X140256526Y-91033703D01*
X140219548Y-90942215D01*
X140188827Y-90865201D01*
X140165622Y-90805815D01*
X140151190Y-90767209D01*
X140146743Y-90752800D01*
X140157896Y-90736272D01*
X140187069Y-90709930D01*
X140225971Y-90680887D01*
X140336757Y-90589039D01*
X140423351Y-90483759D01*
X140484716Y-90367266D01*
X140519815Y-90241776D01*
X140527608Y-90109507D01*
X140521943Y-90048457D01*
X140491078Y-89921795D01*
X140437920Y-89809941D01*
X140365767Y-89714001D01*
X140277917Y-89635076D01*
X140177665Y-89574270D01*
X140068310Y-89532687D01*
X139953147Y-89511428D01*
X139835475Y-89511599D01*
X139718590Y-89534301D01*
X139605789Y-89580638D01*
X139500369Y-89651713D01*
X139456368Y-89691911D01*
X139371979Y-89795129D01*
X139313222Y-89907925D01*
X139279704Y-90027010D01*
X139271035Y-90149095D01*
X139286823Y-90270893D01*
X139326678Y-90389116D01*
X139390207Y-90500475D01*
X139477021Y-90601684D01*
X139574029Y-90680887D01*
X139614437Y-90711162D01*
X139642982Y-90737219D01*
X139653257Y-90752825D01*
X139647877Y-90769843D01*
X139632575Y-90810500D01*
X139608612Y-90871642D01*
X139577244Y-90950119D01*
X139539732Y-91042780D01*
X139497333Y-91146472D01*
X139455663Y-91247526D01*
X139409690Y-91358607D01*
X139367107Y-91461541D01*
X139329221Y-91553165D01*
X139297340Y-91630316D01*
X139272771Y-91689831D01*
X139256820Y-91728544D01*
X139250910Y-91743000D01*
X139236948Y-91757685D01*
X139209940Y-91757642D01*
X139166413Y-91742099D01*
X139102890Y-91710284D01*
X139102388Y-91710013D01*
X139054560Y-91685323D01*
X139015897Y-91667338D01*
X138994095Y-91659614D01*
X138993133Y-91659543D01*
X138976721Y-91667378D01*
X138940487Y-91689165D01*
X138888474Y-91722328D01*
X138824725Y-91764291D01*
X138754060Y-91811943D01*
X138682116Y-91860191D01*
X138617274Y-91902151D01*
X138563735Y-91935227D01*
X138525697Y-91956821D01*
X138507533Y-91964343D01*
X138490808Y-91954457D01*
X138457180Y-91926826D01*
X138410010Y-91884495D01*
X138352658Y-91830505D01*
X138288484Y-91767899D01*
X138267497Y-91746983D01*
X138050499Y-91529623D01*
X138215668Y-91287220D01*
X138265864Y-91212781D01*
X138309919Y-91145972D01*
X138345362Y-91090665D01*
X138369719Y-91050729D01*
X138380522Y-91030036D01*
X138380838Y-91028563D01*
X138375143Y-91009058D01*
X138359826Y-90969822D01*
X138337537Y-90917430D01*
X138321893Y-90882355D01*
X138292641Y-90815201D01*
X138265094Y-90747358D01*
X138243737Y-90690034D01*
X138237935Y-90672572D01*
X138221452Y-90625938D01*
X138205340Y-90589905D01*
X138196490Y-90576287D01*
X138176960Y-90567952D01*
X138134334Y-90556137D01*
X138074145Y-90542181D01*
X138001922Y-90527422D01*
X137969600Y-90521355D01*
X137887522Y-90506273D01*
X137808795Y-90491669D01*
X137741109Y-90478980D01*
X137692160Y-90469642D01*
X137682943Y-90467839D01*
X137606743Y-90452799D01*
X137606743Y-90135492D01*
X137606914Y-90031154D01*
X137607616Y-89952213D01*
X137609134Y-89895038D01*
X137611749Y-89855999D01*
X137615746Y-89831465D01*
X137621409Y-89817805D01*
X137629020Y-89811389D01*
X137632143Y-89810199D01*
X137650978Y-89805980D01*
X137692588Y-89797562D01*
X137751630Y-89785961D01*
X137822757Y-89772195D01*
X137900625Y-89757280D01*
X137979887Y-89742232D01*
X138055198Y-89728069D01*
X138121213Y-89715806D01*
X138172587Y-89706461D01*
X138203975Y-89701050D01*
X138210959Y-89700114D01*
X138217285Y-89687596D01*
X138231290Y-89654246D01*
X138250355Y-89606377D01*
X138257634Y-89587629D01*
X138286996Y-89515195D01*
X138321571Y-89435170D01*
X138352537Y-89367728D01*
X138375323Y-89316159D01*
X138390482Y-89273785D01*
X138395542Y-89247834D01*
X138394736Y-89244356D01*
X138384041Y-89227936D01*
X138359620Y-89191417D01*
X138324095Y-89138687D01*
X138280087Y-89073635D01*
X138230217Y-89000151D01*
X138220356Y-88985645D01*
X138162492Y-88899704D01*
X138119956Y-88834261D01*
X138091054Y-88786304D01*
X138074090Y-88752820D01*
X138067367Y-88730795D01*
X138069190Y-88717217D01*
X138069236Y-88717131D01*
X138083586Y-88699297D01*
X138115323Y-88664817D01*
X138161010Y-88617268D01*
X138217204Y-88560222D01*
X138280468Y-88497255D01*
X138287602Y-88490227D01*
X138367330Y-88413020D01*
X138428857Y-88356330D01*
X138473421Y-88319110D01*
X138502257Y-88300315D01*
X138514958Y-88297889D01*
X138533494Y-88308471D01*
X138571961Y-88332916D01*
X138626386Y-88368612D01*
X138692798Y-88412947D01*
X138767225Y-88463311D01*
X138784601Y-88475160D01*
X139031297Y-88643626D01*
X139142706Y-88593062D01*
X139210457Y-88563595D01*
X139283183Y-88533959D01*
X139345703Y-88510330D01*
X139348457Y-88509358D01*
X139397360Y-88491457D01*
X139435057Y-88476320D01*
X139453425Y-88467210D01*
X139453456Y-88467184D01*
X139459285Y-88450717D01*
X139469192Y-88410219D01*
X139482195Y-88350242D01*
X139497309Y-88275340D01*
X139513552Y-88190064D01*
X139514881Y-88182875D01*
X139531175Y-88095014D01*
X139546133Y-88015260D01*
X139558791Y-87948681D01*
X139568186Y-87900347D01*
X139573354Y-87875325D01*
X139573444Y-87874943D01*
X139576589Y-87864299D01*
X139582704Y-87856262D01*
X139595453Y-87850467D01*
X139618500Y-87846547D01*
X139655509Y-87844135D01*
X139710144Y-87842865D01*
X139786067Y-87842371D01*
X139886944Y-87842286D01*
X139900000Y-87842286D01*
X140003910Y-87842348D01*
X140003910Y-87842348D01*
G37*
X140003910Y-87842348D02*
X140082454Y-87842778D01*
X140139298Y-87843942D01*
X140178105Y-87846207D01*
X140202538Y-87849940D01*
X140216262Y-87855506D01*
X140222940Y-87863273D01*
X140226236Y-87873605D01*
X140226556Y-87874943D01*
X140231562Y-87899079D01*
X140240829Y-87946701D01*
X140253392Y-88012741D01*
X140268287Y-88092128D01*
X140284551Y-88179796D01*
X140285119Y-88182875D01*
X140301410Y-88268789D01*
X140316652Y-88344696D01*
X140329861Y-88406045D01*
X140340054Y-88448282D01*
X140346248Y-88466855D01*
X140346543Y-88467184D01*
X140364788Y-88476253D01*
X140402405Y-88491367D01*
X140451271Y-88509262D01*
X140451543Y-88509358D01*
X140513093Y-88532493D01*
X140585657Y-88561965D01*
X140654057Y-88591597D01*
X140657294Y-88593062D01*
X140768702Y-88643626D01*
X141015399Y-88475160D01*
X141091077Y-88423803D01*
X141159631Y-88377889D01*
X141217088Y-88340030D01*
X141259476Y-88312837D01*
X141282825Y-88298921D01*
X141285042Y-88297889D01*
X141302010Y-88302484D01*
X141333701Y-88324655D01*
X141381352Y-88365447D01*
X141446198Y-88425905D01*
X141512397Y-88490227D01*
X141576214Y-88553612D01*
X141633329Y-88611451D01*
X141680305Y-88660175D01*
X141713703Y-88696210D01*
X141730085Y-88715984D01*
X141730694Y-88717002D01*
X141732505Y-88730572D01*
X141725683Y-88752733D01*
X141708540Y-88786478D01*
X141679393Y-88834800D01*
X141636555Y-88900692D01*
X141579448Y-88985517D01*
X141528766Y-89060177D01*
X141483461Y-89127140D01*
X141446150Y-89182516D01*
X141419452Y-89222420D01*
X141405985Y-89242962D01*
X141405137Y-89244356D01*
X141406781Y-89264038D01*
X141419245Y-89302293D01*
X141440048Y-89351889D01*
X141447462Y-89367728D01*
X141479814Y-89438290D01*
X141514328Y-89518353D01*
X141542365Y-89587629D01*
X141562568Y-89639045D01*
X141578615Y-89678119D01*
X141587888Y-89698541D01*
X141589041Y-89700114D01*
X141606096Y-89702721D01*
X141646298Y-89709863D01*
X141704302Y-89720523D01*
X141774763Y-89733685D01*
X141852335Y-89748333D01*
X141931672Y-89763449D01*
X142007431Y-89778018D01*
X142074264Y-89791022D01*
X142126828Y-89801445D01*
X142159776Y-89808270D01*
X142167857Y-89810199D01*
X142176205Y-89814962D01*
X142182506Y-89825718D01*
X142187045Y-89846098D01*
X142190104Y-89879734D01*
X142191967Y-89930255D01*
X142192918Y-90001292D01*
X142193240Y-90096476D01*
X142193257Y-90135492D01*
X142193257Y-90452799D01*
X142117057Y-90467839D01*
X142074663Y-90475995D01*
X142011400Y-90487899D01*
X141934962Y-90502116D01*
X141853043Y-90517210D01*
X141830400Y-90521355D01*
X141754806Y-90536053D01*
X141688953Y-90550505D01*
X141638366Y-90563375D01*
X141608574Y-90573322D01*
X141603612Y-90576287D01*
X141591426Y-90597283D01*
X141573953Y-90637967D01*
X141554577Y-90690322D01*
X141550734Y-90701600D01*
X141525339Y-90771523D01*
X141493817Y-90850418D01*
X141462969Y-90921266D01*
X141462817Y-90921595D01*
X141411447Y-91032733D01*
X141580399Y-91281253D01*
X141749352Y-91529772D01*
X141532429Y-91747058D01*
X141466819Y-91811726D01*
X141406979Y-91868733D01*
X141356267Y-91915033D01*
X141318046Y-91947584D01*
X141295675Y-91963343D01*
X141292466Y-91964343D01*
X141273626Y-91956469D01*
X141235180Y-91934578D01*
X141181330Y-91901267D01*
X141116276Y-91859131D01*
X141045940Y-91811943D01*
X140974555Y-91763810D01*
X140910908Y-91721928D01*
X140859041Y-91688871D01*
X140822995Y-91667218D01*
X140806867Y-91659543D01*
X140787189Y-91666037D01*
X140749875Y-91683150D01*
X140702621Y-91707326D01*
X140697612Y-91710013D01*
X140633977Y-91741927D01*
X140590341Y-91757579D01*
X140563202Y-91757745D01*
X140549057Y-91743204D01*
X140548975Y-91743000D01*
X140541905Y-91725779D01*
X140525042Y-91684899D01*
X140499695Y-91623525D01*
X140467171Y-91544819D01*
X140428778Y-91451947D01*
X140385822Y-91348072D01*
X140344222Y-91247502D01*
X140298504Y-91136516D01*
X140256526Y-91033703D01*
X140219548Y-90942215D01*
X140188827Y-90865201D01*
X140165622Y-90805815D01*
X140151190Y-90767209D01*
X140146743Y-90752800D01*
X140157896Y-90736272D01*
X140187069Y-90709930D01*
X140225971Y-90680887D01*
X140336757Y-90589039D01*
X140423351Y-90483759D01*
X140484716Y-90367266D01*
X140519815Y-90241776D01*
X140527608Y-90109507D01*
X140521943Y-90048457D01*
X140491078Y-89921795D01*
X140437920Y-89809941D01*
X140365767Y-89714001D01*
X140277917Y-89635076D01*
X140177665Y-89574270D01*
X140068310Y-89532687D01*
X139953147Y-89511428D01*
X139835475Y-89511599D01*
X139718590Y-89534301D01*
X139605789Y-89580638D01*
X139500369Y-89651713D01*
X139456368Y-89691911D01*
X139371979Y-89795129D01*
X139313222Y-89907925D01*
X139279704Y-90027010D01*
X139271035Y-90149095D01*
X139286823Y-90270893D01*
X139326678Y-90389116D01*
X139390207Y-90500475D01*
X139477021Y-90601684D01*
X139574029Y-90680887D01*
X139614437Y-90711162D01*
X139642982Y-90737219D01*
X139653257Y-90752825D01*
X139647877Y-90769843D01*
X139632575Y-90810500D01*
X139608612Y-90871642D01*
X139577244Y-90950119D01*
X139539732Y-91042780D01*
X139497333Y-91146472D01*
X139455663Y-91247526D01*
X139409690Y-91358607D01*
X139367107Y-91461541D01*
X139329221Y-91553165D01*
X139297340Y-91630316D01*
X139272771Y-91689831D01*
X139256820Y-91728544D01*
X139250910Y-91743000D01*
X139236948Y-91757685D01*
X139209940Y-91757642D01*
X139166413Y-91742099D01*
X139102890Y-91710284D01*
X139102388Y-91710013D01*
X139054560Y-91685323D01*
X139015897Y-91667338D01*
X138994095Y-91659614D01*
X138993133Y-91659543D01*
X138976721Y-91667378D01*
X138940487Y-91689165D01*
X138888474Y-91722328D01*
X138824725Y-91764291D01*
X138754060Y-91811943D01*
X138682116Y-91860191D01*
X138617274Y-91902151D01*
X138563735Y-91935227D01*
X138525697Y-91956821D01*
X138507533Y-91964343D01*
X138490808Y-91954457D01*
X138457180Y-91926826D01*
X138410010Y-91884495D01*
X138352658Y-91830505D01*
X138288484Y-91767899D01*
X138267497Y-91746983D01*
X138050499Y-91529623D01*
X138215668Y-91287220D01*
X138265864Y-91212781D01*
X138309919Y-91145972D01*
X138345362Y-91090665D01*
X138369719Y-91050729D01*
X138380522Y-91030036D01*
X138380838Y-91028563D01*
X138375143Y-91009058D01*
X138359826Y-90969822D01*
X138337537Y-90917430D01*
X138321893Y-90882355D01*
X138292641Y-90815201D01*
X138265094Y-90747358D01*
X138243737Y-90690034D01*
X138237935Y-90672572D01*
X138221452Y-90625938D01*
X138205340Y-90589905D01*
X138196490Y-90576287D01*
X138176960Y-90567952D01*
X138134334Y-90556137D01*
X138074145Y-90542181D01*
X138001922Y-90527422D01*
X137969600Y-90521355D01*
X137887522Y-90506273D01*
X137808795Y-90491669D01*
X137741109Y-90478980D01*
X137692160Y-90469642D01*
X137682943Y-90467839D01*
X137606743Y-90452799D01*
X137606743Y-90135492D01*
X137606914Y-90031154D01*
X137607616Y-89952213D01*
X137609134Y-89895038D01*
X137611749Y-89855999D01*
X137615746Y-89831465D01*
X137621409Y-89817805D01*
X137629020Y-89811389D01*
X137632143Y-89810199D01*
X137650978Y-89805980D01*
X137692588Y-89797562D01*
X137751630Y-89785961D01*
X137822757Y-89772195D01*
X137900625Y-89757280D01*
X137979887Y-89742232D01*
X138055198Y-89728069D01*
X138121213Y-89715806D01*
X138172587Y-89706461D01*
X138203975Y-89701050D01*
X138210959Y-89700114D01*
X138217285Y-89687596D01*
X138231290Y-89654246D01*
X138250355Y-89606377D01*
X138257634Y-89587629D01*
X138286996Y-89515195D01*
X138321571Y-89435170D01*
X138352537Y-89367728D01*
X138375323Y-89316159D01*
X138390482Y-89273785D01*
X138395542Y-89247834D01*
X138394736Y-89244356D01*
X138384041Y-89227936D01*
X138359620Y-89191417D01*
X138324095Y-89138687D01*
X138280087Y-89073635D01*
X138230217Y-89000151D01*
X138220356Y-88985645D01*
X138162492Y-88899704D01*
X138119956Y-88834261D01*
X138091054Y-88786304D01*
X138074090Y-88752820D01*
X138067367Y-88730795D01*
X138069190Y-88717217D01*
X138069236Y-88717131D01*
X138083586Y-88699297D01*
X138115323Y-88664817D01*
X138161010Y-88617268D01*
X138217204Y-88560222D01*
X138280468Y-88497255D01*
X138287602Y-88490227D01*
X138367330Y-88413020D01*
X138428857Y-88356330D01*
X138473421Y-88319110D01*
X138502257Y-88300315D01*
X138514958Y-88297889D01*
X138533494Y-88308471D01*
X138571961Y-88332916D01*
X138626386Y-88368612D01*
X138692798Y-88412947D01*
X138767225Y-88463311D01*
X138784601Y-88475160D01*
X139031297Y-88643626D01*
X139142706Y-88593062D01*
X139210457Y-88563595D01*
X139283183Y-88533959D01*
X139345703Y-88510330D01*
X139348457Y-88509358D01*
X139397360Y-88491457D01*
X139435057Y-88476320D01*
X139453425Y-88467210D01*
X139453456Y-88467184D01*
X139459285Y-88450717D01*
X139469192Y-88410219D01*
X139482195Y-88350242D01*
X139497309Y-88275340D01*
X139513552Y-88190064D01*
X139514881Y-88182875D01*
X139531175Y-88095014D01*
X139546133Y-88015260D01*
X139558791Y-87948681D01*
X139568186Y-87900347D01*
X139573354Y-87875325D01*
X139573444Y-87874943D01*
X139576589Y-87864299D01*
X139582704Y-87856262D01*
X139595453Y-87850467D01*
X139618500Y-87846547D01*
X139655509Y-87844135D01*
X139710144Y-87842865D01*
X139786067Y-87842371D01*
X139886944Y-87842286D01*
X139900000Y-87842286D01*
X140003910Y-87842348D01*
D11*
X161375000Y-94000000D02*
X161375000Y-94525000D01*
X154125000Y-101250000D02*
X154125000Y-100725000D01*
X161375000Y-101250000D02*
X161375000Y-100725000D01*
X154125000Y-94000000D02*
X154650000Y-94000000D01*
X154125000Y-101250000D02*
X154650000Y-101250000D01*
X161375000Y-101250000D02*
X160850000Y-101250000D01*
X161375000Y-94000000D02*
X160850000Y-94000000D01*
X145066667Y-102511905D02*
X144685714Y-102511905D01*
X144685714Y-101711905D01*
X145752381Y-102511905D02*
X145295238Y-102511905D01*
X145523809Y-102511905D02*
X145523809Y-101711905D01*
X145447619Y-101826190D01*
X145371428Y-101902381D01*
X145295238Y-101940476D01*
X159386667Y-85975714D02*
X159348572Y-86013810D01*
X159234286Y-86051905D01*
X159158096Y-86051905D01*
X159043810Y-86013810D01*
X158967619Y-85937619D01*
X158929524Y-85861429D01*
X158891429Y-85709048D01*
X158891429Y-85594762D01*
X158929524Y-85442381D01*
X158967619Y-85366190D01*
X159043810Y-85290000D01*
X159158096Y-85251905D01*
X159234286Y-85251905D01*
X159348572Y-85290000D01*
X159386667Y-85328095D01*
X160148572Y-86051905D02*
X159691429Y-86051905D01*
X159920000Y-86051905D02*
X159920000Y-85251905D01*
X159843810Y-85366190D01*
X159767619Y-85442381D01*
X159691429Y-85480476D01*
X148785715Y-91505000D02*
X148690477Y-91457381D01*
X148547620Y-91457381D01*
X148404762Y-91505000D01*
X148309524Y-91600238D01*
X148261905Y-91695476D01*
X148214286Y-91885952D01*
X148214286Y-92028810D01*
X148261905Y-92219286D01*
X148309524Y-92314524D01*
X148404762Y-92409762D01*
X148547620Y-92457381D01*
X148642858Y-92457381D01*
X148785715Y-92409762D01*
X148833334Y-92362143D01*
X148833334Y-92028810D01*
X148642858Y-92028810D01*
X149785715Y-92457381D02*
X149214286Y-92457381D01*
X149500000Y-92457381D02*
X149500000Y-91457381D01*
X149404762Y-91600238D01*
X149309524Y-91695476D01*
X149214286Y-91743095D01*
X159821428Y-110466905D02*
X160088095Y-111266905D01*
X160354762Y-110466905D01*
X161040476Y-111266905D02*
X160583333Y-111266905D01*
X160811904Y-111266905D02*
X160811904Y-110466905D01*
X160735714Y-110581190D01*
X160659523Y-110657381D01*
X160583333Y-110695476D01*
X161535714Y-110466905D02*
X161611905Y-110466905D01*
X161688095Y-110505000D01*
X161726190Y-110543095D01*
X161764286Y-110619286D01*
X161802381Y-110771667D01*
X161802381Y-110962143D01*
X161764286Y-111114524D01*
X161726190Y-111190714D01*
X161688095Y-111228810D01*
X161611905Y-111266905D01*
X161535714Y-111266905D01*
X161459524Y-111228810D01*
X161421428Y-111190714D01*
X161383333Y-111114524D01*
X161345238Y-110962143D01*
X161345238Y-110771667D01*
X161383333Y-110619286D01*
X161421428Y-110543095D01*
X161459524Y-110505000D01*
X161535714Y-110466905D01*
X158102381Y-107311905D02*
X158369048Y-108111905D01*
X158635715Y-107311905D01*
X158940476Y-108111905D02*
X159092857Y-108111905D01*
X159169048Y-108073810D01*
X159207143Y-108035714D01*
X159283334Y-107921429D01*
X159321429Y-107769048D01*
X159321429Y-107464286D01*
X159283334Y-107388095D01*
X159245238Y-107350000D01*
X159169048Y-107311905D01*
X159016667Y-107311905D01*
X158940476Y-107350000D01*
X158902381Y-107388095D01*
X158864286Y-107464286D01*
X158864286Y-107654762D01*
X158902381Y-107730952D01*
X158940476Y-107769048D01*
X159016667Y-107807143D01*
X159169048Y-107807143D01*
X159245238Y-107769048D01*
X159283334Y-107730952D01*
X159321429Y-107654762D01*
X147252381Y-103166905D02*
X147519048Y-103966905D01*
X147785715Y-103166905D01*
X148471429Y-103966905D02*
X148014286Y-103966905D01*
X148242857Y-103966905D02*
X148242857Y-103166905D01*
X148166667Y-103281190D01*
X148090476Y-103357381D01*
X148014286Y-103395476D01*
X178373810Y-84543095D02*
X178297619Y-84505000D01*
X178221429Y-84428810D01*
X178107143Y-84314524D01*
X178030952Y-84276429D01*
X177954762Y-84276429D01*
X177992857Y-84466905D02*
X177916667Y-84428810D01*
X177840476Y-84352619D01*
X177802381Y-84200238D01*
X177802381Y-83933571D01*
X177840476Y-83781190D01*
X177916667Y-83705000D01*
X177992857Y-83666905D01*
X178145238Y-83666905D01*
X178221429Y-83705000D01*
X178297619Y-83781190D01*
X178335714Y-83933571D01*
X178335714Y-84200238D01*
X178297619Y-84352619D01*
X178221429Y-84428810D01*
X178145238Y-84466905D01*
X177992857Y-84466905D01*
X179097619Y-84466905D02*
X178640476Y-84466905D01*
X178869047Y-84466905D02*
X178869047Y-83666905D01*
X178792857Y-83781190D01*
X178716666Y-83857381D01*
X178640476Y-83895476D01*
X178773810Y-93643095D02*
X178697619Y-93605000D01*
X178621429Y-93528810D01*
X178507143Y-93414524D01*
X178430952Y-93376429D01*
X178354762Y-93376429D01*
X178392857Y-93566905D02*
X178316667Y-93528810D01*
X178240476Y-93452619D01*
X178202381Y-93300238D01*
X178202381Y-93033571D01*
X178240476Y-92881190D01*
X178316667Y-92805000D01*
X178392857Y-92766905D01*
X178545238Y-92766905D01*
X178621429Y-92805000D01*
X178697619Y-92881190D01*
X178735714Y-93033571D01*
X178735714Y-93300238D01*
X178697619Y-93452619D01*
X178621429Y-93528810D01*
X178545238Y-93566905D01*
X178392857Y-93566905D01*
X179459524Y-92766905D02*
X179078571Y-92766905D01*
X179040476Y-93147857D01*
X179078571Y-93109762D01*
X179154762Y-93071667D01*
X179345238Y-93071667D01*
X179421428Y-93109762D01*
X179459524Y-93147857D01*
X179497619Y-93224048D01*
X179497619Y-93414524D01*
X179459524Y-93490714D01*
X179421428Y-93528810D01*
X179345238Y-93566905D01*
X179154762Y-93566905D01*
X179078571Y-93528810D01*
X179040476Y-93490714D01*
X180173810Y-102443095D02*
X180097619Y-102405000D01*
X180021429Y-102328810D01*
X179907143Y-102214524D01*
X179830952Y-102176429D01*
X179754762Y-102176429D01*
X179792857Y-102366905D02*
X179716667Y-102328810D01*
X179640476Y-102252619D01*
X179602381Y-102100238D01*
X179602381Y-101833571D01*
X179640476Y-101681190D01*
X179716667Y-101605000D01*
X179792857Y-101566905D01*
X179945238Y-101566905D01*
X180021429Y-101605000D01*
X180097619Y-101681190D01*
X180135714Y-101833571D01*
X180135714Y-102100238D01*
X180097619Y-102252619D01*
X180021429Y-102328810D01*
X179945238Y-102366905D01*
X179792857Y-102366905D01*
X180402381Y-101566905D02*
X180897619Y-101566905D01*
X180630952Y-101871667D01*
X180745238Y-101871667D01*
X180821428Y-101909762D01*
X180859524Y-101947857D01*
X180897619Y-102024048D01*
X180897619Y-102214524D01*
X180859524Y-102290714D01*
X180821428Y-102328810D01*
X180745238Y-102366905D01*
X180516666Y-102366905D01*
X180440476Y-102328810D01*
X180402381Y-102290714D01*
X160902381Y-79661905D02*
X161169048Y-80461905D01*
X161435715Y-79661905D01*
X161664286Y-79738095D02*
X161702381Y-79700000D01*
X161778572Y-79661905D01*
X161969048Y-79661905D01*
X162045238Y-79700000D01*
X162083334Y-79738095D01*
X162121429Y-79814286D01*
X162121429Y-79890476D01*
X162083334Y-80004762D01*
X161626191Y-80461905D01*
X162121429Y-80461905D01*
X174266667Y-83980714D02*
X174228572Y-84018810D01*
X174114286Y-84056905D01*
X174038096Y-84056905D01*
X173923810Y-84018810D01*
X173847619Y-83942619D01*
X173809524Y-83866429D01*
X173771429Y-83714048D01*
X173771429Y-83599762D01*
X173809524Y-83447381D01*
X173847619Y-83371190D01*
X173923810Y-83295000D01*
X174038096Y-83256905D01*
X174114286Y-83256905D01*
X174228572Y-83295000D01*
X174266667Y-83333095D01*
X174952381Y-83523571D02*
X174952381Y-84056905D01*
X174761905Y-83218810D02*
X174571429Y-83790238D01*
X175066667Y-83790238D01*
X168602381Y-98561905D02*
X168869048Y-99361905D01*
X169135715Y-98561905D01*
X169326191Y-98561905D02*
X169821429Y-98561905D01*
X169554762Y-98866667D01*
X169669048Y-98866667D01*
X169745238Y-98904762D01*
X169783334Y-98942857D01*
X169821429Y-99019048D01*
X169821429Y-99209524D01*
X169783334Y-99285714D01*
X169745238Y-99323810D01*
X169669048Y-99361905D01*
X169440476Y-99361905D01*
X169364286Y-99323810D01*
X169326191Y-99285714D01*
X163102381Y-106061905D02*
X163369048Y-106861905D01*
X163635715Y-106061905D01*
X164245238Y-106328571D02*
X164245238Y-106861905D01*
X164054762Y-106023810D02*
X163864286Y-106595238D01*
X164359524Y-106595238D01*
X174416667Y-100190714D02*
X174378572Y-100228810D01*
X174264286Y-100266905D01*
X174188096Y-100266905D01*
X174073810Y-100228810D01*
X173997619Y-100152619D01*
X173959524Y-100076429D01*
X173921429Y-99924048D01*
X173921429Y-99809762D01*
X173959524Y-99657381D01*
X173997619Y-99581190D01*
X174073810Y-99505000D01*
X174188096Y-99466905D01*
X174264286Y-99466905D01*
X174378572Y-99505000D01*
X174416667Y-99543095D01*
X175102381Y-99466905D02*
X174950000Y-99466905D01*
X174873810Y-99505000D01*
X174835715Y-99543095D01*
X174759524Y-99657381D01*
X174721429Y-99809762D01*
X174721429Y-100114524D01*
X174759524Y-100190714D01*
X174797619Y-100228810D01*
X174873810Y-100266905D01*
X175026191Y-100266905D01*
X175102381Y-100228810D01*
X175140477Y-100190714D01*
X175178572Y-100114524D01*
X175178572Y-99924048D01*
X175140477Y-99847857D01*
X175102381Y-99809762D01*
X175026191Y-99771667D01*
X174873810Y-99771667D01*
X174797619Y-99809762D01*
X174759524Y-99847857D01*
X174721429Y-99924048D01*
X142366667Y-108585714D02*
X142328572Y-108623810D01*
X142214286Y-108661905D01*
X142138096Y-108661905D01*
X142023810Y-108623810D01*
X141947619Y-108547619D01*
X141909524Y-108471429D01*
X141871429Y-108319048D01*
X141871429Y-108204762D01*
X141909524Y-108052381D01*
X141947619Y-107976190D01*
X142023810Y-107900000D01*
X142138096Y-107861905D01*
X142214286Y-107861905D01*
X142328572Y-107900000D01*
X142366667Y-107938095D01*
X142633334Y-107861905D02*
X143166667Y-107861905D01*
X142823810Y-108661905D01*
X152425714Y-106555714D02*
X152387619Y-106593810D01*
X152273333Y-106631905D01*
X152197143Y-106631905D01*
X152082857Y-106593810D01*
X152006666Y-106517619D01*
X151968571Y-106441429D01*
X151930476Y-106289048D01*
X151930476Y-106174762D01*
X151968571Y-106022381D01*
X152006666Y-105946190D01*
X152082857Y-105870000D01*
X152197143Y-105831905D01*
X152273333Y-105831905D01*
X152387619Y-105870000D01*
X152425714Y-105908095D01*
X153187619Y-106631905D02*
X152730476Y-106631905D01*
X152959047Y-106631905D02*
X152959047Y-105831905D01*
X152882857Y-105946190D01*
X152806666Y-106022381D01*
X152730476Y-106060476D01*
X153454286Y-105831905D02*
X153987619Y-105831905D01*
X153644762Y-106631905D01*
X174016667Y-91190714D02*
X173978572Y-91228810D01*
X173864286Y-91266905D01*
X173788096Y-91266905D01*
X173673810Y-91228810D01*
X173597619Y-91152619D01*
X173559524Y-91076429D01*
X173521429Y-90924048D01*
X173521429Y-90809762D01*
X173559524Y-90657381D01*
X173597619Y-90581190D01*
X173673810Y-90505000D01*
X173788096Y-90466905D01*
X173864286Y-90466905D01*
X173978572Y-90505000D01*
X174016667Y-90543095D01*
X174740477Y-90466905D02*
X174359524Y-90466905D01*
X174321429Y-90847857D01*
X174359524Y-90809762D01*
X174435715Y-90771667D01*
X174626191Y-90771667D01*
X174702381Y-90809762D01*
X174740477Y-90847857D01*
X174778572Y-90924048D01*
X174778572Y-91114524D01*
X174740477Y-91190714D01*
X174702381Y-91228810D01*
X174626191Y-91266905D01*
X174435715Y-91266905D01*
X174359524Y-91228810D01*
X174321429Y-91190714D01*
X174235714Y-109190714D02*
X174197619Y-109228810D01*
X174083333Y-109266905D01*
X174007143Y-109266905D01*
X173892857Y-109228810D01*
X173816666Y-109152619D01*
X173778571Y-109076429D01*
X173740476Y-108924048D01*
X173740476Y-108809762D01*
X173778571Y-108657381D01*
X173816666Y-108581190D01*
X173892857Y-108505000D01*
X174007143Y-108466905D01*
X174083333Y-108466905D01*
X174197619Y-108505000D01*
X174235714Y-108543095D01*
X174997619Y-109266905D02*
X174540476Y-109266905D01*
X174769047Y-109266905D02*
X174769047Y-108466905D01*
X174692857Y-108581190D01*
X174616666Y-108657381D01*
X174540476Y-108695476D01*
X175378571Y-109266905D02*
X175530952Y-109266905D01*
X175607143Y-109228810D01*
X175645238Y-109190714D01*
X175721429Y-109076429D01*
X175759524Y-108924048D01*
X175759524Y-108619286D01*
X175721429Y-108543095D01*
X175683333Y-108505000D01*
X175607143Y-108466905D01*
X175454762Y-108466905D01*
X175378571Y-108505000D01*
X175340476Y-108543095D01*
X175302381Y-108619286D01*
X175302381Y-108809762D01*
X175340476Y-108885952D01*
X175378571Y-108924048D01*
X175454762Y-108962143D01*
X175607143Y-108962143D01*
X175683333Y-108924048D01*
X175721429Y-108885952D01*
X175759524Y-108809762D01*
X141859524Y-84161905D02*
X141859524Y-83361905D01*
X142164286Y-83361905D01*
X142240477Y-83400000D01*
X142278572Y-83438095D01*
X142316667Y-83514286D01*
X142316667Y-83628571D01*
X142278572Y-83704762D01*
X142240477Y-83742857D01*
X142164286Y-83780952D01*
X141859524Y-83780952D01*
X143040477Y-83361905D02*
X142659524Y-83361905D01*
X142621429Y-83742857D01*
X142659524Y-83704762D01*
X142735715Y-83666667D01*
X142926191Y-83666667D01*
X143002381Y-83704762D01*
X143040477Y-83742857D01*
X143078572Y-83819048D01*
X143078572Y-84009524D01*
X143040477Y-84085714D01*
X143002381Y-84123810D01*
X142926191Y-84161905D01*
X142735715Y-84161905D01*
X142659524Y-84123810D01*
X142621429Y-84085714D01*
X141949524Y-81611905D02*
X141949524Y-80811905D01*
X142254286Y-80811905D01*
X142330477Y-80850000D01*
X142368572Y-80888095D01*
X142406667Y-80964286D01*
X142406667Y-81078571D01*
X142368572Y-81154762D01*
X142330477Y-81192857D01*
X142254286Y-81230952D01*
X141949524Y-81230952D01*
X142711429Y-80888095D02*
X142749524Y-80850000D01*
X142825715Y-80811905D01*
X143016191Y-80811905D01*
X143092381Y-80850000D01*
X143130477Y-80888095D01*
X143168572Y-80964286D01*
X143168572Y-81040476D01*
X143130477Y-81154762D01*
X142673334Y-81611905D01*
X143168572Y-81611905D01*
X144549524Y-112611905D02*
X144549524Y-111811905D01*
X144854286Y-111811905D01*
X144930477Y-111850000D01*
X144968572Y-111888095D01*
X145006667Y-111964286D01*
X145006667Y-112078571D01*
X144968572Y-112154762D01*
X144930477Y-112192857D01*
X144854286Y-112230952D01*
X144549524Y-112230952D01*
X145273334Y-111811905D02*
X145768572Y-111811905D01*
X145501905Y-112116667D01*
X145616191Y-112116667D01*
X145692381Y-112154762D01*
X145730477Y-112192857D01*
X145768572Y-112269048D01*
X145768572Y-112459524D01*
X145730477Y-112535714D01*
X145692381Y-112573810D01*
X145616191Y-112611905D01*
X145387619Y-112611905D01*
X145311429Y-112573810D01*
X145273334Y-112535714D01*
X144185714Y-100485714D02*
X144147619Y-100523810D01*
X144033333Y-100561905D01*
X143957143Y-100561905D01*
X143842857Y-100523810D01*
X143766666Y-100447619D01*
X143728571Y-100371429D01*
X143690476Y-100219048D01*
X143690476Y-100104762D01*
X143728571Y-99952381D01*
X143766666Y-99876190D01*
X143842857Y-99800000D01*
X143957143Y-99761905D01*
X144033333Y-99761905D01*
X144147619Y-99800000D01*
X144185714Y-99838095D01*
X144947619Y-100561905D02*
X144490476Y-100561905D01*
X144719047Y-100561905D02*
X144719047Y-99761905D01*
X144642857Y-99876190D01*
X144566666Y-99952381D01*
X144490476Y-99990476D01*
X145252381Y-99838095D02*
X145290476Y-99800000D01*
X145366667Y-99761905D01*
X145557143Y-99761905D01*
X145633333Y-99800000D01*
X145671429Y-99838095D01*
X145709524Y-99914286D01*
X145709524Y-99990476D01*
X145671429Y-100104762D01*
X145214286Y-100561905D01*
X145709524Y-100561905D01*
X153485714Y-90085714D02*
X153447619Y-90123810D01*
X153333333Y-90161905D01*
X153257143Y-90161905D01*
X153142857Y-90123810D01*
X153066666Y-90047619D01*
X153028571Y-89971429D01*
X152990476Y-89819048D01*
X152990476Y-89704762D01*
X153028571Y-89552381D01*
X153066666Y-89476190D01*
X153142857Y-89400000D01*
X153257143Y-89361905D01*
X153333333Y-89361905D01*
X153447619Y-89400000D01*
X153485714Y-89438095D01*
X154247619Y-90161905D02*
X153790476Y-90161905D01*
X154019047Y-90161905D02*
X154019047Y-89361905D01*
X153942857Y-89476190D01*
X153866666Y-89552381D01*
X153790476Y-89590476D01*
X154514286Y-89361905D02*
X155009524Y-89361905D01*
X154742857Y-89666667D01*
X154857143Y-89666667D01*
X154933333Y-89704762D01*
X154971429Y-89742857D01*
X155009524Y-89819048D01*
X155009524Y-90009524D01*
X154971429Y-90085714D01*
X154933333Y-90123810D01*
X154857143Y-90161905D01*
X154628571Y-90161905D01*
X154552381Y-90123810D01*
X154514286Y-90085714D01*
X151815714Y-99735714D02*
X151777619Y-99773810D01*
X151663333Y-99811905D01*
X151587143Y-99811905D01*
X151472857Y-99773810D01*
X151396666Y-99697619D01*
X151358571Y-99621429D01*
X151320476Y-99469048D01*
X151320476Y-99354762D01*
X151358571Y-99202381D01*
X151396666Y-99126190D01*
X151472857Y-99050000D01*
X151587143Y-99011905D01*
X151663333Y-99011905D01*
X151777619Y-99050000D01*
X151815714Y-99088095D01*
X152577619Y-99811905D02*
X152120476Y-99811905D01*
X152349047Y-99811905D02*
X152349047Y-99011905D01*
X152272857Y-99126190D01*
X152196666Y-99202381D01*
X152120476Y-99240476D01*
X153263333Y-99278571D02*
X153263333Y-99811905D01*
X153072857Y-98973810D02*
X152882381Y-99545238D01*
X153377619Y-99545238D01*
X164116667Y-95785714D02*
X164078572Y-95823810D01*
X163964286Y-95861905D01*
X163888096Y-95861905D01*
X163773810Y-95823810D01*
X163697619Y-95747619D01*
X163659524Y-95671429D01*
X163621429Y-95519048D01*
X163621429Y-95404762D01*
X163659524Y-95252381D01*
X163697619Y-95176190D01*
X163773810Y-95100000D01*
X163888096Y-95061905D01*
X163964286Y-95061905D01*
X164078572Y-95100000D01*
X164116667Y-95138095D01*
X164421429Y-95138095D02*
X164459524Y-95100000D01*
X164535715Y-95061905D01*
X164726191Y-95061905D01*
X164802381Y-95100000D01*
X164840477Y-95138095D01*
X164878572Y-95214286D01*
X164878572Y-95290476D01*
X164840477Y-95404762D01*
X164383334Y-95861905D01*
X164878572Y-95861905D01*
X164116667Y-99490714D02*
X164078572Y-99528810D01*
X163964286Y-99566905D01*
X163888096Y-99566905D01*
X163773810Y-99528810D01*
X163697619Y-99452619D01*
X163659524Y-99376429D01*
X163621429Y-99224048D01*
X163621429Y-99109762D01*
X163659524Y-98957381D01*
X163697619Y-98881190D01*
X163773810Y-98805000D01*
X163888096Y-98766905D01*
X163964286Y-98766905D01*
X164078572Y-98805000D01*
X164116667Y-98843095D01*
X164383334Y-98766905D02*
X164878572Y-98766905D01*
X164611905Y-99071667D01*
X164726191Y-99071667D01*
X164802381Y-99109762D01*
X164840477Y-99147857D01*
X164878572Y-99224048D01*
X164878572Y-99414524D01*
X164840477Y-99490714D01*
X164802381Y-99528810D01*
X164726191Y-99566905D01*
X164497619Y-99566905D01*
X164421429Y-99528810D01*
X164383334Y-99490714D01*
X165116667Y-80566905D02*
X164850000Y-80185952D01*
X164659524Y-80566905D02*
X164659524Y-79766905D01*
X164964286Y-79766905D01*
X165040477Y-79805000D01*
X165078572Y-79843095D01*
X165116667Y-79919286D01*
X165116667Y-80033571D01*
X165078572Y-80109762D01*
X165040477Y-80147857D01*
X164964286Y-80185952D01*
X164659524Y-80185952D01*
X165878572Y-80566905D02*
X165421429Y-80566905D01*
X165650000Y-80566905D02*
X165650000Y-79766905D01*
X165573810Y-79881190D01*
X165497619Y-79957381D01*
X165421429Y-79995476D01*
X165366667Y-85116905D02*
X165100000Y-84735952D01*
X164909524Y-85116905D02*
X164909524Y-84316905D01*
X165214286Y-84316905D01*
X165290477Y-84355000D01*
X165328572Y-84393095D01*
X165366667Y-84469286D01*
X165366667Y-84583571D01*
X165328572Y-84659762D01*
X165290477Y-84697857D01*
X165214286Y-84735952D01*
X164909524Y-84735952D01*
X165671429Y-84393095D02*
X165709524Y-84355000D01*
X165785715Y-84316905D01*
X165976191Y-84316905D01*
X166052381Y-84355000D01*
X166090477Y-84393095D01*
X166128572Y-84469286D01*
X166128572Y-84545476D01*
X166090477Y-84659762D01*
X165633334Y-85116905D01*
X166128572Y-85116905D01*
X170116667Y-96611905D02*
X169850000Y-96230952D01*
X169659524Y-96611905D02*
X169659524Y-95811905D01*
X169964286Y-95811905D01*
X170040477Y-95850000D01*
X170078572Y-95888095D01*
X170116667Y-95964286D01*
X170116667Y-96078571D01*
X170078572Y-96154762D01*
X170040477Y-96192857D01*
X169964286Y-96230952D01*
X169659524Y-96230952D01*
X170383334Y-95811905D02*
X170878572Y-95811905D01*
X170611905Y-96116667D01*
X170726191Y-96116667D01*
X170802381Y-96154762D01*
X170840477Y-96192857D01*
X170878572Y-96269048D01*
X170878572Y-96459524D01*
X170840477Y-96535714D01*
X170802381Y-96573810D01*
X170726191Y-96611905D01*
X170497619Y-96611905D01*
X170421429Y-96573810D01*
X170383334Y-96535714D01*
X168076667Y-92666905D02*
X167810000Y-92285952D01*
X167619524Y-92666905D02*
X167619524Y-91866905D01*
X167924286Y-91866905D01*
X168000477Y-91905000D01*
X168038572Y-91943095D01*
X168076667Y-92019286D01*
X168076667Y-92133571D01*
X168038572Y-92209762D01*
X168000477Y-92247857D01*
X167924286Y-92285952D01*
X167619524Y-92285952D01*
X168762381Y-92133571D02*
X168762381Y-92666905D01*
X168571905Y-91828810D02*
X168381429Y-92400238D01*
X168876667Y-92400238D01*
X167866667Y-108766905D02*
X167600000Y-108385952D01*
X167409524Y-108766905D02*
X167409524Y-107966905D01*
X167714286Y-107966905D01*
X167790477Y-108005000D01*
X167828572Y-108043095D01*
X167866667Y-108119286D01*
X167866667Y-108233571D01*
X167828572Y-108309762D01*
X167790477Y-108347857D01*
X167714286Y-108385952D01*
X167409524Y-108385952D01*
X168590477Y-107966905D02*
X168209524Y-107966905D01*
X168171429Y-108347857D01*
X168209524Y-108309762D01*
X168285715Y-108271667D01*
X168476191Y-108271667D01*
X168552381Y-108309762D01*
X168590477Y-108347857D01*
X168628572Y-108424048D01*
X168628572Y-108614524D01*
X168590477Y-108690714D01*
X168552381Y-108728810D01*
X168476191Y-108766905D01*
X168285715Y-108766905D01*
X168209524Y-108728810D01*
X168171429Y-108690714D01*
X165616667Y-104361905D02*
X165350000Y-103980952D01*
X165159524Y-104361905D02*
X165159524Y-103561905D01*
X165464286Y-103561905D01*
X165540477Y-103600000D01*
X165578572Y-103638095D01*
X165616667Y-103714286D01*
X165616667Y-103828571D01*
X165578572Y-103904762D01*
X165540477Y-103942857D01*
X165464286Y-103980952D01*
X165159524Y-103980952D01*
X166302381Y-103561905D02*
X166150000Y-103561905D01*
X166073810Y-103600000D01*
X166035715Y-103638095D01*
X165959524Y-103752381D01*
X165921429Y-103904762D01*
X165921429Y-104209524D01*
X165959524Y-104285714D01*
X165997619Y-104323810D01*
X166073810Y-104361905D01*
X166226191Y-104361905D01*
X166302381Y-104323810D01*
X166340477Y-104285714D01*
X166378572Y-104209524D01*
X166378572Y-104019048D01*
X166340477Y-103942857D01*
X166302381Y-103904762D01*
X166226191Y-103866667D01*
X166073810Y-103866667D01*
X165997619Y-103904762D01*
X165959524Y-103942857D01*
X165921429Y-104019048D01*
X162935714Y-111166905D02*
X162669047Y-110785952D01*
X162478571Y-111166905D02*
X162478571Y-110366905D01*
X162783333Y-110366905D01*
X162859524Y-110405000D01*
X162897619Y-110443095D01*
X162935714Y-110519286D01*
X162935714Y-110633571D01*
X162897619Y-110709762D01*
X162859524Y-110747857D01*
X162783333Y-110785952D01*
X162478571Y-110785952D01*
X163621428Y-110633571D02*
X163621428Y-111166905D01*
X163430952Y-110328810D02*
X163240476Y-110900238D01*
X163735714Y-110900238D01*
X164192857Y-110366905D02*
X164269048Y-110366905D01*
X164345238Y-110405000D01*
X164383333Y-110443095D01*
X164421429Y-110519286D01*
X164459524Y-110671667D01*
X164459524Y-110862143D01*
X164421429Y-111014524D01*
X164383333Y-111090714D01*
X164345238Y-111128810D01*
X164269048Y-111166905D01*
X164192857Y-111166905D01*
X164116667Y-111128810D01*
X164078571Y-111090714D01*
X164040476Y-111014524D01*
X164002381Y-110862143D01*
X164002381Y-110671667D01*
X164040476Y-110519286D01*
X164078571Y-110443095D01*
X164116667Y-110405000D01*
X164192857Y-110366905D01*
X158235714Y-104961905D02*
X157969047Y-104580952D01*
X157778571Y-104961905D02*
X157778571Y-104161905D01*
X158083333Y-104161905D01*
X158159524Y-104200000D01*
X158197619Y-104238095D01*
X158235714Y-104314286D01*
X158235714Y-104428571D01*
X158197619Y-104504762D01*
X158159524Y-104542857D01*
X158083333Y-104580952D01*
X157778571Y-104580952D01*
X158997619Y-104961905D02*
X158540476Y-104961905D01*
X158769047Y-104961905D02*
X158769047Y-104161905D01*
X158692857Y-104276190D01*
X158616666Y-104352381D01*
X158540476Y-104390476D01*
X159492857Y-104161905D02*
X159569048Y-104161905D01*
X159645238Y-104200000D01*
X159683333Y-104238095D01*
X159721429Y-104314286D01*
X159759524Y-104466667D01*
X159759524Y-104657143D01*
X159721429Y-104809524D01*
X159683333Y-104885714D01*
X159645238Y-104923810D01*
X159569048Y-104961905D01*
X159492857Y-104961905D01*
X159416667Y-104923810D01*
X159378571Y-104885714D01*
X159340476Y-104809524D01*
X159302381Y-104657143D01*
X159302381Y-104466667D01*
X159340476Y-104314286D01*
X159378571Y-104238095D01*
X159416667Y-104200000D01*
X159492857Y-104161905D01*
X158966667Y-103185714D02*
X158928572Y-103223810D01*
X158814286Y-103261905D01*
X158738096Y-103261905D01*
X158623810Y-103223810D01*
X158547619Y-103147619D01*
X158509524Y-103071429D01*
X158471429Y-102919048D01*
X158471429Y-102804762D01*
X158509524Y-102652381D01*
X158547619Y-102576190D01*
X158623810Y-102500000D01*
X158738096Y-102461905D01*
X158814286Y-102461905D01*
X158928572Y-102500000D01*
X158966667Y-102538095D01*
X159423810Y-102804762D02*
X159347619Y-102766667D01*
X159309524Y-102728571D01*
X159271429Y-102652381D01*
X159271429Y-102614286D01*
X159309524Y-102538095D01*
X159347619Y-102500000D01*
X159423810Y-102461905D01*
X159576191Y-102461905D01*
X159652381Y-102500000D01*
X159690477Y-102538095D01*
X159728572Y-102614286D01*
X159728572Y-102652381D01*
X159690477Y-102728571D01*
X159652381Y-102766667D01*
X159576191Y-102804762D01*
X159423810Y-102804762D01*
X159347619Y-102842857D01*
X159309524Y-102880952D01*
X159271429Y-102957143D01*
X159271429Y-103109524D01*
X159309524Y-103185714D01*
X159347619Y-103223810D01*
X159423810Y-103261905D01*
X159576191Y-103261905D01*
X159652381Y-103223810D01*
X159690477Y-103185714D01*
X159728572Y-103109524D01*
X159728572Y-102957143D01*
X159690477Y-102880952D01*
X159652381Y-102842857D01*
X159576191Y-102804762D01*
X155985714Y-103611905D02*
X155719047Y-103230952D01*
X155528571Y-103611905D02*
X155528571Y-102811905D01*
X155833333Y-102811905D01*
X155909524Y-102850000D01*
X155947619Y-102888095D01*
X155985714Y-102964286D01*
X155985714Y-103078571D01*
X155947619Y-103154762D01*
X155909524Y-103192857D01*
X155833333Y-103230952D01*
X155528571Y-103230952D01*
X156252381Y-102811905D02*
X156747619Y-102811905D01*
X156480952Y-103116667D01*
X156595238Y-103116667D01*
X156671428Y-103154762D01*
X156709524Y-103192857D01*
X156747619Y-103269048D01*
X156747619Y-103459524D01*
X156709524Y-103535714D01*
X156671428Y-103573810D01*
X156595238Y-103611905D01*
X156366666Y-103611905D01*
X156290476Y-103573810D01*
X156252381Y-103535714D01*
X157433333Y-102811905D02*
X157280952Y-102811905D01*
X157204762Y-102850000D01*
X157166667Y-102888095D01*
X157090476Y-103002381D01*
X157052381Y-103154762D01*
X157052381Y-103459524D01*
X157090476Y-103535714D01*
X157128571Y-103573810D01*
X157204762Y-103611905D01*
X157357143Y-103611905D01*
X157433333Y-103573810D01*
X157471429Y-103535714D01*
X157509524Y-103459524D01*
X157509524Y-103269048D01*
X157471429Y-103192857D01*
X157433333Y-103154762D01*
X157357143Y-103116667D01*
X157204762Y-103116667D01*
X157128571Y-103154762D01*
X157090476Y-103192857D01*
X157052381Y-103269048D01*
X163835714Y-109566905D02*
X163569047Y-109185952D01*
X163378571Y-109566905D02*
X163378571Y-108766905D01*
X163683333Y-108766905D01*
X163759524Y-108805000D01*
X163797619Y-108843095D01*
X163835714Y-108919286D01*
X163835714Y-109033571D01*
X163797619Y-109109762D01*
X163759524Y-109147857D01*
X163683333Y-109185952D01*
X163378571Y-109185952D01*
X164102381Y-108766905D02*
X164597619Y-108766905D01*
X164330952Y-109071667D01*
X164445238Y-109071667D01*
X164521428Y-109109762D01*
X164559524Y-109147857D01*
X164597619Y-109224048D01*
X164597619Y-109414524D01*
X164559524Y-109490714D01*
X164521428Y-109528810D01*
X164445238Y-109566905D01*
X164216666Y-109566905D01*
X164140476Y-109528810D01*
X164102381Y-109490714D01*
X165054762Y-109109762D02*
X164978571Y-109071667D01*
X164940476Y-109033571D01*
X164902381Y-108957381D01*
X164902381Y-108919286D01*
X164940476Y-108843095D01*
X164978571Y-108805000D01*
X165054762Y-108766905D01*
X165207143Y-108766905D01*
X165283333Y-108805000D01*
X165321429Y-108843095D01*
X165359524Y-108919286D01*
X165359524Y-108957381D01*
X165321429Y-109033571D01*
X165283333Y-109071667D01*
X165207143Y-109109762D01*
X165054762Y-109109762D01*
X164978571Y-109147857D01*
X164940476Y-109185952D01*
X164902381Y-109262143D01*
X164902381Y-109414524D01*
X164940476Y-109490714D01*
X164978571Y-109528810D01*
X165054762Y-109566905D01*
X165207143Y-109566905D01*
X165283333Y-109528810D01*
X165321429Y-109490714D01*
X165359524Y-109414524D01*
X165359524Y-109262143D01*
X165321429Y-109185952D01*
X165283333Y-109147857D01*
X165207143Y-109109762D01*
X143335714Y-94690714D02*
X143297619Y-94728810D01*
X143183333Y-94766905D01*
X143107143Y-94766905D01*
X142992857Y-94728810D01*
X142916666Y-94652619D01*
X142878571Y-94576429D01*
X142840476Y-94424048D01*
X142840476Y-94309762D01*
X142878571Y-94157381D01*
X142916666Y-94081190D01*
X142992857Y-94005000D01*
X143107143Y-93966905D01*
X143183333Y-93966905D01*
X143297619Y-94005000D01*
X143335714Y-94043095D01*
X144097619Y-94766905D02*
X143640476Y-94766905D01*
X143869047Y-94766905D02*
X143869047Y-93966905D01*
X143792857Y-94081190D01*
X143716666Y-94157381D01*
X143640476Y-94195476D01*
X144821429Y-93966905D02*
X144440476Y-93966905D01*
X144402381Y-94347857D01*
X144440476Y-94309762D01*
X144516667Y-94271667D01*
X144707143Y-94271667D01*
X144783333Y-94309762D01*
X144821429Y-94347857D01*
X144859524Y-94424048D01*
X144859524Y-94614524D01*
X144821429Y-94690714D01*
X144783333Y-94728810D01*
X144707143Y-94766905D01*
X144516667Y-94766905D01*
X144440476Y-94728810D01*
X144402381Y-94690714D01*
X143335714Y-97490714D02*
X143297619Y-97528810D01*
X143183333Y-97566905D01*
X143107143Y-97566905D01*
X142992857Y-97528810D01*
X142916666Y-97452619D01*
X142878571Y-97376429D01*
X142840476Y-97224048D01*
X142840476Y-97109762D01*
X142878571Y-96957381D01*
X142916666Y-96881190D01*
X142992857Y-96805000D01*
X143107143Y-96766905D01*
X143183333Y-96766905D01*
X143297619Y-96805000D01*
X143335714Y-96843095D01*
X143640476Y-96843095D02*
X143678571Y-96805000D01*
X143754762Y-96766905D01*
X143945238Y-96766905D01*
X144021428Y-96805000D01*
X144059524Y-96843095D01*
X144097619Y-96919286D01*
X144097619Y-96995476D01*
X144059524Y-97109762D01*
X143602381Y-97566905D01*
X144097619Y-97566905D01*
X144859524Y-97566905D02*
X144402381Y-97566905D01*
X144630952Y-97566905D02*
X144630952Y-96766905D01*
X144554762Y-96881190D01*
X144478571Y-96957381D01*
X144402381Y-96995476D01*
X151635714Y-95861905D02*
X151369047Y-95480952D01*
X151178571Y-95861905D02*
X151178571Y-95061905D01*
X151483333Y-95061905D01*
X151559524Y-95100000D01*
X151597619Y-95138095D01*
X151635714Y-95214286D01*
X151635714Y-95328571D01*
X151597619Y-95404762D01*
X151559524Y-95442857D01*
X151483333Y-95480952D01*
X151178571Y-95480952D01*
X151902381Y-95061905D02*
X152397619Y-95061905D01*
X152130952Y-95366667D01*
X152245238Y-95366667D01*
X152321428Y-95404762D01*
X152359524Y-95442857D01*
X152397619Y-95519048D01*
X152397619Y-95709524D01*
X152359524Y-95785714D01*
X152321428Y-95823810D01*
X152245238Y-95861905D01*
X152016666Y-95861905D01*
X151940476Y-95823810D01*
X151902381Y-95785714D01*
X152664286Y-95061905D02*
X153197619Y-95061905D01*
X152854762Y-95861905D01*
X157869524Y-93171905D02*
X157869524Y-92371905D01*
X158060000Y-92371905D01*
X158174286Y-92410000D01*
X158250477Y-92486190D01*
X158288572Y-92562381D01*
X158326667Y-92714762D01*
X158326667Y-92829048D01*
X158288572Y-92981429D01*
X158250477Y-93057619D01*
X158174286Y-93133810D01*
X158060000Y-93171905D01*
X157869524Y-93171905D01*
X159088572Y-93171905D02*
X158631429Y-93171905D01*
X158860000Y-93171905D02*
X158860000Y-92371905D01*
X158783810Y-92486190D01*
X158707619Y-92562381D01*
X158631429Y-92600476D01*
M02*
