G04 #@! TF.FileFunction,Copper,L2,Inr,Plane*
%FSLAX46Y46*%
G04 Gerber Fmt 4.6, Leading zero omitted, Abs format (unit mm)*
G04 Created by KiCad (PCBNEW 4.0.6-e0-6349~53~ubuntu16.04.1) date Tue Mar  7 23:33:07 2017*
%MOMM*%
%LPD*%
G01*
G04 APERTURE LIST*
%ADD10C,0.100000*%
%ADD11C,0.150000*%
%ADD12C,0.300000*%
%ADD13C,0.400000*%
%ADD14C,0.250000*%
%ADD15C,0.800000*%
%ADD16C,6.000000*%
%ADD17R,1.500000X1.500000*%
%ADD18C,1.500000*%
%ADD19C,1.200000*%
%ADD20C,0.254000*%
G04 APERTURE END LIST*
D10*
D11*
X177002200Y-166007200D02*
X177002200Y-198007200D01*
X285002200Y-198007200D01*
X285002200Y-166007200D01*
X177002200Y-166007200D01*
D10*
D11*
X10000000Y-10000000D02*
X10000000Y-200007200D01*
X287002200Y-200007200D01*
X287002200Y-10000000D01*
X10000000Y-10000000D01*
D10*
D11*
X12000000Y-12000000D02*
X12000000Y-198007200D01*
X285002200Y-198007200D01*
X285002200Y-12000000D01*
X12000000Y-12000000D01*
D10*
D11*
X60000000Y-12000000D02*
X60000000Y-10000000D01*
D10*
D11*
X110000000Y-12000000D02*
X110000000Y-10000000D01*
D10*
D11*
X160000000Y-12000000D02*
X160000000Y-10000000D01*
D10*
D11*
X210000000Y-12000000D02*
X210000000Y-10000000D01*
D10*
D11*
X260000000Y-12000000D02*
X260000000Y-10000000D01*
D10*
D11*
X35990476Y-11588095D02*
X35247619Y-11588095D01*
X35619048Y-11588095D02*
X35619048Y-10288095D01*
X35495238Y-10473810D01*
X35371429Y-10597619D01*
X35247619Y-10659524D01*
D10*
D11*
X85247619Y-10411905D02*
X85309524Y-10350000D01*
X85433333Y-10288095D01*
X85742857Y-10288095D01*
X85866667Y-10350000D01*
X85928571Y-10411905D01*
X85990476Y-10535714D01*
X85990476Y-10659524D01*
X85928571Y-10845238D01*
X85185714Y-11588095D01*
X85990476Y-11588095D01*
D10*
D11*
X135185714Y-10288095D02*
X135990476Y-10288095D01*
X135557143Y-10783333D01*
X135742857Y-10783333D01*
X135866667Y-10845238D01*
X135928571Y-10907143D01*
X135990476Y-11030952D01*
X135990476Y-11340476D01*
X135928571Y-11464286D01*
X135866667Y-11526190D01*
X135742857Y-11588095D01*
X135371429Y-11588095D01*
X135247619Y-11526190D01*
X135185714Y-11464286D01*
D10*
D11*
X185866667Y-10721429D02*
X185866667Y-11588095D01*
X185557143Y-10226190D02*
X185247619Y-11154762D01*
X186052381Y-11154762D01*
D10*
D11*
X235928571Y-10288095D02*
X235309524Y-10288095D01*
X235247619Y-10907143D01*
X235309524Y-10845238D01*
X235433333Y-10783333D01*
X235742857Y-10783333D01*
X235866667Y-10845238D01*
X235928571Y-10907143D01*
X235990476Y-11030952D01*
X235990476Y-11340476D01*
X235928571Y-11464286D01*
X235866667Y-11526190D01*
X235742857Y-11588095D01*
X235433333Y-11588095D01*
X235309524Y-11526190D01*
X235247619Y-11464286D01*
D10*
D11*
X285866667Y-10288095D02*
X285619048Y-10288095D01*
X285495238Y-10350000D01*
X285433333Y-10411905D01*
X285309524Y-10597619D01*
X285247619Y-10845238D01*
X285247619Y-11340476D01*
X285309524Y-11464286D01*
X285371429Y-11526190D01*
X285495238Y-11588095D01*
X285742857Y-11588095D01*
X285866667Y-11526190D01*
X285928571Y-11464286D01*
X285990476Y-11340476D01*
X285990476Y-11030952D01*
X285928571Y-10907143D01*
X285866667Y-10845238D01*
X285742857Y-10783333D01*
X285495238Y-10783333D01*
X285371429Y-10845238D01*
X285309524Y-10907143D01*
X285247619Y-11030952D01*
D10*
D11*
X60000000Y-198007200D02*
X60000000Y-200007200D01*
D10*
D11*
X110000000Y-198007200D02*
X110000000Y-200007200D01*
D10*
D11*
X160000000Y-198007200D02*
X160000000Y-200007200D01*
D10*
D11*
X210000000Y-198007200D02*
X210000000Y-200007200D01*
D10*
D11*
X260000000Y-198007200D02*
X260000000Y-200007200D01*
D10*
D11*
X35990476Y-199595295D02*
X35247619Y-199595295D01*
X35619048Y-199595295D02*
X35619048Y-198295295D01*
X35495238Y-198481010D01*
X35371429Y-198604819D01*
X35247619Y-198666724D01*
D10*
D11*
X85247619Y-198419105D02*
X85309524Y-198357200D01*
X85433333Y-198295295D01*
X85742857Y-198295295D01*
X85866667Y-198357200D01*
X85928571Y-198419105D01*
X85990476Y-198542914D01*
X85990476Y-198666724D01*
X85928571Y-198852438D01*
X85185714Y-199595295D01*
X85990476Y-199595295D01*
D10*
D11*
X135185714Y-198295295D02*
X135990476Y-198295295D01*
X135557143Y-198790533D01*
X135742857Y-198790533D01*
X135866667Y-198852438D01*
X135928571Y-198914343D01*
X135990476Y-199038152D01*
X135990476Y-199347676D01*
X135928571Y-199471486D01*
X135866667Y-199533390D01*
X135742857Y-199595295D01*
X135371429Y-199595295D01*
X135247619Y-199533390D01*
X135185714Y-199471486D01*
D10*
D11*
X185866667Y-198728629D02*
X185866667Y-199595295D01*
X185557143Y-198233390D02*
X185247619Y-199161962D01*
X186052381Y-199161962D01*
D10*
D11*
X235928571Y-198295295D02*
X235309524Y-198295295D01*
X235247619Y-198914343D01*
X235309524Y-198852438D01*
X235433333Y-198790533D01*
X235742857Y-198790533D01*
X235866667Y-198852438D01*
X235928571Y-198914343D01*
X235990476Y-199038152D01*
X235990476Y-199347676D01*
X235928571Y-199471486D01*
X235866667Y-199533390D01*
X235742857Y-199595295D01*
X235433333Y-199595295D01*
X235309524Y-199533390D01*
X235247619Y-199471486D01*
D10*
D11*
X285866667Y-198295295D02*
X285619048Y-198295295D01*
X285495238Y-198357200D01*
X285433333Y-198419105D01*
X285309524Y-198604819D01*
X285247619Y-198852438D01*
X285247619Y-199347676D01*
X285309524Y-199471486D01*
X285371429Y-199533390D01*
X285495238Y-199595295D01*
X285742857Y-199595295D01*
X285866667Y-199533390D01*
X285928571Y-199471486D01*
X285990476Y-199347676D01*
X285990476Y-199038152D01*
X285928571Y-198914343D01*
X285866667Y-198852438D01*
X285742857Y-198790533D01*
X285495238Y-198790533D01*
X285371429Y-198852438D01*
X285309524Y-198914343D01*
X285247619Y-199038152D01*
D10*
D11*
X10000000Y-60000000D02*
X12000000Y-60000000D01*
D10*
D11*
X10000000Y-110000000D02*
X12000000Y-110000000D01*
D10*
D11*
X10000000Y-160000000D02*
X12000000Y-160000000D01*
D10*
D11*
X10690476Y-35216667D02*
X11309524Y-35216667D01*
X10566667Y-35588095D02*
X11000000Y-34288095D01*
X11433333Y-35588095D01*
D10*
D11*
X11092857Y-84907143D02*
X11278571Y-84969048D01*
X11340476Y-85030952D01*
X11402381Y-85154762D01*
X11402381Y-85340476D01*
X11340476Y-85464286D01*
X11278571Y-85526190D01*
X11154762Y-85588095D01*
X10659524Y-85588095D01*
X10659524Y-84288095D01*
X11092857Y-84288095D01*
X11216667Y-84350000D01*
X11278571Y-84411905D01*
X11340476Y-84535714D01*
X11340476Y-84659524D01*
X11278571Y-84783333D01*
X11216667Y-84845238D01*
X11092857Y-84907143D01*
X10659524Y-84907143D01*
D10*
D11*
X11402381Y-135464286D02*
X11340476Y-135526190D01*
X11154762Y-135588095D01*
X11030952Y-135588095D01*
X10845238Y-135526190D01*
X10721429Y-135402381D01*
X10659524Y-135278571D01*
X10597619Y-135030952D01*
X10597619Y-134845238D01*
X10659524Y-134597619D01*
X10721429Y-134473810D01*
X10845238Y-134350000D01*
X11030952Y-134288095D01*
X11154762Y-134288095D01*
X11340476Y-134350000D01*
X11402381Y-134411905D01*
D10*
D11*
X10659524Y-185588095D02*
X10659524Y-184288095D01*
X10969048Y-184288095D01*
X11154762Y-184350000D01*
X11278571Y-184473810D01*
X11340476Y-184597619D01*
X11402381Y-184845238D01*
X11402381Y-185030952D01*
X11340476Y-185278571D01*
X11278571Y-185402381D01*
X11154762Y-185526190D01*
X10969048Y-185588095D01*
X10659524Y-185588095D01*
D10*
D11*
X287002200Y-60000000D02*
X285002200Y-60000000D01*
D10*
D11*
X287002200Y-110000000D02*
X285002200Y-110000000D01*
D10*
D11*
X287002200Y-160000000D02*
X285002200Y-160000000D01*
D10*
D11*
X285692676Y-35216667D02*
X286311724Y-35216667D01*
X285568867Y-35588095D02*
X286002200Y-34288095D01*
X286435533Y-35588095D01*
D10*
D11*
X286095057Y-84907143D02*
X286280771Y-84969048D01*
X286342676Y-85030952D01*
X286404581Y-85154762D01*
X286404581Y-85340476D01*
X286342676Y-85464286D01*
X286280771Y-85526190D01*
X286156962Y-85588095D01*
X285661724Y-85588095D01*
X285661724Y-84288095D01*
X286095057Y-84288095D01*
X286218867Y-84350000D01*
X286280771Y-84411905D01*
X286342676Y-84535714D01*
X286342676Y-84659524D01*
X286280771Y-84783333D01*
X286218867Y-84845238D01*
X286095057Y-84907143D01*
X285661724Y-84907143D01*
D10*
D11*
X286404581Y-135464286D02*
X286342676Y-135526190D01*
X286156962Y-135588095D01*
X286033152Y-135588095D01*
X285847438Y-135526190D01*
X285723629Y-135402381D01*
X285661724Y-135278571D01*
X285599819Y-135030952D01*
X285599819Y-134845238D01*
X285661724Y-134597619D01*
X285723629Y-134473810D01*
X285847438Y-134350000D01*
X286033152Y-134288095D01*
X286156962Y-134288095D01*
X286342676Y-134350000D01*
X286404581Y-134411905D01*
D10*
D11*
X285661724Y-185588095D02*
X285661724Y-184288095D01*
X285971248Y-184288095D01*
X286156962Y-184350000D01*
X286280771Y-184473810D01*
X286342676Y-184597619D01*
X286404581Y-184845238D01*
X286404581Y-185030952D01*
X286342676Y-185278571D01*
X286280771Y-185402381D01*
X286156962Y-185526190D01*
X285971248Y-185588095D01*
X285661724Y-185588095D01*
D10*
D11*
X200359343Y-193785771D02*
X200359343Y-192285771D01*
X200716486Y-192285771D01*
X200930771Y-192357200D01*
X201073629Y-192500057D01*
X201145057Y-192642914D01*
X201216486Y-192928629D01*
X201216486Y-193142914D01*
X201145057Y-193428629D01*
X201073629Y-193571486D01*
X200930771Y-193714343D01*
X200716486Y-193785771D01*
X200359343Y-193785771D01*
X202502200Y-193785771D02*
X202502200Y-193000057D01*
X202430771Y-192857200D01*
X202287914Y-192785771D01*
X202002200Y-192785771D01*
X201859343Y-192857200D01*
X202502200Y-193714343D02*
X202359343Y-193785771D01*
X202002200Y-193785771D01*
X201859343Y-193714343D01*
X201787914Y-193571486D01*
X201787914Y-193428629D01*
X201859343Y-193285771D01*
X202002200Y-193214343D01*
X202359343Y-193214343D01*
X202502200Y-193142914D01*
X203002200Y-192785771D02*
X203573629Y-192785771D01*
X203216486Y-192285771D02*
X203216486Y-193571486D01*
X203287914Y-193714343D01*
X203430772Y-193785771D01*
X203573629Y-193785771D01*
X204645057Y-193714343D02*
X204502200Y-193785771D01*
X204216486Y-193785771D01*
X204073629Y-193714343D01*
X204002200Y-193571486D01*
X204002200Y-193000057D01*
X204073629Y-192857200D01*
X204216486Y-192785771D01*
X204502200Y-192785771D01*
X204645057Y-192857200D01*
X204716486Y-193000057D01*
X204716486Y-193142914D01*
X204002200Y-193285771D01*
X205359343Y-193642914D02*
X205430771Y-193714343D01*
X205359343Y-193785771D01*
X205287914Y-193714343D01*
X205359343Y-193642914D01*
X205359343Y-193785771D01*
X205359343Y-192857200D02*
X205430771Y-192928629D01*
X205359343Y-193000057D01*
X205287914Y-192928629D01*
X205359343Y-192857200D01*
X205359343Y-193000057D01*
X207502200Y-192285771D02*
X207645057Y-192285771D01*
X207787914Y-192357200D01*
X207859343Y-192428629D01*
X207930772Y-192571486D01*
X208002200Y-192857200D01*
X208002200Y-193214343D01*
X207930772Y-193500057D01*
X207859343Y-193642914D01*
X207787914Y-193714343D01*
X207645057Y-193785771D01*
X207502200Y-193785771D01*
X207359343Y-193714343D01*
X207287914Y-193642914D01*
X207216486Y-193500057D01*
X207145057Y-193214343D01*
X207145057Y-192857200D01*
X207216486Y-192571486D01*
X207287914Y-192428629D01*
X207359343Y-192357200D01*
X207502200Y-192285771D01*
X208502200Y-192285771D02*
X209502200Y-192285771D01*
X208859343Y-193785771D01*
X210073628Y-193642914D02*
X210145056Y-193714343D01*
X210073628Y-193785771D01*
X210002199Y-193714343D01*
X210073628Y-193642914D01*
X210073628Y-193785771D01*
X211073628Y-192285771D02*
X211216485Y-192285771D01*
X211359342Y-192357200D01*
X211430771Y-192428629D01*
X211502200Y-192571486D01*
X211573628Y-192857200D01*
X211573628Y-193214343D01*
X211502200Y-193500057D01*
X211430771Y-193642914D01*
X211359342Y-193714343D01*
X211216485Y-193785771D01*
X211073628Y-193785771D01*
X210930771Y-193714343D01*
X210859342Y-193642914D01*
X210787914Y-193500057D01*
X210716485Y-193214343D01*
X210716485Y-192857200D01*
X210787914Y-192571486D01*
X210859342Y-192428629D01*
X210930771Y-192357200D01*
X211073628Y-192285771D01*
X212073628Y-192285771D02*
X213002199Y-192285771D01*
X212502199Y-192857200D01*
X212716485Y-192857200D01*
X212859342Y-192928629D01*
X212930771Y-193000057D01*
X213002199Y-193142914D01*
X213002199Y-193500057D01*
X212930771Y-193642914D01*
X212859342Y-193714343D01*
X212716485Y-193785771D01*
X212287913Y-193785771D01*
X212145056Y-193714343D01*
X212073628Y-193642914D01*
X213645056Y-193642914D02*
X213716484Y-193714343D01*
X213645056Y-193785771D01*
X213573627Y-193714343D01*
X213645056Y-193642914D01*
X213645056Y-193785771D01*
X214287913Y-192428629D02*
X214359342Y-192357200D01*
X214502199Y-192285771D01*
X214859342Y-192285771D01*
X215002199Y-192357200D01*
X215073628Y-192428629D01*
X215145056Y-192571486D01*
X215145056Y-192714343D01*
X215073628Y-192928629D01*
X214216485Y-193785771D01*
X215145056Y-193785771D01*
X216073627Y-192285771D02*
X216216484Y-192285771D01*
X216359341Y-192357200D01*
X216430770Y-192428629D01*
X216502199Y-192571486D01*
X216573627Y-192857200D01*
X216573627Y-193214343D01*
X216502199Y-193500057D01*
X216430770Y-193642914D01*
X216359341Y-193714343D01*
X216216484Y-193785771D01*
X216073627Y-193785771D01*
X215930770Y-193714343D01*
X215859341Y-193642914D01*
X215787913Y-193500057D01*
X215716484Y-193214343D01*
X215716484Y-192857200D01*
X215787913Y-192571486D01*
X215859341Y-192428629D01*
X215930770Y-192357200D01*
X216073627Y-192285771D01*
X218002198Y-193785771D02*
X217145055Y-193785771D01*
X217573627Y-193785771D02*
X217573627Y-192285771D01*
X217430770Y-192500057D01*
X217287912Y-192642914D01*
X217145055Y-192714343D01*
X218502198Y-192285771D02*
X219502198Y-192285771D01*
X218859341Y-193785771D01*
D10*
D11*
X177002200Y-194507200D02*
X285002200Y-194507200D01*
D10*
D11*
X178359343Y-196585771D02*
X178359343Y-195085771D01*
X179216486Y-196585771D02*
X178573629Y-195728629D01*
X179216486Y-195085771D02*
X178359343Y-195942914D01*
X179859343Y-196585771D02*
X179859343Y-195585771D01*
X179859343Y-195085771D02*
X179787914Y-195157200D01*
X179859343Y-195228629D01*
X179930771Y-195157200D01*
X179859343Y-195085771D01*
X179859343Y-195228629D01*
X181430772Y-196442914D02*
X181359343Y-196514343D01*
X181145057Y-196585771D01*
X181002200Y-196585771D01*
X180787915Y-196514343D01*
X180645057Y-196371486D01*
X180573629Y-196228629D01*
X180502200Y-195942914D01*
X180502200Y-195728629D01*
X180573629Y-195442914D01*
X180645057Y-195300057D01*
X180787915Y-195157200D01*
X181002200Y-195085771D01*
X181145057Y-195085771D01*
X181359343Y-195157200D01*
X181430772Y-195228629D01*
X182716486Y-196585771D02*
X182716486Y-195800057D01*
X182645057Y-195657200D01*
X182502200Y-195585771D01*
X182216486Y-195585771D01*
X182073629Y-195657200D01*
X182716486Y-196514343D02*
X182573629Y-196585771D01*
X182216486Y-196585771D01*
X182073629Y-196514343D01*
X182002200Y-196371486D01*
X182002200Y-196228629D01*
X182073629Y-196085771D01*
X182216486Y-196014343D01*
X182573629Y-196014343D01*
X182716486Y-195942914D01*
X184073629Y-196585771D02*
X184073629Y-195085771D01*
X184073629Y-196514343D02*
X183930772Y-196585771D01*
X183645058Y-196585771D01*
X183502200Y-196514343D01*
X183430772Y-196442914D01*
X183359343Y-196300057D01*
X183359343Y-195871486D01*
X183430772Y-195728629D01*
X183502200Y-195657200D01*
X183645058Y-195585771D01*
X183930772Y-195585771D01*
X184073629Y-195657200D01*
X185930772Y-195800057D02*
X186430772Y-195800057D01*
X186645058Y-196585771D02*
X185930772Y-196585771D01*
X185930772Y-195085771D01*
X186645058Y-195085771D01*
X187287915Y-196442914D02*
X187359343Y-196514343D01*
X187287915Y-196585771D01*
X187216486Y-196514343D01*
X187287915Y-196442914D01*
X187287915Y-196585771D01*
X188002201Y-196585771D02*
X188002201Y-195085771D01*
X188359344Y-195085771D01*
X188573629Y-195157200D01*
X188716487Y-195300057D01*
X188787915Y-195442914D01*
X188859344Y-195728629D01*
X188859344Y-195942914D01*
X188787915Y-196228629D01*
X188716487Y-196371486D01*
X188573629Y-196514343D01*
X188359344Y-196585771D01*
X188002201Y-196585771D01*
X189502201Y-196442914D02*
X189573629Y-196514343D01*
X189502201Y-196585771D01*
X189430772Y-196514343D01*
X189502201Y-196442914D01*
X189502201Y-196585771D01*
X190145058Y-196157200D02*
X190859344Y-196157200D01*
X190002201Y-196585771D02*
X190502201Y-195085771D01*
X191002201Y-196585771D01*
X191502201Y-196442914D02*
X191573629Y-196514343D01*
X191502201Y-196585771D01*
X191430772Y-196514343D01*
X191502201Y-196442914D01*
X191502201Y-196585771D01*
X194502201Y-196585771D02*
X194502201Y-195085771D01*
X194645058Y-196014343D02*
X195073629Y-196585771D01*
X195073629Y-195585771D02*
X194502201Y-196157200D01*
X195716487Y-196585771D02*
X195716487Y-195585771D01*
X195716487Y-195085771D02*
X195645058Y-195157200D01*
X195716487Y-195228629D01*
X195787915Y-195157200D01*
X195716487Y-195085771D01*
X195716487Y-195228629D01*
X197073630Y-196514343D02*
X196930773Y-196585771D01*
X196645059Y-196585771D01*
X196502201Y-196514343D01*
X196430773Y-196442914D01*
X196359344Y-196300057D01*
X196359344Y-195871486D01*
X196430773Y-195728629D01*
X196502201Y-195657200D01*
X196645059Y-195585771D01*
X196930773Y-195585771D01*
X197073630Y-195657200D01*
X198359344Y-196585771D02*
X198359344Y-195800057D01*
X198287915Y-195657200D01*
X198145058Y-195585771D01*
X197859344Y-195585771D01*
X197716487Y-195657200D01*
X198359344Y-196514343D02*
X198216487Y-196585771D01*
X197859344Y-196585771D01*
X197716487Y-196514343D01*
X197645058Y-196371486D01*
X197645058Y-196228629D01*
X197716487Y-196085771D01*
X197859344Y-196014343D01*
X198216487Y-196014343D01*
X198359344Y-195942914D01*
X199716487Y-196585771D02*
X199716487Y-195085771D01*
X199716487Y-196514343D02*
X199573630Y-196585771D01*
X199287916Y-196585771D01*
X199145058Y-196514343D01*
X199073630Y-196442914D01*
X199002201Y-196300057D01*
X199002201Y-195871486D01*
X199073630Y-195728629D01*
X199145058Y-195657200D01*
X199287916Y-195585771D01*
X199573630Y-195585771D01*
X199716487Y-195657200D01*
X202216487Y-195585771D02*
X202216487Y-196585771D01*
X201859344Y-195014343D02*
X201502201Y-196085771D01*
X202430773Y-196085771D01*
X203002201Y-196442914D02*
X203073629Y-196514343D01*
X203002201Y-196585771D01*
X202930772Y-196514343D01*
X203002201Y-196442914D01*
X203002201Y-196585771D01*
X204002201Y-195085771D02*
X204145058Y-195085771D01*
X204287915Y-195157200D01*
X204359344Y-195228629D01*
X204430773Y-195371486D01*
X204502201Y-195657200D01*
X204502201Y-196014343D01*
X204430773Y-196300057D01*
X204359344Y-196442914D01*
X204287915Y-196514343D01*
X204145058Y-196585771D01*
X204002201Y-196585771D01*
X203859344Y-196514343D01*
X203787915Y-196442914D01*
X203716487Y-196300057D01*
X203645058Y-196014343D01*
X203645058Y-195657200D01*
X203716487Y-195371486D01*
X203787915Y-195228629D01*
X203859344Y-195157200D01*
X204002201Y-195085771D01*
X205145058Y-196442914D02*
X205216486Y-196514343D01*
X205145058Y-196585771D01*
X205073629Y-196514343D01*
X205145058Y-196442914D01*
X205145058Y-196585771D01*
X206502201Y-195085771D02*
X206216487Y-195085771D01*
X206073630Y-195157200D01*
X206002201Y-195228629D01*
X205859344Y-195442914D01*
X205787915Y-195728629D01*
X205787915Y-196300057D01*
X205859344Y-196442914D01*
X205930772Y-196514343D01*
X206073630Y-196585771D01*
X206359344Y-196585771D01*
X206502201Y-196514343D01*
X206573630Y-196442914D01*
X206645058Y-196300057D01*
X206645058Y-195942914D01*
X206573630Y-195800057D01*
X206502201Y-195728629D01*
X206359344Y-195657200D01*
X206073630Y-195657200D01*
X205930772Y-195728629D01*
X205859344Y-195800057D01*
X205787915Y-195942914D01*
X207287915Y-196014343D02*
X208430772Y-196014343D01*
X209716486Y-196514343D02*
X209573629Y-196585771D01*
X209287915Y-196585771D01*
X209145058Y-196514343D01*
X209073629Y-196371486D01*
X209073629Y-195800057D01*
X209145058Y-195657200D01*
X209287915Y-195585771D01*
X209573629Y-195585771D01*
X209716486Y-195657200D01*
X209787915Y-195800057D01*
X209787915Y-195942914D01*
X209073629Y-196085771D01*
X210716486Y-195085771D02*
X210859343Y-195085771D01*
X211002200Y-195157200D01*
X211073629Y-195228629D01*
X211145058Y-195371486D01*
X211216486Y-195657200D01*
X211216486Y-196014343D01*
X211145058Y-196300057D01*
X211073629Y-196442914D01*
X211002200Y-196514343D01*
X210859343Y-196585771D01*
X210716486Y-196585771D01*
X210573629Y-196514343D01*
X210502200Y-196442914D01*
X210430772Y-196300057D01*
X210359343Y-196014343D01*
X210359343Y-195657200D01*
X210430772Y-195371486D01*
X210502200Y-195228629D01*
X210573629Y-195157200D01*
X210716486Y-195085771D01*
X211859343Y-196014343D02*
X213002200Y-196014343D01*
X214359343Y-195085771D02*
X214073629Y-195085771D01*
X213930772Y-195157200D01*
X213859343Y-195228629D01*
X213716486Y-195442914D01*
X213645057Y-195728629D01*
X213645057Y-196300057D01*
X213716486Y-196442914D01*
X213787914Y-196514343D01*
X213930772Y-196585771D01*
X214216486Y-196585771D01*
X214359343Y-196514343D01*
X214430772Y-196442914D01*
X214502200Y-196300057D01*
X214502200Y-195942914D01*
X214430772Y-195800057D01*
X214359343Y-195728629D01*
X214216486Y-195657200D01*
X213930772Y-195657200D01*
X213787914Y-195728629D01*
X213716486Y-195800057D01*
X213645057Y-195942914D01*
X215002200Y-195085771D02*
X215930771Y-195085771D01*
X215430771Y-195657200D01*
X215645057Y-195657200D01*
X215787914Y-195728629D01*
X215859343Y-195800057D01*
X215930771Y-195942914D01*
X215930771Y-196300057D01*
X215859343Y-196442914D01*
X215787914Y-196514343D01*
X215645057Y-196585771D01*
X215216485Y-196585771D01*
X215073628Y-196514343D01*
X215002200Y-196442914D01*
X217216485Y-195585771D02*
X217216485Y-196585771D01*
X216859342Y-195014343D02*
X216502199Y-196085771D01*
X217430771Y-196085771D01*
X218073627Y-196585771D02*
X218359342Y-196585771D01*
X218502199Y-196514343D01*
X218573627Y-196442914D01*
X218716485Y-196228629D01*
X218787913Y-195942914D01*
X218787913Y-195371486D01*
X218716485Y-195228629D01*
X218645056Y-195157200D01*
X218502199Y-195085771D01*
X218216485Y-195085771D01*
X218073627Y-195157200D01*
X218002199Y-195228629D01*
X217930770Y-195371486D01*
X217930770Y-195728629D01*
X218002199Y-195871486D01*
X218073627Y-195942914D01*
X218216485Y-196014343D01*
X218502199Y-196014343D01*
X218645056Y-195942914D01*
X218716485Y-195871486D01*
X218787913Y-195728629D01*
X220145056Y-195085771D02*
X219430770Y-195085771D01*
X219359341Y-195800057D01*
X219430770Y-195728629D01*
X219573627Y-195657200D01*
X219930770Y-195657200D01*
X220073627Y-195728629D01*
X220145056Y-195800057D01*
X220216484Y-195942914D01*
X220216484Y-196300057D01*
X220145056Y-196442914D01*
X220073627Y-196514343D01*
X219930770Y-196585771D01*
X219573627Y-196585771D01*
X219430770Y-196514343D01*
X219359341Y-196442914D01*
X220716484Y-195085771D02*
X221645055Y-195085771D01*
X221145055Y-195657200D01*
X221359341Y-195657200D01*
X221502198Y-195728629D01*
X221573627Y-195800057D01*
X221645055Y-195942914D01*
X221645055Y-196300057D01*
X221573627Y-196442914D01*
X221502198Y-196514343D01*
X221359341Y-196585771D01*
X220930769Y-196585771D01*
X220787912Y-196514343D01*
X220716484Y-196442914D01*
X219073627Y-194827200D02*
X221930769Y-194827200D01*
X222930769Y-195585771D02*
X222930769Y-196585771D01*
X222287912Y-195585771D02*
X222287912Y-196371486D01*
X222359340Y-196514343D01*
X222502198Y-196585771D01*
X222716483Y-196585771D01*
X222859340Y-196514343D01*
X222930769Y-196442914D01*
X223645055Y-196585771D02*
X223645055Y-195085771D01*
X223645055Y-195657200D02*
X223787912Y-195585771D01*
X224073626Y-195585771D01*
X224216483Y-195657200D01*
X224287912Y-195728629D01*
X224359341Y-195871486D01*
X224359341Y-196300057D01*
X224287912Y-196442914D01*
X224216483Y-196514343D01*
X224073626Y-196585771D01*
X223787912Y-196585771D01*
X223645055Y-196514343D01*
X225645055Y-195585771D02*
X225645055Y-196585771D01*
X225002198Y-195585771D02*
X225002198Y-196371486D01*
X225073626Y-196514343D01*
X225216484Y-196585771D01*
X225430769Y-196585771D01*
X225573626Y-196514343D01*
X225645055Y-196442914D01*
X226359341Y-195585771D02*
X226359341Y-196585771D01*
X226359341Y-195728629D02*
X226430769Y-195657200D01*
X226573627Y-195585771D01*
X226787912Y-195585771D01*
X226930769Y-195657200D01*
X227002198Y-195800057D01*
X227002198Y-196585771D01*
X227502198Y-195585771D02*
X228073627Y-195585771D01*
X227716484Y-195085771D02*
X227716484Y-196371486D01*
X227787912Y-196514343D01*
X227930770Y-196585771D01*
X228073627Y-196585771D01*
X229216484Y-195585771D02*
X229216484Y-196585771D01*
X228573627Y-195585771D02*
X228573627Y-196371486D01*
X228645055Y-196514343D01*
X228787913Y-196585771D01*
X229002198Y-196585771D01*
X229145055Y-196514343D01*
X229216484Y-196442914D01*
X230716484Y-196585771D02*
X229859341Y-196585771D01*
X230287913Y-196585771D02*
X230287913Y-195085771D01*
X230145056Y-195300057D01*
X230002198Y-195442914D01*
X229859341Y-195514343D01*
X232002198Y-195085771D02*
X231716484Y-195085771D01*
X231573627Y-195157200D01*
X231502198Y-195228629D01*
X231359341Y-195442914D01*
X231287912Y-195728629D01*
X231287912Y-196300057D01*
X231359341Y-196442914D01*
X231430769Y-196514343D01*
X231573627Y-196585771D01*
X231859341Y-196585771D01*
X232002198Y-196514343D01*
X232073627Y-196442914D01*
X232145055Y-196300057D01*
X232145055Y-195942914D01*
X232073627Y-195800057D01*
X232002198Y-195728629D01*
X231859341Y-195657200D01*
X231573627Y-195657200D01*
X231430769Y-195728629D01*
X231359341Y-195800057D01*
X231287912Y-195942914D01*
X232787912Y-196442914D02*
X232859340Y-196514343D01*
X232787912Y-196585771D01*
X232716483Y-196514343D01*
X232787912Y-196442914D01*
X232787912Y-196585771D01*
X233787912Y-195085771D02*
X233930769Y-195085771D01*
X234073626Y-195157200D01*
X234145055Y-195228629D01*
X234216484Y-195371486D01*
X234287912Y-195657200D01*
X234287912Y-196014343D01*
X234216484Y-196300057D01*
X234145055Y-196442914D01*
X234073626Y-196514343D01*
X233930769Y-196585771D01*
X233787912Y-196585771D01*
X233645055Y-196514343D01*
X233573626Y-196442914D01*
X233502198Y-196300057D01*
X233430769Y-196014343D01*
X233430769Y-195657200D01*
X233502198Y-195371486D01*
X233573626Y-195228629D01*
X233645055Y-195157200D01*
X233787912Y-195085771D01*
X235573626Y-195585771D02*
X235573626Y-196585771D01*
X235216483Y-195014343D02*
X234859340Y-196085771D01*
X235787912Y-196085771D01*
X236359340Y-196442914D02*
X236430768Y-196514343D01*
X236359340Y-196585771D01*
X236287911Y-196514343D01*
X236359340Y-196442914D01*
X236359340Y-196585771D01*
X237859340Y-196585771D02*
X237002197Y-196585771D01*
X237430769Y-196585771D02*
X237430769Y-195085771D01*
X237287912Y-195300057D01*
X237145054Y-195442914D01*
X237002197Y-195514343D01*
D10*
D11*
X177002200Y-191507200D02*
X285002200Y-191507200D01*
D10*
D12*
X264216486Y-193785771D02*
X263716486Y-193071486D01*
X263359343Y-193785771D02*
X263359343Y-192285771D01*
X263930771Y-192285771D01*
X264073629Y-192357200D01*
X264145057Y-192428629D01*
X264216486Y-192571486D01*
X264216486Y-192785771D01*
X264145057Y-192928629D01*
X264073629Y-193000057D01*
X263930771Y-193071486D01*
X263359343Y-193071486D01*
X265430771Y-193714343D02*
X265287914Y-193785771D01*
X265002200Y-193785771D01*
X264859343Y-193714343D01*
X264787914Y-193571486D01*
X264787914Y-193000057D01*
X264859343Y-192857200D01*
X265002200Y-192785771D01*
X265287914Y-192785771D01*
X265430771Y-192857200D01*
X265502200Y-193000057D01*
X265502200Y-193142914D01*
X264787914Y-193285771D01*
X266002200Y-192785771D02*
X266359343Y-193785771D01*
X266716485Y-192785771D01*
X267287914Y-193642914D02*
X267359342Y-193714343D01*
X267287914Y-193785771D01*
X267216485Y-193714343D01*
X267287914Y-193642914D01*
X267287914Y-193785771D01*
X267287914Y-192857200D02*
X267359342Y-192928629D01*
X267287914Y-193000057D01*
X267216485Y-192928629D01*
X267287914Y-192857200D01*
X267287914Y-193000057D01*
X269930771Y-193785771D02*
X269073628Y-193785771D01*
X269502200Y-193785771D02*
X269502200Y-192285771D01*
X269359343Y-192500057D01*
X269216485Y-192642914D01*
X269073628Y-192714343D01*
X270573628Y-193642914D02*
X270645056Y-193714343D01*
X270573628Y-193785771D01*
X270502199Y-193714343D01*
X270573628Y-193642914D01*
X270573628Y-193785771D01*
X271573628Y-192285771D02*
X271716485Y-192285771D01*
X271859342Y-192357200D01*
X271930771Y-192428629D01*
X272002200Y-192571486D01*
X272073628Y-192857200D01*
X272073628Y-193214343D01*
X272002200Y-193500057D01*
X271930771Y-193642914D01*
X271859342Y-193714343D01*
X271716485Y-193785771D01*
X271573628Y-193785771D01*
X271430771Y-193714343D01*
X271359342Y-193642914D01*
X271287914Y-193500057D01*
X271216485Y-193214343D01*
X271216485Y-192857200D01*
X271287914Y-192571486D01*
X271359342Y-192428629D01*
X271430771Y-192357200D01*
X271573628Y-192285771D01*
D10*
D11*
X178287914Y-193714343D02*
X178502200Y-193785771D01*
X178859343Y-193785771D01*
X179002200Y-193714343D01*
X179073629Y-193642914D01*
X179145057Y-193500057D01*
X179145057Y-193357200D01*
X179073629Y-193214343D01*
X179002200Y-193142914D01*
X178859343Y-193071486D01*
X178573629Y-193000057D01*
X178430771Y-192928629D01*
X178359343Y-192857200D01*
X178287914Y-192714343D01*
X178287914Y-192571486D01*
X178359343Y-192428629D01*
X178430771Y-192357200D01*
X178573629Y-192285771D01*
X178930771Y-192285771D01*
X179145057Y-192357200D01*
X179787914Y-193785771D02*
X179787914Y-192785771D01*
X179787914Y-192285771D02*
X179716485Y-192357200D01*
X179787914Y-192428629D01*
X179859342Y-192357200D01*
X179787914Y-192285771D01*
X179787914Y-192428629D01*
X180359343Y-192785771D02*
X181145057Y-192785771D01*
X180359343Y-193785771D01*
X181145057Y-193785771D01*
X182287914Y-193714343D02*
X182145057Y-193785771D01*
X181859343Y-193785771D01*
X181716486Y-193714343D01*
X181645057Y-193571486D01*
X181645057Y-193000057D01*
X181716486Y-192857200D01*
X181859343Y-192785771D01*
X182145057Y-192785771D01*
X182287914Y-192857200D01*
X182359343Y-193000057D01*
X182359343Y-193142914D01*
X181645057Y-193285771D01*
X183002200Y-193642914D02*
X183073628Y-193714343D01*
X183002200Y-193785771D01*
X182930771Y-193714343D01*
X183002200Y-193642914D01*
X183002200Y-193785771D01*
X183002200Y-192857200D02*
X183073628Y-192928629D01*
X183002200Y-193000057D01*
X182930771Y-192928629D01*
X183002200Y-192857200D01*
X183002200Y-193000057D01*
X184787914Y-193357200D02*
X185502200Y-193357200D01*
X184645057Y-193785771D02*
X185145057Y-192285771D01*
X185645057Y-193785771D01*
X186787914Y-192785771D02*
X186787914Y-193785771D01*
X186430771Y-192214343D02*
X186073628Y-193285771D01*
X187002200Y-193285771D01*
D10*
D11*
X263359343Y-196585771D02*
X263359343Y-195085771D01*
X264716486Y-196585771D02*
X264716486Y-195085771D01*
X264716486Y-196514343D02*
X264573629Y-196585771D01*
X264287915Y-196585771D01*
X264145057Y-196514343D01*
X264073629Y-196442914D01*
X264002200Y-196300057D01*
X264002200Y-195871486D01*
X264073629Y-195728629D01*
X264145057Y-195657200D01*
X264287915Y-195585771D01*
X264573629Y-195585771D01*
X264716486Y-195657200D01*
X265430772Y-196442914D02*
X265502200Y-196514343D01*
X265430772Y-196585771D01*
X265359343Y-196514343D01*
X265430772Y-196442914D01*
X265430772Y-196585771D01*
X265430772Y-195657200D02*
X265502200Y-195728629D01*
X265430772Y-195800057D01*
X265359343Y-195728629D01*
X265430772Y-195657200D01*
X265430772Y-195800057D01*
X268073629Y-196585771D02*
X267216486Y-196585771D01*
X267645058Y-196585771D02*
X267645058Y-195085771D01*
X267502201Y-195300057D01*
X267359343Y-195442914D01*
X267216486Y-195514343D01*
X269787914Y-195014343D02*
X268502200Y-196942914D01*
X271073629Y-196585771D02*
X270216486Y-196585771D01*
X270645058Y-196585771D02*
X270645058Y-195085771D01*
X270502201Y-195300057D01*
X270359343Y-195442914D01*
X270216486Y-195514343D01*
D10*
D11*
X177002200Y-187507200D02*
X285002200Y-187507200D01*
D10*
D13*
X178454581Y-188211962D02*
X179597438Y-188211962D01*
X178776010Y-190211962D02*
X179026010Y-188211962D01*
X180014105Y-190211962D02*
X180180771Y-188878629D01*
X180264105Y-188211962D02*
X180156962Y-188307200D01*
X180240295Y-188402438D01*
X180347439Y-188307200D01*
X180264105Y-188211962D01*
X180240295Y-188402438D01*
X180847438Y-188878629D02*
X181609343Y-188878629D01*
X181216486Y-188211962D02*
X181002200Y-189926248D01*
X181073630Y-190116724D01*
X181252201Y-190211962D01*
X181442677Y-190211962D01*
X182395058Y-190211962D02*
X182216487Y-190116724D01*
X182145057Y-189926248D01*
X182359343Y-188211962D01*
X183930772Y-190116724D02*
X183728391Y-190211962D01*
X183347439Y-190211962D01*
X183168867Y-190116724D01*
X183097438Y-189926248D01*
X183192676Y-189164343D01*
X183311724Y-188973867D01*
X183514105Y-188878629D01*
X183895057Y-188878629D01*
X184073629Y-188973867D01*
X184145057Y-189164343D01*
X184121248Y-189354819D01*
X183145057Y-189545295D01*
X184895057Y-190021486D02*
X184978392Y-190116724D01*
X184871248Y-190211962D01*
X184787915Y-190116724D01*
X184895057Y-190021486D01*
X184871248Y-190211962D01*
X185026010Y-188973867D02*
X185109344Y-189069105D01*
X185002200Y-189164343D01*
X184918867Y-189069105D01*
X185026010Y-188973867D01*
X185002200Y-189164343D01*
X188145058Y-189164343D02*
X188418867Y-189259581D01*
X188502202Y-189354819D01*
X188573630Y-189545295D01*
X188537916Y-189831010D01*
X188418868Y-190021486D01*
X188311725Y-190116724D01*
X188109344Y-190211962D01*
X187347439Y-190211962D01*
X187597439Y-188211962D01*
X188264106Y-188211962D01*
X188442677Y-188307200D01*
X188526010Y-188402438D01*
X188597440Y-188592914D01*
X188573630Y-188783390D01*
X188454582Y-188973867D01*
X188347439Y-189069105D01*
X188145058Y-189164343D01*
X187478391Y-189164343D01*
X190299820Y-190211962D02*
X189347439Y-190211962D01*
X189597439Y-188211962D01*
X190966487Y-190211962D02*
X191216487Y-188211962D01*
X191692678Y-188211962D01*
X191966487Y-188307200D01*
X192133154Y-188497676D01*
X192204583Y-188688152D01*
X192252202Y-189069105D01*
X192216488Y-189354819D01*
X192073631Y-189735771D01*
X191954582Y-189926248D01*
X191740297Y-190116724D01*
X191442678Y-190211962D01*
X190966487Y-190211962D01*
X194133154Y-190021486D02*
X194026012Y-190116724D01*
X193728392Y-190211962D01*
X193537916Y-190211962D01*
X193264107Y-190116724D01*
X193097440Y-189926248D01*
X193026011Y-189735771D01*
X192978392Y-189354819D01*
X193014106Y-189069105D01*
X193156963Y-188688152D01*
X193276012Y-188497676D01*
X193490297Y-188307200D01*
X193787916Y-188211962D01*
X193978392Y-188211962D01*
X194252202Y-188307200D01*
X194335535Y-188402438D01*
X197656964Y-190021486D02*
X197549822Y-190116724D01*
X197252202Y-190211962D01*
X197061726Y-190211962D01*
X196787917Y-190116724D01*
X196621250Y-189926248D01*
X196549821Y-189735771D01*
X196502202Y-189354819D01*
X196537916Y-189069105D01*
X196680773Y-188688152D01*
X196799822Y-188497676D01*
X197014107Y-188307200D01*
X197311726Y-188211962D01*
X197502202Y-188211962D01*
X197776012Y-188307200D01*
X197859345Y-188402438D01*
X199121250Y-188211962D02*
X199502202Y-188211962D01*
X199680773Y-188307200D01*
X199847441Y-188497676D01*
X199895059Y-188878629D01*
X199811726Y-189545295D01*
X199668869Y-189926248D01*
X199454583Y-190116724D01*
X199252202Y-190211962D01*
X198871250Y-190211962D01*
X198692679Y-190116724D01*
X198526011Y-189926248D01*
X198478392Y-189545295D01*
X198561725Y-188878629D01*
X198704583Y-188497676D01*
X198918869Y-188307200D01*
X199121250Y-188211962D01*
X200585535Y-190211962D02*
X200835535Y-188211962D01*
X201728393Y-190211962D01*
X201978393Y-188211962D01*
X202645059Y-188211962D02*
X203787916Y-188211962D01*
X202966488Y-190211962D02*
X203216488Y-188211962D01*
X205347441Y-190211962D02*
X204799821Y-189259581D01*
X204204583Y-190211962D02*
X204454583Y-188211962D01*
X205216488Y-188211962D01*
X205395059Y-188307200D01*
X205478393Y-188402438D01*
X205549822Y-188592914D01*
X205514107Y-188878629D01*
X205395060Y-189069105D01*
X205287916Y-189164343D01*
X205085535Y-189259581D01*
X204323630Y-189259581D01*
X206835536Y-188211962D02*
X207216488Y-188211962D01*
X207395059Y-188307200D01*
X207561727Y-188497676D01*
X207609345Y-188878629D01*
X207526012Y-189545295D01*
X207383155Y-189926248D01*
X207168869Y-190116724D01*
X206966488Y-190211962D01*
X206585536Y-190211962D01*
X206406965Y-190116724D01*
X206240297Y-189926248D01*
X206192678Y-189545295D01*
X206276011Y-188878629D01*
X206418869Y-188497676D01*
X206633155Y-188307200D01*
X206835536Y-188211962D01*
X209252202Y-190211962D02*
X208299821Y-190211962D01*
X208549821Y-188211962D01*
X210871250Y-190211962D02*
X209918869Y-190211962D01*
X210168869Y-188211962D01*
X211668869Y-189164343D02*
X212335536Y-189164343D01*
X212490298Y-190211962D02*
X211537917Y-190211962D01*
X211787917Y-188211962D01*
X212740298Y-188211962D01*
X214490299Y-190211962D02*
X213942679Y-189259581D01*
X213347441Y-190211962D02*
X213597441Y-188211962D01*
X214359346Y-188211962D01*
X214537917Y-188307200D01*
X214621251Y-188402438D01*
X214692680Y-188592914D01*
X214656965Y-188878629D01*
X214537918Y-189069105D01*
X214430774Y-189164343D01*
X214228393Y-189259581D01*
X213466488Y-189259581D01*
D10*
D11*
X178859343Y-185600057D02*
X178359343Y-185600057D01*
X178359343Y-186385771D02*
X178359343Y-184885771D01*
X179073629Y-184885771D01*
X179645057Y-186385771D02*
X179645057Y-185385771D01*
X179645057Y-184885771D02*
X179573628Y-184957200D01*
X179645057Y-185028629D01*
X179716485Y-184957200D01*
X179645057Y-184885771D01*
X179645057Y-185028629D01*
X180573629Y-186385771D02*
X180430771Y-186314343D01*
X180359343Y-186171486D01*
X180359343Y-184885771D01*
X181716485Y-186314343D02*
X181573628Y-186385771D01*
X181287914Y-186385771D01*
X181145057Y-186314343D01*
X181073628Y-186171486D01*
X181073628Y-185600057D01*
X181145057Y-185457200D01*
X181287914Y-185385771D01*
X181573628Y-185385771D01*
X181716485Y-185457200D01*
X181787914Y-185600057D01*
X181787914Y-185742914D01*
X181073628Y-185885771D01*
X182430771Y-186242914D02*
X182502199Y-186314343D01*
X182430771Y-186385771D01*
X182359342Y-186314343D01*
X182430771Y-186242914D01*
X182430771Y-186385771D01*
X182430771Y-185457200D02*
X182502199Y-185528629D01*
X182430771Y-185600057D01*
X182359342Y-185528629D01*
X182430771Y-185457200D01*
X182430771Y-185600057D01*
X184787914Y-185600057D02*
X185002200Y-185671486D01*
X185073628Y-185742914D01*
X185145057Y-185885771D01*
X185145057Y-186100057D01*
X185073628Y-186242914D01*
X185002200Y-186314343D01*
X184859342Y-186385771D01*
X184287914Y-186385771D01*
X184287914Y-184885771D01*
X184787914Y-184885771D01*
X184930771Y-184957200D01*
X185002200Y-185028629D01*
X185073628Y-185171486D01*
X185073628Y-185314343D01*
X185002200Y-185457200D01*
X184930771Y-185528629D01*
X184787914Y-185600057D01*
X184287914Y-185600057D01*
X186502200Y-186385771D02*
X185787914Y-186385771D01*
X185787914Y-184885771D01*
X187002200Y-186385771D02*
X187002200Y-184885771D01*
X187359343Y-184885771D01*
X187573628Y-184957200D01*
X187716486Y-185100057D01*
X187787914Y-185242914D01*
X187859343Y-185528629D01*
X187859343Y-185742914D01*
X187787914Y-186028629D01*
X187716486Y-186171486D01*
X187573628Y-186314343D01*
X187359343Y-186385771D01*
X187002200Y-186385771D01*
X189359343Y-186242914D02*
X189287914Y-186314343D01*
X189073628Y-186385771D01*
X188930771Y-186385771D01*
X188716486Y-186314343D01*
X188573628Y-186171486D01*
X188502200Y-186028629D01*
X188430771Y-185742914D01*
X188430771Y-185528629D01*
X188502200Y-185242914D01*
X188573628Y-185100057D01*
X188716486Y-184957200D01*
X188930771Y-184885771D01*
X189073628Y-184885771D01*
X189287914Y-184957200D01*
X189359343Y-185028629D01*
X189645057Y-186528629D02*
X190787914Y-186528629D01*
X191787914Y-186314343D02*
X191645057Y-186385771D01*
X191359343Y-186385771D01*
X191216485Y-186314343D01*
X191145057Y-186242914D01*
X191073628Y-186100057D01*
X191073628Y-185671486D01*
X191145057Y-185528629D01*
X191216485Y-185457200D01*
X191359343Y-185385771D01*
X191645057Y-185385771D01*
X191787914Y-185457200D01*
X192645057Y-186385771D02*
X192502199Y-186314343D01*
X192430771Y-186242914D01*
X192359342Y-186100057D01*
X192359342Y-185671486D01*
X192430771Y-185528629D01*
X192502199Y-185457200D01*
X192645057Y-185385771D01*
X192859342Y-185385771D01*
X193002199Y-185457200D01*
X193073628Y-185528629D01*
X193145057Y-185671486D01*
X193145057Y-186100057D01*
X193073628Y-186242914D01*
X193002199Y-186314343D01*
X192859342Y-186385771D01*
X192645057Y-186385771D01*
X193787914Y-185385771D02*
X193787914Y-186385771D01*
X193787914Y-185528629D02*
X193859342Y-185457200D01*
X194002200Y-185385771D01*
X194216485Y-185385771D01*
X194359342Y-185457200D01*
X194430771Y-185600057D01*
X194430771Y-186385771D01*
X194930771Y-185385771D02*
X195502200Y-185385771D01*
X195145057Y-184885771D02*
X195145057Y-186171486D01*
X195216485Y-186314343D01*
X195359343Y-186385771D01*
X195502200Y-186385771D01*
X196002200Y-186385771D02*
X196002200Y-185385771D01*
X196002200Y-185671486D02*
X196073628Y-185528629D01*
X196145057Y-185457200D01*
X196287914Y-185385771D01*
X196430771Y-185385771D01*
X197145057Y-186385771D02*
X197002199Y-186314343D01*
X196930771Y-186242914D01*
X196859342Y-186100057D01*
X196859342Y-185671486D01*
X196930771Y-185528629D01*
X197002199Y-185457200D01*
X197145057Y-185385771D01*
X197359342Y-185385771D01*
X197502199Y-185457200D01*
X197573628Y-185528629D01*
X197645057Y-185671486D01*
X197645057Y-186100057D01*
X197573628Y-186242914D01*
X197502199Y-186314343D01*
X197359342Y-186385771D01*
X197145057Y-186385771D01*
X198502200Y-186385771D02*
X198359342Y-186314343D01*
X198287914Y-186171486D01*
X198287914Y-184885771D01*
X199287914Y-186385771D02*
X199145056Y-186314343D01*
X199073628Y-186171486D01*
X199073628Y-184885771D01*
X200430770Y-186314343D02*
X200287913Y-186385771D01*
X200002199Y-186385771D01*
X199859342Y-186314343D01*
X199787913Y-186171486D01*
X199787913Y-185600057D01*
X199859342Y-185457200D01*
X200002199Y-185385771D01*
X200287913Y-185385771D01*
X200430770Y-185457200D01*
X200502199Y-185600057D01*
X200502199Y-185742914D01*
X199787913Y-185885771D01*
X201145056Y-186385771D02*
X201145056Y-185385771D01*
X201145056Y-185671486D02*
X201216484Y-185528629D01*
X201287913Y-185457200D01*
X201430770Y-185385771D01*
X201573627Y-185385771D01*
X202073627Y-186242914D02*
X202145055Y-186314343D01*
X202073627Y-186385771D01*
X202002198Y-186314343D01*
X202073627Y-186242914D01*
X202073627Y-186385771D01*
X202787913Y-186385771D02*
X202787913Y-184885771D01*
X202930770Y-185814343D02*
X203359341Y-186385771D01*
X203359341Y-185385771D02*
X202787913Y-185957200D01*
X204002199Y-186385771D02*
X204002199Y-185385771D01*
X204002199Y-184885771D02*
X203930770Y-184957200D01*
X204002199Y-185028629D01*
X204073627Y-184957200D01*
X204002199Y-184885771D01*
X204002199Y-185028629D01*
X205359342Y-186314343D02*
X205216485Y-186385771D01*
X204930771Y-186385771D01*
X204787913Y-186314343D01*
X204716485Y-186242914D01*
X204645056Y-186100057D01*
X204645056Y-185671486D01*
X204716485Y-185528629D01*
X204787913Y-185457200D01*
X204930771Y-185385771D01*
X205216485Y-185385771D01*
X205359342Y-185457200D01*
X206645056Y-186385771D02*
X206645056Y-185600057D01*
X206573627Y-185457200D01*
X206430770Y-185385771D01*
X206145056Y-185385771D01*
X206002199Y-185457200D01*
X206645056Y-186314343D02*
X206502199Y-186385771D01*
X206145056Y-186385771D01*
X206002199Y-186314343D01*
X205930770Y-186171486D01*
X205930770Y-186028629D01*
X206002199Y-185885771D01*
X206145056Y-185814343D01*
X206502199Y-185814343D01*
X206645056Y-185742914D01*
X208002199Y-186385771D02*
X208002199Y-184885771D01*
X208002199Y-186314343D02*
X207859342Y-186385771D01*
X207573628Y-186385771D01*
X207430770Y-186314343D01*
X207359342Y-186242914D01*
X207287913Y-186100057D01*
X207287913Y-185671486D01*
X207359342Y-185528629D01*
X207430770Y-185457200D01*
X207573628Y-185385771D01*
X207859342Y-185385771D01*
X208002199Y-185457200D01*
X208359342Y-186528629D02*
X209502199Y-186528629D01*
X209859342Y-185385771D02*
X209859342Y-186885771D01*
X209859342Y-185457200D02*
X210002199Y-185385771D01*
X210287913Y-185385771D01*
X210430770Y-185457200D01*
X210502199Y-185528629D01*
X210573628Y-185671486D01*
X210573628Y-186100057D01*
X210502199Y-186242914D01*
X210430770Y-186314343D01*
X210287913Y-186385771D01*
X210002199Y-186385771D01*
X209859342Y-186314343D01*
X211859342Y-186314343D02*
X211716485Y-186385771D01*
X211430771Y-186385771D01*
X211287913Y-186314343D01*
X211216485Y-186242914D01*
X211145056Y-186100057D01*
X211145056Y-185671486D01*
X211216485Y-185528629D01*
X211287913Y-185457200D01*
X211430771Y-185385771D01*
X211716485Y-185385771D01*
X211859342Y-185457200D01*
X212502199Y-186385771D02*
X212502199Y-184885771D01*
X212502199Y-185457200D02*
X212645056Y-185385771D01*
X212930770Y-185385771D01*
X213073627Y-185457200D01*
X213145056Y-185528629D01*
X213216485Y-185671486D01*
X213216485Y-186100057D01*
X213145056Y-186242914D01*
X213073627Y-186314343D01*
X212930770Y-186385771D01*
X212645056Y-186385771D01*
X212502199Y-186314343D01*
D10*
D11*
X177002200Y-181507200D02*
X285002200Y-181507200D01*
D10*
D11*
X178287914Y-183614343D02*
X178502200Y-183685771D01*
X178859343Y-183685771D01*
X179002200Y-183614343D01*
X179073629Y-183542914D01*
X179145057Y-183400057D01*
X179145057Y-183257200D01*
X179073629Y-183114343D01*
X179002200Y-183042914D01*
X178859343Y-182971486D01*
X178573629Y-182900057D01*
X178430771Y-182828629D01*
X178359343Y-182757200D01*
X178287914Y-182614343D01*
X178287914Y-182471486D01*
X178359343Y-182328629D01*
X178430771Y-182257200D01*
X178573629Y-182185771D01*
X178930771Y-182185771D01*
X179145057Y-182257200D01*
X179787914Y-183685771D02*
X179787914Y-182185771D01*
X180430771Y-183685771D02*
X180430771Y-182900057D01*
X180359342Y-182757200D01*
X180216485Y-182685771D01*
X180002200Y-182685771D01*
X179859342Y-182757200D01*
X179787914Y-182828629D01*
X181716485Y-183614343D02*
X181573628Y-183685771D01*
X181287914Y-183685771D01*
X181145057Y-183614343D01*
X181073628Y-183471486D01*
X181073628Y-182900057D01*
X181145057Y-182757200D01*
X181287914Y-182685771D01*
X181573628Y-182685771D01*
X181716485Y-182757200D01*
X181787914Y-182900057D01*
X181787914Y-183042914D01*
X181073628Y-183185771D01*
X183002199Y-183614343D02*
X182859342Y-183685771D01*
X182573628Y-183685771D01*
X182430771Y-183614343D01*
X182359342Y-183471486D01*
X182359342Y-182900057D01*
X182430771Y-182757200D01*
X182573628Y-182685771D01*
X182859342Y-182685771D01*
X183002199Y-182757200D01*
X183073628Y-182900057D01*
X183073628Y-183042914D01*
X182359342Y-183185771D01*
X183502199Y-182685771D02*
X184073628Y-182685771D01*
X183716485Y-182185771D02*
X183716485Y-183471486D01*
X183787913Y-183614343D01*
X183930771Y-183685771D01*
X184073628Y-183685771D01*
X184573628Y-183542914D02*
X184645056Y-183614343D01*
X184573628Y-183685771D01*
X184502199Y-183614343D01*
X184573628Y-183542914D01*
X184573628Y-183685771D01*
X184573628Y-182757200D02*
X184645056Y-182828629D01*
X184573628Y-182900057D01*
X184502199Y-182828629D01*
X184573628Y-182757200D01*
X184573628Y-182900057D01*
D10*
D12*
X178359343Y-180685771D02*
X178359343Y-179185771D01*
X178359343Y-179900057D02*
X179216486Y-179900057D01*
X179216486Y-180685771D02*
X179216486Y-179185771D01*
X180502200Y-180614343D02*
X180359343Y-180685771D01*
X180073629Y-180685771D01*
X179930772Y-180614343D01*
X179859343Y-180471486D01*
X179859343Y-179900057D01*
X179930772Y-179757200D01*
X180073629Y-179685771D01*
X180359343Y-179685771D01*
X180502200Y-179757200D01*
X180573629Y-179900057D01*
X180573629Y-180042914D01*
X179859343Y-180185771D01*
X181430772Y-180685771D02*
X181287914Y-180614343D01*
X181216486Y-180471486D01*
X181216486Y-179185771D01*
X181930771Y-180614343D02*
X182073628Y-180685771D01*
X182359343Y-180685771D01*
X182502200Y-180614343D01*
X182573628Y-180471486D01*
X182573628Y-180400057D01*
X182502200Y-180257200D01*
X182359343Y-180185771D01*
X182145057Y-180185771D01*
X182002200Y-180114343D01*
X181930771Y-179971486D01*
X181930771Y-179900057D01*
X182002200Y-179757200D01*
X182145057Y-179685771D01*
X182359343Y-179685771D01*
X182502200Y-179757200D01*
X183216486Y-180685771D02*
X183216486Y-179685771D01*
X183216486Y-179185771D02*
X183145057Y-179257200D01*
X183216486Y-179328629D01*
X183287914Y-179257200D01*
X183216486Y-179185771D01*
X183216486Y-179328629D01*
X183930772Y-179685771D02*
X183930772Y-180685771D01*
X183930772Y-179828629D02*
X184002200Y-179757200D01*
X184145058Y-179685771D01*
X184359343Y-179685771D01*
X184502200Y-179757200D01*
X184573629Y-179900057D01*
X184573629Y-180685771D01*
X185287915Y-180685771D02*
X185287915Y-179185771D01*
X185430772Y-180114343D02*
X185859343Y-180685771D01*
X185859343Y-179685771D02*
X185287915Y-180257200D01*
X186502201Y-180685771D02*
X186502201Y-179685771D01*
X186502201Y-179185771D02*
X186430772Y-179257200D01*
X186502201Y-179328629D01*
X186573629Y-179257200D01*
X186502201Y-179185771D01*
X186502201Y-179328629D01*
X188359344Y-180685771D02*
X188359344Y-179185771D01*
X188359344Y-179900057D02*
X189216487Y-179900057D01*
X189216487Y-180685771D02*
X189216487Y-179185771D01*
X190573630Y-180685771D02*
X190573630Y-179900057D01*
X190502201Y-179757200D01*
X190359344Y-179685771D01*
X190073630Y-179685771D01*
X189930773Y-179757200D01*
X190573630Y-180614343D02*
X190430773Y-180685771D01*
X190073630Y-180685771D01*
X189930773Y-180614343D01*
X189859344Y-180471486D01*
X189859344Y-180328629D01*
X189930773Y-180185771D01*
X190073630Y-180114343D01*
X190430773Y-180114343D01*
X190573630Y-180042914D01*
X191930773Y-180614343D02*
X191787916Y-180685771D01*
X191502202Y-180685771D01*
X191359344Y-180614343D01*
X191287916Y-180542914D01*
X191216487Y-180400057D01*
X191216487Y-179971486D01*
X191287916Y-179828629D01*
X191359344Y-179757200D01*
X191502202Y-179685771D01*
X191787916Y-179685771D01*
X191930773Y-179757200D01*
X192573630Y-180685771D02*
X192573630Y-179185771D01*
X192716487Y-180114343D02*
X193145058Y-180685771D01*
X193145058Y-179685771D02*
X192573630Y-180257200D01*
X194002202Y-180685771D02*
X193859344Y-180614343D01*
X193787916Y-180471486D01*
X193787916Y-179185771D01*
X195216487Y-180685771D02*
X195216487Y-179900057D01*
X195145058Y-179757200D01*
X195002201Y-179685771D01*
X194716487Y-179685771D01*
X194573630Y-179757200D01*
X195216487Y-180614343D02*
X195073630Y-180685771D01*
X194716487Y-180685771D01*
X194573630Y-180614343D01*
X194502201Y-180471486D01*
X194502201Y-180328629D01*
X194573630Y-180185771D01*
X194716487Y-180114343D01*
X195073630Y-180114343D01*
X195216487Y-180042914D01*
X195930773Y-180685771D02*
X195930773Y-179185771D01*
X195930773Y-179757200D02*
X196073630Y-179685771D01*
X196359344Y-179685771D01*
X196502201Y-179757200D01*
X196573630Y-179828629D01*
X196645059Y-179971486D01*
X196645059Y-180400057D01*
X196573630Y-180542914D01*
X196502201Y-180614343D01*
X196359344Y-180685771D01*
X196073630Y-180685771D01*
X195930773Y-180614343D01*
D10*
D11*
X178145057Y-176185771D02*
X179002200Y-176185771D01*
X178573629Y-177685771D02*
X178573629Y-176185771D01*
X180073628Y-177614343D02*
X179930771Y-177685771D01*
X179645057Y-177685771D01*
X179502200Y-177614343D01*
X179430771Y-177471486D01*
X179430771Y-176900057D01*
X179502200Y-176757200D01*
X179645057Y-176685771D01*
X179930771Y-176685771D01*
X180073628Y-176757200D01*
X180145057Y-176900057D01*
X180145057Y-177042914D01*
X179430771Y-177185771D01*
X180787914Y-177685771D02*
X180787914Y-176685771D01*
X180787914Y-176971486D02*
X180859342Y-176828629D01*
X180930771Y-176757200D01*
X181073628Y-176685771D01*
X181216485Y-176685771D01*
X181930771Y-177685771D02*
X181787913Y-177614343D01*
X181716485Y-177542914D01*
X181645056Y-177400057D01*
X181645056Y-176971486D01*
X181716485Y-176828629D01*
X181787913Y-176757200D01*
X181930771Y-176685771D01*
X182145056Y-176685771D01*
X182287913Y-176757200D01*
X182359342Y-176828629D01*
X182430771Y-176971486D01*
X182430771Y-177400057D01*
X182359342Y-177542914D01*
X182287913Y-177614343D01*
X182145056Y-177685771D01*
X181930771Y-177685771D01*
X184216485Y-177685771D02*
X184216485Y-176185771D01*
X185073628Y-177685771D02*
X184430771Y-176828629D01*
X185073628Y-176185771D02*
X184216485Y-177042914D01*
X186359342Y-177685771D02*
X186359342Y-176900057D01*
X186287913Y-176757200D01*
X186145056Y-176685771D01*
X185859342Y-176685771D01*
X185716485Y-176757200D01*
X186359342Y-177614343D02*
X186216485Y-177685771D01*
X185859342Y-177685771D01*
X185716485Y-177614343D01*
X185645056Y-177471486D01*
X185645056Y-177328629D01*
X185716485Y-177185771D01*
X185859342Y-177114343D01*
X186216485Y-177114343D01*
X186359342Y-177042914D01*
X187073628Y-176685771D02*
X187073628Y-178185771D01*
X187073628Y-176757200D02*
X187216485Y-176685771D01*
X187502199Y-176685771D01*
X187645056Y-176757200D01*
X187716485Y-176828629D01*
X187787914Y-176971486D01*
X187787914Y-177400057D01*
X187716485Y-177542914D01*
X187645056Y-177614343D01*
X187502199Y-177685771D01*
X187216485Y-177685771D01*
X187073628Y-177614343D01*
X189073628Y-177685771D02*
X189073628Y-176900057D01*
X189002199Y-176757200D01*
X188859342Y-176685771D01*
X188573628Y-176685771D01*
X188430771Y-176757200D01*
X189073628Y-177614343D02*
X188930771Y-177685771D01*
X188573628Y-177685771D01*
X188430771Y-177614343D01*
X188359342Y-177471486D01*
X188359342Y-177328629D01*
X188430771Y-177185771D01*
X188573628Y-177114343D01*
X188930771Y-177114343D01*
X189073628Y-177042914D01*
X189787914Y-176685771D02*
X189787914Y-177685771D01*
X189787914Y-176828629D02*
X189859342Y-176757200D01*
X190002200Y-176685771D01*
X190216485Y-176685771D01*
X190359342Y-176757200D01*
X190430771Y-176900057D01*
X190430771Y-177685771D01*
X191716485Y-177614343D02*
X191573628Y-177685771D01*
X191287914Y-177685771D01*
X191145057Y-177614343D01*
X191073628Y-177471486D01*
X191073628Y-176900057D01*
X191145057Y-176757200D01*
X191287914Y-176685771D01*
X191573628Y-176685771D01*
X191716485Y-176757200D01*
X191787914Y-176900057D01*
X191787914Y-177042914D01*
X191073628Y-177185771D01*
X192430771Y-176685771D02*
X192430771Y-177685771D01*
X192430771Y-176828629D02*
X192502199Y-176757200D01*
X192645057Y-176685771D01*
X192859342Y-176685771D01*
X193002199Y-176757200D01*
X193073628Y-176900057D01*
X193073628Y-177685771D01*
D10*
D11*
X197002200Y-191507200D02*
X197002200Y-194507200D01*
D10*
D11*
X261002200Y-191507200D02*
X261002200Y-198007200D01*
D14*
X175164286Y-114052619D02*
X175211905Y-114005000D01*
X175307143Y-113957381D01*
X175545239Y-113957381D01*
X175640477Y-114005000D01*
X175688096Y-114052619D01*
X175735715Y-114147857D01*
X175735715Y-114243095D01*
X175688096Y-114385952D01*
X175116667Y-114957381D01*
X175735715Y-114957381D01*
D15*
X178700000Y-109900000D03*
X173100000Y-109250000D03*
X146000000Y-98300000D03*
X162250000Y-115005000D03*
X160750000Y-79005000D03*
X136250000Y-109505000D03*
X156750000Y-79005000D03*
X151750000Y-79005000D03*
X146750000Y-79005000D03*
X141750000Y-79005000D03*
X136250000Y-84505000D03*
X136250000Y-89505000D03*
X136250000Y-94505000D03*
X136250000Y-99505000D03*
X136250000Y-104505000D03*
X142250000Y-115005000D03*
X147250000Y-115005000D03*
X152250000Y-115005000D03*
X157250000Y-115005000D03*
X173000000Y-82005000D03*
X173000000Y-83005000D03*
X172250000Y-91200000D03*
X173000000Y-100505000D03*
X172750000Y-103505000D03*
X173000000Y-110755000D03*
X184450000Y-108805000D03*
X183750000Y-108805000D03*
X183050000Y-108805000D03*
X182350000Y-108805000D03*
X181650000Y-108805000D03*
X184450000Y-108105000D03*
X183750000Y-108105000D03*
X183050000Y-108105000D03*
X182350000Y-108105000D03*
X181650000Y-108105000D03*
X184450000Y-107405000D03*
X183750000Y-107405000D03*
X183050000Y-107405000D03*
X182350000Y-107405000D03*
X181650000Y-107405000D03*
X184450000Y-106705000D03*
X183750000Y-106705000D03*
X183050000Y-106705000D03*
X182350000Y-106705000D03*
X181650000Y-106705000D03*
X184450000Y-106005000D03*
X183750000Y-106005000D03*
X183050000Y-106005000D03*
X182350000Y-106005000D03*
X181650000Y-106005000D03*
X184450000Y-105305000D03*
X183750000Y-105305000D03*
X183050000Y-105305000D03*
X182350000Y-105305000D03*
X181650000Y-105305000D03*
X184450000Y-104605000D03*
X183750000Y-104605000D03*
X183050000Y-104605000D03*
X182350000Y-104605000D03*
X181650000Y-104605000D03*
X184450000Y-103905000D03*
X183750000Y-103905000D03*
X183050000Y-103905000D03*
X182350000Y-103905000D03*
X184450000Y-100605000D03*
X183750000Y-100605000D03*
X183050000Y-100605000D03*
X182350000Y-100605000D03*
X181650000Y-100605000D03*
X184450000Y-99905000D03*
X183750000Y-99905000D03*
X183050000Y-99905000D03*
X182350000Y-99905000D03*
X181650000Y-99905000D03*
X184450000Y-99205000D03*
X183750000Y-99205000D03*
X183050000Y-99205000D03*
X182350000Y-99205000D03*
X181650000Y-99205000D03*
X184450000Y-98505000D03*
X183750000Y-98505000D03*
X183050000Y-98505000D03*
X182350000Y-98505000D03*
X181650000Y-98505000D03*
X184450000Y-97805000D03*
X183750000Y-97805000D03*
X183050000Y-97805000D03*
X182350000Y-97805000D03*
X181650000Y-97805000D03*
X184450000Y-97105000D03*
X183750000Y-97105000D03*
X183050000Y-97105000D03*
X182350000Y-97105000D03*
X181650000Y-97105000D03*
X184450000Y-96405000D03*
X183750000Y-96405000D03*
X183050000Y-96405000D03*
X182350000Y-96405000D03*
X181650000Y-96405000D03*
X184450000Y-95705000D03*
X183750000Y-95705000D03*
X183050000Y-95705000D03*
X182350000Y-95705000D03*
X181650000Y-103905000D03*
X184450000Y-91605000D03*
X183750000Y-91605000D03*
X183050000Y-91605000D03*
X182350000Y-91605000D03*
X181650000Y-91605000D03*
X184450000Y-90905000D03*
X183750000Y-90905000D03*
X183050000Y-90905000D03*
X182350000Y-90905000D03*
X181650000Y-90905000D03*
X184450000Y-90205000D03*
X183750000Y-90205000D03*
X183050000Y-90205000D03*
X182350000Y-90205000D03*
X181650000Y-90205000D03*
X184450000Y-89505000D03*
X183750000Y-89505000D03*
X183050000Y-89505000D03*
X182350000Y-89505000D03*
X181650000Y-89505000D03*
X184450000Y-88805000D03*
X183750000Y-88805000D03*
X183050000Y-88805000D03*
X182350000Y-88805000D03*
X181650000Y-88805000D03*
X184450000Y-88105000D03*
X183750000Y-88105000D03*
X183050000Y-88105000D03*
X182350000Y-88105000D03*
X181650000Y-88105000D03*
X184450000Y-87405000D03*
X183750000Y-87405000D03*
X183050000Y-87405000D03*
X182350000Y-87405000D03*
X181650000Y-87405000D03*
X181650000Y-95705000D03*
X184450000Y-86705000D03*
X183750000Y-86705000D03*
X183050000Y-86705000D03*
X182350000Y-86705000D03*
X181650000Y-86705000D03*
X167250000Y-83405000D03*
X167450000Y-100205000D03*
X166750000Y-100205000D03*
X171450000Y-82005000D03*
X170750000Y-82005000D03*
X170050000Y-82005000D03*
X169350000Y-82005000D03*
X168650000Y-82005000D03*
X167950000Y-82005000D03*
X167250000Y-82005000D03*
X166550000Y-82005000D03*
X171450000Y-81305000D03*
X170750000Y-81305000D03*
X170050000Y-81305000D03*
X169350000Y-81305000D03*
X168650000Y-81305000D03*
X167950000Y-81305000D03*
X167250000Y-81305000D03*
X166550000Y-81305000D03*
X171450000Y-80605000D03*
X170750000Y-80605000D03*
X170050000Y-80605000D03*
X169350000Y-80605000D03*
X168650000Y-80605000D03*
X167950000Y-80605000D03*
X167250000Y-80605000D03*
X166550000Y-80605000D03*
X171450000Y-79905000D03*
X170750000Y-79905000D03*
X170050000Y-79905000D03*
X169350000Y-79905000D03*
X168650000Y-79905000D03*
X167950000Y-79905000D03*
X167250000Y-79905000D03*
X166550000Y-79905000D03*
X167250000Y-82705000D03*
X166550000Y-82705000D03*
X171450000Y-79205000D03*
X170750000Y-79205000D03*
X170050000Y-79205000D03*
X169350000Y-79205000D03*
X167250000Y-79205000D03*
X166550000Y-79205000D03*
X167550000Y-112305000D03*
X166850000Y-112305000D03*
X167550000Y-111605000D03*
X166850000Y-111605000D03*
X167550000Y-110905000D03*
X166850000Y-110905000D03*
X170950000Y-103805000D03*
X170250000Y-103805000D03*
X169550000Y-103805000D03*
X168850000Y-103805000D03*
X168150000Y-103805000D03*
X167450000Y-103805000D03*
X170950000Y-103105000D03*
X170250000Y-103105000D03*
X169550000Y-103105000D03*
X168850000Y-103105000D03*
X168150000Y-103105000D03*
X167450000Y-103105000D03*
X166750000Y-103105000D03*
X170950000Y-102405000D03*
X170250000Y-102405000D03*
X169550000Y-102405000D03*
X168850000Y-102405000D03*
X168150000Y-102405000D03*
X167450000Y-102405000D03*
X166750000Y-102405000D03*
X170950000Y-101705000D03*
X170250000Y-101705000D03*
X169550000Y-101705000D03*
X168850000Y-101705000D03*
X168150000Y-101705000D03*
X167450000Y-101705000D03*
X166750000Y-101705000D03*
X170950000Y-101005000D03*
X170250000Y-101005000D03*
X169550000Y-101005000D03*
X168850000Y-101005000D03*
X168150000Y-101005000D03*
X167450000Y-101005000D03*
X166750000Y-101005000D03*
X172450000Y-115105000D03*
X171750000Y-115105000D03*
X171050000Y-115105000D03*
X170350000Y-115105000D03*
X169650000Y-115105000D03*
X168950000Y-115105000D03*
X168250000Y-115105000D03*
X167550000Y-115105000D03*
X166850000Y-115105000D03*
X172450000Y-114405000D03*
X171750000Y-114405000D03*
X171050000Y-114405000D03*
X170350000Y-114405000D03*
X169650000Y-114405000D03*
X168950000Y-114405000D03*
X168250000Y-114405000D03*
X167550000Y-114405000D03*
X166850000Y-114405000D03*
X172450000Y-113705000D03*
X171750000Y-113705000D03*
X171050000Y-113705000D03*
X170350000Y-113705000D03*
X169650000Y-113705000D03*
X168950000Y-113705000D03*
X168250000Y-113705000D03*
X167550000Y-113705000D03*
X166850000Y-113705000D03*
X172450000Y-113005000D03*
X171750000Y-113005000D03*
X171050000Y-113005000D03*
X170350000Y-113005000D03*
X169650000Y-113005000D03*
X168950000Y-113005000D03*
X168250000Y-113005000D03*
X167550000Y-113005000D03*
X166850000Y-113005000D03*
X151150000Y-97755000D03*
X149850000Y-98105000D03*
X148700000Y-98105000D03*
X146550000Y-93055000D03*
X147500000Y-98155000D03*
X145500000Y-97405000D03*
X145550000Y-93905000D03*
X152250000Y-94055000D03*
X151000000Y-93405000D03*
X149950000Y-93205000D03*
X148900000Y-93205000D03*
D16*
X182000000Y-81255000D03*
X138500000Y-81255000D03*
X182000000Y-112755000D03*
X138500000Y-112755000D03*
D17*
X144780000Y-83820000D03*
D18*
X147320000Y-83820000D03*
X149860000Y-83820000D03*
X152400000Y-83820000D03*
X154940000Y-83820000D03*
D17*
X144780000Y-81280000D03*
D18*
X147320000Y-81280000D03*
X149860000Y-81280000D03*
X152400000Y-81280000D03*
X154940000Y-81280000D03*
X157480000Y-81280000D03*
D17*
X147320000Y-111760000D03*
D18*
X149860000Y-111760000D03*
X152400000Y-111760000D03*
X154940000Y-111760000D03*
X157480000Y-111760000D03*
D15*
X147800000Y-93205000D03*
X154000000Y-107250000D03*
X152500000Y-107250000D03*
X147500000Y-106500000D03*
X176417940Y-84309707D03*
X176850000Y-99299991D03*
X165149921Y-113005000D03*
D19*
X173250000Y-79005000D03*
D15*
X176950000Y-93404998D03*
X175000000Y-79000000D03*
X174900000Y-109900000D03*
X174500000Y-100700000D03*
X173900000Y-91700000D03*
X150711603Y-99522136D03*
X150600000Y-100500000D03*
X159250000Y-112054994D03*
X177267753Y-83754618D03*
X152750000Y-104005000D03*
X146500000Y-100254988D03*
X146750000Y-101755016D03*
X180250010Y-100505000D03*
X161675021Y-92738583D03*
D19*
X168250000Y-79005000D03*
D15*
X174900000Y-112000000D03*
X179500000Y-91005000D03*
X157000000Y-95505000D03*
X152185000Y-108915000D03*
X170000000Y-85530010D03*
X170250000Y-109605000D03*
X169963201Y-97917119D03*
X165284254Y-99941045D03*
X163075976Y-104487519D03*
X164900000Y-89205000D03*
X165250000Y-110755000D03*
X156500000Y-99755000D03*
X157400000Y-82975000D03*
X147750000Y-109250000D03*
X145550000Y-96350000D03*
X145550000Y-95050000D03*
X152850000Y-91550000D03*
X153900000Y-102300000D03*
X150600000Y-87900000D03*
X146600000Y-87900000D03*
D18*
X183750000Y-102705000D03*
D15*
X160000000Y-99755000D03*
D18*
X183750000Y-94505000D03*
D15*
X165627313Y-95705014D03*
D18*
X183750000Y-85505000D03*
D15*
X161899998Y-79005000D03*
X163393199Y-103474992D03*
X175700004Y-102405000D03*
X174600000Y-93505000D03*
X163340955Y-90189166D03*
X162900000Y-79305000D03*
X175200000Y-84305000D03*
X178750000Y-102075110D03*
X170350000Y-108005000D03*
X178450000Y-83255000D03*
X164000000Y-79805000D03*
X168999992Y-96755000D03*
X179972175Y-93227175D03*
X154500000Y-105505000D03*
X143750002Y-102255000D03*
X144250000Y-110255000D03*
X163575043Y-93142754D03*
X162600000Y-105505000D03*
X158700000Y-82905000D03*
X150700000Y-89600000D03*
X146600000Y-89600000D03*
X159200000Y-110400000D03*
X159012660Y-99987340D03*
X165025054Y-93265344D03*
X160000000Y-83205000D03*
X170243857Y-106991177D03*
X164037340Y-104767660D03*
X164250000Y-84805000D03*
X170000000Y-88005000D03*
X170000000Y-95005000D03*
X166024911Y-93247699D03*
X160900000Y-105800000D03*
X144450000Y-98905000D03*
X160393923Y-107531396D03*
X157225010Y-92850000D03*
X154000000Y-101300000D03*
X157274808Y-87623751D03*
X154900000Y-102900000D03*
X158160782Y-91646103D03*
X157250000Y-91004962D03*
X155340616Y-95630768D03*
X161698915Y-107480021D03*
X159981218Y-98165420D03*
X157275000Y-88675000D03*
X153348647Y-92447770D03*
X152350000Y-92500000D03*
X159700000Y-105705000D03*
X159670369Y-95224666D03*
X157400000Y-86625000D03*
D14*
X165149921Y-112205079D02*
X165149921Y-112439315D01*
X165399999Y-111955001D02*
X165149921Y-112205079D01*
X165149921Y-112439315D02*
X165149921Y-113005000D01*
X170250000Y-109605000D02*
X166400000Y-109605000D01*
X166400000Y-109605000D02*
X165250000Y-110755000D01*
X169925309Y-97955011D02*
X169963201Y-97917119D01*
X167270288Y-97955011D02*
X169925309Y-97955011D01*
X165284254Y-99941045D02*
X167270288Y-97955011D01*
X181650000Y-103905000D02*
X181650000Y-103305000D01*
X181650000Y-103305000D02*
X181750000Y-103205000D01*
X181750000Y-103205000D02*
X181750000Y-103005000D01*
X181750000Y-103005000D02*
X180250000Y-101505000D01*
X173329999Y-97105000D02*
X169750000Y-97105000D01*
X180250000Y-101505000D02*
X179750000Y-101505000D01*
X179750000Y-101505000D02*
X178250000Y-100005000D01*
X178250000Y-100005000D02*
X178229999Y-100025001D01*
X178229999Y-100025001D02*
X176250000Y-100025001D01*
X169750000Y-97105000D02*
X169350000Y-97505000D01*
X162250000Y-97505000D02*
X160000000Y-99755000D01*
X176250000Y-100025001D02*
X173329999Y-97105000D01*
X169350000Y-97505000D02*
X162250000Y-97505000D01*
X183750000Y-103905000D02*
X183750000Y-102705000D01*
X183650000Y-94605000D02*
X183750000Y-94505000D01*
X183650000Y-95705000D02*
X183650000Y-94605000D01*
X179833369Y-92039841D02*
X181550000Y-93756472D01*
X181550000Y-95705000D02*
X181550000Y-95139315D01*
X181550000Y-95139315D02*
X181550000Y-93756472D01*
X169709380Y-95754967D02*
X171150033Y-95754967D01*
X174865159Y-92039841D02*
X179833369Y-92039841D01*
X166318024Y-95579988D02*
X169534401Y-95579988D01*
X169534401Y-95579988D02*
X169709380Y-95754967D01*
X166192998Y-95705014D02*
X166318024Y-95579988D01*
X171150033Y-95754967D02*
X174865159Y-92039841D01*
X165627313Y-95705014D02*
X166192998Y-95705014D01*
X183650000Y-86705000D02*
X183650000Y-85605000D01*
X183650000Y-85605000D02*
X183750000Y-85505000D01*
X181550000Y-86705000D02*
X181250000Y-86405000D01*
X181250000Y-86405000D02*
X166950000Y-86405000D01*
X166950000Y-86405000D02*
X161899998Y-81354998D01*
X161899998Y-81354998D02*
X161899998Y-79570685D01*
X161899998Y-79570685D02*
X161899998Y-79005000D01*
X175700004Y-102405000D02*
X171850004Y-106255000D01*
X171850004Y-106255000D02*
X166750000Y-106255000D01*
X166750000Y-106255000D02*
X163969992Y-103474992D01*
X163969992Y-103474992D02*
X163393199Y-103474992D01*
X163740954Y-90589165D02*
X163340955Y-90189166D01*
X164300044Y-95578046D02*
X164300044Y-91148255D01*
X165251999Y-96530001D02*
X164300044Y-95578046D01*
X168024965Y-96530001D02*
X165251999Y-96530001D01*
X169348001Y-96029999D02*
X168524967Y-96029999D01*
X168524967Y-96029999D02*
X168024965Y-96530001D01*
X171900022Y-96204978D02*
X169522980Y-96204978D01*
X164300044Y-91148255D02*
X163740954Y-90589165D01*
X169522980Y-96204978D02*
X169348001Y-96029999D01*
X174600000Y-93505000D02*
X171900022Y-96204978D01*
X175200000Y-84305000D02*
X174700000Y-84805000D01*
X174700000Y-84805000D02*
X166250000Y-84805000D01*
X166250000Y-84805000D02*
X162900000Y-81455000D01*
X162900000Y-81455000D02*
X162900000Y-79870685D01*
X162900000Y-79870685D02*
X162900000Y-79305000D01*
X178750000Y-102640795D02*
X178750000Y-102075110D01*
X173385795Y-108005000D02*
X178750000Y-102640795D01*
X170350000Y-108005000D02*
X173385795Y-108005000D01*
X178050001Y-82855001D02*
X178450000Y-83255000D01*
X175199999Y-82855001D02*
X178050001Y-82855001D01*
X173750000Y-84305000D02*
X175199999Y-82855001D01*
X166450000Y-84305000D02*
X173750000Y-84305000D01*
X164000000Y-81855000D02*
X166450000Y-84305000D01*
X164000000Y-79805000D02*
X164000000Y-81855000D01*
X179572176Y-93627174D02*
X179972175Y-93227175D01*
X176544361Y-96654989D02*
X179572176Y-93627174D01*
X168999992Y-96755000D02*
X169100003Y-96654989D01*
X169100003Y-96654989D02*
X176544361Y-96654989D01*
X179972175Y-93282825D02*
X179972175Y-93227175D01*
X179866135Y-93388865D02*
X179972175Y-93282825D01*
X166260857Y-106991177D02*
X169678172Y-106991177D01*
X169678172Y-106991177D02*
X170243857Y-106991177D01*
X164037340Y-104767660D02*
X166260857Y-106991177D01*
X164649999Y-85204999D02*
X164250000Y-84805000D01*
X167450000Y-88005000D02*
X164649999Y-85204999D01*
X170000000Y-88005000D02*
X167450000Y-88005000D01*
X166424910Y-93647698D02*
X166024911Y-93247699D01*
X167782212Y-95005000D02*
X166424910Y-93647698D01*
X170000000Y-95005000D02*
X167782212Y-95005000D01*
D20*
G36*
X179623000Y-102031739D02*
X179623000Y-110002973D01*
X178926972Y-110697787D01*
X178373631Y-112030380D01*
X178372717Y-113078000D01*
X173550000Y-113078000D01*
X173503841Y-113086685D01*
X173461447Y-113113965D01*
X173433006Y-113155590D01*
X173423000Y-113205000D01*
X173423000Y-115503000D01*
X173377000Y-115503000D01*
X173377000Y-112205000D01*
X173368653Y-112163779D01*
X174072857Y-112163779D01*
X174198495Y-112467846D01*
X174430930Y-112700688D01*
X174734778Y-112826856D01*
X175063779Y-112827143D01*
X175367846Y-112701505D01*
X175600688Y-112469070D01*
X175726856Y-112165222D01*
X175727143Y-111836221D01*
X175601505Y-111532154D01*
X175369070Y-111299312D01*
X175065222Y-111173144D01*
X174736221Y-111172857D01*
X174432154Y-111298495D01*
X174199312Y-111530930D01*
X174073144Y-111834778D01*
X174072857Y-112163779D01*
X173368653Y-112163779D01*
X173366994Y-112155590D01*
X173338553Y-112113965D01*
X173296159Y-112086685D01*
X173250000Y-112078000D01*
X168351021Y-112078000D01*
X168300164Y-111954918D01*
X168376856Y-111770222D01*
X168377143Y-111441221D01*
X168300164Y-111254918D01*
X168376856Y-111070222D01*
X168377143Y-110741221D01*
X168251505Y-110437154D01*
X168019070Y-110204312D01*
X167905129Y-110157000D01*
X169632502Y-110157000D01*
X169780930Y-110305688D01*
X170084778Y-110431856D01*
X170413779Y-110432143D01*
X170717846Y-110306505D01*
X170950688Y-110074070D01*
X171076856Y-109770222D01*
X171077143Y-109441221D01*
X170951505Y-109137154D01*
X170719070Y-108904312D01*
X170529562Y-108825622D01*
X170817846Y-108706505D01*
X170967613Y-108557000D01*
X173385795Y-108557000D01*
X173597037Y-108514982D01*
X173776118Y-108395323D01*
X179140323Y-103031118D01*
X179157158Y-103005922D01*
X179259982Y-102852036D01*
X179289140Y-102705445D01*
X179450688Y-102544180D01*
X179576856Y-102240332D01*
X179577046Y-102022598D01*
X179623000Y-102031739D01*
X179623000Y-102031739D01*
G37*
X179623000Y-102031739D02*
X179623000Y-110002973D01*
X178926972Y-110697787D01*
X178373631Y-112030380D01*
X178372717Y-113078000D01*
X173550000Y-113078000D01*
X173503841Y-113086685D01*
X173461447Y-113113965D01*
X173433006Y-113155590D01*
X173423000Y-113205000D01*
X173423000Y-115503000D01*
X173377000Y-115503000D01*
X173377000Y-112205000D01*
X173368653Y-112163779D01*
X174072857Y-112163779D01*
X174198495Y-112467846D01*
X174430930Y-112700688D01*
X174734778Y-112826856D01*
X175063779Y-112827143D01*
X175367846Y-112701505D01*
X175600688Y-112469070D01*
X175726856Y-112165222D01*
X175727143Y-111836221D01*
X175601505Y-111532154D01*
X175369070Y-111299312D01*
X175065222Y-111173144D01*
X174736221Y-111172857D01*
X174432154Y-111298495D01*
X174199312Y-111530930D01*
X174073144Y-111834778D01*
X174072857Y-112163779D01*
X173368653Y-112163779D01*
X173366994Y-112155590D01*
X173338553Y-112113965D01*
X173296159Y-112086685D01*
X173250000Y-112078000D01*
X168351021Y-112078000D01*
X168300164Y-111954918D01*
X168376856Y-111770222D01*
X168377143Y-111441221D01*
X168300164Y-111254918D01*
X168376856Y-111070222D01*
X168377143Y-110741221D01*
X168251505Y-110437154D01*
X168019070Y-110204312D01*
X167905129Y-110157000D01*
X169632502Y-110157000D01*
X169780930Y-110305688D01*
X170084778Y-110431856D01*
X170413779Y-110432143D01*
X170717846Y-110306505D01*
X170950688Y-110074070D01*
X171076856Y-109770222D01*
X171077143Y-109441221D01*
X170951505Y-109137154D01*
X170719070Y-108904312D01*
X170529562Y-108825622D01*
X170817846Y-108706505D01*
X170967613Y-108557000D01*
X173385795Y-108557000D01*
X173597037Y-108514982D01*
X173776118Y-108395323D01*
X179140323Y-103031118D01*
X179157158Y-103005922D01*
X179259982Y-102852036D01*
X179289140Y-102705445D01*
X179450688Y-102544180D01*
X179576856Y-102240332D01*
X179577046Y-102022598D01*
X179623000Y-102031739D01*
G36*
X165870534Y-107381500D02*
X166049615Y-107501159D01*
X166260857Y-107543177D01*
X169626359Y-107543177D01*
X169640444Y-107557287D01*
X169523144Y-107839778D01*
X169522857Y-108168779D01*
X169648495Y-108472846D01*
X169880930Y-108705688D01*
X170070438Y-108784378D01*
X169782154Y-108903495D01*
X169632387Y-109053000D01*
X166400000Y-109053000D01*
X166188758Y-109095018D01*
X166009677Y-109214677D01*
X165296314Y-109928040D01*
X165086221Y-109927857D01*
X164782154Y-110053495D01*
X164549312Y-110285930D01*
X164423144Y-110589778D01*
X164422857Y-110918779D01*
X164548495Y-111222846D01*
X164780930Y-111455688D01*
X165084778Y-111581856D01*
X165413779Y-111582143D01*
X165717846Y-111456505D01*
X165950688Y-111224070D01*
X166022873Y-111050228D01*
X166022857Y-111068779D01*
X166099836Y-111255082D01*
X166023144Y-111439778D01*
X166022857Y-111768779D01*
X166099836Y-111955082D01*
X166048796Y-112078000D01*
X164377000Y-112078000D01*
X164377000Y-105887966D01*
X165870534Y-107381500D01*
X165870534Y-107381500D01*
G37*
X165870534Y-107381500D02*
X166049615Y-107501159D01*
X166260857Y-107543177D01*
X169626359Y-107543177D01*
X169640444Y-107557287D01*
X169523144Y-107839778D01*
X169522857Y-108168779D01*
X169648495Y-108472846D01*
X169880930Y-108705688D01*
X170070438Y-108784378D01*
X169782154Y-108903495D01*
X169632387Y-109053000D01*
X166400000Y-109053000D01*
X166188758Y-109095018D01*
X166009677Y-109214677D01*
X165296314Y-109928040D01*
X165086221Y-109927857D01*
X164782154Y-110053495D01*
X164549312Y-110285930D01*
X164423144Y-110589778D01*
X164422857Y-110918779D01*
X164548495Y-111222846D01*
X164780930Y-111455688D01*
X165084778Y-111581856D01*
X165413779Y-111582143D01*
X165717846Y-111456505D01*
X165950688Y-111224070D01*
X166022873Y-111050228D01*
X166022857Y-111068779D01*
X166099836Y-111255082D01*
X166023144Y-111439778D01*
X166022857Y-111768779D01*
X166099836Y-111955082D01*
X166048796Y-112078000D01*
X164377000Y-112078000D01*
X164377000Y-105887966D01*
X165870534Y-107381500D01*
G36*
X158968864Y-95692512D02*
X159201299Y-95925354D01*
X159505147Y-96051522D01*
X159834148Y-96051809D01*
X160138215Y-95926171D01*
X160371057Y-95693736D01*
X160398768Y-95627000D01*
X163757781Y-95627000D01*
X163790062Y-95789288D01*
X163909721Y-95968369D01*
X164861676Y-96920324D01*
X164910579Y-96953000D01*
X162250000Y-96953000D01*
X162038759Y-96995018D01*
X161859677Y-97114677D01*
X160808218Y-98166136D01*
X160808361Y-98001641D01*
X160682723Y-97697574D01*
X160450288Y-97464732D01*
X160146440Y-97338564D01*
X159817439Y-97338277D01*
X159513372Y-97463915D01*
X159280530Y-97696350D01*
X159154362Y-98000198D01*
X159154075Y-98329199D01*
X159279713Y-98633266D01*
X159512148Y-98866108D01*
X159748323Y-98964176D01*
X159532154Y-99053495D01*
X159352389Y-99232945D01*
X159177882Y-99160484D01*
X158848881Y-99160197D01*
X158544814Y-99285835D01*
X158311972Y-99518270D01*
X158185804Y-99822118D01*
X158185517Y-100151119D01*
X158311155Y-100455186D01*
X158543590Y-100688028D01*
X158847438Y-100814196D01*
X159176439Y-100814483D01*
X159480506Y-100688845D01*
X159660271Y-100509395D01*
X159834778Y-100581856D01*
X160163779Y-100582143D01*
X160467846Y-100456505D01*
X160700688Y-100224070D01*
X160826856Y-99920222D01*
X160827041Y-99708605D01*
X162478646Y-98057000D01*
X166387653Y-98057000D01*
X165330568Y-99114085D01*
X165120475Y-99113902D01*
X164816408Y-99239540D01*
X164583566Y-99471975D01*
X164457398Y-99775823D01*
X164457111Y-100104824D01*
X164582749Y-100408891D01*
X164815184Y-100641733D01*
X165119032Y-100767901D01*
X165448033Y-100768188D01*
X165752100Y-100642550D01*
X165953079Y-100441922D01*
X166020546Y-100605205D01*
X165923144Y-100839778D01*
X165922857Y-101168779D01*
X165999836Y-101355082D01*
X165923144Y-101539778D01*
X165922857Y-101868779D01*
X165999836Y-102055082D01*
X165923144Y-102239778D01*
X165922857Y-102568779D01*
X165999836Y-102755082D01*
X165923144Y-102939778D01*
X165922857Y-103268779D01*
X166048495Y-103572846D01*
X166280930Y-103805688D01*
X166584778Y-103931856D01*
X166622889Y-103931889D01*
X166622857Y-103968779D01*
X166748495Y-104272846D01*
X166980930Y-104505688D01*
X167284778Y-104631856D01*
X167613779Y-104632143D01*
X167800082Y-104555164D01*
X167984778Y-104631856D01*
X168313779Y-104632143D01*
X168500082Y-104555164D01*
X168684778Y-104631856D01*
X169013779Y-104632143D01*
X169200082Y-104555164D01*
X169384778Y-104631856D01*
X169713779Y-104632143D01*
X169900082Y-104555164D01*
X170084778Y-104631856D01*
X170413779Y-104632143D01*
X170600082Y-104555164D01*
X170784778Y-104631856D01*
X171113779Y-104632143D01*
X171417846Y-104506505D01*
X171650688Y-104274070D01*
X171776856Y-103970222D01*
X171777143Y-103641221D01*
X171700164Y-103454918D01*
X171776856Y-103270222D01*
X171777143Y-102941221D01*
X171700164Y-102754918D01*
X171776856Y-102570222D01*
X171777143Y-102241221D01*
X171700164Y-102054918D01*
X171776856Y-101870222D01*
X171777143Y-101541221D01*
X171700164Y-101354918D01*
X171776856Y-101170222D01*
X171777143Y-100841221D01*
X171651505Y-100537154D01*
X171419070Y-100304312D01*
X171115222Y-100178144D01*
X170786221Y-100177857D01*
X170599918Y-100254836D01*
X170415222Y-100178144D01*
X170086221Y-100177857D01*
X169899918Y-100254836D01*
X169715222Y-100178144D01*
X169386221Y-100177857D01*
X169199918Y-100254836D01*
X169015222Y-100178144D01*
X168686221Y-100177857D01*
X168499918Y-100254836D01*
X168315222Y-100178144D01*
X168277024Y-100178111D01*
X168277143Y-100041221D01*
X168151505Y-99737154D01*
X167919070Y-99504312D01*
X167615222Y-99378144D01*
X167286221Y-99377857D01*
X167099918Y-99454836D01*
X166915222Y-99378144D01*
X166628052Y-99377893D01*
X167498934Y-98507011D01*
X169383529Y-98507011D01*
X169494131Y-98617807D01*
X169797979Y-98743975D01*
X170126980Y-98744262D01*
X170431047Y-98618624D01*
X170663889Y-98386189D01*
X170790057Y-98082341D01*
X170790344Y-97753340D01*
X170750537Y-97657000D01*
X173101353Y-97657000D01*
X175859677Y-100415324D01*
X176038758Y-100534983D01*
X176250000Y-100577001D01*
X178041355Y-100577001D01*
X178712431Y-101248077D01*
X178586221Y-101247967D01*
X178282154Y-101373605D01*
X178049312Y-101606040D01*
X177923144Y-101909888D01*
X177922857Y-102238889D01*
X178048495Y-102542956D01*
X178057836Y-102552313D01*
X173157149Y-107453000D01*
X170967498Y-107453000D01*
X170953413Y-107438890D01*
X171070713Y-107156399D01*
X171071000Y-106827398D01*
X171062572Y-106807000D01*
X171850004Y-106807000D01*
X172061246Y-106764982D01*
X172240327Y-106645323D01*
X175653690Y-103231960D01*
X175863783Y-103232143D01*
X176167850Y-103106505D01*
X176400692Y-102874070D01*
X176526860Y-102570222D01*
X176527147Y-102241221D01*
X176401509Y-101937154D01*
X176169074Y-101704312D01*
X175865226Y-101578144D01*
X175536225Y-101577857D01*
X175232158Y-101703495D01*
X174999316Y-101935930D01*
X174873148Y-102239778D01*
X174872963Y-102451395D01*
X171621358Y-105703000D01*
X166978646Y-105703000D01*
X164360315Y-103084669D01*
X164181234Y-102965010D01*
X164020782Y-102933095D01*
X163862269Y-102774304D01*
X163649978Y-102686153D01*
X162918071Y-101912709D01*
X162876843Y-101883697D01*
X162825826Y-101873000D01*
X154618382Y-101873000D01*
X154612014Y-101857589D01*
X154700688Y-101769070D01*
X154826856Y-101465222D01*
X154827143Y-101136221D01*
X154701505Y-100832154D01*
X154469070Y-100599312D01*
X154165222Y-100473144D01*
X153836221Y-100472857D01*
X153532154Y-100598495D01*
X153299312Y-100830930D01*
X153173144Y-101134778D01*
X153172857Y-101463779D01*
X153287986Y-101742411D01*
X153199312Y-101830930D01*
X153181843Y-101873000D01*
X151999674Y-101873000D01*
X150098959Y-101877874D01*
X149627000Y-101448820D01*
X149627000Y-99918779D01*
X155672857Y-99918779D01*
X155798495Y-100222846D01*
X156030930Y-100455688D01*
X156334778Y-100581856D01*
X156663779Y-100582143D01*
X156967846Y-100456505D01*
X157200688Y-100224070D01*
X157326856Y-99920222D01*
X157327143Y-99591221D01*
X157201505Y-99287154D01*
X156969070Y-99054312D01*
X156665222Y-98928144D01*
X156336221Y-98927857D01*
X156032154Y-99053495D01*
X155799312Y-99285930D01*
X155673144Y-99589778D01*
X155672857Y-99918779D01*
X149627000Y-99918779D01*
X149627000Y-99625746D01*
X150585005Y-99032696D01*
X155497563Y-99126977D01*
X155547156Y-99117921D01*
X155603344Y-99073817D01*
X158065356Y-95627000D01*
X158941795Y-95627000D01*
X158968864Y-95692512D01*
X158968864Y-95692512D01*
G37*
X158968864Y-95692512D02*
X159201299Y-95925354D01*
X159505147Y-96051522D01*
X159834148Y-96051809D01*
X160138215Y-95926171D01*
X160371057Y-95693736D01*
X160398768Y-95627000D01*
X163757781Y-95627000D01*
X163790062Y-95789288D01*
X163909721Y-95968369D01*
X164861676Y-96920324D01*
X164910579Y-96953000D01*
X162250000Y-96953000D01*
X162038759Y-96995018D01*
X161859677Y-97114677D01*
X160808218Y-98166136D01*
X160808361Y-98001641D01*
X160682723Y-97697574D01*
X160450288Y-97464732D01*
X160146440Y-97338564D01*
X159817439Y-97338277D01*
X159513372Y-97463915D01*
X159280530Y-97696350D01*
X159154362Y-98000198D01*
X159154075Y-98329199D01*
X159279713Y-98633266D01*
X159512148Y-98866108D01*
X159748323Y-98964176D01*
X159532154Y-99053495D01*
X159352389Y-99232945D01*
X159177882Y-99160484D01*
X158848881Y-99160197D01*
X158544814Y-99285835D01*
X158311972Y-99518270D01*
X158185804Y-99822118D01*
X158185517Y-100151119D01*
X158311155Y-100455186D01*
X158543590Y-100688028D01*
X158847438Y-100814196D01*
X159176439Y-100814483D01*
X159480506Y-100688845D01*
X159660271Y-100509395D01*
X159834778Y-100581856D01*
X160163779Y-100582143D01*
X160467846Y-100456505D01*
X160700688Y-100224070D01*
X160826856Y-99920222D01*
X160827041Y-99708605D01*
X162478646Y-98057000D01*
X166387653Y-98057000D01*
X165330568Y-99114085D01*
X165120475Y-99113902D01*
X164816408Y-99239540D01*
X164583566Y-99471975D01*
X164457398Y-99775823D01*
X164457111Y-100104824D01*
X164582749Y-100408891D01*
X164815184Y-100641733D01*
X165119032Y-100767901D01*
X165448033Y-100768188D01*
X165752100Y-100642550D01*
X165953079Y-100441922D01*
X166020546Y-100605205D01*
X165923144Y-100839778D01*
X165922857Y-101168779D01*
X165999836Y-101355082D01*
X165923144Y-101539778D01*
X165922857Y-101868779D01*
X165999836Y-102055082D01*
X165923144Y-102239778D01*
X165922857Y-102568779D01*
X165999836Y-102755082D01*
X165923144Y-102939778D01*
X165922857Y-103268779D01*
X166048495Y-103572846D01*
X166280930Y-103805688D01*
X166584778Y-103931856D01*
X166622889Y-103931889D01*
X166622857Y-103968779D01*
X166748495Y-104272846D01*
X166980930Y-104505688D01*
X167284778Y-104631856D01*
X167613779Y-104632143D01*
X167800082Y-104555164D01*
X167984778Y-104631856D01*
X168313779Y-104632143D01*
X168500082Y-104555164D01*
X168684778Y-104631856D01*
X169013779Y-104632143D01*
X169200082Y-104555164D01*
X169384778Y-104631856D01*
X169713779Y-104632143D01*
X169900082Y-104555164D01*
X170084778Y-104631856D01*
X170413779Y-104632143D01*
X170600082Y-104555164D01*
X170784778Y-104631856D01*
X171113779Y-104632143D01*
X171417846Y-104506505D01*
X171650688Y-104274070D01*
X171776856Y-103970222D01*
X171777143Y-103641221D01*
X171700164Y-103454918D01*
X171776856Y-103270222D01*
X171777143Y-102941221D01*
X171700164Y-102754918D01*
X171776856Y-102570222D01*
X171777143Y-102241221D01*
X171700164Y-102054918D01*
X171776856Y-101870222D01*
X171777143Y-101541221D01*
X171700164Y-101354918D01*
X171776856Y-101170222D01*
X171777143Y-100841221D01*
X171651505Y-100537154D01*
X171419070Y-100304312D01*
X171115222Y-100178144D01*
X170786221Y-100177857D01*
X170599918Y-100254836D01*
X170415222Y-100178144D01*
X170086221Y-100177857D01*
X169899918Y-100254836D01*
X169715222Y-100178144D01*
X169386221Y-100177857D01*
X169199918Y-100254836D01*
X169015222Y-100178144D01*
X168686221Y-100177857D01*
X168499918Y-100254836D01*
X168315222Y-100178144D01*
X168277024Y-100178111D01*
X168277143Y-100041221D01*
X168151505Y-99737154D01*
X167919070Y-99504312D01*
X167615222Y-99378144D01*
X167286221Y-99377857D01*
X167099918Y-99454836D01*
X166915222Y-99378144D01*
X166628052Y-99377893D01*
X167498934Y-98507011D01*
X169383529Y-98507011D01*
X169494131Y-98617807D01*
X169797979Y-98743975D01*
X170126980Y-98744262D01*
X170431047Y-98618624D01*
X170663889Y-98386189D01*
X170790057Y-98082341D01*
X170790344Y-97753340D01*
X170750537Y-97657000D01*
X173101353Y-97657000D01*
X175859677Y-100415324D01*
X176038758Y-100534983D01*
X176250000Y-100577001D01*
X178041355Y-100577001D01*
X178712431Y-101248077D01*
X178586221Y-101247967D01*
X178282154Y-101373605D01*
X178049312Y-101606040D01*
X177923144Y-101909888D01*
X177922857Y-102238889D01*
X178048495Y-102542956D01*
X178057836Y-102552313D01*
X173157149Y-107453000D01*
X170967498Y-107453000D01*
X170953413Y-107438890D01*
X171070713Y-107156399D01*
X171071000Y-106827398D01*
X171062572Y-106807000D01*
X171850004Y-106807000D01*
X172061246Y-106764982D01*
X172240327Y-106645323D01*
X175653690Y-103231960D01*
X175863783Y-103232143D01*
X176167850Y-103106505D01*
X176400692Y-102874070D01*
X176526860Y-102570222D01*
X176527147Y-102241221D01*
X176401509Y-101937154D01*
X176169074Y-101704312D01*
X175865226Y-101578144D01*
X175536225Y-101577857D01*
X175232158Y-101703495D01*
X174999316Y-101935930D01*
X174873148Y-102239778D01*
X174872963Y-102451395D01*
X171621358Y-105703000D01*
X166978646Y-105703000D01*
X164360315Y-103084669D01*
X164181234Y-102965010D01*
X164020782Y-102933095D01*
X163862269Y-102774304D01*
X163649978Y-102686153D01*
X162918071Y-101912709D01*
X162876843Y-101883697D01*
X162825826Y-101873000D01*
X154618382Y-101873000D01*
X154612014Y-101857589D01*
X154700688Y-101769070D01*
X154826856Y-101465222D01*
X154827143Y-101136221D01*
X154701505Y-100832154D01*
X154469070Y-100599312D01*
X154165222Y-100473144D01*
X153836221Y-100472857D01*
X153532154Y-100598495D01*
X153299312Y-100830930D01*
X153173144Y-101134778D01*
X153172857Y-101463779D01*
X153287986Y-101742411D01*
X153199312Y-101830930D01*
X153181843Y-101873000D01*
X151999674Y-101873000D01*
X150098959Y-101877874D01*
X149627000Y-101448820D01*
X149627000Y-99918779D01*
X155672857Y-99918779D01*
X155798495Y-100222846D01*
X156030930Y-100455688D01*
X156334778Y-100581856D01*
X156663779Y-100582143D01*
X156967846Y-100456505D01*
X157200688Y-100224070D01*
X157326856Y-99920222D01*
X157327143Y-99591221D01*
X157201505Y-99287154D01*
X156969070Y-99054312D01*
X156665222Y-98928144D01*
X156336221Y-98927857D01*
X156032154Y-99053495D01*
X155799312Y-99285930D01*
X155673144Y-99589778D01*
X155672857Y-99918779D01*
X149627000Y-99918779D01*
X149627000Y-99625746D01*
X150585005Y-99032696D01*
X155497563Y-99126977D01*
X155547156Y-99117921D01*
X155603344Y-99073817D01*
X158065356Y-95627000D01*
X158941795Y-95627000D01*
X158968864Y-95692512D01*
G36*
X179623000Y-99962381D02*
X179549322Y-100035930D01*
X179423154Y-100339778D01*
X179423104Y-100397458D01*
X178640323Y-99614677D01*
X178461242Y-99495018D01*
X178250000Y-99453000D01*
X178149447Y-99473001D01*
X176478646Y-99473001D01*
X174212634Y-97206989D01*
X176544361Y-97206989D01*
X176755603Y-97164971D01*
X176934684Y-97045312D01*
X179623000Y-94356996D01*
X179623000Y-99962381D01*
X179623000Y-99962381D01*
G37*
X179623000Y-99962381D02*
X179549322Y-100035930D01*
X179423154Y-100339778D01*
X179423104Y-100397458D01*
X178640323Y-99614677D01*
X178461242Y-99495018D01*
X178250000Y-99453000D01*
X178149447Y-99473001D01*
X176478646Y-99473001D01*
X174212634Y-97206989D01*
X176544361Y-97206989D01*
X176755603Y-97164971D01*
X176934684Y-97045312D01*
X179623000Y-94356996D01*
X179623000Y-99962381D01*
G36*
X179271487Y-92758105D02*
X179145319Y-93061953D01*
X179145134Y-93273570D01*
X176315715Y-96102989D01*
X172782657Y-96102989D01*
X174553686Y-94331960D01*
X174763779Y-94332143D01*
X175067846Y-94206505D01*
X175300688Y-93974070D01*
X175426856Y-93670222D01*
X175427143Y-93341221D01*
X175301505Y-93037154D01*
X175069070Y-92804312D01*
X174936416Y-92749230D01*
X175093805Y-92591841D01*
X179438042Y-92591841D01*
X179271487Y-92758105D01*
X179271487Y-92758105D01*
G37*
X179271487Y-92758105D02*
X179145319Y-93061953D01*
X179145134Y-93273570D01*
X176315715Y-96102989D01*
X172782657Y-96102989D01*
X174553686Y-94331960D01*
X174763779Y-94332143D01*
X175067846Y-94206505D01*
X175300688Y-93974070D01*
X175426856Y-93670222D01*
X175427143Y-93341221D01*
X175301505Y-93037154D01*
X175069070Y-92804312D01*
X174936416Y-92749230D01*
X175093805Y-92591841D01*
X179438042Y-92591841D01*
X179271487Y-92758105D01*
G36*
X167059677Y-88395323D02*
X167238759Y-88514982D01*
X167450000Y-88557000D01*
X169382502Y-88557000D01*
X169530930Y-88705688D01*
X169834778Y-88831856D01*
X170163779Y-88832143D01*
X170467846Y-88706505D01*
X170700688Y-88474070D01*
X170826856Y-88170222D01*
X170827143Y-87841221D01*
X170701505Y-87537154D01*
X170469070Y-87304312D01*
X170165222Y-87178144D01*
X169836221Y-87177857D01*
X169532154Y-87303495D01*
X169382387Y-87453000D01*
X167678646Y-87453000D01*
X167182646Y-86957000D01*
X179623000Y-86957000D01*
X179623000Y-90178107D01*
X179336221Y-90177857D01*
X179032154Y-90303495D01*
X178799312Y-90535930D01*
X178673144Y-90839778D01*
X178672857Y-91168779D01*
X178798495Y-91472846D01*
X178813464Y-91487841D01*
X174865159Y-91487841D01*
X174653918Y-91529859D01*
X174474836Y-91649518D01*
X170921387Y-95202967D01*
X170813259Y-95202967D01*
X170826856Y-95170222D01*
X170827143Y-94841221D01*
X170701505Y-94537154D01*
X170469070Y-94304312D01*
X170165222Y-94178144D01*
X169836221Y-94177857D01*
X169532154Y-94303495D01*
X169382387Y-94453000D01*
X168010858Y-94453000D01*
X166851871Y-93294013D01*
X166852054Y-93083920D01*
X166726416Y-92779853D01*
X166493981Y-92547011D01*
X166190133Y-92420843D01*
X165861132Y-92420556D01*
X165557065Y-92546194D01*
X165516308Y-92586879D01*
X165494124Y-92564656D01*
X165190276Y-92438488D01*
X164861275Y-92438201D01*
X164852044Y-92442015D01*
X164852044Y-91148255D01*
X164810026Y-90937014D01*
X164810026Y-90937013D01*
X164690367Y-90757932D01*
X164627000Y-90694565D01*
X164627000Y-89987103D01*
X164734778Y-90031856D01*
X165063779Y-90032143D01*
X165367846Y-89906505D01*
X165600688Y-89674070D01*
X165726856Y-89370222D01*
X165727143Y-89041221D01*
X165601505Y-88737154D01*
X165369070Y-88504312D01*
X165065222Y-88378144D01*
X164736221Y-88377857D01*
X164627000Y-88422986D01*
X164627000Y-85962646D01*
X167059677Y-88395323D01*
X167059677Y-88395323D01*
G37*
X167059677Y-88395323D02*
X167238759Y-88514982D01*
X167450000Y-88557000D01*
X169382502Y-88557000D01*
X169530930Y-88705688D01*
X169834778Y-88831856D01*
X170163779Y-88832143D01*
X170467846Y-88706505D01*
X170700688Y-88474070D01*
X170826856Y-88170222D01*
X170827143Y-87841221D01*
X170701505Y-87537154D01*
X170469070Y-87304312D01*
X170165222Y-87178144D01*
X169836221Y-87177857D01*
X169532154Y-87303495D01*
X169382387Y-87453000D01*
X167678646Y-87453000D01*
X167182646Y-86957000D01*
X179623000Y-86957000D01*
X179623000Y-90178107D01*
X179336221Y-90177857D01*
X179032154Y-90303495D01*
X178799312Y-90535930D01*
X178673144Y-90839778D01*
X178672857Y-91168779D01*
X178798495Y-91472846D01*
X178813464Y-91487841D01*
X174865159Y-91487841D01*
X174653918Y-91529859D01*
X174474836Y-91649518D01*
X170921387Y-95202967D01*
X170813259Y-95202967D01*
X170826856Y-95170222D01*
X170827143Y-94841221D01*
X170701505Y-94537154D01*
X170469070Y-94304312D01*
X170165222Y-94178144D01*
X169836221Y-94177857D01*
X169532154Y-94303495D01*
X169382387Y-94453000D01*
X168010858Y-94453000D01*
X166851871Y-93294013D01*
X166852054Y-93083920D01*
X166726416Y-92779853D01*
X166493981Y-92547011D01*
X166190133Y-92420843D01*
X165861132Y-92420556D01*
X165557065Y-92546194D01*
X165516308Y-92586879D01*
X165494124Y-92564656D01*
X165190276Y-92438488D01*
X164861275Y-92438201D01*
X164852044Y-92442015D01*
X164852044Y-91148255D01*
X164810026Y-90937014D01*
X164810026Y-90937013D01*
X164690367Y-90757932D01*
X164627000Y-90694565D01*
X164627000Y-89987103D01*
X164734778Y-90031856D01*
X165063779Y-90032143D01*
X165367846Y-89906505D01*
X165600688Y-89674070D01*
X165726856Y-89370222D01*
X165727143Y-89041221D01*
X165601505Y-88737154D01*
X165369070Y-88504312D01*
X165065222Y-88378144D01*
X164736221Y-88377857D01*
X164627000Y-88422986D01*
X164627000Y-85962646D01*
X167059677Y-88395323D01*
G36*
X176440897Y-83589396D02*
X176440610Y-83918397D01*
X176566248Y-84222464D01*
X176798683Y-84455306D01*
X177102531Y-84581474D01*
X177431532Y-84581761D01*
X177735599Y-84456123D01*
X177968441Y-84223688D01*
X178065195Y-83990678D01*
X178284778Y-84081856D01*
X178613779Y-84082143D01*
X178917846Y-83956505D01*
X179150688Y-83724070D01*
X179206267Y-83590221D01*
X179623000Y-84007682D01*
X179623000Y-85853000D01*
X170761345Y-85853000D01*
X170826856Y-85695232D01*
X170827143Y-85366231D01*
X170823329Y-85357000D01*
X174700000Y-85357000D01*
X174911242Y-85314982D01*
X175090323Y-85195323D01*
X175153686Y-85131960D01*
X175363779Y-85132143D01*
X175667846Y-85006505D01*
X175900688Y-84774070D01*
X176026856Y-84470222D01*
X176027143Y-84141221D01*
X175901505Y-83837154D01*
X175669070Y-83604312D01*
X175365222Y-83478144D01*
X175357509Y-83478137D01*
X175428645Y-83407001D01*
X176516634Y-83407001D01*
X176440897Y-83589396D01*
X176440897Y-83589396D01*
G37*
X176440897Y-83589396D02*
X176440610Y-83918397D01*
X176566248Y-84222464D01*
X176798683Y-84455306D01*
X177102531Y-84581474D01*
X177431532Y-84581761D01*
X177735599Y-84456123D01*
X177968441Y-84223688D01*
X178065195Y-83990678D01*
X178284778Y-84081856D01*
X178613779Y-84082143D01*
X178917846Y-83956505D01*
X179150688Y-83724070D01*
X179206267Y-83590221D01*
X179623000Y-84007682D01*
X179623000Y-85853000D01*
X170761345Y-85853000D01*
X170826856Y-85695232D01*
X170827143Y-85366231D01*
X170823329Y-85357000D01*
X174700000Y-85357000D01*
X174911242Y-85314982D01*
X175090323Y-85195323D01*
X175153686Y-85131960D01*
X175363779Y-85132143D01*
X175667846Y-85006505D01*
X175900688Y-84774070D01*
X176026856Y-84470222D01*
X176027143Y-84141221D01*
X175901505Y-83837154D01*
X175669070Y-83604312D01*
X175365222Y-83478144D01*
X175357509Y-83478137D01*
X175428645Y-83407001D01*
X176516634Y-83407001D01*
X176440897Y-83589396D01*
G36*
X178926972Y-79197787D02*
X178373631Y-80530380D01*
X178372372Y-81973290D01*
X178560294Y-82428096D01*
X178385347Y-82427943D01*
X178261243Y-82345019D01*
X178050001Y-82303001D01*
X175199999Y-82303001D01*
X174988758Y-82345019D01*
X174821474Y-82456795D01*
X174809676Y-82464678D01*
X173521354Y-83753000D01*
X168000960Y-83753000D01*
X168076856Y-83570222D01*
X168077143Y-83241221D01*
X168000164Y-83054918D01*
X168071965Y-82882000D01*
X172000000Y-82882000D01*
X172049410Y-82871994D01*
X172091035Y-82843553D01*
X172118315Y-82801159D01*
X172127000Y-82755000D01*
X172127000Y-82497717D01*
X172150688Y-82474070D01*
X172276856Y-82170222D01*
X172277143Y-81841221D01*
X172200164Y-81654918D01*
X172276856Y-81470222D01*
X172277143Y-81141221D01*
X172200164Y-80954918D01*
X172276856Y-80770222D01*
X172277143Y-80441221D01*
X172200164Y-80254918D01*
X172276856Y-80070222D01*
X172277143Y-79741221D01*
X172200164Y-79554918D01*
X172276856Y-79370222D01*
X172277143Y-79041221D01*
X172151505Y-78737154D01*
X172127000Y-78712606D01*
X172127000Y-78507000D01*
X179618966Y-78507000D01*
X178926972Y-79197787D01*
X178926972Y-79197787D01*
G37*
X178926972Y-79197787D02*
X178373631Y-80530380D01*
X178372372Y-81973290D01*
X178560294Y-82428096D01*
X178385347Y-82427943D01*
X178261243Y-82345019D01*
X178050001Y-82303001D01*
X175199999Y-82303001D01*
X174988758Y-82345019D01*
X174821474Y-82456795D01*
X174809676Y-82464678D01*
X173521354Y-83753000D01*
X168000960Y-83753000D01*
X168076856Y-83570222D01*
X168077143Y-83241221D01*
X168000164Y-83054918D01*
X168071965Y-82882000D01*
X172000000Y-82882000D01*
X172049410Y-82871994D01*
X172091035Y-82843553D01*
X172118315Y-82801159D01*
X172127000Y-82755000D01*
X172127000Y-82497717D01*
X172150688Y-82474070D01*
X172276856Y-82170222D01*
X172277143Y-81841221D01*
X172200164Y-81654918D01*
X172276856Y-81470222D01*
X172277143Y-81141221D01*
X172200164Y-80954918D01*
X172276856Y-80770222D01*
X172277143Y-80441221D01*
X172200164Y-80254918D01*
X172276856Y-80070222D01*
X172277143Y-79741221D01*
X172200164Y-79554918D01*
X172276856Y-79370222D01*
X172277143Y-79041221D01*
X172151505Y-78737154D01*
X172127000Y-78712606D01*
X172127000Y-78507000D01*
X179618966Y-78507000D01*
X178926972Y-79197787D01*
G36*
X146049312Y-78535930D02*
X145923144Y-78839778D01*
X145922857Y-79168779D01*
X146048495Y-79472846D01*
X146280930Y-79705688D01*
X146584778Y-79831856D01*
X146913779Y-79832143D01*
X147217846Y-79706505D01*
X147450688Y-79474070D01*
X147576856Y-79170222D01*
X147577143Y-78841221D01*
X147451505Y-78537154D01*
X147421404Y-78507000D01*
X151078293Y-78507000D01*
X151049312Y-78535930D01*
X150923144Y-78839778D01*
X150922857Y-79168779D01*
X151048495Y-79472846D01*
X151280930Y-79705688D01*
X151584778Y-79831856D01*
X151913779Y-79832143D01*
X152217846Y-79706505D01*
X152450688Y-79474070D01*
X152576856Y-79170222D01*
X152577143Y-78841221D01*
X152451505Y-78537154D01*
X152421404Y-78507000D01*
X156078293Y-78507000D01*
X156049312Y-78535930D01*
X155923144Y-78839778D01*
X155922857Y-79168779D01*
X156048495Y-79472846D01*
X156280930Y-79705688D01*
X156584778Y-79831856D01*
X156913779Y-79832143D01*
X157217846Y-79706505D01*
X157450688Y-79474070D01*
X157576856Y-79170222D01*
X157577143Y-78841221D01*
X157451505Y-78537154D01*
X157421404Y-78507000D01*
X160078293Y-78507000D01*
X160049312Y-78535930D01*
X159923144Y-78839778D01*
X159922857Y-79168779D01*
X160048495Y-79472846D01*
X160280930Y-79705688D01*
X160584778Y-79831856D01*
X160913779Y-79832143D01*
X161217846Y-79706505D01*
X161324982Y-79599556D01*
X161347998Y-79622613D01*
X161347998Y-81354998D01*
X161390016Y-81566240D01*
X161509675Y-81745321D01*
X163373000Y-83608646D01*
X163373000Y-89362194D01*
X163177176Y-89362023D01*
X162873109Y-89487661D01*
X162640267Y-89720096D01*
X162514099Y-90023944D01*
X162513812Y-90352945D01*
X162639450Y-90657012D01*
X162871885Y-90889854D01*
X163175733Y-91016022D01*
X163373000Y-91016194D01*
X163373000Y-94373000D01*
X157500000Y-94373000D01*
X157450590Y-94383006D01*
X157396656Y-94426183D01*
X157204912Y-94694625D01*
X157165222Y-94678144D01*
X156836221Y-94677857D01*
X156532154Y-94803495D01*
X156299312Y-95035930D01*
X156173144Y-95339778D01*
X156172857Y-95668779D01*
X156244209Y-95841465D01*
X156146791Y-95845795D01*
X156167472Y-95795990D01*
X156167759Y-95466989D01*
X156042121Y-95162922D01*
X155809686Y-94930080D01*
X155505838Y-94803912D01*
X155176837Y-94803625D01*
X154872770Y-94929263D01*
X154639928Y-95161698D01*
X154513760Y-95465546D01*
X154513473Y-95794547D01*
X154563720Y-95916154D01*
X154334146Y-95926357D01*
X152575201Y-94815445D01*
X152717846Y-94756505D01*
X152950688Y-94524070D01*
X153076856Y-94220222D01*
X153077143Y-93891221D01*
X152951505Y-93587154D01*
X152719070Y-93354312D01*
X152583882Y-93298177D01*
X152817846Y-93201505D01*
X152875289Y-93144162D01*
X152879577Y-93148458D01*
X153183425Y-93274626D01*
X153512426Y-93274913D01*
X153816493Y-93149275D01*
X153952226Y-93013779D01*
X156397867Y-93013779D01*
X156523505Y-93317846D01*
X156755940Y-93550688D01*
X157059788Y-93676856D01*
X157388789Y-93677143D01*
X157692856Y-93551505D01*
X157925698Y-93319070D01*
X158051866Y-93015222D01*
X158051964Y-92902362D01*
X160847878Y-92902362D01*
X160973516Y-93206429D01*
X161205951Y-93439271D01*
X161509799Y-93565439D01*
X161838800Y-93565726D01*
X162142867Y-93440088D01*
X162375709Y-93207653D01*
X162501877Y-92903805D01*
X162502164Y-92574804D01*
X162376526Y-92270737D01*
X162144091Y-92037895D01*
X161840243Y-91911727D01*
X161511242Y-91911440D01*
X161207175Y-92037078D01*
X160974333Y-92269513D01*
X160848165Y-92573361D01*
X160847878Y-92902362D01*
X158051964Y-92902362D01*
X158052153Y-92686221D01*
X157957506Y-92457158D01*
X157995560Y-92472959D01*
X158324561Y-92473246D01*
X158628628Y-92347608D01*
X158861470Y-92115173D01*
X158987638Y-91811325D01*
X158987925Y-91482324D01*
X158862287Y-91178257D01*
X158629852Y-90945415D01*
X158326004Y-90819247D01*
X158067986Y-90819022D01*
X157951505Y-90537116D01*
X157719070Y-90304274D01*
X157415222Y-90178106D01*
X157086221Y-90177819D01*
X156782154Y-90303457D01*
X156549312Y-90535892D01*
X156423144Y-90839740D01*
X156422857Y-91168741D01*
X156548495Y-91472808D01*
X156780930Y-91705650D01*
X157084778Y-91831818D01*
X157342796Y-91832043D01*
X157428286Y-92038945D01*
X157390232Y-92023144D01*
X157061231Y-92022857D01*
X156757164Y-92148495D01*
X156524322Y-92380930D01*
X156398154Y-92684778D01*
X156397867Y-93013779D01*
X153952226Y-93013779D01*
X154049335Y-92916840D01*
X154175503Y-92612992D01*
X154175790Y-92283991D01*
X154050152Y-91979924D01*
X153817717Y-91747082D01*
X153676879Y-91688601D01*
X153677143Y-91386221D01*
X153551505Y-91082154D01*
X153319070Y-90849312D01*
X153015222Y-90723144D01*
X152686221Y-90722857D01*
X152382154Y-90848495D01*
X152149312Y-91080930D01*
X152023144Y-91384778D01*
X152022857Y-91713779D01*
X152032238Y-91736482D01*
X151882154Y-91798495D01*
X151649312Y-92030930D01*
X151523144Y-92334778D01*
X151522857Y-92663779D01*
X151589419Y-92824872D01*
X151469070Y-92704312D01*
X151165222Y-92578144D01*
X150836221Y-92577857D01*
X150592864Y-92678410D01*
X150419070Y-92504312D01*
X150115222Y-92378144D01*
X149786221Y-92377857D01*
X149482154Y-92503495D01*
X149425105Y-92560445D01*
X149369070Y-92504312D01*
X149065222Y-92378144D01*
X148736221Y-92377857D01*
X148432154Y-92503495D01*
X148350061Y-92585445D01*
X148269070Y-92504312D01*
X147965222Y-92378144D01*
X147636221Y-92377857D01*
X147332154Y-92503495D01*
X147249930Y-92585576D01*
X147019070Y-92354312D01*
X146715222Y-92228144D01*
X146386221Y-92227857D01*
X146082154Y-92353495D01*
X145849312Y-92585930D01*
X145723144Y-92889778D01*
X145722977Y-93081364D01*
X145715222Y-93078144D01*
X145386221Y-93077857D01*
X145082154Y-93203495D01*
X144849312Y-93435930D01*
X144723144Y-93739778D01*
X144722857Y-94068779D01*
X144848495Y-94372846D01*
X144952945Y-94477479D01*
X144849312Y-94580930D01*
X144723144Y-94884778D01*
X144722857Y-95213779D01*
X144848495Y-95517846D01*
X145030445Y-95700114D01*
X144849312Y-95880930D01*
X144723144Y-96184778D01*
X144722857Y-96513779D01*
X144848495Y-96817846D01*
X144882988Y-96852400D01*
X144799312Y-96935930D01*
X144673144Y-97239778D01*
X144672857Y-97568779D01*
X144798495Y-97872846D01*
X145030930Y-98105688D01*
X145173118Y-98164729D01*
X145172857Y-98463779D01*
X145298495Y-98767846D01*
X145530930Y-99000688D01*
X145834778Y-99126856D01*
X146163779Y-99127143D01*
X146467846Y-99001505D01*
X146700688Y-98769070D01*
X146779996Y-98578075D01*
X146798495Y-98622846D01*
X147030930Y-98855688D01*
X147334778Y-98981856D01*
X147663779Y-98982143D01*
X147967846Y-98856505D01*
X148125027Y-98699599D01*
X148230930Y-98805688D01*
X148534778Y-98931856D01*
X148860723Y-98932140D01*
X148512529Y-99262925D01*
X148483598Y-99304210D01*
X148473000Y-99355000D01*
X148473000Y-102105000D01*
X148483006Y-102154410D01*
X148517349Y-102201426D01*
X149567349Y-103101426D01*
X149611376Y-103125984D01*
X149650270Y-103132000D01*
X152000270Y-103127000D01*
X153899852Y-103127000D01*
X154063779Y-103127143D01*
X154064125Y-103127000D01*
X154098980Y-103127000D01*
X154198495Y-103367846D01*
X154430930Y-103600688D01*
X154734778Y-103726856D01*
X155063779Y-103727143D01*
X155367846Y-103601505D01*
X155600688Y-103369070D01*
X155700919Y-103127686D01*
X162640304Y-103131651D01*
X162566343Y-103309770D01*
X162566056Y-103638771D01*
X162624159Y-103779391D01*
X162608130Y-103786014D01*
X162375288Y-104018449D01*
X162249120Y-104322297D01*
X162248833Y-104651298D01*
X162374471Y-104955365D01*
X162606906Y-105188207D01*
X162910754Y-105314375D01*
X163123000Y-105314560D01*
X163123000Y-115503000D01*
X162921707Y-115503000D01*
X162950688Y-115474070D01*
X163076856Y-115170222D01*
X163077143Y-114841221D01*
X162951505Y-114537154D01*
X162719070Y-114304312D01*
X162415222Y-114178144D01*
X162086221Y-114177857D01*
X161782154Y-114303495D01*
X161549312Y-114535930D01*
X161423144Y-114839778D01*
X161422857Y-115168779D01*
X161548495Y-115472846D01*
X161578596Y-115503000D01*
X157921707Y-115503000D01*
X157950688Y-115474070D01*
X158076856Y-115170222D01*
X158077143Y-114841221D01*
X157951505Y-114537154D01*
X157719070Y-114304312D01*
X157415222Y-114178144D01*
X157086221Y-114177857D01*
X156782154Y-114303495D01*
X156549312Y-114535930D01*
X156423144Y-114839778D01*
X156422857Y-115168779D01*
X156548495Y-115472846D01*
X156578596Y-115503000D01*
X152921707Y-115503000D01*
X152950688Y-115474070D01*
X153076856Y-115170222D01*
X153077143Y-114841221D01*
X152951505Y-114537154D01*
X152719070Y-114304312D01*
X152415222Y-114178144D01*
X152086221Y-114177857D01*
X151782154Y-114303495D01*
X151549312Y-114535930D01*
X151423144Y-114839778D01*
X151422857Y-115168779D01*
X151548495Y-115472846D01*
X151578596Y-115503000D01*
X147921707Y-115503000D01*
X147950688Y-115474070D01*
X148076856Y-115170222D01*
X148077143Y-114841221D01*
X147951505Y-114537154D01*
X147719070Y-114304312D01*
X147415222Y-114178144D01*
X147086221Y-114177857D01*
X146782154Y-114303495D01*
X146549312Y-114535930D01*
X146423144Y-114839778D01*
X146422857Y-115168779D01*
X146548495Y-115472846D01*
X146578596Y-115503000D01*
X142921707Y-115503000D01*
X142950688Y-115474070D01*
X143076856Y-115170222D01*
X143077143Y-114841221D01*
X142951505Y-114537154D01*
X142719070Y-114304312D01*
X142415222Y-114178144D01*
X142086221Y-114177857D01*
X141784704Y-114302442D01*
X142126369Y-113479620D01*
X142127628Y-112036710D01*
X141703401Y-111010000D01*
X146134635Y-111010000D01*
X146134635Y-112510000D01*
X146164409Y-112668237D01*
X146257927Y-112813567D01*
X146400619Y-112911064D01*
X146570000Y-112945365D01*
X148070000Y-112945365D01*
X148228237Y-112915591D01*
X148373567Y-112822073D01*
X148471064Y-112679381D01*
X148505365Y-112510000D01*
X148505365Y-111993093D01*
X148682796Y-111993093D01*
X148861606Y-112425846D01*
X149192412Y-112757230D01*
X149624853Y-112936795D01*
X150093093Y-112937204D01*
X150525846Y-112758394D01*
X150857230Y-112427588D01*
X151036795Y-111995147D01*
X151036796Y-111993093D01*
X151222796Y-111993093D01*
X151401606Y-112425846D01*
X151732412Y-112757230D01*
X152164853Y-112936795D01*
X152633093Y-112937204D01*
X153065846Y-112758394D01*
X153397230Y-112427588D01*
X153576795Y-111995147D01*
X153576796Y-111993093D01*
X153762796Y-111993093D01*
X153941606Y-112425846D01*
X154272412Y-112757230D01*
X154704853Y-112936795D01*
X155173093Y-112937204D01*
X155605846Y-112758394D01*
X155937230Y-112427588D01*
X156116795Y-111995147D01*
X156116796Y-111993093D01*
X156302796Y-111993093D01*
X156481606Y-112425846D01*
X156812412Y-112757230D01*
X157244853Y-112936795D01*
X157713093Y-112937204D01*
X158145846Y-112758394D01*
X158477230Y-112427588D01*
X158493223Y-112389072D01*
X158548495Y-112522840D01*
X158780930Y-112755682D01*
X159084778Y-112881850D01*
X159413779Y-112882137D01*
X159717846Y-112756499D01*
X159950688Y-112524064D01*
X160076856Y-112220216D01*
X160077143Y-111891215D01*
X159951505Y-111587148D01*
X159719070Y-111354306D01*
X159415222Y-111228138D01*
X159086221Y-111227851D01*
X158782154Y-111353489D01*
X158642962Y-111492438D01*
X158478394Y-111094154D01*
X158147588Y-110762770D01*
X157715147Y-110583205D01*
X157246907Y-110582796D01*
X156814154Y-110761606D01*
X156482770Y-111092412D01*
X156303205Y-111524853D01*
X156302796Y-111993093D01*
X156116796Y-111993093D01*
X156117204Y-111526907D01*
X155938394Y-111094154D01*
X155607588Y-110762770D01*
X155175147Y-110583205D01*
X154706907Y-110582796D01*
X154274154Y-110761606D01*
X153942770Y-111092412D01*
X153763205Y-111524853D01*
X153762796Y-111993093D01*
X153576796Y-111993093D01*
X153577204Y-111526907D01*
X153398394Y-111094154D01*
X153067588Y-110762770D01*
X152635147Y-110583205D01*
X152166907Y-110582796D01*
X151734154Y-110761606D01*
X151402770Y-111092412D01*
X151223205Y-111524853D01*
X151222796Y-111993093D01*
X151036796Y-111993093D01*
X151037204Y-111526907D01*
X150858394Y-111094154D01*
X150527588Y-110762770D01*
X150095147Y-110583205D01*
X149626907Y-110582796D01*
X149194154Y-110761606D01*
X148862770Y-111092412D01*
X148683205Y-111524853D01*
X148682796Y-111993093D01*
X148505365Y-111993093D01*
X148505365Y-111010000D01*
X148475591Y-110851763D01*
X148382073Y-110706433D01*
X148239381Y-110608936D01*
X148070000Y-110574635D01*
X146570000Y-110574635D01*
X146411763Y-110604409D01*
X146266433Y-110697927D01*
X146168936Y-110840619D01*
X146134635Y-111010000D01*
X141703401Y-111010000D01*
X141576614Y-110703154D01*
X140557213Y-109681972D01*
X139911333Y-109413779D01*
X146922857Y-109413779D01*
X147048495Y-109717846D01*
X147280930Y-109950688D01*
X147584778Y-110076856D01*
X147913779Y-110077143D01*
X148217846Y-109951505D01*
X148450688Y-109719070D01*
X148576856Y-109415222D01*
X148577143Y-109086221D01*
X148574069Y-109078779D01*
X151357857Y-109078779D01*
X151483495Y-109382846D01*
X151715930Y-109615688D01*
X152019778Y-109741856D01*
X152348779Y-109742143D01*
X152652846Y-109616505D01*
X152885688Y-109384070D01*
X153011856Y-109080222D01*
X153012143Y-108751221D01*
X152886505Y-108447154D01*
X152654070Y-108214312D01*
X152350222Y-108088144D01*
X152021221Y-108087857D01*
X151717154Y-108213495D01*
X151484312Y-108445930D01*
X151358144Y-108749778D01*
X151357857Y-109078779D01*
X148574069Y-109078779D01*
X148451505Y-108782154D01*
X148219070Y-108549312D01*
X147915222Y-108423144D01*
X147586221Y-108422857D01*
X147282154Y-108548495D01*
X147049312Y-108780930D01*
X146923144Y-109084778D01*
X146922857Y-109413779D01*
X139911333Y-109413779D01*
X139224620Y-109128631D01*
X137781710Y-109127372D01*
X137077076Y-109418521D01*
X137077143Y-109341221D01*
X136951505Y-109037154D01*
X136719070Y-108804312D01*
X136415222Y-108678144D01*
X136086221Y-108677857D01*
X135782154Y-108803495D01*
X135752000Y-108833596D01*
X135752000Y-107413779D01*
X151672857Y-107413779D01*
X151798495Y-107717846D01*
X152030930Y-107950688D01*
X152334778Y-108076856D01*
X152663779Y-108077143D01*
X152967846Y-107951505D01*
X153200688Y-107719070D01*
X153249966Y-107600396D01*
X153298495Y-107717846D01*
X153530930Y-107950688D01*
X153834778Y-108076856D01*
X154163779Y-108077143D01*
X154467846Y-107951505D01*
X154700688Y-107719070D01*
X154710610Y-107695175D01*
X159566780Y-107695175D01*
X159692418Y-107999242D01*
X159924853Y-108232084D01*
X160228701Y-108358252D01*
X160557702Y-108358539D01*
X160861769Y-108232901D01*
X161072225Y-108022813D01*
X161229845Y-108180709D01*
X161533693Y-108306877D01*
X161862694Y-108307164D01*
X162166761Y-108181526D01*
X162399603Y-107949091D01*
X162525771Y-107645243D01*
X162526058Y-107316242D01*
X162400420Y-107012175D01*
X162167985Y-106779333D01*
X161864137Y-106653165D01*
X161535136Y-106652878D01*
X161231069Y-106778516D01*
X161020613Y-106988604D01*
X160862993Y-106830708D01*
X160559145Y-106704540D01*
X160230144Y-106704253D01*
X159926077Y-106829891D01*
X159693235Y-107062326D01*
X159567067Y-107366174D01*
X159566780Y-107695175D01*
X154710610Y-107695175D01*
X154826856Y-107415222D01*
X154827143Y-107086221D01*
X154701505Y-106782154D01*
X154469070Y-106549312D01*
X154165222Y-106423144D01*
X153836221Y-106422857D01*
X153532154Y-106548495D01*
X153299312Y-106780930D01*
X153250034Y-106899604D01*
X153201505Y-106782154D01*
X152969070Y-106549312D01*
X152665222Y-106423144D01*
X152336221Y-106422857D01*
X152032154Y-106548495D01*
X151799312Y-106780930D01*
X151673144Y-107084778D01*
X151672857Y-107413779D01*
X135752000Y-107413779D01*
X135752000Y-106663779D01*
X146672857Y-106663779D01*
X146798495Y-106967846D01*
X147030930Y-107200688D01*
X147334778Y-107326856D01*
X147663779Y-107327143D01*
X147967846Y-107201505D01*
X148200688Y-106969070D01*
X148326856Y-106665222D01*
X148327143Y-106336221D01*
X148201505Y-106032154D01*
X148038416Y-105868779D01*
X158872857Y-105868779D01*
X158998495Y-106172846D01*
X159230930Y-106405688D01*
X159534778Y-106531856D01*
X159863779Y-106532143D01*
X160167846Y-106406505D01*
X160252527Y-106321972D01*
X160430930Y-106500688D01*
X160734778Y-106626856D01*
X161063779Y-106627143D01*
X161367846Y-106501505D01*
X161600688Y-106269070D01*
X161726856Y-105965222D01*
X161727143Y-105636221D01*
X161601505Y-105332154D01*
X161369070Y-105099312D01*
X161065222Y-104973144D01*
X160736221Y-104972857D01*
X160432154Y-105098495D01*
X160347473Y-105183028D01*
X160169070Y-105004312D01*
X159865222Y-104878144D01*
X159536221Y-104877857D01*
X159232154Y-105003495D01*
X158999312Y-105235930D01*
X158873144Y-105539778D01*
X158872857Y-105868779D01*
X148038416Y-105868779D01*
X147969070Y-105799312D01*
X147665222Y-105673144D01*
X147336221Y-105672857D01*
X147032154Y-105798495D01*
X146799312Y-106030930D01*
X146673144Y-106334778D01*
X146672857Y-106663779D01*
X135752000Y-106663779D01*
X135752000Y-105176707D01*
X135780930Y-105205688D01*
X136084778Y-105331856D01*
X136413779Y-105332143D01*
X136717846Y-105206505D01*
X136950688Y-104974070D01*
X137076856Y-104670222D01*
X137077143Y-104341221D01*
X137005892Y-104168779D01*
X151922857Y-104168779D01*
X152048495Y-104472846D01*
X152280930Y-104705688D01*
X152584778Y-104831856D01*
X152913779Y-104832143D01*
X153217846Y-104706505D01*
X153450688Y-104474070D01*
X153576856Y-104170222D01*
X153577143Y-103841221D01*
X153451505Y-103537154D01*
X153219070Y-103304312D01*
X152915222Y-103178144D01*
X152586221Y-103177857D01*
X152282154Y-103303495D01*
X152049312Y-103535930D01*
X151923144Y-103839778D01*
X151922857Y-104168779D01*
X137005892Y-104168779D01*
X136951505Y-104037154D01*
X136719070Y-103804312D01*
X136415222Y-103678144D01*
X136086221Y-103677857D01*
X135782154Y-103803495D01*
X135752000Y-103833596D01*
X135752000Y-100418767D01*
X145672857Y-100418767D01*
X145798495Y-100722834D01*
X146030930Y-100955676D01*
X146277568Y-101058089D01*
X146049312Y-101285946D01*
X145923144Y-101589794D01*
X145922857Y-101918795D01*
X146048495Y-102222862D01*
X146280930Y-102455704D01*
X146584778Y-102581872D01*
X146913779Y-102582159D01*
X147217846Y-102456521D01*
X147450688Y-102224086D01*
X147576856Y-101920238D01*
X147577143Y-101591237D01*
X147451505Y-101287170D01*
X147219070Y-101054328D01*
X146972432Y-100951915D01*
X147200688Y-100724058D01*
X147326856Y-100420210D01*
X147327143Y-100091209D01*
X147201505Y-99787142D01*
X146969070Y-99554300D01*
X146665222Y-99428132D01*
X146336221Y-99427845D01*
X146032154Y-99553483D01*
X145799312Y-99785918D01*
X145673144Y-100089766D01*
X145672857Y-100418767D01*
X135752000Y-100418767D01*
X135752000Y-100176707D01*
X135780930Y-100205688D01*
X136084778Y-100331856D01*
X136413779Y-100332143D01*
X136717846Y-100206505D01*
X136950688Y-99974070D01*
X137076856Y-99670222D01*
X137077143Y-99341221D01*
X136964573Y-99068779D01*
X143622857Y-99068779D01*
X143748495Y-99372846D01*
X143980930Y-99605688D01*
X144284778Y-99731856D01*
X144613779Y-99732143D01*
X144917846Y-99606505D01*
X145150688Y-99374070D01*
X145276856Y-99070222D01*
X145277143Y-98741221D01*
X145151505Y-98437154D01*
X144919070Y-98204312D01*
X144615222Y-98078144D01*
X144286221Y-98077857D01*
X143982154Y-98203495D01*
X143749312Y-98435930D01*
X143623144Y-98739778D01*
X143622857Y-99068779D01*
X136964573Y-99068779D01*
X136951505Y-99037154D01*
X136719070Y-98804312D01*
X136415222Y-98678144D01*
X136086221Y-98677857D01*
X135782154Y-98803495D01*
X135752000Y-98833596D01*
X135752000Y-95176707D01*
X135780930Y-95205688D01*
X136084778Y-95331856D01*
X136413779Y-95332143D01*
X136717846Y-95206505D01*
X136950688Y-94974070D01*
X137076856Y-94670222D01*
X137077143Y-94341221D01*
X136951505Y-94037154D01*
X136719070Y-93804312D01*
X136415222Y-93678144D01*
X136086221Y-93677857D01*
X135782154Y-93803495D01*
X135752000Y-93833596D01*
X135752000Y-90176707D01*
X135780930Y-90205688D01*
X136084778Y-90331856D01*
X136413779Y-90332143D01*
X136717846Y-90206505D01*
X136950688Y-89974070D01*
X137076856Y-89670222D01*
X137077143Y-89341221D01*
X136951505Y-89037154D01*
X136719070Y-88804312D01*
X136415222Y-88678144D01*
X136086221Y-88677857D01*
X135782154Y-88803495D01*
X135752000Y-88833596D01*
X135752000Y-88063779D01*
X145772857Y-88063779D01*
X145898495Y-88367846D01*
X146130930Y-88600688D01*
X146434778Y-88726856D01*
X146763779Y-88727143D01*
X147067846Y-88601505D01*
X147300688Y-88369070D01*
X147426856Y-88065222D01*
X147426857Y-88063779D01*
X149772857Y-88063779D01*
X149898495Y-88367846D01*
X150130930Y-88600688D01*
X150434778Y-88726856D01*
X150763779Y-88727143D01*
X151067846Y-88601505D01*
X151300688Y-88369070D01*
X151426856Y-88065222D01*
X151427098Y-87787530D01*
X156447665Y-87787530D01*
X156573303Y-88091597D01*
X156630973Y-88149368D01*
X156574312Y-88205930D01*
X156448144Y-88509778D01*
X156447857Y-88838779D01*
X156573495Y-89142846D01*
X156805930Y-89375688D01*
X157109778Y-89501856D01*
X157438779Y-89502143D01*
X157742846Y-89376505D01*
X157975688Y-89144070D01*
X158101856Y-88840222D01*
X158102143Y-88511221D01*
X157976505Y-88207154D01*
X157918835Y-88149383D01*
X157975496Y-88092821D01*
X158101664Y-87788973D01*
X158101951Y-87459972D01*
X157994544Y-87200028D01*
X158100688Y-87094070D01*
X158226856Y-86790222D01*
X158227143Y-86461221D01*
X158101505Y-86157154D01*
X157869070Y-85924312D01*
X157565222Y-85798144D01*
X157236221Y-85797857D01*
X156932154Y-85923495D01*
X156699312Y-86155930D01*
X156573144Y-86459778D01*
X156572857Y-86788779D01*
X156680264Y-87048723D01*
X156574120Y-87154681D01*
X156447952Y-87458529D01*
X156447665Y-87787530D01*
X151427098Y-87787530D01*
X151427143Y-87736221D01*
X151301505Y-87432154D01*
X151069070Y-87199312D01*
X150765222Y-87073144D01*
X150436221Y-87072857D01*
X150132154Y-87198495D01*
X149899312Y-87430930D01*
X149773144Y-87734778D01*
X149772857Y-88063779D01*
X147426857Y-88063779D01*
X147427143Y-87736221D01*
X147301505Y-87432154D01*
X147069070Y-87199312D01*
X146765222Y-87073144D01*
X146436221Y-87072857D01*
X146132154Y-87198495D01*
X145899312Y-87430930D01*
X145773144Y-87734778D01*
X145772857Y-88063779D01*
X135752000Y-88063779D01*
X135752000Y-85176707D01*
X135780930Y-85205688D01*
X136084778Y-85331856D01*
X136413779Y-85332143D01*
X136717846Y-85206505D01*
X136950688Y-84974070D01*
X137076856Y-84670222D01*
X137076925Y-84591345D01*
X137775380Y-84881369D01*
X139218290Y-84882628D01*
X140551846Y-84331614D01*
X141573028Y-83312213D01*
X141673603Y-83070000D01*
X143594635Y-83070000D01*
X143594635Y-84570000D01*
X143624409Y-84728237D01*
X143717927Y-84873567D01*
X143860619Y-84971064D01*
X144030000Y-85005365D01*
X145530000Y-85005365D01*
X145688237Y-84975591D01*
X145833567Y-84882073D01*
X145931064Y-84739381D01*
X145965365Y-84570000D01*
X145965365Y-84053093D01*
X146142796Y-84053093D01*
X146321606Y-84485846D01*
X146652412Y-84817230D01*
X147084853Y-84996795D01*
X147553093Y-84997204D01*
X147985846Y-84818394D01*
X148317230Y-84487588D01*
X148496795Y-84055147D01*
X148496796Y-84053093D01*
X148682796Y-84053093D01*
X148861606Y-84485846D01*
X149192412Y-84817230D01*
X149624853Y-84996795D01*
X150093093Y-84997204D01*
X150525846Y-84818394D01*
X150666830Y-84677655D01*
X151721950Y-84677655D01*
X151801329Y-84860065D01*
X152244916Y-85009996D01*
X152712113Y-84978761D01*
X152998671Y-84860065D01*
X153078050Y-84677655D01*
X152400000Y-83999605D01*
X151721950Y-84677655D01*
X150666830Y-84677655D01*
X150857230Y-84487588D01*
X151036795Y-84055147D01*
X151037135Y-83664916D01*
X151210004Y-83664916D01*
X151241239Y-84132113D01*
X151359935Y-84418671D01*
X151542345Y-84498050D01*
X152220395Y-83820000D01*
X152579605Y-83820000D01*
X153257655Y-84498050D01*
X153440065Y-84418671D01*
X153563629Y-84053093D01*
X153762796Y-84053093D01*
X153941606Y-84485846D01*
X154272412Y-84817230D01*
X154704853Y-84996795D01*
X155173093Y-84997204D01*
X155605846Y-84818394D01*
X155937230Y-84487588D01*
X156116795Y-84055147D01*
X156117204Y-83586907D01*
X155938394Y-83154154D01*
X155607588Y-82822770D01*
X155175147Y-82643205D01*
X154706907Y-82642796D01*
X154274154Y-82821606D01*
X153942770Y-83152412D01*
X153763205Y-83584853D01*
X153762796Y-84053093D01*
X153563629Y-84053093D01*
X153589996Y-83975084D01*
X153558761Y-83507887D01*
X153440065Y-83221329D01*
X153257655Y-83141950D01*
X152579605Y-83820000D01*
X152220395Y-83820000D01*
X151542345Y-83141950D01*
X151359935Y-83221329D01*
X151210004Y-83664916D01*
X151037135Y-83664916D01*
X151037204Y-83586907D01*
X150858394Y-83154154D01*
X150666920Y-82962345D01*
X151721950Y-82962345D01*
X152400000Y-83640395D01*
X153078050Y-82962345D01*
X152998671Y-82779935D01*
X152555084Y-82630004D01*
X152087887Y-82661239D01*
X151801329Y-82779935D01*
X151721950Y-82962345D01*
X150666920Y-82962345D01*
X150527588Y-82822770D01*
X150095147Y-82643205D01*
X149626907Y-82642796D01*
X149194154Y-82821606D01*
X148862770Y-83152412D01*
X148683205Y-83584853D01*
X148682796Y-84053093D01*
X148496796Y-84053093D01*
X148497204Y-83586907D01*
X148318394Y-83154154D01*
X147987588Y-82822770D01*
X147555147Y-82643205D01*
X147086907Y-82642796D01*
X146654154Y-82821606D01*
X146322770Y-83152412D01*
X146143205Y-83584853D01*
X146142796Y-84053093D01*
X145965365Y-84053093D01*
X145965365Y-83070000D01*
X145935591Y-82911763D01*
X145842073Y-82766433D01*
X145699381Y-82668936D01*
X145530000Y-82634635D01*
X144030000Y-82634635D01*
X143871763Y-82664409D01*
X143726433Y-82757927D01*
X143628936Y-82900619D01*
X143594635Y-83070000D01*
X141673603Y-83070000D01*
X142126369Y-81979620D01*
X142126775Y-81513750D01*
X143603000Y-81513750D01*
X143603000Y-82114936D01*
X143668007Y-82271876D01*
X143788124Y-82391993D01*
X143945065Y-82457000D01*
X144546250Y-82457000D01*
X144653000Y-82350250D01*
X144653000Y-81407000D01*
X144907000Y-81407000D01*
X144907000Y-82350250D01*
X145013750Y-82457000D01*
X145614935Y-82457000D01*
X145771876Y-82391993D01*
X145891993Y-82271876D01*
X145957000Y-82114936D01*
X145957000Y-81513750D01*
X145956343Y-81513093D01*
X146142796Y-81513093D01*
X146321606Y-81945846D01*
X146652412Y-82277230D01*
X147084853Y-82456795D01*
X147553093Y-82457204D01*
X147985846Y-82278394D01*
X148317230Y-81947588D01*
X148496795Y-81515147D01*
X148496796Y-81513093D01*
X148682796Y-81513093D01*
X148861606Y-81945846D01*
X149192412Y-82277230D01*
X149624853Y-82456795D01*
X150093093Y-82457204D01*
X150525846Y-82278394D01*
X150857230Y-81947588D01*
X151036795Y-81515147D01*
X151036796Y-81513093D01*
X151222796Y-81513093D01*
X151401606Y-81945846D01*
X151732412Y-82277230D01*
X152164853Y-82456795D01*
X152633093Y-82457204D01*
X153065846Y-82278394D01*
X153397230Y-81947588D01*
X153576795Y-81515147D01*
X153576796Y-81513093D01*
X153762796Y-81513093D01*
X153941606Y-81945846D01*
X154272412Y-82277230D01*
X154704853Y-82456795D01*
X155173093Y-82457204D01*
X155605846Y-82278394D01*
X155937230Y-81947588D01*
X156116795Y-81515147D01*
X156116796Y-81513093D01*
X156302796Y-81513093D01*
X156481606Y-81945846D01*
X156812412Y-82277230D01*
X156894335Y-82311248D01*
X156699312Y-82505930D01*
X156573144Y-82809778D01*
X156572857Y-83138779D01*
X156698495Y-83442846D01*
X156930930Y-83675688D01*
X157234778Y-83801856D01*
X157563779Y-83802143D01*
X157867846Y-83676505D01*
X158100688Y-83444070D01*
X158131951Y-83368779D01*
X159172857Y-83368779D01*
X159298495Y-83672846D01*
X159530930Y-83905688D01*
X159834778Y-84031856D01*
X160163779Y-84032143D01*
X160467846Y-83906505D01*
X160700688Y-83674070D01*
X160826856Y-83370222D01*
X160827143Y-83041221D01*
X160701505Y-82737154D01*
X160469070Y-82504312D01*
X160165222Y-82378144D01*
X159836221Y-82377857D01*
X159532154Y-82503495D01*
X159299312Y-82735930D01*
X159173144Y-83039778D01*
X159172857Y-83368779D01*
X158131951Y-83368779D01*
X158226856Y-83140222D01*
X158227143Y-82811221D01*
X158101505Y-82507154D01*
X157952779Y-82358168D01*
X158145846Y-82278394D01*
X158477230Y-81947588D01*
X158656795Y-81515147D01*
X158657204Y-81046907D01*
X158478394Y-80614154D01*
X158147588Y-80282770D01*
X157715147Y-80103205D01*
X157246907Y-80102796D01*
X156814154Y-80281606D01*
X156482770Y-80612412D01*
X156303205Y-81044853D01*
X156302796Y-81513093D01*
X156116796Y-81513093D01*
X156117204Y-81046907D01*
X155938394Y-80614154D01*
X155607588Y-80282770D01*
X155175147Y-80103205D01*
X154706907Y-80102796D01*
X154274154Y-80281606D01*
X153942770Y-80612412D01*
X153763205Y-81044853D01*
X153762796Y-81513093D01*
X153576796Y-81513093D01*
X153577204Y-81046907D01*
X153398394Y-80614154D01*
X153067588Y-80282770D01*
X152635147Y-80103205D01*
X152166907Y-80102796D01*
X151734154Y-80281606D01*
X151402770Y-80612412D01*
X151223205Y-81044853D01*
X151222796Y-81513093D01*
X151036796Y-81513093D01*
X151037204Y-81046907D01*
X150858394Y-80614154D01*
X150527588Y-80282770D01*
X150095147Y-80103205D01*
X149626907Y-80102796D01*
X149194154Y-80281606D01*
X148862770Y-80612412D01*
X148683205Y-81044853D01*
X148682796Y-81513093D01*
X148496796Y-81513093D01*
X148497204Y-81046907D01*
X148318394Y-80614154D01*
X147987588Y-80282770D01*
X147555147Y-80103205D01*
X147086907Y-80102796D01*
X146654154Y-80281606D01*
X146322770Y-80612412D01*
X146143205Y-81044853D01*
X146142796Y-81513093D01*
X145956343Y-81513093D01*
X145850250Y-81407000D01*
X144907000Y-81407000D01*
X144653000Y-81407000D01*
X143709750Y-81407000D01*
X143603000Y-81513750D01*
X142126775Y-81513750D01*
X142127628Y-80536710D01*
X142089761Y-80445064D01*
X143603000Y-80445064D01*
X143603000Y-81046250D01*
X143709750Y-81153000D01*
X144653000Y-81153000D01*
X144653000Y-80209750D01*
X144907000Y-80209750D01*
X144907000Y-81153000D01*
X145850250Y-81153000D01*
X145957000Y-81046250D01*
X145957000Y-80445064D01*
X145891993Y-80288124D01*
X145771876Y-80168007D01*
X145614935Y-80103000D01*
X145013750Y-80103000D01*
X144907000Y-80209750D01*
X144653000Y-80209750D01*
X144546250Y-80103000D01*
X143945065Y-80103000D01*
X143788124Y-80168007D01*
X143668007Y-80288124D01*
X143603000Y-80445064D01*
X142089761Y-80445064D01*
X141836479Y-79832076D01*
X141913779Y-79832143D01*
X142217846Y-79706505D01*
X142450688Y-79474070D01*
X142576856Y-79170222D01*
X142577143Y-78841221D01*
X142451505Y-78537154D01*
X142421404Y-78507000D01*
X146078293Y-78507000D01*
X146049312Y-78535930D01*
X146049312Y-78535930D01*
G37*
X146049312Y-78535930D02*
X145923144Y-78839778D01*
X145922857Y-79168779D01*
X146048495Y-79472846D01*
X146280930Y-79705688D01*
X146584778Y-79831856D01*
X146913779Y-79832143D01*
X147217846Y-79706505D01*
X147450688Y-79474070D01*
X147576856Y-79170222D01*
X147577143Y-78841221D01*
X147451505Y-78537154D01*
X147421404Y-78507000D01*
X151078293Y-78507000D01*
X151049312Y-78535930D01*
X150923144Y-78839778D01*
X150922857Y-79168779D01*
X151048495Y-79472846D01*
X151280930Y-79705688D01*
X151584778Y-79831856D01*
X151913779Y-79832143D01*
X152217846Y-79706505D01*
X152450688Y-79474070D01*
X152576856Y-79170222D01*
X152577143Y-78841221D01*
X152451505Y-78537154D01*
X152421404Y-78507000D01*
X156078293Y-78507000D01*
X156049312Y-78535930D01*
X155923144Y-78839778D01*
X155922857Y-79168779D01*
X156048495Y-79472846D01*
X156280930Y-79705688D01*
X156584778Y-79831856D01*
X156913779Y-79832143D01*
X157217846Y-79706505D01*
X157450688Y-79474070D01*
X157576856Y-79170222D01*
X157577143Y-78841221D01*
X157451505Y-78537154D01*
X157421404Y-78507000D01*
X160078293Y-78507000D01*
X160049312Y-78535930D01*
X159923144Y-78839778D01*
X159922857Y-79168779D01*
X160048495Y-79472846D01*
X160280930Y-79705688D01*
X160584778Y-79831856D01*
X160913779Y-79832143D01*
X161217846Y-79706505D01*
X161324982Y-79599556D01*
X161347998Y-79622613D01*
X161347998Y-81354998D01*
X161390016Y-81566240D01*
X161509675Y-81745321D01*
X163373000Y-83608646D01*
X163373000Y-89362194D01*
X163177176Y-89362023D01*
X162873109Y-89487661D01*
X162640267Y-89720096D01*
X162514099Y-90023944D01*
X162513812Y-90352945D01*
X162639450Y-90657012D01*
X162871885Y-90889854D01*
X163175733Y-91016022D01*
X163373000Y-91016194D01*
X163373000Y-94373000D01*
X157500000Y-94373000D01*
X157450590Y-94383006D01*
X157396656Y-94426183D01*
X157204912Y-94694625D01*
X157165222Y-94678144D01*
X156836221Y-94677857D01*
X156532154Y-94803495D01*
X156299312Y-95035930D01*
X156173144Y-95339778D01*
X156172857Y-95668779D01*
X156244209Y-95841465D01*
X156146791Y-95845795D01*
X156167472Y-95795990D01*
X156167759Y-95466989D01*
X156042121Y-95162922D01*
X155809686Y-94930080D01*
X155505838Y-94803912D01*
X155176837Y-94803625D01*
X154872770Y-94929263D01*
X154639928Y-95161698D01*
X154513760Y-95465546D01*
X154513473Y-95794547D01*
X154563720Y-95916154D01*
X154334146Y-95926357D01*
X152575201Y-94815445D01*
X152717846Y-94756505D01*
X152950688Y-94524070D01*
X153076856Y-94220222D01*
X153077143Y-93891221D01*
X152951505Y-93587154D01*
X152719070Y-93354312D01*
X152583882Y-93298177D01*
X152817846Y-93201505D01*
X152875289Y-93144162D01*
X152879577Y-93148458D01*
X153183425Y-93274626D01*
X153512426Y-93274913D01*
X153816493Y-93149275D01*
X153952226Y-93013779D01*
X156397867Y-93013779D01*
X156523505Y-93317846D01*
X156755940Y-93550688D01*
X157059788Y-93676856D01*
X157388789Y-93677143D01*
X157692856Y-93551505D01*
X157925698Y-93319070D01*
X158051866Y-93015222D01*
X158051964Y-92902362D01*
X160847878Y-92902362D01*
X160973516Y-93206429D01*
X161205951Y-93439271D01*
X161509799Y-93565439D01*
X161838800Y-93565726D01*
X162142867Y-93440088D01*
X162375709Y-93207653D01*
X162501877Y-92903805D01*
X162502164Y-92574804D01*
X162376526Y-92270737D01*
X162144091Y-92037895D01*
X161840243Y-91911727D01*
X161511242Y-91911440D01*
X161207175Y-92037078D01*
X160974333Y-92269513D01*
X160848165Y-92573361D01*
X160847878Y-92902362D01*
X158051964Y-92902362D01*
X158052153Y-92686221D01*
X157957506Y-92457158D01*
X157995560Y-92472959D01*
X158324561Y-92473246D01*
X158628628Y-92347608D01*
X158861470Y-92115173D01*
X158987638Y-91811325D01*
X158987925Y-91482324D01*
X158862287Y-91178257D01*
X158629852Y-90945415D01*
X158326004Y-90819247D01*
X158067986Y-90819022D01*
X157951505Y-90537116D01*
X157719070Y-90304274D01*
X157415222Y-90178106D01*
X157086221Y-90177819D01*
X156782154Y-90303457D01*
X156549312Y-90535892D01*
X156423144Y-90839740D01*
X156422857Y-91168741D01*
X156548495Y-91472808D01*
X156780930Y-91705650D01*
X157084778Y-91831818D01*
X157342796Y-91832043D01*
X157428286Y-92038945D01*
X157390232Y-92023144D01*
X157061231Y-92022857D01*
X156757164Y-92148495D01*
X156524322Y-92380930D01*
X156398154Y-92684778D01*
X156397867Y-93013779D01*
X153952226Y-93013779D01*
X154049335Y-92916840D01*
X154175503Y-92612992D01*
X154175790Y-92283991D01*
X154050152Y-91979924D01*
X153817717Y-91747082D01*
X153676879Y-91688601D01*
X153677143Y-91386221D01*
X153551505Y-91082154D01*
X153319070Y-90849312D01*
X153015222Y-90723144D01*
X152686221Y-90722857D01*
X152382154Y-90848495D01*
X152149312Y-91080930D01*
X152023144Y-91384778D01*
X152022857Y-91713779D01*
X152032238Y-91736482D01*
X151882154Y-91798495D01*
X151649312Y-92030930D01*
X151523144Y-92334778D01*
X151522857Y-92663779D01*
X151589419Y-92824872D01*
X151469070Y-92704312D01*
X151165222Y-92578144D01*
X150836221Y-92577857D01*
X150592864Y-92678410D01*
X150419070Y-92504312D01*
X150115222Y-92378144D01*
X149786221Y-92377857D01*
X149482154Y-92503495D01*
X149425105Y-92560445D01*
X149369070Y-92504312D01*
X149065222Y-92378144D01*
X148736221Y-92377857D01*
X148432154Y-92503495D01*
X148350061Y-92585445D01*
X148269070Y-92504312D01*
X147965222Y-92378144D01*
X147636221Y-92377857D01*
X147332154Y-92503495D01*
X147249930Y-92585576D01*
X147019070Y-92354312D01*
X146715222Y-92228144D01*
X146386221Y-92227857D01*
X146082154Y-92353495D01*
X145849312Y-92585930D01*
X145723144Y-92889778D01*
X145722977Y-93081364D01*
X145715222Y-93078144D01*
X145386221Y-93077857D01*
X145082154Y-93203495D01*
X144849312Y-93435930D01*
X144723144Y-93739778D01*
X144722857Y-94068779D01*
X144848495Y-94372846D01*
X144952945Y-94477479D01*
X144849312Y-94580930D01*
X144723144Y-94884778D01*
X144722857Y-95213779D01*
X144848495Y-95517846D01*
X145030445Y-95700114D01*
X144849312Y-95880930D01*
X144723144Y-96184778D01*
X144722857Y-96513779D01*
X144848495Y-96817846D01*
X144882988Y-96852400D01*
X144799312Y-96935930D01*
X144673144Y-97239778D01*
X144672857Y-97568779D01*
X144798495Y-97872846D01*
X145030930Y-98105688D01*
X145173118Y-98164729D01*
X145172857Y-98463779D01*
X145298495Y-98767846D01*
X145530930Y-99000688D01*
X145834778Y-99126856D01*
X146163779Y-99127143D01*
X146467846Y-99001505D01*
X146700688Y-98769070D01*
X146779996Y-98578075D01*
X146798495Y-98622846D01*
X147030930Y-98855688D01*
X147334778Y-98981856D01*
X147663779Y-98982143D01*
X147967846Y-98856505D01*
X148125027Y-98699599D01*
X148230930Y-98805688D01*
X148534778Y-98931856D01*
X148860723Y-98932140D01*
X148512529Y-99262925D01*
X148483598Y-99304210D01*
X148473000Y-99355000D01*
X148473000Y-102105000D01*
X148483006Y-102154410D01*
X148517349Y-102201426D01*
X149567349Y-103101426D01*
X149611376Y-103125984D01*
X149650270Y-103132000D01*
X152000270Y-103127000D01*
X153899852Y-103127000D01*
X154063779Y-103127143D01*
X154064125Y-103127000D01*
X154098980Y-103127000D01*
X154198495Y-103367846D01*
X154430930Y-103600688D01*
X154734778Y-103726856D01*
X155063779Y-103727143D01*
X155367846Y-103601505D01*
X155600688Y-103369070D01*
X155700919Y-103127686D01*
X162640304Y-103131651D01*
X162566343Y-103309770D01*
X162566056Y-103638771D01*
X162624159Y-103779391D01*
X162608130Y-103786014D01*
X162375288Y-104018449D01*
X162249120Y-104322297D01*
X162248833Y-104651298D01*
X162374471Y-104955365D01*
X162606906Y-105188207D01*
X162910754Y-105314375D01*
X163123000Y-105314560D01*
X163123000Y-115503000D01*
X162921707Y-115503000D01*
X162950688Y-115474070D01*
X163076856Y-115170222D01*
X163077143Y-114841221D01*
X162951505Y-114537154D01*
X162719070Y-114304312D01*
X162415222Y-114178144D01*
X162086221Y-114177857D01*
X161782154Y-114303495D01*
X161549312Y-114535930D01*
X161423144Y-114839778D01*
X161422857Y-115168779D01*
X161548495Y-115472846D01*
X161578596Y-115503000D01*
X157921707Y-115503000D01*
X157950688Y-115474070D01*
X158076856Y-115170222D01*
X158077143Y-114841221D01*
X157951505Y-114537154D01*
X157719070Y-114304312D01*
X157415222Y-114178144D01*
X157086221Y-114177857D01*
X156782154Y-114303495D01*
X156549312Y-114535930D01*
X156423144Y-114839778D01*
X156422857Y-115168779D01*
X156548495Y-115472846D01*
X156578596Y-115503000D01*
X152921707Y-115503000D01*
X152950688Y-115474070D01*
X153076856Y-115170222D01*
X153077143Y-114841221D01*
X152951505Y-114537154D01*
X152719070Y-114304312D01*
X152415222Y-114178144D01*
X152086221Y-114177857D01*
X151782154Y-114303495D01*
X151549312Y-114535930D01*
X151423144Y-114839778D01*
X151422857Y-115168779D01*
X151548495Y-115472846D01*
X151578596Y-115503000D01*
X147921707Y-115503000D01*
X147950688Y-115474070D01*
X148076856Y-115170222D01*
X148077143Y-114841221D01*
X147951505Y-114537154D01*
X147719070Y-114304312D01*
X147415222Y-114178144D01*
X147086221Y-114177857D01*
X146782154Y-114303495D01*
X146549312Y-114535930D01*
X146423144Y-114839778D01*
X146422857Y-115168779D01*
X146548495Y-115472846D01*
X146578596Y-115503000D01*
X142921707Y-115503000D01*
X142950688Y-115474070D01*
X143076856Y-115170222D01*
X143077143Y-114841221D01*
X142951505Y-114537154D01*
X142719070Y-114304312D01*
X142415222Y-114178144D01*
X142086221Y-114177857D01*
X141784704Y-114302442D01*
X142126369Y-113479620D01*
X142127628Y-112036710D01*
X141703401Y-111010000D01*
X146134635Y-111010000D01*
X146134635Y-112510000D01*
X146164409Y-112668237D01*
X146257927Y-112813567D01*
X146400619Y-112911064D01*
X146570000Y-112945365D01*
X148070000Y-112945365D01*
X148228237Y-112915591D01*
X148373567Y-112822073D01*
X148471064Y-112679381D01*
X148505365Y-112510000D01*
X148505365Y-111993093D01*
X148682796Y-111993093D01*
X148861606Y-112425846D01*
X149192412Y-112757230D01*
X149624853Y-112936795D01*
X150093093Y-112937204D01*
X150525846Y-112758394D01*
X150857230Y-112427588D01*
X151036795Y-111995147D01*
X151036796Y-111993093D01*
X151222796Y-111993093D01*
X151401606Y-112425846D01*
X151732412Y-112757230D01*
X152164853Y-112936795D01*
X152633093Y-112937204D01*
X153065846Y-112758394D01*
X153397230Y-112427588D01*
X153576795Y-111995147D01*
X153576796Y-111993093D01*
X153762796Y-111993093D01*
X153941606Y-112425846D01*
X154272412Y-112757230D01*
X154704853Y-112936795D01*
X155173093Y-112937204D01*
X155605846Y-112758394D01*
X155937230Y-112427588D01*
X156116795Y-111995147D01*
X156116796Y-111993093D01*
X156302796Y-111993093D01*
X156481606Y-112425846D01*
X156812412Y-112757230D01*
X157244853Y-112936795D01*
X157713093Y-112937204D01*
X158145846Y-112758394D01*
X158477230Y-112427588D01*
X158493223Y-112389072D01*
X158548495Y-112522840D01*
X158780930Y-112755682D01*
X159084778Y-112881850D01*
X159413779Y-112882137D01*
X159717846Y-112756499D01*
X159950688Y-112524064D01*
X160076856Y-112220216D01*
X160077143Y-111891215D01*
X159951505Y-111587148D01*
X159719070Y-111354306D01*
X159415222Y-111228138D01*
X159086221Y-111227851D01*
X158782154Y-111353489D01*
X158642962Y-111492438D01*
X158478394Y-111094154D01*
X158147588Y-110762770D01*
X157715147Y-110583205D01*
X157246907Y-110582796D01*
X156814154Y-110761606D01*
X156482770Y-111092412D01*
X156303205Y-111524853D01*
X156302796Y-111993093D01*
X156116796Y-111993093D01*
X156117204Y-111526907D01*
X155938394Y-111094154D01*
X155607588Y-110762770D01*
X155175147Y-110583205D01*
X154706907Y-110582796D01*
X154274154Y-110761606D01*
X153942770Y-111092412D01*
X153763205Y-111524853D01*
X153762796Y-111993093D01*
X153576796Y-111993093D01*
X153577204Y-111526907D01*
X153398394Y-111094154D01*
X153067588Y-110762770D01*
X152635147Y-110583205D01*
X152166907Y-110582796D01*
X151734154Y-110761606D01*
X151402770Y-111092412D01*
X151223205Y-111524853D01*
X151222796Y-111993093D01*
X151036796Y-111993093D01*
X151037204Y-111526907D01*
X150858394Y-111094154D01*
X150527588Y-110762770D01*
X150095147Y-110583205D01*
X149626907Y-110582796D01*
X149194154Y-110761606D01*
X148862770Y-111092412D01*
X148683205Y-111524853D01*
X148682796Y-111993093D01*
X148505365Y-111993093D01*
X148505365Y-111010000D01*
X148475591Y-110851763D01*
X148382073Y-110706433D01*
X148239381Y-110608936D01*
X148070000Y-110574635D01*
X146570000Y-110574635D01*
X146411763Y-110604409D01*
X146266433Y-110697927D01*
X146168936Y-110840619D01*
X146134635Y-111010000D01*
X141703401Y-111010000D01*
X141576614Y-110703154D01*
X140557213Y-109681972D01*
X139911333Y-109413779D01*
X146922857Y-109413779D01*
X147048495Y-109717846D01*
X147280930Y-109950688D01*
X147584778Y-110076856D01*
X147913779Y-110077143D01*
X148217846Y-109951505D01*
X148450688Y-109719070D01*
X148576856Y-109415222D01*
X148577143Y-109086221D01*
X148574069Y-109078779D01*
X151357857Y-109078779D01*
X151483495Y-109382846D01*
X151715930Y-109615688D01*
X152019778Y-109741856D01*
X152348779Y-109742143D01*
X152652846Y-109616505D01*
X152885688Y-109384070D01*
X153011856Y-109080222D01*
X153012143Y-108751221D01*
X152886505Y-108447154D01*
X152654070Y-108214312D01*
X152350222Y-108088144D01*
X152021221Y-108087857D01*
X151717154Y-108213495D01*
X151484312Y-108445930D01*
X151358144Y-108749778D01*
X151357857Y-109078779D01*
X148574069Y-109078779D01*
X148451505Y-108782154D01*
X148219070Y-108549312D01*
X147915222Y-108423144D01*
X147586221Y-108422857D01*
X147282154Y-108548495D01*
X147049312Y-108780930D01*
X146923144Y-109084778D01*
X146922857Y-109413779D01*
X139911333Y-109413779D01*
X139224620Y-109128631D01*
X137781710Y-109127372D01*
X137077076Y-109418521D01*
X137077143Y-109341221D01*
X136951505Y-109037154D01*
X136719070Y-108804312D01*
X136415222Y-108678144D01*
X136086221Y-108677857D01*
X135782154Y-108803495D01*
X135752000Y-108833596D01*
X135752000Y-107413779D01*
X151672857Y-107413779D01*
X151798495Y-107717846D01*
X152030930Y-107950688D01*
X152334778Y-108076856D01*
X152663779Y-108077143D01*
X152967846Y-107951505D01*
X153200688Y-107719070D01*
X153249966Y-107600396D01*
X153298495Y-107717846D01*
X153530930Y-107950688D01*
X153834778Y-108076856D01*
X154163779Y-108077143D01*
X154467846Y-107951505D01*
X154700688Y-107719070D01*
X154710610Y-107695175D01*
X159566780Y-107695175D01*
X159692418Y-107999242D01*
X159924853Y-108232084D01*
X160228701Y-108358252D01*
X160557702Y-108358539D01*
X160861769Y-108232901D01*
X161072225Y-108022813D01*
X161229845Y-108180709D01*
X161533693Y-108306877D01*
X161862694Y-108307164D01*
X162166761Y-108181526D01*
X162399603Y-107949091D01*
X162525771Y-107645243D01*
X162526058Y-107316242D01*
X162400420Y-107012175D01*
X162167985Y-106779333D01*
X161864137Y-106653165D01*
X161535136Y-106652878D01*
X161231069Y-106778516D01*
X161020613Y-106988604D01*
X160862993Y-106830708D01*
X160559145Y-106704540D01*
X160230144Y-106704253D01*
X159926077Y-106829891D01*
X159693235Y-107062326D01*
X159567067Y-107366174D01*
X159566780Y-107695175D01*
X154710610Y-107695175D01*
X154826856Y-107415222D01*
X154827143Y-107086221D01*
X154701505Y-106782154D01*
X154469070Y-106549312D01*
X154165222Y-106423144D01*
X153836221Y-106422857D01*
X153532154Y-106548495D01*
X153299312Y-106780930D01*
X153250034Y-106899604D01*
X153201505Y-106782154D01*
X152969070Y-106549312D01*
X152665222Y-106423144D01*
X152336221Y-106422857D01*
X152032154Y-106548495D01*
X151799312Y-106780930D01*
X151673144Y-107084778D01*
X151672857Y-107413779D01*
X135752000Y-107413779D01*
X135752000Y-106663779D01*
X146672857Y-106663779D01*
X146798495Y-106967846D01*
X147030930Y-107200688D01*
X147334778Y-107326856D01*
X147663779Y-107327143D01*
X147967846Y-107201505D01*
X148200688Y-106969070D01*
X148326856Y-106665222D01*
X148327143Y-106336221D01*
X148201505Y-106032154D01*
X148038416Y-105868779D01*
X158872857Y-105868779D01*
X158998495Y-106172846D01*
X159230930Y-106405688D01*
X159534778Y-106531856D01*
X159863779Y-106532143D01*
X160167846Y-106406505D01*
X160252527Y-106321972D01*
X160430930Y-106500688D01*
X160734778Y-106626856D01*
X161063779Y-106627143D01*
X161367846Y-106501505D01*
X161600688Y-106269070D01*
X161726856Y-105965222D01*
X161727143Y-105636221D01*
X161601505Y-105332154D01*
X161369070Y-105099312D01*
X161065222Y-104973144D01*
X160736221Y-104972857D01*
X160432154Y-105098495D01*
X160347473Y-105183028D01*
X160169070Y-105004312D01*
X159865222Y-104878144D01*
X159536221Y-104877857D01*
X159232154Y-105003495D01*
X158999312Y-105235930D01*
X158873144Y-105539778D01*
X158872857Y-105868779D01*
X148038416Y-105868779D01*
X147969070Y-105799312D01*
X147665222Y-105673144D01*
X147336221Y-105672857D01*
X147032154Y-105798495D01*
X146799312Y-106030930D01*
X146673144Y-106334778D01*
X146672857Y-106663779D01*
X135752000Y-106663779D01*
X135752000Y-105176707D01*
X135780930Y-105205688D01*
X136084778Y-105331856D01*
X136413779Y-105332143D01*
X136717846Y-105206505D01*
X136950688Y-104974070D01*
X137076856Y-104670222D01*
X137077143Y-104341221D01*
X137005892Y-104168779D01*
X151922857Y-104168779D01*
X152048495Y-104472846D01*
X152280930Y-104705688D01*
X152584778Y-104831856D01*
X152913779Y-104832143D01*
X153217846Y-104706505D01*
X153450688Y-104474070D01*
X153576856Y-104170222D01*
X153577143Y-103841221D01*
X153451505Y-103537154D01*
X153219070Y-103304312D01*
X152915222Y-103178144D01*
X152586221Y-103177857D01*
X152282154Y-103303495D01*
X152049312Y-103535930D01*
X151923144Y-103839778D01*
X151922857Y-104168779D01*
X137005892Y-104168779D01*
X136951505Y-104037154D01*
X136719070Y-103804312D01*
X136415222Y-103678144D01*
X136086221Y-103677857D01*
X135782154Y-103803495D01*
X135752000Y-103833596D01*
X135752000Y-100418767D01*
X145672857Y-100418767D01*
X145798495Y-100722834D01*
X146030930Y-100955676D01*
X146277568Y-101058089D01*
X146049312Y-101285946D01*
X145923144Y-101589794D01*
X145922857Y-101918795D01*
X146048495Y-102222862D01*
X146280930Y-102455704D01*
X146584778Y-102581872D01*
X146913779Y-102582159D01*
X147217846Y-102456521D01*
X147450688Y-102224086D01*
X147576856Y-101920238D01*
X147577143Y-101591237D01*
X147451505Y-101287170D01*
X147219070Y-101054328D01*
X146972432Y-100951915D01*
X147200688Y-100724058D01*
X147326856Y-100420210D01*
X147327143Y-100091209D01*
X147201505Y-99787142D01*
X146969070Y-99554300D01*
X146665222Y-99428132D01*
X146336221Y-99427845D01*
X146032154Y-99553483D01*
X145799312Y-99785918D01*
X145673144Y-100089766D01*
X145672857Y-100418767D01*
X135752000Y-100418767D01*
X135752000Y-100176707D01*
X135780930Y-100205688D01*
X136084778Y-100331856D01*
X136413779Y-100332143D01*
X136717846Y-100206505D01*
X136950688Y-99974070D01*
X137076856Y-99670222D01*
X137077143Y-99341221D01*
X136964573Y-99068779D01*
X143622857Y-99068779D01*
X143748495Y-99372846D01*
X143980930Y-99605688D01*
X144284778Y-99731856D01*
X144613779Y-99732143D01*
X144917846Y-99606505D01*
X145150688Y-99374070D01*
X145276856Y-99070222D01*
X145277143Y-98741221D01*
X145151505Y-98437154D01*
X144919070Y-98204312D01*
X144615222Y-98078144D01*
X144286221Y-98077857D01*
X143982154Y-98203495D01*
X143749312Y-98435930D01*
X143623144Y-98739778D01*
X143622857Y-99068779D01*
X136964573Y-99068779D01*
X136951505Y-99037154D01*
X136719070Y-98804312D01*
X136415222Y-98678144D01*
X136086221Y-98677857D01*
X135782154Y-98803495D01*
X135752000Y-98833596D01*
X135752000Y-95176707D01*
X135780930Y-95205688D01*
X136084778Y-95331856D01*
X136413779Y-95332143D01*
X136717846Y-95206505D01*
X136950688Y-94974070D01*
X137076856Y-94670222D01*
X137077143Y-94341221D01*
X136951505Y-94037154D01*
X136719070Y-93804312D01*
X136415222Y-93678144D01*
X136086221Y-93677857D01*
X135782154Y-93803495D01*
X135752000Y-93833596D01*
X135752000Y-90176707D01*
X135780930Y-90205688D01*
X136084778Y-90331856D01*
X136413779Y-90332143D01*
X136717846Y-90206505D01*
X136950688Y-89974070D01*
X137076856Y-89670222D01*
X137077143Y-89341221D01*
X136951505Y-89037154D01*
X136719070Y-88804312D01*
X136415222Y-88678144D01*
X136086221Y-88677857D01*
X135782154Y-88803495D01*
X135752000Y-88833596D01*
X135752000Y-88063779D01*
X145772857Y-88063779D01*
X145898495Y-88367846D01*
X146130930Y-88600688D01*
X146434778Y-88726856D01*
X146763779Y-88727143D01*
X147067846Y-88601505D01*
X147300688Y-88369070D01*
X147426856Y-88065222D01*
X147426857Y-88063779D01*
X149772857Y-88063779D01*
X149898495Y-88367846D01*
X150130930Y-88600688D01*
X150434778Y-88726856D01*
X150763779Y-88727143D01*
X151067846Y-88601505D01*
X151300688Y-88369070D01*
X151426856Y-88065222D01*
X151427098Y-87787530D01*
X156447665Y-87787530D01*
X156573303Y-88091597D01*
X156630973Y-88149368D01*
X156574312Y-88205930D01*
X156448144Y-88509778D01*
X156447857Y-88838779D01*
X156573495Y-89142846D01*
X156805930Y-89375688D01*
X157109778Y-89501856D01*
X157438779Y-89502143D01*
X157742846Y-89376505D01*
X157975688Y-89144070D01*
X158101856Y-88840222D01*
X158102143Y-88511221D01*
X157976505Y-88207154D01*
X157918835Y-88149383D01*
X157975496Y-88092821D01*
X158101664Y-87788973D01*
X158101951Y-87459972D01*
X157994544Y-87200028D01*
X158100688Y-87094070D01*
X158226856Y-86790222D01*
X158227143Y-86461221D01*
X158101505Y-86157154D01*
X157869070Y-85924312D01*
X157565222Y-85798144D01*
X157236221Y-85797857D01*
X156932154Y-85923495D01*
X156699312Y-86155930D01*
X156573144Y-86459778D01*
X156572857Y-86788779D01*
X156680264Y-87048723D01*
X156574120Y-87154681D01*
X156447952Y-87458529D01*
X156447665Y-87787530D01*
X151427098Y-87787530D01*
X151427143Y-87736221D01*
X151301505Y-87432154D01*
X151069070Y-87199312D01*
X150765222Y-87073144D01*
X150436221Y-87072857D01*
X150132154Y-87198495D01*
X149899312Y-87430930D01*
X149773144Y-87734778D01*
X149772857Y-88063779D01*
X147426857Y-88063779D01*
X147427143Y-87736221D01*
X147301505Y-87432154D01*
X147069070Y-87199312D01*
X146765222Y-87073144D01*
X146436221Y-87072857D01*
X146132154Y-87198495D01*
X145899312Y-87430930D01*
X145773144Y-87734778D01*
X145772857Y-88063779D01*
X135752000Y-88063779D01*
X135752000Y-85176707D01*
X135780930Y-85205688D01*
X136084778Y-85331856D01*
X136413779Y-85332143D01*
X136717846Y-85206505D01*
X136950688Y-84974070D01*
X137076856Y-84670222D01*
X137076925Y-84591345D01*
X137775380Y-84881369D01*
X139218290Y-84882628D01*
X140551846Y-84331614D01*
X141573028Y-83312213D01*
X141673603Y-83070000D01*
X143594635Y-83070000D01*
X143594635Y-84570000D01*
X143624409Y-84728237D01*
X143717927Y-84873567D01*
X143860619Y-84971064D01*
X144030000Y-85005365D01*
X145530000Y-85005365D01*
X145688237Y-84975591D01*
X145833567Y-84882073D01*
X145931064Y-84739381D01*
X145965365Y-84570000D01*
X145965365Y-84053093D01*
X146142796Y-84053093D01*
X146321606Y-84485846D01*
X146652412Y-84817230D01*
X147084853Y-84996795D01*
X147553093Y-84997204D01*
X147985846Y-84818394D01*
X148317230Y-84487588D01*
X148496795Y-84055147D01*
X148496796Y-84053093D01*
X148682796Y-84053093D01*
X148861606Y-84485846D01*
X149192412Y-84817230D01*
X149624853Y-84996795D01*
X150093093Y-84997204D01*
X150525846Y-84818394D01*
X150666830Y-84677655D01*
X151721950Y-84677655D01*
X151801329Y-84860065D01*
X152244916Y-85009996D01*
X152712113Y-84978761D01*
X152998671Y-84860065D01*
X153078050Y-84677655D01*
X152400000Y-83999605D01*
X151721950Y-84677655D01*
X150666830Y-84677655D01*
X150857230Y-84487588D01*
X151036795Y-84055147D01*
X151037135Y-83664916D01*
X151210004Y-83664916D01*
X151241239Y-84132113D01*
X151359935Y-84418671D01*
X151542345Y-84498050D01*
X152220395Y-83820000D01*
X152579605Y-83820000D01*
X153257655Y-84498050D01*
X153440065Y-84418671D01*
X153563629Y-84053093D01*
X153762796Y-84053093D01*
X153941606Y-84485846D01*
X154272412Y-84817230D01*
X154704853Y-84996795D01*
X155173093Y-84997204D01*
X155605846Y-84818394D01*
X155937230Y-84487588D01*
X156116795Y-84055147D01*
X156117204Y-83586907D01*
X155938394Y-83154154D01*
X155607588Y-82822770D01*
X155175147Y-82643205D01*
X154706907Y-82642796D01*
X154274154Y-82821606D01*
X153942770Y-83152412D01*
X153763205Y-83584853D01*
X153762796Y-84053093D01*
X153563629Y-84053093D01*
X153589996Y-83975084D01*
X153558761Y-83507887D01*
X153440065Y-83221329D01*
X153257655Y-83141950D01*
X152579605Y-83820000D01*
X152220395Y-83820000D01*
X151542345Y-83141950D01*
X151359935Y-83221329D01*
X151210004Y-83664916D01*
X151037135Y-83664916D01*
X151037204Y-83586907D01*
X150858394Y-83154154D01*
X150666920Y-82962345D01*
X151721950Y-82962345D01*
X152400000Y-83640395D01*
X153078050Y-82962345D01*
X152998671Y-82779935D01*
X152555084Y-82630004D01*
X152087887Y-82661239D01*
X151801329Y-82779935D01*
X151721950Y-82962345D01*
X150666920Y-82962345D01*
X150527588Y-82822770D01*
X150095147Y-82643205D01*
X149626907Y-82642796D01*
X149194154Y-82821606D01*
X148862770Y-83152412D01*
X148683205Y-83584853D01*
X148682796Y-84053093D01*
X148496796Y-84053093D01*
X148497204Y-83586907D01*
X148318394Y-83154154D01*
X147987588Y-82822770D01*
X147555147Y-82643205D01*
X147086907Y-82642796D01*
X146654154Y-82821606D01*
X146322770Y-83152412D01*
X146143205Y-83584853D01*
X146142796Y-84053093D01*
X145965365Y-84053093D01*
X145965365Y-83070000D01*
X145935591Y-82911763D01*
X145842073Y-82766433D01*
X145699381Y-82668936D01*
X145530000Y-82634635D01*
X144030000Y-82634635D01*
X143871763Y-82664409D01*
X143726433Y-82757927D01*
X143628936Y-82900619D01*
X143594635Y-83070000D01*
X141673603Y-83070000D01*
X142126369Y-81979620D01*
X142126775Y-81513750D01*
X143603000Y-81513750D01*
X143603000Y-82114936D01*
X143668007Y-82271876D01*
X143788124Y-82391993D01*
X143945065Y-82457000D01*
X144546250Y-82457000D01*
X144653000Y-82350250D01*
X144653000Y-81407000D01*
X144907000Y-81407000D01*
X144907000Y-82350250D01*
X145013750Y-82457000D01*
X145614935Y-82457000D01*
X145771876Y-82391993D01*
X145891993Y-82271876D01*
X145957000Y-82114936D01*
X145957000Y-81513750D01*
X145956343Y-81513093D01*
X146142796Y-81513093D01*
X146321606Y-81945846D01*
X146652412Y-82277230D01*
X147084853Y-82456795D01*
X147553093Y-82457204D01*
X147985846Y-82278394D01*
X148317230Y-81947588D01*
X148496795Y-81515147D01*
X148496796Y-81513093D01*
X148682796Y-81513093D01*
X148861606Y-81945846D01*
X149192412Y-82277230D01*
X149624853Y-82456795D01*
X150093093Y-82457204D01*
X150525846Y-82278394D01*
X150857230Y-81947588D01*
X151036795Y-81515147D01*
X151036796Y-81513093D01*
X151222796Y-81513093D01*
X151401606Y-81945846D01*
X151732412Y-82277230D01*
X152164853Y-82456795D01*
X152633093Y-82457204D01*
X153065846Y-82278394D01*
X153397230Y-81947588D01*
X153576795Y-81515147D01*
X153576796Y-81513093D01*
X153762796Y-81513093D01*
X153941606Y-81945846D01*
X154272412Y-82277230D01*
X154704853Y-82456795D01*
X155173093Y-82457204D01*
X155605846Y-82278394D01*
X155937230Y-81947588D01*
X156116795Y-81515147D01*
X156116796Y-81513093D01*
X156302796Y-81513093D01*
X156481606Y-81945846D01*
X156812412Y-82277230D01*
X156894335Y-82311248D01*
X156699312Y-82505930D01*
X156573144Y-82809778D01*
X156572857Y-83138779D01*
X156698495Y-83442846D01*
X156930930Y-83675688D01*
X157234778Y-83801856D01*
X157563779Y-83802143D01*
X157867846Y-83676505D01*
X158100688Y-83444070D01*
X158131951Y-83368779D01*
X159172857Y-83368779D01*
X159298495Y-83672846D01*
X159530930Y-83905688D01*
X159834778Y-84031856D01*
X160163779Y-84032143D01*
X160467846Y-83906505D01*
X160700688Y-83674070D01*
X160826856Y-83370222D01*
X160827143Y-83041221D01*
X160701505Y-82737154D01*
X160469070Y-82504312D01*
X160165222Y-82378144D01*
X159836221Y-82377857D01*
X159532154Y-82503495D01*
X159299312Y-82735930D01*
X159173144Y-83039778D01*
X159172857Y-83368779D01*
X158131951Y-83368779D01*
X158226856Y-83140222D01*
X158227143Y-82811221D01*
X158101505Y-82507154D01*
X157952779Y-82358168D01*
X158145846Y-82278394D01*
X158477230Y-81947588D01*
X158656795Y-81515147D01*
X158657204Y-81046907D01*
X158478394Y-80614154D01*
X158147588Y-80282770D01*
X157715147Y-80103205D01*
X157246907Y-80102796D01*
X156814154Y-80281606D01*
X156482770Y-80612412D01*
X156303205Y-81044853D01*
X156302796Y-81513093D01*
X156116796Y-81513093D01*
X156117204Y-81046907D01*
X155938394Y-80614154D01*
X155607588Y-80282770D01*
X155175147Y-80103205D01*
X154706907Y-80102796D01*
X154274154Y-80281606D01*
X153942770Y-80612412D01*
X153763205Y-81044853D01*
X153762796Y-81513093D01*
X153576796Y-81513093D01*
X153577204Y-81046907D01*
X153398394Y-80614154D01*
X153067588Y-80282770D01*
X152635147Y-80103205D01*
X152166907Y-80102796D01*
X151734154Y-80281606D01*
X151402770Y-80612412D01*
X151223205Y-81044853D01*
X151222796Y-81513093D01*
X151036796Y-81513093D01*
X151037204Y-81046907D01*
X150858394Y-80614154D01*
X150527588Y-80282770D01*
X150095147Y-80103205D01*
X149626907Y-80102796D01*
X149194154Y-80281606D01*
X148862770Y-80612412D01*
X148683205Y-81044853D01*
X148682796Y-81513093D01*
X148496796Y-81513093D01*
X148497204Y-81046907D01*
X148318394Y-80614154D01*
X147987588Y-80282770D01*
X147555147Y-80103205D01*
X147086907Y-80102796D01*
X146654154Y-80281606D01*
X146322770Y-80612412D01*
X146143205Y-81044853D01*
X146142796Y-81513093D01*
X145956343Y-81513093D01*
X145850250Y-81407000D01*
X144907000Y-81407000D01*
X144653000Y-81407000D01*
X143709750Y-81407000D01*
X143603000Y-81513750D01*
X142126775Y-81513750D01*
X142127628Y-80536710D01*
X142089761Y-80445064D01*
X143603000Y-80445064D01*
X143603000Y-81046250D01*
X143709750Y-81153000D01*
X144653000Y-81153000D01*
X144653000Y-80209750D01*
X144907000Y-80209750D01*
X144907000Y-81153000D01*
X145850250Y-81153000D01*
X145957000Y-81046250D01*
X145957000Y-80445064D01*
X145891993Y-80288124D01*
X145771876Y-80168007D01*
X145614935Y-80103000D01*
X145013750Y-80103000D01*
X144907000Y-80209750D01*
X144653000Y-80209750D01*
X144546250Y-80103000D01*
X143945065Y-80103000D01*
X143788124Y-80168007D01*
X143668007Y-80288124D01*
X143603000Y-80445064D01*
X142089761Y-80445064D01*
X141836479Y-79832076D01*
X141913779Y-79832143D01*
X142217846Y-79706505D01*
X142450688Y-79474070D01*
X142576856Y-79170222D01*
X142577143Y-78841221D01*
X142451505Y-78537154D01*
X142421404Y-78507000D01*
X146078293Y-78507000D01*
X146049312Y-78535930D01*
G36*
X184748000Y-109378000D02*
X183325167Y-109378000D01*
X182724620Y-109128631D01*
X181281710Y-109127372D01*
X180675144Y-109378000D01*
X180627000Y-109378000D01*
X180627000Y-101882000D01*
X184748000Y-101882000D01*
X184748000Y-109378000D01*
X184748000Y-109378000D01*
G37*
X184748000Y-109378000D02*
X183325167Y-109378000D01*
X182724620Y-109128631D01*
X181281710Y-109127372D01*
X180675144Y-109378000D01*
X180627000Y-109378000D01*
X180627000Y-101882000D01*
X184748000Y-101882000D01*
X184748000Y-109378000D01*
G36*
X184748000Y-101128000D02*
X180796499Y-101128000D01*
X180950698Y-100974070D01*
X181076866Y-100670222D01*
X181077153Y-100341221D01*
X180951515Y-100037154D01*
X180719080Y-99804312D01*
X180627000Y-99766077D01*
X180627000Y-93742028D01*
X180672863Y-93696245D01*
X180799031Y-93392397D01*
X180799258Y-93132000D01*
X184748000Y-93132000D01*
X184748000Y-101128000D01*
X184748000Y-101128000D01*
G37*
X184748000Y-101128000D02*
X180796499Y-101128000D01*
X180950698Y-100974070D01*
X181076866Y-100670222D01*
X181077153Y-100341221D01*
X180951515Y-100037154D01*
X180719080Y-99804312D01*
X180627000Y-99766077D01*
X180627000Y-93742028D01*
X180672863Y-93696245D01*
X180799031Y-93392397D01*
X180799258Y-93132000D01*
X184748000Y-93132000D01*
X184748000Y-101128000D01*
G36*
X184748000Y-92378000D02*
X180952174Y-92378000D01*
X180627000Y-92052826D01*
X180627000Y-84612138D01*
X181275380Y-84881369D01*
X182718290Y-84882628D01*
X184051846Y-84331614D01*
X184251809Y-84132000D01*
X184748000Y-84132000D01*
X184748000Y-92378000D01*
X184748000Y-92378000D01*
G37*
X184748000Y-92378000D02*
X180952174Y-92378000D01*
X180627000Y-92052826D01*
X180627000Y-84612138D01*
X181275380Y-84881369D01*
X182718290Y-84882628D01*
X184051846Y-84331614D01*
X184251809Y-84132000D01*
X184748000Y-84132000D01*
X184748000Y-92378000D01*
M02*
