M48
;DRILL file {KiCad 4.0.6-e0-6349~53~ubuntu16.04.1} date Mon Mar 20 22:22:37 2017
;FORMAT={2:4/ absolute / inch / suppress leading zeros}
FMAT,2
INCH,TZ
T1C0.016
T2C0.031
T3C0.039
T4C0.059
%
G90
G05
M72
T1
X54350Y-35906
X54409Y-39055
X54429Y-34646
X54429Y-39567
X54429Y-41260
X54921Y-41654
X55256Y-38760
X55256Y-39429
X55610Y-35197
X55650Y-35669
X55906Y-38348
X55925Y-36970
X55925Y-37421
X55925Y-37933
X56102Y-38701
X56181Y-39370
X56319Y-36636
X56673Y-42677
X56693Y-38644
X56811Y-36695
X57165Y-38624
X57244Y-36695
X57618Y-38624
X57657Y-36695
X57874Y-34606
X57923Y-39407
X57953Y-35276
X58071Y-36774
X58130Y-39094
X58130Y-38486
X58458Y-36619
X58563Y-37030
X58602Y-42677
X58661Y-40945
X58757Y-36363
X58957Y-35955
X59018Y-36658
X59154Y-40354
X59238Y-39783
X59752Y-40426
X59764Y-38780
X59780Y-37650
X60217Y-34803
X60236Y-39274
X60433Y-37600
X60522Y-36555
X60525Y-35888
X60610Y-34685
X60765Y-35140
X60881Y-36088
X61050Y-35412
X61196Y-39369
X61299Y-43465
X61484Y-37490
X61496Y-41616
X61589Y-39350
X61594Y-38622
X61769Y-42335
X61969Y-41654
X62254Y-36504
X62283Y-42315
X62638Y-41537
X62657Y-36614
X62717Y-32835
X62825Y-41137
X62950Y-40738
X63012Y-43543
X63110Y-36614
X63110Y-32835
X63130Y-34488
X63204Y-41247
X63265Y-36043
X63602Y-34537
X63681Y-39331
X63711Y-36549
X63744Y-36153
X63819Y-32835
X63853Y-37752
X64173Y-39862
X64173Y-40177
X64272Y-43860
X64272Y-44175
X64409Y-32441
X64409Y-32756
X64409Y-33071
X64409Y-33386
X64488Y-39862
X64488Y-40177
X64587Y-43860
X64587Y-44175
X64724Y-32441
X64724Y-32756
X64724Y-33071
X64724Y-33386
X64803Y-39862
X64803Y-40177
X64902Y-43860
X64902Y-44175
X65039Y-33071
X65118Y-39862
X65118Y-40177
X65217Y-38071
X65217Y-43860
X65217Y-44175
X65354Y-33071
X65433Y-39862
X65433Y-40177
X65531Y-43860
X65531Y-44175
X65669Y-33071
X65728Y-37402
X65728Y-38622
X65748Y-34252
X65748Y-39862
X65748Y-40177
X65768Y-34941
X65768Y-41496
X65827Y-32756
X65846Y-42598
X65846Y-43860
X65846Y-44175
X65984Y-33071
X66063Y-39862
X66063Y-40177
X66122Y-42126
X66142Y-32756
X66161Y-43860
X66161Y-44175
X66299Y-33071
X66378Y-39862
X66378Y-40177
X66476Y-43860
X66476Y-44175
X67303Y-43701
X67382Y-36378
X67421Y-39370
X67933Y-33583
X67933Y-39528
X68105Y-36619
X68248Y-42677
X68799Y-39449
X68898Y-33504
X68957Y-36654
X68996Y-42677
X69902Y-36772
X69980Y-39764
X70020Y-33543
X70709Y-42126
X70768Y-34626
X70768Y-34941
X70768Y-35256
X70768Y-35571
X70768Y-35886
X70768Y-36201
X70768Y-36516
X70768Y-37264
X70768Y-37579
X70768Y-37894
X70768Y-38209
X70768Y-38524
X70768Y-38839
X70768Y-39154
X70768Y-39921
X70768Y-40236
X70768Y-40551
X70768Y-40866
X70768Y-41181
X70768Y-41496
X70768Y-41811
X71083Y-34626
X71083Y-34941
X71083Y-35256
X71083Y-35571
X71083Y-35886
X71083Y-36201
X71083Y-36516
X71083Y-37264
X71083Y-37579
X71083Y-37894
X71083Y-38209
X71083Y-38524
X71083Y-38839
X71083Y-39154
X71083Y-39921
X71083Y-40236
X71083Y-40551
X71083Y-40866
X71083Y-41181
X71083Y-41496
X71083Y-41811
X71398Y-34626
X71398Y-34941
X71398Y-35256
X71398Y-35571
X71398Y-35886
X71398Y-36201
X71398Y-36516
X71398Y-37264
X71398Y-37579
X71398Y-37894
X71398Y-38209
X71398Y-38524
X71398Y-38839
X71398Y-39154
X71398Y-39921
X71398Y-40236
X71398Y-40551
X71398Y-40866
X71398Y-41181
X71398Y-41496
X71713Y-34626
X71713Y-34941
X71713Y-35256
X71713Y-35571
X71713Y-35886
X71713Y-36201
X71713Y-36516
X71713Y-37264
X71713Y-37579
X71713Y-37894
X71713Y-38209
X71713Y-38524
X71713Y-38839
X71713Y-39154
X71713Y-39921
X71713Y-40236
X71713Y-40551
X71713Y-40866
X71713Y-41181
X71713Y-41496
T2
X66142Y-32362
X68110Y-32382
T3
X56642Y-32701
X56642Y-33701
X56642Y-43701
X57642Y-32701
X57642Y-33701
X57642Y-43701
X58642Y-32701
X58642Y-33701
X58642Y-43701
X59642Y-32701
X59642Y-33701
X59642Y-43701
X60642Y-32701
X60642Y-33701
X60642Y-43701
X61642Y-32701
T4
X65276Y-32480
X67323Y-32480
X72244Y-35433
X72244Y-38189
X72244Y-41142
T0
M30
