%TF.GenerationSoftware,KiCad,Pcbnew,4.0.6-e0-6349~53~ubuntu16.04.1*%
%TF.CreationDate,2017-03-23T00:14:44+02:00*%
%TF.ProjectId,BLDC_controller,424C44435F636F6E74726F6C6C65722E,1.0*%
%TF.FileFunction,Paste,Bot*%
%FSLAX46Y46*%
G04 Gerber Fmt 4.6, Leading zero omitted, Abs format (unit mm)*
G04 Created by KiCad (PCBNEW 4.0.6-e0-6349~53~ubuntu16.04.1) date Thu Mar 23 00:14:44 2017*
%MOMM*%
%LPD*%
G01*
G04 APERTURE LIST*
%ADD10C,0.100000*%
%ADD11R,0.550000X0.890000*%
%ADD12R,3.350000X1.400000*%
%ADD13R,0.500000X0.700000*%
%ADD14R,0.890000X0.550000*%
%ADD15R,0.800000X0.900000*%
%ADD16R,0.900000X0.800000*%
%ADD17R,0.500000X0.800000*%
%ADD18R,0.800000X0.500000*%
%ADD19R,1.050000X0.600000*%
G04 APERTURE END LIST*
D10*
D11*
X25460000Y4000000D03*
X24040000Y4000000D03*
D12*
X30800000Y9000000D03*
X30800000Y3200000D03*
D13*
X19950000Y22300000D03*
X19950000Y24700000D03*
X19350000Y9000000D03*
X19350000Y11400000D03*
D12*
X30750000Y19295000D03*
X30750000Y13495000D03*
X30800000Y22000000D03*
X30800000Y27800000D03*
D11*
X22960000Y23300000D03*
X21540000Y23300000D03*
X22935000Y21625000D03*
X21515000Y21625000D03*
X22460000Y11700000D03*
X21040000Y11700000D03*
X22470000Y10000000D03*
X21050000Y10000000D03*
X25560000Y24100000D03*
X24140000Y24100000D03*
X25310000Y14500000D03*
X23890000Y14500000D03*
X24040000Y5395000D03*
X25460000Y5395000D03*
X23890000Y16095000D03*
X25310000Y16095000D03*
X24840000Y26600000D03*
X26260000Y26600000D03*
D14*
X19250000Y3790000D03*
X19250000Y5210000D03*
X22900000Y18910000D03*
X22900000Y17490000D03*
X17550000Y5410000D03*
X17550000Y3990000D03*
X21250000Y17490000D03*
X21250000Y18910000D03*
X19850000Y26190000D03*
X19850000Y27610000D03*
D11*
X21140000Y2350000D03*
X22560000Y2350000D03*
X21280000Y14600000D03*
X22700000Y14600000D03*
X21540000Y24900000D03*
X22960000Y24900000D03*
D14*
X14900000Y19990000D03*
X14900000Y21410000D03*
D15*
X20990000Y4050000D03*
X22650000Y4050000D03*
X20920000Y16150000D03*
X22580000Y16150000D03*
X21820000Y26600000D03*
X23480000Y26600000D03*
D11*
X25460000Y7000000D03*
X24040000Y7000000D03*
X25710000Y18700000D03*
X24290000Y18700000D03*
X26260000Y28400000D03*
X24840000Y28400000D03*
D16*
X1950000Y18020000D03*
X1950000Y19680000D03*
D15*
X7980000Y24300000D03*
X6320000Y24300000D03*
X13480000Y25000000D03*
X11820000Y25000000D03*
D11*
X4390000Y21050000D03*
X5810000Y21050000D03*
D14*
X3100000Y21990000D03*
X3100000Y23410000D03*
X9600000Y22940000D03*
X9600000Y24360000D03*
X15300000Y23190000D03*
X15300000Y24610000D03*
X1950000Y14990000D03*
X1950000Y16410000D03*
D11*
X6440000Y22700000D03*
X7860000Y22700000D03*
X12140000Y23400000D03*
X13560000Y23400000D03*
D14*
X14500000Y17390000D03*
X14500000Y18810000D03*
D15*
X9720000Y21100000D03*
X11380000Y21100000D03*
D17*
X38950000Y22975000D03*
X38100000Y22975000D03*
X39800000Y22975000D03*
X38950000Y25275000D03*
X38100000Y25275000D03*
X39800000Y25275000D03*
X39800000Y24125000D03*
X38100000Y24125000D03*
D18*
X41650000Y22250000D03*
X41650000Y26000000D03*
X41650000Y23525000D03*
D19*
X35925000Y23490000D03*
X35925000Y22220000D03*
X35925000Y24760000D03*
X35925000Y26030000D03*
D18*
X41650000Y24725000D03*
D17*
X38950000Y24125000D03*
X38950000Y15355000D03*
X38100000Y15355000D03*
X39800000Y15355000D03*
X38950000Y17655000D03*
X38100000Y17655000D03*
X39800000Y17655000D03*
X39800000Y16505000D03*
X38100000Y16505000D03*
D18*
X41650000Y14630000D03*
X41650000Y18380000D03*
X41650000Y15905000D03*
D19*
X35925000Y15870000D03*
X35925000Y14600000D03*
X35925000Y17140000D03*
X35925000Y18410000D03*
D18*
X41650000Y17105000D03*
D17*
X38950000Y16505000D03*
X38950000Y7725000D03*
X38100000Y7725000D03*
X39800000Y7725000D03*
X38950000Y10025000D03*
X38100000Y10025000D03*
X39800000Y10025000D03*
X39800000Y8875000D03*
X38100000Y8875000D03*
D18*
X41650000Y7000000D03*
X41650000Y10750000D03*
X41650000Y8275000D03*
D19*
X35925000Y8240000D03*
X35925000Y6970000D03*
X35925000Y9510000D03*
X35925000Y10780000D03*
D18*
X41650000Y9475000D03*
D17*
X38950000Y8875000D03*
D11*
X22230000Y28400000D03*
X23650000Y28400000D03*
M02*
