%TF.GenerationSoftware,KiCad,Pcbnew,4.0.6-e0-6349~53~ubuntu16.04.1*%
%TF.CreationDate,2017-03-19T23:40:33+02:00*%
%TF.ProjectId,BLDC_controller,424C44435F636F6E74726F6C6C65722E,1.0*%
%TF.FileFunction,Other,ECO2*%
%FSLAX46Y46*%
G04 Gerber Fmt 4.6, Leading zero omitted, Abs format (unit mm)*
G04 Created by KiCad (PCBNEW 4.0.6-e0-6349~53~ubuntu16.04.1) date Sun Mar 19 23:40:33 2017*
%MOMM*%
%LPD*%
G01*
G04 APERTURE LIST*
%ADD10C,0.100000*%
%ADD11C,0.300000*%
G04 APERTURE END LIST*
D10*
D11*
X193421429Y-90714287D02*
X193421429Y-91642858D01*
X192850000Y-91142858D01*
X192850000Y-91357144D01*
X192778571Y-91500001D01*
X192707143Y-91571430D01*
X192564286Y-91642858D01*
X192207143Y-91642858D01*
X192064286Y-91571430D01*
X191992857Y-91500001D01*
X191921429Y-91357144D01*
X191921429Y-90928572D01*
X191992857Y-90785715D01*
X192064286Y-90714287D01*
X193278571Y-92214286D02*
X193350000Y-92285715D01*
X193421429Y-92428572D01*
X193421429Y-92785715D01*
X193350000Y-92928572D01*
X193278571Y-93000001D01*
X193135714Y-93071429D01*
X192992857Y-93071429D01*
X192778571Y-93000001D01*
X191921429Y-92142858D01*
X191921429Y-93071429D01*
X191992857Y-93785714D02*
X191921429Y-93785714D01*
X191778571Y-93714286D01*
X191707143Y-93642857D01*
X193421429Y-94714286D02*
X193421429Y-94857143D01*
X193350000Y-95000000D01*
X193278571Y-95071429D01*
X193135714Y-95142858D01*
X192850000Y-95214286D01*
X192492857Y-95214286D01*
X192207143Y-95142858D01*
X192064286Y-95071429D01*
X191992857Y-95000000D01*
X191921429Y-94857143D01*
X191921429Y-94714286D01*
X191992857Y-94571429D01*
X192064286Y-94500000D01*
X192207143Y-94428572D01*
X192492857Y-94357143D01*
X192850000Y-94357143D01*
X193135714Y-94428572D01*
X193278571Y-94500000D01*
X193350000Y-94571429D01*
X193421429Y-94714286D01*
X193421429Y-96142857D02*
X193421429Y-96285714D01*
X193350000Y-96428571D01*
X193278571Y-96500000D01*
X193135714Y-96571429D01*
X192850000Y-96642857D01*
X192492857Y-96642857D01*
X192207143Y-96571429D01*
X192064286Y-96500000D01*
X191992857Y-96428571D01*
X191921429Y-96285714D01*
X191921429Y-96142857D01*
X191992857Y-96000000D01*
X192064286Y-95928571D01*
X192207143Y-95857143D01*
X192492857Y-95785714D01*
X192850000Y-95785714D01*
X193135714Y-95857143D01*
X193278571Y-95928571D01*
X193350000Y-96000000D01*
X193421429Y-96142857D01*
X193421429Y-97571428D02*
X193421429Y-97714285D01*
X193350000Y-97857142D01*
X193278571Y-97928571D01*
X193135714Y-98000000D01*
X192850000Y-98071428D01*
X192492857Y-98071428D01*
X192207143Y-98000000D01*
X192064286Y-97928571D01*
X191992857Y-97857142D01*
X191921429Y-97714285D01*
X191921429Y-97571428D01*
X191992857Y-97428571D01*
X192064286Y-97357142D01*
X192207143Y-97285714D01*
X192492857Y-97214285D01*
X192850000Y-97214285D01*
X193135714Y-97285714D01*
X193278571Y-97357142D01*
X193350000Y-97428571D01*
X193421429Y-97571428D01*
X191921429Y-99857142D02*
X192921429Y-99857142D01*
X192778571Y-99857142D02*
X192850000Y-99928570D01*
X192921429Y-100071428D01*
X192921429Y-100285713D01*
X192850000Y-100428570D01*
X192707143Y-100499999D01*
X191921429Y-100499999D01*
X192707143Y-100499999D02*
X192850000Y-100571428D01*
X192921429Y-100714285D01*
X192921429Y-100928570D01*
X192850000Y-101071428D01*
X192707143Y-101142856D01*
X191921429Y-101142856D01*
X191921429Y-101857142D02*
X192921429Y-101857142D01*
X192778571Y-101857142D02*
X192850000Y-101928570D01*
X192921429Y-102071428D01*
X192921429Y-102285713D01*
X192850000Y-102428570D01*
X192707143Y-102499999D01*
X191921429Y-102499999D01*
X192707143Y-102499999D02*
X192850000Y-102571428D01*
X192921429Y-102714285D01*
X192921429Y-102928570D01*
X192850000Y-103071428D01*
X192707143Y-103142856D01*
X191921429Y-103142856D01*
X191250000Y-81000000D02*
X191250000Y-113000000D01*
X185250000Y-81000000D02*
X193950000Y-81000000D01*
X185250000Y-113000000D02*
X193950000Y-113000000D01*
X191250000Y-113000000D02*
X190663579Y-111873496D01*
X191250000Y-113000000D02*
X191836421Y-111873496D01*
X191250000Y-81000000D02*
X190663579Y-82126504D01*
X191250000Y-81000000D02*
X191836421Y-82126504D01*
X155250001Y-73328571D02*
X155250001Y-74328571D01*
X154892858Y-72757143D02*
X154535715Y-73828571D01*
X155464287Y-73828571D01*
X156107143Y-74328571D02*
X156392858Y-74328571D01*
X156535715Y-74257143D01*
X156607143Y-74185714D01*
X156750001Y-73971429D01*
X156821429Y-73685714D01*
X156821429Y-73114286D01*
X156750001Y-72971429D01*
X156678572Y-72900000D01*
X156535715Y-72828571D01*
X156250001Y-72828571D01*
X156107143Y-72900000D01*
X156035715Y-72971429D01*
X155964286Y-73114286D01*
X155964286Y-73471429D01*
X156035715Y-73614286D01*
X156107143Y-73685714D01*
X156250001Y-73757143D01*
X156535715Y-73757143D01*
X156678572Y-73685714D01*
X156750001Y-73614286D01*
X156821429Y-73471429D01*
X157535714Y-74257143D02*
X157535714Y-74328571D01*
X157464286Y-74471429D01*
X157392857Y-74542857D01*
X158464286Y-72828571D02*
X158607143Y-72828571D01*
X158750000Y-72900000D01*
X158821429Y-72971429D01*
X158892858Y-73114286D01*
X158964286Y-73400000D01*
X158964286Y-73757143D01*
X158892858Y-74042857D01*
X158821429Y-74185714D01*
X158750000Y-74257143D01*
X158607143Y-74328571D01*
X158464286Y-74328571D01*
X158321429Y-74257143D01*
X158250000Y-74185714D01*
X158178572Y-74042857D01*
X158107143Y-73757143D01*
X158107143Y-73400000D01*
X158178572Y-73114286D01*
X158250000Y-72971429D01*
X158321429Y-72900000D01*
X158464286Y-72828571D01*
X159892857Y-72828571D02*
X160035714Y-72828571D01*
X160178571Y-72900000D01*
X160250000Y-72971429D01*
X160321429Y-73114286D01*
X160392857Y-73400000D01*
X160392857Y-73757143D01*
X160321429Y-74042857D01*
X160250000Y-74185714D01*
X160178571Y-74257143D01*
X160035714Y-74328571D01*
X159892857Y-74328571D01*
X159750000Y-74257143D01*
X159678571Y-74185714D01*
X159607143Y-74042857D01*
X159535714Y-73757143D01*
X159535714Y-73400000D01*
X159607143Y-73114286D01*
X159678571Y-72971429D01*
X159750000Y-72900000D01*
X159892857Y-72828571D01*
X161321428Y-72828571D02*
X161464285Y-72828571D01*
X161607142Y-72900000D01*
X161678571Y-72971429D01*
X161750000Y-73114286D01*
X161821428Y-73400000D01*
X161821428Y-73757143D01*
X161750000Y-74042857D01*
X161678571Y-74185714D01*
X161607142Y-74257143D01*
X161464285Y-74328571D01*
X161321428Y-74328571D01*
X161178571Y-74257143D01*
X161107142Y-74185714D01*
X161035714Y-74042857D01*
X160964285Y-73757143D01*
X160964285Y-73400000D01*
X161035714Y-73114286D01*
X161107142Y-72971429D01*
X161178571Y-72900000D01*
X161321428Y-72828571D01*
X163607142Y-74328571D02*
X163607142Y-73328571D01*
X163607142Y-73471429D02*
X163678570Y-73400000D01*
X163821428Y-73328571D01*
X164035713Y-73328571D01*
X164178570Y-73400000D01*
X164249999Y-73542857D01*
X164249999Y-74328571D01*
X164249999Y-73542857D02*
X164321428Y-73400000D01*
X164464285Y-73328571D01*
X164678570Y-73328571D01*
X164821428Y-73400000D01*
X164892856Y-73542857D01*
X164892856Y-74328571D01*
X165607142Y-74328571D02*
X165607142Y-73328571D01*
X165607142Y-73471429D02*
X165678570Y-73400000D01*
X165821428Y-73328571D01*
X166035713Y-73328571D01*
X166178570Y-73400000D01*
X166249999Y-73542857D01*
X166249999Y-74328571D01*
X166249999Y-73542857D02*
X166321428Y-73400000D01*
X166464285Y-73328571D01*
X166678570Y-73328571D01*
X166821428Y-73400000D01*
X166892856Y-73542857D01*
X166892856Y-74328571D01*
X136250000Y-75000000D02*
X185250000Y-75000000D01*
X136250000Y-81000000D02*
X136250000Y-72300000D01*
X185250000Y-81000000D02*
X185250000Y-72300000D01*
X185250000Y-75000000D02*
X184123496Y-75586421D01*
X185250000Y-75000000D02*
X184123496Y-74413579D01*
X136250000Y-75000000D02*
X137376504Y-75586421D01*
X136250000Y-75000000D02*
X137376504Y-74413579D01*
M02*
