M48
;DRILL file {KiCad 4.0.6-e0-6349~53~ubuntu16.04.1} date Wed Mar  8 23:02:01 2017
;FORMAT={3:3/ absolute / metric / suppress leading zeros}
FMAT,2
METRIC,TZ
T1C0.400
T2C0.800
T3C1.000
T4C1.300
%
G90
G05
M71
T1
X136250Y-84505
X136250Y-89505
X136250Y-94505
X136250Y-99505
X136250Y-104505
X136250Y-109505
X141750Y-79005
X142250Y-115005
X143750Y-102255
X144250Y-110255
X144450Y-98905
X145500Y-97405
X145550Y-93905
X145550Y-95050
X145550Y-96350
X146000Y-98300
X146500Y-100255
X146550Y-93055
X146600Y-87900
X146600Y-89600
X146750Y-79005
X146750Y-101755
X147250Y-115005
X147500Y-98155
X147500Y-106500
X147750Y-109250
X147800Y-93205
X148700Y-98105
X148900Y-93205
X149850Y-98105
X149950Y-93205
X150600Y-87900
X150600Y-100500
X150700Y-89600
X150712Y-99522
X151000Y-93405
X151150Y-97755
X151750Y-79005
X152185Y-108915
X152250Y-94055
X152250Y-115005
X152350Y-92500
X152500Y-107250
X152750Y-104005
X152850Y-91550
X153349Y-92448
X153900Y-102300
X154000Y-101300
X154000Y-107250
X154500Y-105505
X154900Y-102900
X155341Y-95631
X156500Y-99755
X156750Y-79005
X157000Y-95505
X157225Y-92850
X157250Y-91005
X157250Y-115005
X157275Y-87624
X157275Y-88675
X157400Y-82975
X157400Y-86625
X158161Y-91646
X158700Y-82905
X159013Y-99987
X159200Y-110400
X159250Y-112055
X159670Y-95225
X159700Y-105705
X159981Y-98165
X160000Y-83205
X160000Y-99755
X160394Y-107531
X160750Y-79005
X160900Y-105800
X161675Y-92739
X161699Y-107480
X161900Y-79005
X162250Y-115005
X162600Y-105505
X162900Y-79305
X163076Y-104488
X163341Y-90189
X163393Y-103475
X163575Y-93143
X164000Y-79805
X164037Y-104768
X164250Y-84805
X164900Y-89205
X165025Y-93265
X165150Y-113005
X165250Y-110755
X165284Y-99941
X165627Y-95705
X166025Y-93248
X166550Y-79205
X166550Y-79905
X166550Y-80605
X166550Y-81305
X166550Y-82005
X166550Y-82705
X166750Y-100205
X166750Y-101005
X166750Y-101705
X166750Y-102405
X166750Y-103105
X166850Y-110905
X166850Y-111605
X166850Y-112305
X166850Y-113005
X166850Y-113705
X166850Y-114405
X166850Y-115105
X167250Y-79205
X167250Y-79905
X167250Y-80605
X167250Y-81305
X167250Y-82005
X167250Y-82705
X167250Y-83405
X167450Y-100205
X167450Y-101005
X167450Y-101705
X167450Y-102405
X167450Y-103105
X167450Y-103805
X167550Y-110905
X167550Y-111605
X167550Y-112305
X167550Y-113005
X167550Y-113705
X167550Y-114405
X167550Y-115105
X167950Y-79905
X167950Y-80605
X167950Y-81305
X167950Y-82005
X168150Y-101005
X168150Y-101705
X168150Y-102405
X168150Y-103105
X168150Y-103805
X168250Y-113005
X168250Y-113705
X168250Y-114405
X168250Y-115105
X168650Y-79905
X168650Y-80605
X168650Y-81305
X168650Y-82005
X168850Y-101005
X168850Y-101705
X168850Y-102405
X168850Y-103105
X168850Y-103805
X168950Y-113005
X168950Y-113705
X168950Y-114405
X168950Y-115105
X169000Y-96755
X169350Y-79205
X169350Y-79905
X169350Y-80605
X169350Y-81305
X169350Y-82005
X169550Y-101005
X169550Y-101705
X169550Y-102405
X169550Y-103105
X169550Y-103805
X169650Y-113005
X169650Y-113705
X169650Y-114405
X169650Y-115105
X169963Y-97917
X170000Y-85530
X170000Y-88005
X170000Y-95005
X170050Y-79205
X170050Y-79905
X170050Y-80605
X170050Y-81305
X170050Y-82005
X170244Y-106991
X170250Y-101005
X170250Y-101705
X170250Y-102405
X170250Y-103105
X170250Y-103805
X170250Y-109605
X170350Y-108005
X170350Y-113005
X170350Y-113705
X170350Y-114405
X170350Y-115105
X170750Y-79205
X170750Y-79905
X170750Y-80605
X170750Y-81305
X170750Y-82005
X170950Y-101005
X170950Y-101705
X170950Y-102405
X170950Y-103105
X170950Y-103805
X171050Y-113005
X171050Y-113705
X171050Y-114405
X171050Y-115105
X171450Y-79205
X171450Y-79905
X171450Y-80605
X171450Y-81305
X171450Y-82005
X171750Y-113005
X171750Y-113705
X171750Y-114405
X171750Y-115105
X172250Y-91200
X172450Y-113005
X172450Y-113705
X172450Y-114405
X172450Y-115105
X172750Y-103505
X173000Y-82005
X173000Y-83005
X173000Y-100505
X173000Y-110755
X173100Y-109250
X173900Y-91700
X174500Y-100700
X174600Y-93505
X174900Y-109900
X174900Y-112000
X175000Y-79000
X175200Y-84305
X175700Y-102405
X176418Y-84310
X176850Y-99300
X176950Y-93405
X177268Y-83755
X178450Y-83255
X178700Y-109900
X178750Y-102075
X179500Y-91005
X179972Y-93227
X180250Y-100505
X181650Y-86705
X181650Y-87405
X181650Y-88105
X181650Y-88805
X181650Y-89505
X181650Y-90205
X181650Y-90905
X181650Y-91605
X181650Y-95705
X181650Y-96405
X181650Y-97105
X181650Y-97805
X181650Y-98505
X181650Y-99205
X181650Y-99905
X181650Y-100605
X181650Y-103905
X181650Y-104605
X181650Y-105305
X181650Y-106005
X181650Y-106705
X181650Y-107405
X181650Y-108105
X181650Y-108805
X182350Y-86705
X182350Y-87405
X182350Y-88105
X182350Y-88805
X182350Y-89505
X182350Y-90205
X182350Y-90905
X182350Y-91605
X182350Y-95705
X182350Y-96405
X182350Y-97105
X182350Y-97805
X182350Y-98505
X182350Y-99205
X182350Y-99905
X182350Y-100605
X182350Y-103905
X182350Y-104605
X182350Y-105305
X182350Y-106005
X182350Y-106705
X182350Y-107405
X182350Y-108105
X182350Y-108805
X183050Y-86705
X183050Y-87405
X183050Y-88105
X183050Y-88805
X183050Y-89505
X183050Y-90205
X183050Y-90905
X183050Y-91605
X183050Y-95705
X183050Y-96405
X183050Y-97105
X183050Y-97805
X183050Y-98505
X183050Y-99205
X183050Y-99905
X183050Y-100605
X183050Y-103905
X183050Y-104605
X183050Y-105305
X183050Y-106005
X183050Y-106705
X183050Y-107405
X183050Y-108105
X183050Y-108805
X183750Y-86705
X183750Y-87405
X183750Y-88105
X183750Y-88805
X183750Y-89505
X183750Y-90205
X183750Y-90905
X183750Y-91605
X183750Y-95705
X183750Y-96405
X183750Y-97105
X183750Y-97805
X183750Y-98505
X183750Y-99205
X183750Y-99905
X183750Y-100605
X183750Y-103905
X183750Y-104605
X183750Y-105305
X183750Y-106005
X183750Y-106705
X183750Y-107405
X183750Y-108105
X183750Y-108805
X184450Y-86705
X184450Y-87405
X184450Y-88105
X184450Y-88805
X184450Y-89505
X184450Y-90205
X184450Y-90905
X184450Y-91605
X184450Y-95705
X184450Y-96405
X184450Y-97105
X184450Y-97805
X184450Y-98505
X184450Y-99205
X184450Y-99905
X184450Y-100605
X184450Y-103905
X184450Y-104605
X184450Y-105305
X184450Y-106005
X184450Y-106705
X184450Y-107405
X184450Y-108105
X184450Y-108805
T2
X168250Y-79005
X173250Y-79005
T3
X144780Y-81280
X144780Y-83820
X147320Y-81280
X147320Y-83820
X147320Y-111760
X149860Y-81280
X149860Y-83820
X149860Y-111760
X152400Y-81280
X152400Y-83820
X152400Y-111760
X154940Y-81280
X154940Y-83820
X154940Y-111760
X157480Y-81280
X157480Y-111760
T4
X183750Y-85505
X183750Y-94505
X183750Y-102705
T0
M30
