G04 #@! TF.FileFunction,Copper,L4,Bot,Signal*
%FSLAX46Y46*%
G04 Gerber Fmt 4.6, Leading zero omitted, Abs format (unit mm)*
G04 Created by KiCad (PCBNEW 4.0.6-e0-6349~53~ubuntu16.04.1) date Tue Mar 14 23:45:42 2017*
%MOMM*%
%LPD*%
G01*
G04 APERTURE LIST*
%ADD10C,0.150000*%
%ADD11C,0.250000*%
%ADD12C,0.800000*%
%ADD13C,1.300000*%
%ADD14C,1.900000*%
%ADD15R,0.600000X0.800000*%
%ADD16R,0.650000X0.990000*%
%ADD17R,3.450000X1.500000*%
%ADD18R,1.500000X1.500000*%
%ADD19C,1.500000*%
%ADD20R,0.990000X0.650000*%
%ADD21R,0.900000X1.000000*%
%ADD22R,1.150000X0.700000*%
%ADD23R,1.500000X4.700000*%
%ADD24R,3.300000X4.200000*%
%ADD25R,3.200000X4.200000*%
%ADD26C,0.500000*%
%ADD27C,0.254000*%
G04 APERTURE END LIST*
D10*
D11*
X178040477Y-114290714D02*
X178040477Y-114957381D01*
X177802381Y-113909762D02*
X177564286Y-114624048D01*
X178183334Y-114624048D01*
D10*
X135250000Y-116000000D02*
X135250000Y-78000000D01*
X185250000Y-116000000D02*
X135250000Y-116005000D01*
X185250000Y-78000000D02*
X185250000Y-116000000D01*
X135250000Y-78000000D02*
X185250000Y-78000000D01*
D12*
X176350000Y-84600000D03*
X169950000Y-101005000D03*
X173850000Y-91000000D03*
D13*
X167500000Y-79250000D03*
D14*
X173250000Y-81000000D03*
X183750000Y-102750000D03*
X183750000Y-94250000D03*
D12*
X178350000Y-109900000D03*
X173320000Y-109430000D03*
X145000000Y-98300000D03*
X161250000Y-115005000D03*
X159750000Y-79005000D03*
X136250000Y-109505000D03*
X155750000Y-79005000D03*
X150750000Y-79005000D03*
X145750000Y-79005000D03*
X141750000Y-79005000D03*
X136250000Y-84505000D03*
X136250000Y-89505000D03*
X136250000Y-94505000D03*
X136250000Y-99505000D03*
X136250000Y-104505000D03*
X142250000Y-115005000D03*
X146250000Y-115005000D03*
X151250000Y-115005000D03*
X156250000Y-115005000D03*
X173000000Y-83005000D03*
X172940000Y-100420000D03*
X172420000Y-103290000D03*
X173320000Y-110660000D03*
X184450000Y-108805000D03*
X183750000Y-108805000D03*
X183050000Y-108805000D03*
X182350000Y-108805000D03*
X181650000Y-108805000D03*
X184450000Y-108105000D03*
X183750000Y-108105000D03*
X183050000Y-108105000D03*
X182350000Y-108105000D03*
X181650000Y-108105000D03*
X184450000Y-107405000D03*
X183750000Y-107405000D03*
X183050000Y-107405000D03*
X182350000Y-107405000D03*
X181650000Y-107405000D03*
X184450000Y-106705000D03*
X183750000Y-106705000D03*
X183050000Y-106705000D03*
X182350000Y-106705000D03*
X181650000Y-106705000D03*
X184450000Y-106005000D03*
X183750000Y-106005000D03*
X183050000Y-106005000D03*
X182350000Y-106005000D03*
X181650000Y-106005000D03*
X184450000Y-105305000D03*
X183750000Y-105305000D03*
X183050000Y-105305000D03*
X182350000Y-105305000D03*
X181650000Y-105305000D03*
X184450000Y-104605000D03*
X183750000Y-104605000D03*
X183050000Y-104605000D03*
X182350000Y-104605000D03*
X181650000Y-104605000D03*
X184450000Y-103905000D03*
X183050000Y-103905000D03*
X182350000Y-103905000D03*
X184450000Y-100605000D03*
X183750000Y-100605000D03*
X183050000Y-100605000D03*
X182350000Y-100605000D03*
X181650000Y-100605000D03*
X184450000Y-99905000D03*
X183750000Y-99905000D03*
X183050000Y-99905000D03*
X182350000Y-99905000D03*
X181650000Y-99905000D03*
X184450000Y-99205000D03*
X183750000Y-99205000D03*
X183050000Y-99205000D03*
X182350000Y-99205000D03*
X181650000Y-99205000D03*
X184450000Y-98505000D03*
X183750000Y-98505000D03*
X183050000Y-98505000D03*
X182350000Y-98505000D03*
X181650000Y-98505000D03*
X184450000Y-97805000D03*
X183750000Y-97805000D03*
X183050000Y-97805000D03*
X182350000Y-97805000D03*
X181650000Y-97805000D03*
X184450000Y-97105000D03*
X183750000Y-97105000D03*
X183050000Y-97105000D03*
X182350000Y-97105000D03*
X181650000Y-97105000D03*
X184450000Y-96405000D03*
X183750000Y-96405000D03*
X183050000Y-96405000D03*
X182350000Y-96405000D03*
X181650000Y-96405000D03*
X184450000Y-95705000D03*
X183750000Y-95705000D03*
X183050000Y-95705000D03*
X182350000Y-95705000D03*
X181650000Y-103905000D03*
X184450000Y-91605000D03*
X183750000Y-91605000D03*
X183050000Y-91605000D03*
X182350000Y-91605000D03*
X181650000Y-91605000D03*
X184450000Y-90905000D03*
X183750000Y-90905000D03*
X183050000Y-90905000D03*
X182350000Y-90905000D03*
X181650000Y-90905000D03*
X184450000Y-90205000D03*
X183750000Y-90205000D03*
X183050000Y-90205000D03*
X182350000Y-90205000D03*
X181650000Y-90205000D03*
X184450000Y-89505000D03*
X183750000Y-89505000D03*
X183050000Y-89505000D03*
X182350000Y-89505000D03*
X181650000Y-89505000D03*
X184450000Y-88805000D03*
X183750000Y-88805000D03*
X183050000Y-88805000D03*
X182350000Y-88805000D03*
X181650000Y-88805000D03*
X184450000Y-88105000D03*
X183750000Y-88105000D03*
X183050000Y-88105000D03*
X182350000Y-88105000D03*
X181650000Y-88105000D03*
X184450000Y-87405000D03*
X183750000Y-87405000D03*
X183050000Y-87405000D03*
X182350000Y-87405000D03*
X181650000Y-87405000D03*
X181650000Y-95705000D03*
X184450000Y-86705000D03*
X183050000Y-86705000D03*
X182350000Y-86705000D03*
X181650000Y-86705000D03*
X166250000Y-83405000D03*
X166450000Y-100205000D03*
X165750000Y-100205000D03*
X170450000Y-82005000D03*
X169750000Y-82005000D03*
X169050000Y-82005000D03*
X168350000Y-82005000D03*
X167650000Y-82005000D03*
X166950000Y-82005000D03*
X166250000Y-82005000D03*
X165550000Y-82005000D03*
X170450000Y-81305000D03*
X169750000Y-81305000D03*
X169050000Y-81305000D03*
X168350000Y-81305000D03*
X167650000Y-81305000D03*
X166950000Y-81305000D03*
X166250000Y-81305000D03*
X165550000Y-81305000D03*
X170450000Y-80605000D03*
X169750000Y-80605000D03*
X169050000Y-80605000D03*
X168350000Y-80605000D03*
X167650000Y-80605000D03*
X166950000Y-80605000D03*
X166250000Y-80605000D03*
X170450000Y-79905000D03*
X169750000Y-79905000D03*
X169050000Y-79905000D03*
X168350000Y-79905000D03*
X166250000Y-82705000D03*
X165550000Y-82705000D03*
X170450000Y-79205000D03*
X169750000Y-79205000D03*
X169050000Y-79205000D03*
X166550000Y-112305000D03*
X165850000Y-112305000D03*
X166550000Y-111605000D03*
X165850000Y-111605000D03*
X169950000Y-103805000D03*
X169250000Y-103805000D03*
X168550000Y-103805000D03*
X167850000Y-103805000D03*
X167150000Y-103805000D03*
X166450000Y-103805000D03*
X169950000Y-103105000D03*
X169250000Y-103105000D03*
X168550000Y-103105000D03*
X167850000Y-103105000D03*
X167150000Y-103105000D03*
X166450000Y-103105000D03*
X165750000Y-103105000D03*
X169950000Y-102405000D03*
X169250000Y-102405000D03*
X168550000Y-102405000D03*
X167850000Y-102405000D03*
X167150000Y-102405000D03*
X166450000Y-102405000D03*
X165750000Y-102405000D03*
X169950000Y-101705000D03*
X169250000Y-101705000D03*
X168550000Y-101705000D03*
X167850000Y-101705000D03*
X167150000Y-101705000D03*
X166450000Y-101705000D03*
X165750000Y-101705000D03*
X169250000Y-101005000D03*
X168550000Y-101005000D03*
X167850000Y-101005000D03*
X167150000Y-101005000D03*
X166450000Y-101005000D03*
X165750000Y-101005000D03*
X171450000Y-115105000D03*
X170750000Y-115105000D03*
X170050000Y-115105000D03*
X169350000Y-115105000D03*
X168650000Y-115105000D03*
X167950000Y-115105000D03*
X167250000Y-115105000D03*
X166550000Y-115105000D03*
X165850000Y-115105000D03*
X171450000Y-114405000D03*
X170750000Y-114405000D03*
X170050000Y-114405000D03*
X169350000Y-114405000D03*
X168650000Y-114405000D03*
X167950000Y-114405000D03*
X167250000Y-114405000D03*
X166550000Y-114405000D03*
X165850000Y-114405000D03*
X171450000Y-113705000D03*
X170750000Y-113705000D03*
X170050000Y-113705000D03*
X169350000Y-113705000D03*
X168650000Y-113705000D03*
X167950000Y-113705000D03*
X167250000Y-113705000D03*
X166550000Y-113705000D03*
X165850000Y-113705000D03*
X171450000Y-113005000D03*
X170750000Y-113005000D03*
X170050000Y-113005000D03*
X169350000Y-113005000D03*
X168650000Y-113005000D03*
X167950000Y-113005000D03*
X167250000Y-113005000D03*
X166550000Y-113005000D03*
X165850000Y-113005000D03*
X150150000Y-97755000D03*
X148850000Y-98105000D03*
X147700000Y-98105000D03*
X145550000Y-93055000D03*
X146500000Y-98155000D03*
X144500000Y-97405000D03*
X144550000Y-93905000D03*
X151250000Y-94055000D03*
X150000000Y-93405000D03*
X148950000Y-93205000D03*
X147900000Y-93205000D03*
D15*
X158850000Y-82105000D03*
X158850000Y-79705000D03*
D16*
X164210000Y-109000000D03*
X162790000Y-109000000D03*
D17*
X169250000Y-105355000D03*
X169250000Y-111155000D03*
D15*
X158175000Y-90350000D03*
X158175000Y-87950000D03*
X158100000Y-104000000D03*
X158100000Y-101600000D03*
D17*
X169000000Y-93705000D03*
X169000000Y-99505000D03*
X169000000Y-89700000D03*
X169000000Y-83900000D03*
D18*
X143780000Y-83820000D03*
D19*
X146320000Y-83820000D03*
X148860000Y-83820000D03*
X151400000Y-83820000D03*
X153940000Y-83820000D03*
D18*
X143780000Y-81280000D03*
D19*
X146320000Y-81280000D03*
X148860000Y-81280000D03*
X151400000Y-81280000D03*
X153940000Y-81280000D03*
X156480000Y-81280000D03*
D18*
X146320000Y-111760000D03*
D19*
X148860000Y-111760000D03*
X151400000Y-111760000D03*
X153940000Y-111760000D03*
X156480000Y-111760000D03*
D16*
X162610000Y-81100000D03*
X161190000Y-81100000D03*
X162610000Y-82800000D03*
X161190000Y-82800000D03*
X161235000Y-89700000D03*
X159815000Y-89700000D03*
X161685000Y-91375000D03*
X160265000Y-91375000D03*
X161210000Y-101300000D03*
X159790000Y-101300000D03*
X161220000Y-103000000D03*
X159800000Y-103000000D03*
X163910000Y-88000000D03*
X162490000Y-88000000D03*
X164610000Y-98605000D03*
X163190000Y-98605000D03*
X162790000Y-107605000D03*
X164210000Y-107605000D03*
X163190000Y-96905000D03*
X164610000Y-96905000D03*
X162690000Y-86400000D03*
X164110000Y-86400000D03*
D20*
X158000000Y-109210000D03*
X158000000Y-107790000D03*
X161650000Y-94090000D03*
X161650000Y-95510000D03*
X158125000Y-84090000D03*
X158125000Y-85510000D03*
X156300000Y-107790000D03*
X156300000Y-109210000D03*
X160000000Y-95510000D03*
X160000000Y-94090000D03*
X156400000Y-85500000D03*
X156400000Y-84080000D03*
D16*
X159890000Y-110650000D03*
X161310000Y-110650000D03*
X160290000Y-98500000D03*
X161710000Y-98500000D03*
X159815000Y-88025000D03*
X161235000Y-88025000D03*
D20*
X153550000Y-92810000D03*
X153550000Y-91390000D03*
D21*
X159740000Y-108950000D03*
X161400000Y-108950000D03*
X160170000Y-96850000D03*
X161830000Y-96850000D03*
X159670000Y-86400000D03*
X161330000Y-86400000D03*
D16*
X164210000Y-105905000D03*
X162790000Y-105905000D03*
X164550000Y-94300000D03*
X163130000Y-94300000D03*
X161085000Y-84750000D03*
X159665000Y-84750000D03*
D21*
X142770000Y-87900000D03*
X144430000Y-87900000D03*
X148430000Y-87900000D03*
X146770000Y-87900000D03*
X152430000Y-87900000D03*
X150770000Y-87900000D03*
D16*
X145640000Y-91305000D03*
X147060000Y-91305000D03*
X142880000Y-86200000D03*
X144300000Y-86200000D03*
X148310000Y-86200000D03*
X146890000Y-86200000D03*
X152210000Y-86200000D03*
X150790000Y-86200000D03*
X144310000Y-89600000D03*
X142890000Y-89600000D03*
X146890000Y-89600000D03*
X148310000Y-89600000D03*
X150890000Y-89600000D03*
X152310000Y-89600000D03*
D20*
X153250000Y-95610000D03*
X153250000Y-94190000D03*
D21*
X148470000Y-91305000D03*
X150130000Y-91305000D03*
D12*
X146800000Y-93205000D03*
D14*
X183750000Y-85500000D03*
D13*
X172500000Y-79250000D03*
D14*
X165500000Y-79500000D03*
D22*
X174275000Y-88135000D03*
X174275000Y-89405000D03*
X174275000Y-86865000D03*
D23*
X179770000Y-87500000D03*
D24*
X177450000Y-87500000D03*
D22*
X174275000Y-85595000D03*
X174275000Y-97130000D03*
X174275000Y-98400000D03*
X174275000Y-95860000D03*
D23*
X179770000Y-96495000D03*
D25*
X177570000Y-96495000D03*
D22*
X174275000Y-94590000D03*
X174275000Y-106040000D03*
X174275000Y-107310000D03*
X174275000Y-104770000D03*
D23*
X179770000Y-105405000D03*
D25*
X177570000Y-105405000D03*
D22*
X174275000Y-103500000D03*
D12*
X174500000Y-100250000D03*
X176250000Y-93400000D03*
X154299861Y-98500000D03*
X176850000Y-99299991D03*
X164149921Y-113005000D03*
X174900000Y-109900000D03*
X149711603Y-99522136D03*
X149600000Y-100500000D03*
X177450000Y-102200000D03*
X177550000Y-93300000D03*
X151750000Y-104400000D03*
X160574957Y-92719540D03*
X145550000Y-100500000D03*
X152250000Y-91250006D03*
X158250000Y-112054994D03*
X177267753Y-83754618D03*
X145750000Y-101755016D03*
X174900000Y-112000000D03*
X156000000Y-95505000D03*
X151185000Y-108915000D03*
X169000000Y-85530010D03*
X169250000Y-109605000D03*
X168963201Y-97917119D03*
X164284254Y-99941045D03*
X162075976Y-104487519D03*
X163900000Y-89205000D03*
X164250000Y-110755000D03*
X155500000Y-99755000D03*
X156400000Y-82975000D03*
X146750000Y-109250000D03*
X144550000Y-96350000D03*
X144550000Y-95050000D03*
X149600000Y-87900000D03*
X145600000Y-87900000D03*
X159000000Y-99755000D03*
X164746737Y-95395004D03*
X160899998Y-79005000D03*
X174250000Y-101950000D03*
X162393199Y-103474992D03*
X174250000Y-93000000D03*
X162340955Y-90189166D03*
X174750000Y-84000000D03*
X161900000Y-79305000D03*
X178763493Y-102088603D03*
X167960000Y-108140000D03*
X178450000Y-83255000D03*
X163000000Y-79805000D03*
X167999992Y-96755000D03*
X179972175Y-93227175D03*
X162474979Y-93167873D03*
X151759364Y-92349280D03*
X152050000Y-100000000D03*
X153500000Y-105505000D03*
X142750002Y-102255000D03*
X143250000Y-110255000D03*
X161600000Y-105505000D03*
X157700000Y-82905000D03*
X149700000Y-89600000D03*
X145600000Y-89600000D03*
X158200000Y-110400000D03*
X158012660Y-99987340D03*
X163924990Y-92900000D03*
X159000000Y-83205000D03*
X169243857Y-106991177D03*
X163037340Y-104767660D03*
X163250000Y-84805000D03*
X169000000Y-88005000D03*
X169014203Y-94983000D03*
X164411160Y-91967483D03*
X159900000Y-105800000D03*
X142750000Y-99000000D03*
X159393923Y-107531396D03*
X152950004Y-101300000D03*
X156225010Y-92850000D03*
X156274808Y-87623751D03*
X154250000Y-103000000D03*
X157160782Y-91646103D03*
X156250000Y-91004962D03*
X154340616Y-95630768D03*
X160698915Y-107480021D03*
X158981218Y-98165420D03*
X156275000Y-88675000D03*
X152405676Y-93112355D03*
X151000000Y-93000000D03*
X158700000Y-105705000D03*
X158670369Y-95224666D03*
X156400000Y-86625000D03*
X140250000Y-96250000D03*
X153550000Y-102200000D03*
D11*
X164250000Y-110755000D02*
X164250000Y-109040000D01*
X164250000Y-109040000D02*
X164210000Y-109000000D01*
X150650000Y-97400000D02*
X150605001Y-97355001D01*
X150605001Y-97355001D02*
X150549999Y-97355001D01*
X150549999Y-97355001D02*
X150150000Y-97755000D01*
X150150000Y-97755000D02*
X150395000Y-97755000D01*
X150395000Y-97755000D02*
X150550000Y-97600000D01*
X150650000Y-97400000D02*
X151850000Y-97400000D01*
X145600000Y-97400000D02*
X150650000Y-97400000D01*
X160000000Y-93294497D02*
X160574957Y-92719540D01*
X160000000Y-94090000D02*
X160000000Y-93294497D01*
X150945000Y-91305000D02*
X150999994Y-91250006D01*
X150999994Y-91250006D02*
X152250000Y-91250006D01*
X153550000Y-91390000D02*
X152389994Y-91390000D01*
X152389994Y-91390000D02*
X152250000Y-91250006D01*
X153550000Y-91390000D02*
X153390000Y-91390000D01*
X150945000Y-91305000D02*
X150130000Y-91305000D01*
D26*
X169000000Y-83900000D02*
X169000000Y-82055000D01*
X169000000Y-82055000D02*
X169050000Y-82005000D01*
X169250000Y-111155000D02*
X169250000Y-112405000D01*
X169250000Y-112405000D02*
X168650000Y-113005000D01*
X169000000Y-99505000D02*
X169000000Y-100555000D01*
X169000000Y-100555000D02*
X168550000Y-101005000D01*
D11*
X166250000Y-79205000D02*
X167050000Y-79205000D01*
X167050000Y-79205000D02*
X167250000Y-79005000D01*
X169000000Y-83900000D02*
X169000000Y-85530010D01*
X169250000Y-111155000D02*
X169250000Y-109605000D01*
X169000000Y-99505000D02*
X169000000Y-97953918D01*
X169000000Y-97953918D02*
X168963201Y-97917119D01*
X164610000Y-98605000D02*
X164610000Y-99615299D01*
X164610000Y-99615299D02*
X164284254Y-99941045D01*
X163910000Y-89195000D02*
X163900000Y-89205000D01*
X163910000Y-88000000D02*
X163910000Y-89195000D01*
X156400000Y-83890000D02*
X156400000Y-82975000D01*
X156600000Y-84090000D02*
X156400000Y-83890000D01*
X144550000Y-96350000D02*
X145600000Y-97400000D01*
X151400000Y-94450000D02*
X152200000Y-95250000D01*
X150200000Y-94450000D02*
X151400000Y-94450000D01*
X150100000Y-94350000D02*
X150200000Y-94450000D01*
X150100000Y-94000000D02*
X150100000Y-94350000D01*
X149450000Y-93350000D02*
X150100000Y-94000000D01*
X144950000Y-93350000D02*
X149450000Y-93350000D01*
X144550000Y-93750000D02*
X144950000Y-93350000D01*
X144550000Y-95050000D02*
X144550000Y-93750000D01*
X150670000Y-87900000D02*
X149600000Y-87900000D01*
X145600000Y-87900000D02*
X146770000Y-87900000D01*
X144430000Y-87900000D02*
X145600000Y-87900000D01*
X156300000Y-110200000D02*
X156480000Y-110380000D01*
X156480000Y-110380000D02*
X156480000Y-111760000D01*
X156300000Y-109210000D02*
X156300000Y-110200000D01*
X177570000Y-105405000D02*
X179770000Y-105405000D01*
D26*
X179770000Y-105405000D02*
X181550000Y-105405000D01*
X181550000Y-105405000D02*
X181650000Y-105305000D01*
X183750000Y-102750000D02*
X183750000Y-104605000D01*
D11*
X177570000Y-96495000D02*
X179770000Y-96495000D01*
D26*
X179770000Y-96495000D02*
X181560000Y-96495000D01*
X181560000Y-96495000D02*
X181650000Y-96405000D01*
X183750000Y-94250000D02*
X183750000Y-95705000D01*
D11*
X177450000Y-87500000D02*
X179770000Y-87500000D01*
D26*
X179770000Y-87500000D02*
X181555000Y-87500000D01*
X181555000Y-87500000D02*
X181650000Y-87405000D01*
X183750000Y-85500000D02*
X183750000Y-87405000D01*
D11*
X174250000Y-101950000D02*
X174250000Y-103475000D01*
X174250000Y-103475000D02*
X174275000Y-103500000D01*
X161220000Y-103000000D02*
X161918207Y-103000000D01*
X161918207Y-103000000D02*
X162393199Y-103474992D01*
X161220000Y-103000000D02*
X161220000Y-101310000D01*
X161220000Y-101310000D02*
X161210000Y-101300000D01*
X174275000Y-94590000D02*
X174275000Y-93025000D01*
X174275000Y-93025000D02*
X174250000Y-93000000D01*
X161685000Y-91375000D02*
X161685000Y-90735000D01*
X161685000Y-90735000D02*
X161235000Y-90285000D01*
X161235000Y-90285000D02*
X161235000Y-89700000D01*
X161235000Y-89700000D02*
X161851789Y-89700000D01*
X161851789Y-89700000D02*
X162340955Y-90189166D01*
X161685000Y-91375000D02*
X161685000Y-91220000D01*
X161900000Y-79305000D02*
X161900000Y-80220000D01*
X161900000Y-80220000D02*
X162610000Y-80930000D01*
X162610000Y-80930000D02*
X162610000Y-81100000D01*
X174275000Y-84475000D02*
X174750000Y-84000000D01*
X174275000Y-85595000D02*
X174275000Y-84475000D01*
X162610000Y-81100000D02*
X162610000Y-82800000D01*
X162474979Y-93435021D02*
X162474979Y-93167873D01*
X161820000Y-94090000D02*
X162474979Y-93435021D01*
X161650000Y-94090000D02*
X161820000Y-94090000D01*
X145640000Y-91305000D02*
X145640000Y-89640000D01*
X145640000Y-89640000D02*
X145600000Y-89600000D01*
X157700000Y-82905000D02*
X158125000Y-83330000D01*
X158125000Y-83330000D02*
X158125000Y-84090000D01*
X150890000Y-89600000D02*
X149700000Y-89600000D01*
X145600000Y-89600000D02*
X146890000Y-89600000D01*
X144310000Y-89600000D02*
X145600000Y-89600000D01*
X158000000Y-109210000D02*
X158000000Y-110200000D01*
X158000000Y-110200000D02*
X158200000Y-110400000D01*
X157300000Y-100700000D02*
X158012660Y-99987340D01*
X157300000Y-102200000D02*
X157300000Y-100700000D01*
X158100000Y-103000000D02*
X157300000Y-102200000D01*
X159800000Y-103000000D02*
X158100000Y-103000000D01*
X158100000Y-103000000D02*
X158100000Y-104000000D01*
X163358480Y-92333490D02*
X163924990Y-92900000D01*
X161223490Y-92333490D02*
X163358480Y-92333490D01*
X160265000Y-91375000D02*
X161223490Y-92333490D01*
X160265000Y-91375000D02*
X159100000Y-91375000D01*
X159100000Y-91375000D02*
X158175000Y-90450000D01*
X158175000Y-90450000D02*
X158175000Y-90350000D01*
X158850000Y-82105000D02*
X158850000Y-83055000D01*
X158850000Y-83055000D02*
X159000000Y-83205000D01*
X159600000Y-82000000D02*
X159495000Y-82105000D01*
X159495000Y-82105000D02*
X158850000Y-82105000D01*
X159600000Y-82000000D02*
X160390000Y-82000000D01*
X160390000Y-82000000D02*
X161190000Y-82800000D01*
D26*
X174325000Y-104770000D02*
X174325000Y-107310000D01*
X174325000Y-104770000D02*
X173250000Y-104770000D01*
X173250000Y-104770000D02*
X172665000Y-105355000D01*
X172665000Y-105355000D02*
X169250000Y-105355000D01*
D11*
X174325000Y-106040000D02*
X174325000Y-107310000D01*
X174325000Y-104770000D02*
X174325000Y-106040000D01*
X169250000Y-105355000D02*
X169250000Y-106985034D01*
X169250000Y-106985034D02*
X169243857Y-106991177D01*
X163242660Y-104767660D02*
X163037340Y-104767660D01*
X164210000Y-105905000D02*
X164210000Y-105735000D01*
X164210000Y-105735000D02*
X163242660Y-104767660D01*
X164210000Y-105905000D02*
X164210000Y-107605000D01*
D26*
X174275000Y-89405000D02*
X169295000Y-89405000D01*
X169295000Y-89405000D02*
X169000000Y-89700000D01*
X174275000Y-86865000D02*
X174275000Y-89405000D01*
D11*
X174275000Y-89405000D02*
X170295000Y-89405000D01*
X174275000Y-88135000D02*
X174275000Y-86865000D01*
X174275000Y-89405000D02*
X174275000Y-88135000D01*
X163195000Y-84750000D02*
X163250000Y-84805000D01*
X161085000Y-84750000D02*
X163195000Y-84750000D01*
X164110000Y-86230000D02*
X163250000Y-85370000D01*
X163250000Y-85370000D02*
X163250000Y-84805000D01*
X164110000Y-86400000D02*
X164110000Y-86230000D01*
X169000000Y-88005000D02*
X169000000Y-89700000D01*
X169000000Y-93705000D02*
X169000000Y-94968797D01*
X169000000Y-94968797D02*
X169014203Y-94983000D01*
D26*
X174275000Y-95860000D02*
X173380000Y-95860000D01*
X173380000Y-95860000D02*
X171225000Y-93705000D01*
X171225000Y-93705000D02*
X169000000Y-93705000D01*
X174275000Y-98400000D02*
X174275000Y-95860000D01*
D11*
X164650000Y-94300000D02*
X164650000Y-92206323D01*
X163950000Y-95000000D02*
X164650000Y-94300000D01*
X164650000Y-92206323D02*
X164411160Y-91967483D01*
X164610000Y-96905000D02*
X164610000Y-96283587D01*
X164610000Y-96283587D02*
X163950000Y-95623587D01*
X163950000Y-95623587D02*
X163950000Y-95000000D01*
X174275000Y-95860000D02*
X174050000Y-95860000D01*
X174275000Y-97130000D02*
X174275000Y-95860000D01*
X174275000Y-98400000D02*
X174275000Y-97130000D01*
X159300000Y-79700000D02*
X158855000Y-79700000D01*
X158855000Y-79700000D02*
X158850000Y-79705000D01*
X161190000Y-81100000D02*
X161190000Y-80930000D01*
X161190000Y-80930000D02*
X160565000Y-80305000D01*
X160565000Y-80305000D02*
X159905000Y-80305000D01*
X159905000Y-80305000D02*
X159300000Y-79700000D01*
X159815000Y-89725000D02*
X159815000Y-89590000D01*
X159815000Y-89590000D02*
X158175000Y-87950000D01*
X158700000Y-101600000D02*
X158100000Y-101600000D01*
X159000000Y-101300000D02*
X158700000Y-101600000D01*
X159790000Y-101300000D02*
X159000000Y-101300000D01*
X160349989Y-106249989D02*
X159900000Y-105800000D01*
X162445011Y-106249989D02*
X160349989Y-106249989D01*
X162790000Y-105905000D02*
X162445011Y-106249989D01*
X159665000Y-84750000D02*
X155725000Y-84750000D01*
X155725000Y-84750000D02*
X155300000Y-85175000D01*
X155300000Y-85175000D02*
X155300000Y-88760002D01*
X155300000Y-88760002D02*
X158509998Y-91970000D01*
X158509998Y-91970000D02*
X158509998Y-94005000D01*
X158509998Y-94005000D02*
X159309998Y-94805000D01*
X159309998Y-94805000D02*
X162645000Y-94805000D01*
X162645000Y-94805000D02*
X163130000Y-94320000D01*
X163130000Y-94320000D02*
X163130000Y-94300000D01*
X159900000Y-105800000D02*
X160500000Y-105200000D01*
X160500000Y-105200000D02*
X160500000Y-100500000D01*
X160500000Y-100500000D02*
X161000000Y-100000000D01*
X161000000Y-100000000D02*
X163079973Y-100000000D01*
X163079973Y-100000000D02*
X163840001Y-99239972D01*
X163840001Y-99239972D02*
X163840001Y-96149999D01*
X163840001Y-96149999D02*
X163130000Y-95439998D01*
X163130000Y-95439998D02*
X163130000Y-94300000D01*
X162790000Y-105505000D02*
X162790000Y-105675000D01*
X143649999Y-98100001D02*
X142750000Y-99000000D01*
X143649999Y-93405001D02*
X143649999Y-98100001D01*
X147060000Y-91305000D02*
X147060000Y-91475000D01*
X146330000Y-92205000D02*
X144850000Y-92205000D01*
X144850000Y-92205000D02*
X143649999Y-93405001D01*
X147060000Y-91475000D02*
X146330000Y-92205000D01*
X147060000Y-91305000D02*
X147060000Y-91045000D01*
X147060000Y-91045000D02*
X147600000Y-90505000D01*
X147600000Y-90505000D02*
X147600000Y-83400000D01*
X147600000Y-83400000D02*
X148400000Y-82600000D01*
X148400000Y-82600000D02*
X152620000Y-82600000D01*
X152620000Y-82600000D02*
X153940000Y-81280000D01*
X148470000Y-91305000D02*
X147060000Y-91305000D01*
X159890000Y-108027473D02*
X159393923Y-107531396D01*
X159890000Y-110650000D02*
X159890000Y-108027473D01*
X159890000Y-110650000D02*
X159890000Y-109100000D01*
X159890000Y-109100000D02*
X159740000Y-108950000D01*
X156834319Y-97038672D02*
X153350003Y-100522988D01*
X153350003Y-100900001D02*
X152950004Y-101300000D01*
X156834319Y-96850000D02*
X156834319Y-97038672D01*
X153350003Y-100522988D02*
X153350003Y-100900001D01*
X156834319Y-96600000D02*
X156834319Y-96850000D01*
X160170000Y-96850000D02*
X157050000Y-96850000D01*
X156834319Y-95284319D02*
X156834319Y-96600000D01*
X157050000Y-96850000D02*
X156834319Y-96850000D01*
X156834319Y-96634319D02*
X157050000Y-96850000D01*
X156834319Y-96600000D02*
X156834319Y-96634319D01*
X156225010Y-92850000D02*
X156225010Y-94675010D01*
X156225010Y-94675010D02*
X156834319Y-95284319D01*
X160290000Y-98500000D02*
X160290000Y-96970000D01*
X160290000Y-96970000D02*
X160170000Y-96850000D01*
X159770000Y-86450000D02*
X159770000Y-88105000D01*
X159770000Y-88105000D02*
X159815000Y-88150000D01*
X156274808Y-87623751D02*
X156801249Y-87623751D01*
X156801249Y-87623751D02*
X157975000Y-86450000D01*
X157975000Y-86450000D02*
X159770000Y-86450000D01*
X151681998Y-103000000D02*
X154250000Y-103000000D01*
X142890000Y-97586998D02*
X142024999Y-98451999D01*
X145721997Y-103299999D02*
X151381999Y-103299999D01*
X151381999Y-103299999D02*
X151681998Y-103000000D01*
X142024999Y-98451999D02*
X142024999Y-99603001D01*
X142890000Y-89600000D02*
X142890000Y-97586998D01*
X142024999Y-99603001D02*
X145721997Y-103299999D01*
X142770000Y-87900000D02*
X142770000Y-89480000D01*
X142770000Y-89480000D02*
X142890000Y-89600000D01*
X142880000Y-86200000D02*
X142880000Y-87790000D01*
X142880000Y-87790000D02*
X142770000Y-87900000D01*
X142890000Y-89480000D02*
X142770000Y-89600000D01*
X142880000Y-87890000D02*
X142890000Y-87900000D01*
X148310000Y-89600000D02*
X148310000Y-89770000D01*
X155718100Y-92046102D02*
X156760783Y-92046102D01*
X154091999Y-90420001D02*
X155718100Y-92046102D01*
X152006971Y-90420001D02*
X154091999Y-90420001D01*
X151971972Y-90455000D02*
X152006971Y-90420001D01*
X148995000Y-90455000D02*
X151971972Y-90455000D01*
X148310000Y-89770000D02*
X148995000Y-90455000D01*
X156760783Y-92046102D02*
X157160782Y-91646103D01*
X148430000Y-87900000D02*
X148430000Y-89480000D01*
X148430000Y-89480000D02*
X148310000Y-89600000D01*
X148310000Y-86200000D02*
X148310000Y-87780000D01*
X148310000Y-87780000D02*
X148430000Y-87900000D01*
X154845038Y-89600000D02*
X156250000Y-91004962D01*
X152310000Y-89600000D02*
X154845038Y-89600000D01*
X152430000Y-87900000D02*
X152430000Y-89480000D01*
X152430000Y-89480000D02*
X152310000Y-89600000D01*
X152210000Y-86200000D02*
X152210000Y-87780000D01*
X152210000Y-87780000D02*
X152330000Y-87900000D01*
X153250000Y-95610000D02*
X154319848Y-95610000D01*
X154319848Y-95610000D02*
X154340616Y-95630768D01*
X144300000Y-86200000D02*
X144300000Y-84340000D01*
X144300000Y-84340000D02*
X143780000Y-83820000D01*
X146890000Y-86200000D02*
X146890000Y-85390000D01*
X146890000Y-85390000D02*
X146320000Y-84820000D01*
X146320000Y-84820000D02*
X146320000Y-83820000D01*
X146190000Y-83950000D02*
X146320000Y-83820000D01*
X148860000Y-83820000D02*
X149800000Y-84760000D01*
X149800000Y-84760000D02*
X149800000Y-85000000D01*
X149800000Y-85000000D02*
X150790000Y-85990000D01*
X150790000Y-85990000D02*
X150790000Y-86200000D01*
X162790000Y-109000000D02*
X161450000Y-109000000D01*
X161450000Y-109000000D02*
X161400000Y-108950000D01*
X161400000Y-108181106D02*
X160698915Y-107480021D01*
X161400000Y-108950000D02*
X161400000Y-108181106D01*
X161455000Y-109005000D02*
X161400000Y-108950000D01*
X161400000Y-108950000D02*
X161400000Y-110560000D01*
X161400000Y-110560000D02*
X161310000Y-110650000D01*
X161710000Y-98500000D02*
X161710000Y-96970000D01*
X161710000Y-96970000D02*
X161830000Y-96850000D01*
X158981218Y-98165420D02*
X159381217Y-98565419D01*
X159381217Y-98565419D02*
X159381217Y-99063215D01*
X159381217Y-99063215D02*
X159725001Y-99406999D01*
X159725001Y-99406999D02*
X161548001Y-99406999D01*
X161548001Y-99406999D02*
X161710000Y-99245000D01*
X161710000Y-99245000D02*
X161710000Y-98500000D01*
X161710000Y-98500000D02*
X163185000Y-98500000D01*
X163185000Y-98500000D02*
X163290000Y-98605000D01*
X162490000Y-88000000D02*
X161260000Y-88000000D01*
X161260000Y-88000000D02*
X161235000Y-88025000D01*
X161430000Y-86450000D02*
X161300000Y-86580000D01*
X161300000Y-86580000D02*
X161300000Y-87735002D01*
X161300000Y-87735002D02*
X161430000Y-87865002D01*
X161235000Y-88025000D02*
X161235000Y-88215000D01*
X158175000Y-88875000D02*
X157040685Y-88875000D01*
X161235000Y-88215000D02*
X160530001Y-88919999D01*
X156840685Y-88675000D02*
X156275000Y-88675000D01*
X160530001Y-88919999D02*
X160525000Y-88919999D01*
X160525000Y-88919999D02*
X160525000Y-90400000D01*
X160525000Y-90400000D02*
X160379999Y-90545001D01*
X160379999Y-90545001D02*
X159145001Y-90545001D01*
X159145001Y-90545001D02*
X158900000Y-90300000D01*
X158900000Y-90300000D02*
X158900000Y-89600000D01*
X158900000Y-89600000D02*
X158175000Y-88875000D01*
X157040685Y-88875000D02*
X156840685Y-88675000D01*
X152708031Y-92810000D02*
X152405676Y-93112355D01*
X153550000Y-92810000D02*
X152708031Y-92810000D01*
X152440000Y-94190000D02*
X153250000Y-94190000D01*
X152440000Y-94190000D02*
X151250000Y-93000000D01*
X151250000Y-93000000D02*
X151000000Y-93000000D01*
X159150000Y-106700000D02*
X159050000Y-106800000D01*
X159050000Y-106800000D02*
X158060000Y-107790000D01*
X159099999Y-106549999D02*
X159099999Y-106750001D01*
X159099999Y-106750001D02*
X159050000Y-106800000D01*
X161310000Y-106700000D02*
X159250000Y-106700000D01*
X159099999Y-106549999D02*
X159250000Y-106700000D01*
X159250000Y-106700000D02*
X159150000Y-106700000D01*
X158700000Y-105705000D02*
X159099999Y-106104999D01*
X159099999Y-106104999D02*
X159099999Y-106549999D01*
X162790000Y-107605000D02*
X162215000Y-107605000D01*
X162215000Y-107605000D02*
X161310000Y-106700000D01*
X158060000Y-107790000D02*
X158000000Y-107790000D01*
X156300000Y-107790000D02*
X158000000Y-107790000D01*
X163190000Y-96905000D02*
X163190000Y-96305000D01*
X163190000Y-96305000D02*
X162395000Y-95510000D01*
X162395000Y-95510000D02*
X161650000Y-95510000D01*
X160000000Y-95510000D02*
X161650000Y-95510000D01*
X158670369Y-95224666D02*
X158750703Y-95305000D01*
X158750703Y-95305000D02*
X159795000Y-95305000D01*
X159795000Y-95305000D02*
X160000000Y-95510000D01*
X162690000Y-86400000D02*
X162690000Y-86230000D01*
X162690000Y-86230000D02*
X162049999Y-85589999D01*
X162049999Y-85589999D02*
X162049999Y-85574999D01*
X158985000Y-85510000D02*
X158400000Y-85510000D01*
X162049999Y-85574999D02*
X159059999Y-85574999D01*
X159059999Y-85574999D02*
X159054999Y-85579999D01*
X158400000Y-85510000D02*
X158440000Y-85550000D01*
X159054999Y-85579999D02*
X158985000Y-85510000D01*
X156400000Y-85500000D02*
X156400000Y-86625000D01*
X158125000Y-85510000D02*
X156410000Y-85510000D01*
X156410000Y-85510000D02*
X156400000Y-85500000D01*
D27*
G36*
X160199310Y-78535930D02*
X160073142Y-78839778D01*
X160072855Y-79168779D01*
X160198493Y-79472846D01*
X160430928Y-79705688D01*
X160544869Y-79753000D01*
X160133646Y-79753000D01*
X159690323Y-79309677D01*
X159571278Y-79230133D01*
X159555591Y-79146763D01*
X159462073Y-79001433D01*
X159319381Y-78903936D01*
X159150000Y-78869635D01*
X158550000Y-78869635D01*
X158391763Y-78899409D01*
X158246433Y-78992927D01*
X158148936Y-79135619D01*
X158114635Y-79305000D01*
X158114635Y-80105000D01*
X158144409Y-80263237D01*
X158237927Y-80408567D01*
X158380619Y-80506064D01*
X158550000Y-80540365D01*
X159150000Y-80540365D01*
X159308237Y-80510591D01*
X159321445Y-80502091D01*
X159514677Y-80695323D01*
X159693758Y-80814982D01*
X159905000Y-80857000D01*
X160336354Y-80857000D01*
X160429635Y-80950281D01*
X160429635Y-81455884D01*
X160390000Y-81448000D01*
X159600000Y-81448000D01*
X159504289Y-81467038D01*
X159462073Y-81401433D01*
X159319381Y-81303936D01*
X159150000Y-81269635D01*
X158550000Y-81269635D01*
X158391763Y-81299409D01*
X158246433Y-81392927D01*
X158148936Y-81535619D01*
X158114635Y-81705000D01*
X158114635Y-82181709D01*
X157865222Y-82078144D01*
X157536221Y-82077857D01*
X157232154Y-82203495D01*
X156999312Y-82435930D01*
X156873144Y-82739778D01*
X156872857Y-83068779D01*
X156979971Y-83328014D01*
X156979936Y-83328000D01*
X156633750Y-83328000D01*
X156527000Y-83434750D01*
X156527000Y-83953000D01*
X156547000Y-83953000D01*
X156547000Y-84198000D01*
X155725000Y-84198000D01*
X155679753Y-84207000D01*
X155584750Y-84207000D01*
X155561161Y-84230589D01*
X155513758Y-84240018D01*
X155334677Y-84359677D01*
X154909677Y-84784677D01*
X154790018Y-84963758D01*
X154751231Y-85158758D01*
X154748000Y-85175000D01*
X154748000Y-88760002D01*
X154790018Y-88971244D01*
X154841305Y-89048000D01*
X153059640Y-89048000D01*
X153040591Y-88946763D01*
X152982000Y-88855711D01*
X152982000Y-88816173D01*
X153038237Y-88805591D01*
X153183567Y-88712073D01*
X153281064Y-88569381D01*
X153315365Y-88400000D01*
X153315365Y-87400000D01*
X153285591Y-87241763D01*
X153192073Y-87096433D01*
X153049381Y-86998936D01*
X152880000Y-86964635D01*
X152867564Y-86964635D01*
X152936064Y-86864381D01*
X152970365Y-86695000D01*
X152970365Y-85705000D01*
X152940591Y-85546763D01*
X152847073Y-85401433D01*
X152704381Y-85303936D01*
X152535000Y-85269635D01*
X151885000Y-85269635D01*
X151726763Y-85299409D01*
X151581433Y-85392927D01*
X151499120Y-85513396D01*
X151427073Y-85401433D01*
X151284381Y-85303936D01*
X151115000Y-85269635D01*
X150850281Y-85269635D01*
X150352000Y-84771354D01*
X150352000Y-84760000D01*
X150345682Y-84728237D01*
X150309982Y-84548758D01*
X150190323Y-84369677D01*
X149989556Y-84168910D01*
X150036795Y-84055147D01*
X150037204Y-83586907D01*
X149858394Y-83154154D01*
X149856244Y-83152000D01*
X150403183Y-83152000D01*
X150402770Y-83152412D01*
X150223205Y-83584853D01*
X150222796Y-84053093D01*
X150401606Y-84485846D01*
X150732412Y-84817230D01*
X151164853Y-84996795D01*
X151633093Y-84997204D01*
X152065846Y-84818394D01*
X152206830Y-84677655D01*
X153261950Y-84677655D01*
X153341329Y-84860065D01*
X153784916Y-85009996D01*
X154252113Y-84978761D01*
X154538671Y-84860065D01*
X154618050Y-84677655D01*
X153940000Y-83999605D01*
X153261950Y-84677655D01*
X152206830Y-84677655D01*
X152397230Y-84487588D01*
X152576795Y-84055147D01*
X152577135Y-83664916D01*
X152750004Y-83664916D01*
X152781239Y-84132113D01*
X152899935Y-84418671D01*
X153082345Y-84498050D01*
X153760395Y-83820000D01*
X154119605Y-83820000D01*
X154797655Y-84498050D01*
X154980065Y-84418671D01*
X155129996Y-83975084D01*
X155109604Y-83670065D01*
X155478000Y-83670065D01*
X155478000Y-83846250D01*
X155584750Y-83953000D01*
X156273000Y-83953000D01*
X156273000Y-83434750D01*
X156166250Y-83328000D01*
X155820064Y-83328000D01*
X155663124Y-83393007D01*
X155543007Y-83513124D01*
X155478000Y-83670065D01*
X155109604Y-83670065D01*
X155098761Y-83507887D01*
X154980065Y-83221329D01*
X154797655Y-83141950D01*
X154119605Y-83820000D01*
X153760395Y-83820000D01*
X153082345Y-83141950D01*
X152899935Y-83221329D01*
X152750004Y-83664916D01*
X152577135Y-83664916D01*
X152577204Y-83586907D01*
X152398394Y-83154154D01*
X152396244Y-83152000D01*
X152620000Y-83152000D01*
X152831242Y-83109982D01*
X153010323Y-82990323D01*
X153038301Y-82962345D01*
X153261950Y-82962345D01*
X153940000Y-83640395D01*
X154618050Y-82962345D01*
X154538671Y-82779935D01*
X154095084Y-82630004D01*
X153627887Y-82661239D01*
X153341329Y-82779935D01*
X153261950Y-82962345D01*
X153038301Y-82962345D01*
X153591090Y-82409556D01*
X153704853Y-82456795D01*
X154173093Y-82457204D01*
X154605846Y-82278394D01*
X154937230Y-81947588D01*
X155116795Y-81515147D01*
X155116796Y-81513093D01*
X155302796Y-81513093D01*
X155481606Y-81945846D01*
X155812412Y-82277230D01*
X156244853Y-82456795D01*
X156713093Y-82457204D01*
X157145846Y-82278394D01*
X157477230Y-81947588D01*
X157656795Y-81515147D01*
X157657204Y-81046907D01*
X157478394Y-80614154D01*
X157147588Y-80282770D01*
X156715147Y-80103205D01*
X156246907Y-80102796D01*
X155814154Y-80281606D01*
X155482770Y-80612412D01*
X155303205Y-81044853D01*
X155302796Y-81513093D01*
X155116796Y-81513093D01*
X155117204Y-81046907D01*
X154938394Y-80614154D01*
X154607588Y-80282770D01*
X154175147Y-80103205D01*
X153706907Y-80102796D01*
X153274154Y-80281606D01*
X152942770Y-80612412D01*
X152763205Y-81044853D01*
X152762796Y-81513093D01*
X152810590Y-81628764D01*
X152391354Y-82048000D01*
X152296643Y-82048000D01*
X152397230Y-81947588D01*
X152576795Y-81515147D01*
X152577204Y-81046907D01*
X152398394Y-80614154D01*
X152067588Y-80282770D01*
X151635147Y-80103205D01*
X151166907Y-80102796D01*
X150734154Y-80281606D01*
X150402770Y-80612412D01*
X150223205Y-81044853D01*
X150222796Y-81513093D01*
X150401606Y-81945846D01*
X150503582Y-82048000D01*
X149785622Y-82048000D01*
X149796615Y-82037007D01*
X149717657Y-81958049D01*
X149900065Y-81878671D01*
X150049996Y-81435084D01*
X150018761Y-80967887D01*
X149900065Y-80681329D01*
X149717655Y-80601950D01*
X149039605Y-81280000D01*
X149053748Y-81294143D01*
X148874143Y-81473748D01*
X148860000Y-81459605D01*
X148239725Y-82079880D01*
X148188758Y-82090018D01*
X148009677Y-82209677D01*
X147209677Y-83009677D01*
X147195440Y-83030985D01*
X146987588Y-82822770D01*
X146555147Y-82643205D01*
X146086907Y-82642796D01*
X145654154Y-82821606D01*
X145322770Y-83152412D01*
X145143205Y-83584853D01*
X145142796Y-84053093D01*
X145321606Y-84485846D01*
X145652412Y-84817230D01*
X145777806Y-84869298D01*
X145810018Y-85031242D01*
X145929677Y-85210323D01*
X146200890Y-85481536D01*
X146163936Y-85535619D01*
X146129635Y-85705000D01*
X146129635Y-86695000D01*
X146159409Y-86853237D01*
X146236475Y-86973000D01*
X146235065Y-86973000D01*
X146078124Y-87038007D01*
X145958007Y-87158124D01*
X145893000Y-87315064D01*
X145893000Y-87666250D01*
X145999750Y-87773000D01*
X146643000Y-87773000D01*
X146643000Y-87753000D01*
X146897000Y-87753000D01*
X146897000Y-87773000D01*
X146917000Y-87773000D01*
X146917000Y-88027000D01*
X146897000Y-88027000D01*
X146897000Y-88047000D01*
X146643000Y-88047000D01*
X146643000Y-88027000D01*
X145999750Y-88027000D01*
X145893000Y-88133750D01*
X145893000Y-88484936D01*
X145958007Y-88641876D01*
X146078124Y-88761993D01*
X146235065Y-88827000D01*
X146238152Y-88827000D01*
X146163936Y-88935619D01*
X146154049Y-88984440D01*
X146069070Y-88899312D01*
X145765222Y-88773144D01*
X145436221Y-88772857D01*
X145132154Y-88898495D01*
X145047424Y-88983077D01*
X145040591Y-88946763D01*
X144963525Y-88827000D01*
X144964935Y-88827000D01*
X145121876Y-88761993D01*
X145241993Y-88641876D01*
X145307000Y-88484936D01*
X145307000Y-88133750D01*
X145200250Y-88027000D01*
X144557000Y-88027000D01*
X144557000Y-88047000D01*
X144303000Y-88047000D01*
X144303000Y-88027000D01*
X144283000Y-88027000D01*
X144283000Y-87773000D01*
X144303000Y-87773000D01*
X144303000Y-87753000D01*
X144557000Y-87753000D01*
X144557000Y-87773000D01*
X145200250Y-87773000D01*
X145307000Y-87666250D01*
X145307000Y-87315064D01*
X145241993Y-87158124D01*
X145121876Y-87038007D01*
X144964935Y-86973000D01*
X144951848Y-86973000D01*
X145026064Y-86864381D01*
X145060365Y-86695000D01*
X145060365Y-85705000D01*
X145030591Y-85546763D01*
X144937073Y-85401433D01*
X144852000Y-85343305D01*
X144852000Y-84855095D01*
X144931064Y-84739381D01*
X144965365Y-84570000D01*
X144965365Y-83070000D01*
X144935591Y-82911763D01*
X144842073Y-82766433D01*
X144699381Y-82668936D01*
X144530000Y-82634635D01*
X143030000Y-82634635D01*
X142871763Y-82664409D01*
X142726433Y-82757927D01*
X142628936Y-82900619D01*
X142594635Y-83070000D01*
X142594635Y-84570000D01*
X142624409Y-84728237D01*
X142717927Y-84873567D01*
X142860619Y-84971064D01*
X143030000Y-85005365D01*
X143748000Y-85005365D01*
X143748000Y-85343657D01*
X143671433Y-85392927D01*
X143589120Y-85513396D01*
X143517073Y-85401433D01*
X143374381Y-85303936D01*
X143205000Y-85269635D01*
X142555000Y-85269635D01*
X142396763Y-85299409D01*
X142251433Y-85392927D01*
X142153936Y-85535619D01*
X142119635Y-85705000D01*
X142119635Y-86695000D01*
X142149409Y-86853237D01*
X142231774Y-86981236D01*
X142161763Y-86994409D01*
X142016433Y-87087927D01*
X141918936Y-87230619D01*
X141884635Y-87400000D01*
X141884635Y-88400000D01*
X141914409Y-88558237D01*
X142007927Y-88703567D01*
X142150619Y-88801064D01*
X142218000Y-88814709D01*
X142218000Y-88856493D01*
X142163936Y-88935619D01*
X142129635Y-89105000D01*
X142129635Y-90095000D01*
X142159409Y-90253237D01*
X142252927Y-90398567D01*
X142338000Y-90456695D01*
X142338000Y-97358352D01*
X141634676Y-98061676D01*
X141515017Y-98240757D01*
X141503370Y-98299312D01*
X141472999Y-98451999D01*
X141472999Y-99603001D01*
X141515017Y-99814243D01*
X141634676Y-99993324D01*
X143179042Y-101537690D01*
X142915224Y-101428144D01*
X142586223Y-101427857D01*
X142282156Y-101553495D01*
X142049314Y-101785930D01*
X141923146Y-102089778D01*
X141922859Y-102418779D01*
X142048497Y-102722846D01*
X142280932Y-102955688D01*
X142584780Y-103081856D01*
X142913781Y-103082143D01*
X143217848Y-102956505D01*
X143450690Y-102724070D01*
X143576858Y-102420222D01*
X143577145Y-102091221D01*
X143467703Y-101826351D01*
X145331674Y-103690322D01*
X145510755Y-103809981D01*
X145721997Y-103851999D01*
X151381999Y-103851999D01*
X151593241Y-103809981D01*
X151772322Y-103690322D01*
X151910644Y-103552000D01*
X153632502Y-103552000D01*
X153780930Y-103700688D01*
X154084778Y-103826856D01*
X154413779Y-103827143D01*
X154717846Y-103701505D01*
X154950688Y-103469070D01*
X155076856Y-103165222D01*
X155077143Y-102836221D01*
X154951505Y-102532154D01*
X154719070Y-102299312D01*
X154415222Y-102173144D01*
X154377024Y-102173111D01*
X154377143Y-102036221D01*
X154251505Y-101732154D01*
X154019070Y-101499312D01*
X153776918Y-101398762D01*
X153777061Y-101235347D01*
X153859985Y-101111243D01*
X153902003Y-100900001D01*
X153902003Y-100751634D01*
X157224642Y-97428995D01*
X157242680Y-97402000D01*
X158663218Y-97402000D01*
X158513372Y-97463915D01*
X158280530Y-97696350D01*
X158154362Y-98000198D01*
X158154075Y-98329199D01*
X158279713Y-98633266D01*
X158512148Y-98866108D01*
X158748323Y-98964176D01*
X158532154Y-99053495D01*
X158352389Y-99232945D01*
X158177882Y-99160484D01*
X157848881Y-99160197D01*
X157544814Y-99285835D01*
X157311972Y-99518270D01*
X157185804Y-99822118D01*
X157185619Y-100033735D01*
X156909677Y-100309677D01*
X156790018Y-100488758D01*
X156769919Y-100589803D01*
X156748000Y-100700000D01*
X156748000Y-102200000D01*
X156790018Y-102411242D01*
X156909677Y-102590323D01*
X157548000Y-103228646D01*
X157548000Y-103254744D01*
X157496433Y-103287927D01*
X157398936Y-103430619D01*
X157364635Y-103600000D01*
X157364635Y-104400000D01*
X157394409Y-104558237D01*
X157487927Y-104703567D01*
X157630619Y-104801064D01*
X157800000Y-104835365D01*
X158400000Y-104835365D01*
X158558237Y-104805591D01*
X158703567Y-104712073D01*
X158801064Y-104569381D01*
X158835365Y-104400000D01*
X158835365Y-103600000D01*
X158826333Y-103552000D01*
X159050360Y-103552000D01*
X159069409Y-103653237D01*
X159162927Y-103798567D01*
X159305619Y-103896064D01*
X159475000Y-103930365D01*
X159948000Y-103930365D01*
X159948000Y-104971354D01*
X159946314Y-104973040D01*
X159736221Y-104972857D01*
X159432154Y-105098495D01*
X159347473Y-105183028D01*
X159169070Y-105004312D01*
X158865222Y-104878144D01*
X158536221Y-104877857D01*
X158232154Y-105003495D01*
X157999312Y-105235930D01*
X157873144Y-105539778D01*
X157872857Y-105868779D01*
X157998495Y-106172846D01*
X158230930Y-106405688D01*
X158534778Y-106531856D01*
X158537496Y-106531858D01*
X158039719Y-107029635D01*
X157505000Y-107029635D01*
X157346763Y-107059409D01*
X157201433Y-107152927D01*
X157150020Y-107228173D01*
X157107073Y-107161433D01*
X156964381Y-107063936D01*
X156795000Y-107029635D01*
X155805000Y-107029635D01*
X155646763Y-107059409D01*
X155501433Y-107152927D01*
X155403936Y-107295619D01*
X155369635Y-107465000D01*
X155369635Y-108115000D01*
X155399409Y-108273237D01*
X155492927Y-108418567D01*
X155614584Y-108501691D01*
X155563124Y-108523007D01*
X155443007Y-108643124D01*
X155378000Y-108800065D01*
X155378000Y-108976250D01*
X155484750Y-109083000D01*
X156173000Y-109083000D01*
X156173000Y-109063000D01*
X156427000Y-109063000D01*
X156427000Y-109083000D01*
X156447000Y-109083000D01*
X156447000Y-109337000D01*
X156427000Y-109337000D01*
X156427000Y-109855250D01*
X156533750Y-109962000D01*
X156879936Y-109962000D01*
X157036876Y-109896993D01*
X157154703Y-109779166D01*
X157192927Y-109838567D01*
X157335619Y-109936064D01*
X157448000Y-109958822D01*
X157448000Y-110054504D01*
X157373144Y-110234778D01*
X157372857Y-110563779D01*
X157498495Y-110867846D01*
X157730930Y-111100688D01*
X158034778Y-111226856D01*
X158363779Y-111227143D01*
X158667846Y-111101505D01*
X158900688Y-110869070D01*
X159026856Y-110565222D01*
X159027143Y-110236221D01*
X158901505Y-109932154D01*
X158805883Y-109836365D01*
X158896064Y-109704381D01*
X158908083Y-109645028D01*
X158977927Y-109753567D01*
X159120619Y-109851064D01*
X159239433Y-109875125D01*
X159163936Y-109985619D01*
X159129635Y-110155000D01*
X159129635Y-111145000D01*
X159159409Y-111303237D01*
X159252927Y-111448567D01*
X159395619Y-111546064D01*
X159565000Y-111580365D01*
X160215000Y-111580365D01*
X160373237Y-111550591D01*
X160518567Y-111457073D01*
X160600880Y-111336604D01*
X160672927Y-111448567D01*
X160815619Y-111546064D01*
X160985000Y-111580365D01*
X161635000Y-111580365D01*
X161793237Y-111550591D01*
X161938567Y-111457073D01*
X162036064Y-111314381D01*
X162070365Y-111145000D01*
X162070365Y-110155000D01*
X162040591Y-109996763D01*
X161956065Y-109865408D01*
X162008237Y-109855591D01*
X162136508Y-109773051D01*
X162152927Y-109798567D01*
X162295619Y-109896064D01*
X162465000Y-109930365D01*
X163115000Y-109930365D01*
X163273237Y-109900591D01*
X163373000Y-109836395D01*
X163373000Y-111005000D01*
X163382334Y-111052789D01*
X163410197Y-111094803D01*
X163660197Y-111344803D01*
X163700590Y-111371994D01*
X163750000Y-111382000D01*
X164750000Y-111382000D01*
X164797789Y-111372666D01*
X164839803Y-111344803D01*
X165089803Y-111094803D01*
X165116994Y-111054410D01*
X165127000Y-111005000D01*
X165127000Y-108255000D01*
X165117473Y-108206739D01*
X165089442Y-108164838D01*
X164970365Y-108046712D01*
X164970365Y-107110000D01*
X164940591Y-106951763D01*
X164847073Y-106806433D01*
X164771827Y-106755020D01*
X164838567Y-106712073D01*
X164936064Y-106569381D01*
X164970365Y-106400000D01*
X164970365Y-105410000D01*
X164940591Y-105251763D01*
X164847073Y-105106433D01*
X164704381Y-105008936D01*
X164535000Y-104974635D01*
X164230281Y-104974635D01*
X163864479Y-104608833D01*
X163864483Y-104603881D01*
X163738845Y-104299814D01*
X163506410Y-104066972D01*
X163202562Y-103940804D01*
X163095279Y-103940710D01*
X163220055Y-103640214D01*
X163220342Y-103311213D01*
X163094704Y-103007146D01*
X162862269Y-102774304D01*
X162558421Y-102648136D01*
X162346804Y-102647951D01*
X162308530Y-102609677D01*
X162129449Y-102490018D01*
X161971640Y-102458628D01*
X161950591Y-102346763D01*
X161857073Y-102201433D01*
X161776977Y-102146706D01*
X161838567Y-102107073D01*
X161936064Y-101964381D01*
X161970365Y-101795000D01*
X161970365Y-100805000D01*
X161940591Y-100646763D01*
X161879612Y-100552000D01*
X163079973Y-100552000D01*
X163291215Y-100509982D01*
X163470296Y-100390323D01*
X163590507Y-100270113D01*
X163910197Y-100589803D01*
X163950590Y-100616994D01*
X164000000Y-100627000D01*
X164750000Y-100627000D01*
X164797789Y-100617666D01*
X164839803Y-100589803D01*
X165339803Y-100089803D01*
X165366994Y-100049410D01*
X165377000Y-100000000D01*
X165377000Y-95934376D01*
X165447425Y-95864074D01*
X165573593Y-95560226D01*
X165573880Y-95231225D01*
X165448242Y-94927158D01*
X165377000Y-94855791D01*
X165377000Y-94500000D01*
X165368315Y-94453841D01*
X165341035Y-94411447D01*
X165310365Y-94390491D01*
X165310365Y-93805000D01*
X165280591Y-93646763D01*
X165202000Y-93524630D01*
X165202000Y-92219442D01*
X165238016Y-92132705D01*
X165238303Y-91803704D01*
X165112665Y-91499637D01*
X164880230Y-91266795D01*
X164576382Y-91140627D01*
X164247381Y-91140340D01*
X163943314Y-91265978D01*
X163710472Y-91498413D01*
X163584304Y-91802261D01*
X163584277Y-91833233D01*
X163569722Y-91823508D01*
X163358480Y-91781490D01*
X162445365Y-91781490D01*
X162445365Y-91016257D01*
X162504734Y-91016309D01*
X162808801Y-90890671D01*
X163041643Y-90658236D01*
X163167811Y-90354388D01*
X163168098Y-90025387D01*
X163042460Y-89721320D01*
X162810025Y-89488478D01*
X162506177Y-89362310D01*
X162294560Y-89362125D01*
X162242112Y-89309677D01*
X162063031Y-89190018D01*
X161989805Y-89175453D01*
X161965591Y-89046763D01*
X161872073Y-88901433D01*
X161815670Y-88862894D01*
X161863567Y-88832073D01*
X161875788Y-88814187D01*
X161995619Y-88896064D01*
X162165000Y-88930365D01*
X162815000Y-88930365D01*
X162973237Y-88900591D01*
X163079639Y-88832123D01*
X163073013Y-89303214D01*
X163076759Y-89335668D01*
X163098400Y-89381200D01*
X163398400Y-89781200D01*
X163443672Y-89818825D01*
X163492394Y-89831772D01*
X164242394Y-89876772D01*
X164288493Y-89871026D01*
X164332546Y-89846515D01*
X164363592Y-89806796D01*
X164613592Y-89306796D01*
X164627000Y-89250000D01*
X164627000Y-88664433D01*
X164662000Y-88579936D01*
X164662000Y-88233750D01*
X164627000Y-88198750D01*
X164627000Y-87801250D01*
X164662000Y-87766250D01*
X164662000Y-87420064D01*
X164627000Y-87335567D01*
X164627000Y-87278865D01*
X164738567Y-87207073D01*
X164836064Y-87064381D01*
X164870365Y-86895000D01*
X164870365Y-85905000D01*
X164840591Y-85746763D01*
X164747073Y-85601433D01*
X164604381Y-85503936D01*
X164435000Y-85469635D01*
X164399241Y-85469635D01*
X164339803Y-85410197D01*
X164299410Y-85383006D01*
X164250000Y-85373000D01*
X164033646Y-85373000D01*
X163942695Y-85282049D01*
X163950688Y-85274070D01*
X164076856Y-84970222D01*
X164077143Y-84641221D01*
X163951505Y-84337154D01*
X163719070Y-84104312D01*
X163415222Y-83978144D01*
X163086221Y-83977857D01*
X162782154Y-84103495D01*
X162687484Y-84198000D01*
X161834640Y-84198000D01*
X161815591Y-84096763D01*
X161722073Y-83951433D01*
X161579381Y-83853936D01*
X161410000Y-83819635D01*
X160760000Y-83819635D01*
X160601763Y-83849409D01*
X160456433Y-83942927D01*
X160374120Y-84063396D01*
X160302073Y-83951433D01*
X160159381Y-83853936D01*
X159990000Y-83819635D01*
X159554868Y-83819635D01*
X159700688Y-83674070D01*
X159826856Y-83370222D01*
X159827143Y-83041221D01*
X159701505Y-82737154D01*
X159600536Y-82636008D01*
X159706242Y-82614982D01*
X159800501Y-82552000D01*
X160161354Y-82552000D01*
X160429635Y-82820281D01*
X160429635Y-83295000D01*
X160459409Y-83453237D01*
X160552927Y-83598567D01*
X160695619Y-83696064D01*
X160865000Y-83730365D01*
X161515000Y-83730365D01*
X161673237Y-83700591D01*
X161818567Y-83607073D01*
X161900880Y-83486604D01*
X161972927Y-83598567D01*
X162115619Y-83696064D01*
X162285000Y-83730365D01*
X162935000Y-83730365D01*
X163093237Y-83700591D01*
X163238567Y-83607073D01*
X163336064Y-83464381D01*
X163370365Y-83295000D01*
X163370365Y-82305000D01*
X163340591Y-82146763D01*
X163247073Y-82001433D01*
X163171827Y-81950020D01*
X163238567Y-81907073D01*
X163336064Y-81764381D01*
X163370365Y-81595000D01*
X163370365Y-80605000D01*
X163360201Y-80550983D01*
X163467846Y-80506505D01*
X163700688Y-80274070D01*
X163826856Y-79970222D01*
X163827143Y-79641221D01*
X163701505Y-79337154D01*
X163469070Y-79104312D01*
X163165222Y-78978144D01*
X162836221Y-78977857D01*
X162685393Y-79040178D01*
X162601505Y-78837154D01*
X162369070Y-78604312D01*
X162122674Y-78502000D01*
X171724867Y-78502000D01*
X171587496Y-78639132D01*
X171423187Y-79034832D01*
X171422813Y-79463289D01*
X171586431Y-79859275D01*
X171889132Y-80162504D01*
X172074759Y-80239583D01*
X171873240Y-80724896D01*
X171872762Y-81272701D01*
X172081956Y-81778989D01*
X172468974Y-82166683D01*
X172665633Y-82248343D01*
X172532154Y-82303495D01*
X172299312Y-82535930D01*
X172173144Y-82839778D01*
X172172857Y-83168779D01*
X172298495Y-83472846D01*
X172530930Y-83705688D01*
X172834778Y-83831856D01*
X173163779Y-83832143D01*
X173467846Y-83706505D01*
X173700688Y-83474070D01*
X173826856Y-83170222D01*
X173827143Y-82841221D01*
X173701505Y-82537154D01*
X173536271Y-82371631D01*
X174028989Y-82168044D01*
X174416683Y-81781026D01*
X174626760Y-81275104D01*
X174627238Y-80727299D01*
X174418044Y-80221011D01*
X174031026Y-79833317D01*
X173525104Y-79623240D01*
X173511181Y-79623228D01*
X173576813Y-79465168D01*
X173577187Y-79036711D01*
X173413569Y-78640725D01*
X173275086Y-78502000D01*
X178373000Y-78502000D01*
X178373000Y-82427933D01*
X178286221Y-82427857D01*
X177982154Y-82553495D01*
X177749312Y-82785930D01*
X177623144Y-83089778D01*
X177622857Y-83418779D01*
X177748495Y-83722846D01*
X177980930Y-83955688D01*
X178284778Y-84081856D01*
X178373000Y-84081933D01*
X178373000Y-84623000D01*
X177176980Y-84623000D01*
X177177143Y-84436221D01*
X177051505Y-84132154D01*
X176819070Y-83899312D01*
X176515222Y-83773144D01*
X176186221Y-83772857D01*
X175882154Y-83898495D01*
X175649312Y-84130930D01*
X175523144Y-84434778D01*
X175522980Y-84623000D01*
X175296488Y-84623000D01*
X175450688Y-84469070D01*
X175576856Y-84165222D01*
X175577143Y-83836221D01*
X175451505Y-83532154D01*
X175219070Y-83299312D01*
X174915222Y-83173144D01*
X174586221Y-83172857D01*
X174282154Y-83298495D01*
X174049312Y-83530930D01*
X173923144Y-83834778D01*
X173922959Y-84046395D01*
X173884677Y-84084677D01*
X173765018Y-84263758D01*
X173755074Y-84313750D01*
X173723000Y-84475000D01*
X173723000Y-84623000D01*
X167250000Y-84623000D01*
X167200590Y-84633006D01*
X167158965Y-84661447D01*
X167131685Y-84703841D01*
X167123000Y-84750000D01*
X167123000Y-88543235D01*
X167116763Y-88544409D01*
X166971433Y-88637927D01*
X166873936Y-88780619D01*
X166839635Y-88950000D01*
X166839635Y-90450000D01*
X166869409Y-90608237D01*
X166962927Y-90753567D01*
X167105619Y-90851064D01*
X167138716Y-90857766D01*
X167161447Y-90891035D01*
X167203841Y-90918315D01*
X167250000Y-90927000D01*
X173023064Y-90927000D01*
X173022857Y-91163779D01*
X173148495Y-91467846D01*
X173380930Y-91700688D01*
X173684778Y-91826856D01*
X174013779Y-91827143D01*
X174317846Y-91701505D01*
X174550688Y-91469070D01*
X174676856Y-91165222D01*
X174677064Y-90927000D01*
X178197394Y-90927000D01*
X178323000Y-91052606D01*
X178323000Y-93732032D01*
X178111548Y-93873000D01*
X176946751Y-93873000D01*
X176950688Y-93869070D01*
X177076856Y-93565222D01*
X177077143Y-93236221D01*
X176951505Y-92932154D01*
X176719070Y-92699312D01*
X176415222Y-92573144D01*
X176086221Y-92572857D01*
X175782154Y-92698495D01*
X175549312Y-92930930D01*
X175423144Y-93234778D01*
X175422857Y-93563779D01*
X175548495Y-93867846D01*
X175553640Y-93873000D01*
X175069235Y-93873000D01*
X175019381Y-93838936D01*
X174850000Y-93804635D01*
X174827000Y-93804635D01*
X174827000Y-93592542D01*
X174950688Y-93469070D01*
X175076856Y-93165222D01*
X175077143Y-92836221D01*
X174951505Y-92532154D01*
X174719070Y-92299312D01*
X174415222Y-92173144D01*
X174086221Y-92172857D01*
X173782154Y-92298495D01*
X173549312Y-92530930D01*
X173523265Y-92593659D01*
X173339803Y-92410197D01*
X173297789Y-92382334D01*
X173250000Y-92373000D01*
X167500000Y-92373000D01*
X167450590Y-92383006D01*
X167410197Y-92410197D01*
X167300759Y-92519635D01*
X167275000Y-92519635D01*
X167116763Y-92549409D01*
X166971433Y-92642927D01*
X166873936Y-92785619D01*
X166839635Y-92955000D01*
X166839635Y-94455000D01*
X166869409Y-94613237D01*
X166962927Y-94758567D01*
X167105619Y-94856064D01*
X167123000Y-94859584D01*
X167123000Y-98500000D01*
X167133006Y-98549410D01*
X167161447Y-98591035D01*
X167203841Y-98618315D01*
X167250000Y-98627000D01*
X171213576Y-98627000D01*
X172765822Y-99597154D01*
X172472154Y-99718495D01*
X172239312Y-99950930D01*
X172113144Y-100254778D01*
X172112857Y-100583779D01*
X172238495Y-100887846D01*
X172470930Y-101120688D01*
X172774778Y-101246856D01*
X173103779Y-101247143D01*
X173407846Y-101121505D01*
X173640688Y-100889070D01*
X173755247Y-100613179D01*
X173798495Y-100717846D01*
X174030930Y-100950688D01*
X174334778Y-101076856D01*
X174663779Y-101077143D01*
X174967846Y-100951505D01*
X175200688Y-100719070D01*
X175326856Y-100415222D01*
X175327143Y-100086221D01*
X175240695Y-99877000D01*
X176257467Y-99877000D01*
X176380930Y-100000679D01*
X176684778Y-100126847D01*
X177013779Y-100127134D01*
X177317846Y-100001496D01*
X177442560Y-99877000D01*
X178373000Y-99877000D01*
X178373000Y-101355136D01*
X178295647Y-101387098D01*
X178062805Y-101619533D01*
X177936637Y-101923381D01*
X177936350Y-102252382D01*
X178061988Y-102556449D01*
X178294423Y-102789291D01*
X178373000Y-102821919D01*
X178373000Y-102869635D01*
X175970000Y-102869635D01*
X175952116Y-102873000D01*
X175179169Y-102873000D01*
X175162073Y-102846433D01*
X175019381Y-102748936D01*
X174850000Y-102714635D01*
X174802000Y-102714635D01*
X174802000Y-102567498D01*
X174950688Y-102419070D01*
X175076856Y-102115222D01*
X175077143Y-101786221D01*
X174951505Y-101482154D01*
X174719070Y-101249312D01*
X174415222Y-101123144D01*
X174086221Y-101122857D01*
X173782154Y-101248495D01*
X173549312Y-101480930D01*
X173423144Y-101784778D01*
X173422857Y-102113779D01*
X173548495Y-102417846D01*
X173698000Y-102567613D01*
X173698000Y-102715011D01*
X173541763Y-102744409D01*
X173396433Y-102837927D01*
X173372469Y-102873000D01*
X173250000Y-102873000D01*
X173200590Y-102883006D01*
X173158965Y-102911447D01*
X173158608Y-102911950D01*
X173121505Y-102822154D01*
X172889070Y-102589312D01*
X172585222Y-102463144D01*
X172256221Y-102462857D01*
X171952154Y-102588495D01*
X171719312Y-102820930D01*
X171593144Y-103124778D01*
X171592857Y-103453779D01*
X171716294Y-103752520D01*
X170481360Y-104123000D01*
X167500000Y-104123000D01*
X167450590Y-104133006D01*
X167408965Y-104161447D01*
X167386985Y-104195604D01*
X167366763Y-104199409D01*
X167221433Y-104292927D01*
X167123936Y-104435619D01*
X167089635Y-104605000D01*
X167089635Y-106105000D01*
X167119409Y-106263237D01*
X167212927Y-106408567D01*
X167355619Y-106506064D01*
X167373000Y-106509584D01*
X167373000Y-107557441D01*
X167259312Y-107670930D01*
X167133144Y-107974778D01*
X167132857Y-108303779D01*
X167258495Y-108607846D01*
X167373000Y-108722552D01*
X167373000Y-110250000D01*
X167383006Y-110299410D01*
X167411447Y-110341035D01*
X167453841Y-110368315D01*
X167500000Y-110377000D01*
X171250000Y-110377000D01*
X171299410Y-110366994D01*
X171341035Y-110338553D01*
X171368315Y-110296159D01*
X171377000Y-110250000D01*
X171377000Y-108627000D01*
X173097791Y-108627000D01*
X172852154Y-108728495D01*
X172619312Y-108960930D01*
X172493144Y-109264778D01*
X172492857Y-109593779D01*
X172618495Y-109897846D01*
X172765445Y-110045053D01*
X172619312Y-110190930D01*
X172493144Y-110494778D01*
X172492857Y-110823779D01*
X172618495Y-111127846D01*
X172850930Y-111360688D01*
X173154778Y-111486856D01*
X173483779Y-111487143D01*
X173787846Y-111361505D01*
X174020688Y-111129070D01*
X174146856Y-110825222D01*
X174147143Y-110496221D01*
X174021505Y-110192154D01*
X173874555Y-110044947D01*
X174020688Y-109899070D01*
X174073111Y-109772821D01*
X174072857Y-110063779D01*
X174198495Y-110367846D01*
X174430930Y-110600688D01*
X174734778Y-110726856D01*
X175063779Y-110727143D01*
X175367846Y-110601505D01*
X175600688Y-110369070D01*
X175726856Y-110065222D01*
X175727143Y-109736221D01*
X175601505Y-109432154D01*
X175369070Y-109199312D01*
X175065222Y-109073144D01*
X174736221Y-109072857D01*
X174432154Y-109198495D01*
X174199312Y-109430930D01*
X174146889Y-109557179D01*
X174147143Y-109266221D01*
X174021505Y-108962154D01*
X173789070Y-108729312D01*
X173542674Y-108627000D01*
X178373000Y-108627000D01*
X178373000Y-109073020D01*
X178186221Y-109072857D01*
X177882154Y-109198495D01*
X177649312Y-109430930D01*
X177523144Y-109734778D01*
X177522857Y-110063779D01*
X177648495Y-110367846D01*
X177880930Y-110600688D01*
X178184778Y-110726856D01*
X178373000Y-110727020D01*
X178373000Y-112623000D01*
X173250000Y-112623000D01*
X173200590Y-112633006D01*
X173158965Y-112661447D01*
X173131685Y-112703841D01*
X173123000Y-112750000D01*
X173123000Y-115499213D01*
X140947806Y-115502430D01*
X141365392Y-115085573D01*
X141926361Y-113734609D01*
X141926854Y-113168779D01*
X163322778Y-113168779D01*
X163448416Y-113472846D01*
X163680851Y-113705688D01*
X163984699Y-113831856D01*
X164313700Y-113832143D01*
X164617767Y-113706505D01*
X164850609Y-113474070D01*
X164976777Y-113170222D01*
X164977064Y-112841221D01*
X164851426Y-112537154D01*
X164618991Y-112304312D01*
X164315143Y-112178144D01*
X163986142Y-112177857D01*
X163682075Y-112303495D01*
X163449233Y-112535930D01*
X163323065Y-112839778D01*
X163322778Y-113168779D01*
X141926854Y-113168779D01*
X141927637Y-112271808D01*
X141369027Y-110919868D01*
X140868813Y-110418779D01*
X142422857Y-110418779D01*
X142548495Y-110722846D01*
X142780930Y-110955688D01*
X143084778Y-111081856D01*
X143413779Y-111082143D01*
X143588378Y-111010000D01*
X145134635Y-111010000D01*
X145134635Y-112510000D01*
X145164409Y-112668237D01*
X145257927Y-112813567D01*
X145400619Y-112911064D01*
X145570000Y-112945365D01*
X147070000Y-112945365D01*
X147228237Y-112915591D01*
X147373567Y-112822073D01*
X147471064Y-112679381D01*
X147505365Y-112510000D01*
X147505365Y-111993093D01*
X147682796Y-111993093D01*
X147861606Y-112425846D01*
X148192412Y-112757230D01*
X148624853Y-112936795D01*
X149093093Y-112937204D01*
X149525846Y-112758394D01*
X149857230Y-112427588D01*
X150036795Y-111995147D01*
X150036796Y-111993093D01*
X150222796Y-111993093D01*
X150401606Y-112425846D01*
X150732412Y-112757230D01*
X151164853Y-112936795D01*
X151633093Y-112937204D01*
X152065846Y-112758394D01*
X152397230Y-112427588D01*
X152576795Y-111995147D01*
X152576796Y-111993093D01*
X152762796Y-111993093D01*
X152941606Y-112425846D01*
X153272412Y-112757230D01*
X153704853Y-112936795D01*
X154173093Y-112937204D01*
X154605846Y-112758394D01*
X154746830Y-112617655D01*
X155801950Y-112617655D01*
X155881329Y-112800065D01*
X156324916Y-112949996D01*
X156792113Y-112918761D01*
X157078671Y-112800065D01*
X157158050Y-112617655D01*
X156480000Y-111939605D01*
X155801950Y-112617655D01*
X154746830Y-112617655D01*
X154937230Y-112427588D01*
X155116795Y-111995147D01*
X155117135Y-111604916D01*
X155290004Y-111604916D01*
X155321239Y-112072113D01*
X155439935Y-112358671D01*
X155622345Y-112438050D01*
X156300395Y-111760000D01*
X156659605Y-111760000D01*
X157337655Y-112438050D01*
X157520065Y-112358671D01*
X157669996Y-111915084D01*
X157638761Y-111447887D01*
X157520065Y-111161329D01*
X157337655Y-111081950D01*
X156659605Y-111760000D01*
X156300395Y-111760000D01*
X155622345Y-111081950D01*
X155439935Y-111161329D01*
X155290004Y-111604916D01*
X155117135Y-111604916D01*
X155117204Y-111526907D01*
X154938394Y-111094154D01*
X154746920Y-110902345D01*
X155801950Y-110902345D01*
X156480000Y-111580395D01*
X157158050Y-110902345D01*
X157078671Y-110719935D01*
X156635084Y-110570004D01*
X156167887Y-110601239D01*
X155881329Y-110719935D01*
X155801950Y-110902345D01*
X154746920Y-110902345D01*
X154607588Y-110762770D01*
X154175147Y-110583205D01*
X153706907Y-110582796D01*
X153274154Y-110761606D01*
X152942770Y-111092412D01*
X152763205Y-111524853D01*
X152762796Y-111993093D01*
X152576796Y-111993093D01*
X152577204Y-111526907D01*
X152398394Y-111094154D01*
X152067588Y-110762770D01*
X151635147Y-110583205D01*
X151166907Y-110582796D01*
X150734154Y-110761606D01*
X150402770Y-111092412D01*
X150223205Y-111524853D01*
X150222796Y-111993093D01*
X150036796Y-111993093D01*
X150037204Y-111526907D01*
X149858394Y-111094154D01*
X149527588Y-110762770D01*
X149095147Y-110583205D01*
X148626907Y-110582796D01*
X148194154Y-110761606D01*
X147862770Y-111092412D01*
X147683205Y-111524853D01*
X147682796Y-111993093D01*
X147505365Y-111993093D01*
X147505365Y-111010000D01*
X147475591Y-110851763D01*
X147382073Y-110706433D01*
X147239381Y-110608936D01*
X147070000Y-110574635D01*
X145570000Y-110574635D01*
X145411763Y-110604409D01*
X145266433Y-110697927D01*
X145168936Y-110840619D01*
X145134635Y-111010000D01*
X143588378Y-111010000D01*
X143717846Y-110956505D01*
X143950688Y-110724070D01*
X144076856Y-110420222D01*
X144077143Y-110091221D01*
X143951505Y-109787154D01*
X143719070Y-109554312D01*
X143452806Y-109443750D01*
X155378000Y-109443750D01*
X155378000Y-109619935D01*
X155443007Y-109776876D01*
X155563124Y-109896993D01*
X155720064Y-109962000D01*
X156066250Y-109962000D01*
X156173000Y-109855250D01*
X156173000Y-109337000D01*
X155484750Y-109337000D01*
X155378000Y-109443750D01*
X143452806Y-109443750D01*
X143415222Y-109428144D01*
X143086221Y-109427857D01*
X142782154Y-109553495D01*
X142549312Y-109785930D01*
X142423144Y-110089778D01*
X142422857Y-110418779D01*
X140868813Y-110418779D01*
X140335573Y-109884608D01*
X138984609Y-109323639D01*
X137521808Y-109322363D01*
X136169868Y-109880973D01*
X135752000Y-110298112D01*
X135752000Y-105668779D01*
X152672857Y-105668779D01*
X152798495Y-105972846D01*
X153030930Y-106205688D01*
X153334778Y-106331856D01*
X153663779Y-106332143D01*
X153967846Y-106206505D01*
X154200688Y-105974070D01*
X154326856Y-105670222D01*
X154327143Y-105341221D01*
X154201505Y-105037154D01*
X153969070Y-104804312D01*
X153665222Y-104678144D01*
X153336221Y-104677857D01*
X153032154Y-104803495D01*
X152799312Y-105035930D01*
X152673144Y-105339778D01*
X152672857Y-105668779D01*
X135752000Y-105668779D01*
X135752000Y-96413779D01*
X139422857Y-96413779D01*
X139548495Y-96717846D01*
X139780930Y-96950688D01*
X140084778Y-97076856D01*
X140413779Y-97077143D01*
X140717846Y-96951505D01*
X140950688Y-96719070D01*
X141076856Y-96415222D01*
X141077143Y-96086221D01*
X140951505Y-95782154D01*
X140719070Y-95549312D01*
X140415222Y-95423144D01*
X140086221Y-95422857D01*
X139782154Y-95548495D01*
X139549312Y-95780930D01*
X139423144Y-96084778D01*
X139422857Y-96413779D01*
X135752000Y-96413779D01*
X135752000Y-83702244D01*
X136164427Y-84115392D01*
X137515391Y-84676361D01*
X138978192Y-84677637D01*
X140330132Y-84119027D01*
X141365392Y-83085573D01*
X141926361Y-81734609D01*
X141927411Y-80530000D01*
X142594635Y-80530000D01*
X142594635Y-82030000D01*
X142624409Y-82188237D01*
X142717927Y-82333567D01*
X142860619Y-82431064D01*
X143030000Y-82465365D01*
X144530000Y-82465365D01*
X144688237Y-82435591D01*
X144833567Y-82342073D01*
X144931064Y-82199381D01*
X144965365Y-82030000D01*
X144965365Y-81513093D01*
X145142796Y-81513093D01*
X145321606Y-81945846D01*
X145652412Y-82277230D01*
X146084853Y-82456795D01*
X146553093Y-82457204D01*
X146985846Y-82278394D01*
X147317230Y-81947588D01*
X147496795Y-81515147D01*
X147497135Y-81124916D01*
X147670004Y-81124916D01*
X147701239Y-81592113D01*
X147819935Y-81878671D01*
X148002345Y-81958050D01*
X148680395Y-81280000D01*
X148002345Y-80601950D01*
X147819935Y-80681329D01*
X147670004Y-81124916D01*
X147497135Y-81124916D01*
X147497204Y-81046907D01*
X147318394Y-80614154D01*
X147126920Y-80422345D01*
X148181950Y-80422345D01*
X148860000Y-81100395D01*
X149538050Y-80422345D01*
X149458671Y-80239935D01*
X149015084Y-80090004D01*
X148547887Y-80121239D01*
X148261329Y-80239935D01*
X148181950Y-80422345D01*
X147126920Y-80422345D01*
X146987588Y-80282770D01*
X146555147Y-80103205D01*
X146086907Y-80102796D01*
X145654154Y-80281606D01*
X145322770Y-80612412D01*
X145143205Y-81044853D01*
X145142796Y-81513093D01*
X144965365Y-81513093D01*
X144965365Y-80530000D01*
X144935591Y-80371763D01*
X144842073Y-80226433D01*
X144699381Y-80128936D01*
X144530000Y-80094635D01*
X143030000Y-80094635D01*
X142871763Y-80124409D01*
X142726433Y-80217927D01*
X142628936Y-80360619D01*
X142594635Y-80530000D01*
X141927411Y-80530000D01*
X141927637Y-80271808D01*
X141369027Y-78919868D01*
X140951888Y-78502000D01*
X160233299Y-78502000D01*
X160199310Y-78535930D01*
X160199310Y-78535930D01*
G37*
X160199310Y-78535930D02*
X160073142Y-78839778D01*
X160072855Y-79168779D01*
X160198493Y-79472846D01*
X160430928Y-79705688D01*
X160544869Y-79753000D01*
X160133646Y-79753000D01*
X159690323Y-79309677D01*
X159571278Y-79230133D01*
X159555591Y-79146763D01*
X159462073Y-79001433D01*
X159319381Y-78903936D01*
X159150000Y-78869635D01*
X158550000Y-78869635D01*
X158391763Y-78899409D01*
X158246433Y-78992927D01*
X158148936Y-79135619D01*
X158114635Y-79305000D01*
X158114635Y-80105000D01*
X158144409Y-80263237D01*
X158237927Y-80408567D01*
X158380619Y-80506064D01*
X158550000Y-80540365D01*
X159150000Y-80540365D01*
X159308237Y-80510591D01*
X159321445Y-80502091D01*
X159514677Y-80695323D01*
X159693758Y-80814982D01*
X159905000Y-80857000D01*
X160336354Y-80857000D01*
X160429635Y-80950281D01*
X160429635Y-81455884D01*
X160390000Y-81448000D01*
X159600000Y-81448000D01*
X159504289Y-81467038D01*
X159462073Y-81401433D01*
X159319381Y-81303936D01*
X159150000Y-81269635D01*
X158550000Y-81269635D01*
X158391763Y-81299409D01*
X158246433Y-81392927D01*
X158148936Y-81535619D01*
X158114635Y-81705000D01*
X158114635Y-82181709D01*
X157865222Y-82078144D01*
X157536221Y-82077857D01*
X157232154Y-82203495D01*
X156999312Y-82435930D01*
X156873144Y-82739778D01*
X156872857Y-83068779D01*
X156979971Y-83328014D01*
X156979936Y-83328000D01*
X156633750Y-83328000D01*
X156527000Y-83434750D01*
X156527000Y-83953000D01*
X156547000Y-83953000D01*
X156547000Y-84198000D01*
X155725000Y-84198000D01*
X155679753Y-84207000D01*
X155584750Y-84207000D01*
X155561161Y-84230589D01*
X155513758Y-84240018D01*
X155334677Y-84359677D01*
X154909677Y-84784677D01*
X154790018Y-84963758D01*
X154751231Y-85158758D01*
X154748000Y-85175000D01*
X154748000Y-88760002D01*
X154790018Y-88971244D01*
X154841305Y-89048000D01*
X153059640Y-89048000D01*
X153040591Y-88946763D01*
X152982000Y-88855711D01*
X152982000Y-88816173D01*
X153038237Y-88805591D01*
X153183567Y-88712073D01*
X153281064Y-88569381D01*
X153315365Y-88400000D01*
X153315365Y-87400000D01*
X153285591Y-87241763D01*
X153192073Y-87096433D01*
X153049381Y-86998936D01*
X152880000Y-86964635D01*
X152867564Y-86964635D01*
X152936064Y-86864381D01*
X152970365Y-86695000D01*
X152970365Y-85705000D01*
X152940591Y-85546763D01*
X152847073Y-85401433D01*
X152704381Y-85303936D01*
X152535000Y-85269635D01*
X151885000Y-85269635D01*
X151726763Y-85299409D01*
X151581433Y-85392927D01*
X151499120Y-85513396D01*
X151427073Y-85401433D01*
X151284381Y-85303936D01*
X151115000Y-85269635D01*
X150850281Y-85269635D01*
X150352000Y-84771354D01*
X150352000Y-84760000D01*
X150345682Y-84728237D01*
X150309982Y-84548758D01*
X150190323Y-84369677D01*
X149989556Y-84168910D01*
X150036795Y-84055147D01*
X150037204Y-83586907D01*
X149858394Y-83154154D01*
X149856244Y-83152000D01*
X150403183Y-83152000D01*
X150402770Y-83152412D01*
X150223205Y-83584853D01*
X150222796Y-84053093D01*
X150401606Y-84485846D01*
X150732412Y-84817230D01*
X151164853Y-84996795D01*
X151633093Y-84997204D01*
X152065846Y-84818394D01*
X152206830Y-84677655D01*
X153261950Y-84677655D01*
X153341329Y-84860065D01*
X153784916Y-85009996D01*
X154252113Y-84978761D01*
X154538671Y-84860065D01*
X154618050Y-84677655D01*
X153940000Y-83999605D01*
X153261950Y-84677655D01*
X152206830Y-84677655D01*
X152397230Y-84487588D01*
X152576795Y-84055147D01*
X152577135Y-83664916D01*
X152750004Y-83664916D01*
X152781239Y-84132113D01*
X152899935Y-84418671D01*
X153082345Y-84498050D01*
X153760395Y-83820000D01*
X154119605Y-83820000D01*
X154797655Y-84498050D01*
X154980065Y-84418671D01*
X155129996Y-83975084D01*
X155109604Y-83670065D01*
X155478000Y-83670065D01*
X155478000Y-83846250D01*
X155584750Y-83953000D01*
X156273000Y-83953000D01*
X156273000Y-83434750D01*
X156166250Y-83328000D01*
X155820064Y-83328000D01*
X155663124Y-83393007D01*
X155543007Y-83513124D01*
X155478000Y-83670065D01*
X155109604Y-83670065D01*
X155098761Y-83507887D01*
X154980065Y-83221329D01*
X154797655Y-83141950D01*
X154119605Y-83820000D01*
X153760395Y-83820000D01*
X153082345Y-83141950D01*
X152899935Y-83221329D01*
X152750004Y-83664916D01*
X152577135Y-83664916D01*
X152577204Y-83586907D01*
X152398394Y-83154154D01*
X152396244Y-83152000D01*
X152620000Y-83152000D01*
X152831242Y-83109982D01*
X153010323Y-82990323D01*
X153038301Y-82962345D01*
X153261950Y-82962345D01*
X153940000Y-83640395D01*
X154618050Y-82962345D01*
X154538671Y-82779935D01*
X154095084Y-82630004D01*
X153627887Y-82661239D01*
X153341329Y-82779935D01*
X153261950Y-82962345D01*
X153038301Y-82962345D01*
X153591090Y-82409556D01*
X153704853Y-82456795D01*
X154173093Y-82457204D01*
X154605846Y-82278394D01*
X154937230Y-81947588D01*
X155116795Y-81515147D01*
X155116796Y-81513093D01*
X155302796Y-81513093D01*
X155481606Y-81945846D01*
X155812412Y-82277230D01*
X156244853Y-82456795D01*
X156713093Y-82457204D01*
X157145846Y-82278394D01*
X157477230Y-81947588D01*
X157656795Y-81515147D01*
X157657204Y-81046907D01*
X157478394Y-80614154D01*
X157147588Y-80282770D01*
X156715147Y-80103205D01*
X156246907Y-80102796D01*
X155814154Y-80281606D01*
X155482770Y-80612412D01*
X155303205Y-81044853D01*
X155302796Y-81513093D01*
X155116796Y-81513093D01*
X155117204Y-81046907D01*
X154938394Y-80614154D01*
X154607588Y-80282770D01*
X154175147Y-80103205D01*
X153706907Y-80102796D01*
X153274154Y-80281606D01*
X152942770Y-80612412D01*
X152763205Y-81044853D01*
X152762796Y-81513093D01*
X152810590Y-81628764D01*
X152391354Y-82048000D01*
X152296643Y-82048000D01*
X152397230Y-81947588D01*
X152576795Y-81515147D01*
X152577204Y-81046907D01*
X152398394Y-80614154D01*
X152067588Y-80282770D01*
X151635147Y-80103205D01*
X151166907Y-80102796D01*
X150734154Y-80281606D01*
X150402770Y-80612412D01*
X150223205Y-81044853D01*
X150222796Y-81513093D01*
X150401606Y-81945846D01*
X150503582Y-82048000D01*
X149785622Y-82048000D01*
X149796615Y-82037007D01*
X149717657Y-81958049D01*
X149900065Y-81878671D01*
X150049996Y-81435084D01*
X150018761Y-80967887D01*
X149900065Y-80681329D01*
X149717655Y-80601950D01*
X149039605Y-81280000D01*
X149053748Y-81294143D01*
X148874143Y-81473748D01*
X148860000Y-81459605D01*
X148239725Y-82079880D01*
X148188758Y-82090018D01*
X148009677Y-82209677D01*
X147209677Y-83009677D01*
X147195440Y-83030985D01*
X146987588Y-82822770D01*
X146555147Y-82643205D01*
X146086907Y-82642796D01*
X145654154Y-82821606D01*
X145322770Y-83152412D01*
X145143205Y-83584853D01*
X145142796Y-84053093D01*
X145321606Y-84485846D01*
X145652412Y-84817230D01*
X145777806Y-84869298D01*
X145810018Y-85031242D01*
X145929677Y-85210323D01*
X146200890Y-85481536D01*
X146163936Y-85535619D01*
X146129635Y-85705000D01*
X146129635Y-86695000D01*
X146159409Y-86853237D01*
X146236475Y-86973000D01*
X146235065Y-86973000D01*
X146078124Y-87038007D01*
X145958007Y-87158124D01*
X145893000Y-87315064D01*
X145893000Y-87666250D01*
X145999750Y-87773000D01*
X146643000Y-87773000D01*
X146643000Y-87753000D01*
X146897000Y-87753000D01*
X146897000Y-87773000D01*
X146917000Y-87773000D01*
X146917000Y-88027000D01*
X146897000Y-88027000D01*
X146897000Y-88047000D01*
X146643000Y-88047000D01*
X146643000Y-88027000D01*
X145999750Y-88027000D01*
X145893000Y-88133750D01*
X145893000Y-88484936D01*
X145958007Y-88641876D01*
X146078124Y-88761993D01*
X146235065Y-88827000D01*
X146238152Y-88827000D01*
X146163936Y-88935619D01*
X146154049Y-88984440D01*
X146069070Y-88899312D01*
X145765222Y-88773144D01*
X145436221Y-88772857D01*
X145132154Y-88898495D01*
X145047424Y-88983077D01*
X145040591Y-88946763D01*
X144963525Y-88827000D01*
X144964935Y-88827000D01*
X145121876Y-88761993D01*
X145241993Y-88641876D01*
X145307000Y-88484936D01*
X145307000Y-88133750D01*
X145200250Y-88027000D01*
X144557000Y-88027000D01*
X144557000Y-88047000D01*
X144303000Y-88047000D01*
X144303000Y-88027000D01*
X144283000Y-88027000D01*
X144283000Y-87773000D01*
X144303000Y-87773000D01*
X144303000Y-87753000D01*
X144557000Y-87753000D01*
X144557000Y-87773000D01*
X145200250Y-87773000D01*
X145307000Y-87666250D01*
X145307000Y-87315064D01*
X145241993Y-87158124D01*
X145121876Y-87038007D01*
X144964935Y-86973000D01*
X144951848Y-86973000D01*
X145026064Y-86864381D01*
X145060365Y-86695000D01*
X145060365Y-85705000D01*
X145030591Y-85546763D01*
X144937073Y-85401433D01*
X144852000Y-85343305D01*
X144852000Y-84855095D01*
X144931064Y-84739381D01*
X144965365Y-84570000D01*
X144965365Y-83070000D01*
X144935591Y-82911763D01*
X144842073Y-82766433D01*
X144699381Y-82668936D01*
X144530000Y-82634635D01*
X143030000Y-82634635D01*
X142871763Y-82664409D01*
X142726433Y-82757927D01*
X142628936Y-82900619D01*
X142594635Y-83070000D01*
X142594635Y-84570000D01*
X142624409Y-84728237D01*
X142717927Y-84873567D01*
X142860619Y-84971064D01*
X143030000Y-85005365D01*
X143748000Y-85005365D01*
X143748000Y-85343657D01*
X143671433Y-85392927D01*
X143589120Y-85513396D01*
X143517073Y-85401433D01*
X143374381Y-85303936D01*
X143205000Y-85269635D01*
X142555000Y-85269635D01*
X142396763Y-85299409D01*
X142251433Y-85392927D01*
X142153936Y-85535619D01*
X142119635Y-85705000D01*
X142119635Y-86695000D01*
X142149409Y-86853237D01*
X142231774Y-86981236D01*
X142161763Y-86994409D01*
X142016433Y-87087927D01*
X141918936Y-87230619D01*
X141884635Y-87400000D01*
X141884635Y-88400000D01*
X141914409Y-88558237D01*
X142007927Y-88703567D01*
X142150619Y-88801064D01*
X142218000Y-88814709D01*
X142218000Y-88856493D01*
X142163936Y-88935619D01*
X142129635Y-89105000D01*
X142129635Y-90095000D01*
X142159409Y-90253237D01*
X142252927Y-90398567D01*
X142338000Y-90456695D01*
X142338000Y-97358352D01*
X141634676Y-98061676D01*
X141515017Y-98240757D01*
X141503370Y-98299312D01*
X141472999Y-98451999D01*
X141472999Y-99603001D01*
X141515017Y-99814243D01*
X141634676Y-99993324D01*
X143179042Y-101537690D01*
X142915224Y-101428144D01*
X142586223Y-101427857D01*
X142282156Y-101553495D01*
X142049314Y-101785930D01*
X141923146Y-102089778D01*
X141922859Y-102418779D01*
X142048497Y-102722846D01*
X142280932Y-102955688D01*
X142584780Y-103081856D01*
X142913781Y-103082143D01*
X143217848Y-102956505D01*
X143450690Y-102724070D01*
X143576858Y-102420222D01*
X143577145Y-102091221D01*
X143467703Y-101826351D01*
X145331674Y-103690322D01*
X145510755Y-103809981D01*
X145721997Y-103851999D01*
X151381999Y-103851999D01*
X151593241Y-103809981D01*
X151772322Y-103690322D01*
X151910644Y-103552000D01*
X153632502Y-103552000D01*
X153780930Y-103700688D01*
X154084778Y-103826856D01*
X154413779Y-103827143D01*
X154717846Y-103701505D01*
X154950688Y-103469070D01*
X155076856Y-103165222D01*
X155077143Y-102836221D01*
X154951505Y-102532154D01*
X154719070Y-102299312D01*
X154415222Y-102173144D01*
X154377024Y-102173111D01*
X154377143Y-102036221D01*
X154251505Y-101732154D01*
X154019070Y-101499312D01*
X153776918Y-101398762D01*
X153777061Y-101235347D01*
X153859985Y-101111243D01*
X153902003Y-100900001D01*
X153902003Y-100751634D01*
X157224642Y-97428995D01*
X157242680Y-97402000D01*
X158663218Y-97402000D01*
X158513372Y-97463915D01*
X158280530Y-97696350D01*
X158154362Y-98000198D01*
X158154075Y-98329199D01*
X158279713Y-98633266D01*
X158512148Y-98866108D01*
X158748323Y-98964176D01*
X158532154Y-99053495D01*
X158352389Y-99232945D01*
X158177882Y-99160484D01*
X157848881Y-99160197D01*
X157544814Y-99285835D01*
X157311972Y-99518270D01*
X157185804Y-99822118D01*
X157185619Y-100033735D01*
X156909677Y-100309677D01*
X156790018Y-100488758D01*
X156769919Y-100589803D01*
X156748000Y-100700000D01*
X156748000Y-102200000D01*
X156790018Y-102411242D01*
X156909677Y-102590323D01*
X157548000Y-103228646D01*
X157548000Y-103254744D01*
X157496433Y-103287927D01*
X157398936Y-103430619D01*
X157364635Y-103600000D01*
X157364635Y-104400000D01*
X157394409Y-104558237D01*
X157487927Y-104703567D01*
X157630619Y-104801064D01*
X157800000Y-104835365D01*
X158400000Y-104835365D01*
X158558237Y-104805591D01*
X158703567Y-104712073D01*
X158801064Y-104569381D01*
X158835365Y-104400000D01*
X158835365Y-103600000D01*
X158826333Y-103552000D01*
X159050360Y-103552000D01*
X159069409Y-103653237D01*
X159162927Y-103798567D01*
X159305619Y-103896064D01*
X159475000Y-103930365D01*
X159948000Y-103930365D01*
X159948000Y-104971354D01*
X159946314Y-104973040D01*
X159736221Y-104972857D01*
X159432154Y-105098495D01*
X159347473Y-105183028D01*
X159169070Y-105004312D01*
X158865222Y-104878144D01*
X158536221Y-104877857D01*
X158232154Y-105003495D01*
X157999312Y-105235930D01*
X157873144Y-105539778D01*
X157872857Y-105868779D01*
X157998495Y-106172846D01*
X158230930Y-106405688D01*
X158534778Y-106531856D01*
X158537496Y-106531858D01*
X158039719Y-107029635D01*
X157505000Y-107029635D01*
X157346763Y-107059409D01*
X157201433Y-107152927D01*
X157150020Y-107228173D01*
X157107073Y-107161433D01*
X156964381Y-107063936D01*
X156795000Y-107029635D01*
X155805000Y-107029635D01*
X155646763Y-107059409D01*
X155501433Y-107152927D01*
X155403936Y-107295619D01*
X155369635Y-107465000D01*
X155369635Y-108115000D01*
X155399409Y-108273237D01*
X155492927Y-108418567D01*
X155614584Y-108501691D01*
X155563124Y-108523007D01*
X155443007Y-108643124D01*
X155378000Y-108800065D01*
X155378000Y-108976250D01*
X155484750Y-109083000D01*
X156173000Y-109083000D01*
X156173000Y-109063000D01*
X156427000Y-109063000D01*
X156427000Y-109083000D01*
X156447000Y-109083000D01*
X156447000Y-109337000D01*
X156427000Y-109337000D01*
X156427000Y-109855250D01*
X156533750Y-109962000D01*
X156879936Y-109962000D01*
X157036876Y-109896993D01*
X157154703Y-109779166D01*
X157192927Y-109838567D01*
X157335619Y-109936064D01*
X157448000Y-109958822D01*
X157448000Y-110054504D01*
X157373144Y-110234778D01*
X157372857Y-110563779D01*
X157498495Y-110867846D01*
X157730930Y-111100688D01*
X158034778Y-111226856D01*
X158363779Y-111227143D01*
X158667846Y-111101505D01*
X158900688Y-110869070D01*
X159026856Y-110565222D01*
X159027143Y-110236221D01*
X158901505Y-109932154D01*
X158805883Y-109836365D01*
X158896064Y-109704381D01*
X158908083Y-109645028D01*
X158977927Y-109753567D01*
X159120619Y-109851064D01*
X159239433Y-109875125D01*
X159163936Y-109985619D01*
X159129635Y-110155000D01*
X159129635Y-111145000D01*
X159159409Y-111303237D01*
X159252927Y-111448567D01*
X159395619Y-111546064D01*
X159565000Y-111580365D01*
X160215000Y-111580365D01*
X160373237Y-111550591D01*
X160518567Y-111457073D01*
X160600880Y-111336604D01*
X160672927Y-111448567D01*
X160815619Y-111546064D01*
X160985000Y-111580365D01*
X161635000Y-111580365D01*
X161793237Y-111550591D01*
X161938567Y-111457073D01*
X162036064Y-111314381D01*
X162070365Y-111145000D01*
X162070365Y-110155000D01*
X162040591Y-109996763D01*
X161956065Y-109865408D01*
X162008237Y-109855591D01*
X162136508Y-109773051D01*
X162152927Y-109798567D01*
X162295619Y-109896064D01*
X162465000Y-109930365D01*
X163115000Y-109930365D01*
X163273237Y-109900591D01*
X163373000Y-109836395D01*
X163373000Y-111005000D01*
X163382334Y-111052789D01*
X163410197Y-111094803D01*
X163660197Y-111344803D01*
X163700590Y-111371994D01*
X163750000Y-111382000D01*
X164750000Y-111382000D01*
X164797789Y-111372666D01*
X164839803Y-111344803D01*
X165089803Y-111094803D01*
X165116994Y-111054410D01*
X165127000Y-111005000D01*
X165127000Y-108255000D01*
X165117473Y-108206739D01*
X165089442Y-108164838D01*
X164970365Y-108046712D01*
X164970365Y-107110000D01*
X164940591Y-106951763D01*
X164847073Y-106806433D01*
X164771827Y-106755020D01*
X164838567Y-106712073D01*
X164936064Y-106569381D01*
X164970365Y-106400000D01*
X164970365Y-105410000D01*
X164940591Y-105251763D01*
X164847073Y-105106433D01*
X164704381Y-105008936D01*
X164535000Y-104974635D01*
X164230281Y-104974635D01*
X163864479Y-104608833D01*
X163864483Y-104603881D01*
X163738845Y-104299814D01*
X163506410Y-104066972D01*
X163202562Y-103940804D01*
X163095279Y-103940710D01*
X163220055Y-103640214D01*
X163220342Y-103311213D01*
X163094704Y-103007146D01*
X162862269Y-102774304D01*
X162558421Y-102648136D01*
X162346804Y-102647951D01*
X162308530Y-102609677D01*
X162129449Y-102490018D01*
X161971640Y-102458628D01*
X161950591Y-102346763D01*
X161857073Y-102201433D01*
X161776977Y-102146706D01*
X161838567Y-102107073D01*
X161936064Y-101964381D01*
X161970365Y-101795000D01*
X161970365Y-100805000D01*
X161940591Y-100646763D01*
X161879612Y-100552000D01*
X163079973Y-100552000D01*
X163291215Y-100509982D01*
X163470296Y-100390323D01*
X163590507Y-100270113D01*
X163910197Y-100589803D01*
X163950590Y-100616994D01*
X164000000Y-100627000D01*
X164750000Y-100627000D01*
X164797789Y-100617666D01*
X164839803Y-100589803D01*
X165339803Y-100089803D01*
X165366994Y-100049410D01*
X165377000Y-100000000D01*
X165377000Y-95934376D01*
X165447425Y-95864074D01*
X165573593Y-95560226D01*
X165573880Y-95231225D01*
X165448242Y-94927158D01*
X165377000Y-94855791D01*
X165377000Y-94500000D01*
X165368315Y-94453841D01*
X165341035Y-94411447D01*
X165310365Y-94390491D01*
X165310365Y-93805000D01*
X165280591Y-93646763D01*
X165202000Y-93524630D01*
X165202000Y-92219442D01*
X165238016Y-92132705D01*
X165238303Y-91803704D01*
X165112665Y-91499637D01*
X164880230Y-91266795D01*
X164576382Y-91140627D01*
X164247381Y-91140340D01*
X163943314Y-91265978D01*
X163710472Y-91498413D01*
X163584304Y-91802261D01*
X163584277Y-91833233D01*
X163569722Y-91823508D01*
X163358480Y-91781490D01*
X162445365Y-91781490D01*
X162445365Y-91016257D01*
X162504734Y-91016309D01*
X162808801Y-90890671D01*
X163041643Y-90658236D01*
X163167811Y-90354388D01*
X163168098Y-90025387D01*
X163042460Y-89721320D01*
X162810025Y-89488478D01*
X162506177Y-89362310D01*
X162294560Y-89362125D01*
X162242112Y-89309677D01*
X162063031Y-89190018D01*
X161989805Y-89175453D01*
X161965591Y-89046763D01*
X161872073Y-88901433D01*
X161815670Y-88862894D01*
X161863567Y-88832073D01*
X161875788Y-88814187D01*
X161995619Y-88896064D01*
X162165000Y-88930365D01*
X162815000Y-88930365D01*
X162973237Y-88900591D01*
X163079639Y-88832123D01*
X163073013Y-89303214D01*
X163076759Y-89335668D01*
X163098400Y-89381200D01*
X163398400Y-89781200D01*
X163443672Y-89818825D01*
X163492394Y-89831772D01*
X164242394Y-89876772D01*
X164288493Y-89871026D01*
X164332546Y-89846515D01*
X164363592Y-89806796D01*
X164613592Y-89306796D01*
X164627000Y-89250000D01*
X164627000Y-88664433D01*
X164662000Y-88579936D01*
X164662000Y-88233750D01*
X164627000Y-88198750D01*
X164627000Y-87801250D01*
X164662000Y-87766250D01*
X164662000Y-87420064D01*
X164627000Y-87335567D01*
X164627000Y-87278865D01*
X164738567Y-87207073D01*
X164836064Y-87064381D01*
X164870365Y-86895000D01*
X164870365Y-85905000D01*
X164840591Y-85746763D01*
X164747073Y-85601433D01*
X164604381Y-85503936D01*
X164435000Y-85469635D01*
X164399241Y-85469635D01*
X164339803Y-85410197D01*
X164299410Y-85383006D01*
X164250000Y-85373000D01*
X164033646Y-85373000D01*
X163942695Y-85282049D01*
X163950688Y-85274070D01*
X164076856Y-84970222D01*
X164077143Y-84641221D01*
X163951505Y-84337154D01*
X163719070Y-84104312D01*
X163415222Y-83978144D01*
X163086221Y-83977857D01*
X162782154Y-84103495D01*
X162687484Y-84198000D01*
X161834640Y-84198000D01*
X161815591Y-84096763D01*
X161722073Y-83951433D01*
X161579381Y-83853936D01*
X161410000Y-83819635D01*
X160760000Y-83819635D01*
X160601763Y-83849409D01*
X160456433Y-83942927D01*
X160374120Y-84063396D01*
X160302073Y-83951433D01*
X160159381Y-83853936D01*
X159990000Y-83819635D01*
X159554868Y-83819635D01*
X159700688Y-83674070D01*
X159826856Y-83370222D01*
X159827143Y-83041221D01*
X159701505Y-82737154D01*
X159600536Y-82636008D01*
X159706242Y-82614982D01*
X159800501Y-82552000D01*
X160161354Y-82552000D01*
X160429635Y-82820281D01*
X160429635Y-83295000D01*
X160459409Y-83453237D01*
X160552927Y-83598567D01*
X160695619Y-83696064D01*
X160865000Y-83730365D01*
X161515000Y-83730365D01*
X161673237Y-83700591D01*
X161818567Y-83607073D01*
X161900880Y-83486604D01*
X161972927Y-83598567D01*
X162115619Y-83696064D01*
X162285000Y-83730365D01*
X162935000Y-83730365D01*
X163093237Y-83700591D01*
X163238567Y-83607073D01*
X163336064Y-83464381D01*
X163370365Y-83295000D01*
X163370365Y-82305000D01*
X163340591Y-82146763D01*
X163247073Y-82001433D01*
X163171827Y-81950020D01*
X163238567Y-81907073D01*
X163336064Y-81764381D01*
X163370365Y-81595000D01*
X163370365Y-80605000D01*
X163360201Y-80550983D01*
X163467846Y-80506505D01*
X163700688Y-80274070D01*
X163826856Y-79970222D01*
X163827143Y-79641221D01*
X163701505Y-79337154D01*
X163469070Y-79104312D01*
X163165222Y-78978144D01*
X162836221Y-78977857D01*
X162685393Y-79040178D01*
X162601505Y-78837154D01*
X162369070Y-78604312D01*
X162122674Y-78502000D01*
X171724867Y-78502000D01*
X171587496Y-78639132D01*
X171423187Y-79034832D01*
X171422813Y-79463289D01*
X171586431Y-79859275D01*
X171889132Y-80162504D01*
X172074759Y-80239583D01*
X171873240Y-80724896D01*
X171872762Y-81272701D01*
X172081956Y-81778989D01*
X172468974Y-82166683D01*
X172665633Y-82248343D01*
X172532154Y-82303495D01*
X172299312Y-82535930D01*
X172173144Y-82839778D01*
X172172857Y-83168779D01*
X172298495Y-83472846D01*
X172530930Y-83705688D01*
X172834778Y-83831856D01*
X173163779Y-83832143D01*
X173467846Y-83706505D01*
X173700688Y-83474070D01*
X173826856Y-83170222D01*
X173827143Y-82841221D01*
X173701505Y-82537154D01*
X173536271Y-82371631D01*
X174028989Y-82168044D01*
X174416683Y-81781026D01*
X174626760Y-81275104D01*
X174627238Y-80727299D01*
X174418044Y-80221011D01*
X174031026Y-79833317D01*
X173525104Y-79623240D01*
X173511181Y-79623228D01*
X173576813Y-79465168D01*
X173577187Y-79036711D01*
X173413569Y-78640725D01*
X173275086Y-78502000D01*
X178373000Y-78502000D01*
X178373000Y-82427933D01*
X178286221Y-82427857D01*
X177982154Y-82553495D01*
X177749312Y-82785930D01*
X177623144Y-83089778D01*
X177622857Y-83418779D01*
X177748495Y-83722846D01*
X177980930Y-83955688D01*
X178284778Y-84081856D01*
X178373000Y-84081933D01*
X178373000Y-84623000D01*
X177176980Y-84623000D01*
X177177143Y-84436221D01*
X177051505Y-84132154D01*
X176819070Y-83899312D01*
X176515222Y-83773144D01*
X176186221Y-83772857D01*
X175882154Y-83898495D01*
X175649312Y-84130930D01*
X175523144Y-84434778D01*
X175522980Y-84623000D01*
X175296488Y-84623000D01*
X175450688Y-84469070D01*
X175576856Y-84165222D01*
X175577143Y-83836221D01*
X175451505Y-83532154D01*
X175219070Y-83299312D01*
X174915222Y-83173144D01*
X174586221Y-83172857D01*
X174282154Y-83298495D01*
X174049312Y-83530930D01*
X173923144Y-83834778D01*
X173922959Y-84046395D01*
X173884677Y-84084677D01*
X173765018Y-84263758D01*
X173755074Y-84313750D01*
X173723000Y-84475000D01*
X173723000Y-84623000D01*
X167250000Y-84623000D01*
X167200590Y-84633006D01*
X167158965Y-84661447D01*
X167131685Y-84703841D01*
X167123000Y-84750000D01*
X167123000Y-88543235D01*
X167116763Y-88544409D01*
X166971433Y-88637927D01*
X166873936Y-88780619D01*
X166839635Y-88950000D01*
X166839635Y-90450000D01*
X166869409Y-90608237D01*
X166962927Y-90753567D01*
X167105619Y-90851064D01*
X167138716Y-90857766D01*
X167161447Y-90891035D01*
X167203841Y-90918315D01*
X167250000Y-90927000D01*
X173023064Y-90927000D01*
X173022857Y-91163779D01*
X173148495Y-91467846D01*
X173380930Y-91700688D01*
X173684778Y-91826856D01*
X174013779Y-91827143D01*
X174317846Y-91701505D01*
X174550688Y-91469070D01*
X174676856Y-91165222D01*
X174677064Y-90927000D01*
X178197394Y-90927000D01*
X178323000Y-91052606D01*
X178323000Y-93732032D01*
X178111548Y-93873000D01*
X176946751Y-93873000D01*
X176950688Y-93869070D01*
X177076856Y-93565222D01*
X177077143Y-93236221D01*
X176951505Y-92932154D01*
X176719070Y-92699312D01*
X176415222Y-92573144D01*
X176086221Y-92572857D01*
X175782154Y-92698495D01*
X175549312Y-92930930D01*
X175423144Y-93234778D01*
X175422857Y-93563779D01*
X175548495Y-93867846D01*
X175553640Y-93873000D01*
X175069235Y-93873000D01*
X175019381Y-93838936D01*
X174850000Y-93804635D01*
X174827000Y-93804635D01*
X174827000Y-93592542D01*
X174950688Y-93469070D01*
X175076856Y-93165222D01*
X175077143Y-92836221D01*
X174951505Y-92532154D01*
X174719070Y-92299312D01*
X174415222Y-92173144D01*
X174086221Y-92172857D01*
X173782154Y-92298495D01*
X173549312Y-92530930D01*
X173523265Y-92593659D01*
X173339803Y-92410197D01*
X173297789Y-92382334D01*
X173250000Y-92373000D01*
X167500000Y-92373000D01*
X167450590Y-92383006D01*
X167410197Y-92410197D01*
X167300759Y-92519635D01*
X167275000Y-92519635D01*
X167116763Y-92549409D01*
X166971433Y-92642927D01*
X166873936Y-92785619D01*
X166839635Y-92955000D01*
X166839635Y-94455000D01*
X166869409Y-94613237D01*
X166962927Y-94758567D01*
X167105619Y-94856064D01*
X167123000Y-94859584D01*
X167123000Y-98500000D01*
X167133006Y-98549410D01*
X167161447Y-98591035D01*
X167203841Y-98618315D01*
X167250000Y-98627000D01*
X171213576Y-98627000D01*
X172765822Y-99597154D01*
X172472154Y-99718495D01*
X172239312Y-99950930D01*
X172113144Y-100254778D01*
X172112857Y-100583779D01*
X172238495Y-100887846D01*
X172470930Y-101120688D01*
X172774778Y-101246856D01*
X173103779Y-101247143D01*
X173407846Y-101121505D01*
X173640688Y-100889070D01*
X173755247Y-100613179D01*
X173798495Y-100717846D01*
X174030930Y-100950688D01*
X174334778Y-101076856D01*
X174663779Y-101077143D01*
X174967846Y-100951505D01*
X175200688Y-100719070D01*
X175326856Y-100415222D01*
X175327143Y-100086221D01*
X175240695Y-99877000D01*
X176257467Y-99877000D01*
X176380930Y-100000679D01*
X176684778Y-100126847D01*
X177013779Y-100127134D01*
X177317846Y-100001496D01*
X177442560Y-99877000D01*
X178373000Y-99877000D01*
X178373000Y-101355136D01*
X178295647Y-101387098D01*
X178062805Y-101619533D01*
X177936637Y-101923381D01*
X177936350Y-102252382D01*
X178061988Y-102556449D01*
X178294423Y-102789291D01*
X178373000Y-102821919D01*
X178373000Y-102869635D01*
X175970000Y-102869635D01*
X175952116Y-102873000D01*
X175179169Y-102873000D01*
X175162073Y-102846433D01*
X175019381Y-102748936D01*
X174850000Y-102714635D01*
X174802000Y-102714635D01*
X174802000Y-102567498D01*
X174950688Y-102419070D01*
X175076856Y-102115222D01*
X175077143Y-101786221D01*
X174951505Y-101482154D01*
X174719070Y-101249312D01*
X174415222Y-101123144D01*
X174086221Y-101122857D01*
X173782154Y-101248495D01*
X173549312Y-101480930D01*
X173423144Y-101784778D01*
X173422857Y-102113779D01*
X173548495Y-102417846D01*
X173698000Y-102567613D01*
X173698000Y-102715011D01*
X173541763Y-102744409D01*
X173396433Y-102837927D01*
X173372469Y-102873000D01*
X173250000Y-102873000D01*
X173200590Y-102883006D01*
X173158965Y-102911447D01*
X173158608Y-102911950D01*
X173121505Y-102822154D01*
X172889070Y-102589312D01*
X172585222Y-102463144D01*
X172256221Y-102462857D01*
X171952154Y-102588495D01*
X171719312Y-102820930D01*
X171593144Y-103124778D01*
X171592857Y-103453779D01*
X171716294Y-103752520D01*
X170481360Y-104123000D01*
X167500000Y-104123000D01*
X167450590Y-104133006D01*
X167408965Y-104161447D01*
X167386985Y-104195604D01*
X167366763Y-104199409D01*
X167221433Y-104292927D01*
X167123936Y-104435619D01*
X167089635Y-104605000D01*
X167089635Y-106105000D01*
X167119409Y-106263237D01*
X167212927Y-106408567D01*
X167355619Y-106506064D01*
X167373000Y-106509584D01*
X167373000Y-107557441D01*
X167259312Y-107670930D01*
X167133144Y-107974778D01*
X167132857Y-108303779D01*
X167258495Y-108607846D01*
X167373000Y-108722552D01*
X167373000Y-110250000D01*
X167383006Y-110299410D01*
X167411447Y-110341035D01*
X167453841Y-110368315D01*
X167500000Y-110377000D01*
X171250000Y-110377000D01*
X171299410Y-110366994D01*
X171341035Y-110338553D01*
X171368315Y-110296159D01*
X171377000Y-110250000D01*
X171377000Y-108627000D01*
X173097791Y-108627000D01*
X172852154Y-108728495D01*
X172619312Y-108960930D01*
X172493144Y-109264778D01*
X172492857Y-109593779D01*
X172618495Y-109897846D01*
X172765445Y-110045053D01*
X172619312Y-110190930D01*
X172493144Y-110494778D01*
X172492857Y-110823779D01*
X172618495Y-111127846D01*
X172850930Y-111360688D01*
X173154778Y-111486856D01*
X173483779Y-111487143D01*
X173787846Y-111361505D01*
X174020688Y-111129070D01*
X174146856Y-110825222D01*
X174147143Y-110496221D01*
X174021505Y-110192154D01*
X173874555Y-110044947D01*
X174020688Y-109899070D01*
X174073111Y-109772821D01*
X174072857Y-110063779D01*
X174198495Y-110367846D01*
X174430930Y-110600688D01*
X174734778Y-110726856D01*
X175063779Y-110727143D01*
X175367846Y-110601505D01*
X175600688Y-110369070D01*
X175726856Y-110065222D01*
X175727143Y-109736221D01*
X175601505Y-109432154D01*
X175369070Y-109199312D01*
X175065222Y-109073144D01*
X174736221Y-109072857D01*
X174432154Y-109198495D01*
X174199312Y-109430930D01*
X174146889Y-109557179D01*
X174147143Y-109266221D01*
X174021505Y-108962154D01*
X173789070Y-108729312D01*
X173542674Y-108627000D01*
X178373000Y-108627000D01*
X178373000Y-109073020D01*
X178186221Y-109072857D01*
X177882154Y-109198495D01*
X177649312Y-109430930D01*
X177523144Y-109734778D01*
X177522857Y-110063779D01*
X177648495Y-110367846D01*
X177880930Y-110600688D01*
X178184778Y-110726856D01*
X178373000Y-110727020D01*
X178373000Y-112623000D01*
X173250000Y-112623000D01*
X173200590Y-112633006D01*
X173158965Y-112661447D01*
X173131685Y-112703841D01*
X173123000Y-112750000D01*
X173123000Y-115499213D01*
X140947806Y-115502430D01*
X141365392Y-115085573D01*
X141926361Y-113734609D01*
X141926854Y-113168779D01*
X163322778Y-113168779D01*
X163448416Y-113472846D01*
X163680851Y-113705688D01*
X163984699Y-113831856D01*
X164313700Y-113832143D01*
X164617767Y-113706505D01*
X164850609Y-113474070D01*
X164976777Y-113170222D01*
X164977064Y-112841221D01*
X164851426Y-112537154D01*
X164618991Y-112304312D01*
X164315143Y-112178144D01*
X163986142Y-112177857D01*
X163682075Y-112303495D01*
X163449233Y-112535930D01*
X163323065Y-112839778D01*
X163322778Y-113168779D01*
X141926854Y-113168779D01*
X141927637Y-112271808D01*
X141369027Y-110919868D01*
X140868813Y-110418779D01*
X142422857Y-110418779D01*
X142548495Y-110722846D01*
X142780930Y-110955688D01*
X143084778Y-111081856D01*
X143413779Y-111082143D01*
X143588378Y-111010000D01*
X145134635Y-111010000D01*
X145134635Y-112510000D01*
X145164409Y-112668237D01*
X145257927Y-112813567D01*
X145400619Y-112911064D01*
X145570000Y-112945365D01*
X147070000Y-112945365D01*
X147228237Y-112915591D01*
X147373567Y-112822073D01*
X147471064Y-112679381D01*
X147505365Y-112510000D01*
X147505365Y-111993093D01*
X147682796Y-111993093D01*
X147861606Y-112425846D01*
X148192412Y-112757230D01*
X148624853Y-112936795D01*
X149093093Y-112937204D01*
X149525846Y-112758394D01*
X149857230Y-112427588D01*
X150036795Y-111995147D01*
X150036796Y-111993093D01*
X150222796Y-111993093D01*
X150401606Y-112425846D01*
X150732412Y-112757230D01*
X151164853Y-112936795D01*
X151633093Y-112937204D01*
X152065846Y-112758394D01*
X152397230Y-112427588D01*
X152576795Y-111995147D01*
X152576796Y-111993093D01*
X152762796Y-111993093D01*
X152941606Y-112425846D01*
X153272412Y-112757230D01*
X153704853Y-112936795D01*
X154173093Y-112937204D01*
X154605846Y-112758394D01*
X154746830Y-112617655D01*
X155801950Y-112617655D01*
X155881329Y-112800065D01*
X156324916Y-112949996D01*
X156792113Y-112918761D01*
X157078671Y-112800065D01*
X157158050Y-112617655D01*
X156480000Y-111939605D01*
X155801950Y-112617655D01*
X154746830Y-112617655D01*
X154937230Y-112427588D01*
X155116795Y-111995147D01*
X155117135Y-111604916D01*
X155290004Y-111604916D01*
X155321239Y-112072113D01*
X155439935Y-112358671D01*
X155622345Y-112438050D01*
X156300395Y-111760000D01*
X156659605Y-111760000D01*
X157337655Y-112438050D01*
X157520065Y-112358671D01*
X157669996Y-111915084D01*
X157638761Y-111447887D01*
X157520065Y-111161329D01*
X157337655Y-111081950D01*
X156659605Y-111760000D01*
X156300395Y-111760000D01*
X155622345Y-111081950D01*
X155439935Y-111161329D01*
X155290004Y-111604916D01*
X155117135Y-111604916D01*
X155117204Y-111526907D01*
X154938394Y-111094154D01*
X154746920Y-110902345D01*
X155801950Y-110902345D01*
X156480000Y-111580395D01*
X157158050Y-110902345D01*
X157078671Y-110719935D01*
X156635084Y-110570004D01*
X156167887Y-110601239D01*
X155881329Y-110719935D01*
X155801950Y-110902345D01*
X154746920Y-110902345D01*
X154607588Y-110762770D01*
X154175147Y-110583205D01*
X153706907Y-110582796D01*
X153274154Y-110761606D01*
X152942770Y-111092412D01*
X152763205Y-111524853D01*
X152762796Y-111993093D01*
X152576796Y-111993093D01*
X152577204Y-111526907D01*
X152398394Y-111094154D01*
X152067588Y-110762770D01*
X151635147Y-110583205D01*
X151166907Y-110582796D01*
X150734154Y-110761606D01*
X150402770Y-111092412D01*
X150223205Y-111524853D01*
X150222796Y-111993093D01*
X150036796Y-111993093D01*
X150037204Y-111526907D01*
X149858394Y-111094154D01*
X149527588Y-110762770D01*
X149095147Y-110583205D01*
X148626907Y-110582796D01*
X148194154Y-110761606D01*
X147862770Y-111092412D01*
X147683205Y-111524853D01*
X147682796Y-111993093D01*
X147505365Y-111993093D01*
X147505365Y-111010000D01*
X147475591Y-110851763D01*
X147382073Y-110706433D01*
X147239381Y-110608936D01*
X147070000Y-110574635D01*
X145570000Y-110574635D01*
X145411763Y-110604409D01*
X145266433Y-110697927D01*
X145168936Y-110840619D01*
X145134635Y-111010000D01*
X143588378Y-111010000D01*
X143717846Y-110956505D01*
X143950688Y-110724070D01*
X144076856Y-110420222D01*
X144077143Y-110091221D01*
X143951505Y-109787154D01*
X143719070Y-109554312D01*
X143452806Y-109443750D01*
X155378000Y-109443750D01*
X155378000Y-109619935D01*
X155443007Y-109776876D01*
X155563124Y-109896993D01*
X155720064Y-109962000D01*
X156066250Y-109962000D01*
X156173000Y-109855250D01*
X156173000Y-109337000D01*
X155484750Y-109337000D01*
X155378000Y-109443750D01*
X143452806Y-109443750D01*
X143415222Y-109428144D01*
X143086221Y-109427857D01*
X142782154Y-109553495D01*
X142549312Y-109785930D01*
X142423144Y-110089778D01*
X142422857Y-110418779D01*
X140868813Y-110418779D01*
X140335573Y-109884608D01*
X138984609Y-109323639D01*
X137521808Y-109322363D01*
X136169868Y-109880973D01*
X135752000Y-110298112D01*
X135752000Y-105668779D01*
X152672857Y-105668779D01*
X152798495Y-105972846D01*
X153030930Y-106205688D01*
X153334778Y-106331856D01*
X153663779Y-106332143D01*
X153967846Y-106206505D01*
X154200688Y-105974070D01*
X154326856Y-105670222D01*
X154327143Y-105341221D01*
X154201505Y-105037154D01*
X153969070Y-104804312D01*
X153665222Y-104678144D01*
X153336221Y-104677857D01*
X153032154Y-104803495D01*
X152799312Y-105035930D01*
X152673144Y-105339778D01*
X152672857Y-105668779D01*
X135752000Y-105668779D01*
X135752000Y-96413779D01*
X139422857Y-96413779D01*
X139548495Y-96717846D01*
X139780930Y-96950688D01*
X140084778Y-97076856D01*
X140413779Y-97077143D01*
X140717846Y-96951505D01*
X140950688Y-96719070D01*
X141076856Y-96415222D01*
X141077143Y-96086221D01*
X140951505Y-95782154D01*
X140719070Y-95549312D01*
X140415222Y-95423144D01*
X140086221Y-95422857D01*
X139782154Y-95548495D01*
X139549312Y-95780930D01*
X139423144Y-96084778D01*
X139422857Y-96413779D01*
X135752000Y-96413779D01*
X135752000Y-83702244D01*
X136164427Y-84115392D01*
X137515391Y-84676361D01*
X138978192Y-84677637D01*
X140330132Y-84119027D01*
X141365392Y-83085573D01*
X141926361Y-81734609D01*
X141927411Y-80530000D01*
X142594635Y-80530000D01*
X142594635Y-82030000D01*
X142624409Y-82188237D01*
X142717927Y-82333567D01*
X142860619Y-82431064D01*
X143030000Y-82465365D01*
X144530000Y-82465365D01*
X144688237Y-82435591D01*
X144833567Y-82342073D01*
X144931064Y-82199381D01*
X144965365Y-82030000D01*
X144965365Y-81513093D01*
X145142796Y-81513093D01*
X145321606Y-81945846D01*
X145652412Y-82277230D01*
X146084853Y-82456795D01*
X146553093Y-82457204D01*
X146985846Y-82278394D01*
X147317230Y-81947588D01*
X147496795Y-81515147D01*
X147497135Y-81124916D01*
X147670004Y-81124916D01*
X147701239Y-81592113D01*
X147819935Y-81878671D01*
X148002345Y-81958050D01*
X148680395Y-81280000D01*
X148002345Y-80601950D01*
X147819935Y-80681329D01*
X147670004Y-81124916D01*
X147497135Y-81124916D01*
X147497204Y-81046907D01*
X147318394Y-80614154D01*
X147126920Y-80422345D01*
X148181950Y-80422345D01*
X148860000Y-81100395D01*
X149538050Y-80422345D01*
X149458671Y-80239935D01*
X149015084Y-80090004D01*
X148547887Y-80121239D01*
X148261329Y-80239935D01*
X148181950Y-80422345D01*
X147126920Y-80422345D01*
X146987588Y-80282770D01*
X146555147Y-80103205D01*
X146086907Y-80102796D01*
X145654154Y-80281606D01*
X145322770Y-80612412D01*
X145143205Y-81044853D01*
X145142796Y-81513093D01*
X144965365Y-81513093D01*
X144965365Y-80530000D01*
X144935591Y-80371763D01*
X144842073Y-80226433D01*
X144699381Y-80128936D01*
X144530000Y-80094635D01*
X143030000Y-80094635D01*
X142871763Y-80124409D01*
X142726433Y-80217927D01*
X142628936Y-80360619D01*
X142594635Y-80530000D01*
X141927411Y-80530000D01*
X141927637Y-80271808D01*
X141369027Y-78919868D01*
X140951888Y-78502000D01*
X160233299Y-78502000D01*
X160199310Y-78535930D01*
G36*
X161691694Y-103942838D02*
X161924129Y-104175680D01*
X162227977Y-104301848D01*
X162335260Y-104301942D01*
X162210484Y-104602438D01*
X162210197Y-104931439D01*
X162220241Y-104955748D01*
X162069070Y-104804312D01*
X161765222Y-104678144D01*
X161436221Y-104677857D01*
X161132154Y-104803495D01*
X161052000Y-104883509D01*
X161052000Y-103930365D01*
X161545000Y-103930365D01*
X161676330Y-103905654D01*
X161691694Y-103942838D01*
X161691694Y-103942838D01*
G37*
X161691694Y-103942838D02*
X161924129Y-104175680D01*
X162227977Y-104301848D01*
X162335260Y-104301942D01*
X162210484Y-104602438D01*
X162210197Y-104931439D01*
X162220241Y-104955748D01*
X162069070Y-104804312D01*
X161765222Y-104678144D01*
X161436221Y-104677857D01*
X161132154Y-104803495D01*
X161052000Y-104883509D01*
X161052000Y-103930365D01*
X161545000Y-103930365D01*
X161676330Y-103905654D01*
X161691694Y-103942838D01*
G36*
X152628000Y-90980065D02*
X152628000Y-91156250D01*
X152734750Y-91263000D01*
X153423000Y-91263000D01*
X153423000Y-91243000D01*
X153677000Y-91243000D01*
X153677000Y-91263000D01*
X153697000Y-91263000D01*
X153697000Y-91517000D01*
X153677000Y-91517000D01*
X153677000Y-91537000D01*
X153423000Y-91537000D01*
X153423000Y-91517000D01*
X152734750Y-91517000D01*
X152628000Y-91623750D01*
X152628000Y-91799935D01*
X152693007Y-91956876D01*
X152813124Y-92076993D01*
X152866293Y-92099016D01*
X152751433Y-92172927D01*
X152690989Y-92261390D01*
X152586423Y-92282189D01*
X152586507Y-92185501D01*
X152460869Y-91881434D01*
X152228434Y-91648592D01*
X151924586Y-91522424D01*
X151595585Y-91522137D01*
X151291518Y-91647775D01*
X151058676Y-91880210D01*
X150937122Y-92172945D01*
X150836221Y-92172857D01*
X150532154Y-92298495D01*
X150299312Y-92530930D01*
X150173144Y-92834778D01*
X150172857Y-93163779D01*
X150298495Y-93467846D01*
X150530930Y-93700688D01*
X150834778Y-93826856D01*
X151163779Y-93827143D01*
X151257693Y-93788339D01*
X152049677Y-94580323D01*
X152228758Y-94699982D01*
X152386855Y-94731429D01*
X152442927Y-94818567D01*
X152563396Y-94900880D01*
X152451433Y-94972927D01*
X152353936Y-95115619D01*
X152319635Y-95285000D01*
X152319635Y-95935000D01*
X152349409Y-96093237D01*
X152442927Y-96238567D01*
X152585619Y-96336064D01*
X152755000Y-96370365D01*
X153745000Y-96370365D01*
X153896568Y-96341846D01*
X154175394Y-96457624D01*
X154504395Y-96457911D01*
X154808462Y-96332273D01*
X155041304Y-96099838D01*
X155167472Y-95795990D01*
X155167759Y-95466989D01*
X155042121Y-95162922D01*
X154809686Y-94930080D01*
X154505838Y-94803912D01*
X154176837Y-94803625D01*
X153940040Y-94901468D01*
X153936604Y-94899120D01*
X154048567Y-94827073D01*
X154146064Y-94684381D01*
X154180365Y-94515000D01*
X154180365Y-93865000D01*
X154150591Y-93706763D01*
X154060896Y-93567374D01*
X154203237Y-93540591D01*
X154348567Y-93447073D01*
X154446064Y-93304381D01*
X154480365Y-93135000D01*
X154480365Y-92485000D01*
X154450591Y-92326763D01*
X154357073Y-92181433D01*
X154235416Y-92098309D01*
X154286876Y-92076993D01*
X154406993Y-91956876D01*
X154472000Y-91799935D01*
X154472000Y-91623750D01*
X154365252Y-91517002D01*
X154408354Y-91517002D01*
X155327777Y-92436425D01*
X155463595Y-92527177D01*
X155398154Y-92684778D01*
X155397867Y-93013779D01*
X155523505Y-93317846D01*
X155673010Y-93467613D01*
X155673010Y-94675010D01*
X155715028Y-94886252D01*
X155834687Y-95065333D01*
X156282319Y-95512965D01*
X156282319Y-96810026D01*
X155018565Y-98073780D01*
X155001366Y-98032154D01*
X154768931Y-97799312D01*
X154465083Y-97673144D01*
X154136082Y-97672857D01*
X153832015Y-97798495D01*
X153599173Y-98030930D01*
X153473005Y-98334778D01*
X153472718Y-98663779D01*
X153598356Y-98967846D01*
X153830791Y-99200688D01*
X153873799Y-99218546D01*
X152959680Y-100132665D01*
X152840021Y-100311746D01*
X152807971Y-100472876D01*
X152786225Y-100472857D01*
X152719118Y-100500585D01*
X152750688Y-100469070D01*
X152876856Y-100165222D01*
X152877143Y-99836221D01*
X152751505Y-99532154D01*
X152519070Y-99299312D01*
X152215222Y-99173144D01*
X151886221Y-99172857D01*
X151582154Y-99298495D01*
X151349312Y-99530930D01*
X151223144Y-99834778D01*
X151222857Y-100163779D01*
X151348495Y-100467846D01*
X151580930Y-100700688D01*
X151884778Y-100826856D01*
X152213779Y-100827143D01*
X152280886Y-100799415D01*
X152249316Y-100830930D01*
X152123148Y-101134778D01*
X152122861Y-101463779D01*
X152248499Y-101767846D01*
X152480934Y-102000688D01*
X152723086Y-102101238D01*
X152722857Y-102363779D01*
X152757656Y-102448000D01*
X151681998Y-102448000D01*
X151470756Y-102490018D01*
X151291675Y-102609677D01*
X151153353Y-102747999D01*
X145950643Y-102747999D01*
X143866423Y-100663779D01*
X148772857Y-100663779D01*
X148898495Y-100967846D01*
X149130930Y-101200688D01*
X149434778Y-101326856D01*
X149763779Y-101327143D01*
X150067846Y-101201505D01*
X150300688Y-100969070D01*
X150426856Y-100665222D01*
X150427143Y-100336221D01*
X150321878Y-100081461D01*
X150412291Y-99991206D01*
X150538459Y-99687358D01*
X150538746Y-99358357D01*
X150413108Y-99054290D01*
X150180673Y-98821448D01*
X149876825Y-98695280D01*
X149547824Y-98694993D01*
X149243757Y-98820631D01*
X149010915Y-99053066D01*
X148884747Y-99356914D01*
X148884460Y-99685915D01*
X148989725Y-99940675D01*
X148899312Y-100030930D01*
X148773144Y-100334778D01*
X148772857Y-100663779D01*
X143866423Y-100663779D01*
X142995868Y-99793224D01*
X143217846Y-99701505D01*
X143450688Y-99469070D01*
X143576856Y-99165222D01*
X143577041Y-98953605D01*
X144040322Y-98490324D01*
X144159981Y-98311243D01*
X144201999Y-98100001D01*
X144201999Y-93633647D01*
X145078646Y-92757000D01*
X146330000Y-92757000D01*
X146541242Y-92714982D01*
X146720323Y-92595323D01*
X147080281Y-92235365D01*
X147385000Y-92235365D01*
X147543237Y-92205591D01*
X147688567Y-92112073D01*
X147699699Y-92095781D01*
X147707927Y-92108567D01*
X147850619Y-92206064D01*
X148020000Y-92240365D01*
X148920000Y-92240365D01*
X149078237Y-92210591D01*
X149223567Y-92117073D01*
X149300466Y-92004528D01*
X149318007Y-92046876D01*
X149438124Y-92166993D01*
X149595065Y-92232000D01*
X149896250Y-92232000D01*
X150003000Y-92125250D01*
X150003000Y-91432000D01*
X150257000Y-91432000D01*
X150257000Y-92125250D01*
X150363750Y-92232000D01*
X150664935Y-92232000D01*
X150821876Y-92166993D01*
X150941993Y-92046876D01*
X151007000Y-91889936D01*
X151007000Y-91538750D01*
X150900250Y-91432000D01*
X150257000Y-91432000D01*
X150003000Y-91432000D01*
X149983000Y-91432000D01*
X149983000Y-91178000D01*
X150003000Y-91178000D01*
X150003000Y-91158000D01*
X150257000Y-91158000D01*
X150257000Y-91178000D01*
X150900250Y-91178000D01*
X151007000Y-91071250D01*
X151007000Y-91007000D01*
X151971972Y-91007000D01*
X152147927Y-90972001D01*
X152631340Y-90972001D01*
X152628000Y-90980065D01*
X152628000Y-90980065D01*
G37*
X152628000Y-90980065D02*
X152628000Y-91156250D01*
X152734750Y-91263000D01*
X153423000Y-91263000D01*
X153423000Y-91243000D01*
X153677000Y-91243000D01*
X153677000Y-91263000D01*
X153697000Y-91263000D01*
X153697000Y-91517000D01*
X153677000Y-91517000D01*
X153677000Y-91537000D01*
X153423000Y-91537000D01*
X153423000Y-91517000D01*
X152734750Y-91517000D01*
X152628000Y-91623750D01*
X152628000Y-91799935D01*
X152693007Y-91956876D01*
X152813124Y-92076993D01*
X152866293Y-92099016D01*
X152751433Y-92172927D01*
X152690989Y-92261390D01*
X152586423Y-92282189D01*
X152586507Y-92185501D01*
X152460869Y-91881434D01*
X152228434Y-91648592D01*
X151924586Y-91522424D01*
X151595585Y-91522137D01*
X151291518Y-91647775D01*
X151058676Y-91880210D01*
X150937122Y-92172945D01*
X150836221Y-92172857D01*
X150532154Y-92298495D01*
X150299312Y-92530930D01*
X150173144Y-92834778D01*
X150172857Y-93163779D01*
X150298495Y-93467846D01*
X150530930Y-93700688D01*
X150834778Y-93826856D01*
X151163779Y-93827143D01*
X151257693Y-93788339D01*
X152049677Y-94580323D01*
X152228758Y-94699982D01*
X152386855Y-94731429D01*
X152442927Y-94818567D01*
X152563396Y-94900880D01*
X152451433Y-94972927D01*
X152353936Y-95115619D01*
X152319635Y-95285000D01*
X152319635Y-95935000D01*
X152349409Y-96093237D01*
X152442927Y-96238567D01*
X152585619Y-96336064D01*
X152755000Y-96370365D01*
X153745000Y-96370365D01*
X153896568Y-96341846D01*
X154175394Y-96457624D01*
X154504395Y-96457911D01*
X154808462Y-96332273D01*
X155041304Y-96099838D01*
X155167472Y-95795990D01*
X155167759Y-95466989D01*
X155042121Y-95162922D01*
X154809686Y-94930080D01*
X154505838Y-94803912D01*
X154176837Y-94803625D01*
X153940040Y-94901468D01*
X153936604Y-94899120D01*
X154048567Y-94827073D01*
X154146064Y-94684381D01*
X154180365Y-94515000D01*
X154180365Y-93865000D01*
X154150591Y-93706763D01*
X154060896Y-93567374D01*
X154203237Y-93540591D01*
X154348567Y-93447073D01*
X154446064Y-93304381D01*
X154480365Y-93135000D01*
X154480365Y-92485000D01*
X154450591Y-92326763D01*
X154357073Y-92181433D01*
X154235416Y-92098309D01*
X154286876Y-92076993D01*
X154406993Y-91956876D01*
X154472000Y-91799935D01*
X154472000Y-91623750D01*
X154365252Y-91517002D01*
X154408354Y-91517002D01*
X155327777Y-92436425D01*
X155463595Y-92527177D01*
X155398154Y-92684778D01*
X155397867Y-93013779D01*
X155523505Y-93317846D01*
X155673010Y-93467613D01*
X155673010Y-94675010D01*
X155715028Y-94886252D01*
X155834687Y-95065333D01*
X156282319Y-95512965D01*
X156282319Y-96810026D01*
X155018565Y-98073780D01*
X155001366Y-98032154D01*
X154768931Y-97799312D01*
X154465083Y-97673144D01*
X154136082Y-97672857D01*
X153832015Y-97798495D01*
X153599173Y-98030930D01*
X153473005Y-98334778D01*
X153472718Y-98663779D01*
X153598356Y-98967846D01*
X153830791Y-99200688D01*
X153873799Y-99218546D01*
X152959680Y-100132665D01*
X152840021Y-100311746D01*
X152807971Y-100472876D01*
X152786225Y-100472857D01*
X152719118Y-100500585D01*
X152750688Y-100469070D01*
X152876856Y-100165222D01*
X152877143Y-99836221D01*
X152751505Y-99532154D01*
X152519070Y-99299312D01*
X152215222Y-99173144D01*
X151886221Y-99172857D01*
X151582154Y-99298495D01*
X151349312Y-99530930D01*
X151223144Y-99834778D01*
X151222857Y-100163779D01*
X151348495Y-100467846D01*
X151580930Y-100700688D01*
X151884778Y-100826856D01*
X152213779Y-100827143D01*
X152280886Y-100799415D01*
X152249316Y-100830930D01*
X152123148Y-101134778D01*
X152122861Y-101463779D01*
X152248499Y-101767846D01*
X152480934Y-102000688D01*
X152723086Y-102101238D01*
X152722857Y-102363779D01*
X152757656Y-102448000D01*
X151681998Y-102448000D01*
X151470756Y-102490018D01*
X151291675Y-102609677D01*
X151153353Y-102747999D01*
X145950643Y-102747999D01*
X143866423Y-100663779D01*
X148772857Y-100663779D01*
X148898495Y-100967846D01*
X149130930Y-101200688D01*
X149434778Y-101326856D01*
X149763779Y-101327143D01*
X150067846Y-101201505D01*
X150300688Y-100969070D01*
X150426856Y-100665222D01*
X150427143Y-100336221D01*
X150321878Y-100081461D01*
X150412291Y-99991206D01*
X150538459Y-99687358D01*
X150538746Y-99358357D01*
X150413108Y-99054290D01*
X150180673Y-98821448D01*
X149876825Y-98695280D01*
X149547824Y-98694993D01*
X149243757Y-98820631D01*
X149010915Y-99053066D01*
X148884747Y-99356914D01*
X148884460Y-99685915D01*
X148989725Y-99940675D01*
X148899312Y-100030930D01*
X148773144Y-100334778D01*
X148772857Y-100663779D01*
X143866423Y-100663779D01*
X142995868Y-99793224D01*
X143217846Y-99701505D01*
X143450688Y-99469070D01*
X143576856Y-99165222D01*
X143577041Y-98953605D01*
X144040322Y-98490324D01*
X144159981Y-98311243D01*
X144201999Y-98100001D01*
X144201999Y-93633647D01*
X145078646Y-92757000D01*
X146330000Y-92757000D01*
X146541242Y-92714982D01*
X146720323Y-92595323D01*
X147080281Y-92235365D01*
X147385000Y-92235365D01*
X147543237Y-92205591D01*
X147688567Y-92112073D01*
X147699699Y-92095781D01*
X147707927Y-92108567D01*
X147850619Y-92206064D01*
X148020000Y-92240365D01*
X148920000Y-92240365D01*
X149078237Y-92210591D01*
X149223567Y-92117073D01*
X149300466Y-92004528D01*
X149318007Y-92046876D01*
X149438124Y-92166993D01*
X149595065Y-92232000D01*
X149896250Y-92232000D01*
X150003000Y-92125250D01*
X150003000Y-91432000D01*
X150257000Y-91432000D01*
X150257000Y-92125250D01*
X150363750Y-92232000D01*
X150664935Y-92232000D01*
X150821876Y-92166993D01*
X150941993Y-92046876D01*
X151007000Y-91889936D01*
X151007000Y-91538750D01*
X150900250Y-91432000D01*
X150257000Y-91432000D01*
X150003000Y-91432000D01*
X149983000Y-91432000D01*
X149983000Y-91178000D01*
X150003000Y-91178000D01*
X150003000Y-91158000D01*
X150257000Y-91158000D01*
X150257000Y-91178000D01*
X150900250Y-91178000D01*
X151007000Y-91071250D01*
X151007000Y-91007000D01*
X151971972Y-91007000D01*
X152147927Y-90972001D01*
X152631340Y-90972001D01*
X152628000Y-90980065D01*
G36*
X159100000Y-91927000D02*
X159515360Y-91927000D01*
X159534409Y-92028237D01*
X159627927Y-92173567D01*
X159770619Y-92271064D01*
X159940000Y-92305365D01*
X160414719Y-92305365D01*
X160833167Y-92723813D01*
X161012249Y-92843472D01*
X161223490Y-92885490D01*
X161696772Y-92885490D01*
X161648123Y-93002651D01*
X161647838Y-93329635D01*
X161155000Y-93329635D01*
X160996763Y-93359409D01*
X160851433Y-93452927D01*
X160825196Y-93491327D01*
X160736876Y-93403007D01*
X160579936Y-93338000D01*
X160233750Y-93338000D01*
X160127000Y-93444750D01*
X160127000Y-93963000D01*
X160147000Y-93963000D01*
X160147000Y-94217000D01*
X160127000Y-94217000D01*
X160127000Y-94237000D01*
X159873000Y-94237000D01*
X159873000Y-94217000D01*
X159853000Y-94217000D01*
X159853000Y-93963000D01*
X159873000Y-93963000D01*
X159873000Y-93444750D01*
X159766250Y-93338000D01*
X159420064Y-93338000D01*
X159263124Y-93403007D01*
X159143007Y-93523124D01*
X159078000Y-93680065D01*
X159078000Y-93792356D01*
X159061998Y-93776354D01*
X159061998Y-91970000D01*
X159053445Y-91927000D01*
X159051527Y-91917358D01*
X159100000Y-91927000D01*
X159100000Y-91927000D01*
G37*
X159100000Y-91927000D02*
X159515360Y-91927000D01*
X159534409Y-92028237D01*
X159627927Y-92173567D01*
X159770619Y-92271064D01*
X159940000Y-92305365D01*
X160414719Y-92305365D01*
X160833167Y-92723813D01*
X161012249Y-92843472D01*
X161223490Y-92885490D01*
X161696772Y-92885490D01*
X161648123Y-93002651D01*
X161647838Y-93329635D01*
X161155000Y-93329635D01*
X160996763Y-93359409D01*
X160851433Y-93452927D01*
X160825196Y-93491327D01*
X160736876Y-93403007D01*
X160579936Y-93338000D01*
X160233750Y-93338000D01*
X160127000Y-93444750D01*
X160127000Y-93963000D01*
X160147000Y-93963000D01*
X160147000Y-94217000D01*
X160127000Y-94217000D01*
X160127000Y-94237000D01*
X159873000Y-94237000D01*
X159873000Y-94217000D01*
X159853000Y-94217000D01*
X159853000Y-93963000D01*
X159873000Y-93963000D01*
X159873000Y-93444750D01*
X159766250Y-93338000D01*
X159420064Y-93338000D01*
X159263124Y-93403007D01*
X159143007Y-93523124D01*
X159078000Y-93680065D01*
X159078000Y-93792356D01*
X159061998Y-93776354D01*
X159061998Y-91970000D01*
X159053445Y-91927000D01*
X159051527Y-91917358D01*
X159100000Y-91927000D01*
G36*
X148192412Y-84817230D02*
X148624853Y-84996795D01*
X149093093Y-84997204D01*
X149208764Y-84949410D01*
X149248000Y-84988646D01*
X149248000Y-85000000D01*
X149290018Y-85211242D01*
X149409677Y-85390323D01*
X150029635Y-86010281D01*
X150029635Y-86695000D01*
X150059409Y-86853237D01*
X150152927Y-86998567D01*
X150160632Y-87003831D01*
X150078124Y-87038007D01*
X149958007Y-87158124D01*
X149893000Y-87315064D01*
X149893000Y-87666250D01*
X149999750Y-87773000D01*
X150643000Y-87773000D01*
X150643000Y-87753000D01*
X150897000Y-87753000D01*
X150897000Y-87773000D01*
X150917000Y-87773000D01*
X150917000Y-88027000D01*
X150897000Y-88027000D01*
X150897000Y-88047000D01*
X150643000Y-88047000D01*
X150643000Y-88027000D01*
X149999750Y-88027000D01*
X149893000Y-88133750D01*
X149893000Y-88484936D01*
X149958007Y-88641876D01*
X150078124Y-88761993D01*
X150235065Y-88827000D01*
X150238152Y-88827000D01*
X150180749Y-88911012D01*
X150169070Y-88899312D01*
X149865222Y-88773144D01*
X149536221Y-88772857D01*
X149232154Y-88898495D01*
X149063237Y-89067117D01*
X149040591Y-88946763D01*
X148982000Y-88855711D01*
X148982000Y-88816173D01*
X149038237Y-88805591D01*
X149183567Y-88712073D01*
X149281064Y-88569381D01*
X149315365Y-88400000D01*
X149315365Y-87400000D01*
X149285591Y-87241763D01*
X149192073Y-87096433D01*
X149049381Y-86998936D01*
X148956920Y-86980212D01*
X149036064Y-86864381D01*
X149070365Y-86695000D01*
X149070365Y-85705000D01*
X149040591Y-85546763D01*
X148947073Y-85401433D01*
X148804381Y-85303936D01*
X148635000Y-85269635D01*
X148152000Y-85269635D01*
X148152000Y-84776747D01*
X148192412Y-84817230D01*
X148192412Y-84817230D01*
G37*
X148192412Y-84817230D02*
X148624853Y-84996795D01*
X149093093Y-84997204D01*
X149208764Y-84949410D01*
X149248000Y-84988646D01*
X149248000Y-85000000D01*
X149290018Y-85211242D01*
X149409677Y-85390323D01*
X150029635Y-86010281D01*
X150029635Y-86695000D01*
X150059409Y-86853237D01*
X150152927Y-86998567D01*
X150160632Y-87003831D01*
X150078124Y-87038007D01*
X149958007Y-87158124D01*
X149893000Y-87315064D01*
X149893000Y-87666250D01*
X149999750Y-87773000D01*
X150643000Y-87773000D01*
X150643000Y-87753000D01*
X150897000Y-87753000D01*
X150897000Y-87773000D01*
X150917000Y-87773000D01*
X150917000Y-88027000D01*
X150897000Y-88027000D01*
X150897000Y-88047000D01*
X150643000Y-88047000D01*
X150643000Y-88027000D01*
X149999750Y-88027000D01*
X149893000Y-88133750D01*
X149893000Y-88484936D01*
X149958007Y-88641876D01*
X150078124Y-88761993D01*
X150235065Y-88827000D01*
X150238152Y-88827000D01*
X150180749Y-88911012D01*
X150169070Y-88899312D01*
X149865222Y-88773144D01*
X149536221Y-88772857D01*
X149232154Y-88898495D01*
X149063237Y-89067117D01*
X149040591Y-88946763D01*
X148982000Y-88855711D01*
X148982000Y-88816173D01*
X149038237Y-88805591D01*
X149183567Y-88712073D01*
X149281064Y-88569381D01*
X149315365Y-88400000D01*
X149315365Y-87400000D01*
X149285591Y-87241763D01*
X149192073Y-87096433D01*
X149049381Y-86998936D01*
X148956920Y-86980212D01*
X149036064Y-86864381D01*
X149070365Y-86695000D01*
X149070365Y-85705000D01*
X149040591Y-85546763D01*
X148947073Y-85401433D01*
X148804381Y-85303936D01*
X148635000Y-85269635D01*
X148152000Y-85269635D01*
X148152000Y-84776747D01*
X148192412Y-84817230D01*
G36*
X181515391Y-84676361D02*
X182978192Y-84677637D01*
X184310836Y-84127000D01*
X184748000Y-84127000D01*
X184748000Y-92373000D01*
X179127000Y-92373000D01*
X179127000Y-84127000D01*
X180192382Y-84127000D01*
X181515391Y-84676361D01*
X181515391Y-84676361D01*
G37*
X181515391Y-84676361D02*
X182978192Y-84677637D01*
X184310836Y-84127000D01*
X184748000Y-84127000D01*
X184748000Y-92373000D01*
X179127000Y-92373000D01*
X179127000Y-84127000D01*
X180192382Y-84127000D01*
X181515391Y-84676361D01*
G36*
X179145032Y-93390954D02*
X179270670Y-93695021D01*
X179503105Y-93927863D01*
X179806953Y-94054031D01*
X180135954Y-94054318D01*
X180440021Y-93928680D01*
X180672863Y-93696245D01*
X180799031Y-93392397D01*
X180799263Y-93127000D01*
X184748000Y-93127000D01*
X184748000Y-101123000D01*
X179127000Y-101123000D01*
X179127000Y-93127000D01*
X179145262Y-93127000D01*
X179145032Y-93390954D01*
X179145032Y-93390954D01*
G37*
X179145032Y-93390954D02*
X179270670Y-93695021D01*
X179503105Y-93927863D01*
X179806953Y-94054031D01*
X180135954Y-94054318D01*
X180440021Y-93928680D01*
X180672863Y-93696245D01*
X180799031Y-93392397D01*
X180799263Y-93127000D01*
X184748000Y-93127000D01*
X184748000Y-101123000D01*
X179127000Y-101123000D01*
X179127000Y-93127000D01*
X179145262Y-93127000D01*
X179145032Y-93390954D01*
G36*
X184748000Y-109373000D02*
X183103484Y-109373000D01*
X182984609Y-109323639D01*
X181521808Y-109322363D01*
X181399257Y-109373000D01*
X179127000Y-109373000D01*
X179127000Y-102833220D01*
X179231339Y-102790108D01*
X179464181Y-102557673D01*
X179590349Y-102253825D01*
X179590636Y-101924824D01*
X179570876Y-101877000D01*
X184748000Y-101877000D01*
X184748000Y-109373000D01*
X184748000Y-109373000D01*
G37*
X184748000Y-109373000D02*
X183103484Y-109373000D01*
X182984609Y-109323639D01*
X181521808Y-109322363D01*
X181399257Y-109373000D01*
X179127000Y-109373000D01*
X179127000Y-102833220D01*
X179231339Y-102790108D01*
X179464181Y-102557673D01*
X179590349Y-102253825D01*
X179590636Y-101924824D01*
X179570876Y-101877000D01*
X184748000Y-101877000D01*
X184748000Y-109373000D01*
G36*
X172947282Y-93131888D02*
X173123000Y-93307606D01*
X173123000Y-95005000D01*
X173133006Y-95054410D01*
X173160197Y-95094803D01*
X173410197Y-95344803D01*
X173452211Y-95372666D01*
X173500000Y-95382000D01*
X175123000Y-95382000D01*
X175123000Y-98878000D01*
X173533024Y-98878000D01*
X171377000Y-97675418D01*
X171377000Y-94750000D01*
X171366994Y-94700590D01*
X171338553Y-94658965D01*
X171306796Y-94636408D01*
X170682725Y-94324373D01*
X170768234Y-93127252D01*
X172947282Y-93131888D01*
X172947282Y-93131888D01*
G37*
X172947282Y-93131888D02*
X173123000Y-93307606D01*
X173123000Y-95005000D01*
X173133006Y-95054410D01*
X173160197Y-95094803D01*
X173410197Y-95344803D01*
X173452211Y-95372666D01*
X173500000Y-95382000D01*
X175123000Y-95382000D01*
X175123000Y-98878000D01*
X173533024Y-98878000D01*
X171377000Y-97675418D01*
X171377000Y-94750000D01*
X171366994Y-94700590D01*
X171338553Y-94658965D01*
X171306796Y-94636408D01*
X170682725Y-94324373D01*
X170768234Y-93127252D01*
X172947282Y-93131888D01*
G36*
X175123000Y-86478490D02*
X175123000Y-89752394D01*
X174775700Y-90099694D01*
X174618940Y-90174155D01*
X174071140Y-90196363D01*
X174015222Y-90173144D01*
X173686221Y-90172857D01*
X173581268Y-90216223D01*
X170947421Y-90323000D01*
X170661378Y-90323000D01*
X170580569Y-90302321D01*
X170624596Y-89069571D01*
X171320447Y-88605670D01*
X171356008Y-88569937D01*
X171377000Y-88500000D01*
X171377000Y-86652606D01*
X171602606Y-86427000D01*
X175020020Y-86427000D01*
X175123000Y-86478490D01*
X175123000Y-86478490D01*
G37*
X175123000Y-86478490D02*
X175123000Y-89752394D01*
X174775700Y-90099694D01*
X174618940Y-90174155D01*
X174071140Y-90196363D01*
X174015222Y-90173144D01*
X173686221Y-90172857D01*
X173581268Y-90216223D01*
X170947421Y-90323000D01*
X170661378Y-90323000D01*
X170580569Y-90302321D01*
X170624596Y-89069571D01*
X171320447Y-88605670D01*
X171356008Y-88569937D01*
X171377000Y-88500000D01*
X171377000Y-86652606D01*
X171602606Y-86427000D01*
X175020020Y-86427000D01*
X175123000Y-86478490D01*
G36*
X175123000Y-107677828D02*
X171592409Y-107673057D01*
X171277000Y-107436500D01*
X171277000Y-106195000D01*
X171266994Y-106145590D01*
X171238553Y-106103965D01*
X171188340Y-106073926D01*
X170905485Y-105984355D01*
X170682783Y-105835887D01*
X170770493Y-104783365D01*
X170893068Y-104725142D01*
X172465634Y-104332000D01*
X175123000Y-104332000D01*
X175123000Y-107677828D01*
X175123000Y-107677828D01*
G37*
X175123000Y-107677828D02*
X171592409Y-107673057D01*
X171277000Y-107436500D01*
X171277000Y-106195000D01*
X171266994Y-106145590D01*
X171238553Y-106103965D01*
X171188340Y-106073926D01*
X170905485Y-105984355D01*
X170682783Y-105835887D01*
X170770493Y-104783365D01*
X170893068Y-104725142D01*
X172465634Y-104332000D01*
X175123000Y-104332000D01*
X175123000Y-107677828D01*
M02*
