G04 #@! TF.FileFunction,Copper,L1,Top,Signal*
%FSLAX46Y46*%
G04 Gerber Fmt 4.6, Leading zero omitted, Abs format (unit mm)*
G04 Created by KiCad (PCBNEW 4.0.6-e0-6349~53~ubuntu16.04.1) date Fri Mar 10 07:50:29 2017*
%MOMM*%
%LPD*%
G01*
G04 APERTURE LIST*
%ADD10C,0.100000*%
%ADD11C,0.250000*%
%ADD12C,0.800000*%
%ADD13C,1.300000*%
%ADD14C,1.900000*%
%ADD15R,1.000000X2.700000*%
%ADD16R,0.900000X1.000000*%
%ADD17R,2.700000X1.500000*%
%ADD18R,0.400000X0.600000*%
%ADD19R,1.640000X1.400000*%
%ADD20R,1.150000X0.700000*%
%ADD21R,1.550000X4.700000*%
%ADD22R,3.300000X4.200000*%
%ADD23R,0.600000X0.800000*%
%ADD24R,1.350000X1.550000*%
%ADD25R,1.550000X1.350000*%
%ADD26R,1.500000X1.500000*%
%ADD27C,1.500000*%
%ADD28R,1.000000X0.900000*%
%ADD29R,0.650000X0.990000*%
%ADD30R,0.720000X0.720000*%
%ADD31R,0.640000X0.720000*%
%ADD32R,1.400000X1.400000*%
%ADD33O,1.050000X0.250000*%
%ADD34O,0.250000X1.050000*%
%ADD35R,0.990000X0.650000*%
%ADD36R,0.600000X0.400000*%
%ADD37C,0.500000*%
%ADD38C,0.400000*%
%ADD39C,1.000000*%
%ADD40C,0.350000*%
%ADD41C,0.300000*%
%ADD42C,0.254000*%
G04 APERTURE END LIST*
D10*
D11*
X174585715Y-114957381D02*
X174014286Y-114957381D01*
X174300000Y-114957381D02*
X174300000Y-113957381D01*
X174204762Y-114100238D01*
X174109524Y-114195476D01*
X174014286Y-114243095D01*
D12*
X176350000Y-84600000D03*
X169950000Y-101005000D03*
X173850000Y-91000000D03*
D13*
X167500000Y-79250000D03*
D14*
X173250000Y-81000000D03*
X183750000Y-102750000D03*
X183750000Y-94250000D03*
D12*
X178700000Y-109900000D03*
X173320000Y-109430000D03*
X145000000Y-98300000D03*
X161250000Y-115005000D03*
X159750000Y-79005000D03*
X136250000Y-109505000D03*
X155750000Y-79005000D03*
X150750000Y-79005000D03*
X145750000Y-79005000D03*
X141750000Y-79005000D03*
X136250000Y-84505000D03*
X136250000Y-89505000D03*
X136250000Y-94505000D03*
X136250000Y-99505000D03*
X136250000Y-104505000D03*
X142250000Y-115005000D03*
X146250000Y-115005000D03*
X151250000Y-115005000D03*
X156250000Y-115005000D03*
X173000000Y-83005000D03*
X172940000Y-100420000D03*
X172420000Y-103290000D03*
X173320000Y-110660000D03*
X184450000Y-108805000D03*
X183750000Y-108805000D03*
X183050000Y-108805000D03*
X182350000Y-108805000D03*
X181650000Y-108805000D03*
X184450000Y-108105000D03*
X183750000Y-108105000D03*
X183050000Y-108105000D03*
X182350000Y-108105000D03*
X181650000Y-108105000D03*
X184450000Y-107405000D03*
X183750000Y-107405000D03*
X183050000Y-107405000D03*
X182350000Y-107405000D03*
X181650000Y-107405000D03*
X184450000Y-106705000D03*
X183750000Y-106705000D03*
X183050000Y-106705000D03*
X182350000Y-106705000D03*
X181650000Y-106705000D03*
X184450000Y-106005000D03*
X183750000Y-106005000D03*
X183050000Y-106005000D03*
X182350000Y-106005000D03*
X181650000Y-106005000D03*
X184450000Y-105305000D03*
X183750000Y-105305000D03*
X183050000Y-105305000D03*
X182350000Y-105305000D03*
X181650000Y-105305000D03*
X184450000Y-104605000D03*
X183750000Y-104605000D03*
X183050000Y-104605000D03*
X182350000Y-104605000D03*
X181650000Y-104605000D03*
X184450000Y-103905000D03*
X183050000Y-103905000D03*
X182350000Y-103905000D03*
X184450000Y-100605000D03*
X183750000Y-100605000D03*
X183050000Y-100605000D03*
X182350000Y-100605000D03*
X181650000Y-100605000D03*
X184450000Y-99905000D03*
X183750000Y-99905000D03*
X183050000Y-99905000D03*
X182350000Y-99905000D03*
X181650000Y-99905000D03*
X184450000Y-99205000D03*
X183750000Y-99205000D03*
X183050000Y-99205000D03*
X182350000Y-99205000D03*
X181650000Y-99205000D03*
X184450000Y-98505000D03*
X183750000Y-98505000D03*
X183050000Y-98505000D03*
X182350000Y-98505000D03*
X181650000Y-98505000D03*
X184450000Y-97805000D03*
X183750000Y-97805000D03*
X183050000Y-97805000D03*
X182350000Y-97805000D03*
X181650000Y-97805000D03*
X184450000Y-97105000D03*
X183750000Y-97105000D03*
X183050000Y-97105000D03*
X182350000Y-97105000D03*
X181650000Y-97105000D03*
X184450000Y-96405000D03*
X183750000Y-96405000D03*
X183050000Y-96405000D03*
X182350000Y-96405000D03*
X181650000Y-96405000D03*
X184450000Y-95705000D03*
X183750000Y-95705000D03*
X183050000Y-95705000D03*
X182350000Y-95705000D03*
X181650000Y-103905000D03*
X184450000Y-91605000D03*
X183750000Y-91605000D03*
X183050000Y-91605000D03*
X182350000Y-91605000D03*
X181650000Y-91605000D03*
X184450000Y-90905000D03*
X183750000Y-90905000D03*
X183050000Y-90905000D03*
X182350000Y-90905000D03*
X181650000Y-90905000D03*
X184450000Y-90205000D03*
X183750000Y-90205000D03*
X183050000Y-90205000D03*
X182350000Y-90205000D03*
X181650000Y-90205000D03*
X184450000Y-89505000D03*
X183750000Y-89505000D03*
X183050000Y-89505000D03*
X182350000Y-89505000D03*
X181650000Y-89505000D03*
X184450000Y-88805000D03*
X183750000Y-88805000D03*
X183050000Y-88805000D03*
X182350000Y-88805000D03*
X181650000Y-88805000D03*
X184450000Y-88105000D03*
X183750000Y-88105000D03*
X183050000Y-88105000D03*
X182350000Y-88105000D03*
X181650000Y-88105000D03*
X184450000Y-87405000D03*
X183750000Y-87405000D03*
X183050000Y-87405000D03*
X182350000Y-87405000D03*
X181650000Y-87405000D03*
X181650000Y-95705000D03*
X184450000Y-86705000D03*
X183050000Y-86705000D03*
X182350000Y-86705000D03*
X181650000Y-86705000D03*
X166250000Y-83405000D03*
X166450000Y-100205000D03*
X165750000Y-100205000D03*
X170450000Y-82005000D03*
X169750000Y-82005000D03*
X169050000Y-82005000D03*
X168350000Y-82005000D03*
X167650000Y-82005000D03*
X166950000Y-82005000D03*
X166250000Y-82005000D03*
X165550000Y-82005000D03*
X170450000Y-81305000D03*
X169750000Y-81305000D03*
X169050000Y-81305000D03*
X168350000Y-81305000D03*
X167650000Y-81305000D03*
X166950000Y-81305000D03*
X166250000Y-81305000D03*
X165550000Y-81305000D03*
X170450000Y-80605000D03*
X169750000Y-80605000D03*
X169050000Y-80605000D03*
X168350000Y-80605000D03*
X167650000Y-80605000D03*
X166950000Y-80605000D03*
X166250000Y-80605000D03*
X170450000Y-79905000D03*
X169750000Y-79905000D03*
X169050000Y-79905000D03*
X168350000Y-79905000D03*
X166250000Y-82705000D03*
X165550000Y-82705000D03*
X170450000Y-79205000D03*
X169750000Y-79205000D03*
X169050000Y-79205000D03*
X166550000Y-112305000D03*
X165850000Y-112305000D03*
X166550000Y-111605000D03*
X165850000Y-111605000D03*
X169950000Y-103805000D03*
X169250000Y-103805000D03*
X168550000Y-103805000D03*
X167850000Y-103805000D03*
X167150000Y-103805000D03*
X166450000Y-103805000D03*
X169950000Y-103105000D03*
X169250000Y-103105000D03*
X168550000Y-103105000D03*
X167850000Y-103105000D03*
X167150000Y-103105000D03*
X166450000Y-103105000D03*
X165750000Y-103105000D03*
X169950000Y-102405000D03*
X169250000Y-102405000D03*
X168550000Y-102405000D03*
X167850000Y-102405000D03*
X167150000Y-102405000D03*
X166450000Y-102405000D03*
X165750000Y-102405000D03*
X169950000Y-101705000D03*
X169250000Y-101705000D03*
X168550000Y-101705000D03*
X167850000Y-101705000D03*
X167150000Y-101705000D03*
X166450000Y-101705000D03*
X165750000Y-101705000D03*
X169250000Y-101005000D03*
X168550000Y-101005000D03*
X167850000Y-101005000D03*
X167150000Y-101005000D03*
X166450000Y-101005000D03*
X165750000Y-101005000D03*
X171450000Y-115105000D03*
X170750000Y-115105000D03*
X170050000Y-115105000D03*
X169350000Y-115105000D03*
X168650000Y-115105000D03*
X167950000Y-115105000D03*
X167250000Y-115105000D03*
X166550000Y-115105000D03*
X165850000Y-115105000D03*
X171450000Y-114405000D03*
X170750000Y-114405000D03*
X170050000Y-114405000D03*
X169350000Y-114405000D03*
X168650000Y-114405000D03*
X167950000Y-114405000D03*
X167250000Y-114405000D03*
X166550000Y-114405000D03*
X165850000Y-114405000D03*
X171450000Y-113705000D03*
X170750000Y-113705000D03*
X170050000Y-113705000D03*
X169350000Y-113705000D03*
X168650000Y-113705000D03*
X167950000Y-113705000D03*
X167250000Y-113705000D03*
X166550000Y-113705000D03*
X165850000Y-113705000D03*
X171450000Y-113005000D03*
X170750000Y-113005000D03*
X170050000Y-113005000D03*
X169350000Y-113005000D03*
X168650000Y-113005000D03*
X167950000Y-113005000D03*
X167250000Y-113005000D03*
X166550000Y-113005000D03*
X165850000Y-113005000D03*
X150150000Y-97755000D03*
X148850000Y-98105000D03*
X147700000Y-98105000D03*
X145550000Y-93055000D03*
X146500000Y-98155000D03*
X144500000Y-97405000D03*
X144550000Y-93905000D03*
X151250000Y-94055000D03*
X150000000Y-93405000D03*
X148950000Y-93205000D03*
X147900000Y-93205000D03*
D15*
X142800000Y-104750000D03*
X145000000Y-104750000D03*
D16*
X161430000Y-85700000D03*
X159770000Y-85700000D03*
D17*
X148150000Y-96650000D03*
X148150000Y-94750000D03*
D18*
X159550000Y-112055000D03*
X160450000Y-112055000D03*
X157850000Y-109005000D03*
X158750000Y-109005000D03*
D19*
X149000000Y-104485000D03*
X149000000Y-108515000D03*
D20*
X179875000Y-88135000D03*
X179875000Y-89405000D03*
X179875000Y-86865000D03*
D21*
X174400000Y-87500000D03*
D22*
X176600000Y-87500000D03*
D20*
X179875000Y-85595000D03*
X180000000Y-97100000D03*
X180000000Y-98370000D03*
X180000000Y-95830000D03*
D21*
X174525000Y-96465000D03*
D22*
X176725000Y-96465000D03*
D20*
X180000000Y-94560000D03*
X180050000Y-106010000D03*
X180050000Y-107280000D03*
X180050000Y-104740000D03*
D21*
X174575000Y-105375000D03*
D22*
X176775000Y-105375000D03*
D20*
X180050000Y-103470000D03*
D23*
X161200000Y-83600000D03*
X161200000Y-81200000D03*
D24*
X175250000Y-82000000D03*
X177250000Y-82000000D03*
D23*
X166500000Y-99105000D03*
X166500000Y-96705000D03*
X164500000Y-105305000D03*
X164500000Y-107705000D03*
D24*
X176300000Y-100700000D03*
X178300000Y-100700000D03*
X143200000Y-108250000D03*
X145200000Y-108250000D03*
X149300000Y-102100000D03*
X147300000Y-102100000D03*
X175700000Y-91800000D03*
X177700000Y-91800000D03*
D25*
X177000000Y-109900000D03*
X177000000Y-111900000D03*
D26*
X143780000Y-83820000D03*
D27*
X146320000Y-83820000D03*
X148860000Y-83820000D03*
X151400000Y-83820000D03*
X153940000Y-83820000D03*
D26*
X143780000Y-81280000D03*
D27*
X146320000Y-81280000D03*
X148860000Y-81280000D03*
X151400000Y-81280000D03*
X153940000Y-81280000D03*
X156480000Y-81280000D03*
D26*
X146320000Y-111760000D03*
D27*
X148860000Y-111760000D03*
X151400000Y-111760000D03*
X153940000Y-111760000D03*
X156480000Y-111760000D03*
D16*
X148430000Y-99900000D03*
X146770000Y-99900000D03*
D28*
X153500000Y-92580000D03*
X153500000Y-90920000D03*
X151600000Y-101170000D03*
X151600000Y-102830000D03*
D16*
X164530000Y-96925000D03*
X162870000Y-96925000D03*
D28*
X161700000Y-100930000D03*
X161700000Y-99270000D03*
D29*
X164210000Y-81700000D03*
X162790000Y-81700000D03*
X164210000Y-83400000D03*
X162790000Y-83400000D03*
X167910000Y-95305000D03*
X166490000Y-95305000D03*
X167920000Y-93605000D03*
X166500000Y-93605000D03*
X167960000Y-107005000D03*
X166540000Y-107005000D03*
X167960000Y-105005000D03*
X166540000Y-105005000D03*
X163260000Y-112105000D03*
X161840000Y-112105000D03*
X159490000Y-104500000D03*
X160910000Y-104500000D03*
D16*
X159570000Y-102900000D03*
X161230000Y-102900000D03*
D29*
X153090000Y-104400000D03*
X154510000Y-104400000D03*
X161560000Y-109105000D03*
X160140000Y-109105000D03*
D30*
X145600000Y-94050000D03*
X145600000Y-95050000D03*
X145600000Y-97350000D03*
X145600000Y-96350000D03*
D31*
X151740000Y-96700000D03*
X150660000Y-96700000D03*
D12*
X146800000Y-93205000D03*
D32*
X157450000Y-98325000D03*
X156050000Y-98325000D03*
X157450000Y-96925000D03*
D33*
X153225000Y-94875000D03*
X153225000Y-95375000D03*
X153225000Y-95875000D03*
X153225000Y-96375000D03*
X153225000Y-96875000D03*
X153225000Y-97375000D03*
X153225000Y-97875000D03*
X153225000Y-98375000D03*
X153225000Y-98875000D03*
X153225000Y-99375000D03*
X153225000Y-99875000D03*
X153225000Y-100375000D03*
D34*
X154000000Y-101150000D03*
X154500000Y-101150000D03*
X155000000Y-101150000D03*
X155500000Y-101150000D03*
X156000000Y-101150000D03*
X156500000Y-101150000D03*
X157000000Y-101150000D03*
X157500000Y-101150000D03*
X158000000Y-101150000D03*
X158500000Y-101150000D03*
X159000000Y-101150000D03*
X159500000Y-101150000D03*
D33*
X160275000Y-100375000D03*
X160275000Y-99875000D03*
X160275000Y-99375000D03*
X160275000Y-98875000D03*
X160275000Y-98375000D03*
X160275000Y-97875000D03*
X160275000Y-97375000D03*
X160275000Y-96875000D03*
X160275000Y-96375000D03*
X160275000Y-95875000D03*
X160275000Y-95375000D03*
X160275000Y-94875000D03*
D34*
X159500000Y-94100000D03*
X159000000Y-94100000D03*
X158500000Y-94100000D03*
X158000000Y-94100000D03*
X157500000Y-94100000D03*
X157000000Y-94100000D03*
X156500000Y-94100000D03*
X156000000Y-94100000D03*
X155500000Y-94100000D03*
X155000000Y-94100000D03*
X154500000Y-94100000D03*
X154000000Y-94100000D03*
D32*
X156050000Y-96925000D03*
D14*
X183750000Y-85500000D03*
D13*
X172500000Y-79250000D03*
D14*
X165500000Y-79500000D03*
D35*
X139000000Y-96290000D03*
X139000000Y-97710000D03*
D36*
X139000000Y-100200000D03*
X139000000Y-99300000D03*
D12*
X153000000Y-107250000D03*
X151500000Y-107250000D03*
X146500000Y-106500000D03*
X176250000Y-93400000D03*
X154299861Y-98500000D03*
X176850000Y-99299991D03*
X164149921Y-113005000D03*
X175000000Y-79000000D03*
X174900000Y-109900000D03*
X174500000Y-100700000D03*
X149711603Y-99522136D03*
X149600000Y-100500000D03*
X177450000Y-102200000D03*
X177550000Y-93300000D03*
X151750000Y-104400000D03*
X160574957Y-92719540D03*
X145550000Y-100500000D03*
X152250000Y-91250006D03*
X158250000Y-112054994D03*
X177267753Y-83754618D03*
X145750000Y-101755016D03*
X174900000Y-112000000D03*
X156000000Y-95505000D03*
X151185000Y-108915000D03*
X169000000Y-85530010D03*
X169250000Y-109605000D03*
X168963201Y-97917119D03*
X164284254Y-99941045D03*
X162075976Y-104487519D03*
X163900000Y-89205000D03*
X164250000Y-110755000D03*
X155500000Y-99755000D03*
X156400000Y-82975000D03*
X146750000Y-109250000D03*
X144550000Y-96350000D03*
X144550000Y-95050000D03*
X149600000Y-87900000D03*
X145600000Y-87900000D03*
X159000000Y-99755000D03*
X164746737Y-95395004D03*
X160899998Y-79005000D03*
X175700004Y-102405000D03*
X162393199Y-103474992D03*
X174600000Y-93505000D03*
X162340955Y-90189166D03*
X161900000Y-79305000D03*
X175200000Y-84305000D03*
X178763493Y-102088603D03*
X167960000Y-108140000D03*
X178450000Y-83255000D03*
X163000000Y-79805000D03*
X167999992Y-96755000D03*
X179972175Y-93227175D03*
X162474979Y-93167873D03*
X151759364Y-92349280D03*
X152050000Y-100000000D03*
X153500000Y-105505000D03*
X142750002Y-102255000D03*
X143250000Y-110255000D03*
X161600000Y-105505000D03*
X157700000Y-82905000D03*
X149700000Y-89600000D03*
X145600000Y-89600000D03*
X158200000Y-110400000D03*
X158012660Y-99987340D03*
X163924990Y-92900000D03*
X159000000Y-83205000D03*
X169243857Y-106991177D03*
X163037340Y-104767660D03*
X163250000Y-84805000D03*
X169000000Y-88005000D03*
X164411160Y-91967483D03*
X169010997Y-94987653D03*
X159900000Y-105800000D03*
X142750000Y-99000000D03*
X159393923Y-107531396D03*
X152950004Y-101300000D03*
X156225010Y-92850000D03*
X156274808Y-87623751D03*
X154250000Y-103000000D03*
X157160782Y-91646103D03*
X156250000Y-91004962D03*
X154340616Y-95630768D03*
X160698915Y-107480021D03*
X158981218Y-98165420D03*
X156275000Y-88675000D03*
X152405676Y-93112355D03*
X151000000Y-93000000D03*
X158700000Y-105705000D03*
X158670369Y-95224666D03*
X156400000Y-86625000D03*
X153550000Y-102200000D03*
X140250000Y-96250000D03*
D11*
X151915000Y-96875000D02*
X151740000Y-96700000D01*
X153325000Y-96875000D02*
X151915000Y-96875000D01*
X160175000Y-101275000D02*
X160679999Y-101779999D01*
X164500000Y-104533088D02*
X164500000Y-104655000D01*
X164500000Y-104655000D02*
X164500000Y-105305000D01*
X160175000Y-100375000D02*
X160175000Y-101275000D01*
X160679999Y-101779999D02*
X161746911Y-101779999D01*
X161746911Y-101779999D02*
X164500000Y-104533088D01*
X164950000Y-105305000D02*
X165250000Y-105005000D01*
X165250000Y-105005000D02*
X165500000Y-105005000D01*
X164500000Y-105305000D02*
X164950000Y-105305000D01*
X166540000Y-105005000D02*
X165500000Y-105005000D01*
X166340000Y-104805000D02*
X166540000Y-105005000D01*
X166500000Y-99105000D02*
X166105000Y-99105000D01*
X166105000Y-99105000D02*
X165375000Y-98375000D01*
X165375000Y-98375000D02*
X165220000Y-98375000D01*
X165220000Y-98375000D02*
X160100000Y-98375000D01*
X166500000Y-98455000D02*
X166500000Y-99105000D01*
X167200000Y-94475000D02*
X167200000Y-96231962D01*
X166500000Y-93775000D02*
X167200000Y-94475000D01*
X166500000Y-93605000D02*
X166500000Y-93775000D01*
X167125001Y-96306961D02*
X167125001Y-97829999D01*
X167200000Y-96231962D02*
X167125001Y-96306961D01*
X167125001Y-97829999D02*
X166500000Y-98455000D01*
X162215000Y-84145000D02*
X162790000Y-83570000D01*
X160975000Y-87690002D02*
X162215000Y-86450002D01*
X163199988Y-94450012D02*
X163199988Y-92517754D01*
X163199988Y-92517754D02*
X160975000Y-90292766D01*
X160100000Y-96375000D02*
X161275000Y-96375000D01*
X161275000Y-96375000D02*
X163199988Y-94450012D01*
X160975000Y-90292766D02*
X160975000Y-87690002D01*
X162215000Y-86450002D02*
X162215000Y-84145000D01*
X162790000Y-83570000D02*
X162790000Y-83400000D01*
X161200000Y-83600000D02*
X161750000Y-83600000D01*
X161750000Y-83600000D02*
X161950000Y-83400000D01*
X161950000Y-83400000D02*
X162790000Y-83400000D01*
D37*
X176775000Y-102775000D02*
X176775000Y-105375000D01*
X176599998Y-102599998D02*
X176775000Y-102775000D01*
X176599998Y-100999998D02*
X176599998Y-102599998D01*
X176300000Y-100700000D02*
X176599998Y-100999998D01*
X176260000Y-93400000D02*
X176250000Y-93400000D01*
X176725000Y-93865000D02*
X176260000Y-93400000D01*
X176725000Y-96465000D02*
X176725000Y-93865000D01*
X175700000Y-91800000D02*
X174650000Y-91800000D01*
X174650000Y-91800000D02*
X173850000Y-91000000D01*
X173250000Y-81000000D02*
X173250000Y-81325000D01*
X173250000Y-81325000D02*
X174000000Y-82075000D01*
X173250000Y-81000000D02*
X173250000Y-80000000D01*
X173250000Y-80000000D02*
X172500000Y-79250000D01*
X175250000Y-82000000D02*
X174250000Y-82000000D01*
X174250000Y-82000000D02*
X173250000Y-81000000D01*
X177000000Y-109900000D02*
X177000000Y-106525000D01*
X177000000Y-106525000D02*
X175850000Y-105375000D01*
X175850000Y-105375000D02*
X174575000Y-105375000D01*
X174525000Y-96465000D02*
X176725000Y-96465000D01*
X174575000Y-105375000D02*
X176775000Y-105375000D01*
X175700000Y-91800000D02*
X175700000Y-95290000D01*
X175700000Y-95290000D02*
X174525000Y-96465000D01*
X175700000Y-91800000D02*
X175700000Y-87525000D01*
X175700000Y-87525000D02*
X175675000Y-87500000D01*
X175675000Y-87500000D02*
X174400000Y-87500000D01*
X174400000Y-87500000D02*
X174400000Y-84650000D01*
X174400000Y-84650000D02*
X174000000Y-84250000D01*
X174000000Y-84250000D02*
X174000000Y-82075000D01*
X174000000Y-82075000D02*
X174075000Y-82000000D01*
X174075000Y-82000000D02*
X175250000Y-82000000D01*
D11*
X153750000Y-98375000D02*
X153225000Y-98375000D01*
X154000000Y-98375000D02*
X153750000Y-98375000D01*
X153750000Y-98375000D02*
X154174861Y-98375000D01*
X154174861Y-98375000D02*
X154299861Y-98500000D01*
X154150000Y-98225000D02*
X154299861Y-98374861D01*
X154299861Y-98374861D02*
X154299861Y-98500000D01*
X153225000Y-97375000D02*
X154000000Y-97375000D01*
X154000000Y-97375000D02*
X154150000Y-97525000D01*
X154150000Y-97525000D02*
X154150000Y-98225000D01*
X154150000Y-98225000D02*
X154000000Y-98375000D01*
D37*
X177000000Y-109900000D02*
X177000000Y-105600000D01*
X177000000Y-105600000D02*
X176775000Y-105375000D01*
X174855000Y-82005000D02*
X175000000Y-82150000D01*
X175000000Y-82150000D02*
X175000000Y-82155000D01*
X175700000Y-91800000D02*
X175700000Y-88400000D01*
X175700000Y-88400000D02*
X176600000Y-87500000D01*
X176300000Y-100700000D02*
X176300000Y-96890000D01*
X176300000Y-96890000D02*
X176725000Y-96465000D01*
D11*
X176600000Y-87500000D02*
X174400000Y-87500000D01*
D37*
X177000000Y-109900000D02*
X178700000Y-109900000D01*
X175000000Y-82355000D02*
X175000000Y-82505000D01*
D11*
X175000000Y-82255000D02*
X175000000Y-82355000D01*
X175000000Y-81900000D02*
X175000000Y-82255000D01*
X176675009Y-99299991D02*
X176850000Y-99299991D01*
X176300000Y-99675000D02*
X176675009Y-99299991D01*
X176300000Y-100700000D02*
X176300000Y-99675000D01*
X163990000Y-113005000D02*
X164149921Y-113005000D01*
X163260000Y-112275000D02*
X163990000Y-113005000D01*
X163260000Y-112105000D02*
X163260000Y-112275000D01*
X173250000Y-81805000D02*
X173050000Y-81605000D01*
X175000000Y-81900000D02*
X174075000Y-81900000D01*
D37*
X175000000Y-80200000D02*
X175000000Y-79000000D01*
X175000000Y-81900000D02*
X175000000Y-80200000D01*
X177000000Y-109900000D02*
X174900000Y-109900000D01*
X176300000Y-100700000D02*
X174500000Y-100700000D01*
D38*
X150577863Y-99122137D02*
X150111602Y-99122137D01*
X151100000Y-98600000D02*
X150577863Y-99122137D01*
D37*
X149600000Y-99633739D02*
X149711603Y-99522136D01*
X149311604Y-99922135D02*
X149711603Y-99522136D01*
X149222135Y-99922135D02*
X149311604Y-99922135D01*
X149200000Y-99900000D02*
X149222135Y-99922135D01*
X149600000Y-100500000D02*
X149600000Y-99633739D01*
D38*
X150111602Y-99122137D02*
X149711603Y-99522136D01*
D11*
X153325000Y-98375000D02*
X151325000Y-98375000D01*
X151325000Y-98375000D02*
X151200000Y-98500000D01*
X151200000Y-98500000D02*
X151100000Y-98600000D01*
D37*
X149300000Y-102100000D02*
X149300000Y-101200000D01*
X149300000Y-101200000D02*
X149600000Y-100900000D01*
X149600000Y-100900000D02*
X149600000Y-100500000D01*
X148430000Y-99900000D02*
X149200000Y-99900000D01*
D11*
X149600000Y-100500000D02*
X149200000Y-100100000D01*
X149200000Y-100100000D02*
X149200000Y-99900000D01*
X148430000Y-99850000D02*
X148430000Y-99900000D01*
D37*
X178300000Y-101350000D02*
X177450000Y-102200000D01*
X178300000Y-100700000D02*
X178300000Y-101350000D01*
X177700000Y-91800000D02*
X177700000Y-93150000D01*
X177700000Y-93150000D02*
X177550000Y-93300000D01*
X151600000Y-102830000D02*
X151600000Y-104250000D01*
X151600000Y-104250000D02*
X151750000Y-104400000D01*
X145550000Y-100170000D02*
X145550000Y-100500000D01*
X145820000Y-99900000D02*
X145550000Y-100170000D01*
X146770000Y-99900000D02*
X145820000Y-99900000D01*
D11*
X152580006Y-90920000D02*
X152250000Y-91250006D01*
X153500000Y-90920000D02*
X152580006Y-90920000D01*
D37*
X177000000Y-82150000D02*
X177250000Y-82400000D01*
X177250000Y-82400000D02*
X177250000Y-83736865D01*
X177250000Y-83736865D02*
X177267753Y-83754618D01*
D11*
X157500000Y-101050000D02*
X157500000Y-100500000D01*
X157500000Y-100500000D02*
X157250000Y-100250000D01*
X157250000Y-100250000D02*
X157250000Y-99475000D01*
X157250000Y-99475000D02*
X157450000Y-99275000D01*
X157450000Y-99275000D02*
X157450000Y-98325000D01*
X157850000Y-109005000D02*
X157850000Y-109105000D01*
X156480000Y-110699340D02*
X156480000Y-111760000D01*
X157850000Y-109105000D02*
X156480000Y-110475000D01*
X156480000Y-110475000D02*
X156480000Y-110699340D01*
X158250006Y-112055000D02*
X158250000Y-112054994D01*
X159550000Y-112055000D02*
X158250006Y-112055000D01*
D37*
X151185000Y-108915000D02*
X147090000Y-108915000D01*
X147090000Y-108915000D02*
X146950000Y-109055000D01*
X146950000Y-109055000D02*
X146945000Y-109055000D01*
X146945000Y-109055000D02*
X146750000Y-109250000D01*
X145200000Y-108250000D02*
X145750000Y-108250000D01*
X145750000Y-108250000D02*
X146750000Y-109250000D01*
D39*
X177795000Y-91705000D02*
X177700000Y-91800000D01*
D37*
X146094984Y-102100000D02*
X145750000Y-101755016D01*
X147300000Y-102100000D02*
X146094984Y-102100000D01*
D11*
X156000000Y-95505000D02*
X156000000Y-96875000D01*
X156000000Y-94200000D02*
X156000000Y-95505000D01*
X168434315Y-85530010D02*
X169000000Y-85530010D01*
X167574990Y-85530010D02*
X168434315Y-85530010D01*
X163900000Y-89205000D02*
X167574990Y-85530010D01*
D39*
X174900000Y-112000000D02*
X176900000Y-112000000D01*
X176900000Y-112000000D02*
X177000000Y-111900000D01*
D11*
X162075976Y-104487519D02*
X161675977Y-104087520D01*
X161675977Y-104087520D02*
X161675977Y-103580977D01*
X161675977Y-103580977D02*
X161130000Y-103035000D01*
X161130000Y-103035000D02*
X161130000Y-102900000D01*
X156050000Y-98325000D02*
X156050000Y-99205000D01*
X156050000Y-99205000D02*
X155500000Y-99755000D01*
D37*
X151185000Y-108915000D02*
X151400000Y-108700000D01*
D11*
X144550000Y-96350000D02*
X144550000Y-97750000D01*
X144550000Y-97750000D02*
X144874998Y-98074998D01*
X144874998Y-98074998D02*
X147288591Y-98074998D01*
X147288591Y-98074998D02*
X147513598Y-97849991D01*
X147513598Y-97849991D02*
X149950009Y-97849991D01*
X149950009Y-97849991D02*
X150400000Y-97400000D01*
X150400000Y-97400000D02*
X151850000Y-97400000D01*
X144550000Y-95050000D02*
X144550000Y-96350000D01*
X151400000Y-94450000D02*
X151500000Y-94450000D01*
X150200000Y-94450000D02*
X151400000Y-94450000D01*
X150070002Y-94320002D02*
X150200000Y-94450000D01*
X150070002Y-94000000D02*
X150070002Y-94320002D01*
X149435001Y-93364999D02*
X150070002Y-94000000D01*
X144550000Y-93750000D02*
X144935001Y-93364999D01*
X144935001Y-93364999D02*
X149435001Y-93364999D01*
X144550000Y-94484315D02*
X144550000Y-93750000D01*
X144550000Y-95050000D02*
X144550000Y-94484315D01*
X145600000Y-96350000D02*
X144550000Y-96350000D01*
X145600000Y-95050000D02*
X144550000Y-95050000D01*
X156000000Y-96875000D02*
X156050000Y-96925000D01*
X155925000Y-96875000D02*
X155975000Y-96925000D01*
X157425000Y-98375000D02*
X157375000Y-98325000D01*
X160875000Y-99875000D02*
X160275000Y-99875000D01*
X159000000Y-99755000D02*
X159120000Y-99875000D01*
X159120000Y-99875000D02*
X160875000Y-99875000D01*
X160875000Y-99875000D02*
X161170000Y-100170000D01*
X161170000Y-100170000D02*
X161170000Y-100400000D01*
X161170000Y-100400000D02*
X161700000Y-100930000D01*
X164530000Y-96925000D02*
X164530000Y-95611741D01*
X164530000Y-95611741D02*
X164746737Y-95395004D01*
X160175000Y-97875000D02*
X163630000Y-97875000D01*
X163630000Y-97875000D02*
X164530000Y-96975000D01*
X164530000Y-96975000D02*
X164530000Y-96925000D01*
X161430000Y-85750000D02*
X161430000Y-85700000D01*
X160524989Y-86655011D02*
X161430000Y-85750000D01*
X161749978Y-95250022D02*
X161749978Y-91704155D01*
X160524989Y-90479166D02*
X160524989Y-86655011D01*
X161749978Y-91704155D02*
X160524989Y-90479166D01*
X161125000Y-95875000D02*
X161749978Y-95250022D01*
X160100000Y-95875000D02*
X161125000Y-95875000D01*
X183750000Y-85500000D02*
X183750000Y-86005000D01*
X160499999Y-79404999D02*
X160899998Y-79005000D01*
X160499999Y-84719999D02*
X160499999Y-79404999D01*
X161430000Y-85700000D02*
X161430000Y-85650000D01*
X161430000Y-85650000D02*
X160499999Y-84719999D01*
X178763493Y-102408493D02*
X178763493Y-102088603D01*
X179825000Y-103470000D02*
X178763493Y-102408493D01*
X180050000Y-103470000D02*
X179825000Y-103470000D01*
X167960000Y-107005000D02*
X167960000Y-108140000D01*
X167960000Y-105005000D02*
X167960000Y-107005000D01*
X179875000Y-85595000D02*
X179875000Y-84625000D01*
X179875000Y-84625000D02*
X178505000Y-83255000D01*
X178505000Y-83255000D02*
X178450000Y-83255000D01*
X178450000Y-83205000D02*
X178450000Y-83255000D01*
X163000000Y-80320000D02*
X163000000Y-79805000D01*
X164210000Y-81530000D02*
X163000000Y-80320000D01*
X164210000Y-81700000D02*
X164210000Y-81530000D01*
X164210000Y-81700000D02*
X164210000Y-83400000D01*
X167910000Y-96665008D02*
X167999992Y-96755000D01*
X167910000Y-95305000D02*
X167910000Y-96665008D01*
X180000000Y-93255000D02*
X179972175Y-93227175D01*
X180000000Y-94560000D02*
X180000000Y-93255000D01*
X167910000Y-95305000D02*
X167910000Y-93615000D01*
X167910000Y-93615000D02*
X167920000Y-93605000D01*
X162000000Y-81450000D02*
X162000000Y-81485000D01*
X162000000Y-81485000D02*
X162215000Y-81700000D01*
X162215000Y-81700000D02*
X162790000Y-81700000D01*
X161200000Y-81200000D02*
X161750000Y-81200000D01*
X161750000Y-81200000D02*
X162000000Y-81450000D01*
X166500000Y-96705000D02*
X166500000Y-95315000D01*
X166500000Y-95315000D02*
X166490000Y-95305000D01*
X164500000Y-107705000D02*
X165050000Y-107705000D01*
X165050000Y-107705000D02*
X165750000Y-107005000D01*
X165750000Y-107005000D02*
X166540000Y-107005000D01*
D37*
X153090000Y-104400000D02*
X153090000Y-103405000D01*
X152550001Y-102865001D02*
X152550001Y-102120001D01*
X153090000Y-103405000D02*
X152550001Y-102865001D01*
X152550001Y-102120001D02*
X151600000Y-101170000D01*
D11*
X151650000Y-101170000D02*
X151600000Y-101170000D01*
X152325049Y-92349280D02*
X151759364Y-92349280D01*
X153269280Y-92349280D02*
X152325049Y-92349280D01*
X153500000Y-92580000D02*
X153269280Y-92349280D01*
X153225000Y-99375000D02*
X152675000Y-99375000D01*
X152675000Y-99375000D02*
X152050000Y-100000000D01*
X153325000Y-99375000D02*
X152875000Y-99375000D01*
D37*
X152050000Y-100000000D02*
X151600000Y-100450000D01*
X151600000Y-100450000D02*
X151600000Y-101170000D01*
D11*
X153500000Y-92580000D02*
X153580000Y-92580000D01*
X153580000Y-92580000D02*
X154000000Y-93000000D01*
X154000000Y-94200000D02*
X154000000Y-93000000D01*
X153500000Y-92580000D02*
X153330000Y-92580000D01*
X151600000Y-100450000D02*
X151600000Y-100670000D01*
D37*
X153090000Y-104400000D02*
X153090000Y-105095000D01*
X153090000Y-105095000D02*
X153500000Y-105505000D01*
X143200000Y-106955000D02*
X143155000Y-106955000D01*
X143155000Y-106955000D02*
X142800000Y-106600000D01*
X142800000Y-106600000D02*
X142800000Y-104750000D01*
X143200000Y-108500000D02*
X143200000Y-106955000D01*
X143250000Y-110255000D02*
X143250000Y-108550000D01*
X143250000Y-108550000D02*
X143200000Y-108500000D01*
X142800000Y-104750000D02*
X142800000Y-102304998D01*
X142800000Y-102304998D02*
X142750002Y-102255000D01*
D11*
X161560000Y-109105000D02*
X161560000Y-105545000D01*
X161560000Y-105545000D02*
X161600000Y-105505000D01*
X161600000Y-105360000D02*
X161600000Y-105505000D01*
X160910000Y-104670000D02*
X161600000Y-105360000D01*
X160910000Y-104500000D02*
X160910000Y-104670000D01*
X158012660Y-99669336D02*
X158012660Y-99987340D01*
X158651998Y-99029998D02*
X158012660Y-99669336D01*
X159130000Y-98875000D02*
X158975002Y-99029998D01*
X160100000Y-98875000D02*
X159130000Y-98875000D01*
X158975002Y-99029998D02*
X158651998Y-99029998D01*
X163924990Y-93465685D02*
X163924990Y-92900000D01*
X160100000Y-96875000D02*
X161411410Y-96875000D01*
X161411410Y-96875000D02*
X163924990Y-94361420D01*
X163924990Y-94361420D02*
X163924990Y-93465685D01*
X158700001Y-90600001D02*
X158700001Y-84070684D01*
X160275000Y-94875000D02*
X160275000Y-93492585D01*
X159000000Y-83770685D02*
X159000000Y-83205000D01*
X158700001Y-84070684D02*
X159000000Y-83770685D01*
X159849956Y-91749956D02*
X158700001Y-90600001D01*
X160275000Y-93492585D02*
X159849956Y-93067541D01*
X159849956Y-93067541D02*
X159849956Y-91749956D01*
X158750000Y-109005000D02*
X160040000Y-109005000D01*
X160040000Y-109005000D02*
X160140000Y-109105000D01*
X159490000Y-104400000D02*
X159490000Y-105390000D01*
X159490000Y-105390000D02*
X159500001Y-105400001D01*
X159500001Y-105400001D02*
X159900000Y-105800000D01*
X159470000Y-102800000D02*
X159470000Y-104380000D01*
X159470000Y-104380000D02*
X159490000Y-104400000D01*
X159500000Y-101050000D02*
X159500000Y-102770000D01*
X159500000Y-102770000D02*
X159470000Y-102800000D01*
X159500000Y-101050000D02*
X159500000Y-101325000D01*
X143149999Y-99399999D02*
X142750000Y-99000000D01*
X145355001Y-99399999D02*
X143149999Y-99399999D01*
X149700000Y-98555000D02*
X149374999Y-98880001D01*
X151080000Y-97875000D02*
X150400000Y-98555000D01*
X150400000Y-98555000D02*
X149700000Y-98555000D01*
X153325000Y-97875000D02*
X151080000Y-97875000D01*
X145874999Y-98880001D02*
X145355001Y-99399999D01*
X149374999Y-98880001D02*
X145874999Y-98880001D01*
X153325000Y-98875000D02*
X151875000Y-98875000D01*
X151875000Y-98875000D02*
X151750000Y-99000000D01*
D40*
X151100000Y-99500000D02*
X151250000Y-99500000D01*
D41*
X151250000Y-99500000D02*
X151750000Y-99000000D01*
D37*
X149000000Y-104485000D02*
X145265000Y-104485000D01*
X145265000Y-104485000D02*
X145000000Y-104750000D01*
X150500000Y-100600000D02*
X150500000Y-103205000D01*
X150500000Y-103205000D02*
X149220000Y-104485000D01*
X149220000Y-104485000D02*
X149000000Y-104485000D01*
D38*
X150500000Y-100100000D02*
X150500000Y-100600000D01*
X150665002Y-99934998D02*
X150500000Y-100100000D01*
D41*
X151200000Y-99500000D02*
X151100000Y-99500000D01*
D38*
X151100000Y-99500000D02*
X150665002Y-99934998D01*
D11*
X158200000Y-86200000D02*
X154500000Y-82500000D01*
X154500000Y-82500000D02*
X152620000Y-82500000D01*
X152620000Y-82500000D02*
X152149999Y-82029999D01*
X159399945Y-93253941D02*
X159399945Y-91999944D01*
X159500000Y-94100000D02*
X159500000Y-93353996D01*
X152149999Y-82029999D02*
X151400000Y-81280000D01*
X158200000Y-90799999D02*
X158200000Y-86200000D01*
X159500000Y-93353996D02*
X159399945Y-93253941D01*
X159399945Y-91999944D02*
X158200000Y-90799999D01*
X152700000Y-84500000D02*
X152700000Y-83289998D01*
X147069999Y-82029999D02*
X146320000Y-81280000D01*
X152010002Y-82600000D02*
X147640000Y-82600000D01*
X157649991Y-86286401D02*
X156363590Y-85000000D01*
X159000000Y-93490407D02*
X158949934Y-93440341D01*
X158949934Y-93440341D02*
X158949934Y-92186344D01*
X156363590Y-85000000D02*
X153200000Y-85000000D01*
X158949934Y-92186344D02*
X157649991Y-90886401D01*
X159000000Y-94200000D02*
X159000000Y-93490407D01*
X147640000Y-82600000D02*
X147069999Y-82029999D01*
X153200000Y-85000000D02*
X152700000Y-84500000D01*
X157649991Y-90886401D02*
X157649991Y-86286401D01*
X152700000Y-83289998D02*
X152010002Y-82600000D01*
X160450000Y-112055000D02*
X161790000Y-112055000D01*
X161790000Y-112055000D02*
X161840000Y-112105000D01*
X157200000Y-102000000D02*
X157313590Y-102000000D01*
X157313590Y-102000000D02*
X157313600Y-102000010D01*
X157313600Y-102000010D02*
X157686400Y-102000010D01*
X157686400Y-102000010D02*
X157950010Y-101736400D01*
X157950010Y-101736400D02*
X157950010Y-101712166D01*
X157950010Y-101712166D02*
X158000000Y-101662176D01*
X158000000Y-101662176D02*
X158000000Y-101050000D01*
X157200000Y-106305000D02*
X157200000Y-102000000D01*
X157200000Y-102000000D02*
X157150000Y-101950000D01*
X159393923Y-107531396D02*
X158426396Y-107531396D01*
X158426396Y-107531396D02*
X157200000Y-106305000D01*
X157150000Y-101950000D02*
X157000000Y-101800000D01*
X157000000Y-101800000D02*
X157000000Y-101050000D01*
X153325000Y-100375000D02*
X153250000Y-100450000D01*
X153250000Y-100450000D02*
X153250000Y-101000000D01*
X153250000Y-101000000D02*
X152950004Y-101299996D01*
X152950004Y-101299996D02*
X152950004Y-101300000D01*
X156225010Y-92850000D02*
X156225010Y-92875010D01*
X156225010Y-92875010D02*
X156500000Y-93150000D01*
X156500000Y-93150000D02*
X156500000Y-94100000D01*
X154500000Y-94700000D02*
X154500000Y-94100000D01*
X154500000Y-89398559D02*
X155874809Y-88023750D01*
X154500000Y-94700000D02*
X154500000Y-89398559D01*
X155073835Y-95273835D02*
X154500000Y-94700000D01*
X155073835Y-95926165D02*
X155073835Y-95273835D01*
X155024999Y-99048130D02*
X155024999Y-95975001D01*
X155874809Y-88023750D02*
X156274808Y-87623751D01*
X155024999Y-95975001D02*
X155073835Y-95926165D01*
X153250000Y-99875000D02*
X154198124Y-99875000D01*
X154198124Y-99875000D02*
X155024999Y-99048130D01*
X149200000Y-94850000D02*
X149250011Y-94900011D01*
X149250011Y-94900011D02*
X151100011Y-94900011D01*
X151100011Y-94900011D02*
X152575000Y-96375000D01*
X152575000Y-96375000D02*
X153325000Y-96375000D01*
X148150000Y-94750000D02*
X146550000Y-94750000D01*
X146550000Y-94750000D02*
X145850000Y-94050000D01*
X145850000Y-94050000D02*
X145600000Y-94050000D01*
X148150000Y-96650000D02*
X146550000Y-96650000D01*
X146550000Y-96650000D02*
X145850000Y-97350000D01*
X145850000Y-97350000D02*
X145600000Y-97350000D01*
X148150000Y-96650000D02*
X147100000Y-96650000D01*
X150660000Y-96700000D02*
X148200000Y-96700000D01*
X148200000Y-96700000D02*
X148150000Y-96650000D01*
X149325000Y-96875000D02*
X149200000Y-96750000D01*
X154500000Y-101050000D02*
X154500000Y-102184315D01*
X154250000Y-102434315D02*
X154250000Y-103000000D01*
X154500000Y-102184315D02*
X154250000Y-102434315D01*
X158500000Y-94100000D02*
X158499923Y-94099923D01*
X157726467Y-91646103D02*
X157160782Y-91646103D01*
X158499923Y-94099923D02*
X158499923Y-92419559D01*
X158499923Y-92419559D02*
X157726467Y-91646103D01*
X158500000Y-94200000D02*
X158500000Y-93675908D01*
X158000000Y-94200000D02*
X158000000Y-92750000D01*
X158000000Y-92750000D02*
X157650000Y-92400000D01*
X157650000Y-92400000D02*
X156823004Y-92400000D01*
X156823004Y-92400000D02*
X156250000Y-91826996D01*
X156250000Y-91826996D02*
X156250000Y-91570647D01*
X156250000Y-91570647D02*
X156250000Y-91004962D01*
X154340616Y-95630768D02*
X154096384Y-95875000D01*
X154096384Y-95875000D02*
X153325000Y-95875000D01*
X155000000Y-101050000D02*
X155000000Y-103750000D01*
X155000000Y-103750000D02*
X154510000Y-104240000D01*
X154510000Y-104240000D02*
X154510000Y-104400000D01*
X146320000Y-111760000D02*
X147040000Y-111760000D01*
X147040000Y-111760000D02*
X148200000Y-110600000D01*
X148200000Y-110600000D02*
X150332588Y-110600000D01*
X150332588Y-110600000D02*
X150697599Y-110234988D01*
X150697599Y-110234988D02*
X151865012Y-110234988D01*
X151865012Y-110234988D02*
X154510000Y-107590000D01*
X154510000Y-107590000D02*
X154510000Y-104400000D01*
X155500000Y-101050000D02*
X155500000Y-107505000D01*
X155500000Y-107505000D02*
X155400000Y-107605000D01*
X155400000Y-107605000D02*
X155395000Y-107605000D01*
X155395000Y-107605000D02*
X152315001Y-110684999D01*
X152315001Y-110684999D02*
X150951411Y-110684999D01*
X150951411Y-110684999D02*
X149876410Y-111760000D01*
X149876410Y-111760000D02*
X148860000Y-111760000D01*
X156000000Y-101050000D02*
X156000000Y-108005000D01*
X156000000Y-108005000D02*
X155900000Y-108105000D01*
X155900000Y-108105000D02*
X155900000Y-108115398D01*
X155900000Y-108115398D02*
X152255398Y-111760000D01*
X152255398Y-111760000D02*
X151400000Y-111760000D01*
X156500000Y-101050000D02*
X156500000Y-109200000D01*
X156500000Y-109200000D02*
X153940000Y-111760000D01*
X158344988Y-101953599D02*
X158500000Y-101798587D01*
X157800000Y-102736411D02*
X158344988Y-102191423D01*
X157800000Y-106105000D02*
X157800000Y-102736411D01*
X160698915Y-107480021D02*
X159993892Y-106774998D01*
X159993892Y-106774998D02*
X158469998Y-106774998D01*
X158469998Y-106774998D02*
X157800000Y-106105000D01*
X158344988Y-102191423D02*
X158344988Y-101953599D01*
X158500000Y-101798587D02*
X158500000Y-101050000D01*
X158981218Y-96515533D02*
X158981218Y-97599735D01*
X158365684Y-95899999D02*
X158981218Y-96515533D01*
X157699999Y-95899999D02*
X158365684Y-95899999D01*
X157000000Y-95200000D02*
X157699999Y-95899999D01*
X158981218Y-97599735D02*
X158981218Y-98165420D01*
X157000000Y-94200000D02*
X157000000Y-95200000D01*
X155000000Y-94200000D02*
X155000000Y-89950000D01*
X155000000Y-89950000D02*
X155875001Y-89074999D01*
X155875001Y-89074999D02*
X156275000Y-88675000D01*
X152805675Y-93512354D02*
X152405676Y-93112355D01*
X153325000Y-94031679D02*
X152805675Y-93512354D01*
X153325000Y-94875000D02*
X153325000Y-94031679D01*
X151268002Y-93000000D02*
X151000000Y-93000000D01*
X151975001Y-93706999D02*
X151268002Y-93000000D01*
X152520000Y-95375000D02*
X151975001Y-94830001D01*
X153325000Y-95375000D02*
X152520000Y-95375000D01*
X151975001Y-94830001D02*
X151975001Y-93706999D01*
X158794999Y-102441412D02*
X158700000Y-102536411D01*
X159000000Y-101934998D02*
X158794999Y-102139999D01*
X159000000Y-101050000D02*
X159000000Y-101934998D01*
X158794999Y-102139999D02*
X158794999Y-102441412D01*
X158700000Y-105139315D02*
X158700000Y-105705000D01*
X158700000Y-102536411D02*
X158700000Y-105139315D01*
X157500000Y-94200000D02*
X157500000Y-94875000D01*
X157500000Y-94875000D02*
X157849666Y-95224666D01*
X157849666Y-95224666D02*
X158104684Y-95224666D01*
X158104684Y-95224666D02*
X158670369Y-95224666D01*
X155500000Y-94200000D02*
X155500000Y-90681994D01*
X155500000Y-90681994D02*
X157075002Y-89106992D01*
X157075002Y-89106992D02*
X157075002Y-87300002D01*
X157075002Y-87300002D02*
X156799999Y-87024999D01*
X156799999Y-87024999D02*
X156400000Y-86625000D01*
X159770000Y-86450000D02*
X159770000Y-85700000D01*
X160975000Y-95375000D02*
X161299967Y-95050033D01*
X161299967Y-92299967D02*
X159770000Y-90770000D01*
X159770000Y-90770000D02*
X159770000Y-86450000D01*
X161299967Y-95050033D02*
X161299967Y-92299967D01*
X160975000Y-95375000D02*
X160275000Y-95375000D01*
X160100000Y-95375000D02*
X160975000Y-95375000D01*
X160175000Y-97375000D02*
X161720000Y-97375000D01*
X161720000Y-97375000D02*
X162170000Y-96925000D01*
X162170000Y-96925000D02*
X162870000Y-96925000D01*
X160175000Y-99375000D02*
X161595000Y-99375000D01*
X161595000Y-99375000D02*
X161700000Y-99270000D01*
X154000000Y-101150000D02*
X154000000Y-101750000D01*
X154000000Y-101750000D02*
X153550000Y-102200000D01*
X140250000Y-96250000D02*
X139040000Y-96250000D01*
X139040000Y-96250000D02*
X139000000Y-96290000D01*
X139000000Y-97710000D02*
X139000000Y-99300000D01*
D42*
G36*
X178373000Y-82427933D02*
X178360365Y-82427922D01*
X178360365Y-81225000D01*
X178330591Y-81066763D01*
X178237073Y-80921433D01*
X178094381Y-80823936D01*
X177925000Y-80789635D01*
X176575000Y-80789635D01*
X176416763Y-80819409D01*
X176271433Y-80912927D01*
X176249255Y-80945386D01*
X176166876Y-80863007D01*
X176009935Y-80798000D01*
X175483750Y-80798000D01*
X175377000Y-80904750D01*
X175377000Y-81873000D01*
X175397000Y-81873000D01*
X175397000Y-82127000D01*
X175377000Y-82127000D01*
X175377000Y-83095250D01*
X175483750Y-83202000D01*
X176009935Y-83202000D01*
X176166876Y-83136993D01*
X176248195Y-83055674D01*
X176262927Y-83078567D01*
X176405619Y-83176064D01*
X176573000Y-83209960D01*
X176573000Y-83279623D01*
X176567065Y-83285548D01*
X176440897Y-83589396D01*
X176440610Y-83918397D01*
X176566248Y-84222464D01*
X176798683Y-84455306D01*
X177102531Y-84581474D01*
X177431532Y-84581761D01*
X177735599Y-84456123D01*
X177968441Y-84223688D01*
X178065195Y-83990678D01*
X178284778Y-84081856D01*
X178373000Y-84081933D01*
X178373000Y-84988767D01*
X178334936Y-84973000D01*
X177531750Y-84973000D01*
X177425000Y-85079750D01*
X177425000Y-86627000D01*
X177493000Y-86627000D01*
X177493000Y-88373000D01*
X177425000Y-88373000D01*
X177425000Y-89920250D01*
X177531750Y-90027000D01*
X178334936Y-90027000D01*
X178373000Y-90011233D01*
X178373000Y-90589635D01*
X177025000Y-90589635D01*
X176866763Y-90619409D01*
X176721433Y-90712927D01*
X176699255Y-90745386D01*
X176616876Y-90663007D01*
X176459935Y-90598000D01*
X175933750Y-90598000D01*
X175827000Y-90704750D01*
X175827000Y-91673000D01*
X175847000Y-91673000D01*
X175847000Y-91927000D01*
X175827000Y-91927000D01*
X175827000Y-92895250D01*
X175933750Y-93002000D01*
X176459935Y-93002000D01*
X176616876Y-92936993D01*
X176698195Y-92855674D01*
X176712927Y-92878567D01*
X176803761Y-92940631D01*
X176723144Y-93134778D01*
X176722857Y-93463779D01*
X176848495Y-93767846D01*
X177080930Y-94000688D01*
X177384778Y-94126856D01*
X177550000Y-94127000D01*
X177550000Y-95592000D01*
X177618000Y-95592000D01*
X177618000Y-97338000D01*
X177550000Y-97338000D01*
X177550000Y-98885250D01*
X177656750Y-98992000D01*
X178373000Y-98992000D01*
X178373000Y-99489635D01*
X177625000Y-99489635D01*
X177466763Y-99519409D01*
X177321433Y-99612927D01*
X177299255Y-99645386D01*
X177216876Y-99563007D01*
X177059935Y-99498000D01*
X176533750Y-99498000D01*
X176427000Y-99604750D01*
X176427000Y-100573000D01*
X176447000Y-100573000D01*
X176447000Y-100827000D01*
X176427000Y-100827000D01*
X176427000Y-100847000D01*
X176173000Y-100847000D01*
X176173000Y-100827000D01*
X175304750Y-100827000D01*
X175198000Y-100933750D01*
X175198000Y-101559936D01*
X175253766Y-101694567D01*
X175232158Y-101703495D01*
X174999316Y-101935930D01*
X174873148Y-102239778D01*
X174872861Y-102568779D01*
X174962500Y-102785722D01*
X174962500Y-102880128D01*
X174883124Y-102913007D01*
X174763007Y-103033124D01*
X174698000Y-103190065D01*
X174698000Y-104395250D01*
X174804750Y-104502000D01*
X175950000Y-104502000D01*
X175950000Y-103196519D01*
X176167850Y-103106505D01*
X176400692Y-102874070D01*
X176526860Y-102570222D01*
X176527147Y-102241221D01*
X176401509Y-101937154D01*
X176366416Y-101902000D01*
X176427002Y-101902000D01*
X176427002Y-101795252D01*
X176533750Y-101902000D01*
X176678278Y-101902000D01*
X176623144Y-102034778D01*
X176622857Y-102363779D01*
X176748495Y-102667846D01*
X176980930Y-102900688D01*
X177284778Y-103026856D01*
X177600000Y-103027131D01*
X177600000Y-104502000D01*
X177668000Y-104502000D01*
X177668000Y-106248000D01*
X177600000Y-106248000D01*
X177600000Y-107795250D01*
X177706750Y-107902000D01*
X178373000Y-107902000D01*
X178373000Y-113078000D01*
X173627000Y-113078000D01*
X173627000Y-112255000D01*
X173616994Y-112205590D01*
X173588553Y-112163965D01*
X173556796Y-112141408D01*
X173273980Y-112000000D01*
X173973000Y-112000000D01*
X174043564Y-112354748D01*
X174244512Y-112655488D01*
X174545252Y-112856436D01*
X174900000Y-112927000D01*
X175983811Y-112927000D01*
X176055619Y-112976064D01*
X176225000Y-113010365D01*
X177775000Y-113010365D01*
X177933237Y-112980591D01*
X178078567Y-112887073D01*
X178176064Y-112744381D01*
X178210365Y-112575000D01*
X178210365Y-111225000D01*
X178180591Y-111066763D01*
X178087073Y-110921433D01*
X178054614Y-110899255D01*
X178136993Y-110816876D01*
X178202000Y-110659935D01*
X178202000Y-110133750D01*
X178095250Y-110027000D01*
X177127000Y-110027000D01*
X177127000Y-110047000D01*
X176873000Y-110047000D01*
X176873000Y-110027000D01*
X175904750Y-110027000D01*
X175798000Y-110133750D01*
X175798000Y-110659935D01*
X175863007Y-110816876D01*
X175944326Y-110898195D01*
X175921433Y-110912927D01*
X175823936Y-111055619D01*
X175820416Y-111073000D01*
X174900000Y-111073000D01*
X174545252Y-111143564D01*
X174244512Y-111344512D01*
X174043564Y-111645252D01*
X173973000Y-112000000D01*
X173273980Y-112000000D01*
X171627000Y-111176510D01*
X171627000Y-109140065D01*
X175798000Y-109140065D01*
X175798000Y-109666250D01*
X175904750Y-109773000D01*
X176873000Y-109773000D01*
X176873000Y-108904750D01*
X177127000Y-108904750D01*
X177127000Y-109773000D01*
X178095250Y-109773000D01*
X178202000Y-109666250D01*
X178202000Y-109140065D01*
X178136993Y-108983124D01*
X178016876Y-108863007D01*
X177859936Y-108798000D01*
X177233750Y-108798000D01*
X177127000Y-108904750D01*
X176873000Y-108904750D01*
X176766250Y-108798000D01*
X176140064Y-108798000D01*
X175983124Y-108863007D01*
X175863007Y-108983124D01*
X175798000Y-109140065D01*
X171627000Y-109140065D01*
X171627000Y-106354750D01*
X173373000Y-106354750D01*
X173373000Y-107809935D01*
X173438007Y-107966876D01*
X173558124Y-108086993D01*
X173715064Y-108152000D01*
X174080750Y-108152000D01*
X174187500Y-108045250D01*
X174187500Y-106354750D01*
X174698000Y-106354750D01*
X174698000Y-107559935D01*
X174763007Y-107716876D01*
X174883124Y-107836993D01*
X174962500Y-107869872D01*
X174962500Y-108045250D01*
X175069250Y-108152000D01*
X175434936Y-108152000D01*
X175591876Y-108086993D01*
X175711993Y-107966876D01*
X175738865Y-107902000D01*
X175843250Y-107902000D01*
X175950000Y-107795250D01*
X175950000Y-106248000D01*
X174804750Y-106248000D01*
X174698000Y-106354750D01*
X174187500Y-106354750D01*
X174187500Y-106248000D01*
X173479750Y-106248000D01*
X173373000Y-106354750D01*
X171627000Y-106354750D01*
X171627000Y-102940065D01*
X173373000Y-102940065D01*
X173373000Y-104395250D01*
X173479750Y-104502000D01*
X174187500Y-104502000D01*
X174187500Y-102704750D01*
X174080750Y-102598000D01*
X173715064Y-102598000D01*
X173558124Y-102663007D01*
X173438007Y-102783124D01*
X173373000Y-102940065D01*
X171627000Y-102940065D01*
X171627000Y-99840064D01*
X175198000Y-99840064D01*
X175198000Y-100466250D01*
X175304750Y-100573000D01*
X176173000Y-100573000D01*
X176173000Y-99604750D01*
X176066250Y-99498000D01*
X175540065Y-99498000D01*
X175383124Y-99563007D01*
X175263007Y-99683124D01*
X175198000Y-99840064D01*
X171627000Y-99840064D01*
X171627000Y-97444750D01*
X173323000Y-97444750D01*
X173323000Y-98899935D01*
X173388007Y-99056876D01*
X173508124Y-99176993D01*
X173665064Y-99242000D01*
X174030750Y-99242000D01*
X174137500Y-99135250D01*
X174137500Y-97444750D01*
X174648000Y-97444750D01*
X174648000Y-98649935D01*
X174713007Y-98806876D01*
X174833124Y-98926993D01*
X174912500Y-98959872D01*
X174912500Y-99135250D01*
X175019250Y-99242000D01*
X175384936Y-99242000D01*
X175541876Y-99176993D01*
X175661993Y-99056876D01*
X175688865Y-98992000D01*
X175793250Y-98992000D01*
X175900000Y-98885250D01*
X175900000Y-97338000D01*
X174754750Y-97338000D01*
X174648000Y-97444750D01*
X174137500Y-97444750D01*
X174137500Y-97338000D01*
X173429750Y-97338000D01*
X173323000Y-97444750D01*
X171627000Y-97444750D01*
X171627000Y-94030065D01*
X173323000Y-94030065D01*
X173323000Y-95485250D01*
X173429750Y-95592000D01*
X174137500Y-95592000D01*
X174137500Y-95572000D01*
X174734750Y-95572000D01*
X174754750Y-95592000D01*
X175900000Y-95592000D01*
X175900000Y-94044750D01*
X175793250Y-93938000D01*
X175688865Y-93938000D01*
X175661993Y-93873124D01*
X175541876Y-93753007D01*
X175414405Y-93700207D01*
X175426856Y-93670222D01*
X175427143Y-93341221D01*
X175301505Y-93037154D01*
X175266412Y-93002000D01*
X175466250Y-93002000D01*
X175573000Y-92895250D01*
X175573000Y-91927000D01*
X174704750Y-91927000D01*
X174598000Y-92033750D01*
X174598000Y-92659936D01*
X174605484Y-92678005D01*
X174436221Y-92677857D01*
X174132154Y-92803495D01*
X173899312Y-93035930D01*
X173773144Y-93339778D01*
X173772857Y-93668779D01*
X173780799Y-93688000D01*
X173651998Y-93688000D01*
X173651998Y-93693412D01*
X173508124Y-93753007D01*
X173388007Y-93873124D01*
X173323000Y-94030065D01*
X171627000Y-94030065D01*
X171627000Y-90940064D01*
X174598000Y-90940064D01*
X174598000Y-91566250D01*
X174704750Y-91673000D01*
X175573000Y-91673000D01*
X175573000Y-90704750D01*
X175466250Y-90598000D01*
X174940065Y-90598000D01*
X174783124Y-90663007D01*
X174663007Y-90783124D01*
X174598000Y-90940064D01*
X171627000Y-90940064D01*
X171627000Y-88479750D01*
X173198000Y-88479750D01*
X173198000Y-89934935D01*
X173263007Y-90091876D01*
X173383124Y-90211993D01*
X173540064Y-90277000D01*
X173905750Y-90277000D01*
X174012500Y-90170250D01*
X174012500Y-88479750D01*
X174523000Y-88479750D01*
X174523000Y-89684935D01*
X174588007Y-89841876D01*
X174708124Y-89961993D01*
X174787500Y-89994872D01*
X174787500Y-90170250D01*
X174894250Y-90277000D01*
X175259936Y-90277000D01*
X175416876Y-90211993D01*
X175536993Y-90091876D01*
X175563865Y-90027000D01*
X175668250Y-90027000D01*
X175775000Y-89920250D01*
X175775000Y-88373000D01*
X174629750Y-88373000D01*
X174523000Y-88479750D01*
X174012500Y-88479750D01*
X174012500Y-88373000D01*
X173304750Y-88373000D01*
X173198000Y-88479750D01*
X171627000Y-88479750D01*
X171627000Y-85065065D01*
X173198000Y-85065065D01*
X173198000Y-86520250D01*
X173304750Y-86627000D01*
X174012500Y-86627000D01*
X174012500Y-84829750D01*
X173905750Y-84723000D01*
X173540064Y-84723000D01*
X173383124Y-84788007D01*
X173263007Y-84908124D01*
X173198000Y-85065065D01*
X171627000Y-85065065D01*
X171627000Y-84468779D01*
X174372857Y-84468779D01*
X174498495Y-84772846D01*
X174730930Y-85005688D01*
X174758505Y-85017138D01*
X174708124Y-85038007D01*
X174588007Y-85158124D01*
X174523000Y-85315065D01*
X174523000Y-86520250D01*
X174629750Y-86627000D01*
X175775000Y-86627000D01*
X175775000Y-85079750D01*
X175684815Y-84989565D01*
X175900688Y-84774070D01*
X176026856Y-84470222D01*
X176027143Y-84141221D01*
X175901505Y-83837154D01*
X175669070Y-83604312D01*
X175365222Y-83478144D01*
X175036221Y-83477857D01*
X174732154Y-83603495D01*
X174499312Y-83835930D01*
X174373144Y-84139778D01*
X174372857Y-84468779D01*
X171627000Y-84468779D01*
X171627000Y-82233750D01*
X174148000Y-82233750D01*
X174148000Y-82859936D01*
X174213007Y-83016876D01*
X174333124Y-83136993D01*
X174490065Y-83202000D01*
X175016250Y-83202000D01*
X175123000Y-83095250D01*
X175123000Y-82127000D01*
X174254750Y-82127000D01*
X174148000Y-82233750D01*
X171627000Y-82233750D01*
X171627000Y-81140064D01*
X174148000Y-81140064D01*
X174148000Y-81766250D01*
X174254750Y-81873000D01*
X175123000Y-81873000D01*
X175123000Y-80904750D01*
X175016250Y-80798000D01*
X174490065Y-80798000D01*
X174333124Y-80863007D01*
X174213007Y-80983124D01*
X174148000Y-81140064D01*
X171627000Y-81140064D01*
X171627000Y-78502000D01*
X178373000Y-78502000D01*
X178373000Y-82427933D01*
X178373000Y-82427933D01*
G37*
X178373000Y-82427933D02*
X178360365Y-82427922D01*
X178360365Y-81225000D01*
X178330591Y-81066763D01*
X178237073Y-80921433D01*
X178094381Y-80823936D01*
X177925000Y-80789635D01*
X176575000Y-80789635D01*
X176416763Y-80819409D01*
X176271433Y-80912927D01*
X176249255Y-80945386D01*
X176166876Y-80863007D01*
X176009935Y-80798000D01*
X175483750Y-80798000D01*
X175377000Y-80904750D01*
X175377000Y-81873000D01*
X175397000Y-81873000D01*
X175397000Y-82127000D01*
X175377000Y-82127000D01*
X175377000Y-83095250D01*
X175483750Y-83202000D01*
X176009935Y-83202000D01*
X176166876Y-83136993D01*
X176248195Y-83055674D01*
X176262927Y-83078567D01*
X176405619Y-83176064D01*
X176573000Y-83209960D01*
X176573000Y-83279623D01*
X176567065Y-83285548D01*
X176440897Y-83589396D01*
X176440610Y-83918397D01*
X176566248Y-84222464D01*
X176798683Y-84455306D01*
X177102531Y-84581474D01*
X177431532Y-84581761D01*
X177735599Y-84456123D01*
X177968441Y-84223688D01*
X178065195Y-83990678D01*
X178284778Y-84081856D01*
X178373000Y-84081933D01*
X178373000Y-84988767D01*
X178334936Y-84973000D01*
X177531750Y-84973000D01*
X177425000Y-85079750D01*
X177425000Y-86627000D01*
X177493000Y-86627000D01*
X177493000Y-88373000D01*
X177425000Y-88373000D01*
X177425000Y-89920250D01*
X177531750Y-90027000D01*
X178334936Y-90027000D01*
X178373000Y-90011233D01*
X178373000Y-90589635D01*
X177025000Y-90589635D01*
X176866763Y-90619409D01*
X176721433Y-90712927D01*
X176699255Y-90745386D01*
X176616876Y-90663007D01*
X176459935Y-90598000D01*
X175933750Y-90598000D01*
X175827000Y-90704750D01*
X175827000Y-91673000D01*
X175847000Y-91673000D01*
X175847000Y-91927000D01*
X175827000Y-91927000D01*
X175827000Y-92895250D01*
X175933750Y-93002000D01*
X176459935Y-93002000D01*
X176616876Y-92936993D01*
X176698195Y-92855674D01*
X176712927Y-92878567D01*
X176803761Y-92940631D01*
X176723144Y-93134778D01*
X176722857Y-93463779D01*
X176848495Y-93767846D01*
X177080930Y-94000688D01*
X177384778Y-94126856D01*
X177550000Y-94127000D01*
X177550000Y-95592000D01*
X177618000Y-95592000D01*
X177618000Y-97338000D01*
X177550000Y-97338000D01*
X177550000Y-98885250D01*
X177656750Y-98992000D01*
X178373000Y-98992000D01*
X178373000Y-99489635D01*
X177625000Y-99489635D01*
X177466763Y-99519409D01*
X177321433Y-99612927D01*
X177299255Y-99645386D01*
X177216876Y-99563007D01*
X177059935Y-99498000D01*
X176533750Y-99498000D01*
X176427000Y-99604750D01*
X176427000Y-100573000D01*
X176447000Y-100573000D01*
X176447000Y-100827000D01*
X176427000Y-100827000D01*
X176427000Y-100847000D01*
X176173000Y-100847000D01*
X176173000Y-100827000D01*
X175304750Y-100827000D01*
X175198000Y-100933750D01*
X175198000Y-101559936D01*
X175253766Y-101694567D01*
X175232158Y-101703495D01*
X174999316Y-101935930D01*
X174873148Y-102239778D01*
X174872861Y-102568779D01*
X174962500Y-102785722D01*
X174962500Y-102880128D01*
X174883124Y-102913007D01*
X174763007Y-103033124D01*
X174698000Y-103190065D01*
X174698000Y-104395250D01*
X174804750Y-104502000D01*
X175950000Y-104502000D01*
X175950000Y-103196519D01*
X176167850Y-103106505D01*
X176400692Y-102874070D01*
X176526860Y-102570222D01*
X176527147Y-102241221D01*
X176401509Y-101937154D01*
X176366416Y-101902000D01*
X176427002Y-101902000D01*
X176427002Y-101795252D01*
X176533750Y-101902000D01*
X176678278Y-101902000D01*
X176623144Y-102034778D01*
X176622857Y-102363779D01*
X176748495Y-102667846D01*
X176980930Y-102900688D01*
X177284778Y-103026856D01*
X177600000Y-103027131D01*
X177600000Y-104502000D01*
X177668000Y-104502000D01*
X177668000Y-106248000D01*
X177600000Y-106248000D01*
X177600000Y-107795250D01*
X177706750Y-107902000D01*
X178373000Y-107902000D01*
X178373000Y-113078000D01*
X173627000Y-113078000D01*
X173627000Y-112255000D01*
X173616994Y-112205590D01*
X173588553Y-112163965D01*
X173556796Y-112141408D01*
X173273980Y-112000000D01*
X173973000Y-112000000D01*
X174043564Y-112354748D01*
X174244512Y-112655488D01*
X174545252Y-112856436D01*
X174900000Y-112927000D01*
X175983811Y-112927000D01*
X176055619Y-112976064D01*
X176225000Y-113010365D01*
X177775000Y-113010365D01*
X177933237Y-112980591D01*
X178078567Y-112887073D01*
X178176064Y-112744381D01*
X178210365Y-112575000D01*
X178210365Y-111225000D01*
X178180591Y-111066763D01*
X178087073Y-110921433D01*
X178054614Y-110899255D01*
X178136993Y-110816876D01*
X178202000Y-110659935D01*
X178202000Y-110133750D01*
X178095250Y-110027000D01*
X177127000Y-110027000D01*
X177127000Y-110047000D01*
X176873000Y-110047000D01*
X176873000Y-110027000D01*
X175904750Y-110027000D01*
X175798000Y-110133750D01*
X175798000Y-110659935D01*
X175863007Y-110816876D01*
X175944326Y-110898195D01*
X175921433Y-110912927D01*
X175823936Y-111055619D01*
X175820416Y-111073000D01*
X174900000Y-111073000D01*
X174545252Y-111143564D01*
X174244512Y-111344512D01*
X174043564Y-111645252D01*
X173973000Y-112000000D01*
X173273980Y-112000000D01*
X171627000Y-111176510D01*
X171627000Y-109140065D01*
X175798000Y-109140065D01*
X175798000Y-109666250D01*
X175904750Y-109773000D01*
X176873000Y-109773000D01*
X176873000Y-108904750D01*
X177127000Y-108904750D01*
X177127000Y-109773000D01*
X178095250Y-109773000D01*
X178202000Y-109666250D01*
X178202000Y-109140065D01*
X178136993Y-108983124D01*
X178016876Y-108863007D01*
X177859936Y-108798000D01*
X177233750Y-108798000D01*
X177127000Y-108904750D01*
X176873000Y-108904750D01*
X176766250Y-108798000D01*
X176140064Y-108798000D01*
X175983124Y-108863007D01*
X175863007Y-108983124D01*
X175798000Y-109140065D01*
X171627000Y-109140065D01*
X171627000Y-106354750D01*
X173373000Y-106354750D01*
X173373000Y-107809935D01*
X173438007Y-107966876D01*
X173558124Y-108086993D01*
X173715064Y-108152000D01*
X174080750Y-108152000D01*
X174187500Y-108045250D01*
X174187500Y-106354750D01*
X174698000Y-106354750D01*
X174698000Y-107559935D01*
X174763007Y-107716876D01*
X174883124Y-107836993D01*
X174962500Y-107869872D01*
X174962500Y-108045250D01*
X175069250Y-108152000D01*
X175434936Y-108152000D01*
X175591876Y-108086993D01*
X175711993Y-107966876D01*
X175738865Y-107902000D01*
X175843250Y-107902000D01*
X175950000Y-107795250D01*
X175950000Y-106248000D01*
X174804750Y-106248000D01*
X174698000Y-106354750D01*
X174187500Y-106354750D01*
X174187500Y-106248000D01*
X173479750Y-106248000D01*
X173373000Y-106354750D01*
X171627000Y-106354750D01*
X171627000Y-102940065D01*
X173373000Y-102940065D01*
X173373000Y-104395250D01*
X173479750Y-104502000D01*
X174187500Y-104502000D01*
X174187500Y-102704750D01*
X174080750Y-102598000D01*
X173715064Y-102598000D01*
X173558124Y-102663007D01*
X173438007Y-102783124D01*
X173373000Y-102940065D01*
X171627000Y-102940065D01*
X171627000Y-99840064D01*
X175198000Y-99840064D01*
X175198000Y-100466250D01*
X175304750Y-100573000D01*
X176173000Y-100573000D01*
X176173000Y-99604750D01*
X176066250Y-99498000D01*
X175540065Y-99498000D01*
X175383124Y-99563007D01*
X175263007Y-99683124D01*
X175198000Y-99840064D01*
X171627000Y-99840064D01*
X171627000Y-97444750D01*
X173323000Y-97444750D01*
X173323000Y-98899935D01*
X173388007Y-99056876D01*
X173508124Y-99176993D01*
X173665064Y-99242000D01*
X174030750Y-99242000D01*
X174137500Y-99135250D01*
X174137500Y-97444750D01*
X174648000Y-97444750D01*
X174648000Y-98649935D01*
X174713007Y-98806876D01*
X174833124Y-98926993D01*
X174912500Y-98959872D01*
X174912500Y-99135250D01*
X175019250Y-99242000D01*
X175384936Y-99242000D01*
X175541876Y-99176993D01*
X175661993Y-99056876D01*
X175688865Y-98992000D01*
X175793250Y-98992000D01*
X175900000Y-98885250D01*
X175900000Y-97338000D01*
X174754750Y-97338000D01*
X174648000Y-97444750D01*
X174137500Y-97444750D01*
X174137500Y-97338000D01*
X173429750Y-97338000D01*
X173323000Y-97444750D01*
X171627000Y-97444750D01*
X171627000Y-94030065D01*
X173323000Y-94030065D01*
X173323000Y-95485250D01*
X173429750Y-95592000D01*
X174137500Y-95592000D01*
X174137500Y-95572000D01*
X174734750Y-95572000D01*
X174754750Y-95592000D01*
X175900000Y-95592000D01*
X175900000Y-94044750D01*
X175793250Y-93938000D01*
X175688865Y-93938000D01*
X175661993Y-93873124D01*
X175541876Y-93753007D01*
X175414405Y-93700207D01*
X175426856Y-93670222D01*
X175427143Y-93341221D01*
X175301505Y-93037154D01*
X175266412Y-93002000D01*
X175466250Y-93002000D01*
X175573000Y-92895250D01*
X175573000Y-91927000D01*
X174704750Y-91927000D01*
X174598000Y-92033750D01*
X174598000Y-92659936D01*
X174605484Y-92678005D01*
X174436221Y-92677857D01*
X174132154Y-92803495D01*
X173899312Y-93035930D01*
X173773144Y-93339778D01*
X173772857Y-93668779D01*
X173780799Y-93688000D01*
X173651998Y-93688000D01*
X173651998Y-93693412D01*
X173508124Y-93753007D01*
X173388007Y-93873124D01*
X173323000Y-94030065D01*
X171627000Y-94030065D01*
X171627000Y-90940064D01*
X174598000Y-90940064D01*
X174598000Y-91566250D01*
X174704750Y-91673000D01*
X175573000Y-91673000D01*
X175573000Y-90704750D01*
X175466250Y-90598000D01*
X174940065Y-90598000D01*
X174783124Y-90663007D01*
X174663007Y-90783124D01*
X174598000Y-90940064D01*
X171627000Y-90940064D01*
X171627000Y-88479750D01*
X173198000Y-88479750D01*
X173198000Y-89934935D01*
X173263007Y-90091876D01*
X173383124Y-90211993D01*
X173540064Y-90277000D01*
X173905750Y-90277000D01*
X174012500Y-90170250D01*
X174012500Y-88479750D01*
X174523000Y-88479750D01*
X174523000Y-89684935D01*
X174588007Y-89841876D01*
X174708124Y-89961993D01*
X174787500Y-89994872D01*
X174787500Y-90170250D01*
X174894250Y-90277000D01*
X175259936Y-90277000D01*
X175416876Y-90211993D01*
X175536993Y-90091876D01*
X175563865Y-90027000D01*
X175668250Y-90027000D01*
X175775000Y-89920250D01*
X175775000Y-88373000D01*
X174629750Y-88373000D01*
X174523000Y-88479750D01*
X174012500Y-88479750D01*
X174012500Y-88373000D01*
X173304750Y-88373000D01*
X173198000Y-88479750D01*
X171627000Y-88479750D01*
X171627000Y-85065065D01*
X173198000Y-85065065D01*
X173198000Y-86520250D01*
X173304750Y-86627000D01*
X174012500Y-86627000D01*
X174012500Y-84829750D01*
X173905750Y-84723000D01*
X173540064Y-84723000D01*
X173383124Y-84788007D01*
X173263007Y-84908124D01*
X173198000Y-85065065D01*
X171627000Y-85065065D01*
X171627000Y-84468779D01*
X174372857Y-84468779D01*
X174498495Y-84772846D01*
X174730930Y-85005688D01*
X174758505Y-85017138D01*
X174708124Y-85038007D01*
X174588007Y-85158124D01*
X174523000Y-85315065D01*
X174523000Y-86520250D01*
X174629750Y-86627000D01*
X175775000Y-86627000D01*
X175775000Y-85079750D01*
X175684815Y-84989565D01*
X175900688Y-84774070D01*
X176026856Y-84470222D01*
X176027143Y-84141221D01*
X175901505Y-83837154D01*
X175669070Y-83604312D01*
X175365222Y-83478144D01*
X175036221Y-83477857D01*
X174732154Y-83603495D01*
X174499312Y-83835930D01*
X174373144Y-84139778D01*
X174372857Y-84468779D01*
X171627000Y-84468779D01*
X171627000Y-82233750D01*
X174148000Y-82233750D01*
X174148000Y-82859936D01*
X174213007Y-83016876D01*
X174333124Y-83136993D01*
X174490065Y-83202000D01*
X175016250Y-83202000D01*
X175123000Y-83095250D01*
X175123000Y-82127000D01*
X174254750Y-82127000D01*
X174148000Y-82233750D01*
X171627000Y-82233750D01*
X171627000Y-81140064D01*
X174148000Y-81140064D01*
X174148000Y-81766250D01*
X174254750Y-81873000D01*
X175123000Y-81873000D01*
X175123000Y-80904750D01*
X175016250Y-80798000D01*
X174490065Y-80798000D01*
X174333124Y-80863007D01*
X174213007Y-80983124D01*
X174148000Y-81140064D01*
X171627000Y-81140064D01*
X171627000Y-78502000D01*
X178373000Y-78502000D01*
X178373000Y-82427933D01*
G36*
X160199310Y-78535930D02*
X160073142Y-78839778D01*
X160072941Y-79069653D01*
X159990017Y-79193757D01*
X159961494Y-79337154D01*
X159947999Y-79404999D01*
X159947999Y-84719999D01*
X159956878Y-84764635D01*
X159320000Y-84764635D01*
X159252001Y-84777430D01*
X159252001Y-84299330D01*
X159390323Y-84161008D01*
X159509982Y-83981927D01*
X159539140Y-83835335D01*
X159700688Y-83674070D01*
X159826856Y-83370222D01*
X159827143Y-83041221D01*
X159701505Y-82737154D01*
X159469070Y-82504312D01*
X159165222Y-82378144D01*
X158836221Y-82377857D01*
X158532154Y-82503495D01*
X158459064Y-82576457D01*
X158401505Y-82437154D01*
X158169070Y-82204312D01*
X157865222Y-82078144D01*
X157536221Y-82077857D01*
X157232154Y-82203495D01*
X156999312Y-82435930D01*
X156873144Y-82739778D01*
X156872857Y-83068779D01*
X156998495Y-83372846D01*
X157230930Y-83605688D01*
X157534778Y-83731856D01*
X157863779Y-83732143D01*
X158167846Y-83606505D01*
X158240936Y-83533543D01*
X158298495Y-83672846D01*
X158308202Y-83682570D01*
X158190019Y-83859442D01*
X158190019Y-83859443D01*
X158148001Y-84070684D01*
X158148001Y-85367355D01*
X154890323Y-82109677D01*
X154821155Y-82063460D01*
X154937230Y-81947588D01*
X155116795Y-81515147D01*
X155116796Y-81513093D01*
X155302796Y-81513093D01*
X155481606Y-81945846D01*
X155812412Y-82277230D01*
X156244853Y-82456795D01*
X156713093Y-82457204D01*
X157145846Y-82278394D01*
X157477230Y-81947588D01*
X157656795Y-81515147D01*
X157657204Y-81046907D01*
X157478394Y-80614154D01*
X157147588Y-80282770D01*
X156715147Y-80103205D01*
X156246907Y-80102796D01*
X155814154Y-80281606D01*
X155482770Y-80612412D01*
X155303205Y-81044853D01*
X155302796Y-81513093D01*
X155116796Y-81513093D01*
X155117204Y-81046907D01*
X154938394Y-80614154D01*
X154607588Y-80282770D01*
X154175147Y-80103205D01*
X153706907Y-80102796D01*
X153274154Y-80281606D01*
X152942770Y-80612412D01*
X152763205Y-81044853D01*
X152762796Y-81513093D01*
X152941606Y-81945846D01*
X152943756Y-81948000D01*
X152848646Y-81948000D01*
X152529556Y-81628910D01*
X152576795Y-81515147D01*
X152577204Y-81046907D01*
X152398394Y-80614154D01*
X152067588Y-80282770D01*
X151635147Y-80103205D01*
X151166907Y-80102796D01*
X150734154Y-80281606D01*
X150402770Y-80612412D01*
X150223205Y-81044853D01*
X150222796Y-81513093D01*
X150401606Y-81945846D01*
X150503582Y-82048000D01*
X149785622Y-82048000D01*
X149796615Y-82037007D01*
X149717657Y-81958049D01*
X149900065Y-81878671D01*
X150049996Y-81435084D01*
X150018761Y-80967887D01*
X149900065Y-80681329D01*
X149717655Y-80601950D01*
X149039605Y-81280000D01*
X149053748Y-81294143D01*
X148874143Y-81473748D01*
X148860000Y-81459605D01*
X148845858Y-81473748D01*
X148666253Y-81294143D01*
X148680395Y-81280000D01*
X148002345Y-80601950D01*
X147819935Y-80681329D01*
X147670004Y-81124916D01*
X147701239Y-81592113D01*
X147819935Y-81878671D01*
X148002343Y-81958049D01*
X147923385Y-82037007D01*
X147934378Y-82048000D01*
X147868646Y-82048000D01*
X147449556Y-81628910D01*
X147496795Y-81515147D01*
X147497204Y-81046907D01*
X147318394Y-80614154D01*
X147126920Y-80422345D01*
X148181950Y-80422345D01*
X148860000Y-81100395D01*
X149538050Y-80422345D01*
X149458671Y-80239935D01*
X149015084Y-80090004D01*
X148547887Y-80121239D01*
X148261329Y-80239935D01*
X148181950Y-80422345D01*
X147126920Y-80422345D01*
X146987588Y-80282770D01*
X146555147Y-80103205D01*
X146086907Y-80102796D01*
X145654154Y-80281606D01*
X145322770Y-80612412D01*
X145143205Y-81044853D01*
X145142796Y-81513093D01*
X145321606Y-81945846D01*
X145652412Y-82277230D01*
X146084853Y-82456795D01*
X146553093Y-82457204D01*
X146668764Y-82409410D01*
X147249677Y-82990323D01*
X147428758Y-83109982D01*
X147640000Y-83152000D01*
X147863183Y-83152000D01*
X147862770Y-83152412D01*
X147683205Y-83584853D01*
X147682796Y-84053093D01*
X147861606Y-84485846D01*
X148192412Y-84817230D01*
X148624853Y-84996795D01*
X149093093Y-84997204D01*
X149525846Y-84818394D01*
X149857230Y-84487588D01*
X150036795Y-84055147D01*
X150037204Y-83586907D01*
X149858394Y-83154154D01*
X149856244Y-83152000D01*
X150403183Y-83152000D01*
X150402770Y-83152412D01*
X150223205Y-83584853D01*
X150222796Y-84053093D01*
X150401606Y-84485846D01*
X150732412Y-84817230D01*
X151164853Y-84996795D01*
X151633093Y-84997204D01*
X152065846Y-84818394D01*
X152187229Y-84697222D01*
X152190018Y-84711242D01*
X152309677Y-84890323D01*
X152809677Y-85390323D01*
X152988758Y-85509982D01*
X153200000Y-85552000D01*
X156134944Y-85552000D01*
X156380927Y-85797983D01*
X156236221Y-85797857D01*
X155932154Y-85923495D01*
X155699312Y-86155930D01*
X155573144Y-86459778D01*
X155572857Y-86788779D01*
X155680264Y-87048723D01*
X155574120Y-87154681D01*
X155447952Y-87458529D01*
X155447767Y-87670146D01*
X154109677Y-89008236D01*
X153990018Y-89187317D01*
X153990018Y-89187318D01*
X153948000Y-89398559D01*
X153948000Y-90043000D01*
X153733750Y-90043000D01*
X153627000Y-90149750D01*
X153627000Y-90793000D01*
X153647000Y-90793000D01*
X153647000Y-91047000D01*
X153627000Y-91047000D01*
X153627000Y-91067000D01*
X153373000Y-91067000D01*
X153373000Y-91047000D01*
X152679750Y-91047000D01*
X152573000Y-91153750D01*
X152573000Y-91454935D01*
X152638007Y-91611876D01*
X152758124Y-91731993D01*
X152801838Y-91750100D01*
X152728519Y-91797280D01*
X152376862Y-91797280D01*
X152228434Y-91648592D01*
X151924586Y-91522424D01*
X151595585Y-91522137D01*
X151291518Y-91647775D01*
X151058676Y-91880210D01*
X150937122Y-92172945D01*
X150836221Y-92172857D01*
X150532154Y-92298495D01*
X150299312Y-92530930D01*
X150173144Y-92834778D01*
X150172857Y-93163779D01*
X150298495Y-93467846D01*
X150530930Y-93700688D01*
X150834778Y-93826856D01*
X151163779Y-93827143D01*
X151270431Y-93783075D01*
X151423001Y-93935645D01*
X151423001Y-94464697D01*
X151311253Y-94390029D01*
X151100011Y-94348011D01*
X149935365Y-94348011D01*
X149935365Y-94000000D01*
X149905591Y-93841763D01*
X149812073Y-93696433D01*
X149669381Y-93598936D01*
X149500000Y-93564635D01*
X146800000Y-93564635D01*
X146641763Y-93594409D01*
X146496433Y-93687927D01*
X146403941Y-93823295D01*
X146395365Y-93814719D01*
X146395365Y-93690000D01*
X146365591Y-93531763D01*
X146272073Y-93386433D01*
X146129381Y-93288936D01*
X145960000Y-93254635D01*
X145240000Y-93254635D01*
X145081763Y-93284409D01*
X144936433Y-93377927D01*
X144838936Y-93520619D01*
X144804635Y-93690000D01*
X144804635Y-94410000D01*
X144832487Y-94558020D01*
X144813000Y-94605065D01*
X144813000Y-94816250D01*
X144919750Y-94923000D01*
X145473000Y-94923000D01*
X145473000Y-94903000D01*
X145727000Y-94903000D01*
X145727000Y-94923000D01*
X145747000Y-94923000D01*
X145747000Y-95177000D01*
X145727000Y-95177000D01*
X145727000Y-96223000D01*
X145747000Y-96223000D01*
X145747000Y-96477000D01*
X145727000Y-96477000D01*
X145727000Y-96497000D01*
X145473000Y-96497000D01*
X145473000Y-96477000D01*
X144919750Y-96477000D01*
X144813000Y-96583750D01*
X144813000Y-96794935D01*
X144833913Y-96845423D01*
X144804635Y-96990000D01*
X144804635Y-97710000D01*
X144834409Y-97868237D01*
X144927927Y-98013567D01*
X145070619Y-98111064D01*
X145240000Y-98145365D01*
X145960000Y-98145365D01*
X146118237Y-98115591D01*
X146263567Y-98022073D01*
X146361064Y-97879381D01*
X146395365Y-97710000D01*
X146395365Y-97585281D01*
X146405372Y-97575274D01*
X146487927Y-97703567D01*
X146630619Y-97801064D01*
X146800000Y-97835365D01*
X149500000Y-97835365D01*
X149658237Y-97805591D01*
X149803567Y-97712073D01*
X149901064Y-97569381D01*
X149935365Y-97400000D01*
X149935365Y-97252000D01*
X149956135Y-97252000D01*
X150027927Y-97363567D01*
X150170619Y-97461064D01*
X150340000Y-97495365D01*
X150678989Y-97495365D01*
X150171354Y-98003000D01*
X149700000Y-98003000D01*
X149488758Y-98045018D01*
X149309677Y-98164677D01*
X149146353Y-98328001D01*
X145874999Y-98328001D01*
X145663757Y-98370019D01*
X145484676Y-98489678D01*
X145126355Y-98847999D01*
X143577133Y-98847999D01*
X143577143Y-98836221D01*
X143451505Y-98532154D01*
X143219070Y-98299312D01*
X142915222Y-98173144D01*
X142586221Y-98172857D01*
X142282154Y-98298495D01*
X142049312Y-98530930D01*
X141923144Y-98834778D01*
X141922857Y-99163779D01*
X142048495Y-99467846D01*
X142280930Y-99700688D01*
X142584778Y-99826856D01*
X142814653Y-99827057D01*
X142938757Y-99909981D01*
X143149999Y-99951999D01*
X145355001Y-99951999D01*
X145566243Y-99909981D01*
X145745324Y-99790322D01*
X145893000Y-99642646D01*
X145893000Y-99666250D01*
X145999750Y-99773000D01*
X146643000Y-99773000D01*
X146643000Y-99753000D01*
X146897000Y-99753000D01*
X146897000Y-99773000D01*
X146917000Y-99773000D01*
X146917000Y-100027000D01*
X146897000Y-100027000D01*
X146897000Y-100720250D01*
X147003750Y-100827000D01*
X147304935Y-100827000D01*
X147461876Y-100761993D01*
X147581993Y-100641876D01*
X147600100Y-100598162D01*
X147667927Y-100703567D01*
X147810619Y-100801064D01*
X147980000Y-100835365D01*
X148745066Y-100835365D01*
X148708804Y-100889635D01*
X148625000Y-100889635D01*
X148466763Y-100919409D01*
X148321433Y-101012927D01*
X148299255Y-101045386D01*
X148216876Y-100963007D01*
X148059935Y-100898000D01*
X147533750Y-100898000D01*
X147427000Y-101004750D01*
X147427000Y-101973000D01*
X147447000Y-101973000D01*
X147447000Y-102227000D01*
X147427000Y-102227000D01*
X147427000Y-103195250D01*
X147533750Y-103302000D01*
X148059935Y-103302000D01*
X148216876Y-103236993D01*
X148298195Y-103155674D01*
X148312927Y-103178567D01*
X148455619Y-103276064D01*
X148625000Y-103310365D01*
X149437212Y-103310365D01*
X149397942Y-103349635D01*
X148180000Y-103349635D01*
X148021763Y-103379409D01*
X147876433Y-103472927D01*
X147778936Y-103615619D01*
X147744635Y-103785000D01*
X147744635Y-103808000D01*
X145935365Y-103808000D01*
X145935365Y-103400000D01*
X145905591Y-103241763D01*
X145812073Y-103096433D01*
X145669381Y-102998936D01*
X145500000Y-102964635D01*
X144500000Y-102964635D01*
X144341763Y-102994409D01*
X144196433Y-103087927D01*
X144098936Y-103230619D01*
X144064635Y-103400000D01*
X144064635Y-106100000D01*
X144094409Y-106258237D01*
X144187927Y-106403567D01*
X144330619Y-106501064D01*
X144500000Y-106535365D01*
X145500000Y-106535365D01*
X145658237Y-106505591D01*
X145673003Y-106496089D01*
X145672857Y-106663779D01*
X145798495Y-106967846D01*
X145878509Y-107048000D01*
X145433750Y-107048000D01*
X145327000Y-107154750D01*
X145327000Y-108123000D01*
X146195250Y-108123000D01*
X146302000Y-108016250D01*
X146302000Y-107730065D01*
X147753000Y-107730065D01*
X147753000Y-108281250D01*
X147859750Y-108388000D01*
X148873000Y-108388000D01*
X148873000Y-107494750D01*
X149127000Y-107494750D01*
X149127000Y-108388000D01*
X150140250Y-108388000D01*
X150247000Y-108281250D01*
X150247000Y-107730065D01*
X150181993Y-107573124D01*
X150061876Y-107453007D01*
X149904936Y-107388000D01*
X149233750Y-107388000D01*
X149127000Y-107494750D01*
X148873000Y-107494750D01*
X148766250Y-107388000D01*
X148095064Y-107388000D01*
X147938124Y-107453007D01*
X147818007Y-107573124D01*
X147753000Y-107730065D01*
X146302000Y-107730065D01*
X146302000Y-107390064D01*
X146263571Y-107297288D01*
X146334778Y-107326856D01*
X146663779Y-107327143D01*
X146967846Y-107201505D01*
X147200688Y-106969070D01*
X147326856Y-106665222D01*
X147327143Y-106336221D01*
X147201505Y-106032154D01*
X146969070Y-105799312D01*
X146665222Y-105673144D01*
X146336221Y-105672857D01*
X146032154Y-105798495D01*
X145935365Y-105895115D01*
X145935365Y-105162000D01*
X147744635Y-105162000D01*
X147744635Y-105185000D01*
X147774409Y-105343237D01*
X147867927Y-105488567D01*
X148010619Y-105586064D01*
X148180000Y-105620365D01*
X149820000Y-105620365D01*
X149978237Y-105590591D01*
X150123567Y-105497073D01*
X150221064Y-105354381D01*
X150255365Y-105185000D01*
X150255365Y-104407057D01*
X150972892Y-103689531D01*
X151015064Y-103707000D01*
X151366250Y-103707000D01*
X151473000Y-103600250D01*
X151473000Y-102957000D01*
X151453000Y-102957000D01*
X151453000Y-102703000D01*
X151473000Y-102703000D01*
X151473000Y-102683000D01*
X151727000Y-102683000D01*
X151727000Y-102703000D01*
X151747000Y-102703000D01*
X151747000Y-102957000D01*
X151727000Y-102957000D01*
X151727000Y-103600250D01*
X151833750Y-103707000D01*
X152184936Y-103707000D01*
X152341876Y-103641993D01*
X152355724Y-103628146D01*
X152404228Y-103676650D01*
X152363936Y-103735619D01*
X152329635Y-103905000D01*
X152329635Y-104895000D01*
X152359409Y-105053237D01*
X152424954Y-105155096D01*
X152464534Y-105354077D01*
X152581840Y-105529638D01*
X152611289Y-105573711D01*
X152672886Y-105635308D01*
X152672857Y-105668779D01*
X152798495Y-105972846D01*
X153030930Y-106205688D01*
X153334778Y-106331856D01*
X153663779Y-106332143D01*
X153958000Y-106210573D01*
X153958000Y-107361354D01*
X153771983Y-107547371D01*
X153826856Y-107415222D01*
X153827143Y-107086221D01*
X153701505Y-106782154D01*
X153469070Y-106549312D01*
X153165222Y-106423144D01*
X152836221Y-106422857D01*
X152532154Y-106548495D01*
X152299312Y-106780930D01*
X152250034Y-106899604D01*
X152201505Y-106782154D01*
X151969070Y-106549312D01*
X151665222Y-106423144D01*
X151336221Y-106422857D01*
X151032154Y-106548495D01*
X150799312Y-106780930D01*
X150673144Y-107084778D01*
X150672857Y-107413779D01*
X150798495Y-107717846D01*
X151030930Y-107950688D01*
X151334778Y-108076856D01*
X151663779Y-108077143D01*
X151967846Y-107951505D01*
X152200688Y-107719070D01*
X152249966Y-107600396D01*
X152298495Y-107717846D01*
X152530930Y-107950688D01*
X152834778Y-108076856D01*
X153163779Y-108077143D01*
X153297438Y-108021916D01*
X151636366Y-109682988D01*
X150697599Y-109682988D01*
X150645147Y-109693421D01*
X150486358Y-109725006D01*
X150486357Y-109725007D01*
X150486356Y-109725007D01*
X150436624Y-109758237D01*
X150324519Y-109833144D01*
X150307275Y-109844666D01*
X150103942Y-110048000D01*
X148200000Y-110048000D01*
X147988758Y-110090018D01*
X147809677Y-110209677D01*
X147340991Y-110678363D01*
X147239381Y-110608936D01*
X147070000Y-110574635D01*
X145570000Y-110574635D01*
X145411763Y-110604409D01*
X145266433Y-110697927D01*
X145168936Y-110840619D01*
X145134635Y-111010000D01*
X145134635Y-112510000D01*
X145164409Y-112668237D01*
X145257927Y-112813567D01*
X145400619Y-112911064D01*
X145570000Y-112945365D01*
X147070000Y-112945365D01*
X147228237Y-112915591D01*
X147373567Y-112822073D01*
X147471064Y-112679381D01*
X147505365Y-112510000D01*
X147505365Y-112075281D01*
X147682879Y-111897767D01*
X147682796Y-111993093D01*
X147861606Y-112425846D01*
X148192412Y-112757230D01*
X148624853Y-112936795D01*
X149093093Y-112937204D01*
X149525846Y-112758394D01*
X149857230Y-112427588D01*
X149907821Y-112305752D01*
X150087652Y-112269982D01*
X150266733Y-112150323D01*
X150281614Y-112135442D01*
X150401606Y-112425846D01*
X150732412Y-112757230D01*
X151164853Y-112936795D01*
X151633093Y-112937204D01*
X152065846Y-112758394D01*
X152397230Y-112427588D01*
X152462317Y-112270842D01*
X152466640Y-112269982D01*
X152645721Y-112150323D01*
X152774537Y-112021507D01*
X152941606Y-112425846D01*
X153272412Y-112757230D01*
X153704853Y-112936795D01*
X154173093Y-112937204D01*
X154605846Y-112758394D01*
X154746830Y-112617655D01*
X155801950Y-112617655D01*
X155881329Y-112800065D01*
X156324916Y-112949996D01*
X156792113Y-112918761D01*
X157078671Y-112800065D01*
X157158050Y-112617655D01*
X156480000Y-111939605D01*
X155801950Y-112617655D01*
X154746830Y-112617655D01*
X154937230Y-112427588D01*
X155116795Y-111995147D01*
X155117135Y-111604916D01*
X155290004Y-111604916D01*
X155321239Y-112072113D01*
X155439935Y-112358671D01*
X155622345Y-112438050D01*
X156300395Y-111760000D01*
X156659605Y-111760000D01*
X157337655Y-112438050D01*
X157520065Y-112358671D01*
X157543698Y-112288750D01*
X158923000Y-112288750D01*
X158923000Y-112439936D01*
X158988007Y-112596876D01*
X159108124Y-112716993D01*
X159265065Y-112782000D01*
X159343250Y-112782000D01*
X159450000Y-112675250D01*
X159450000Y-112182000D01*
X159029750Y-112182000D01*
X158923000Y-112288750D01*
X157543698Y-112288750D01*
X157669996Y-111915084D01*
X157653615Y-111670064D01*
X158923000Y-111670064D01*
X158923000Y-111821250D01*
X159029750Y-111928000D01*
X159450000Y-111928000D01*
X159450000Y-111434750D01*
X159650000Y-111434750D01*
X159650000Y-111928000D01*
X159697000Y-111928000D01*
X159697000Y-112182000D01*
X159650000Y-112182000D01*
X159650000Y-112675250D01*
X159756750Y-112782000D01*
X159834935Y-112782000D01*
X159991876Y-112716993D01*
X160004687Y-112704182D01*
X160080619Y-112756064D01*
X160250000Y-112790365D01*
X160650000Y-112790365D01*
X160808237Y-112760591D01*
X160953567Y-112667073D01*
X160994613Y-112607000D01*
X161080952Y-112607000D01*
X161109409Y-112758237D01*
X161202927Y-112903567D01*
X161345619Y-113001064D01*
X161515000Y-113035365D01*
X162165000Y-113035365D01*
X162323237Y-113005591D01*
X162468567Y-112912073D01*
X162550880Y-112791604D01*
X162622927Y-112903567D01*
X162765619Y-113001064D01*
X162935000Y-113035365D01*
X163239719Y-113035365D01*
X163322822Y-113118468D01*
X163322778Y-113168779D01*
X163448416Y-113472846D01*
X163680851Y-113705688D01*
X163984699Y-113831856D01*
X164313700Y-113832143D01*
X164617767Y-113706505D01*
X164850609Y-113474070D01*
X164976777Y-113170222D01*
X164977064Y-112841221D01*
X164851426Y-112537154D01*
X164618991Y-112304312D01*
X164315143Y-112178144D01*
X164020365Y-112177887D01*
X164020365Y-111627000D01*
X164500000Y-111627000D01*
X164547789Y-111617666D01*
X164589803Y-111589803D01*
X165089803Y-111089803D01*
X165116994Y-111049410D01*
X165127000Y-111000000D01*
X165127000Y-110500000D01*
X165117666Y-110452211D01*
X165089803Y-110410197D01*
X164589803Y-109910197D01*
X164549410Y-109883006D01*
X164500000Y-109873000D01*
X164000000Y-109873000D01*
X163952211Y-109882334D01*
X163910197Y-109910197D01*
X163410197Y-110410197D01*
X163383006Y-110450590D01*
X163373000Y-110500000D01*
X163373000Y-111000000D01*
X163382334Y-111047789D01*
X163410197Y-111089803D01*
X163495029Y-111174635D01*
X162935000Y-111174635D01*
X162776763Y-111204409D01*
X162631433Y-111297927D01*
X162549120Y-111418396D01*
X162477073Y-111306433D01*
X162334381Y-111208936D01*
X162165000Y-111174635D01*
X161515000Y-111174635D01*
X161356763Y-111204409D01*
X161211433Y-111297927D01*
X161113936Y-111440619D01*
X161101303Y-111503000D01*
X160995256Y-111503000D01*
X160962073Y-111451433D01*
X160819381Y-111353936D01*
X160650000Y-111319635D01*
X160250000Y-111319635D01*
X160091763Y-111349409D01*
X160004458Y-111405589D01*
X159991876Y-111393007D01*
X159834935Y-111328000D01*
X159756750Y-111328000D01*
X159650000Y-111434750D01*
X159450000Y-111434750D01*
X159343250Y-111328000D01*
X159265065Y-111328000D01*
X159108124Y-111393007D01*
X158988007Y-111513124D01*
X158923000Y-111670064D01*
X157653615Y-111670064D01*
X157638761Y-111447887D01*
X157520065Y-111161329D01*
X157337655Y-111081950D01*
X156659605Y-111760000D01*
X156300395Y-111760000D01*
X155622345Y-111081950D01*
X155439935Y-111161329D01*
X155290004Y-111604916D01*
X155117135Y-111604916D01*
X155117204Y-111526907D01*
X155069410Y-111411236D01*
X155578301Y-110902345D01*
X155801950Y-110902345D01*
X156480000Y-111580395D01*
X157158050Y-110902345D01*
X157078671Y-110719935D01*
X156635084Y-110570004D01*
X156167887Y-110601239D01*
X155881329Y-110719935D01*
X155801950Y-110902345D01*
X155578301Y-110902345D01*
X156890323Y-109590323D01*
X157009982Y-109411242D01*
X157052000Y-109200000D01*
X157052000Y-108620064D01*
X157223000Y-108620064D01*
X157223000Y-108771250D01*
X157329750Y-108878000D01*
X157750000Y-108878000D01*
X157750000Y-108384750D01*
X157643250Y-108278000D01*
X157565065Y-108278000D01*
X157408124Y-108343007D01*
X157288007Y-108463124D01*
X157223000Y-108620064D01*
X157052000Y-108620064D01*
X157052000Y-106937646D01*
X158036073Y-107921719D01*
X158215154Y-108041378D01*
X158426396Y-108083396D01*
X158776425Y-108083396D01*
X158924853Y-108232084D01*
X159077437Y-108295442D01*
X158950000Y-108269635D01*
X158550000Y-108269635D01*
X158391763Y-108299409D01*
X158304458Y-108355589D01*
X158291876Y-108343007D01*
X158134935Y-108278000D01*
X158056750Y-108278000D01*
X157950000Y-108384750D01*
X157950000Y-108878000D01*
X157997000Y-108878000D01*
X157997000Y-109132000D01*
X157950000Y-109132000D01*
X157950000Y-109152000D01*
X157750000Y-109152000D01*
X157750000Y-109132000D01*
X157329750Y-109132000D01*
X157223000Y-109238750D01*
X157223000Y-109389936D01*
X157288007Y-109546876D01*
X157408124Y-109666993D01*
X157565065Y-109732000D01*
X157643250Y-109732000D01*
X157722998Y-109652252D01*
X157722998Y-109707635D01*
X157499312Y-109930930D01*
X157373144Y-110234778D01*
X157372857Y-110563779D01*
X157498495Y-110867846D01*
X157730930Y-111100688D01*
X158034778Y-111226856D01*
X158363779Y-111227143D01*
X158667846Y-111101505D01*
X158900688Y-110869070D01*
X159026856Y-110565222D01*
X159027143Y-110236221D01*
X158901505Y-109932154D01*
X158710051Y-109740365D01*
X158950000Y-109740365D01*
X159108237Y-109710591D01*
X159253567Y-109617073D01*
X159294613Y-109557000D01*
X159379635Y-109557000D01*
X159379635Y-109600000D01*
X159409409Y-109758237D01*
X159502927Y-109903567D01*
X159645619Y-110001064D01*
X159815000Y-110035365D01*
X160465000Y-110035365D01*
X160623237Y-110005591D01*
X160768567Y-109912073D01*
X160850880Y-109791604D01*
X160922927Y-109903567D01*
X161065619Y-110001064D01*
X161235000Y-110035365D01*
X161885000Y-110035365D01*
X162043237Y-110005591D01*
X162188567Y-109912073D01*
X162286064Y-109769381D01*
X162320365Y-109600000D01*
X162320365Y-108610000D01*
X162290591Y-108451763D01*
X162197073Y-108306433D01*
X162112000Y-108248305D01*
X162112000Y-106162428D01*
X162300688Y-105974070D01*
X162426856Y-105670222D01*
X162427143Y-105341221D01*
X162417099Y-105316912D01*
X162568270Y-105468348D01*
X162872118Y-105594516D01*
X163201119Y-105594803D01*
X163505186Y-105469165D01*
X163738028Y-105236730D01*
X163764635Y-105172653D01*
X163764635Y-105705000D01*
X163794409Y-105863237D01*
X163887927Y-106008567D01*
X164030619Y-106106064D01*
X164200000Y-106140365D01*
X164800000Y-106140365D01*
X164958237Y-106110591D01*
X165103567Y-106017073D01*
X165201064Y-105874381D01*
X165221207Y-105774915D01*
X165340323Y-105695323D01*
X165478646Y-105557000D01*
X165790360Y-105557000D01*
X165809409Y-105658237D01*
X165902927Y-105803567D01*
X166045619Y-105901064D01*
X166215000Y-105935365D01*
X166865000Y-105935365D01*
X167023237Y-105905591D01*
X167168567Y-105812073D01*
X167250880Y-105691604D01*
X167322927Y-105803567D01*
X167408000Y-105861695D01*
X167408000Y-106148657D01*
X167331433Y-106197927D01*
X167249120Y-106318396D01*
X167177073Y-106206433D01*
X167034381Y-106108936D01*
X166865000Y-106074635D01*
X166215000Y-106074635D01*
X166056763Y-106104409D01*
X165911433Y-106197927D01*
X165813936Y-106340619D01*
X165791178Y-106453000D01*
X165750000Y-106453000D01*
X165538759Y-106495018D01*
X165435886Y-106563756D01*
X165359677Y-106614677D01*
X165029405Y-106944949D01*
X164969381Y-106903936D01*
X164800000Y-106869635D01*
X164200000Y-106869635D01*
X164041763Y-106899409D01*
X163896433Y-106992927D01*
X163798936Y-107135619D01*
X163764635Y-107305000D01*
X163764635Y-108105000D01*
X163794409Y-108263237D01*
X163887927Y-108408567D01*
X164030619Y-108506064D01*
X164200000Y-108540365D01*
X164800000Y-108540365D01*
X164958237Y-108510591D01*
X165103567Y-108417073D01*
X165201064Y-108274381D01*
X165211072Y-108224961D01*
X165261242Y-108214982D01*
X165440323Y-108095323D01*
X165836034Y-107699612D01*
X165902927Y-107803567D01*
X166045619Y-107901064D01*
X166215000Y-107935365D01*
X166865000Y-107935365D01*
X167023237Y-107905591D01*
X167168567Y-107812073D01*
X167250492Y-107692172D01*
X167133144Y-107974778D01*
X167132857Y-108303779D01*
X167258495Y-108607846D01*
X167490930Y-108840688D01*
X167794778Y-108966856D01*
X168123779Y-108967143D01*
X168373000Y-108864167D01*
X168373000Y-110000000D01*
X168393992Y-110069937D01*
X168429553Y-110105670D01*
X169179553Y-110605670D01*
X169250000Y-110627000D01*
X170000000Y-110627000D01*
X170046159Y-110618315D01*
X170088553Y-110591035D01*
X170116994Y-110549410D01*
X170127000Y-110500000D01*
X170127000Y-108500000D01*
X170106634Y-108431020D01*
X170071395Y-108394968D01*
X170024907Y-108375466D01*
X168787011Y-108127887D01*
X168787143Y-107976221D01*
X168670046Y-107692824D01*
X168686064Y-107669381D01*
X168697242Y-107614184D01*
X168774787Y-107691865D01*
X169078635Y-107818033D01*
X169407636Y-107818320D01*
X169711703Y-107692682D01*
X169944545Y-107460247D01*
X170070713Y-107156399D01*
X170071000Y-106827398D01*
X169945362Y-106523331D01*
X169712927Y-106290489D01*
X169409079Y-106164321D01*
X169080078Y-106164034D01*
X168776011Y-106289672D01*
X168694263Y-106371277D01*
X168690591Y-106351763D01*
X168597073Y-106206433D01*
X168512000Y-106148305D01*
X168512000Y-105861343D01*
X168588567Y-105812073D01*
X168686064Y-105669381D01*
X168720365Y-105500000D01*
X168720365Y-104510000D01*
X168690591Y-104351763D01*
X168597073Y-104206433D01*
X168454381Y-104108936D01*
X168285000Y-104074635D01*
X167635000Y-104074635D01*
X167476763Y-104104409D01*
X167331433Y-104197927D01*
X167249120Y-104318396D01*
X167177073Y-104206433D01*
X167034381Y-104108936D01*
X166865000Y-104074635D01*
X166215000Y-104074635D01*
X166056763Y-104104409D01*
X165911433Y-104197927D01*
X165813936Y-104340619D01*
X165791178Y-104453000D01*
X165250000Y-104453000D01*
X165044212Y-104493933D01*
X165009982Y-104321846D01*
X164890323Y-104142765D01*
X162464664Y-101717106D01*
X162503567Y-101692073D01*
X162601064Y-101549381D01*
X162635365Y-101380000D01*
X162635365Y-100480000D01*
X162605591Y-100321763D01*
X162512073Y-100176433D01*
X162399141Y-100099270D01*
X162503567Y-100032073D01*
X162601064Y-99889381D01*
X162635365Y-99720000D01*
X162635365Y-99500000D01*
X163423000Y-99500000D01*
X163423000Y-100300000D01*
X163438331Y-100360491D01*
X163470664Y-100399170D01*
X163970664Y-100799170D01*
X164000590Y-100816994D01*
X164050000Y-100827000D01*
X164550000Y-100827000D01*
X164580668Y-100823241D01*
X164626200Y-100801600D01*
X165026200Y-100501600D01*
X165066994Y-100449410D01*
X165077000Y-100400000D01*
X165077000Y-99600000D01*
X165073241Y-99569332D01*
X165051600Y-99523800D01*
X164751600Y-99123800D01*
X164699410Y-99083006D01*
X164650000Y-99073000D01*
X164050000Y-99073000D01*
X163984659Y-99091098D01*
X163484659Y-99391098D01*
X163461447Y-99408965D01*
X163433006Y-99450590D01*
X163423000Y-99500000D01*
X162635365Y-99500000D01*
X162635365Y-98927000D01*
X165146354Y-98927000D01*
X165714677Y-99495323D01*
X165769737Y-99532113D01*
X165794409Y-99663237D01*
X165887927Y-99808567D01*
X166030619Y-99906064D01*
X166200000Y-99940365D01*
X166800000Y-99940365D01*
X166958237Y-99910591D01*
X167103567Y-99817073D01*
X167201064Y-99674381D01*
X167235365Y-99505000D01*
X167235365Y-98705000D01*
X167205591Y-98546763D01*
X167199049Y-98536597D01*
X167515324Y-98220322D01*
X167634983Y-98041241D01*
X167677001Y-97829999D01*
X167677001Y-97516345D01*
X167834770Y-97581856D01*
X168163771Y-97582143D01*
X168290695Y-97529699D01*
X168160197Y-97660197D01*
X168133006Y-97700590D01*
X168123000Y-97750000D01*
X168123000Y-98250000D01*
X168132334Y-98297789D01*
X168160197Y-98339803D01*
X168660197Y-98839803D01*
X168700590Y-98866994D01*
X168750000Y-98877000D01*
X169229390Y-98877000D01*
X169959839Y-99120483D01*
X169996491Y-99126952D01*
X170046159Y-99118315D01*
X170088553Y-99091035D01*
X170116994Y-99049410D01*
X170127000Y-99000000D01*
X170127000Y-97000000D01*
X170115118Y-96946364D01*
X170085181Y-96905802D01*
X170041822Y-96880084D01*
X169991872Y-96873260D01*
X169943204Y-96886408D01*
X169470020Y-97123000D01*
X168750000Y-97123000D01*
X168741999Y-97124563D01*
X168826848Y-96920222D01*
X168827135Y-96591221D01*
X168701497Y-96287154D01*
X168531355Y-96116714D01*
X168538567Y-96112073D01*
X168636064Y-95969381D01*
X168670365Y-95800000D01*
X168670365Y-95741673D01*
X168845775Y-95814509D01*
X169174776Y-95814796D01*
X169478843Y-95689158D01*
X169711685Y-95456723D01*
X169837853Y-95152875D01*
X169838140Y-94823874D01*
X169712502Y-94519807D01*
X169480067Y-94286965D01*
X169176219Y-94160797D01*
X168847218Y-94160510D01*
X168651756Y-94241273D01*
X168680365Y-94100000D01*
X168680365Y-93110000D01*
X168650591Y-92951763D01*
X168557073Y-92806433D01*
X168414381Y-92708936D01*
X168245000Y-92674635D01*
X167595000Y-92674635D01*
X167436763Y-92704409D01*
X167291433Y-92797927D01*
X167209120Y-92918396D01*
X167137073Y-92806433D01*
X166994381Y-92708936D01*
X166825000Y-92674635D01*
X166175000Y-92674635D01*
X166016763Y-92704409D01*
X165871433Y-92797927D01*
X165773936Y-92940619D01*
X165739635Y-93110000D01*
X165739635Y-94100000D01*
X165769409Y-94258237D01*
X165862927Y-94403567D01*
X165933323Y-94451667D01*
X165861433Y-94497927D01*
X165763936Y-94640619D01*
X165729635Y-94810000D01*
X165729635Y-95800000D01*
X165759409Y-95958237D01*
X165837363Y-96079380D01*
X165798936Y-96135619D01*
X165764635Y-96305000D01*
X165764635Y-97105000D01*
X165794409Y-97263237D01*
X165887927Y-97408567D01*
X166030619Y-97506064D01*
X166200000Y-97540365D01*
X166573001Y-97540365D01*
X166573001Y-97601353D01*
X166109677Y-98064677D01*
X166003791Y-98223145D01*
X165765323Y-97984677D01*
X165586242Y-97865018D01*
X165375000Y-97823000D01*
X165150034Y-97823000D01*
X165283567Y-97737073D01*
X165381064Y-97594381D01*
X165415365Y-97425000D01*
X165415365Y-96425000D01*
X165385591Y-96266763D01*
X165292073Y-96121433D01*
X165231248Y-96079873D01*
X165447425Y-95864074D01*
X165573593Y-95560226D01*
X165573880Y-95231225D01*
X165448242Y-94927158D01*
X165215807Y-94694316D01*
X164911959Y-94568148D01*
X164582958Y-94567861D01*
X164382964Y-94650497D01*
X164434972Y-94572662D01*
X164476990Y-94361420D01*
X164476990Y-93517498D01*
X164625678Y-93369070D01*
X164751846Y-93065222D01*
X164752133Y-92736221D01*
X164746906Y-92723571D01*
X164879006Y-92668988D01*
X165111848Y-92436553D01*
X165238016Y-92132705D01*
X165238303Y-91803704D01*
X165112665Y-91499637D01*
X164880230Y-91266795D01*
X164576382Y-91140627D01*
X164247381Y-91140340D01*
X163943314Y-91265978D01*
X163710472Y-91498413D01*
X163584304Y-91802261D01*
X163584026Y-92121146D01*
X162479167Y-91016287D01*
X162504734Y-91016309D01*
X162808801Y-90890671D01*
X163041643Y-90658236D01*
X163167811Y-90354388D01*
X163168098Y-90025387D01*
X163042460Y-89721320D01*
X162810025Y-89488478D01*
X162506177Y-89362310D01*
X162177176Y-89362023D01*
X161873109Y-89487661D01*
X161640267Y-89720096D01*
X161527000Y-89992875D01*
X161527000Y-89005000D01*
X163123000Y-89005000D01*
X163123000Y-89505000D01*
X163132334Y-89552789D01*
X163160197Y-89594803D01*
X163410197Y-89844803D01*
X163450590Y-89871994D01*
X163500000Y-89882000D01*
X164250000Y-89882000D01*
X164297789Y-89872666D01*
X164339803Y-89844803D01*
X166015827Y-88168779D01*
X168172857Y-88168779D01*
X168298495Y-88472846D01*
X168530930Y-88705688D01*
X168834778Y-88831856D01*
X169163779Y-88832143D01*
X169467846Y-88706505D01*
X169700688Y-88474070D01*
X169826856Y-88170222D01*
X169827143Y-87841221D01*
X169701505Y-87537154D01*
X169469070Y-87304312D01*
X169165222Y-87178144D01*
X168836221Y-87177857D01*
X168532154Y-87303495D01*
X168299312Y-87535930D01*
X168173144Y-87839778D01*
X168172857Y-88168779D01*
X166015827Y-88168779D01*
X167802606Y-86382000D01*
X170000000Y-86382000D01*
X170046159Y-86373315D01*
X170088553Y-86346035D01*
X170116994Y-86304410D01*
X170127000Y-86255000D01*
X170127000Y-84755000D01*
X170118315Y-84708841D01*
X170091035Y-84666447D01*
X170049410Y-84638006D01*
X170000000Y-84628000D01*
X167500000Y-84628000D01*
X167452211Y-84637334D01*
X167410197Y-84665197D01*
X163160197Y-88915197D01*
X163133006Y-88955590D01*
X163123000Y-89005000D01*
X161527000Y-89005000D01*
X161527000Y-87918648D01*
X162605323Y-86840325D01*
X162724982Y-86661244D01*
X162767000Y-86450002D01*
X162767000Y-85491734D01*
X162780930Y-85505688D01*
X163084778Y-85631856D01*
X163413779Y-85632143D01*
X163717846Y-85506505D01*
X163950688Y-85274070D01*
X164076856Y-84970222D01*
X164077143Y-84641221D01*
X163951505Y-84337154D01*
X163944728Y-84330365D01*
X164535000Y-84330365D01*
X164693237Y-84300591D01*
X164838567Y-84207073D01*
X164936064Y-84064381D01*
X164970365Y-83895000D01*
X164970365Y-82905000D01*
X164940591Y-82746763D01*
X164847073Y-82601433D01*
X164771827Y-82550020D01*
X164838567Y-82507073D01*
X164936064Y-82364381D01*
X164970365Y-82195000D01*
X164970365Y-81205000D01*
X164940591Y-81046763D01*
X164847073Y-80901433D01*
X164704381Y-80803936D01*
X164535000Y-80769635D01*
X164230281Y-80769635D01*
X163710672Y-80250026D01*
X163826856Y-79970222D01*
X163827143Y-79641221D01*
X163701505Y-79337154D01*
X163469070Y-79104312D01*
X163165222Y-78978144D01*
X162836221Y-78977857D01*
X162685393Y-79040178D01*
X162601505Y-78837154D01*
X162369070Y-78604312D01*
X162122674Y-78502000D01*
X170873000Y-78502000D01*
X170873000Y-111755000D01*
X170883006Y-111804410D01*
X170911447Y-111846035D01*
X170943204Y-111868592D01*
X172873000Y-112833490D01*
X172873000Y-115499237D01*
X140947806Y-115502430D01*
X141365392Y-115085573D01*
X141926361Y-113734609D01*
X141927637Y-112271808D01*
X141369027Y-110919868D01*
X140335573Y-109884608D01*
X138984609Y-109323639D01*
X137521808Y-109322363D01*
X136169868Y-109880973D01*
X135752000Y-110298112D01*
X135752000Y-103400000D01*
X141864635Y-103400000D01*
X141864635Y-106100000D01*
X141894409Y-106258237D01*
X141987927Y-106403567D01*
X142123000Y-106495858D01*
X142123000Y-106600000D01*
X142174534Y-106859077D01*
X142310341Y-107062326D01*
X142321289Y-107078711D01*
X142333434Y-107090856D01*
X142221433Y-107162927D01*
X142123936Y-107305619D01*
X142089635Y-107475000D01*
X142089635Y-109025000D01*
X142119409Y-109183237D01*
X142212927Y-109328567D01*
X142355619Y-109426064D01*
X142525000Y-109460365D01*
X142573000Y-109460365D01*
X142573000Y-109762283D01*
X142549312Y-109785930D01*
X142423144Y-110089778D01*
X142422857Y-110418779D01*
X142548495Y-110722846D01*
X142780930Y-110955688D01*
X143084778Y-111081856D01*
X143413779Y-111082143D01*
X143717846Y-110956505D01*
X143950688Y-110724070D01*
X144076856Y-110420222D01*
X144077143Y-110091221D01*
X143951505Y-109787154D01*
X143927000Y-109762606D01*
X143927000Y-109450581D01*
X144033237Y-109430591D01*
X144178567Y-109337073D01*
X144200745Y-109304614D01*
X144283124Y-109386993D01*
X144440065Y-109452000D01*
X144966250Y-109452000D01*
X145073000Y-109345250D01*
X145073000Y-108377000D01*
X145327000Y-108377000D01*
X145327000Y-109345250D01*
X145433750Y-109452000D01*
X145959935Y-109452000D01*
X146116876Y-109386993D01*
X146236993Y-109266876D01*
X146302000Y-109109936D01*
X146302000Y-108748750D01*
X147753000Y-108748750D01*
X147753000Y-109299935D01*
X147818007Y-109456876D01*
X147938124Y-109576993D01*
X148095064Y-109642000D01*
X148766250Y-109642000D01*
X148873000Y-109535250D01*
X148873000Y-108642000D01*
X149127000Y-108642000D01*
X149127000Y-109535250D01*
X149233750Y-109642000D01*
X149904936Y-109642000D01*
X150061876Y-109576993D01*
X150181993Y-109456876D01*
X150247000Y-109299935D01*
X150247000Y-108748750D01*
X150140250Y-108642000D01*
X149127000Y-108642000D01*
X148873000Y-108642000D01*
X147859750Y-108642000D01*
X147753000Y-108748750D01*
X146302000Y-108748750D01*
X146302000Y-108483750D01*
X146195250Y-108377000D01*
X145327000Y-108377000D01*
X145073000Y-108377000D01*
X145053000Y-108377000D01*
X145053000Y-108123000D01*
X145073000Y-108123000D01*
X145073000Y-107154750D01*
X144966250Y-107048000D01*
X144440065Y-107048000D01*
X144283124Y-107113007D01*
X144201805Y-107194326D01*
X144187073Y-107171433D01*
X144044381Y-107073936D01*
X143877000Y-107040040D01*
X143877000Y-106955000D01*
X143825466Y-106695923D01*
X143678711Y-106476289D01*
X143592889Y-106418944D01*
X143603567Y-106412073D01*
X143701064Y-106269381D01*
X143735365Y-106100000D01*
X143735365Y-103400000D01*
X143705591Y-103241763D01*
X143612073Y-103096433D01*
X143477000Y-103004142D01*
X143477000Y-102660708D01*
X143576858Y-102420222D01*
X143576933Y-102333750D01*
X146198000Y-102333750D01*
X146198000Y-102959936D01*
X146263007Y-103116876D01*
X146383124Y-103236993D01*
X146540065Y-103302000D01*
X147066250Y-103302000D01*
X147173000Y-103195250D01*
X147173000Y-102227000D01*
X146304750Y-102227000D01*
X146198000Y-102333750D01*
X143576933Y-102333750D01*
X143577145Y-102091221D01*
X143451507Y-101787154D01*
X143219072Y-101554312D01*
X142915224Y-101428144D01*
X142586223Y-101427857D01*
X142282156Y-101553495D01*
X142049314Y-101785930D01*
X141923146Y-102089778D01*
X141922859Y-102418779D01*
X142048497Y-102722846D01*
X142123000Y-102797479D01*
X142123000Y-103006483D01*
X141996433Y-103087927D01*
X141898936Y-103230619D01*
X141864635Y-103400000D01*
X135752000Y-103400000D01*
X135752000Y-101240064D01*
X146198000Y-101240064D01*
X146198000Y-101866250D01*
X146304750Y-101973000D01*
X147173000Y-101973000D01*
X147173000Y-101004750D01*
X147066250Y-100898000D01*
X146540065Y-100898000D01*
X146383124Y-100963007D01*
X146263007Y-101083124D01*
X146198000Y-101240064D01*
X135752000Y-101240064D01*
X135752000Y-100406750D01*
X138273000Y-100406750D01*
X138273000Y-100484935D01*
X138338007Y-100641876D01*
X138458124Y-100761993D01*
X138615064Y-100827000D01*
X138766250Y-100827000D01*
X138873000Y-100720250D01*
X138873000Y-100300000D01*
X139127000Y-100300000D01*
X139127000Y-100720250D01*
X139233750Y-100827000D01*
X139384936Y-100827000D01*
X139541876Y-100761993D01*
X139661993Y-100641876D01*
X139727000Y-100484935D01*
X139727000Y-100406750D01*
X139620250Y-100300000D01*
X139127000Y-100300000D01*
X138873000Y-100300000D01*
X138379750Y-100300000D01*
X138273000Y-100406750D01*
X135752000Y-100406750D01*
X135752000Y-100133750D01*
X145893000Y-100133750D01*
X145893000Y-100484936D01*
X145958007Y-100641876D01*
X146078124Y-100761993D01*
X146235065Y-100827000D01*
X146536250Y-100827000D01*
X146643000Y-100720250D01*
X146643000Y-100027000D01*
X145999750Y-100027000D01*
X145893000Y-100133750D01*
X135752000Y-100133750D01*
X135752000Y-95965000D01*
X138069635Y-95965000D01*
X138069635Y-96615000D01*
X138099409Y-96773237D01*
X138192927Y-96918567D01*
X138313396Y-97000880D01*
X138201433Y-97072927D01*
X138103936Y-97215619D01*
X138069635Y-97385000D01*
X138069635Y-98035000D01*
X138099409Y-98193237D01*
X138192927Y-98338567D01*
X138335619Y-98436064D01*
X138448000Y-98458822D01*
X138448000Y-98754744D01*
X138396433Y-98787927D01*
X138298936Y-98930619D01*
X138264635Y-99100000D01*
X138264635Y-99500000D01*
X138294409Y-99658237D01*
X138350589Y-99745542D01*
X138338007Y-99758124D01*
X138273000Y-99915065D01*
X138273000Y-99993250D01*
X138379750Y-100100000D01*
X138873000Y-100100000D01*
X138873000Y-100053000D01*
X139127000Y-100053000D01*
X139127000Y-100100000D01*
X139620250Y-100100000D01*
X139727000Y-99993250D01*
X139727000Y-99915065D01*
X139661993Y-99758124D01*
X139649182Y-99745313D01*
X139701064Y-99669381D01*
X139735365Y-99500000D01*
X139735365Y-99100000D01*
X139705591Y-98941763D01*
X139612073Y-98796433D01*
X139552000Y-98755387D01*
X139552000Y-98459640D01*
X139653237Y-98440591D01*
X139798567Y-98347073D01*
X139896064Y-98204381D01*
X139930365Y-98035000D01*
X139930365Y-97385000D01*
X139900591Y-97226763D01*
X139807073Y-97081433D01*
X139686604Y-96999120D01*
X139773475Y-96943220D01*
X139780930Y-96950688D01*
X140084778Y-97076856D01*
X140413779Y-97077143D01*
X140717846Y-96951505D01*
X140950688Y-96719070D01*
X141076856Y-96415222D01*
X141077143Y-96086221D01*
X140951505Y-95782154D01*
X140719070Y-95549312D01*
X140415222Y-95423144D01*
X140086221Y-95422857D01*
X139782154Y-95548495D01*
X139725115Y-95605434D01*
X139664381Y-95563936D01*
X139495000Y-95529635D01*
X138505000Y-95529635D01*
X138346763Y-95559409D01*
X138201433Y-95652927D01*
X138103936Y-95795619D01*
X138069635Y-95965000D01*
X135752000Y-95965000D01*
X135752000Y-95283750D01*
X144813000Y-95283750D01*
X144813000Y-95494935D01*
X144878007Y-95651876D01*
X144926131Y-95700000D01*
X144878007Y-95748124D01*
X144813000Y-95905065D01*
X144813000Y-96116250D01*
X144919750Y-96223000D01*
X145473000Y-96223000D01*
X145473000Y-95177000D01*
X144919750Y-95177000D01*
X144813000Y-95283750D01*
X135752000Y-95283750D01*
X135752000Y-89763779D01*
X144772857Y-89763779D01*
X144898495Y-90067846D01*
X145130930Y-90300688D01*
X145434778Y-90426856D01*
X145763779Y-90427143D01*
X146067846Y-90301505D01*
X146300688Y-90069070D01*
X146426856Y-89765222D01*
X146426857Y-89763779D01*
X148872857Y-89763779D01*
X148998495Y-90067846D01*
X149230930Y-90300688D01*
X149534778Y-90426856D01*
X149863779Y-90427143D01*
X149965615Y-90385065D01*
X152573000Y-90385065D01*
X152573000Y-90686250D01*
X152679750Y-90793000D01*
X153373000Y-90793000D01*
X153373000Y-90149750D01*
X153266250Y-90043000D01*
X152915064Y-90043000D01*
X152758124Y-90108007D01*
X152638007Y-90228124D01*
X152573000Y-90385065D01*
X149965615Y-90385065D01*
X150167846Y-90301505D01*
X150400688Y-90069070D01*
X150526856Y-89765222D01*
X150527143Y-89436221D01*
X150401505Y-89132154D01*
X150169070Y-88899312D01*
X149865222Y-88773144D01*
X149536221Y-88772857D01*
X149232154Y-88898495D01*
X148999312Y-89130930D01*
X148873144Y-89434778D01*
X148872857Y-89763779D01*
X146426857Y-89763779D01*
X146427143Y-89436221D01*
X146301505Y-89132154D01*
X146069070Y-88899312D01*
X145765222Y-88773144D01*
X145436221Y-88772857D01*
X145132154Y-88898495D01*
X144899312Y-89130930D01*
X144773144Y-89434778D01*
X144772857Y-89763779D01*
X135752000Y-89763779D01*
X135752000Y-83702244D01*
X136164427Y-84115392D01*
X137515391Y-84676361D01*
X138978192Y-84677637D01*
X140330132Y-84119027D01*
X141365392Y-83085573D01*
X141371858Y-83070000D01*
X142594635Y-83070000D01*
X142594635Y-84570000D01*
X142624409Y-84728237D01*
X142717927Y-84873567D01*
X142860619Y-84971064D01*
X143030000Y-85005365D01*
X144530000Y-85005365D01*
X144688237Y-84975591D01*
X144833567Y-84882073D01*
X144931064Y-84739381D01*
X144965365Y-84570000D01*
X144965365Y-84053093D01*
X145142796Y-84053093D01*
X145321606Y-84485846D01*
X145652412Y-84817230D01*
X146084853Y-84996795D01*
X146553093Y-84997204D01*
X146985846Y-84818394D01*
X147317230Y-84487588D01*
X147496795Y-84055147D01*
X147497204Y-83586907D01*
X147318394Y-83154154D01*
X146987588Y-82822770D01*
X146555147Y-82643205D01*
X146086907Y-82642796D01*
X145654154Y-82821606D01*
X145322770Y-83152412D01*
X145143205Y-83584853D01*
X145142796Y-84053093D01*
X144965365Y-84053093D01*
X144965365Y-83070000D01*
X144935591Y-82911763D01*
X144842073Y-82766433D01*
X144699381Y-82668936D01*
X144530000Y-82634635D01*
X143030000Y-82634635D01*
X142871763Y-82664409D01*
X142726433Y-82757927D01*
X142628936Y-82900619D01*
X142594635Y-83070000D01*
X141371858Y-83070000D01*
X141926361Y-81734609D01*
X141927411Y-80530000D01*
X142594635Y-80530000D01*
X142594635Y-82030000D01*
X142624409Y-82188237D01*
X142717927Y-82333567D01*
X142860619Y-82431064D01*
X143030000Y-82465365D01*
X144530000Y-82465365D01*
X144688237Y-82435591D01*
X144833567Y-82342073D01*
X144931064Y-82199381D01*
X144965365Y-82030000D01*
X144965365Y-80530000D01*
X144935591Y-80371763D01*
X144842073Y-80226433D01*
X144699381Y-80128936D01*
X144530000Y-80094635D01*
X143030000Y-80094635D01*
X142871763Y-80124409D01*
X142726433Y-80217927D01*
X142628936Y-80360619D01*
X142594635Y-80530000D01*
X141927411Y-80530000D01*
X141927637Y-80271808D01*
X141369027Y-78919868D01*
X140951888Y-78502000D01*
X160233299Y-78502000D01*
X160199310Y-78535930D01*
X160199310Y-78535930D01*
G37*
X160199310Y-78535930D02*
X160073142Y-78839778D01*
X160072941Y-79069653D01*
X159990017Y-79193757D01*
X159961494Y-79337154D01*
X159947999Y-79404999D01*
X159947999Y-84719999D01*
X159956878Y-84764635D01*
X159320000Y-84764635D01*
X159252001Y-84777430D01*
X159252001Y-84299330D01*
X159390323Y-84161008D01*
X159509982Y-83981927D01*
X159539140Y-83835335D01*
X159700688Y-83674070D01*
X159826856Y-83370222D01*
X159827143Y-83041221D01*
X159701505Y-82737154D01*
X159469070Y-82504312D01*
X159165222Y-82378144D01*
X158836221Y-82377857D01*
X158532154Y-82503495D01*
X158459064Y-82576457D01*
X158401505Y-82437154D01*
X158169070Y-82204312D01*
X157865222Y-82078144D01*
X157536221Y-82077857D01*
X157232154Y-82203495D01*
X156999312Y-82435930D01*
X156873144Y-82739778D01*
X156872857Y-83068779D01*
X156998495Y-83372846D01*
X157230930Y-83605688D01*
X157534778Y-83731856D01*
X157863779Y-83732143D01*
X158167846Y-83606505D01*
X158240936Y-83533543D01*
X158298495Y-83672846D01*
X158308202Y-83682570D01*
X158190019Y-83859442D01*
X158190019Y-83859443D01*
X158148001Y-84070684D01*
X158148001Y-85367355D01*
X154890323Y-82109677D01*
X154821155Y-82063460D01*
X154937230Y-81947588D01*
X155116795Y-81515147D01*
X155116796Y-81513093D01*
X155302796Y-81513093D01*
X155481606Y-81945846D01*
X155812412Y-82277230D01*
X156244853Y-82456795D01*
X156713093Y-82457204D01*
X157145846Y-82278394D01*
X157477230Y-81947588D01*
X157656795Y-81515147D01*
X157657204Y-81046907D01*
X157478394Y-80614154D01*
X157147588Y-80282770D01*
X156715147Y-80103205D01*
X156246907Y-80102796D01*
X155814154Y-80281606D01*
X155482770Y-80612412D01*
X155303205Y-81044853D01*
X155302796Y-81513093D01*
X155116796Y-81513093D01*
X155117204Y-81046907D01*
X154938394Y-80614154D01*
X154607588Y-80282770D01*
X154175147Y-80103205D01*
X153706907Y-80102796D01*
X153274154Y-80281606D01*
X152942770Y-80612412D01*
X152763205Y-81044853D01*
X152762796Y-81513093D01*
X152941606Y-81945846D01*
X152943756Y-81948000D01*
X152848646Y-81948000D01*
X152529556Y-81628910D01*
X152576795Y-81515147D01*
X152577204Y-81046907D01*
X152398394Y-80614154D01*
X152067588Y-80282770D01*
X151635147Y-80103205D01*
X151166907Y-80102796D01*
X150734154Y-80281606D01*
X150402770Y-80612412D01*
X150223205Y-81044853D01*
X150222796Y-81513093D01*
X150401606Y-81945846D01*
X150503582Y-82048000D01*
X149785622Y-82048000D01*
X149796615Y-82037007D01*
X149717657Y-81958049D01*
X149900065Y-81878671D01*
X150049996Y-81435084D01*
X150018761Y-80967887D01*
X149900065Y-80681329D01*
X149717655Y-80601950D01*
X149039605Y-81280000D01*
X149053748Y-81294143D01*
X148874143Y-81473748D01*
X148860000Y-81459605D01*
X148845858Y-81473748D01*
X148666253Y-81294143D01*
X148680395Y-81280000D01*
X148002345Y-80601950D01*
X147819935Y-80681329D01*
X147670004Y-81124916D01*
X147701239Y-81592113D01*
X147819935Y-81878671D01*
X148002343Y-81958049D01*
X147923385Y-82037007D01*
X147934378Y-82048000D01*
X147868646Y-82048000D01*
X147449556Y-81628910D01*
X147496795Y-81515147D01*
X147497204Y-81046907D01*
X147318394Y-80614154D01*
X147126920Y-80422345D01*
X148181950Y-80422345D01*
X148860000Y-81100395D01*
X149538050Y-80422345D01*
X149458671Y-80239935D01*
X149015084Y-80090004D01*
X148547887Y-80121239D01*
X148261329Y-80239935D01*
X148181950Y-80422345D01*
X147126920Y-80422345D01*
X146987588Y-80282770D01*
X146555147Y-80103205D01*
X146086907Y-80102796D01*
X145654154Y-80281606D01*
X145322770Y-80612412D01*
X145143205Y-81044853D01*
X145142796Y-81513093D01*
X145321606Y-81945846D01*
X145652412Y-82277230D01*
X146084853Y-82456795D01*
X146553093Y-82457204D01*
X146668764Y-82409410D01*
X147249677Y-82990323D01*
X147428758Y-83109982D01*
X147640000Y-83152000D01*
X147863183Y-83152000D01*
X147862770Y-83152412D01*
X147683205Y-83584853D01*
X147682796Y-84053093D01*
X147861606Y-84485846D01*
X148192412Y-84817230D01*
X148624853Y-84996795D01*
X149093093Y-84997204D01*
X149525846Y-84818394D01*
X149857230Y-84487588D01*
X150036795Y-84055147D01*
X150037204Y-83586907D01*
X149858394Y-83154154D01*
X149856244Y-83152000D01*
X150403183Y-83152000D01*
X150402770Y-83152412D01*
X150223205Y-83584853D01*
X150222796Y-84053093D01*
X150401606Y-84485846D01*
X150732412Y-84817230D01*
X151164853Y-84996795D01*
X151633093Y-84997204D01*
X152065846Y-84818394D01*
X152187229Y-84697222D01*
X152190018Y-84711242D01*
X152309677Y-84890323D01*
X152809677Y-85390323D01*
X152988758Y-85509982D01*
X153200000Y-85552000D01*
X156134944Y-85552000D01*
X156380927Y-85797983D01*
X156236221Y-85797857D01*
X155932154Y-85923495D01*
X155699312Y-86155930D01*
X155573144Y-86459778D01*
X155572857Y-86788779D01*
X155680264Y-87048723D01*
X155574120Y-87154681D01*
X155447952Y-87458529D01*
X155447767Y-87670146D01*
X154109677Y-89008236D01*
X153990018Y-89187317D01*
X153990018Y-89187318D01*
X153948000Y-89398559D01*
X153948000Y-90043000D01*
X153733750Y-90043000D01*
X153627000Y-90149750D01*
X153627000Y-90793000D01*
X153647000Y-90793000D01*
X153647000Y-91047000D01*
X153627000Y-91047000D01*
X153627000Y-91067000D01*
X153373000Y-91067000D01*
X153373000Y-91047000D01*
X152679750Y-91047000D01*
X152573000Y-91153750D01*
X152573000Y-91454935D01*
X152638007Y-91611876D01*
X152758124Y-91731993D01*
X152801838Y-91750100D01*
X152728519Y-91797280D01*
X152376862Y-91797280D01*
X152228434Y-91648592D01*
X151924586Y-91522424D01*
X151595585Y-91522137D01*
X151291518Y-91647775D01*
X151058676Y-91880210D01*
X150937122Y-92172945D01*
X150836221Y-92172857D01*
X150532154Y-92298495D01*
X150299312Y-92530930D01*
X150173144Y-92834778D01*
X150172857Y-93163779D01*
X150298495Y-93467846D01*
X150530930Y-93700688D01*
X150834778Y-93826856D01*
X151163779Y-93827143D01*
X151270431Y-93783075D01*
X151423001Y-93935645D01*
X151423001Y-94464697D01*
X151311253Y-94390029D01*
X151100011Y-94348011D01*
X149935365Y-94348011D01*
X149935365Y-94000000D01*
X149905591Y-93841763D01*
X149812073Y-93696433D01*
X149669381Y-93598936D01*
X149500000Y-93564635D01*
X146800000Y-93564635D01*
X146641763Y-93594409D01*
X146496433Y-93687927D01*
X146403941Y-93823295D01*
X146395365Y-93814719D01*
X146395365Y-93690000D01*
X146365591Y-93531763D01*
X146272073Y-93386433D01*
X146129381Y-93288936D01*
X145960000Y-93254635D01*
X145240000Y-93254635D01*
X145081763Y-93284409D01*
X144936433Y-93377927D01*
X144838936Y-93520619D01*
X144804635Y-93690000D01*
X144804635Y-94410000D01*
X144832487Y-94558020D01*
X144813000Y-94605065D01*
X144813000Y-94816250D01*
X144919750Y-94923000D01*
X145473000Y-94923000D01*
X145473000Y-94903000D01*
X145727000Y-94903000D01*
X145727000Y-94923000D01*
X145747000Y-94923000D01*
X145747000Y-95177000D01*
X145727000Y-95177000D01*
X145727000Y-96223000D01*
X145747000Y-96223000D01*
X145747000Y-96477000D01*
X145727000Y-96477000D01*
X145727000Y-96497000D01*
X145473000Y-96497000D01*
X145473000Y-96477000D01*
X144919750Y-96477000D01*
X144813000Y-96583750D01*
X144813000Y-96794935D01*
X144833913Y-96845423D01*
X144804635Y-96990000D01*
X144804635Y-97710000D01*
X144834409Y-97868237D01*
X144927927Y-98013567D01*
X145070619Y-98111064D01*
X145240000Y-98145365D01*
X145960000Y-98145365D01*
X146118237Y-98115591D01*
X146263567Y-98022073D01*
X146361064Y-97879381D01*
X146395365Y-97710000D01*
X146395365Y-97585281D01*
X146405372Y-97575274D01*
X146487927Y-97703567D01*
X146630619Y-97801064D01*
X146800000Y-97835365D01*
X149500000Y-97835365D01*
X149658237Y-97805591D01*
X149803567Y-97712073D01*
X149901064Y-97569381D01*
X149935365Y-97400000D01*
X149935365Y-97252000D01*
X149956135Y-97252000D01*
X150027927Y-97363567D01*
X150170619Y-97461064D01*
X150340000Y-97495365D01*
X150678989Y-97495365D01*
X150171354Y-98003000D01*
X149700000Y-98003000D01*
X149488758Y-98045018D01*
X149309677Y-98164677D01*
X149146353Y-98328001D01*
X145874999Y-98328001D01*
X145663757Y-98370019D01*
X145484676Y-98489678D01*
X145126355Y-98847999D01*
X143577133Y-98847999D01*
X143577143Y-98836221D01*
X143451505Y-98532154D01*
X143219070Y-98299312D01*
X142915222Y-98173144D01*
X142586221Y-98172857D01*
X142282154Y-98298495D01*
X142049312Y-98530930D01*
X141923144Y-98834778D01*
X141922857Y-99163779D01*
X142048495Y-99467846D01*
X142280930Y-99700688D01*
X142584778Y-99826856D01*
X142814653Y-99827057D01*
X142938757Y-99909981D01*
X143149999Y-99951999D01*
X145355001Y-99951999D01*
X145566243Y-99909981D01*
X145745324Y-99790322D01*
X145893000Y-99642646D01*
X145893000Y-99666250D01*
X145999750Y-99773000D01*
X146643000Y-99773000D01*
X146643000Y-99753000D01*
X146897000Y-99753000D01*
X146897000Y-99773000D01*
X146917000Y-99773000D01*
X146917000Y-100027000D01*
X146897000Y-100027000D01*
X146897000Y-100720250D01*
X147003750Y-100827000D01*
X147304935Y-100827000D01*
X147461876Y-100761993D01*
X147581993Y-100641876D01*
X147600100Y-100598162D01*
X147667927Y-100703567D01*
X147810619Y-100801064D01*
X147980000Y-100835365D01*
X148745066Y-100835365D01*
X148708804Y-100889635D01*
X148625000Y-100889635D01*
X148466763Y-100919409D01*
X148321433Y-101012927D01*
X148299255Y-101045386D01*
X148216876Y-100963007D01*
X148059935Y-100898000D01*
X147533750Y-100898000D01*
X147427000Y-101004750D01*
X147427000Y-101973000D01*
X147447000Y-101973000D01*
X147447000Y-102227000D01*
X147427000Y-102227000D01*
X147427000Y-103195250D01*
X147533750Y-103302000D01*
X148059935Y-103302000D01*
X148216876Y-103236993D01*
X148298195Y-103155674D01*
X148312927Y-103178567D01*
X148455619Y-103276064D01*
X148625000Y-103310365D01*
X149437212Y-103310365D01*
X149397942Y-103349635D01*
X148180000Y-103349635D01*
X148021763Y-103379409D01*
X147876433Y-103472927D01*
X147778936Y-103615619D01*
X147744635Y-103785000D01*
X147744635Y-103808000D01*
X145935365Y-103808000D01*
X145935365Y-103400000D01*
X145905591Y-103241763D01*
X145812073Y-103096433D01*
X145669381Y-102998936D01*
X145500000Y-102964635D01*
X144500000Y-102964635D01*
X144341763Y-102994409D01*
X144196433Y-103087927D01*
X144098936Y-103230619D01*
X144064635Y-103400000D01*
X144064635Y-106100000D01*
X144094409Y-106258237D01*
X144187927Y-106403567D01*
X144330619Y-106501064D01*
X144500000Y-106535365D01*
X145500000Y-106535365D01*
X145658237Y-106505591D01*
X145673003Y-106496089D01*
X145672857Y-106663779D01*
X145798495Y-106967846D01*
X145878509Y-107048000D01*
X145433750Y-107048000D01*
X145327000Y-107154750D01*
X145327000Y-108123000D01*
X146195250Y-108123000D01*
X146302000Y-108016250D01*
X146302000Y-107730065D01*
X147753000Y-107730065D01*
X147753000Y-108281250D01*
X147859750Y-108388000D01*
X148873000Y-108388000D01*
X148873000Y-107494750D01*
X149127000Y-107494750D01*
X149127000Y-108388000D01*
X150140250Y-108388000D01*
X150247000Y-108281250D01*
X150247000Y-107730065D01*
X150181993Y-107573124D01*
X150061876Y-107453007D01*
X149904936Y-107388000D01*
X149233750Y-107388000D01*
X149127000Y-107494750D01*
X148873000Y-107494750D01*
X148766250Y-107388000D01*
X148095064Y-107388000D01*
X147938124Y-107453007D01*
X147818007Y-107573124D01*
X147753000Y-107730065D01*
X146302000Y-107730065D01*
X146302000Y-107390064D01*
X146263571Y-107297288D01*
X146334778Y-107326856D01*
X146663779Y-107327143D01*
X146967846Y-107201505D01*
X147200688Y-106969070D01*
X147326856Y-106665222D01*
X147327143Y-106336221D01*
X147201505Y-106032154D01*
X146969070Y-105799312D01*
X146665222Y-105673144D01*
X146336221Y-105672857D01*
X146032154Y-105798495D01*
X145935365Y-105895115D01*
X145935365Y-105162000D01*
X147744635Y-105162000D01*
X147744635Y-105185000D01*
X147774409Y-105343237D01*
X147867927Y-105488567D01*
X148010619Y-105586064D01*
X148180000Y-105620365D01*
X149820000Y-105620365D01*
X149978237Y-105590591D01*
X150123567Y-105497073D01*
X150221064Y-105354381D01*
X150255365Y-105185000D01*
X150255365Y-104407057D01*
X150972892Y-103689531D01*
X151015064Y-103707000D01*
X151366250Y-103707000D01*
X151473000Y-103600250D01*
X151473000Y-102957000D01*
X151453000Y-102957000D01*
X151453000Y-102703000D01*
X151473000Y-102703000D01*
X151473000Y-102683000D01*
X151727000Y-102683000D01*
X151727000Y-102703000D01*
X151747000Y-102703000D01*
X151747000Y-102957000D01*
X151727000Y-102957000D01*
X151727000Y-103600250D01*
X151833750Y-103707000D01*
X152184936Y-103707000D01*
X152341876Y-103641993D01*
X152355724Y-103628146D01*
X152404228Y-103676650D01*
X152363936Y-103735619D01*
X152329635Y-103905000D01*
X152329635Y-104895000D01*
X152359409Y-105053237D01*
X152424954Y-105155096D01*
X152464534Y-105354077D01*
X152581840Y-105529638D01*
X152611289Y-105573711D01*
X152672886Y-105635308D01*
X152672857Y-105668779D01*
X152798495Y-105972846D01*
X153030930Y-106205688D01*
X153334778Y-106331856D01*
X153663779Y-106332143D01*
X153958000Y-106210573D01*
X153958000Y-107361354D01*
X153771983Y-107547371D01*
X153826856Y-107415222D01*
X153827143Y-107086221D01*
X153701505Y-106782154D01*
X153469070Y-106549312D01*
X153165222Y-106423144D01*
X152836221Y-106422857D01*
X152532154Y-106548495D01*
X152299312Y-106780930D01*
X152250034Y-106899604D01*
X152201505Y-106782154D01*
X151969070Y-106549312D01*
X151665222Y-106423144D01*
X151336221Y-106422857D01*
X151032154Y-106548495D01*
X150799312Y-106780930D01*
X150673144Y-107084778D01*
X150672857Y-107413779D01*
X150798495Y-107717846D01*
X151030930Y-107950688D01*
X151334778Y-108076856D01*
X151663779Y-108077143D01*
X151967846Y-107951505D01*
X152200688Y-107719070D01*
X152249966Y-107600396D01*
X152298495Y-107717846D01*
X152530930Y-107950688D01*
X152834778Y-108076856D01*
X153163779Y-108077143D01*
X153297438Y-108021916D01*
X151636366Y-109682988D01*
X150697599Y-109682988D01*
X150645147Y-109693421D01*
X150486358Y-109725006D01*
X150486357Y-109725007D01*
X150486356Y-109725007D01*
X150436624Y-109758237D01*
X150324519Y-109833144D01*
X150307275Y-109844666D01*
X150103942Y-110048000D01*
X148200000Y-110048000D01*
X147988758Y-110090018D01*
X147809677Y-110209677D01*
X147340991Y-110678363D01*
X147239381Y-110608936D01*
X147070000Y-110574635D01*
X145570000Y-110574635D01*
X145411763Y-110604409D01*
X145266433Y-110697927D01*
X145168936Y-110840619D01*
X145134635Y-111010000D01*
X145134635Y-112510000D01*
X145164409Y-112668237D01*
X145257927Y-112813567D01*
X145400619Y-112911064D01*
X145570000Y-112945365D01*
X147070000Y-112945365D01*
X147228237Y-112915591D01*
X147373567Y-112822073D01*
X147471064Y-112679381D01*
X147505365Y-112510000D01*
X147505365Y-112075281D01*
X147682879Y-111897767D01*
X147682796Y-111993093D01*
X147861606Y-112425846D01*
X148192412Y-112757230D01*
X148624853Y-112936795D01*
X149093093Y-112937204D01*
X149525846Y-112758394D01*
X149857230Y-112427588D01*
X149907821Y-112305752D01*
X150087652Y-112269982D01*
X150266733Y-112150323D01*
X150281614Y-112135442D01*
X150401606Y-112425846D01*
X150732412Y-112757230D01*
X151164853Y-112936795D01*
X151633093Y-112937204D01*
X152065846Y-112758394D01*
X152397230Y-112427588D01*
X152462317Y-112270842D01*
X152466640Y-112269982D01*
X152645721Y-112150323D01*
X152774537Y-112021507D01*
X152941606Y-112425846D01*
X153272412Y-112757230D01*
X153704853Y-112936795D01*
X154173093Y-112937204D01*
X154605846Y-112758394D01*
X154746830Y-112617655D01*
X155801950Y-112617655D01*
X155881329Y-112800065D01*
X156324916Y-112949996D01*
X156792113Y-112918761D01*
X157078671Y-112800065D01*
X157158050Y-112617655D01*
X156480000Y-111939605D01*
X155801950Y-112617655D01*
X154746830Y-112617655D01*
X154937230Y-112427588D01*
X155116795Y-111995147D01*
X155117135Y-111604916D01*
X155290004Y-111604916D01*
X155321239Y-112072113D01*
X155439935Y-112358671D01*
X155622345Y-112438050D01*
X156300395Y-111760000D01*
X156659605Y-111760000D01*
X157337655Y-112438050D01*
X157520065Y-112358671D01*
X157543698Y-112288750D01*
X158923000Y-112288750D01*
X158923000Y-112439936D01*
X158988007Y-112596876D01*
X159108124Y-112716993D01*
X159265065Y-112782000D01*
X159343250Y-112782000D01*
X159450000Y-112675250D01*
X159450000Y-112182000D01*
X159029750Y-112182000D01*
X158923000Y-112288750D01*
X157543698Y-112288750D01*
X157669996Y-111915084D01*
X157653615Y-111670064D01*
X158923000Y-111670064D01*
X158923000Y-111821250D01*
X159029750Y-111928000D01*
X159450000Y-111928000D01*
X159450000Y-111434750D01*
X159650000Y-111434750D01*
X159650000Y-111928000D01*
X159697000Y-111928000D01*
X159697000Y-112182000D01*
X159650000Y-112182000D01*
X159650000Y-112675250D01*
X159756750Y-112782000D01*
X159834935Y-112782000D01*
X159991876Y-112716993D01*
X160004687Y-112704182D01*
X160080619Y-112756064D01*
X160250000Y-112790365D01*
X160650000Y-112790365D01*
X160808237Y-112760591D01*
X160953567Y-112667073D01*
X160994613Y-112607000D01*
X161080952Y-112607000D01*
X161109409Y-112758237D01*
X161202927Y-112903567D01*
X161345619Y-113001064D01*
X161515000Y-113035365D01*
X162165000Y-113035365D01*
X162323237Y-113005591D01*
X162468567Y-112912073D01*
X162550880Y-112791604D01*
X162622927Y-112903567D01*
X162765619Y-113001064D01*
X162935000Y-113035365D01*
X163239719Y-113035365D01*
X163322822Y-113118468D01*
X163322778Y-113168779D01*
X163448416Y-113472846D01*
X163680851Y-113705688D01*
X163984699Y-113831856D01*
X164313700Y-113832143D01*
X164617767Y-113706505D01*
X164850609Y-113474070D01*
X164976777Y-113170222D01*
X164977064Y-112841221D01*
X164851426Y-112537154D01*
X164618991Y-112304312D01*
X164315143Y-112178144D01*
X164020365Y-112177887D01*
X164020365Y-111627000D01*
X164500000Y-111627000D01*
X164547789Y-111617666D01*
X164589803Y-111589803D01*
X165089803Y-111089803D01*
X165116994Y-111049410D01*
X165127000Y-111000000D01*
X165127000Y-110500000D01*
X165117666Y-110452211D01*
X165089803Y-110410197D01*
X164589803Y-109910197D01*
X164549410Y-109883006D01*
X164500000Y-109873000D01*
X164000000Y-109873000D01*
X163952211Y-109882334D01*
X163910197Y-109910197D01*
X163410197Y-110410197D01*
X163383006Y-110450590D01*
X163373000Y-110500000D01*
X163373000Y-111000000D01*
X163382334Y-111047789D01*
X163410197Y-111089803D01*
X163495029Y-111174635D01*
X162935000Y-111174635D01*
X162776763Y-111204409D01*
X162631433Y-111297927D01*
X162549120Y-111418396D01*
X162477073Y-111306433D01*
X162334381Y-111208936D01*
X162165000Y-111174635D01*
X161515000Y-111174635D01*
X161356763Y-111204409D01*
X161211433Y-111297927D01*
X161113936Y-111440619D01*
X161101303Y-111503000D01*
X160995256Y-111503000D01*
X160962073Y-111451433D01*
X160819381Y-111353936D01*
X160650000Y-111319635D01*
X160250000Y-111319635D01*
X160091763Y-111349409D01*
X160004458Y-111405589D01*
X159991876Y-111393007D01*
X159834935Y-111328000D01*
X159756750Y-111328000D01*
X159650000Y-111434750D01*
X159450000Y-111434750D01*
X159343250Y-111328000D01*
X159265065Y-111328000D01*
X159108124Y-111393007D01*
X158988007Y-111513124D01*
X158923000Y-111670064D01*
X157653615Y-111670064D01*
X157638761Y-111447887D01*
X157520065Y-111161329D01*
X157337655Y-111081950D01*
X156659605Y-111760000D01*
X156300395Y-111760000D01*
X155622345Y-111081950D01*
X155439935Y-111161329D01*
X155290004Y-111604916D01*
X155117135Y-111604916D01*
X155117204Y-111526907D01*
X155069410Y-111411236D01*
X155578301Y-110902345D01*
X155801950Y-110902345D01*
X156480000Y-111580395D01*
X157158050Y-110902345D01*
X157078671Y-110719935D01*
X156635084Y-110570004D01*
X156167887Y-110601239D01*
X155881329Y-110719935D01*
X155801950Y-110902345D01*
X155578301Y-110902345D01*
X156890323Y-109590323D01*
X157009982Y-109411242D01*
X157052000Y-109200000D01*
X157052000Y-108620064D01*
X157223000Y-108620064D01*
X157223000Y-108771250D01*
X157329750Y-108878000D01*
X157750000Y-108878000D01*
X157750000Y-108384750D01*
X157643250Y-108278000D01*
X157565065Y-108278000D01*
X157408124Y-108343007D01*
X157288007Y-108463124D01*
X157223000Y-108620064D01*
X157052000Y-108620064D01*
X157052000Y-106937646D01*
X158036073Y-107921719D01*
X158215154Y-108041378D01*
X158426396Y-108083396D01*
X158776425Y-108083396D01*
X158924853Y-108232084D01*
X159077437Y-108295442D01*
X158950000Y-108269635D01*
X158550000Y-108269635D01*
X158391763Y-108299409D01*
X158304458Y-108355589D01*
X158291876Y-108343007D01*
X158134935Y-108278000D01*
X158056750Y-108278000D01*
X157950000Y-108384750D01*
X157950000Y-108878000D01*
X157997000Y-108878000D01*
X157997000Y-109132000D01*
X157950000Y-109132000D01*
X157950000Y-109152000D01*
X157750000Y-109152000D01*
X157750000Y-109132000D01*
X157329750Y-109132000D01*
X157223000Y-109238750D01*
X157223000Y-109389936D01*
X157288007Y-109546876D01*
X157408124Y-109666993D01*
X157565065Y-109732000D01*
X157643250Y-109732000D01*
X157722998Y-109652252D01*
X157722998Y-109707635D01*
X157499312Y-109930930D01*
X157373144Y-110234778D01*
X157372857Y-110563779D01*
X157498495Y-110867846D01*
X157730930Y-111100688D01*
X158034778Y-111226856D01*
X158363779Y-111227143D01*
X158667846Y-111101505D01*
X158900688Y-110869070D01*
X159026856Y-110565222D01*
X159027143Y-110236221D01*
X158901505Y-109932154D01*
X158710051Y-109740365D01*
X158950000Y-109740365D01*
X159108237Y-109710591D01*
X159253567Y-109617073D01*
X159294613Y-109557000D01*
X159379635Y-109557000D01*
X159379635Y-109600000D01*
X159409409Y-109758237D01*
X159502927Y-109903567D01*
X159645619Y-110001064D01*
X159815000Y-110035365D01*
X160465000Y-110035365D01*
X160623237Y-110005591D01*
X160768567Y-109912073D01*
X160850880Y-109791604D01*
X160922927Y-109903567D01*
X161065619Y-110001064D01*
X161235000Y-110035365D01*
X161885000Y-110035365D01*
X162043237Y-110005591D01*
X162188567Y-109912073D01*
X162286064Y-109769381D01*
X162320365Y-109600000D01*
X162320365Y-108610000D01*
X162290591Y-108451763D01*
X162197073Y-108306433D01*
X162112000Y-108248305D01*
X162112000Y-106162428D01*
X162300688Y-105974070D01*
X162426856Y-105670222D01*
X162427143Y-105341221D01*
X162417099Y-105316912D01*
X162568270Y-105468348D01*
X162872118Y-105594516D01*
X163201119Y-105594803D01*
X163505186Y-105469165D01*
X163738028Y-105236730D01*
X163764635Y-105172653D01*
X163764635Y-105705000D01*
X163794409Y-105863237D01*
X163887927Y-106008567D01*
X164030619Y-106106064D01*
X164200000Y-106140365D01*
X164800000Y-106140365D01*
X164958237Y-106110591D01*
X165103567Y-106017073D01*
X165201064Y-105874381D01*
X165221207Y-105774915D01*
X165340323Y-105695323D01*
X165478646Y-105557000D01*
X165790360Y-105557000D01*
X165809409Y-105658237D01*
X165902927Y-105803567D01*
X166045619Y-105901064D01*
X166215000Y-105935365D01*
X166865000Y-105935365D01*
X167023237Y-105905591D01*
X167168567Y-105812073D01*
X167250880Y-105691604D01*
X167322927Y-105803567D01*
X167408000Y-105861695D01*
X167408000Y-106148657D01*
X167331433Y-106197927D01*
X167249120Y-106318396D01*
X167177073Y-106206433D01*
X167034381Y-106108936D01*
X166865000Y-106074635D01*
X166215000Y-106074635D01*
X166056763Y-106104409D01*
X165911433Y-106197927D01*
X165813936Y-106340619D01*
X165791178Y-106453000D01*
X165750000Y-106453000D01*
X165538759Y-106495018D01*
X165435886Y-106563756D01*
X165359677Y-106614677D01*
X165029405Y-106944949D01*
X164969381Y-106903936D01*
X164800000Y-106869635D01*
X164200000Y-106869635D01*
X164041763Y-106899409D01*
X163896433Y-106992927D01*
X163798936Y-107135619D01*
X163764635Y-107305000D01*
X163764635Y-108105000D01*
X163794409Y-108263237D01*
X163887927Y-108408567D01*
X164030619Y-108506064D01*
X164200000Y-108540365D01*
X164800000Y-108540365D01*
X164958237Y-108510591D01*
X165103567Y-108417073D01*
X165201064Y-108274381D01*
X165211072Y-108224961D01*
X165261242Y-108214982D01*
X165440323Y-108095323D01*
X165836034Y-107699612D01*
X165902927Y-107803567D01*
X166045619Y-107901064D01*
X166215000Y-107935365D01*
X166865000Y-107935365D01*
X167023237Y-107905591D01*
X167168567Y-107812073D01*
X167250492Y-107692172D01*
X167133144Y-107974778D01*
X167132857Y-108303779D01*
X167258495Y-108607846D01*
X167490930Y-108840688D01*
X167794778Y-108966856D01*
X168123779Y-108967143D01*
X168373000Y-108864167D01*
X168373000Y-110000000D01*
X168393992Y-110069937D01*
X168429553Y-110105670D01*
X169179553Y-110605670D01*
X169250000Y-110627000D01*
X170000000Y-110627000D01*
X170046159Y-110618315D01*
X170088553Y-110591035D01*
X170116994Y-110549410D01*
X170127000Y-110500000D01*
X170127000Y-108500000D01*
X170106634Y-108431020D01*
X170071395Y-108394968D01*
X170024907Y-108375466D01*
X168787011Y-108127887D01*
X168787143Y-107976221D01*
X168670046Y-107692824D01*
X168686064Y-107669381D01*
X168697242Y-107614184D01*
X168774787Y-107691865D01*
X169078635Y-107818033D01*
X169407636Y-107818320D01*
X169711703Y-107692682D01*
X169944545Y-107460247D01*
X170070713Y-107156399D01*
X170071000Y-106827398D01*
X169945362Y-106523331D01*
X169712927Y-106290489D01*
X169409079Y-106164321D01*
X169080078Y-106164034D01*
X168776011Y-106289672D01*
X168694263Y-106371277D01*
X168690591Y-106351763D01*
X168597073Y-106206433D01*
X168512000Y-106148305D01*
X168512000Y-105861343D01*
X168588567Y-105812073D01*
X168686064Y-105669381D01*
X168720365Y-105500000D01*
X168720365Y-104510000D01*
X168690591Y-104351763D01*
X168597073Y-104206433D01*
X168454381Y-104108936D01*
X168285000Y-104074635D01*
X167635000Y-104074635D01*
X167476763Y-104104409D01*
X167331433Y-104197927D01*
X167249120Y-104318396D01*
X167177073Y-104206433D01*
X167034381Y-104108936D01*
X166865000Y-104074635D01*
X166215000Y-104074635D01*
X166056763Y-104104409D01*
X165911433Y-104197927D01*
X165813936Y-104340619D01*
X165791178Y-104453000D01*
X165250000Y-104453000D01*
X165044212Y-104493933D01*
X165009982Y-104321846D01*
X164890323Y-104142765D01*
X162464664Y-101717106D01*
X162503567Y-101692073D01*
X162601064Y-101549381D01*
X162635365Y-101380000D01*
X162635365Y-100480000D01*
X162605591Y-100321763D01*
X162512073Y-100176433D01*
X162399141Y-100099270D01*
X162503567Y-100032073D01*
X162601064Y-99889381D01*
X162635365Y-99720000D01*
X162635365Y-99500000D01*
X163423000Y-99500000D01*
X163423000Y-100300000D01*
X163438331Y-100360491D01*
X163470664Y-100399170D01*
X163970664Y-100799170D01*
X164000590Y-100816994D01*
X164050000Y-100827000D01*
X164550000Y-100827000D01*
X164580668Y-100823241D01*
X164626200Y-100801600D01*
X165026200Y-100501600D01*
X165066994Y-100449410D01*
X165077000Y-100400000D01*
X165077000Y-99600000D01*
X165073241Y-99569332D01*
X165051600Y-99523800D01*
X164751600Y-99123800D01*
X164699410Y-99083006D01*
X164650000Y-99073000D01*
X164050000Y-99073000D01*
X163984659Y-99091098D01*
X163484659Y-99391098D01*
X163461447Y-99408965D01*
X163433006Y-99450590D01*
X163423000Y-99500000D01*
X162635365Y-99500000D01*
X162635365Y-98927000D01*
X165146354Y-98927000D01*
X165714677Y-99495323D01*
X165769737Y-99532113D01*
X165794409Y-99663237D01*
X165887927Y-99808567D01*
X166030619Y-99906064D01*
X166200000Y-99940365D01*
X166800000Y-99940365D01*
X166958237Y-99910591D01*
X167103567Y-99817073D01*
X167201064Y-99674381D01*
X167235365Y-99505000D01*
X167235365Y-98705000D01*
X167205591Y-98546763D01*
X167199049Y-98536597D01*
X167515324Y-98220322D01*
X167634983Y-98041241D01*
X167677001Y-97829999D01*
X167677001Y-97516345D01*
X167834770Y-97581856D01*
X168163771Y-97582143D01*
X168290695Y-97529699D01*
X168160197Y-97660197D01*
X168133006Y-97700590D01*
X168123000Y-97750000D01*
X168123000Y-98250000D01*
X168132334Y-98297789D01*
X168160197Y-98339803D01*
X168660197Y-98839803D01*
X168700590Y-98866994D01*
X168750000Y-98877000D01*
X169229390Y-98877000D01*
X169959839Y-99120483D01*
X169996491Y-99126952D01*
X170046159Y-99118315D01*
X170088553Y-99091035D01*
X170116994Y-99049410D01*
X170127000Y-99000000D01*
X170127000Y-97000000D01*
X170115118Y-96946364D01*
X170085181Y-96905802D01*
X170041822Y-96880084D01*
X169991872Y-96873260D01*
X169943204Y-96886408D01*
X169470020Y-97123000D01*
X168750000Y-97123000D01*
X168741999Y-97124563D01*
X168826848Y-96920222D01*
X168827135Y-96591221D01*
X168701497Y-96287154D01*
X168531355Y-96116714D01*
X168538567Y-96112073D01*
X168636064Y-95969381D01*
X168670365Y-95800000D01*
X168670365Y-95741673D01*
X168845775Y-95814509D01*
X169174776Y-95814796D01*
X169478843Y-95689158D01*
X169711685Y-95456723D01*
X169837853Y-95152875D01*
X169838140Y-94823874D01*
X169712502Y-94519807D01*
X169480067Y-94286965D01*
X169176219Y-94160797D01*
X168847218Y-94160510D01*
X168651756Y-94241273D01*
X168680365Y-94100000D01*
X168680365Y-93110000D01*
X168650591Y-92951763D01*
X168557073Y-92806433D01*
X168414381Y-92708936D01*
X168245000Y-92674635D01*
X167595000Y-92674635D01*
X167436763Y-92704409D01*
X167291433Y-92797927D01*
X167209120Y-92918396D01*
X167137073Y-92806433D01*
X166994381Y-92708936D01*
X166825000Y-92674635D01*
X166175000Y-92674635D01*
X166016763Y-92704409D01*
X165871433Y-92797927D01*
X165773936Y-92940619D01*
X165739635Y-93110000D01*
X165739635Y-94100000D01*
X165769409Y-94258237D01*
X165862927Y-94403567D01*
X165933323Y-94451667D01*
X165861433Y-94497927D01*
X165763936Y-94640619D01*
X165729635Y-94810000D01*
X165729635Y-95800000D01*
X165759409Y-95958237D01*
X165837363Y-96079380D01*
X165798936Y-96135619D01*
X165764635Y-96305000D01*
X165764635Y-97105000D01*
X165794409Y-97263237D01*
X165887927Y-97408567D01*
X166030619Y-97506064D01*
X166200000Y-97540365D01*
X166573001Y-97540365D01*
X166573001Y-97601353D01*
X166109677Y-98064677D01*
X166003791Y-98223145D01*
X165765323Y-97984677D01*
X165586242Y-97865018D01*
X165375000Y-97823000D01*
X165150034Y-97823000D01*
X165283567Y-97737073D01*
X165381064Y-97594381D01*
X165415365Y-97425000D01*
X165415365Y-96425000D01*
X165385591Y-96266763D01*
X165292073Y-96121433D01*
X165231248Y-96079873D01*
X165447425Y-95864074D01*
X165573593Y-95560226D01*
X165573880Y-95231225D01*
X165448242Y-94927158D01*
X165215807Y-94694316D01*
X164911959Y-94568148D01*
X164582958Y-94567861D01*
X164382964Y-94650497D01*
X164434972Y-94572662D01*
X164476990Y-94361420D01*
X164476990Y-93517498D01*
X164625678Y-93369070D01*
X164751846Y-93065222D01*
X164752133Y-92736221D01*
X164746906Y-92723571D01*
X164879006Y-92668988D01*
X165111848Y-92436553D01*
X165238016Y-92132705D01*
X165238303Y-91803704D01*
X165112665Y-91499637D01*
X164880230Y-91266795D01*
X164576382Y-91140627D01*
X164247381Y-91140340D01*
X163943314Y-91265978D01*
X163710472Y-91498413D01*
X163584304Y-91802261D01*
X163584026Y-92121146D01*
X162479167Y-91016287D01*
X162504734Y-91016309D01*
X162808801Y-90890671D01*
X163041643Y-90658236D01*
X163167811Y-90354388D01*
X163168098Y-90025387D01*
X163042460Y-89721320D01*
X162810025Y-89488478D01*
X162506177Y-89362310D01*
X162177176Y-89362023D01*
X161873109Y-89487661D01*
X161640267Y-89720096D01*
X161527000Y-89992875D01*
X161527000Y-89005000D01*
X163123000Y-89005000D01*
X163123000Y-89505000D01*
X163132334Y-89552789D01*
X163160197Y-89594803D01*
X163410197Y-89844803D01*
X163450590Y-89871994D01*
X163500000Y-89882000D01*
X164250000Y-89882000D01*
X164297789Y-89872666D01*
X164339803Y-89844803D01*
X166015827Y-88168779D01*
X168172857Y-88168779D01*
X168298495Y-88472846D01*
X168530930Y-88705688D01*
X168834778Y-88831856D01*
X169163779Y-88832143D01*
X169467846Y-88706505D01*
X169700688Y-88474070D01*
X169826856Y-88170222D01*
X169827143Y-87841221D01*
X169701505Y-87537154D01*
X169469070Y-87304312D01*
X169165222Y-87178144D01*
X168836221Y-87177857D01*
X168532154Y-87303495D01*
X168299312Y-87535930D01*
X168173144Y-87839778D01*
X168172857Y-88168779D01*
X166015827Y-88168779D01*
X167802606Y-86382000D01*
X170000000Y-86382000D01*
X170046159Y-86373315D01*
X170088553Y-86346035D01*
X170116994Y-86304410D01*
X170127000Y-86255000D01*
X170127000Y-84755000D01*
X170118315Y-84708841D01*
X170091035Y-84666447D01*
X170049410Y-84638006D01*
X170000000Y-84628000D01*
X167500000Y-84628000D01*
X167452211Y-84637334D01*
X167410197Y-84665197D01*
X163160197Y-88915197D01*
X163133006Y-88955590D01*
X163123000Y-89005000D01*
X161527000Y-89005000D01*
X161527000Y-87918648D01*
X162605323Y-86840325D01*
X162724982Y-86661244D01*
X162767000Y-86450002D01*
X162767000Y-85491734D01*
X162780930Y-85505688D01*
X163084778Y-85631856D01*
X163413779Y-85632143D01*
X163717846Y-85506505D01*
X163950688Y-85274070D01*
X164076856Y-84970222D01*
X164077143Y-84641221D01*
X163951505Y-84337154D01*
X163944728Y-84330365D01*
X164535000Y-84330365D01*
X164693237Y-84300591D01*
X164838567Y-84207073D01*
X164936064Y-84064381D01*
X164970365Y-83895000D01*
X164970365Y-82905000D01*
X164940591Y-82746763D01*
X164847073Y-82601433D01*
X164771827Y-82550020D01*
X164838567Y-82507073D01*
X164936064Y-82364381D01*
X164970365Y-82195000D01*
X164970365Y-81205000D01*
X164940591Y-81046763D01*
X164847073Y-80901433D01*
X164704381Y-80803936D01*
X164535000Y-80769635D01*
X164230281Y-80769635D01*
X163710672Y-80250026D01*
X163826856Y-79970222D01*
X163827143Y-79641221D01*
X163701505Y-79337154D01*
X163469070Y-79104312D01*
X163165222Y-78978144D01*
X162836221Y-78977857D01*
X162685393Y-79040178D01*
X162601505Y-78837154D01*
X162369070Y-78604312D01*
X162122674Y-78502000D01*
X170873000Y-78502000D01*
X170873000Y-111755000D01*
X170883006Y-111804410D01*
X170911447Y-111846035D01*
X170943204Y-111868592D01*
X172873000Y-112833490D01*
X172873000Y-115499237D01*
X140947806Y-115502430D01*
X141365392Y-115085573D01*
X141926361Y-113734609D01*
X141927637Y-112271808D01*
X141369027Y-110919868D01*
X140335573Y-109884608D01*
X138984609Y-109323639D01*
X137521808Y-109322363D01*
X136169868Y-109880973D01*
X135752000Y-110298112D01*
X135752000Y-103400000D01*
X141864635Y-103400000D01*
X141864635Y-106100000D01*
X141894409Y-106258237D01*
X141987927Y-106403567D01*
X142123000Y-106495858D01*
X142123000Y-106600000D01*
X142174534Y-106859077D01*
X142310341Y-107062326D01*
X142321289Y-107078711D01*
X142333434Y-107090856D01*
X142221433Y-107162927D01*
X142123936Y-107305619D01*
X142089635Y-107475000D01*
X142089635Y-109025000D01*
X142119409Y-109183237D01*
X142212927Y-109328567D01*
X142355619Y-109426064D01*
X142525000Y-109460365D01*
X142573000Y-109460365D01*
X142573000Y-109762283D01*
X142549312Y-109785930D01*
X142423144Y-110089778D01*
X142422857Y-110418779D01*
X142548495Y-110722846D01*
X142780930Y-110955688D01*
X143084778Y-111081856D01*
X143413779Y-111082143D01*
X143717846Y-110956505D01*
X143950688Y-110724070D01*
X144076856Y-110420222D01*
X144077143Y-110091221D01*
X143951505Y-109787154D01*
X143927000Y-109762606D01*
X143927000Y-109450581D01*
X144033237Y-109430591D01*
X144178567Y-109337073D01*
X144200745Y-109304614D01*
X144283124Y-109386993D01*
X144440065Y-109452000D01*
X144966250Y-109452000D01*
X145073000Y-109345250D01*
X145073000Y-108377000D01*
X145327000Y-108377000D01*
X145327000Y-109345250D01*
X145433750Y-109452000D01*
X145959935Y-109452000D01*
X146116876Y-109386993D01*
X146236993Y-109266876D01*
X146302000Y-109109936D01*
X146302000Y-108748750D01*
X147753000Y-108748750D01*
X147753000Y-109299935D01*
X147818007Y-109456876D01*
X147938124Y-109576993D01*
X148095064Y-109642000D01*
X148766250Y-109642000D01*
X148873000Y-109535250D01*
X148873000Y-108642000D01*
X149127000Y-108642000D01*
X149127000Y-109535250D01*
X149233750Y-109642000D01*
X149904936Y-109642000D01*
X150061876Y-109576993D01*
X150181993Y-109456876D01*
X150247000Y-109299935D01*
X150247000Y-108748750D01*
X150140250Y-108642000D01*
X149127000Y-108642000D01*
X148873000Y-108642000D01*
X147859750Y-108642000D01*
X147753000Y-108748750D01*
X146302000Y-108748750D01*
X146302000Y-108483750D01*
X146195250Y-108377000D01*
X145327000Y-108377000D01*
X145073000Y-108377000D01*
X145053000Y-108377000D01*
X145053000Y-108123000D01*
X145073000Y-108123000D01*
X145073000Y-107154750D01*
X144966250Y-107048000D01*
X144440065Y-107048000D01*
X144283124Y-107113007D01*
X144201805Y-107194326D01*
X144187073Y-107171433D01*
X144044381Y-107073936D01*
X143877000Y-107040040D01*
X143877000Y-106955000D01*
X143825466Y-106695923D01*
X143678711Y-106476289D01*
X143592889Y-106418944D01*
X143603567Y-106412073D01*
X143701064Y-106269381D01*
X143735365Y-106100000D01*
X143735365Y-103400000D01*
X143705591Y-103241763D01*
X143612073Y-103096433D01*
X143477000Y-103004142D01*
X143477000Y-102660708D01*
X143576858Y-102420222D01*
X143576933Y-102333750D01*
X146198000Y-102333750D01*
X146198000Y-102959936D01*
X146263007Y-103116876D01*
X146383124Y-103236993D01*
X146540065Y-103302000D01*
X147066250Y-103302000D01*
X147173000Y-103195250D01*
X147173000Y-102227000D01*
X146304750Y-102227000D01*
X146198000Y-102333750D01*
X143576933Y-102333750D01*
X143577145Y-102091221D01*
X143451507Y-101787154D01*
X143219072Y-101554312D01*
X142915224Y-101428144D01*
X142586223Y-101427857D01*
X142282156Y-101553495D01*
X142049314Y-101785930D01*
X141923146Y-102089778D01*
X141922859Y-102418779D01*
X142048497Y-102722846D01*
X142123000Y-102797479D01*
X142123000Y-103006483D01*
X141996433Y-103087927D01*
X141898936Y-103230619D01*
X141864635Y-103400000D01*
X135752000Y-103400000D01*
X135752000Y-101240064D01*
X146198000Y-101240064D01*
X146198000Y-101866250D01*
X146304750Y-101973000D01*
X147173000Y-101973000D01*
X147173000Y-101004750D01*
X147066250Y-100898000D01*
X146540065Y-100898000D01*
X146383124Y-100963007D01*
X146263007Y-101083124D01*
X146198000Y-101240064D01*
X135752000Y-101240064D01*
X135752000Y-100406750D01*
X138273000Y-100406750D01*
X138273000Y-100484935D01*
X138338007Y-100641876D01*
X138458124Y-100761993D01*
X138615064Y-100827000D01*
X138766250Y-100827000D01*
X138873000Y-100720250D01*
X138873000Y-100300000D01*
X139127000Y-100300000D01*
X139127000Y-100720250D01*
X139233750Y-100827000D01*
X139384936Y-100827000D01*
X139541876Y-100761993D01*
X139661993Y-100641876D01*
X139727000Y-100484935D01*
X139727000Y-100406750D01*
X139620250Y-100300000D01*
X139127000Y-100300000D01*
X138873000Y-100300000D01*
X138379750Y-100300000D01*
X138273000Y-100406750D01*
X135752000Y-100406750D01*
X135752000Y-100133750D01*
X145893000Y-100133750D01*
X145893000Y-100484936D01*
X145958007Y-100641876D01*
X146078124Y-100761993D01*
X146235065Y-100827000D01*
X146536250Y-100827000D01*
X146643000Y-100720250D01*
X146643000Y-100027000D01*
X145999750Y-100027000D01*
X145893000Y-100133750D01*
X135752000Y-100133750D01*
X135752000Y-95965000D01*
X138069635Y-95965000D01*
X138069635Y-96615000D01*
X138099409Y-96773237D01*
X138192927Y-96918567D01*
X138313396Y-97000880D01*
X138201433Y-97072927D01*
X138103936Y-97215619D01*
X138069635Y-97385000D01*
X138069635Y-98035000D01*
X138099409Y-98193237D01*
X138192927Y-98338567D01*
X138335619Y-98436064D01*
X138448000Y-98458822D01*
X138448000Y-98754744D01*
X138396433Y-98787927D01*
X138298936Y-98930619D01*
X138264635Y-99100000D01*
X138264635Y-99500000D01*
X138294409Y-99658237D01*
X138350589Y-99745542D01*
X138338007Y-99758124D01*
X138273000Y-99915065D01*
X138273000Y-99993250D01*
X138379750Y-100100000D01*
X138873000Y-100100000D01*
X138873000Y-100053000D01*
X139127000Y-100053000D01*
X139127000Y-100100000D01*
X139620250Y-100100000D01*
X139727000Y-99993250D01*
X139727000Y-99915065D01*
X139661993Y-99758124D01*
X139649182Y-99745313D01*
X139701064Y-99669381D01*
X139735365Y-99500000D01*
X139735365Y-99100000D01*
X139705591Y-98941763D01*
X139612073Y-98796433D01*
X139552000Y-98755387D01*
X139552000Y-98459640D01*
X139653237Y-98440591D01*
X139798567Y-98347073D01*
X139896064Y-98204381D01*
X139930365Y-98035000D01*
X139930365Y-97385000D01*
X139900591Y-97226763D01*
X139807073Y-97081433D01*
X139686604Y-96999120D01*
X139773475Y-96943220D01*
X139780930Y-96950688D01*
X140084778Y-97076856D01*
X140413779Y-97077143D01*
X140717846Y-96951505D01*
X140950688Y-96719070D01*
X141076856Y-96415222D01*
X141077143Y-96086221D01*
X140951505Y-95782154D01*
X140719070Y-95549312D01*
X140415222Y-95423144D01*
X140086221Y-95422857D01*
X139782154Y-95548495D01*
X139725115Y-95605434D01*
X139664381Y-95563936D01*
X139495000Y-95529635D01*
X138505000Y-95529635D01*
X138346763Y-95559409D01*
X138201433Y-95652927D01*
X138103936Y-95795619D01*
X138069635Y-95965000D01*
X135752000Y-95965000D01*
X135752000Y-95283750D01*
X144813000Y-95283750D01*
X144813000Y-95494935D01*
X144878007Y-95651876D01*
X144926131Y-95700000D01*
X144878007Y-95748124D01*
X144813000Y-95905065D01*
X144813000Y-96116250D01*
X144919750Y-96223000D01*
X145473000Y-96223000D01*
X145473000Y-95177000D01*
X144919750Y-95177000D01*
X144813000Y-95283750D01*
X135752000Y-95283750D01*
X135752000Y-89763779D01*
X144772857Y-89763779D01*
X144898495Y-90067846D01*
X145130930Y-90300688D01*
X145434778Y-90426856D01*
X145763779Y-90427143D01*
X146067846Y-90301505D01*
X146300688Y-90069070D01*
X146426856Y-89765222D01*
X146426857Y-89763779D01*
X148872857Y-89763779D01*
X148998495Y-90067846D01*
X149230930Y-90300688D01*
X149534778Y-90426856D01*
X149863779Y-90427143D01*
X149965615Y-90385065D01*
X152573000Y-90385065D01*
X152573000Y-90686250D01*
X152679750Y-90793000D01*
X153373000Y-90793000D01*
X153373000Y-90149750D01*
X153266250Y-90043000D01*
X152915064Y-90043000D01*
X152758124Y-90108007D01*
X152638007Y-90228124D01*
X152573000Y-90385065D01*
X149965615Y-90385065D01*
X150167846Y-90301505D01*
X150400688Y-90069070D01*
X150526856Y-89765222D01*
X150527143Y-89436221D01*
X150401505Y-89132154D01*
X150169070Y-88899312D01*
X149865222Y-88773144D01*
X149536221Y-88772857D01*
X149232154Y-88898495D01*
X148999312Y-89130930D01*
X148873144Y-89434778D01*
X148872857Y-89763779D01*
X146426857Y-89763779D01*
X146427143Y-89436221D01*
X146301505Y-89132154D01*
X146069070Y-88899312D01*
X145765222Y-88773144D01*
X145436221Y-88772857D01*
X145132154Y-88898495D01*
X144899312Y-89130930D01*
X144773144Y-89434778D01*
X144772857Y-89763779D01*
X135752000Y-89763779D01*
X135752000Y-83702244D01*
X136164427Y-84115392D01*
X137515391Y-84676361D01*
X138978192Y-84677637D01*
X140330132Y-84119027D01*
X141365392Y-83085573D01*
X141371858Y-83070000D01*
X142594635Y-83070000D01*
X142594635Y-84570000D01*
X142624409Y-84728237D01*
X142717927Y-84873567D01*
X142860619Y-84971064D01*
X143030000Y-85005365D01*
X144530000Y-85005365D01*
X144688237Y-84975591D01*
X144833567Y-84882073D01*
X144931064Y-84739381D01*
X144965365Y-84570000D01*
X144965365Y-84053093D01*
X145142796Y-84053093D01*
X145321606Y-84485846D01*
X145652412Y-84817230D01*
X146084853Y-84996795D01*
X146553093Y-84997204D01*
X146985846Y-84818394D01*
X147317230Y-84487588D01*
X147496795Y-84055147D01*
X147497204Y-83586907D01*
X147318394Y-83154154D01*
X146987588Y-82822770D01*
X146555147Y-82643205D01*
X146086907Y-82642796D01*
X145654154Y-82821606D01*
X145322770Y-83152412D01*
X145143205Y-83584853D01*
X145142796Y-84053093D01*
X144965365Y-84053093D01*
X144965365Y-83070000D01*
X144935591Y-82911763D01*
X144842073Y-82766433D01*
X144699381Y-82668936D01*
X144530000Y-82634635D01*
X143030000Y-82634635D01*
X142871763Y-82664409D01*
X142726433Y-82757927D01*
X142628936Y-82900619D01*
X142594635Y-83070000D01*
X141371858Y-83070000D01*
X141926361Y-81734609D01*
X141927411Y-80530000D01*
X142594635Y-80530000D01*
X142594635Y-82030000D01*
X142624409Y-82188237D01*
X142717927Y-82333567D01*
X142860619Y-82431064D01*
X143030000Y-82465365D01*
X144530000Y-82465365D01*
X144688237Y-82435591D01*
X144833567Y-82342073D01*
X144931064Y-82199381D01*
X144965365Y-82030000D01*
X144965365Y-80530000D01*
X144935591Y-80371763D01*
X144842073Y-80226433D01*
X144699381Y-80128936D01*
X144530000Y-80094635D01*
X143030000Y-80094635D01*
X142871763Y-80124409D01*
X142726433Y-80217927D01*
X142628936Y-80360619D01*
X142594635Y-80530000D01*
X141927411Y-80530000D01*
X141927637Y-80271808D01*
X141369027Y-78919868D01*
X140951888Y-78502000D01*
X160233299Y-78502000D01*
X160199310Y-78535930D01*
G36*
X161691694Y-103942838D02*
X161924129Y-104175680D01*
X162227977Y-104301848D01*
X162335260Y-104301942D01*
X162210484Y-104602438D01*
X162210197Y-104931439D01*
X162220241Y-104955748D01*
X162069070Y-104804312D01*
X161765222Y-104678144D01*
X161698732Y-104678086D01*
X161670365Y-104649719D01*
X161670365Y-104005000D01*
X161640591Y-103846763D01*
X161627874Y-103827000D01*
X161643831Y-103827000D01*
X161691694Y-103942838D01*
X161691694Y-103942838D01*
G37*
X161691694Y-103942838D02*
X161924129Y-104175680D01*
X162227977Y-104301848D01*
X162335260Y-104301942D01*
X162210484Y-104602438D01*
X162210197Y-104931439D01*
X162220241Y-104955748D01*
X162069070Y-104804312D01*
X161765222Y-104678144D01*
X161698732Y-104678086D01*
X161670365Y-104649719D01*
X161670365Y-104005000D01*
X161640591Y-103846763D01*
X161627874Y-103827000D01*
X161643831Y-103827000D01*
X161691694Y-103942838D01*
G36*
X161357000Y-102773000D02*
X161377000Y-102773000D01*
X161377000Y-103027000D01*
X161357000Y-103027000D01*
X161357000Y-103047000D01*
X161103000Y-103047000D01*
X161103000Y-103027000D01*
X161083000Y-103027000D01*
X161083000Y-102773000D01*
X161103000Y-102773000D01*
X161103000Y-102753000D01*
X161357000Y-102753000D01*
X161357000Y-102773000D01*
X161357000Y-102773000D01*
G37*
X161357000Y-102773000D02*
X161377000Y-102773000D01*
X161377000Y-103027000D01*
X161357000Y-103027000D01*
X161357000Y-103047000D01*
X161103000Y-103047000D01*
X161103000Y-103027000D01*
X161083000Y-103027000D01*
X161083000Y-102773000D01*
X161103000Y-102773000D01*
X161103000Y-102753000D01*
X161357000Y-102753000D01*
X161357000Y-102773000D01*
G36*
X156062500Y-94838369D02*
X156062500Y-94940842D01*
X156147527Y-95031921D01*
X156244531Y-94999081D01*
X156288759Y-95028633D01*
X156448000Y-95060308D01*
X156448000Y-95200000D01*
X156490018Y-95411242D01*
X156609677Y-95590323D01*
X156817354Y-95798000D01*
X156283750Y-95798000D01*
X156177000Y-95904750D01*
X156177000Y-96798000D01*
X157323000Y-96798000D01*
X157323000Y-96778000D01*
X157577000Y-96778000D01*
X157577000Y-96798000D01*
X157597000Y-96798000D01*
X157597000Y-97052000D01*
X157577000Y-97052000D01*
X157577000Y-98198000D01*
X157597000Y-98198000D01*
X157597000Y-98452000D01*
X157577000Y-98452000D01*
X157577000Y-98472000D01*
X157323000Y-98472000D01*
X157323000Y-98452000D01*
X156177000Y-98452000D01*
X156177000Y-99345250D01*
X156283750Y-99452000D01*
X157216250Y-99452000D01*
X157322998Y-99345252D01*
X157322998Y-99452000D01*
X157378358Y-99452000D01*
X157311972Y-99518270D01*
X157185804Y-99822118D01*
X157185517Y-100151119D01*
X157215802Y-100224415D01*
X157211241Y-100221367D01*
X157000000Y-100179349D01*
X156788759Y-100221367D01*
X156750000Y-100247265D01*
X156711241Y-100221367D01*
X156500000Y-100179349D01*
X156288759Y-100221367D01*
X156250000Y-100247265D01*
X156211241Y-100221367D01*
X156000000Y-100179349D01*
X155788759Y-100221367D01*
X155750000Y-100247265D01*
X155711241Y-100221367D01*
X155500000Y-100179349D01*
X155288759Y-100221367D01*
X155250000Y-100247265D01*
X155211241Y-100221367D01*
X155000000Y-100179349D01*
X154788759Y-100221367D01*
X154750000Y-100247265D01*
X154711241Y-100221367D01*
X154645483Y-100208287D01*
X155401775Y-99452000D01*
X155816250Y-99452000D01*
X155923000Y-99345250D01*
X155923000Y-98452000D01*
X155903000Y-98452000D01*
X155903000Y-98198000D01*
X155923000Y-98198000D01*
X155923000Y-97052000D01*
X156177000Y-97052000D01*
X156177000Y-98198000D01*
X157323000Y-98198000D01*
X157323000Y-97052000D01*
X156177000Y-97052000D01*
X155923000Y-97052000D01*
X155903000Y-97052000D01*
X155903000Y-96798000D01*
X155923000Y-96798000D01*
X155923000Y-95904750D01*
X155816250Y-95798000D01*
X155625835Y-95798000D01*
X155625835Y-95273835D01*
X155623337Y-95261275D01*
X155583817Y-95062593D01*
X155578736Y-95054990D01*
X155711241Y-95028633D01*
X155755469Y-94999081D01*
X155852473Y-95031921D01*
X155937500Y-94940842D01*
X155937500Y-94838369D01*
X156000000Y-94744831D01*
X156062500Y-94838369D01*
X156062500Y-94838369D01*
G37*
X156062500Y-94838369D02*
X156062500Y-94940842D01*
X156147527Y-95031921D01*
X156244531Y-94999081D01*
X156288759Y-95028633D01*
X156448000Y-95060308D01*
X156448000Y-95200000D01*
X156490018Y-95411242D01*
X156609677Y-95590323D01*
X156817354Y-95798000D01*
X156283750Y-95798000D01*
X156177000Y-95904750D01*
X156177000Y-96798000D01*
X157323000Y-96798000D01*
X157323000Y-96778000D01*
X157577000Y-96778000D01*
X157577000Y-96798000D01*
X157597000Y-96798000D01*
X157597000Y-97052000D01*
X157577000Y-97052000D01*
X157577000Y-98198000D01*
X157597000Y-98198000D01*
X157597000Y-98452000D01*
X157577000Y-98452000D01*
X157577000Y-98472000D01*
X157323000Y-98472000D01*
X157323000Y-98452000D01*
X156177000Y-98452000D01*
X156177000Y-99345250D01*
X156283750Y-99452000D01*
X157216250Y-99452000D01*
X157322998Y-99345252D01*
X157322998Y-99452000D01*
X157378358Y-99452000D01*
X157311972Y-99518270D01*
X157185804Y-99822118D01*
X157185517Y-100151119D01*
X157215802Y-100224415D01*
X157211241Y-100221367D01*
X157000000Y-100179349D01*
X156788759Y-100221367D01*
X156750000Y-100247265D01*
X156711241Y-100221367D01*
X156500000Y-100179349D01*
X156288759Y-100221367D01*
X156250000Y-100247265D01*
X156211241Y-100221367D01*
X156000000Y-100179349D01*
X155788759Y-100221367D01*
X155750000Y-100247265D01*
X155711241Y-100221367D01*
X155500000Y-100179349D01*
X155288759Y-100221367D01*
X155250000Y-100247265D01*
X155211241Y-100221367D01*
X155000000Y-100179349D01*
X154788759Y-100221367D01*
X154750000Y-100247265D01*
X154711241Y-100221367D01*
X154645483Y-100208287D01*
X155401775Y-99452000D01*
X155816250Y-99452000D01*
X155923000Y-99345250D01*
X155923000Y-98452000D01*
X155903000Y-98452000D01*
X155903000Y-98198000D01*
X155923000Y-98198000D01*
X155923000Y-97052000D01*
X156177000Y-97052000D01*
X156177000Y-98198000D01*
X157323000Y-98198000D01*
X157323000Y-97052000D01*
X156177000Y-97052000D01*
X155923000Y-97052000D01*
X155903000Y-97052000D01*
X155903000Y-96798000D01*
X155923000Y-96798000D01*
X155923000Y-95904750D01*
X155816250Y-95798000D01*
X155625835Y-95798000D01*
X155625835Y-95273835D01*
X155623337Y-95261275D01*
X155583817Y-95062593D01*
X155578736Y-95054990D01*
X155711241Y-95028633D01*
X155755469Y-94999081D01*
X155852473Y-95031921D01*
X155937500Y-94940842D01*
X155937500Y-94838369D01*
X156000000Y-94744831D01*
X156062500Y-94838369D01*
G36*
X160747967Y-92528613D02*
X160747967Y-93225947D01*
X160665323Y-93102262D01*
X160401956Y-92838895D01*
X160401956Y-92182602D01*
X160747967Y-92528613D01*
X160747967Y-92528613D01*
G37*
X160747967Y-92528613D02*
X160747967Y-93225947D01*
X160665323Y-93102262D01*
X160401956Y-92838895D01*
X160401956Y-92182602D01*
X160747967Y-92528613D01*
G36*
X154133748Y-83805858D02*
X154119605Y-83820000D01*
X154133748Y-83834143D01*
X153954143Y-84013748D01*
X153940000Y-83999605D01*
X153925858Y-84013748D01*
X153746253Y-83834143D01*
X153760395Y-83820000D01*
X153746253Y-83805858D01*
X153925858Y-83626253D01*
X153940000Y-83640395D01*
X153954143Y-83626253D01*
X154133748Y-83805858D01*
X154133748Y-83805858D01*
G37*
X154133748Y-83805858D02*
X154119605Y-83820000D01*
X154133748Y-83834143D01*
X153954143Y-84013748D01*
X153940000Y-83999605D01*
X153925858Y-84013748D01*
X153746253Y-83834143D01*
X153760395Y-83820000D01*
X153746253Y-83805858D01*
X153925858Y-83626253D01*
X153940000Y-83640395D01*
X153954143Y-83626253D01*
X154133748Y-83805858D01*
G36*
X181515391Y-84676361D02*
X182978192Y-84677637D01*
X184298735Y-84132000D01*
X184748000Y-84132000D01*
X184748000Y-92378000D01*
X179127000Y-92378000D01*
X179127000Y-86343591D01*
X179130619Y-86346064D01*
X179300000Y-86380365D01*
X180450000Y-86380365D01*
X180608237Y-86350591D01*
X180753567Y-86257073D01*
X180851064Y-86114381D01*
X180885365Y-85945000D01*
X180885365Y-85245000D01*
X180855591Y-85086763D01*
X180762073Y-84941433D01*
X180619381Y-84843936D01*
X180450000Y-84809635D01*
X180427000Y-84809635D01*
X180427000Y-84625000D01*
X180384982Y-84413759D01*
X180265323Y-84234677D01*
X180162646Y-84132000D01*
X180204424Y-84132000D01*
X181515391Y-84676361D01*
X181515391Y-84676361D01*
G37*
X181515391Y-84676361D02*
X182978192Y-84677637D01*
X184298735Y-84132000D01*
X184748000Y-84132000D01*
X184748000Y-92378000D01*
X179127000Y-92378000D01*
X179127000Y-86343591D01*
X179130619Y-86346064D01*
X179300000Y-86380365D01*
X180450000Y-86380365D01*
X180608237Y-86350591D01*
X180753567Y-86257073D01*
X180851064Y-86114381D01*
X180885365Y-85945000D01*
X180885365Y-85245000D01*
X180855591Y-85086763D01*
X180762073Y-84941433D01*
X180619381Y-84843936D01*
X180450000Y-84809635D01*
X180427000Y-84809635D01*
X180427000Y-84625000D01*
X180384982Y-84413759D01*
X180265323Y-84234677D01*
X180162646Y-84132000D01*
X180204424Y-84132000D01*
X181515391Y-84676361D01*
G36*
X184748000Y-101128000D02*
X179410365Y-101128000D01*
X179410365Y-99925000D01*
X179380591Y-99766763D01*
X179287073Y-99621433D01*
X179144381Y-99523936D01*
X179127000Y-99520416D01*
X179127000Y-95223183D01*
X179255619Y-95311064D01*
X179425000Y-95345365D01*
X180575000Y-95345365D01*
X180733237Y-95315591D01*
X180878567Y-95222073D01*
X180976064Y-95079381D01*
X181010365Y-94910000D01*
X181010365Y-94210000D01*
X180980591Y-94051763D01*
X180887073Y-93906433D01*
X180744381Y-93808936D01*
X180591075Y-93777890D01*
X180672863Y-93696245D01*
X180799031Y-93392397D01*
X180799258Y-93132000D01*
X184748000Y-93132000D01*
X184748000Y-101128000D01*
X184748000Y-101128000D01*
G37*
X184748000Y-101128000D02*
X179410365Y-101128000D01*
X179410365Y-99925000D01*
X179380591Y-99766763D01*
X179287073Y-99621433D01*
X179144381Y-99523936D01*
X179127000Y-99520416D01*
X179127000Y-95223183D01*
X179255619Y-95311064D01*
X179425000Y-95345365D01*
X180575000Y-95345365D01*
X180733237Y-95315591D01*
X180878567Y-95222073D01*
X180976064Y-95079381D01*
X181010365Y-94910000D01*
X181010365Y-94210000D01*
X180980591Y-94051763D01*
X180887073Y-93906433D01*
X180744381Y-93808936D01*
X180591075Y-93777890D01*
X180672863Y-93696245D01*
X180799031Y-93392397D01*
X180799258Y-93132000D01*
X184748000Y-93132000D01*
X184748000Y-101128000D01*
G36*
X184748000Y-109378000D02*
X183115525Y-109378000D01*
X182984609Y-109323639D01*
X181521808Y-109322363D01*
X181387156Y-109378000D01*
X179347446Y-109378000D01*
X179169070Y-109199312D01*
X179127000Y-109181843D01*
X179127000Y-104067735D01*
X179162927Y-104123567D01*
X179305619Y-104221064D01*
X179475000Y-104255365D01*
X180625000Y-104255365D01*
X180783237Y-104225591D01*
X180928567Y-104132073D01*
X181026064Y-103989381D01*
X181060365Y-103820000D01*
X181060365Y-103120000D01*
X181030591Y-102961763D01*
X180937073Y-102816433D01*
X180794381Y-102718936D01*
X180625000Y-102684635D01*
X179820281Y-102684635D01*
X179531411Y-102395765D01*
X179590349Y-102253825D01*
X179590636Y-101924824D01*
X179572941Y-101882000D01*
X184748000Y-101882000D01*
X184748000Y-109378000D01*
X184748000Y-109378000D01*
G37*
X184748000Y-109378000D02*
X183115525Y-109378000D01*
X182984609Y-109323639D01*
X181521808Y-109322363D01*
X181387156Y-109378000D01*
X179347446Y-109378000D01*
X179169070Y-109199312D01*
X179127000Y-109181843D01*
X179127000Y-104067735D01*
X179162927Y-104123567D01*
X179305619Y-104221064D01*
X179475000Y-104255365D01*
X180625000Y-104255365D01*
X180783237Y-104225591D01*
X180928567Y-104132073D01*
X181026064Y-103989381D01*
X181060365Y-103820000D01*
X181060365Y-103120000D01*
X181030591Y-102961763D01*
X180937073Y-102816433D01*
X180794381Y-102718936D01*
X180625000Y-102684635D01*
X179820281Y-102684635D01*
X179531411Y-102395765D01*
X179590349Y-102253825D01*
X179590636Y-101924824D01*
X179572941Y-101882000D01*
X184748000Y-101882000D01*
X184748000Y-109378000D01*
M02*
