%TF.GenerationSoftware,KiCad,Pcbnew,4.0.6-e0-6349~53~ubuntu16.04.1*%
%TF.CreationDate,2017-03-23T00:14:44+02:00*%
%TF.ProjectId,BLDC_controller,424C44435F636F6E74726F6C6C65722E,1.0*%
%TF.FileFunction,Copper,L2,Inr,Plane*%
%FSLAX46Y46*%
G04 Gerber Fmt 4.6, Leading zero omitted, Abs format (unit mm)*
G04 Created by KiCad (PCBNEW 4.0.6-e0-6349~53~ubuntu16.04.1) date Thu Mar 23 00:14:44 2017*
%MOMM*%
%LPD*%
G01*
G04 APERTURE LIST*
%ADD10C,0.100000*%
%ADD11C,0.250000*%
%ADD12C,0.800000*%
%ADD13R,1.500000X1.500000*%
%ADD14C,1.500000*%
%ADD15C,1.300000*%
%ADD16C,2.100000*%
%ADD17C,0.254000*%
G04 APERTURE END LIST*
D10*
D11*
X39664286Y1797381D02*
X39711905Y1845000D01*
X39807143Y1892619D01*
X40045239Y1892619D01*
X40140477Y1845000D01*
X40188096Y1797381D01*
X40235715Y1702143D01*
X40235715Y1606905D01*
X40188096Y1464048D01*
X39616667Y892619D01*
X40235715Y892619D01*
D12*
X38750000Y27900000D03*
X28150000Y30600000D03*
X27350000Y30600000D03*
X27350000Y29800000D03*
X28150000Y29800000D03*
X27350000Y28200000D03*
X28150000Y28200000D03*
X31750000Y29800000D03*
X30950000Y29800000D03*
X32150000Y29000000D03*
X31350000Y29000000D03*
X30550000Y29000000D03*
X29750000Y29000000D03*
X28950000Y29000000D03*
X28150000Y29000000D03*
X27350000Y29000000D03*
X32350000Y10950000D03*
X31550000Y10950000D03*
X30750000Y10950000D03*
X29950000Y10950000D03*
X29150000Y10950000D03*
X28350000Y10950000D03*
X27550000Y10950000D03*
X26750000Y10950000D03*
X32350000Y11750000D03*
X31550000Y11750000D03*
X30750000Y11750000D03*
X29950000Y11750000D03*
X29150000Y11750000D03*
X28350000Y11750000D03*
X27550000Y11750000D03*
X45900000Y13550000D03*
X45100000Y13550000D03*
X44300000Y13550000D03*
X43500000Y13550000D03*
X45900000Y14350000D03*
X45100000Y14350000D03*
X44300000Y14350000D03*
X43500000Y14350000D03*
X45900000Y15150000D03*
X45100000Y15150000D03*
X44300000Y15150000D03*
X43500000Y15150000D03*
X45900000Y15950000D03*
X45100000Y15950000D03*
X44300000Y15950000D03*
X43500000Y15950000D03*
X45900000Y16750000D03*
X45100000Y16750000D03*
X44300000Y16750000D03*
X43500000Y16750000D03*
X45900000Y17550000D03*
X45100000Y17550000D03*
X44300000Y17550000D03*
X43500000Y17550000D03*
X45900000Y18350000D03*
X45100000Y18350000D03*
X44300000Y18350000D03*
X45900000Y20250000D03*
X45100000Y20250000D03*
X44300000Y20250000D03*
X43500000Y20250000D03*
X45900000Y21050000D03*
X45100000Y21050000D03*
X44300000Y21050000D03*
X43500000Y21050000D03*
X45900000Y21850000D03*
X45100000Y21850000D03*
X44300000Y21850000D03*
X43500000Y21850000D03*
X45900000Y22650000D03*
X45100000Y22650000D03*
X44300000Y22650000D03*
X43500000Y22650000D03*
X45900000Y23450000D03*
X45100000Y23450000D03*
X44300000Y23450000D03*
X43500000Y23450000D03*
X45900000Y24250000D03*
X45100000Y24250000D03*
X44300000Y24250000D03*
X43500000Y24250000D03*
X45900000Y25050000D03*
X45100000Y25050000D03*
X44300000Y25050000D03*
X43350000Y6000000D03*
X44300000Y6800000D03*
X43500000Y6800000D03*
X45900000Y7600000D03*
X45100000Y7600000D03*
X44300000Y7600000D03*
X43500000Y7600000D03*
X45900000Y8400000D03*
X45100000Y8400000D03*
X44300000Y8400000D03*
X43500000Y8400000D03*
X45900000Y9200000D03*
X45100000Y9200000D03*
X44300000Y9200000D03*
X43500000Y9200000D03*
X45900000Y10000000D03*
X45100000Y10000000D03*
X44300000Y10000000D03*
X43500000Y10000000D03*
X45900000Y10800000D03*
X45100000Y10800000D03*
X44300000Y10800000D03*
X43500000Y10800000D03*
X45900000Y11600000D03*
X45100000Y11600000D03*
X44300000Y11600000D03*
X32600000Y795000D03*
X31800000Y795000D03*
X31000000Y795000D03*
X30200000Y795000D03*
X29400000Y795000D03*
X28600000Y795000D03*
X27800000Y795000D03*
X27000000Y795000D03*
X32600000Y1595000D03*
X31800000Y1595000D03*
X31000000Y1595000D03*
X30200000Y1595000D03*
X29400000Y1595000D03*
X28600000Y1595000D03*
X27800000Y1595000D03*
X34700000Y2000000D03*
X37100000Y4600000D03*
X39000000Y4600000D03*
X38500000Y12800000D03*
X38900000Y19900000D03*
X34900000Y20600000D03*
X35000000Y13000000D03*
X43500000Y11600000D03*
X43500000Y18350000D03*
X43500000Y25050000D03*
D13*
X7620000Y27400000D03*
D14*
X10160000Y27400000D03*
X12700000Y27400000D03*
X15240000Y27400000D03*
X17780000Y27400000D03*
D15*
X31750000Y30800000D03*
D12*
X6250000Y14700000D03*
X2000000Y25000000D03*
X1800000Y21800000D03*
X2000000Y12500000D03*
X2000000Y8200000D03*
X26750000Y11750000D03*
X27000000Y1595000D03*
X11400000Y15245000D03*
X10100000Y14895000D03*
X8950000Y14895000D03*
X6800000Y19945000D03*
X7750000Y14845000D03*
X5750000Y15595000D03*
X5800000Y19095000D03*
X12500000Y18945000D03*
X11250000Y19595000D03*
X10200000Y19795000D03*
X9150000Y19795000D03*
D13*
X7620000Y29940000D03*
D14*
X10160000Y29940000D03*
X12700000Y29940000D03*
X15240000Y29940000D03*
X17780000Y29940000D03*
X20320000Y29940000D03*
D13*
X7620000Y2000000D03*
D14*
X10160000Y2000000D03*
X12700000Y2000000D03*
X15240000Y2000000D03*
X17780000Y2000000D03*
D12*
X8050000Y19795000D03*
D15*
X36750000Y30750000D03*
D16*
X47250000Y23000000D03*
X47250000Y16000000D03*
X47250000Y8500000D03*
X34750000Y30500000D03*
X29550000Y30500000D03*
D12*
X10875365Y12906144D03*
X11399988Y13700000D03*
X15549861Y14500000D03*
X23336422Y8541723D03*
X21864031Y20266970D03*
X13500000Y21674990D03*
X30750000Y26000000D03*
X12750000Y9000000D03*
X30700006Y14900000D03*
X23800000Y2400000D03*
X5000000Y23600000D03*
X25500000Y13100000D03*
X25300000Y25274990D03*
X6450000Y13000000D03*
X10750000Y25100000D03*
X12600000Y4600000D03*
X7700000Y4600010D03*
X31000000Y4800000D03*
X17250000Y17495000D03*
X16750000Y13245000D03*
X5800000Y16650000D03*
X5800000Y17950000D03*
X20186664Y13049988D03*
X25935865Y17109132D03*
X23000000Y19999992D03*
X36300000Y12600000D03*
X23643199Y9525008D03*
X24512821Y21484129D03*
X36737345Y19987336D03*
X24050013Y29600000D03*
X36300000Y27700000D03*
X31700000Y6000000D03*
X41500000Y12000000D03*
X41600000Y27800000D03*
X24100000Y25400000D03*
X29400000Y16300000D03*
X41300000Y19600004D03*
X22700000Y7400000D03*
X24087014Y20038305D03*
X14000000Y10500000D03*
X5100000Y22399994D03*
X4100000Y12850000D03*
X3250000Y7200000D03*
X1950000Y13800000D03*
X12994014Y20637443D03*
X10950000Y23400000D03*
X19450000Y2600000D03*
X19187812Y13001833D03*
X25536944Y20397155D03*
X24287369Y8232331D03*
X30800004Y7600000D03*
X25850000Y29600000D03*
X30800000Y24250000D03*
X25707865Y21382452D03*
X30700000Y18000000D03*
X23049998Y29600000D03*
X16700000Y24600000D03*
X21150000Y7200000D03*
X4100000Y14550000D03*
X20643923Y5468604D03*
X14214474Y11950011D03*
X17475010Y20150000D03*
X18093865Y23743669D03*
X15519372Y10317041D03*
X18388611Y21336069D03*
X17483366Y21843499D03*
X15590616Y17369232D03*
X21948915Y5519979D03*
X20200000Y14900000D03*
X18817262Y23053219D03*
X13655679Y19887643D03*
X12234530Y19986899D03*
X19950000Y7295000D03*
X19920369Y17775334D03*
X17700000Y24900000D03*
D11*
X23800000Y2400000D02*
X25100000Y2400000D01*
X25100000Y2400000D02*
X27500000Y4800000D01*
X27500000Y4800000D02*
X31000000Y4800000D01*
X27300000Y14900000D02*
X30134321Y14900000D01*
X25500000Y13100000D02*
X27300000Y14900000D01*
X30134321Y14900000D02*
X30700006Y14900000D01*
X42700000Y12100000D02*
X41500000Y13300000D01*
X41500000Y13300000D02*
X41500000Y15300000D01*
X41500000Y15300000D02*
X41100000Y15700000D01*
X41100000Y15700000D02*
X29926996Y15700000D01*
X29721996Y15495000D02*
X22631676Y15495000D01*
X29926996Y15700000D02*
X29721996Y15495000D01*
X22631676Y15495000D02*
X20586663Y13449987D01*
X20586663Y13449987D02*
X20186664Y13049988D01*
X42900000Y12100000D02*
X43100000Y11900000D01*
X42700000Y12100000D02*
X42900000Y12100000D01*
X45126996Y9673004D02*
X42700000Y12100000D01*
X45400000Y9673004D02*
X45126996Y9673004D01*
X42250000Y19750000D02*
X42250000Y19500000D01*
X42250000Y19500000D02*
X42250000Y19250000D01*
X42500000Y19250000D02*
X42250000Y19500000D01*
X42250000Y19250000D02*
X42500000Y19000000D01*
X25935865Y17109132D02*
X26335864Y17509131D01*
X26335864Y17509131D02*
X30100284Y17509131D01*
X30100284Y17509131D02*
X30364382Y17245033D01*
X30364382Y17245033D02*
X32745033Y17245033D01*
X32745033Y17245033D02*
X36300000Y20800000D01*
X36300000Y20800000D02*
X41200000Y20800000D01*
X41200000Y20800000D02*
X42250000Y19750000D01*
X42500000Y19250000D02*
X42500000Y19000000D01*
X42500000Y19250000D02*
X43250000Y18500000D01*
X42500000Y19000000D02*
X43150000Y18350000D01*
X43150000Y18350000D02*
X43500000Y18350000D01*
X43850000Y18150000D02*
X43850000Y16795000D01*
X23000000Y20565677D02*
X23000000Y19999992D01*
X23000000Y21800000D02*
X23000000Y20565677D01*
X42600000Y22900000D02*
X24100000Y22900000D01*
X24100000Y22900000D02*
X23000000Y21800000D01*
X42600000Y22900000D02*
X42900000Y22600000D01*
X42900000Y23200000D02*
X42600000Y22900000D01*
X42900000Y23100000D02*
X42700000Y22900000D01*
X42790000Y22900000D02*
X42600000Y22900000D01*
X42600000Y22900000D02*
X42700000Y22900000D01*
X43200000Y22490000D02*
X42790000Y22900000D01*
X35900001Y12200001D02*
X36300000Y12600000D01*
X33225008Y9525008D02*
X35900001Y12200001D01*
X23643199Y9525008D02*
X33225008Y9525008D01*
X24811943Y20049154D02*
X24811943Y20619322D01*
X30177982Y16795022D02*
X29937847Y17035157D01*
X24512821Y20918444D02*
X24512821Y21484129D01*
X24811943Y20619322D02*
X24512821Y20918444D01*
X25188943Y19672154D02*
X24811943Y20049154D01*
X28189095Y16384129D02*
X25587858Y16384129D01*
X25188943Y16783044D02*
X25188943Y19672154D01*
X25587858Y16384129D02*
X25188943Y16783044D01*
X28840123Y17035157D02*
X28189095Y16384129D01*
X29937847Y17035157D02*
X28840123Y17035157D01*
X33545031Y16795022D02*
X30177982Y16795022D01*
X36737345Y19987336D02*
X33545031Y16795022D01*
X26198002Y30325002D02*
X24775015Y30325002D01*
X24775015Y30325002D02*
X24450012Y29999999D01*
X26575002Y29948002D02*
X26198002Y30325002D01*
X26575002Y27901996D02*
X26575002Y29948002D01*
X27176997Y27300001D02*
X26575002Y27901996D01*
X24450012Y29999999D02*
X24050013Y29600000D01*
X36300000Y27700000D02*
X35900001Y27300001D01*
X35900001Y27300001D02*
X27176997Y27300001D01*
X41500000Y12000000D02*
X35500000Y6000000D01*
X35500000Y6000000D02*
X31700000Y6000000D01*
X24100000Y25400000D02*
X26000000Y23500000D01*
X26000000Y23500000D02*
X41100000Y23500000D01*
X41100000Y23500000D02*
X41600000Y24000000D01*
X41600000Y24000000D02*
X41600000Y27800000D01*
X41300000Y19600004D02*
X41300000Y16900000D01*
X41300000Y16900000D02*
X40745011Y16345011D01*
X40745011Y16345011D02*
X29445011Y16345011D01*
X29445011Y16345011D02*
X29400000Y16300000D01*
X24919700Y7600000D02*
X24287369Y8232331D01*
X30800004Y7600000D02*
X24919700Y7600000D01*
X25850000Y29034315D02*
X25850000Y29600000D01*
X29534315Y24250000D02*
X25850000Y27934315D01*
X30800000Y24250000D02*
X29534315Y24250000D01*
X25850000Y27934315D02*
X25850000Y29034315D01*
X26107864Y20982453D02*
X25707865Y21382452D01*
X30700000Y18000000D02*
X29090317Y18000000D01*
X29090317Y18000000D02*
X26107864Y20982453D01*
X17334315Y25800000D02*
X19249998Y25800000D01*
X16700000Y24600000D02*
X16700000Y25165685D01*
X19249998Y25800000D02*
X22649999Y29200001D01*
X16700000Y25165685D02*
X17334315Y25800000D01*
X22649999Y29200001D02*
X23049998Y29600000D01*
D17*
G36*
X42123000Y3127000D02*
X37500000Y3127000D01*
X37450590Y3116994D01*
X37408965Y3088553D01*
X37381685Y3046159D01*
X37373000Y3000000D01*
X37373000Y502000D01*
X33373798Y502000D01*
X33426856Y629778D01*
X33427143Y958779D01*
X33329454Y1195205D01*
X33426856Y1429778D01*
X33427143Y1758779D01*
X33301505Y2062846D01*
X33069070Y2295688D01*
X32765222Y2421856D01*
X32436221Y2422143D01*
X32199795Y2324454D01*
X31965222Y2421856D01*
X31636221Y2422143D01*
X31399795Y2324454D01*
X31165222Y2421856D01*
X30836221Y2422143D01*
X30599795Y2324454D01*
X30365222Y2421856D01*
X30036221Y2422143D01*
X29799795Y2324454D01*
X29565222Y2421856D01*
X29236221Y2422143D01*
X28999795Y2324454D01*
X28765222Y2421856D01*
X28436221Y2422143D01*
X28199795Y2324454D01*
X27965222Y2421856D01*
X27636221Y2422143D01*
X27399795Y2324454D01*
X27165222Y2421856D01*
X26836221Y2422143D01*
X26532154Y2296505D01*
X26299312Y2064070D01*
X26173144Y1760222D01*
X26172857Y1431221D01*
X26270546Y1194795D01*
X26173144Y960222D01*
X26172857Y631221D01*
X26226250Y502000D01*
X25617916Y502000D01*
X25617916Y2137270D01*
X27728646Y4248000D01*
X30382502Y4248000D01*
X30530930Y4099312D01*
X30834778Y3973144D01*
X31163779Y3972857D01*
X31467846Y4098495D01*
X31700688Y4330930D01*
X31826856Y4634778D01*
X31827143Y4963779D01*
X31740709Y5172964D01*
X31863779Y5172857D01*
X32167846Y5298495D01*
X32317613Y5448000D01*
X35500000Y5448000D01*
X35711242Y5490018D01*
X35890323Y5609677D01*
X41453686Y11173040D01*
X41663779Y11172857D01*
X41967846Y11298495D01*
X42123000Y11453378D01*
X42123000Y3127000D01*
X42123000Y3127000D01*
G37*
X42123000Y3127000D02*
X37500000Y3127000D01*
X37450590Y3116994D01*
X37408965Y3088553D01*
X37381685Y3046159D01*
X37373000Y3000000D01*
X37373000Y502000D01*
X33373798Y502000D01*
X33426856Y629778D01*
X33427143Y958779D01*
X33329454Y1195205D01*
X33426856Y1429778D01*
X33427143Y1758779D01*
X33301505Y2062846D01*
X33069070Y2295688D01*
X32765222Y2421856D01*
X32436221Y2422143D01*
X32199795Y2324454D01*
X31965222Y2421856D01*
X31636221Y2422143D01*
X31399795Y2324454D01*
X31165222Y2421856D01*
X30836221Y2422143D01*
X30599795Y2324454D01*
X30365222Y2421856D01*
X30036221Y2422143D01*
X29799795Y2324454D01*
X29565222Y2421856D01*
X29236221Y2422143D01*
X28999795Y2324454D01*
X28765222Y2421856D01*
X28436221Y2422143D01*
X28199795Y2324454D01*
X27965222Y2421856D01*
X27636221Y2422143D01*
X27399795Y2324454D01*
X27165222Y2421856D01*
X26836221Y2422143D01*
X26532154Y2296505D01*
X26299312Y2064070D01*
X26173144Y1760222D01*
X26172857Y1431221D01*
X26270546Y1194795D01*
X26173144Y960222D01*
X26172857Y631221D01*
X26226250Y502000D01*
X25617916Y502000D01*
X25617916Y2137270D01*
X27728646Y4248000D01*
X30382502Y4248000D01*
X30530930Y4099312D01*
X30834778Y3973144D01*
X31163779Y3972857D01*
X31467846Y4098495D01*
X31700688Y4330930D01*
X31826856Y4634778D01*
X31827143Y4963779D01*
X31740709Y5172964D01*
X31863779Y5172857D01*
X32167846Y5298495D01*
X32317613Y5448000D01*
X35500000Y5448000D01*
X35711242Y5490018D01*
X35890323Y5609677D01*
X41453686Y11173040D01*
X41663779Y11172857D01*
X41967846Y11298495D01*
X42123000Y11453378D01*
X42123000Y3127000D01*
G36*
X40948000Y15071354D02*
X40948000Y13300000D01*
X40990018Y13088758D01*
X41109677Y12909677D01*
X41234317Y12785037D01*
X41032154Y12701505D01*
X40799312Y12469070D01*
X40673144Y12165222D01*
X40672959Y11953605D01*
X35271354Y6552000D01*
X32317498Y6552000D01*
X32169070Y6700688D01*
X31865222Y6826856D01*
X31536221Y6827143D01*
X31232154Y6701505D01*
X30999312Y6469070D01*
X30873144Y6165222D01*
X30872857Y5836221D01*
X30959291Y5627036D01*
X30836221Y5627143D01*
X30532154Y5501505D01*
X30382387Y5352000D01*
X27500000Y5352000D01*
X27288759Y5309982D01*
X27109677Y5190323D01*
X25617916Y3698562D01*
X25617916Y7048000D01*
X30182506Y7048000D01*
X30330934Y6899312D01*
X30634782Y6773144D01*
X30963783Y6772857D01*
X31267850Y6898495D01*
X31500692Y7130930D01*
X31626860Y7434778D01*
X31627147Y7763779D01*
X31501509Y8067846D01*
X31269074Y8300688D01*
X30965226Y8426856D01*
X30636225Y8427143D01*
X30332158Y8301505D01*
X30182391Y8152000D01*
X25617916Y8152000D01*
X25617916Y8973008D01*
X33225008Y8973008D01*
X33436250Y9015026D01*
X33615331Y9134685D01*
X36253686Y11773040D01*
X36463779Y11772857D01*
X36767846Y11898495D01*
X37000688Y12130930D01*
X37126856Y12434778D01*
X37127143Y12763779D01*
X37001505Y13067846D01*
X36769070Y13300688D01*
X36465222Y13426856D01*
X36136221Y13427143D01*
X35832154Y13301505D01*
X35599312Y13069070D01*
X35473144Y12765222D01*
X35472959Y12553605D01*
X32996362Y10077008D01*
X25175392Y10077008D01*
X24338480Y11081303D01*
X24299162Y11112856D01*
X24240916Y11127000D01*
X16052606Y11127000D01*
X15593385Y11586221D01*
X25922857Y11586221D01*
X26020546Y11349795D01*
X25923144Y11115222D01*
X25922857Y10786221D01*
X26048495Y10482154D01*
X26280930Y10249312D01*
X26584778Y10123144D01*
X26913779Y10122857D01*
X27150205Y10220546D01*
X27384778Y10123144D01*
X27713779Y10122857D01*
X27950205Y10220546D01*
X28184778Y10123144D01*
X28513779Y10122857D01*
X28750205Y10220546D01*
X28984778Y10123144D01*
X29313779Y10122857D01*
X29550205Y10220546D01*
X29784778Y10123144D01*
X30113779Y10122857D01*
X30350205Y10220546D01*
X30584778Y10123144D01*
X30913779Y10122857D01*
X31150205Y10220546D01*
X31384778Y10123144D01*
X31713779Y10122857D01*
X31950205Y10220546D01*
X32184778Y10123144D01*
X32513779Y10122857D01*
X32817846Y10248495D01*
X33050688Y10480930D01*
X33176856Y10784778D01*
X33177143Y11113779D01*
X33079454Y11350205D01*
X33176856Y11584778D01*
X33177143Y11913779D01*
X33051505Y12217846D01*
X32819070Y12450688D01*
X32515222Y12576856D01*
X32186221Y12577143D01*
X31949795Y12479454D01*
X31715222Y12576856D01*
X31386221Y12577143D01*
X31149795Y12479454D01*
X30915222Y12576856D01*
X30586221Y12577143D01*
X30349795Y12479454D01*
X30115222Y12576856D01*
X29786221Y12577143D01*
X29549795Y12479454D01*
X29315222Y12576856D01*
X28986221Y12577143D01*
X28749795Y12479454D01*
X28515222Y12576856D01*
X28186221Y12577143D01*
X27949795Y12479454D01*
X27715222Y12576856D01*
X27386221Y12577143D01*
X27149795Y12479454D01*
X26915222Y12576856D01*
X26586221Y12577143D01*
X26282154Y12451505D01*
X26049312Y12219070D01*
X25923144Y11915222D01*
X25922857Y11586221D01*
X15593385Y11586221D01*
X15089803Y12089803D01*
X15047789Y12117666D01*
X15039333Y12119318D01*
X14915979Y12417857D01*
X14683544Y12650699D01*
X14379696Y12776867D01*
X14050695Y12777154D01*
X13746628Y12651516D01*
X13513786Y12419081D01*
X13392504Y12127000D01*
X10127000Y12127000D01*
X10127000Y13081221D01*
X15922857Y13081221D01*
X16048495Y12777154D01*
X16280930Y12544312D01*
X16584778Y12418144D01*
X16913779Y12417857D01*
X17217846Y12543495D01*
X17450688Y12775930D01*
X17576856Y13079778D01*
X17577143Y13408779D01*
X17451505Y13712846D01*
X17219070Y13945688D01*
X16915222Y14071856D01*
X16586221Y14072143D01*
X16282154Y13946505D01*
X16049312Y13714070D01*
X15923144Y13410222D01*
X15922857Y13081221D01*
X10127000Y13081221D01*
X10127000Y14067976D01*
X10263779Y14067857D01*
X10567846Y14193495D01*
X10800688Y14425930D01*
X10873664Y14601678D01*
X10930930Y14544312D01*
X11234778Y14418144D01*
X11563779Y14417857D01*
X11867846Y14543495D01*
X12100688Y14775930D01*
X12140995Y14873000D01*
X19372976Y14873000D01*
X19372857Y14736221D01*
X19498495Y14432154D01*
X19730930Y14199312D01*
X20034778Y14073144D01*
X20363779Y14072857D01*
X20474732Y14118702D01*
X20232978Y13876948D01*
X20022885Y13877131D01*
X19718818Y13751493D01*
X19663310Y13696082D01*
X19656882Y13702521D01*
X19353034Y13828689D01*
X19024033Y13828976D01*
X18719966Y13703338D01*
X18487124Y13470903D01*
X18360956Y13167055D01*
X18360669Y12838054D01*
X18486307Y12533987D01*
X18718742Y12301145D01*
X19022590Y12174977D01*
X19351591Y12174690D01*
X19655658Y12300328D01*
X19711166Y12355739D01*
X19717594Y12349300D01*
X20021442Y12223132D01*
X20350443Y12222845D01*
X20654510Y12348483D01*
X20887352Y12580918D01*
X21013520Y12884766D01*
X21013705Y13096383D01*
X22790322Y14873000D01*
X25750000Y14873000D01*
X25799410Y14883006D01*
X25841035Y14911447D01*
X25861339Y14943000D01*
X26562354Y14943000D01*
X25546314Y13926960D01*
X25336221Y13927143D01*
X25032154Y13801505D01*
X24799312Y13569070D01*
X24673144Y13265222D01*
X24672857Y12936221D01*
X24798495Y12632154D01*
X25030930Y12399312D01*
X25334778Y12273144D01*
X25663779Y12272857D01*
X25967846Y12398495D01*
X26200688Y12630930D01*
X26326856Y12934778D01*
X26327041Y13146395D01*
X27528646Y14348000D01*
X30082508Y14348000D01*
X30230936Y14199312D01*
X30534784Y14073144D01*
X30863785Y14072857D01*
X31167852Y14198495D01*
X31400694Y14430930D01*
X31526862Y14734778D01*
X31527149Y15063779D01*
X31492350Y15148000D01*
X40871354Y15148000D01*
X40948000Y15071354D01*
X40948000Y15071354D01*
G37*
X40948000Y15071354D02*
X40948000Y13300000D01*
X40990018Y13088758D01*
X41109677Y12909677D01*
X41234317Y12785037D01*
X41032154Y12701505D01*
X40799312Y12469070D01*
X40673144Y12165222D01*
X40672959Y11953605D01*
X35271354Y6552000D01*
X32317498Y6552000D01*
X32169070Y6700688D01*
X31865222Y6826856D01*
X31536221Y6827143D01*
X31232154Y6701505D01*
X30999312Y6469070D01*
X30873144Y6165222D01*
X30872857Y5836221D01*
X30959291Y5627036D01*
X30836221Y5627143D01*
X30532154Y5501505D01*
X30382387Y5352000D01*
X27500000Y5352000D01*
X27288759Y5309982D01*
X27109677Y5190323D01*
X25617916Y3698562D01*
X25617916Y7048000D01*
X30182506Y7048000D01*
X30330934Y6899312D01*
X30634782Y6773144D01*
X30963783Y6772857D01*
X31267850Y6898495D01*
X31500692Y7130930D01*
X31626860Y7434778D01*
X31627147Y7763779D01*
X31501509Y8067846D01*
X31269074Y8300688D01*
X30965226Y8426856D01*
X30636225Y8427143D01*
X30332158Y8301505D01*
X30182391Y8152000D01*
X25617916Y8152000D01*
X25617916Y8973008D01*
X33225008Y8973008D01*
X33436250Y9015026D01*
X33615331Y9134685D01*
X36253686Y11773040D01*
X36463779Y11772857D01*
X36767846Y11898495D01*
X37000688Y12130930D01*
X37126856Y12434778D01*
X37127143Y12763779D01*
X37001505Y13067846D01*
X36769070Y13300688D01*
X36465222Y13426856D01*
X36136221Y13427143D01*
X35832154Y13301505D01*
X35599312Y13069070D01*
X35473144Y12765222D01*
X35472959Y12553605D01*
X32996362Y10077008D01*
X25175392Y10077008D01*
X24338480Y11081303D01*
X24299162Y11112856D01*
X24240916Y11127000D01*
X16052606Y11127000D01*
X15593385Y11586221D01*
X25922857Y11586221D01*
X26020546Y11349795D01*
X25923144Y11115222D01*
X25922857Y10786221D01*
X26048495Y10482154D01*
X26280930Y10249312D01*
X26584778Y10123144D01*
X26913779Y10122857D01*
X27150205Y10220546D01*
X27384778Y10123144D01*
X27713779Y10122857D01*
X27950205Y10220546D01*
X28184778Y10123144D01*
X28513779Y10122857D01*
X28750205Y10220546D01*
X28984778Y10123144D01*
X29313779Y10122857D01*
X29550205Y10220546D01*
X29784778Y10123144D01*
X30113779Y10122857D01*
X30350205Y10220546D01*
X30584778Y10123144D01*
X30913779Y10122857D01*
X31150205Y10220546D01*
X31384778Y10123144D01*
X31713779Y10122857D01*
X31950205Y10220546D01*
X32184778Y10123144D01*
X32513779Y10122857D01*
X32817846Y10248495D01*
X33050688Y10480930D01*
X33176856Y10784778D01*
X33177143Y11113779D01*
X33079454Y11350205D01*
X33176856Y11584778D01*
X33177143Y11913779D01*
X33051505Y12217846D01*
X32819070Y12450688D01*
X32515222Y12576856D01*
X32186221Y12577143D01*
X31949795Y12479454D01*
X31715222Y12576856D01*
X31386221Y12577143D01*
X31149795Y12479454D01*
X30915222Y12576856D01*
X30586221Y12577143D01*
X30349795Y12479454D01*
X30115222Y12576856D01*
X29786221Y12577143D01*
X29549795Y12479454D01*
X29315222Y12576856D01*
X28986221Y12577143D01*
X28749795Y12479454D01*
X28515222Y12576856D01*
X28186221Y12577143D01*
X27949795Y12479454D01*
X27715222Y12576856D01*
X27386221Y12577143D01*
X27149795Y12479454D01*
X26915222Y12576856D01*
X26586221Y12577143D01*
X26282154Y12451505D01*
X26049312Y12219070D01*
X25923144Y11915222D01*
X25922857Y11586221D01*
X15593385Y11586221D01*
X15089803Y12089803D01*
X15047789Y12117666D01*
X15039333Y12119318D01*
X14915979Y12417857D01*
X14683544Y12650699D01*
X14379696Y12776867D01*
X14050695Y12777154D01*
X13746628Y12651516D01*
X13513786Y12419081D01*
X13392504Y12127000D01*
X10127000Y12127000D01*
X10127000Y13081221D01*
X15922857Y13081221D01*
X16048495Y12777154D01*
X16280930Y12544312D01*
X16584778Y12418144D01*
X16913779Y12417857D01*
X17217846Y12543495D01*
X17450688Y12775930D01*
X17576856Y13079778D01*
X17577143Y13408779D01*
X17451505Y13712846D01*
X17219070Y13945688D01*
X16915222Y14071856D01*
X16586221Y14072143D01*
X16282154Y13946505D01*
X16049312Y13714070D01*
X15923144Y13410222D01*
X15922857Y13081221D01*
X10127000Y13081221D01*
X10127000Y14067976D01*
X10263779Y14067857D01*
X10567846Y14193495D01*
X10800688Y14425930D01*
X10873664Y14601678D01*
X10930930Y14544312D01*
X11234778Y14418144D01*
X11563779Y14417857D01*
X11867846Y14543495D01*
X12100688Y14775930D01*
X12140995Y14873000D01*
X19372976Y14873000D01*
X19372857Y14736221D01*
X19498495Y14432154D01*
X19730930Y14199312D01*
X20034778Y14073144D01*
X20363779Y14072857D01*
X20474732Y14118702D01*
X20232978Y13876948D01*
X20022885Y13877131D01*
X19718818Y13751493D01*
X19663310Y13696082D01*
X19656882Y13702521D01*
X19353034Y13828689D01*
X19024033Y13828976D01*
X18719966Y13703338D01*
X18487124Y13470903D01*
X18360956Y13167055D01*
X18360669Y12838054D01*
X18486307Y12533987D01*
X18718742Y12301145D01*
X19022590Y12174977D01*
X19351591Y12174690D01*
X19655658Y12300328D01*
X19711166Y12355739D01*
X19717594Y12349300D01*
X20021442Y12223132D01*
X20350443Y12222845D01*
X20654510Y12348483D01*
X20887352Y12580918D01*
X21013520Y12884766D01*
X21013705Y13096383D01*
X22790322Y14873000D01*
X25750000Y14873000D01*
X25799410Y14883006D01*
X25841035Y14911447D01*
X25861339Y14943000D01*
X26562354Y14943000D01*
X25546314Y13926960D01*
X25336221Y13927143D01*
X25032154Y13801505D01*
X24799312Y13569070D01*
X24673144Y13265222D01*
X24672857Y12936221D01*
X24798495Y12632154D01*
X25030930Y12399312D01*
X25334778Y12273144D01*
X25663779Y12272857D01*
X25967846Y12398495D01*
X26200688Y12630930D01*
X26326856Y12934778D01*
X26327041Y13146395D01*
X27528646Y14348000D01*
X30082508Y14348000D01*
X30230936Y14199312D01*
X30534784Y14073144D01*
X30863785Y14072857D01*
X31167852Y14198495D01*
X31400694Y14430930D01*
X31526862Y14734778D01*
X31527149Y15063779D01*
X31492350Y15148000D01*
X40871354Y15148000D01*
X40948000Y15071354D01*
G36*
X40599312Y20069074D02*
X40473144Y19765226D01*
X40472857Y19436225D01*
X40598495Y19132158D01*
X40748000Y18982391D01*
X40748000Y17128646D01*
X40516365Y16897011D01*
X34427666Y16897011D01*
X36691031Y19160376D01*
X36901124Y19160193D01*
X37205191Y19285831D01*
X37438033Y19518266D01*
X37564201Y19822114D01*
X37564488Y20151115D01*
X37524456Y20248000D01*
X40778551Y20248000D01*
X40599312Y20069074D01*
X40599312Y20069074D01*
G37*
X40599312Y20069074D02*
X40473144Y19765226D01*
X40472857Y19436225D01*
X40598495Y19132158D01*
X40748000Y18982391D01*
X40748000Y17128646D01*
X40516365Y16897011D01*
X34427666Y16897011D01*
X36691031Y19160376D01*
X36901124Y19160193D01*
X37205191Y19285831D01*
X37438033Y19518266D01*
X37564201Y19822114D01*
X37564488Y20151115D01*
X37524456Y20248000D01*
X40778551Y20248000D01*
X40599312Y20069074D01*
G36*
X42123000Y20657646D02*
X41590323Y21190323D01*
X41411242Y21309982D01*
X41200000Y21352000D01*
X36300000Y21352000D01*
X36088759Y21309982D01*
X35909677Y21190323D01*
X32516387Y17797033D01*
X31511183Y17797033D01*
X31526856Y17834778D01*
X31527143Y18163779D01*
X31401505Y18467846D01*
X31169070Y18700688D01*
X30865222Y18826856D01*
X30536221Y18827143D01*
X30232154Y18701505D01*
X30082387Y18552000D01*
X29318963Y18552000D01*
X26534825Y21336138D01*
X26535008Y21546231D01*
X26409370Y21850298D01*
X26176935Y22083140D01*
X25877000Y22207683D01*
X25877000Y22348000D01*
X42123000Y22348000D01*
X42123000Y20657646D01*
X42123000Y20657646D01*
G37*
X42123000Y20657646D02*
X41590323Y21190323D01*
X41411242Y21309982D01*
X41200000Y21352000D01*
X36300000Y21352000D01*
X36088759Y21309982D01*
X35909677Y21190323D01*
X32516387Y17797033D01*
X31511183Y17797033D01*
X31526856Y17834778D01*
X31527143Y18163779D01*
X31401505Y18467846D01*
X31169070Y18700688D01*
X30865222Y18826856D01*
X30536221Y18827143D01*
X30232154Y18701505D01*
X30082387Y18552000D01*
X29318963Y18552000D01*
X26534825Y21336138D01*
X26535008Y21546231D01*
X26409370Y21850298D01*
X26176935Y22083140D01*
X25877000Y22207683D01*
X25877000Y22348000D01*
X42123000Y22348000D01*
X42123000Y20657646D01*
G36*
X42123000Y28446664D02*
X42069070Y28500688D01*
X41765222Y28626856D01*
X41436221Y28627143D01*
X41132154Y28501505D01*
X40899312Y28269070D01*
X40773144Y27965222D01*
X40772857Y27636221D01*
X40898495Y27332154D01*
X41048000Y27182387D01*
X41048000Y24228646D01*
X40871354Y24052000D01*
X31613245Y24052000D01*
X31626856Y24084778D01*
X31627143Y24413779D01*
X31501505Y24717846D01*
X31269070Y24950688D01*
X30965222Y25076856D01*
X30636221Y25077143D01*
X30332154Y24951505D01*
X30182387Y24802000D01*
X29762961Y24802000D01*
X27816960Y26748001D01*
X30394683Y26748001D01*
X30282154Y26701505D01*
X30049312Y26469070D01*
X29923144Y26165222D01*
X29922857Y25836221D01*
X30048495Y25532154D01*
X30280930Y25299312D01*
X30584778Y25173144D01*
X30913779Y25172857D01*
X31217846Y25298495D01*
X31450688Y25530930D01*
X31576856Y25834778D01*
X31577143Y26163779D01*
X31451505Y26467846D01*
X31219070Y26700688D01*
X31105127Y26748001D01*
X35900001Y26748001D01*
X36111243Y26790019D01*
X36235516Y26873056D01*
X36463779Y26872857D01*
X36767846Y26998495D01*
X37000688Y27230930D01*
X37126856Y27534778D01*
X37127143Y27863779D01*
X37001505Y28167846D01*
X36769070Y28400688D01*
X36465222Y28526856D01*
X36136221Y28527143D01*
X35832154Y28401505D01*
X35599312Y28169070D01*
X35473144Y27865222D01*
X35473132Y27852001D01*
X28900961Y27852001D01*
X28976856Y28034778D01*
X28976977Y28172976D01*
X29113779Y28172857D01*
X29350205Y28270546D01*
X29584778Y28173144D01*
X29913779Y28172857D01*
X30150205Y28270546D01*
X30384778Y28173144D01*
X30713779Y28172857D01*
X30950205Y28270546D01*
X31184778Y28173144D01*
X31513779Y28172857D01*
X31750205Y28270546D01*
X31984778Y28173144D01*
X32313779Y28172857D01*
X32617846Y28298495D01*
X32692481Y28373000D01*
X33250000Y28373000D01*
X33299410Y28383006D01*
X33341035Y28411447D01*
X33368315Y28453841D01*
X33377000Y28500330D01*
X33369219Y31498000D01*
X42123000Y31498000D01*
X42123000Y28446664D01*
X42123000Y28446664D01*
G37*
X42123000Y28446664D02*
X42069070Y28500688D01*
X41765222Y28626856D01*
X41436221Y28627143D01*
X41132154Y28501505D01*
X40899312Y28269070D01*
X40773144Y27965222D01*
X40772857Y27636221D01*
X40898495Y27332154D01*
X41048000Y27182387D01*
X41048000Y24228646D01*
X40871354Y24052000D01*
X31613245Y24052000D01*
X31626856Y24084778D01*
X31627143Y24413779D01*
X31501505Y24717846D01*
X31269070Y24950688D01*
X30965222Y25076856D01*
X30636221Y25077143D01*
X30332154Y24951505D01*
X30182387Y24802000D01*
X29762961Y24802000D01*
X27816960Y26748001D01*
X30394683Y26748001D01*
X30282154Y26701505D01*
X30049312Y26469070D01*
X29923144Y26165222D01*
X29922857Y25836221D01*
X30048495Y25532154D01*
X30280930Y25299312D01*
X30584778Y25173144D01*
X30913779Y25172857D01*
X31217846Y25298495D01*
X31450688Y25530930D01*
X31576856Y25834778D01*
X31577143Y26163779D01*
X31451505Y26467846D01*
X31219070Y26700688D01*
X31105127Y26748001D01*
X35900001Y26748001D01*
X36111243Y26790019D01*
X36235516Y26873056D01*
X36463779Y26872857D01*
X36767846Y26998495D01*
X37000688Y27230930D01*
X37126856Y27534778D01*
X37127143Y27863779D01*
X37001505Y28167846D01*
X36769070Y28400688D01*
X36465222Y28526856D01*
X36136221Y28527143D01*
X35832154Y28401505D01*
X35599312Y28169070D01*
X35473144Y27865222D01*
X35473132Y27852001D01*
X28900961Y27852001D01*
X28976856Y28034778D01*
X28976977Y28172976D01*
X29113779Y28172857D01*
X29350205Y28270546D01*
X29584778Y28173144D01*
X29913779Y28172857D01*
X30150205Y28270546D01*
X30384778Y28173144D01*
X30713779Y28172857D01*
X30950205Y28270546D01*
X31184778Y28173144D01*
X31513779Y28172857D01*
X31750205Y28270546D01*
X31984778Y28173144D01*
X32313779Y28172857D01*
X32617846Y28298495D01*
X32692481Y28373000D01*
X33250000Y28373000D01*
X33299410Y28383006D01*
X33341035Y28411447D01*
X33368315Y28453841D01*
X33377000Y28500330D01*
X33369219Y31498000D01*
X42123000Y31498000D01*
X42123000Y28446664D01*
G36*
X24873000Y30877002D02*
X24775015Y30877002D01*
X24563773Y30834984D01*
X24384692Y30715325D01*
X24096327Y30426960D01*
X23886234Y30427143D01*
X23582167Y30301505D01*
X23550154Y30269548D01*
X23519068Y30300688D01*
X23215220Y30426856D01*
X22886219Y30427143D01*
X22582152Y30301505D01*
X22349310Y30069070D01*
X22223142Y29765222D01*
X22222957Y29553605D01*
X19021352Y26352000D01*
X18325790Y26352000D01*
X18445846Y26401606D01*
X18777230Y26732412D01*
X18956795Y27164853D01*
X18957204Y27633093D01*
X18778394Y28065846D01*
X18447588Y28397230D01*
X18015147Y28576795D01*
X17546907Y28577204D01*
X17114154Y28398394D01*
X16782770Y28067588D01*
X16603205Y27635147D01*
X16602796Y27166907D01*
X16781606Y26734154D01*
X17112412Y26402770D01*
X17266950Y26338600D01*
X17123073Y26309982D01*
X16943992Y26190323D01*
X16309677Y25556008D01*
X16190018Y25376927D01*
X16190018Y25376926D01*
X16160860Y25230335D01*
X15999312Y25069070D01*
X15873144Y24765222D01*
X15872857Y24436221D01*
X15998495Y24132154D01*
X16230930Y23899312D01*
X16534778Y23773144D01*
X16863779Y23772857D01*
X17167846Y23898495D01*
X17329840Y24060206D01*
X17267009Y23908891D01*
X17266722Y23579890D01*
X17392360Y23275823D01*
X17624795Y23042981D01*
X17928643Y22916813D01*
X17990143Y22916759D01*
X17990119Y22889440D01*
X18115757Y22585373D01*
X18348192Y22352531D01*
X18652040Y22226363D01*
X18981041Y22226076D01*
X19285108Y22351714D01*
X19517950Y22584149D01*
X19644118Y22887997D01*
X19644405Y23216998D01*
X19518767Y23521065D01*
X19286332Y23753907D01*
X18982484Y23880075D01*
X18920984Y23880129D01*
X18921008Y23907448D01*
X18795370Y24211515D01*
X18562935Y24444357D01*
X18429304Y24499845D01*
X18526856Y24734778D01*
X18527143Y25063779D01*
X18451024Y25248000D01*
X19249998Y25248000D01*
X19461240Y25290018D01*
X19640321Y25409677D01*
X23003684Y28773040D01*
X23213777Y28772857D01*
X23517844Y28898495D01*
X23549857Y28930452D01*
X23580943Y28899312D01*
X23884791Y28773144D01*
X24213792Y28772857D01*
X24517859Y28898495D01*
X24750701Y29130930D01*
X24873000Y29425460D01*
X24873000Y25993372D01*
X24832154Y25976495D01*
X24762478Y25906941D01*
X24569070Y26100688D01*
X24265222Y26226856D01*
X23936221Y26227143D01*
X23632154Y26101505D01*
X23399312Y25869070D01*
X23273144Y25565222D01*
X23272857Y25236221D01*
X23398495Y24932154D01*
X23630930Y24699312D01*
X23934778Y24573144D01*
X24146395Y24572959D01*
X24873000Y23846354D01*
X24873000Y23452000D01*
X24100000Y23452000D01*
X23888758Y23409982D01*
X23709677Y23290323D01*
X22609677Y22190323D01*
X22490018Y22011242D01*
X22480864Y21965222D01*
X22448000Y21800000D01*
X22448000Y20852558D01*
X22333101Y20967658D01*
X22029253Y21093826D01*
X21700252Y21094113D01*
X21396185Y20968475D01*
X21163343Y20736040D01*
X21037175Y20432192D01*
X21036888Y20103191D01*
X21162526Y19799124D01*
X21394961Y19566282D01*
X21698809Y19440114D01*
X22027810Y19439827D01*
X22291604Y19548824D01*
X22298495Y19532146D01*
X22530930Y19299304D01*
X22834778Y19173136D01*
X23163779Y19172849D01*
X23467846Y19298487D01*
X23700688Y19530922D01*
X23826856Y19834770D01*
X23827143Y20163771D01*
X23701505Y20467838D01*
X23552000Y20617605D01*
X23552000Y21571354D01*
X23725707Y21745061D01*
X23685965Y21649351D01*
X23685678Y21320350D01*
X23811316Y21016283D01*
X23973720Y20853594D01*
X24002839Y20707202D01*
X24122498Y20528121D01*
X24259943Y20390676D01*
X24259943Y20049154D01*
X24301961Y19837912D01*
X24421620Y19658831D01*
X24636943Y19443508D01*
X24636943Y16783044D01*
X24678961Y16571802D01*
X24798620Y16392721D01*
X24873000Y16318341D01*
X24873000Y16047000D01*
X22631676Y16047000D01*
X22420434Y16004982D01*
X22241353Y15885323D01*
X21983030Y15627000D01*
X20605703Y15627000D01*
X20365222Y15726856D01*
X20036221Y15727143D01*
X19793857Y15627000D01*
X15127000Y15627000D01*
X15127000Y16666279D01*
X15425394Y16542376D01*
X15754395Y16542089D01*
X16058462Y16667727D01*
X16291304Y16900162D01*
X16417472Y17204010D01*
X16417582Y17331221D01*
X16422857Y17331221D01*
X16548495Y17027154D01*
X16780930Y16794312D01*
X17084778Y16668144D01*
X17413779Y16667857D01*
X17717846Y16793495D01*
X17950688Y17025930D01*
X18076856Y17329778D01*
X18077101Y17611555D01*
X19093226Y17611555D01*
X19218864Y17307488D01*
X19451299Y17074646D01*
X19755147Y16948478D01*
X20084148Y16948191D01*
X20388215Y17073829D01*
X20621057Y17306264D01*
X20747225Y17610112D01*
X20747512Y17939113D01*
X20621874Y18243180D01*
X20389439Y18476022D01*
X20085591Y18602190D01*
X19756590Y18602477D01*
X19452523Y18476839D01*
X19219681Y18244404D01*
X19093513Y17940556D01*
X19093226Y17611555D01*
X18077101Y17611555D01*
X18077143Y17658779D01*
X17951505Y17962846D01*
X17719070Y18195688D01*
X17415222Y18321856D01*
X17086221Y18322143D01*
X16782154Y18196505D01*
X16549312Y17964070D01*
X16423144Y17660222D01*
X16422857Y17331221D01*
X16417582Y17331221D01*
X16417759Y17533011D01*
X16292121Y17837078D01*
X16059686Y18069920D01*
X15755838Y18196088D01*
X15426837Y18196375D01*
X15122770Y18070737D01*
X14889928Y17838302D01*
X14763760Y17534454D01*
X14763473Y17205453D01*
X14795889Y17127000D01*
X14540699Y17127000D01*
X12971917Y18247559D01*
X13200688Y18475930D01*
X13326856Y18779778D01*
X13327143Y19108779D01*
X13317257Y19132706D01*
X13490457Y19060787D01*
X13819458Y19060500D01*
X14123525Y19186138D01*
X14356367Y19418573D01*
X14482535Y19722421D01*
X14482765Y19986221D01*
X16647867Y19986221D01*
X16773505Y19682154D01*
X17005940Y19449312D01*
X17309788Y19323144D01*
X17638789Y19322857D01*
X17942856Y19448495D01*
X18175698Y19680930D01*
X18301866Y19984778D01*
X18302153Y20313779D01*
X18220990Y20510209D01*
X18223389Y20509213D01*
X18552390Y20508926D01*
X18856457Y20634564D01*
X19089299Y20866999D01*
X19215467Y21170847D01*
X19215754Y21499848D01*
X19090116Y21803915D01*
X18857681Y22036757D01*
X18553833Y22162925D01*
X18246086Y22163193D01*
X18184871Y22311345D01*
X17952436Y22544187D01*
X17648588Y22670355D01*
X17319587Y22670642D01*
X17015520Y22545004D01*
X16782678Y22312569D01*
X16656510Y22008721D01*
X16656223Y21679720D01*
X16781861Y21375653D01*
X17014296Y21142811D01*
X17318144Y21016643D01*
X17625891Y21016375D01*
X17642631Y20975860D01*
X17640232Y20976856D01*
X17311231Y20977143D01*
X17007164Y20851505D01*
X16774322Y20619070D01*
X16648154Y20315222D01*
X16647867Y19986221D01*
X14482765Y19986221D01*
X14482822Y20051422D01*
X14357184Y20355489D01*
X14124749Y20588331D01*
X13820901Y20714499D01*
X13491900Y20714786D01*
X13187833Y20589148D01*
X12970248Y20371943D01*
X12936035Y20454745D01*
X12703600Y20687587D01*
X12399752Y20813755D01*
X12070751Y20814042D01*
X11766684Y20688404D01*
X11533842Y20455969D01*
X11504316Y20384861D01*
X11415222Y20421856D01*
X11086221Y20422143D01*
X10842864Y20321590D01*
X10669070Y20495688D01*
X10365222Y20621856D01*
X10036221Y20622143D01*
X9732154Y20496505D01*
X9675105Y20439555D01*
X9619070Y20495688D01*
X9315222Y20621856D01*
X8986221Y20622143D01*
X8682154Y20496505D01*
X8600061Y20414555D01*
X8519070Y20495688D01*
X8215222Y20621856D01*
X7886221Y20622143D01*
X7582154Y20496505D01*
X7499930Y20414424D01*
X7269070Y20645688D01*
X6965222Y20771856D01*
X6636221Y20772143D01*
X6332154Y20646505D01*
X6099312Y20414070D01*
X5973144Y20110222D01*
X5972977Y19918636D01*
X5965222Y19921856D01*
X5636221Y19922143D01*
X5332154Y19796505D01*
X5099312Y19564070D01*
X4973144Y19260222D01*
X4972857Y18931221D01*
X5098495Y18627154D01*
X5202945Y18522521D01*
X5099312Y18419070D01*
X4973144Y18115222D01*
X4972857Y17786221D01*
X5098495Y17482154D01*
X5280445Y17299886D01*
X5099312Y17119070D01*
X4973144Y16815222D01*
X4972857Y16486221D01*
X5098495Y16182154D01*
X5132988Y16147600D01*
X5049312Y16064070D01*
X4923144Y15760222D01*
X4922857Y15431221D01*
X5048495Y15127154D01*
X5280930Y14894312D01*
X5423118Y14835271D01*
X5422857Y14536221D01*
X5548495Y14232154D01*
X5780930Y13999312D01*
X6084778Y13873144D01*
X6413779Y13872857D01*
X6717846Y13998495D01*
X6950688Y14230930D01*
X7029996Y14421925D01*
X7048495Y14377154D01*
X7280930Y14144312D01*
X7584778Y14018144D01*
X7913779Y14017857D01*
X8217846Y14143495D01*
X8375027Y14300401D01*
X8480930Y14194312D01*
X8784778Y14068144D01*
X9113779Y14067857D01*
X9373000Y14174965D01*
X9373000Y11500000D01*
X9383006Y11450590D01*
X9411447Y11408965D01*
X9453841Y11381685D01*
X9500000Y11373000D01*
X13621943Y11373000D01*
X13745404Y11249323D01*
X14049252Y11123155D01*
X14378253Y11122868D01*
X14682320Y11248506D01*
X14752165Y11318229D01*
X15051754Y11018640D01*
X15051526Y11018546D01*
X14818684Y10786111D01*
X14692516Y10482263D01*
X14692229Y10153262D01*
X14817867Y9849195D01*
X15050302Y9616353D01*
X15354150Y9490185D01*
X15683151Y9489898D01*
X15987218Y9615536D01*
X16220060Y9847971D01*
X16346228Y10151819D01*
X16346421Y10373000D01*
X23938961Y10373000D01*
X24029215Y10260183D01*
X23808421Y10351864D01*
X23479420Y10352151D01*
X23175353Y10226513D01*
X22942511Y9994078D01*
X22816343Y9690230D01*
X22816056Y9361229D01*
X22865912Y9240569D01*
X22635734Y9010793D01*
X22509566Y8706945D01*
X22509279Y8377944D01*
X22634917Y8073877D01*
X22867352Y7841035D01*
X23171200Y7714867D01*
X23500201Y7714580D01*
X23596119Y7754212D01*
X23818299Y7531643D01*
X24122147Y7405475D01*
X24333764Y7405290D01*
X24529377Y7209677D01*
X24708458Y7090018D01*
X24873000Y7057289D01*
X24873000Y2953646D01*
X24871354Y2952000D01*
X24417498Y2952000D01*
X24269070Y3100688D01*
X23965222Y3226856D01*
X23636221Y3227143D01*
X23332154Y3101505D01*
X23099312Y2869070D01*
X22973144Y2565222D01*
X22972857Y2236221D01*
X23098495Y1932154D01*
X23330930Y1699312D01*
X23634778Y1573144D01*
X23963779Y1572857D01*
X24267846Y1698495D01*
X24417613Y1848000D01*
X24873000Y1848000D01*
X24873000Y502000D01*
X5202244Y502000D01*
X5615392Y914427D01*
X6176361Y2265391D01*
X6176783Y2750000D01*
X6434635Y2750000D01*
X6434635Y1250000D01*
X6464409Y1091763D01*
X6557927Y946433D01*
X6700619Y848936D01*
X6870000Y814635D01*
X8370000Y814635D01*
X8528237Y844409D01*
X8673567Y937927D01*
X8771064Y1080619D01*
X8805365Y1250000D01*
X8805365Y1766907D01*
X8982796Y1766907D01*
X9161606Y1334154D01*
X9492412Y1002770D01*
X9924853Y823205D01*
X10393093Y822796D01*
X10825846Y1001606D01*
X11157230Y1332412D01*
X11336795Y1764853D01*
X11336796Y1766907D01*
X11522796Y1766907D01*
X11701606Y1334154D01*
X12032412Y1002770D01*
X12464853Y823205D01*
X12933093Y822796D01*
X13365846Y1001606D01*
X13697230Y1332412D01*
X13876795Y1764853D01*
X13876796Y1766907D01*
X14062796Y1766907D01*
X14241606Y1334154D01*
X14572412Y1002770D01*
X15004853Y823205D01*
X15473093Y822796D01*
X15905846Y1001606D01*
X16237230Y1332412D01*
X16416795Y1764853D01*
X16416796Y1766907D01*
X16602796Y1766907D01*
X16781606Y1334154D01*
X17112412Y1002770D01*
X17544853Y823205D01*
X18013093Y822796D01*
X18445846Y1001606D01*
X18777230Y1332412D01*
X18956795Y1764853D01*
X18957204Y2233093D01*
X18778394Y2665846D01*
X18447588Y2997230D01*
X18015147Y3176795D01*
X17546907Y3177204D01*
X17114154Y2998394D01*
X16782770Y2667588D01*
X16603205Y2235147D01*
X16602796Y1766907D01*
X16416796Y1766907D01*
X16417204Y2233093D01*
X16238394Y2665846D01*
X15907588Y2997230D01*
X15475147Y3176795D01*
X15006907Y3177204D01*
X14574154Y2998394D01*
X14242770Y2667588D01*
X14063205Y2235147D01*
X14062796Y1766907D01*
X13876796Y1766907D01*
X13877204Y2233093D01*
X13698394Y2665846D01*
X13367588Y2997230D01*
X12935147Y3176795D01*
X12466907Y3177204D01*
X12034154Y2998394D01*
X11702770Y2667588D01*
X11523205Y2235147D01*
X11522796Y1766907D01*
X11336796Y1766907D01*
X11337204Y2233093D01*
X11158394Y2665846D01*
X10827588Y2997230D01*
X10395147Y3176795D01*
X9926907Y3177204D01*
X9494154Y2998394D01*
X9162770Y2667588D01*
X8983205Y2235147D01*
X8982796Y1766907D01*
X8805365Y1766907D01*
X8805365Y2750000D01*
X8775591Y2908237D01*
X8682073Y3053567D01*
X8539381Y3151064D01*
X8370000Y3185365D01*
X6870000Y3185365D01*
X6711763Y3155591D01*
X6566433Y3062073D01*
X6468936Y2919381D01*
X6434635Y2750000D01*
X6176783Y2750000D01*
X6177637Y3728192D01*
X5885082Y4436231D01*
X6872857Y4436231D01*
X6998495Y4132164D01*
X7230930Y3899322D01*
X7534778Y3773154D01*
X7863779Y3772867D01*
X8167846Y3898505D01*
X8400688Y4130940D01*
X8526856Y4434788D01*
X8526857Y4436221D01*
X11772857Y4436221D01*
X11898495Y4132154D01*
X12130930Y3899312D01*
X12434778Y3773144D01*
X12763779Y3772857D01*
X13067846Y3898495D01*
X13300688Y4130930D01*
X13426856Y4434778D01*
X13427143Y4763779D01*
X13301505Y5067846D01*
X13069070Y5300688D01*
X13059107Y5304825D01*
X19816780Y5304825D01*
X19942418Y5000758D01*
X20174853Y4767916D01*
X20478701Y4641748D01*
X20807702Y4641461D01*
X21111769Y4767099D01*
X21322225Y4977187D01*
X21479845Y4819291D01*
X21783693Y4693123D01*
X22112694Y4692836D01*
X22416761Y4818474D01*
X22649603Y5050909D01*
X22775771Y5354757D01*
X22776058Y5683758D01*
X22650420Y5987825D01*
X22417985Y6220667D01*
X22114137Y6346835D01*
X21785136Y6347122D01*
X21481069Y6221484D01*
X21270613Y6011396D01*
X21112993Y6169292D01*
X20809145Y6295460D01*
X20480144Y6295747D01*
X20176077Y6170109D01*
X19943235Y5937674D01*
X19817067Y5633826D01*
X19816780Y5304825D01*
X13059107Y5304825D01*
X12765222Y5426856D01*
X12436221Y5427143D01*
X12132154Y5301505D01*
X11899312Y5069070D01*
X11773144Y4765222D01*
X11772857Y4436221D01*
X8526857Y4436221D01*
X8527143Y4763789D01*
X8401505Y5067856D01*
X8169070Y5300698D01*
X7865222Y5426866D01*
X7536221Y5427153D01*
X7232154Y5301515D01*
X6999312Y5069080D01*
X6873144Y4765232D01*
X6872857Y4436231D01*
X5885082Y4436231D01*
X5619027Y5080132D01*
X4585573Y6115392D01*
X3234609Y6676361D01*
X1771808Y6677637D01*
X502000Y6152963D01*
X502000Y7131221D01*
X19122857Y7131221D01*
X19248495Y6827154D01*
X19480930Y6594312D01*
X19784778Y6468144D01*
X20113779Y6467857D01*
X20417846Y6593495D01*
X20502527Y6678028D01*
X20680930Y6499312D01*
X20984778Y6373144D01*
X21313779Y6372857D01*
X21617846Y6498495D01*
X21850688Y6730930D01*
X21976856Y7034778D01*
X21977143Y7363779D01*
X21851505Y7667846D01*
X21619070Y7900688D01*
X21315222Y8026856D01*
X20986221Y8027143D01*
X20682154Y7901505D01*
X20597473Y7816972D01*
X20419070Y7995688D01*
X20115222Y8121856D01*
X19786221Y8122143D01*
X19482154Y7996505D01*
X19249312Y7764070D01*
X19123144Y7460222D01*
X19122857Y7131221D01*
X502000Y7131221D01*
X502000Y8036221D01*
X1172857Y8036221D01*
X1298495Y7732154D01*
X1530930Y7499312D01*
X1834778Y7373144D01*
X2163779Y7372857D01*
X2467846Y7498495D01*
X2700688Y7730930D01*
X2826856Y8034778D01*
X2827143Y8363779D01*
X2701505Y8667846D01*
X2533425Y8836221D01*
X11922857Y8836221D01*
X12048495Y8532154D01*
X12280930Y8299312D01*
X12584778Y8173144D01*
X12913779Y8172857D01*
X13217846Y8298495D01*
X13450688Y8530930D01*
X13576856Y8834778D01*
X13577143Y9163779D01*
X13451505Y9467846D01*
X13219070Y9700688D01*
X12915222Y9826856D01*
X12586221Y9827143D01*
X12282154Y9701505D01*
X12049312Y9469070D01*
X11923144Y9165222D01*
X11922857Y8836221D01*
X2533425Y8836221D01*
X2469070Y8900688D01*
X2165222Y9026856D01*
X1836221Y9027143D01*
X1532154Y8901505D01*
X1299312Y8669070D01*
X1173144Y8365222D01*
X1172857Y8036221D01*
X502000Y8036221D01*
X502000Y12336221D01*
X1172857Y12336221D01*
X1298495Y12032154D01*
X1530930Y11799312D01*
X1834778Y11673144D01*
X2163779Y11672857D01*
X2467846Y11798495D01*
X2700688Y12030930D01*
X2826856Y12334778D01*
X2827143Y12663779D01*
X2755892Y12836221D01*
X5622857Y12836221D01*
X5748495Y12532154D01*
X5980930Y12299312D01*
X6284778Y12173144D01*
X6613779Y12172857D01*
X6917846Y12298495D01*
X7150688Y12530930D01*
X7276856Y12834778D01*
X7277143Y13163779D01*
X7151505Y13467846D01*
X6919070Y13700688D01*
X6615222Y13826856D01*
X6286221Y13827143D01*
X5982154Y13701505D01*
X5749312Y13469070D01*
X5623144Y13165222D01*
X5622857Y12836221D01*
X2755892Y12836221D01*
X2701505Y12967846D01*
X2469070Y13200688D01*
X2165222Y13326856D01*
X1836221Y13327143D01*
X1532154Y13201505D01*
X1299312Y12969070D01*
X1173144Y12665222D01*
X1172857Y12336221D01*
X502000Y12336221D01*
X502000Y14386221D01*
X3272857Y14386221D01*
X3398495Y14082154D01*
X3630930Y13849312D01*
X3934778Y13723144D01*
X4263779Y13722857D01*
X4567846Y13848495D01*
X4800688Y14080930D01*
X4926856Y14384778D01*
X4927143Y14713779D01*
X4801505Y15017846D01*
X4569070Y15250688D01*
X4265222Y15376856D01*
X3936221Y15377143D01*
X3632154Y15251505D01*
X3399312Y15019070D01*
X3273144Y14715222D01*
X3272857Y14386221D01*
X502000Y14386221D01*
X502000Y21636221D01*
X972857Y21636221D01*
X1098495Y21332154D01*
X1330930Y21099312D01*
X1634778Y20973144D01*
X1963779Y20972857D01*
X2267846Y21098495D01*
X2500688Y21330930D01*
X2575546Y21511211D01*
X12672857Y21511211D01*
X12798495Y21207144D01*
X13030930Y20974302D01*
X13334778Y20848134D01*
X13663779Y20847847D01*
X13967846Y20973485D01*
X14200688Y21205920D01*
X14326856Y21509768D01*
X14327143Y21838769D01*
X14201505Y22142836D01*
X13969070Y22375678D01*
X13665222Y22501846D01*
X13336221Y22502133D01*
X13032154Y22376495D01*
X12799312Y22144060D01*
X12673144Y21840212D01*
X12672857Y21511211D01*
X2575546Y21511211D01*
X2626856Y21634778D01*
X2627143Y21963779D01*
X2501505Y22267846D01*
X2269070Y22500688D01*
X1965222Y22626856D01*
X1636221Y22627143D01*
X1332154Y22501505D01*
X1099312Y22269070D01*
X973144Y21965222D01*
X972857Y21636221D01*
X502000Y21636221D01*
X502000Y23436221D01*
X4172857Y23436221D01*
X4298495Y23132154D01*
X4530930Y22899312D01*
X4834778Y22773144D01*
X5163779Y22772857D01*
X5467846Y22898495D01*
X5700688Y23130930D01*
X5826856Y23434778D01*
X5827143Y23763779D01*
X5701505Y24067846D01*
X5469070Y24300688D01*
X5165222Y24426856D01*
X4836221Y24427143D01*
X4532154Y24301505D01*
X4299312Y24069070D01*
X4173144Y23765222D01*
X4172857Y23436221D01*
X502000Y23436221D01*
X502000Y26297756D01*
X914427Y25884608D01*
X1480226Y25649668D01*
X1299312Y25469070D01*
X1173144Y25165222D01*
X1172857Y24836221D01*
X1298495Y24532154D01*
X1530930Y24299312D01*
X1834778Y24173144D01*
X2163779Y24172857D01*
X2467846Y24298495D01*
X2700688Y24530930D01*
X2826856Y24834778D01*
X2826944Y24936221D01*
X9922857Y24936221D01*
X10048495Y24632154D01*
X10280930Y24399312D01*
X10584778Y24273144D01*
X10913779Y24272857D01*
X11217846Y24398495D01*
X11450688Y24630930D01*
X11576856Y24934778D01*
X11577143Y25263779D01*
X11451505Y25567846D01*
X11219070Y25800688D01*
X10915222Y25926856D01*
X10586221Y25927143D01*
X10282154Y25801505D01*
X10049312Y25569070D01*
X9923144Y25265222D01*
X9922857Y24936221D01*
X2826944Y24936221D01*
X2827143Y25163779D01*
X2761269Y25323206D01*
X3728192Y25322363D01*
X5080132Y25880973D01*
X6115392Y26914427D01*
X6434635Y27683250D01*
X6434635Y26650000D01*
X6464409Y26491763D01*
X6557927Y26346433D01*
X6700619Y26248936D01*
X6870000Y26214635D01*
X8370000Y26214635D01*
X8528237Y26244409D01*
X8673567Y26337927D01*
X8771064Y26480619D01*
X8805365Y26650000D01*
X8805365Y27166907D01*
X8982796Y27166907D01*
X9161606Y26734154D01*
X9492412Y26402770D01*
X9924853Y26223205D01*
X10393093Y26222796D01*
X10825846Y26401606D01*
X11157230Y26732412D01*
X11336795Y27164853D01*
X11336796Y27166907D01*
X11522796Y27166907D01*
X11701606Y26734154D01*
X12032412Y26402770D01*
X12464853Y26223205D01*
X12933093Y26222796D01*
X13365846Y26401606D01*
X13506830Y26542345D01*
X14561950Y26542345D01*
X14641329Y26359935D01*
X15084916Y26210004D01*
X15552113Y26241239D01*
X15838671Y26359935D01*
X15918050Y26542345D01*
X15240000Y27220395D01*
X14561950Y26542345D01*
X13506830Y26542345D01*
X13697230Y26732412D01*
X13876795Y27164853D01*
X13877135Y27555084D01*
X14050004Y27555084D01*
X14081239Y27087887D01*
X14199935Y26801329D01*
X14382345Y26721950D01*
X15060395Y27400000D01*
X15419605Y27400000D01*
X16097655Y26721950D01*
X16280065Y26801329D01*
X16429996Y27244916D01*
X16398761Y27712113D01*
X16280065Y27998671D01*
X16097655Y28078050D01*
X15419605Y27400000D01*
X15060395Y27400000D01*
X14382345Y28078050D01*
X14199935Y27998671D01*
X14050004Y27555084D01*
X13877135Y27555084D01*
X13877204Y27633093D01*
X13698394Y28065846D01*
X13506920Y28257655D01*
X14561950Y28257655D01*
X15240000Y27579605D01*
X15918050Y28257655D01*
X15838671Y28440065D01*
X15395084Y28589996D01*
X14927887Y28558761D01*
X14641329Y28440065D01*
X14561950Y28257655D01*
X13506920Y28257655D01*
X13367588Y28397230D01*
X12935147Y28576795D01*
X12466907Y28577204D01*
X12034154Y28398394D01*
X11702770Y28067588D01*
X11523205Y27635147D01*
X11522796Y27166907D01*
X11336796Y27166907D01*
X11337204Y27633093D01*
X11158394Y28065846D01*
X10827588Y28397230D01*
X10395147Y28576795D01*
X9926907Y28577204D01*
X9494154Y28398394D01*
X9162770Y28067588D01*
X8983205Y27635147D01*
X8982796Y27166907D01*
X8805365Y27166907D01*
X8805365Y28150000D01*
X8775591Y28308237D01*
X8682073Y28453567D01*
X8539381Y28551064D01*
X8370000Y28585365D01*
X6870000Y28585365D01*
X6711763Y28555591D01*
X6676594Y28532960D01*
X6676834Y28807831D01*
X6785065Y28763000D01*
X7386250Y28763000D01*
X7493000Y28869750D01*
X7493000Y29813000D01*
X7747000Y29813000D01*
X7747000Y28869750D01*
X7853750Y28763000D01*
X8454935Y28763000D01*
X8611876Y28828007D01*
X8731993Y28948124D01*
X8797000Y29105064D01*
X8797000Y29706250D01*
X8796343Y29706907D01*
X8982796Y29706907D01*
X9161606Y29274154D01*
X9492412Y28942770D01*
X9924853Y28763205D01*
X10393093Y28762796D01*
X10825846Y28941606D01*
X11157230Y29272412D01*
X11336795Y29704853D01*
X11336796Y29706907D01*
X11522796Y29706907D01*
X11701606Y29274154D01*
X12032412Y28942770D01*
X12464853Y28763205D01*
X12933093Y28762796D01*
X13365846Y28941606D01*
X13697230Y29272412D01*
X13876795Y29704853D01*
X13876796Y29706907D01*
X14062796Y29706907D01*
X14241606Y29274154D01*
X14572412Y28942770D01*
X15004853Y28763205D01*
X15473093Y28762796D01*
X15905846Y28941606D01*
X16237230Y29272412D01*
X16416795Y29704853D01*
X16416796Y29706907D01*
X16602796Y29706907D01*
X16781606Y29274154D01*
X17112412Y28942770D01*
X17544853Y28763205D01*
X18013093Y28762796D01*
X18445846Y28941606D01*
X18777230Y29272412D01*
X18956795Y29704853D01*
X18956796Y29706907D01*
X19142796Y29706907D01*
X19321606Y29274154D01*
X19652412Y28942770D01*
X20084853Y28763205D01*
X20553093Y28762796D01*
X20985846Y28941606D01*
X21317230Y29272412D01*
X21496795Y29704853D01*
X21497204Y30173093D01*
X21318394Y30605846D01*
X20987588Y30937230D01*
X20555147Y31116795D01*
X20086907Y31117204D01*
X19654154Y30938394D01*
X19322770Y30607588D01*
X19143205Y30175147D01*
X19142796Y29706907D01*
X18956796Y29706907D01*
X18957204Y30173093D01*
X18778394Y30605846D01*
X18447588Y30937230D01*
X18015147Y31116795D01*
X17546907Y31117204D01*
X17114154Y30938394D01*
X16782770Y30607588D01*
X16603205Y30175147D01*
X16602796Y29706907D01*
X16416796Y29706907D01*
X16417204Y30173093D01*
X16238394Y30605846D01*
X15907588Y30937230D01*
X15475147Y31116795D01*
X15006907Y31117204D01*
X14574154Y30938394D01*
X14242770Y30607588D01*
X14063205Y30175147D01*
X14062796Y29706907D01*
X13876796Y29706907D01*
X13877204Y30173093D01*
X13698394Y30605846D01*
X13367588Y30937230D01*
X12935147Y31116795D01*
X12466907Y31117204D01*
X12034154Y30938394D01*
X11702770Y30607588D01*
X11523205Y30175147D01*
X11522796Y29706907D01*
X11336796Y29706907D01*
X11337204Y30173093D01*
X11158394Y30605846D01*
X10827588Y30937230D01*
X10395147Y31116795D01*
X9926907Y31117204D01*
X9494154Y30938394D01*
X9162770Y30607588D01*
X8983205Y30175147D01*
X8982796Y29706907D01*
X8796343Y29706907D01*
X8690250Y29813000D01*
X7747000Y29813000D01*
X7493000Y29813000D01*
X7473000Y29813000D01*
X7473000Y30067000D01*
X7493000Y30067000D01*
X7493000Y31010250D01*
X7747000Y31010250D01*
X7747000Y30067000D01*
X8690250Y30067000D01*
X8797000Y30173750D01*
X8797000Y30774936D01*
X8731993Y30931876D01*
X8611876Y31051993D01*
X8454935Y31117000D01*
X7853750Y31117000D01*
X7747000Y31010250D01*
X7493000Y31010250D01*
X7386250Y31117000D01*
X6785065Y31117000D01*
X6628124Y31051993D01*
X6508007Y30931876D01*
X6443000Y30774936D01*
X6443000Y30296057D01*
X6119027Y31080132D01*
X5701888Y31498000D01*
X24873000Y31498000D01*
X24873000Y30877002D01*
X24873000Y30877002D01*
G37*
X24873000Y30877002D02*
X24775015Y30877002D01*
X24563773Y30834984D01*
X24384692Y30715325D01*
X24096327Y30426960D01*
X23886234Y30427143D01*
X23582167Y30301505D01*
X23550154Y30269548D01*
X23519068Y30300688D01*
X23215220Y30426856D01*
X22886219Y30427143D01*
X22582152Y30301505D01*
X22349310Y30069070D01*
X22223142Y29765222D01*
X22222957Y29553605D01*
X19021352Y26352000D01*
X18325790Y26352000D01*
X18445846Y26401606D01*
X18777230Y26732412D01*
X18956795Y27164853D01*
X18957204Y27633093D01*
X18778394Y28065846D01*
X18447588Y28397230D01*
X18015147Y28576795D01*
X17546907Y28577204D01*
X17114154Y28398394D01*
X16782770Y28067588D01*
X16603205Y27635147D01*
X16602796Y27166907D01*
X16781606Y26734154D01*
X17112412Y26402770D01*
X17266950Y26338600D01*
X17123073Y26309982D01*
X16943992Y26190323D01*
X16309677Y25556008D01*
X16190018Y25376927D01*
X16190018Y25376926D01*
X16160860Y25230335D01*
X15999312Y25069070D01*
X15873144Y24765222D01*
X15872857Y24436221D01*
X15998495Y24132154D01*
X16230930Y23899312D01*
X16534778Y23773144D01*
X16863779Y23772857D01*
X17167846Y23898495D01*
X17329840Y24060206D01*
X17267009Y23908891D01*
X17266722Y23579890D01*
X17392360Y23275823D01*
X17624795Y23042981D01*
X17928643Y22916813D01*
X17990143Y22916759D01*
X17990119Y22889440D01*
X18115757Y22585373D01*
X18348192Y22352531D01*
X18652040Y22226363D01*
X18981041Y22226076D01*
X19285108Y22351714D01*
X19517950Y22584149D01*
X19644118Y22887997D01*
X19644405Y23216998D01*
X19518767Y23521065D01*
X19286332Y23753907D01*
X18982484Y23880075D01*
X18920984Y23880129D01*
X18921008Y23907448D01*
X18795370Y24211515D01*
X18562935Y24444357D01*
X18429304Y24499845D01*
X18526856Y24734778D01*
X18527143Y25063779D01*
X18451024Y25248000D01*
X19249998Y25248000D01*
X19461240Y25290018D01*
X19640321Y25409677D01*
X23003684Y28773040D01*
X23213777Y28772857D01*
X23517844Y28898495D01*
X23549857Y28930452D01*
X23580943Y28899312D01*
X23884791Y28773144D01*
X24213792Y28772857D01*
X24517859Y28898495D01*
X24750701Y29130930D01*
X24873000Y29425460D01*
X24873000Y25993372D01*
X24832154Y25976495D01*
X24762478Y25906941D01*
X24569070Y26100688D01*
X24265222Y26226856D01*
X23936221Y26227143D01*
X23632154Y26101505D01*
X23399312Y25869070D01*
X23273144Y25565222D01*
X23272857Y25236221D01*
X23398495Y24932154D01*
X23630930Y24699312D01*
X23934778Y24573144D01*
X24146395Y24572959D01*
X24873000Y23846354D01*
X24873000Y23452000D01*
X24100000Y23452000D01*
X23888758Y23409982D01*
X23709677Y23290323D01*
X22609677Y22190323D01*
X22490018Y22011242D01*
X22480864Y21965222D01*
X22448000Y21800000D01*
X22448000Y20852558D01*
X22333101Y20967658D01*
X22029253Y21093826D01*
X21700252Y21094113D01*
X21396185Y20968475D01*
X21163343Y20736040D01*
X21037175Y20432192D01*
X21036888Y20103191D01*
X21162526Y19799124D01*
X21394961Y19566282D01*
X21698809Y19440114D01*
X22027810Y19439827D01*
X22291604Y19548824D01*
X22298495Y19532146D01*
X22530930Y19299304D01*
X22834778Y19173136D01*
X23163779Y19172849D01*
X23467846Y19298487D01*
X23700688Y19530922D01*
X23826856Y19834770D01*
X23827143Y20163771D01*
X23701505Y20467838D01*
X23552000Y20617605D01*
X23552000Y21571354D01*
X23725707Y21745061D01*
X23685965Y21649351D01*
X23685678Y21320350D01*
X23811316Y21016283D01*
X23973720Y20853594D01*
X24002839Y20707202D01*
X24122498Y20528121D01*
X24259943Y20390676D01*
X24259943Y20049154D01*
X24301961Y19837912D01*
X24421620Y19658831D01*
X24636943Y19443508D01*
X24636943Y16783044D01*
X24678961Y16571802D01*
X24798620Y16392721D01*
X24873000Y16318341D01*
X24873000Y16047000D01*
X22631676Y16047000D01*
X22420434Y16004982D01*
X22241353Y15885323D01*
X21983030Y15627000D01*
X20605703Y15627000D01*
X20365222Y15726856D01*
X20036221Y15727143D01*
X19793857Y15627000D01*
X15127000Y15627000D01*
X15127000Y16666279D01*
X15425394Y16542376D01*
X15754395Y16542089D01*
X16058462Y16667727D01*
X16291304Y16900162D01*
X16417472Y17204010D01*
X16417582Y17331221D01*
X16422857Y17331221D01*
X16548495Y17027154D01*
X16780930Y16794312D01*
X17084778Y16668144D01*
X17413779Y16667857D01*
X17717846Y16793495D01*
X17950688Y17025930D01*
X18076856Y17329778D01*
X18077101Y17611555D01*
X19093226Y17611555D01*
X19218864Y17307488D01*
X19451299Y17074646D01*
X19755147Y16948478D01*
X20084148Y16948191D01*
X20388215Y17073829D01*
X20621057Y17306264D01*
X20747225Y17610112D01*
X20747512Y17939113D01*
X20621874Y18243180D01*
X20389439Y18476022D01*
X20085591Y18602190D01*
X19756590Y18602477D01*
X19452523Y18476839D01*
X19219681Y18244404D01*
X19093513Y17940556D01*
X19093226Y17611555D01*
X18077101Y17611555D01*
X18077143Y17658779D01*
X17951505Y17962846D01*
X17719070Y18195688D01*
X17415222Y18321856D01*
X17086221Y18322143D01*
X16782154Y18196505D01*
X16549312Y17964070D01*
X16423144Y17660222D01*
X16422857Y17331221D01*
X16417582Y17331221D01*
X16417759Y17533011D01*
X16292121Y17837078D01*
X16059686Y18069920D01*
X15755838Y18196088D01*
X15426837Y18196375D01*
X15122770Y18070737D01*
X14889928Y17838302D01*
X14763760Y17534454D01*
X14763473Y17205453D01*
X14795889Y17127000D01*
X14540699Y17127000D01*
X12971917Y18247559D01*
X13200688Y18475930D01*
X13326856Y18779778D01*
X13327143Y19108779D01*
X13317257Y19132706D01*
X13490457Y19060787D01*
X13819458Y19060500D01*
X14123525Y19186138D01*
X14356367Y19418573D01*
X14482535Y19722421D01*
X14482765Y19986221D01*
X16647867Y19986221D01*
X16773505Y19682154D01*
X17005940Y19449312D01*
X17309788Y19323144D01*
X17638789Y19322857D01*
X17942856Y19448495D01*
X18175698Y19680930D01*
X18301866Y19984778D01*
X18302153Y20313779D01*
X18220990Y20510209D01*
X18223389Y20509213D01*
X18552390Y20508926D01*
X18856457Y20634564D01*
X19089299Y20866999D01*
X19215467Y21170847D01*
X19215754Y21499848D01*
X19090116Y21803915D01*
X18857681Y22036757D01*
X18553833Y22162925D01*
X18246086Y22163193D01*
X18184871Y22311345D01*
X17952436Y22544187D01*
X17648588Y22670355D01*
X17319587Y22670642D01*
X17015520Y22545004D01*
X16782678Y22312569D01*
X16656510Y22008721D01*
X16656223Y21679720D01*
X16781861Y21375653D01*
X17014296Y21142811D01*
X17318144Y21016643D01*
X17625891Y21016375D01*
X17642631Y20975860D01*
X17640232Y20976856D01*
X17311231Y20977143D01*
X17007164Y20851505D01*
X16774322Y20619070D01*
X16648154Y20315222D01*
X16647867Y19986221D01*
X14482765Y19986221D01*
X14482822Y20051422D01*
X14357184Y20355489D01*
X14124749Y20588331D01*
X13820901Y20714499D01*
X13491900Y20714786D01*
X13187833Y20589148D01*
X12970248Y20371943D01*
X12936035Y20454745D01*
X12703600Y20687587D01*
X12399752Y20813755D01*
X12070751Y20814042D01*
X11766684Y20688404D01*
X11533842Y20455969D01*
X11504316Y20384861D01*
X11415222Y20421856D01*
X11086221Y20422143D01*
X10842864Y20321590D01*
X10669070Y20495688D01*
X10365222Y20621856D01*
X10036221Y20622143D01*
X9732154Y20496505D01*
X9675105Y20439555D01*
X9619070Y20495688D01*
X9315222Y20621856D01*
X8986221Y20622143D01*
X8682154Y20496505D01*
X8600061Y20414555D01*
X8519070Y20495688D01*
X8215222Y20621856D01*
X7886221Y20622143D01*
X7582154Y20496505D01*
X7499930Y20414424D01*
X7269070Y20645688D01*
X6965222Y20771856D01*
X6636221Y20772143D01*
X6332154Y20646505D01*
X6099312Y20414070D01*
X5973144Y20110222D01*
X5972977Y19918636D01*
X5965222Y19921856D01*
X5636221Y19922143D01*
X5332154Y19796505D01*
X5099312Y19564070D01*
X4973144Y19260222D01*
X4972857Y18931221D01*
X5098495Y18627154D01*
X5202945Y18522521D01*
X5099312Y18419070D01*
X4973144Y18115222D01*
X4972857Y17786221D01*
X5098495Y17482154D01*
X5280445Y17299886D01*
X5099312Y17119070D01*
X4973144Y16815222D01*
X4972857Y16486221D01*
X5098495Y16182154D01*
X5132988Y16147600D01*
X5049312Y16064070D01*
X4923144Y15760222D01*
X4922857Y15431221D01*
X5048495Y15127154D01*
X5280930Y14894312D01*
X5423118Y14835271D01*
X5422857Y14536221D01*
X5548495Y14232154D01*
X5780930Y13999312D01*
X6084778Y13873144D01*
X6413779Y13872857D01*
X6717846Y13998495D01*
X6950688Y14230930D01*
X7029996Y14421925D01*
X7048495Y14377154D01*
X7280930Y14144312D01*
X7584778Y14018144D01*
X7913779Y14017857D01*
X8217846Y14143495D01*
X8375027Y14300401D01*
X8480930Y14194312D01*
X8784778Y14068144D01*
X9113779Y14067857D01*
X9373000Y14174965D01*
X9373000Y11500000D01*
X9383006Y11450590D01*
X9411447Y11408965D01*
X9453841Y11381685D01*
X9500000Y11373000D01*
X13621943Y11373000D01*
X13745404Y11249323D01*
X14049252Y11123155D01*
X14378253Y11122868D01*
X14682320Y11248506D01*
X14752165Y11318229D01*
X15051754Y11018640D01*
X15051526Y11018546D01*
X14818684Y10786111D01*
X14692516Y10482263D01*
X14692229Y10153262D01*
X14817867Y9849195D01*
X15050302Y9616353D01*
X15354150Y9490185D01*
X15683151Y9489898D01*
X15987218Y9615536D01*
X16220060Y9847971D01*
X16346228Y10151819D01*
X16346421Y10373000D01*
X23938961Y10373000D01*
X24029215Y10260183D01*
X23808421Y10351864D01*
X23479420Y10352151D01*
X23175353Y10226513D01*
X22942511Y9994078D01*
X22816343Y9690230D01*
X22816056Y9361229D01*
X22865912Y9240569D01*
X22635734Y9010793D01*
X22509566Y8706945D01*
X22509279Y8377944D01*
X22634917Y8073877D01*
X22867352Y7841035D01*
X23171200Y7714867D01*
X23500201Y7714580D01*
X23596119Y7754212D01*
X23818299Y7531643D01*
X24122147Y7405475D01*
X24333764Y7405290D01*
X24529377Y7209677D01*
X24708458Y7090018D01*
X24873000Y7057289D01*
X24873000Y2953646D01*
X24871354Y2952000D01*
X24417498Y2952000D01*
X24269070Y3100688D01*
X23965222Y3226856D01*
X23636221Y3227143D01*
X23332154Y3101505D01*
X23099312Y2869070D01*
X22973144Y2565222D01*
X22972857Y2236221D01*
X23098495Y1932154D01*
X23330930Y1699312D01*
X23634778Y1573144D01*
X23963779Y1572857D01*
X24267846Y1698495D01*
X24417613Y1848000D01*
X24873000Y1848000D01*
X24873000Y502000D01*
X5202244Y502000D01*
X5615392Y914427D01*
X6176361Y2265391D01*
X6176783Y2750000D01*
X6434635Y2750000D01*
X6434635Y1250000D01*
X6464409Y1091763D01*
X6557927Y946433D01*
X6700619Y848936D01*
X6870000Y814635D01*
X8370000Y814635D01*
X8528237Y844409D01*
X8673567Y937927D01*
X8771064Y1080619D01*
X8805365Y1250000D01*
X8805365Y1766907D01*
X8982796Y1766907D01*
X9161606Y1334154D01*
X9492412Y1002770D01*
X9924853Y823205D01*
X10393093Y822796D01*
X10825846Y1001606D01*
X11157230Y1332412D01*
X11336795Y1764853D01*
X11336796Y1766907D01*
X11522796Y1766907D01*
X11701606Y1334154D01*
X12032412Y1002770D01*
X12464853Y823205D01*
X12933093Y822796D01*
X13365846Y1001606D01*
X13697230Y1332412D01*
X13876795Y1764853D01*
X13876796Y1766907D01*
X14062796Y1766907D01*
X14241606Y1334154D01*
X14572412Y1002770D01*
X15004853Y823205D01*
X15473093Y822796D01*
X15905846Y1001606D01*
X16237230Y1332412D01*
X16416795Y1764853D01*
X16416796Y1766907D01*
X16602796Y1766907D01*
X16781606Y1334154D01*
X17112412Y1002770D01*
X17544853Y823205D01*
X18013093Y822796D01*
X18445846Y1001606D01*
X18777230Y1332412D01*
X18956795Y1764853D01*
X18957204Y2233093D01*
X18778394Y2665846D01*
X18447588Y2997230D01*
X18015147Y3176795D01*
X17546907Y3177204D01*
X17114154Y2998394D01*
X16782770Y2667588D01*
X16603205Y2235147D01*
X16602796Y1766907D01*
X16416796Y1766907D01*
X16417204Y2233093D01*
X16238394Y2665846D01*
X15907588Y2997230D01*
X15475147Y3176795D01*
X15006907Y3177204D01*
X14574154Y2998394D01*
X14242770Y2667588D01*
X14063205Y2235147D01*
X14062796Y1766907D01*
X13876796Y1766907D01*
X13877204Y2233093D01*
X13698394Y2665846D01*
X13367588Y2997230D01*
X12935147Y3176795D01*
X12466907Y3177204D01*
X12034154Y2998394D01*
X11702770Y2667588D01*
X11523205Y2235147D01*
X11522796Y1766907D01*
X11336796Y1766907D01*
X11337204Y2233093D01*
X11158394Y2665846D01*
X10827588Y2997230D01*
X10395147Y3176795D01*
X9926907Y3177204D01*
X9494154Y2998394D01*
X9162770Y2667588D01*
X8983205Y2235147D01*
X8982796Y1766907D01*
X8805365Y1766907D01*
X8805365Y2750000D01*
X8775591Y2908237D01*
X8682073Y3053567D01*
X8539381Y3151064D01*
X8370000Y3185365D01*
X6870000Y3185365D01*
X6711763Y3155591D01*
X6566433Y3062073D01*
X6468936Y2919381D01*
X6434635Y2750000D01*
X6176783Y2750000D01*
X6177637Y3728192D01*
X5885082Y4436231D01*
X6872857Y4436231D01*
X6998495Y4132164D01*
X7230930Y3899322D01*
X7534778Y3773154D01*
X7863779Y3772867D01*
X8167846Y3898505D01*
X8400688Y4130940D01*
X8526856Y4434788D01*
X8526857Y4436221D01*
X11772857Y4436221D01*
X11898495Y4132154D01*
X12130930Y3899312D01*
X12434778Y3773144D01*
X12763779Y3772857D01*
X13067846Y3898495D01*
X13300688Y4130930D01*
X13426856Y4434778D01*
X13427143Y4763779D01*
X13301505Y5067846D01*
X13069070Y5300688D01*
X13059107Y5304825D01*
X19816780Y5304825D01*
X19942418Y5000758D01*
X20174853Y4767916D01*
X20478701Y4641748D01*
X20807702Y4641461D01*
X21111769Y4767099D01*
X21322225Y4977187D01*
X21479845Y4819291D01*
X21783693Y4693123D01*
X22112694Y4692836D01*
X22416761Y4818474D01*
X22649603Y5050909D01*
X22775771Y5354757D01*
X22776058Y5683758D01*
X22650420Y5987825D01*
X22417985Y6220667D01*
X22114137Y6346835D01*
X21785136Y6347122D01*
X21481069Y6221484D01*
X21270613Y6011396D01*
X21112993Y6169292D01*
X20809145Y6295460D01*
X20480144Y6295747D01*
X20176077Y6170109D01*
X19943235Y5937674D01*
X19817067Y5633826D01*
X19816780Y5304825D01*
X13059107Y5304825D01*
X12765222Y5426856D01*
X12436221Y5427143D01*
X12132154Y5301505D01*
X11899312Y5069070D01*
X11773144Y4765222D01*
X11772857Y4436221D01*
X8526857Y4436221D01*
X8527143Y4763789D01*
X8401505Y5067856D01*
X8169070Y5300698D01*
X7865222Y5426866D01*
X7536221Y5427153D01*
X7232154Y5301515D01*
X6999312Y5069080D01*
X6873144Y4765232D01*
X6872857Y4436231D01*
X5885082Y4436231D01*
X5619027Y5080132D01*
X4585573Y6115392D01*
X3234609Y6676361D01*
X1771808Y6677637D01*
X502000Y6152963D01*
X502000Y7131221D01*
X19122857Y7131221D01*
X19248495Y6827154D01*
X19480930Y6594312D01*
X19784778Y6468144D01*
X20113779Y6467857D01*
X20417846Y6593495D01*
X20502527Y6678028D01*
X20680930Y6499312D01*
X20984778Y6373144D01*
X21313779Y6372857D01*
X21617846Y6498495D01*
X21850688Y6730930D01*
X21976856Y7034778D01*
X21977143Y7363779D01*
X21851505Y7667846D01*
X21619070Y7900688D01*
X21315222Y8026856D01*
X20986221Y8027143D01*
X20682154Y7901505D01*
X20597473Y7816972D01*
X20419070Y7995688D01*
X20115222Y8121856D01*
X19786221Y8122143D01*
X19482154Y7996505D01*
X19249312Y7764070D01*
X19123144Y7460222D01*
X19122857Y7131221D01*
X502000Y7131221D01*
X502000Y8036221D01*
X1172857Y8036221D01*
X1298495Y7732154D01*
X1530930Y7499312D01*
X1834778Y7373144D01*
X2163779Y7372857D01*
X2467846Y7498495D01*
X2700688Y7730930D01*
X2826856Y8034778D01*
X2827143Y8363779D01*
X2701505Y8667846D01*
X2533425Y8836221D01*
X11922857Y8836221D01*
X12048495Y8532154D01*
X12280930Y8299312D01*
X12584778Y8173144D01*
X12913779Y8172857D01*
X13217846Y8298495D01*
X13450688Y8530930D01*
X13576856Y8834778D01*
X13577143Y9163779D01*
X13451505Y9467846D01*
X13219070Y9700688D01*
X12915222Y9826856D01*
X12586221Y9827143D01*
X12282154Y9701505D01*
X12049312Y9469070D01*
X11923144Y9165222D01*
X11922857Y8836221D01*
X2533425Y8836221D01*
X2469070Y8900688D01*
X2165222Y9026856D01*
X1836221Y9027143D01*
X1532154Y8901505D01*
X1299312Y8669070D01*
X1173144Y8365222D01*
X1172857Y8036221D01*
X502000Y8036221D01*
X502000Y12336221D01*
X1172857Y12336221D01*
X1298495Y12032154D01*
X1530930Y11799312D01*
X1834778Y11673144D01*
X2163779Y11672857D01*
X2467846Y11798495D01*
X2700688Y12030930D01*
X2826856Y12334778D01*
X2827143Y12663779D01*
X2755892Y12836221D01*
X5622857Y12836221D01*
X5748495Y12532154D01*
X5980930Y12299312D01*
X6284778Y12173144D01*
X6613779Y12172857D01*
X6917846Y12298495D01*
X7150688Y12530930D01*
X7276856Y12834778D01*
X7277143Y13163779D01*
X7151505Y13467846D01*
X6919070Y13700688D01*
X6615222Y13826856D01*
X6286221Y13827143D01*
X5982154Y13701505D01*
X5749312Y13469070D01*
X5623144Y13165222D01*
X5622857Y12836221D01*
X2755892Y12836221D01*
X2701505Y12967846D01*
X2469070Y13200688D01*
X2165222Y13326856D01*
X1836221Y13327143D01*
X1532154Y13201505D01*
X1299312Y12969070D01*
X1173144Y12665222D01*
X1172857Y12336221D01*
X502000Y12336221D01*
X502000Y14386221D01*
X3272857Y14386221D01*
X3398495Y14082154D01*
X3630930Y13849312D01*
X3934778Y13723144D01*
X4263779Y13722857D01*
X4567846Y13848495D01*
X4800688Y14080930D01*
X4926856Y14384778D01*
X4927143Y14713779D01*
X4801505Y15017846D01*
X4569070Y15250688D01*
X4265222Y15376856D01*
X3936221Y15377143D01*
X3632154Y15251505D01*
X3399312Y15019070D01*
X3273144Y14715222D01*
X3272857Y14386221D01*
X502000Y14386221D01*
X502000Y21636221D01*
X972857Y21636221D01*
X1098495Y21332154D01*
X1330930Y21099312D01*
X1634778Y20973144D01*
X1963779Y20972857D01*
X2267846Y21098495D01*
X2500688Y21330930D01*
X2575546Y21511211D01*
X12672857Y21511211D01*
X12798495Y21207144D01*
X13030930Y20974302D01*
X13334778Y20848134D01*
X13663779Y20847847D01*
X13967846Y20973485D01*
X14200688Y21205920D01*
X14326856Y21509768D01*
X14327143Y21838769D01*
X14201505Y22142836D01*
X13969070Y22375678D01*
X13665222Y22501846D01*
X13336221Y22502133D01*
X13032154Y22376495D01*
X12799312Y22144060D01*
X12673144Y21840212D01*
X12672857Y21511211D01*
X2575546Y21511211D01*
X2626856Y21634778D01*
X2627143Y21963779D01*
X2501505Y22267846D01*
X2269070Y22500688D01*
X1965222Y22626856D01*
X1636221Y22627143D01*
X1332154Y22501505D01*
X1099312Y22269070D01*
X973144Y21965222D01*
X972857Y21636221D01*
X502000Y21636221D01*
X502000Y23436221D01*
X4172857Y23436221D01*
X4298495Y23132154D01*
X4530930Y22899312D01*
X4834778Y22773144D01*
X5163779Y22772857D01*
X5467846Y22898495D01*
X5700688Y23130930D01*
X5826856Y23434778D01*
X5827143Y23763779D01*
X5701505Y24067846D01*
X5469070Y24300688D01*
X5165222Y24426856D01*
X4836221Y24427143D01*
X4532154Y24301505D01*
X4299312Y24069070D01*
X4173144Y23765222D01*
X4172857Y23436221D01*
X502000Y23436221D01*
X502000Y26297756D01*
X914427Y25884608D01*
X1480226Y25649668D01*
X1299312Y25469070D01*
X1173144Y25165222D01*
X1172857Y24836221D01*
X1298495Y24532154D01*
X1530930Y24299312D01*
X1834778Y24173144D01*
X2163779Y24172857D01*
X2467846Y24298495D01*
X2700688Y24530930D01*
X2826856Y24834778D01*
X2826944Y24936221D01*
X9922857Y24936221D01*
X10048495Y24632154D01*
X10280930Y24399312D01*
X10584778Y24273144D01*
X10913779Y24272857D01*
X11217846Y24398495D01*
X11450688Y24630930D01*
X11576856Y24934778D01*
X11577143Y25263779D01*
X11451505Y25567846D01*
X11219070Y25800688D01*
X10915222Y25926856D01*
X10586221Y25927143D01*
X10282154Y25801505D01*
X10049312Y25569070D01*
X9923144Y25265222D01*
X9922857Y24936221D01*
X2826944Y24936221D01*
X2827143Y25163779D01*
X2761269Y25323206D01*
X3728192Y25322363D01*
X5080132Y25880973D01*
X6115392Y26914427D01*
X6434635Y27683250D01*
X6434635Y26650000D01*
X6464409Y26491763D01*
X6557927Y26346433D01*
X6700619Y26248936D01*
X6870000Y26214635D01*
X8370000Y26214635D01*
X8528237Y26244409D01*
X8673567Y26337927D01*
X8771064Y26480619D01*
X8805365Y26650000D01*
X8805365Y27166907D01*
X8982796Y27166907D01*
X9161606Y26734154D01*
X9492412Y26402770D01*
X9924853Y26223205D01*
X10393093Y26222796D01*
X10825846Y26401606D01*
X11157230Y26732412D01*
X11336795Y27164853D01*
X11336796Y27166907D01*
X11522796Y27166907D01*
X11701606Y26734154D01*
X12032412Y26402770D01*
X12464853Y26223205D01*
X12933093Y26222796D01*
X13365846Y26401606D01*
X13506830Y26542345D01*
X14561950Y26542345D01*
X14641329Y26359935D01*
X15084916Y26210004D01*
X15552113Y26241239D01*
X15838671Y26359935D01*
X15918050Y26542345D01*
X15240000Y27220395D01*
X14561950Y26542345D01*
X13506830Y26542345D01*
X13697230Y26732412D01*
X13876795Y27164853D01*
X13877135Y27555084D01*
X14050004Y27555084D01*
X14081239Y27087887D01*
X14199935Y26801329D01*
X14382345Y26721950D01*
X15060395Y27400000D01*
X15419605Y27400000D01*
X16097655Y26721950D01*
X16280065Y26801329D01*
X16429996Y27244916D01*
X16398761Y27712113D01*
X16280065Y27998671D01*
X16097655Y28078050D01*
X15419605Y27400000D01*
X15060395Y27400000D01*
X14382345Y28078050D01*
X14199935Y27998671D01*
X14050004Y27555084D01*
X13877135Y27555084D01*
X13877204Y27633093D01*
X13698394Y28065846D01*
X13506920Y28257655D01*
X14561950Y28257655D01*
X15240000Y27579605D01*
X15918050Y28257655D01*
X15838671Y28440065D01*
X15395084Y28589996D01*
X14927887Y28558761D01*
X14641329Y28440065D01*
X14561950Y28257655D01*
X13506920Y28257655D01*
X13367588Y28397230D01*
X12935147Y28576795D01*
X12466907Y28577204D01*
X12034154Y28398394D01*
X11702770Y28067588D01*
X11523205Y27635147D01*
X11522796Y27166907D01*
X11336796Y27166907D01*
X11337204Y27633093D01*
X11158394Y28065846D01*
X10827588Y28397230D01*
X10395147Y28576795D01*
X9926907Y28577204D01*
X9494154Y28398394D01*
X9162770Y28067588D01*
X8983205Y27635147D01*
X8982796Y27166907D01*
X8805365Y27166907D01*
X8805365Y28150000D01*
X8775591Y28308237D01*
X8682073Y28453567D01*
X8539381Y28551064D01*
X8370000Y28585365D01*
X6870000Y28585365D01*
X6711763Y28555591D01*
X6676594Y28532960D01*
X6676834Y28807831D01*
X6785065Y28763000D01*
X7386250Y28763000D01*
X7493000Y28869750D01*
X7493000Y29813000D01*
X7747000Y29813000D01*
X7747000Y28869750D01*
X7853750Y28763000D01*
X8454935Y28763000D01*
X8611876Y28828007D01*
X8731993Y28948124D01*
X8797000Y29105064D01*
X8797000Y29706250D01*
X8796343Y29706907D01*
X8982796Y29706907D01*
X9161606Y29274154D01*
X9492412Y28942770D01*
X9924853Y28763205D01*
X10393093Y28762796D01*
X10825846Y28941606D01*
X11157230Y29272412D01*
X11336795Y29704853D01*
X11336796Y29706907D01*
X11522796Y29706907D01*
X11701606Y29274154D01*
X12032412Y28942770D01*
X12464853Y28763205D01*
X12933093Y28762796D01*
X13365846Y28941606D01*
X13697230Y29272412D01*
X13876795Y29704853D01*
X13876796Y29706907D01*
X14062796Y29706907D01*
X14241606Y29274154D01*
X14572412Y28942770D01*
X15004853Y28763205D01*
X15473093Y28762796D01*
X15905846Y28941606D01*
X16237230Y29272412D01*
X16416795Y29704853D01*
X16416796Y29706907D01*
X16602796Y29706907D01*
X16781606Y29274154D01*
X17112412Y28942770D01*
X17544853Y28763205D01*
X18013093Y28762796D01*
X18445846Y28941606D01*
X18777230Y29272412D01*
X18956795Y29704853D01*
X18956796Y29706907D01*
X19142796Y29706907D01*
X19321606Y29274154D01*
X19652412Y28942770D01*
X20084853Y28763205D01*
X20553093Y28762796D01*
X20985846Y28941606D01*
X21317230Y29272412D01*
X21496795Y29704853D01*
X21497204Y30173093D01*
X21318394Y30605846D01*
X20987588Y30937230D01*
X20555147Y31116795D01*
X20086907Y31117204D01*
X19654154Y30938394D01*
X19322770Y30607588D01*
X19143205Y30175147D01*
X19142796Y29706907D01*
X18956796Y29706907D01*
X18957204Y30173093D01*
X18778394Y30605846D01*
X18447588Y30937230D01*
X18015147Y31116795D01*
X17546907Y31117204D01*
X17114154Y30938394D01*
X16782770Y30607588D01*
X16603205Y30175147D01*
X16602796Y29706907D01*
X16416796Y29706907D01*
X16417204Y30173093D01*
X16238394Y30605846D01*
X15907588Y30937230D01*
X15475147Y31116795D01*
X15006907Y31117204D01*
X14574154Y30938394D01*
X14242770Y30607588D01*
X14063205Y30175147D01*
X14062796Y29706907D01*
X13876796Y29706907D01*
X13877204Y30173093D01*
X13698394Y30605846D01*
X13367588Y30937230D01*
X12935147Y31116795D01*
X12466907Y31117204D01*
X12034154Y30938394D01*
X11702770Y30607588D01*
X11523205Y30175147D01*
X11522796Y29706907D01*
X11336796Y29706907D01*
X11337204Y30173093D01*
X11158394Y30605846D01*
X10827588Y30937230D01*
X10395147Y31116795D01*
X9926907Y31117204D01*
X9494154Y30938394D01*
X9162770Y30607588D01*
X8983205Y30175147D01*
X8982796Y29706907D01*
X8796343Y29706907D01*
X8690250Y29813000D01*
X7747000Y29813000D01*
X7493000Y29813000D01*
X7473000Y29813000D01*
X7473000Y30067000D01*
X7493000Y30067000D01*
X7493000Y31010250D01*
X7747000Y31010250D01*
X7747000Y30067000D01*
X8690250Y30067000D01*
X8797000Y30173750D01*
X8797000Y30774936D01*
X8731993Y30931876D01*
X8611876Y31051993D01*
X8454935Y31117000D01*
X7853750Y31117000D01*
X7747000Y31010250D01*
X7493000Y31010250D01*
X7386250Y31117000D01*
X6785065Y31117000D01*
X6628124Y31051993D01*
X6508007Y30931876D01*
X6443000Y30774936D01*
X6443000Y30296057D01*
X6119027Y31080132D01*
X5701888Y31498000D01*
X24873000Y31498000D01*
X24873000Y30877002D01*
G36*
X48498000Y5702244D02*
X48085573Y6115392D01*
X46734609Y6676361D01*
X45271808Y6677637D01*
X43919868Y6119027D01*
X42884608Y5085573D01*
X42877000Y5067251D01*
X42877000Y11873000D01*
X48498000Y11873000D01*
X48498000Y5702244D01*
X48498000Y5702244D01*
G37*
X48498000Y5702244D02*
X48085573Y6115392D01*
X46734609Y6676361D01*
X45271808Y6677637D01*
X43919868Y6119027D01*
X42884608Y5085573D01*
X42877000Y5067251D01*
X42877000Y11873000D01*
X48498000Y11873000D01*
X48498000Y5702244D01*
G36*
X48498000Y13127000D02*
X43302606Y13127000D01*
X42877000Y13552606D01*
X42877000Y18623000D01*
X48498000Y18623000D01*
X48498000Y13127000D01*
X48498000Y13127000D01*
G37*
X48498000Y13127000D02*
X43302606Y13127000D01*
X42877000Y13552606D01*
X42877000Y18623000D01*
X48498000Y18623000D01*
X48498000Y13127000D01*
G36*
X42880973Y26919868D02*
X43914427Y25884608D01*
X45265391Y25323639D01*
X46728192Y25322363D01*
X48080132Y25880973D01*
X48498000Y26298112D01*
X48498000Y19877000D01*
X43317968Y19877000D01*
X42877000Y20538452D01*
X42877000Y26929483D01*
X42880973Y26919868D01*
X42880973Y26919868D01*
G37*
X42880973Y26919868D02*
X43914427Y25884608D01*
X45265391Y25323639D01*
X46728192Y25322363D01*
X48080132Y25880973D01*
X48498000Y26298112D01*
X48498000Y19877000D01*
X43317968Y19877000D01*
X42877000Y20538452D01*
X42877000Y26929483D01*
X42880973Y26919868D01*
M02*
