G04 #@! TF.FileFunction,Copper,L3,Inr,Plane*
%FSLAX46Y46*%
G04 Gerber Fmt 4.6, Leading zero omitted, Abs format (unit mm)*
G04 Created by KiCad (PCBNEW 4.0.6-e0-6349~53~ubuntu16.04.1) date Fri Mar 10 07:50:29 2017*
%MOMM*%
%LPD*%
G01*
G04 APERTURE LIST*
%ADD10C,0.100000*%
%ADD11C,0.250000*%
%ADD12C,0.800000*%
%ADD13C,1.300000*%
%ADD14C,1.900000*%
%ADD15R,1.500000X1.500000*%
%ADD16C,1.500000*%
%ADD17C,0.254000*%
G04 APERTURE END LIST*
D10*
D11*
X176316667Y-113957381D02*
X176935715Y-113957381D01*
X176602381Y-114338333D01*
X176745239Y-114338333D01*
X176840477Y-114385952D01*
X176888096Y-114433571D01*
X176935715Y-114528810D01*
X176935715Y-114766905D01*
X176888096Y-114862143D01*
X176840477Y-114909762D01*
X176745239Y-114957381D01*
X176459524Y-114957381D01*
X176364286Y-114909762D01*
X176316667Y-114862143D01*
D12*
X176350000Y-84600000D03*
X169950000Y-101005000D03*
X173850000Y-91000000D03*
D13*
X167500000Y-79250000D03*
D14*
X173250000Y-81000000D03*
X183750000Y-102750000D03*
X183750000Y-94250000D03*
D12*
X178700000Y-109900000D03*
X173320000Y-109430000D03*
X145000000Y-98300000D03*
X161250000Y-115005000D03*
X159750000Y-79005000D03*
X136250000Y-109505000D03*
X155750000Y-79005000D03*
X150750000Y-79005000D03*
X145750000Y-79005000D03*
X141750000Y-79005000D03*
X136250000Y-84505000D03*
X136250000Y-89505000D03*
X136250000Y-94505000D03*
X136250000Y-99505000D03*
X136250000Y-104505000D03*
X142250000Y-115005000D03*
X146250000Y-115005000D03*
X151250000Y-115005000D03*
X156250000Y-115005000D03*
X173000000Y-83005000D03*
X172940000Y-100420000D03*
X172420000Y-103290000D03*
X173320000Y-110660000D03*
X184450000Y-108805000D03*
X183750000Y-108805000D03*
X183050000Y-108805000D03*
X182350000Y-108805000D03*
X181650000Y-108805000D03*
X184450000Y-108105000D03*
X183750000Y-108105000D03*
X183050000Y-108105000D03*
X182350000Y-108105000D03*
X181650000Y-108105000D03*
X184450000Y-107405000D03*
X183750000Y-107405000D03*
X183050000Y-107405000D03*
X182350000Y-107405000D03*
X181650000Y-107405000D03*
X184450000Y-106705000D03*
X183750000Y-106705000D03*
X183050000Y-106705000D03*
X182350000Y-106705000D03*
X181650000Y-106705000D03*
X184450000Y-106005000D03*
X183750000Y-106005000D03*
X183050000Y-106005000D03*
X182350000Y-106005000D03*
X181650000Y-106005000D03*
X184450000Y-105305000D03*
X183750000Y-105305000D03*
X183050000Y-105305000D03*
X182350000Y-105305000D03*
X181650000Y-105305000D03*
X184450000Y-104605000D03*
X183750000Y-104605000D03*
X183050000Y-104605000D03*
X182350000Y-104605000D03*
X181650000Y-104605000D03*
X184450000Y-103905000D03*
X183050000Y-103905000D03*
X182350000Y-103905000D03*
X184450000Y-100605000D03*
X183750000Y-100605000D03*
X183050000Y-100605000D03*
X182350000Y-100605000D03*
X181650000Y-100605000D03*
X184450000Y-99905000D03*
X183750000Y-99905000D03*
X183050000Y-99905000D03*
X182350000Y-99905000D03*
X181650000Y-99905000D03*
X184450000Y-99205000D03*
X183750000Y-99205000D03*
X183050000Y-99205000D03*
X182350000Y-99205000D03*
X181650000Y-99205000D03*
X184450000Y-98505000D03*
X183750000Y-98505000D03*
X183050000Y-98505000D03*
X182350000Y-98505000D03*
X181650000Y-98505000D03*
X184450000Y-97805000D03*
X183750000Y-97805000D03*
X183050000Y-97805000D03*
X182350000Y-97805000D03*
X181650000Y-97805000D03*
X184450000Y-97105000D03*
X183750000Y-97105000D03*
X183050000Y-97105000D03*
X182350000Y-97105000D03*
X181650000Y-97105000D03*
X184450000Y-96405000D03*
X183750000Y-96405000D03*
X183050000Y-96405000D03*
X182350000Y-96405000D03*
X181650000Y-96405000D03*
X184450000Y-95705000D03*
X183750000Y-95705000D03*
X183050000Y-95705000D03*
X182350000Y-95705000D03*
X181650000Y-103905000D03*
X184450000Y-91605000D03*
X183750000Y-91605000D03*
X183050000Y-91605000D03*
X182350000Y-91605000D03*
X181650000Y-91605000D03*
X184450000Y-90905000D03*
X183750000Y-90905000D03*
X183050000Y-90905000D03*
X182350000Y-90905000D03*
X181650000Y-90905000D03*
X184450000Y-90205000D03*
X183750000Y-90205000D03*
X183050000Y-90205000D03*
X182350000Y-90205000D03*
X181650000Y-90205000D03*
X184450000Y-89505000D03*
X183750000Y-89505000D03*
X183050000Y-89505000D03*
X182350000Y-89505000D03*
X181650000Y-89505000D03*
X184450000Y-88805000D03*
X183750000Y-88805000D03*
X183050000Y-88805000D03*
X182350000Y-88805000D03*
X181650000Y-88805000D03*
X184450000Y-88105000D03*
X183750000Y-88105000D03*
X183050000Y-88105000D03*
X182350000Y-88105000D03*
X181650000Y-88105000D03*
X184450000Y-87405000D03*
X183750000Y-87405000D03*
X183050000Y-87405000D03*
X182350000Y-87405000D03*
X181650000Y-87405000D03*
X181650000Y-95705000D03*
X184450000Y-86705000D03*
X183050000Y-86705000D03*
X182350000Y-86705000D03*
X181650000Y-86705000D03*
X166250000Y-83405000D03*
X166450000Y-100205000D03*
X165750000Y-100205000D03*
X170450000Y-82005000D03*
X169750000Y-82005000D03*
X169050000Y-82005000D03*
X168350000Y-82005000D03*
X167650000Y-82005000D03*
X166950000Y-82005000D03*
X166250000Y-82005000D03*
X165550000Y-82005000D03*
X170450000Y-81305000D03*
X169750000Y-81305000D03*
X169050000Y-81305000D03*
X168350000Y-81305000D03*
X167650000Y-81305000D03*
X166950000Y-81305000D03*
X166250000Y-81305000D03*
X165550000Y-81305000D03*
X170450000Y-80605000D03*
X169750000Y-80605000D03*
X169050000Y-80605000D03*
X168350000Y-80605000D03*
X167650000Y-80605000D03*
X166950000Y-80605000D03*
X166250000Y-80605000D03*
X170450000Y-79905000D03*
X169750000Y-79905000D03*
X169050000Y-79905000D03*
X168350000Y-79905000D03*
X166250000Y-82705000D03*
X165550000Y-82705000D03*
X170450000Y-79205000D03*
X169750000Y-79205000D03*
X169050000Y-79205000D03*
X166550000Y-112305000D03*
X165850000Y-112305000D03*
X166550000Y-111605000D03*
X165850000Y-111605000D03*
X169950000Y-103805000D03*
X169250000Y-103805000D03*
X168550000Y-103805000D03*
X167850000Y-103805000D03*
X167150000Y-103805000D03*
X166450000Y-103805000D03*
X169950000Y-103105000D03*
X169250000Y-103105000D03*
X168550000Y-103105000D03*
X167850000Y-103105000D03*
X167150000Y-103105000D03*
X166450000Y-103105000D03*
X165750000Y-103105000D03*
X169950000Y-102405000D03*
X169250000Y-102405000D03*
X168550000Y-102405000D03*
X167850000Y-102405000D03*
X167150000Y-102405000D03*
X166450000Y-102405000D03*
X165750000Y-102405000D03*
X169950000Y-101705000D03*
X169250000Y-101705000D03*
X168550000Y-101705000D03*
X167850000Y-101705000D03*
X167150000Y-101705000D03*
X166450000Y-101705000D03*
X165750000Y-101705000D03*
X169250000Y-101005000D03*
X168550000Y-101005000D03*
X167850000Y-101005000D03*
X167150000Y-101005000D03*
X166450000Y-101005000D03*
X165750000Y-101005000D03*
X171450000Y-115105000D03*
X170750000Y-115105000D03*
X170050000Y-115105000D03*
X169350000Y-115105000D03*
X168650000Y-115105000D03*
X167950000Y-115105000D03*
X167250000Y-115105000D03*
X166550000Y-115105000D03*
X165850000Y-115105000D03*
X171450000Y-114405000D03*
X170750000Y-114405000D03*
X170050000Y-114405000D03*
X169350000Y-114405000D03*
X168650000Y-114405000D03*
X167950000Y-114405000D03*
X167250000Y-114405000D03*
X166550000Y-114405000D03*
X165850000Y-114405000D03*
X171450000Y-113705000D03*
X170750000Y-113705000D03*
X170050000Y-113705000D03*
X169350000Y-113705000D03*
X168650000Y-113705000D03*
X167950000Y-113705000D03*
X167250000Y-113705000D03*
X166550000Y-113705000D03*
X165850000Y-113705000D03*
X171450000Y-113005000D03*
X170750000Y-113005000D03*
X170050000Y-113005000D03*
X169350000Y-113005000D03*
X168650000Y-113005000D03*
X167950000Y-113005000D03*
X167250000Y-113005000D03*
X166550000Y-113005000D03*
X165850000Y-113005000D03*
X150150000Y-97755000D03*
X148850000Y-98105000D03*
X147700000Y-98105000D03*
X145550000Y-93055000D03*
X146500000Y-98155000D03*
X144500000Y-97405000D03*
X144550000Y-93905000D03*
X151250000Y-94055000D03*
X150000000Y-93405000D03*
X148950000Y-93205000D03*
X147900000Y-93205000D03*
D15*
X143780000Y-83820000D03*
D16*
X146320000Y-83820000D03*
X148860000Y-83820000D03*
X151400000Y-83820000D03*
X153940000Y-83820000D03*
D15*
X143780000Y-81280000D03*
D16*
X146320000Y-81280000D03*
X148860000Y-81280000D03*
X151400000Y-81280000D03*
X153940000Y-81280000D03*
X156480000Y-81280000D03*
D15*
X146320000Y-111760000D03*
D16*
X148860000Y-111760000D03*
X151400000Y-111760000D03*
X153940000Y-111760000D03*
X156480000Y-111760000D03*
D12*
X146800000Y-93205000D03*
D14*
X183750000Y-85500000D03*
D13*
X172500000Y-79250000D03*
D14*
X165500000Y-79500000D03*
D12*
X153000000Y-107250000D03*
X151500000Y-107250000D03*
X146500000Y-106500000D03*
X176250000Y-93400000D03*
X154299861Y-98500000D03*
X176850000Y-99299991D03*
X164149921Y-113005000D03*
X175000000Y-79000000D03*
X174900000Y-109900000D03*
X174500000Y-100700000D03*
X149711603Y-99522136D03*
X149600000Y-100500000D03*
X177450000Y-102200000D03*
X177550000Y-93300000D03*
X151750000Y-104400000D03*
X160574957Y-92719540D03*
X145550000Y-100500000D03*
X152250000Y-91250006D03*
X158250000Y-112054994D03*
X177267753Y-83754618D03*
X145750000Y-101755016D03*
X174900000Y-112000000D03*
X156000000Y-95505000D03*
X151185000Y-108915000D03*
X169000000Y-85530010D03*
X169250000Y-109605000D03*
X168963201Y-97917119D03*
X164284254Y-99941045D03*
X162075976Y-104487519D03*
X163900000Y-89205000D03*
X164250000Y-110755000D03*
X155500000Y-99755000D03*
X156400000Y-82975000D03*
X146750000Y-109250000D03*
X144550000Y-96350000D03*
X144550000Y-95050000D03*
X149600000Y-87900000D03*
X145600000Y-87900000D03*
X159000000Y-99755000D03*
X164746737Y-95395004D03*
X160899998Y-79005000D03*
X175700004Y-102405000D03*
X162393199Y-103474992D03*
X174600000Y-93505000D03*
X162340955Y-90189166D03*
X161900000Y-79305000D03*
X175200000Y-84305000D03*
X178763493Y-102088603D03*
X167960000Y-108140000D03*
X178450000Y-83255000D03*
X163000000Y-79805000D03*
X167999992Y-96755000D03*
X179972175Y-93227175D03*
X162474979Y-93167873D03*
X151759364Y-92349280D03*
X152050000Y-100000000D03*
X153500000Y-105505000D03*
X142750002Y-102255000D03*
X143250000Y-110255000D03*
X161600000Y-105505000D03*
X157700000Y-82905000D03*
X149700000Y-89600000D03*
X145600000Y-89600000D03*
X158200000Y-110400000D03*
X158012660Y-99987340D03*
X163924990Y-92900000D03*
X159000000Y-83205000D03*
X169243857Y-106991177D03*
X163037340Y-104767660D03*
X163250000Y-84805000D03*
X169000000Y-88005000D03*
X164411160Y-91967483D03*
X169010997Y-94987653D03*
X159900000Y-105800000D03*
X142750000Y-99000000D03*
X159393923Y-107531396D03*
X152950004Y-101300000D03*
X156225010Y-92850000D03*
X156274808Y-87623751D03*
X154250000Y-103000000D03*
X157160782Y-91646103D03*
X156250000Y-91004962D03*
X154340616Y-95630768D03*
X160698915Y-107480021D03*
X158981218Y-98165420D03*
X156275000Y-88675000D03*
X152405676Y-93112355D03*
X151000000Y-93000000D03*
X158700000Y-105705000D03*
X158670369Y-95224666D03*
X156400000Y-86625000D03*
X153550000Y-102200000D03*
X140250000Y-96250000D03*
D17*
G36*
X160199310Y-78535930D02*
X160073142Y-78839778D01*
X160072855Y-79168779D01*
X160198493Y-79472846D01*
X160430928Y-79705688D01*
X160734776Y-79831856D01*
X161063777Y-79832143D01*
X161201062Y-79775418D01*
X161430930Y-80005688D01*
X161734778Y-80131856D01*
X162063779Y-80132143D01*
X162214607Y-80069822D01*
X162298495Y-80272846D01*
X162530930Y-80505688D01*
X162834778Y-80631856D01*
X163163779Y-80632143D01*
X163467846Y-80506505D01*
X163700688Y-80274070D01*
X163826856Y-79970222D01*
X163827143Y-79641221D01*
X163701505Y-79337154D01*
X163469070Y-79104312D01*
X163165222Y-78978144D01*
X162836221Y-78977857D01*
X162685393Y-79040178D01*
X162601505Y-78837154D01*
X162369070Y-78604312D01*
X162122674Y-78502000D01*
X170873000Y-78502000D01*
X170873000Y-111755000D01*
X170883006Y-111804410D01*
X170911447Y-111846035D01*
X170943204Y-111868592D01*
X172873000Y-112833490D01*
X172873000Y-115499237D01*
X140947806Y-115502430D01*
X141365392Y-115085573D01*
X141926361Y-113734609D01*
X141926854Y-113168779D01*
X163322778Y-113168779D01*
X163448416Y-113472846D01*
X163680851Y-113705688D01*
X163984699Y-113831856D01*
X164313700Y-113832143D01*
X164617767Y-113706505D01*
X164850609Y-113474070D01*
X164976777Y-113170222D01*
X164977064Y-112841221D01*
X164851426Y-112537154D01*
X164618991Y-112304312D01*
X164315143Y-112178144D01*
X163986142Y-112177857D01*
X163682075Y-112303495D01*
X163449233Y-112535930D01*
X163323065Y-112839778D01*
X163322778Y-113168779D01*
X141926854Y-113168779D01*
X141927637Y-112271808D01*
X141369027Y-110919868D01*
X140868813Y-110418779D01*
X142422857Y-110418779D01*
X142548495Y-110722846D01*
X142780930Y-110955688D01*
X143084778Y-111081856D01*
X143413779Y-111082143D01*
X143588378Y-111010000D01*
X145134635Y-111010000D01*
X145134635Y-112510000D01*
X145164409Y-112668237D01*
X145257927Y-112813567D01*
X145400619Y-112911064D01*
X145570000Y-112945365D01*
X147070000Y-112945365D01*
X147228237Y-112915591D01*
X147373567Y-112822073D01*
X147471064Y-112679381D01*
X147505365Y-112510000D01*
X147505365Y-111993093D01*
X147682796Y-111993093D01*
X147861606Y-112425846D01*
X148192412Y-112757230D01*
X148624853Y-112936795D01*
X149093093Y-112937204D01*
X149525846Y-112758394D01*
X149857230Y-112427588D01*
X150036795Y-111995147D01*
X150036796Y-111993093D01*
X150222796Y-111993093D01*
X150401606Y-112425846D01*
X150732412Y-112757230D01*
X151164853Y-112936795D01*
X151633093Y-112937204D01*
X152065846Y-112758394D01*
X152397230Y-112427588D01*
X152576795Y-111995147D01*
X152576796Y-111993093D01*
X152762796Y-111993093D01*
X152941606Y-112425846D01*
X153272412Y-112757230D01*
X153704853Y-112936795D01*
X154173093Y-112937204D01*
X154605846Y-112758394D01*
X154632769Y-112731517D01*
X155688088Y-112731517D01*
X155756077Y-112972460D01*
X156275171Y-113157201D01*
X156825448Y-113129230D01*
X157203923Y-112972460D01*
X157271912Y-112731517D01*
X156480000Y-111939605D01*
X155688088Y-112731517D01*
X154632769Y-112731517D01*
X154937230Y-112427588D01*
X155106432Y-112020104D01*
X155110770Y-112105448D01*
X155267540Y-112483923D01*
X155508483Y-112551912D01*
X156300395Y-111760000D01*
X155508483Y-110968088D01*
X155267540Y-111036077D01*
X155104124Y-111495251D01*
X154938394Y-111094154D01*
X154633257Y-110788483D01*
X155688088Y-110788483D01*
X156480000Y-111580395D01*
X156494143Y-111566253D01*
X156673748Y-111745858D01*
X156659605Y-111760000D01*
X157451517Y-112551912D01*
X157692460Y-112483923D01*
X157877201Y-111964829D01*
X157849230Y-111414552D01*
X157710920Y-111080643D01*
X157730930Y-111100688D01*
X158034778Y-111226856D01*
X158363779Y-111227143D01*
X158667846Y-111101505D01*
X158900688Y-110869070D01*
X159026856Y-110565222D01*
X159027143Y-110236221D01*
X158901505Y-109932154D01*
X158669070Y-109699312D01*
X158365222Y-109573144D01*
X158036221Y-109572857D01*
X157732154Y-109698495D01*
X157499312Y-109930930D01*
X157373144Y-110234778D01*
X157372857Y-110563779D01*
X157440129Y-110726589D01*
X157386966Y-110673426D01*
X157271911Y-110788481D01*
X157203923Y-110547540D01*
X156684829Y-110362799D01*
X156134552Y-110390770D01*
X155756077Y-110547540D01*
X155688088Y-110788483D01*
X154633257Y-110788483D01*
X154607588Y-110762770D01*
X154175147Y-110583205D01*
X153706907Y-110582796D01*
X153274154Y-110761606D01*
X152942770Y-111092412D01*
X152763205Y-111524853D01*
X152762796Y-111993093D01*
X152576796Y-111993093D01*
X152577204Y-111526907D01*
X152398394Y-111094154D01*
X152067588Y-110762770D01*
X151635147Y-110583205D01*
X151166907Y-110582796D01*
X150734154Y-110761606D01*
X150402770Y-111092412D01*
X150223205Y-111524853D01*
X150222796Y-111993093D01*
X150036796Y-111993093D01*
X150037204Y-111526907D01*
X149858394Y-111094154D01*
X149527588Y-110762770D01*
X149095147Y-110583205D01*
X148626907Y-110582796D01*
X148194154Y-110761606D01*
X147862770Y-111092412D01*
X147683205Y-111524853D01*
X147682796Y-111993093D01*
X147505365Y-111993093D01*
X147505365Y-111010000D01*
X147475591Y-110851763D01*
X147382073Y-110706433D01*
X147239381Y-110608936D01*
X147070000Y-110574635D01*
X145570000Y-110574635D01*
X145411763Y-110604409D01*
X145266433Y-110697927D01*
X145168936Y-110840619D01*
X145134635Y-111010000D01*
X143588378Y-111010000D01*
X143717846Y-110956505D01*
X143950688Y-110724070D01*
X144076856Y-110420222D01*
X144077143Y-110091221D01*
X143951505Y-109787154D01*
X143719070Y-109554312D01*
X143415222Y-109428144D01*
X143086221Y-109427857D01*
X142782154Y-109553495D01*
X142549312Y-109785930D01*
X142423144Y-110089778D01*
X142422857Y-110418779D01*
X140868813Y-110418779D01*
X140335573Y-109884608D01*
X138984609Y-109323639D01*
X137521808Y-109322363D01*
X136169868Y-109880973D01*
X135752000Y-110298112D01*
X135752000Y-107413779D01*
X150672857Y-107413779D01*
X150798495Y-107717846D01*
X151030930Y-107950688D01*
X151334778Y-108076856D01*
X151663779Y-108077143D01*
X151967846Y-107951505D01*
X152200688Y-107719070D01*
X152249966Y-107600396D01*
X152298495Y-107717846D01*
X152530930Y-107950688D01*
X152834778Y-108076856D01*
X153163779Y-108077143D01*
X153467846Y-107951505D01*
X153700688Y-107719070D01*
X153710610Y-107695175D01*
X158566780Y-107695175D01*
X158692418Y-107999242D01*
X158924853Y-108232084D01*
X159228701Y-108358252D01*
X159557702Y-108358539D01*
X159861769Y-108232901D01*
X160072225Y-108022813D01*
X160229845Y-108180709D01*
X160533693Y-108306877D01*
X160862694Y-108307164D01*
X160870886Y-108303779D01*
X167132857Y-108303779D01*
X167258495Y-108607846D01*
X167490930Y-108840688D01*
X167794778Y-108966856D01*
X168123779Y-108967143D01*
X168427846Y-108841505D01*
X168660688Y-108609070D01*
X168786856Y-108305222D01*
X168787143Y-107976221D01*
X168661505Y-107672154D01*
X168429070Y-107439312D01*
X168125222Y-107313144D01*
X167796221Y-107312857D01*
X167492154Y-107438495D01*
X167259312Y-107670930D01*
X167133144Y-107974778D01*
X167132857Y-108303779D01*
X160870886Y-108303779D01*
X161166761Y-108181526D01*
X161399603Y-107949091D01*
X161525771Y-107645243D01*
X161526058Y-107316242D01*
X161459416Y-107154956D01*
X168416714Y-107154956D01*
X168542352Y-107459023D01*
X168774787Y-107691865D01*
X169078635Y-107818033D01*
X169407636Y-107818320D01*
X169711703Y-107692682D01*
X169944545Y-107460247D01*
X170070713Y-107156399D01*
X170071000Y-106827398D01*
X169945362Y-106523331D01*
X169712927Y-106290489D01*
X169409079Y-106164321D01*
X169080078Y-106164034D01*
X168776011Y-106289672D01*
X168543169Y-106522107D01*
X168417001Y-106825955D01*
X168416714Y-107154956D01*
X161459416Y-107154956D01*
X161400420Y-107012175D01*
X161167985Y-106779333D01*
X160864137Y-106653165D01*
X160535136Y-106652878D01*
X160231069Y-106778516D01*
X160020613Y-106988604D01*
X159862993Y-106830708D01*
X159559145Y-106704540D01*
X159230144Y-106704253D01*
X158926077Y-106829891D01*
X158693235Y-107062326D01*
X158567067Y-107366174D01*
X158566780Y-107695175D01*
X153710610Y-107695175D01*
X153826856Y-107415222D01*
X153827143Y-107086221D01*
X153701505Y-106782154D01*
X153469070Y-106549312D01*
X153165222Y-106423144D01*
X152836221Y-106422857D01*
X152532154Y-106548495D01*
X152299312Y-106780930D01*
X152250034Y-106899604D01*
X152201505Y-106782154D01*
X151969070Y-106549312D01*
X151665222Y-106423144D01*
X151336221Y-106422857D01*
X151032154Y-106548495D01*
X150799312Y-106780930D01*
X150673144Y-107084778D01*
X150672857Y-107413779D01*
X135752000Y-107413779D01*
X135752000Y-106663779D01*
X145672857Y-106663779D01*
X145798495Y-106967846D01*
X146030930Y-107200688D01*
X146334778Y-107326856D01*
X146663779Y-107327143D01*
X146967846Y-107201505D01*
X147200688Y-106969070D01*
X147326856Y-106665222D01*
X147327143Y-106336221D01*
X147201505Y-106032154D01*
X146969070Y-105799312D01*
X146665222Y-105673144D01*
X146336221Y-105672857D01*
X146032154Y-105798495D01*
X145799312Y-106030930D01*
X145673144Y-106334778D01*
X145672857Y-106663779D01*
X135752000Y-106663779D01*
X135752000Y-105668779D01*
X152672857Y-105668779D01*
X152798495Y-105972846D01*
X153030930Y-106205688D01*
X153334778Y-106331856D01*
X153663779Y-106332143D01*
X153967846Y-106206505D01*
X154200688Y-105974070D01*
X154244408Y-105868779D01*
X157872857Y-105868779D01*
X157998495Y-106172846D01*
X158230930Y-106405688D01*
X158534778Y-106531856D01*
X158863779Y-106532143D01*
X159167846Y-106406505D01*
X159252527Y-106321972D01*
X159430930Y-106500688D01*
X159734778Y-106626856D01*
X160063779Y-106627143D01*
X160367846Y-106501505D01*
X160600688Y-106269070D01*
X160726856Y-105965222D01*
X160727114Y-105668779D01*
X160772857Y-105668779D01*
X160898495Y-105972846D01*
X161130930Y-106205688D01*
X161434778Y-106331856D01*
X161763779Y-106332143D01*
X162067846Y-106206505D01*
X162300688Y-105974070D01*
X162426856Y-105670222D01*
X162427143Y-105341221D01*
X162417099Y-105316912D01*
X162568270Y-105468348D01*
X162872118Y-105594516D01*
X163201119Y-105594803D01*
X163505186Y-105469165D01*
X163738028Y-105236730D01*
X163864196Y-104932882D01*
X163864483Y-104603881D01*
X163738845Y-104299814D01*
X163506410Y-104066972D01*
X163202562Y-103940804D01*
X163095279Y-103940710D01*
X163220055Y-103640214D01*
X163220342Y-103311213D01*
X163094704Y-103007146D01*
X162862269Y-102774304D01*
X162558421Y-102648136D01*
X162229420Y-102647849D01*
X161925353Y-102773487D01*
X161692511Y-103005922D01*
X161566343Y-103309770D01*
X161566056Y-103638771D01*
X161691694Y-103942838D01*
X161924129Y-104175680D01*
X162227977Y-104301848D01*
X162335260Y-104301942D01*
X162210484Y-104602438D01*
X162210197Y-104931439D01*
X162220241Y-104955748D01*
X162069070Y-104804312D01*
X161765222Y-104678144D01*
X161436221Y-104677857D01*
X161132154Y-104803495D01*
X160899312Y-105035930D01*
X160773144Y-105339778D01*
X160772857Y-105668779D01*
X160727114Y-105668779D01*
X160727143Y-105636221D01*
X160601505Y-105332154D01*
X160369070Y-105099312D01*
X160065222Y-104973144D01*
X159736221Y-104972857D01*
X159432154Y-105098495D01*
X159347473Y-105183028D01*
X159169070Y-105004312D01*
X158865222Y-104878144D01*
X158536221Y-104877857D01*
X158232154Y-105003495D01*
X157999312Y-105235930D01*
X157873144Y-105539778D01*
X157872857Y-105868779D01*
X154244408Y-105868779D01*
X154326856Y-105670222D01*
X154327143Y-105341221D01*
X154201505Y-105037154D01*
X153969070Y-104804312D01*
X153665222Y-104678144D01*
X153336221Y-104677857D01*
X153032154Y-104803495D01*
X152799312Y-105035930D01*
X152673144Y-105339778D01*
X152672857Y-105668779D01*
X135752000Y-105668779D01*
X135752000Y-102418779D01*
X141922859Y-102418779D01*
X142048497Y-102722846D01*
X142280932Y-102955688D01*
X142584780Y-103081856D01*
X142913781Y-103082143D01*
X143217848Y-102956505D01*
X143450690Y-102724070D01*
X143576858Y-102420222D01*
X143577145Y-102091221D01*
X143451507Y-101787154D01*
X143219072Y-101554312D01*
X142915224Y-101428144D01*
X142586223Y-101427857D01*
X142282156Y-101553495D01*
X142049314Y-101785930D01*
X141923146Y-102089778D01*
X141922859Y-102418779D01*
X135752000Y-102418779D01*
X135752000Y-100663779D01*
X148772857Y-100663779D01*
X148898495Y-100967846D01*
X149130930Y-101200688D01*
X149434778Y-101326856D01*
X149763779Y-101327143D01*
X150067846Y-101201505D01*
X150300688Y-100969070D01*
X150426856Y-100665222D01*
X150427143Y-100336221D01*
X150355892Y-100163779D01*
X151222857Y-100163779D01*
X151348495Y-100467846D01*
X151580930Y-100700688D01*
X151884778Y-100826856D01*
X152213779Y-100827143D01*
X152280886Y-100799415D01*
X152249316Y-100830930D01*
X152123148Y-101134778D01*
X152122861Y-101463779D01*
X152248499Y-101767846D01*
X152480934Y-102000688D01*
X152723086Y-102101238D01*
X152722857Y-102363779D01*
X152848495Y-102667846D01*
X153080930Y-102900688D01*
X153384778Y-103026856D01*
X153422976Y-103026889D01*
X153422857Y-103163779D01*
X153548495Y-103467846D01*
X153780930Y-103700688D01*
X154084778Y-103826856D01*
X154413779Y-103827143D01*
X154717846Y-103701505D01*
X154950688Y-103469070D01*
X155076856Y-103165222D01*
X155077143Y-102836221D01*
X154951505Y-102532154D01*
X154719070Y-102299312D01*
X154415222Y-102173144D01*
X154377024Y-102173111D01*
X154377143Y-102036221D01*
X154251505Y-101732154D01*
X154019070Y-101499312D01*
X153776918Y-101398762D01*
X153777147Y-101136221D01*
X153651509Y-100832154D01*
X153419074Y-100599312D01*
X153115226Y-100473144D01*
X152786225Y-100472857D01*
X152719118Y-100500585D01*
X152750688Y-100469070D01*
X152876856Y-100165222D01*
X152876868Y-100151119D01*
X157185517Y-100151119D01*
X157311155Y-100455186D01*
X157543590Y-100688028D01*
X157847438Y-100814196D01*
X158176439Y-100814483D01*
X158480506Y-100688845D01*
X158660271Y-100509395D01*
X158834778Y-100581856D01*
X159163779Y-100582143D01*
X159467846Y-100456505D01*
X159700688Y-100224070D01*
X159826856Y-99920222D01*
X159827143Y-99591221D01*
X159701505Y-99287154D01*
X159469070Y-99054312D01*
X159232895Y-98956244D01*
X159449064Y-98866925D01*
X159681906Y-98634490D01*
X159808074Y-98330642D01*
X159808361Y-98001641D01*
X159682723Y-97697574D01*
X159450288Y-97464732D01*
X159146440Y-97338564D01*
X158817439Y-97338277D01*
X158513372Y-97463915D01*
X158280530Y-97696350D01*
X158154362Y-98000198D01*
X158154075Y-98329199D01*
X158279713Y-98633266D01*
X158512148Y-98866108D01*
X158748323Y-98964176D01*
X158532154Y-99053495D01*
X158352389Y-99232945D01*
X158177882Y-99160484D01*
X157848881Y-99160197D01*
X157544814Y-99285835D01*
X157311972Y-99518270D01*
X157185804Y-99822118D01*
X157185517Y-100151119D01*
X152876868Y-100151119D01*
X152877143Y-99836221D01*
X152751505Y-99532154D01*
X152519070Y-99299312D01*
X152215222Y-99173144D01*
X151886221Y-99172857D01*
X151582154Y-99298495D01*
X151349312Y-99530930D01*
X151223144Y-99834778D01*
X151222857Y-100163779D01*
X150355892Y-100163779D01*
X150321878Y-100081461D01*
X150412291Y-99991206D01*
X150538459Y-99687358D01*
X150538746Y-99358357D01*
X150413108Y-99054290D01*
X150180673Y-98821448D01*
X149876825Y-98695280D01*
X149547824Y-98694993D01*
X149243757Y-98820631D01*
X149010915Y-99053066D01*
X148884747Y-99356914D01*
X148884460Y-99685915D01*
X148989725Y-99940675D01*
X148899312Y-100030930D01*
X148773144Y-100334778D01*
X148772857Y-100663779D01*
X135752000Y-100663779D01*
X135752000Y-99163779D01*
X141922857Y-99163779D01*
X142048495Y-99467846D01*
X142280930Y-99700688D01*
X142584778Y-99826856D01*
X142913779Y-99827143D01*
X143217846Y-99701505D01*
X143450688Y-99469070D01*
X143576856Y-99165222D01*
X143577143Y-98836221D01*
X143505892Y-98663779D01*
X153472718Y-98663779D01*
X153598356Y-98967846D01*
X153830791Y-99200688D01*
X154134639Y-99326856D01*
X154463640Y-99327143D01*
X154767707Y-99201505D01*
X155000549Y-98969070D01*
X155126717Y-98665222D01*
X155127004Y-98336221D01*
X155001366Y-98032154D01*
X154768931Y-97799312D01*
X154465083Y-97673144D01*
X154136082Y-97672857D01*
X153832015Y-97798495D01*
X153599173Y-98030930D01*
X153473005Y-98334778D01*
X153472718Y-98663779D01*
X143505892Y-98663779D01*
X143451505Y-98532154D01*
X143219070Y-98299312D01*
X142915222Y-98173144D01*
X142586221Y-98172857D01*
X142282154Y-98298495D01*
X142049312Y-98530930D01*
X141923144Y-98834778D01*
X141922857Y-99163779D01*
X135752000Y-99163779D01*
X135752000Y-96413779D01*
X139422857Y-96413779D01*
X139548495Y-96717846D01*
X139780930Y-96950688D01*
X140084778Y-97076856D01*
X140413779Y-97077143D01*
X140717846Y-96951505D01*
X140950688Y-96719070D01*
X141076856Y-96415222D01*
X141077143Y-96086221D01*
X140951505Y-95782154D01*
X140719070Y-95549312D01*
X140415222Y-95423144D01*
X140086221Y-95422857D01*
X139782154Y-95548495D01*
X139549312Y-95780930D01*
X139423144Y-96084778D01*
X139422857Y-96413779D01*
X135752000Y-96413779D01*
X135752000Y-93755000D01*
X144873000Y-93755000D01*
X144873000Y-97505000D01*
X144881685Y-97551159D01*
X144908965Y-97593553D01*
X144950590Y-97621994D01*
X145000000Y-97632000D01*
X153500000Y-97632000D01*
X153546159Y-97623315D01*
X153588553Y-97596035D01*
X153616994Y-97554410D01*
X153627000Y-97505000D01*
X153627000Y-96918779D01*
X167172849Y-96918779D01*
X167298487Y-97222846D01*
X167530922Y-97455688D01*
X167834770Y-97581856D01*
X168163771Y-97582143D01*
X168467838Y-97456505D01*
X168700680Y-97224070D01*
X168826848Y-96920222D01*
X168827135Y-96591221D01*
X168701497Y-96287154D01*
X168469062Y-96054312D01*
X168165214Y-95928144D01*
X167836213Y-95927857D01*
X167532146Y-96053495D01*
X167299304Y-96285930D01*
X167173136Y-96589778D01*
X167172849Y-96918779D01*
X153627000Y-96918779D01*
X153627000Y-96255000D01*
X153606008Y-96185063D01*
X153570447Y-96149330D01*
X153038273Y-95794547D01*
X153513473Y-95794547D01*
X153639111Y-96098614D01*
X153871546Y-96331456D01*
X154175394Y-96457624D01*
X154504395Y-96457911D01*
X154808462Y-96332273D01*
X155041304Y-96099838D01*
X155167472Y-95795990D01*
X155167759Y-95466989D01*
X155135306Y-95388445D01*
X157843226Y-95388445D01*
X157968864Y-95692512D01*
X158201299Y-95925354D01*
X158505147Y-96051522D01*
X158834148Y-96051809D01*
X159138215Y-95926171D01*
X159371057Y-95693736D01*
X159427094Y-95558783D01*
X163919594Y-95558783D01*
X164045232Y-95862850D01*
X164277667Y-96095692D01*
X164581515Y-96221860D01*
X164910516Y-96222147D01*
X165214583Y-96096509D01*
X165447425Y-95864074D01*
X165573593Y-95560226D01*
X165573880Y-95231225D01*
X165540911Y-95151432D01*
X168183854Y-95151432D01*
X168309492Y-95455499D01*
X168541927Y-95688341D01*
X168845775Y-95814509D01*
X169174776Y-95814796D01*
X169478843Y-95689158D01*
X169711685Y-95456723D01*
X169837853Y-95152875D01*
X169838140Y-94823874D01*
X169712502Y-94519807D01*
X169480067Y-94286965D01*
X169176219Y-94160797D01*
X168847218Y-94160510D01*
X168543151Y-94286148D01*
X168310309Y-94518583D01*
X168184141Y-94822431D01*
X168183854Y-95151432D01*
X165540911Y-95151432D01*
X165448242Y-94927158D01*
X165215807Y-94694316D01*
X164911959Y-94568148D01*
X164582958Y-94567861D01*
X164278891Y-94693499D01*
X164046049Y-94925934D01*
X163919881Y-95229782D01*
X163919594Y-95558783D01*
X159427094Y-95558783D01*
X159497225Y-95389888D01*
X159497512Y-95060887D01*
X159371874Y-94756820D01*
X159139439Y-94523978D01*
X158835591Y-94397810D01*
X158506590Y-94397523D01*
X158202523Y-94523161D01*
X157969681Y-94755596D01*
X157843513Y-95059444D01*
X157843226Y-95388445D01*
X155135306Y-95388445D01*
X155042121Y-95162922D01*
X154809686Y-94930080D01*
X154505838Y-94803912D01*
X154176837Y-94803625D01*
X153872770Y-94929263D01*
X153639928Y-95161698D01*
X153513760Y-95465546D01*
X153513473Y-95794547D01*
X153038273Y-95794547D01*
X149820447Y-93649330D01*
X149750000Y-93628000D01*
X145000000Y-93628000D01*
X144953841Y-93636685D01*
X144911447Y-93663965D01*
X144883006Y-93705590D01*
X144873000Y-93755000D01*
X135752000Y-93755000D01*
X135752000Y-93163779D01*
X150172857Y-93163779D01*
X150298495Y-93467846D01*
X150530930Y-93700688D01*
X150834778Y-93826856D01*
X151163779Y-93827143D01*
X151467846Y-93701505D01*
X151670645Y-93499061D01*
X151704171Y-93580201D01*
X151936606Y-93813043D01*
X152240454Y-93939211D01*
X152569455Y-93939498D01*
X152873522Y-93813860D01*
X153106364Y-93581425D01*
X153232532Y-93277577D01*
X153232762Y-93013779D01*
X155397867Y-93013779D01*
X155523505Y-93317846D01*
X155755940Y-93550688D01*
X156059788Y-93676856D01*
X156388789Y-93677143D01*
X156692856Y-93551505D01*
X156913093Y-93331652D01*
X161647836Y-93331652D01*
X161773474Y-93635719D01*
X162005909Y-93868561D01*
X162309757Y-93994729D01*
X162638758Y-93995016D01*
X162942825Y-93869378D01*
X163175667Y-93636943D01*
X163268628Y-93413068D01*
X163455920Y-93600688D01*
X163759768Y-93726856D01*
X164088769Y-93727143D01*
X164392836Y-93601505D01*
X164625678Y-93369070D01*
X164751846Y-93065222D01*
X164752133Y-92736221D01*
X164746906Y-92723571D01*
X164879006Y-92668988D01*
X165111848Y-92436553D01*
X165238016Y-92132705D01*
X165238303Y-91803704D01*
X165112665Y-91499637D01*
X164880230Y-91266795D01*
X164576382Y-91140627D01*
X164247381Y-91140340D01*
X163943314Y-91265978D01*
X163710472Y-91498413D01*
X163584304Y-91802261D01*
X163584017Y-92131262D01*
X163589244Y-92143912D01*
X163457144Y-92198495D01*
X163224302Y-92430930D01*
X163131341Y-92654805D01*
X162944049Y-92467185D01*
X162640201Y-92341017D01*
X162311200Y-92340730D01*
X162007133Y-92466368D01*
X161774291Y-92698803D01*
X161648123Y-93002651D01*
X161647836Y-93331652D01*
X156913093Y-93331652D01*
X156925698Y-93319070D01*
X157051866Y-93015222D01*
X157052153Y-92686221D01*
X156957506Y-92457158D01*
X156995560Y-92472959D01*
X157324561Y-92473246D01*
X157628628Y-92347608D01*
X157861470Y-92115173D01*
X157987638Y-91811325D01*
X157987925Y-91482324D01*
X157862287Y-91178257D01*
X157629852Y-90945415D01*
X157326004Y-90819247D01*
X157067986Y-90819022D01*
X156951505Y-90537116D01*
X156767656Y-90352945D01*
X161513812Y-90352945D01*
X161639450Y-90657012D01*
X161871885Y-90889854D01*
X162175733Y-91016022D01*
X162504734Y-91016309D01*
X162808801Y-90890671D01*
X163041643Y-90658236D01*
X163167811Y-90354388D01*
X163168098Y-90025387D01*
X163042460Y-89721320D01*
X162810025Y-89488478D01*
X162506177Y-89362310D01*
X162177176Y-89362023D01*
X161873109Y-89487661D01*
X161640267Y-89720096D01*
X161514099Y-90023944D01*
X161513812Y-90352945D01*
X156767656Y-90352945D01*
X156719070Y-90304274D01*
X156415222Y-90178106D01*
X156086221Y-90177819D01*
X155782154Y-90303457D01*
X155549312Y-90535892D01*
X155423144Y-90839740D01*
X155422857Y-91168741D01*
X155548495Y-91472808D01*
X155780930Y-91705650D01*
X156084778Y-91831818D01*
X156342796Y-91832043D01*
X156428286Y-92038945D01*
X156390232Y-92023144D01*
X156061231Y-92022857D01*
X155757164Y-92148495D01*
X155524322Y-92380930D01*
X155398154Y-92684778D01*
X155397867Y-93013779D01*
X153232762Y-93013779D01*
X153232819Y-92948576D01*
X153107181Y-92644509D01*
X152874746Y-92411667D01*
X152586414Y-92291942D01*
X152586507Y-92185501D01*
X152460869Y-91881434D01*
X152228434Y-91648592D01*
X151924586Y-91522424D01*
X151595585Y-91522137D01*
X151291518Y-91647775D01*
X151058676Y-91880210D01*
X150937122Y-92172945D01*
X150836221Y-92172857D01*
X150532154Y-92298495D01*
X150299312Y-92530930D01*
X150173144Y-92834778D01*
X150172857Y-93163779D01*
X135752000Y-93163779D01*
X135752000Y-89763779D01*
X144772857Y-89763779D01*
X144898495Y-90067846D01*
X145130930Y-90300688D01*
X145434778Y-90426856D01*
X145763779Y-90427143D01*
X146067846Y-90301505D01*
X146300688Y-90069070D01*
X146426856Y-89765222D01*
X146426857Y-89763779D01*
X148872857Y-89763779D01*
X148998495Y-90067846D01*
X149230930Y-90300688D01*
X149534778Y-90426856D01*
X149863779Y-90427143D01*
X150167846Y-90301505D01*
X150400688Y-90069070D01*
X150526856Y-89765222D01*
X150527143Y-89436221D01*
X150401505Y-89132154D01*
X150169070Y-88899312D01*
X149865222Y-88773144D01*
X149536221Y-88772857D01*
X149232154Y-88898495D01*
X148999312Y-89130930D01*
X148873144Y-89434778D01*
X148872857Y-89763779D01*
X146426857Y-89763779D01*
X146427143Y-89436221D01*
X146301505Y-89132154D01*
X146069070Y-88899312D01*
X145765222Y-88773144D01*
X145436221Y-88772857D01*
X145132154Y-88898495D01*
X144899312Y-89130930D01*
X144773144Y-89434778D01*
X144772857Y-89763779D01*
X135752000Y-89763779D01*
X135752000Y-87787530D01*
X155447665Y-87787530D01*
X155573303Y-88091597D01*
X155630973Y-88149368D01*
X155574312Y-88205930D01*
X155448144Y-88509778D01*
X155447857Y-88838779D01*
X155573495Y-89142846D01*
X155805930Y-89375688D01*
X156109778Y-89501856D01*
X156438779Y-89502143D01*
X156742846Y-89376505D01*
X156975688Y-89144070D01*
X157101856Y-88840222D01*
X157102143Y-88511221D01*
X156976505Y-88207154D01*
X156938198Y-88168779D01*
X168172857Y-88168779D01*
X168298495Y-88472846D01*
X168530930Y-88705688D01*
X168834778Y-88831856D01*
X169163779Y-88832143D01*
X169467846Y-88706505D01*
X169700688Y-88474070D01*
X169826856Y-88170222D01*
X169827143Y-87841221D01*
X169701505Y-87537154D01*
X169469070Y-87304312D01*
X169165222Y-87178144D01*
X168836221Y-87177857D01*
X168532154Y-87303495D01*
X168299312Y-87535930D01*
X168173144Y-87839778D01*
X168172857Y-88168779D01*
X156938198Y-88168779D01*
X156918835Y-88149383D01*
X156975496Y-88092821D01*
X157101664Y-87788973D01*
X157101951Y-87459972D01*
X156994544Y-87200028D01*
X157100688Y-87094070D01*
X157226856Y-86790222D01*
X157227143Y-86461221D01*
X157101505Y-86157154D01*
X156869070Y-85924312D01*
X156565222Y-85798144D01*
X156236221Y-85797857D01*
X155932154Y-85923495D01*
X155699312Y-86155930D01*
X155573144Y-86459778D01*
X155572857Y-86788779D01*
X155680264Y-87048723D01*
X155574120Y-87154681D01*
X155447952Y-87458529D01*
X155447665Y-87787530D01*
X135752000Y-87787530D01*
X135752000Y-83702244D01*
X136164427Y-84115392D01*
X137515391Y-84676361D01*
X138978192Y-84677637D01*
X140330132Y-84119027D01*
X141365392Y-83085573D01*
X141371858Y-83070000D01*
X142594635Y-83070000D01*
X142594635Y-84570000D01*
X142624409Y-84728237D01*
X142717927Y-84873567D01*
X142860619Y-84971064D01*
X143030000Y-85005365D01*
X144530000Y-85005365D01*
X144688237Y-84975591D01*
X144833567Y-84882073D01*
X144931064Y-84739381D01*
X144965365Y-84570000D01*
X144965365Y-84053093D01*
X145142796Y-84053093D01*
X145321606Y-84485846D01*
X145652412Y-84817230D01*
X146084853Y-84996795D01*
X146553093Y-84997204D01*
X146985846Y-84818394D01*
X147317230Y-84487588D01*
X147496795Y-84055147D01*
X147496796Y-84053093D01*
X147682796Y-84053093D01*
X147861606Y-84485846D01*
X148192412Y-84817230D01*
X148624853Y-84996795D01*
X149093093Y-84997204D01*
X149525846Y-84818394D01*
X149857230Y-84487588D01*
X150036795Y-84055147D01*
X150036796Y-84053093D01*
X150222796Y-84053093D01*
X150401606Y-84485846D01*
X150732412Y-84817230D01*
X151164853Y-84996795D01*
X151633093Y-84997204D01*
X152065846Y-84818394D01*
X152092769Y-84791517D01*
X153148088Y-84791517D01*
X153216077Y-85032460D01*
X153735171Y-85217201D01*
X154285448Y-85189230D01*
X154663923Y-85032460D01*
X154681892Y-84968779D01*
X162422857Y-84968779D01*
X162548495Y-85272846D01*
X162780930Y-85505688D01*
X163084778Y-85631856D01*
X163413779Y-85632143D01*
X163717846Y-85506505D01*
X163950688Y-85274070D01*
X164076856Y-84970222D01*
X164077143Y-84641221D01*
X163951505Y-84337154D01*
X163719070Y-84104312D01*
X163415222Y-83978144D01*
X163086221Y-83977857D01*
X162782154Y-84103495D01*
X162549312Y-84335930D01*
X162423144Y-84639778D01*
X162422857Y-84968779D01*
X154681892Y-84968779D01*
X154731912Y-84791517D01*
X153940000Y-83999605D01*
X153148088Y-84791517D01*
X152092769Y-84791517D01*
X152397230Y-84487588D01*
X152566432Y-84080104D01*
X152570770Y-84165448D01*
X152727540Y-84543923D01*
X152968483Y-84611912D01*
X153760395Y-83820000D01*
X154119605Y-83820000D01*
X154911517Y-84611912D01*
X155152460Y-84543923D01*
X155337201Y-84024829D01*
X155309230Y-83474552D01*
X155152460Y-83096077D01*
X155055720Y-83068779D01*
X156872857Y-83068779D01*
X156998495Y-83372846D01*
X157230930Y-83605688D01*
X157534778Y-83731856D01*
X157863779Y-83732143D01*
X158167846Y-83606505D01*
X158240936Y-83533543D01*
X158298495Y-83672846D01*
X158530930Y-83905688D01*
X158834778Y-84031856D01*
X159163779Y-84032143D01*
X159467846Y-83906505D01*
X159700688Y-83674070D01*
X159826856Y-83370222D01*
X159827143Y-83041221D01*
X159701505Y-82737154D01*
X159469070Y-82504312D01*
X159165222Y-82378144D01*
X158836221Y-82377857D01*
X158532154Y-82503495D01*
X158459064Y-82576457D01*
X158401505Y-82437154D01*
X158169070Y-82204312D01*
X157865222Y-82078144D01*
X157536221Y-82077857D01*
X157232154Y-82203495D01*
X156999312Y-82435930D01*
X156873144Y-82739778D01*
X156872857Y-83068779D01*
X155055720Y-83068779D01*
X154911517Y-83028088D01*
X154119605Y-83820000D01*
X153760395Y-83820000D01*
X152968483Y-83028088D01*
X152727540Y-83096077D01*
X152564124Y-83555251D01*
X152398394Y-83154154D01*
X152067588Y-82822770D01*
X151635147Y-82643205D01*
X151166907Y-82642796D01*
X150734154Y-82821606D01*
X150402770Y-83152412D01*
X150223205Y-83584853D01*
X150222796Y-84053093D01*
X150036796Y-84053093D01*
X150037204Y-83586907D01*
X149858394Y-83154154D01*
X149527588Y-82822770D01*
X149120104Y-82653568D01*
X149205448Y-82649230D01*
X149583923Y-82492460D01*
X149651912Y-82251517D01*
X148860000Y-81459605D01*
X148068088Y-82251517D01*
X148136077Y-82492460D01*
X148595251Y-82655876D01*
X148194154Y-82821606D01*
X147862770Y-83152412D01*
X147683205Y-83584853D01*
X147682796Y-84053093D01*
X147496796Y-84053093D01*
X147497204Y-83586907D01*
X147318394Y-83154154D01*
X146987588Y-82822770D01*
X146555147Y-82643205D01*
X146086907Y-82642796D01*
X145654154Y-82821606D01*
X145322770Y-83152412D01*
X145143205Y-83584853D01*
X145142796Y-84053093D01*
X144965365Y-84053093D01*
X144965365Y-83070000D01*
X144935591Y-82911763D01*
X144842073Y-82766433D01*
X144699381Y-82668936D01*
X144530000Y-82634635D01*
X143030000Y-82634635D01*
X142871763Y-82664409D01*
X142726433Y-82757927D01*
X142628936Y-82900619D01*
X142594635Y-83070000D01*
X141371858Y-83070000D01*
X141926361Y-81734609D01*
X141927411Y-80530000D01*
X142594635Y-80530000D01*
X142594635Y-82030000D01*
X142624409Y-82188237D01*
X142717927Y-82333567D01*
X142860619Y-82431064D01*
X143030000Y-82465365D01*
X144530000Y-82465365D01*
X144688237Y-82435591D01*
X144833567Y-82342073D01*
X144931064Y-82199381D01*
X144965365Y-82030000D01*
X144965365Y-81513093D01*
X145142796Y-81513093D01*
X145321606Y-81945846D01*
X145652412Y-82277230D01*
X146084853Y-82456795D01*
X146553093Y-82457204D01*
X146985846Y-82278394D01*
X147317230Y-81947588D01*
X147486432Y-81540104D01*
X147490770Y-81625448D01*
X147647540Y-82003923D01*
X147888483Y-82071912D01*
X148680395Y-81280000D01*
X149039605Y-81280000D01*
X149831517Y-82071912D01*
X150072460Y-82003923D01*
X150235876Y-81544749D01*
X150401606Y-81945846D01*
X150732412Y-82277230D01*
X151164853Y-82456795D01*
X151633093Y-82457204D01*
X152065846Y-82278394D01*
X152397230Y-81947588D01*
X152576795Y-81515147D01*
X152576796Y-81513093D01*
X152762796Y-81513093D01*
X152941606Y-81945846D01*
X153272412Y-82277230D01*
X153679896Y-82446432D01*
X153594552Y-82450770D01*
X153216077Y-82607540D01*
X153148088Y-82848483D01*
X153940000Y-83640395D01*
X154731912Y-82848483D01*
X154663923Y-82607540D01*
X154204749Y-82444124D01*
X154605846Y-82278394D01*
X154937230Y-81947588D01*
X155116795Y-81515147D01*
X155116796Y-81513093D01*
X155302796Y-81513093D01*
X155481606Y-81945846D01*
X155812412Y-82277230D01*
X156244853Y-82456795D01*
X156713093Y-82457204D01*
X157145846Y-82278394D01*
X157477230Y-81947588D01*
X157656795Y-81515147D01*
X157657204Y-81046907D01*
X157478394Y-80614154D01*
X157147588Y-80282770D01*
X156715147Y-80103205D01*
X156246907Y-80102796D01*
X155814154Y-80281606D01*
X155482770Y-80612412D01*
X155303205Y-81044853D01*
X155302796Y-81513093D01*
X155116796Y-81513093D01*
X155117204Y-81046907D01*
X154938394Y-80614154D01*
X154607588Y-80282770D01*
X154175147Y-80103205D01*
X153706907Y-80102796D01*
X153274154Y-80281606D01*
X152942770Y-80612412D01*
X152763205Y-81044853D01*
X152762796Y-81513093D01*
X152576796Y-81513093D01*
X152577204Y-81046907D01*
X152398394Y-80614154D01*
X152067588Y-80282770D01*
X151635147Y-80103205D01*
X151166907Y-80102796D01*
X150734154Y-80281606D01*
X150402770Y-80612412D01*
X150233568Y-81019896D01*
X150229230Y-80934552D01*
X150072460Y-80556077D01*
X149831517Y-80488088D01*
X149039605Y-81280000D01*
X148680395Y-81280000D01*
X147888483Y-80488088D01*
X147647540Y-80556077D01*
X147484124Y-81015251D01*
X147318394Y-80614154D01*
X147013257Y-80308483D01*
X148068088Y-80308483D01*
X148860000Y-81100395D01*
X149651912Y-80308483D01*
X149583923Y-80067540D01*
X149064829Y-79882799D01*
X148514552Y-79910770D01*
X148136077Y-80067540D01*
X148068088Y-80308483D01*
X147013257Y-80308483D01*
X146987588Y-80282770D01*
X146555147Y-80103205D01*
X146086907Y-80102796D01*
X145654154Y-80281606D01*
X145322770Y-80612412D01*
X145143205Y-81044853D01*
X145142796Y-81513093D01*
X144965365Y-81513093D01*
X144965365Y-80530000D01*
X144935591Y-80371763D01*
X144842073Y-80226433D01*
X144699381Y-80128936D01*
X144530000Y-80094635D01*
X143030000Y-80094635D01*
X142871763Y-80124409D01*
X142726433Y-80217927D01*
X142628936Y-80360619D01*
X142594635Y-80530000D01*
X141927411Y-80530000D01*
X141927637Y-80271808D01*
X141369027Y-78919868D01*
X140951888Y-78502000D01*
X160233299Y-78502000D01*
X160199310Y-78535930D01*
X160199310Y-78535930D01*
G37*
X160199310Y-78535930D02*
X160073142Y-78839778D01*
X160072855Y-79168779D01*
X160198493Y-79472846D01*
X160430928Y-79705688D01*
X160734776Y-79831856D01*
X161063777Y-79832143D01*
X161201062Y-79775418D01*
X161430930Y-80005688D01*
X161734778Y-80131856D01*
X162063779Y-80132143D01*
X162214607Y-80069822D01*
X162298495Y-80272846D01*
X162530930Y-80505688D01*
X162834778Y-80631856D01*
X163163779Y-80632143D01*
X163467846Y-80506505D01*
X163700688Y-80274070D01*
X163826856Y-79970222D01*
X163827143Y-79641221D01*
X163701505Y-79337154D01*
X163469070Y-79104312D01*
X163165222Y-78978144D01*
X162836221Y-78977857D01*
X162685393Y-79040178D01*
X162601505Y-78837154D01*
X162369070Y-78604312D01*
X162122674Y-78502000D01*
X170873000Y-78502000D01*
X170873000Y-111755000D01*
X170883006Y-111804410D01*
X170911447Y-111846035D01*
X170943204Y-111868592D01*
X172873000Y-112833490D01*
X172873000Y-115499237D01*
X140947806Y-115502430D01*
X141365392Y-115085573D01*
X141926361Y-113734609D01*
X141926854Y-113168779D01*
X163322778Y-113168779D01*
X163448416Y-113472846D01*
X163680851Y-113705688D01*
X163984699Y-113831856D01*
X164313700Y-113832143D01*
X164617767Y-113706505D01*
X164850609Y-113474070D01*
X164976777Y-113170222D01*
X164977064Y-112841221D01*
X164851426Y-112537154D01*
X164618991Y-112304312D01*
X164315143Y-112178144D01*
X163986142Y-112177857D01*
X163682075Y-112303495D01*
X163449233Y-112535930D01*
X163323065Y-112839778D01*
X163322778Y-113168779D01*
X141926854Y-113168779D01*
X141927637Y-112271808D01*
X141369027Y-110919868D01*
X140868813Y-110418779D01*
X142422857Y-110418779D01*
X142548495Y-110722846D01*
X142780930Y-110955688D01*
X143084778Y-111081856D01*
X143413779Y-111082143D01*
X143588378Y-111010000D01*
X145134635Y-111010000D01*
X145134635Y-112510000D01*
X145164409Y-112668237D01*
X145257927Y-112813567D01*
X145400619Y-112911064D01*
X145570000Y-112945365D01*
X147070000Y-112945365D01*
X147228237Y-112915591D01*
X147373567Y-112822073D01*
X147471064Y-112679381D01*
X147505365Y-112510000D01*
X147505365Y-111993093D01*
X147682796Y-111993093D01*
X147861606Y-112425846D01*
X148192412Y-112757230D01*
X148624853Y-112936795D01*
X149093093Y-112937204D01*
X149525846Y-112758394D01*
X149857230Y-112427588D01*
X150036795Y-111995147D01*
X150036796Y-111993093D01*
X150222796Y-111993093D01*
X150401606Y-112425846D01*
X150732412Y-112757230D01*
X151164853Y-112936795D01*
X151633093Y-112937204D01*
X152065846Y-112758394D01*
X152397230Y-112427588D01*
X152576795Y-111995147D01*
X152576796Y-111993093D01*
X152762796Y-111993093D01*
X152941606Y-112425846D01*
X153272412Y-112757230D01*
X153704853Y-112936795D01*
X154173093Y-112937204D01*
X154605846Y-112758394D01*
X154632769Y-112731517D01*
X155688088Y-112731517D01*
X155756077Y-112972460D01*
X156275171Y-113157201D01*
X156825448Y-113129230D01*
X157203923Y-112972460D01*
X157271912Y-112731517D01*
X156480000Y-111939605D01*
X155688088Y-112731517D01*
X154632769Y-112731517D01*
X154937230Y-112427588D01*
X155106432Y-112020104D01*
X155110770Y-112105448D01*
X155267540Y-112483923D01*
X155508483Y-112551912D01*
X156300395Y-111760000D01*
X155508483Y-110968088D01*
X155267540Y-111036077D01*
X155104124Y-111495251D01*
X154938394Y-111094154D01*
X154633257Y-110788483D01*
X155688088Y-110788483D01*
X156480000Y-111580395D01*
X156494143Y-111566253D01*
X156673748Y-111745858D01*
X156659605Y-111760000D01*
X157451517Y-112551912D01*
X157692460Y-112483923D01*
X157877201Y-111964829D01*
X157849230Y-111414552D01*
X157710920Y-111080643D01*
X157730930Y-111100688D01*
X158034778Y-111226856D01*
X158363779Y-111227143D01*
X158667846Y-111101505D01*
X158900688Y-110869070D01*
X159026856Y-110565222D01*
X159027143Y-110236221D01*
X158901505Y-109932154D01*
X158669070Y-109699312D01*
X158365222Y-109573144D01*
X158036221Y-109572857D01*
X157732154Y-109698495D01*
X157499312Y-109930930D01*
X157373144Y-110234778D01*
X157372857Y-110563779D01*
X157440129Y-110726589D01*
X157386966Y-110673426D01*
X157271911Y-110788481D01*
X157203923Y-110547540D01*
X156684829Y-110362799D01*
X156134552Y-110390770D01*
X155756077Y-110547540D01*
X155688088Y-110788483D01*
X154633257Y-110788483D01*
X154607588Y-110762770D01*
X154175147Y-110583205D01*
X153706907Y-110582796D01*
X153274154Y-110761606D01*
X152942770Y-111092412D01*
X152763205Y-111524853D01*
X152762796Y-111993093D01*
X152576796Y-111993093D01*
X152577204Y-111526907D01*
X152398394Y-111094154D01*
X152067588Y-110762770D01*
X151635147Y-110583205D01*
X151166907Y-110582796D01*
X150734154Y-110761606D01*
X150402770Y-111092412D01*
X150223205Y-111524853D01*
X150222796Y-111993093D01*
X150036796Y-111993093D01*
X150037204Y-111526907D01*
X149858394Y-111094154D01*
X149527588Y-110762770D01*
X149095147Y-110583205D01*
X148626907Y-110582796D01*
X148194154Y-110761606D01*
X147862770Y-111092412D01*
X147683205Y-111524853D01*
X147682796Y-111993093D01*
X147505365Y-111993093D01*
X147505365Y-111010000D01*
X147475591Y-110851763D01*
X147382073Y-110706433D01*
X147239381Y-110608936D01*
X147070000Y-110574635D01*
X145570000Y-110574635D01*
X145411763Y-110604409D01*
X145266433Y-110697927D01*
X145168936Y-110840619D01*
X145134635Y-111010000D01*
X143588378Y-111010000D01*
X143717846Y-110956505D01*
X143950688Y-110724070D01*
X144076856Y-110420222D01*
X144077143Y-110091221D01*
X143951505Y-109787154D01*
X143719070Y-109554312D01*
X143415222Y-109428144D01*
X143086221Y-109427857D01*
X142782154Y-109553495D01*
X142549312Y-109785930D01*
X142423144Y-110089778D01*
X142422857Y-110418779D01*
X140868813Y-110418779D01*
X140335573Y-109884608D01*
X138984609Y-109323639D01*
X137521808Y-109322363D01*
X136169868Y-109880973D01*
X135752000Y-110298112D01*
X135752000Y-107413779D01*
X150672857Y-107413779D01*
X150798495Y-107717846D01*
X151030930Y-107950688D01*
X151334778Y-108076856D01*
X151663779Y-108077143D01*
X151967846Y-107951505D01*
X152200688Y-107719070D01*
X152249966Y-107600396D01*
X152298495Y-107717846D01*
X152530930Y-107950688D01*
X152834778Y-108076856D01*
X153163779Y-108077143D01*
X153467846Y-107951505D01*
X153700688Y-107719070D01*
X153710610Y-107695175D01*
X158566780Y-107695175D01*
X158692418Y-107999242D01*
X158924853Y-108232084D01*
X159228701Y-108358252D01*
X159557702Y-108358539D01*
X159861769Y-108232901D01*
X160072225Y-108022813D01*
X160229845Y-108180709D01*
X160533693Y-108306877D01*
X160862694Y-108307164D01*
X160870886Y-108303779D01*
X167132857Y-108303779D01*
X167258495Y-108607846D01*
X167490930Y-108840688D01*
X167794778Y-108966856D01*
X168123779Y-108967143D01*
X168427846Y-108841505D01*
X168660688Y-108609070D01*
X168786856Y-108305222D01*
X168787143Y-107976221D01*
X168661505Y-107672154D01*
X168429070Y-107439312D01*
X168125222Y-107313144D01*
X167796221Y-107312857D01*
X167492154Y-107438495D01*
X167259312Y-107670930D01*
X167133144Y-107974778D01*
X167132857Y-108303779D01*
X160870886Y-108303779D01*
X161166761Y-108181526D01*
X161399603Y-107949091D01*
X161525771Y-107645243D01*
X161526058Y-107316242D01*
X161459416Y-107154956D01*
X168416714Y-107154956D01*
X168542352Y-107459023D01*
X168774787Y-107691865D01*
X169078635Y-107818033D01*
X169407636Y-107818320D01*
X169711703Y-107692682D01*
X169944545Y-107460247D01*
X170070713Y-107156399D01*
X170071000Y-106827398D01*
X169945362Y-106523331D01*
X169712927Y-106290489D01*
X169409079Y-106164321D01*
X169080078Y-106164034D01*
X168776011Y-106289672D01*
X168543169Y-106522107D01*
X168417001Y-106825955D01*
X168416714Y-107154956D01*
X161459416Y-107154956D01*
X161400420Y-107012175D01*
X161167985Y-106779333D01*
X160864137Y-106653165D01*
X160535136Y-106652878D01*
X160231069Y-106778516D01*
X160020613Y-106988604D01*
X159862993Y-106830708D01*
X159559145Y-106704540D01*
X159230144Y-106704253D01*
X158926077Y-106829891D01*
X158693235Y-107062326D01*
X158567067Y-107366174D01*
X158566780Y-107695175D01*
X153710610Y-107695175D01*
X153826856Y-107415222D01*
X153827143Y-107086221D01*
X153701505Y-106782154D01*
X153469070Y-106549312D01*
X153165222Y-106423144D01*
X152836221Y-106422857D01*
X152532154Y-106548495D01*
X152299312Y-106780930D01*
X152250034Y-106899604D01*
X152201505Y-106782154D01*
X151969070Y-106549312D01*
X151665222Y-106423144D01*
X151336221Y-106422857D01*
X151032154Y-106548495D01*
X150799312Y-106780930D01*
X150673144Y-107084778D01*
X150672857Y-107413779D01*
X135752000Y-107413779D01*
X135752000Y-106663779D01*
X145672857Y-106663779D01*
X145798495Y-106967846D01*
X146030930Y-107200688D01*
X146334778Y-107326856D01*
X146663779Y-107327143D01*
X146967846Y-107201505D01*
X147200688Y-106969070D01*
X147326856Y-106665222D01*
X147327143Y-106336221D01*
X147201505Y-106032154D01*
X146969070Y-105799312D01*
X146665222Y-105673144D01*
X146336221Y-105672857D01*
X146032154Y-105798495D01*
X145799312Y-106030930D01*
X145673144Y-106334778D01*
X145672857Y-106663779D01*
X135752000Y-106663779D01*
X135752000Y-105668779D01*
X152672857Y-105668779D01*
X152798495Y-105972846D01*
X153030930Y-106205688D01*
X153334778Y-106331856D01*
X153663779Y-106332143D01*
X153967846Y-106206505D01*
X154200688Y-105974070D01*
X154244408Y-105868779D01*
X157872857Y-105868779D01*
X157998495Y-106172846D01*
X158230930Y-106405688D01*
X158534778Y-106531856D01*
X158863779Y-106532143D01*
X159167846Y-106406505D01*
X159252527Y-106321972D01*
X159430930Y-106500688D01*
X159734778Y-106626856D01*
X160063779Y-106627143D01*
X160367846Y-106501505D01*
X160600688Y-106269070D01*
X160726856Y-105965222D01*
X160727114Y-105668779D01*
X160772857Y-105668779D01*
X160898495Y-105972846D01*
X161130930Y-106205688D01*
X161434778Y-106331856D01*
X161763779Y-106332143D01*
X162067846Y-106206505D01*
X162300688Y-105974070D01*
X162426856Y-105670222D01*
X162427143Y-105341221D01*
X162417099Y-105316912D01*
X162568270Y-105468348D01*
X162872118Y-105594516D01*
X163201119Y-105594803D01*
X163505186Y-105469165D01*
X163738028Y-105236730D01*
X163864196Y-104932882D01*
X163864483Y-104603881D01*
X163738845Y-104299814D01*
X163506410Y-104066972D01*
X163202562Y-103940804D01*
X163095279Y-103940710D01*
X163220055Y-103640214D01*
X163220342Y-103311213D01*
X163094704Y-103007146D01*
X162862269Y-102774304D01*
X162558421Y-102648136D01*
X162229420Y-102647849D01*
X161925353Y-102773487D01*
X161692511Y-103005922D01*
X161566343Y-103309770D01*
X161566056Y-103638771D01*
X161691694Y-103942838D01*
X161924129Y-104175680D01*
X162227977Y-104301848D01*
X162335260Y-104301942D01*
X162210484Y-104602438D01*
X162210197Y-104931439D01*
X162220241Y-104955748D01*
X162069070Y-104804312D01*
X161765222Y-104678144D01*
X161436221Y-104677857D01*
X161132154Y-104803495D01*
X160899312Y-105035930D01*
X160773144Y-105339778D01*
X160772857Y-105668779D01*
X160727114Y-105668779D01*
X160727143Y-105636221D01*
X160601505Y-105332154D01*
X160369070Y-105099312D01*
X160065222Y-104973144D01*
X159736221Y-104972857D01*
X159432154Y-105098495D01*
X159347473Y-105183028D01*
X159169070Y-105004312D01*
X158865222Y-104878144D01*
X158536221Y-104877857D01*
X158232154Y-105003495D01*
X157999312Y-105235930D01*
X157873144Y-105539778D01*
X157872857Y-105868779D01*
X154244408Y-105868779D01*
X154326856Y-105670222D01*
X154327143Y-105341221D01*
X154201505Y-105037154D01*
X153969070Y-104804312D01*
X153665222Y-104678144D01*
X153336221Y-104677857D01*
X153032154Y-104803495D01*
X152799312Y-105035930D01*
X152673144Y-105339778D01*
X152672857Y-105668779D01*
X135752000Y-105668779D01*
X135752000Y-102418779D01*
X141922859Y-102418779D01*
X142048497Y-102722846D01*
X142280932Y-102955688D01*
X142584780Y-103081856D01*
X142913781Y-103082143D01*
X143217848Y-102956505D01*
X143450690Y-102724070D01*
X143576858Y-102420222D01*
X143577145Y-102091221D01*
X143451507Y-101787154D01*
X143219072Y-101554312D01*
X142915224Y-101428144D01*
X142586223Y-101427857D01*
X142282156Y-101553495D01*
X142049314Y-101785930D01*
X141923146Y-102089778D01*
X141922859Y-102418779D01*
X135752000Y-102418779D01*
X135752000Y-100663779D01*
X148772857Y-100663779D01*
X148898495Y-100967846D01*
X149130930Y-101200688D01*
X149434778Y-101326856D01*
X149763779Y-101327143D01*
X150067846Y-101201505D01*
X150300688Y-100969070D01*
X150426856Y-100665222D01*
X150427143Y-100336221D01*
X150355892Y-100163779D01*
X151222857Y-100163779D01*
X151348495Y-100467846D01*
X151580930Y-100700688D01*
X151884778Y-100826856D01*
X152213779Y-100827143D01*
X152280886Y-100799415D01*
X152249316Y-100830930D01*
X152123148Y-101134778D01*
X152122861Y-101463779D01*
X152248499Y-101767846D01*
X152480934Y-102000688D01*
X152723086Y-102101238D01*
X152722857Y-102363779D01*
X152848495Y-102667846D01*
X153080930Y-102900688D01*
X153384778Y-103026856D01*
X153422976Y-103026889D01*
X153422857Y-103163779D01*
X153548495Y-103467846D01*
X153780930Y-103700688D01*
X154084778Y-103826856D01*
X154413779Y-103827143D01*
X154717846Y-103701505D01*
X154950688Y-103469070D01*
X155076856Y-103165222D01*
X155077143Y-102836221D01*
X154951505Y-102532154D01*
X154719070Y-102299312D01*
X154415222Y-102173144D01*
X154377024Y-102173111D01*
X154377143Y-102036221D01*
X154251505Y-101732154D01*
X154019070Y-101499312D01*
X153776918Y-101398762D01*
X153777147Y-101136221D01*
X153651509Y-100832154D01*
X153419074Y-100599312D01*
X153115226Y-100473144D01*
X152786225Y-100472857D01*
X152719118Y-100500585D01*
X152750688Y-100469070D01*
X152876856Y-100165222D01*
X152876868Y-100151119D01*
X157185517Y-100151119D01*
X157311155Y-100455186D01*
X157543590Y-100688028D01*
X157847438Y-100814196D01*
X158176439Y-100814483D01*
X158480506Y-100688845D01*
X158660271Y-100509395D01*
X158834778Y-100581856D01*
X159163779Y-100582143D01*
X159467846Y-100456505D01*
X159700688Y-100224070D01*
X159826856Y-99920222D01*
X159827143Y-99591221D01*
X159701505Y-99287154D01*
X159469070Y-99054312D01*
X159232895Y-98956244D01*
X159449064Y-98866925D01*
X159681906Y-98634490D01*
X159808074Y-98330642D01*
X159808361Y-98001641D01*
X159682723Y-97697574D01*
X159450288Y-97464732D01*
X159146440Y-97338564D01*
X158817439Y-97338277D01*
X158513372Y-97463915D01*
X158280530Y-97696350D01*
X158154362Y-98000198D01*
X158154075Y-98329199D01*
X158279713Y-98633266D01*
X158512148Y-98866108D01*
X158748323Y-98964176D01*
X158532154Y-99053495D01*
X158352389Y-99232945D01*
X158177882Y-99160484D01*
X157848881Y-99160197D01*
X157544814Y-99285835D01*
X157311972Y-99518270D01*
X157185804Y-99822118D01*
X157185517Y-100151119D01*
X152876868Y-100151119D01*
X152877143Y-99836221D01*
X152751505Y-99532154D01*
X152519070Y-99299312D01*
X152215222Y-99173144D01*
X151886221Y-99172857D01*
X151582154Y-99298495D01*
X151349312Y-99530930D01*
X151223144Y-99834778D01*
X151222857Y-100163779D01*
X150355892Y-100163779D01*
X150321878Y-100081461D01*
X150412291Y-99991206D01*
X150538459Y-99687358D01*
X150538746Y-99358357D01*
X150413108Y-99054290D01*
X150180673Y-98821448D01*
X149876825Y-98695280D01*
X149547824Y-98694993D01*
X149243757Y-98820631D01*
X149010915Y-99053066D01*
X148884747Y-99356914D01*
X148884460Y-99685915D01*
X148989725Y-99940675D01*
X148899312Y-100030930D01*
X148773144Y-100334778D01*
X148772857Y-100663779D01*
X135752000Y-100663779D01*
X135752000Y-99163779D01*
X141922857Y-99163779D01*
X142048495Y-99467846D01*
X142280930Y-99700688D01*
X142584778Y-99826856D01*
X142913779Y-99827143D01*
X143217846Y-99701505D01*
X143450688Y-99469070D01*
X143576856Y-99165222D01*
X143577143Y-98836221D01*
X143505892Y-98663779D01*
X153472718Y-98663779D01*
X153598356Y-98967846D01*
X153830791Y-99200688D01*
X154134639Y-99326856D01*
X154463640Y-99327143D01*
X154767707Y-99201505D01*
X155000549Y-98969070D01*
X155126717Y-98665222D01*
X155127004Y-98336221D01*
X155001366Y-98032154D01*
X154768931Y-97799312D01*
X154465083Y-97673144D01*
X154136082Y-97672857D01*
X153832015Y-97798495D01*
X153599173Y-98030930D01*
X153473005Y-98334778D01*
X153472718Y-98663779D01*
X143505892Y-98663779D01*
X143451505Y-98532154D01*
X143219070Y-98299312D01*
X142915222Y-98173144D01*
X142586221Y-98172857D01*
X142282154Y-98298495D01*
X142049312Y-98530930D01*
X141923144Y-98834778D01*
X141922857Y-99163779D01*
X135752000Y-99163779D01*
X135752000Y-96413779D01*
X139422857Y-96413779D01*
X139548495Y-96717846D01*
X139780930Y-96950688D01*
X140084778Y-97076856D01*
X140413779Y-97077143D01*
X140717846Y-96951505D01*
X140950688Y-96719070D01*
X141076856Y-96415222D01*
X141077143Y-96086221D01*
X140951505Y-95782154D01*
X140719070Y-95549312D01*
X140415222Y-95423144D01*
X140086221Y-95422857D01*
X139782154Y-95548495D01*
X139549312Y-95780930D01*
X139423144Y-96084778D01*
X139422857Y-96413779D01*
X135752000Y-96413779D01*
X135752000Y-93755000D01*
X144873000Y-93755000D01*
X144873000Y-97505000D01*
X144881685Y-97551159D01*
X144908965Y-97593553D01*
X144950590Y-97621994D01*
X145000000Y-97632000D01*
X153500000Y-97632000D01*
X153546159Y-97623315D01*
X153588553Y-97596035D01*
X153616994Y-97554410D01*
X153627000Y-97505000D01*
X153627000Y-96918779D01*
X167172849Y-96918779D01*
X167298487Y-97222846D01*
X167530922Y-97455688D01*
X167834770Y-97581856D01*
X168163771Y-97582143D01*
X168467838Y-97456505D01*
X168700680Y-97224070D01*
X168826848Y-96920222D01*
X168827135Y-96591221D01*
X168701497Y-96287154D01*
X168469062Y-96054312D01*
X168165214Y-95928144D01*
X167836213Y-95927857D01*
X167532146Y-96053495D01*
X167299304Y-96285930D01*
X167173136Y-96589778D01*
X167172849Y-96918779D01*
X153627000Y-96918779D01*
X153627000Y-96255000D01*
X153606008Y-96185063D01*
X153570447Y-96149330D01*
X153038273Y-95794547D01*
X153513473Y-95794547D01*
X153639111Y-96098614D01*
X153871546Y-96331456D01*
X154175394Y-96457624D01*
X154504395Y-96457911D01*
X154808462Y-96332273D01*
X155041304Y-96099838D01*
X155167472Y-95795990D01*
X155167759Y-95466989D01*
X155135306Y-95388445D01*
X157843226Y-95388445D01*
X157968864Y-95692512D01*
X158201299Y-95925354D01*
X158505147Y-96051522D01*
X158834148Y-96051809D01*
X159138215Y-95926171D01*
X159371057Y-95693736D01*
X159427094Y-95558783D01*
X163919594Y-95558783D01*
X164045232Y-95862850D01*
X164277667Y-96095692D01*
X164581515Y-96221860D01*
X164910516Y-96222147D01*
X165214583Y-96096509D01*
X165447425Y-95864074D01*
X165573593Y-95560226D01*
X165573880Y-95231225D01*
X165540911Y-95151432D01*
X168183854Y-95151432D01*
X168309492Y-95455499D01*
X168541927Y-95688341D01*
X168845775Y-95814509D01*
X169174776Y-95814796D01*
X169478843Y-95689158D01*
X169711685Y-95456723D01*
X169837853Y-95152875D01*
X169838140Y-94823874D01*
X169712502Y-94519807D01*
X169480067Y-94286965D01*
X169176219Y-94160797D01*
X168847218Y-94160510D01*
X168543151Y-94286148D01*
X168310309Y-94518583D01*
X168184141Y-94822431D01*
X168183854Y-95151432D01*
X165540911Y-95151432D01*
X165448242Y-94927158D01*
X165215807Y-94694316D01*
X164911959Y-94568148D01*
X164582958Y-94567861D01*
X164278891Y-94693499D01*
X164046049Y-94925934D01*
X163919881Y-95229782D01*
X163919594Y-95558783D01*
X159427094Y-95558783D01*
X159497225Y-95389888D01*
X159497512Y-95060887D01*
X159371874Y-94756820D01*
X159139439Y-94523978D01*
X158835591Y-94397810D01*
X158506590Y-94397523D01*
X158202523Y-94523161D01*
X157969681Y-94755596D01*
X157843513Y-95059444D01*
X157843226Y-95388445D01*
X155135306Y-95388445D01*
X155042121Y-95162922D01*
X154809686Y-94930080D01*
X154505838Y-94803912D01*
X154176837Y-94803625D01*
X153872770Y-94929263D01*
X153639928Y-95161698D01*
X153513760Y-95465546D01*
X153513473Y-95794547D01*
X153038273Y-95794547D01*
X149820447Y-93649330D01*
X149750000Y-93628000D01*
X145000000Y-93628000D01*
X144953841Y-93636685D01*
X144911447Y-93663965D01*
X144883006Y-93705590D01*
X144873000Y-93755000D01*
X135752000Y-93755000D01*
X135752000Y-93163779D01*
X150172857Y-93163779D01*
X150298495Y-93467846D01*
X150530930Y-93700688D01*
X150834778Y-93826856D01*
X151163779Y-93827143D01*
X151467846Y-93701505D01*
X151670645Y-93499061D01*
X151704171Y-93580201D01*
X151936606Y-93813043D01*
X152240454Y-93939211D01*
X152569455Y-93939498D01*
X152873522Y-93813860D01*
X153106364Y-93581425D01*
X153232532Y-93277577D01*
X153232762Y-93013779D01*
X155397867Y-93013779D01*
X155523505Y-93317846D01*
X155755940Y-93550688D01*
X156059788Y-93676856D01*
X156388789Y-93677143D01*
X156692856Y-93551505D01*
X156913093Y-93331652D01*
X161647836Y-93331652D01*
X161773474Y-93635719D01*
X162005909Y-93868561D01*
X162309757Y-93994729D01*
X162638758Y-93995016D01*
X162942825Y-93869378D01*
X163175667Y-93636943D01*
X163268628Y-93413068D01*
X163455920Y-93600688D01*
X163759768Y-93726856D01*
X164088769Y-93727143D01*
X164392836Y-93601505D01*
X164625678Y-93369070D01*
X164751846Y-93065222D01*
X164752133Y-92736221D01*
X164746906Y-92723571D01*
X164879006Y-92668988D01*
X165111848Y-92436553D01*
X165238016Y-92132705D01*
X165238303Y-91803704D01*
X165112665Y-91499637D01*
X164880230Y-91266795D01*
X164576382Y-91140627D01*
X164247381Y-91140340D01*
X163943314Y-91265978D01*
X163710472Y-91498413D01*
X163584304Y-91802261D01*
X163584017Y-92131262D01*
X163589244Y-92143912D01*
X163457144Y-92198495D01*
X163224302Y-92430930D01*
X163131341Y-92654805D01*
X162944049Y-92467185D01*
X162640201Y-92341017D01*
X162311200Y-92340730D01*
X162007133Y-92466368D01*
X161774291Y-92698803D01*
X161648123Y-93002651D01*
X161647836Y-93331652D01*
X156913093Y-93331652D01*
X156925698Y-93319070D01*
X157051866Y-93015222D01*
X157052153Y-92686221D01*
X156957506Y-92457158D01*
X156995560Y-92472959D01*
X157324561Y-92473246D01*
X157628628Y-92347608D01*
X157861470Y-92115173D01*
X157987638Y-91811325D01*
X157987925Y-91482324D01*
X157862287Y-91178257D01*
X157629852Y-90945415D01*
X157326004Y-90819247D01*
X157067986Y-90819022D01*
X156951505Y-90537116D01*
X156767656Y-90352945D01*
X161513812Y-90352945D01*
X161639450Y-90657012D01*
X161871885Y-90889854D01*
X162175733Y-91016022D01*
X162504734Y-91016309D01*
X162808801Y-90890671D01*
X163041643Y-90658236D01*
X163167811Y-90354388D01*
X163168098Y-90025387D01*
X163042460Y-89721320D01*
X162810025Y-89488478D01*
X162506177Y-89362310D01*
X162177176Y-89362023D01*
X161873109Y-89487661D01*
X161640267Y-89720096D01*
X161514099Y-90023944D01*
X161513812Y-90352945D01*
X156767656Y-90352945D01*
X156719070Y-90304274D01*
X156415222Y-90178106D01*
X156086221Y-90177819D01*
X155782154Y-90303457D01*
X155549312Y-90535892D01*
X155423144Y-90839740D01*
X155422857Y-91168741D01*
X155548495Y-91472808D01*
X155780930Y-91705650D01*
X156084778Y-91831818D01*
X156342796Y-91832043D01*
X156428286Y-92038945D01*
X156390232Y-92023144D01*
X156061231Y-92022857D01*
X155757164Y-92148495D01*
X155524322Y-92380930D01*
X155398154Y-92684778D01*
X155397867Y-93013779D01*
X153232762Y-93013779D01*
X153232819Y-92948576D01*
X153107181Y-92644509D01*
X152874746Y-92411667D01*
X152586414Y-92291942D01*
X152586507Y-92185501D01*
X152460869Y-91881434D01*
X152228434Y-91648592D01*
X151924586Y-91522424D01*
X151595585Y-91522137D01*
X151291518Y-91647775D01*
X151058676Y-91880210D01*
X150937122Y-92172945D01*
X150836221Y-92172857D01*
X150532154Y-92298495D01*
X150299312Y-92530930D01*
X150173144Y-92834778D01*
X150172857Y-93163779D01*
X135752000Y-93163779D01*
X135752000Y-89763779D01*
X144772857Y-89763779D01*
X144898495Y-90067846D01*
X145130930Y-90300688D01*
X145434778Y-90426856D01*
X145763779Y-90427143D01*
X146067846Y-90301505D01*
X146300688Y-90069070D01*
X146426856Y-89765222D01*
X146426857Y-89763779D01*
X148872857Y-89763779D01*
X148998495Y-90067846D01*
X149230930Y-90300688D01*
X149534778Y-90426856D01*
X149863779Y-90427143D01*
X150167846Y-90301505D01*
X150400688Y-90069070D01*
X150526856Y-89765222D01*
X150527143Y-89436221D01*
X150401505Y-89132154D01*
X150169070Y-88899312D01*
X149865222Y-88773144D01*
X149536221Y-88772857D01*
X149232154Y-88898495D01*
X148999312Y-89130930D01*
X148873144Y-89434778D01*
X148872857Y-89763779D01*
X146426857Y-89763779D01*
X146427143Y-89436221D01*
X146301505Y-89132154D01*
X146069070Y-88899312D01*
X145765222Y-88773144D01*
X145436221Y-88772857D01*
X145132154Y-88898495D01*
X144899312Y-89130930D01*
X144773144Y-89434778D01*
X144772857Y-89763779D01*
X135752000Y-89763779D01*
X135752000Y-87787530D01*
X155447665Y-87787530D01*
X155573303Y-88091597D01*
X155630973Y-88149368D01*
X155574312Y-88205930D01*
X155448144Y-88509778D01*
X155447857Y-88838779D01*
X155573495Y-89142846D01*
X155805930Y-89375688D01*
X156109778Y-89501856D01*
X156438779Y-89502143D01*
X156742846Y-89376505D01*
X156975688Y-89144070D01*
X157101856Y-88840222D01*
X157102143Y-88511221D01*
X156976505Y-88207154D01*
X156938198Y-88168779D01*
X168172857Y-88168779D01*
X168298495Y-88472846D01*
X168530930Y-88705688D01*
X168834778Y-88831856D01*
X169163779Y-88832143D01*
X169467846Y-88706505D01*
X169700688Y-88474070D01*
X169826856Y-88170222D01*
X169827143Y-87841221D01*
X169701505Y-87537154D01*
X169469070Y-87304312D01*
X169165222Y-87178144D01*
X168836221Y-87177857D01*
X168532154Y-87303495D01*
X168299312Y-87535930D01*
X168173144Y-87839778D01*
X168172857Y-88168779D01*
X156938198Y-88168779D01*
X156918835Y-88149383D01*
X156975496Y-88092821D01*
X157101664Y-87788973D01*
X157101951Y-87459972D01*
X156994544Y-87200028D01*
X157100688Y-87094070D01*
X157226856Y-86790222D01*
X157227143Y-86461221D01*
X157101505Y-86157154D01*
X156869070Y-85924312D01*
X156565222Y-85798144D01*
X156236221Y-85797857D01*
X155932154Y-85923495D01*
X155699312Y-86155930D01*
X155573144Y-86459778D01*
X155572857Y-86788779D01*
X155680264Y-87048723D01*
X155574120Y-87154681D01*
X155447952Y-87458529D01*
X155447665Y-87787530D01*
X135752000Y-87787530D01*
X135752000Y-83702244D01*
X136164427Y-84115392D01*
X137515391Y-84676361D01*
X138978192Y-84677637D01*
X140330132Y-84119027D01*
X141365392Y-83085573D01*
X141371858Y-83070000D01*
X142594635Y-83070000D01*
X142594635Y-84570000D01*
X142624409Y-84728237D01*
X142717927Y-84873567D01*
X142860619Y-84971064D01*
X143030000Y-85005365D01*
X144530000Y-85005365D01*
X144688237Y-84975591D01*
X144833567Y-84882073D01*
X144931064Y-84739381D01*
X144965365Y-84570000D01*
X144965365Y-84053093D01*
X145142796Y-84053093D01*
X145321606Y-84485846D01*
X145652412Y-84817230D01*
X146084853Y-84996795D01*
X146553093Y-84997204D01*
X146985846Y-84818394D01*
X147317230Y-84487588D01*
X147496795Y-84055147D01*
X147496796Y-84053093D01*
X147682796Y-84053093D01*
X147861606Y-84485846D01*
X148192412Y-84817230D01*
X148624853Y-84996795D01*
X149093093Y-84997204D01*
X149525846Y-84818394D01*
X149857230Y-84487588D01*
X150036795Y-84055147D01*
X150036796Y-84053093D01*
X150222796Y-84053093D01*
X150401606Y-84485846D01*
X150732412Y-84817230D01*
X151164853Y-84996795D01*
X151633093Y-84997204D01*
X152065846Y-84818394D01*
X152092769Y-84791517D01*
X153148088Y-84791517D01*
X153216077Y-85032460D01*
X153735171Y-85217201D01*
X154285448Y-85189230D01*
X154663923Y-85032460D01*
X154681892Y-84968779D01*
X162422857Y-84968779D01*
X162548495Y-85272846D01*
X162780930Y-85505688D01*
X163084778Y-85631856D01*
X163413779Y-85632143D01*
X163717846Y-85506505D01*
X163950688Y-85274070D01*
X164076856Y-84970222D01*
X164077143Y-84641221D01*
X163951505Y-84337154D01*
X163719070Y-84104312D01*
X163415222Y-83978144D01*
X163086221Y-83977857D01*
X162782154Y-84103495D01*
X162549312Y-84335930D01*
X162423144Y-84639778D01*
X162422857Y-84968779D01*
X154681892Y-84968779D01*
X154731912Y-84791517D01*
X153940000Y-83999605D01*
X153148088Y-84791517D01*
X152092769Y-84791517D01*
X152397230Y-84487588D01*
X152566432Y-84080104D01*
X152570770Y-84165448D01*
X152727540Y-84543923D01*
X152968483Y-84611912D01*
X153760395Y-83820000D01*
X154119605Y-83820000D01*
X154911517Y-84611912D01*
X155152460Y-84543923D01*
X155337201Y-84024829D01*
X155309230Y-83474552D01*
X155152460Y-83096077D01*
X155055720Y-83068779D01*
X156872857Y-83068779D01*
X156998495Y-83372846D01*
X157230930Y-83605688D01*
X157534778Y-83731856D01*
X157863779Y-83732143D01*
X158167846Y-83606505D01*
X158240936Y-83533543D01*
X158298495Y-83672846D01*
X158530930Y-83905688D01*
X158834778Y-84031856D01*
X159163779Y-84032143D01*
X159467846Y-83906505D01*
X159700688Y-83674070D01*
X159826856Y-83370222D01*
X159827143Y-83041221D01*
X159701505Y-82737154D01*
X159469070Y-82504312D01*
X159165222Y-82378144D01*
X158836221Y-82377857D01*
X158532154Y-82503495D01*
X158459064Y-82576457D01*
X158401505Y-82437154D01*
X158169070Y-82204312D01*
X157865222Y-82078144D01*
X157536221Y-82077857D01*
X157232154Y-82203495D01*
X156999312Y-82435930D01*
X156873144Y-82739778D01*
X156872857Y-83068779D01*
X155055720Y-83068779D01*
X154911517Y-83028088D01*
X154119605Y-83820000D01*
X153760395Y-83820000D01*
X152968483Y-83028088D01*
X152727540Y-83096077D01*
X152564124Y-83555251D01*
X152398394Y-83154154D01*
X152067588Y-82822770D01*
X151635147Y-82643205D01*
X151166907Y-82642796D01*
X150734154Y-82821606D01*
X150402770Y-83152412D01*
X150223205Y-83584853D01*
X150222796Y-84053093D01*
X150036796Y-84053093D01*
X150037204Y-83586907D01*
X149858394Y-83154154D01*
X149527588Y-82822770D01*
X149120104Y-82653568D01*
X149205448Y-82649230D01*
X149583923Y-82492460D01*
X149651912Y-82251517D01*
X148860000Y-81459605D01*
X148068088Y-82251517D01*
X148136077Y-82492460D01*
X148595251Y-82655876D01*
X148194154Y-82821606D01*
X147862770Y-83152412D01*
X147683205Y-83584853D01*
X147682796Y-84053093D01*
X147496796Y-84053093D01*
X147497204Y-83586907D01*
X147318394Y-83154154D01*
X146987588Y-82822770D01*
X146555147Y-82643205D01*
X146086907Y-82642796D01*
X145654154Y-82821606D01*
X145322770Y-83152412D01*
X145143205Y-83584853D01*
X145142796Y-84053093D01*
X144965365Y-84053093D01*
X144965365Y-83070000D01*
X144935591Y-82911763D01*
X144842073Y-82766433D01*
X144699381Y-82668936D01*
X144530000Y-82634635D01*
X143030000Y-82634635D01*
X142871763Y-82664409D01*
X142726433Y-82757927D01*
X142628936Y-82900619D01*
X142594635Y-83070000D01*
X141371858Y-83070000D01*
X141926361Y-81734609D01*
X141927411Y-80530000D01*
X142594635Y-80530000D01*
X142594635Y-82030000D01*
X142624409Y-82188237D01*
X142717927Y-82333567D01*
X142860619Y-82431064D01*
X143030000Y-82465365D01*
X144530000Y-82465365D01*
X144688237Y-82435591D01*
X144833567Y-82342073D01*
X144931064Y-82199381D01*
X144965365Y-82030000D01*
X144965365Y-81513093D01*
X145142796Y-81513093D01*
X145321606Y-81945846D01*
X145652412Y-82277230D01*
X146084853Y-82456795D01*
X146553093Y-82457204D01*
X146985846Y-82278394D01*
X147317230Y-81947588D01*
X147486432Y-81540104D01*
X147490770Y-81625448D01*
X147647540Y-82003923D01*
X147888483Y-82071912D01*
X148680395Y-81280000D01*
X149039605Y-81280000D01*
X149831517Y-82071912D01*
X150072460Y-82003923D01*
X150235876Y-81544749D01*
X150401606Y-81945846D01*
X150732412Y-82277230D01*
X151164853Y-82456795D01*
X151633093Y-82457204D01*
X152065846Y-82278394D01*
X152397230Y-81947588D01*
X152576795Y-81515147D01*
X152576796Y-81513093D01*
X152762796Y-81513093D01*
X152941606Y-81945846D01*
X153272412Y-82277230D01*
X153679896Y-82446432D01*
X153594552Y-82450770D01*
X153216077Y-82607540D01*
X153148088Y-82848483D01*
X153940000Y-83640395D01*
X154731912Y-82848483D01*
X154663923Y-82607540D01*
X154204749Y-82444124D01*
X154605846Y-82278394D01*
X154937230Y-81947588D01*
X155116795Y-81515147D01*
X155116796Y-81513093D01*
X155302796Y-81513093D01*
X155481606Y-81945846D01*
X155812412Y-82277230D01*
X156244853Y-82456795D01*
X156713093Y-82457204D01*
X157145846Y-82278394D01*
X157477230Y-81947588D01*
X157656795Y-81515147D01*
X157657204Y-81046907D01*
X157478394Y-80614154D01*
X157147588Y-80282770D01*
X156715147Y-80103205D01*
X156246907Y-80102796D01*
X155814154Y-80281606D01*
X155482770Y-80612412D01*
X155303205Y-81044853D01*
X155302796Y-81513093D01*
X155116796Y-81513093D01*
X155117204Y-81046907D01*
X154938394Y-80614154D01*
X154607588Y-80282770D01*
X154175147Y-80103205D01*
X153706907Y-80102796D01*
X153274154Y-80281606D01*
X152942770Y-80612412D01*
X152763205Y-81044853D01*
X152762796Y-81513093D01*
X152576796Y-81513093D01*
X152577204Y-81046907D01*
X152398394Y-80614154D01*
X152067588Y-80282770D01*
X151635147Y-80103205D01*
X151166907Y-80102796D01*
X150734154Y-80281606D01*
X150402770Y-80612412D01*
X150233568Y-81019896D01*
X150229230Y-80934552D01*
X150072460Y-80556077D01*
X149831517Y-80488088D01*
X149039605Y-81280000D01*
X148680395Y-81280000D01*
X147888483Y-80488088D01*
X147647540Y-80556077D01*
X147484124Y-81015251D01*
X147318394Y-80614154D01*
X147013257Y-80308483D01*
X148068088Y-80308483D01*
X148860000Y-81100395D01*
X149651912Y-80308483D01*
X149583923Y-80067540D01*
X149064829Y-79882799D01*
X148514552Y-79910770D01*
X148136077Y-80067540D01*
X148068088Y-80308483D01*
X147013257Y-80308483D01*
X146987588Y-80282770D01*
X146555147Y-80103205D01*
X146086907Y-80102796D01*
X145654154Y-80281606D01*
X145322770Y-80612412D01*
X145143205Y-81044853D01*
X145142796Y-81513093D01*
X144965365Y-81513093D01*
X144965365Y-80530000D01*
X144935591Y-80371763D01*
X144842073Y-80226433D01*
X144699381Y-80128936D01*
X144530000Y-80094635D01*
X143030000Y-80094635D01*
X142871763Y-80124409D01*
X142726433Y-80217927D01*
X142628936Y-80360619D01*
X142594635Y-80530000D01*
X141927411Y-80530000D01*
X141927637Y-80271808D01*
X141369027Y-78919868D01*
X140951888Y-78502000D01*
X160233299Y-78502000D01*
X160199310Y-78535930D01*
G36*
X178373000Y-82427933D02*
X178286221Y-82427857D01*
X177982154Y-82553495D01*
X177749312Y-82785930D01*
X177652558Y-83018940D01*
X177432975Y-82927762D01*
X177103974Y-82927475D01*
X176799907Y-83053113D01*
X176567065Y-83285548D01*
X176440897Y-83589396D01*
X176440610Y-83918397D01*
X176566248Y-84222464D01*
X176798683Y-84455306D01*
X177102531Y-84581474D01*
X177431532Y-84581761D01*
X177735599Y-84456123D01*
X177968441Y-84223688D01*
X178065195Y-83990678D01*
X178284778Y-84081856D01*
X178613779Y-84082143D01*
X178917846Y-83956505D01*
X179126959Y-83747758D01*
X179623000Y-84541424D01*
X179623000Y-92476636D01*
X179504329Y-92525670D01*
X179271487Y-92758105D01*
X179145319Y-93061953D01*
X179145032Y-93390954D01*
X179270670Y-93695021D01*
X179503105Y-93927863D01*
X179623000Y-93977647D01*
X179623000Y-109378000D01*
X178750000Y-109378000D01*
X178700590Y-109388006D01*
X178658965Y-109416447D01*
X178631685Y-109458841D01*
X178623323Y-109495952D01*
X178381748Y-112878000D01*
X173627000Y-112878000D01*
X173627000Y-112255000D01*
X173616994Y-112205590D01*
X173588553Y-112163965D01*
X173588292Y-112163779D01*
X174072857Y-112163779D01*
X174198495Y-112467846D01*
X174430930Y-112700688D01*
X174734778Y-112826856D01*
X175063779Y-112827143D01*
X175367846Y-112701505D01*
X175600688Y-112469070D01*
X175726856Y-112165222D01*
X175727143Y-111836221D01*
X175601505Y-111532154D01*
X175369070Y-111299312D01*
X175065222Y-111173144D01*
X174736221Y-111172857D01*
X174432154Y-111298495D01*
X174199312Y-111530930D01*
X174073144Y-111834778D01*
X174072857Y-112163779D01*
X173588292Y-112163779D01*
X173556796Y-112141408D01*
X171627000Y-111176510D01*
X171627000Y-102568779D01*
X174872861Y-102568779D01*
X174998499Y-102872846D01*
X175230934Y-103105688D01*
X175534782Y-103231856D01*
X175863783Y-103232143D01*
X176167850Y-103106505D01*
X176400692Y-102874070D01*
X176526860Y-102570222D01*
X176527040Y-102363779D01*
X176622857Y-102363779D01*
X176748495Y-102667846D01*
X176980930Y-102900688D01*
X177284778Y-103026856D01*
X177613779Y-103027143D01*
X177917846Y-102901505D01*
X178150688Y-102669070D01*
X178157657Y-102652286D01*
X178294423Y-102789291D01*
X178598271Y-102915459D01*
X178927272Y-102915746D01*
X179231339Y-102790108D01*
X179464181Y-102557673D01*
X179590349Y-102253825D01*
X179590636Y-101924824D01*
X179464998Y-101620757D01*
X179232563Y-101387915D01*
X178928715Y-101261747D01*
X178599714Y-101261460D01*
X178295647Y-101387098D01*
X178062805Y-101619533D01*
X178055836Y-101636317D01*
X177919070Y-101499312D01*
X177615222Y-101373144D01*
X177286221Y-101372857D01*
X176982154Y-101498495D01*
X176749312Y-101730930D01*
X176623144Y-102034778D01*
X176622857Y-102363779D01*
X176527040Y-102363779D01*
X176527147Y-102241221D01*
X176401509Y-101937154D01*
X176169074Y-101704312D01*
X175865226Y-101578144D01*
X175536225Y-101577857D01*
X175232158Y-101703495D01*
X174999316Y-101935930D01*
X174873148Y-102239778D01*
X174872861Y-102568779D01*
X171627000Y-102568779D01*
X171627000Y-93668779D01*
X173772857Y-93668779D01*
X173898495Y-93972846D01*
X174130930Y-94205688D01*
X174434778Y-94331856D01*
X174763779Y-94332143D01*
X175067846Y-94206505D01*
X175300688Y-93974070D01*
X175426856Y-93670222D01*
X175427036Y-93463779D01*
X176722857Y-93463779D01*
X176848495Y-93767846D01*
X177080930Y-94000688D01*
X177384778Y-94126856D01*
X177713779Y-94127143D01*
X178017846Y-94001505D01*
X178250688Y-93769070D01*
X178376856Y-93465222D01*
X178377143Y-93136221D01*
X178251505Y-92832154D01*
X178019070Y-92599312D01*
X177715222Y-92473144D01*
X177386221Y-92472857D01*
X177082154Y-92598495D01*
X176849312Y-92830930D01*
X176723144Y-93134778D01*
X176722857Y-93463779D01*
X175427036Y-93463779D01*
X175427143Y-93341221D01*
X175301505Y-93037154D01*
X175069070Y-92804312D01*
X174765222Y-92678144D01*
X174436221Y-92677857D01*
X174132154Y-92803495D01*
X173899312Y-93035930D01*
X173773144Y-93339778D01*
X173772857Y-93668779D01*
X171627000Y-93668779D01*
X171627000Y-84468779D01*
X174372857Y-84468779D01*
X174498495Y-84772846D01*
X174730930Y-85005688D01*
X175034778Y-85131856D01*
X175363779Y-85132143D01*
X175667846Y-85006505D01*
X175900688Y-84774070D01*
X176026856Y-84470222D01*
X176027143Y-84141221D01*
X175901505Y-83837154D01*
X175669070Y-83604312D01*
X175365222Y-83478144D01*
X175036221Y-83477857D01*
X174732154Y-83603495D01*
X174499312Y-83835930D01*
X174373144Y-84139778D01*
X174372857Y-84468779D01*
X171627000Y-84468779D01*
X171627000Y-78502000D01*
X178373000Y-78502000D01*
X178373000Y-82427933D01*
X178373000Y-82427933D01*
G37*
X178373000Y-82427933D02*
X178286221Y-82427857D01*
X177982154Y-82553495D01*
X177749312Y-82785930D01*
X177652558Y-83018940D01*
X177432975Y-82927762D01*
X177103974Y-82927475D01*
X176799907Y-83053113D01*
X176567065Y-83285548D01*
X176440897Y-83589396D01*
X176440610Y-83918397D01*
X176566248Y-84222464D01*
X176798683Y-84455306D01*
X177102531Y-84581474D01*
X177431532Y-84581761D01*
X177735599Y-84456123D01*
X177968441Y-84223688D01*
X178065195Y-83990678D01*
X178284778Y-84081856D01*
X178613779Y-84082143D01*
X178917846Y-83956505D01*
X179126959Y-83747758D01*
X179623000Y-84541424D01*
X179623000Y-92476636D01*
X179504329Y-92525670D01*
X179271487Y-92758105D01*
X179145319Y-93061953D01*
X179145032Y-93390954D01*
X179270670Y-93695021D01*
X179503105Y-93927863D01*
X179623000Y-93977647D01*
X179623000Y-109378000D01*
X178750000Y-109378000D01*
X178700590Y-109388006D01*
X178658965Y-109416447D01*
X178631685Y-109458841D01*
X178623323Y-109495952D01*
X178381748Y-112878000D01*
X173627000Y-112878000D01*
X173627000Y-112255000D01*
X173616994Y-112205590D01*
X173588553Y-112163965D01*
X173588292Y-112163779D01*
X174072857Y-112163779D01*
X174198495Y-112467846D01*
X174430930Y-112700688D01*
X174734778Y-112826856D01*
X175063779Y-112827143D01*
X175367846Y-112701505D01*
X175600688Y-112469070D01*
X175726856Y-112165222D01*
X175727143Y-111836221D01*
X175601505Y-111532154D01*
X175369070Y-111299312D01*
X175065222Y-111173144D01*
X174736221Y-111172857D01*
X174432154Y-111298495D01*
X174199312Y-111530930D01*
X174073144Y-111834778D01*
X174072857Y-112163779D01*
X173588292Y-112163779D01*
X173556796Y-112141408D01*
X171627000Y-111176510D01*
X171627000Y-102568779D01*
X174872861Y-102568779D01*
X174998499Y-102872846D01*
X175230934Y-103105688D01*
X175534782Y-103231856D01*
X175863783Y-103232143D01*
X176167850Y-103106505D01*
X176400692Y-102874070D01*
X176526860Y-102570222D01*
X176527040Y-102363779D01*
X176622857Y-102363779D01*
X176748495Y-102667846D01*
X176980930Y-102900688D01*
X177284778Y-103026856D01*
X177613779Y-103027143D01*
X177917846Y-102901505D01*
X178150688Y-102669070D01*
X178157657Y-102652286D01*
X178294423Y-102789291D01*
X178598271Y-102915459D01*
X178927272Y-102915746D01*
X179231339Y-102790108D01*
X179464181Y-102557673D01*
X179590349Y-102253825D01*
X179590636Y-101924824D01*
X179464998Y-101620757D01*
X179232563Y-101387915D01*
X178928715Y-101261747D01*
X178599714Y-101261460D01*
X178295647Y-101387098D01*
X178062805Y-101619533D01*
X178055836Y-101636317D01*
X177919070Y-101499312D01*
X177615222Y-101373144D01*
X177286221Y-101372857D01*
X176982154Y-101498495D01*
X176749312Y-101730930D01*
X176623144Y-102034778D01*
X176622857Y-102363779D01*
X176527040Y-102363779D01*
X176527147Y-102241221D01*
X176401509Y-101937154D01*
X176169074Y-101704312D01*
X175865226Y-101578144D01*
X175536225Y-101577857D01*
X175232158Y-101703495D01*
X174999316Y-101935930D01*
X174873148Y-102239778D01*
X174872861Y-102568779D01*
X171627000Y-102568779D01*
X171627000Y-93668779D01*
X173772857Y-93668779D01*
X173898495Y-93972846D01*
X174130930Y-94205688D01*
X174434778Y-94331856D01*
X174763779Y-94332143D01*
X175067846Y-94206505D01*
X175300688Y-93974070D01*
X175426856Y-93670222D01*
X175427036Y-93463779D01*
X176722857Y-93463779D01*
X176848495Y-93767846D01*
X177080930Y-94000688D01*
X177384778Y-94126856D01*
X177713779Y-94127143D01*
X178017846Y-94001505D01*
X178250688Y-93769070D01*
X178376856Y-93465222D01*
X178377143Y-93136221D01*
X178251505Y-92832154D01*
X178019070Y-92599312D01*
X177715222Y-92473144D01*
X177386221Y-92472857D01*
X177082154Y-92598495D01*
X176849312Y-92830930D01*
X176723144Y-93134778D01*
X176722857Y-93463779D01*
X175427036Y-93463779D01*
X175427143Y-93341221D01*
X175301505Y-93037154D01*
X175069070Y-92804312D01*
X174765222Y-92678144D01*
X174436221Y-92677857D01*
X174132154Y-92803495D01*
X173899312Y-93035930D01*
X173773144Y-93339778D01*
X173772857Y-93668779D01*
X171627000Y-93668779D01*
X171627000Y-84468779D01*
X174372857Y-84468779D01*
X174498495Y-84772846D01*
X174730930Y-85005688D01*
X175034778Y-85131856D01*
X175363779Y-85132143D01*
X175667846Y-85006505D01*
X175900688Y-84774070D01*
X176026856Y-84470222D01*
X176027143Y-84141221D01*
X175901505Y-83837154D01*
X175669070Y-83604312D01*
X175365222Y-83478144D01*
X175036221Y-83477857D01*
X174732154Y-83603495D01*
X174499312Y-83835930D01*
X174373144Y-84139778D01*
X174372857Y-84468779D01*
X171627000Y-84468779D01*
X171627000Y-78502000D01*
X178373000Y-78502000D01*
X178373000Y-82427933D01*
G36*
X184748000Y-92378000D02*
X180627000Y-92378000D01*
X180627000Y-84307469D01*
X181515391Y-84676361D01*
X182978192Y-84677637D01*
X184298735Y-84132000D01*
X184748000Y-84132000D01*
X184748000Y-92378000D01*
X184748000Y-92378000D01*
G37*
X184748000Y-92378000D02*
X180627000Y-92378000D01*
X180627000Y-84307469D01*
X181515391Y-84676361D01*
X182978192Y-84677637D01*
X184298735Y-84132000D01*
X184748000Y-84132000D01*
X184748000Y-92378000D01*
G36*
X184748000Y-101128000D02*
X180627000Y-101128000D01*
X180627000Y-93742028D01*
X180672863Y-93696245D01*
X180799031Y-93392397D01*
X180799258Y-93132000D01*
X184748000Y-93132000D01*
X184748000Y-101128000D01*
X184748000Y-101128000D01*
G37*
X184748000Y-101128000D02*
X180627000Y-101128000D01*
X180627000Y-93742028D01*
X180672863Y-93696245D01*
X180799031Y-93392397D01*
X180799258Y-93132000D01*
X184748000Y-93132000D01*
X184748000Y-101128000D01*
G36*
X184748000Y-109378000D02*
X183115525Y-109378000D01*
X182984609Y-109323639D01*
X181521808Y-109322363D01*
X181387156Y-109378000D01*
X180627000Y-109378000D01*
X180627000Y-101882000D01*
X184748000Y-101882000D01*
X184748000Y-109378000D01*
X184748000Y-109378000D01*
G37*
X184748000Y-109378000D02*
X183115525Y-109378000D01*
X182984609Y-109323639D01*
X181521808Y-109322363D01*
X181387156Y-109378000D01*
X180627000Y-109378000D01*
X180627000Y-101882000D01*
X184748000Y-101882000D01*
X184748000Y-109378000D01*
M02*
