%TF.GenerationSoftware,KiCad,Pcbnew,4.0.6-e0-6349~53~ubuntu16.04.1*%
%TF.CreationDate,2017-03-20T22:22:26+02:00*%
%TF.ProjectId,BLDC_controller,424C44435F636F6E74726F6C6C65722E,1.0*%
%TF.FileFunction,Paste,Bot*%
%FSLAX46Y46*%
G04 Gerber Fmt 4.6, Leading zero omitted, Abs format (unit mm)*
G04 Created by KiCad (PCBNEW 4.0.6-e0-6349~53~ubuntu16.04.1) date Mon Mar 20 22:22:26 2017*
%MOMM*%
%LPD*%
G01*
G04 APERTURE LIST*
%ADD10C,0.100000*%
%ADD11R,0.550000X0.890000*%
%ADD12R,3.350000X1.400000*%
%ADD13R,0.500000X0.700000*%
%ADD14R,0.890000X0.550000*%
%ADD15R,0.800000X0.900000*%
%ADD16R,0.900000X0.800000*%
%ADD17R,0.500000X0.800000*%
%ADD18R,0.800000X0.500000*%
%ADD19R,1.050000X0.600000*%
G04 APERTURE END LIST*
D10*
D11*
X161710000Y-109000000D03*
X160290000Y-109000000D03*
D12*
X167050000Y-104000000D03*
X167050000Y-109800000D03*
D13*
X156200000Y-90700000D03*
X156200000Y-88300000D03*
X155600000Y-104000000D03*
X155600000Y-101600000D03*
D12*
X167000000Y-93705000D03*
X167000000Y-99505000D03*
X167050000Y-91000000D03*
X167050000Y-85200000D03*
D11*
X159210000Y-89700000D03*
X157790000Y-89700000D03*
X159185000Y-91375000D03*
X157765000Y-91375000D03*
X158710000Y-101300000D03*
X157290000Y-101300000D03*
X158720000Y-103000000D03*
X157300000Y-103000000D03*
X161810000Y-88900000D03*
X160390000Y-88900000D03*
X161560000Y-98500000D03*
X160140000Y-98500000D03*
X160290000Y-107605000D03*
X161710000Y-107605000D03*
X160140000Y-96905000D03*
X161560000Y-96905000D03*
X161090000Y-86400000D03*
X162510000Y-86400000D03*
D14*
X155500000Y-109210000D03*
X155500000Y-107790000D03*
X159150000Y-94090000D03*
X159150000Y-95510000D03*
D11*
X158480000Y-84600000D03*
X159900000Y-84600000D03*
D14*
X153800000Y-107590000D03*
X153800000Y-109010000D03*
X157500000Y-95510000D03*
X157500000Y-94090000D03*
X156100000Y-86810000D03*
X156100000Y-85390000D03*
D11*
X157390000Y-110650000D03*
X158810000Y-110650000D03*
X157530000Y-98400000D03*
X158950000Y-98400000D03*
X157790000Y-88100000D03*
X159210000Y-88100000D03*
D14*
X151150000Y-93010000D03*
X151150000Y-91590000D03*
D15*
X157240000Y-108950000D03*
X158900000Y-108950000D03*
X157170000Y-96850000D03*
X158830000Y-96850000D03*
X158070000Y-86400000D03*
X159730000Y-86400000D03*
D11*
X161710000Y-106000000D03*
X160290000Y-106000000D03*
X161960000Y-94300000D03*
X160540000Y-94300000D03*
X162510000Y-84600000D03*
X161090000Y-84600000D03*
D16*
X138200000Y-94980000D03*
X138200000Y-93320000D03*
D15*
X144230000Y-88700000D03*
X142570000Y-88700000D03*
X149730000Y-88000000D03*
X148070000Y-88000000D03*
D11*
X140640000Y-91950000D03*
X142060000Y-91950000D03*
D14*
X139350000Y-91010000D03*
X139350000Y-89590000D03*
X145850000Y-90060000D03*
X145850000Y-88640000D03*
X151550000Y-89810000D03*
X151550000Y-88390000D03*
X138200000Y-98010000D03*
X138200000Y-96590000D03*
D11*
X142690000Y-90300000D03*
X144110000Y-90300000D03*
X148390000Y-89600000D03*
X149810000Y-89600000D03*
D14*
X150750000Y-95610000D03*
X150750000Y-94190000D03*
D15*
X145970000Y-91900000D03*
X147630000Y-91900000D03*
D17*
X175200000Y-90025000D03*
X174350000Y-90025000D03*
X176050000Y-90025000D03*
X175200000Y-87725000D03*
X174350000Y-87725000D03*
X176050000Y-87725000D03*
X176050000Y-88875000D03*
X174350000Y-88875000D03*
D18*
X177900000Y-90750000D03*
X177900000Y-87000000D03*
X177900000Y-89475000D03*
D19*
X172175000Y-89510000D03*
X172175000Y-90780000D03*
X172175000Y-88240000D03*
X172175000Y-86970000D03*
D18*
X177900000Y-88275000D03*
D17*
X175200000Y-88875000D03*
X175200000Y-97645000D03*
X174350000Y-97645000D03*
X176050000Y-97645000D03*
X175200000Y-95345000D03*
X174350000Y-95345000D03*
X176050000Y-95345000D03*
X176050000Y-96495000D03*
X174350000Y-96495000D03*
D18*
X177900000Y-98370000D03*
X177900000Y-94620000D03*
X177900000Y-97095000D03*
D19*
X172175000Y-97130000D03*
X172175000Y-98400000D03*
X172175000Y-95860000D03*
X172175000Y-94590000D03*
D18*
X177900000Y-95895000D03*
D17*
X175200000Y-96495000D03*
X175200000Y-105275000D03*
X174350000Y-105275000D03*
X176050000Y-105275000D03*
X175200000Y-102975000D03*
X174350000Y-102975000D03*
X176050000Y-102975000D03*
X176050000Y-104125000D03*
X174350000Y-104125000D03*
D18*
X177900000Y-106000000D03*
X177900000Y-102250000D03*
X177900000Y-104725000D03*
D19*
X172175000Y-104760000D03*
X172175000Y-106030000D03*
X172175000Y-103490000D03*
X172175000Y-102220000D03*
D18*
X177900000Y-103525000D03*
D17*
X175200000Y-104125000D03*
M02*
