%TF.GenerationSoftware,KiCad,Pcbnew,4.0.6-e0-6349~53~ubuntu16.04.1*%
%TF.CreationDate,2017-03-19T23:40:33+02:00*%
%TF.ProjectId,BLDC_controller,424C44435F636F6E74726F6C6C65722E,1.0*%
%TF.FileFunction,Soldermask,Bot*%
%FSLAX46Y46*%
G04 Gerber Fmt 4.6, Leading zero omitted, Abs format (unit mm)*
G04 Created by KiCad (PCBNEW 4.0.6-e0-6349~53~ubuntu16.04.1) date Sun Mar 19 23:40:33 2017*
%MOMM*%
%LPD*%
G01*
G04 APERTURE LIST*
%ADD10C,0.100000*%
%ADD11C,1.500000*%
%ADD12C,0.850000*%
%ADD13C,0.800000*%
G04 APERTURE END LIST*
D10*
D11*
X165600000Y-81700000D02*
X164100000Y-81700000D01*
X164100000Y-85000000D02*
X165600000Y-81700000D01*
D12*
X172010000Y-90700000D02*
X170620000Y-90700000D01*
X172160000Y-89440000D02*
X170510000Y-89440000D01*
X171690000Y-88160000D02*
X170510000Y-88160000D01*
D11*
X170050000Y-90900000D02*
X170080000Y-88480000D01*
X168150000Y-91000000D02*
X170050000Y-90900000D01*
D13*
X170750000Y-95900000D02*
X170750000Y-97900000D01*
X170150000Y-97500000D02*
X171750000Y-98400000D01*
X171950000Y-97100000D02*
X170350000Y-97100000D01*
X171950000Y-95900000D02*
X170250000Y-95900000D01*
D11*
X169750000Y-93900000D02*
X169750000Y-97160000D01*
X168250000Y-93700000D02*
X169750000Y-93700000D01*
D13*
X171680000Y-106040000D02*
X170860000Y-105940000D01*
X171670000Y-103450000D02*
X170500000Y-103700000D01*
D11*
X170950000Y-104000000D02*
X170950000Y-105600000D01*
X170150000Y-104000000D02*
X168650000Y-104000000D01*
X164050000Y-112200000D02*
X164050000Y-81700000D01*
D10*
G36*
X179300000Y-112850000D02*
X174400000Y-112850000D01*
X174400000Y-110450000D01*
X179300000Y-110450000D01*
X179300000Y-112850000D01*
X179300000Y-112850000D01*
G37*
G36*
X146496653Y-110175547D02*
X146655143Y-110208081D01*
X146804290Y-110270776D01*
X146938422Y-110361249D01*
X147052425Y-110476051D01*
X147141957Y-110610809D01*
X147203612Y-110760394D01*
X147234970Y-110918761D01*
X147234970Y-110918771D01*
X147235036Y-110919105D01*
X147232455Y-111103900D01*
X147232379Y-111104234D01*
X147232379Y-111104243D01*
X147196614Y-111261670D01*
X147130804Y-111409479D01*
X147037544Y-111541684D01*
X146920383Y-111653254D01*
X146783776Y-111739948D01*
X146632931Y-111798457D01*
X146473600Y-111826551D01*
X146311845Y-111823163D01*
X146153825Y-111788420D01*
X146005566Y-111723647D01*
X145872713Y-111631312D01*
X145760321Y-111514927D01*
X145672679Y-111378932D01*
X145613119Y-111228501D01*
X145583912Y-111069369D01*
X145586172Y-110907591D01*
X145619809Y-110749339D01*
X145683547Y-110600627D01*
X145774952Y-110467133D01*
X145890549Y-110353933D01*
X146025928Y-110265343D01*
X146175943Y-110204734D01*
X146334864Y-110174417D01*
X146496653Y-110175547D01*
X146496653Y-110175547D01*
G37*
G36*
X149036653Y-110175547D02*
X149195143Y-110208081D01*
X149344290Y-110270776D01*
X149478422Y-110361249D01*
X149592425Y-110476051D01*
X149681957Y-110610809D01*
X149743612Y-110760394D01*
X149774970Y-110918761D01*
X149774970Y-110918771D01*
X149775036Y-110919105D01*
X149772455Y-111103900D01*
X149772379Y-111104234D01*
X149772379Y-111104243D01*
X149736614Y-111261670D01*
X149670804Y-111409479D01*
X149577544Y-111541684D01*
X149460383Y-111653254D01*
X149323776Y-111739948D01*
X149172931Y-111798457D01*
X149013600Y-111826551D01*
X148851845Y-111823163D01*
X148693825Y-111788420D01*
X148545566Y-111723647D01*
X148412713Y-111631312D01*
X148300321Y-111514927D01*
X148212679Y-111378932D01*
X148153119Y-111228501D01*
X148123912Y-111069369D01*
X148126172Y-110907591D01*
X148159809Y-110749339D01*
X148223547Y-110600627D01*
X148314952Y-110467133D01*
X148430549Y-110353933D01*
X148565928Y-110265343D01*
X148715943Y-110204734D01*
X148874864Y-110174417D01*
X149036653Y-110175547D01*
X149036653Y-110175547D01*
G37*
G36*
X154116653Y-110175547D02*
X154275143Y-110208081D01*
X154424290Y-110270776D01*
X154558422Y-110361249D01*
X154672425Y-110476051D01*
X154761957Y-110610809D01*
X154823612Y-110760394D01*
X154854970Y-110918761D01*
X154854970Y-110918771D01*
X154855036Y-110919105D01*
X154852455Y-111103900D01*
X154852379Y-111104234D01*
X154852379Y-111104243D01*
X154816614Y-111261670D01*
X154750804Y-111409479D01*
X154657544Y-111541684D01*
X154540383Y-111653254D01*
X154403776Y-111739948D01*
X154252931Y-111798457D01*
X154093600Y-111826551D01*
X153931845Y-111823163D01*
X153773825Y-111788420D01*
X153625566Y-111723647D01*
X153492713Y-111631312D01*
X153380321Y-111514927D01*
X153292679Y-111378932D01*
X153233119Y-111228501D01*
X153203912Y-111069369D01*
X153206172Y-110907591D01*
X153239809Y-110749339D01*
X153303547Y-110600627D01*
X153394952Y-110467133D01*
X153510549Y-110353933D01*
X153645928Y-110265343D01*
X153795943Y-110204734D01*
X153954864Y-110174417D01*
X154116653Y-110175547D01*
X154116653Y-110175547D01*
G37*
G36*
X151576653Y-110175547D02*
X151735143Y-110208081D01*
X151884290Y-110270776D01*
X152018422Y-110361249D01*
X152132425Y-110476051D01*
X152221957Y-110610809D01*
X152283612Y-110760394D01*
X152314970Y-110918761D01*
X152314970Y-110918771D01*
X152315036Y-110919105D01*
X152312455Y-111103900D01*
X152312379Y-111104234D01*
X152312379Y-111104243D01*
X152276614Y-111261670D01*
X152210804Y-111409479D01*
X152117544Y-111541684D01*
X152000383Y-111653254D01*
X151863776Y-111739948D01*
X151712931Y-111798457D01*
X151553600Y-111826551D01*
X151391845Y-111823163D01*
X151233825Y-111788420D01*
X151085566Y-111723647D01*
X150952713Y-111631312D01*
X150840321Y-111514927D01*
X150752679Y-111378932D01*
X150693119Y-111228501D01*
X150663912Y-111069369D01*
X150666172Y-110907591D01*
X150699809Y-110749339D01*
X150763547Y-110600627D01*
X150854952Y-110467133D01*
X150970549Y-110353933D01*
X151105928Y-110265343D01*
X151255943Y-110204734D01*
X151414864Y-110174417D01*
X151576653Y-110175547D01*
X151576653Y-110175547D01*
G37*
G36*
X144695000Y-111825000D02*
X143045000Y-111825000D01*
X143045000Y-110175000D01*
X144695000Y-110175000D01*
X144695000Y-111825000D01*
X144695000Y-111825000D01*
G37*
G36*
X138899674Y-108575947D02*
X139173426Y-108632140D01*
X139431045Y-108740433D01*
X139662727Y-108896704D01*
X139859641Y-109094999D01*
X140014290Y-109327764D01*
X140120783Y-109586134D01*
X140174996Y-109859928D01*
X140174996Y-109859943D01*
X140175061Y-109860272D01*
X140170604Y-110179464D01*
X140170528Y-110179798D01*
X140170528Y-110179807D01*
X140108694Y-110451975D01*
X139995025Y-110707278D01*
X139833939Y-110935633D01*
X139631567Y-111128348D01*
X139395612Y-111278091D01*
X139135064Y-111379151D01*
X138859854Y-111427677D01*
X138580459Y-111421825D01*
X138307516Y-111361814D01*
X138051435Y-111249935D01*
X137821960Y-111090446D01*
X137627830Y-110889419D01*
X137476448Y-110654518D01*
X137373572Y-110394684D01*
X137323124Y-110119819D01*
X137327026Y-109840386D01*
X137385128Y-109567040D01*
X137495219Y-109310176D01*
X137653101Y-109079595D01*
X137852768Y-108884067D01*
X138086605Y-108731048D01*
X138345718Y-108626360D01*
X138620222Y-108573996D01*
X138899674Y-108575947D01*
X138899674Y-108575947D01*
G37*
G36*
X182399674Y-108575947D02*
X182673426Y-108632140D01*
X182931045Y-108740433D01*
X183162727Y-108896704D01*
X183359641Y-109094999D01*
X183514290Y-109327764D01*
X183620783Y-109586134D01*
X183674996Y-109859928D01*
X183674996Y-109859943D01*
X183675061Y-109860272D01*
X183670604Y-110179464D01*
X183670528Y-110179798D01*
X183670528Y-110179807D01*
X183608694Y-110451975D01*
X183495025Y-110707278D01*
X183333939Y-110935633D01*
X183131567Y-111128348D01*
X182895612Y-111278091D01*
X182635064Y-111379151D01*
X182359854Y-111427677D01*
X182080459Y-111421825D01*
X181807516Y-111361814D01*
X181551435Y-111249935D01*
X181321960Y-111090446D01*
X181127830Y-110889419D01*
X180976448Y-110654518D01*
X180873572Y-110394684D01*
X180823124Y-110119819D01*
X180827026Y-109840386D01*
X180885128Y-109567040D01*
X180995219Y-109310176D01*
X181153101Y-109079595D01*
X181352768Y-108884067D01*
X181586605Y-108731048D01*
X181845718Y-108626360D01*
X182120222Y-108573996D01*
X182399674Y-108575947D01*
X182399674Y-108575947D01*
G37*
G36*
X159210000Y-111220000D02*
X158410000Y-111220000D01*
X158410000Y-110080000D01*
X159210000Y-110080000D01*
X159210000Y-111220000D01*
X159210000Y-111220000D01*
G37*
G36*
X157790000Y-111220000D02*
X156990000Y-111220000D01*
X156990000Y-110080000D01*
X157790000Y-110080000D01*
X157790000Y-111220000D01*
X157790000Y-111220000D01*
G37*
G36*
X168850000Y-110625000D02*
X165250000Y-110625000D01*
X165250000Y-108975000D01*
X168850000Y-108975000D01*
X168850000Y-110625000D01*
X168850000Y-110625000D01*
G37*
G36*
X156070000Y-109610000D02*
X154930000Y-109610000D01*
X154930000Y-108810000D01*
X156070000Y-108810000D01*
X156070000Y-109610000D01*
X156070000Y-109610000D01*
G37*
G36*
X160690000Y-109570000D02*
X159890000Y-109570000D01*
X159890000Y-108430000D01*
X160690000Y-108430000D01*
X160690000Y-109570000D01*
X160690000Y-109570000D01*
G37*
G36*
X162110000Y-109570000D02*
X161310000Y-109570000D01*
X161310000Y-108430000D01*
X162110000Y-108430000D01*
X162110000Y-109570000D01*
X162110000Y-109570000D01*
G37*
G36*
X159425000Y-109525000D02*
X158375000Y-109525000D01*
X158375000Y-108375000D01*
X159425000Y-108375000D01*
X159425000Y-109525000D01*
X159425000Y-109525000D01*
G37*
G36*
X157765000Y-109525000D02*
X156715000Y-109525000D01*
X156715000Y-108375000D01*
X157765000Y-108375000D01*
X157765000Y-109525000D01*
X157765000Y-109525000D01*
G37*
G36*
X154370000Y-109410000D02*
X153230000Y-109410000D01*
X153230000Y-108610000D01*
X154370000Y-108610000D01*
X154370000Y-109410000D01*
X154370000Y-109410000D01*
G37*
G36*
X156070000Y-108190000D02*
X154930000Y-108190000D01*
X154930000Y-107390000D01*
X156070000Y-107390000D01*
X156070000Y-108190000D01*
X156070000Y-108190000D01*
G37*
G36*
X162110000Y-108175000D02*
X161310000Y-108175000D01*
X161310000Y-107035000D01*
X162110000Y-107035000D01*
X162110000Y-108175000D01*
X162110000Y-108175000D01*
G37*
G36*
X160690000Y-108175000D02*
X159890000Y-108175000D01*
X159890000Y-107035000D01*
X160690000Y-107035000D01*
X160690000Y-108175000D01*
X160690000Y-108175000D01*
G37*
G36*
X154370000Y-107990000D02*
X153230000Y-107990000D01*
X153230000Y-107190000D01*
X154370000Y-107190000D01*
X154370000Y-107990000D01*
X154370000Y-107990000D01*
G37*
G36*
X160690000Y-106570000D02*
X159890000Y-106570000D01*
X159890000Y-105430000D01*
X160690000Y-105430000D01*
X160690000Y-106570000D01*
X160690000Y-106570000D01*
G37*
G36*
X162110000Y-106570000D02*
X161310000Y-106570000D01*
X161310000Y-105430000D01*
X162110000Y-105430000D01*
X162110000Y-106570000D01*
X162110000Y-106570000D01*
G37*
G36*
X178495000Y-106550000D02*
X176845000Y-106550000D01*
X176845000Y-106349950D01*
X176843022Y-106336034D01*
X176837246Y-106323220D01*
X176828129Y-106312523D01*
X176816393Y-106304789D01*
X176802966Y-106300631D01*
X176795050Y-106300000D01*
X173795000Y-106300000D01*
X173795000Y-101950000D01*
X176795050Y-101950000D01*
X176808966Y-101948022D01*
X176821780Y-101942246D01*
X176832477Y-101933129D01*
X176840211Y-101921393D01*
X176844369Y-101907966D01*
X176845000Y-101900050D01*
X176845000Y-101700000D01*
X178495000Y-101700000D01*
X178495000Y-106550000D01*
X178495000Y-106550000D01*
G37*
G36*
X172825000Y-106455000D02*
X171525000Y-106455000D01*
X171525000Y-105605000D01*
X172825000Y-105605000D01*
X172825000Y-106455000D01*
X172825000Y-106455000D01*
G37*
G36*
X183618164Y-103375748D02*
X183834284Y-103420111D01*
X184037668Y-103505605D01*
X184220571Y-103628975D01*
X184376035Y-103785528D01*
X184498124Y-103969287D01*
X184582197Y-104173263D01*
X184624982Y-104389344D01*
X184624982Y-104389354D01*
X184625048Y-104389688D01*
X184621529Y-104641682D01*
X184621453Y-104642016D01*
X184621453Y-104642025D01*
X184572652Y-104856824D01*
X184482916Y-105058376D01*
X184355741Y-105238658D01*
X184195974Y-105390801D01*
X184009694Y-105509019D01*
X183803997Y-105588803D01*
X183586727Y-105627113D01*
X183366152Y-105622494D01*
X183150672Y-105575117D01*
X182948500Y-105486790D01*
X182767337Y-105360879D01*
X182614076Y-105202173D01*
X182494564Y-105016725D01*
X182413346Y-104811592D01*
X182373519Y-104594594D01*
X182376600Y-104373989D01*
X182422469Y-104158190D01*
X182509383Y-103955406D01*
X182634030Y-103773361D01*
X182791659Y-103619000D01*
X182976266Y-103498196D01*
X183180831Y-103415547D01*
X183397543Y-103374207D01*
X183618164Y-103375748D01*
X183618164Y-103375748D01*
G37*
G36*
X172825000Y-105185000D02*
X171525000Y-105185000D01*
X171525000Y-104335000D01*
X172825000Y-104335000D01*
X172825000Y-105185000D01*
X172825000Y-105185000D01*
G37*
G36*
X168850000Y-104825000D02*
X165250000Y-104825000D01*
X165250000Y-103175000D01*
X168850000Y-103175000D01*
X168850000Y-104825000D01*
X168850000Y-104825000D01*
G37*
G36*
X155975000Y-104475000D02*
X155225000Y-104475000D01*
X155225000Y-103525000D01*
X155975000Y-103525000D01*
X155975000Y-104475000D01*
X155975000Y-104475000D01*
G37*
G36*
X172825000Y-103915000D02*
X171525000Y-103915000D01*
X171525000Y-103065000D01*
X172825000Y-103065000D01*
X172825000Y-103915000D01*
X172825000Y-103915000D01*
G37*
G36*
X157700000Y-103570000D02*
X156900000Y-103570000D01*
X156900000Y-102430000D01*
X157700000Y-102430000D01*
X157700000Y-103570000D01*
X157700000Y-103570000D01*
G37*
G36*
X159120000Y-103570000D02*
X158320000Y-103570000D01*
X158320000Y-102430000D01*
X159120000Y-102430000D01*
X159120000Y-103570000D01*
X159120000Y-103570000D01*
G37*
G36*
X172825000Y-102645000D02*
X171525000Y-102645000D01*
X171525000Y-101795000D01*
X172825000Y-101795000D01*
X172825000Y-102645000D01*
X172825000Y-102645000D01*
G37*
G36*
X155975000Y-102075000D02*
X155225000Y-102075000D01*
X155225000Y-101125000D01*
X155975000Y-101125000D01*
X155975000Y-102075000D01*
X155975000Y-102075000D01*
G37*
G36*
X159110000Y-101870000D02*
X158310000Y-101870000D01*
X158310000Y-100730000D01*
X159110000Y-100730000D01*
X159110000Y-101870000D01*
X159110000Y-101870000D01*
G37*
G36*
X157690000Y-101870000D02*
X156890000Y-101870000D01*
X156890000Y-100730000D01*
X157690000Y-100730000D01*
X157690000Y-101870000D01*
X157690000Y-101870000D01*
G37*
G36*
X168800000Y-100330000D02*
X165200000Y-100330000D01*
X165200000Y-98680000D01*
X168800000Y-98680000D01*
X168800000Y-100330000D01*
X168800000Y-100330000D01*
G37*
G36*
X160540000Y-99070000D02*
X159740000Y-99070000D01*
X159740000Y-97930000D01*
X160540000Y-97930000D01*
X160540000Y-99070000D01*
X160540000Y-99070000D01*
G37*
G36*
X161960000Y-99070000D02*
X161160000Y-99070000D01*
X161160000Y-97930000D01*
X161960000Y-97930000D01*
X161960000Y-99070000D01*
X161960000Y-99070000D01*
G37*
G36*
X157930000Y-98970000D02*
X157130000Y-98970000D01*
X157130000Y-97830000D01*
X157930000Y-97830000D01*
X157930000Y-98970000D01*
X157930000Y-98970000D01*
G37*
G36*
X159350000Y-98970000D02*
X158550000Y-98970000D01*
X158550000Y-97830000D01*
X159350000Y-97830000D01*
X159350000Y-98970000D01*
X159350000Y-98970000D01*
G37*
G36*
X178495000Y-98920000D02*
X176845000Y-98920000D01*
X176845000Y-98719950D01*
X176843022Y-98706034D01*
X176837246Y-98693220D01*
X176828129Y-98682523D01*
X176816393Y-98674789D01*
X176802966Y-98670631D01*
X176795050Y-98670000D01*
X173795000Y-98670000D01*
X173795000Y-94320000D01*
X176795050Y-94320000D01*
X176808966Y-94318022D01*
X176821780Y-94312246D01*
X176832477Y-94303129D01*
X176840211Y-94291393D01*
X176844369Y-94277966D01*
X176845000Y-94270050D01*
X176845000Y-94070000D01*
X178495000Y-94070000D01*
X178495000Y-98920000D01*
X178495000Y-98920000D01*
G37*
G36*
X172825000Y-98825000D02*
X171525000Y-98825000D01*
X171525000Y-97975000D01*
X172825000Y-97975000D01*
X172825000Y-98825000D01*
X172825000Y-98825000D01*
G37*
G36*
X138770000Y-98410000D02*
X137630000Y-98410000D01*
X137630000Y-97610000D01*
X138770000Y-97610000D01*
X138770000Y-98410000D01*
X138770000Y-98410000D01*
G37*
G36*
X183618164Y-95875748D02*
X183834284Y-95920111D01*
X184037668Y-96005605D01*
X184220571Y-96128975D01*
X184376035Y-96285528D01*
X184498124Y-96469287D01*
X184582197Y-96673263D01*
X184624982Y-96889344D01*
X184624982Y-96889354D01*
X184625048Y-96889688D01*
X184621529Y-97141682D01*
X184621453Y-97142016D01*
X184621453Y-97142025D01*
X184572652Y-97356824D01*
X184482916Y-97558376D01*
X184355741Y-97738658D01*
X184195974Y-97890801D01*
X184009694Y-98009019D01*
X183803997Y-98088803D01*
X183586727Y-98127113D01*
X183366152Y-98122494D01*
X183150672Y-98075117D01*
X182948500Y-97986790D01*
X182767337Y-97860879D01*
X182614076Y-97702173D01*
X182494564Y-97516725D01*
X182413346Y-97311592D01*
X182373519Y-97094594D01*
X182376600Y-96873989D01*
X182422469Y-96658190D01*
X182509383Y-96455406D01*
X182634030Y-96273361D01*
X182791659Y-96119000D01*
X182976266Y-95998196D01*
X183180831Y-95915547D01*
X183397543Y-95874207D01*
X183618164Y-95875748D01*
X183618164Y-95875748D01*
G37*
G36*
X172825000Y-97555000D02*
X171525000Y-97555000D01*
X171525000Y-96705000D01*
X172825000Y-96705000D01*
X172825000Y-97555000D01*
X172825000Y-97555000D01*
G37*
G36*
X160540000Y-97475000D02*
X159740000Y-97475000D01*
X159740000Y-96335000D01*
X160540000Y-96335000D01*
X160540000Y-97475000D01*
X160540000Y-97475000D01*
G37*
G36*
X161960000Y-97475000D02*
X161160000Y-97475000D01*
X161160000Y-96335000D01*
X161960000Y-96335000D01*
X161960000Y-97475000D01*
X161960000Y-97475000D01*
G37*
G36*
X159355000Y-97425000D02*
X158305000Y-97425000D01*
X158305000Y-96275000D01*
X159355000Y-96275000D01*
X159355000Y-97425000D01*
X159355000Y-97425000D01*
G37*
G36*
X157695000Y-97425000D02*
X156645000Y-97425000D01*
X156645000Y-96275000D01*
X157695000Y-96275000D01*
X157695000Y-97425000D01*
X157695000Y-97425000D01*
G37*
G36*
X138770000Y-96990000D02*
X137630000Y-96990000D01*
X137630000Y-96190000D01*
X138770000Y-96190000D01*
X138770000Y-96990000D01*
X138770000Y-96990000D01*
G37*
G36*
X172825000Y-96285000D02*
X171525000Y-96285000D01*
X171525000Y-95435000D01*
X172825000Y-95435000D01*
X172825000Y-96285000D01*
X172825000Y-96285000D01*
G37*
G36*
X151320000Y-96010000D02*
X150180000Y-96010000D01*
X150180000Y-95210000D01*
X151320000Y-95210000D01*
X151320000Y-96010000D01*
X151320000Y-96010000D01*
G37*
G36*
X158070000Y-95910000D02*
X156930000Y-95910000D01*
X156930000Y-95110000D01*
X158070000Y-95110000D01*
X158070000Y-95910000D01*
X158070000Y-95910000D01*
G37*
G36*
X159720000Y-95910000D02*
X158580000Y-95910000D01*
X158580000Y-95110000D01*
X159720000Y-95110000D01*
X159720000Y-95910000D01*
X159720000Y-95910000D01*
G37*
G36*
X138775000Y-95505000D02*
X137625000Y-95505000D01*
X137625000Y-94455000D01*
X138775000Y-94455000D01*
X138775000Y-95505000D01*
X138775000Y-95505000D01*
G37*
G36*
X172825000Y-95015000D02*
X171525000Y-95015000D01*
X171525000Y-94165000D01*
X172825000Y-94165000D01*
X172825000Y-95015000D01*
X172825000Y-95015000D01*
G37*
G36*
X160940000Y-94870000D02*
X160140000Y-94870000D01*
X160140000Y-93730000D01*
X160940000Y-93730000D01*
X160940000Y-94870000D01*
X160940000Y-94870000D01*
G37*
G36*
X162360000Y-94870000D02*
X161560000Y-94870000D01*
X161560000Y-93730000D01*
X162360000Y-93730000D01*
X162360000Y-94870000D01*
X162360000Y-94870000D01*
G37*
G36*
X151320000Y-94590000D02*
X150180000Y-94590000D01*
X150180000Y-93790000D01*
X151320000Y-93790000D01*
X151320000Y-94590000D01*
X151320000Y-94590000D01*
G37*
G36*
X168800000Y-94530000D02*
X165200000Y-94530000D01*
X165200000Y-92880000D01*
X168800000Y-92880000D01*
X168800000Y-94530000D01*
X168800000Y-94530000D01*
G37*
G36*
X159720000Y-94490000D02*
X158580000Y-94490000D01*
X158580000Y-93690000D01*
X159720000Y-93690000D01*
X159720000Y-94490000D01*
X159720000Y-94490000D01*
G37*
G36*
X158070000Y-94490000D02*
X156930000Y-94490000D01*
X156930000Y-93690000D01*
X158070000Y-93690000D01*
X158070000Y-94490000D01*
X158070000Y-94490000D01*
G37*
G36*
X138775000Y-93845000D02*
X137625000Y-93845000D01*
X137625000Y-92795000D01*
X138775000Y-92795000D01*
X138775000Y-93845000D01*
X138775000Y-93845000D01*
G37*
G36*
X151720000Y-93410000D02*
X150580000Y-93410000D01*
X150580000Y-92610000D01*
X151720000Y-92610000D01*
X151720000Y-93410000D01*
X151720000Y-93410000D01*
G37*
G36*
X142460000Y-92520000D02*
X141660000Y-92520000D01*
X141660000Y-91380000D01*
X142460000Y-91380000D01*
X142460000Y-92520000D01*
X142460000Y-92520000D01*
G37*
G36*
X141040000Y-92520000D02*
X140240000Y-92520000D01*
X140240000Y-91380000D01*
X141040000Y-91380000D01*
X141040000Y-92520000D01*
X141040000Y-92520000D01*
G37*
G36*
X146495000Y-92475000D02*
X145445000Y-92475000D01*
X145445000Y-91325000D01*
X146495000Y-91325000D01*
X146495000Y-92475000D01*
X146495000Y-92475000D01*
G37*
G36*
X148155000Y-92475000D02*
X147105000Y-92475000D01*
X147105000Y-91325000D01*
X148155000Y-91325000D01*
X148155000Y-92475000D01*
X148155000Y-92475000D01*
G37*
G36*
X151720000Y-91990000D02*
X150580000Y-91990000D01*
X150580000Y-91190000D01*
X151720000Y-91190000D01*
X151720000Y-91990000D01*
X151720000Y-91990000D01*
G37*
G36*
X159585000Y-91945000D02*
X158785000Y-91945000D01*
X158785000Y-90805000D01*
X159585000Y-90805000D01*
X159585000Y-91945000D01*
X159585000Y-91945000D01*
G37*
G36*
X158165000Y-91945000D02*
X157365000Y-91945000D01*
X157365000Y-90805000D01*
X158165000Y-90805000D01*
X158165000Y-91945000D01*
X158165000Y-91945000D01*
G37*
G36*
X168850000Y-91825000D02*
X165250000Y-91825000D01*
X165250000Y-90175000D01*
X168850000Y-90175000D01*
X168850000Y-91825000D01*
X168850000Y-91825000D01*
G37*
G36*
X139920000Y-91410000D02*
X138780000Y-91410000D01*
X138780000Y-90610000D01*
X139920000Y-90610000D01*
X139920000Y-91410000D01*
X139920000Y-91410000D01*
G37*
G36*
X178495000Y-91300000D02*
X176845000Y-91300000D01*
X176845000Y-91099950D01*
X176843022Y-91086034D01*
X176837246Y-91073220D01*
X176828129Y-91062523D01*
X176816393Y-91054789D01*
X176802966Y-91050631D01*
X176795050Y-91050000D01*
X173795000Y-91050000D01*
X173795000Y-86700000D01*
X176795050Y-86700000D01*
X176808966Y-86698022D01*
X176821780Y-86692246D01*
X176832477Y-86683129D01*
X176840211Y-86671393D01*
X176844369Y-86657966D01*
X176845000Y-86650050D01*
X176845000Y-86450000D01*
X178495000Y-86450000D01*
X178495000Y-91300000D01*
X178495000Y-91300000D01*
G37*
G36*
X172825000Y-91205000D02*
X171525000Y-91205000D01*
X171525000Y-90355000D01*
X172825000Y-90355000D01*
X172825000Y-91205000D01*
X172825000Y-91205000D01*
G37*
G36*
X156575000Y-91175000D02*
X155825000Y-91175000D01*
X155825000Y-90225000D01*
X156575000Y-90225000D01*
X156575000Y-91175000D01*
X156575000Y-91175000D01*
G37*
G36*
X183618164Y-88875748D02*
X183834284Y-88920111D01*
X184037668Y-89005605D01*
X184220571Y-89128975D01*
X184376035Y-89285528D01*
X184498124Y-89469287D01*
X184582197Y-89673263D01*
X184624982Y-89889344D01*
X184624982Y-89889354D01*
X184625048Y-89889688D01*
X184621529Y-90141682D01*
X184621453Y-90142016D01*
X184621453Y-90142025D01*
X184572652Y-90356824D01*
X184482916Y-90558376D01*
X184355741Y-90738658D01*
X184195974Y-90890801D01*
X184009694Y-91009019D01*
X183803997Y-91088803D01*
X183586727Y-91127113D01*
X183366152Y-91122494D01*
X183150672Y-91075117D01*
X182948500Y-90986790D01*
X182767337Y-90860879D01*
X182614076Y-90702173D01*
X182494564Y-90516725D01*
X182413346Y-90311592D01*
X182373519Y-90094594D01*
X182376600Y-89873989D01*
X182422469Y-89658190D01*
X182509383Y-89455406D01*
X182634030Y-89273361D01*
X182791659Y-89119000D01*
X182976266Y-88998196D01*
X183180831Y-88915547D01*
X183397543Y-88874207D01*
X183618164Y-88875748D01*
X183618164Y-88875748D01*
G37*
G36*
X143090000Y-90870000D02*
X142290000Y-90870000D01*
X142290000Y-89730000D01*
X143090000Y-89730000D01*
X143090000Y-90870000D01*
X143090000Y-90870000D01*
G37*
G36*
X144510000Y-90870000D02*
X143710000Y-90870000D01*
X143710000Y-89730000D01*
X144510000Y-89730000D01*
X144510000Y-90870000D01*
X144510000Y-90870000D01*
G37*
G36*
X146420000Y-90460000D02*
X145280000Y-90460000D01*
X145280000Y-89660000D01*
X146420000Y-89660000D01*
X146420000Y-90460000D01*
X146420000Y-90460000D01*
G37*
G36*
X159610000Y-90270000D02*
X158810000Y-90270000D01*
X158810000Y-89130000D01*
X159610000Y-89130000D01*
X159610000Y-90270000D01*
X159610000Y-90270000D01*
G37*
G36*
X158190000Y-90270000D02*
X157390000Y-90270000D01*
X157390000Y-89130000D01*
X158190000Y-89130000D01*
X158190000Y-90270000D01*
X158190000Y-90270000D01*
G37*
G36*
X152120000Y-90210000D02*
X150980000Y-90210000D01*
X150980000Y-89410000D01*
X152120000Y-89410000D01*
X152120000Y-90210000D01*
X152120000Y-90210000D01*
G37*
G36*
X148790000Y-90170000D02*
X147990000Y-90170000D01*
X147990000Y-89030000D01*
X148790000Y-89030000D01*
X148790000Y-90170000D01*
X148790000Y-90170000D01*
G37*
G36*
X150210000Y-90170000D02*
X149410000Y-90170000D01*
X149410000Y-89030000D01*
X150210000Y-89030000D01*
X150210000Y-90170000D01*
X150210000Y-90170000D01*
G37*
G36*
X139920000Y-89990000D02*
X138780000Y-89990000D01*
X138780000Y-89190000D01*
X139920000Y-89190000D01*
X139920000Y-89990000D01*
X139920000Y-89990000D01*
G37*
G36*
X172825000Y-89935000D02*
X171525000Y-89935000D01*
X171525000Y-89085000D01*
X172825000Y-89085000D01*
X172825000Y-89935000D01*
X172825000Y-89935000D01*
G37*
G36*
X162210000Y-89470000D02*
X161410000Y-89470000D01*
X161410000Y-88330000D01*
X162210000Y-88330000D01*
X162210000Y-89470000D01*
X162210000Y-89470000D01*
G37*
G36*
X160790000Y-89470000D02*
X159990000Y-89470000D01*
X159990000Y-88330000D01*
X160790000Y-88330000D01*
X160790000Y-89470000D01*
X160790000Y-89470000D01*
G37*
G36*
X144755000Y-89275000D02*
X143705000Y-89275000D01*
X143705000Y-88125000D01*
X144755000Y-88125000D01*
X144755000Y-89275000D01*
X144755000Y-89275000D01*
G37*
G36*
X143095000Y-89275000D02*
X142045000Y-89275000D01*
X142045000Y-88125000D01*
X143095000Y-88125000D01*
X143095000Y-89275000D01*
X143095000Y-89275000D01*
G37*
G36*
X146420000Y-89040000D02*
X145280000Y-89040000D01*
X145280000Y-88240000D01*
X146420000Y-88240000D01*
X146420000Y-89040000D01*
X146420000Y-89040000D01*
G37*
G36*
X152120000Y-88790000D02*
X150980000Y-88790000D01*
X150980000Y-87990000D01*
X152120000Y-87990000D01*
X152120000Y-88790000D01*
X152120000Y-88790000D01*
G37*
G36*
X156575000Y-88775000D02*
X155825000Y-88775000D01*
X155825000Y-87825000D01*
X156575000Y-87825000D01*
X156575000Y-88775000D01*
X156575000Y-88775000D01*
G37*
G36*
X158190000Y-88670000D02*
X157390000Y-88670000D01*
X157390000Y-87530000D01*
X158190000Y-87530000D01*
X158190000Y-88670000D01*
X158190000Y-88670000D01*
G37*
G36*
X159610000Y-88670000D02*
X158810000Y-88670000D01*
X158810000Y-87530000D01*
X159610000Y-87530000D01*
X159610000Y-88670000D01*
X159610000Y-88670000D01*
G37*
G36*
X172825000Y-88665000D02*
X171525000Y-88665000D01*
X171525000Y-87815000D01*
X172825000Y-87815000D01*
X172825000Y-88665000D01*
X172825000Y-88665000D01*
G37*
G36*
X150255000Y-88575000D02*
X149205000Y-88575000D01*
X149205000Y-87425000D01*
X150255000Y-87425000D01*
X150255000Y-88575000D01*
X150255000Y-88575000D01*
G37*
G36*
X148595000Y-88575000D02*
X147545000Y-88575000D01*
X147545000Y-87425000D01*
X148595000Y-87425000D01*
X148595000Y-88575000D01*
X148595000Y-88575000D01*
G37*
G36*
X172825000Y-87395000D02*
X171525000Y-87395000D01*
X171525000Y-86545000D01*
X172825000Y-86545000D01*
X172825000Y-87395000D01*
X172825000Y-87395000D01*
G37*
G36*
X156670000Y-87210000D02*
X155530000Y-87210000D01*
X155530000Y-86410000D01*
X156670000Y-86410000D01*
X156670000Y-87210000D01*
X156670000Y-87210000D01*
G37*
G36*
X160255000Y-86975000D02*
X159205000Y-86975000D01*
X159205000Y-85825000D01*
X160255000Y-85825000D01*
X160255000Y-86975000D01*
X160255000Y-86975000D01*
G37*
G36*
X158595000Y-86975000D02*
X157545000Y-86975000D01*
X157545000Y-85825000D01*
X158595000Y-85825000D01*
X158595000Y-86975000D01*
X158595000Y-86975000D01*
G37*
G36*
X162910000Y-86970000D02*
X162110000Y-86970000D01*
X162110000Y-85830000D01*
X162910000Y-85830000D01*
X162910000Y-86970000D01*
X162910000Y-86970000D01*
G37*
G36*
X161490000Y-86970000D02*
X160690000Y-86970000D01*
X160690000Y-85830000D01*
X161490000Y-85830000D01*
X161490000Y-86970000D01*
X161490000Y-86970000D01*
G37*
G36*
X154116653Y-84775547D02*
X154275143Y-84808081D01*
X154424290Y-84870776D01*
X154558422Y-84961249D01*
X154672425Y-85076051D01*
X154761957Y-85210809D01*
X154823612Y-85360394D01*
X154854970Y-85518761D01*
X154854970Y-85518771D01*
X154855036Y-85519105D01*
X154852455Y-85703900D01*
X154852379Y-85704234D01*
X154852379Y-85704243D01*
X154816614Y-85861670D01*
X154750804Y-86009479D01*
X154657544Y-86141684D01*
X154540383Y-86253254D01*
X154403776Y-86339948D01*
X154252931Y-86398457D01*
X154093600Y-86426551D01*
X153931845Y-86423163D01*
X153773825Y-86388420D01*
X153625566Y-86323647D01*
X153492713Y-86231312D01*
X153380321Y-86114927D01*
X153292679Y-85978932D01*
X153233119Y-85828501D01*
X153203912Y-85669369D01*
X153206172Y-85507591D01*
X153239809Y-85349339D01*
X153303547Y-85200627D01*
X153394952Y-85067133D01*
X153510549Y-84953933D01*
X153645928Y-84865343D01*
X153795943Y-84804734D01*
X153954864Y-84774417D01*
X154116653Y-84775547D01*
X154116653Y-84775547D01*
G37*
G36*
X151576653Y-84775547D02*
X151735143Y-84808081D01*
X151884290Y-84870776D01*
X152018422Y-84961249D01*
X152132425Y-85076051D01*
X152221957Y-85210809D01*
X152283612Y-85360394D01*
X152314970Y-85518761D01*
X152314970Y-85518771D01*
X152315036Y-85519105D01*
X152312455Y-85703900D01*
X152312379Y-85704234D01*
X152312379Y-85704243D01*
X152276614Y-85861670D01*
X152210804Y-86009479D01*
X152117544Y-86141684D01*
X152000383Y-86253254D01*
X151863776Y-86339948D01*
X151712931Y-86398457D01*
X151553600Y-86426551D01*
X151391845Y-86423163D01*
X151233825Y-86388420D01*
X151085566Y-86323647D01*
X150952713Y-86231312D01*
X150840321Y-86114927D01*
X150752679Y-85978932D01*
X150693119Y-85828501D01*
X150663912Y-85669369D01*
X150666172Y-85507591D01*
X150699809Y-85349339D01*
X150763547Y-85200627D01*
X150854952Y-85067133D01*
X150970549Y-84953933D01*
X151105928Y-84865343D01*
X151255943Y-84804734D01*
X151414864Y-84774417D01*
X151576653Y-84775547D01*
X151576653Y-84775547D01*
G37*
G36*
X149036653Y-84775547D02*
X149195143Y-84808081D01*
X149344290Y-84870776D01*
X149478422Y-84961249D01*
X149592425Y-85076051D01*
X149681957Y-85210809D01*
X149743612Y-85360394D01*
X149774970Y-85518761D01*
X149774970Y-85518771D01*
X149775036Y-85519105D01*
X149772455Y-85703900D01*
X149772379Y-85704234D01*
X149772379Y-85704243D01*
X149736614Y-85861670D01*
X149670804Y-86009479D01*
X149577544Y-86141684D01*
X149460383Y-86253254D01*
X149323776Y-86339948D01*
X149172931Y-86398457D01*
X149013600Y-86426551D01*
X148851845Y-86423163D01*
X148693825Y-86388420D01*
X148545566Y-86323647D01*
X148412713Y-86231312D01*
X148300321Y-86114927D01*
X148212679Y-85978932D01*
X148153119Y-85828501D01*
X148123912Y-85669369D01*
X148126172Y-85507591D01*
X148159809Y-85349339D01*
X148223547Y-85200627D01*
X148314952Y-85067133D01*
X148430549Y-84953933D01*
X148565928Y-84865343D01*
X148715943Y-84804734D01*
X148874864Y-84774417D01*
X149036653Y-84775547D01*
X149036653Y-84775547D01*
G37*
G36*
X146496653Y-84775547D02*
X146655143Y-84808081D01*
X146804290Y-84870776D01*
X146938422Y-84961249D01*
X147052425Y-85076051D01*
X147141957Y-85210809D01*
X147203612Y-85360394D01*
X147234970Y-85518761D01*
X147234970Y-85518771D01*
X147235036Y-85519105D01*
X147232455Y-85703900D01*
X147232379Y-85704234D01*
X147232379Y-85704243D01*
X147196614Y-85861670D01*
X147130804Y-86009479D01*
X147037544Y-86141684D01*
X146920383Y-86253254D01*
X146783776Y-86339948D01*
X146632931Y-86398457D01*
X146473600Y-86426551D01*
X146311845Y-86423163D01*
X146153825Y-86388420D01*
X146005566Y-86323647D01*
X145872713Y-86231312D01*
X145760321Y-86114927D01*
X145672679Y-85978932D01*
X145613119Y-85828501D01*
X145583912Y-85669369D01*
X145586172Y-85507591D01*
X145619809Y-85349339D01*
X145683547Y-85200627D01*
X145774952Y-85067133D01*
X145890549Y-84953933D01*
X146025928Y-84865343D01*
X146175943Y-84804734D01*
X146334864Y-84774417D01*
X146496653Y-84775547D01*
X146496653Y-84775547D01*
G37*
G36*
X144695000Y-86425000D02*
X143045000Y-86425000D01*
X143045000Y-84775000D01*
X144695000Y-84775000D01*
X144695000Y-86425000D01*
X144695000Y-86425000D01*
G37*
G36*
X168850000Y-86025000D02*
X165250000Y-86025000D01*
X165250000Y-84375000D01*
X168850000Y-84375000D01*
X168850000Y-86025000D01*
X168850000Y-86025000D01*
G37*
G36*
X156670000Y-85790000D02*
X155530000Y-85790000D01*
X155530000Y-84990000D01*
X156670000Y-84990000D01*
X156670000Y-85790000D01*
X156670000Y-85790000D01*
G37*
G36*
X139399674Y-82575947D02*
X139673426Y-82632140D01*
X139931045Y-82740433D01*
X140162727Y-82896704D01*
X140359641Y-83094999D01*
X140514290Y-83327764D01*
X140620783Y-83586134D01*
X140674996Y-83859928D01*
X140674996Y-83859943D01*
X140675061Y-83860272D01*
X140670604Y-84179464D01*
X140670528Y-84179798D01*
X140670528Y-84179807D01*
X140608694Y-84451975D01*
X140495025Y-84707278D01*
X140333939Y-84935633D01*
X140131567Y-85128348D01*
X139895612Y-85278091D01*
X139635064Y-85379151D01*
X139359854Y-85427677D01*
X139080459Y-85421825D01*
X138807516Y-85361814D01*
X138551435Y-85249935D01*
X138321960Y-85090446D01*
X138127830Y-84889419D01*
X137976448Y-84654518D01*
X137873572Y-84394684D01*
X137823124Y-84119819D01*
X137827026Y-83840386D01*
X137885128Y-83567040D01*
X137995219Y-83310176D01*
X138153101Y-83079595D01*
X138352768Y-82884067D01*
X138586605Y-82731048D01*
X138845718Y-82626360D01*
X139120222Y-82573996D01*
X139399674Y-82575947D01*
X139399674Y-82575947D01*
G37*
G36*
X182399674Y-82575947D02*
X182673426Y-82632140D01*
X182931045Y-82740433D01*
X183162727Y-82896704D01*
X183359641Y-83094999D01*
X183514290Y-83327764D01*
X183620783Y-83586134D01*
X183674996Y-83859928D01*
X183674996Y-83859943D01*
X183675061Y-83860272D01*
X183670604Y-84179464D01*
X183670528Y-84179798D01*
X183670528Y-84179807D01*
X183608694Y-84451975D01*
X183495025Y-84707278D01*
X183333939Y-84935633D01*
X183131567Y-85128348D01*
X182895612Y-85278091D01*
X182635064Y-85379151D01*
X182359854Y-85427677D01*
X182080459Y-85421825D01*
X181807516Y-85361814D01*
X181551435Y-85249935D01*
X181321960Y-85090446D01*
X181127830Y-84889419D01*
X180976448Y-84654518D01*
X180873572Y-84394684D01*
X180823124Y-84119819D01*
X180827026Y-83840386D01*
X180885128Y-83567040D01*
X180995219Y-83310176D01*
X181153101Y-83079595D01*
X181352768Y-82884067D01*
X181586605Y-82731048D01*
X181845718Y-82626360D01*
X182120222Y-82573996D01*
X182399674Y-82575947D01*
X182399674Y-82575947D01*
G37*
G36*
X161490000Y-85170000D02*
X160690000Y-85170000D01*
X160690000Y-84030000D01*
X161490000Y-84030000D01*
X161490000Y-85170000D01*
X161490000Y-85170000D01*
G37*
G36*
X160300000Y-85170000D02*
X159500000Y-85170000D01*
X159500000Y-84030000D01*
X160300000Y-84030000D01*
X160300000Y-85170000D01*
X160300000Y-85170000D01*
G37*
G36*
X158880000Y-85170000D02*
X158080000Y-85170000D01*
X158080000Y-84030000D01*
X158880000Y-84030000D01*
X158880000Y-85170000D01*
X158880000Y-85170000D01*
G37*
G36*
X162910000Y-85170000D02*
X162110000Y-85170000D01*
X162110000Y-84030000D01*
X162910000Y-84030000D01*
X162910000Y-85170000D01*
X162910000Y-85170000D01*
G37*
G36*
X146496653Y-82235547D02*
X146655143Y-82268081D01*
X146804290Y-82330776D01*
X146938422Y-82421249D01*
X147052425Y-82536051D01*
X147141957Y-82670809D01*
X147203612Y-82820394D01*
X147234970Y-82978761D01*
X147234970Y-82978771D01*
X147235036Y-82979105D01*
X147232455Y-83163900D01*
X147232379Y-83164234D01*
X147232379Y-83164243D01*
X147196614Y-83321670D01*
X147130804Y-83469479D01*
X147037544Y-83601684D01*
X146920383Y-83713254D01*
X146783776Y-83799948D01*
X146632931Y-83858457D01*
X146473600Y-83886551D01*
X146311845Y-83883163D01*
X146153825Y-83848420D01*
X146005566Y-83783647D01*
X145872713Y-83691312D01*
X145760321Y-83574927D01*
X145672679Y-83438932D01*
X145613119Y-83288501D01*
X145583912Y-83129369D01*
X145586172Y-82967591D01*
X145619809Y-82809339D01*
X145683547Y-82660627D01*
X145774952Y-82527133D01*
X145890549Y-82413933D01*
X146025928Y-82325343D01*
X146175943Y-82264734D01*
X146334864Y-82234417D01*
X146496653Y-82235547D01*
X146496653Y-82235547D01*
G37*
G36*
X149036653Y-82235547D02*
X149195143Y-82268081D01*
X149344290Y-82330776D01*
X149478422Y-82421249D01*
X149592425Y-82536051D01*
X149681957Y-82670809D01*
X149743612Y-82820394D01*
X149774970Y-82978761D01*
X149774970Y-82978771D01*
X149775036Y-82979105D01*
X149772455Y-83163900D01*
X149772379Y-83164234D01*
X149772379Y-83164243D01*
X149736614Y-83321670D01*
X149670804Y-83469479D01*
X149577544Y-83601684D01*
X149460383Y-83713254D01*
X149323776Y-83799948D01*
X149172931Y-83858457D01*
X149013600Y-83886551D01*
X148851845Y-83883163D01*
X148693825Y-83848420D01*
X148545566Y-83783647D01*
X148412713Y-83691312D01*
X148300321Y-83574927D01*
X148212679Y-83438932D01*
X148153119Y-83288501D01*
X148123912Y-83129369D01*
X148126172Y-82967591D01*
X148159809Y-82809339D01*
X148223547Y-82660627D01*
X148314952Y-82527133D01*
X148430549Y-82413933D01*
X148565928Y-82325343D01*
X148715943Y-82264734D01*
X148874864Y-82234417D01*
X149036653Y-82235547D01*
X149036653Y-82235547D01*
G37*
G36*
X151576653Y-82235547D02*
X151735143Y-82268081D01*
X151884290Y-82330776D01*
X152018422Y-82421249D01*
X152132425Y-82536051D01*
X152221957Y-82670809D01*
X152283612Y-82820394D01*
X152314970Y-82978761D01*
X152314970Y-82978771D01*
X152315036Y-82979105D01*
X152312455Y-83163900D01*
X152312379Y-83164234D01*
X152312379Y-83164243D01*
X152276614Y-83321670D01*
X152210804Y-83469479D01*
X152117544Y-83601684D01*
X152000383Y-83713254D01*
X151863776Y-83799948D01*
X151712931Y-83858457D01*
X151553600Y-83886551D01*
X151391845Y-83883163D01*
X151233825Y-83848420D01*
X151085566Y-83783647D01*
X150952713Y-83691312D01*
X150840321Y-83574927D01*
X150752679Y-83438932D01*
X150693119Y-83288501D01*
X150663912Y-83129369D01*
X150666172Y-82967591D01*
X150699809Y-82809339D01*
X150763547Y-82660627D01*
X150854952Y-82527133D01*
X150970549Y-82413933D01*
X151105928Y-82325343D01*
X151255943Y-82264734D01*
X151414864Y-82234417D01*
X151576653Y-82235547D01*
X151576653Y-82235547D01*
G37*
G36*
X154116653Y-82235547D02*
X154275143Y-82268081D01*
X154424290Y-82330776D01*
X154558422Y-82421249D01*
X154672425Y-82536051D01*
X154761957Y-82670809D01*
X154823612Y-82820394D01*
X154854970Y-82978761D01*
X154854970Y-82978771D01*
X154855036Y-82979105D01*
X154852455Y-83163900D01*
X154852379Y-83164234D01*
X154852379Y-83164243D01*
X154816614Y-83321670D01*
X154750804Y-83469479D01*
X154657544Y-83601684D01*
X154540383Y-83713254D01*
X154403776Y-83799948D01*
X154252931Y-83858457D01*
X154093600Y-83886551D01*
X153931845Y-83883163D01*
X153773825Y-83848420D01*
X153625566Y-83783647D01*
X153492713Y-83691312D01*
X153380321Y-83574927D01*
X153292679Y-83438932D01*
X153233119Y-83288501D01*
X153203912Y-83129369D01*
X153206172Y-82967591D01*
X153239809Y-82809339D01*
X153303547Y-82660627D01*
X153394952Y-82527133D01*
X153510549Y-82413933D01*
X153645928Y-82325343D01*
X153795943Y-82264734D01*
X153954864Y-82234417D01*
X154116653Y-82235547D01*
X154116653Y-82235547D01*
G37*
G36*
X156656653Y-82235547D02*
X156815143Y-82268081D01*
X156964290Y-82330776D01*
X157098422Y-82421249D01*
X157212425Y-82536051D01*
X157301957Y-82670809D01*
X157363612Y-82820394D01*
X157394970Y-82978761D01*
X157394970Y-82978771D01*
X157395036Y-82979105D01*
X157392455Y-83163900D01*
X157392379Y-83164234D01*
X157392379Y-83164243D01*
X157356614Y-83321670D01*
X157290804Y-83469479D01*
X157197544Y-83601684D01*
X157080383Y-83713254D01*
X156943776Y-83799948D01*
X156792931Y-83858457D01*
X156633600Y-83886551D01*
X156471845Y-83883163D01*
X156313825Y-83848420D01*
X156165566Y-83783647D01*
X156032713Y-83691312D01*
X155920321Y-83574927D01*
X155832679Y-83438932D01*
X155773119Y-83288501D01*
X155743912Y-83129369D01*
X155746172Y-82967591D01*
X155779809Y-82809339D01*
X155843547Y-82660627D01*
X155934952Y-82527133D01*
X156050549Y-82413933D01*
X156185928Y-82325343D01*
X156335943Y-82264734D01*
X156494864Y-82234417D01*
X156656653Y-82235547D01*
X156656653Y-82235547D01*
G37*
G36*
X144695000Y-83885000D02*
X143045000Y-83885000D01*
X143045000Y-82235000D01*
X144695000Y-82235000D01*
X144695000Y-83885000D01*
X144695000Y-83885000D01*
G37*
G36*
X171118164Y-81375748D02*
X171334284Y-81420111D01*
X171537668Y-81505605D01*
X171720571Y-81628975D01*
X171876035Y-81785528D01*
X171998124Y-81969287D01*
X172082197Y-82173263D01*
X172124982Y-82389344D01*
X172124982Y-82389354D01*
X172125048Y-82389688D01*
X172121529Y-82641682D01*
X172121453Y-82642016D01*
X172121453Y-82642025D01*
X172072652Y-82856824D01*
X171982916Y-83058376D01*
X171855741Y-83238658D01*
X171695974Y-83390801D01*
X171509694Y-83509019D01*
X171303997Y-83588803D01*
X171086727Y-83627113D01*
X170866152Y-83622494D01*
X170650672Y-83575117D01*
X170448500Y-83486790D01*
X170267337Y-83360879D01*
X170114076Y-83202173D01*
X169994564Y-83016725D01*
X169913346Y-82811592D01*
X169873519Y-82594594D01*
X169876600Y-82373989D01*
X169922469Y-82158190D01*
X170009383Y-81955406D01*
X170134030Y-81773361D01*
X170291659Y-81619000D01*
X170476266Y-81498196D01*
X170680831Y-81415547D01*
X170897543Y-81374207D01*
X171118164Y-81375748D01*
X171118164Y-81375748D01*
G37*
G36*
X165918164Y-81375748D02*
X166134284Y-81420111D01*
X166337668Y-81505605D01*
X166520571Y-81628975D01*
X166676035Y-81785528D01*
X166798124Y-81969287D01*
X166882197Y-82173263D01*
X166924982Y-82389344D01*
X166924982Y-82389354D01*
X166925048Y-82389688D01*
X166921529Y-82641682D01*
X166921453Y-82642016D01*
X166921453Y-82642025D01*
X166872652Y-82856824D01*
X166782916Y-83058376D01*
X166655741Y-83238658D01*
X166495974Y-83390801D01*
X166309694Y-83509019D01*
X166103997Y-83588803D01*
X165886727Y-83627113D01*
X165666152Y-83622494D01*
X165450672Y-83575117D01*
X165248500Y-83486790D01*
X165067337Y-83360879D01*
X164914076Y-83202173D01*
X164794564Y-83016725D01*
X164713346Y-82811592D01*
X164673519Y-82594594D01*
X164676600Y-82373989D01*
X164722469Y-82158190D01*
X164809383Y-81955406D01*
X164934030Y-81773361D01*
X165091659Y-81619000D01*
X165276266Y-81498196D01*
X165480831Y-81415547D01*
X165697543Y-81374207D01*
X165918164Y-81375748D01*
X165918164Y-81375748D01*
G37*
G36*
X173076150Y-81525481D02*
X173215429Y-81554071D01*
X173346498Y-81609167D01*
X173464371Y-81688673D01*
X173564555Y-81789560D01*
X173643235Y-81907983D01*
X173697417Y-82039437D01*
X173724966Y-82178566D01*
X173724966Y-82178581D01*
X173725031Y-82178910D01*
X173722763Y-82341306D01*
X173722688Y-82341635D01*
X173722688Y-82341648D01*
X173691266Y-82479954D01*
X173633436Y-82609844D01*
X173551480Y-82726023D01*
X173448516Y-82824074D01*
X173328470Y-82900258D01*
X173195909Y-82951675D01*
X173055891Y-82976363D01*
X172913743Y-82973386D01*
X172774876Y-82942854D01*
X172644592Y-82885934D01*
X172527836Y-82804787D01*
X172429070Y-82702512D01*
X172352051Y-82583002D01*
X172299711Y-82450804D01*
X172274044Y-82310961D01*
X172276030Y-82168792D01*
X172305589Y-82029723D01*
X172361602Y-81899035D01*
X172441927Y-81781724D01*
X172543513Y-81682244D01*
X172662481Y-81604392D01*
X172794314Y-81551129D01*
X172933971Y-81524488D01*
X173076150Y-81525481D01*
X173076150Y-81525481D01*
G37*
G36*
X168076150Y-81475481D02*
X168215429Y-81504071D01*
X168346498Y-81559167D01*
X168464371Y-81638673D01*
X168564555Y-81739560D01*
X168643235Y-81857983D01*
X168697417Y-81989437D01*
X168724966Y-82128566D01*
X168724966Y-82128581D01*
X168725031Y-82128910D01*
X168722763Y-82291306D01*
X168722688Y-82291635D01*
X168722688Y-82291648D01*
X168691266Y-82429954D01*
X168633436Y-82559844D01*
X168551480Y-82676023D01*
X168448516Y-82774074D01*
X168328470Y-82850258D01*
X168195909Y-82901675D01*
X168055891Y-82926363D01*
X167913743Y-82923386D01*
X167774876Y-82892854D01*
X167644592Y-82835934D01*
X167527836Y-82754787D01*
X167429070Y-82652512D01*
X167352051Y-82533002D01*
X167299711Y-82400804D01*
X167274044Y-82260961D01*
X167276030Y-82118792D01*
X167305589Y-81979723D01*
X167361602Y-81849035D01*
X167441927Y-81731724D01*
X167543513Y-81632244D01*
X167662481Y-81554392D01*
X167794314Y-81501129D01*
X167933971Y-81474488D01*
X168076150Y-81475481D01*
X168076150Y-81475481D01*
G37*
M02*
