G04 #@! TF.FileFunction,Paste,Bot*
%FSLAX46Y46*%
G04 Gerber Fmt 4.6, Leading zero omitted, Abs format (unit mm)*
G04 Created by KiCad (PCBNEW 4.0.6-e0-6349~53~ubuntu16.04.1) date Wed Mar  8 22:49:17 2017*
%MOMM*%
%LPD*%
G01*
G04 APERTURE LIST*
%ADD10C,0.100000*%
%ADD11R,0.500000X0.700000*%
%ADD12R,0.550000X0.890000*%
%ADD13R,3.350000X1.400000*%
%ADD14R,0.500000X0.800000*%
%ADD15R,0.800000X0.500000*%
%ADD16R,1.050000X0.600000*%
%ADD17R,0.890000X0.550000*%
%ADD18R,0.800000X0.900000*%
G04 APERTURE END LIST*
D10*
D11*
X159850000Y-82105000D03*
X159850000Y-79705000D03*
D12*
X165210000Y-109255000D03*
X163790000Y-109255000D03*
D13*
X170250000Y-105355000D03*
X170250000Y-111155000D03*
D11*
X159175000Y-90350000D03*
X159175000Y-87950000D03*
X159100000Y-104000000D03*
X159100000Y-101600000D03*
D13*
X170000000Y-93705000D03*
X170000000Y-99505000D03*
D14*
X177300000Y-88650000D03*
X176450000Y-88650000D03*
X178150000Y-88650000D03*
X177300000Y-86350000D03*
X176450000Y-86350000D03*
X178150000Y-86350000D03*
X178150000Y-87500000D03*
X176450000Y-87500000D03*
D15*
X180000000Y-89375000D03*
X180000000Y-85625000D03*
X180000000Y-88100000D03*
D16*
X174275000Y-88135000D03*
X174275000Y-89405000D03*
X174275000Y-86865000D03*
X174275000Y-85595000D03*
D15*
X180000000Y-86900000D03*
D14*
X177300000Y-87500000D03*
X177300000Y-97645000D03*
X176450000Y-97645000D03*
X178150000Y-97645000D03*
X177300000Y-95345000D03*
X176450000Y-95345000D03*
X178150000Y-95345000D03*
X178150000Y-96495000D03*
X176450000Y-96495000D03*
D15*
X180000000Y-98370000D03*
X180000000Y-94620000D03*
X180000000Y-97095000D03*
D16*
X174275000Y-97130000D03*
X174275000Y-98400000D03*
X174275000Y-95860000D03*
X174275000Y-94590000D03*
D15*
X180000000Y-95895000D03*
D14*
X177300000Y-96495000D03*
X177350000Y-106555000D03*
X176500000Y-106555000D03*
X178200000Y-106555000D03*
X177350000Y-104255000D03*
X176500000Y-104255000D03*
X178200000Y-104255000D03*
X178200000Y-105405000D03*
X176500000Y-105405000D03*
D15*
X180050000Y-107280000D03*
X180050000Y-103530000D03*
X180050000Y-106005000D03*
D16*
X174325000Y-106040000D03*
X174325000Y-107310000D03*
X174325000Y-104770000D03*
X174325000Y-103500000D03*
D15*
X180050000Y-104805000D03*
D14*
X177350000Y-105405000D03*
D13*
X170000000Y-89700000D03*
X170000000Y-83900000D03*
D12*
X163610000Y-81100000D03*
X162190000Y-81100000D03*
X163610000Y-82800000D03*
X162190000Y-82800000D03*
X162235000Y-89700000D03*
X160815000Y-89700000D03*
X162685000Y-91375000D03*
X161265000Y-91375000D03*
X162210000Y-101300000D03*
X160790000Y-101300000D03*
X162220000Y-103000000D03*
X160800000Y-103000000D03*
X164910000Y-88000000D03*
X163490000Y-88000000D03*
X165610000Y-98605000D03*
X164190000Y-98605000D03*
X163790000Y-107605000D03*
X165210000Y-107605000D03*
X164190000Y-96905000D03*
X165610000Y-96905000D03*
X163690000Y-86400000D03*
X165110000Y-86400000D03*
D17*
X159000000Y-109210000D03*
X159000000Y-107790000D03*
X162650000Y-94090000D03*
X162650000Y-95510000D03*
X159125000Y-84090000D03*
X159125000Y-85510000D03*
X157300000Y-107790000D03*
X157300000Y-109210000D03*
X161000000Y-95510000D03*
X161000000Y-94090000D03*
X157400000Y-85500000D03*
X157400000Y-84080000D03*
D12*
X160890000Y-110650000D03*
X162310000Y-110650000D03*
X161290000Y-98500000D03*
X162710000Y-98500000D03*
X160815000Y-88025000D03*
X162235000Y-88025000D03*
D17*
X154550000Y-92810000D03*
X154550000Y-91390000D03*
D18*
X160740000Y-108950000D03*
X162400000Y-108950000D03*
X161170000Y-96850000D03*
X162830000Y-96850000D03*
X160670000Y-86400000D03*
X162330000Y-86400000D03*
D12*
X165210000Y-105905000D03*
X163790000Y-105905000D03*
X165560000Y-94500000D03*
X164140000Y-94500000D03*
X162085000Y-84750000D03*
X160665000Y-84750000D03*
D18*
X143770000Y-87900000D03*
X145430000Y-87900000D03*
X149430000Y-87900000D03*
X147770000Y-87900000D03*
X153430000Y-87900000D03*
X151770000Y-87900000D03*
D12*
X146640000Y-91305000D03*
X148060000Y-91305000D03*
X143880000Y-86200000D03*
X145300000Y-86200000D03*
X149310000Y-86200000D03*
X147890000Y-86200000D03*
X153210000Y-86200000D03*
X151790000Y-86200000D03*
X145310000Y-89600000D03*
X143890000Y-89600000D03*
X147890000Y-89600000D03*
X149310000Y-89600000D03*
X151890000Y-89600000D03*
X153310000Y-89600000D03*
D17*
X154250000Y-95610000D03*
X154250000Y-94190000D03*
D18*
X149470000Y-91305000D03*
X151130000Y-91305000D03*
M02*
