M48
;DRILL file {KiCad 4.0.6-e0-6349~53~ubuntu16.04.1} date Tue Mar 14 23:46:48 2017
;FORMAT={3:3/ absolute / metric / suppress leading zeros}
FMAT,2
METRIC,TZ
T1C0.400
T2C0.800
T3C1.000
T4C1.500
%
G90
G05
M71
T1
X136250Y-84505
X136250Y-89505
X136250Y-94505
X136250Y-99505
X136250Y-104505
X136250Y-109505
X140250Y-96250
X141750Y-79005
X142250Y-115005
X142750Y-99000
X142750Y-102255
X143250Y-110255
X144500Y-97405
X144550Y-93905
X144550Y-95050
X144550Y-96350
X145000Y-98300
X145550Y-93055
X145550Y-100500
X145600Y-87900
X145600Y-89600
X145750Y-79005
X145750Y-101755
X146250Y-115005
X146500Y-98155
X146750Y-109250
X146800Y-93205
X147700Y-98105
X147900Y-93205
X148850Y-98105
X148950Y-93205
X149600Y-87900
X149600Y-100500
X149700Y-89600
X149712Y-99522
X150000Y-93405
X150150Y-97755
X150750Y-79005
X151000Y-93000
X151185Y-108915
X151250Y-94055
X151250Y-115005
X151750Y-104400
X151759Y-92349
X152050Y-100000
X152250Y-91250
X152406Y-93112
X152950Y-101300
X153500Y-105505
X153550Y-102200
X154250Y-103000
X154300Y-98500
X154341Y-95631
X155500Y-99755
X155750Y-79005
X156000Y-95505
X156225Y-92850
X156250Y-91005
X156250Y-115005
X156275Y-87624
X156275Y-88675
X156400Y-82975
X156400Y-86625
X157161Y-91646
X157700Y-82905
X158013Y-99987
X158200Y-110400
X158250Y-112055
X158670Y-95225
X158700Y-105705
X158981Y-98165
X159000Y-83205
X159000Y-99755
X159394Y-107531
X159750Y-79005
X159900Y-105800
X160575Y-92720
X160699Y-107480
X160900Y-79005
X161250Y-115005
X161600Y-105505
X161900Y-79305
X162076Y-104488
X162341Y-90189
X162393Y-103475
X162475Y-93168
X163000Y-79805
X163037Y-104768
X163250Y-84805
X163900Y-89205
X163925Y-92900
X164150Y-113005
X164250Y-110755
X164284Y-99941
X164411Y-91967
X164747Y-95395
X165550Y-81305
X165550Y-82005
X165550Y-82705
X165750Y-100205
X165750Y-101005
X165750Y-101705
X165750Y-102405
X165750Y-103105
X165850Y-111605
X165850Y-112305
X165850Y-113005
X165850Y-113705
X165850Y-114405
X165850Y-115105
X166250Y-80605
X166250Y-81305
X166250Y-82005
X166250Y-82705
X166250Y-83405
X166450Y-100205
X166450Y-101005
X166450Y-101705
X166450Y-102405
X166450Y-103105
X166450Y-103805
X166550Y-111605
X166550Y-112305
X166550Y-113005
X166550Y-113705
X166550Y-114405
X166550Y-115105
X166950Y-80605
X166950Y-81305
X166950Y-82005
X167150Y-101005
X167150Y-101705
X167150Y-102405
X167150Y-103105
X167150Y-103805
X167250Y-113005
X167250Y-113705
X167250Y-114405
X167250Y-115105
X167650Y-80605
X167650Y-81305
X167650Y-82005
X167850Y-101005
X167850Y-101705
X167850Y-102405
X167850Y-103105
X167850Y-103805
X167950Y-113005
X167950Y-113705
X167950Y-114405
X167950Y-115105
X167960Y-108140
X168000Y-96755
X168350Y-79905
X168350Y-80605
X168350Y-81305
X168350Y-82005
X168550Y-101005
X168550Y-101705
X168550Y-102405
X168550Y-103105
X168550Y-103805
X168650Y-113005
X168650Y-113705
X168650Y-114405
X168650Y-115105
X168963Y-97917
X169000Y-85530
X169000Y-88005
X169014Y-94983
X169050Y-79205
X169050Y-79905
X169050Y-80605
X169050Y-81305
X169050Y-82005
X169244Y-106991
X169250Y-101005
X169250Y-101705
X169250Y-102405
X169250Y-103105
X169250Y-103805
X169250Y-109605
X169350Y-113005
X169350Y-113705
X169350Y-114405
X169350Y-115105
X169750Y-79205
X169750Y-79905
X169750Y-80605
X169750Y-81305
X169750Y-82005
X169950Y-101005
X169950Y-101705
X169950Y-102405
X169950Y-103105
X169950Y-103805
X170050Y-113005
X170050Y-113705
X170050Y-114405
X170050Y-115105
X170450Y-79205
X170450Y-79905
X170450Y-80605
X170450Y-81305
X170450Y-82005
X170750Y-113005
X170750Y-113705
X170750Y-114405
X170750Y-115105
X171450Y-113005
X171450Y-113705
X171450Y-114405
X171450Y-115105
X172420Y-103290
X172940Y-100420
X173000Y-83005
X173320Y-109430
X173320Y-110660
X173850Y-91000
X174250Y-93000
X174250Y-101950
X174500Y-100250
X174750Y-84000
X174900Y-109900
X174900Y-112000
X176250Y-93400
X176350Y-84600
X176850Y-99300
X177268Y-83755
X177450Y-102200
X177550Y-93300
X178350Y-109900
X178450Y-83255
X178763Y-102089
X179972Y-93227
X181650Y-86705
X181650Y-87405
X181650Y-88105
X181650Y-88805
X181650Y-89505
X181650Y-90205
X181650Y-90905
X181650Y-91605
X181650Y-95705
X181650Y-96405
X181650Y-97105
X181650Y-97805
X181650Y-98505
X181650Y-99205
X181650Y-99905
X181650Y-100605
X181650Y-103905
X181650Y-104605
X181650Y-105305
X181650Y-106005
X181650Y-106705
X181650Y-107405
X181650Y-108105
X181650Y-108805
X182350Y-86705
X182350Y-87405
X182350Y-88105
X182350Y-88805
X182350Y-89505
X182350Y-90205
X182350Y-90905
X182350Y-91605
X182350Y-95705
X182350Y-96405
X182350Y-97105
X182350Y-97805
X182350Y-98505
X182350Y-99205
X182350Y-99905
X182350Y-100605
X182350Y-103905
X182350Y-104605
X182350Y-105305
X182350Y-106005
X182350Y-106705
X182350Y-107405
X182350Y-108105
X182350Y-108805
X183050Y-86705
X183050Y-87405
X183050Y-88105
X183050Y-88805
X183050Y-89505
X183050Y-90205
X183050Y-90905
X183050Y-91605
X183050Y-95705
X183050Y-96405
X183050Y-97105
X183050Y-97805
X183050Y-98505
X183050Y-99205
X183050Y-99905
X183050Y-100605
X183050Y-103905
X183050Y-104605
X183050Y-105305
X183050Y-106005
X183050Y-106705
X183050Y-107405
X183050Y-108105
X183050Y-108805
X183750Y-87405
X183750Y-88105
X183750Y-88805
X183750Y-89505
X183750Y-90205
X183750Y-90905
X183750Y-91605
X183750Y-95705
X183750Y-96405
X183750Y-97105
X183750Y-97805
X183750Y-98505
X183750Y-99205
X183750Y-99905
X183750Y-100605
X183750Y-104605
X183750Y-105305
X183750Y-106005
X183750Y-106705
X183750Y-107405
X183750Y-108105
X183750Y-108805
X184450Y-86705
X184450Y-87405
X184450Y-88105
X184450Y-88805
X184450Y-89505
X184450Y-90205
X184450Y-90905
X184450Y-91605
X184450Y-95705
X184450Y-96405
X184450Y-97105
X184450Y-97805
X184450Y-98505
X184450Y-99205
X184450Y-99905
X184450Y-100605
X184450Y-103905
X184450Y-104605
X184450Y-105305
X184450Y-106005
X184450Y-106705
X184450Y-107405
X184450Y-108105
X184450Y-108805
T2
X167500Y-79250
X172500Y-79250
T3
X143780Y-81280
X143780Y-83820
X146320Y-81280
X146320Y-83820
X146320Y-111760
X148860Y-81280
X148860Y-83820
X148860Y-111760
X151400Y-81280
X151400Y-83820
X151400Y-111760
X153940Y-81280
X153940Y-83820
X153940Y-111760
X156480Y-81280
X156480Y-111760
T4
X165500Y-79500
X173250Y-81000
X183750Y-85500
X183750Y-94250
X183750Y-102750
T0
M30
