G04 #@! TF.FileFunction,Legend,Bot*
%FSLAX46Y46*%
G04 Gerber Fmt 4.6, Leading zero omitted, Abs format (unit mm)*
G04 Created by KiCad (PCBNEW 4.0.6-e0-6349~53~ubuntu16.04.1) date Tue Mar  7 23:33:07 2017*
%MOMM*%
%LPD*%
G01*
G04 APERTURE LIST*
%ADD10C,0.100000*%
%ADD11C,0.150000*%
%ADD12C,0.300000*%
%ADD13C,0.400000*%
%ADD14C,0.250000*%
G04 APERTURE END LIST*
D10*
D11*
X177002200Y-166007200D02*
X177002200Y-198007200D01*
X285002200Y-198007200D01*
X285002200Y-166007200D01*
X177002200Y-166007200D01*
D10*
D11*
X10000000Y-10000000D02*
X10000000Y-200007200D01*
X287002200Y-200007200D01*
X287002200Y-10000000D01*
X10000000Y-10000000D01*
D10*
D11*
X12000000Y-12000000D02*
X12000000Y-198007200D01*
X285002200Y-198007200D01*
X285002200Y-12000000D01*
X12000000Y-12000000D01*
D10*
D11*
X60000000Y-12000000D02*
X60000000Y-10000000D01*
D10*
D11*
X110000000Y-12000000D02*
X110000000Y-10000000D01*
D10*
D11*
X160000000Y-12000000D02*
X160000000Y-10000000D01*
D10*
D11*
X210000000Y-12000000D02*
X210000000Y-10000000D01*
D10*
D11*
X260000000Y-12000000D02*
X260000000Y-10000000D01*
D10*
D11*
X35990476Y-11588095D02*
X35247619Y-11588095D01*
X35619048Y-11588095D02*
X35619048Y-10288095D01*
X35495238Y-10473810D01*
X35371429Y-10597619D01*
X35247619Y-10659524D01*
D10*
D11*
X85247619Y-10411905D02*
X85309524Y-10350000D01*
X85433333Y-10288095D01*
X85742857Y-10288095D01*
X85866667Y-10350000D01*
X85928571Y-10411905D01*
X85990476Y-10535714D01*
X85990476Y-10659524D01*
X85928571Y-10845238D01*
X85185714Y-11588095D01*
X85990476Y-11588095D01*
D10*
D11*
X135185714Y-10288095D02*
X135990476Y-10288095D01*
X135557143Y-10783333D01*
X135742857Y-10783333D01*
X135866667Y-10845238D01*
X135928571Y-10907143D01*
X135990476Y-11030952D01*
X135990476Y-11340476D01*
X135928571Y-11464286D01*
X135866667Y-11526190D01*
X135742857Y-11588095D01*
X135371429Y-11588095D01*
X135247619Y-11526190D01*
X135185714Y-11464286D01*
D10*
D11*
X185866667Y-10721429D02*
X185866667Y-11588095D01*
X185557143Y-10226190D02*
X185247619Y-11154762D01*
X186052381Y-11154762D01*
D10*
D11*
X235928571Y-10288095D02*
X235309524Y-10288095D01*
X235247619Y-10907143D01*
X235309524Y-10845238D01*
X235433333Y-10783333D01*
X235742857Y-10783333D01*
X235866667Y-10845238D01*
X235928571Y-10907143D01*
X235990476Y-11030952D01*
X235990476Y-11340476D01*
X235928571Y-11464286D01*
X235866667Y-11526190D01*
X235742857Y-11588095D01*
X235433333Y-11588095D01*
X235309524Y-11526190D01*
X235247619Y-11464286D01*
D10*
D11*
X285866667Y-10288095D02*
X285619048Y-10288095D01*
X285495238Y-10350000D01*
X285433333Y-10411905D01*
X285309524Y-10597619D01*
X285247619Y-10845238D01*
X285247619Y-11340476D01*
X285309524Y-11464286D01*
X285371429Y-11526190D01*
X285495238Y-11588095D01*
X285742857Y-11588095D01*
X285866667Y-11526190D01*
X285928571Y-11464286D01*
X285990476Y-11340476D01*
X285990476Y-11030952D01*
X285928571Y-10907143D01*
X285866667Y-10845238D01*
X285742857Y-10783333D01*
X285495238Y-10783333D01*
X285371429Y-10845238D01*
X285309524Y-10907143D01*
X285247619Y-11030952D01*
D10*
D11*
X60000000Y-198007200D02*
X60000000Y-200007200D01*
D10*
D11*
X110000000Y-198007200D02*
X110000000Y-200007200D01*
D10*
D11*
X160000000Y-198007200D02*
X160000000Y-200007200D01*
D10*
D11*
X210000000Y-198007200D02*
X210000000Y-200007200D01*
D10*
D11*
X260000000Y-198007200D02*
X260000000Y-200007200D01*
D10*
D11*
X35990476Y-199595295D02*
X35247619Y-199595295D01*
X35619048Y-199595295D02*
X35619048Y-198295295D01*
X35495238Y-198481010D01*
X35371429Y-198604819D01*
X35247619Y-198666724D01*
D10*
D11*
X85247619Y-198419105D02*
X85309524Y-198357200D01*
X85433333Y-198295295D01*
X85742857Y-198295295D01*
X85866667Y-198357200D01*
X85928571Y-198419105D01*
X85990476Y-198542914D01*
X85990476Y-198666724D01*
X85928571Y-198852438D01*
X85185714Y-199595295D01*
X85990476Y-199595295D01*
D10*
D11*
X135185714Y-198295295D02*
X135990476Y-198295295D01*
X135557143Y-198790533D01*
X135742857Y-198790533D01*
X135866667Y-198852438D01*
X135928571Y-198914343D01*
X135990476Y-199038152D01*
X135990476Y-199347676D01*
X135928571Y-199471486D01*
X135866667Y-199533390D01*
X135742857Y-199595295D01*
X135371429Y-199595295D01*
X135247619Y-199533390D01*
X135185714Y-199471486D01*
D10*
D11*
X185866667Y-198728629D02*
X185866667Y-199595295D01*
X185557143Y-198233390D02*
X185247619Y-199161962D01*
X186052381Y-199161962D01*
D10*
D11*
X235928571Y-198295295D02*
X235309524Y-198295295D01*
X235247619Y-198914343D01*
X235309524Y-198852438D01*
X235433333Y-198790533D01*
X235742857Y-198790533D01*
X235866667Y-198852438D01*
X235928571Y-198914343D01*
X235990476Y-199038152D01*
X235990476Y-199347676D01*
X235928571Y-199471486D01*
X235866667Y-199533390D01*
X235742857Y-199595295D01*
X235433333Y-199595295D01*
X235309524Y-199533390D01*
X235247619Y-199471486D01*
D10*
D11*
X285866667Y-198295295D02*
X285619048Y-198295295D01*
X285495238Y-198357200D01*
X285433333Y-198419105D01*
X285309524Y-198604819D01*
X285247619Y-198852438D01*
X285247619Y-199347676D01*
X285309524Y-199471486D01*
X285371429Y-199533390D01*
X285495238Y-199595295D01*
X285742857Y-199595295D01*
X285866667Y-199533390D01*
X285928571Y-199471486D01*
X285990476Y-199347676D01*
X285990476Y-199038152D01*
X285928571Y-198914343D01*
X285866667Y-198852438D01*
X285742857Y-198790533D01*
X285495238Y-198790533D01*
X285371429Y-198852438D01*
X285309524Y-198914343D01*
X285247619Y-199038152D01*
D10*
D11*
X10000000Y-60000000D02*
X12000000Y-60000000D01*
D10*
D11*
X10000000Y-110000000D02*
X12000000Y-110000000D01*
D10*
D11*
X10000000Y-160000000D02*
X12000000Y-160000000D01*
D10*
D11*
X10690476Y-35216667D02*
X11309524Y-35216667D01*
X10566667Y-35588095D02*
X11000000Y-34288095D01*
X11433333Y-35588095D01*
D10*
D11*
X11092857Y-84907143D02*
X11278571Y-84969048D01*
X11340476Y-85030952D01*
X11402381Y-85154762D01*
X11402381Y-85340476D01*
X11340476Y-85464286D01*
X11278571Y-85526190D01*
X11154762Y-85588095D01*
X10659524Y-85588095D01*
X10659524Y-84288095D01*
X11092857Y-84288095D01*
X11216667Y-84350000D01*
X11278571Y-84411905D01*
X11340476Y-84535714D01*
X11340476Y-84659524D01*
X11278571Y-84783333D01*
X11216667Y-84845238D01*
X11092857Y-84907143D01*
X10659524Y-84907143D01*
D10*
D11*
X11402381Y-135464286D02*
X11340476Y-135526190D01*
X11154762Y-135588095D01*
X11030952Y-135588095D01*
X10845238Y-135526190D01*
X10721429Y-135402381D01*
X10659524Y-135278571D01*
X10597619Y-135030952D01*
X10597619Y-134845238D01*
X10659524Y-134597619D01*
X10721429Y-134473810D01*
X10845238Y-134350000D01*
X11030952Y-134288095D01*
X11154762Y-134288095D01*
X11340476Y-134350000D01*
X11402381Y-134411905D01*
D10*
D11*
X10659524Y-185588095D02*
X10659524Y-184288095D01*
X10969048Y-184288095D01*
X11154762Y-184350000D01*
X11278571Y-184473810D01*
X11340476Y-184597619D01*
X11402381Y-184845238D01*
X11402381Y-185030952D01*
X11340476Y-185278571D01*
X11278571Y-185402381D01*
X11154762Y-185526190D01*
X10969048Y-185588095D01*
X10659524Y-185588095D01*
D10*
D11*
X287002200Y-60000000D02*
X285002200Y-60000000D01*
D10*
D11*
X287002200Y-110000000D02*
X285002200Y-110000000D01*
D10*
D11*
X287002200Y-160000000D02*
X285002200Y-160000000D01*
D10*
D11*
X285692676Y-35216667D02*
X286311724Y-35216667D01*
X285568867Y-35588095D02*
X286002200Y-34288095D01*
X286435533Y-35588095D01*
D10*
D11*
X286095057Y-84907143D02*
X286280771Y-84969048D01*
X286342676Y-85030952D01*
X286404581Y-85154762D01*
X286404581Y-85340476D01*
X286342676Y-85464286D01*
X286280771Y-85526190D01*
X286156962Y-85588095D01*
X285661724Y-85588095D01*
X285661724Y-84288095D01*
X286095057Y-84288095D01*
X286218867Y-84350000D01*
X286280771Y-84411905D01*
X286342676Y-84535714D01*
X286342676Y-84659524D01*
X286280771Y-84783333D01*
X286218867Y-84845238D01*
X286095057Y-84907143D01*
X285661724Y-84907143D01*
D10*
D11*
X286404581Y-135464286D02*
X286342676Y-135526190D01*
X286156962Y-135588095D01*
X286033152Y-135588095D01*
X285847438Y-135526190D01*
X285723629Y-135402381D01*
X285661724Y-135278571D01*
X285599819Y-135030952D01*
X285599819Y-134845238D01*
X285661724Y-134597619D01*
X285723629Y-134473810D01*
X285847438Y-134350000D01*
X286033152Y-134288095D01*
X286156962Y-134288095D01*
X286342676Y-134350000D01*
X286404581Y-134411905D01*
D10*
D11*
X285661724Y-185588095D02*
X285661724Y-184288095D01*
X285971248Y-184288095D01*
X286156962Y-184350000D01*
X286280771Y-184473810D01*
X286342676Y-184597619D01*
X286404581Y-184845238D01*
X286404581Y-185030952D01*
X286342676Y-185278571D01*
X286280771Y-185402381D01*
X286156962Y-185526190D01*
X285971248Y-185588095D01*
X285661724Y-185588095D01*
D10*
D11*
X200359343Y-193785771D02*
X200359343Y-192285771D01*
X200716486Y-192285771D01*
X200930771Y-192357200D01*
X201073629Y-192500057D01*
X201145057Y-192642914D01*
X201216486Y-192928629D01*
X201216486Y-193142914D01*
X201145057Y-193428629D01*
X201073629Y-193571486D01*
X200930771Y-193714343D01*
X200716486Y-193785771D01*
X200359343Y-193785771D01*
X202502200Y-193785771D02*
X202502200Y-193000057D01*
X202430771Y-192857200D01*
X202287914Y-192785771D01*
X202002200Y-192785771D01*
X201859343Y-192857200D01*
X202502200Y-193714343D02*
X202359343Y-193785771D01*
X202002200Y-193785771D01*
X201859343Y-193714343D01*
X201787914Y-193571486D01*
X201787914Y-193428629D01*
X201859343Y-193285771D01*
X202002200Y-193214343D01*
X202359343Y-193214343D01*
X202502200Y-193142914D01*
X203002200Y-192785771D02*
X203573629Y-192785771D01*
X203216486Y-192285771D02*
X203216486Y-193571486D01*
X203287914Y-193714343D01*
X203430772Y-193785771D01*
X203573629Y-193785771D01*
X204645057Y-193714343D02*
X204502200Y-193785771D01*
X204216486Y-193785771D01*
X204073629Y-193714343D01*
X204002200Y-193571486D01*
X204002200Y-193000057D01*
X204073629Y-192857200D01*
X204216486Y-192785771D01*
X204502200Y-192785771D01*
X204645057Y-192857200D01*
X204716486Y-193000057D01*
X204716486Y-193142914D01*
X204002200Y-193285771D01*
X205359343Y-193642914D02*
X205430771Y-193714343D01*
X205359343Y-193785771D01*
X205287914Y-193714343D01*
X205359343Y-193642914D01*
X205359343Y-193785771D01*
X205359343Y-192857200D02*
X205430771Y-192928629D01*
X205359343Y-193000057D01*
X205287914Y-192928629D01*
X205359343Y-192857200D01*
X205359343Y-193000057D01*
X207502200Y-192285771D02*
X207645057Y-192285771D01*
X207787914Y-192357200D01*
X207859343Y-192428629D01*
X207930772Y-192571486D01*
X208002200Y-192857200D01*
X208002200Y-193214343D01*
X207930772Y-193500057D01*
X207859343Y-193642914D01*
X207787914Y-193714343D01*
X207645057Y-193785771D01*
X207502200Y-193785771D01*
X207359343Y-193714343D01*
X207287914Y-193642914D01*
X207216486Y-193500057D01*
X207145057Y-193214343D01*
X207145057Y-192857200D01*
X207216486Y-192571486D01*
X207287914Y-192428629D01*
X207359343Y-192357200D01*
X207502200Y-192285771D01*
X208502200Y-192285771D02*
X209502200Y-192285771D01*
X208859343Y-193785771D01*
X210073628Y-193642914D02*
X210145056Y-193714343D01*
X210073628Y-193785771D01*
X210002199Y-193714343D01*
X210073628Y-193642914D01*
X210073628Y-193785771D01*
X211073628Y-192285771D02*
X211216485Y-192285771D01*
X211359342Y-192357200D01*
X211430771Y-192428629D01*
X211502200Y-192571486D01*
X211573628Y-192857200D01*
X211573628Y-193214343D01*
X211502200Y-193500057D01*
X211430771Y-193642914D01*
X211359342Y-193714343D01*
X211216485Y-193785771D01*
X211073628Y-193785771D01*
X210930771Y-193714343D01*
X210859342Y-193642914D01*
X210787914Y-193500057D01*
X210716485Y-193214343D01*
X210716485Y-192857200D01*
X210787914Y-192571486D01*
X210859342Y-192428629D01*
X210930771Y-192357200D01*
X211073628Y-192285771D01*
X212073628Y-192285771D02*
X213002199Y-192285771D01*
X212502199Y-192857200D01*
X212716485Y-192857200D01*
X212859342Y-192928629D01*
X212930771Y-193000057D01*
X213002199Y-193142914D01*
X213002199Y-193500057D01*
X212930771Y-193642914D01*
X212859342Y-193714343D01*
X212716485Y-193785771D01*
X212287913Y-193785771D01*
X212145056Y-193714343D01*
X212073628Y-193642914D01*
X213645056Y-193642914D02*
X213716484Y-193714343D01*
X213645056Y-193785771D01*
X213573627Y-193714343D01*
X213645056Y-193642914D01*
X213645056Y-193785771D01*
X214287913Y-192428629D02*
X214359342Y-192357200D01*
X214502199Y-192285771D01*
X214859342Y-192285771D01*
X215002199Y-192357200D01*
X215073628Y-192428629D01*
X215145056Y-192571486D01*
X215145056Y-192714343D01*
X215073628Y-192928629D01*
X214216485Y-193785771D01*
X215145056Y-193785771D01*
X216073627Y-192285771D02*
X216216484Y-192285771D01*
X216359341Y-192357200D01*
X216430770Y-192428629D01*
X216502199Y-192571486D01*
X216573627Y-192857200D01*
X216573627Y-193214343D01*
X216502199Y-193500057D01*
X216430770Y-193642914D01*
X216359341Y-193714343D01*
X216216484Y-193785771D01*
X216073627Y-193785771D01*
X215930770Y-193714343D01*
X215859341Y-193642914D01*
X215787913Y-193500057D01*
X215716484Y-193214343D01*
X215716484Y-192857200D01*
X215787913Y-192571486D01*
X215859341Y-192428629D01*
X215930770Y-192357200D01*
X216073627Y-192285771D01*
X218002198Y-193785771D02*
X217145055Y-193785771D01*
X217573627Y-193785771D02*
X217573627Y-192285771D01*
X217430770Y-192500057D01*
X217287912Y-192642914D01*
X217145055Y-192714343D01*
X218502198Y-192285771D02*
X219502198Y-192285771D01*
X218859341Y-193785771D01*
D10*
D11*
X177002200Y-194507200D02*
X285002200Y-194507200D01*
D10*
D11*
X178359343Y-196585771D02*
X178359343Y-195085771D01*
X179216486Y-196585771D02*
X178573629Y-195728629D01*
X179216486Y-195085771D02*
X178359343Y-195942914D01*
X179859343Y-196585771D02*
X179859343Y-195585771D01*
X179859343Y-195085771D02*
X179787914Y-195157200D01*
X179859343Y-195228629D01*
X179930771Y-195157200D01*
X179859343Y-195085771D01*
X179859343Y-195228629D01*
X181430772Y-196442914D02*
X181359343Y-196514343D01*
X181145057Y-196585771D01*
X181002200Y-196585771D01*
X180787915Y-196514343D01*
X180645057Y-196371486D01*
X180573629Y-196228629D01*
X180502200Y-195942914D01*
X180502200Y-195728629D01*
X180573629Y-195442914D01*
X180645057Y-195300057D01*
X180787915Y-195157200D01*
X181002200Y-195085771D01*
X181145057Y-195085771D01*
X181359343Y-195157200D01*
X181430772Y-195228629D01*
X182716486Y-196585771D02*
X182716486Y-195800057D01*
X182645057Y-195657200D01*
X182502200Y-195585771D01*
X182216486Y-195585771D01*
X182073629Y-195657200D01*
X182716486Y-196514343D02*
X182573629Y-196585771D01*
X182216486Y-196585771D01*
X182073629Y-196514343D01*
X182002200Y-196371486D01*
X182002200Y-196228629D01*
X182073629Y-196085771D01*
X182216486Y-196014343D01*
X182573629Y-196014343D01*
X182716486Y-195942914D01*
X184073629Y-196585771D02*
X184073629Y-195085771D01*
X184073629Y-196514343D02*
X183930772Y-196585771D01*
X183645058Y-196585771D01*
X183502200Y-196514343D01*
X183430772Y-196442914D01*
X183359343Y-196300057D01*
X183359343Y-195871486D01*
X183430772Y-195728629D01*
X183502200Y-195657200D01*
X183645058Y-195585771D01*
X183930772Y-195585771D01*
X184073629Y-195657200D01*
X185930772Y-195800057D02*
X186430772Y-195800057D01*
X186645058Y-196585771D02*
X185930772Y-196585771D01*
X185930772Y-195085771D01*
X186645058Y-195085771D01*
X187287915Y-196442914D02*
X187359343Y-196514343D01*
X187287915Y-196585771D01*
X187216486Y-196514343D01*
X187287915Y-196442914D01*
X187287915Y-196585771D01*
X188002201Y-196585771D02*
X188002201Y-195085771D01*
X188359344Y-195085771D01*
X188573629Y-195157200D01*
X188716487Y-195300057D01*
X188787915Y-195442914D01*
X188859344Y-195728629D01*
X188859344Y-195942914D01*
X188787915Y-196228629D01*
X188716487Y-196371486D01*
X188573629Y-196514343D01*
X188359344Y-196585771D01*
X188002201Y-196585771D01*
X189502201Y-196442914D02*
X189573629Y-196514343D01*
X189502201Y-196585771D01*
X189430772Y-196514343D01*
X189502201Y-196442914D01*
X189502201Y-196585771D01*
X190145058Y-196157200D02*
X190859344Y-196157200D01*
X190002201Y-196585771D02*
X190502201Y-195085771D01*
X191002201Y-196585771D01*
X191502201Y-196442914D02*
X191573629Y-196514343D01*
X191502201Y-196585771D01*
X191430772Y-196514343D01*
X191502201Y-196442914D01*
X191502201Y-196585771D01*
X194502201Y-196585771D02*
X194502201Y-195085771D01*
X194645058Y-196014343D02*
X195073629Y-196585771D01*
X195073629Y-195585771D02*
X194502201Y-196157200D01*
X195716487Y-196585771D02*
X195716487Y-195585771D01*
X195716487Y-195085771D02*
X195645058Y-195157200D01*
X195716487Y-195228629D01*
X195787915Y-195157200D01*
X195716487Y-195085771D01*
X195716487Y-195228629D01*
X197073630Y-196514343D02*
X196930773Y-196585771D01*
X196645059Y-196585771D01*
X196502201Y-196514343D01*
X196430773Y-196442914D01*
X196359344Y-196300057D01*
X196359344Y-195871486D01*
X196430773Y-195728629D01*
X196502201Y-195657200D01*
X196645059Y-195585771D01*
X196930773Y-195585771D01*
X197073630Y-195657200D01*
X198359344Y-196585771D02*
X198359344Y-195800057D01*
X198287915Y-195657200D01*
X198145058Y-195585771D01*
X197859344Y-195585771D01*
X197716487Y-195657200D01*
X198359344Y-196514343D02*
X198216487Y-196585771D01*
X197859344Y-196585771D01*
X197716487Y-196514343D01*
X197645058Y-196371486D01*
X197645058Y-196228629D01*
X197716487Y-196085771D01*
X197859344Y-196014343D01*
X198216487Y-196014343D01*
X198359344Y-195942914D01*
X199716487Y-196585771D02*
X199716487Y-195085771D01*
X199716487Y-196514343D02*
X199573630Y-196585771D01*
X199287916Y-196585771D01*
X199145058Y-196514343D01*
X199073630Y-196442914D01*
X199002201Y-196300057D01*
X199002201Y-195871486D01*
X199073630Y-195728629D01*
X199145058Y-195657200D01*
X199287916Y-195585771D01*
X199573630Y-195585771D01*
X199716487Y-195657200D01*
X202216487Y-195585771D02*
X202216487Y-196585771D01*
X201859344Y-195014343D02*
X201502201Y-196085771D01*
X202430773Y-196085771D01*
X203002201Y-196442914D02*
X203073629Y-196514343D01*
X203002201Y-196585771D01*
X202930772Y-196514343D01*
X203002201Y-196442914D01*
X203002201Y-196585771D01*
X204002201Y-195085771D02*
X204145058Y-195085771D01*
X204287915Y-195157200D01*
X204359344Y-195228629D01*
X204430773Y-195371486D01*
X204502201Y-195657200D01*
X204502201Y-196014343D01*
X204430773Y-196300057D01*
X204359344Y-196442914D01*
X204287915Y-196514343D01*
X204145058Y-196585771D01*
X204002201Y-196585771D01*
X203859344Y-196514343D01*
X203787915Y-196442914D01*
X203716487Y-196300057D01*
X203645058Y-196014343D01*
X203645058Y-195657200D01*
X203716487Y-195371486D01*
X203787915Y-195228629D01*
X203859344Y-195157200D01*
X204002201Y-195085771D01*
X205145058Y-196442914D02*
X205216486Y-196514343D01*
X205145058Y-196585771D01*
X205073629Y-196514343D01*
X205145058Y-196442914D01*
X205145058Y-196585771D01*
X206502201Y-195085771D02*
X206216487Y-195085771D01*
X206073630Y-195157200D01*
X206002201Y-195228629D01*
X205859344Y-195442914D01*
X205787915Y-195728629D01*
X205787915Y-196300057D01*
X205859344Y-196442914D01*
X205930772Y-196514343D01*
X206073630Y-196585771D01*
X206359344Y-196585771D01*
X206502201Y-196514343D01*
X206573630Y-196442914D01*
X206645058Y-196300057D01*
X206645058Y-195942914D01*
X206573630Y-195800057D01*
X206502201Y-195728629D01*
X206359344Y-195657200D01*
X206073630Y-195657200D01*
X205930772Y-195728629D01*
X205859344Y-195800057D01*
X205787915Y-195942914D01*
X207287915Y-196014343D02*
X208430772Y-196014343D01*
X209716486Y-196514343D02*
X209573629Y-196585771D01*
X209287915Y-196585771D01*
X209145058Y-196514343D01*
X209073629Y-196371486D01*
X209073629Y-195800057D01*
X209145058Y-195657200D01*
X209287915Y-195585771D01*
X209573629Y-195585771D01*
X209716486Y-195657200D01*
X209787915Y-195800057D01*
X209787915Y-195942914D01*
X209073629Y-196085771D01*
X210716486Y-195085771D02*
X210859343Y-195085771D01*
X211002200Y-195157200D01*
X211073629Y-195228629D01*
X211145058Y-195371486D01*
X211216486Y-195657200D01*
X211216486Y-196014343D01*
X211145058Y-196300057D01*
X211073629Y-196442914D01*
X211002200Y-196514343D01*
X210859343Y-196585771D01*
X210716486Y-196585771D01*
X210573629Y-196514343D01*
X210502200Y-196442914D01*
X210430772Y-196300057D01*
X210359343Y-196014343D01*
X210359343Y-195657200D01*
X210430772Y-195371486D01*
X210502200Y-195228629D01*
X210573629Y-195157200D01*
X210716486Y-195085771D01*
X211859343Y-196014343D02*
X213002200Y-196014343D01*
X214359343Y-195085771D02*
X214073629Y-195085771D01*
X213930772Y-195157200D01*
X213859343Y-195228629D01*
X213716486Y-195442914D01*
X213645057Y-195728629D01*
X213645057Y-196300057D01*
X213716486Y-196442914D01*
X213787914Y-196514343D01*
X213930772Y-196585771D01*
X214216486Y-196585771D01*
X214359343Y-196514343D01*
X214430772Y-196442914D01*
X214502200Y-196300057D01*
X214502200Y-195942914D01*
X214430772Y-195800057D01*
X214359343Y-195728629D01*
X214216486Y-195657200D01*
X213930772Y-195657200D01*
X213787914Y-195728629D01*
X213716486Y-195800057D01*
X213645057Y-195942914D01*
X215002200Y-195085771D02*
X215930771Y-195085771D01*
X215430771Y-195657200D01*
X215645057Y-195657200D01*
X215787914Y-195728629D01*
X215859343Y-195800057D01*
X215930771Y-195942914D01*
X215930771Y-196300057D01*
X215859343Y-196442914D01*
X215787914Y-196514343D01*
X215645057Y-196585771D01*
X215216485Y-196585771D01*
X215073628Y-196514343D01*
X215002200Y-196442914D01*
X217216485Y-195585771D02*
X217216485Y-196585771D01*
X216859342Y-195014343D02*
X216502199Y-196085771D01*
X217430771Y-196085771D01*
X218073627Y-196585771D02*
X218359342Y-196585771D01*
X218502199Y-196514343D01*
X218573627Y-196442914D01*
X218716485Y-196228629D01*
X218787913Y-195942914D01*
X218787913Y-195371486D01*
X218716485Y-195228629D01*
X218645056Y-195157200D01*
X218502199Y-195085771D01*
X218216485Y-195085771D01*
X218073627Y-195157200D01*
X218002199Y-195228629D01*
X217930770Y-195371486D01*
X217930770Y-195728629D01*
X218002199Y-195871486D01*
X218073627Y-195942914D01*
X218216485Y-196014343D01*
X218502199Y-196014343D01*
X218645056Y-195942914D01*
X218716485Y-195871486D01*
X218787913Y-195728629D01*
X220145056Y-195085771D02*
X219430770Y-195085771D01*
X219359341Y-195800057D01*
X219430770Y-195728629D01*
X219573627Y-195657200D01*
X219930770Y-195657200D01*
X220073627Y-195728629D01*
X220145056Y-195800057D01*
X220216484Y-195942914D01*
X220216484Y-196300057D01*
X220145056Y-196442914D01*
X220073627Y-196514343D01*
X219930770Y-196585771D01*
X219573627Y-196585771D01*
X219430770Y-196514343D01*
X219359341Y-196442914D01*
X220716484Y-195085771D02*
X221645055Y-195085771D01*
X221145055Y-195657200D01*
X221359341Y-195657200D01*
X221502198Y-195728629D01*
X221573627Y-195800057D01*
X221645055Y-195942914D01*
X221645055Y-196300057D01*
X221573627Y-196442914D01*
X221502198Y-196514343D01*
X221359341Y-196585771D01*
X220930769Y-196585771D01*
X220787912Y-196514343D01*
X220716484Y-196442914D01*
X219073627Y-194827200D02*
X221930769Y-194827200D01*
X222930769Y-195585771D02*
X222930769Y-196585771D01*
X222287912Y-195585771D02*
X222287912Y-196371486D01*
X222359340Y-196514343D01*
X222502198Y-196585771D01*
X222716483Y-196585771D01*
X222859340Y-196514343D01*
X222930769Y-196442914D01*
X223645055Y-196585771D02*
X223645055Y-195085771D01*
X223645055Y-195657200D02*
X223787912Y-195585771D01*
X224073626Y-195585771D01*
X224216483Y-195657200D01*
X224287912Y-195728629D01*
X224359341Y-195871486D01*
X224359341Y-196300057D01*
X224287912Y-196442914D01*
X224216483Y-196514343D01*
X224073626Y-196585771D01*
X223787912Y-196585771D01*
X223645055Y-196514343D01*
X225645055Y-195585771D02*
X225645055Y-196585771D01*
X225002198Y-195585771D02*
X225002198Y-196371486D01*
X225073626Y-196514343D01*
X225216484Y-196585771D01*
X225430769Y-196585771D01*
X225573626Y-196514343D01*
X225645055Y-196442914D01*
X226359341Y-195585771D02*
X226359341Y-196585771D01*
X226359341Y-195728629D02*
X226430769Y-195657200D01*
X226573627Y-195585771D01*
X226787912Y-195585771D01*
X226930769Y-195657200D01*
X227002198Y-195800057D01*
X227002198Y-196585771D01*
X227502198Y-195585771D02*
X228073627Y-195585771D01*
X227716484Y-195085771D02*
X227716484Y-196371486D01*
X227787912Y-196514343D01*
X227930770Y-196585771D01*
X228073627Y-196585771D01*
X229216484Y-195585771D02*
X229216484Y-196585771D01*
X228573627Y-195585771D02*
X228573627Y-196371486D01*
X228645055Y-196514343D01*
X228787913Y-196585771D01*
X229002198Y-196585771D01*
X229145055Y-196514343D01*
X229216484Y-196442914D01*
X230716484Y-196585771D02*
X229859341Y-196585771D01*
X230287913Y-196585771D02*
X230287913Y-195085771D01*
X230145056Y-195300057D01*
X230002198Y-195442914D01*
X229859341Y-195514343D01*
X232002198Y-195085771D02*
X231716484Y-195085771D01*
X231573627Y-195157200D01*
X231502198Y-195228629D01*
X231359341Y-195442914D01*
X231287912Y-195728629D01*
X231287912Y-196300057D01*
X231359341Y-196442914D01*
X231430769Y-196514343D01*
X231573627Y-196585771D01*
X231859341Y-196585771D01*
X232002198Y-196514343D01*
X232073627Y-196442914D01*
X232145055Y-196300057D01*
X232145055Y-195942914D01*
X232073627Y-195800057D01*
X232002198Y-195728629D01*
X231859341Y-195657200D01*
X231573627Y-195657200D01*
X231430769Y-195728629D01*
X231359341Y-195800057D01*
X231287912Y-195942914D01*
X232787912Y-196442914D02*
X232859340Y-196514343D01*
X232787912Y-196585771D01*
X232716483Y-196514343D01*
X232787912Y-196442914D01*
X232787912Y-196585771D01*
X233787912Y-195085771D02*
X233930769Y-195085771D01*
X234073626Y-195157200D01*
X234145055Y-195228629D01*
X234216484Y-195371486D01*
X234287912Y-195657200D01*
X234287912Y-196014343D01*
X234216484Y-196300057D01*
X234145055Y-196442914D01*
X234073626Y-196514343D01*
X233930769Y-196585771D01*
X233787912Y-196585771D01*
X233645055Y-196514343D01*
X233573626Y-196442914D01*
X233502198Y-196300057D01*
X233430769Y-196014343D01*
X233430769Y-195657200D01*
X233502198Y-195371486D01*
X233573626Y-195228629D01*
X233645055Y-195157200D01*
X233787912Y-195085771D01*
X235573626Y-195585771D02*
X235573626Y-196585771D01*
X235216483Y-195014343D02*
X234859340Y-196085771D01*
X235787912Y-196085771D01*
X236359340Y-196442914D02*
X236430768Y-196514343D01*
X236359340Y-196585771D01*
X236287911Y-196514343D01*
X236359340Y-196442914D01*
X236359340Y-196585771D01*
X237859340Y-196585771D02*
X237002197Y-196585771D01*
X237430769Y-196585771D02*
X237430769Y-195085771D01*
X237287912Y-195300057D01*
X237145054Y-195442914D01*
X237002197Y-195514343D01*
D10*
D11*
X177002200Y-191507200D02*
X285002200Y-191507200D01*
D10*
D12*
X264216486Y-193785771D02*
X263716486Y-193071486D01*
X263359343Y-193785771D02*
X263359343Y-192285771D01*
X263930771Y-192285771D01*
X264073629Y-192357200D01*
X264145057Y-192428629D01*
X264216486Y-192571486D01*
X264216486Y-192785771D01*
X264145057Y-192928629D01*
X264073629Y-193000057D01*
X263930771Y-193071486D01*
X263359343Y-193071486D01*
X265430771Y-193714343D02*
X265287914Y-193785771D01*
X265002200Y-193785771D01*
X264859343Y-193714343D01*
X264787914Y-193571486D01*
X264787914Y-193000057D01*
X264859343Y-192857200D01*
X265002200Y-192785771D01*
X265287914Y-192785771D01*
X265430771Y-192857200D01*
X265502200Y-193000057D01*
X265502200Y-193142914D01*
X264787914Y-193285771D01*
X266002200Y-192785771D02*
X266359343Y-193785771D01*
X266716485Y-192785771D01*
X267287914Y-193642914D02*
X267359342Y-193714343D01*
X267287914Y-193785771D01*
X267216485Y-193714343D01*
X267287914Y-193642914D01*
X267287914Y-193785771D01*
X267287914Y-192857200D02*
X267359342Y-192928629D01*
X267287914Y-193000057D01*
X267216485Y-192928629D01*
X267287914Y-192857200D01*
X267287914Y-193000057D01*
X269930771Y-193785771D02*
X269073628Y-193785771D01*
X269502200Y-193785771D02*
X269502200Y-192285771D01*
X269359343Y-192500057D01*
X269216485Y-192642914D01*
X269073628Y-192714343D01*
X270573628Y-193642914D02*
X270645056Y-193714343D01*
X270573628Y-193785771D01*
X270502199Y-193714343D01*
X270573628Y-193642914D01*
X270573628Y-193785771D01*
X271573628Y-192285771D02*
X271716485Y-192285771D01*
X271859342Y-192357200D01*
X271930771Y-192428629D01*
X272002200Y-192571486D01*
X272073628Y-192857200D01*
X272073628Y-193214343D01*
X272002200Y-193500057D01*
X271930771Y-193642914D01*
X271859342Y-193714343D01*
X271716485Y-193785771D01*
X271573628Y-193785771D01*
X271430771Y-193714343D01*
X271359342Y-193642914D01*
X271287914Y-193500057D01*
X271216485Y-193214343D01*
X271216485Y-192857200D01*
X271287914Y-192571486D01*
X271359342Y-192428629D01*
X271430771Y-192357200D01*
X271573628Y-192285771D01*
D10*
D11*
X178287914Y-193714343D02*
X178502200Y-193785771D01*
X178859343Y-193785771D01*
X179002200Y-193714343D01*
X179073629Y-193642914D01*
X179145057Y-193500057D01*
X179145057Y-193357200D01*
X179073629Y-193214343D01*
X179002200Y-193142914D01*
X178859343Y-193071486D01*
X178573629Y-193000057D01*
X178430771Y-192928629D01*
X178359343Y-192857200D01*
X178287914Y-192714343D01*
X178287914Y-192571486D01*
X178359343Y-192428629D01*
X178430771Y-192357200D01*
X178573629Y-192285771D01*
X178930771Y-192285771D01*
X179145057Y-192357200D01*
X179787914Y-193785771D02*
X179787914Y-192785771D01*
X179787914Y-192285771D02*
X179716485Y-192357200D01*
X179787914Y-192428629D01*
X179859342Y-192357200D01*
X179787914Y-192285771D01*
X179787914Y-192428629D01*
X180359343Y-192785771D02*
X181145057Y-192785771D01*
X180359343Y-193785771D01*
X181145057Y-193785771D01*
X182287914Y-193714343D02*
X182145057Y-193785771D01*
X181859343Y-193785771D01*
X181716486Y-193714343D01*
X181645057Y-193571486D01*
X181645057Y-193000057D01*
X181716486Y-192857200D01*
X181859343Y-192785771D01*
X182145057Y-192785771D01*
X182287914Y-192857200D01*
X182359343Y-193000057D01*
X182359343Y-193142914D01*
X181645057Y-193285771D01*
X183002200Y-193642914D02*
X183073628Y-193714343D01*
X183002200Y-193785771D01*
X182930771Y-193714343D01*
X183002200Y-193642914D01*
X183002200Y-193785771D01*
X183002200Y-192857200D02*
X183073628Y-192928629D01*
X183002200Y-193000057D01*
X182930771Y-192928629D01*
X183002200Y-192857200D01*
X183002200Y-193000057D01*
X184787914Y-193357200D02*
X185502200Y-193357200D01*
X184645057Y-193785771D02*
X185145057Y-192285771D01*
X185645057Y-193785771D01*
X186787914Y-192785771D02*
X186787914Y-193785771D01*
X186430771Y-192214343D02*
X186073628Y-193285771D01*
X187002200Y-193285771D01*
D10*
D11*
X263359343Y-196585771D02*
X263359343Y-195085771D01*
X264716486Y-196585771D02*
X264716486Y-195085771D01*
X264716486Y-196514343D02*
X264573629Y-196585771D01*
X264287915Y-196585771D01*
X264145057Y-196514343D01*
X264073629Y-196442914D01*
X264002200Y-196300057D01*
X264002200Y-195871486D01*
X264073629Y-195728629D01*
X264145057Y-195657200D01*
X264287915Y-195585771D01*
X264573629Y-195585771D01*
X264716486Y-195657200D01*
X265430772Y-196442914D02*
X265502200Y-196514343D01*
X265430772Y-196585771D01*
X265359343Y-196514343D01*
X265430772Y-196442914D01*
X265430772Y-196585771D01*
X265430772Y-195657200D02*
X265502200Y-195728629D01*
X265430772Y-195800057D01*
X265359343Y-195728629D01*
X265430772Y-195657200D01*
X265430772Y-195800057D01*
X268073629Y-196585771D02*
X267216486Y-196585771D01*
X267645058Y-196585771D02*
X267645058Y-195085771D01*
X267502201Y-195300057D01*
X267359343Y-195442914D01*
X267216486Y-195514343D01*
X269787914Y-195014343D02*
X268502200Y-196942914D01*
X271073629Y-196585771D02*
X270216486Y-196585771D01*
X270645058Y-196585771D02*
X270645058Y-195085771D01*
X270502201Y-195300057D01*
X270359343Y-195442914D01*
X270216486Y-195514343D01*
D10*
D11*
X177002200Y-187507200D02*
X285002200Y-187507200D01*
D10*
D13*
X178454581Y-188211962D02*
X179597438Y-188211962D01*
X178776010Y-190211962D02*
X179026010Y-188211962D01*
X180014105Y-190211962D02*
X180180771Y-188878629D01*
X180264105Y-188211962D02*
X180156962Y-188307200D01*
X180240295Y-188402438D01*
X180347439Y-188307200D01*
X180264105Y-188211962D01*
X180240295Y-188402438D01*
X180847438Y-188878629D02*
X181609343Y-188878629D01*
X181216486Y-188211962D02*
X181002200Y-189926248D01*
X181073630Y-190116724D01*
X181252201Y-190211962D01*
X181442677Y-190211962D01*
X182395058Y-190211962D02*
X182216487Y-190116724D01*
X182145057Y-189926248D01*
X182359343Y-188211962D01*
X183930772Y-190116724D02*
X183728391Y-190211962D01*
X183347439Y-190211962D01*
X183168867Y-190116724D01*
X183097438Y-189926248D01*
X183192676Y-189164343D01*
X183311724Y-188973867D01*
X183514105Y-188878629D01*
X183895057Y-188878629D01*
X184073629Y-188973867D01*
X184145057Y-189164343D01*
X184121248Y-189354819D01*
X183145057Y-189545295D01*
X184895057Y-190021486D02*
X184978392Y-190116724D01*
X184871248Y-190211962D01*
X184787915Y-190116724D01*
X184895057Y-190021486D01*
X184871248Y-190211962D01*
X185026010Y-188973867D02*
X185109344Y-189069105D01*
X185002200Y-189164343D01*
X184918867Y-189069105D01*
X185026010Y-188973867D01*
X185002200Y-189164343D01*
X188145058Y-189164343D02*
X188418867Y-189259581D01*
X188502202Y-189354819D01*
X188573630Y-189545295D01*
X188537916Y-189831010D01*
X188418868Y-190021486D01*
X188311725Y-190116724D01*
X188109344Y-190211962D01*
X187347439Y-190211962D01*
X187597439Y-188211962D01*
X188264106Y-188211962D01*
X188442677Y-188307200D01*
X188526010Y-188402438D01*
X188597440Y-188592914D01*
X188573630Y-188783390D01*
X188454582Y-188973867D01*
X188347439Y-189069105D01*
X188145058Y-189164343D01*
X187478391Y-189164343D01*
X190299820Y-190211962D02*
X189347439Y-190211962D01*
X189597439Y-188211962D01*
X190966487Y-190211962D02*
X191216487Y-188211962D01*
X191692678Y-188211962D01*
X191966487Y-188307200D01*
X192133154Y-188497676D01*
X192204583Y-188688152D01*
X192252202Y-189069105D01*
X192216488Y-189354819D01*
X192073631Y-189735771D01*
X191954582Y-189926248D01*
X191740297Y-190116724D01*
X191442678Y-190211962D01*
X190966487Y-190211962D01*
X194133154Y-190021486D02*
X194026012Y-190116724D01*
X193728392Y-190211962D01*
X193537916Y-190211962D01*
X193264107Y-190116724D01*
X193097440Y-189926248D01*
X193026011Y-189735771D01*
X192978392Y-189354819D01*
X193014106Y-189069105D01*
X193156963Y-188688152D01*
X193276012Y-188497676D01*
X193490297Y-188307200D01*
X193787916Y-188211962D01*
X193978392Y-188211962D01*
X194252202Y-188307200D01*
X194335535Y-188402438D01*
X197656964Y-190021486D02*
X197549822Y-190116724D01*
X197252202Y-190211962D01*
X197061726Y-190211962D01*
X196787917Y-190116724D01*
X196621250Y-189926248D01*
X196549821Y-189735771D01*
X196502202Y-189354819D01*
X196537916Y-189069105D01*
X196680773Y-188688152D01*
X196799822Y-188497676D01*
X197014107Y-188307200D01*
X197311726Y-188211962D01*
X197502202Y-188211962D01*
X197776012Y-188307200D01*
X197859345Y-188402438D01*
X199121250Y-188211962D02*
X199502202Y-188211962D01*
X199680773Y-188307200D01*
X199847441Y-188497676D01*
X199895059Y-188878629D01*
X199811726Y-189545295D01*
X199668869Y-189926248D01*
X199454583Y-190116724D01*
X199252202Y-190211962D01*
X198871250Y-190211962D01*
X198692679Y-190116724D01*
X198526011Y-189926248D01*
X198478392Y-189545295D01*
X198561725Y-188878629D01*
X198704583Y-188497676D01*
X198918869Y-188307200D01*
X199121250Y-188211962D01*
X200585535Y-190211962D02*
X200835535Y-188211962D01*
X201728393Y-190211962D01*
X201978393Y-188211962D01*
X202645059Y-188211962D02*
X203787916Y-188211962D01*
X202966488Y-190211962D02*
X203216488Y-188211962D01*
X205347441Y-190211962D02*
X204799821Y-189259581D01*
X204204583Y-190211962D02*
X204454583Y-188211962D01*
X205216488Y-188211962D01*
X205395059Y-188307200D01*
X205478393Y-188402438D01*
X205549822Y-188592914D01*
X205514107Y-188878629D01*
X205395060Y-189069105D01*
X205287916Y-189164343D01*
X205085535Y-189259581D01*
X204323630Y-189259581D01*
X206835536Y-188211962D02*
X207216488Y-188211962D01*
X207395059Y-188307200D01*
X207561727Y-188497676D01*
X207609345Y-188878629D01*
X207526012Y-189545295D01*
X207383155Y-189926248D01*
X207168869Y-190116724D01*
X206966488Y-190211962D01*
X206585536Y-190211962D01*
X206406965Y-190116724D01*
X206240297Y-189926248D01*
X206192678Y-189545295D01*
X206276011Y-188878629D01*
X206418869Y-188497676D01*
X206633155Y-188307200D01*
X206835536Y-188211962D01*
X209252202Y-190211962D02*
X208299821Y-190211962D01*
X208549821Y-188211962D01*
X210871250Y-190211962D02*
X209918869Y-190211962D01*
X210168869Y-188211962D01*
X211668869Y-189164343D02*
X212335536Y-189164343D01*
X212490298Y-190211962D02*
X211537917Y-190211962D01*
X211787917Y-188211962D01*
X212740298Y-188211962D01*
X214490299Y-190211962D02*
X213942679Y-189259581D01*
X213347441Y-190211962D02*
X213597441Y-188211962D01*
X214359346Y-188211962D01*
X214537917Y-188307200D01*
X214621251Y-188402438D01*
X214692680Y-188592914D01*
X214656965Y-188878629D01*
X214537918Y-189069105D01*
X214430774Y-189164343D01*
X214228393Y-189259581D01*
X213466488Y-189259581D01*
D10*
D11*
X178859343Y-185600057D02*
X178359343Y-185600057D01*
X178359343Y-186385771D02*
X178359343Y-184885771D01*
X179073629Y-184885771D01*
X179645057Y-186385771D02*
X179645057Y-185385771D01*
X179645057Y-184885771D02*
X179573628Y-184957200D01*
X179645057Y-185028629D01*
X179716485Y-184957200D01*
X179645057Y-184885771D01*
X179645057Y-185028629D01*
X180573629Y-186385771D02*
X180430771Y-186314343D01*
X180359343Y-186171486D01*
X180359343Y-184885771D01*
X181716485Y-186314343D02*
X181573628Y-186385771D01*
X181287914Y-186385771D01*
X181145057Y-186314343D01*
X181073628Y-186171486D01*
X181073628Y-185600057D01*
X181145057Y-185457200D01*
X181287914Y-185385771D01*
X181573628Y-185385771D01*
X181716485Y-185457200D01*
X181787914Y-185600057D01*
X181787914Y-185742914D01*
X181073628Y-185885771D01*
X182430771Y-186242914D02*
X182502199Y-186314343D01*
X182430771Y-186385771D01*
X182359342Y-186314343D01*
X182430771Y-186242914D01*
X182430771Y-186385771D01*
X182430771Y-185457200D02*
X182502199Y-185528629D01*
X182430771Y-185600057D01*
X182359342Y-185528629D01*
X182430771Y-185457200D01*
X182430771Y-185600057D01*
X184787914Y-185600057D02*
X185002200Y-185671486D01*
X185073628Y-185742914D01*
X185145057Y-185885771D01*
X185145057Y-186100057D01*
X185073628Y-186242914D01*
X185002200Y-186314343D01*
X184859342Y-186385771D01*
X184287914Y-186385771D01*
X184287914Y-184885771D01*
X184787914Y-184885771D01*
X184930771Y-184957200D01*
X185002200Y-185028629D01*
X185073628Y-185171486D01*
X185073628Y-185314343D01*
X185002200Y-185457200D01*
X184930771Y-185528629D01*
X184787914Y-185600057D01*
X184287914Y-185600057D01*
X186502200Y-186385771D02*
X185787914Y-186385771D01*
X185787914Y-184885771D01*
X187002200Y-186385771D02*
X187002200Y-184885771D01*
X187359343Y-184885771D01*
X187573628Y-184957200D01*
X187716486Y-185100057D01*
X187787914Y-185242914D01*
X187859343Y-185528629D01*
X187859343Y-185742914D01*
X187787914Y-186028629D01*
X187716486Y-186171486D01*
X187573628Y-186314343D01*
X187359343Y-186385771D01*
X187002200Y-186385771D01*
X189359343Y-186242914D02*
X189287914Y-186314343D01*
X189073628Y-186385771D01*
X188930771Y-186385771D01*
X188716486Y-186314343D01*
X188573628Y-186171486D01*
X188502200Y-186028629D01*
X188430771Y-185742914D01*
X188430771Y-185528629D01*
X188502200Y-185242914D01*
X188573628Y-185100057D01*
X188716486Y-184957200D01*
X188930771Y-184885771D01*
X189073628Y-184885771D01*
X189287914Y-184957200D01*
X189359343Y-185028629D01*
X189645057Y-186528629D02*
X190787914Y-186528629D01*
X191787914Y-186314343D02*
X191645057Y-186385771D01*
X191359343Y-186385771D01*
X191216485Y-186314343D01*
X191145057Y-186242914D01*
X191073628Y-186100057D01*
X191073628Y-185671486D01*
X191145057Y-185528629D01*
X191216485Y-185457200D01*
X191359343Y-185385771D01*
X191645057Y-185385771D01*
X191787914Y-185457200D01*
X192645057Y-186385771D02*
X192502199Y-186314343D01*
X192430771Y-186242914D01*
X192359342Y-186100057D01*
X192359342Y-185671486D01*
X192430771Y-185528629D01*
X192502199Y-185457200D01*
X192645057Y-185385771D01*
X192859342Y-185385771D01*
X193002199Y-185457200D01*
X193073628Y-185528629D01*
X193145057Y-185671486D01*
X193145057Y-186100057D01*
X193073628Y-186242914D01*
X193002199Y-186314343D01*
X192859342Y-186385771D01*
X192645057Y-186385771D01*
X193787914Y-185385771D02*
X193787914Y-186385771D01*
X193787914Y-185528629D02*
X193859342Y-185457200D01*
X194002200Y-185385771D01*
X194216485Y-185385771D01*
X194359342Y-185457200D01*
X194430771Y-185600057D01*
X194430771Y-186385771D01*
X194930771Y-185385771D02*
X195502200Y-185385771D01*
X195145057Y-184885771D02*
X195145057Y-186171486D01*
X195216485Y-186314343D01*
X195359343Y-186385771D01*
X195502200Y-186385771D01*
X196002200Y-186385771D02*
X196002200Y-185385771D01*
X196002200Y-185671486D02*
X196073628Y-185528629D01*
X196145057Y-185457200D01*
X196287914Y-185385771D01*
X196430771Y-185385771D01*
X197145057Y-186385771D02*
X197002199Y-186314343D01*
X196930771Y-186242914D01*
X196859342Y-186100057D01*
X196859342Y-185671486D01*
X196930771Y-185528629D01*
X197002199Y-185457200D01*
X197145057Y-185385771D01*
X197359342Y-185385771D01*
X197502199Y-185457200D01*
X197573628Y-185528629D01*
X197645057Y-185671486D01*
X197645057Y-186100057D01*
X197573628Y-186242914D01*
X197502199Y-186314343D01*
X197359342Y-186385771D01*
X197145057Y-186385771D01*
X198502200Y-186385771D02*
X198359342Y-186314343D01*
X198287914Y-186171486D01*
X198287914Y-184885771D01*
X199287914Y-186385771D02*
X199145056Y-186314343D01*
X199073628Y-186171486D01*
X199073628Y-184885771D01*
X200430770Y-186314343D02*
X200287913Y-186385771D01*
X200002199Y-186385771D01*
X199859342Y-186314343D01*
X199787913Y-186171486D01*
X199787913Y-185600057D01*
X199859342Y-185457200D01*
X200002199Y-185385771D01*
X200287913Y-185385771D01*
X200430770Y-185457200D01*
X200502199Y-185600057D01*
X200502199Y-185742914D01*
X199787913Y-185885771D01*
X201145056Y-186385771D02*
X201145056Y-185385771D01*
X201145056Y-185671486D02*
X201216484Y-185528629D01*
X201287913Y-185457200D01*
X201430770Y-185385771D01*
X201573627Y-185385771D01*
X202073627Y-186242914D02*
X202145055Y-186314343D01*
X202073627Y-186385771D01*
X202002198Y-186314343D01*
X202073627Y-186242914D01*
X202073627Y-186385771D01*
X202787913Y-186385771D02*
X202787913Y-184885771D01*
X202930770Y-185814343D02*
X203359341Y-186385771D01*
X203359341Y-185385771D02*
X202787913Y-185957200D01*
X204002199Y-186385771D02*
X204002199Y-185385771D01*
X204002199Y-184885771D02*
X203930770Y-184957200D01*
X204002199Y-185028629D01*
X204073627Y-184957200D01*
X204002199Y-184885771D01*
X204002199Y-185028629D01*
X205359342Y-186314343D02*
X205216485Y-186385771D01*
X204930771Y-186385771D01*
X204787913Y-186314343D01*
X204716485Y-186242914D01*
X204645056Y-186100057D01*
X204645056Y-185671486D01*
X204716485Y-185528629D01*
X204787913Y-185457200D01*
X204930771Y-185385771D01*
X205216485Y-185385771D01*
X205359342Y-185457200D01*
X206645056Y-186385771D02*
X206645056Y-185600057D01*
X206573627Y-185457200D01*
X206430770Y-185385771D01*
X206145056Y-185385771D01*
X206002199Y-185457200D01*
X206645056Y-186314343D02*
X206502199Y-186385771D01*
X206145056Y-186385771D01*
X206002199Y-186314343D01*
X205930770Y-186171486D01*
X205930770Y-186028629D01*
X206002199Y-185885771D01*
X206145056Y-185814343D01*
X206502199Y-185814343D01*
X206645056Y-185742914D01*
X208002199Y-186385771D02*
X208002199Y-184885771D01*
X208002199Y-186314343D02*
X207859342Y-186385771D01*
X207573628Y-186385771D01*
X207430770Y-186314343D01*
X207359342Y-186242914D01*
X207287913Y-186100057D01*
X207287913Y-185671486D01*
X207359342Y-185528629D01*
X207430770Y-185457200D01*
X207573628Y-185385771D01*
X207859342Y-185385771D01*
X208002199Y-185457200D01*
X208359342Y-186528629D02*
X209502199Y-186528629D01*
X209859342Y-185385771D02*
X209859342Y-186885771D01*
X209859342Y-185457200D02*
X210002199Y-185385771D01*
X210287913Y-185385771D01*
X210430770Y-185457200D01*
X210502199Y-185528629D01*
X210573628Y-185671486D01*
X210573628Y-186100057D01*
X210502199Y-186242914D01*
X210430770Y-186314343D01*
X210287913Y-186385771D01*
X210002199Y-186385771D01*
X209859342Y-186314343D01*
X211859342Y-186314343D02*
X211716485Y-186385771D01*
X211430771Y-186385771D01*
X211287913Y-186314343D01*
X211216485Y-186242914D01*
X211145056Y-186100057D01*
X211145056Y-185671486D01*
X211216485Y-185528629D01*
X211287913Y-185457200D01*
X211430771Y-185385771D01*
X211716485Y-185385771D01*
X211859342Y-185457200D01*
X212502199Y-186385771D02*
X212502199Y-184885771D01*
X212502199Y-185457200D02*
X212645056Y-185385771D01*
X212930770Y-185385771D01*
X213073627Y-185457200D01*
X213145056Y-185528629D01*
X213216485Y-185671486D01*
X213216485Y-186100057D01*
X213145056Y-186242914D01*
X213073627Y-186314343D01*
X212930770Y-186385771D01*
X212645056Y-186385771D01*
X212502199Y-186314343D01*
D10*
D11*
X177002200Y-181507200D02*
X285002200Y-181507200D01*
D10*
D11*
X178287914Y-183614343D02*
X178502200Y-183685771D01*
X178859343Y-183685771D01*
X179002200Y-183614343D01*
X179073629Y-183542914D01*
X179145057Y-183400057D01*
X179145057Y-183257200D01*
X179073629Y-183114343D01*
X179002200Y-183042914D01*
X178859343Y-182971486D01*
X178573629Y-182900057D01*
X178430771Y-182828629D01*
X178359343Y-182757200D01*
X178287914Y-182614343D01*
X178287914Y-182471486D01*
X178359343Y-182328629D01*
X178430771Y-182257200D01*
X178573629Y-182185771D01*
X178930771Y-182185771D01*
X179145057Y-182257200D01*
X179787914Y-183685771D02*
X179787914Y-182185771D01*
X180430771Y-183685771D02*
X180430771Y-182900057D01*
X180359342Y-182757200D01*
X180216485Y-182685771D01*
X180002200Y-182685771D01*
X179859342Y-182757200D01*
X179787914Y-182828629D01*
X181716485Y-183614343D02*
X181573628Y-183685771D01*
X181287914Y-183685771D01*
X181145057Y-183614343D01*
X181073628Y-183471486D01*
X181073628Y-182900057D01*
X181145057Y-182757200D01*
X181287914Y-182685771D01*
X181573628Y-182685771D01*
X181716485Y-182757200D01*
X181787914Y-182900057D01*
X181787914Y-183042914D01*
X181073628Y-183185771D01*
X183002199Y-183614343D02*
X182859342Y-183685771D01*
X182573628Y-183685771D01*
X182430771Y-183614343D01*
X182359342Y-183471486D01*
X182359342Y-182900057D01*
X182430771Y-182757200D01*
X182573628Y-182685771D01*
X182859342Y-182685771D01*
X183002199Y-182757200D01*
X183073628Y-182900057D01*
X183073628Y-183042914D01*
X182359342Y-183185771D01*
X183502199Y-182685771D02*
X184073628Y-182685771D01*
X183716485Y-182185771D02*
X183716485Y-183471486D01*
X183787913Y-183614343D01*
X183930771Y-183685771D01*
X184073628Y-183685771D01*
X184573628Y-183542914D02*
X184645056Y-183614343D01*
X184573628Y-183685771D01*
X184502199Y-183614343D01*
X184573628Y-183542914D01*
X184573628Y-183685771D01*
X184573628Y-182757200D02*
X184645056Y-182828629D01*
X184573628Y-182900057D01*
X184502199Y-182828629D01*
X184573628Y-182757200D01*
X184573628Y-182900057D01*
D10*
D12*
X178359343Y-180685771D02*
X178359343Y-179185771D01*
X178359343Y-179900057D02*
X179216486Y-179900057D01*
X179216486Y-180685771D02*
X179216486Y-179185771D01*
X180502200Y-180614343D02*
X180359343Y-180685771D01*
X180073629Y-180685771D01*
X179930772Y-180614343D01*
X179859343Y-180471486D01*
X179859343Y-179900057D01*
X179930772Y-179757200D01*
X180073629Y-179685771D01*
X180359343Y-179685771D01*
X180502200Y-179757200D01*
X180573629Y-179900057D01*
X180573629Y-180042914D01*
X179859343Y-180185771D01*
X181430772Y-180685771D02*
X181287914Y-180614343D01*
X181216486Y-180471486D01*
X181216486Y-179185771D01*
X181930771Y-180614343D02*
X182073628Y-180685771D01*
X182359343Y-180685771D01*
X182502200Y-180614343D01*
X182573628Y-180471486D01*
X182573628Y-180400057D01*
X182502200Y-180257200D01*
X182359343Y-180185771D01*
X182145057Y-180185771D01*
X182002200Y-180114343D01*
X181930771Y-179971486D01*
X181930771Y-179900057D01*
X182002200Y-179757200D01*
X182145057Y-179685771D01*
X182359343Y-179685771D01*
X182502200Y-179757200D01*
X183216486Y-180685771D02*
X183216486Y-179685771D01*
X183216486Y-179185771D02*
X183145057Y-179257200D01*
X183216486Y-179328629D01*
X183287914Y-179257200D01*
X183216486Y-179185771D01*
X183216486Y-179328629D01*
X183930772Y-179685771D02*
X183930772Y-180685771D01*
X183930772Y-179828629D02*
X184002200Y-179757200D01*
X184145058Y-179685771D01*
X184359343Y-179685771D01*
X184502200Y-179757200D01*
X184573629Y-179900057D01*
X184573629Y-180685771D01*
X185287915Y-180685771D02*
X185287915Y-179185771D01*
X185430772Y-180114343D02*
X185859343Y-180685771D01*
X185859343Y-179685771D02*
X185287915Y-180257200D01*
X186502201Y-180685771D02*
X186502201Y-179685771D01*
X186502201Y-179185771D02*
X186430772Y-179257200D01*
X186502201Y-179328629D01*
X186573629Y-179257200D01*
X186502201Y-179185771D01*
X186502201Y-179328629D01*
X188359344Y-180685771D02*
X188359344Y-179185771D01*
X188359344Y-179900057D02*
X189216487Y-179900057D01*
X189216487Y-180685771D02*
X189216487Y-179185771D01*
X190573630Y-180685771D02*
X190573630Y-179900057D01*
X190502201Y-179757200D01*
X190359344Y-179685771D01*
X190073630Y-179685771D01*
X189930773Y-179757200D01*
X190573630Y-180614343D02*
X190430773Y-180685771D01*
X190073630Y-180685771D01*
X189930773Y-180614343D01*
X189859344Y-180471486D01*
X189859344Y-180328629D01*
X189930773Y-180185771D01*
X190073630Y-180114343D01*
X190430773Y-180114343D01*
X190573630Y-180042914D01*
X191930773Y-180614343D02*
X191787916Y-180685771D01*
X191502202Y-180685771D01*
X191359344Y-180614343D01*
X191287916Y-180542914D01*
X191216487Y-180400057D01*
X191216487Y-179971486D01*
X191287916Y-179828629D01*
X191359344Y-179757200D01*
X191502202Y-179685771D01*
X191787916Y-179685771D01*
X191930773Y-179757200D01*
X192573630Y-180685771D02*
X192573630Y-179185771D01*
X192716487Y-180114343D02*
X193145058Y-180685771D01*
X193145058Y-179685771D02*
X192573630Y-180257200D01*
X194002202Y-180685771D02*
X193859344Y-180614343D01*
X193787916Y-180471486D01*
X193787916Y-179185771D01*
X195216487Y-180685771D02*
X195216487Y-179900057D01*
X195145058Y-179757200D01*
X195002201Y-179685771D01*
X194716487Y-179685771D01*
X194573630Y-179757200D01*
X195216487Y-180614343D02*
X195073630Y-180685771D01*
X194716487Y-180685771D01*
X194573630Y-180614343D01*
X194502201Y-180471486D01*
X194502201Y-180328629D01*
X194573630Y-180185771D01*
X194716487Y-180114343D01*
X195073630Y-180114343D01*
X195216487Y-180042914D01*
X195930773Y-180685771D02*
X195930773Y-179185771D01*
X195930773Y-179757200D02*
X196073630Y-179685771D01*
X196359344Y-179685771D01*
X196502201Y-179757200D01*
X196573630Y-179828629D01*
X196645059Y-179971486D01*
X196645059Y-180400057D01*
X196573630Y-180542914D01*
X196502201Y-180614343D01*
X196359344Y-180685771D01*
X196073630Y-180685771D01*
X195930773Y-180614343D01*
D10*
D11*
X178145057Y-176185771D02*
X179002200Y-176185771D01*
X178573629Y-177685771D02*
X178573629Y-176185771D01*
X180073628Y-177614343D02*
X179930771Y-177685771D01*
X179645057Y-177685771D01*
X179502200Y-177614343D01*
X179430771Y-177471486D01*
X179430771Y-176900057D01*
X179502200Y-176757200D01*
X179645057Y-176685771D01*
X179930771Y-176685771D01*
X180073628Y-176757200D01*
X180145057Y-176900057D01*
X180145057Y-177042914D01*
X179430771Y-177185771D01*
X180787914Y-177685771D02*
X180787914Y-176685771D01*
X180787914Y-176971486D02*
X180859342Y-176828629D01*
X180930771Y-176757200D01*
X181073628Y-176685771D01*
X181216485Y-176685771D01*
X181930771Y-177685771D02*
X181787913Y-177614343D01*
X181716485Y-177542914D01*
X181645056Y-177400057D01*
X181645056Y-176971486D01*
X181716485Y-176828629D01*
X181787913Y-176757200D01*
X181930771Y-176685771D01*
X182145056Y-176685771D01*
X182287913Y-176757200D01*
X182359342Y-176828629D01*
X182430771Y-176971486D01*
X182430771Y-177400057D01*
X182359342Y-177542914D01*
X182287913Y-177614343D01*
X182145056Y-177685771D01*
X181930771Y-177685771D01*
X184216485Y-177685771D02*
X184216485Y-176185771D01*
X185073628Y-177685771D02*
X184430771Y-176828629D01*
X185073628Y-176185771D02*
X184216485Y-177042914D01*
X186359342Y-177685771D02*
X186359342Y-176900057D01*
X186287913Y-176757200D01*
X186145056Y-176685771D01*
X185859342Y-176685771D01*
X185716485Y-176757200D01*
X186359342Y-177614343D02*
X186216485Y-177685771D01*
X185859342Y-177685771D01*
X185716485Y-177614343D01*
X185645056Y-177471486D01*
X185645056Y-177328629D01*
X185716485Y-177185771D01*
X185859342Y-177114343D01*
X186216485Y-177114343D01*
X186359342Y-177042914D01*
X187073628Y-176685771D02*
X187073628Y-178185771D01*
X187073628Y-176757200D02*
X187216485Y-176685771D01*
X187502199Y-176685771D01*
X187645056Y-176757200D01*
X187716485Y-176828629D01*
X187787914Y-176971486D01*
X187787914Y-177400057D01*
X187716485Y-177542914D01*
X187645056Y-177614343D01*
X187502199Y-177685771D01*
X187216485Y-177685771D01*
X187073628Y-177614343D01*
X189073628Y-177685771D02*
X189073628Y-176900057D01*
X189002199Y-176757200D01*
X188859342Y-176685771D01*
X188573628Y-176685771D01*
X188430771Y-176757200D01*
X189073628Y-177614343D02*
X188930771Y-177685771D01*
X188573628Y-177685771D01*
X188430771Y-177614343D01*
X188359342Y-177471486D01*
X188359342Y-177328629D01*
X188430771Y-177185771D01*
X188573628Y-177114343D01*
X188930771Y-177114343D01*
X189073628Y-177042914D01*
X189787914Y-176685771D02*
X189787914Y-177685771D01*
X189787914Y-176828629D02*
X189859342Y-176757200D01*
X190002200Y-176685771D01*
X190216485Y-176685771D01*
X190359342Y-176757200D01*
X190430771Y-176900057D01*
X190430771Y-177685771D01*
X191716485Y-177614343D02*
X191573628Y-177685771D01*
X191287914Y-177685771D01*
X191145057Y-177614343D01*
X191073628Y-177471486D01*
X191073628Y-176900057D01*
X191145057Y-176757200D01*
X191287914Y-176685771D01*
X191573628Y-176685771D01*
X191716485Y-176757200D01*
X191787914Y-176900057D01*
X191787914Y-177042914D01*
X191073628Y-177185771D01*
X192430771Y-176685771D02*
X192430771Y-177685771D01*
X192430771Y-176828629D02*
X192502199Y-176757200D01*
X192645057Y-176685771D01*
X192859342Y-176685771D01*
X193002199Y-176757200D01*
X193073628Y-176900057D01*
X193073628Y-177685771D01*
D10*
D11*
X197002200Y-191507200D02*
X197002200Y-194507200D01*
D10*
D11*
X261002200Y-191507200D02*
X261002200Y-198007200D01*
D14*
X175964285Y-80205000D02*
X176078571Y-80147857D01*
X176250000Y-80147857D01*
X176421428Y-80205000D01*
X176535714Y-80319286D01*
X176592857Y-80433571D01*
X176650000Y-80662143D01*
X176650000Y-80833571D01*
X176592857Y-81062143D01*
X176535714Y-81176429D01*
X176421428Y-81290714D01*
X176250000Y-81347857D01*
X176135714Y-81347857D01*
X175964285Y-81290714D01*
X175907142Y-81233571D01*
X175907142Y-80833571D01*
X176135714Y-80833571D01*
X175392857Y-81347857D02*
X175392857Y-80147857D01*
X174707142Y-81347857D01*
X174707142Y-80147857D01*
X174135714Y-81347857D02*
X174135714Y-80147857D01*
X173849999Y-80147857D01*
X173678571Y-80205000D01*
X173564285Y-80319286D01*
X173507142Y-80433571D01*
X173449999Y-80662143D01*
X173449999Y-80833571D01*
X173507142Y-81062143D01*
X173564285Y-81176429D01*
X173678571Y-81290714D01*
X173849999Y-81347857D01*
X174135714Y-81347857D01*
D11*
X159850000Y-80655000D02*
X159850000Y-80405000D01*
X159850000Y-81155000D02*
X159850000Y-81405000D01*
X159850000Y-81155000D02*
X160200000Y-80655000D01*
X160200000Y-80655000D02*
X159500000Y-80655000D01*
X159500000Y-80655000D02*
X159850000Y-81155000D01*
X160200000Y-81155000D02*
X159500000Y-81155000D01*
X159050000Y-82205000D02*
X159050000Y-79805000D01*
X160650000Y-82205000D02*
X160650000Y-79805000D01*
X164200000Y-109955000D02*
X164800000Y-109955000D01*
X164800000Y-108555000D02*
X164200000Y-108555000D01*
X172075000Y-109755000D02*
X172075000Y-106755000D01*
X168425000Y-106755000D02*
X168425000Y-109755000D01*
X159175000Y-88900000D02*
X159175000Y-88650000D01*
X159175000Y-89400000D02*
X159175000Y-89650000D01*
X159175000Y-89400000D02*
X159525000Y-88900000D01*
X159525000Y-88900000D02*
X158825000Y-88900000D01*
X158825000Y-88900000D02*
X159175000Y-89400000D01*
X159525000Y-89400000D02*
X158825000Y-89400000D01*
X158375000Y-90450000D02*
X158375000Y-88050000D01*
X159975000Y-90450000D02*
X159975000Y-88050000D01*
X159100000Y-102550000D02*
X159100000Y-102300000D01*
X159100000Y-103050000D02*
X159100000Y-103300000D01*
X159100000Y-103050000D02*
X159450000Y-102550000D01*
X159450000Y-102550000D02*
X158750000Y-102550000D01*
X158750000Y-102550000D02*
X159100000Y-103050000D01*
X159450000Y-103050000D02*
X158750000Y-103050000D01*
X158300000Y-104100000D02*
X158300000Y-101700000D01*
X159900000Y-104100000D02*
X159900000Y-101700000D01*
X171825000Y-98105000D02*
X171825000Y-95105000D01*
X168175000Y-95105000D02*
X168175000Y-98105000D01*
X181000000Y-89500000D02*
X181200000Y-89500000D01*
X181200000Y-89500000D02*
X181200000Y-85500000D01*
X181200000Y-85500000D02*
X181000000Y-85500000D01*
X173200000Y-85900000D02*
X173000000Y-85900000D01*
X173000000Y-85900000D02*
X173000000Y-85300000D01*
X173000000Y-85300000D02*
X173200000Y-85300000D01*
X173200000Y-87200000D02*
X173000000Y-87200000D01*
X173000000Y-87200000D02*
X173000000Y-86600000D01*
X173000000Y-86600000D02*
X173200000Y-86600000D01*
X173200000Y-88400000D02*
X173000000Y-88400000D01*
X173000000Y-88400000D02*
X173000000Y-87800000D01*
X173000000Y-87800000D02*
X173200000Y-87800000D01*
X173200000Y-89700000D02*
X173000000Y-89700000D01*
X173000000Y-89700000D02*
X173000000Y-89100000D01*
X173000000Y-89100000D02*
X173200000Y-89100000D01*
X181000000Y-90300000D02*
X181000000Y-84700000D01*
X181000000Y-84700000D02*
X173200000Y-84700000D01*
X173200000Y-84700000D02*
X173200000Y-90300000D01*
X173200000Y-90300000D02*
X181000000Y-90300000D01*
X181000000Y-98495000D02*
X181200000Y-98495000D01*
X181200000Y-98495000D02*
X181200000Y-94495000D01*
X181200000Y-94495000D02*
X181000000Y-94495000D01*
X173200000Y-94895000D02*
X173000000Y-94895000D01*
X173000000Y-94895000D02*
X173000000Y-94295000D01*
X173000000Y-94295000D02*
X173200000Y-94295000D01*
X173200000Y-96195000D02*
X173000000Y-96195000D01*
X173000000Y-96195000D02*
X173000000Y-95595000D01*
X173000000Y-95595000D02*
X173200000Y-95595000D01*
X173200000Y-97395000D02*
X173000000Y-97395000D01*
X173000000Y-97395000D02*
X173000000Y-96795000D01*
X173000000Y-96795000D02*
X173200000Y-96795000D01*
X173200000Y-98695000D02*
X173000000Y-98695000D01*
X173000000Y-98695000D02*
X173000000Y-98095000D01*
X173000000Y-98095000D02*
X173200000Y-98095000D01*
X181000000Y-99295000D02*
X181000000Y-93695000D01*
X181000000Y-93695000D02*
X173200000Y-93695000D01*
X173200000Y-93695000D02*
X173200000Y-99295000D01*
X173200000Y-99295000D02*
X181000000Y-99295000D01*
X181050000Y-107405000D02*
X181250000Y-107405000D01*
X181250000Y-107405000D02*
X181250000Y-103405000D01*
X181250000Y-103405000D02*
X181050000Y-103405000D01*
X173250000Y-103805000D02*
X173050000Y-103805000D01*
X173050000Y-103805000D02*
X173050000Y-103205000D01*
X173050000Y-103205000D02*
X173250000Y-103205000D01*
X173250000Y-105105000D02*
X173050000Y-105105000D01*
X173050000Y-105105000D02*
X173050000Y-104505000D01*
X173050000Y-104505000D02*
X173250000Y-104505000D01*
X173250000Y-106305000D02*
X173050000Y-106305000D01*
X173050000Y-106305000D02*
X173050000Y-105705000D01*
X173050000Y-105705000D02*
X173250000Y-105705000D01*
X173250000Y-107605000D02*
X173050000Y-107605000D01*
X173050000Y-107605000D02*
X173050000Y-107005000D01*
X173050000Y-107005000D02*
X173250000Y-107005000D01*
X181050000Y-108205000D02*
X181050000Y-102605000D01*
X181050000Y-102605000D02*
X173250000Y-102605000D01*
X173250000Y-102605000D02*
X173250000Y-108205000D01*
X173250000Y-108205000D02*
X181050000Y-108205000D01*
X168175000Y-85300000D02*
X168175000Y-88300000D01*
X171825000Y-88300000D02*
X171825000Y-85300000D01*
X162600000Y-81800000D02*
X163200000Y-81800000D01*
X163200000Y-80400000D02*
X162600000Y-80400000D01*
X162600000Y-83500000D02*
X163200000Y-83500000D01*
X163200000Y-82100000D02*
X162600000Y-82100000D01*
X161225000Y-90400000D02*
X161825000Y-90400000D01*
X161825000Y-89000000D02*
X161225000Y-89000000D01*
X161675000Y-92075000D02*
X162275000Y-92075000D01*
X162275000Y-90675000D02*
X161675000Y-90675000D01*
X161200000Y-102000000D02*
X161800000Y-102000000D01*
X161800000Y-100600000D02*
X161200000Y-100600000D01*
X161210000Y-103700000D02*
X161810000Y-103700000D01*
X161810000Y-102300000D02*
X161210000Y-102300000D01*
X163900000Y-88700000D02*
X164500000Y-88700000D01*
X164500000Y-87300000D02*
X163900000Y-87300000D01*
X164600000Y-99305000D02*
X165200000Y-99305000D01*
X165200000Y-97905000D02*
X164600000Y-97905000D01*
X164800000Y-106905000D02*
X164200000Y-106905000D01*
X164200000Y-108305000D02*
X164800000Y-108305000D01*
X165200000Y-96205000D02*
X164600000Y-96205000D01*
X164600000Y-97605000D02*
X165200000Y-97605000D01*
X164700000Y-85700000D02*
X164100000Y-85700000D01*
X164100000Y-87100000D02*
X164700000Y-87100000D01*
X158300000Y-108200000D02*
X158300000Y-108800000D01*
X159700000Y-108800000D02*
X159700000Y-108200000D01*
X163350000Y-95100000D02*
X163350000Y-94500000D01*
X161950000Y-94500000D02*
X161950000Y-95100000D01*
X159825000Y-85100000D02*
X159825000Y-84500000D01*
X158425000Y-84500000D02*
X158425000Y-85100000D01*
X158000000Y-108800000D02*
X158000000Y-108200000D01*
X156600000Y-108200000D02*
X156600000Y-108800000D01*
X160300000Y-94500000D02*
X160300000Y-95100000D01*
X161700000Y-95100000D02*
X161700000Y-94500000D01*
X156700000Y-84490000D02*
X156700000Y-85090000D01*
X158100000Y-85090000D02*
X158100000Y-84490000D01*
X161900000Y-109950000D02*
X161300000Y-109950000D01*
X161300000Y-111350000D02*
X161900000Y-111350000D01*
X162300000Y-97800000D02*
X161700000Y-97800000D01*
X161700000Y-99200000D02*
X162300000Y-99200000D01*
X161825000Y-87325000D02*
X161225000Y-87325000D01*
X161225000Y-88725000D02*
X161825000Y-88725000D01*
X153850000Y-91800000D02*
X153850000Y-92400000D01*
X155250000Y-92400000D02*
X155250000Y-91800000D01*
X161220000Y-109630000D02*
X161920000Y-109630000D01*
X161920000Y-108270000D02*
X161220000Y-108270000D01*
X161650000Y-97530000D02*
X162350000Y-97530000D01*
X162350000Y-96170000D02*
X161650000Y-96170000D01*
X161150000Y-87080000D02*
X161850000Y-87080000D01*
X161850000Y-85720000D02*
X161150000Y-85720000D01*
X164200000Y-106605000D02*
X164800000Y-106605000D01*
X164800000Y-105205000D02*
X164200000Y-105205000D01*
X164550000Y-95200000D02*
X165150000Y-95200000D01*
X165150000Y-93800000D02*
X164550000Y-93800000D01*
X161075000Y-85450000D02*
X161675000Y-85450000D01*
X161675000Y-84050000D02*
X161075000Y-84050000D01*
X144250000Y-88580000D02*
X144950000Y-88580000D01*
X144950000Y-87220000D02*
X144250000Y-87220000D01*
X148950000Y-87220000D02*
X148250000Y-87220000D01*
X148250000Y-88580000D02*
X148950000Y-88580000D01*
X152950000Y-87220000D02*
X152250000Y-87220000D01*
X152250000Y-88580000D02*
X152950000Y-88580000D01*
X147650000Y-90605000D02*
X147050000Y-90605000D01*
X147050000Y-92005000D02*
X147650000Y-92005000D01*
X144890000Y-85500000D02*
X144290000Y-85500000D01*
X144290000Y-86900000D02*
X144890000Y-86900000D01*
X148300000Y-86900000D02*
X148900000Y-86900000D01*
X148900000Y-85500000D02*
X148300000Y-85500000D01*
X152200000Y-86900000D02*
X152800000Y-86900000D01*
X152800000Y-85500000D02*
X152200000Y-85500000D01*
X144300000Y-90300000D02*
X144900000Y-90300000D01*
X144900000Y-88900000D02*
X144300000Y-88900000D01*
X148900000Y-88900000D02*
X148300000Y-88900000D01*
X148300000Y-90300000D02*
X148900000Y-90300000D01*
X152900000Y-88900000D02*
X152300000Y-88900000D01*
X152300000Y-90300000D02*
X152900000Y-90300000D01*
X153550000Y-94600000D02*
X153550000Y-95200000D01*
X154950000Y-95200000D02*
X154950000Y-94600000D01*
X149950000Y-91985000D02*
X150650000Y-91985000D01*
X150650000Y-90625000D02*
X149950000Y-90625000D01*
X158597619Y-79166905D02*
X158330952Y-79966905D01*
X158064285Y-79166905D01*
X157416666Y-79166905D02*
X157797619Y-79166905D01*
X157835714Y-79547857D01*
X157797619Y-79509762D01*
X157721428Y-79471667D01*
X157530952Y-79471667D01*
X157454762Y-79509762D01*
X157416666Y-79547857D01*
X157378571Y-79624048D01*
X157378571Y-79814524D01*
X157416666Y-79890714D01*
X157454762Y-79928810D01*
X157530952Y-79966905D01*
X157721428Y-79966905D01*
X157797619Y-79928810D01*
X157835714Y-79890714D01*
X164064286Y-113166905D02*
X164330953Y-112785952D01*
X164521429Y-113166905D02*
X164521429Y-112366905D01*
X164216667Y-112366905D01*
X164140476Y-112405000D01*
X164102381Y-112443095D01*
X164064286Y-112519286D01*
X164064286Y-112633571D01*
X164102381Y-112709762D01*
X164140476Y-112747857D01*
X164216667Y-112785952D01*
X164521429Y-112785952D01*
X163302381Y-113166905D02*
X163759524Y-113166905D01*
X163530953Y-113166905D02*
X163530953Y-112366905D01*
X163607143Y-112481190D01*
X163683334Y-112557381D01*
X163759524Y-112595476D01*
X162616667Y-112633571D02*
X162616667Y-113166905D01*
X162807143Y-112328810D02*
X162997619Y-112900238D01*
X162502381Y-112900238D01*
X173516666Y-109757381D02*
X173850000Y-109281190D01*
X174088095Y-109757381D02*
X174088095Y-108757381D01*
X173707142Y-108757381D01*
X173611904Y-108805000D01*
X173564285Y-108852619D01*
X173516666Y-108947857D01*
X173516666Y-109090714D01*
X173564285Y-109185952D01*
X173611904Y-109233571D01*
X173707142Y-109281190D01*
X174088095Y-109281190D01*
X173183333Y-108757381D02*
X172516666Y-108757381D01*
X172945238Y-109757381D01*
X158159524Y-89257381D02*
X157826191Y-90257381D01*
X157492857Y-89257381D01*
X156730952Y-89257381D02*
X156921429Y-89257381D01*
X157016667Y-89305000D01*
X157064286Y-89352619D01*
X157159524Y-89495476D01*
X157207143Y-89685952D01*
X157207143Y-90066905D01*
X157159524Y-90162143D01*
X157111905Y-90209762D01*
X157016667Y-90257381D01*
X156826190Y-90257381D01*
X156730952Y-90209762D01*
X156683333Y-90162143D01*
X156635714Y-90066905D01*
X156635714Y-89828810D01*
X156683333Y-89733571D01*
X156730952Y-89685952D01*
X156826190Y-89638333D01*
X157016667Y-89638333D01*
X157111905Y-89685952D01*
X157159524Y-89733571D01*
X157207143Y-89828810D01*
X157909524Y-102602381D02*
X157576191Y-103602381D01*
X157242857Y-102602381D01*
X157004762Y-102602381D02*
X156338095Y-102602381D01*
X156766667Y-103602381D01*
X173916666Y-93157381D02*
X174250000Y-92681190D01*
X174488095Y-93157381D02*
X174488095Y-92157381D01*
X174107142Y-92157381D01*
X174011904Y-92205000D01*
X173964285Y-92252619D01*
X173916666Y-92347857D01*
X173916666Y-92490714D01*
X173964285Y-92585952D01*
X174011904Y-92633571D01*
X174107142Y-92681190D01*
X174488095Y-92681190D01*
X173345238Y-92585952D02*
X173440476Y-92538333D01*
X173488095Y-92490714D01*
X173535714Y-92395476D01*
X173535714Y-92347857D01*
X173488095Y-92252619D01*
X173440476Y-92205000D01*
X173345238Y-92157381D01*
X173154761Y-92157381D01*
X173059523Y-92205000D01*
X173011904Y-92252619D01*
X172964285Y-92347857D01*
X172964285Y-92395476D01*
X173011904Y-92490714D01*
X173059523Y-92538333D01*
X173154761Y-92585952D01*
X173345238Y-92585952D01*
X173440476Y-92633571D01*
X173488095Y-92681190D01*
X173535714Y-92776429D01*
X173535714Y-92966905D01*
X173488095Y-93062143D01*
X173440476Y-93109762D01*
X173345238Y-93157381D01*
X173154761Y-93157381D01*
X173059523Y-93109762D01*
X173011904Y-93062143D01*
X172964285Y-92966905D01*
X172964285Y-92776429D01*
X173011904Y-92681190D01*
X173059523Y-92633571D01*
X173154761Y-92585952D01*
X178526190Y-84343095D02*
X178602381Y-84305000D01*
X178678571Y-84228810D01*
X178792857Y-84114524D01*
X178869048Y-84076429D01*
X178945238Y-84076429D01*
X178907143Y-84266905D02*
X178983333Y-84228810D01*
X179059524Y-84152619D01*
X179097619Y-84000238D01*
X179097619Y-83733571D01*
X179059524Y-83581190D01*
X178983333Y-83505000D01*
X178907143Y-83466905D01*
X178754762Y-83466905D01*
X178678571Y-83505000D01*
X178602381Y-83581190D01*
X178564286Y-83733571D01*
X178564286Y-84000238D01*
X178602381Y-84152619D01*
X178678571Y-84228810D01*
X178754762Y-84266905D01*
X178907143Y-84266905D01*
X178259524Y-83543095D02*
X178221429Y-83505000D01*
X178145238Y-83466905D01*
X177954762Y-83466905D01*
X177878572Y-83505000D01*
X177840476Y-83543095D01*
X177802381Y-83619286D01*
X177802381Y-83695476D01*
X177840476Y-83809762D01*
X178297619Y-84266905D01*
X177802381Y-84266905D01*
X178726190Y-93343095D02*
X178802381Y-93305000D01*
X178878571Y-93228810D01*
X178992857Y-93114524D01*
X179069048Y-93076429D01*
X179145238Y-93076429D01*
X179107143Y-93266905D02*
X179183333Y-93228810D01*
X179259524Y-93152619D01*
X179297619Y-93000238D01*
X179297619Y-92733571D01*
X179259524Y-92581190D01*
X179183333Y-92505000D01*
X179107143Y-92466905D01*
X178954762Y-92466905D01*
X178878571Y-92505000D01*
X178802381Y-92581190D01*
X178764286Y-92733571D01*
X178764286Y-93000238D01*
X178802381Y-93152619D01*
X178878571Y-93228810D01*
X178954762Y-93266905D01*
X179107143Y-93266905D01*
X178078572Y-92466905D02*
X178230953Y-92466905D01*
X178307143Y-92505000D01*
X178345238Y-92543095D01*
X178421429Y-92657381D01*
X178459524Y-92809762D01*
X178459524Y-93114524D01*
X178421429Y-93190714D01*
X178383334Y-93228810D01*
X178307143Y-93266905D01*
X178154762Y-93266905D01*
X178078572Y-93228810D01*
X178040476Y-93190714D01*
X178002381Y-93114524D01*
X178002381Y-92924048D01*
X178040476Y-92847857D01*
X178078572Y-92809762D01*
X178154762Y-92771667D01*
X178307143Y-92771667D01*
X178383334Y-92809762D01*
X178421429Y-92847857D01*
X178459524Y-92924048D01*
X180126190Y-102243095D02*
X180202381Y-102205000D01*
X180278571Y-102128810D01*
X180392857Y-102014524D01*
X180469048Y-101976429D01*
X180545238Y-101976429D01*
X180507143Y-102166905D02*
X180583333Y-102128810D01*
X180659524Y-102052619D01*
X180697619Y-101900238D01*
X180697619Y-101633571D01*
X180659524Y-101481190D01*
X180583333Y-101405000D01*
X180507143Y-101366905D01*
X180354762Y-101366905D01*
X180278571Y-101405000D01*
X180202381Y-101481190D01*
X180164286Y-101633571D01*
X180164286Y-101900238D01*
X180202381Y-102052619D01*
X180278571Y-102128810D01*
X180354762Y-102166905D01*
X180507143Y-102166905D01*
X179478572Y-101633571D02*
X179478572Y-102166905D01*
X179669048Y-101328810D02*
X179859524Y-101900238D01*
X179364286Y-101900238D01*
X172983333Y-84366905D02*
X173250000Y-83985952D01*
X173440476Y-84366905D02*
X173440476Y-83566905D01*
X173135714Y-83566905D01*
X173059523Y-83605000D01*
X173021428Y-83643095D01*
X172983333Y-83719286D01*
X172983333Y-83833571D01*
X173021428Y-83909762D01*
X173059523Y-83947857D01*
X173135714Y-83985952D01*
X173440476Y-83985952D01*
X172602381Y-84366905D02*
X172450000Y-84366905D01*
X172373809Y-84328810D01*
X172335714Y-84290714D01*
X172259523Y-84176429D01*
X172221428Y-84024048D01*
X172221428Y-83719286D01*
X172259523Y-83643095D01*
X172297619Y-83605000D01*
X172373809Y-83566905D01*
X172526190Y-83566905D01*
X172602381Y-83605000D01*
X172640476Y-83643095D01*
X172678571Y-83719286D01*
X172678571Y-83909762D01*
X172640476Y-83985952D01*
X172602381Y-84024048D01*
X172526190Y-84062143D01*
X172373809Y-84062143D01*
X172297619Y-84024048D01*
X172259523Y-83985952D01*
X172221428Y-83909762D01*
X164464286Y-79066905D02*
X164730953Y-78685952D01*
X164921429Y-79066905D02*
X164921429Y-78266905D01*
X164616667Y-78266905D01*
X164540476Y-78305000D01*
X164502381Y-78343095D01*
X164464286Y-78419286D01*
X164464286Y-78533571D01*
X164502381Y-78609762D01*
X164540476Y-78647857D01*
X164616667Y-78685952D01*
X164921429Y-78685952D01*
X164197619Y-78266905D02*
X163702381Y-78266905D01*
X163969048Y-78571667D01*
X163854762Y-78571667D01*
X163778572Y-78609762D01*
X163740476Y-78647857D01*
X163702381Y-78724048D01*
X163702381Y-78914524D01*
X163740476Y-78990714D01*
X163778572Y-79028810D01*
X163854762Y-79066905D01*
X164083334Y-79066905D01*
X164159524Y-79028810D01*
X164197619Y-78990714D01*
X163207143Y-78266905D02*
X163130952Y-78266905D01*
X163054762Y-78305000D01*
X163016667Y-78343095D01*
X162978571Y-78419286D01*
X162940476Y-78571667D01*
X162940476Y-78762143D01*
X162978571Y-78914524D01*
X163016667Y-78990714D01*
X163054762Y-79028810D01*
X163130952Y-79066905D01*
X163207143Y-79066905D01*
X163283333Y-79028810D01*
X163321429Y-78990714D01*
X163359524Y-78914524D01*
X163397619Y-78762143D01*
X163397619Y-78571667D01*
X163359524Y-78419286D01*
X163321429Y-78343095D01*
X163283333Y-78305000D01*
X163207143Y-78266905D01*
X161964286Y-80366905D02*
X162230953Y-79985952D01*
X162421429Y-80366905D02*
X162421429Y-79566905D01*
X162116667Y-79566905D01*
X162040476Y-79605000D01*
X162002381Y-79643095D01*
X161964286Y-79719286D01*
X161964286Y-79833571D01*
X162002381Y-79909762D01*
X162040476Y-79947857D01*
X162116667Y-79985952D01*
X162421429Y-79985952D01*
X161697619Y-79566905D02*
X161202381Y-79566905D01*
X161469048Y-79871667D01*
X161354762Y-79871667D01*
X161278572Y-79909762D01*
X161240476Y-79947857D01*
X161202381Y-80024048D01*
X161202381Y-80214524D01*
X161240476Y-80290714D01*
X161278572Y-80328810D01*
X161354762Y-80366905D01*
X161583334Y-80366905D01*
X161659524Y-80328810D01*
X161697619Y-80290714D01*
X160440476Y-80366905D02*
X160897619Y-80366905D01*
X160669048Y-80366905D02*
X160669048Y-79566905D01*
X160745238Y-79681190D01*
X160821429Y-79757381D01*
X160897619Y-79795476D01*
X160114286Y-91766905D02*
X160380953Y-91385952D01*
X160571429Y-91766905D02*
X160571429Y-90966905D01*
X160266667Y-90966905D01*
X160190476Y-91005000D01*
X160152381Y-91043095D01*
X160114286Y-91119286D01*
X160114286Y-91233571D01*
X160152381Y-91309762D01*
X160190476Y-91347857D01*
X160266667Y-91385952D01*
X160571429Y-91385952D01*
X159847619Y-90966905D02*
X159352381Y-90966905D01*
X159619048Y-91271667D01*
X159504762Y-91271667D01*
X159428572Y-91309762D01*
X159390476Y-91347857D01*
X159352381Y-91424048D01*
X159352381Y-91614524D01*
X159390476Y-91690714D01*
X159428572Y-91728810D01*
X159504762Y-91766905D01*
X159733334Y-91766905D01*
X159809524Y-91728810D01*
X159847619Y-91690714D01*
X159047619Y-91043095D02*
X159009524Y-91005000D01*
X158933333Y-90966905D01*
X158742857Y-90966905D01*
X158666667Y-91005000D01*
X158628571Y-91043095D01*
X158590476Y-91119286D01*
X158590476Y-91195476D01*
X158628571Y-91309762D01*
X159085714Y-91766905D01*
X158590476Y-91766905D01*
X165064286Y-91816905D02*
X165330953Y-91435952D01*
X165521429Y-91816905D02*
X165521429Y-91016905D01*
X165216667Y-91016905D01*
X165140476Y-91055000D01*
X165102381Y-91093095D01*
X165064286Y-91169286D01*
X165064286Y-91283571D01*
X165102381Y-91359762D01*
X165140476Y-91397857D01*
X165216667Y-91435952D01*
X165521429Y-91435952D01*
X164797619Y-91016905D02*
X164302381Y-91016905D01*
X164569048Y-91321667D01*
X164454762Y-91321667D01*
X164378572Y-91359762D01*
X164340476Y-91397857D01*
X164302381Y-91474048D01*
X164302381Y-91664524D01*
X164340476Y-91740714D01*
X164378572Y-91778810D01*
X164454762Y-91816905D01*
X164683334Y-91816905D01*
X164759524Y-91778810D01*
X164797619Y-91740714D01*
X164035714Y-91016905D02*
X163540476Y-91016905D01*
X163807143Y-91321667D01*
X163692857Y-91321667D01*
X163616667Y-91359762D01*
X163578571Y-91397857D01*
X163540476Y-91474048D01*
X163540476Y-91664524D01*
X163578571Y-91740714D01*
X163616667Y-91778810D01*
X163692857Y-91816905D01*
X163921429Y-91816905D01*
X163997619Y-91778810D01*
X164035714Y-91740714D01*
X164464286Y-102166905D02*
X164730953Y-101785952D01*
X164921429Y-102166905D02*
X164921429Y-101366905D01*
X164616667Y-101366905D01*
X164540476Y-101405000D01*
X164502381Y-101443095D01*
X164464286Y-101519286D01*
X164464286Y-101633571D01*
X164502381Y-101709762D01*
X164540476Y-101747857D01*
X164616667Y-101785952D01*
X164921429Y-101785952D01*
X164197619Y-101366905D02*
X163702381Y-101366905D01*
X163969048Y-101671667D01*
X163854762Y-101671667D01*
X163778572Y-101709762D01*
X163740476Y-101747857D01*
X163702381Y-101824048D01*
X163702381Y-102014524D01*
X163740476Y-102090714D01*
X163778572Y-102128810D01*
X163854762Y-102166905D01*
X164083334Y-102166905D01*
X164159524Y-102128810D01*
X164197619Y-102090714D01*
X163016667Y-101633571D02*
X163016667Y-102166905D01*
X163207143Y-101328810D02*
X163397619Y-101900238D01*
X162902381Y-101900238D01*
X164524286Y-103166905D02*
X164790953Y-102785952D01*
X164981429Y-103166905D02*
X164981429Y-102366905D01*
X164676667Y-102366905D01*
X164600476Y-102405000D01*
X164562381Y-102443095D01*
X164524286Y-102519286D01*
X164524286Y-102633571D01*
X164562381Y-102709762D01*
X164600476Y-102747857D01*
X164676667Y-102785952D01*
X164981429Y-102785952D01*
X164257619Y-102366905D02*
X163762381Y-102366905D01*
X164029048Y-102671667D01*
X163914762Y-102671667D01*
X163838572Y-102709762D01*
X163800476Y-102747857D01*
X163762381Y-102824048D01*
X163762381Y-103014524D01*
X163800476Y-103090714D01*
X163838572Y-103128810D01*
X163914762Y-103166905D01*
X164143334Y-103166905D01*
X164219524Y-103128810D01*
X164257619Y-103090714D01*
X163038571Y-102366905D02*
X163419524Y-102366905D01*
X163457619Y-102747857D01*
X163419524Y-102709762D01*
X163343333Y-102671667D01*
X163152857Y-102671667D01*
X163076667Y-102709762D01*
X163038571Y-102747857D01*
X163000476Y-102824048D01*
X163000476Y-103014524D01*
X163038571Y-103090714D01*
X163076667Y-103128810D01*
X163152857Y-103166905D01*
X163343333Y-103166905D01*
X163419524Y-103128810D01*
X163457619Y-103090714D01*
X165364286Y-90616905D02*
X165630953Y-90235952D01*
X165821429Y-90616905D02*
X165821429Y-89816905D01*
X165516667Y-89816905D01*
X165440476Y-89855000D01*
X165402381Y-89893095D01*
X165364286Y-89969286D01*
X165364286Y-90083571D01*
X165402381Y-90159762D01*
X165440476Y-90197857D01*
X165516667Y-90235952D01*
X165821429Y-90235952D01*
X164602381Y-90616905D02*
X165059524Y-90616905D01*
X164830953Y-90616905D02*
X164830953Y-89816905D01*
X164907143Y-89931190D01*
X164983334Y-90007381D01*
X165059524Y-90045476D01*
X163878571Y-89816905D02*
X164259524Y-89816905D01*
X164297619Y-90197857D01*
X164259524Y-90159762D01*
X164183333Y-90121667D01*
X163992857Y-90121667D01*
X163916667Y-90159762D01*
X163878571Y-90197857D01*
X163840476Y-90274048D01*
X163840476Y-90464524D01*
X163878571Y-90540714D01*
X163916667Y-90578810D01*
X163992857Y-90616905D01*
X164183333Y-90616905D01*
X164259524Y-90578810D01*
X164297619Y-90540714D01*
X164264286Y-100166905D02*
X164530953Y-99785952D01*
X164721429Y-100166905D02*
X164721429Y-99366905D01*
X164416667Y-99366905D01*
X164340476Y-99405000D01*
X164302381Y-99443095D01*
X164264286Y-99519286D01*
X164264286Y-99633571D01*
X164302381Y-99709762D01*
X164340476Y-99747857D01*
X164416667Y-99785952D01*
X164721429Y-99785952D01*
X163502381Y-100166905D02*
X163959524Y-100166905D01*
X163730953Y-100166905D02*
X163730953Y-99366905D01*
X163807143Y-99481190D01*
X163883334Y-99557381D01*
X163959524Y-99595476D01*
X162816667Y-99366905D02*
X162969048Y-99366905D01*
X163045238Y-99405000D01*
X163083333Y-99443095D01*
X163159524Y-99557381D01*
X163197619Y-99709762D01*
X163197619Y-100014524D01*
X163159524Y-100090714D01*
X163121429Y-100128810D01*
X163045238Y-100166905D01*
X162892857Y-100166905D01*
X162816667Y-100128810D01*
X162778571Y-100090714D01*
X162740476Y-100014524D01*
X162740476Y-99824048D01*
X162778571Y-99747857D01*
X162816667Y-99709762D01*
X162892857Y-99671667D01*
X163045238Y-99671667D01*
X163121429Y-99709762D01*
X163159524Y-99747857D01*
X163197619Y-99824048D01*
X164664286Y-112066905D02*
X164930953Y-111685952D01*
X165121429Y-112066905D02*
X165121429Y-111266905D01*
X164816667Y-111266905D01*
X164740476Y-111305000D01*
X164702381Y-111343095D01*
X164664286Y-111419286D01*
X164664286Y-111533571D01*
X164702381Y-111609762D01*
X164740476Y-111647857D01*
X164816667Y-111685952D01*
X165121429Y-111685952D01*
X163902381Y-112066905D02*
X164359524Y-112066905D01*
X164130953Y-112066905D02*
X164130953Y-111266905D01*
X164207143Y-111381190D01*
X164283334Y-111457381D01*
X164359524Y-111495476D01*
X163635714Y-111266905D02*
X163102381Y-111266905D01*
X163445238Y-112066905D01*
X164464286Y-101166905D02*
X164730953Y-100785952D01*
X164921429Y-101166905D02*
X164921429Y-100366905D01*
X164616667Y-100366905D01*
X164540476Y-100405000D01*
X164502381Y-100443095D01*
X164464286Y-100519286D01*
X164464286Y-100633571D01*
X164502381Y-100709762D01*
X164540476Y-100747857D01*
X164616667Y-100785952D01*
X164921429Y-100785952D01*
X163702381Y-101166905D02*
X164159524Y-101166905D01*
X163930953Y-101166905D02*
X163930953Y-100366905D01*
X164007143Y-100481190D01*
X164083334Y-100557381D01*
X164159524Y-100595476D01*
X163245238Y-100709762D02*
X163321429Y-100671667D01*
X163359524Y-100633571D01*
X163397619Y-100557381D01*
X163397619Y-100519286D01*
X163359524Y-100443095D01*
X163321429Y-100405000D01*
X163245238Y-100366905D01*
X163092857Y-100366905D01*
X163016667Y-100405000D01*
X162978571Y-100443095D01*
X162940476Y-100519286D01*
X162940476Y-100557381D01*
X162978571Y-100633571D01*
X163016667Y-100671667D01*
X163092857Y-100709762D01*
X163245238Y-100709762D01*
X163321429Y-100747857D01*
X163359524Y-100785952D01*
X163397619Y-100862143D01*
X163397619Y-101014524D01*
X163359524Y-101090714D01*
X163321429Y-101128810D01*
X163245238Y-101166905D01*
X163092857Y-101166905D01*
X163016667Y-101128810D01*
X162978571Y-101090714D01*
X162940476Y-101014524D01*
X162940476Y-100862143D01*
X162978571Y-100785952D01*
X163016667Y-100747857D01*
X163092857Y-100709762D01*
X164164286Y-89466905D02*
X164430953Y-89085952D01*
X164621429Y-89466905D02*
X164621429Y-88666905D01*
X164316667Y-88666905D01*
X164240476Y-88705000D01*
X164202381Y-88743095D01*
X164164286Y-88819286D01*
X164164286Y-88933571D01*
X164202381Y-89009762D01*
X164240476Y-89047857D01*
X164316667Y-89085952D01*
X164621429Y-89085952D01*
X163402381Y-89466905D02*
X163859524Y-89466905D01*
X163630953Y-89466905D02*
X163630953Y-88666905D01*
X163707143Y-88781190D01*
X163783334Y-88857381D01*
X163859524Y-88895476D01*
X163021429Y-89466905D02*
X162869048Y-89466905D01*
X162792857Y-89428810D01*
X162754762Y-89390714D01*
X162678571Y-89276429D01*
X162640476Y-89124048D01*
X162640476Y-88819286D01*
X162678571Y-88743095D01*
X162716667Y-88705000D01*
X162792857Y-88666905D01*
X162945238Y-88666905D01*
X163021429Y-88705000D01*
X163059524Y-88743095D01*
X163097619Y-88819286D01*
X163097619Y-89009762D01*
X163059524Y-89085952D01*
X163021429Y-89124048D01*
X162945238Y-89162143D01*
X162792857Y-89162143D01*
X162716667Y-89124048D01*
X162678571Y-89085952D01*
X162640476Y-89009762D01*
X159764286Y-107066905D02*
X160030953Y-106685952D01*
X160221429Y-107066905D02*
X160221429Y-106266905D01*
X159916667Y-106266905D01*
X159840476Y-106305000D01*
X159802381Y-106343095D01*
X159764286Y-106419286D01*
X159764286Y-106533571D01*
X159802381Y-106609762D01*
X159840476Y-106647857D01*
X159916667Y-106685952D01*
X160221429Y-106685952D01*
X159459524Y-106343095D02*
X159421429Y-106305000D01*
X159345238Y-106266905D01*
X159154762Y-106266905D01*
X159078572Y-106305000D01*
X159040476Y-106343095D01*
X159002381Y-106419286D01*
X159002381Y-106495476D01*
X159040476Y-106609762D01*
X159497619Y-107066905D01*
X159002381Y-107066905D01*
X158507143Y-106266905D02*
X158430952Y-106266905D01*
X158354762Y-106305000D01*
X158316667Y-106343095D01*
X158278571Y-106419286D01*
X158240476Y-106571667D01*
X158240476Y-106762143D01*
X158278571Y-106914524D01*
X158316667Y-106990714D01*
X158354762Y-107028810D01*
X158430952Y-107066905D01*
X158507143Y-107066905D01*
X158583333Y-107028810D01*
X158621429Y-106990714D01*
X158659524Y-106914524D01*
X158697619Y-106762143D01*
X158697619Y-106571667D01*
X158659524Y-106419286D01*
X158621429Y-106343095D01*
X158583333Y-106305000D01*
X158507143Y-106266905D01*
X160264286Y-93461905D02*
X160530953Y-93080952D01*
X160721429Y-93461905D02*
X160721429Y-92661905D01*
X160416667Y-92661905D01*
X160340476Y-92700000D01*
X160302381Y-92738095D01*
X160264286Y-92814286D01*
X160264286Y-92928571D01*
X160302381Y-93004762D01*
X160340476Y-93042857D01*
X160416667Y-93080952D01*
X160721429Y-93080952D01*
X159959524Y-92738095D02*
X159921429Y-92700000D01*
X159845238Y-92661905D01*
X159654762Y-92661905D01*
X159578572Y-92700000D01*
X159540476Y-92738095D01*
X159502381Y-92814286D01*
X159502381Y-92890476D01*
X159540476Y-93004762D01*
X159997619Y-93461905D01*
X159502381Y-93461905D01*
X158740476Y-93461905D02*
X159197619Y-93461905D01*
X158969048Y-93461905D02*
X158969048Y-92661905D01*
X159045238Y-92776190D01*
X159121429Y-92852381D01*
X159197619Y-92890476D01*
X159714286Y-82361905D02*
X159980953Y-81980952D01*
X160171429Y-82361905D02*
X160171429Y-81561905D01*
X159866667Y-81561905D01*
X159790476Y-81600000D01*
X159752381Y-81638095D01*
X159714286Y-81714286D01*
X159714286Y-81828571D01*
X159752381Y-81904762D01*
X159790476Y-81942857D01*
X159866667Y-81980952D01*
X160171429Y-81980952D01*
X159409524Y-81638095D02*
X159371429Y-81600000D01*
X159295238Y-81561905D01*
X159104762Y-81561905D01*
X159028572Y-81600000D01*
X158990476Y-81638095D01*
X158952381Y-81714286D01*
X158952381Y-81790476D01*
X158990476Y-81904762D01*
X159447619Y-82361905D01*
X158952381Y-82361905D01*
X158647619Y-81638095D02*
X158609524Y-81600000D01*
X158533333Y-81561905D01*
X158342857Y-81561905D01*
X158266667Y-81600000D01*
X158228571Y-81638095D01*
X158190476Y-81714286D01*
X158190476Y-81790476D01*
X158228571Y-81904762D01*
X158685714Y-82361905D01*
X158190476Y-82361905D01*
X157064286Y-107066905D02*
X157330953Y-106685952D01*
X157521429Y-107066905D02*
X157521429Y-106266905D01*
X157216667Y-106266905D01*
X157140476Y-106305000D01*
X157102381Y-106343095D01*
X157064286Y-106419286D01*
X157064286Y-106533571D01*
X157102381Y-106609762D01*
X157140476Y-106647857D01*
X157216667Y-106685952D01*
X157521429Y-106685952D01*
X156759524Y-106343095D02*
X156721429Y-106305000D01*
X156645238Y-106266905D01*
X156454762Y-106266905D01*
X156378572Y-106305000D01*
X156340476Y-106343095D01*
X156302381Y-106419286D01*
X156302381Y-106495476D01*
X156340476Y-106609762D01*
X156797619Y-107066905D01*
X156302381Y-107066905D01*
X156035714Y-106266905D02*
X155540476Y-106266905D01*
X155807143Y-106571667D01*
X155692857Y-106571667D01*
X155616667Y-106609762D01*
X155578571Y-106647857D01*
X155540476Y-106724048D01*
X155540476Y-106914524D01*
X155578571Y-106990714D01*
X155616667Y-107028810D01*
X155692857Y-107066905D01*
X155921429Y-107066905D01*
X155997619Y-107028810D01*
X156035714Y-106990714D01*
X159524286Y-94701905D02*
X159790953Y-94320952D01*
X159981429Y-94701905D02*
X159981429Y-93901905D01*
X159676667Y-93901905D01*
X159600476Y-93940000D01*
X159562381Y-93978095D01*
X159524286Y-94054286D01*
X159524286Y-94168571D01*
X159562381Y-94244762D01*
X159600476Y-94282857D01*
X159676667Y-94320952D01*
X159981429Y-94320952D01*
X159219524Y-93978095D02*
X159181429Y-93940000D01*
X159105238Y-93901905D01*
X158914762Y-93901905D01*
X158838572Y-93940000D01*
X158800476Y-93978095D01*
X158762381Y-94054286D01*
X158762381Y-94130476D01*
X158800476Y-94244762D01*
X159257619Y-94701905D01*
X158762381Y-94701905D01*
X158076667Y-94168571D02*
X158076667Y-94701905D01*
X158267143Y-93863810D02*
X158457619Y-94435238D01*
X157962381Y-94435238D01*
X156464286Y-82966905D02*
X156730953Y-82585952D01*
X156921429Y-82966905D02*
X156921429Y-82166905D01*
X156616667Y-82166905D01*
X156540476Y-82205000D01*
X156502381Y-82243095D01*
X156464286Y-82319286D01*
X156464286Y-82433571D01*
X156502381Y-82509762D01*
X156540476Y-82547857D01*
X156616667Y-82585952D01*
X156921429Y-82585952D01*
X156159524Y-82243095D02*
X156121429Y-82205000D01*
X156045238Y-82166905D01*
X155854762Y-82166905D01*
X155778572Y-82205000D01*
X155740476Y-82243095D01*
X155702381Y-82319286D01*
X155702381Y-82395476D01*
X155740476Y-82509762D01*
X156197619Y-82966905D01*
X155702381Y-82966905D01*
X154978571Y-82166905D02*
X155359524Y-82166905D01*
X155397619Y-82547857D01*
X155359524Y-82509762D01*
X155283333Y-82471667D01*
X155092857Y-82471667D01*
X155016667Y-82509762D01*
X154978571Y-82547857D01*
X154940476Y-82624048D01*
X154940476Y-82814524D01*
X154978571Y-82890714D01*
X155016667Y-82928810D01*
X155092857Y-82966905D01*
X155283333Y-82966905D01*
X155359524Y-82928810D01*
X155397619Y-82890714D01*
X161364286Y-112566905D02*
X161630953Y-112185952D01*
X161821429Y-112566905D02*
X161821429Y-111766905D01*
X161516667Y-111766905D01*
X161440476Y-111805000D01*
X161402381Y-111843095D01*
X161364286Y-111919286D01*
X161364286Y-112033571D01*
X161402381Y-112109762D01*
X161440476Y-112147857D01*
X161516667Y-112185952D01*
X161821429Y-112185952D01*
X161059524Y-111843095D02*
X161021429Y-111805000D01*
X160945238Y-111766905D01*
X160754762Y-111766905D01*
X160678572Y-111805000D01*
X160640476Y-111843095D01*
X160602381Y-111919286D01*
X160602381Y-111995476D01*
X160640476Y-112109762D01*
X161097619Y-112566905D01*
X160602381Y-112566905D01*
X159916667Y-111766905D02*
X160069048Y-111766905D01*
X160145238Y-111805000D01*
X160183333Y-111843095D01*
X160259524Y-111957381D01*
X160297619Y-112109762D01*
X160297619Y-112414524D01*
X160259524Y-112490714D01*
X160221429Y-112528810D01*
X160145238Y-112566905D01*
X159992857Y-112566905D01*
X159916667Y-112528810D01*
X159878571Y-112490714D01*
X159840476Y-112414524D01*
X159840476Y-112224048D01*
X159878571Y-112147857D01*
X159916667Y-112109762D01*
X159992857Y-112071667D01*
X160145238Y-112071667D01*
X160221429Y-112109762D01*
X160259524Y-112147857D01*
X160297619Y-112224048D01*
X158814286Y-98861905D02*
X159080953Y-98480952D01*
X159271429Y-98861905D02*
X159271429Y-98061905D01*
X158966667Y-98061905D01*
X158890476Y-98100000D01*
X158852381Y-98138095D01*
X158814286Y-98214286D01*
X158814286Y-98328571D01*
X158852381Y-98404762D01*
X158890476Y-98442857D01*
X158966667Y-98480952D01*
X159271429Y-98480952D01*
X158509524Y-98138095D02*
X158471429Y-98100000D01*
X158395238Y-98061905D01*
X158204762Y-98061905D01*
X158128572Y-98100000D01*
X158090476Y-98138095D01*
X158052381Y-98214286D01*
X158052381Y-98290476D01*
X158090476Y-98404762D01*
X158547619Y-98861905D01*
X158052381Y-98861905D01*
X157785714Y-98061905D02*
X157252381Y-98061905D01*
X157595238Y-98861905D01*
X159414286Y-86816905D02*
X159680953Y-86435952D01*
X159871429Y-86816905D02*
X159871429Y-86016905D01*
X159566667Y-86016905D01*
X159490476Y-86055000D01*
X159452381Y-86093095D01*
X159414286Y-86169286D01*
X159414286Y-86283571D01*
X159452381Y-86359762D01*
X159490476Y-86397857D01*
X159566667Y-86435952D01*
X159871429Y-86435952D01*
X159109524Y-86093095D02*
X159071429Y-86055000D01*
X158995238Y-86016905D01*
X158804762Y-86016905D01*
X158728572Y-86055000D01*
X158690476Y-86093095D01*
X158652381Y-86169286D01*
X158652381Y-86245476D01*
X158690476Y-86359762D01*
X159147619Y-86816905D01*
X158652381Y-86816905D01*
X158195238Y-86359762D02*
X158271429Y-86321667D01*
X158309524Y-86283571D01*
X158347619Y-86207381D01*
X158347619Y-86169286D01*
X158309524Y-86093095D01*
X158271429Y-86055000D01*
X158195238Y-86016905D01*
X158042857Y-86016905D01*
X157966667Y-86055000D01*
X157928571Y-86093095D01*
X157890476Y-86169286D01*
X157890476Y-86207381D01*
X157928571Y-86283571D01*
X157966667Y-86321667D01*
X158042857Y-86359762D01*
X158195238Y-86359762D01*
X158271429Y-86397857D01*
X158309524Y-86435952D01*
X158347619Y-86512143D01*
X158347619Y-86664524D01*
X158309524Y-86740714D01*
X158271429Y-86778810D01*
X158195238Y-86816905D01*
X158042857Y-86816905D01*
X157966667Y-86778810D01*
X157928571Y-86740714D01*
X157890476Y-86664524D01*
X157890476Y-86512143D01*
X157928571Y-86435952D01*
X157966667Y-86397857D01*
X158042857Y-86359762D01*
X157014286Y-92516905D02*
X157280953Y-92135952D01*
X157471429Y-92516905D02*
X157471429Y-91716905D01*
X157166667Y-91716905D01*
X157090476Y-91755000D01*
X157052381Y-91793095D01*
X157014286Y-91869286D01*
X157014286Y-91983571D01*
X157052381Y-92059762D01*
X157090476Y-92097857D01*
X157166667Y-92135952D01*
X157471429Y-92135952D01*
X156709524Y-91793095D02*
X156671429Y-91755000D01*
X156595238Y-91716905D01*
X156404762Y-91716905D01*
X156328572Y-91755000D01*
X156290476Y-91793095D01*
X156252381Y-91869286D01*
X156252381Y-91945476D01*
X156290476Y-92059762D01*
X156747619Y-92516905D01*
X156252381Y-92516905D01*
X155871429Y-92516905D02*
X155719048Y-92516905D01*
X155642857Y-92478810D01*
X155604762Y-92440714D01*
X155528571Y-92326429D01*
X155490476Y-92174048D01*
X155490476Y-91869286D01*
X155528571Y-91793095D01*
X155566667Y-91755000D01*
X155642857Y-91716905D01*
X155795238Y-91716905D01*
X155871429Y-91755000D01*
X155909524Y-91793095D01*
X155947619Y-91869286D01*
X155947619Y-92059762D01*
X155909524Y-92135952D01*
X155871429Y-92174048D01*
X155795238Y-92212143D01*
X155642857Y-92212143D01*
X155566667Y-92174048D01*
X155528571Y-92135952D01*
X155490476Y-92059762D01*
X161933333Y-106885714D02*
X161971428Y-106923810D01*
X162085714Y-106961905D01*
X162161904Y-106961905D01*
X162276190Y-106923810D01*
X162352381Y-106847619D01*
X162390476Y-106771429D01*
X162428571Y-106619048D01*
X162428571Y-106504762D01*
X162390476Y-106352381D01*
X162352381Y-106276190D01*
X162276190Y-106200000D01*
X162161904Y-106161905D01*
X162085714Y-106161905D01*
X161971428Y-106200000D01*
X161933333Y-106238095D01*
X161552381Y-106961905D02*
X161400000Y-106961905D01*
X161323809Y-106923810D01*
X161285714Y-106885714D01*
X161209523Y-106771429D01*
X161171428Y-106619048D01*
X161171428Y-106314286D01*
X161209523Y-106238095D01*
X161247619Y-106200000D01*
X161323809Y-106161905D01*
X161476190Y-106161905D01*
X161552381Y-106200000D01*
X161590476Y-106238095D01*
X161628571Y-106314286D01*
X161628571Y-106504762D01*
X161590476Y-106580952D01*
X161552381Y-106619048D01*
X161476190Y-106657143D01*
X161323809Y-106657143D01*
X161247619Y-106619048D01*
X161209523Y-106580952D01*
X161171428Y-106504762D01*
X159814286Y-97185714D02*
X159852381Y-97223810D01*
X159966667Y-97261905D01*
X160042857Y-97261905D01*
X160157143Y-97223810D01*
X160233334Y-97147619D01*
X160271429Y-97071429D01*
X160309524Y-96919048D01*
X160309524Y-96804762D01*
X160271429Y-96652381D01*
X160233334Y-96576190D01*
X160157143Y-96500000D01*
X160042857Y-96461905D01*
X159966667Y-96461905D01*
X159852381Y-96500000D01*
X159814286Y-96538095D01*
X159052381Y-97261905D02*
X159509524Y-97261905D01*
X159280953Y-97261905D02*
X159280953Y-96461905D01*
X159357143Y-96576190D01*
X159433334Y-96652381D01*
X159509524Y-96690476D01*
X158557143Y-96461905D02*
X158480952Y-96461905D01*
X158404762Y-96500000D01*
X158366667Y-96538095D01*
X158328571Y-96614286D01*
X158290476Y-96766667D01*
X158290476Y-96957143D01*
X158328571Y-97109524D01*
X158366667Y-97185714D01*
X158404762Y-97223810D01*
X158480952Y-97261905D01*
X158557143Y-97261905D01*
X158633333Y-97223810D01*
X158671429Y-97185714D01*
X158709524Y-97109524D01*
X158747619Y-96957143D01*
X158747619Y-96766667D01*
X158709524Y-96614286D01*
X158671429Y-96538095D01*
X158633333Y-96500000D01*
X158557143Y-96461905D01*
X159514286Y-87290714D02*
X159552381Y-87328810D01*
X159666667Y-87366905D01*
X159742857Y-87366905D01*
X159857143Y-87328810D01*
X159933334Y-87252619D01*
X159971429Y-87176429D01*
X160009524Y-87024048D01*
X160009524Y-86909762D01*
X159971429Y-86757381D01*
X159933334Y-86681190D01*
X159857143Y-86605000D01*
X159742857Y-86566905D01*
X159666667Y-86566905D01*
X159552381Y-86605000D01*
X159514286Y-86643095D01*
X158752381Y-87366905D02*
X159209524Y-87366905D01*
X158980953Y-87366905D02*
X158980953Y-86566905D01*
X159057143Y-86681190D01*
X159133334Y-86757381D01*
X159209524Y-86795476D01*
X157990476Y-87366905D02*
X158447619Y-87366905D01*
X158219048Y-87366905D02*
X158219048Y-86566905D01*
X158295238Y-86681190D01*
X158371429Y-86757381D01*
X158447619Y-86795476D01*
X165314286Y-104366905D02*
X165580953Y-103985952D01*
X165771429Y-104366905D02*
X165771429Y-103566905D01*
X165466667Y-103566905D01*
X165390476Y-103605000D01*
X165352381Y-103643095D01*
X165314286Y-103719286D01*
X165314286Y-103833571D01*
X165352381Y-103909762D01*
X165390476Y-103947857D01*
X165466667Y-103985952D01*
X165771429Y-103985952D01*
X164552381Y-104366905D02*
X165009524Y-104366905D01*
X164780953Y-104366905D02*
X164780953Y-103566905D01*
X164857143Y-103681190D01*
X164933334Y-103757381D01*
X165009524Y-103795476D01*
X163790476Y-104366905D02*
X164247619Y-104366905D01*
X164019048Y-104366905D02*
X164019048Y-103566905D01*
X164095238Y-103681190D01*
X164171429Y-103757381D01*
X164247619Y-103795476D01*
X165264286Y-92816905D02*
X165530953Y-92435952D01*
X165721429Y-92816905D02*
X165721429Y-92016905D01*
X165416667Y-92016905D01*
X165340476Y-92055000D01*
X165302381Y-92093095D01*
X165264286Y-92169286D01*
X165264286Y-92283571D01*
X165302381Y-92359762D01*
X165340476Y-92397857D01*
X165416667Y-92435952D01*
X165721429Y-92435952D01*
X164502381Y-92816905D02*
X164959524Y-92816905D01*
X164730953Y-92816905D02*
X164730953Y-92016905D01*
X164807143Y-92131190D01*
X164883334Y-92207381D01*
X164959524Y-92245476D01*
X164197619Y-92093095D02*
X164159524Y-92055000D01*
X164083333Y-92016905D01*
X163892857Y-92016905D01*
X163816667Y-92055000D01*
X163778571Y-92093095D01*
X163740476Y-92169286D01*
X163740476Y-92245476D01*
X163778571Y-92359762D01*
X164235714Y-92816905D01*
X163740476Y-92816905D01*
X164164286Y-84466905D02*
X164430953Y-84085952D01*
X164621429Y-84466905D02*
X164621429Y-83666905D01*
X164316667Y-83666905D01*
X164240476Y-83705000D01*
X164202381Y-83743095D01*
X164164286Y-83819286D01*
X164164286Y-83933571D01*
X164202381Y-84009762D01*
X164240476Y-84047857D01*
X164316667Y-84085952D01*
X164621429Y-84085952D01*
X163402381Y-84466905D02*
X163859524Y-84466905D01*
X163630953Y-84466905D02*
X163630953Y-83666905D01*
X163707143Y-83781190D01*
X163783334Y-83857381D01*
X163859524Y-83895476D01*
X163135714Y-83666905D02*
X162640476Y-83666905D01*
X162907143Y-83971667D01*
X162792857Y-83971667D01*
X162716667Y-84009762D01*
X162678571Y-84047857D01*
X162640476Y-84124048D01*
X162640476Y-84314524D01*
X162678571Y-84390714D01*
X162716667Y-84428810D01*
X162792857Y-84466905D01*
X163021429Y-84466905D01*
X163097619Y-84428810D01*
X163135714Y-84390714D01*
X142364286Y-88140714D02*
X142402381Y-88178810D01*
X142516667Y-88216905D01*
X142592857Y-88216905D01*
X142707143Y-88178810D01*
X142783334Y-88102619D01*
X142821429Y-88026429D01*
X142859524Y-87874048D01*
X142859524Y-87759762D01*
X142821429Y-87607381D01*
X142783334Y-87531190D01*
X142707143Y-87455000D01*
X142592857Y-87416905D01*
X142516667Y-87416905D01*
X142402381Y-87455000D01*
X142364286Y-87493095D01*
X142059524Y-87493095D02*
X142021429Y-87455000D01*
X141945238Y-87416905D01*
X141754762Y-87416905D01*
X141678572Y-87455000D01*
X141640476Y-87493095D01*
X141602381Y-87569286D01*
X141602381Y-87645476D01*
X141640476Y-87759762D01*
X142097619Y-88216905D01*
X141602381Y-88216905D01*
X141297619Y-87493095D02*
X141259524Y-87455000D01*
X141183333Y-87416905D01*
X140992857Y-87416905D01*
X140916667Y-87455000D01*
X140878571Y-87493095D01*
X140840476Y-87569286D01*
X140840476Y-87645476D01*
X140878571Y-87759762D01*
X141335714Y-88216905D01*
X140840476Y-88216905D01*
X150785714Y-85485714D02*
X150823810Y-85447619D01*
X150861905Y-85333333D01*
X150861905Y-85257143D01*
X150823810Y-85142857D01*
X150747619Y-85066666D01*
X150671429Y-85028571D01*
X150519048Y-84990476D01*
X150404762Y-84990476D01*
X150252381Y-85028571D01*
X150176190Y-85066666D01*
X150100000Y-85142857D01*
X150061905Y-85257143D01*
X150061905Y-85333333D01*
X150100000Y-85447619D01*
X150138095Y-85485714D01*
X150138095Y-85790476D02*
X150100000Y-85828571D01*
X150061905Y-85904762D01*
X150061905Y-86095238D01*
X150100000Y-86171428D01*
X150138095Y-86209524D01*
X150214286Y-86247619D01*
X150290476Y-86247619D01*
X150404762Y-86209524D01*
X150861905Y-85752381D01*
X150861905Y-86247619D01*
X150061905Y-86514286D02*
X150061905Y-87009524D01*
X150366667Y-86742857D01*
X150366667Y-86857143D01*
X150404762Y-86933333D01*
X150442857Y-86971429D01*
X150519048Y-87009524D01*
X150709524Y-87009524D01*
X150785714Y-86971429D01*
X150823810Y-86933333D01*
X150861905Y-86857143D01*
X150861905Y-86628571D01*
X150823810Y-86552381D01*
X150785714Y-86514286D01*
X155814286Y-88140714D02*
X155852381Y-88178810D01*
X155966667Y-88216905D01*
X156042857Y-88216905D01*
X156157143Y-88178810D01*
X156233334Y-88102619D01*
X156271429Y-88026429D01*
X156309524Y-87874048D01*
X156309524Y-87759762D01*
X156271429Y-87607381D01*
X156233334Y-87531190D01*
X156157143Y-87455000D01*
X156042857Y-87416905D01*
X155966667Y-87416905D01*
X155852381Y-87455000D01*
X155814286Y-87493095D01*
X155509524Y-87493095D02*
X155471429Y-87455000D01*
X155395238Y-87416905D01*
X155204762Y-87416905D01*
X155128572Y-87455000D01*
X155090476Y-87493095D01*
X155052381Y-87569286D01*
X155052381Y-87645476D01*
X155090476Y-87759762D01*
X155547619Y-88216905D01*
X155052381Y-88216905D01*
X154366667Y-87683571D02*
X154366667Y-88216905D01*
X154557143Y-87378810D02*
X154747619Y-87950238D01*
X154252381Y-87950238D01*
X145464286Y-91866905D02*
X145730953Y-91485952D01*
X145921429Y-91866905D02*
X145921429Y-91066905D01*
X145616667Y-91066905D01*
X145540476Y-91105000D01*
X145502381Y-91143095D01*
X145464286Y-91219286D01*
X145464286Y-91333571D01*
X145502381Y-91409762D01*
X145540476Y-91447857D01*
X145616667Y-91485952D01*
X145921429Y-91485952D01*
X145197619Y-91066905D02*
X144702381Y-91066905D01*
X144969048Y-91371667D01*
X144854762Y-91371667D01*
X144778572Y-91409762D01*
X144740476Y-91447857D01*
X144702381Y-91524048D01*
X144702381Y-91714524D01*
X144740476Y-91790714D01*
X144778572Y-91828810D01*
X144854762Y-91866905D01*
X145083334Y-91866905D01*
X145159524Y-91828810D01*
X145197619Y-91790714D01*
X144321429Y-91866905D02*
X144169048Y-91866905D01*
X144092857Y-91828810D01*
X144054762Y-91790714D01*
X143978571Y-91676429D01*
X143940476Y-91524048D01*
X143940476Y-91219286D01*
X143978571Y-91143095D01*
X144016667Y-91105000D01*
X144092857Y-91066905D01*
X144245238Y-91066905D01*
X144321429Y-91105000D01*
X144359524Y-91143095D01*
X144397619Y-91219286D01*
X144397619Y-91409762D01*
X144359524Y-91485952D01*
X144321429Y-91524048D01*
X144245238Y-91562143D01*
X144092857Y-91562143D01*
X144016667Y-91524048D01*
X143978571Y-91485952D01*
X143940476Y-91409762D01*
X142464286Y-86616905D02*
X142730953Y-86235952D01*
X142921429Y-86616905D02*
X142921429Y-85816905D01*
X142616667Y-85816905D01*
X142540476Y-85855000D01*
X142502381Y-85893095D01*
X142464286Y-85969286D01*
X142464286Y-86083571D01*
X142502381Y-86159762D01*
X142540476Y-86197857D01*
X142616667Y-86235952D01*
X142921429Y-86235952D01*
X141778572Y-86083571D02*
X141778572Y-86616905D01*
X141969048Y-85778810D02*
X142159524Y-86350238D01*
X141664286Y-86350238D01*
X140940476Y-86616905D02*
X141397619Y-86616905D01*
X141169048Y-86616905D02*
X141169048Y-85816905D01*
X141245238Y-85931190D01*
X141321429Y-86007381D01*
X141397619Y-86045476D01*
X147114286Y-85466905D02*
X147380953Y-85085952D01*
X147571429Y-85466905D02*
X147571429Y-84666905D01*
X147266667Y-84666905D01*
X147190476Y-84705000D01*
X147152381Y-84743095D01*
X147114286Y-84819286D01*
X147114286Y-84933571D01*
X147152381Y-85009762D01*
X147190476Y-85047857D01*
X147266667Y-85085952D01*
X147571429Y-85085952D01*
X146428572Y-84933571D02*
X146428572Y-85466905D01*
X146619048Y-84628810D02*
X146809524Y-85200238D01*
X146314286Y-85200238D01*
X146047619Y-84743095D02*
X146009524Y-84705000D01*
X145933333Y-84666905D01*
X145742857Y-84666905D01*
X145666667Y-84705000D01*
X145628571Y-84743095D01*
X145590476Y-84819286D01*
X145590476Y-84895476D01*
X145628571Y-85009762D01*
X146085714Y-85466905D01*
X145590476Y-85466905D01*
X155514286Y-86616905D02*
X155780953Y-86235952D01*
X155971429Y-86616905D02*
X155971429Y-85816905D01*
X155666667Y-85816905D01*
X155590476Y-85855000D01*
X155552381Y-85893095D01*
X155514286Y-85969286D01*
X155514286Y-86083571D01*
X155552381Y-86159762D01*
X155590476Y-86197857D01*
X155666667Y-86235952D01*
X155971429Y-86235952D01*
X154828572Y-86083571D02*
X154828572Y-86616905D01*
X155019048Y-85778810D02*
X155209524Y-86350238D01*
X154714286Y-86350238D01*
X154485714Y-85816905D02*
X153990476Y-85816905D01*
X154257143Y-86121667D01*
X154142857Y-86121667D01*
X154066667Y-86159762D01*
X154028571Y-86197857D01*
X153990476Y-86274048D01*
X153990476Y-86464524D01*
X154028571Y-86540714D01*
X154066667Y-86578810D01*
X154142857Y-86616905D01*
X154371429Y-86616905D01*
X154447619Y-86578810D01*
X154485714Y-86540714D01*
X142514286Y-89966905D02*
X142780953Y-89585952D01*
X142971429Y-89966905D02*
X142971429Y-89166905D01*
X142666667Y-89166905D01*
X142590476Y-89205000D01*
X142552381Y-89243095D01*
X142514286Y-89319286D01*
X142514286Y-89433571D01*
X142552381Y-89509762D01*
X142590476Y-89547857D01*
X142666667Y-89585952D01*
X142971429Y-89585952D01*
X141828572Y-89433571D02*
X141828572Y-89966905D01*
X142019048Y-89128810D02*
X142209524Y-89700238D01*
X141714286Y-89700238D01*
X141066667Y-89433571D02*
X141066667Y-89966905D01*
X141257143Y-89128810D02*
X141447619Y-89700238D01*
X140952381Y-89700238D01*
X153214286Y-91061905D02*
X153480953Y-90680952D01*
X153671429Y-91061905D02*
X153671429Y-90261905D01*
X153366667Y-90261905D01*
X153290476Y-90300000D01*
X153252381Y-90338095D01*
X153214286Y-90414286D01*
X153214286Y-90528571D01*
X153252381Y-90604762D01*
X153290476Y-90642857D01*
X153366667Y-90680952D01*
X153671429Y-90680952D01*
X152528572Y-90528571D02*
X152528572Y-91061905D01*
X152719048Y-90223810D02*
X152909524Y-90795238D01*
X152414286Y-90795238D01*
X151728571Y-90261905D02*
X152109524Y-90261905D01*
X152147619Y-90642857D01*
X152109524Y-90604762D01*
X152033333Y-90566667D01*
X151842857Y-90566667D01*
X151766667Y-90604762D01*
X151728571Y-90642857D01*
X151690476Y-90719048D01*
X151690476Y-90909524D01*
X151728571Y-90985714D01*
X151766667Y-91023810D01*
X151842857Y-91061905D01*
X152033333Y-91061905D01*
X152109524Y-91023810D01*
X152147619Y-90985714D01*
X155514286Y-89961905D02*
X155780953Y-89580952D01*
X155971429Y-89961905D02*
X155971429Y-89161905D01*
X155666667Y-89161905D01*
X155590476Y-89200000D01*
X155552381Y-89238095D01*
X155514286Y-89314286D01*
X155514286Y-89428571D01*
X155552381Y-89504762D01*
X155590476Y-89542857D01*
X155666667Y-89580952D01*
X155971429Y-89580952D01*
X154828572Y-89428571D02*
X154828572Y-89961905D01*
X155019048Y-89123810D02*
X155209524Y-89695238D01*
X154714286Y-89695238D01*
X154066667Y-89161905D02*
X154219048Y-89161905D01*
X154295238Y-89200000D01*
X154333333Y-89238095D01*
X154409524Y-89352381D01*
X154447619Y-89504762D01*
X154447619Y-89809524D01*
X154409524Y-89885714D01*
X154371429Y-89923810D01*
X154295238Y-89961905D01*
X154142857Y-89961905D01*
X154066667Y-89923810D01*
X154028571Y-89885714D01*
X153990476Y-89809524D01*
X153990476Y-89619048D01*
X154028571Y-89542857D01*
X154066667Y-89504762D01*
X154142857Y-89466667D01*
X154295238Y-89466667D01*
X154371429Y-89504762D01*
X154409524Y-89542857D01*
X154447619Y-89619048D01*
X154714286Y-97266905D02*
X154980953Y-96885952D01*
X155171429Y-97266905D02*
X155171429Y-96466905D01*
X154866667Y-96466905D01*
X154790476Y-96505000D01*
X154752381Y-96543095D01*
X154714286Y-96619286D01*
X154714286Y-96733571D01*
X154752381Y-96809762D01*
X154790476Y-96847857D01*
X154866667Y-96885952D01*
X155171429Y-96885952D01*
X154028572Y-96733571D02*
X154028572Y-97266905D01*
X154219048Y-96428810D02*
X154409524Y-97000238D01*
X153914286Y-97000238D01*
X153685714Y-96466905D02*
X153152381Y-96466905D01*
X153495238Y-97266905D01*
X151464286Y-92740714D02*
X151502381Y-92778810D01*
X151616667Y-92816905D01*
X151692857Y-92816905D01*
X151807143Y-92778810D01*
X151883334Y-92702619D01*
X151921429Y-92626429D01*
X151959524Y-92474048D01*
X151959524Y-92359762D01*
X151921429Y-92207381D01*
X151883334Y-92131190D01*
X151807143Y-92055000D01*
X151692857Y-92016905D01*
X151616667Y-92016905D01*
X151502381Y-92055000D01*
X151464286Y-92093095D01*
X150702381Y-92816905D02*
X151159524Y-92816905D01*
X150930953Y-92816905D02*
X150930953Y-92016905D01*
X151007143Y-92131190D01*
X151083334Y-92207381D01*
X151159524Y-92245476D01*
X150016667Y-92016905D02*
X150169048Y-92016905D01*
X150245238Y-92055000D01*
X150283333Y-92093095D01*
X150359524Y-92207381D01*
X150397619Y-92359762D01*
X150397619Y-92664524D01*
X150359524Y-92740714D01*
X150321429Y-92778810D01*
X150245238Y-92816905D01*
X150092857Y-92816905D01*
X150016667Y-92778810D01*
X149978571Y-92740714D01*
X149940476Y-92664524D01*
X149940476Y-92474048D01*
X149978571Y-92397857D01*
X150016667Y-92359762D01*
X150092857Y-92321667D01*
X150245238Y-92321667D01*
X150321429Y-92359762D01*
X150359524Y-92397857D01*
X150397619Y-92474048D01*
M02*
