%TF.GenerationSoftware,KiCad,Pcbnew,4.0.6-e0-6349~53~ubuntu16.04.1*%
%TF.CreationDate,2017-03-23T00:14:44+02:00*%
%TF.ProjectId,BLDC_controller,424C44435F636F6E74726F6C6C65722E,1.0*%
%TF.FileFunction,Legend,Top*%
%FSLAX46Y46*%
G04 Gerber Fmt 4.6, Leading zero omitted, Abs format (unit mm)*
G04 Created by KiCad (PCBNEW 4.0.6-e0-6349~53~ubuntu16.04.1) date Thu Mar 23 00:14:44 2017*
%MOMM*%
%LPD*%
G01*
G04 APERTURE LIST*
%ADD10C,0.100000*%
%ADD11C,0.150000*%
%ADD12C,0.200000*%
%ADD13C,0.250000*%
%ADD14C,0.010000*%
%ADD15C,1.500000*%
%ADD16R,1.650000X1.650000*%
%ADD17C,1.650000*%
%ADD18C,1.450000*%
%ADD19R,1.150000X2.850000*%
%ADD20R,1.050000X1.150000*%
%ADD21R,0.750000X0.950000*%
%ADD22R,2.850000X1.650000*%
%ADD23R,0.550000X0.750000*%
%ADD24R,1.790000X1.550000*%
%ADD25R,1.500000X1.700000*%
%ADD26R,1.150000X1.050000*%
%ADD27R,0.800000X1.140000*%
%ADD28R,0.870000X0.870000*%
%ADD29R,0.790000X0.870000*%
%ADD30C,2.850000*%
%ADD31R,1.300000X0.850000*%
%ADD32R,1.650000X4.850000*%
%ADD33R,3.750000X4.350000*%
%ADD34C,2.250000*%
%ADD35O,1.200000X0.400000*%
%ADD36O,0.400000X1.200000*%
%ADD37C,0.254000*%
G04 APERTURE END LIST*
D10*
D11*
X2361905Y23057143D02*
X2361905Y22600000D01*
X2361905Y22828571D02*
X1561905Y22828571D01*
X1676190Y22752381D01*
X1752381Y22676190D01*
X1790476Y22600000D01*
X2285714Y23400000D02*
X2323810Y23438095D01*
X2361905Y23400000D01*
X2323810Y23361905D01*
X2285714Y23400000D01*
X2361905Y23400000D01*
X1561905Y23933333D02*
X1561905Y24009524D01*
X1600000Y24085714D01*
X1638095Y24123809D01*
X1714286Y24161905D01*
X1866667Y24200000D01*
X2057143Y24200000D01*
X2209524Y24161905D01*
X2285714Y24123809D01*
X2323810Y24085714D01*
X2361905Y24009524D01*
X2361905Y23933333D01*
X2323810Y23857143D01*
X2285714Y23819047D01*
X2209524Y23780952D01*
X2057143Y23742857D01*
X1866667Y23742857D01*
X1714286Y23780952D01*
X1638095Y23819047D01*
X1600000Y23857143D01*
X1561905Y23933333D01*
X10111905Y22900000D02*
X9311905Y22900000D01*
X9692857Y22900000D02*
X9692857Y23357143D01*
X10111905Y23357143D02*
X9311905Y23357143D01*
X9883333Y23700000D02*
X9883333Y24080952D01*
X10111905Y23623809D02*
X9311905Y23890476D01*
X10111905Y24157143D01*
X10111905Y24804762D02*
X10111905Y24423809D01*
X9311905Y24423809D01*
X10111905Y25452381D02*
X10111905Y25071428D01*
X9311905Y25071428D01*
X9388095Y25680952D02*
X9350000Y25719047D01*
X9311905Y25795238D01*
X9311905Y25985714D01*
X9350000Y26061904D01*
X9388095Y26100000D01*
X9464286Y26138095D01*
X9540476Y26138095D01*
X9654762Y26100000D01*
X10111905Y25642857D01*
X10111905Y26138095D01*
X16840477Y4100000D02*
X16764286Y4138095D01*
X16650001Y4138095D01*
X16535715Y4100000D01*
X16459524Y4023810D01*
X16421429Y3947619D01*
X16383334Y3795238D01*
X16383334Y3680952D01*
X16421429Y3528571D01*
X16459524Y3452381D01*
X16535715Y3376190D01*
X16650001Y3338095D01*
X16726191Y3338095D01*
X16840477Y3376190D01*
X16878572Y3414286D01*
X16878572Y3680952D01*
X16726191Y3680952D01*
X17221429Y3338095D02*
X17221429Y4138095D01*
X17678572Y3338095D01*
X17678572Y4138095D01*
X18059524Y3338095D02*
X18059524Y4138095D01*
X18250000Y4138095D01*
X18364286Y4100000D01*
X18440477Y4023810D01*
X18478572Y3947619D01*
X18516667Y3795238D01*
X18516667Y3680952D01*
X18478572Y3528571D01*
X18440477Y3452381D01*
X18364286Y3376190D01*
X18250000Y3338095D01*
X18059524Y3338095D01*
X13892857Y238095D02*
X13892857Y1038095D01*
X14159524Y466667D01*
X14426191Y1038095D01*
X14426191Y238095D01*
X14959524Y1038095D02*
X15111905Y1038095D01*
X15188096Y1000000D01*
X15264286Y923810D01*
X15302381Y771429D01*
X15302381Y504762D01*
X15264286Y352381D01*
X15188096Y276190D01*
X15111905Y238095D01*
X14959524Y238095D01*
X14883334Y276190D01*
X14807143Y352381D01*
X14769048Y504762D01*
X14769048Y771429D01*
X14807143Y923810D01*
X14883334Y1000000D01*
X14959524Y1038095D01*
X15607143Y276190D02*
X15721429Y238095D01*
X15911905Y238095D01*
X15988095Y276190D01*
X16026191Y314286D01*
X16064286Y390476D01*
X16064286Y466667D01*
X16026191Y542857D01*
X15988095Y580952D01*
X15911905Y619048D01*
X15759524Y657143D01*
X15683333Y695238D01*
X15645238Y733333D01*
X15607143Y809524D01*
X15607143Y885714D01*
X15645238Y961905D01*
X15683333Y1000000D01*
X15759524Y1038095D01*
X15950000Y1038095D01*
X16064286Y1000000D01*
X16407143Y238095D02*
X16407143Y1038095D01*
X9021429Y276190D02*
X9135715Y238095D01*
X9326191Y238095D01*
X9402381Y276190D01*
X9440477Y314286D01*
X9478572Y390476D01*
X9478572Y466667D01*
X9440477Y542857D01*
X9402381Y580952D01*
X9326191Y619048D01*
X9173810Y657143D01*
X9097619Y695238D01*
X9059524Y733333D01*
X9021429Y809524D01*
X9021429Y885714D01*
X9059524Y961905D01*
X9097619Y1000000D01*
X9173810Y1038095D01*
X9364286Y1038095D01*
X9478572Y1000000D01*
X10278572Y314286D02*
X10240477Y276190D01*
X10126191Y238095D01*
X10050001Y238095D01*
X9935715Y276190D01*
X9859524Y352381D01*
X9821429Y428571D01*
X9783334Y580952D01*
X9783334Y695238D01*
X9821429Y847619D01*
X9859524Y923810D01*
X9935715Y1000000D01*
X10050001Y1038095D01*
X10126191Y1038095D01*
X10240477Y1000000D01*
X10278572Y961905D01*
X10621429Y238095D02*
X10621429Y1038095D01*
X11078572Y238095D02*
X10735715Y695238D01*
X11078572Y1038095D02*
X10621429Y580952D01*
X6559524Y3238095D02*
X6559524Y4038095D01*
X7016667Y3238095D01*
X7016667Y4038095D01*
X7359524Y3276190D02*
X7473810Y3238095D01*
X7664286Y3238095D01*
X7740476Y3276190D01*
X7778572Y3314286D01*
X7816667Y3390476D01*
X7816667Y3466667D01*
X7778572Y3542857D01*
X7740476Y3580952D01*
X7664286Y3619048D01*
X7511905Y3657143D01*
X7435714Y3695238D01*
X7397619Y3733333D01*
X7359524Y3809524D01*
X7359524Y3885714D01*
X7397619Y3961905D01*
X7435714Y4000000D01*
X7511905Y4038095D01*
X7702381Y4038095D01*
X7816667Y4000000D01*
X8121429Y3276190D02*
X8235715Y3238095D01*
X8426191Y3238095D01*
X8502381Y3276190D01*
X8540477Y3314286D01*
X8578572Y3390476D01*
X8578572Y3466667D01*
X8540477Y3542857D01*
X8502381Y3580952D01*
X8426191Y3619048D01*
X8273810Y3657143D01*
X8197619Y3695238D01*
X8159524Y3733333D01*
X8121429Y3809524D01*
X8121429Y3885714D01*
X8159524Y3961905D01*
X8197619Y4000000D01*
X8273810Y4038095D01*
X8464286Y4038095D01*
X8578572Y4000000D01*
X11392857Y3238095D02*
X11392857Y4038095D01*
X11659524Y3466667D01*
X11926191Y4038095D01*
X11926191Y3238095D01*
X12307143Y3238095D02*
X12307143Y4038095D01*
X12650000Y3276190D02*
X12764286Y3238095D01*
X12954762Y3238095D01*
X13030952Y3276190D01*
X13069048Y3314286D01*
X13107143Y3390476D01*
X13107143Y3466667D01*
X13069048Y3542857D01*
X13030952Y3580952D01*
X12954762Y3619048D01*
X12802381Y3657143D01*
X12726190Y3695238D01*
X12688095Y3733333D01*
X12650000Y3809524D01*
X12650000Y3885714D01*
X12688095Y3961905D01*
X12726190Y4000000D01*
X12802381Y4038095D01*
X12992857Y4038095D01*
X13107143Y4000000D01*
X13602381Y4038095D02*
X13754762Y4038095D01*
X13830953Y4000000D01*
X13907143Y3923810D01*
X13945238Y3771429D01*
X13945238Y3504762D01*
X13907143Y3352381D01*
X13830953Y3276190D01*
X13754762Y3238095D01*
X13602381Y3238095D01*
X13526191Y3276190D01*
X13450000Y3352381D01*
X13411905Y3504762D01*
X13411905Y3771429D01*
X13450000Y3923810D01*
X13526191Y4000000D01*
X13602381Y4038095D01*
X17340477Y26200000D02*
X17264286Y26238095D01*
X17150001Y26238095D01*
X17035715Y26200000D01*
X16959524Y26123810D01*
X16921429Y26047619D01*
X16883334Y25895238D01*
X16883334Y25780952D01*
X16921429Y25628571D01*
X16959524Y25552381D01*
X17035715Y25476190D01*
X17150001Y25438095D01*
X17226191Y25438095D01*
X17340477Y25476190D01*
X17378572Y25514286D01*
X17378572Y25780952D01*
X17226191Y25780952D01*
X17721429Y25438095D02*
X17721429Y26238095D01*
X18178572Y25438095D01*
X18178572Y26238095D01*
X18559524Y25438095D02*
X18559524Y26238095D01*
X18750000Y26238095D01*
X18864286Y26200000D01*
X18940477Y26123810D01*
X18978572Y26047619D01*
X19016667Y25895238D01*
X19016667Y25780952D01*
X18978572Y25628571D01*
X18940477Y25552381D01*
X18864286Y25476190D01*
X18750000Y25438095D01*
X18559524Y25438095D01*
X15207143Y22900000D02*
X15207143Y23509524D01*
X15511905Y23204762D02*
X14902381Y23204762D01*
X14711905Y23814286D02*
X14711905Y24309524D01*
X15016667Y24042857D01*
X15016667Y24157143D01*
X15054762Y24233333D01*
X15092857Y24271429D01*
X15169048Y24309524D01*
X15359524Y24309524D01*
X15435714Y24271429D01*
X15473810Y24233333D01*
X15511905Y24157143D01*
X15511905Y23928571D01*
X15473810Y23852381D01*
X15435714Y23814286D01*
X15435714Y24652381D02*
X15473810Y24690476D01*
X15511905Y24652381D01*
X15473810Y24614286D01*
X15435714Y24652381D01*
X15511905Y24652381D01*
X14711905Y24957143D02*
X14711905Y25452381D01*
X15016667Y25185714D01*
X15016667Y25300000D01*
X15054762Y25376190D01*
X15092857Y25414286D01*
X15169048Y25452381D01*
X15359524Y25452381D01*
X15435714Y25414286D01*
X15473810Y25376190D01*
X15511905Y25300000D01*
X15511905Y25071428D01*
X15473810Y24995238D01*
X15435714Y24957143D01*
X14711905Y25680952D02*
X15511905Y25947619D01*
X14711905Y26214286D01*
X13011905Y22900000D02*
X12211905Y22900000D01*
X12592857Y22900000D02*
X12592857Y23357143D01*
X13011905Y23357143D02*
X12211905Y23357143D01*
X12783333Y23700000D02*
X12783333Y24080952D01*
X13011905Y23623809D02*
X12211905Y23890476D01*
X13011905Y24157143D01*
X13011905Y24804762D02*
X13011905Y24423809D01*
X12211905Y24423809D01*
X13011905Y25452381D02*
X13011905Y25071428D01*
X12211905Y25071428D01*
X12211905Y25642857D02*
X12211905Y26138095D01*
X12516667Y25871428D01*
X12516667Y25985714D01*
X12554762Y26061904D01*
X12592857Y26100000D01*
X12669048Y26138095D01*
X12859524Y26138095D01*
X12935714Y26100000D01*
X12973810Y26061904D01*
X13011905Y25985714D01*
X13011905Y25757142D01*
X12973810Y25680952D01*
X12935714Y25642857D01*
X8411905Y22900000D02*
X7611905Y22900000D01*
X7992857Y22900000D02*
X7992857Y23357143D01*
X8411905Y23357143D02*
X7611905Y23357143D01*
X8183333Y23700000D02*
X8183333Y24080952D01*
X8411905Y23623809D02*
X7611905Y23890476D01*
X8411905Y24157143D01*
X8411905Y24804762D02*
X8411905Y24423809D01*
X7611905Y24423809D01*
X8411905Y25452381D02*
X8411905Y25071428D01*
X7611905Y25071428D01*
X8411905Y26138095D02*
X8411905Y25680952D01*
X8411905Y25909523D02*
X7611905Y25909523D01*
X7726190Y25833333D01*
X7802381Y25757142D01*
X7840476Y25680952D01*
D12*
X1388096Y30876190D02*
X1502382Y30838095D01*
X1692858Y30838095D01*
X1769048Y30876190D01*
X1807144Y30914286D01*
X1845239Y30990476D01*
X1845239Y31066667D01*
X1807144Y31142857D01*
X1769048Y31180952D01*
X1692858Y31219048D01*
X1540477Y31257143D01*
X1464286Y31295238D01*
X1426191Y31333333D01*
X1388096Y31409524D01*
X1388096Y31485714D01*
X1426191Y31561905D01*
X1464286Y31600000D01*
X1540477Y31638095D01*
X1730953Y31638095D01*
X1845239Y31600000D01*
X2073810Y31638095D02*
X2530953Y31638095D01*
X2302382Y30838095D02*
X2302382Y31638095D01*
X2797620Y31142857D02*
X3407144Y31142857D01*
X4169049Y30838095D02*
X3788096Y30838095D01*
X3788096Y31638095D01*
X4435715Y30838095D02*
X4435715Y31638095D01*
X4816667Y30838095D02*
X4816667Y31638095D01*
X5273810Y30838095D01*
X5273810Y31638095D01*
X5654762Y30838095D02*
X5654762Y31638095D01*
X6111905Y30838095D02*
X5769048Y31295238D01*
X6111905Y31638095D02*
X5654762Y31180952D01*
D13*
X37835715Y30514286D02*
X38750001Y30514286D01*
X38292858Y30057143D02*
X38292858Y30971429D01*
X39950001Y30057143D02*
X39264286Y30057143D01*
X39607144Y30057143D02*
X39607144Y31257143D01*
X39492858Y31085714D01*
X39378572Y30971429D01*
X39264286Y30914286D01*
X40407143Y31142857D02*
X40464286Y31200000D01*
X40578572Y31257143D01*
X40864286Y31257143D01*
X40978572Y31200000D01*
X41035715Y31142857D01*
X41092858Y31028571D01*
X41092858Y30914286D01*
X41035715Y30742857D01*
X40350001Y30057143D01*
X41092858Y30057143D01*
X41435715Y31257143D02*
X41835715Y30057143D01*
X42235715Y31257143D01*
X47371429Y10947619D02*
X47609524Y9947619D01*
X47800001Y10661905D01*
X47990477Y9947619D01*
X48228572Y10947619D01*
X47566667Y18447619D02*
X47900000Y17447619D01*
X48233334Y18447619D01*
X47614286Y25347619D02*
X47614286Y24538095D01*
X47661905Y24442857D01*
X47709524Y24395238D01*
X47804762Y24347619D01*
X47995239Y24347619D01*
X48090477Y24395238D01*
X48138096Y24442857D01*
X48185715Y24538095D01*
X48185715Y25347619D01*
D11*
X678571Y5761903D02*
X1326190Y5761903D01*
X1402381Y5723808D01*
X1440476Y5685713D01*
X1478571Y5609522D01*
X1478571Y5495237D01*
X1440476Y5419046D01*
X1173810Y5761903D02*
X1211905Y5685713D01*
X1211905Y5533332D01*
X1173810Y5457141D01*
X1135714Y5419046D01*
X1059524Y5380951D01*
X830952Y5380951D01*
X754762Y5419046D01*
X716667Y5457141D01*
X678571Y5533332D01*
X678571Y5685713D01*
X716667Y5761903D01*
X1211905Y6142856D02*
X678571Y6142856D01*
X411905Y6142856D02*
X450000Y6104761D01*
X488095Y6142856D01*
X450000Y6180951D01*
X411905Y6142856D01*
X488095Y6142856D01*
X678571Y6409522D02*
X678571Y6714284D01*
X411905Y6523808D02*
X1097619Y6523808D01*
X1173810Y6561903D01*
X1211905Y6638094D01*
X1211905Y6714284D01*
X1211905Y6980951D02*
X411905Y6980951D01*
X1211905Y7323808D02*
X792857Y7323808D01*
X716667Y7285713D01*
X678571Y7209523D01*
X678571Y7095237D01*
X716667Y7019046D01*
X754762Y6980951D01*
X678571Y8047618D02*
X1211905Y8047618D01*
X678571Y7704761D02*
X1097619Y7704761D01*
X1173810Y7742856D01*
X1211905Y7819047D01*
X1211905Y7933333D01*
X1173810Y8009523D01*
X1135714Y8047618D01*
X1211905Y8428571D02*
X411905Y8428571D01*
X716667Y8428571D02*
X678571Y8504762D01*
X678571Y8657143D01*
X716667Y8733333D01*
X754762Y8771428D01*
X830952Y8809524D01*
X1059524Y8809524D01*
X1135714Y8771428D01*
X1173810Y8733333D01*
X1211905Y8657143D01*
X1211905Y8504762D01*
X1173810Y8428571D01*
X1135714Y9152381D02*
X1173810Y9190476D01*
X1211905Y9152381D01*
X1173810Y9114286D01*
X1135714Y9152381D01*
X1211905Y9152381D01*
X1173810Y9876190D02*
X1211905Y9800000D01*
X1211905Y9647619D01*
X1173810Y9571428D01*
X1135714Y9533333D01*
X1059524Y9495238D01*
X830952Y9495238D01*
X754762Y9533333D01*
X716667Y9571428D01*
X678571Y9647619D01*
X678571Y9800000D01*
X716667Y9876190D01*
X1211905Y10333333D02*
X1173810Y10257142D01*
X1135714Y10219047D01*
X1059524Y10180952D01*
X830952Y10180952D01*
X754762Y10219047D01*
X716667Y10257142D01*
X678571Y10333333D01*
X678571Y10447619D01*
X716667Y10523809D01*
X754762Y10561904D01*
X830952Y10600000D01*
X1059524Y10600000D01*
X1135714Y10561904D01*
X1173810Y10523809D01*
X1211905Y10447619D01*
X1211905Y10333333D01*
X1211905Y10942857D02*
X678571Y10942857D01*
X754762Y10942857D02*
X716667Y10980952D01*
X678571Y11057143D01*
X678571Y11171429D01*
X716667Y11247619D01*
X792857Y11285714D01*
X1211905Y11285714D01*
X792857Y11285714D02*
X716667Y11323810D01*
X678571Y11400000D01*
X678571Y11514286D01*
X716667Y11590476D01*
X792857Y11628571D01*
X1211905Y11628571D01*
X373810Y12580953D02*
X1402381Y11895238D01*
X411905Y12771429D02*
X1211905Y12961905D01*
X640476Y13114286D01*
X1211905Y13266667D01*
X411905Y13457143D01*
X1211905Y14104762D02*
X792857Y14104762D01*
X716667Y14066667D01*
X678571Y13990477D01*
X678571Y13838096D01*
X716667Y13761905D01*
X1173810Y14104762D02*
X1211905Y14028572D01*
X1211905Y13838096D01*
X1173810Y13761905D01*
X1097619Y13723810D01*
X1021429Y13723810D01*
X945238Y13761905D01*
X907143Y13838096D01*
X907143Y14028572D01*
X869048Y14104762D01*
X1211905Y14485715D02*
X678571Y14485715D01*
X830952Y14485715D02*
X754762Y14523810D01*
X716667Y14561906D01*
X678571Y14638096D01*
X678571Y14714287D01*
X1211905Y14980953D02*
X678571Y14980953D01*
X754762Y14980953D02*
X716667Y15019048D01*
X678571Y15095239D01*
X678571Y15209525D01*
X716667Y15285715D01*
X792857Y15323810D01*
X1211905Y15323810D01*
X792857Y15323810D02*
X716667Y15361906D01*
X678571Y15438096D01*
X678571Y15552382D01*
X716667Y15628572D01*
X792857Y15666667D01*
X1211905Y15666667D01*
X411905Y15933334D02*
X411905Y16390477D01*
X1211905Y16161906D02*
X411905Y16161906D01*
X373810Y17228573D02*
X1402381Y16542858D01*
X792857Y17761906D02*
X830952Y17876192D01*
X869048Y17914287D01*
X945238Y17952382D01*
X1059524Y17952382D01*
X1135714Y17914287D01*
X1173810Y17876192D01*
X1211905Y17800001D01*
X1211905Y17495239D01*
X411905Y17495239D01*
X411905Y17761906D01*
X450000Y17838096D01*
X488095Y17876192D01*
X564286Y17914287D01*
X640476Y17914287D01*
X716667Y17876192D01*
X754762Y17838096D01*
X792857Y17761906D01*
X792857Y17495239D01*
X1211905Y18676192D02*
X1211905Y18295239D01*
X411905Y18295239D01*
X1211905Y18942858D02*
X411905Y18942858D01*
X411905Y19133334D01*
X450000Y19247620D01*
X526190Y19323811D01*
X602381Y19361906D01*
X754762Y19400001D01*
X869048Y19400001D01*
X1021429Y19361906D01*
X1097619Y19323811D01*
X1173810Y19247620D01*
X1211905Y19133334D01*
X1211905Y18942858D01*
X1135714Y20200001D02*
X1173810Y20161906D01*
X1211905Y20047620D01*
X1211905Y19971430D01*
X1173810Y19857144D01*
X1097619Y19780953D01*
X1021429Y19742858D01*
X869048Y19704763D01*
X754762Y19704763D01*
X602381Y19742858D01*
X526190Y19780953D01*
X450000Y19857144D01*
X411905Y19971430D01*
X411905Y20047620D01*
X450000Y20161906D01*
X488095Y20200001D01*
X907143Y20542858D02*
X907143Y21152382D01*
X1173810Y21876191D02*
X1211905Y21800001D01*
X1211905Y21647620D01*
X1173810Y21571429D01*
X1135714Y21533334D01*
X1059524Y21495239D01*
X830952Y21495239D01*
X754762Y21533334D01*
X716667Y21571429D01*
X678571Y21647620D01*
X678571Y21800001D01*
X716667Y21876191D01*
X1211905Y22333334D02*
X1173810Y22257143D01*
X1135714Y22219048D01*
X1059524Y22180953D01*
X830952Y22180953D01*
X754762Y22219048D01*
X716667Y22257143D01*
X678571Y22333334D01*
X678571Y22447620D01*
X716667Y22523810D01*
X754762Y22561905D01*
X830952Y22600001D01*
X1059524Y22600001D01*
X1135714Y22561905D01*
X1173810Y22523810D01*
X1211905Y22447620D01*
X1211905Y22333334D01*
X678571Y22942858D02*
X1211905Y22942858D01*
X754762Y22942858D02*
X716667Y22980953D01*
X678571Y23057144D01*
X678571Y23171430D01*
X716667Y23247620D01*
X792857Y23285715D01*
X1211905Y23285715D01*
X678571Y23552382D02*
X678571Y23857144D01*
X411905Y23666668D02*
X1097619Y23666668D01*
X1173810Y23704763D01*
X1211905Y23780954D01*
X1211905Y23857144D01*
X1211905Y24123811D02*
X678571Y24123811D01*
X830952Y24123811D02*
X754762Y24161906D01*
X716667Y24200002D01*
X678571Y24276192D01*
X678571Y24352383D01*
X1211905Y24733335D02*
X1173810Y24657144D01*
X1135714Y24619049D01*
X1059524Y24580954D01*
X830952Y24580954D01*
X754762Y24619049D01*
X716667Y24657144D01*
X678571Y24733335D01*
X678571Y24847621D01*
X716667Y24923811D01*
X754762Y24961906D01*
X830952Y25000002D01*
X1059524Y25000002D01*
X1135714Y24961906D01*
X1173810Y24923811D01*
X1211905Y24847621D01*
X1211905Y24733335D01*
X1211905Y25457145D02*
X1173810Y25380954D01*
X1097619Y25342859D01*
X411905Y25342859D01*
X1211905Y25876193D02*
X1173810Y25800002D01*
X1097619Y25761907D01*
X411905Y25761907D01*
X1173810Y26485717D02*
X1211905Y26409527D01*
X1211905Y26257146D01*
X1173810Y26180955D01*
X1097619Y26142860D01*
X792857Y26142860D01*
X716667Y26180955D01*
X678571Y26257146D01*
X678571Y26409527D01*
X716667Y26485717D01*
X792857Y26523812D01*
X869048Y26523812D01*
X945238Y26142860D01*
X1211905Y26866669D02*
X678571Y26866669D01*
X830952Y26866669D02*
X754762Y26904764D01*
X716667Y26942860D01*
X678571Y27019050D01*
X678571Y27095241D01*
X13970000Y26400000D02*
X18950000Y26400000D01*
X13970000Y28400000D02*
X18950000Y28400000D01*
X6350000Y28400000D02*
X6350000Y26400000D01*
X18950000Y28400000D02*
X18950000Y26400000D01*
X6350000Y28400000D02*
X13970000Y28400000D01*
X13970000Y26400000D02*
X6350000Y26400000D01*
X3200000Y8250000D02*
X3200000Y12250000D01*
X3200000Y12250000D02*
X7200000Y12250000D01*
X7200000Y12250000D02*
X7200000Y8250000D01*
X7200000Y8250000D02*
X3200000Y8250000D01*
X23950000Y18120000D02*
X23250000Y18120000D01*
X23250000Y19480000D02*
X23950000Y19480000D01*
X21600000Y27350000D02*
X21600000Y27600000D01*
X21600000Y26850000D02*
X21600000Y26600000D01*
X21600000Y26850000D02*
X21250000Y27350000D01*
X21250000Y27350000D02*
X21950000Y27350000D01*
X21950000Y27350000D02*
X21600000Y26850000D01*
X21250000Y26850000D02*
X21950000Y26850000D01*
X22400000Y25800000D02*
X22400000Y28200000D01*
X20800000Y25800000D02*
X20800000Y28200000D01*
X7700000Y15300000D02*
X8000000Y15300000D01*
X7700000Y19300000D02*
X8000000Y19300000D01*
X11100000Y19300000D02*
X10800000Y19300000D01*
X11100000Y15300000D02*
X10800000Y15300000D01*
X11100000Y19300000D02*
X11100000Y15300000D01*
X7700000Y19300000D02*
X7700000Y15300000D01*
X28950000Y23700000D02*
X29150000Y23450000D01*
X29150000Y23950000D02*
X28950000Y23700000D01*
X29300000Y24225000D02*
X28250000Y24225000D01*
X29300000Y23175000D02*
X28250000Y23175000D01*
X19650000Y4100000D02*
X19850000Y3850000D01*
X19850000Y4350000D02*
X19650000Y4100000D01*
X20000000Y4625000D02*
X18950000Y4625000D01*
X20000000Y3575000D02*
X18950000Y3575000D01*
X8499940Y8549140D02*
X8850460Y8549140D01*
X12000060Y8549140D02*
X11649540Y8549140D01*
X8499940Y4499560D02*
X8850460Y4499560D01*
X8499940Y9000440D02*
X8850460Y9000440D01*
X12000060Y9000440D02*
X11649540Y9000440D01*
X12000060Y4499560D02*
X11649540Y4499560D01*
X8499940Y9000440D02*
X8499940Y4499560D01*
X12000060Y9000440D02*
X12000060Y4499560D01*
X22300000Y23850000D02*
X22300000Y24100000D01*
X22300000Y23350000D02*
X22300000Y23100000D01*
X22300000Y23350000D02*
X21950000Y23850000D01*
X21950000Y23850000D02*
X22650000Y23850000D01*
X22650000Y23850000D02*
X22300000Y23350000D01*
X21950000Y23350000D02*
X22650000Y23350000D01*
X23100000Y22300000D02*
X23100000Y24700000D01*
X21500000Y22300000D02*
X21500000Y24700000D01*
X31850000Y26550000D02*
X32850000Y26550000D01*
X32850000Y28850000D02*
X31850000Y28850000D01*
X27750000Y15345000D02*
X27750000Y15595000D01*
X27750000Y14845000D02*
X27750000Y14595000D01*
X27750000Y14845000D02*
X27400000Y15345000D01*
X27400000Y15345000D02*
X28100000Y15345000D01*
X28100000Y15345000D02*
X27750000Y14845000D01*
X27400000Y14845000D02*
X28100000Y14845000D01*
X28550000Y13795000D02*
X28550000Y16195000D01*
X26950000Y13795000D02*
X26950000Y16195000D01*
X25750000Y6245000D02*
X25750000Y5995000D01*
X25750000Y6745000D02*
X25750000Y6995000D01*
X25750000Y6745000D02*
X26100000Y6245000D01*
X26100000Y6245000D02*
X25400000Y6245000D01*
X25400000Y6245000D02*
X25750000Y6745000D01*
X26100000Y6745000D02*
X25400000Y6745000D01*
X24950000Y7795000D02*
X24950000Y5395000D01*
X26550000Y7795000D02*
X26550000Y5395000D01*
X31850000Y12250000D02*
X32850000Y12250000D01*
X32850000Y14550000D02*
X31850000Y14550000D01*
X6500000Y8050000D02*
X5500000Y8050000D01*
X5500000Y5750000D02*
X6500000Y5750000D01*
X9000000Y9950000D02*
X10000000Y9950000D01*
X10000000Y12250000D02*
X9000000Y12250000D01*
X31850000Y19150000D02*
X32850000Y19150000D01*
X32850000Y21450000D02*
X31850000Y21450000D01*
X31850000Y2250000D02*
X32850000Y2250000D01*
X32850000Y4550000D02*
X31850000Y4550000D01*
X13970000Y28940000D02*
X21590000Y28940000D01*
X13970000Y30940000D02*
X21590000Y30940000D01*
X6350000Y30940000D02*
X6350000Y28940000D01*
X21590000Y30940000D02*
X21590000Y28940000D01*
X6350000Y30940000D02*
X13970000Y30940000D01*
X13970000Y28940000D02*
X6350000Y28940000D01*
X13970000Y1000000D02*
X18950000Y1000000D01*
X13970000Y3000000D02*
X18950000Y3000000D01*
X6350000Y3000000D02*
X6350000Y1000000D01*
X18950000Y3000000D02*
X18950000Y1000000D01*
X6350000Y3000000D02*
X13970000Y3000000D01*
X13970000Y1000000D02*
X6350000Y1000000D01*
X9200000Y12520000D02*
X8500000Y12520000D01*
X8500000Y13880000D02*
X9200000Y13880000D01*
X14070000Y20900000D02*
X14070000Y21600000D01*
X15430000Y21600000D02*
X15430000Y20900000D01*
X13430000Y11650000D02*
X13430000Y10950000D01*
X12070000Y10950000D02*
X12070000Y11650000D01*
X25550000Y15395000D02*
X24850000Y15395000D01*
X24850000Y16755000D02*
X25550000Y16755000D01*
X22270000Y12550000D02*
X22270000Y13250000D01*
X23630000Y13250000D02*
X23630000Y12550000D01*
X24300000Y24800000D02*
X24900000Y24800000D01*
X24900000Y23400000D02*
X24300000Y23400000D01*
X24300000Y23200000D02*
X24900000Y23200000D01*
X24900000Y21800000D02*
X24300000Y21800000D01*
X28150000Y18395000D02*
X28750000Y18395000D01*
X28750000Y16995000D02*
X28150000Y16995000D01*
X28160000Y20095000D02*
X28760000Y20095000D01*
X28760000Y18695000D02*
X28160000Y18695000D01*
X28200000Y6695000D02*
X28800000Y6695000D01*
X28800000Y5295000D02*
X28200000Y5295000D01*
X28200000Y8695000D02*
X28800000Y8695000D01*
X28800000Y7295000D02*
X28200000Y7295000D01*
X22900000Y31400000D02*
X23500000Y31400000D01*
X23500000Y30000000D02*
X22900000Y30000000D01*
X23700000Y27400000D02*
X24300000Y27400000D01*
X24300000Y26000000D02*
X23700000Y26000000D01*
X32300000Y24700000D02*
X32900000Y24700000D01*
X32900000Y23300000D02*
X32300000Y23300000D01*
X21750000Y7800000D02*
X21150000Y7800000D01*
X21150000Y9200000D02*
X21750000Y9200000D01*
X21300000Y10780000D02*
X22000000Y10780000D01*
X22000000Y9420000D02*
X21300000Y9420000D01*
X15400000Y8200000D02*
X14800000Y8200000D01*
X14800000Y9600000D02*
X15400000Y9600000D01*
X21800000Y4800000D02*
X22400000Y4800000D01*
X22400000Y3400000D02*
X21800000Y3400000D01*
X7400000Y18600000D02*
X7400000Y18300000D01*
X6300000Y18300000D02*
X6300000Y18600000D01*
X6300000Y16000000D02*
X6300000Y16300000D01*
X7400000Y16300000D02*
X7400000Y16000000D01*
X12330000Y16800000D02*
X12570000Y16800000D01*
X12570000Y15800000D02*
X12330000Y15800000D01*
D14*
G36*
X2649744Y21180082D02*
X2705201Y21152432D01*
X2754148Y21101520D01*
X2767629Y21082662D01*
X2782314Y21057985D01*
X2791842Y21031184D01*
X2797293Y20995413D01*
X2799747Y20943831D01*
X2800286Y20875733D01*
X2797852Y20782412D01*
X2789394Y20712343D01*
X2773174Y20660069D01*
X2747454Y20620131D01*
X2710497Y20587071D01*
X2707782Y20585114D01*
X2671360Y20565092D01*
X2627502Y20555185D01*
X2571724Y20552743D01*
X2481048Y20552743D01*
X2481010Y20464717D01*
X2480166Y20415692D01*
X2475024Y20386935D01*
X2461587Y20369689D01*
X2435858Y20355192D01*
X2429679Y20352231D01*
X2400764Y20338352D01*
X2378376Y20329586D01*
X2361729Y20328829D01*
X2350036Y20338977D01*
X2342510Y20362927D01*
X2338366Y20403574D01*
X2336815Y20463814D01*
X2337071Y20546545D01*
X2338349Y20654661D01*
X2338748Y20687000D01*
X2340185Y20798476D01*
X2341472Y20871397D01*
X2480971Y20871397D01*
X2481755Y20809501D01*
X2485240Y20769003D01*
X2493124Y20742292D01*
X2507105Y20721756D01*
X2516597Y20711740D01*
X2555404Y20682433D01*
X2589763Y20680048D01*
X2625216Y20704250D01*
X2626114Y20705143D01*
X2640539Y20723847D01*
X2649313Y20749268D01*
X2653739Y20788416D01*
X2655118Y20848303D01*
X2655143Y20861570D01*
X2651812Y20944099D01*
X2640969Y21001309D01*
X2621340Y21036234D01*
X2591650Y21051906D01*
X2574491Y21053486D01*
X2533766Y21046074D01*
X2505832Y21021670D01*
X2489017Y20977020D01*
X2481650Y20908870D01*
X2480971Y20871397D01*
X2341472Y20871397D01*
X2341708Y20884755D01*
X2343677Y20949667D01*
X2346450Y20997042D01*
X2350388Y21030710D01*
X2355849Y21054502D01*
X2363192Y21072247D01*
X2372777Y21087776D01*
X2376887Y21093619D01*
X2431405Y21148815D01*
X2500336Y21180110D01*
X2580072Y21188835D01*
X2649744Y21180082D01*
X2649744Y21180082D01*
G37*
X2649744Y21180082D02*
X2705201Y21152432D01*
X2754148Y21101520D01*
X2767629Y21082662D01*
X2782314Y21057985D01*
X2791842Y21031184D01*
X2797293Y20995413D01*
X2799747Y20943831D01*
X2800286Y20875733D01*
X2797852Y20782412D01*
X2789394Y20712343D01*
X2773174Y20660069D01*
X2747454Y20620131D01*
X2710497Y20587071D01*
X2707782Y20585114D01*
X2671360Y20565092D01*
X2627502Y20555185D01*
X2571724Y20552743D01*
X2481048Y20552743D01*
X2481010Y20464717D01*
X2480166Y20415692D01*
X2475024Y20386935D01*
X2461587Y20369689D01*
X2435858Y20355192D01*
X2429679Y20352231D01*
X2400764Y20338352D01*
X2378376Y20329586D01*
X2361729Y20328829D01*
X2350036Y20338977D01*
X2342510Y20362927D01*
X2338366Y20403574D01*
X2336815Y20463814D01*
X2337071Y20546545D01*
X2338349Y20654661D01*
X2338748Y20687000D01*
X2340185Y20798476D01*
X2341472Y20871397D01*
X2480971Y20871397D01*
X2481755Y20809501D01*
X2485240Y20769003D01*
X2493124Y20742292D01*
X2507105Y20721756D01*
X2516597Y20711740D01*
X2555404Y20682433D01*
X2589763Y20680048D01*
X2625216Y20704250D01*
X2626114Y20705143D01*
X2640539Y20723847D01*
X2649313Y20749268D01*
X2653739Y20788416D01*
X2655118Y20848303D01*
X2655143Y20861570D01*
X2651812Y20944099D01*
X2640969Y21001309D01*
X2621340Y21036234D01*
X2591650Y21051906D01*
X2574491Y21053486D01*
X2533766Y21046074D01*
X2505832Y21021670D01*
X2489017Y20977020D01*
X2481650Y20908870D01*
X2480971Y20871397D01*
X2341472Y20871397D01*
X2341708Y20884755D01*
X2343677Y20949667D01*
X2346450Y20997042D01*
X2350388Y21030710D01*
X2355849Y21054502D01*
X2363192Y21072247D01*
X2372777Y21087776D01*
X2376887Y21093619D01*
X2431405Y21148815D01*
X2500336Y21180110D01*
X2580072Y21188835D01*
X2649744Y21180082D01*
G36*
X3766093Y21172220D02*
X3812672Y21145277D01*
X3845057Y21118534D01*
X3868742Y21090516D01*
X3885059Y21056252D01*
X3895339Y21010773D01*
X3900914Y20949108D01*
X3903116Y20866289D01*
X3903371Y20806754D01*
X3903371Y20587609D01*
X3841686Y20559956D01*
X3780000Y20532303D01*
X3772743Y20772330D01*
X3769744Y20861972D01*
X3766598Y20927038D01*
X3762701Y20971974D01*
X3757447Y21001230D01*
X3750231Y21019252D01*
X3740450Y21030489D01*
X3737312Y21032921D01*
X3689761Y21051917D01*
X3641697Y21044400D01*
X3613086Y21024457D01*
X3601447Y21010325D01*
X3593391Y20991780D01*
X3588271Y20963666D01*
X3585441Y20920827D01*
X3584256Y20858105D01*
X3584057Y20792739D01*
X3584018Y20710732D01*
X3582614Y20652684D01*
X3577914Y20613535D01*
X3567987Y20588220D01*
X3550903Y20571677D01*
X3524732Y20558844D01*
X3489775Y20545509D01*
X3451596Y20530993D01*
X3456141Y20788611D01*
X3457971Y20881481D01*
X3460112Y20950111D01*
X3463181Y20999289D01*
X3467794Y21033802D01*
X3474568Y21058438D01*
X3484119Y21077984D01*
X3495634Y21095230D01*
X3551190Y21150320D01*
X3618980Y21182178D01*
X3692713Y21189809D01*
X3766093Y21172220D01*
X3766093Y21172220D01*
G37*
X3766093Y21172220D02*
X3812672Y21145277D01*
X3845057Y21118534D01*
X3868742Y21090516D01*
X3885059Y21056252D01*
X3895339Y21010773D01*
X3900914Y20949108D01*
X3903116Y20866289D01*
X3903371Y20806754D01*
X3903371Y20587609D01*
X3841686Y20559956D01*
X3780000Y20532303D01*
X3772743Y20772330D01*
X3769744Y20861972D01*
X3766598Y20927038D01*
X3762701Y20971974D01*
X3757447Y21001230D01*
X3750231Y21019252D01*
X3740450Y21030489D01*
X3737312Y21032921D01*
X3689761Y21051917D01*
X3641697Y21044400D01*
X3613086Y21024457D01*
X3601447Y21010325D01*
X3593391Y20991780D01*
X3588271Y20963666D01*
X3585441Y20920827D01*
X3584256Y20858105D01*
X3584057Y20792739D01*
X3584018Y20710732D01*
X3582614Y20652684D01*
X3577914Y20613535D01*
X3567987Y20588220D01*
X3550903Y20571677D01*
X3524732Y20558844D01*
X3489775Y20545509D01*
X3451596Y20530993D01*
X3456141Y20788611D01*
X3457971Y20881481D01*
X3460112Y20950111D01*
X3463181Y20999289D01*
X3467794Y21033802D01*
X3474568Y21058438D01*
X3484119Y21077984D01*
X3495634Y21095230D01*
X3551190Y21150320D01*
X3618980Y21182178D01*
X3692713Y21189809D01*
X3766093Y21172220D01*
G36*
X2091115Y21178038D02*
X2159145Y21142267D01*
X2209351Y21084699D01*
X2227185Y21047688D01*
X2241063Y20992118D01*
X2248167Y20921904D01*
X2248840Y20845273D01*
X2243427Y20770448D01*
X2232270Y20705658D01*
X2215714Y20659127D01*
X2210626Y20651113D01*
X2150355Y20591293D01*
X2078769Y20555465D01*
X2001092Y20544980D01*
X1922548Y20561190D01*
X1900689Y20570908D01*
X1858122Y20600857D01*
X1820763Y20640567D01*
X1817232Y20645603D01*
X1802881Y20669876D01*
X1793394Y20695822D01*
X1787790Y20729978D01*
X1785086Y20778881D01*
X1784299Y20849065D01*
X1784286Y20864800D01*
X1784322Y20869808D01*
X1929429Y20869808D01*
X1930273Y20803570D01*
X1933596Y20759614D01*
X1940583Y20731221D01*
X1952416Y20711675D01*
X1958457Y20705143D01*
X1993186Y20680320D01*
X2026903Y20681452D01*
X2060995Y20702984D01*
X2081329Y20725971D01*
X2093371Y20759522D01*
X2100134Y20812431D01*
X2100598Y20818601D01*
X2101752Y20914487D01*
X2089688Y20985701D01*
X2064570Y21031806D01*
X2026560Y21052365D01*
X2012992Y21053486D01*
X1977364Y21047848D01*
X1952994Y21028314D01*
X1938093Y20990958D01*
X1930875Y20931850D01*
X1929429Y20869808D01*
X1784322Y20869808D01*
X1784826Y20939587D01*
X1787096Y20991841D01*
X1792068Y21028051D01*
X1800713Y21054701D01*
X1814005Y21078278D01*
X1816943Y21082662D01*
X1866313Y21141751D01*
X1920109Y21176053D01*
X1985602Y21189669D01*
X2007842Y21190335D01*
X2091115Y21178038D01*
X2091115Y21178038D01*
G37*
X2091115Y21178038D02*
X2159145Y21142267D01*
X2209351Y21084699D01*
X2227185Y21047688D01*
X2241063Y20992118D01*
X2248167Y20921904D01*
X2248840Y20845273D01*
X2243427Y20770448D01*
X2232270Y20705658D01*
X2215714Y20659127D01*
X2210626Y20651113D01*
X2150355Y20591293D01*
X2078769Y20555465D01*
X2001092Y20544980D01*
X1922548Y20561190D01*
X1900689Y20570908D01*
X1858122Y20600857D01*
X1820763Y20640567D01*
X1817232Y20645603D01*
X1802881Y20669876D01*
X1793394Y20695822D01*
X1787790Y20729978D01*
X1785086Y20778881D01*
X1784299Y20849065D01*
X1784286Y20864800D01*
X1784322Y20869808D01*
X1929429Y20869808D01*
X1930273Y20803570D01*
X1933596Y20759614D01*
X1940583Y20731221D01*
X1952416Y20711675D01*
X1958457Y20705143D01*
X1993186Y20680320D01*
X2026903Y20681452D01*
X2060995Y20702984D01*
X2081329Y20725971D01*
X2093371Y20759522D01*
X2100134Y20812431D01*
X2100598Y20818601D01*
X2101752Y20914487D01*
X2089688Y20985701D01*
X2064570Y21031806D01*
X2026560Y21052365D01*
X2012992Y21053486D01*
X1977364Y21047848D01*
X1952994Y21028314D01*
X1938093Y20990958D01*
X1930875Y20931850D01*
X1929429Y20869808D01*
X1784322Y20869808D01*
X1784826Y20939587D01*
X1787096Y20991841D01*
X1792068Y21028051D01*
X1800713Y21054701D01*
X1814005Y21078278D01*
X1816943Y21082662D01*
X1866313Y21141751D01*
X1920109Y21176053D01*
X1985602Y21189669D01*
X2007842Y21190335D01*
X2091115Y21178038D01*
G36*
X3218303Y21168761D02*
X3275527Y21130265D01*
X3319749Y21074665D01*
X3346167Y21003914D01*
X3351510Y20951838D01*
X3350903Y20930107D01*
X3345822Y20913469D01*
X3331855Y20898563D01*
X3304589Y20882027D01*
X3259612Y20860502D01*
X3192511Y20830626D01*
X3192171Y20830476D01*
X3130407Y20802187D01*
X3079759Y20777067D01*
X3045404Y20757821D01*
X3032518Y20747152D01*
X3032514Y20747066D01*
X3043872Y20723834D01*
X3070431Y20698226D01*
X3100923Y20679779D01*
X3116370Y20676114D01*
X3158515Y20688788D01*
X3194808Y20720529D01*
X3212517Y20755428D01*
X3229552Y20781155D01*
X3262922Y20810454D01*
X3302149Y20835765D01*
X3336756Y20849529D01*
X3343993Y20850286D01*
X3352139Y20837840D01*
X3352630Y20806028D01*
X3346643Y20763134D01*
X3335357Y20717442D01*
X3319950Y20677239D01*
X3319171Y20675678D01*
X3272804Y20610938D01*
X3212711Y20566903D01*
X3144465Y20545289D01*
X3073638Y20547815D01*
X3005804Y20576196D01*
X3002788Y20578192D01*
X2949427Y20626552D01*
X2914340Y20689648D01*
X2894922Y20772613D01*
X2892316Y20795922D01*
X2887701Y20905945D01*
X2893233Y20957252D01*
X3032514Y20957252D01*
X3034324Y20925247D01*
X3044222Y20915907D01*
X3068898Y20922895D01*
X3107795Y20939413D01*
X3151275Y20960119D01*
X3152356Y20960667D01*
X3189209Y20980051D01*
X3204000Y20992987D01*
X3200353Y21006549D01*
X3184995Y21024368D01*
X3145923Y21050155D01*
X3103846Y21052050D01*
X3066103Y21033283D01*
X3040034Y20997085D01*
X3032514Y20957252D01*
X2893233Y20957252D01*
X2897194Y20993973D01*
X2921550Y21063788D01*
X2955456Y21112698D01*
X3016653Y21162122D01*
X3084063Y21186641D01*
X3152880Y21188203D01*
X3218303Y21168761D01*
X3218303Y21168761D01*
G37*
X3218303Y21168761D02*
X3275527Y21130265D01*
X3319749Y21074665D01*
X3346167Y21003914D01*
X3351510Y20951838D01*
X3350903Y20930107D01*
X3345822Y20913469D01*
X3331855Y20898563D01*
X3304589Y20882027D01*
X3259612Y20860502D01*
X3192511Y20830626D01*
X3192171Y20830476D01*
X3130407Y20802187D01*
X3079759Y20777067D01*
X3045404Y20757821D01*
X3032518Y20747152D01*
X3032514Y20747066D01*
X3043872Y20723834D01*
X3070431Y20698226D01*
X3100923Y20679779D01*
X3116370Y20676114D01*
X3158515Y20688788D01*
X3194808Y20720529D01*
X3212517Y20755428D01*
X3229552Y20781155D01*
X3262922Y20810454D01*
X3302149Y20835765D01*
X3336756Y20849529D01*
X3343993Y20850286D01*
X3352139Y20837840D01*
X3352630Y20806028D01*
X3346643Y20763134D01*
X3335357Y20717442D01*
X3319950Y20677239D01*
X3319171Y20675678D01*
X3272804Y20610938D01*
X3212711Y20566903D01*
X3144465Y20545289D01*
X3073638Y20547815D01*
X3005804Y20576196D01*
X3002788Y20578192D01*
X2949427Y20626552D01*
X2914340Y20689648D01*
X2894922Y20772613D01*
X2892316Y20795922D01*
X2887701Y20905945D01*
X2893233Y20957252D01*
X3032514Y20957252D01*
X3034324Y20925247D01*
X3044222Y20915907D01*
X3068898Y20922895D01*
X3107795Y20939413D01*
X3151275Y20960119D01*
X3152356Y20960667D01*
X3189209Y20980051D01*
X3204000Y20992987D01*
X3200353Y21006549D01*
X3184995Y21024368D01*
X3145923Y21050155D01*
X3103846Y21052050D01*
X3066103Y21033283D01*
X3040034Y20997085D01*
X3032514Y20957252D01*
X2893233Y20957252D01*
X2897194Y20993973D01*
X2921550Y21063788D01*
X2955456Y21112698D01*
X3016653Y21162122D01*
X3084063Y21186641D01*
X3152880Y21188203D01*
X3218303Y21168761D01*
G36*
X4425886Y21248711D02*
X4430139Y21189387D01*
X4435025Y21154428D01*
X4441795Y21139180D01*
X4451702Y21138985D01*
X4454914Y21140805D01*
X4497644Y21153985D01*
X4553227Y21153215D01*
X4609737Y21139667D01*
X4645082Y21122139D01*
X4681321Y21094139D01*
X4707813Y21062451D01*
X4725999Y21022187D01*
X4737322Y20968457D01*
X4743222Y20896374D01*
X4745143Y20801049D01*
X4745177Y20782763D01*
X4745200Y20577354D01*
X4699491Y20561420D01*
X4667027Y20550580D01*
X4649215Y20545532D01*
X4648691Y20545486D01*
X4646937Y20559172D01*
X4645444Y20596924D01*
X4644326Y20653776D01*
X4643697Y20724766D01*
X4643600Y20767927D01*
X4643398Y20853027D01*
X4642358Y20914019D01*
X4639831Y20955823D01*
X4635164Y20983358D01*
X4627707Y21001544D01*
X4616811Y21015302D01*
X4610007Y21021927D01*
X4563272Y21048625D01*
X4512272Y21050625D01*
X4466001Y21028045D01*
X4457444Y21019893D01*
X4444893Y21004564D01*
X4436188Y20986382D01*
X4430631Y20960091D01*
X4427526Y20920438D01*
X4426176Y20862168D01*
X4425886Y20781827D01*
X4425886Y20577354D01*
X4380177Y20561420D01*
X4347713Y20550580D01*
X4329901Y20545532D01*
X4329377Y20545486D01*
X4328037Y20559377D01*
X4326828Y20598561D01*
X4325801Y20659300D01*
X4325002Y20737859D01*
X4324481Y20830502D01*
X4324286Y20933491D01*
X4324286Y21330658D01*
X4371457Y21350556D01*
X4418629Y21370453D01*
X4425886Y21248711D01*
X4425886Y21248711D01*
G37*
X4425886Y21248711D02*
X4430139Y21189387D01*
X4435025Y21154428D01*
X4441795Y21139180D01*
X4451702Y21138985D01*
X4454914Y21140805D01*
X4497644Y21153985D01*
X4553227Y21153215D01*
X4609737Y21139667D01*
X4645082Y21122139D01*
X4681321Y21094139D01*
X4707813Y21062451D01*
X4725999Y21022187D01*
X4737322Y20968457D01*
X4743222Y20896374D01*
X4745143Y20801049D01*
X4745177Y20782763D01*
X4745200Y20577354D01*
X4699491Y20561420D01*
X4667027Y20550580D01*
X4649215Y20545532D01*
X4648691Y20545486D01*
X4646937Y20559172D01*
X4645444Y20596924D01*
X4644326Y20653776D01*
X4643697Y20724766D01*
X4643600Y20767927D01*
X4643398Y20853027D01*
X4642358Y20914019D01*
X4639831Y20955823D01*
X4635164Y20983358D01*
X4627707Y21001544D01*
X4616811Y21015302D01*
X4610007Y21021927D01*
X4563272Y21048625D01*
X4512272Y21050625D01*
X4466001Y21028045D01*
X4457444Y21019893D01*
X4444893Y21004564D01*
X4436188Y20986382D01*
X4430631Y20960091D01*
X4427526Y20920438D01*
X4426176Y20862168D01*
X4425886Y20781827D01*
X4425886Y20577354D01*
X4380177Y20561420D01*
X4347713Y20550580D01*
X4329901Y20545532D01*
X4329377Y20545486D01*
X4328037Y20559377D01*
X4326828Y20598561D01*
X4325801Y20659300D01*
X4325002Y20737859D01*
X4324481Y20830502D01*
X4324286Y20933491D01*
X4324286Y21330658D01*
X4371457Y21350556D01*
X4418629Y21370453D01*
X4425886Y21248711D01*
G36*
X5089744Y21149032D02*
X5146616Y21127913D01*
X5147267Y21127507D01*
X5182440Y21101620D01*
X5208407Y21071367D01*
X5226670Y21031942D01*
X5238732Y20978538D01*
X5246096Y20906349D01*
X5250264Y20810568D01*
X5250629Y20796922D01*
X5255876Y20591158D01*
X5211716Y20568322D01*
X5179763Y20552890D01*
X5160470Y20545577D01*
X5159578Y20545486D01*
X5156239Y20558978D01*
X5153587Y20595374D01*
X5151956Y20648548D01*
X5151600Y20691607D01*
X5151592Y20761359D01*
X5148403Y20805163D01*
X5137288Y20826056D01*
X5113501Y20827075D01*
X5072296Y20811259D01*
X5010086Y20782185D01*
X4964341Y20758037D01*
X4940813Y20737087D01*
X4933896Y20714253D01*
X4933886Y20713123D01*
X4945299Y20673788D01*
X4979092Y20652538D01*
X5030809Y20649461D01*
X5068061Y20649994D01*
X5087703Y20639265D01*
X5099952Y20613495D01*
X5107002Y20580663D01*
X5096842Y20562034D01*
X5093017Y20559368D01*
X5057001Y20548660D01*
X5006566Y20547144D01*
X4954626Y20554241D01*
X4917822Y20567212D01*
X4866938Y20610415D01*
X4838014Y20670554D01*
X4832286Y20717538D01*
X4836657Y20759918D01*
X4852475Y20794512D01*
X4883797Y20825237D01*
X4934678Y20856010D01*
X5009176Y20890748D01*
X5013714Y20892712D01*
X5080821Y20923713D01*
X5122232Y20949138D01*
X5139981Y20971986D01*
X5136107Y20995255D01*
X5112643Y21021944D01*
X5105627Y21028086D01*
X5058630Y21051900D01*
X5009933Y21050897D01*
X4967522Y21027549D01*
X4939384Y20984325D01*
X4936769Y20975840D01*
X4911308Y20934692D01*
X4879001Y20914872D01*
X4832286Y20895230D01*
X4832286Y20946050D01*
X4846496Y21019918D01*
X4888675Y21087673D01*
X4910624Y21110339D01*
X4960517Y21139431D01*
X5023967Y21152600D01*
X5089744Y21149032D01*
X5089744Y21149032D01*
G37*
X5089744Y21149032D02*
X5146616Y21127913D01*
X5147267Y21127507D01*
X5182440Y21101620D01*
X5208407Y21071367D01*
X5226670Y21031942D01*
X5238732Y20978538D01*
X5246096Y20906349D01*
X5250264Y20810568D01*
X5250629Y20796922D01*
X5255876Y20591158D01*
X5211716Y20568322D01*
X5179763Y20552890D01*
X5160470Y20545577D01*
X5159578Y20545486D01*
X5156239Y20558978D01*
X5153587Y20595374D01*
X5151956Y20648548D01*
X5151600Y20691607D01*
X5151592Y20761359D01*
X5148403Y20805163D01*
X5137288Y20826056D01*
X5113501Y20827075D01*
X5072296Y20811259D01*
X5010086Y20782185D01*
X4964341Y20758037D01*
X4940813Y20737087D01*
X4933896Y20714253D01*
X4933886Y20713123D01*
X4945299Y20673788D01*
X4979092Y20652538D01*
X5030809Y20649461D01*
X5068061Y20649994D01*
X5087703Y20639265D01*
X5099952Y20613495D01*
X5107002Y20580663D01*
X5096842Y20562034D01*
X5093017Y20559368D01*
X5057001Y20548660D01*
X5006566Y20547144D01*
X4954626Y20554241D01*
X4917822Y20567212D01*
X4866938Y20610415D01*
X4838014Y20670554D01*
X4832286Y20717538D01*
X4836657Y20759918D01*
X4852475Y20794512D01*
X4883797Y20825237D01*
X4934678Y20856010D01*
X5009176Y20890748D01*
X5013714Y20892712D01*
X5080821Y20923713D01*
X5122232Y20949138D01*
X5139981Y20971986D01*
X5136107Y20995255D01*
X5112643Y21021944D01*
X5105627Y21028086D01*
X5058630Y21051900D01*
X5009933Y21050897D01*
X4967522Y21027549D01*
X4939384Y20984325D01*
X4936769Y20975840D01*
X4911308Y20934692D01*
X4879001Y20914872D01*
X4832286Y20895230D01*
X4832286Y20946050D01*
X4846496Y21019918D01*
X4888675Y21087673D01*
X4910624Y21110339D01*
X4960517Y21139431D01*
X5023967Y21152600D01*
X5089744Y21149032D01*
G36*
X5579926Y21150245D02*
X5645858Y21125916D01*
X5699273Y21082883D01*
X5720164Y21052591D01*
X5742939Y20997006D01*
X5742466Y20956814D01*
X5718562Y20929783D01*
X5709717Y20925187D01*
X5671530Y20910856D01*
X5652028Y20914528D01*
X5645422Y20938593D01*
X5645086Y20951886D01*
X5632992Y21000790D01*
X5601471Y21035001D01*
X5557659Y21051524D01*
X5508695Y21047366D01*
X5468894Y21025773D01*
X5455450Y21013456D01*
X5445921Y20998513D01*
X5439485Y20975925D01*
X5435317Y20940672D01*
X5432597Y20887734D01*
X5430502Y20812093D01*
X5429960Y20788143D01*
X5427981Y20706210D01*
X5425731Y20648545D01*
X5422357Y20610392D01*
X5417006Y20586996D01*
X5408824Y20573602D01*
X5396959Y20565455D01*
X5389362Y20561856D01*
X5357102Y20549548D01*
X5338111Y20545486D01*
X5331836Y20559052D01*
X5328006Y20600066D01*
X5326600Y20669001D01*
X5327598Y20766331D01*
X5327908Y20781343D01*
X5330101Y20870141D01*
X5332693Y20934981D01*
X5336382Y20980933D01*
X5341864Y21013065D01*
X5349835Y21036447D01*
X5360993Y21056148D01*
X5366830Y21064590D01*
X5400296Y21101943D01*
X5437727Y21130997D01*
X5442309Y21133533D01*
X5509426Y21153557D01*
X5579926Y21150245D01*
X5579926Y21150245D01*
G37*
X5579926Y21150245D02*
X5645858Y21125916D01*
X5699273Y21082883D01*
X5720164Y21052591D01*
X5742939Y20997006D01*
X5742466Y20956814D01*
X5718562Y20929783D01*
X5709717Y20925187D01*
X5671530Y20910856D01*
X5652028Y20914528D01*
X5645422Y20938593D01*
X5645086Y20951886D01*
X5632992Y21000790D01*
X5601471Y21035001D01*
X5557659Y21051524D01*
X5508695Y21047366D01*
X5468894Y21025773D01*
X5455450Y21013456D01*
X5445921Y20998513D01*
X5439485Y20975925D01*
X5435317Y20940672D01*
X5432597Y20887734D01*
X5430502Y20812093D01*
X5429960Y20788143D01*
X5427981Y20706210D01*
X5425731Y20648545D01*
X5422357Y20610392D01*
X5417006Y20586996D01*
X5408824Y20573602D01*
X5396959Y20565455D01*
X5389362Y20561856D01*
X5357102Y20549548D01*
X5338111Y20545486D01*
X5331836Y20559052D01*
X5328006Y20600066D01*
X5326600Y20669001D01*
X5327598Y20766331D01*
X5327908Y20781343D01*
X5330101Y20870141D01*
X5332693Y20934981D01*
X5336382Y20980933D01*
X5341864Y21013065D01*
X5349835Y21036447D01*
X5360993Y21056148D01*
X5366830Y21064590D01*
X5400296Y21101943D01*
X5437727Y21130997D01*
X5442309Y21133533D01*
X5509426Y21153557D01*
X5579926Y21150245D01*
G36*
X6240117Y21034642D02*
X6239933Y20926163D01*
X6239219Y20842713D01*
X6237675Y20780296D01*
X6235001Y20734915D01*
X6230894Y20702571D01*
X6225055Y20679267D01*
X6217182Y20661005D01*
X6211221Y20650582D01*
X6161855Y20594055D01*
X6099264Y20558623D01*
X6030013Y20545910D01*
X5960668Y20557537D01*
X5919375Y20578432D01*
X5876025Y20614578D01*
X5846481Y20658724D01*
X5828655Y20716538D01*
X5820463Y20793687D01*
X5819302Y20850286D01*
X5819458Y20854353D01*
X5920857Y20854353D01*
X5921476Y20789450D01*
X5924314Y20746486D01*
X5930840Y20718378D01*
X5942523Y20698047D01*
X5956483Y20682712D01*
X6003365Y20653110D01*
X6053701Y20650581D01*
X6101276Y20675295D01*
X6104979Y20678644D01*
X6120783Y20696065D01*
X6130693Y20716791D01*
X6136058Y20747638D01*
X6138228Y20795423D01*
X6138571Y20848252D01*
X6137827Y20914619D01*
X6134748Y20958894D01*
X6128061Y20987991D01*
X6116496Y21008827D01*
X6107013Y21019893D01*
X6062960Y21047802D01*
X6012224Y21051157D01*
X5963796Y21029841D01*
X5954450Y21021927D01*
X5938540Y21004353D01*
X5928610Y20983413D01*
X5923278Y20952218D01*
X5921163Y20903878D01*
X5920857Y20854353D01*
X5819458Y20854353D01*
X5822810Y20941432D01*
X5834726Y21009914D01*
X5857135Y21061400D01*
X5892124Y21101557D01*
X5919375Y21122139D01*
X5968907Y21144375D01*
X6026316Y21154696D01*
X6079682Y21151933D01*
X6109543Y21140788D01*
X6121261Y21137617D01*
X6129037Y21149443D01*
X6134465Y21181134D01*
X6138571Y21229407D01*
X6143067Y21283171D01*
X6149313Y21315518D01*
X6160676Y21334015D01*
X6180528Y21346230D01*
X6193000Y21351638D01*
X6240171Y21371399D01*
X6240117Y21034642D01*
X6240117Y21034642D01*
G37*
X6240117Y21034642D02*
X6239933Y20926163D01*
X6239219Y20842713D01*
X6237675Y20780296D01*
X6235001Y20734915D01*
X6230894Y20702571D01*
X6225055Y20679267D01*
X6217182Y20661005D01*
X6211221Y20650582D01*
X6161855Y20594055D01*
X6099264Y20558623D01*
X6030013Y20545910D01*
X5960668Y20557537D01*
X5919375Y20578432D01*
X5876025Y20614578D01*
X5846481Y20658724D01*
X5828655Y20716538D01*
X5820463Y20793687D01*
X5819302Y20850286D01*
X5819458Y20854353D01*
X5920857Y20854353D01*
X5921476Y20789450D01*
X5924314Y20746486D01*
X5930840Y20718378D01*
X5942523Y20698047D01*
X5956483Y20682712D01*
X6003365Y20653110D01*
X6053701Y20650581D01*
X6101276Y20675295D01*
X6104979Y20678644D01*
X6120783Y20696065D01*
X6130693Y20716791D01*
X6136058Y20747638D01*
X6138228Y20795423D01*
X6138571Y20848252D01*
X6137827Y20914619D01*
X6134748Y20958894D01*
X6128061Y20987991D01*
X6116496Y21008827D01*
X6107013Y21019893D01*
X6062960Y21047802D01*
X6012224Y21051157D01*
X5963796Y21029841D01*
X5954450Y21021927D01*
X5938540Y21004353D01*
X5928610Y20983413D01*
X5923278Y20952218D01*
X5921163Y20903878D01*
X5920857Y20854353D01*
X5819458Y20854353D01*
X5822810Y20941432D01*
X5834726Y21009914D01*
X5857135Y21061400D01*
X5892124Y21101557D01*
X5919375Y21122139D01*
X5968907Y21144375D01*
X6026316Y21154696D01*
X6079682Y21151933D01*
X6109543Y21140788D01*
X6121261Y21137617D01*
X6129037Y21149443D01*
X6134465Y21181134D01*
X6138571Y21229407D01*
X6143067Y21283171D01*
X6149313Y21315518D01*
X6160676Y21334015D01*
X6180528Y21346230D01*
X6193000Y21351638D01*
X6240171Y21371399D01*
X6240117Y21034642D01*
G36*
X6829833Y21141337D02*
X6832048Y21103150D01*
X6833784Y21045114D01*
X6834899Y20971820D01*
X6835257Y20894945D01*
X6835257Y20634804D01*
X6789326Y20588873D01*
X6757675Y20560571D01*
X6729890Y20549107D01*
X6691915Y20549832D01*
X6676840Y20551679D01*
X6629726Y20557052D01*
X6590756Y20560131D01*
X6581257Y20560415D01*
X6549233Y20558555D01*
X6503432Y20553886D01*
X6485674Y20551679D01*
X6442057Y20548265D01*
X6412745Y20555680D01*
X6383680Y20578573D01*
X6373188Y20588873D01*
X6327257Y20634804D01*
X6327257Y21121398D01*
X6364226Y21138242D01*
X6396059Y21150718D01*
X6414683Y21155086D01*
X6419458Y21141282D01*
X6423921Y21102714D01*
X6427775Y21043644D01*
X6430722Y20968337D01*
X6432143Y20904714D01*
X6436114Y20654343D01*
X6470759Y20649444D01*
X6502268Y20652869D01*
X6517708Y20663959D01*
X6522023Y20684692D01*
X6525708Y20728855D01*
X6528469Y20790854D01*
X6530012Y20865091D01*
X6530235Y20903294D01*
X6530457Y21123217D01*
X6576166Y21139151D01*
X6608518Y21149985D01*
X6626115Y21155038D01*
X6626623Y21155086D01*
X6628388Y21141352D01*
X6630329Y21103270D01*
X6632282Y21045518D01*
X6634084Y20972773D01*
X6635343Y20904714D01*
X6639314Y20654343D01*
X6726400Y20654343D01*
X6730396Y20882760D01*
X6734392Y21111178D01*
X6776847Y21133132D01*
X6808192Y21148207D01*
X6826744Y21155049D01*
X6827279Y21155086D01*
X6829833Y21141337D01*
X6829833Y21141337D01*
G37*
X6829833Y21141337D02*
X6832048Y21103150D01*
X6833784Y21045114D01*
X6834899Y20971820D01*
X6835257Y20894945D01*
X6835257Y20634804D01*
X6789326Y20588873D01*
X6757675Y20560571D01*
X6729890Y20549107D01*
X6691915Y20549832D01*
X6676840Y20551679D01*
X6629726Y20557052D01*
X6590756Y20560131D01*
X6581257Y20560415D01*
X6549233Y20558555D01*
X6503432Y20553886D01*
X6485674Y20551679D01*
X6442057Y20548265D01*
X6412745Y20555680D01*
X6383680Y20578573D01*
X6373188Y20588873D01*
X6327257Y20634804D01*
X6327257Y21121398D01*
X6364226Y21138242D01*
X6396059Y21150718D01*
X6414683Y21155086D01*
X6419458Y21141282D01*
X6423921Y21102714D01*
X6427775Y21043644D01*
X6430722Y20968337D01*
X6432143Y20904714D01*
X6436114Y20654343D01*
X6470759Y20649444D01*
X6502268Y20652869D01*
X6517708Y20663959D01*
X6522023Y20684692D01*
X6525708Y20728855D01*
X6528469Y20790854D01*
X6530012Y20865091D01*
X6530235Y20903294D01*
X6530457Y21123217D01*
X6576166Y21139151D01*
X6608518Y21149985D01*
X6626115Y21155038D01*
X6626623Y21155086D01*
X6628388Y21141352D01*
X6630329Y21103270D01*
X6632282Y21045518D01*
X6634084Y20972773D01*
X6635343Y20904714D01*
X6639314Y20654343D01*
X6726400Y20654343D01*
X6730396Y20882760D01*
X6734392Y21111178D01*
X6776847Y21133132D01*
X6808192Y21148207D01*
X6826744Y21155049D01*
X6827279Y21155086D01*
X6829833Y21141337D01*
G36*
X7194876Y21143665D02*
X7236667Y21124656D01*
X7269469Y21101622D01*
X7293503Y21075867D01*
X7310097Y21042642D01*
X7320577Y20997200D01*
X7326271Y20934793D01*
X7328507Y20850673D01*
X7328743Y20795279D01*
X7328743Y20579174D01*
X7291774Y20562330D01*
X7262656Y20550019D01*
X7248231Y20545486D01*
X7245472Y20558975D01*
X7243282Y20595347D01*
X7241942Y20648458D01*
X7241657Y20690628D01*
X7240434Y20751553D01*
X7237136Y20799885D01*
X7232321Y20829482D01*
X7228496Y20835771D01*
X7202783Y20829348D01*
X7162418Y20812875D01*
X7115679Y20790542D01*
X7070845Y20766543D01*
X7036193Y20745070D01*
X7020002Y20730315D01*
X7019938Y20730155D01*
X7021330Y20702848D01*
X7033818Y20676781D01*
X7055743Y20655608D01*
X7087743Y20648526D01*
X7115092Y20649351D01*
X7153826Y20649958D01*
X7174158Y20640884D01*
X7186369Y20616908D01*
X7187909Y20612387D01*
X7193203Y20578194D01*
X7179047Y20557432D01*
X7142148Y20547538D01*
X7102289Y20545708D01*
X7030562Y20559273D01*
X6993432Y20578645D01*
X6947576Y20624155D01*
X6923256Y20680017D01*
X6921073Y20739043D01*
X6941629Y20794047D01*
X6972549Y20828514D01*
X7003420Y20847811D01*
X7051942Y20872241D01*
X7108485Y20897015D01*
X7117910Y20900801D01*
X7180019Y20928209D01*
X7215822Y20952366D01*
X7227337Y20976381D01*
X7216580Y21003365D01*
X7198114Y21024457D01*
X7154469Y21050428D01*
X7106446Y21052376D01*
X7062406Y21032363D01*
X7030709Y20992449D01*
X7026549Y20982152D01*
X7002327Y20944276D01*
X6966965Y20916158D01*
X6922343Y20893083D01*
X6922343Y20958515D01*
X6924969Y20998494D01*
X6936230Y21030003D01*
X6961199Y21063622D01*
X6985169Y21089516D01*
X7022441Y21126183D01*
X7051401Y21145879D01*
X7082505Y21153780D01*
X7117713Y21155086D01*
X7194876Y21143665D01*
X7194876Y21143665D01*
G37*
X7194876Y21143665D02*
X7236667Y21124656D01*
X7269469Y21101622D01*
X7293503Y21075867D01*
X7310097Y21042642D01*
X7320577Y20997200D01*
X7326271Y20934793D01*
X7328507Y20850673D01*
X7328743Y20795279D01*
X7328743Y20579174D01*
X7291774Y20562330D01*
X7262656Y20550019D01*
X7248231Y20545486D01*
X7245472Y20558975D01*
X7243282Y20595347D01*
X7241942Y20648458D01*
X7241657Y20690628D01*
X7240434Y20751553D01*
X7237136Y20799885D01*
X7232321Y20829482D01*
X7228496Y20835771D01*
X7202783Y20829348D01*
X7162418Y20812875D01*
X7115679Y20790542D01*
X7070845Y20766543D01*
X7036193Y20745070D01*
X7020002Y20730315D01*
X7019938Y20730155D01*
X7021330Y20702848D01*
X7033818Y20676781D01*
X7055743Y20655608D01*
X7087743Y20648526D01*
X7115092Y20649351D01*
X7153826Y20649958D01*
X7174158Y20640884D01*
X7186369Y20616908D01*
X7187909Y20612387D01*
X7193203Y20578194D01*
X7179047Y20557432D01*
X7142148Y20547538D01*
X7102289Y20545708D01*
X7030562Y20559273D01*
X6993432Y20578645D01*
X6947576Y20624155D01*
X6923256Y20680017D01*
X6921073Y20739043D01*
X6941629Y20794047D01*
X6972549Y20828514D01*
X7003420Y20847811D01*
X7051942Y20872241D01*
X7108485Y20897015D01*
X7117910Y20900801D01*
X7180019Y20928209D01*
X7215822Y20952366D01*
X7227337Y20976381D01*
X7216580Y21003365D01*
X7198114Y21024457D01*
X7154469Y21050428D01*
X7106446Y21052376D01*
X7062406Y21032363D01*
X7030709Y20992449D01*
X7026549Y20982152D01*
X7002327Y20944276D01*
X6966965Y20916158D01*
X6922343Y20893083D01*
X6922343Y20958515D01*
X6924969Y20998494D01*
X6936230Y21030003D01*
X6961199Y21063622D01*
X6985169Y21089516D01*
X7022441Y21126183D01*
X7051401Y21145879D01*
X7082505Y21153780D01*
X7117713Y21155086D01*
X7194876Y21143665D01*
G36*
X7702600Y21141248D02*
X7719948Y21133666D01*
X7761356Y21100872D01*
X7796765Y21053453D01*
X7818664Y21002849D01*
X7822229Y20977902D01*
X7810279Y20943073D01*
X7784067Y20924643D01*
X7755964Y20913484D01*
X7743095Y20911428D01*
X7736829Y20926351D01*
X7724456Y20958825D01*
X7719028Y20973498D01*
X7688590Y21024256D01*
X7644520Y21049573D01*
X7588010Y21048794D01*
X7583825Y21047797D01*
X7553655Y21033493D01*
X7531476Y21005607D01*
X7516327Y20960713D01*
X7507250Y20895385D01*
X7503286Y20806196D01*
X7502914Y20758739D01*
X7502730Y20683929D01*
X7501522Y20632931D01*
X7498309Y20600529D01*
X7492109Y20581505D01*
X7481940Y20570644D01*
X7466819Y20562728D01*
X7465946Y20562330D01*
X7436828Y20550019D01*
X7422403Y20545486D01*
X7420186Y20559191D01*
X7418289Y20597075D01*
X7416847Y20654285D01*
X7415998Y20725973D01*
X7415829Y20778435D01*
X7416692Y20879953D01*
X7420070Y20956968D01*
X7427142Y21013977D01*
X7439088Y21055474D01*
X7457090Y21085957D01*
X7482327Y21109920D01*
X7507247Y21126645D01*
X7567171Y21148903D01*
X7636911Y21153924D01*
X7702600Y21141248D01*
X7702600Y21141248D01*
G37*
X7702600Y21141248D02*
X7719948Y21133666D01*
X7761356Y21100872D01*
X7796765Y21053453D01*
X7818664Y21002849D01*
X7822229Y20977902D01*
X7810279Y20943073D01*
X7784067Y20924643D01*
X7755964Y20913484D01*
X7743095Y20911428D01*
X7736829Y20926351D01*
X7724456Y20958825D01*
X7719028Y20973498D01*
X7688590Y21024256D01*
X7644520Y21049573D01*
X7588010Y21048794D01*
X7583825Y21047797D01*
X7553655Y21033493D01*
X7531476Y21005607D01*
X7516327Y20960713D01*
X7507250Y20895385D01*
X7503286Y20806196D01*
X7502914Y20758739D01*
X7502730Y20683929D01*
X7501522Y20632931D01*
X7498309Y20600529D01*
X7492109Y20581505D01*
X7481940Y20570644D01*
X7466819Y20562728D01*
X7465946Y20562330D01*
X7436828Y20550019D01*
X7422403Y20545486D01*
X7420186Y20559191D01*
X7418289Y20597075D01*
X7416847Y20654285D01*
X7415998Y20725973D01*
X7415829Y20778435D01*
X7416692Y20879953D01*
X7420070Y20956968D01*
X7427142Y21013977D01*
X7439088Y21055474D01*
X7457090Y21085957D01*
X7482327Y21109920D01*
X7507247Y21126645D01*
X7567171Y21148903D01*
X7636911Y21153924D01*
X7702600Y21141248D01*
G36*
X8203595Y21133034D02*
X8261021Y21095503D01*
X8288719Y21061904D01*
X8310662Y21000936D01*
X8312405Y20952692D01*
X8308457Y20888184D01*
X8159686Y20823066D01*
X8087349Y20789798D01*
X8040084Y20763036D01*
X8015507Y20739856D01*
X8011237Y20717333D01*
X8024889Y20692545D01*
X8039943Y20676114D01*
X8083746Y20649765D01*
X8131389Y20647919D01*
X8175145Y20668454D01*
X8207289Y20709248D01*
X8213038Y20723653D01*
X8240576Y20768644D01*
X8272258Y20787818D01*
X8315714Y20804221D01*
X8315714Y20742034D01*
X8311872Y20699717D01*
X8296823Y20664031D01*
X8265280Y20623057D01*
X8260592Y20617733D01*
X8225506Y20581280D01*
X8195347Y20561717D01*
X8157615Y20552717D01*
X8126335Y20549770D01*
X8070385Y20549035D01*
X8030555Y20558340D01*
X8005708Y20572154D01*
X7966656Y20602533D01*
X7939625Y20635387D01*
X7922517Y20676706D01*
X7913238Y20732479D01*
X7909693Y20808695D01*
X7909410Y20847378D01*
X7910372Y20893753D01*
X7998007Y20893753D01*
X7999023Y20868874D01*
X8001556Y20864800D01*
X8018274Y20870335D01*
X8054249Y20884983D01*
X8102331Y20905810D01*
X8112386Y20910286D01*
X8173152Y20941186D01*
X8206632Y20968343D01*
X8213990Y20993780D01*
X8196391Y21019519D01*
X8181856Y21030891D01*
X8129410Y21053636D01*
X8080322Y21049878D01*
X8039227Y21022116D01*
X8010758Y20972848D01*
X8001631Y20933743D01*
X7998007Y20893753D01*
X7910372Y20893753D01*
X7911285Y20937751D01*
X7918196Y21004616D01*
X7931884Y21053305D01*
X7954096Y21089151D01*
X7986574Y21117487D01*
X8000733Y21126645D01*
X8065053Y21150493D01*
X8135473Y21151994D01*
X8203595Y21133034D01*
X8203595Y21133034D01*
G37*
X8203595Y21133034D02*
X8261021Y21095503D01*
X8288719Y21061904D01*
X8310662Y21000936D01*
X8312405Y20952692D01*
X8308457Y20888184D01*
X8159686Y20823066D01*
X8087349Y20789798D01*
X8040084Y20763036D01*
X8015507Y20739856D01*
X8011237Y20717333D01*
X8024889Y20692545D01*
X8039943Y20676114D01*
X8083746Y20649765D01*
X8131389Y20647919D01*
X8175145Y20668454D01*
X8207289Y20709248D01*
X8213038Y20723653D01*
X8240576Y20768644D01*
X8272258Y20787818D01*
X8315714Y20804221D01*
X8315714Y20742034D01*
X8311872Y20699717D01*
X8296823Y20664031D01*
X8265280Y20623057D01*
X8260592Y20617733D01*
X8225506Y20581280D01*
X8195347Y20561717D01*
X8157615Y20552717D01*
X8126335Y20549770D01*
X8070385Y20549035D01*
X8030555Y20558340D01*
X8005708Y20572154D01*
X7966656Y20602533D01*
X7939625Y20635387D01*
X7922517Y20676706D01*
X7913238Y20732479D01*
X7909693Y20808695D01*
X7909410Y20847378D01*
X7910372Y20893753D01*
X7998007Y20893753D01*
X7999023Y20868874D01*
X8001556Y20864800D01*
X8018274Y20870335D01*
X8054249Y20884983D01*
X8102331Y20905810D01*
X8112386Y20910286D01*
X8173152Y20941186D01*
X8206632Y20968343D01*
X8213990Y20993780D01*
X8196391Y21019519D01*
X8181856Y21030891D01*
X8129410Y21053636D01*
X8080322Y21049878D01*
X8039227Y21022116D01*
X8010758Y20972848D01*
X8001631Y20933743D01*
X7998007Y20893753D01*
X7910372Y20893753D01*
X7911285Y20937751D01*
X7918196Y21004616D01*
X7931884Y21053305D01*
X7954096Y21089151D01*
X7986574Y21117487D01*
X8000733Y21126645D01*
X8065053Y21150493D01*
X8135473Y21151994D01*
X8203595Y21133034D01*
G36*
X5153910Y25857652D02*
X5232454Y25857222D01*
X5289298Y25856058D01*
X5328105Y25853793D01*
X5352538Y25850060D01*
X5366262Y25844494D01*
X5372940Y25836727D01*
X5376236Y25826395D01*
X5376556Y25825057D01*
X5381562Y25800921D01*
X5390829Y25753299D01*
X5403392Y25687259D01*
X5418287Y25607872D01*
X5434551Y25520204D01*
X5435119Y25517125D01*
X5451410Y25431211D01*
X5466652Y25355304D01*
X5479861Y25293955D01*
X5490054Y25251718D01*
X5496248Y25233145D01*
X5496543Y25232816D01*
X5514788Y25223747D01*
X5552405Y25208633D01*
X5601271Y25190738D01*
X5601543Y25190642D01*
X5663093Y25167507D01*
X5735657Y25138035D01*
X5804057Y25108403D01*
X5807294Y25106938D01*
X5918702Y25056374D01*
X6165399Y25224840D01*
X6241077Y25276197D01*
X6309631Y25322111D01*
X6367088Y25359970D01*
X6409476Y25387163D01*
X6432825Y25401079D01*
X6435042Y25402111D01*
X6452010Y25397516D01*
X6483701Y25375345D01*
X6531352Y25334553D01*
X6596198Y25274095D01*
X6662397Y25209773D01*
X6726214Y25146388D01*
X6783329Y25088549D01*
X6830305Y25039825D01*
X6863703Y25003790D01*
X6880085Y24984016D01*
X6880694Y24982998D01*
X6882505Y24969428D01*
X6875683Y24947267D01*
X6858540Y24913522D01*
X6829393Y24865200D01*
X6786555Y24799308D01*
X6729448Y24714483D01*
X6678766Y24639823D01*
X6633461Y24572860D01*
X6596150Y24517484D01*
X6569452Y24477580D01*
X6555985Y24457038D01*
X6555137Y24455644D01*
X6556781Y24435962D01*
X6569245Y24397707D01*
X6590048Y24348111D01*
X6597462Y24332272D01*
X6629814Y24261710D01*
X6664328Y24181647D01*
X6692365Y24112371D01*
X6712568Y24060955D01*
X6728615Y24021881D01*
X6737888Y24001459D01*
X6739041Y23999886D01*
X6756096Y23997279D01*
X6796298Y23990137D01*
X6854302Y23979477D01*
X6924763Y23966315D01*
X7002335Y23951667D01*
X7081672Y23936551D01*
X7157431Y23921982D01*
X7224264Y23908978D01*
X7276828Y23898555D01*
X7309776Y23891730D01*
X7317857Y23889801D01*
X7326205Y23885038D01*
X7332506Y23874282D01*
X7337045Y23853902D01*
X7340104Y23820266D01*
X7341967Y23769745D01*
X7342918Y23698708D01*
X7343240Y23603524D01*
X7343257Y23564508D01*
X7343257Y23247201D01*
X7267057Y23232161D01*
X7224663Y23224005D01*
X7161400Y23212101D01*
X7084962Y23197884D01*
X7003043Y23182790D01*
X6980400Y23178645D01*
X6904806Y23163947D01*
X6838953Y23149495D01*
X6788366Y23136625D01*
X6758574Y23126678D01*
X6753612Y23123713D01*
X6741426Y23102717D01*
X6723953Y23062033D01*
X6704577Y23009678D01*
X6700734Y22998400D01*
X6675339Y22928477D01*
X6643817Y22849582D01*
X6612969Y22778734D01*
X6612817Y22778405D01*
X6561447Y22667267D01*
X6730399Y22418747D01*
X6899352Y22170228D01*
X6682429Y21952942D01*
X6616819Y21888274D01*
X6556979Y21831267D01*
X6506267Y21784967D01*
X6468046Y21752416D01*
X6445675Y21736657D01*
X6442466Y21735657D01*
X6423626Y21743531D01*
X6385180Y21765422D01*
X6331330Y21798733D01*
X6266276Y21840869D01*
X6195940Y21888057D01*
X6124555Y21936190D01*
X6060908Y21978072D01*
X6009041Y22011129D01*
X5972995Y22032782D01*
X5956867Y22040457D01*
X5937189Y22033963D01*
X5899875Y22016850D01*
X5852621Y21992674D01*
X5847612Y21989987D01*
X5783977Y21958073D01*
X5740341Y21942421D01*
X5713202Y21942255D01*
X5699057Y21956796D01*
X5698975Y21957000D01*
X5691905Y21974221D01*
X5675042Y22015101D01*
X5649695Y22076475D01*
X5617171Y22155181D01*
X5578778Y22248053D01*
X5535822Y22351928D01*
X5494222Y22452498D01*
X5448504Y22563484D01*
X5406526Y22666297D01*
X5369548Y22757785D01*
X5338827Y22834799D01*
X5315622Y22894185D01*
X5301190Y22932791D01*
X5296743Y22947200D01*
X5307896Y22963728D01*
X5337069Y22990070D01*
X5375971Y23019113D01*
X5486757Y23110961D01*
X5573351Y23216241D01*
X5634716Y23332734D01*
X5669815Y23458224D01*
X5677608Y23590493D01*
X5671943Y23651543D01*
X5641078Y23778205D01*
X5587920Y23890059D01*
X5515767Y23985999D01*
X5427917Y24064924D01*
X5327665Y24125730D01*
X5218310Y24167313D01*
X5103147Y24188572D01*
X4985475Y24188401D01*
X4868590Y24165699D01*
X4755789Y24119362D01*
X4650369Y24048287D01*
X4606368Y24008089D01*
X4521979Y23904871D01*
X4463222Y23792075D01*
X4429704Y23672990D01*
X4421035Y23550905D01*
X4436823Y23429107D01*
X4476678Y23310884D01*
X4540207Y23199525D01*
X4627021Y23098316D01*
X4724029Y23019113D01*
X4764437Y22988838D01*
X4792982Y22962781D01*
X4803257Y22947175D01*
X4797877Y22930157D01*
X4782575Y22889500D01*
X4758612Y22828358D01*
X4727244Y22749881D01*
X4689732Y22657220D01*
X4647333Y22553528D01*
X4605663Y22452474D01*
X4559690Y22341393D01*
X4517107Y22238459D01*
X4479221Y22146835D01*
X4447340Y22069684D01*
X4422771Y22010169D01*
X4406820Y21971456D01*
X4400910Y21957000D01*
X4386948Y21942315D01*
X4359940Y21942358D01*
X4316413Y21957901D01*
X4252890Y21989716D01*
X4252388Y21989987D01*
X4204560Y22014677D01*
X4165897Y22032662D01*
X4144095Y22040386D01*
X4143133Y22040457D01*
X4126721Y22032622D01*
X4090487Y22010835D01*
X4038474Y21977672D01*
X3974725Y21935709D01*
X3904060Y21888057D01*
X3832116Y21839809D01*
X3767274Y21797849D01*
X3713735Y21764773D01*
X3675697Y21743179D01*
X3657533Y21735657D01*
X3640808Y21745543D01*
X3607180Y21773174D01*
X3560010Y21815505D01*
X3502658Y21869495D01*
X3438484Y21932101D01*
X3417497Y21953017D01*
X3200499Y22170377D01*
X3365668Y22412780D01*
X3415864Y22487219D01*
X3459919Y22554028D01*
X3495362Y22609335D01*
X3519719Y22649271D01*
X3530522Y22669964D01*
X3530838Y22671437D01*
X3525143Y22690942D01*
X3509826Y22730178D01*
X3487537Y22782570D01*
X3471893Y22817645D01*
X3442641Y22884799D01*
X3415094Y22952642D01*
X3393737Y23009966D01*
X3387935Y23027428D01*
X3371452Y23074062D01*
X3355340Y23110095D01*
X3346490Y23123713D01*
X3326960Y23132048D01*
X3284334Y23143863D01*
X3224145Y23157819D01*
X3151922Y23172578D01*
X3119600Y23178645D01*
X3037522Y23193727D01*
X2958795Y23208331D01*
X2891109Y23221020D01*
X2842160Y23230358D01*
X2832943Y23232161D01*
X2756743Y23247201D01*
X2756743Y23564508D01*
X2756914Y23668846D01*
X2757616Y23747787D01*
X2759134Y23804962D01*
X2761749Y23844001D01*
X2765746Y23868535D01*
X2771409Y23882195D01*
X2779020Y23888611D01*
X2782143Y23889801D01*
X2800978Y23894020D01*
X2842588Y23902438D01*
X2901630Y23914039D01*
X2972757Y23927805D01*
X3050625Y23942720D01*
X3129887Y23957768D01*
X3205198Y23971931D01*
X3271213Y23984194D01*
X3322587Y23993539D01*
X3353975Y23998950D01*
X3360959Y23999886D01*
X3367285Y24012404D01*
X3381290Y24045754D01*
X3400355Y24093623D01*
X3407634Y24112371D01*
X3436996Y24184805D01*
X3471571Y24264830D01*
X3502537Y24332272D01*
X3525323Y24383841D01*
X3540482Y24426215D01*
X3545542Y24452166D01*
X3544736Y24455644D01*
X3534041Y24472064D01*
X3509620Y24508583D01*
X3474095Y24561313D01*
X3430087Y24626365D01*
X3380217Y24699849D01*
X3370356Y24714355D01*
X3312492Y24800296D01*
X3269956Y24865739D01*
X3241054Y24913696D01*
X3224090Y24947180D01*
X3217367Y24969205D01*
X3219190Y24982783D01*
X3219236Y24982869D01*
X3233586Y25000703D01*
X3265323Y25035183D01*
X3311010Y25082732D01*
X3367204Y25139778D01*
X3430468Y25202745D01*
X3437602Y25209773D01*
X3517330Y25286980D01*
X3578857Y25343670D01*
X3623421Y25380890D01*
X3652257Y25399685D01*
X3664958Y25402111D01*
X3683494Y25391529D01*
X3721961Y25367084D01*
X3776386Y25331388D01*
X3842798Y25287053D01*
X3917225Y25236689D01*
X3934601Y25224840D01*
X4181297Y25056374D01*
X4292706Y25106938D01*
X4360457Y25136405D01*
X4433183Y25166041D01*
X4495703Y25189670D01*
X4498457Y25190642D01*
X4547360Y25208543D01*
X4585057Y25223680D01*
X4603425Y25232790D01*
X4603456Y25232816D01*
X4609285Y25249283D01*
X4619192Y25289781D01*
X4632195Y25349758D01*
X4647309Y25424660D01*
X4663552Y25509936D01*
X4664881Y25517125D01*
X4681175Y25604986D01*
X4696133Y25684740D01*
X4708791Y25751319D01*
X4718186Y25799653D01*
X4723354Y25824675D01*
X4723444Y25825057D01*
X4726589Y25835701D01*
X4732704Y25843738D01*
X4745453Y25849533D01*
X4768500Y25853453D01*
X4805509Y25855865D01*
X4860144Y25857135D01*
X4936067Y25857629D01*
X5036944Y25857714D01*
X5050000Y25857714D01*
X5153910Y25857652D01*
X5153910Y25857652D01*
G37*
X5153910Y25857652D02*
X5232454Y25857222D01*
X5289298Y25856058D01*
X5328105Y25853793D01*
X5352538Y25850060D01*
X5366262Y25844494D01*
X5372940Y25836727D01*
X5376236Y25826395D01*
X5376556Y25825057D01*
X5381562Y25800921D01*
X5390829Y25753299D01*
X5403392Y25687259D01*
X5418287Y25607872D01*
X5434551Y25520204D01*
X5435119Y25517125D01*
X5451410Y25431211D01*
X5466652Y25355304D01*
X5479861Y25293955D01*
X5490054Y25251718D01*
X5496248Y25233145D01*
X5496543Y25232816D01*
X5514788Y25223747D01*
X5552405Y25208633D01*
X5601271Y25190738D01*
X5601543Y25190642D01*
X5663093Y25167507D01*
X5735657Y25138035D01*
X5804057Y25108403D01*
X5807294Y25106938D01*
X5918702Y25056374D01*
X6165399Y25224840D01*
X6241077Y25276197D01*
X6309631Y25322111D01*
X6367088Y25359970D01*
X6409476Y25387163D01*
X6432825Y25401079D01*
X6435042Y25402111D01*
X6452010Y25397516D01*
X6483701Y25375345D01*
X6531352Y25334553D01*
X6596198Y25274095D01*
X6662397Y25209773D01*
X6726214Y25146388D01*
X6783329Y25088549D01*
X6830305Y25039825D01*
X6863703Y25003790D01*
X6880085Y24984016D01*
X6880694Y24982998D01*
X6882505Y24969428D01*
X6875683Y24947267D01*
X6858540Y24913522D01*
X6829393Y24865200D01*
X6786555Y24799308D01*
X6729448Y24714483D01*
X6678766Y24639823D01*
X6633461Y24572860D01*
X6596150Y24517484D01*
X6569452Y24477580D01*
X6555985Y24457038D01*
X6555137Y24455644D01*
X6556781Y24435962D01*
X6569245Y24397707D01*
X6590048Y24348111D01*
X6597462Y24332272D01*
X6629814Y24261710D01*
X6664328Y24181647D01*
X6692365Y24112371D01*
X6712568Y24060955D01*
X6728615Y24021881D01*
X6737888Y24001459D01*
X6739041Y23999886D01*
X6756096Y23997279D01*
X6796298Y23990137D01*
X6854302Y23979477D01*
X6924763Y23966315D01*
X7002335Y23951667D01*
X7081672Y23936551D01*
X7157431Y23921982D01*
X7224264Y23908978D01*
X7276828Y23898555D01*
X7309776Y23891730D01*
X7317857Y23889801D01*
X7326205Y23885038D01*
X7332506Y23874282D01*
X7337045Y23853902D01*
X7340104Y23820266D01*
X7341967Y23769745D01*
X7342918Y23698708D01*
X7343240Y23603524D01*
X7343257Y23564508D01*
X7343257Y23247201D01*
X7267057Y23232161D01*
X7224663Y23224005D01*
X7161400Y23212101D01*
X7084962Y23197884D01*
X7003043Y23182790D01*
X6980400Y23178645D01*
X6904806Y23163947D01*
X6838953Y23149495D01*
X6788366Y23136625D01*
X6758574Y23126678D01*
X6753612Y23123713D01*
X6741426Y23102717D01*
X6723953Y23062033D01*
X6704577Y23009678D01*
X6700734Y22998400D01*
X6675339Y22928477D01*
X6643817Y22849582D01*
X6612969Y22778734D01*
X6612817Y22778405D01*
X6561447Y22667267D01*
X6730399Y22418747D01*
X6899352Y22170228D01*
X6682429Y21952942D01*
X6616819Y21888274D01*
X6556979Y21831267D01*
X6506267Y21784967D01*
X6468046Y21752416D01*
X6445675Y21736657D01*
X6442466Y21735657D01*
X6423626Y21743531D01*
X6385180Y21765422D01*
X6331330Y21798733D01*
X6266276Y21840869D01*
X6195940Y21888057D01*
X6124555Y21936190D01*
X6060908Y21978072D01*
X6009041Y22011129D01*
X5972995Y22032782D01*
X5956867Y22040457D01*
X5937189Y22033963D01*
X5899875Y22016850D01*
X5852621Y21992674D01*
X5847612Y21989987D01*
X5783977Y21958073D01*
X5740341Y21942421D01*
X5713202Y21942255D01*
X5699057Y21956796D01*
X5698975Y21957000D01*
X5691905Y21974221D01*
X5675042Y22015101D01*
X5649695Y22076475D01*
X5617171Y22155181D01*
X5578778Y22248053D01*
X5535822Y22351928D01*
X5494222Y22452498D01*
X5448504Y22563484D01*
X5406526Y22666297D01*
X5369548Y22757785D01*
X5338827Y22834799D01*
X5315622Y22894185D01*
X5301190Y22932791D01*
X5296743Y22947200D01*
X5307896Y22963728D01*
X5337069Y22990070D01*
X5375971Y23019113D01*
X5486757Y23110961D01*
X5573351Y23216241D01*
X5634716Y23332734D01*
X5669815Y23458224D01*
X5677608Y23590493D01*
X5671943Y23651543D01*
X5641078Y23778205D01*
X5587920Y23890059D01*
X5515767Y23985999D01*
X5427917Y24064924D01*
X5327665Y24125730D01*
X5218310Y24167313D01*
X5103147Y24188572D01*
X4985475Y24188401D01*
X4868590Y24165699D01*
X4755789Y24119362D01*
X4650369Y24048287D01*
X4606368Y24008089D01*
X4521979Y23904871D01*
X4463222Y23792075D01*
X4429704Y23672990D01*
X4421035Y23550905D01*
X4436823Y23429107D01*
X4476678Y23310884D01*
X4540207Y23199525D01*
X4627021Y23098316D01*
X4724029Y23019113D01*
X4764437Y22988838D01*
X4792982Y22962781D01*
X4803257Y22947175D01*
X4797877Y22930157D01*
X4782575Y22889500D01*
X4758612Y22828358D01*
X4727244Y22749881D01*
X4689732Y22657220D01*
X4647333Y22553528D01*
X4605663Y22452474D01*
X4559690Y22341393D01*
X4517107Y22238459D01*
X4479221Y22146835D01*
X4447340Y22069684D01*
X4422771Y22010169D01*
X4406820Y21971456D01*
X4400910Y21957000D01*
X4386948Y21942315D01*
X4359940Y21942358D01*
X4316413Y21957901D01*
X4252890Y21989716D01*
X4252388Y21989987D01*
X4204560Y22014677D01*
X4165897Y22032662D01*
X4144095Y22040386D01*
X4143133Y22040457D01*
X4126721Y22032622D01*
X4090487Y22010835D01*
X4038474Y21977672D01*
X3974725Y21935709D01*
X3904060Y21888057D01*
X3832116Y21839809D01*
X3767274Y21797849D01*
X3713735Y21764773D01*
X3675697Y21743179D01*
X3657533Y21735657D01*
X3640808Y21745543D01*
X3607180Y21773174D01*
X3560010Y21815505D01*
X3502658Y21869495D01*
X3438484Y21932101D01*
X3417497Y21953017D01*
X3200499Y22170377D01*
X3365668Y22412780D01*
X3415864Y22487219D01*
X3459919Y22554028D01*
X3495362Y22609335D01*
X3519719Y22649271D01*
X3530522Y22669964D01*
X3530838Y22671437D01*
X3525143Y22690942D01*
X3509826Y22730178D01*
X3487537Y22782570D01*
X3471893Y22817645D01*
X3442641Y22884799D01*
X3415094Y22952642D01*
X3393737Y23009966D01*
X3387935Y23027428D01*
X3371452Y23074062D01*
X3355340Y23110095D01*
X3346490Y23123713D01*
X3326960Y23132048D01*
X3284334Y23143863D01*
X3224145Y23157819D01*
X3151922Y23172578D01*
X3119600Y23178645D01*
X3037522Y23193727D01*
X2958795Y23208331D01*
X2891109Y23221020D01*
X2842160Y23230358D01*
X2832943Y23232161D01*
X2756743Y23247201D01*
X2756743Y23564508D01*
X2756914Y23668846D01*
X2757616Y23747787D01*
X2759134Y23804962D01*
X2761749Y23844001D01*
X2765746Y23868535D01*
X2771409Y23882195D01*
X2779020Y23888611D01*
X2782143Y23889801D01*
X2800978Y23894020D01*
X2842588Y23902438D01*
X2901630Y23914039D01*
X2972757Y23927805D01*
X3050625Y23942720D01*
X3129887Y23957768D01*
X3205198Y23971931D01*
X3271213Y23984194D01*
X3322587Y23993539D01*
X3353975Y23998950D01*
X3360959Y23999886D01*
X3367285Y24012404D01*
X3381290Y24045754D01*
X3400355Y24093623D01*
X3407634Y24112371D01*
X3436996Y24184805D01*
X3471571Y24264830D01*
X3502537Y24332272D01*
X3525323Y24383841D01*
X3540482Y24426215D01*
X3545542Y24452166D01*
X3544736Y24455644D01*
X3534041Y24472064D01*
X3509620Y24508583D01*
X3474095Y24561313D01*
X3430087Y24626365D01*
X3380217Y24699849D01*
X3370356Y24714355D01*
X3312492Y24800296D01*
X3269956Y24865739D01*
X3241054Y24913696D01*
X3224090Y24947180D01*
X3217367Y24969205D01*
X3219190Y24982783D01*
X3219236Y24982869D01*
X3233586Y25000703D01*
X3265323Y25035183D01*
X3311010Y25082732D01*
X3367204Y25139778D01*
X3430468Y25202745D01*
X3437602Y25209773D01*
X3517330Y25286980D01*
X3578857Y25343670D01*
X3623421Y25380890D01*
X3652257Y25399685D01*
X3664958Y25402111D01*
X3683494Y25391529D01*
X3721961Y25367084D01*
X3776386Y25331388D01*
X3842798Y25287053D01*
X3917225Y25236689D01*
X3934601Y25224840D01*
X4181297Y25056374D01*
X4292706Y25106938D01*
X4360457Y25136405D01*
X4433183Y25166041D01*
X4495703Y25189670D01*
X4498457Y25190642D01*
X4547360Y25208543D01*
X4585057Y25223680D01*
X4603425Y25232790D01*
X4603456Y25232816D01*
X4609285Y25249283D01*
X4619192Y25289781D01*
X4632195Y25349758D01*
X4647309Y25424660D01*
X4663552Y25509936D01*
X4664881Y25517125D01*
X4681175Y25604986D01*
X4696133Y25684740D01*
X4708791Y25751319D01*
X4718186Y25799653D01*
X4723354Y25824675D01*
X4723444Y25825057D01*
X4726589Y25835701D01*
X4732704Y25843738D01*
X4745453Y25849533D01*
X4768500Y25853453D01*
X4805509Y25855865D01*
X4860144Y25857135D01*
X4936067Y25857629D01*
X5036944Y25857714D01*
X5050000Y25857714D01*
X5153910Y25857652D01*
D11*
X13300000Y7950000D02*
X13900000Y7950000D01*
X13900000Y6550000D02*
X13300000Y6550000D01*
X13550000Y5750000D02*
X13350000Y6000000D01*
X13350000Y5500000D02*
X13550000Y5750000D01*
X13200000Y5225000D02*
X14250000Y5225000D01*
X13200000Y6275000D02*
X14250000Y6275000D01*
X34850000Y22095000D02*
X34650000Y22095000D01*
X34650000Y22095000D02*
X34650000Y26095000D01*
X34650000Y26095000D02*
X34850000Y26095000D01*
X42650000Y25695000D02*
X42850000Y25695000D01*
X42850000Y25695000D02*
X42850000Y26295000D01*
X42850000Y26295000D02*
X42650000Y26295000D01*
X42650000Y24395000D02*
X42850000Y24395000D01*
X42850000Y24395000D02*
X42850000Y24995000D01*
X42850000Y24995000D02*
X42650000Y24995000D01*
X42650000Y23195000D02*
X42850000Y23195000D01*
X42850000Y23195000D02*
X42850000Y23795000D01*
X42850000Y23795000D02*
X42650000Y23795000D01*
X42650000Y21895000D02*
X42850000Y21895000D01*
X42850000Y21895000D02*
X42850000Y22495000D01*
X42850000Y22495000D02*
X42650000Y22495000D01*
X34850000Y21295000D02*
X34850000Y26895000D01*
X34850000Y26895000D02*
X42650000Y26895000D01*
X42650000Y26895000D02*
X42650000Y21295000D01*
X42650000Y21295000D02*
X34850000Y21295000D01*
X34850000Y14535000D02*
X34650000Y14535000D01*
X34650000Y14535000D02*
X34650000Y18535000D01*
X34650000Y18535000D02*
X34850000Y18535000D01*
X42650000Y18135000D02*
X42850000Y18135000D01*
X42850000Y18135000D02*
X42850000Y18735000D01*
X42850000Y18735000D02*
X42650000Y18735000D01*
X42650000Y16835000D02*
X42850000Y16835000D01*
X42850000Y16835000D02*
X42850000Y17435000D01*
X42850000Y17435000D02*
X42650000Y17435000D01*
X42650000Y15635000D02*
X42850000Y15635000D01*
X42850000Y15635000D02*
X42850000Y16235000D01*
X42850000Y16235000D02*
X42650000Y16235000D01*
X42650000Y14335000D02*
X42850000Y14335000D01*
X42850000Y14335000D02*
X42850000Y14935000D01*
X42850000Y14935000D02*
X42650000Y14935000D01*
X34850000Y13735000D02*
X34850000Y19335000D01*
X34850000Y19335000D02*
X42650000Y19335000D01*
X42650000Y19335000D02*
X42650000Y13735000D01*
X42650000Y13735000D02*
X34850000Y13735000D01*
X34850000Y6745000D02*
X34650000Y6745000D01*
X34650000Y6745000D02*
X34650000Y10745000D01*
X34650000Y10745000D02*
X34850000Y10745000D01*
X42650000Y10345000D02*
X42850000Y10345000D01*
X42850000Y10345000D02*
X42850000Y10945000D01*
X42850000Y10945000D02*
X42650000Y10945000D01*
X42650000Y9045000D02*
X42850000Y9045000D01*
X42850000Y9045000D02*
X42850000Y9645000D01*
X42850000Y9645000D02*
X42650000Y9645000D01*
X42650000Y7845000D02*
X42850000Y7845000D01*
X42850000Y7845000D02*
X42850000Y8445000D01*
X42850000Y8445000D02*
X42650000Y8445000D01*
X42650000Y6545000D02*
X42850000Y6545000D01*
X42850000Y6545000D02*
X42850000Y7145000D01*
X42850000Y7145000D02*
X42650000Y7145000D01*
X34850000Y5945000D02*
X34850000Y11545000D01*
X34850000Y11545000D02*
X42650000Y11545000D01*
X42650000Y11545000D02*
X42650000Y5945000D01*
X42650000Y5945000D02*
X34850000Y5945000D01*
X13600000Y18375000D02*
X13400000Y18775000D01*
X13800000Y18775000D02*
X13600000Y18375000D01*
X13400000Y18775000D02*
X13800000Y18775000D01*
X21625000Y19000000D02*
X21625000Y18475000D01*
X14375000Y11750000D02*
X14375000Y12275000D01*
X21625000Y11750000D02*
X21625000Y12275000D01*
X14375000Y19000000D02*
X14900000Y19000000D01*
X14375000Y11750000D02*
X14900000Y11750000D01*
X21625000Y11750000D02*
X21100000Y11750000D01*
X21625000Y19000000D02*
X21100000Y19000000D01*
X4859524Y26338095D02*
X4859524Y27138095D01*
X5164286Y27138095D01*
X5240477Y27100000D01*
X5278572Y27061905D01*
X5316667Y26985714D01*
X5316667Y26871429D01*
X5278572Y26795238D01*
X5240477Y26757143D01*
X5164286Y26719048D01*
X4859524Y26719048D01*
X6040477Y27138095D02*
X5659524Y27138095D01*
X5621429Y26757143D01*
X5659524Y26795238D01*
X5735715Y26833333D01*
X5926191Y26833333D01*
X6002381Y26795238D01*
X6040477Y26757143D01*
X6078572Y26680952D01*
X6078572Y26490476D01*
X6040477Y26414286D01*
X6002381Y26376190D01*
X5926191Y26338095D01*
X5735715Y26338095D01*
X5659524Y26376190D01*
X5621429Y26414286D01*
X2316667Y9838095D02*
X1935714Y9838095D01*
X1935714Y10638095D01*
X3002381Y9838095D02*
X2545238Y9838095D01*
X2773809Y9838095D02*
X2773809Y10638095D01*
X2697619Y10523810D01*
X2621428Y10447619D01*
X2545238Y10409524D01*
X25666667Y18414286D02*
X25628572Y18376190D01*
X25514286Y18338095D01*
X25438096Y18338095D01*
X25323810Y18376190D01*
X25247619Y18452381D01*
X25209524Y18528571D01*
X25171429Y18680952D01*
X25171429Y18795238D01*
X25209524Y18947619D01*
X25247619Y19023810D01*
X25323810Y19100000D01*
X25438096Y19138095D01*
X25514286Y19138095D01*
X25628572Y19100000D01*
X25666667Y19061905D01*
X26428572Y18338095D02*
X25971429Y18338095D01*
X26200000Y18338095D02*
X26200000Y19138095D01*
X26123810Y19023810D01*
X26047619Y18947619D01*
X25971429Y18909524D01*
X22652381Y28538095D02*
X22919048Y27738095D01*
X23185715Y28538095D01*
X23833334Y28538095D02*
X23452381Y28538095D01*
X23414286Y28157143D01*
X23452381Y28195238D01*
X23528572Y28233333D01*
X23719048Y28233333D01*
X23795238Y28195238D01*
X23833334Y28157143D01*
X23871429Y28080952D01*
X23871429Y27890476D01*
X23833334Y27814286D01*
X23795238Y27776190D01*
X23719048Y27738095D01*
X23528572Y27738095D01*
X23452381Y27776190D01*
X23414286Y27814286D01*
X9678572Y21100000D02*
X9602381Y21138095D01*
X9488096Y21138095D01*
X9373810Y21100000D01*
X9297619Y21023810D01*
X9259524Y20947619D01*
X9221429Y20795238D01*
X9221429Y20680952D01*
X9259524Y20528571D01*
X9297619Y20452381D01*
X9373810Y20376190D01*
X9488096Y20338095D01*
X9564286Y20338095D01*
X9678572Y20376190D01*
X9716667Y20414286D01*
X9716667Y20680952D01*
X9564286Y20680952D01*
X10478572Y20338095D02*
X10021429Y20338095D01*
X10250000Y20338095D02*
X10250000Y21138095D01*
X10173810Y21023810D01*
X10097619Y20947619D01*
X10021429Y20909524D01*
X27871428Y22838095D02*
X28138095Y22038095D01*
X28404762Y22838095D01*
X29090476Y22038095D02*
X28633333Y22038095D01*
X28861904Y22038095D02*
X28861904Y22838095D01*
X28785714Y22723810D01*
X28709523Y22647619D01*
X28633333Y22609524D01*
X29585714Y22838095D02*
X29661905Y22838095D01*
X29738095Y22800000D01*
X29776190Y22761905D01*
X29814286Y22685714D01*
X29852381Y22533333D01*
X29852381Y22342857D01*
X29814286Y22190476D01*
X29776190Y22114286D01*
X29738095Y22076190D01*
X29661905Y22038095D01*
X29585714Y22038095D01*
X29509524Y22076190D01*
X29471428Y22114286D01*
X29433333Y22190476D01*
X29395238Y22342857D01*
X29395238Y22533333D01*
X29433333Y22685714D01*
X29471428Y22761905D01*
X29509524Y22800000D01*
X29585714Y22838095D01*
X18852381Y5838095D02*
X19119048Y5038095D01*
X19385715Y5838095D01*
X19690476Y5038095D02*
X19842857Y5038095D01*
X19919048Y5076190D01*
X19957143Y5114286D01*
X20033334Y5228571D01*
X20071429Y5380952D01*
X20071429Y5685714D01*
X20033334Y5761905D01*
X19995238Y5800000D01*
X19919048Y5838095D01*
X19766667Y5838095D01*
X19690476Y5800000D01*
X19652381Y5761905D01*
X19614286Y5685714D01*
X19614286Y5495238D01*
X19652381Y5419048D01*
X19690476Y5380952D01*
X19766667Y5342857D01*
X19919048Y5342857D01*
X19995238Y5380952D01*
X20033334Y5419048D01*
X20071429Y5495238D01*
X7352381Y9738095D02*
X7619048Y8938095D01*
X7885715Y9738095D01*
X8571429Y8938095D02*
X8114286Y8938095D01*
X8342857Y8938095D02*
X8342857Y9738095D01*
X8266667Y9623810D01*
X8190476Y9547619D01*
X8114286Y9509524D01*
X19952381Y24138095D02*
X20219048Y23338095D01*
X20485715Y24138095D01*
X20714286Y24061905D02*
X20752381Y24100000D01*
X20828572Y24138095D01*
X21019048Y24138095D01*
X21095238Y24100000D01*
X21133334Y24061905D01*
X21171429Y23985714D01*
X21171429Y23909524D01*
X21133334Y23795238D01*
X20676191Y23338095D01*
X21171429Y23338095D01*
X32066667Y25414286D02*
X32028572Y25376190D01*
X31914286Y25338095D01*
X31838096Y25338095D01*
X31723810Y25376190D01*
X31647619Y25452381D01*
X31609524Y25528571D01*
X31571429Y25680952D01*
X31571429Y25795238D01*
X31609524Y25947619D01*
X31647619Y26023810D01*
X31723810Y26100000D01*
X31838096Y26138095D01*
X31914286Y26138095D01*
X32028572Y26100000D01*
X32066667Y26061905D01*
X32752381Y25871429D02*
X32752381Y25338095D01*
X32561905Y26176190D02*
X32371429Y25604762D01*
X32866667Y25604762D01*
X27102381Y13138095D02*
X27369048Y12338095D01*
X27635715Y13138095D01*
X27826191Y13138095D02*
X28321429Y13138095D01*
X28054762Y12833333D01*
X28169048Y12833333D01*
X28245238Y12795238D01*
X28283334Y12757143D01*
X28321429Y12680952D01*
X28321429Y12490476D01*
X28283334Y12414286D01*
X28245238Y12376190D01*
X28169048Y12338095D01*
X27940476Y12338095D01*
X27864286Y12376190D01*
X27826191Y12414286D01*
X23552381Y6838095D02*
X23819048Y6038095D01*
X24085715Y6838095D01*
X24695238Y6571429D02*
X24695238Y6038095D01*
X24504762Y6876190D02*
X24314286Y6304762D01*
X24809524Y6304762D01*
X32166667Y14914286D02*
X32128572Y14876190D01*
X32014286Y14838095D01*
X31938096Y14838095D01*
X31823810Y14876190D01*
X31747619Y14952381D01*
X31709524Y15028571D01*
X31671429Y15180952D01*
X31671429Y15295238D01*
X31709524Y15447619D01*
X31747619Y15523810D01*
X31823810Y15600000D01*
X31938096Y15638095D01*
X32014286Y15638095D01*
X32128572Y15600000D01*
X32166667Y15561905D01*
X32852381Y15638095D02*
X32700000Y15638095D01*
X32623810Y15600000D01*
X32585715Y15561905D01*
X32509524Y15447619D01*
X32471429Y15295238D01*
X32471429Y14990476D01*
X32509524Y14914286D01*
X32547619Y14876190D01*
X32623810Y14838095D01*
X32776191Y14838095D01*
X32852381Y14876190D01*
X32890477Y14914286D01*
X32928572Y14990476D01*
X32928572Y15180952D01*
X32890477Y15257143D01*
X32852381Y15295238D01*
X32776191Y15333333D01*
X32623810Y15333333D01*
X32547619Y15295238D01*
X32509524Y15257143D01*
X32471429Y15180952D01*
X6216667Y4714286D02*
X6178572Y4676190D01*
X6064286Y4638095D01*
X5988096Y4638095D01*
X5873810Y4676190D01*
X5797619Y4752381D01*
X5759524Y4828571D01*
X5721429Y4980952D01*
X5721429Y5095238D01*
X5759524Y5247619D01*
X5797619Y5323810D01*
X5873810Y5400000D01*
X5988096Y5438095D01*
X6064286Y5438095D01*
X6178572Y5400000D01*
X6216667Y5361905D01*
X6483334Y5438095D02*
X7016667Y5438095D01*
X6673810Y4638095D01*
X32166667Y18114286D02*
X32128572Y18076190D01*
X32014286Y18038095D01*
X31938096Y18038095D01*
X31823810Y18076190D01*
X31747619Y18152381D01*
X31709524Y18228571D01*
X31671429Y18380952D01*
X31671429Y18495238D01*
X31709524Y18647619D01*
X31747619Y18723810D01*
X31823810Y18800000D01*
X31938096Y18838095D01*
X32014286Y18838095D01*
X32128572Y18800000D01*
X32166667Y18761905D01*
X32890477Y18838095D02*
X32509524Y18838095D01*
X32471429Y18457143D01*
X32509524Y18495238D01*
X32585715Y18533333D01*
X32776191Y18533333D01*
X32852381Y18495238D01*
X32890477Y18457143D01*
X32928572Y18380952D01*
X32928572Y18190476D01*
X32890477Y18114286D01*
X32852381Y18076190D01*
X32776191Y18038095D01*
X32585715Y18038095D01*
X32509524Y18076190D01*
X32471429Y18114286D01*
X32185714Y4914286D02*
X32147619Y4876190D01*
X32033333Y4838095D01*
X31957143Y4838095D01*
X31842857Y4876190D01*
X31766666Y4952381D01*
X31728571Y5028571D01*
X31690476Y5180952D01*
X31690476Y5295238D01*
X31728571Y5447619D01*
X31766666Y5523810D01*
X31842857Y5600000D01*
X31957143Y5638095D01*
X32033333Y5638095D01*
X32147619Y5600000D01*
X32185714Y5561905D01*
X32947619Y4838095D02*
X32490476Y4838095D01*
X32719047Y4838095D02*
X32719047Y5638095D01*
X32642857Y5523810D01*
X32566666Y5447619D01*
X32490476Y5409524D01*
X33328571Y4838095D02*
X33480952Y4838095D01*
X33557143Y4876190D01*
X33595238Y4914286D01*
X33671429Y5028571D01*
X33709524Y5180952D01*
X33709524Y5485714D01*
X33671429Y5561905D01*
X33633333Y5600000D01*
X33557143Y5638095D01*
X33404762Y5638095D01*
X33328571Y5600000D01*
X33290476Y5561905D01*
X33252381Y5485714D01*
X33252381Y5295238D01*
X33290476Y5219048D01*
X33328571Y5180952D01*
X33404762Y5142857D01*
X33557143Y5142857D01*
X33633333Y5180952D01*
X33671429Y5219048D01*
X33709524Y5295238D01*
X4909524Y29023095D02*
X4909524Y29823095D01*
X5214286Y29823095D01*
X5290477Y29785000D01*
X5328572Y29746905D01*
X5366667Y29670714D01*
X5366667Y29556429D01*
X5328572Y29480238D01*
X5290477Y29442143D01*
X5214286Y29404048D01*
X4909524Y29404048D01*
X5671429Y29746905D02*
X5709524Y29785000D01*
X5785715Y29823095D01*
X5976191Y29823095D01*
X6052381Y29785000D01*
X6090477Y29746905D01*
X6128572Y29670714D01*
X6128572Y29594524D01*
X6090477Y29480238D01*
X5633334Y29023095D01*
X6128572Y29023095D01*
X4859524Y938095D02*
X4859524Y1738095D01*
X5164286Y1738095D01*
X5240477Y1700000D01*
X5278572Y1661905D01*
X5316667Y1585714D01*
X5316667Y1471429D01*
X5278572Y1395238D01*
X5240477Y1357143D01*
X5164286Y1319048D01*
X4859524Y1319048D01*
X5583334Y1738095D02*
X6078572Y1738095D01*
X5811905Y1433333D01*
X5926191Y1433333D01*
X6002381Y1395238D01*
X6040477Y1357143D01*
X6078572Y1280952D01*
X6078572Y1090476D01*
X6040477Y1014286D01*
X6002381Y976190D01*
X5926191Y938095D01*
X5697619Y938095D01*
X5621429Y976190D01*
X5583334Y1014286D01*
X4585714Y13414286D02*
X4547619Y13376190D01*
X4433333Y13338095D01*
X4357143Y13338095D01*
X4242857Y13376190D01*
X4166666Y13452381D01*
X4128571Y13528571D01*
X4090476Y13680952D01*
X4090476Y13795238D01*
X4128571Y13947619D01*
X4166666Y14023810D01*
X4242857Y14100000D01*
X4357143Y14138095D01*
X4433333Y14138095D01*
X4547619Y14100000D01*
X4585714Y14061905D01*
X5347619Y13338095D02*
X4890476Y13338095D01*
X5119047Y13338095D02*
X5119047Y14138095D01*
X5042857Y14023810D01*
X4966666Y13947619D01*
X4890476Y13909524D01*
X5652381Y14061905D02*
X5690476Y14100000D01*
X5766667Y14138095D01*
X5957143Y14138095D01*
X6033333Y14100000D01*
X6071429Y14061905D01*
X6109524Y13985714D01*
X6109524Y13909524D01*
X6071429Y13795238D01*
X5614286Y13338095D01*
X6109524Y13338095D01*
X16185714Y22514286D02*
X16147619Y22476190D01*
X16033333Y22438095D01*
X15957143Y22438095D01*
X15842857Y22476190D01*
X15766666Y22552381D01*
X15728571Y22628571D01*
X15690476Y22780952D01*
X15690476Y22895238D01*
X15728571Y23047619D01*
X15766666Y23123810D01*
X15842857Y23200000D01*
X15957143Y23238095D01*
X16033333Y23238095D01*
X16147619Y23200000D01*
X16185714Y23161905D01*
X16947619Y22438095D02*
X16490476Y22438095D01*
X16719047Y22438095D02*
X16719047Y23238095D01*
X16642857Y23123810D01*
X16566666Y23047619D01*
X16490476Y23009524D01*
X17214286Y23238095D02*
X17709524Y23238095D01*
X17442857Y22933333D01*
X17557143Y22933333D01*
X17633333Y22895238D01*
X17671429Y22857143D01*
X17709524Y22780952D01*
X17709524Y22590476D01*
X17671429Y22514286D01*
X17633333Y22476190D01*
X17557143Y22438095D01*
X17328571Y22438095D01*
X17252381Y22476190D01*
X17214286Y22514286D01*
X12235714Y13814286D02*
X12197619Y13776190D01*
X12083333Y13738095D01*
X12007143Y13738095D01*
X11892857Y13776190D01*
X11816666Y13852381D01*
X11778571Y13928571D01*
X11740476Y14080952D01*
X11740476Y14195238D01*
X11778571Y14347619D01*
X11816666Y14423810D01*
X11892857Y14500000D01*
X12007143Y14538095D01*
X12083333Y14538095D01*
X12197619Y14500000D01*
X12235714Y14461905D01*
X12997619Y13738095D02*
X12540476Y13738095D01*
X12769047Y13738095D02*
X12769047Y14538095D01*
X12692857Y14423810D01*
X12616666Y14347619D01*
X12540476Y14309524D01*
X13683333Y14271429D02*
X13683333Y13738095D01*
X13492857Y14576190D02*
X13302381Y14004762D01*
X13797619Y14004762D01*
X22766667Y15714286D02*
X22728572Y15676190D01*
X22614286Y15638095D01*
X22538096Y15638095D01*
X22423810Y15676190D01*
X22347619Y15752381D01*
X22309524Y15828571D01*
X22271429Y15980952D01*
X22271429Y16095238D01*
X22309524Y16247619D01*
X22347619Y16323810D01*
X22423810Y16400000D01*
X22538096Y16438095D01*
X22614286Y16438095D01*
X22728572Y16400000D01*
X22766667Y16361905D01*
X23071429Y16361905D02*
X23109524Y16400000D01*
X23185715Y16438095D01*
X23376191Y16438095D01*
X23452381Y16400000D01*
X23490477Y16361905D01*
X23528572Y16285714D01*
X23528572Y16209524D01*
X23490477Y16095238D01*
X23033334Y15638095D01*
X23528572Y15638095D01*
X24366667Y13509286D02*
X24328572Y13471190D01*
X24214286Y13433095D01*
X24138096Y13433095D01*
X24023810Y13471190D01*
X23947619Y13547381D01*
X23909524Y13623571D01*
X23871429Y13775952D01*
X23871429Y13890238D01*
X23909524Y14042619D01*
X23947619Y14118810D01*
X24023810Y14195000D01*
X24138096Y14233095D01*
X24214286Y14233095D01*
X24328572Y14195000D01*
X24366667Y14156905D01*
X24633334Y14233095D02*
X25128572Y14233095D01*
X24861905Y13928333D01*
X24976191Y13928333D01*
X25052381Y13890238D01*
X25090477Y13852143D01*
X25128572Y13775952D01*
X25128572Y13585476D01*
X25090477Y13509286D01*
X25052381Y13471190D01*
X24976191Y13433095D01*
X24747619Y13433095D01*
X24671429Y13471190D01*
X24633334Y13509286D01*
X26566667Y23738095D02*
X26300000Y24119048D01*
X26109524Y23738095D02*
X26109524Y24538095D01*
X26414286Y24538095D01*
X26490477Y24500000D01*
X26528572Y24461905D01*
X26566667Y24385714D01*
X26566667Y24271429D01*
X26528572Y24195238D01*
X26490477Y24157143D01*
X26414286Y24119048D01*
X26109524Y24119048D01*
X27328572Y23738095D02*
X26871429Y23738095D01*
X27100000Y23738095D02*
X27100000Y24538095D01*
X27023810Y24423810D01*
X26947619Y24347619D01*
X26871429Y24309524D01*
X26466667Y22038095D02*
X26200000Y22419048D01*
X26009524Y22038095D02*
X26009524Y22838095D01*
X26314286Y22838095D01*
X26390477Y22800000D01*
X26428572Y22761905D01*
X26466667Y22685714D01*
X26466667Y22571429D01*
X26428572Y22495238D01*
X26390477Y22457143D01*
X26314286Y22419048D01*
X26009524Y22419048D01*
X26771429Y22761905D02*
X26809524Y22800000D01*
X26885715Y22838095D01*
X27076191Y22838095D01*
X27152381Y22800000D01*
X27190477Y22761905D01*
X27228572Y22685714D01*
X27228572Y22609524D01*
X27190477Y22495238D01*
X26733334Y22038095D01*
X27228572Y22038095D01*
X30666667Y16338095D02*
X30400000Y16719048D01*
X30209524Y16338095D02*
X30209524Y17138095D01*
X30514286Y17138095D01*
X30590477Y17100000D01*
X30628572Y17061905D01*
X30666667Y16985714D01*
X30666667Y16871429D01*
X30628572Y16795238D01*
X30590477Y16757143D01*
X30514286Y16719048D01*
X30209524Y16719048D01*
X30933334Y17138095D02*
X31428572Y17138095D01*
X31161905Y16833333D01*
X31276191Y16833333D01*
X31352381Y16795238D01*
X31390477Y16757143D01*
X31428572Y16680952D01*
X31428572Y16490476D01*
X31390477Y16414286D01*
X31352381Y16376190D01*
X31276191Y16338095D01*
X31047619Y16338095D01*
X30971429Y16376190D01*
X30933334Y16414286D01*
X28326667Y20333095D02*
X28060000Y20714048D01*
X27869524Y20333095D02*
X27869524Y21133095D01*
X28174286Y21133095D01*
X28250477Y21095000D01*
X28288572Y21056905D01*
X28326667Y20980714D01*
X28326667Y20866429D01*
X28288572Y20790238D01*
X28250477Y20752143D01*
X28174286Y20714048D01*
X27869524Y20714048D01*
X29012381Y20866429D02*
X29012381Y20333095D01*
X28821905Y21171190D02*
X28631429Y20599762D01*
X29126667Y20599762D01*
X28366667Y4238095D02*
X28100000Y4619048D01*
X27909524Y4238095D02*
X27909524Y5038095D01*
X28214286Y5038095D01*
X28290477Y5000000D01*
X28328572Y4961905D01*
X28366667Y4885714D01*
X28366667Y4771429D01*
X28328572Y4695238D01*
X28290477Y4657143D01*
X28214286Y4619048D01*
X27909524Y4619048D01*
X29090477Y5038095D02*
X28709524Y5038095D01*
X28671429Y4657143D01*
X28709524Y4695238D01*
X28785715Y4733333D01*
X28976191Y4733333D01*
X29052381Y4695238D01*
X29090477Y4657143D01*
X29128572Y4580952D01*
X29128572Y4390476D01*
X29090477Y4314286D01*
X29052381Y4276190D01*
X28976191Y4238095D01*
X28785715Y4238095D01*
X28709524Y4276190D01*
X28671429Y4314286D01*
X28466667Y8938095D02*
X28200000Y9319048D01*
X28009524Y8938095D02*
X28009524Y9738095D01*
X28314286Y9738095D01*
X28390477Y9700000D01*
X28428572Y9661905D01*
X28466667Y9585714D01*
X28466667Y9471429D01*
X28428572Y9395238D01*
X28390477Y9357143D01*
X28314286Y9319048D01*
X28009524Y9319048D01*
X29152381Y9738095D02*
X29000000Y9738095D01*
X28923810Y9700000D01*
X28885715Y9661905D01*
X28809524Y9547619D01*
X28771429Y9395238D01*
X28771429Y9090476D01*
X28809524Y9014286D01*
X28847619Y8976190D01*
X28923810Y8938095D01*
X29076191Y8938095D01*
X29152381Y8976190D01*
X29190477Y9014286D01*
X29228572Y9090476D01*
X29228572Y9280952D01*
X29190477Y9357143D01*
X29152381Y9395238D01*
X29076191Y9433333D01*
X28923810Y9433333D01*
X28847619Y9395238D01*
X28809524Y9357143D01*
X28771429Y9280952D01*
X25135714Y30238095D02*
X24869047Y30619048D01*
X24678571Y30238095D02*
X24678571Y31038095D01*
X24983333Y31038095D01*
X25059524Y31000000D01*
X25097619Y30961905D01*
X25135714Y30885714D01*
X25135714Y30771429D01*
X25097619Y30695238D01*
X25059524Y30657143D01*
X24983333Y30619048D01*
X24678571Y30619048D01*
X25402381Y31038095D02*
X25897619Y31038095D01*
X25630952Y30733333D01*
X25745238Y30733333D01*
X25821428Y30695238D01*
X25859524Y30657143D01*
X25897619Y30580952D01*
X25897619Y30390476D01*
X25859524Y30314286D01*
X25821428Y30276190D01*
X25745238Y30238095D01*
X25516666Y30238095D01*
X25440476Y30276190D01*
X25402381Y30314286D01*
X26392857Y31038095D02*
X26469048Y31038095D01*
X26545238Y31000000D01*
X26583333Y30961905D01*
X26621429Y30885714D01*
X26659524Y30733333D01*
X26659524Y30542857D01*
X26621429Y30390476D01*
X26583333Y30314286D01*
X26545238Y30276190D01*
X26469048Y30238095D01*
X26392857Y30238095D01*
X26316667Y30276190D01*
X26278571Y30314286D01*
X26240476Y30390476D01*
X26202381Y30542857D01*
X26202381Y30733333D01*
X26240476Y30885714D01*
X26278571Y30961905D01*
X26316667Y31000000D01*
X26392857Y31038095D01*
X26085714Y26438095D02*
X25819047Y26819048D01*
X25628571Y26438095D02*
X25628571Y27238095D01*
X25933333Y27238095D01*
X26009524Y27200000D01*
X26047619Y27161905D01*
X26085714Y27085714D01*
X26085714Y26971429D01*
X26047619Y26895238D01*
X26009524Y26857143D01*
X25933333Y26819048D01*
X25628571Y26819048D01*
X26352381Y27238095D02*
X26847619Y27238095D01*
X26580952Y26933333D01*
X26695238Y26933333D01*
X26771428Y26895238D01*
X26809524Y26857143D01*
X26847619Y26780952D01*
X26847619Y26590476D01*
X26809524Y26514286D01*
X26771428Y26476190D01*
X26695238Y26438095D01*
X26466666Y26438095D01*
X26390476Y26476190D01*
X26352381Y26514286D01*
X27609524Y26438095D02*
X27152381Y26438095D01*
X27380952Y26438095D02*
X27380952Y27238095D01*
X27304762Y27123810D01*
X27228571Y27047619D01*
X27152381Y27009524D01*
X31985714Y22238095D02*
X31719047Y22619048D01*
X31528571Y22238095D02*
X31528571Y23038095D01*
X31833333Y23038095D01*
X31909524Y23000000D01*
X31947619Y22961905D01*
X31985714Y22885714D01*
X31985714Y22771429D01*
X31947619Y22695238D01*
X31909524Y22657143D01*
X31833333Y22619048D01*
X31528571Y22619048D01*
X32671428Y22771429D02*
X32671428Y22238095D01*
X32480952Y23076190D02*
X32290476Y22504762D01*
X32785714Y22504762D01*
X33242857Y23038095D02*
X33319048Y23038095D01*
X33395238Y23000000D01*
X33433333Y22961905D01*
X33471429Y22885714D01*
X33509524Y22733333D01*
X33509524Y22542857D01*
X33471429Y22390476D01*
X33433333Y22314286D01*
X33395238Y22276190D01*
X33319048Y22238095D01*
X33242857Y22238095D01*
X33166667Y22276190D01*
X33128571Y22314286D01*
X33090476Y22390476D01*
X33052381Y22542857D01*
X33052381Y22733333D01*
X33090476Y22885714D01*
X33128571Y22961905D01*
X33166667Y23000000D01*
X33242857Y23038095D01*
X18585714Y8038095D02*
X18319047Y8419048D01*
X18128571Y8038095D02*
X18128571Y8838095D01*
X18433333Y8838095D01*
X18509524Y8800000D01*
X18547619Y8761905D01*
X18585714Y8685714D01*
X18585714Y8571429D01*
X18547619Y8495238D01*
X18509524Y8457143D01*
X18433333Y8419048D01*
X18128571Y8419048D01*
X19347619Y8038095D02*
X18890476Y8038095D01*
X19119047Y8038095D02*
X19119047Y8838095D01*
X19042857Y8723810D01*
X18966666Y8647619D01*
X18890476Y8609524D01*
X19842857Y8838095D02*
X19919048Y8838095D01*
X19995238Y8800000D01*
X20033333Y8761905D01*
X20071429Y8685714D01*
X20109524Y8533333D01*
X20109524Y8342857D01*
X20071429Y8190476D01*
X20033333Y8114286D01*
X19995238Y8076190D01*
X19919048Y8038095D01*
X19842857Y8038095D01*
X19766667Y8076190D01*
X19728571Y8114286D01*
X19690476Y8190476D01*
X19652381Y8342857D01*
X19652381Y8533333D01*
X19690476Y8685714D01*
X19728571Y8761905D01*
X19766667Y8800000D01*
X19842857Y8838095D01*
X19266667Y9464286D02*
X19228572Y9426190D01*
X19114286Y9388095D01*
X19038096Y9388095D01*
X18923810Y9426190D01*
X18847619Y9502381D01*
X18809524Y9578571D01*
X18771429Y9730952D01*
X18771429Y9845238D01*
X18809524Y9997619D01*
X18847619Y10073810D01*
X18923810Y10150000D01*
X19038096Y10188095D01*
X19114286Y10188095D01*
X19228572Y10150000D01*
X19266667Y10111905D01*
X19723810Y9845238D02*
X19647619Y9883333D01*
X19609524Y9921429D01*
X19571429Y9997619D01*
X19571429Y10035714D01*
X19609524Y10111905D01*
X19647619Y10150000D01*
X19723810Y10188095D01*
X19876191Y10188095D01*
X19952381Y10150000D01*
X19990477Y10111905D01*
X20028572Y10035714D01*
X20028572Y9997619D01*
X19990477Y9921429D01*
X19952381Y9883333D01*
X19876191Y9845238D01*
X19723810Y9845238D01*
X19647619Y9807143D01*
X19609524Y9769048D01*
X19571429Y9692857D01*
X19571429Y9540476D01*
X19609524Y9464286D01*
X19647619Y9426190D01*
X19723810Y9388095D01*
X19876191Y9388095D01*
X19952381Y9426190D01*
X19990477Y9464286D01*
X20028572Y9540476D01*
X20028572Y9692857D01*
X19990477Y9769048D01*
X19952381Y9807143D01*
X19876191Y9845238D01*
X16685714Y9838095D02*
X16419047Y10219048D01*
X16228571Y9838095D02*
X16228571Y10638095D01*
X16533333Y10638095D01*
X16609524Y10600000D01*
X16647619Y10561905D01*
X16685714Y10485714D01*
X16685714Y10371429D01*
X16647619Y10295238D01*
X16609524Y10257143D01*
X16533333Y10219048D01*
X16228571Y10219048D01*
X16952381Y10638095D02*
X17447619Y10638095D01*
X17180952Y10333333D01*
X17295238Y10333333D01*
X17371428Y10295238D01*
X17409524Y10257143D01*
X17447619Y10180952D01*
X17447619Y9990476D01*
X17409524Y9914286D01*
X17371428Y9876190D01*
X17295238Y9838095D01*
X17066666Y9838095D01*
X16990476Y9876190D01*
X16952381Y9914286D01*
X18133333Y10638095D02*
X17980952Y10638095D01*
X17904762Y10600000D01*
X17866667Y10561905D01*
X17790476Y10447619D01*
X17752381Y10295238D01*
X17752381Y9990476D01*
X17790476Y9914286D01*
X17828571Y9876190D01*
X17904762Y9838095D01*
X18057143Y9838095D01*
X18133333Y9876190D01*
X18171429Y9914286D01*
X18209524Y9990476D01*
X18209524Y10180952D01*
X18171429Y10257143D01*
X18133333Y10295238D01*
X18057143Y10333333D01*
X17904762Y10333333D01*
X17828571Y10295238D01*
X17790476Y10257143D01*
X17752381Y10180952D01*
X21685714Y2338095D02*
X21419047Y2719048D01*
X21228571Y2338095D02*
X21228571Y3138095D01*
X21533333Y3138095D01*
X21609524Y3100000D01*
X21647619Y3061905D01*
X21685714Y2985714D01*
X21685714Y2871429D01*
X21647619Y2795238D01*
X21609524Y2757143D01*
X21533333Y2719048D01*
X21228571Y2719048D01*
X21952381Y3138095D02*
X22447619Y3138095D01*
X22180952Y2833333D01*
X22295238Y2833333D01*
X22371428Y2795238D01*
X22409524Y2757143D01*
X22447619Y2680952D01*
X22447619Y2490476D01*
X22409524Y2414286D01*
X22371428Y2376190D01*
X22295238Y2338095D01*
X22066666Y2338095D01*
X21990476Y2376190D01*
X21952381Y2414286D01*
X22904762Y2795238D02*
X22828571Y2833333D01*
X22790476Y2871429D01*
X22752381Y2947619D01*
X22752381Y2985714D01*
X22790476Y3061905D01*
X22828571Y3100000D01*
X22904762Y3138095D01*
X23057143Y3138095D01*
X23133333Y3100000D01*
X23171429Y3061905D01*
X23209524Y2985714D01*
X23209524Y2947619D01*
X23171429Y2871429D01*
X23133333Y2833333D01*
X23057143Y2795238D01*
X22904762Y2795238D01*
X22828571Y2757143D01*
X22790476Y2719048D01*
X22752381Y2642857D01*
X22752381Y2490476D01*
X22790476Y2414286D01*
X22828571Y2376190D01*
X22904762Y2338095D01*
X23057143Y2338095D01*
X23133333Y2376190D01*
X23171429Y2414286D01*
X23209524Y2490476D01*
X23209524Y2642857D01*
X23171429Y2719048D01*
X23133333Y2757143D01*
X23057143Y2795238D01*
X3685714Y17414286D02*
X3647619Y17376190D01*
X3533333Y17338095D01*
X3457143Y17338095D01*
X3342857Y17376190D01*
X3266666Y17452381D01*
X3228571Y17528571D01*
X3190476Y17680952D01*
X3190476Y17795238D01*
X3228571Y17947619D01*
X3266666Y18023810D01*
X3342857Y18100000D01*
X3457143Y18138095D01*
X3533333Y18138095D01*
X3647619Y18100000D01*
X3685714Y18061905D01*
X4447619Y17338095D02*
X3990476Y17338095D01*
X4219047Y17338095D02*
X4219047Y18138095D01*
X4142857Y18023810D01*
X4066666Y17947619D01*
X3990476Y17909524D01*
X5171429Y18138095D02*
X4790476Y18138095D01*
X4752381Y17757143D01*
X4790476Y17795238D01*
X4866667Y17833333D01*
X5057143Y17833333D01*
X5133333Y17795238D01*
X5171429Y17757143D01*
X5209524Y17680952D01*
X5209524Y17490476D01*
X5171429Y17414286D01*
X5133333Y17376190D01*
X5057143Y17338095D01*
X4866667Y17338095D01*
X4790476Y17376190D01*
X4752381Y17414286D01*
X3585714Y15509286D02*
X3547619Y15471190D01*
X3433333Y15433095D01*
X3357143Y15433095D01*
X3242857Y15471190D01*
X3166666Y15547381D01*
X3128571Y15623571D01*
X3090476Y15775952D01*
X3090476Y15890238D01*
X3128571Y16042619D01*
X3166666Y16118810D01*
X3242857Y16195000D01*
X3357143Y16233095D01*
X3433333Y16233095D01*
X3547619Y16195000D01*
X3585714Y16156905D01*
X3890476Y16156905D02*
X3928571Y16195000D01*
X4004762Y16233095D01*
X4195238Y16233095D01*
X4271428Y16195000D01*
X4309524Y16156905D01*
X4347619Y16080714D01*
X4347619Y16004524D01*
X4309524Y15890238D01*
X3852381Y15433095D01*
X4347619Y15433095D01*
X5109524Y15433095D02*
X4652381Y15433095D01*
X4880952Y15433095D02*
X4880952Y16233095D01*
X4804762Y16118810D01*
X4728571Y16042619D01*
X4652381Y16004524D01*
X11885714Y17138095D02*
X11619047Y17519048D01*
X11428571Y17138095D02*
X11428571Y17938095D01*
X11733333Y17938095D01*
X11809524Y17900000D01*
X11847619Y17861905D01*
X11885714Y17785714D01*
X11885714Y17671429D01*
X11847619Y17595238D01*
X11809524Y17557143D01*
X11733333Y17519048D01*
X11428571Y17519048D01*
X12152381Y17938095D02*
X12647619Y17938095D01*
X12380952Y17633333D01*
X12495238Y17633333D01*
X12571428Y17595238D01*
X12609524Y17557143D01*
X12647619Y17480952D01*
X12647619Y17290476D01*
X12609524Y17214286D01*
X12571428Y17176190D01*
X12495238Y17138095D01*
X12266666Y17138095D01*
X12190476Y17176190D01*
X12152381Y17214286D01*
X12914286Y17938095D02*
X13447619Y17938095D01*
X13104762Y17138095D01*
X15535714Y6838095D02*
X15269047Y7219048D01*
X15078571Y6838095D02*
X15078571Y7638095D01*
X15383333Y7638095D01*
X15459524Y7600000D01*
X15497619Y7561905D01*
X15535714Y7485714D01*
X15535714Y7371429D01*
X15497619Y7295238D01*
X15459524Y7257143D01*
X15383333Y7219048D01*
X15078571Y7219048D01*
X16221428Y7371429D02*
X16221428Y6838095D01*
X16030952Y7676190D02*
X15840476Y7104762D01*
X16335714Y7104762D01*
X16754762Y7295238D02*
X16678571Y7333333D01*
X16640476Y7371429D01*
X16602381Y7447619D01*
X16602381Y7485714D01*
X16640476Y7561905D01*
X16678571Y7600000D01*
X16754762Y7638095D01*
X16907143Y7638095D01*
X16983333Y7600000D01*
X17021429Y7561905D01*
X17059524Y7485714D01*
X17059524Y7447619D01*
X17021429Y7371429D01*
X16983333Y7333333D01*
X16907143Y7295238D01*
X16754762Y7295238D01*
X16678571Y7257143D01*
X16640476Y7219048D01*
X16602381Y7142857D01*
X16602381Y6990476D01*
X16640476Y6914286D01*
X16678571Y6876190D01*
X16754762Y6838095D01*
X16907143Y6838095D01*
X16983333Y6876190D01*
X17021429Y6914286D01*
X17059524Y6990476D01*
X17059524Y7142857D01*
X17021429Y7219048D01*
X16983333Y7257143D01*
X16907143Y7295238D01*
X14602381Y6138095D02*
X14869048Y5338095D01*
X15135715Y6138095D01*
X15516667Y5795238D02*
X15440476Y5833333D01*
X15402381Y5871429D01*
X15364286Y5947619D01*
X15364286Y5985714D01*
X15402381Y6061905D01*
X15440476Y6100000D01*
X15516667Y6138095D01*
X15669048Y6138095D01*
X15745238Y6100000D01*
X15783334Y6061905D01*
X15821429Y5985714D01*
X15821429Y5947619D01*
X15783334Y5871429D01*
X15745238Y5833333D01*
X15669048Y5795238D01*
X15516667Y5795238D01*
X15440476Y5757143D01*
X15402381Y5719048D01*
X15364286Y5642857D01*
X15364286Y5490476D01*
X15402381Y5414286D01*
X15440476Y5376190D01*
X15516667Y5338095D01*
X15669048Y5338095D01*
X15745238Y5376190D01*
X15783334Y5414286D01*
X15821429Y5490476D01*
X15821429Y5642857D01*
X15783334Y5719048D01*
X15745238Y5757143D01*
X15669048Y5795238D01*
X42923810Y27261905D02*
X42847619Y27300000D01*
X42771429Y27376190D01*
X42657143Y27490476D01*
X42580952Y27528571D01*
X42504762Y27528571D01*
X42542857Y27338095D02*
X42466667Y27376190D01*
X42390476Y27452381D01*
X42352381Y27604762D01*
X42352381Y27871429D01*
X42390476Y28023810D01*
X42466667Y28100000D01*
X42542857Y28138095D01*
X42695238Y28138095D01*
X42771429Y28100000D01*
X42847619Y28023810D01*
X42885714Y27871429D01*
X42885714Y27604762D01*
X42847619Y27452381D01*
X42771429Y27376190D01*
X42695238Y27338095D01*
X42542857Y27338095D01*
X43647619Y27338095D02*
X43190476Y27338095D01*
X43419047Y27338095D02*
X43419047Y28138095D01*
X43342857Y28023810D01*
X43266666Y27947619D01*
X43190476Y27909524D01*
X42273810Y19661905D02*
X42197619Y19700000D01*
X42121429Y19776190D01*
X42007143Y19890476D01*
X41930952Y19928571D01*
X41854762Y19928571D01*
X41892857Y19738095D02*
X41816667Y19776190D01*
X41740476Y19852381D01*
X41702381Y20004762D01*
X41702381Y20271429D01*
X41740476Y20423810D01*
X41816667Y20500000D01*
X41892857Y20538095D01*
X42045238Y20538095D01*
X42121429Y20500000D01*
X42197619Y20423810D01*
X42235714Y20271429D01*
X42235714Y20004762D01*
X42197619Y19852381D01*
X42121429Y19776190D01*
X42045238Y19738095D01*
X41892857Y19738095D01*
X42959524Y20538095D02*
X42578571Y20538095D01*
X42540476Y20157143D01*
X42578571Y20195238D01*
X42654762Y20233333D01*
X42845238Y20233333D01*
X42921428Y20195238D01*
X42959524Y20157143D01*
X42997619Y20080952D01*
X42997619Y19890476D01*
X42959524Y19814286D01*
X42921428Y19776190D01*
X42845238Y19738095D01*
X42654762Y19738095D01*
X42578571Y19776190D01*
X42540476Y19814286D01*
X42723810Y12061905D02*
X42647619Y12100000D01*
X42571429Y12176190D01*
X42457143Y12290476D01*
X42380952Y12328571D01*
X42304762Y12328571D01*
X42342857Y12138095D02*
X42266667Y12176190D01*
X42190476Y12252381D01*
X42152381Y12404762D01*
X42152381Y12671429D01*
X42190476Y12823810D01*
X42266667Y12900000D01*
X42342857Y12938095D01*
X42495238Y12938095D01*
X42571429Y12900000D01*
X42647619Y12823810D01*
X42685714Y12671429D01*
X42685714Y12404762D01*
X42647619Y12252381D01*
X42571429Y12176190D01*
X42495238Y12138095D01*
X42342857Y12138095D01*
X42952381Y12938095D02*
X43447619Y12938095D01*
X43180952Y12633333D01*
X43295238Y12633333D01*
X43371428Y12595238D01*
X43409524Y12557143D01*
X43447619Y12480952D01*
X43447619Y12290476D01*
X43409524Y12214286D01*
X43371428Y12176190D01*
X43295238Y12138095D01*
X43066666Y12138095D01*
X42990476Y12176190D01*
X42952381Y12214286D01*
X18309524Y19738095D02*
X18309524Y20538095D01*
X18500000Y20538095D01*
X18614286Y20500000D01*
X18690477Y20423810D01*
X18728572Y20347619D01*
X18766667Y20195238D01*
X18766667Y20080952D01*
X18728572Y19928571D01*
X18690477Y19852381D01*
X18614286Y19776190D01*
X18500000Y19738095D01*
X18309524Y19738095D01*
X19528572Y19738095D02*
X19071429Y19738095D01*
X19300000Y19738095D02*
X19300000Y20538095D01*
X19223810Y20423810D01*
X19147619Y20347619D01*
X19071429Y20309524D01*
%LPC*%
D15*
X34700000Y31300000D02*
X34700000Y2000000D01*
D16*
X7620000Y27400000D03*
D17*
X10160000Y27400000D03*
X12700000Y27400000D03*
X15240000Y27400000D03*
X17780000Y27400000D03*
D18*
X31750000Y30800000D03*
D19*
X4100000Y10250000D03*
X6300000Y10250000D03*
D20*
X24430000Y18800000D03*
X22770000Y18800000D03*
D21*
X21600000Y25900000D03*
X21600000Y28300000D03*
D22*
X9400000Y16350000D03*
X9400000Y18250000D03*
D23*
X28600000Y23700000D03*
X29500000Y23700000D03*
X19300000Y4100000D03*
X20200000Y4100000D03*
D24*
X10250000Y8765000D03*
X10250000Y4735000D03*
D21*
X22300000Y22400000D03*
X22300000Y24800000D03*
D25*
X33350000Y27700000D03*
X31350000Y27700000D03*
D21*
X27750000Y13895000D03*
X27750000Y16295000D03*
X25750000Y7695000D03*
X25750000Y5295000D03*
D25*
X33350000Y13400000D03*
X31350000Y13400000D03*
X5000000Y6900000D03*
X7000000Y6900000D03*
X10500000Y11100000D03*
X8500000Y11100000D03*
X33350000Y20300000D03*
X31350000Y20300000D03*
X33350000Y3400000D03*
X31350000Y3400000D03*
D16*
X7620000Y29940000D03*
D17*
X10160000Y29940000D03*
X12700000Y29940000D03*
X15240000Y29940000D03*
X17780000Y29940000D03*
X20320000Y29940000D03*
D16*
X7620000Y2000000D03*
D17*
X10160000Y2000000D03*
X12700000Y2000000D03*
X15240000Y2000000D03*
X17780000Y2000000D03*
D20*
X9680000Y13200000D03*
X8020000Y13200000D03*
D26*
X14750000Y20420000D03*
X14750000Y22080000D03*
X12750000Y12130000D03*
X12750000Y10470000D03*
D20*
X26030000Y16075000D03*
X24370000Y16075000D03*
D26*
X22950000Y12070000D03*
X22950000Y13730000D03*
D27*
X25310000Y24100000D03*
X23890000Y24100000D03*
X25310000Y22500000D03*
X23890000Y22500000D03*
X29160000Y17695000D03*
X27740000Y17695000D03*
X29170000Y19395000D03*
X27750000Y19395000D03*
X29210000Y5995000D03*
X27790000Y5995000D03*
X29210000Y7995000D03*
X27790000Y7995000D03*
X23910000Y30700000D03*
X22490000Y30700000D03*
X24710000Y26700000D03*
X23290000Y26700000D03*
X33310000Y24000000D03*
X31890000Y24000000D03*
X20740000Y8500000D03*
X22160000Y8500000D03*
D20*
X20820000Y10100000D03*
X22480000Y10100000D03*
D27*
X14390000Y8900000D03*
X15810000Y8900000D03*
X22810000Y4100000D03*
X21390000Y4100000D03*
D28*
X6850000Y18950000D03*
X6850000Y17950000D03*
X6850000Y15650000D03*
X6850000Y16650000D03*
D29*
X12990000Y16300000D03*
X11910000Y16300000D03*
D18*
X36750000Y30750000D03*
D30*
X2500000Y3000000D03*
X46000000Y3000000D03*
X46000000Y29000000D03*
X3000000Y29000000D03*
D27*
X14310000Y7250000D03*
X12890000Y7250000D03*
D23*
X13900000Y5750000D03*
X13000000Y5750000D03*
D31*
X41575000Y23460000D03*
X41575000Y22190000D03*
X41575000Y24730000D03*
D32*
X36080000Y24095000D03*
D33*
X38080000Y24095000D03*
D31*
X41575000Y26000000D03*
X41575000Y15900000D03*
X41575000Y14630000D03*
X41575000Y17170000D03*
D32*
X36080000Y16535000D03*
D33*
X38080000Y16535000D03*
D31*
X41575000Y18440000D03*
X41575000Y8110000D03*
X41575000Y6840000D03*
X41575000Y9380000D03*
D32*
X36080000Y8745000D03*
D33*
X38080000Y8745000D03*
D31*
X41575000Y10650000D03*
D34*
X47250000Y23000000D03*
X47250000Y16000000D03*
X47250000Y8500000D03*
X34750000Y30500000D03*
X29550000Y30500000D03*
D16*
X18650000Y14725000D03*
X17350000Y14725000D03*
X18650000Y16025000D03*
D35*
X14475000Y18125000D03*
X14475000Y17625000D03*
X14475000Y17125000D03*
X14475000Y16625000D03*
X14475000Y16125000D03*
X14475000Y15625000D03*
X14475000Y15125000D03*
X14475000Y14625000D03*
X14475000Y14125000D03*
X14475000Y13625000D03*
X14475000Y13125000D03*
X14475000Y12625000D03*
D36*
X15250000Y11850000D03*
X15750000Y11850000D03*
X16250000Y11850000D03*
X16750000Y11850000D03*
X17250000Y11850000D03*
X17750000Y11850000D03*
X18250000Y11850000D03*
X18750000Y11850000D03*
X19250000Y11850000D03*
X19750000Y11850000D03*
X20250000Y11850000D03*
X20750000Y11850000D03*
D35*
X21525000Y12625000D03*
X21525000Y13125000D03*
X21525000Y13625000D03*
X21525000Y14125000D03*
X21525000Y14625000D03*
X21525000Y15125000D03*
X21525000Y15625000D03*
X21525000Y16125000D03*
X21525000Y16625000D03*
X21525000Y17125000D03*
X21525000Y17625000D03*
X21525000Y18125000D03*
D36*
X20750000Y18900000D03*
X20250000Y18900000D03*
X19750000Y18900000D03*
X19250000Y18900000D03*
X18750000Y18900000D03*
X18250000Y18900000D03*
X17750000Y18900000D03*
X17250000Y18900000D03*
X16750000Y18900000D03*
X16250000Y18900000D03*
X15750000Y18900000D03*
X15250000Y18900000D03*
D16*
X17350000Y16025000D03*
D37*
G36*
X42923000Y277000D02*
X38277000Y277000D01*
X38277000Y2423000D01*
X42923000Y2423000D01*
X42923000Y277000D01*
X42923000Y277000D01*
G37*
X42923000Y277000D02*
X38277000Y277000D01*
X38277000Y2423000D01*
X42923000Y2423000D01*
X42923000Y277000D01*
M02*
