%TF.GenerationSoftware,KiCad,Pcbnew,4.0.6-e0-6349~53~ubuntu16.04.1*%
%TF.CreationDate,2017-03-19T23:40:33+02:00*%
%TF.ProjectId,BLDC_controller,424C44435F636F6E74726F6C6C65722E,1.0*%
%TF.FileFunction,Copper,L3,Inr,Plane*%
%FSLAX46Y46*%
G04 Gerber Fmt 4.6, Leading zero omitted, Abs format (unit mm)*
G04 Created by KiCad (PCBNEW 4.0.6-e0-6349~53~ubuntu16.04.1) date Sun Mar 19 23:40:33 2017*
%MOMM*%
%LPD*%
G01*
G04 APERTURE LIST*
%ADD10C,0.100000*%
%ADD11C,0.250000*%
%ADD12C,0.800000*%
%ADD13R,1.500000X1.500000*%
%ADD14C,1.500000*%
%ADD15C,1.300000*%
%ADD16C,2.100000*%
%ADD17C,0.254000*%
G04 APERTURE END LIST*
D10*
D11*
X177066667Y-111107381D02*
X177685715Y-111107381D01*
X177352381Y-111488333D01*
X177495239Y-111488333D01*
X177590477Y-111535952D01*
X177638096Y-111583571D01*
X177685715Y-111678810D01*
X177685715Y-111916905D01*
X177638096Y-112012143D01*
X177590477Y-112059762D01*
X177495239Y-112107381D01*
X177209524Y-112107381D01*
X177114286Y-112059762D01*
X177066667Y-112012143D01*
D12*
X175000000Y-85100000D03*
X164400000Y-82400000D03*
X163600000Y-82400000D03*
X163600000Y-83200000D03*
X164400000Y-83200000D03*
X163600000Y-84800000D03*
X164400000Y-84800000D03*
X168000000Y-83200000D03*
X167200000Y-83200000D03*
X168400000Y-84000000D03*
X167600000Y-84000000D03*
X166800000Y-84000000D03*
X166000000Y-84000000D03*
X165200000Y-84000000D03*
X164400000Y-84000000D03*
X163600000Y-84000000D03*
X168600000Y-102050000D03*
X167800000Y-102050000D03*
X167000000Y-102050000D03*
X166200000Y-102050000D03*
X165400000Y-102050000D03*
X164600000Y-102050000D03*
X163800000Y-102050000D03*
X163000000Y-102050000D03*
X168600000Y-101250000D03*
X167800000Y-101250000D03*
X167000000Y-101250000D03*
X166200000Y-101250000D03*
X165400000Y-101250000D03*
X164600000Y-101250000D03*
X163800000Y-101250000D03*
X182150000Y-99450000D03*
X181350000Y-99450000D03*
X180550000Y-99450000D03*
X179750000Y-99450000D03*
X182150000Y-98650000D03*
X181350000Y-98650000D03*
X180550000Y-98650000D03*
X179750000Y-98650000D03*
X182150000Y-97850000D03*
X181350000Y-97850000D03*
X180550000Y-97850000D03*
X179750000Y-97850000D03*
X182150000Y-97050000D03*
X181350000Y-97050000D03*
X180550000Y-97050000D03*
X179750000Y-97050000D03*
X182150000Y-96250000D03*
X181350000Y-96250000D03*
X180550000Y-96250000D03*
X179750000Y-96250000D03*
X182150000Y-95450000D03*
X181350000Y-95450000D03*
X180550000Y-95450000D03*
X179750000Y-95450000D03*
X182150000Y-94650000D03*
X181350000Y-94650000D03*
X180550000Y-94650000D03*
X182150000Y-92750000D03*
X181350000Y-92750000D03*
X180550000Y-92750000D03*
X179750000Y-92750000D03*
X182150000Y-91950000D03*
X181350000Y-91950000D03*
X180550000Y-91950000D03*
X179750000Y-91950000D03*
X182150000Y-91150000D03*
X181350000Y-91150000D03*
X180550000Y-91150000D03*
X179750000Y-91150000D03*
X182150000Y-90350000D03*
X181350000Y-90350000D03*
X180550000Y-90350000D03*
X179750000Y-90350000D03*
X182150000Y-89550000D03*
X181350000Y-89550000D03*
X180550000Y-89550000D03*
X179750000Y-89550000D03*
X182150000Y-88750000D03*
X181350000Y-88750000D03*
X180550000Y-88750000D03*
X179750000Y-88750000D03*
X182150000Y-87950000D03*
X181350000Y-87950000D03*
X180550000Y-87950000D03*
X179600000Y-107000000D03*
X180550000Y-106200000D03*
X179750000Y-106200000D03*
X182150000Y-105400000D03*
X181350000Y-105400000D03*
X180550000Y-105400000D03*
X179750000Y-105400000D03*
X182150000Y-104600000D03*
X181350000Y-104600000D03*
X180550000Y-104600000D03*
X179750000Y-104600000D03*
X182150000Y-103800000D03*
X181350000Y-103800000D03*
X180550000Y-103800000D03*
X179750000Y-103800000D03*
X182150000Y-103000000D03*
X181350000Y-103000000D03*
X180550000Y-103000000D03*
X179750000Y-103000000D03*
X182150000Y-102200000D03*
X181350000Y-102200000D03*
X180550000Y-102200000D03*
X179750000Y-102200000D03*
X182150000Y-101400000D03*
X181350000Y-101400000D03*
X180550000Y-101400000D03*
X168850000Y-112205000D03*
X168050000Y-112205000D03*
X167250000Y-112205000D03*
X166450000Y-112205000D03*
X165650000Y-112205000D03*
X164850000Y-112205000D03*
X164050000Y-112205000D03*
X163250000Y-112205000D03*
X168850000Y-111405000D03*
X168050000Y-111405000D03*
X167250000Y-111405000D03*
X166450000Y-111405000D03*
X165650000Y-111405000D03*
X164850000Y-111405000D03*
X164050000Y-111405000D03*
X170950000Y-111000000D03*
X173350000Y-108400000D03*
X175250000Y-108400000D03*
X174750000Y-100200000D03*
X175150000Y-93100000D03*
X171150000Y-92400000D03*
X171250000Y-100000000D03*
X179750000Y-101400000D03*
X179750000Y-94650000D03*
X179750000Y-87950000D03*
D13*
X143870000Y-85600000D03*
D14*
X146410000Y-85600000D03*
X148950000Y-85600000D03*
X151490000Y-85600000D03*
X154030000Y-85600000D03*
D15*
X168000000Y-82200000D03*
D12*
X142500000Y-98300000D03*
X138250000Y-88000000D03*
X138050000Y-91200000D03*
X138250000Y-100500000D03*
X138250000Y-104800000D03*
X163000000Y-101250000D03*
X163250000Y-111405000D03*
X147650000Y-97755000D03*
X146350000Y-98105000D03*
X145200000Y-98105000D03*
X143050000Y-93055000D03*
X144000000Y-98155000D03*
X142000000Y-97405000D03*
X142050000Y-93905000D03*
X148750000Y-94055000D03*
X147500000Y-93405000D03*
X146450000Y-93205000D03*
X145400000Y-93205000D03*
D13*
X143870000Y-83060000D03*
D14*
X146410000Y-83060000D03*
X148950000Y-83060000D03*
X151490000Y-83060000D03*
X154030000Y-83060000D03*
X156570000Y-83060000D03*
D13*
X143870000Y-111000000D03*
D14*
X146410000Y-111000000D03*
X148950000Y-111000000D03*
X151490000Y-111000000D03*
X154030000Y-111000000D03*
D12*
X144300000Y-93205000D03*
D15*
X173000000Y-82250000D03*
D16*
X183500000Y-90000000D03*
X183500000Y-97000000D03*
X183500000Y-104500000D03*
X171000000Y-82500000D03*
X165800000Y-82500000D03*
D12*
X147125365Y-100093856D03*
X147649988Y-99300000D03*
X151799861Y-98500000D03*
X149750000Y-91325010D03*
X167000000Y-87000000D03*
X149000000Y-104000000D03*
X166950006Y-98100000D03*
X160050000Y-110600000D03*
X141250000Y-89400000D03*
X161750000Y-99900000D03*
X158125032Y-92719540D03*
X161550000Y-87725010D03*
X142700000Y-100000000D03*
X147000000Y-87900000D03*
X148850000Y-108400000D03*
X143950000Y-108399990D03*
X167250000Y-108200000D03*
X153500000Y-95505000D03*
X159575976Y-104487519D03*
X153000000Y-99755000D03*
X142050000Y-96350000D03*
X142050000Y-95050000D03*
X156436664Y-99950012D03*
X162185865Y-95890868D03*
X159150000Y-93000000D03*
X172550000Y-100400000D03*
X159893199Y-103474992D03*
X172987345Y-93012664D03*
X160692377Y-91550260D03*
X160300013Y-83400000D03*
X172550000Y-85300000D03*
X167950000Y-107000000D03*
X177750000Y-101000000D03*
X177850000Y-85200000D03*
X160350000Y-87600000D03*
X165650000Y-96700000D03*
X177550000Y-93399996D03*
X150250000Y-102500000D03*
X141350000Y-90600006D03*
X160299809Y-92998900D03*
X140350000Y-100150000D03*
X139500000Y-105800000D03*
X138200000Y-99200000D03*
X149244014Y-92362557D03*
X159100000Y-105505000D03*
X147200000Y-89600000D03*
X155700000Y-110400000D03*
X155437812Y-99998167D03*
X161824990Y-92833481D03*
X160537340Y-104767660D03*
X167050004Y-105400000D03*
X162100000Y-83400000D03*
X167050000Y-88750000D03*
X166950000Y-95000000D03*
X161910518Y-91828733D03*
X159299998Y-83400000D03*
X152950000Y-88400000D03*
X157400000Y-105800000D03*
X140350000Y-98450000D03*
X156893923Y-107531396D03*
X150464474Y-101049989D03*
X153725010Y-92850000D03*
X154343865Y-89256331D03*
X151769372Y-102682959D03*
X154638611Y-91663931D03*
X153733366Y-91156501D03*
X151840616Y-95630768D03*
X158198915Y-107480021D03*
X156450000Y-98100000D03*
X155067262Y-89946781D03*
X149905679Y-93112357D03*
X148484530Y-93013101D03*
X156200000Y-105705000D03*
X156170369Y-95224666D03*
X153950000Y-88100000D03*
D17*
G36*
X168873000Y-110650000D02*
X168883006Y-110699410D01*
X168902436Y-110731303D01*
X169373000Y-111295980D01*
X169373000Y-112498000D01*
X141452244Y-112498000D01*
X141865392Y-112085573D01*
X142426361Y-110734609D01*
X142426783Y-110250000D01*
X142684635Y-110250000D01*
X142684635Y-111750000D01*
X142714409Y-111908237D01*
X142807927Y-112053567D01*
X142950619Y-112151064D01*
X143120000Y-112185365D01*
X144620000Y-112185365D01*
X144778237Y-112155591D01*
X144923567Y-112062073D01*
X145021064Y-111919381D01*
X145055365Y-111750000D01*
X145055365Y-111233093D01*
X145232796Y-111233093D01*
X145411606Y-111665846D01*
X145742412Y-111997230D01*
X146174853Y-112176795D01*
X146643093Y-112177204D01*
X147075846Y-111998394D01*
X147407230Y-111667588D01*
X147586795Y-111235147D01*
X147586796Y-111233093D01*
X147772796Y-111233093D01*
X147951606Y-111665846D01*
X148282412Y-111997230D01*
X148714853Y-112176795D01*
X149183093Y-112177204D01*
X149615846Y-111998394D01*
X149947230Y-111667588D01*
X150126795Y-111235147D01*
X150126796Y-111233093D01*
X150312796Y-111233093D01*
X150491606Y-111665846D01*
X150822412Y-111997230D01*
X151254853Y-112176795D01*
X151723093Y-112177204D01*
X152155846Y-111998394D01*
X152182769Y-111971517D01*
X153238088Y-111971517D01*
X153306077Y-112212460D01*
X153825171Y-112397201D01*
X154375448Y-112369230D01*
X154753923Y-112212460D01*
X154821912Y-111971517D01*
X154030000Y-111179605D01*
X153238088Y-111971517D01*
X152182769Y-111971517D01*
X152487230Y-111667588D01*
X152656432Y-111260104D01*
X152660770Y-111345448D01*
X152817540Y-111723923D01*
X153058483Y-111791912D01*
X153850395Y-111000000D01*
X153058483Y-110208088D01*
X152817540Y-110276077D01*
X152654124Y-110735251D01*
X152488394Y-110334154D01*
X152183257Y-110028483D01*
X153238088Y-110028483D01*
X154030000Y-110820395D01*
X154044143Y-110806253D01*
X154223748Y-110985858D01*
X154209605Y-111000000D01*
X155001517Y-111791912D01*
X155242460Y-111723923D01*
X155427201Y-111204829D01*
X155426025Y-111181698D01*
X155534778Y-111226856D01*
X155863779Y-111227143D01*
X156167846Y-111101505D01*
X156400688Y-110869070D01*
X156526856Y-110565222D01*
X156527143Y-110236221D01*
X156401505Y-109932154D01*
X156169070Y-109699312D01*
X155865222Y-109573144D01*
X155536221Y-109572857D01*
X155232154Y-109698495D01*
X154999312Y-109930930D01*
X154986155Y-109962615D01*
X154936966Y-109913426D01*
X154821911Y-110028481D01*
X154753923Y-109787540D01*
X154234829Y-109602799D01*
X153684552Y-109630770D01*
X153306077Y-109787540D01*
X153238088Y-110028483D01*
X152183257Y-110028483D01*
X152157588Y-110002770D01*
X151725147Y-109823205D01*
X151256907Y-109822796D01*
X150824154Y-110001606D01*
X150492770Y-110332412D01*
X150313205Y-110764853D01*
X150312796Y-111233093D01*
X150126796Y-111233093D01*
X150127204Y-110766907D01*
X149948394Y-110334154D01*
X149617588Y-110002770D01*
X149185147Y-109823205D01*
X148716907Y-109822796D01*
X148284154Y-110001606D01*
X147952770Y-110332412D01*
X147773205Y-110764853D01*
X147772796Y-111233093D01*
X147586796Y-111233093D01*
X147587204Y-110766907D01*
X147408394Y-110334154D01*
X147077588Y-110002770D01*
X146645147Y-109823205D01*
X146176907Y-109822796D01*
X145744154Y-110001606D01*
X145412770Y-110332412D01*
X145233205Y-110764853D01*
X145232796Y-111233093D01*
X145055365Y-111233093D01*
X145055365Y-110250000D01*
X145025591Y-110091763D01*
X144932073Y-109946433D01*
X144789381Y-109848936D01*
X144620000Y-109814635D01*
X143120000Y-109814635D01*
X142961763Y-109844409D01*
X142816433Y-109937927D01*
X142718936Y-110080619D01*
X142684635Y-110250000D01*
X142426783Y-110250000D01*
X142427637Y-109271808D01*
X141869027Y-107919868D01*
X141644726Y-107695175D01*
X156066780Y-107695175D01*
X156192418Y-107999242D01*
X156424853Y-108232084D01*
X156728701Y-108358252D01*
X157057702Y-108358539D01*
X157361769Y-108232901D01*
X157572225Y-108022813D01*
X157729845Y-108180709D01*
X158033693Y-108306877D01*
X158362694Y-108307164D01*
X158666761Y-108181526D01*
X158899603Y-107949091D01*
X159025771Y-107645243D01*
X159026058Y-107316242D01*
X158963062Y-107163779D01*
X167122857Y-107163779D01*
X167248495Y-107467846D01*
X167480930Y-107700688D01*
X167784778Y-107826856D01*
X168113779Y-107827143D01*
X168417846Y-107701505D01*
X168650688Y-107469070D01*
X168776856Y-107165222D01*
X168777143Y-106836221D01*
X168651505Y-106532154D01*
X168419070Y-106299312D01*
X168115222Y-106173144D01*
X167786221Y-106172857D01*
X167482154Y-106298495D01*
X167249312Y-106530930D01*
X167123144Y-106834778D01*
X167122857Y-107163779D01*
X158963062Y-107163779D01*
X158900420Y-107012175D01*
X158667985Y-106779333D01*
X158364137Y-106653165D01*
X158035136Y-106652878D01*
X157731069Y-106778516D01*
X157520613Y-106988604D01*
X157362993Y-106830708D01*
X157059145Y-106704540D01*
X156730144Y-106704253D01*
X156426077Y-106829891D01*
X156193235Y-107062326D01*
X156067067Y-107366174D01*
X156066780Y-107695175D01*
X141644726Y-107695175D01*
X140835573Y-106884608D01*
X139940334Y-106512873D01*
X139967846Y-106501505D01*
X140200688Y-106269070D01*
X140326856Y-105965222D01*
X140326940Y-105868779D01*
X155372857Y-105868779D01*
X155498495Y-106172846D01*
X155730930Y-106405688D01*
X156034778Y-106531856D01*
X156363779Y-106532143D01*
X156667846Y-106406505D01*
X156752527Y-106321972D01*
X156930930Y-106500688D01*
X157234778Y-106626856D01*
X157563779Y-106627143D01*
X157867846Y-106501505D01*
X158100688Y-106269070D01*
X158226856Y-105965222D01*
X158227114Y-105668779D01*
X158272857Y-105668779D01*
X158398495Y-105972846D01*
X158630930Y-106205688D01*
X158934778Y-106331856D01*
X159263779Y-106332143D01*
X159567846Y-106206505D01*
X159800688Y-105974070D01*
X159926856Y-105670222D01*
X159927143Y-105341221D01*
X159917099Y-105316912D01*
X160068270Y-105468348D01*
X160372118Y-105594516D01*
X160701119Y-105594803D01*
X160776202Y-105563779D01*
X166222861Y-105563779D01*
X166348499Y-105867846D01*
X166580934Y-106100688D01*
X166884782Y-106226856D01*
X167213783Y-106227143D01*
X167517850Y-106101505D01*
X167750692Y-105869070D01*
X167876860Y-105565222D01*
X167877147Y-105236221D01*
X167751509Y-104932154D01*
X167519074Y-104699312D01*
X167215226Y-104573144D01*
X166886225Y-104572857D01*
X166582158Y-104698495D01*
X166349316Y-104930930D01*
X166223148Y-105234778D01*
X166222861Y-105563779D01*
X160776202Y-105563779D01*
X161005186Y-105469165D01*
X161238028Y-105236730D01*
X161364196Y-104932882D01*
X161364483Y-104603881D01*
X161238845Y-104299814D01*
X161006410Y-104066972D01*
X160702562Y-103940804D01*
X160595279Y-103940710D01*
X160720055Y-103640214D01*
X160720342Y-103311213D01*
X160594704Y-103007146D01*
X160362269Y-102774304D01*
X160058421Y-102648136D01*
X159729420Y-102647849D01*
X159425353Y-102773487D01*
X159192511Y-103005922D01*
X159066343Y-103309770D01*
X159066056Y-103638771D01*
X159191694Y-103942838D01*
X159424129Y-104175680D01*
X159727977Y-104301848D01*
X159835260Y-104301942D01*
X159710484Y-104602438D01*
X159710197Y-104931439D01*
X159720241Y-104955748D01*
X159569070Y-104804312D01*
X159265222Y-104678144D01*
X158936221Y-104677857D01*
X158632154Y-104803495D01*
X158399312Y-105035930D01*
X158273144Y-105339778D01*
X158272857Y-105668779D01*
X158227114Y-105668779D01*
X158227143Y-105636221D01*
X158101505Y-105332154D01*
X157869070Y-105099312D01*
X157565222Y-104973144D01*
X157236221Y-104972857D01*
X156932154Y-105098495D01*
X156847473Y-105183028D01*
X156669070Y-105004312D01*
X156365222Y-104878144D01*
X156036221Y-104877857D01*
X155732154Y-105003495D01*
X155499312Y-105235930D01*
X155373144Y-105539778D01*
X155372857Y-105868779D01*
X140326940Y-105868779D01*
X140327143Y-105636221D01*
X140201505Y-105332154D01*
X139969070Y-105099312D01*
X139665222Y-104973144D01*
X139336221Y-104972857D01*
X139032154Y-105098495D01*
X138799312Y-105330930D01*
X138673144Y-105634778D01*
X138672857Y-105963779D01*
X138798495Y-106267846D01*
X138853641Y-106323089D01*
X138021808Y-106322363D01*
X136752000Y-106847037D01*
X136752000Y-102663779D01*
X149422857Y-102663779D01*
X149548495Y-102967846D01*
X149780930Y-103200688D01*
X150084778Y-103326856D01*
X150413779Y-103327143D01*
X150717846Y-103201505D01*
X150950688Y-102969070D01*
X150971784Y-102918266D01*
X151067867Y-103150805D01*
X151300302Y-103383647D01*
X151604150Y-103509815D01*
X151933151Y-103510102D01*
X152237218Y-103384464D01*
X152470060Y-103152029D01*
X152596228Y-102848181D01*
X152596515Y-102519180D01*
X152470877Y-102215113D01*
X152238442Y-101982271D01*
X151934594Y-101856103D01*
X151605593Y-101855816D01*
X151301526Y-101981454D01*
X151068684Y-102213889D01*
X151047588Y-102264693D01*
X150951505Y-102032154D01*
X150747548Y-101827840D01*
X150932320Y-101751494D01*
X151165162Y-101519059D01*
X151291330Y-101215211D01*
X151291617Y-100886210D01*
X151165979Y-100582143D01*
X150933544Y-100349301D01*
X150629696Y-100223133D01*
X150300695Y-100222846D01*
X149996628Y-100348484D01*
X149763786Y-100580919D01*
X149637618Y-100884767D01*
X149637331Y-101213768D01*
X149762969Y-101517835D01*
X149966926Y-101722149D01*
X149782154Y-101798495D01*
X149549312Y-102030930D01*
X149423144Y-102334778D01*
X149422857Y-102663779D01*
X136752000Y-102663779D01*
X136752000Y-100313779D01*
X139522857Y-100313779D01*
X139648495Y-100617846D01*
X139880930Y-100850688D01*
X140184778Y-100976856D01*
X140513779Y-100977143D01*
X140817846Y-100851505D01*
X141050688Y-100619070D01*
X141176856Y-100315222D01*
X141176906Y-100257635D01*
X146298222Y-100257635D01*
X146423860Y-100561702D01*
X146656295Y-100794544D01*
X146960143Y-100920712D01*
X147289144Y-100920999D01*
X147593211Y-100795361D01*
X147826053Y-100562926D01*
X147952221Y-100259078D01*
X147952305Y-100161946D01*
X154610669Y-100161946D01*
X154736307Y-100466013D01*
X154968742Y-100698855D01*
X155272590Y-100825023D01*
X155601591Y-100825310D01*
X155905658Y-100699672D01*
X155961166Y-100644261D01*
X155967594Y-100650700D01*
X156271442Y-100776868D01*
X156600443Y-100777155D01*
X156904510Y-100651517D01*
X157137352Y-100419082D01*
X157263520Y-100115234D01*
X157263807Y-99786233D01*
X157138169Y-99482166D01*
X156905734Y-99249324D01*
X156601886Y-99123156D01*
X156272885Y-99122869D01*
X155968818Y-99248507D01*
X155913310Y-99303918D01*
X155906882Y-99297479D01*
X155603034Y-99171311D01*
X155274033Y-99171024D01*
X154969966Y-99296662D01*
X154737124Y-99529097D01*
X154610956Y-99832945D01*
X154610669Y-100161946D01*
X147952305Y-100161946D01*
X147952386Y-100069867D01*
X148117834Y-100001505D01*
X148350676Y-99769070D01*
X148476844Y-99465222D01*
X148477131Y-99136221D01*
X148351493Y-98832154D01*
X148183413Y-98663779D01*
X150972718Y-98663779D01*
X151098356Y-98967846D01*
X151330791Y-99200688D01*
X151634639Y-99326856D01*
X151963640Y-99327143D01*
X152267707Y-99201505D01*
X152500549Y-98969070D01*
X152626717Y-98665222D01*
X152627004Y-98336221D01*
X152597072Y-98263779D01*
X155622857Y-98263779D01*
X155748495Y-98567846D01*
X155980930Y-98800688D01*
X156284778Y-98926856D01*
X156613779Y-98927143D01*
X156917846Y-98801505D01*
X157150688Y-98569070D01*
X157276856Y-98265222D01*
X157277143Y-97936221D01*
X157151505Y-97632154D01*
X156919070Y-97399312D01*
X156615222Y-97273144D01*
X156286221Y-97272857D01*
X155982154Y-97398495D01*
X155749312Y-97630930D01*
X155623144Y-97934778D01*
X155622857Y-98263779D01*
X152597072Y-98263779D01*
X152501366Y-98032154D01*
X152268931Y-97799312D01*
X151965083Y-97673144D01*
X151636082Y-97672857D01*
X151332015Y-97798495D01*
X151099173Y-98030930D01*
X150973005Y-98334778D01*
X150972718Y-98663779D01*
X148183413Y-98663779D01*
X148119058Y-98599312D01*
X147815210Y-98473144D01*
X147486209Y-98472857D01*
X147182142Y-98598495D01*
X146949300Y-98830930D01*
X146823132Y-99134778D01*
X146822967Y-99323989D01*
X146657519Y-99392351D01*
X146424677Y-99624786D01*
X146298509Y-99928634D01*
X146298222Y-100257635D01*
X141176906Y-100257635D01*
X141177143Y-99986221D01*
X141051505Y-99682154D01*
X140819070Y-99449312D01*
X140515222Y-99323144D01*
X140186221Y-99322857D01*
X139882154Y-99448495D01*
X139649312Y-99680930D01*
X139523144Y-99984778D01*
X139522857Y-100313779D01*
X136752000Y-100313779D01*
X136752000Y-99363779D01*
X137372857Y-99363779D01*
X137498495Y-99667846D01*
X137730930Y-99900688D01*
X138034778Y-100026856D01*
X138363779Y-100027143D01*
X138667846Y-99901505D01*
X138900688Y-99669070D01*
X139026856Y-99365222D01*
X139027143Y-99036221D01*
X138901505Y-98732154D01*
X138783337Y-98613779D01*
X139522857Y-98613779D01*
X139648495Y-98917846D01*
X139880930Y-99150688D01*
X140184778Y-99276856D01*
X140513779Y-99277143D01*
X140817846Y-99151505D01*
X141050688Y-98919070D01*
X141176856Y-98615222D01*
X141177143Y-98286221D01*
X141051505Y-97982154D01*
X140819070Y-97749312D01*
X140515222Y-97623144D01*
X140186221Y-97622857D01*
X139882154Y-97748495D01*
X139649312Y-97980930D01*
X139523144Y-98284778D01*
X139522857Y-98613779D01*
X138783337Y-98613779D01*
X138669070Y-98499312D01*
X138365222Y-98373144D01*
X138036221Y-98372857D01*
X137732154Y-98498495D01*
X137499312Y-98730930D01*
X137373144Y-99034778D01*
X137372857Y-99363779D01*
X136752000Y-99363779D01*
X136752000Y-93750000D01*
X142373000Y-93750000D01*
X142373000Y-97505000D01*
X142381726Y-97551262D01*
X142409042Y-97593633D01*
X142450692Y-97622037D01*
X142500110Y-97632000D01*
X148250110Y-97627000D01*
X151000000Y-97627000D01*
X151046159Y-97618315D01*
X151088553Y-97591035D01*
X151116994Y-97549410D01*
X151127000Y-97500000D01*
X151127000Y-96863779D01*
X164822857Y-96863779D01*
X164948495Y-97167846D01*
X165180930Y-97400688D01*
X165484778Y-97526856D01*
X165813779Y-97527143D01*
X166117846Y-97401505D01*
X166350688Y-97169070D01*
X166476856Y-96865222D01*
X166477143Y-96536221D01*
X166351505Y-96232154D01*
X166119070Y-95999312D01*
X165815222Y-95873144D01*
X165486221Y-95872857D01*
X165182154Y-95998495D01*
X164949312Y-96230930D01*
X164823144Y-96534778D01*
X164822857Y-96863779D01*
X151127000Y-96863779D01*
X151127000Y-96250000D01*
X151106008Y-96180063D01*
X151070447Y-96144330D01*
X150545773Y-95794547D01*
X151013473Y-95794547D01*
X151139111Y-96098614D01*
X151371546Y-96331456D01*
X151675394Y-96457624D01*
X152004395Y-96457911D01*
X152308462Y-96332273D01*
X152541304Y-96099838D01*
X152560068Y-96054647D01*
X161358722Y-96054647D01*
X161484360Y-96358714D01*
X161716795Y-96591556D01*
X162020643Y-96717724D01*
X162349644Y-96718011D01*
X162653711Y-96592373D01*
X162886553Y-96359938D01*
X163012721Y-96056090D01*
X163013008Y-95727089D01*
X162887370Y-95423022D01*
X162654935Y-95190180D01*
X162591354Y-95163779D01*
X166122857Y-95163779D01*
X166248495Y-95467846D01*
X166480930Y-95700688D01*
X166784778Y-95826856D01*
X167113779Y-95827143D01*
X167417846Y-95701505D01*
X167650688Y-95469070D01*
X167776856Y-95165222D01*
X167777143Y-94836221D01*
X167651505Y-94532154D01*
X167419070Y-94299312D01*
X167115222Y-94173144D01*
X166786221Y-94172857D01*
X166482154Y-94298495D01*
X166249312Y-94530930D01*
X166123144Y-94834778D01*
X166122857Y-95163779D01*
X162591354Y-95163779D01*
X162351087Y-95064012D01*
X162022086Y-95063725D01*
X161718019Y-95189363D01*
X161485177Y-95421798D01*
X161359009Y-95725646D01*
X161358722Y-96054647D01*
X152560068Y-96054647D01*
X152667472Y-95795990D01*
X152667759Y-95466989D01*
X152635306Y-95388445D01*
X155343226Y-95388445D01*
X155468864Y-95692512D01*
X155701299Y-95925354D01*
X156005147Y-96051522D01*
X156334148Y-96051809D01*
X156638215Y-95926171D01*
X156871057Y-95693736D01*
X156997225Y-95389888D01*
X156997512Y-95060887D01*
X156871874Y-94756820D01*
X156639439Y-94523978D01*
X156335591Y-94397810D01*
X156006590Y-94397523D01*
X155702523Y-94523161D01*
X155469681Y-94755596D01*
X155343513Y-95059444D01*
X155343226Y-95388445D01*
X152635306Y-95388445D01*
X152542121Y-95162922D01*
X152309686Y-94930080D01*
X152005838Y-94803912D01*
X151676837Y-94803625D01*
X151372770Y-94929263D01*
X151139928Y-95161698D01*
X151013760Y-95465546D01*
X151013473Y-95794547D01*
X150545773Y-95794547D01*
X147320447Y-93644330D01*
X147250000Y-93623000D01*
X142500000Y-93623000D01*
X142453841Y-93631685D01*
X142411447Y-93658965D01*
X142383006Y-93700590D01*
X142373000Y-93750000D01*
X136752000Y-93750000D01*
X136752000Y-93176880D01*
X147657387Y-93176880D01*
X147783025Y-93480947D01*
X148015460Y-93713789D01*
X148319308Y-93839957D01*
X148648309Y-93840244D01*
X148952376Y-93714606D01*
X149169961Y-93497401D01*
X149204174Y-93580203D01*
X149436609Y-93813045D01*
X149740457Y-93939213D01*
X150069458Y-93939500D01*
X150373525Y-93813862D01*
X150606367Y-93581427D01*
X150732535Y-93277579D01*
X150732765Y-93013779D01*
X152897867Y-93013779D01*
X153023505Y-93317846D01*
X153255940Y-93550688D01*
X153559788Y-93676856D01*
X153888789Y-93677143D01*
X154192856Y-93551505D01*
X154425698Y-93319070D01*
X154490180Y-93163779D01*
X158322857Y-93163779D01*
X158448495Y-93467846D01*
X158680930Y-93700688D01*
X158984778Y-93826856D01*
X159313779Y-93827143D01*
X159617846Y-93701505D01*
X159725437Y-93594102D01*
X159830739Y-93699588D01*
X160134587Y-93825756D01*
X160463588Y-93826043D01*
X160767655Y-93700405D01*
X161000497Y-93467970D01*
X161096655Y-93236394D01*
X161123485Y-93301327D01*
X161355920Y-93534169D01*
X161659768Y-93660337D01*
X161988769Y-93660624D01*
X162292836Y-93534986D01*
X162525678Y-93302551D01*
X162651846Y-92998703D01*
X162652133Y-92669702D01*
X162531389Y-92377480D01*
X162611206Y-92297803D01*
X162737374Y-91993955D01*
X162737661Y-91664954D01*
X162612023Y-91360887D01*
X162379588Y-91128045D01*
X162075740Y-91001877D01*
X161746739Y-91001590D01*
X161442672Y-91127228D01*
X161421239Y-91148623D01*
X161393882Y-91082414D01*
X161161447Y-90849572D01*
X160857599Y-90723404D01*
X160528598Y-90723117D01*
X160224531Y-90848755D01*
X159991689Y-91081190D01*
X159865521Y-91385038D01*
X159865234Y-91714039D01*
X159990872Y-92018106D01*
X160144262Y-92171764D01*
X160136030Y-92171757D01*
X159831963Y-92297395D01*
X159724372Y-92404798D01*
X159619070Y-92299312D01*
X159315222Y-92173144D01*
X158986221Y-92172857D01*
X158682154Y-92298495D01*
X158449312Y-92530930D01*
X158323144Y-92834778D01*
X158322857Y-93163779D01*
X154490180Y-93163779D01*
X154551866Y-93015222D01*
X154552153Y-92686221D01*
X154470990Y-92489791D01*
X154473389Y-92490787D01*
X154802390Y-92491074D01*
X155106457Y-92365436D01*
X155339299Y-92133001D01*
X155465467Y-91829153D01*
X155465754Y-91500152D01*
X155340116Y-91196085D01*
X155107681Y-90963243D01*
X154803833Y-90837075D01*
X154496086Y-90836807D01*
X154434871Y-90688655D01*
X154202436Y-90455813D01*
X153898588Y-90329645D01*
X153569587Y-90329358D01*
X153265520Y-90454996D01*
X153032678Y-90687431D01*
X152906510Y-90991279D01*
X152906223Y-91320280D01*
X153031861Y-91624347D01*
X153264296Y-91857189D01*
X153568144Y-91983357D01*
X153875891Y-91983625D01*
X153892631Y-92024140D01*
X153890232Y-92023144D01*
X153561231Y-92022857D01*
X153257164Y-92148495D01*
X153024322Y-92380930D01*
X152898154Y-92684778D01*
X152897867Y-93013779D01*
X150732765Y-93013779D01*
X150732822Y-92948578D01*
X150607184Y-92644511D01*
X150374749Y-92411669D01*
X150071081Y-92285576D01*
X150071157Y-92198778D01*
X149945519Y-91894711D01*
X149713084Y-91661869D01*
X149409236Y-91535701D01*
X149080235Y-91535414D01*
X148776168Y-91661052D01*
X148543326Y-91893487D01*
X148421845Y-92186046D01*
X148320751Y-92185958D01*
X148016684Y-92311596D01*
X147783842Y-92544031D01*
X147657674Y-92847879D01*
X147657387Y-93176880D01*
X136752000Y-93176880D01*
X136752000Y-90763785D01*
X140522857Y-90763785D01*
X140648495Y-91067852D01*
X140880930Y-91300694D01*
X141184778Y-91426862D01*
X141513779Y-91427149D01*
X141817846Y-91301511D01*
X142050688Y-91069076D01*
X142176856Y-90765228D01*
X142177143Y-90436227D01*
X142051505Y-90132160D01*
X141819070Y-89899318D01*
X141515222Y-89773150D01*
X141186221Y-89772863D01*
X140882154Y-89898501D01*
X140649312Y-90130936D01*
X140523144Y-90434784D01*
X140522857Y-90763785D01*
X136752000Y-90763785D01*
X136752000Y-89763779D01*
X146372857Y-89763779D01*
X146498495Y-90067846D01*
X146730930Y-90300688D01*
X147034778Y-90426856D01*
X147363779Y-90427143D01*
X147667846Y-90301505D01*
X147900688Y-90069070D01*
X148026856Y-89765222D01*
X148027143Y-89436221D01*
X147901505Y-89132154D01*
X147669070Y-88899312D01*
X147365222Y-88773144D01*
X147036221Y-88772857D01*
X146732154Y-88898495D01*
X146499312Y-89130930D01*
X146373144Y-89434778D01*
X146372857Y-89763779D01*
X136752000Y-89763779D01*
X136752000Y-88563779D01*
X152122857Y-88563779D01*
X152248495Y-88867846D01*
X152480930Y-89100688D01*
X152784778Y-89226856D01*
X153113779Y-89227143D01*
X153417846Y-89101505D01*
X153579840Y-88939794D01*
X153517009Y-89091109D01*
X153516722Y-89420110D01*
X153642360Y-89724177D01*
X153874795Y-89957019D01*
X154178643Y-90083187D01*
X154240143Y-90083241D01*
X154240119Y-90110560D01*
X154365757Y-90414627D01*
X154598192Y-90647469D01*
X154902040Y-90773637D01*
X155231041Y-90773924D01*
X155535108Y-90648286D01*
X155767950Y-90415851D01*
X155894118Y-90112003D01*
X155894405Y-89783002D01*
X155768767Y-89478935D01*
X155536332Y-89246093D01*
X155232484Y-89119925D01*
X155170984Y-89119871D01*
X155171008Y-89092552D01*
X155097141Y-88913779D01*
X166222857Y-88913779D01*
X166348495Y-89217846D01*
X166580930Y-89450688D01*
X166884778Y-89576856D01*
X167213779Y-89577143D01*
X167517846Y-89451505D01*
X167750688Y-89219070D01*
X167876856Y-88915222D01*
X167877143Y-88586221D01*
X167751505Y-88282154D01*
X167519070Y-88049312D01*
X167215222Y-87923144D01*
X166886221Y-87922857D01*
X166582154Y-88048495D01*
X166349312Y-88280930D01*
X166223144Y-88584778D01*
X166222857Y-88913779D01*
X155097141Y-88913779D01*
X155045370Y-88788485D01*
X154812935Y-88555643D01*
X154679304Y-88500155D01*
X154776856Y-88265222D01*
X154777143Y-87936221D01*
X154705892Y-87763779D01*
X159522857Y-87763779D01*
X159648495Y-88067846D01*
X159880930Y-88300688D01*
X160184778Y-88426856D01*
X160513779Y-88427143D01*
X160817846Y-88301505D01*
X161050688Y-88069070D01*
X161176856Y-87765222D01*
X161177143Y-87436221D01*
X161051505Y-87132154D01*
X160819070Y-86899312D01*
X160515222Y-86773144D01*
X160186221Y-86772857D01*
X159882154Y-86898495D01*
X159649312Y-87130930D01*
X159523144Y-87434778D01*
X159522857Y-87763779D01*
X154705892Y-87763779D01*
X154651505Y-87632154D01*
X154419070Y-87399312D01*
X154115222Y-87273144D01*
X153786221Y-87272857D01*
X153482154Y-87398495D01*
X153250803Y-87629442D01*
X153115222Y-87573144D01*
X152786221Y-87572857D01*
X152482154Y-87698495D01*
X152249312Y-87930930D01*
X152123144Y-88234778D01*
X152122857Y-88563779D01*
X136752000Y-88563779D01*
X136752000Y-86702244D01*
X137164427Y-87115392D01*
X138515391Y-87676361D01*
X139978192Y-87677637D01*
X141330132Y-87119027D01*
X142365392Y-86085573D01*
X142684635Y-85316750D01*
X142684635Y-86350000D01*
X142714409Y-86508237D01*
X142807927Y-86653567D01*
X142950619Y-86751064D01*
X143120000Y-86785365D01*
X144620000Y-86785365D01*
X144778237Y-86755591D01*
X144923567Y-86662073D01*
X145021064Y-86519381D01*
X145055365Y-86350000D01*
X145055365Y-85833093D01*
X145232796Y-85833093D01*
X145411606Y-86265846D01*
X145742412Y-86597230D01*
X146174853Y-86776795D01*
X146643093Y-86777204D01*
X147075846Y-86598394D01*
X147407230Y-86267588D01*
X147586795Y-85835147D01*
X147586796Y-85833093D01*
X147772796Y-85833093D01*
X147951606Y-86265846D01*
X148282412Y-86597230D01*
X148714853Y-86776795D01*
X149183093Y-86777204D01*
X149615846Y-86598394D01*
X149947230Y-86267588D01*
X150126795Y-85835147D01*
X150126796Y-85833093D01*
X150312796Y-85833093D01*
X150491606Y-86265846D01*
X150822412Y-86597230D01*
X151254853Y-86776795D01*
X151723093Y-86777204D01*
X152155846Y-86598394D01*
X152182769Y-86571517D01*
X153238088Y-86571517D01*
X153306077Y-86812460D01*
X153825171Y-86997201D01*
X154375448Y-86969230D01*
X154753923Y-86812460D01*
X154821912Y-86571517D01*
X154030000Y-85779605D01*
X153238088Y-86571517D01*
X152182769Y-86571517D01*
X152487230Y-86267588D01*
X152656432Y-85860104D01*
X152660770Y-85945448D01*
X152817540Y-86323923D01*
X153058483Y-86391912D01*
X153850395Y-85600000D01*
X154209605Y-85600000D01*
X155001517Y-86391912D01*
X155242460Y-86323923D01*
X155427201Y-85804829D01*
X155399230Y-85254552D01*
X155242460Y-84876077D01*
X155001517Y-84808088D01*
X154209605Y-85600000D01*
X153850395Y-85600000D01*
X153058483Y-84808088D01*
X152817540Y-84876077D01*
X152654124Y-85335251D01*
X152488394Y-84934154D01*
X152157588Y-84602770D01*
X151725147Y-84423205D01*
X151256907Y-84422796D01*
X150824154Y-84601606D01*
X150492770Y-84932412D01*
X150313205Y-85364853D01*
X150312796Y-85833093D01*
X150126796Y-85833093D01*
X150127204Y-85366907D01*
X149948394Y-84934154D01*
X149617588Y-84602770D01*
X149210104Y-84433568D01*
X149295448Y-84429230D01*
X149673923Y-84272460D01*
X149741912Y-84031517D01*
X148950000Y-83239605D01*
X148158088Y-84031517D01*
X148226077Y-84272460D01*
X148685251Y-84435876D01*
X148284154Y-84601606D01*
X147952770Y-84932412D01*
X147773205Y-85364853D01*
X147772796Y-85833093D01*
X147586796Y-85833093D01*
X147587204Y-85366907D01*
X147408394Y-84934154D01*
X147077588Y-84602770D01*
X146645147Y-84423205D01*
X146176907Y-84422796D01*
X145744154Y-84601606D01*
X145412770Y-84932412D01*
X145233205Y-85364853D01*
X145232796Y-85833093D01*
X145055365Y-85833093D01*
X145055365Y-84850000D01*
X145025591Y-84691763D01*
X144932073Y-84546433D01*
X144789381Y-84448936D01*
X144620000Y-84414635D01*
X143120000Y-84414635D01*
X142961763Y-84444409D01*
X142926594Y-84467040D01*
X142926832Y-84194811D01*
X142950619Y-84211064D01*
X143120000Y-84245365D01*
X144620000Y-84245365D01*
X144778237Y-84215591D01*
X144923567Y-84122073D01*
X145021064Y-83979381D01*
X145055365Y-83810000D01*
X145055365Y-83293093D01*
X145232796Y-83293093D01*
X145411606Y-83725846D01*
X145742412Y-84057230D01*
X146174853Y-84236795D01*
X146643093Y-84237204D01*
X147075846Y-84058394D01*
X147407230Y-83727588D01*
X147576432Y-83320104D01*
X147580770Y-83405448D01*
X147737540Y-83783923D01*
X147978483Y-83851912D01*
X148770395Y-83060000D01*
X149129605Y-83060000D01*
X149921517Y-83851912D01*
X150162460Y-83783923D01*
X150325876Y-83324749D01*
X150491606Y-83725846D01*
X150822412Y-84057230D01*
X151254853Y-84236795D01*
X151723093Y-84237204D01*
X152155846Y-84058394D01*
X152487230Y-83727588D01*
X152666795Y-83295147D01*
X152666796Y-83293093D01*
X152852796Y-83293093D01*
X153031606Y-83725846D01*
X153362412Y-84057230D01*
X153769896Y-84226432D01*
X153684552Y-84230770D01*
X153306077Y-84387540D01*
X153238088Y-84628483D01*
X154030000Y-85420395D01*
X154821912Y-84628483D01*
X154753923Y-84387540D01*
X154294749Y-84224124D01*
X154695846Y-84058394D01*
X155027230Y-83727588D01*
X155206795Y-83295147D01*
X155206796Y-83293093D01*
X155392796Y-83293093D01*
X155571606Y-83725846D01*
X155902412Y-84057230D01*
X156334853Y-84236795D01*
X156803093Y-84237204D01*
X157235846Y-84058394D01*
X157567230Y-83727588D01*
X157635249Y-83563779D01*
X158472855Y-83563779D01*
X158598493Y-83867846D01*
X158830928Y-84100688D01*
X159134776Y-84226856D01*
X159463777Y-84227143D01*
X159767844Y-84101505D01*
X159799857Y-84069548D01*
X159830943Y-84100688D01*
X160134791Y-84226856D01*
X160463792Y-84227143D01*
X160767859Y-84101505D01*
X161000701Y-83869070D01*
X161126869Y-83565222D01*
X161126870Y-83563779D01*
X161272857Y-83563779D01*
X161398495Y-83867846D01*
X161630930Y-84100688D01*
X161934778Y-84226856D01*
X162263779Y-84227143D01*
X162567846Y-84101505D01*
X162800688Y-83869070D01*
X162926856Y-83565222D01*
X162927143Y-83236221D01*
X162801505Y-82932154D01*
X162569070Y-82699312D01*
X162265222Y-82573144D01*
X161936221Y-82572857D01*
X161632154Y-82698495D01*
X161399312Y-82930930D01*
X161273144Y-83234778D01*
X161272857Y-83563779D01*
X161126870Y-83563779D01*
X161127156Y-83236221D01*
X161001518Y-82932154D01*
X160769083Y-82699312D01*
X160465235Y-82573144D01*
X160136234Y-82572857D01*
X159832167Y-82698495D01*
X159800154Y-82730452D01*
X159769068Y-82699312D01*
X159465220Y-82573144D01*
X159136219Y-82572857D01*
X158832152Y-82698495D01*
X158599310Y-82930930D01*
X158473142Y-83234778D01*
X158472855Y-83563779D01*
X157635249Y-83563779D01*
X157746795Y-83295147D01*
X157747204Y-82826907D01*
X157568394Y-82394154D01*
X157237588Y-82062770D01*
X156805147Y-81883205D01*
X156336907Y-81882796D01*
X155904154Y-82061606D01*
X155572770Y-82392412D01*
X155393205Y-82824853D01*
X155392796Y-83293093D01*
X155206796Y-83293093D01*
X155207204Y-82826907D01*
X155028394Y-82394154D01*
X154697588Y-82062770D01*
X154265147Y-81883205D01*
X153796907Y-81882796D01*
X153364154Y-82061606D01*
X153032770Y-82392412D01*
X152853205Y-82824853D01*
X152852796Y-83293093D01*
X152666796Y-83293093D01*
X152667204Y-82826907D01*
X152488394Y-82394154D01*
X152157588Y-82062770D01*
X151725147Y-81883205D01*
X151256907Y-81882796D01*
X150824154Y-82061606D01*
X150492770Y-82392412D01*
X150323568Y-82799896D01*
X150319230Y-82714552D01*
X150162460Y-82336077D01*
X149921517Y-82268088D01*
X149129605Y-83060000D01*
X148770395Y-83060000D01*
X147978483Y-82268088D01*
X147737540Y-82336077D01*
X147574124Y-82795251D01*
X147408394Y-82394154D01*
X147103257Y-82088483D01*
X148158088Y-82088483D01*
X148950000Y-82880395D01*
X149741912Y-82088483D01*
X149673923Y-81847540D01*
X149154829Y-81662799D01*
X148604552Y-81690770D01*
X148226077Y-81847540D01*
X148158088Y-82088483D01*
X147103257Y-82088483D01*
X147077588Y-82062770D01*
X146645147Y-81883205D01*
X146176907Y-81882796D01*
X145744154Y-82061606D01*
X145412770Y-82392412D01*
X145233205Y-82824853D01*
X145232796Y-83293093D01*
X145055365Y-83293093D01*
X145055365Y-82310000D01*
X145025591Y-82151763D01*
X144932073Y-82006433D01*
X144789381Y-81908936D01*
X144620000Y-81874635D01*
X143120000Y-81874635D01*
X142961763Y-81904409D01*
X142816433Y-81997927D01*
X142718936Y-82140619D01*
X142684635Y-82310000D01*
X142684635Y-82683698D01*
X142369027Y-81919868D01*
X141951888Y-81502000D01*
X168873000Y-81502000D01*
X168873000Y-110650000D01*
X168873000Y-110650000D01*
G37*
X168873000Y-110650000D02*
X168883006Y-110699410D01*
X168902436Y-110731303D01*
X169373000Y-111295980D01*
X169373000Y-112498000D01*
X141452244Y-112498000D01*
X141865392Y-112085573D01*
X142426361Y-110734609D01*
X142426783Y-110250000D01*
X142684635Y-110250000D01*
X142684635Y-111750000D01*
X142714409Y-111908237D01*
X142807927Y-112053567D01*
X142950619Y-112151064D01*
X143120000Y-112185365D01*
X144620000Y-112185365D01*
X144778237Y-112155591D01*
X144923567Y-112062073D01*
X145021064Y-111919381D01*
X145055365Y-111750000D01*
X145055365Y-111233093D01*
X145232796Y-111233093D01*
X145411606Y-111665846D01*
X145742412Y-111997230D01*
X146174853Y-112176795D01*
X146643093Y-112177204D01*
X147075846Y-111998394D01*
X147407230Y-111667588D01*
X147586795Y-111235147D01*
X147586796Y-111233093D01*
X147772796Y-111233093D01*
X147951606Y-111665846D01*
X148282412Y-111997230D01*
X148714853Y-112176795D01*
X149183093Y-112177204D01*
X149615846Y-111998394D01*
X149947230Y-111667588D01*
X150126795Y-111235147D01*
X150126796Y-111233093D01*
X150312796Y-111233093D01*
X150491606Y-111665846D01*
X150822412Y-111997230D01*
X151254853Y-112176795D01*
X151723093Y-112177204D01*
X152155846Y-111998394D01*
X152182769Y-111971517D01*
X153238088Y-111971517D01*
X153306077Y-112212460D01*
X153825171Y-112397201D01*
X154375448Y-112369230D01*
X154753923Y-112212460D01*
X154821912Y-111971517D01*
X154030000Y-111179605D01*
X153238088Y-111971517D01*
X152182769Y-111971517D01*
X152487230Y-111667588D01*
X152656432Y-111260104D01*
X152660770Y-111345448D01*
X152817540Y-111723923D01*
X153058483Y-111791912D01*
X153850395Y-111000000D01*
X153058483Y-110208088D01*
X152817540Y-110276077D01*
X152654124Y-110735251D01*
X152488394Y-110334154D01*
X152183257Y-110028483D01*
X153238088Y-110028483D01*
X154030000Y-110820395D01*
X154044143Y-110806253D01*
X154223748Y-110985858D01*
X154209605Y-111000000D01*
X155001517Y-111791912D01*
X155242460Y-111723923D01*
X155427201Y-111204829D01*
X155426025Y-111181698D01*
X155534778Y-111226856D01*
X155863779Y-111227143D01*
X156167846Y-111101505D01*
X156400688Y-110869070D01*
X156526856Y-110565222D01*
X156527143Y-110236221D01*
X156401505Y-109932154D01*
X156169070Y-109699312D01*
X155865222Y-109573144D01*
X155536221Y-109572857D01*
X155232154Y-109698495D01*
X154999312Y-109930930D01*
X154986155Y-109962615D01*
X154936966Y-109913426D01*
X154821911Y-110028481D01*
X154753923Y-109787540D01*
X154234829Y-109602799D01*
X153684552Y-109630770D01*
X153306077Y-109787540D01*
X153238088Y-110028483D01*
X152183257Y-110028483D01*
X152157588Y-110002770D01*
X151725147Y-109823205D01*
X151256907Y-109822796D01*
X150824154Y-110001606D01*
X150492770Y-110332412D01*
X150313205Y-110764853D01*
X150312796Y-111233093D01*
X150126796Y-111233093D01*
X150127204Y-110766907D01*
X149948394Y-110334154D01*
X149617588Y-110002770D01*
X149185147Y-109823205D01*
X148716907Y-109822796D01*
X148284154Y-110001606D01*
X147952770Y-110332412D01*
X147773205Y-110764853D01*
X147772796Y-111233093D01*
X147586796Y-111233093D01*
X147587204Y-110766907D01*
X147408394Y-110334154D01*
X147077588Y-110002770D01*
X146645147Y-109823205D01*
X146176907Y-109822796D01*
X145744154Y-110001606D01*
X145412770Y-110332412D01*
X145233205Y-110764853D01*
X145232796Y-111233093D01*
X145055365Y-111233093D01*
X145055365Y-110250000D01*
X145025591Y-110091763D01*
X144932073Y-109946433D01*
X144789381Y-109848936D01*
X144620000Y-109814635D01*
X143120000Y-109814635D01*
X142961763Y-109844409D01*
X142816433Y-109937927D01*
X142718936Y-110080619D01*
X142684635Y-110250000D01*
X142426783Y-110250000D01*
X142427637Y-109271808D01*
X141869027Y-107919868D01*
X141644726Y-107695175D01*
X156066780Y-107695175D01*
X156192418Y-107999242D01*
X156424853Y-108232084D01*
X156728701Y-108358252D01*
X157057702Y-108358539D01*
X157361769Y-108232901D01*
X157572225Y-108022813D01*
X157729845Y-108180709D01*
X158033693Y-108306877D01*
X158362694Y-108307164D01*
X158666761Y-108181526D01*
X158899603Y-107949091D01*
X159025771Y-107645243D01*
X159026058Y-107316242D01*
X158963062Y-107163779D01*
X167122857Y-107163779D01*
X167248495Y-107467846D01*
X167480930Y-107700688D01*
X167784778Y-107826856D01*
X168113779Y-107827143D01*
X168417846Y-107701505D01*
X168650688Y-107469070D01*
X168776856Y-107165222D01*
X168777143Y-106836221D01*
X168651505Y-106532154D01*
X168419070Y-106299312D01*
X168115222Y-106173144D01*
X167786221Y-106172857D01*
X167482154Y-106298495D01*
X167249312Y-106530930D01*
X167123144Y-106834778D01*
X167122857Y-107163779D01*
X158963062Y-107163779D01*
X158900420Y-107012175D01*
X158667985Y-106779333D01*
X158364137Y-106653165D01*
X158035136Y-106652878D01*
X157731069Y-106778516D01*
X157520613Y-106988604D01*
X157362993Y-106830708D01*
X157059145Y-106704540D01*
X156730144Y-106704253D01*
X156426077Y-106829891D01*
X156193235Y-107062326D01*
X156067067Y-107366174D01*
X156066780Y-107695175D01*
X141644726Y-107695175D01*
X140835573Y-106884608D01*
X139940334Y-106512873D01*
X139967846Y-106501505D01*
X140200688Y-106269070D01*
X140326856Y-105965222D01*
X140326940Y-105868779D01*
X155372857Y-105868779D01*
X155498495Y-106172846D01*
X155730930Y-106405688D01*
X156034778Y-106531856D01*
X156363779Y-106532143D01*
X156667846Y-106406505D01*
X156752527Y-106321972D01*
X156930930Y-106500688D01*
X157234778Y-106626856D01*
X157563779Y-106627143D01*
X157867846Y-106501505D01*
X158100688Y-106269070D01*
X158226856Y-105965222D01*
X158227114Y-105668779D01*
X158272857Y-105668779D01*
X158398495Y-105972846D01*
X158630930Y-106205688D01*
X158934778Y-106331856D01*
X159263779Y-106332143D01*
X159567846Y-106206505D01*
X159800688Y-105974070D01*
X159926856Y-105670222D01*
X159927143Y-105341221D01*
X159917099Y-105316912D01*
X160068270Y-105468348D01*
X160372118Y-105594516D01*
X160701119Y-105594803D01*
X160776202Y-105563779D01*
X166222861Y-105563779D01*
X166348499Y-105867846D01*
X166580934Y-106100688D01*
X166884782Y-106226856D01*
X167213783Y-106227143D01*
X167517850Y-106101505D01*
X167750692Y-105869070D01*
X167876860Y-105565222D01*
X167877147Y-105236221D01*
X167751509Y-104932154D01*
X167519074Y-104699312D01*
X167215226Y-104573144D01*
X166886225Y-104572857D01*
X166582158Y-104698495D01*
X166349316Y-104930930D01*
X166223148Y-105234778D01*
X166222861Y-105563779D01*
X160776202Y-105563779D01*
X161005186Y-105469165D01*
X161238028Y-105236730D01*
X161364196Y-104932882D01*
X161364483Y-104603881D01*
X161238845Y-104299814D01*
X161006410Y-104066972D01*
X160702562Y-103940804D01*
X160595279Y-103940710D01*
X160720055Y-103640214D01*
X160720342Y-103311213D01*
X160594704Y-103007146D01*
X160362269Y-102774304D01*
X160058421Y-102648136D01*
X159729420Y-102647849D01*
X159425353Y-102773487D01*
X159192511Y-103005922D01*
X159066343Y-103309770D01*
X159066056Y-103638771D01*
X159191694Y-103942838D01*
X159424129Y-104175680D01*
X159727977Y-104301848D01*
X159835260Y-104301942D01*
X159710484Y-104602438D01*
X159710197Y-104931439D01*
X159720241Y-104955748D01*
X159569070Y-104804312D01*
X159265222Y-104678144D01*
X158936221Y-104677857D01*
X158632154Y-104803495D01*
X158399312Y-105035930D01*
X158273144Y-105339778D01*
X158272857Y-105668779D01*
X158227114Y-105668779D01*
X158227143Y-105636221D01*
X158101505Y-105332154D01*
X157869070Y-105099312D01*
X157565222Y-104973144D01*
X157236221Y-104972857D01*
X156932154Y-105098495D01*
X156847473Y-105183028D01*
X156669070Y-105004312D01*
X156365222Y-104878144D01*
X156036221Y-104877857D01*
X155732154Y-105003495D01*
X155499312Y-105235930D01*
X155373144Y-105539778D01*
X155372857Y-105868779D01*
X140326940Y-105868779D01*
X140327143Y-105636221D01*
X140201505Y-105332154D01*
X139969070Y-105099312D01*
X139665222Y-104973144D01*
X139336221Y-104972857D01*
X139032154Y-105098495D01*
X138799312Y-105330930D01*
X138673144Y-105634778D01*
X138672857Y-105963779D01*
X138798495Y-106267846D01*
X138853641Y-106323089D01*
X138021808Y-106322363D01*
X136752000Y-106847037D01*
X136752000Y-102663779D01*
X149422857Y-102663779D01*
X149548495Y-102967846D01*
X149780930Y-103200688D01*
X150084778Y-103326856D01*
X150413779Y-103327143D01*
X150717846Y-103201505D01*
X150950688Y-102969070D01*
X150971784Y-102918266D01*
X151067867Y-103150805D01*
X151300302Y-103383647D01*
X151604150Y-103509815D01*
X151933151Y-103510102D01*
X152237218Y-103384464D01*
X152470060Y-103152029D01*
X152596228Y-102848181D01*
X152596515Y-102519180D01*
X152470877Y-102215113D01*
X152238442Y-101982271D01*
X151934594Y-101856103D01*
X151605593Y-101855816D01*
X151301526Y-101981454D01*
X151068684Y-102213889D01*
X151047588Y-102264693D01*
X150951505Y-102032154D01*
X150747548Y-101827840D01*
X150932320Y-101751494D01*
X151165162Y-101519059D01*
X151291330Y-101215211D01*
X151291617Y-100886210D01*
X151165979Y-100582143D01*
X150933544Y-100349301D01*
X150629696Y-100223133D01*
X150300695Y-100222846D01*
X149996628Y-100348484D01*
X149763786Y-100580919D01*
X149637618Y-100884767D01*
X149637331Y-101213768D01*
X149762969Y-101517835D01*
X149966926Y-101722149D01*
X149782154Y-101798495D01*
X149549312Y-102030930D01*
X149423144Y-102334778D01*
X149422857Y-102663779D01*
X136752000Y-102663779D01*
X136752000Y-100313779D01*
X139522857Y-100313779D01*
X139648495Y-100617846D01*
X139880930Y-100850688D01*
X140184778Y-100976856D01*
X140513779Y-100977143D01*
X140817846Y-100851505D01*
X141050688Y-100619070D01*
X141176856Y-100315222D01*
X141176906Y-100257635D01*
X146298222Y-100257635D01*
X146423860Y-100561702D01*
X146656295Y-100794544D01*
X146960143Y-100920712D01*
X147289144Y-100920999D01*
X147593211Y-100795361D01*
X147826053Y-100562926D01*
X147952221Y-100259078D01*
X147952305Y-100161946D01*
X154610669Y-100161946D01*
X154736307Y-100466013D01*
X154968742Y-100698855D01*
X155272590Y-100825023D01*
X155601591Y-100825310D01*
X155905658Y-100699672D01*
X155961166Y-100644261D01*
X155967594Y-100650700D01*
X156271442Y-100776868D01*
X156600443Y-100777155D01*
X156904510Y-100651517D01*
X157137352Y-100419082D01*
X157263520Y-100115234D01*
X157263807Y-99786233D01*
X157138169Y-99482166D01*
X156905734Y-99249324D01*
X156601886Y-99123156D01*
X156272885Y-99122869D01*
X155968818Y-99248507D01*
X155913310Y-99303918D01*
X155906882Y-99297479D01*
X155603034Y-99171311D01*
X155274033Y-99171024D01*
X154969966Y-99296662D01*
X154737124Y-99529097D01*
X154610956Y-99832945D01*
X154610669Y-100161946D01*
X147952305Y-100161946D01*
X147952386Y-100069867D01*
X148117834Y-100001505D01*
X148350676Y-99769070D01*
X148476844Y-99465222D01*
X148477131Y-99136221D01*
X148351493Y-98832154D01*
X148183413Y-98663779D01*
X150972718Y-98663779D01*
X151098356Y-98967846D01*
X151330791Y-99200688D01*
X151634639Y-99326856D01*
X151963640Y-99327143D01*
X152267707Y-99201505D01*
X152500549Y-98969070D01*
X152626717Y-98665222D01*
X152627004Y-98336221D01*
X152597072Y-98263779D01*
X155622857Y-98263779D01*
X155748495Y-98567846D01*
X155980930Y-98800688D01*
X156284778Y-98926856D01*
X156613779Y-98927143D01*
X156917846Y-98801505D01*
X157150688Y-98569070D01*
X157276856Y-98265222D01*
X157277143Y-97936221D01*
X157151505Y-97632154D01*
X156919070Y-97399312D01*
X156615222Y-97273144D01*
X156286221Y-97272857D01*
X155982154Y-97398495D01*
X155749312Y-97630930D01*
X155623144Y-97934778D01*
X155622857Y-98263779D01*
X152597072Y-98263779D01*
X152501366Y-98032154D01*
X152268931Y-97799312D01*
X151965083Y-97673144D01*
X151636082Y-97672857D01*
X151332015Y-97798495D01*
X151099173Y-98030930D01*
X150973005Y-98334778D01*
X150972718Y-98663779D01*
X148183413Y-98663779D01*
X148119058Y-98599312D01*
X147815210Y-98473144D01*
X147486209Y-98472857D01*
X147182142Y-98598495D01*
X146949300Y-98830930D01*
X146823132Y-99134778D01*
X146822967Y-99323989D01*
X146657519Y-99392351D01*
X146424677Y-99624786D01*
X146298509Y-99928634D01*
X146298222Y-100257635D01*
X141176906Y-100257635D01*
X141177143Y-99986221D01*
X141051505Y-99682154D01*
X140819070Y-99449312D01*
X140515222Y-99323144D01*
X140186221Y-99322857D01*
X139882154Y-99448495D01*
X139649312Y-99680930D01*
X139523144Y-99984778D01*
X139522857Y-100313779D01*
X136752000Y-100313779D01*
X136752000Y-99363779D01*
X137372857Y-99363779D01*
X137498495Y-99667846D01*
X137730930Y-99900688D01*
X138034778Y-100026856D01*
X138363779Y-100027143D01*
X138667846Y-99901505D01*
X138900688Y-99669070D01*
X139026856Y-99365222D01*
X139027143Y-99036221D01*
X138901505Y-98732154D01*
X138783337Y-98613779D01*
X139522857Y-98613779D01*
X139648495Y-98917846D01*
X139880930Y-99150688D01*
X140184778Y-99276856D01*
X140513779Y-99277143D01*
X140817846Y-99151505D01*
X141050688Y-98919070D01*
X141176856Y-98615222D01*
X141177143Y-98286221D01*
X141051505Y-97982154D01*
X140819070Y-97749312D01*
X140515222Y-97623144D01*
X140186221Y-97622857D01*
X139882154Y-97748495D01*
X139649312Y-97980930D01*
X139523144Y-98284778D01*
X139522857Y-98613779D01*
X138783337Y-98613779D01*
X138669070Y-98499312D01*
X138365222Y-98373144D01*
X138036221Y-98372857D01*
X137732154Y-98498495D01*
X137499312Y-98730930D01*
X137373144Y-99034778D01*
X137372857Y-99363779D01*
X136752000Y-99363779D01*
X136752000Y-93750000D01*
X142373000Y-93750000D01*
X142373000Y-97505000D01*
X142381726Y-97551262D01*
X142409042Y-97593633D01*
X142450692Y-97622037D01*
X142500110Y-97632000D01*
X148250110Y-97627000D01*
X151000000Y-97627000D01*
X151046159Y-97618315D01*
X151088553Y-97591035D01*
X151116994Y-97549410D01*
X151127000Y-97500000D01*
X151127000Y-96863779D01*
X164822857Y-96863779D01*
X164948495Y-97167846D01*
X165180930Y-97400688D01*
X165484778Y-97526856D01*
X165813779Y-97527143D01*
X166117846Y-97401505D01*
X166350688Y-97169070D01*
X166476856Y-96865222D01*
X166477143Y-96536221D01*
X166351505Y-96232154D01*
X166119070Y-95999312D01*
X165815222Y-95873144D01*
X165486221Y-95872857D01*
X165182154Y-95998495D01*
X164949312Y-96230930D01*
X164823144Y-96534778D01*
X164822857Y-96863779D01*
X151127000Y-96863779D01*
X151127000Y-96250000D01*
X151106008Y-96180063D01*
X151070447Y-96144330D01*
X150545773Y-95794547D01*
X151013473Y-95794547D01*
X151139111Y-96098614D01*
X151371546Y-96331456D01*
X151675394Y-96457624D01*
X152004395Y-96457911D01*
X152308462Y-96332273D01*
X152541304Y-96099838D01*
X152560068Y-96054647D01*
X161358722Y-96054647D01*
X161484360Y-96358714D01*
X161716795Y-96591556D01*
X162020643Y-96717724D01*
X162349644Y-96718011D01*
X162653711Y-96592373D01*
X162886553Y-96359938D01*
X163012721Y-96056090D01*
X163013008Y-95727089D01*
X162887370Y-95423022D01*
X162654935Y-95190180D01*
X162591354Y-95163779D01*
X166122857Y-95163779D01*
X166248495Y-95467846D01*
X166480930Y-95700688D01*
X166784778Y-95826856D01*
X167113779Y-95827143D01*
X167417846Y-95701505D01*
X167650688Y-95469070D01*
X167776856Y-95165222D01*
X167777143Y-94836221D01*
X167651505Y-94532154D01*
X167419070Y-94299312D01*
X167115222Y-94173144D01*
X166786221Y-94172857D01*
X166482154Y-94298495D01*
X166249312Y-94530930D01*
X166123144Y-94834778D01*
X166122857Y-95163779D01*
X162591354Y-95163779D01*
X162351087Y-95064012D01*
X162022086Y-95063725D01*
X161718019Y-95189363D01*
X161485177Y-95421798D01*
X161359009Y-95725646D01*
X161358722Y-96054647D01*
X152560068Y-96054647D01*
X152667472Y-95795990D01*
X152667759Y-95466989D01*
X152635306Y-95388445D01*
X155343226Y-95388445D01*
X155468864Y-95692512D01*
X155701299Y-95925354D01*
X156005147Y-96051522D01*
X156334148Y-96051809D01*
X156638215Y-95926171D01*
X156871057Y-95693736D01*
X156997225Y-95389888D01*
X156997512Y-95060887D01*
X156871874Y-94756820D01*
X156639439Y-94523978D01*
X156335591Y-94397810D01*
X156006590Y-94397523D01*
X155702523Y-94523161D01*
X155469681Y-94755596D01*
X155343513Y-95059444D01*
X155343226Y-95388445D01*
X152635306Y-95388445D01*
X152542121Y-95162922D01*
X152309686Y-94930080D01*
X152005838Y-94803912D01*
X151676837Y-94803625D01*
X151372770Y-94929263D01*
X151139928Y-95161698D01*
X151013760Y-95465546D01*
X151013473Y-95794547D01*
X150545773Y-95794547D01*
X147320447Y-93644330D01*
X147250000Y-93623000D01*
X142500000Y-93623000D01*
X142453841Y-93631685D01*
X142411447Y-93658965D01*
X142383006Y-93700590D01*
X142373000Y-93750000D01*
X136752000Y-93750000D01*
X136752000Y-93176880D01*
X147657387Y-93176880D01*
X147783025Y-93480947D01*
X148015460Y-93713789D01*
X148319308Y-93839957D01*
X148648309Y-93840244D01*
X148952376Y-93714606D01*
X149169961Y-93497401D01*
X149204174Y-93580203D01*
X149436609Y-93813045D01*
X149740457Y-93939213D01*
X150069458Y-93939500D01*
X150373525Y-93813862D01*
X150606367Y-93581427D01*
X150732535Y-93277579D01*
X150732765Y-93013779D01*
X152897867Y-93013779D01*
X153023505Y-93317846D01*
X153255940Y-93550688D01*
X153559788Y-93676856D01*
X153888789Y-93677143D01*
X154192856Y-93551505D01*
X154425698Y-93319070D01*
X154490180Y-93163779D01*
X158322857Y-93163779D01*
X158448495Y-93467846D01*
X158680930Y-93700688D01*
X158984778Y-93826856D01*
X159313779Y-93827143D01*
X159617846Y-93701505D01*
X159725437Y-93594102D01*
X159830739Y-93699588D01*
X160134587Y-93825756D01*
X160463588Y-93826043D01*
X160767655Y-93700405D01*
X161000497Y-93467970D01*
X161096655Y-93236394D01*
X161123485Y-93301327D01*
X161355920Y-93534169D01*
X161659768Y-93660337D01*
X161988769Y-93660624D01*
X162292836Y-93534986D01*
X162525678Y-93302551D01*
X162651846Y-92998703D01*
X162652133Y-92669702D01*
X162531389Y-92377480D01*
X162611206Y-92297803D01*
X162737374Y-91993955D01*
X162737661Y-91664954D01*
X162612023Y-91360887D01*
X162379588Y-91128045D01*
X162075740Y-91001877D01*
X161746739Y-91001590D01*
X161442672Y-91127228D01*
X161421239Y-91148623D01*
X161393882Y-91082414D01*
X161161447Y-90849572D01*
X160857599Y-90723404D01*
X160528598Y-90723117D01*
X160224531Y-90848755D01*
X159991689Y-91081190D01*
X159865521Y-91385038D01*
X159865234Y-91714039D01*
X159990872Y-92018106D01*
X160144262Y-92171764D01*
X160136030Y-92171757D01*
X159831963Y-92297395D01*
X159724372Y-92404798D01*
X159619070Y-92299312D01*
X159315222Y-92173144D01*
X158986221Y-92172857D01*
X158682154Y-92298495D01*
X158449312Y-92530930D01*
X158323144Y-92834778D01*
X158322857Y-93163779D01*
X154490180Y-93163779D01*
X154551866Y-93015222D01*
X154552153Y-92686221D01*
X154470990Y-92489791D01*
X154473389Y-92490787D01*
X154802390Y-92491074D01*
X155106457Y-92365436D01*
X155339299Y-92133001D01*
X155465467Y-91829153D01*
X155465754Y-91500152D01*
X155340116Y-91196085D01*
X155107681Y-90963243D01*
X154803833Y-90837075D01*
X154496086Y-90836807D01*
X154434871Y-90688655D01*
X154202436Y-90455813D01*
X153898588Y-90329645D01*
X153569587Y-90329358D01*
X153265520Y-90454996D01*
X153032678Y-90687431D01*
X152906510Y-90991279D01*
X152906223Y-91320280D01*
X153031861Y-91624347D01*
X153264296Y-91857189D01*
X153568144Y-91983357D01*
X153875891Y-91983625D01*
X153892631Y-92024140D01*
X153890232Y-92023144D01*
X153561231Y-92022857D01*
X153257164Y-92148495D01*
X153024322Y-92380930D01*
X152898154Y-92684778D01*
X152897867Y-93013779D01*
X150732765Y-93013779D01*
X150732822Y-92948578D01*
X150607184Y-92644511D01*
X150374749Y-92411669D01*
X150071081Y-92285576D01*
X150071157Y-92198778D01*
X149945519Y-91894711D01*
X149713084Y-91661869D01*
X149409236Y-91535701D01*
X149080235Y-91535414D01*
X148776168Y-91661052D01*
X148543326Y-91893487D01*
X148421845Y-92186046D01*
X148320751Y-92185958D01*
X148016684Y-92311596D01*
X147783842Y-92544031D01*
X147657674Y-92847879D01*
X147657387Y-93176880D01*
X136752000Y-93176880D01*
X136752000Y-90763785D01*
X140522857Y-90763785D01*
X140648495Y-91067852D01*
X140880930Y-91300694D01*
X141184778Y-91426862D01*
X141513779Y-91427149D01*
X141817846Y-91301511D01*
X142050688Y-91069076D01*
X142176856Y-90765228D01*
X142177143Y-90436227D01*
X142051505Y-90132160D01*
X141819070Y-89899318D01*
X141515222Y-89773150D01*
X141186221Y-89772863D01*
X140882154Y-89898501D01*
X140649312Y-90130936D01*
X140523144Y-90434784D01*
X140522857Y-90763785D01*
X136752000Y-90763785D01*
X136752000Y-89763779D01*
X146372857Y-89763779D01*
X146498495Y-90067846D01*
X146730930Y-90300688D01*
X147034778Y-90426856D01*
X147363779Y-90427143D01*
X147667846Y-90301505D01*
X147900688Y-90069070D01*
X148026856Y-89765222D01*
X148027143Y-89436221D01*
X147901505Y-89132154D01*
X147669070Y-88899312D01*
X147365222Y-88773144D01*
X147036221Y-88772857D01*
X146732154Y-88898495D01*
X146499312Y-89130930D01*
X146373144Y-89434778D01*
X146372857Y-89763779D01*
X136752000Y-89763779D01*
X136752000Y-88563779D01*
X152122857Y-88563779D01*
X152248495Y-88867846D01*
X152480930Y-89100688D01*
X152784778Y-89226856D01*
X153113779Y-89227143D01*
X153417846Y-89101505D01*
X153579840Y-88939794D01*
X153517009Y-89091109D01*
X153516722Y-89420110D01*
X153642360Y-89724177D01*
X153874795Y-89957019D01*
X154178643Y-90083187D01*
X154240143Y-90083241D01*
X154240119Y-90110560D01*
X154365757Y-90414627D01*
X154598192Y-90647469D01*
X154902040Y-90773637D01*
X155231041Y-90773924D01*
X155535108Y-90648286D01*
X155767950Y-90415851D01*
X155894118Y-90112003D01*
X155894405Y-89783002D01*
X155768767Y-89478935D01*
X155536332Y-89246093D01*
X155232484Y-89119925D01*
X155170984Y-89119871D01*
X155171008Y-89092552D01*
X155097141Y-88913779D01*
X166222857Y-88913779D01*
X166348495Y-89217846D01*
X166580930Y-89450688D01*
X166884778Y-89576856D01*
X167213779Y-89577143D01*
X167517846Y-89451505D01*
X167750688Y-89219070D01*
X167876856Y-88915222D01*
X167877143Y-88586221D01*
X167751505Y-88282154D01*
X167519070Y-88049312D01*
X167215222Y-87923144D01*
X166886221Y-87922857D01*
X166582154Y-88048495D01*
X166349312Y-88280930D01*
X166223144Y-88584778D01*
X166222857Y-88913779D01*
X155097141Y-88913779D01*
X155045370Y-88788485D01*
X154812935Y-88555643D01*
X154679304Y-88500155D01*
X154776856Y-88265222D01*
X154777143Y-87936221D01*
X154705892Y-87763779D01*
X159522857Y-87763779D01*
X159648495Y-88067846D01*
X159880930Y-88300688D01*
X160184778Y-88426856D01*
X160513779Y-88427143D01*
X160817846Y-88301505D01*
X161050688Y-88069070D01*
X161176856Y-87765222D01*
X161177143Y-87436221D01*
X161051505Y-87132154D01*
X160819070Y-86899312D01*
X160515222Y-86773144D01*
X160186221Y-86772857D01*
X159882154Y-86898495D01*
X159649312Y-87130930D01*
X159523144Y-87434778D01*
X159522857Y-87763779D01*
X154705892Y-87763779D01*
X154651505Y-87632154D01*
X154419070Y-87399312D01*
X154115222Y-87273144D01*
X153786221Y-87272857D01*
X153482154Y-87398495D01*
X153250803Y-87629442D01*
X153115222Y-87573144D01*
X152786221Y-87572857D01*
X152482154Y-87698495D01*
X152249312Y-87930930D01*
X152123144Y-88234778D01*
X152122857Y-88563779D01*
X136752000Y-88563779D01*
X136752000Y-86702244D01*
X137164427Y-87115392D01*
X138515391Y-87676361D01*
X139978192Y-87677637D01*
X141330132Y-87119027D01*
X142365392Y-86085573D01*
X142684635Y-85316750D01*
X142684635Y-86350000D01*
X142714409Y-86508237D01*
X142807927Y-86653567D01*
X142950619Y-86751064D01*
X143120000Y-86785365D01*
X144620000Y-86785365D01*
X144778237Y-86755591D01*
X144923567Y-86662073D01*
X145021064Y-86519381D01*
X145055365Y-86350000D01*
X145055365Y-85833093D01*
X145232796Y-85833093D01*
X145411606Y-86265846D01*
X145742412Y-86597230D01*
X146174853Y-86776795D01*
X146643093Y-86777204D01*
X147075846Y-86598394D01*
X147407230Y-86267588D01*
X147586795Y-85835147D01*
X147586796Y-85833093D01*
X147772796Y-85833093D01*
X147951606Y-86265846D01*
X148282412Y-86597230D01*
X148714853Y-86776795D01*
X149183093Y-86777204D01*
X149615846Y-86598394D01*
X149947230Y-86267588D01*
X150126795Y-85835147D01*
X150126796Y-85833093D01*
X150312796Y-85833093D01*
X150491606Y-86265846D01*
X150822412Y-86597230D01*
X151254853Y-86776795D01*
X151723093Y-86777204D01*
X152155846Y-86598394D01*
X152182769Y-86571517D01*
X153238088Y-86571517D01*
X153306077Y-86812460D01*
X153825171Y-86997201D01*
X154375448Y-86969230D01*
X154753923Y-86812460D01*
X154821912Y-86571517D01*
X154030000Y-85779605D01*
X153238088Y-86571517D01*
X152182769Y-86571517D01*
X152487230Y-86267588D01*
X152656432Y-85860104D01*
X152660770Y-85945448D01*
X152817540Y-86323923D01*
X153058483Y-86391912D01*
X153850395Y-85600000D01*
X154209605Y-85600000D01*
X155001517Y-86391912D01*
X155242460Y-86323923D01*
X155427201Y-85804829D01*
X155399230Y-85254552D01*
X155242460Y-84876077D01*
X155001517Y-84808088D01*
X154209605Y-85600000D01*
X153850395Y-85600000D01*
X153058483Y-84808088D01*
X152817540Y-84876077D01*
X152654124Y-85335251D01*
X152488394Y-84934154D01*
X152157588Y-84602770D01*
X151725147Y-84423205D01*
X151256907Y-84422796D01*
X150824154Y-84601606D01*
X150492770Y-84932412D01*
X150313205Y-85364853D01*
X150312796Y-85833093D01*
X150126796Y-85833093D01*
X150127204Y-85366907D01*
X149948394Y-84934154D01*
X149617588Y-84602770D01*
X149210104Y-84433568D01*
X149295448Y-84429230D01*
X149673923Y-84272460D01*
X149741912Y-84031517D01*
X148950000Y-83239605D01*
X148158088Y-84031517D01*
X148226077Y-84272460D01*
X148685251Y-84435876D01*
X148284154Y-84601606D01*
X147952770Y-84932412D01*
X147773205Y-85364853D01*
X147772796Y-85833093D01*
X147586796Y-85833093D01*
X147587204Y-85366907D01*
X147408394Y-84934154D01*
X147077588Y-84602770D01*
X146645147Y-84423205D01*
X146176907Y-84422796D01*
X145744154Y-84601606D01*
X145412770Y-84932412D01*
X145233205Y-85364853D01*
X145232796Y-85833093D01*
X145055365Y-85833093D01*
X145055365Y-84850000D01*
X145025591Y-84691763D01*
X144932073Y-84546433D01*
X144789381Y-84448936D01*
X144620000Y-84414635D01*
X143120000Y-84414635D01*
X142961763Y-84444409D01*
X142926594Y-84467040D01*
X142926832Y-84194811D01*
X142950619Y-84211064D01*
X143120000Y-84245365D01*
X144620000Y-84245365D01*
X144778237Y-84215591D01*
X144923567Y-84122073D01*
X145021064Y-83979381D01*
X145055365Y-83810000D01*
X145055365Y-83293093D01*
X145232796Y-83293093D01*
X145411606Y-83725846D01*
X145742412Y-84057230D01*
X146174853Y-84236795D01*
X146643093Y-84237204D01*
X147075846Y-84058394D01*
X147407230Y-83727588D01*
X147576432Y-83320104D01*
X147580770Y-83405448D01*
X147737540Y-83783923D01*
X147978483Y-83851912D01*
X148770395Y-83060000D01*
X149129605Y-83060000D01*
X149921517Y-83851912D01*
X150162460Y-83783923D01*
X150325876Y-83324749D01*
X150491606Y-83725846D01*
X150822412Y-84057230D01*
X151254853Y-84236795D01*
X151723093Y-84237204D01*
X152155846Y-84058394D01*
X152487230Y-83727588D01*
X152666795Y-83295147D01*
X152666796Y-83293093D01*
X152852796Y-83293093D01*
X153031606Y-83725846D01*
X153362412Y-84057230D01*
X153769896Y-84226432D01*
X153684552Y-84230770D01*
X153306077Y-84387540D01*
X153238088Y-84628483D01*
X154030000Y-85420395D01*
X154821912Y-84628483D01*
X154753923Y-84387540D01*
X154294749Y-84224124D01*
X154695846Y-84058394D01*
X155027230Y-83727588D01*
X155206795Y-83295147D01*
X155206796Y-83293093D01*
X155392796Y-83293093D01*
X155571606Y-83725846D01*
X155902412Y-84057230D01*
X156334853Y-84236795D01*
X156803093Y-84237204D01*
X157235846Y-84058394D01*
X157567230Y-83727588D01*
X157635249Y-83563779D01*
X158472855Y-83563779D01*
X158598493Y-83867846D01*
X158830928Y-84100688D01*
X159134776Y-84226856D01*
X159463777Y-84227143D01*
X159767844Y-84101505D01*
X159799857Y-84069548D01*
X159830943Y-84100688D01*
X160134791Y-84226856D01*
X160463792Y-84227143D01*
X160767859Y-84101505D01*
X161000701Y-83869070D01*
X161126869Y-83565222D01*
X161126870Y-83563779D01*
X161272857Y-83563779D01*
X161398495Y-83867846D01*
X161630930Y-84100688D01*
X161934778Y-84226856D01*
X162263779Y-84227143D01*
X162567846Y-84101505D01*
X162800688Y-83869070D01*
X162926856Y-83565222D01*
X162927143Y-83236221D01*
X162801505Y-82932154D01*
X162569070Y-82699312D01*
X162265222Y-82573144D01*
X161936221Y-82572857D01*
X161632154Y-82698495D01*
X161399312Y-82930930D01*
X161273144Y-83234778D01*
X161272857Y-83563779D01*
X161126870Y-83563779D01*
X161127156Y-83236221D01*
X161001518Y-82932154D01*
X160769083Y-82699312D01*
X160465235Y-82573144D01*
X160136234Y-82572857D01*
X159832167Y-82698495D01*
X159800154Y-82730452D01*
X159769068Y-82699312D01*
X159465220Y-82573144D01*
X159136219Y-82572857D01*
X158832152Y-82698495D01*
X158599310Y-82930930D01*
X158473142Y-83234778D01*
X158472855Y-83563779D01*
X157635249Y-83563779D01*
X157746795Y-83295147D01*
X157747204Y-82826907D01*
X157568394Y-82394154D01*
X157237588Y-82062770D01*
X156805147Y-81883205D01*
X156336907Y-81882796D01*
X155904154Y-82061606D01*
X155572770Y-82392412D01*
X155393205Y-82824853D01*
X155392796Y-83293093D01*
X155206796Y-83293093D01*
X155207204Y-82826907D01*
X155028394Y-82394154D01*
X154697588Y-82062770D01*
X154265147Y-81883205D01*
X153796907Y-81882796D01*
X153364154Y-82061606D01*
X153032770Y-82392412D01*
X152853205Y-82824853D01*
X152852796Y-83293093D01*
X152666796Y-83293093D01*
X152667204Y-82826907D01*
X152488394Y-82394154D01*
X152157588Y-82062770D01*
X151725147Y-81883205D01*
X151256907Y-81882796D01*
X150824154Y-82061606D01*
X150492770Y-82392412D01*
X150323568Y-82799896D01*
X150319230Y-82714552D01*
X150162460Y-82336077D01*
X149921517Y-82268088D01*
X149129605Y-83060000D01*
X148770395Y-83060000D01*
X147978483Y-82268088D01*
X147737540Y-82336077D01*
X147574124Y-82795251D01*
X147408394Y-82394154D01*
X147103257Y-82088483D01*
X148158088Y-82088483D01*
X148950000Y-82880395D01*
X149741912Y-82088483D01*
X149673923Y-81847540D01*
X149154829Y-81662799D01*
X148604552Y-81690770D01*
X148226077Y-81847540D01*
X148158088Y-82088483D01*
X147103257Y-82088483D01*
X147077588Y-82062770D01*
X146645147Y-81883205D01*
X146176907Y-81882796D01*
X145744154Y-82061606D01*
X145412770Y-82392412D01*
X145233205Y-82824853D01*
X145232796Y-83293093D01*
X145055365Y-83293093D01*
X145055365Y-82310000D01*
X145025591Y-82151763D01*
X144932073Y-82006433D01*
X144789381Y-81908936D01*
X144620000Y-81874635D01*
X143120000Y-81874635D01*
X142961763Y-81904409D01*
X142816433Y-81997927D01*
X142718936Y-82140619D01*
X142684635Y-82310000D01*
X142684635Y-82683698D01*
X142369027Y-81919868D01*
X141951888Y-81502000D01*
X168873000Y-81502000D01*
X168873000Y-110650000D01*
G36*
X178373000Y-84553336D02*
X178319070Y-84499312D01*
X178015222Y-84373144D01*
X177686221Y-84372857D01*
X177382154Y-84498495D01*
X177149312Y-84730930D01*
X177023144Y-85034778D01*
X177022857Y-85363779D01*
X177148495Y-85667846D01*
X177380930Y-85900688D01*
X177684778Y-86026856D01*
X178013779Y-86027143D01*
X178317846Y-85901505D01*
X178373000Y-85846447D01*
X178373000Y-93226190D01*
X178251505Y-92932150D01*
X178019070Y-92699308D01*
X177715222Y-92573140D01*
X177386221Y-92572853D01*
X177082154Y-92698491D01*
X176849312Y-92930926D01*
X176723144Y-93234774D01*
X176722857Y-93563775D01*
X176848495Y-93867842D01*
X177080930Y-94100684D01*
X177384778Y-94226852D01*
X177713779Y-94227139D01*
X178017846Y-94101501D01*
X178250688Y-93869066D01*
X178373000Y-93574504D01*
X178373000Y-100453512D01*
X178219070Y-100299312D01*
X177915222Y-100173144D01*
X177586221Y-100172857D01*
X177282154Y-100298495D01*
X177049312Y-100530930D01*
X176923144Y-100834778D01*
X176922857Y-101163779D01*
X177048495Y-101467846D01*
X177280930Y-101700688D01*
X177584778Y-101826856D01*
X177913779Y-101827143D01*
X178217846Y-101701505D01*
X178373000Y-101546622D01*
X178373000Y-109873000D01*
X173750000Y-109873000D01*
X173700590Y-109883006D01*
X173658965Y-109911447D01*
X173631685Y-109953841D01*
X173623000Y-110000000D01*
X173623000Y-112498000D01*
X170377000Y-112498000D01*
X170377000Y-111250000D01*
X170366994Y-111200590D01*
X170351600Y-111173800D01*
X169627000Y-110207667D01*
X169627000Y-100563779D01*
X171722857Y-100563779D01*
X171848495Y-100867846D01*
X172080930Y-101100688D01*
X172384778Y-101226856D01*
X172713779Y-101227143D01*
X173017846Y-101101505D01*
X173250688Y-100869070D01*
X173376856Y-100565222D01*
X173377143Y-100236221D01*
X173251505Y-99932154D01*
X173019070Y-99699312D01*
X172715222Y-99573144D01*
X172386221Y-99572857D01*
X172082154Y-99698495D01*
X171849312Y-99930930D01*
X171723144Y-100234778D01*
X171722857Y-100563779D01*
X169627000Y-100563779D01*
X169627000Y-93176443D01*
X172160202Y-93176443D01*
X172285840Y-93480510D01*
X172518275Y-93713352D01*
X172822123Y-93839520D01*
X173151124Y-93839807D01*
X173455191Y-93714169D01*
X173688033Y-93481734D01*
X173814201Y-93177886D01*
X173814488Y-92848885D01*
X173688850Y-92544818D01*
X173456415Y-92311976D01*
X173152567Y-92185808D01*
X172823566Y-92185521D01*
X172519499Y-92311159D01*
X172286657Y-92543594D01*
X172160489Y-92847442D01*
X172160202Y-93176443D01*
X169627000Y-93176443D01*
X169627000Y-85463779D01*
X171722857Y-85463779D01*
X171848495Y-85767846D01*
X172080930Y-86000688D01*
X172384778Y-86126856D01*
X172713779Y-86127143D01*
X173017846Y-86001505D01*
X173250688Y-85769070D01*
X173376856Y-85465222D01*
X173377143Y-85136221D01*
X173251505Y-84832154D01*
X173019070Y-84599312D01*
X172715222Y-84473144D01*
X172386221Y-84472857D01*
X172082154Y-84598495D01*
X171849312Y-84830930D01*
X171723144Y-85134778D01*
X171722857Y-85463779D01*
X169627000Y-85463779D01*
X169627000Y-81502000D01*
X178373000Y-81502000D01*
X178373000Y-84553336D01*
X178373000Y-84553336D01*
G37*
X178373000Y-84553336D02*
X178319070Y-84499312D01*
X178015222Y-84373144D01*
X177686221Y-84372857D01*
X177382154Y-84498495D01*
X177149312Y-84730930D01*
X177023144Y-85034778D01*
X177022857Y-85363779D01*
X177148495Y-85667846D01*
X177380930Y-85900688D01*
X177684778Y-86026856D01*
X178013779Y-86027143D01*
X178317846Y-85901505D01*
X178373000Y-85846447D01*
X178373000Y-93226190D01*
X178251505Y-92932150D01*
X178019070Y-92699308D01*
X177715222Y-92573140D01*
X177386221Y-92572853D01*
X177082154Y-92698491D01*
X176849312Y-92930926D01*
X176723144Y-93234774D01*
X176722857Y-93563775D01*
X176848495Y-93867842D01*
X177080930Y-94100684D01*
X177384778Y-94226852D01*
X177713779Y-94227139D01*
X178017846Y-94101501D01*
X178250688Y-93869066D01*
X178373000Y-93574504D01*
X178373000Y-100453512D01*
X178219070Y-100299312D01*
X177915222Y-100173144D01*
X177586221Y-100172857D01*
X177282154Y-100298495D01*
X177049312Y-100530930D01*
X176923144Y-100834778D01*
X176922857Y-101163779D01*
X177048495Y-101467846D01*
X177280930Y-101700688D01*
X177584778Y-101826856D01*
X177913779Y-101827143D01*
X178217846Y-101701505D01*
X178373000Y-101546622D01*
X178373000Y-109873000D01*
X173750000Y-109873000D01*
X173700590Y-109883006D01*
X173658965Y-109911447D01*
X173631685Y-109953841D01*
X173623000Y-110000000D01*
X173623000Y-112498000D01*
X170377000Y-112498000D01*
X170377000Y-111250000D01*
X170366994Y-111200590D01*
X170351600Y-111173800D01*
X169627000Y-110207667D01*
X169627000Y-100563779D01*
X171722857Y-100563779D01*
X171848495Y-100867846D01*
X172080930Y-101100688D01*
X172384778Y-101226856D01*
X172713779Y-101227143D01*
X173017846Y-101101505D01*
X173250688Y-100869070D01*
X173376856Y-100565222D01*
X173377143Y-100236221D01*
X173251505Y-99932154D01*
X173019070Y-99699312D01*
X172715222Y-99573144D01*
X172386221Y-99572857D01*
X172082154Y-99698495D01*
X171849312Y-99930930D01*
X171723144Y-100234778D01*
X171722857Y-100563779D01*
X169627000Y-100563779D01*
X169627000Y-93176443D01*
X172160202Y-93176443D01*
X172285840Y-93480510D01*
X172518275Y-93713352D01*
X172822123Y-93839520D01*
X173151124Y-93839807D01*
X173455191Y-93714169D01*
X173688033Y-93481734D01*
X173814201Y-93177886D01*
X173814488Y-92848885D01*
X173688850Y-92544818D01*
X173456415Y-92311976D01*
X173152567Y-92185808D01*
X172823566Y-92185521D01*
X172519499Y-92311159D01*
X172286657Y-92543594D01*
X172160489Y-92847442D01*
X172160202Y-93176443D01*
X169627000Y-93176443D01*
X169627000Y-85463779D01*
X171722857Y-85463779D01*
X171848495Y-85767846D01*
X172080930Y-86000688D01*
X172384778Y-86126856D01*
X172713779Y-86127143D01*
X173017846Y-86001505D01*
X173250688Y-85769070D01*
X173376856Y-85465222D01*
X173377143Y-85136221D01*
X173251505Y-84832154D01*
X173019070Y-84599312D01*
X172715222Y-84473144D01*
X172386221Y-84472857D01*
X172082154Y-84598495D01*
X171849312Y-84830930D01*
X171723144Y-85134778D01*
X171722857Y-85463779D01*
X169627000Y-85463779D01*
X169627000Y-81502000D01*
X178373000Y-81502000D01*
X178373000Y-84553336D01*
G36*
X184748000Y-99873000D02*
X179127000Y-99873000D01*
X179127000Y-94377000D01*
X184748000Y-94377000D01*
X184748000Y-99873000D01*
X184748000Y-99873000D01*
G37*
X184748000Y-99873000D02*
X179127000Y-99873000D01*
X179127000Y-94377000D01*
X184748000Y-94377000D01*
X184748000Y-99873000D01*
G36*
X184748000Y-107297756D02*
X184335573Y-106884608D01*
X182984609Y-106323639D01*
X181521808Y-106322363D01*
X180169868Y-106880973D01*
X179134608Y-107914427D01*
X179127000Y-107932749D01*
X179127000Y-101127000D01*
X184748000Y-101127000D01*
X184748000Y-107297756D01*
X184748000Y-107297756D01*
G37*
X184748000Y-107297756D02*
X184335573Y-106884608D01*
X182984609Y-106323639D01*
X181521808Y-106322363D01*
X180169868Y-106880973D01*
X179134608Y-107914427D01*
X179127000Y-107932749D01*
X179127000Y-101127000D01*
X184748000Y-101127000D01*
X184748000Y-107297756D01*
G36*
X179130973Y-86080132D02*
X180164427Y-87115392D01*
X181515391Y-87676361D01*
X182978192Y-87677637D01*
X184330132Y-87119027D01*
X184748000Y-86701888D01*
X184748000Y-93123000D01*
X179127000Y-93123000D01*
X179127000Y-86070517D01*
X179130973Y-86080132D01*
X179130973Y-86080132D01*
G37*
X179130973Y-86080132D02*
X180164427Y-87115392D01*
X181515391Y-87676361D01*
X182978192Y-87677637D01*
X184330132Y-87119027D01*
X184748000Y-86701888D01*
X184748000Y-93123000D01*
X179127000Y-93123000D01*
X179127000Y-86070517D01*
X179130973Y-86080132D01*
M02*
