M48
;DRILL file {KiCad 4.0.6-e0-6349~53~ubuntu16.04.1} date Tue Mar  7 23:33:14 2017
;FORMAT={-:-/ absolute / metric / decimal}
FMAT,2
METRIC,TZ
T1C0.400
T2C0.800
T3C1.000
T4C1.300
%
G90
G05
M71
T1
X136.25Y-84.505
X136.25Y-89.505
X136.25Y-94.505
X136.25Y-99.505
X136.25Y-104.505
X136.25Y-109.505
X141.75Y-79.005
X142.25Y-115.005
X143.75Y-102.255
X144.25Y-110.255
X144.45Y-98.905
X145.5Y-97.405
X145.55Y-93.905
X145.55Y-95.05
X145.55Y-96.35
X146.Y-98.3
X146.5Y-100.255
X146.55Y-93.055
X146.6Y-87.9
X146.6Y-89.6
X146.75Y-79.005
X146.75Y-101.755
X147.25Y-115.005
X147.5Y-98.155
X147.5Y-106.5
X147.75Y-109.25
X147.8Y-93.205
X148.7Y-98.105
X148.9Y-93.205
X149.85Y-98.105
X149.95Y-93.205
X150.6Y-87.9
X150.6Y-100.5
X150.7Y-89.6
X150.712Y-99.522
X151.Y-93.405
X151.15Y-97.755
X151.75Y-79.005
X152.185Y-108.915
X152.25Y-94.055
X152.25Y-115.005
X152.35Y-92.5
X152.5Y-107.25
X152.75Y-104.005
X152.85Y-91.55
X153.349Y-92.448
X153.9Y-102.3
X154.Y-101.3
X154.Y-107.25
X154.5Y-105.505
X154.9Y-102.9
X155.341Y-95.631
X156.5Y-99.755
X156.75Y-79.005
X157.Y-95.505
X157.225Y-92.85
X157.25Y-91.005
X157.25Y-115.005
X157.275Y-87.624
X157.275Y-88.675
X157.4Y-82.975
X157.4Y-86.625
X158.161Y-91.646
X158.7Y-82.905
X159.013Y-99.987
X159.2Y-110.4
X159.25Y-112.055
X159.67Y-95.225
X159.7Y-105.705
X159.981Y-98.165
X160.Y-83.205
X160.Y-99.755
X160.394Y-107.531
X160.75Y-79.005
X160.9Y-105.8
X161.675Y-92.739
X161.699Y-107.48
X161.9Y-79.005
X162.25Y-115.005
X162.6Y-105.505
X162.9Y-79.305
X163.076Y-104.488
X163.341Y-90.189
X163.393Y-103.475
X163.575Y-93.143
X164.Y-79.805
X164.037Y-104.768
X164.25Y-84.805
X164.9Y-89.205
X165.025Y-93.265
X165.15Y-113.005
X165.25Y-110.755
X165.284Y-99.941
X165.627Y-95.705
X166.025Y-93.248
X166.55Y-79.205
X166.55Y-79.905
X166.55Y-80.605
X166.55Y-81.305
X166.55Y-82.005
X166.55Y-82.705
X166.75Y-100.205
X166.75Y-101.005
X166.75Y-101.705
X166.75Y-102.405
X166.75Y-103.105
X166.85Y-110.905
X166.85Y-111.605
X166.85Y-112.305
X166.85Y-113.005
X166.85Y-113.705
X166.85Y-114.405
X166.85Y-115.105
X167.25Y-79.205
X167.25Y-79.905
X167.25Y-80.605
X167.25Y-81.305
X167.25Y-82.005
X167.25Y-82.705
X167.25Y-83.405
X167.45Y-100.205
X167.45Y-101.005
X167.45Y-101.705
X167.45Y-102.405
X167.45Y-103.105
X167.45Y-103.805
X167.55Y-110.905
X167.55Y-111.605
X167.55Y-112.305
X167.55Y-113.005
X167.55Y-113.705
X167.55Y-114.405
X167.55Y-115.105
X167.95Y-79.905
X167.95Y-80.605
X167.95Y-81.305
X167.95Y-82.005
X168.15Y-101.005
X168.15Y-101.705
X168.15Y-102.405
X168.15Y-103.105
X168.15Y-103.805
X168.25Y-113.005
X168.25Y-113.705
X168.25Y-114.405
X168.25Y-115.105
X168.65Y-79.905
X168.65Y-80.605
X168.65Y-81.305
X168.65Y-82.005
X168.85Y-101.005
X168.85Y-101.705
X168.85Y-102.405
X168.85Y-103.105
X168.85Y-103.805
X168.95Y-113.005
X168.95Y-113.705
X168.95Y-114.405
X168.95Y-115.105
X169.Y-96.755
X169.35Y-79.205
X169.35Y-79.905
X169.35Y-80.605
X169.35Y-81.305
X169.35Y-82.005
X169.55Y-101.005
X169.55Y-101.705
X169.55Y-102.405
X169.55Y-103.105
X169.55Y-103.805
X169.65Y-113.005
X169.65Y-113.705
X169.65Y-114.405
X169.65Y-115.105
X169.963Y-97.917
X170.Y-85.53
X170.Y-88.005
X170.Y-95.005
X170.05Y-79.205
X170.05Y-79.905
X170.05Y-80.605
X170.05Y-81.305
X170.05Y-82.005
X170.244Y-106.991
X170.25Y-101.005
X170.25Y-101.705
X170.25Y-102.405
X170.25Y-103.105
X170.25Y-103.805
X170.25Y-109.605
X170.35Y-108.005
X170.35Y-113.005
X170.35Y-113.705
X170.35Y-114.405
X170.35Y-115.105
X170.75Y-79.205
X170.75Y-79.905
X170.75Y-80.605
X170.75Y-81.305
X170.75Y-82.005
X170.95Y-101.005
X170.95Y-101.705
X170.95Y-102.405
X170.95Y-103.105
X170.95Y-103.805
X171.05Y-113.005
X171.05Y-113.705
X171.05Y-114.405
X171.05Y-115.105
X171.45Y-79.205
X171.45Y-79.905
X171.45Y-80.605
X171.45Y-81.305
X171.45Y-82.005
X171.75Y-113.005
X171.75Y-113.705
X171.75Y-114.405
X171.75Y-115.105
X172.25Y-91.2
X172.45Y-113.005
X172.45Y-113.705
X172.45Y-114.405
X172.45Y-115.105
X172.75Y-103.505
X173.Y-82.005
X173.Y-83.005
X173.Y-100.505
X173.Y-110.755
X173.1Y-109.25
X173.9Y-91.7
X174.5Y-100.7
X174.6Y-93.505
X174.9Y-109.9
X174.9Y-112.
X175.Y-79.
X175.2Y-84.305
X175.7Y-102.405
X176.418Y-84.31
X176.85Y-99.3
X176.95Y-93.405
X177.268Y-83.755
X178.45Y-83.255
X178.7Y-109.9
X178.75Y-102.075
X179.5Y-91.005
X179.972Y-93.227
X180.25Y-100.505
X181.65Y-86.705
X181.65Y-87.405
X181.65Y-88.105
X181.65Y-88.805
X181.65Y-89.505
X181.65Y-90.205
X181.65Y-90.905
X181.65Y-91.605
X181.65Y-95.705
X181.65Y-96.405
X181.65Y-97.105
X181.65Y-97.805
X181.65Y-98.505
X181.65Y-99.205
X181.65Y-99.905
X181.65Y-100.605
X181.65Y-103.905
X181.65Y-104.605
X181.65Y-105.305
X181.65Y-106.005
X181.65Y-106.705
X181.65Y-107.405
X181.65Y-108.105
X181.65Y-108.805
X182.35Y-86.705
X182.35Y-87.405
X182.35Y-88.105
X182.35Y-88.805
X182.35Y-89.505
X182.35Y-90.205
X182.35Y-90.905
X182.35Y-91.605
X182.35Y-95.705
X182.35Y-96.405
X182.35Y-97.105
X182.35Y-97.805
X182.35Y-98.505
X182.35Y-99.205
X182.35Y-99.905
X182.35Y-100.605
X182.35Y-103.905
X182.35Y-104.605
X182.35Y-105.305
X182.35Y-106.005
X182.35Y-106.705
X182.35Y-107.405
X182.35Y-108.105
X182.35Y-108.805
X183.05Y-86.705
X183.05Y-87.405
X183.05Y-88.105
X183.05Y-88.805
X183.05Y-89.505
X183.05Y-90.205
X183.05Y-90.905
X183.05Y-91.605
X183.05Y-95.705
X183.05Y-96.405
X183.05Y-97.105
X183.05Y-97.805
X183.05Y-98.505
X183.05Y-99.205
X183.05Y-99.905
X183.05Y-100.605
X183.05Y-103.905
X183.05Y-104.605
X183.05Y-105.305
X183.05Y-106.005
X183.05Y-106.705
X183.05Y-107.405
X183.05Y-108.105
X183.05Y-108.805
X183.75Y-86.705
X183.75Y-87.405
X183.75Y-88.105
X183.75Y-88.805
X183.75Y-89.505
X183.75Y-90.205
X183.75Y-90.905
X183.75Y-91.605
X183.75Y-95.705
X183.75Y-96.405
X183.75Y-97.105
X183.75Y-97.805
X183.75Y-98.505
X183.75Y-99.205
X183.75Y-99.905
X183.75Y-100.605
X183.75Y-103.905
X183.75Y-104.605
X183.75Y-105.305
X183.75Y-106.005
X183.75Y-106.705
X183.75Y-107.405
X183.75Y-108.105
X183.75Y-108.805
X184.45Y-86.705
X184.45Y-87.405
X184.45Y-88.105
X184.45Y-88.805
X184.45Y-89.505
X184.45Y-90.205
X184.45Y-90.905
X184.45Y-91.605
X184.45Y-95.705
X184.45Y-96.405
X184.45Y-97.105
X184.45Y-97.805
X184.45Y-98.505
X184.45Y-99.205
X184.45Y-99.905
X184.45Y-100.605
X184.45Y-103.905
X184.45Y-104.605
X184.45Y-105.305
X184.45Y-106.005
X184.45Y-106.705
X184.45Y-107.405
X184.45Y-108.105
X184.45Y-108.805
T2
X168.25Y-79.005
X173.25Y-79.005
T3
X144.78Y-81.28
X144.78Y-83.82
X147.32Y-81.28
X147.32Y-83.82
X147.32Y-111.76
X149.86Y-81.28
X149.86Y-83.82
X149.86Y-111.76
X152.4Y-81.28
X152.4Y-83.82
X152.4Y-111.76
X154.94Y-81.28
X154.94Y-83.82
X154.94Y-111.76
X157.48Y-81.28
X157.48Y-111.76
T4
X183.75Y-85.505
X183.75Y-94.505
X183.75Y-102.705
T0
M30
