G04 #@! TF.FileFunction,Copper,L2,Inr,Plane*
%FSLAX46Y46*%
G04 Gerber Fmt 4.6, Leading zero omitted, Abs format (unit mm)*
G04 Created by KiCad (PCBNEW 4.0.6-e0-6349~53~ubuntu16.04.1) date Sat Mar 11 23:46:16 2017*
%MOMM*%
%LPD*%
G01*
G04 APERTURE LIST*
%ADD10C,0.150000*%
%ADD11C,0.250000*%
%ADD12C,0.800000*%
%ADD13C,1.300000*%
%ADD14C,1.900000*%
%ADD15R,1.500000X1.500000*%
%ADD16C,1.500000*%
%ADD17C,0.254000*%
G04 APERTURE END LIST*
D10*
D11*
X175164286Y-114052619D02*
X175211905Y-114005000D01*
X175307143Y-113957381D01*
X175545239Y-113957381D01*
X175640477Y-114005000D01*
X175688096Y-114052619D01*
X175735715Y-114147857D01*
X175735715Y-114243095D01*
X175688096Y-114385952D01*
X175116667Y-114957381D01*
X175735715Y-114957381D01*
D10*
X135250000Y-116000000D02*
X135250000Y-78000000D01*
X185250000Y-116000000D02*
X135250000Y-116005000D01*
X185250000Y-78000000D02*
X185250000Y-116000000D01*
X135250000Y-78000000D02*
X185250000Y-78000000D01*
D12*
X176350000Y-84600000D03*
X169950000Y-101005000D03*
X173850000Y-91000000D03*
D13*
X167500000Y-79250000D03*
D14*
X173250000Y-81000000D03*
X183750000Y-102750000D03*
X183750000Y-94250000D03*
D12*
X178700000Y-109900000D03*
X173320000Y-109430000D03*
X145000000Y-98300000D03*
X161250000Y-115005000D03*
X159750000Y-79005000D03*
X136250000Y-109505000D03*
X155750000Y-79005000D03*
X150750000Y-79005000D03*
X145750000Y-79005000D03*
X141750000Y-79005000D03*
X136250000Y-84505000D03*
X136250000Y-89505000D03*
X136250000Y-94505000D03*
X136250000Y-99505000D03*
X136250000Y-104505000D03*
X142250000Y-115005000D03*
X146250000Y-115005000D03*
X151250000Y-115005000D03*
X156250000Y-115005000D03*
X173000000Y-83005000D03*
X172940000Y-100420000D03*
X172420000Y-103290000D03*
X173320000Y-110660000D03*
X184450000Y-108805000D03*
X183750000Y-108805000D03*
X183050000Y-108805000D03*
X182350000Y-108805000D03*
X181650000Y-108805000D03*
X184450000Y-108105000D03*
X183750000Y-108105000D03*
X183050000Y-108105000D03*
X182350000Y-108105000D03*
X181650000Y-108105000D03*
X184450000Y-107405000D03*
X183750000Y-107405000D03*
X183050000Y-107405000D03*
X182350000Y-107405000D03*
X181650000Y-107405000D03*
X184450000Y-106705000D03*
X183750000Y-106705000D03*
X183050000Y-106705000D03*
X182350000Y-106705000D03*
X181650000Y-106705000D03*
X184450000Y-106005000D03*
X183750000Y-106005000D03*
X183050000Y-106005000D03*
X182350000Y-106005000D03*
X181650000Y-106005000D03*
X184450000Y-105305000D03*
X183750000Y-105305000D03*
X183050000Y-105305000D03*
X182350000Y-105305000D03*
X181650000Y-105305000D03*
X184450000Y-104605000D03*
X183750000Y-104605000D03*
X183050000Y-104605000D03*
X182350000Y-104605000D03*
X181650000Y-104605000D03*
X184450000Y-103905000D03*
X183050000Y-103905000D03*
X182350000Y-103905000D03*
X184450000Y-100605000D03*
X183750000Y-100605000D03*
X183050000Y-100605000D03*
X182350000Y-100605000D03*
X181650000Y-100605000D03*
X184450000Y-99905000D03*
X183750000Y-99905000D03*
X183050000Y-99905000D03*
X182350000Y-99905000D03*
X181650000Y-99905000D03*
X184450000Y-99205000D03*
X183750000Y-99205000D03*
X183050000Y-99205000D03*
X182350000Y-99205000D03*
X181650000Y-99205000D03*
X184450000Y-98505000D03*
X183750000Y-98505000D03*
X183050000Y-98505000D03*
X182350000Y-98505000D03*
X181650000Y-98505000D03*
X184450000Y-97805000D03*
X183750000Y-97805000D03*
X183050000Y-97805000D03*
X182350000Y-97805000D03*
X181650000Y-97805000D03*
X184450000Y-97105000D03*
X183750000Y-97105000D03*
X183050000Y-97105000D03*
X182350000Y-97105000D03*
X181650000Y-97105000D03*
X184450000Y-96405000D03*
X183750000Y-96405000D03*
X183050000Y-96405000D03*
X182350000Y-96405000D03*
X181650000Y-96405000D03*
X184450000Y-95705000D03*
X183750000Y-95705000D03*
X183050000Y-95705000D03*
X182350000Y-95705000D03*
X181650000Y-103905000D03*
X184450000Y-91605000D03*
X183750000Y-91605000D03*
X183050000Y-91605000D03*
X182350000Y-91605000D03*
X181650000Y-91605000D03*
X184450000Y-90905000D03*
X183750000Y-90905000D03*
X183050000Y-90905000D03*
X182350000Y-90905000D03*
X181650000Y-90905000D03*
X184450000Y-90205000D03*
X183750000Y-90205000D03*
X183050000Y-90205000D03*
X182350000Y-90205000D03*
X181650000Y-90205000D03*
X184450000Y-89505000D03*
X183750000Y-89505000D03*
X183050000Y-89505000D03*
X182350000Y-89505000D03*
X181650000Y-89505000D03*
X184450000Y-88805000D03*
X183750000Y-88805000D03*
X183050000Y-88805000D03*
X182350000Y-88805000D03*
X181650000Y-88805000D03*
X184450000Y-88105000D03*
X183750000Y-88105000D03*
X183050000Y-88105000D03*
X182350000Y-88105000D03*
X181650000Y-88105000D03*
X184450000Y-87405000D03*
X183750000Y-87405000D03*
X183050000Y-87405000D03*
X182350000Y-87405000D03*
X181650000Y-87405000D03*
X181650000Y-95705000D03*
X184450000Y-86705000D03*
X183050000Y-86705000D03*
X182350000Y-86705000D03*
X181650000Y-86705000D03*
X166250000Y-83405000D03*
X166450000Y-100205000D03*
X165750000Y-100205000D03*
X170450000Y-82005000D03*
X169750000Y-82005000D03*
X169050000Y-82005000D03*
X168350000Y-82005000D03*
X167650000Y-82005000D03*
X166950000Y-82005000D03*
X166250000Y-82005000D03*
X165550000Y-82005000D03*
X170450000Y-81305000D03*
X169750000Y-81305000D03*
X169050000Y-81305000D03*
X168350000Y-81305000D03*
X167650000Y-81305000D03*
X166950000Y-81305000D03*
X166250000Y-81305000D03*
X165550000Y-81305000D03*
X170450000Y-80605000D03*
X169750000Y-80605000D03*
X169050000Y-80605000D03*
X168350000Y-80605000D03*
X167650000Y-80605000D03*
X166950000Y-80605000D03*
X166250000Y-80605000D03*
X170450000Y-79905000D03*
X169750000Y-79905000D03*
X169050000Y-79905000D03*
X168350000Y-79905000D03*
X166250000Y-82705000D03*
X165550000Y-82705000D03*
X170450000Y-79205000D03*
X169750000Y-79205000D03*
X169050000Y-79205000D03*
X166550000Y-112305000D03*
X165850000Y-112305000D03*
X166550000Y-111605000D03*
X165850000Y-111605000D03*
X169950000Y-103805000D03*
X169250000Y-103805000D03*
X168550000Y-103805000D03*
X167850000Y-103805000D03*
X167150000Y-103805000D03*
X166450000Y-103805000D03*
X169950000Y-103105000D03*
X169250000Y-103105000D03*
X168550000Y-103105000D03*
X167850000Y-103105000D03*
X167150000Y-103105000D03*
X166450000Y-103105000D03*
X165750000Y-103105000D03*
X169950000Y-102405000D03*
X169250000Y-102405000D03*
X168550000Y-102405000D03*
X167850000Y-102405000D03*
X167150000Y-102405000D03*
X166450000Y-102405000D03*
X165750000Y-102405000D03*
X169950000Y-101705000D03*
X169250000Y-101705000D03*
X168550000Y-101705000D03*
X167850000Y-101705000D03*
X167150000Y-101705000D03*
X166450000Y-101705000D03*
X165750000Y-101705000D03*
X169250000Y-101005000D03*
X168550000Y-101005000D03*
X167850000Y-101005000D03*
X167150000Y-101005000D03*
X166450000Y-101005000D03*
X165750000Y-101005000D03*
X171450000Y-115105000D03*
X170750000Y-115105000D03*
X170050000Y-115105000D03*
X169350000Y-115105000D03*
X168650000Y-115105000D03*
X167950000Y-115105000D03*
X167250000Y-115105000D03*
X166550000Y-115105000D03*
X165850000Y-115105000D03*
X171450000Y-114405000D03*
X170750000Y-114405000D03*
X170050000Y-114405000D03*
X169350000Y-114405000D03*
X168650000Y-114405000D03*
X167950000Y-114405000D03*
X167250000Y-114405000D03*
X166550000Y-114405000D03*
X165850000Y-114405000D03*
X171450000Y-113705000D03*
X170750000Y-113705000D03*
X170050000Y-113705000D03*
X169350000Y-113705000D03*
X168650000Y-113705000D03*
X167950000Y-113705000D03*
X167250000Y-113705000D03*
X166550000Y-113705000D03*
X165850000Y-113705000D03*
X171450000Y-113005000D03*
X170750000Y-113005000D03*
X170050000Y-113005000D03*
X169350000Y-113005000D03*
X168650000Y-113005000D03*
X167950000Y-113005000D03*
X167250000Y-113005000D03*
X166550000Y-113005000D03*
X165850000Y-113005000D03*
X150150000Y-97755000D03*
X148850000Y-98105000D03*
X147700000Y-98105000D03*
X145550000Y-93055000D03*
X146500000Y-98155000D03*
X144500000Y-97405000D03*
X144550000Y-93905000D03*
X151250000Y-94055000D03*
X150000000Y-93405000D03*
X148950000Y-93205000D03*
X147900000Y-93205000D03*
D15*
X143780000Y-83820000D03*
D16*
X146320000Y-83820000D03*
X148860000Y-83820000D03*
X151400000Y-83820000D03*
X153940000Y-83820000D03*
D15*
X143780000Y-81280000D03*
D16*
X146320000Y-81280000D03*
X148860000Y-81280000D03*
X151400000Y-81280000D03*
X153940000Y-81280000D03*
X156480000Y-81280000D03*
D15*
X146320000Y-111760000D03*
D16*
X148860000Y-111760000D03*
X151400000Y-111760000D03*
X153940000Y-111760000D03*
X156480000Y-111760000D03*
D12*
X146800000Y-93205000D03*
D14*
X183750000Y-85500000D03*
D13*
X172500000Y-79250000D03*
D14*
X165500000Y-79500000D03*
D12*
X153000000Y-107250000D03*
X151500000Y-107250000D03*
X146500000Y-106500000D03*
X175000000Y-79000000D03*
X176250000Y-93400000D03*
X154299861Y-98500000D03*
X176850000Y-99299991D03*
X164149921Y-113005000D03*
X174900000Y-109900000D03*
X174500000Y-100700000D03*
X149711603Y-99522136D03*
X149600000Y-100500000D03*
X177450000Y-102200000D03*
X177550000Y-93300000D03*
X151750000Y-104400000D03*
X160574957Y-92719540D03*
X145550000Y-100500000D03*
X152250000Y-91250006D03*
X158250000Y-112054994D03*
X177267753Y-83754618D03*
X145750000Y-101755016D03*
X174900000Y-112000000D03*
X156000000Y-95505000D03*
X151185000Y-108915000D03*
X169000000Y-85530010D03*
X169250000Y-109605000D03*
X168963201Y-97917119D03*
X164284254Y-99941045D03*
X162075976Y-104487519D03*
X163900000Y-89205000D03*
X164250000Y-110755000D03*
X155500000Y-99755000D03*
X156400000Y-82975000D03*
X146750000Y-109250000D03*
X144550000Y-96350000D03*
X144550000Y-95050000D03*
X149600000Y-87900000D03*
X145600000Y-87900000D03*
X159000000Y-99755000D03*
X164746737Y-95395004D03*
X160899998Y-79005000D03*
X175750000Y-102500000D03*
X162393199Y-103474992D03*
X174600000Y-93505000D03*
X162340955Y-90189166D03*
X161900000Y-79305000D03*
X175200000Y-84305000D03*
X178763493Y-102088603D03*
X167960000Y-108140000D03*
X178450000Y-83255000D03*
X163000000Y-79805000D03*
X167999992Y-96755000D03*
X179972175Y-93227175D03*
X162474979Y-93167873D03*
X151759364Y-92349280D03*
X152050000Y-100000000D03*
X153500000Y-105505000D03*
X142750002Y-102255000D03*
X143250000Y-110255000D03*
X161600000Y-105505000D03*
X157700000Y-82905000D03*
X149700000Y-89600000D03*
X145600000Y-89600000D03*
X158200000Y-110400000D03*
X158012660Y-99987340D03*
X163924990Y-92900000D03*
X159000000Y-83205000D03*
X169243857Y-106991177D03*
X163037340Y-104767660D03*
X163250000Y-84805000D03*
X169000000Y-88005000D03*
X164411160Y-91967483D03*
X169010997Y-94987653D03*
X159900000Y-105800000D03*
X142750000Y-99000000D03*
X159393923Y-107531396D03*
X152950004Y-101300000D03*
X156225010Y-92850000D03*
X156274808Y-87623751D03*
X154250000Y-103000000D03*
X157160782Y-91646103D03*
X156250000Y-91004962D03*
X154340616Y-95630768D03*
X160698915Y-107480021D03*
X158981218Y-98165420D03*
X156275000Y-88675000D03*
X152405676Y-93112355D03*
X151000000Y-93000000D03*
X158700000Y-105705000D03*
X158670369Y-95224666D03*
X156400000Y-86625000D03*
X140250000Y-96250000D03*
X153550000Y-102200000D03*
D11*
X164149921Y-112205079D02*
X164149921Y-112439315D01*
X164399999Y-111955001D02*
X164149921Y-112205079D01*
X164149921Y-112439315D02*
X164149921Y-113005000D01*
X169250000Y-109605000D02*
X165400000Y-109605000D01*
X165400000Y-109605000D02*
X164250000Y-110755000D01*
X168925309Y-97955011D02*
X168963201Y-97917119D01*
X166270288Y-97955011D02*
X168925309Y-97955011D01*
X164284254Y-99941045D02*
X166270288Y-97955011D01*
X159000000Y-99755000D02*
X161250000Y-97505000D01*
X161250000Y-97505000D02*
X168350000Y-97505000D01*
X168350000Y-97505000D02*
X168750000Y-97105000D01*
X173329999Y-97105000D02*
X176250000Y-100025001D01*
X168750000Y-97105000D02*
X173329999Y-97105000D01*
X176250000Y-100025001D02*
X178270001Y-100025001D01*
X178270001Y-100025001D02*
X179750000Y-101505000D01*
X179750000Y-101505000D02*
X180250000Y-101505000D01*
X180250000Y-101505000D02*
X181650000Y-102905000D01*
X181650000Y-102905000D02*
X181650000Y-103905000D01*
X165366352Y-95448934D02*
X165312422Y-95395004D01*
X174865159Y-92039841D02*
X171150033Y-95754967D01*
X165312422Y-95395004D02*
X164746737Y-95395004D01*
X171150033Y-95754967D02*
X168777788Y-95754967D01*
X179833369Y-92039841D02*
X174865159Y-92039841D01*
X181550000Y-93756472D02*
X179833369Y-92039841D01*
X168622801Y-95599980D02*
X168554393Y-95599980D01*
X168777788Y-95754967D02*
X168622801Y-95599980D01*
X181550000Y-95705000D02*
X181550000Y-93756472D01*
X168403347Y-95448934D02*
X165366352Y-95448934D01*
X168554393Y-95599980D02*
X168403347Y-95448934D01*
X183650000Y-94605000D02*
X183750000Y-94505000D01*
X160899998Y-79005000D02*
X160899998Y-81354998D01*
X181250000Y-86405000D02*
X181550000Y-86705000D01*
X160899998Y-81354998D02*
X165950000Y-86405000D01*
X165950000Y-86405000D02*
X181250000Y-86405000D01*
X183650000Y-85605000D02*
X183750000Y-85505000D01*
X175350001Y-102899999D02*
X175750000Y-102500000D01*
X165750000Y-106255000D02*
X171995000Y-106255000D01*
X162969992Y-103474992D02*
X165750000Y-106255000D01*
X162393199Y-103474992D02*
X162969992Y-103474992D01*
X171995000Y-106255000D02*
X175350001Y-102899999D01*
X171900022Y-96204978D02*
X174200001Y-93904999D01*
X168416409Y-96029999D02*
X168591388Y-96204978D01*
X167524967Y-96029999D02*
X168416409Y-96029999D01*
X163199989Y-95477991D02*
X164251999Y-96530001D01*
X162340955Y-90189166D02*
X163199989Y-91048200D01*
X163199989Y-91048200D02*
X163199989Y-95477991D01*
X168591388Y-96204978D02*
X171900022Y-96204978D01*
X167024965Y-96530001D02*
X167524967Y-96029999D01*
X174200001Y-93904999D02*
X174600000Y-93505000D01*
X164251999Y-96530001D02*
X167024965Y-96530001D01*
X175200000Y-84305000D02*
X174700000Y-84805000D01*
X174700000Y-84805000D02*
X165250000Y-84805000D01*
X165250000Y-84805000D02*
X161900000Y-81455000D01*
X161900000Y-81455000D02*
X161900000Y-79870685D01*
X161900000Y-79870685D02*
X161900000Y-79305000D01*
X172712096Y-108140000D02*
X178363494Y-102488602D01*
X178363494Y-102488602D02*
X178763493Y-102088603D01*
X167960000Y-108140000D02*
X172712096Y-108140000D01*
X163000000Y-79805000D02*
X163000000Y-81855000D01*
X163000000Y-81855000D02*
X165450000Y-84305000D01*
X165450000Y-84305000D02*
X173750000Y-84305000D01*
X173750000Y-84305000D02*
X175199999Y-82855001D01*
X175199999Y-82855001D02*
X178050001Y-82855001D01*
X178050001Y-82855001D02*
X178450000Y-83255000D01*
X179972175Y-93227175D02*
X176544361Y-96654989D01*
X176544361Y-96654989D02*
X168100003Y-96654989D01*
X168100003Y-96654989D02*
X167999992Y-96755000D01*
X167999992Y-96755000D02*
X167999992Y-96750008D01*
X179972175Y-93282825D02*
X179972175Y-93227175D01*
X179866135Y-93388865D02*
X179972175Y-93282825D01*
X165260857Y-106991177D02*
X168678172Y-106991177D01*
X168678172Y-106991177D02*
X169243857Y-106991177D01*
X163037340Y-104767660D02*
X165260857Y-106991177D01*
X163649999Y-85204999D02*
X163250000Y-84805000D01*
X166450000Y-88005000D02*
X163649999Y-85204999D01*
X169000000Y-88005000D02*
X166450000Y-88005000D01*
X167431330Y-94987653D02*
X164811159Y-92367482D01*
X169010997Y-94987653D02*
X167431330Y-94987653D01*
X164811159Y-92367482D02*
X164411160Y-91967483D01*
X140250000Y-96250000D02*
X140250000Y-98000000D01*
X140250000Y-98000000D02*
X144849999Y-102599999D01*
X144849999Y-102599999D02*
X153150001Y-102599999D01*
X153150001Y-102599999D02*
X153550000Y-102200000D01*
D17*
G36*
X179623000Y-102031739D02*
X179623000Y-110426887D01*
X179134608Y-110914427D01*
X178573639Y-112265391D01*
X178573109Y-112873000D01*
X173377000Y-112873000D01*
X173377000Y-112250000D01*
X173366994Y-112200590D01*
X173341843Y-112163779D01*
X174072857Y-112163779D01*
X174198495Y-112467846D01*
X174430930Y-112700688D01*
X174734778Y-112826856D01*
X175063779Y-112827143D01*
X175367846Y-112701505D01*
X175600688Y-112469070D01*
X175726856Y-112165222D01*
X175727143Y-111836221D01*
X175601505Y-111532154D01*
X175369070Y-111299312D01*
X175065222Y-111173144D01*
X174736221Y-111172857D01*
X174432154Y-111298495D01*
X174199312Y-111530930D01*
X174073144Y-111834778D01*
X174072857Y-112163779D01*
X173341843Y-112163779D01*
X173338553Y-112158965D01*
X173296159Y-112131685D01*
X173250000Y-112123000D01*
X167369614Y-112123000D01*
X167300164Y-111954918D01*
X167376856Y-111770222D01*
X167377143Y-111441221D01*
X167251505Y-111137154D01*
X167019070Y-110904312D01*
X166715222Y-110778144D01*
X166386221Y-110777857D01*
X166199918Y-110854836D01*
X166015222Y-110778144D01*
X165686221Y-110777857D01*
X165382154Y-110903495D01*
X165149312Y-111135930D01*
X165023144Y-111439778D01*
X165022857Y-111768779D01*
X165099836Y-111955082D01*
X165030111Y-112123000D01*
X164377000Y-112123000D01*
X164377000Y-111582111D01*
X164413779Y-111582143D01*
X164717846Y-111456505D01*
X164950688Y-111224070D01*
X165076856Y-110920222D01*
X165077041Y-110708605D01*
X165628646Y-110157000D01*
X168632502Y-110157000D01*
X168780930Y-110305688D01*
X169084778Y-110431856D01*
X169413779Y-110432143D01*
X169717846Y-110306505D01*
X169950688Y-110074070D01*
X170076856Y-109770222D01*
X170077143Y-109441221D01*
X169951505Y-109137154D01*
X169719070Y-108904312D01*
X169415222Y-108778144D01*
X169086221Y-108777857D01*
X168782154Y-108903495D01*
X168632387Y-109053000D01*
X165400000Y-109053000D01*
X165188758Y-109095018D01*
X165009677Y-109214677D01*
X164377000Y-109847354D01*
X164377000Y-106887966D01*
X164870534Y-107381500D01*
X165049615Y-107501159D01*
X165260857Y-107543177D01*
X167387289Y-107543177D01*
X167259312Y-107670930D01*
X167133144Y-107974778D01*
X167132857Y-108303779D01*
X167258495Y-108607846D01*
X167490930Y-108840688D01*
X167794778Y-108966856D01*
X168123779Y-108967143D01*
X168427846Y-108841505D01*
X168577613Y-108692000D01*
X172712096Y-108692000D01*
X172923338Y-108649982D01*
X173102419Y-108530323D01*
X178717179Y-102915563D01*
X178927272Y-102915746D01*
X179231339Y-102790108D01*
X179464181Y-102557673D01*
X179590349Y-102253825D01*
X179590548Y-102025284D01*
X179623000Y-102031739D01*
X179623000Y-102031739D01*
G37*
X179623000Y-102031739D02*
X179623000Y-110426887D01*
X179134608Y-110914427D01*
X178573639Y-112265391D01*
X178573109Y-112873000D01*
X173377000Y-112873000D01*
X173377000Y-112250000D01*
X173366994Y-112200590D01*
X173341843Y-112163779D01*
X174072857Y-112163779D01*
X174198495Y-112467846D01*
X174430930Y-112700688D01*
X174734778Y-112826856D01*
X175063779Y-112827143D01*
X175367846Y-112701505D01*
X175600688Y-112469070D01*
X175726856Y-112165222D01*
X175727143Y-111836221D01*
X175601505Y-111532154D01*
X175369070Y-111299312D01*
X175065222Y-111173144D01*
X174736221Y-111172857D01*
X174432154Y-111298495D01*
X174199312Y-111530930D01*
X174073144Y-111834778D01*
X174072857Y-112163779D01*
X173341843Y-112163779D01*
X173338553Y-112158965D01*
X173296159Y-112131685D01*
X173250000Y-112123000D01*
X167369614Y-112123000D01*
X167300164Y-111954918D01*
X167376856Y-111770222D01*
X167377143Y-111441221D01*
X167251505Y-111137154D01*
X167019070Y-110904312D01*
X166715222Y-110778144D01*
X166386221Y-110777857D01*
X166199918Y-110854836D01*
X166015222Y-110778144D01*
X165686221Y-110777857D01*
X165382154Y-110903495D01*
X165149312Y-111135930D01*
X165023144Y-111439778D01*
X165022857Y-111768779D01*
X165099836Y-111955082D01*
X165030111Y-112123000D01*
X164377000Y-112123000D01*
X164377000Y-111582111D01*
X164413779Y-111582143D01*
X164717846Y-111456505D01*
X164950688Y-111224070D01*
X165076856Y-110920222D01*
X165077041Y-110708605D01*
X165628646Y-110157000D01*
X168632502Y-110157000D01*
X168780930Y-110305688D01*
X169084778Y-110431856D01*
X169413779Y-110432143D01*
X169717846Y-110306505D01*
X169950688Y-110074070D01*
X170076856Y-109770222D01*
X170077143Y-109441221D01*
X169951505Y-109137154D01*
X169719070Y-108904312D01*
X169415222Y-108778144D01*
X169086221Y-108777857D01*
X168782154Y-108903495D01*
X168632387Y-109053000D01*
X165400000Y-109053000D01*
X165188758Y-109095018D01*
X165009677Y-109214677D01*
X164377000Y-109847354D01*
X164377000Y-106887966D01*
X164870534Y-107381500D01*
X165049615Y-107501159D01*
X165260857Y-107543177D01*
X167387289Y-107543177D01*
X167259312Y-107670930D01*
X167133144Y-107974778D01*
X167132857Y-108303779D01*
X167258495Y-108607846D01*
X167490930Y-108840688D01*
X167794778Y-108966856D01*
X168123779Y-108967143D01*
X168427846Y-108841505D01*
X168577613Y-108692000D01*
X172712096Y-108692000D01*
X172923338Y-108649982D01*
X173102419Y-108530323D01*
X178717179Y-102915563D01*
X178927272Y-102915746D01*
X179231339Y-102790108D01*
X179464181Y-102557673D01*
X179590349Y-102253825D01*
X179590548Y-102025284D01*
X179623000Y-102031739D01*
G36*
X157843226Y-95388445D02*
X157968864Y-95692512D01*
X158201299Y-95925354D01*
X158505147Y-96051522D01*
X158834148Y-96051809D01*
X159138215Y-95926171D01*
X159371057Y-95693736D01*
X159497225Y-95389888D01*
X159497236Y-95377000D01*
X162647989Y-95377000D01*
X162647989Y-95477991D01*
X162690007Y-95689233D01*
X162809666Y-95868314D01*
X163861676Y-96920324D01*
X163910579Y-96953000D01*
X161250000Y-96953000D01*
X161038759Y-96995018D01*
X160859677Y-97114677D01*
X159808218Y-98166136D01*
X159808361Y-98001641D01*
X159682723Y-97697574D01*
X159450288Y-97464732D01*
X159146440Y-97338564D01*
X158817439Y-97338277D01*
X158513372Y-97463915D01*
X158280530Y-97696350D01*
X158154362Y-98000198D01*
X158154075Y-98329199D01*
X158279713Y-98633266D01*
X158512148Y-98866108D01*
X158748323Y-98964176D01*
X158532154Y-99053495D01*
X158352389Y-99232945D01*
X158177882Y-99160484D01*
X157848881Y-99160197D01*
X157544814Y-99285835D01*
X157311972Y-99518270D01*
X157185804Y-99822118D01*
X157185517Y-100151119D01*
X157311155Y-100455186D01*
X157543590Y-100688028D01*
X157847438Y-100814196D01*
X158176439Y-100814483D01*
X158480506Y-100688845D01*
X158660271Y-100509395D01*
X158834778Y-100581856D01*
X159163779Y-100582143D01*
X159467846Y-100456505D01*
X159700688Y-100224070D01*
X159826856Y-99920222D01*
X159827041Y-99708605D01*
X161478646Y-98057000D01*
X165387653Y-98057000D01*
X164330568Y-99114085D01*
X164120475Y-99113902D01*
X163816408Y-99239540D01*
X163583566Y-99471975D01*
X163457398Y-99775823D01*
X163457111Y-100104824D01*
X163582749Y-100408891D01*
X163815184Y-100641733D01*
X164119032Y-100767901D01*
X164448033Y-100768188D01*
X164752100Y-100642550D01*
X164953079Y-100441922D01*
X165020546Y-100605205D01*
X164923144Y-100839778D01*
X164922857Y-101168779D01*
X164999836Y-101355082D01*
X164923144Y-101539778D01*
X164922857Y-101868779D01*
X164999836Y-102055082D01*
X164923144Y-102239778D01*
X164922857Y-102568779D01*
X164999836Y-102755082D01*
X164923144Y-102939778D01*
X164922857Y-103268779D01*
X165048495Y-103572846D01*
X165280930Y-103805688D01*
X165584778Y-103931856D01*
X165622889Y-103931889D01*
X165622857Y-103968779D01*
X165748495Y-104272846D01*
X165980930Y-104505688D01*
X166284778Y-104631856D01*
X166613779Y-104632143D01*
X166800082Y-104555164D01*
X166984778Y-104631856D01*
X167313779Y-104632143D01*
X167500082Y-104555164D01*
X167684778Y-104631856D01*
X168013779Y-104632143D01*
X168200082Y-104555164D01*
X168384778Y-104631856D01*
X168713779Y-104632143D01*
X168900082Y-104555164D01*
X169084778Y-104631856D01*
X169413779Y-104632143D01*
X169600082Y-104555164D01*
X169784778Y-104631856D01*
X170113779Y-104632143D01*
X170417846Y-104506505D01*
X170650688Y-104274070D01*
X170776856Y-103970222D01*
X170777143Y-103641221D01*
X170700164Y-103454918D01*
X170776856Y-103270222D01*
X170777143Y-102941221D01*
X170700164Y-102754918D01*
X170776856Y-102570222D01*
X170777143Y-102241221D01*
X170700164Y-102054918D01*
X170776856Y-101870222D01*
X170777143Y-101541221D01*
X170700164Y-101354918D01*
X170776856Y-101170222D01*
X170777143Y-100841221D01*
X170651505Y-100537154D01*
X170419070Y-100304312D01*
X170115222Y-100178144D01*
X169786221Y-100177857D01*
X169599918Y-100254836D01*
X169415222Y-100178144D01*
X169086221Y-100177857D01*
X168899918Y-100254836D01*
X168715222Y-100178144D01*
X168386221Y-100177857D01*
X168199918Y-100254836D01*
X168015222Y-100178144D01*
X167686221Y-100177857D01*
X167499918Y-100254836D01*
X167315222Y-100178144D01*
X167277024Y-100178111D01*
X167277143Y-100041221D01*
X167151505Y-99737154D01*
X166919070Y-99504312D01*
X166615222Y-99378144D01*
X166286221Y-99377857D01*
X166099918Y-99454836D01*
X165915222Y-99378144D01*
X165628052Y-99377893D01*
X166498934Y-98507011D01*
X168383529Y-98507011D01*
X168494131Y-98617807D01*
X168797979Y-98743975D01*
X169126980Y-98744262D01*
X169431047Y-98618624D01*
X169663889Y-98386189D01*
X169790057Y-98082341D01*
X169790344Y-97753340D01*
X169750537Y-97657000D01*
X173101353Y-97657000D01*
X175859677Y-100415324D01*
X176038758Y-100534983D01*
X176250000Y-100577001D01*
X178041355Y-100577001D01*
X178725924Y-101261570D01*
X178599714Y-101261460D01*
X178295647Y-101387098D01*
X178062805Y-101619533D01*
X178055836Y-101636317D01*
X177919070Y-101499312D01*
X177615222Y-101373144D01*
X177286221Y-101372857D01*
X176982154Y-101498495D01*
X176749312Y-101730930D01*
X176623144Y-102034778D01*
X176622857Y-102363779D01*
X176748495Y-102667846D01*
X176980930Y-102900688D01*
X177115065Y-102956385D01*
X172483450Y-107588000D01*
X169816568Y-107588000D01*
X169944545Y-107460247D01*
X170070713Y-107156399D01*
X170071000Y-106827398D01*
X170062572Y-106807000D01*
X171995000Y-106807000D01*
X172206242Y-106764982D01*
X172385323Y-106645323D01*
X175703686Y-103326960D01*
X175913779Y-103327143D01*
X176217846Y-103201505D01*
X176450688Y-102969070D01*
X176576856Y-102665222D01*
X176577143Y-102336221D01*
X176451505Y-102032154D01*
X176219070Y-101799312D01*
X175915222Y-101673144D01*
X175586221Y-101672857D01*
X175282154Y-101798495D01*
X175049312Y-102030930D01*
X174923144Y-102334778D01*
X174922959Y-102546395D01*
X171766354Y-105703000D01*
X165978646Y-105703000D01*
X164377000Y-104101354D01*
X164377000Y-103500000D01*
X164366994Y-103450590D01*
X164347564Y-103418697D01*
X163097564Y-101918697D01*
X163058246Y-101887144D01*
X163000000Y-101873000D01*
X154815356Y-101873000D01*
X153419484Y-99918779D01*
X154672857Y-99918779D01*
X154798495Y-100222846D01*
X155030930Y-100455688D01*
X155334778Y-100581856D01*
X155663779Y-100582143D01*
X155967846Y-100456505D01*
X156200688Y-100224070D01*
X156326856Y-99920222D01*
X156327143Y-99591221D01*
X156201505Y-99287154D01*
X155969070Y-99054312D01*
X155665222Y-98928144D01*
X155336221Y-98927857D01*
X155032154Y-99053495D01*
X154799312Y-99285930D01*
X154673144Y-99589778D01*
X154672857Y-99918779D01*
X153419484Y-99918779D01*
X153353344Y-99826183D01*
X153349170Y-99820664D01*
X152949170Y-99320664D01*
X152945577Y-99316370D01*
X152595577Y-98916370D01*
X152555510Y-98885774D01*
X152500000Y-98873000D01*
X151750000Y-98873000D01*
X151693204Y-98886408D01*
X151193204Y-99136408D01*
X151146656Y-99176183D01*
X149934644Y-100873000D01*
X149328490Y-100873000D01*
X149127000Y-100470020D01*
X149127000Y-99563500D01*
X150067040Y-98858470D01*
X151029980Y-98377000D01*
X154250000Y-98377000D01*
X154299410Y-98366994D01*
X154347564Y-98331303D01*
X156013640Y-96332012D01*
X156163779Y-96332143D01*
X156467846Y-96206505D01*
X156700688Y-95974070D01*
X156826856Y-95670222D01*
X156827112Y-95377000D01*
X157843236Y-95377000D01*
X157843226Y-95388445D01*
X157843226Y-95388445D01*
G37*
X157843226Y-95388445D02*
X157968864Y-95692512D01*
X158201299Y-95925354D01*
X158505147Y-96051522D01*
X158834148Y-96051809D01*
X159138215Y-95926171D01*
X159371057Y-95693736D01*
X159497225Y-95389888D01*
X159497236Y-95377000D01*
X162647989Y-95377000D01*
X162647989Y-95477991D01*
X162690007Y-95689233D01*
X162809666Y-95868314D01*
X163861676Y-96920324D01*
X163910579Y-96953000D01*
X161250000Y-96953000D01*
X161038759Y-96995018D01*
X160859677Y-97114677D01*
X159808218Y-98166136D01*
X159808361Y-98001641D01*
X159682723Y-97697574D01*
X159450288Y-97464732D01*
X159146440Y-97338564D01*
X158817439Y-97338277D01*
X158513372Y-97463915D01*
X158280530Y-97696350D01*
X158154362Y-98000198D01*
X158154075Y-98329199D01*
X158279713Y-98633266D01*
X158512148Y-98866108D01*
X158748323Y-98964176D01*
X158532154Y-99053495D01*
X158352389Y-99232945D01*
X158177882Y-99160484D01*
X157848881Y-99160197D01*
X157544814Y-99285835D01*
X157311972Y-99518270D01*
X157185804Y-99822118D01*
X157185517Y-100151119D01*
X157311155Y-100455186D01*
X157543590Y-100688028D01*
X157847438Y-100814196D01*
X158176439Y-100814483D01*
X158480506Y-100688845D01*
X158660271Y-100509395D01*
X158834778Y-100581856D01*
X159163779Y-100582143D01*
X159467846Y-100456505D01*
X159700688Y-100224070D01*
X159826856Y-99920222D01*
X159827041Y-99708605D01*
X161478646Y-98057000D01*
X165387653Y-98057000D01*
X164330568Y-99114085D01*
X164120475Y-99113902D01*
X163816408Y-99239540D01*
X163583566Y-99471975D01*
X163457398Y-99775823D01*
X163457111Y-100104824D01*
X163582749Y-100408891D01*
X163815184Y-100641733D01*
X164119032Y-100767901D01*
X164448033Y-100768188D01*
X164752100Y-100642550D01*
X164953079Y-100441922D01*
X165020546Y-100605205D01*
X164923144Y-100839778D01*
X164922857Y-101168779D01*
X164999836Y-101355082D01*
X164923144Y-101539778D01*
X164922857Y-101868779D01*
X164999836Y-102055082D01*
X164923144Y-102239778D01*
X164922857Y-102568779D01*
X164999836Y-102755082D01*
X164923144Y-102939778D01*
X164922857Y-103268779D01*
X165048495Y-103572846D01*
X165280930Y-103805688D01*
X165584778Y-103931856D01*
X165622889Y-103931889D01*
X165622857Y-103968779D01*
X165748495Y-104272846D01*
X165980930Y-104505688D01*
X166284778Y-104631856D01*
X166613779Y-104632143D01*
X166800082Y-104555164D01*
X166984778Y-104631856D01*
X167313779Y-104632143D01*
X167500082Y-104555164D01*
X167684778Y-104631856D01*
X168013779Y-104632143D01*
X168200082Y-104555164D01*
X168384778Y-104631856D01*
X168713779Y-104632143D01*
X168900082Y-104555164D01*
X169084778Y-104631856D01*
X169413779Y-104632143D01*
X169600082Y-104555164D01*
X169784778Y-104631856D01*
X170113779Y-104632143D01*
X170417846Y-104506505D01*
X170650688Y-104274070D01*
X170776856Y-103970222D01*
X170777143Y-103641221D01*
X170700164Y-103454918D01*
X170776856Y-103270222D01*
X170777143Y-102941221D01*
X170700164Y-102754918D01*
X170776856Y-102570222D01*
X170777143Y-102241221D01*
X170700164Y-102054918D01*
X170776856Y-101870222D01*
X170777143Y-101541221D01*
X170700164Y-101354918D01*
X170776856Y-101170222D01*
X170777143Y-100841221D01*
X170651505Y-100537154D01*
X170419070Y-100304312D01*
X170115222Y-100178144D01*
X169786221Y-100177857D01*
X169599918Y-100254836D01*
X169415222Y-100178144D01*
X169086221Y-100177857D01*
X168899918Y-100254836D01*
X168715222Y-100178144D01*
X168386221Y-100177857D01*
X168199918Y-100254836D01*
X168015222Y-100178144D01*
X167686221Y-100177857D01*
X167499918Y-100254836D01*
X167315222Y-100178144D01*
X167277024Y-100178111D01*
X167277143Y-100041221D01*
X167151505Y-99737154D01*
X166919070Y-99504312D01*
X166615222Y-99378144D01*
X166286221Y-99377857D01*
X166099918Y-99454836D01*
X165915222Y-99378144D01*
X165628052Y-99377893D01*
X166498934Y-98507011D01*
X168383529Y-98507011D01*
X168494131Y-98617807D01*
X168797979Y-98743975D01*
X169126980Y-98744262D01*
X169431047Y-98618624D01*
X169663889Y-98386189D01*
X169790057Y-98082341D01*
X169790344Y-97753340D01*
X169750537Y-97657000D01*
X173101353Y-97657000D01*
X175859677Y-100415324D01*
X176038758Y-100534983D01*
X176250000Y-100577001D01*
X178041355Y-100577001D01*
X178725924Y-101261570D01*
X178599714Y-101261460D01*
X178295647Y-101387098D01*
X178062805Y-101619533D01*
X178055836Y-101636317D01*
X177919070Y-101499312D01*
X177615222Y-101373144D01*
X177286221Y-101372857D01*
X176982154Y-101498495D01*
X176749312Y-101730930D01*
X176623144Y-102034778D01*
X176622857Y-102363779D01*
X176748495Y-102667846D01*
X176980930Y-102900688D01*
X177115065Y-102956385D01*
X172483450Y-107588000D01*
X169816568Y-107588000D01*
X169944545Y-107460247D01*
X170070713Y-107156399D01*
X170071000Y-106827398D01*
X170062572Y-106807000D01*
X171995000Y-106807000D01*
X172206242Y-106764982D01*
X172385323Y-106645323D01*
X175703686Y-103326960D01*
X175913779Y-103327143D01*
X176217846Y-103201505D01*
X176450688Y-102969070D01*
X176576856Y-102665222D01*
X176577143Y-102336221D01*
X176451505Y-102032154D01*
X176219070Y-101799312D01*
X175915222Y-101673144D01*
X175586221Y-101672857D01*
X175282154Y-101798495D01*
X175049312Y-102030930D01*
X174923144Y-102334778D01*
X174922959Y-102546395D01*
X171766354Y-105703000D01*
X165978646Y-105703000D01*
X164377000Y-104101354D01*
X164377000Y-103500000D01*
X164366994Y-103450590D01*
X164347564Y-103418697D01*
X163097564Y-101918697D01*
X163058246Y-101887144D01*
X163000000Y-101873000D01*
X154815356Y-101873000D01*
X153419484Y-99918779D01*
X154672857Y-99918779D01*
X154798495Y-100222846D01*
X155030930Y-100455688D01*
X155334778Y-100581856D01*
X155663779Y-100582143D01*
X155967846Y-100456505D01*
X156200688Y-100224070D01*
X156326856Y-99920222D01*
X156327143Y-99591221D01*
X156201505Y-99287154D01*
X155969070Y-99054312D01*
X155665222Y-98928144D01*
X155336221Y-98927857D01*
X155032154Y-99053495D01*
X154799312Y-99285930D01*
X154673144Y-99589778D01*
X154672857Y-99918779D01*
X153419484Y-99918779D01*
X153353344Y-99826183D01*
X153349170Y-99820664D01*
X152949170Y-99320664D01*
X152945577Y-99316370D01*
X152595577Y-98916370D01*
X152555510Y-98885774D01*
X152500000Y-98873000D01*
X151750000Y-98873000D01*
X151693204Y-98886408D01*
X151193204Y-99136408D01*
X151146656Y-99176183D01*
X149934644Y-100873000D01*
X149328490Y-100873000D01*
X149127000Y-100470020D01*
X149127000Y-99563500D01*
X150067040Y-98858470D01*
X151029980Y-98377000D01*
X154250000Y-98377000D01*
X154299410Y-98366994D01*
X154347564Y-98331303D01*
X156013640Y-96332012D01*
X156163779Y-96332143D01*
X156467846Y-96206505D01*
X156700688Y-95974070D01*
X156826856Y-95670222D01*
X156827112Y-95377000D01*
X157843236Y-95377000D01*
X157843226Y-95388445D01*
G36*
X179623000Y-100597354D02*
X178660324Y-99634678D01*
X178481243Y-99515019D01*
X178270001Y-99473001D01*
X176478646Y-99473001D01*
X174212634Y-97206989D01*
X176544361Y-97206989D01*
X176755603Y-97164971D01*
X176934684Y-97045312D01*
X179623000Y-94356996D01*
X179623000Y-100597354D01*
X179623000Y-100597354D01*
G37*
X179623000Y-100597354D02*
X178660324Y-99634678D01*
X178481243Y-99515019D01*
X178270001Y-99473001D01*
X176478646Y-99473001D01*
X174212634Y-97206989D01*
X176544361Y-97206989D01*
X176755603Y-97164971D01*
X176934684Y-97045312D01*
X179623000Y-94356996D01*
X179623000Y-100597354D01*
G36*
X177082154Y-92598495D02*
X176849312Y-92830930D01*
X176723144Y-93134778D01*
X176722857Y-93463779D01*
X176848495Y-93767846D01*
X177080930Y-94000688D01*
X177384778Y-94126856D01*
X177713779Y-94127143D01*
X178017846Y-94001505D01*
X178250688Y-93769070D01*
X178376856Y-93465222D01*
X178377143Y-93136221D01*
X178251505Y-92832154D01*
X178019070Y-92599312D01*
X178001078Y-92591841D01*
X179438042Y-92591841D01*
X179271487Y-92758105D01*
X179145319Y-93061953D01*
X179145134Y-93273570D01*
X176315715Y-96102989D01*
X172782657Y-96102989D01*
X174553686Y-94331960D01*
X174763779Y-94332143D01*
X175067846Y-94206505D01*
X175300688Y-93974070D01*
X175426856Y-93670222D01*
X175427143Y-93341221D01*
X175301505Y-93037154D01*
X175069070Y-92804312D01*
X174936416Y-92749230D01*
X175093805Y-92591841D01*
X177098258Y-92591841D01*
X177082154Y-92598495D01*
X177082154Y-92598495D01*
G37*
X177082154Y-92598495D02*
X176849312Y-92830930D01*
X176723144Y-93134778D01*
X176722857Y-93463779D01*
X176848495Y-93767846D01*
X177080930Y-94000688D01*
X177384778Y-94126856D01*
X177713779Y-94127143D01*
X178017846Y-94001505D01*
X178250688Y-93769070D01*
X178376856Y-93465222D01*
X178377143Y-93136221D01*
X178251505Y-92832154D01*
X178019070Y-92599312D01*
X178001078Y-92591841D01*
X179438042Y-92591841D01*
X179271487Y-92758105D01*
X179145319Y-93061953D01*
X179145134Y-93273570D01*
X176315715Y-96102989D01*
X172782657Y-96102989D01*
X174553686Y-94331960D01*
X174763779Y-94332143D01*
X175067846Y-94206505D01*
X175300688Y-93974070D01*
X175426856Y-93670222D01*
X175427143Y-93341221D01*
X175301505Y-93037154D01*
X175069070Y-92804312D01*
X174936416Y-92749230D01*
X175093805Y-92591841D01*
X177098258Y-92591841D01*
X177082154Y-92598495D01*
G36*
X179623000Y-91487841D02*
X174865159Y-91487841D01*
X174653918Y-91529859D01*
X174474836Y-91649518D01*
X170921387Y-95202967D01*
X169817053Y-95202967D01*
X169837853Y-95152875D01*
X169838140Y-94823874D01*
X169712502Y-94519807D01*
X169480067Y-94286965D01*
X169176219Y-94160797D01*
X168847218Y-94160510D01*
X168543151Y-94286148D01*
X168393384Y-94435653D01*
X167659976Y-94435653D01*
X165238120Y-92013797D01*
X165238303Y-91803704D01*
X165112665Y-91499637D01*
X164880230Y-91266795D01*
X164627000Y-91161645D01*
X164627000Y-89610703D01*
X164726856Y-89370222D01*
X164727143Y-89041221D01*
X164627000Y-88798857D01*
X164627000Y-86962646D01*
X166059677Y-88395323D01*
X166238759Y-88514982D01*
X166450000Y-88557000D01*
X168382502Y-88557000D01*
X168530930Y-88705688D01*
X168834778Y-88831856D01*
X169163779Y-88832143D01*
X169467846Y-88706505D01*
X169700688Y-88474070D01*
X169826856Y-88170222D01*
X169827143Y-87841221D01*
X169701505Y-87537154D01*
X169469070Y-87304312D01*
X169165222Y-87178144D01*
X168836221Y-87177857D01*
X168532154Y-87303495D01*
X168382387Y-87453000D01*
X166678646Y-87453000D01*
X166182646Y-86957000D01*
X179623000Y-86957000D01*
X179623000Y-91487841D01*
X179623000Y-91487841D01*
G37*
X179623000Y-91487841D02*
X174865159Y-91487841D01*
X174653918Y-91529859D01*
X174474836Y-91649518D01*
X170921387Y-95202967D01*
X169817053Y-95202967D01*
X169837853Y-95152875D01*
X169838140Y-94823874D01*
X169712502Y-94519807D01*
X169480067Y-94286965D01*
X169176219Y-94160797D01*
X168847218Y-94160510D01*
X168543151Y-94286148D01*
X168393384Y-94435653D01*
X167659976Y-94435653D01*
X165238120Y-92013797D01*
X165238303Y-91803704D01*
X165112665Y-91499637D01*
X164880230Y-91266795D01*
X164627000Y-91161645D01*
X164627000Y-89610703D01*
X164726856Y-89370222D01*
X164727143Y-89041221D01*
X164627000Y-88798857D01*
X164627000Y-86962646D01*
X166059677Y-88395323D01*
X166238759Y-88514982D01*
X166450000Y-88557000D01*
X168382502Y-88557000D01*
X168530930Y-88705688D01*
X168834778Y-88831856D01*
X169163779Y-88832143D01*
X169467846Y-88706505D01*
X169700688Y-88474070D01*
X169826856Y-88170222D01*
X169827143Y-87841221D01*
X169701505Y-87537154D01*
X169469070Y-87304312D01*
X169165222Y-87178144D01*
X168836221Y-87177857D01*
X168532154Y-87303495D01*
X168382387Y-87453000D01*
X166678646Y-87453000D01*
X166182646Y-86957000D01*
X179623000Y-86957000D01*
X179623000Y-91487841D01*
G36*
X179623000Y-83573019D02*
X179623000Y-85853000D01*
X169761345Y-85853000D01*
X169826856Y-85695232D01*
X169827143Y-85366231D01*
X169823329Y-85357000D01*
X174700000Y-85357000D01*
X174911242Y-85314982D01*
X175090323Y-85195323D01*
X175153686Y-85131960D01*
X175363779Y-85132143D01*
X175667846Y-85006505D01*
X175900688Y-84774070D01*
X176026856Y-84470222D01*
X176027143Y-84141221D01*
X175901505Y-83837154D01*
X175669070Y-83604312D01*
X175365222Y-83478144D01*
X175357509Y-83478137D01*
X175428645Y-83407001D01*
X176516634Y-83407001D01*
X176440897Y-83589396D01*
X176440610Y-83918397D01*
X176566248Y-84222464D01*
X176798683Y-84455306D01*
X177102531Y-84581474D01*
X177431532Y-84581761D01*
X177735599Y-84456123D01*
X177968441Y-84223688D01*
X178065195Y-83990678D01*
X178284778Y-84081856D01*
X178613779Y-84082143D01*
X178917846Y-83956505D01*
X179150688Y-83724070D01*
X179276856Y-83420222D01*
X179277025Y-83226439D01*
X179623000Y-83573019D01*
X179623000Y-83573019D01*
G37*
X179623000Y-83573019D02*
X179623000Y-85853000D01*
X169761345Y-85853000D01*
X169826856Y-85695232D01*
X169827143Y-85366231D01*
X169823329Y-85357000D01*
X174700000Y-85357000D01*
X174911242Y-85314982D01*
X175090323Y-85195323D01*
X175153686Y-85131960D01*
X175363779Y-85132143D01*
X175667846Y-85006505D01*
X175900688Y-84774070D01*
X176026856Y-84470222D01*
X176027143Y-84141221D01*
X175901505Y-83837154D01*
X175669070Y-83604312D01*
X175365222Y-83478144D01*
X175357509Y-83478137D01*
X175428645Y-83407001D01*
X176516634Y-83407001D01*
X176440897Y-83589396D01*
X176440610Y-83918397D01*
X176566248Y-84222464D01*
X176798683Y-84455306D01*
X177102531Y-84581474D01*
X177431532Y-84581761D01*
X177735599Y-84456123D01*
X177968441Y-84223688D01*
X178065195Y-83990678D01*
X178284778Y-84081856D01*
X178613779Y-84082143D01*
X178917846Y-83956505D01*
X179150688Y-83724070D01*
X179276856Y-83420222D01*
X179277025Y-83226439D01*
X179623000Y-83573019D01*
G36*
X174299312Y-78530930D02*
X174173144Y-78834778D01*
X174172857Y-79163779D01*
X174298495Y-79467846D01*
X174530930Y-79700688D01*
X174834778Y-79826856D01*
X175163779Y-79827143D01*
X175467846Y-79701505D01*
X175700688Y-79469070D01*
X175826856Y-79165222D01*
X175827143Y-78836221D01*
X175701505Y-78532154D01*
X175671404Y-78502000D01*
X179547756Y-78502000D01*
X179134608Y-78914427D01*
X178573639Y-80265391D01*
X178572363Y-81728192D01*
X178912598Y-82551625D01*
X178615222Y-82428144D01*
X178385347Y-82427943D01*
X178261243Y-82345019D01*
X178050001Y-82303001D01*
X175199999Y-82303001D01*
X174988758Y-82345019D01*
X174821474Y-82456795D01*
X174809676Y-82464678D01*
X173521354Y-83753000D01*
X167000960Y-83753000D01*
X167076856Y-83570222D01*
X167077143Y-83241221D01*
X167000164Y-83054918D01*
X167074042Y-82877000D01*
X172000000Y-82877000D01*
X172049410Y-82866994D01*
X172091035Y-82838553D01*
X172118315Y-82796159D01*
X172127000Y-82750000D01*
X172127000Y-78502000D01*
X174328293Y-78502000D01*
X174299312Y-78530930D01*
X174299312Y-78530930D01*
G37*
X174299312Y-78530930D02*
X174173144Y-78834778D01*
X174172857Y-79163779D01*
X174298495Y-79467846D01*
X174530930Y-79700688D01*
X174834778Y-79826856D01*
X175163779Y-79827143D01*
X175467846Y-79701505D01*
X175700688Y-79469070D01*
X175826856Y-79165222D01*
X175827143Y-78836221D01*
X175701505Y-78532154D01*
X175671404Y-78502000D01*
X179547756Y-78502000D01*
X179134608Y-78914427D01*
X178573639Y-80265391D01*
X178572363Y-81728192D01*
X178912598Y-82551625D01*
X178615222Y-82428144D01*
X178385347Y-82427943D01*
X178261243Y-82345019D01*
X178050001Y-82303001D01*
X175199999Y-82303001D01*
X174988758Y-82345019D01*
X174821474Y-82456795D01*
X174809676Y-82464678D01*
X173521354Y-83753000D01*
X167000960Y-83753000D01*
X167076856Y-83570222D01*
X167077143Y-83241221D01*
X167000164Y-83054918D01*
X167074042Y-82877000D01*
X172000000Y-82877000D01*
X172049410Y-82866994D01*
X172091035Y-82838553D01*
X172118315Y-82796159D01*
X172127000Y-82750000D01*
X172127000Y-78502000D01*
X174328293Y-78502000D01*
X174299312Y-78530930D01*
G36*
X145049312Y-78535930D02*
X144923144Y-78839778D01*
X144922857Y-79168779D01*
X145048495Y-79472846D01*
X145280930Y-79705688D01*
X145584778Y-79831856D01*
X145913779Y-79832143D01*
X146217846Y-79706505D01*
X146450688Y-79474070D01*
X146576856Y-79170222D01*
X146577143Y-78841221D01*
X146451505Y-78537154D01*
X146416412Y-78502000D01*
X150083301Y-78502000D01*
X150049312Y-78535930D01*
X149923144Y-78839778D01*
X149922857Y-79168779D01*
X150048495Y-79472846D01*
X150280930Y-79705688D01*
X150584778Y-79831856D01*
X150913779Y-79832143D01*
X151217846Y-79706505D01*
X151450688Y-79474070D01*
X151576856Y-79170222D01*
X151577143Y-78841221D01*
X151451505Y-78537154D01*
X151416412Y-78502000D01*
X155083301Y-78502000D01*
X155049312Y-78535930D01*
X154923144Y-78839778D01*
X154922857Y-79168779D01*
X155048495Y-79472846D01*
X155280930Y-79705688D01*
X155584778Y-79831856D01*
X155913779Y-79832143D01*
X156217846Y-79706505D01*
X156450688Y-79474070D01*
X156576856Y-79170222D01*
X156577143Y-78841221D01*
X156451505Y-78537154D01*
X156416412Y-78502000D01*
X159083301Y-78502000D01*
X159049312Y-78535930D01*
X158923144Y-78839778D01*
X158922857Y-79168779D01*
X159048495Y-79472846D01*
X159280930Y-79705688D01*
X159584778Y-79831856D01*
X159913779Y-79832143D01*
X160217846Y-79706505D01*
X160324982Y-79599556D01*
X160347998Y-79622613D01*
X160347998Y-81354998D01*
X160390016Y-81566240D01*
X160509675Y-81745321D01*
X162842793Y-84078439D01*
X162782154Y-84103495D01*
X162549312Y-84335930D01*
X162423144Y-84639778D01*
X162422857Y-84968779D01*
X162548495Y-85272846D01*
X162780930Y-85505688D01*
X163084778Y-85631856D01*
X163296395Y-85632041D01*
X163373000Y-85708646D01*
X163373000Y-88562546D01*
X163199312Y-88735930D01*
X163073144Y-89039778D01*
X163072857Y-89368779D01*
X163198495Y-89672846D01*
X163373000Y-89847657D01*
X163373000Y-90440565D01*
X163167915Y-90235480D01*
X163168098Y-90025387D01*
X163042460Y-89721320D01*
X162810025Y-89488478D01*
X162506177Y-89362310D01*
X162177176Y-89362023D01*
X161873109Y-89487661D01*
X161640267Y-89720096D01*
X161514099Y-90023944D01*
X161513812Y-90352945D01*
X161639450Y-90657012D01*
X161871885Y-90889854D01*
X162175733Y-91016022D01*
X162387350Y-91016207D01*
X162647989Y-91276846D01*
X162647989Y-94373000D01*
X156500000Y-94373000D01*
X156450590Y-94383006D01*
X156401256Y-94420134D01*
X156185695Y-94686645D01*
X156165222Y-94678144D01*
X155836221Y-94677857D01*
X155532154Y-94803495D01*
X155299312Y-95035930D01*
X155173144Y-95339778D01*
X155172857Y-95668779D01*
X155246725Y-95847554D01*
X153849417Y-97575134D01*
X153866994Y-97549410D01*
X153877000Y-97500000D01*
X153877000Y-96333721D01*
X154175394Y-96457624D01*
X154504395Y-96457911D01*
X154808462Y-96332273D01*
X155041304Y-96099838D01*
X155167472Y-95795990D01*
X155167759Y-95466989D01*
X155042121Y-95162922D01*
X154809686Y-94930080D01*
X154505838Y-94803912D01*
X154176837Y-94803625D01*
X153872770Y-94929263D01*
X153639928Y-95161698D01*
X153513760Y-95465546D01*
X153513473Y-95794547D01*
X153545889Y-95873000D01*
X153290699Y-95873000D01*
X151721917Y-94752441D01*
X151950688Y-94524070D01*
X152076856Y-94220222D01*
X152077143Y-93891221D01*
X152067256Y-93867293D01*
X152240454Y-93939211D01*
X152569455Y-93939498D01*
X152873522Y-93813860D01*
X153106364Y-93581425D01*
X153232532Y-93277577D01*
X153232762Y-93013779D01*
X155397867Y-93013779D01*
X155523505Y-93317846D01*
X155755940Y-93550688D01*
X156059788Y-93676856D01*
X156388789Y-93677143D01*
X156692856Y-93551505D01*
X156925698Y-93319070D01*
X157051866Y-93015222D01*
X157051981Y-92883319D01*
X159747814Y-92883319D01*
X159873452Y-93187386D01*
X160105887Y-93420228D01*
X160409735Y-93546396D01*
X160738736Y-93546683D01*
X161042803Y-93421045D01*
X161275645Y-93188610D01*
X161401813Y-92884762D01*
X161402100Y-92555761D01*
X161276462Y-92251694D01*
X161044027Y-92018852D01*
X160740179Y-91892684D01*
X160411178Y-91892397D01*
X160107111Y-92018035D01*
X159874269Y-92250470D01*
X159748101Y-92554318D01*
X159747814Y-92883319D01*
X157051981Y-92883319D01*
X157052153Y-92686221D01*
X156957506Y-92457158D01*
X156995560Y-92472959D01*
X157324561Y-92473246D01*
X157628628Y-92347608D01*
X157861470Y-92115173D01*
X157987638Y-91811325D01*
X157987925Y-91482324D01*
X157862287Y-91178257D01*
X157629852Y-90945415D01*
X157326004Y-90819247D01*
X157067986Y-90819022D01*
X156951505Y-90537116D01*
X156719070Y-90304274D01*
X156415222Y-90178106D01*
X156086221Y-90177819D01*
X155782154Y-90303457D01*
X155549312Y-90535892D01*
X155423144Y-90839740D01*
X155422857Y-91168741D01*
X155548495Y-91472808D01*
X155780930Y-91705650D01*
X156084778Y-91831818D01*
X156342796Y-91832043D01*
X156428286Y-92038945D01*
X156390232Y-92023144D01*
X156061231Y-92022857D01*
X155757164Y-92148495D01*
X155524322Y-92380930D01*
X155398154Y-92684778D01*
X155397867Y-93013779D01*
X153232762Y-93013779D01*
X153232819Y-92948576D01*
X153107181Y-92644509D01*
X152874746Y-92411667D01*
X152570898Y-92285499D01*
X152241897Y-92285212D01*
X151937830Y-92410850D01*
X151735031Y-92613294D01*
X151701505Y-92532154D01*
X151469070Y-92299312D01*
X151165222Y-92173144D01*
X150836221Y-92172857D01*
X150532154Y-92298495D01*
X150299312Y-92530930D01*
X150262871Y-92618691D01*
X150165222Y-92578144D01*
X149836221Y-92577857D01*
X149592864Y-92678410D01*
X149419070Y-92504312D01*
X149115222Y-92378144D01*
X148786221Y-92377857D01*
X148482154Y-92503495D01*
X148425105Y-92560445D01*
X148369070Y-92504312D01*
X148065222Y-92378144D01*
X147736221Y-92377857D01*
X147432154Y-92503495D01*
X147350061Y-92585445D01*
X147269070Y-92504312D01*
X146965222Y-92378144D01*
X146636221Y-92377857D01*
X146332154Y-92503495D01*
X146249930Y-92585576D01*
X146019070Y-92354312D01*
X145715222Y-92228144D01*
X145386221Y-92227857D01*
X145082154Y-92353495D01*
X144849312Y-92585930D01*
X144723144Y-92889778D01*
X144722977Y-93081364D01*
X144715222Y-93078144D01*
X144386221Y-93077857D01*
X144082154Y-93203495D01*
X143849312Y-93435930D01*
X143723144Y-93739778D01*
X143722857Y-94068779D01*
X143848495Y-94372846D01*
X143952945Y-94477479D01*
X143849312Y-94580930D01*
X143723144Y-94884778D01*
X143722857Y-95213779D01*
X143848495Y-95517846D01*
X144030445Y-95700114D01*
X143849312Y-95880930D01*
X143723144Y-96184778D01*
X143722857Y-96513779D01*
X143848495Y-96817846D01*
X143882988Y-96852400D01*
X143799312Y-96935930D01*
X143673144Y-97239778D01*
X143672857Y-97568779D01*
X143798495Y-97872846D01*
X144030930Y-98105688D01*
X144173118Y-98164729D01*
X144172857Y-98463779D01*
X144298495Y-98767846D01*
X144530930Y-99000688D01*
X144834778Y-99126856D01*
X145163779Y-99127143D01*
X145467846Y-99001505D01*
X145700688Y-98769070D01*
X145779996Y-98578075D01*
X145798495Y-98622846D01*
X146030930Y-98855688D01*
X146334778Y-98981856D01*
X146663779Y-98982143D01*
X146967846Y-98856505D01*
X147125027Y-98699599D01*
X147230930Y-98805688D01*
X147534778Y-98931856D01*
X147863779Y-98932143D01*
X148167846Y-98806505D01*
X148274983Y-98699555D01*
X148372178Y-98796921D01*
X148193204Y-98886408D01*
X148153485Y-98917454D01*
X148128974Y-98961507D01*
X148123000Y-99000000D01*
X148123000Y-101000000D01*
X148133006Y-101049410D01*
X148161447Y-101091035D01*
X148193204Y-101113592D01*
X149193204Y-101613592D01*
X149250000Y-101627000D01*
X150250000Y-101627000D01*
X150299410Y-101616994D01*
X150351600Y-101576200D01*
X151813500Y-99627000D01*
X152184644Y-99627000D01*
X152788829Y-100472859D01*
X152786225Y-100472857D01*
X152482158Y-100598495D01*
X152249316Y-100830930D01*
X152123148Y-101134778D01*
X152122861Y-101463779D01*
X152248499Y-101767846D01*
X152480934Y-102000688D01*
X152594872Y-102047999D01*
X146523805Y-102047999D01*
X146576856Y-101920238D01*
X146577143Y-101591237D01*
X146451505Y-101287170D01*
X146219070Y-101054328D01*
X146181082Y-101038554D01*
X146250688Y-100969070D01*
X146376856Y-100665222D01*
X146377143Y-100336221D01*
X146251505Y-100032154D01*
X146019070Y-99799312D01*
X145715222Y-99673144D01*
X145386221Y-99672857D01*
X145082154Y-99798495D01*
X144849312Y-100030930D01*
X144723144Y-100334778D01*
X144722857Y-100663779D01*
X144848495Y-100967846D01*
X145080930Y-101200688D01*
X145118918Y-101216462D01*
X145049312Y-101285946D01*
X144923144Y-101589794D01*
X144922880Y-101892234D01*
X142857740Y-99827094D01*
X142913779Y-99827143D01*
X143217846Y-99701505D01*
X143450688Y-99469070D01*
X143576856Y-99165222D01*
X143577143Y-98836221D01*
X143451505Y-98532154D01*
X143219070Y-98299312D01*
X142915222Y-98173144D01*
X142586221Y-98172857D01*
X142282154Y-98298495D01*
X142049312Y-98530930D01*
X141923144Y-98834778D01*
X141923094Y-98892448D01*
X140802000Y-97771354D01*
X140802000Y-96867498D01*
X140950688Y-96719070D01*
X141076856Y-96415222D01*
X141077143Y-96086221D01*
X140951505Y-95782154D01*
X140719070Y-95549312D01*
X140415222Y-95423144D01*
X140086221Y-95422857D01*
X139782154Y-95548495D01*
X139549312Y-95780930D01*
X139423144Y-96084778D01*
X139422857Y-96413779D01*
X139548495Y-96717846D01*
X139698000Y-96867613D01*
X139698000Y-98000000D01*
X139740018Y-98211242D01*
X139859677Y-98390323D01*
X144459676Y-102990322D01*
X144638757Y-103109981D01*
X144849999Y-103151999D01*
X153150001Y-103151999D01*
X153361243Y-103109981D01*
X153422940Y-103068756D01*
X153422857Y-103163779D01*
X153548495Y-103467846D01*
X153780930Y-103700688D01*
X154084778Y-103826856D01*
X154413779Y-103827143D01*
X154717846Y-103701505D01*
X154950688Y-103469070D01*
X155076856Y-103165222D01*
X155076889Y-103127000D01*
X161642235Y-103127000D01*
X161566343Y-103309770D01*
X161566056Y-103638771D01*
X161624159Y-103779391D01*
X161608130Y-103786014D01*
X161375288Y-104018449D01*
X161249120Y-104322297D01*
X161248833Y-104651298D01*
X161374471Y-104955365D01*
X161606906Y-105188207D01*
X161910754Y-105314375D01*
X162239755Y-105314662D01*
X162363721Y-105263440D01*
X162568270Y-105468348D01*
X162872118Y-105594516D01*
X163083735Y-105594701D01*
X163123000Y-105633966D01*
X163123000Y-115500213D01*
X161924379Y-115500333D01*
X161950688Y-115474070D01*
X162076856Y-115170222D01*
X162077143Y-114841221D01*
X161951505Y-114537154D01*
X161719070Y-114304312D01*
X161415222Y-114178144D01*
X161086221Y-114177857D01*
X160782154Y-114303495D01*
X160549312Y-114535930D01*
X160423144Y-114839778D01*
X160422857Y-115168779D01*
X160548495Y-115472846D01*
X160576068Y-115500467D01*
X156923879Y-115500833D01*
X156950688Y-115474070D01*
X157076856Y-115170222D01*
X157077143Y-114841221D01*
X156951505Y-114537154D01*
X156719070Y-114304312D01*
X156415222Y-114178144D01*
X156086221Y-114177857D01*
X155782154Y-114303495D01*
X155549312Y-114535930D01*
X155423144Y-114839778D01*
X155422857Y-115168779D01*
X155548495Y-115472846D01*
X155576567Y-115500967D01*
X151923378Y-115501333D01*
X151950688Y-115474070D01*
X152076856Y-115170222D01*
X152077143Y-114841221D01*
X151951505Y-114537154D01*
X151719070Y-114304312D01*
X151415222Y-114178144D01*
X151086221Y-114177857D01*
X150782154Y-114303495D01*
X150549312Y-114535930D01*
X150423144Y-114839778D01*
X150422857Y-115168779D01*
X150548495Y-115472846D01*
X150577066Y-115501467D01*
X146922877Y-115501833D01*
X146950688Y-115474070D01*
X147076856Y-115170222D01*
X147077143Y-114841221D01*
X146951505Y-114537154D01*
X146719070Y-114304312D01*
X146415222Y-114178144D01*
X146086221Y-114177857D01*
X145782154Y-114303495D01*
X145549312Y-114535930D01*
X145423144Y-114839778D01*
X145422857Y-115168779D01*
X145548495Y-115472846D01*
X145577565Y-115501967D01*
X142922476Y-115502233D01*
X142950688Y-115474070D01*
X143076856Y-115170222D01*
X143077143Y-114841221D01*
X142951505Y-114537154D01*
X142719070Y-114304312D01*
X142415222Y-114178144D01*
X142086221Y-114177857D01*
X141782154Y-114303495D01*
X141624995Y-114460379D01*
X141926361Y-113734609D01*
X141927637Y-112271808D01*
X141406269Y-111010000D01*
X145134635Y-111010000D01*
X145134635Y-112510000D01*
X145164409Y-112668237D01*
X145257927Y-112813567D01*
X145400619Y-112911064D01*
X145570000Y-112945365D01*
X147070000Y-112945365D01*
X147228237Y-112915591D01*
X147373567Y-112822073D01*
X147471064Y-112679381D01*
X147505365Y-112510000D01*
X147505365Y-111993093D01*
X147682796Y-111993093D01*
X147861606Y-112425846D01*
X148192412Y-112757230D01*
X148624853Y-112936795D01*
X149093093Y-112937204D01*
X149525846Y-112758394D01*
X149857230Y-112427588D01*
X150036795Y-111995147D01*
X150036796Y-111993093D01*
X150222796Y-111993093D01*
X150401606Y-112425846D01*
X150732412Y-112757230D01*
X151164853Y-112936795D01*
X151633093Y-112937204D01*
X152065846Y-112758394D01*
X152397230Y-112427588D01*
X152576795Y-111995147D01*
X152576796Y-111993093D01*
X152762796Y-111993093D01*
X152941606Y-112425846D01*
X153272412Y-112757230D01*
X153704853Y-112936795D01*
X154173093Y-112937204D01*
X154605846Y-112758394D01*
X154937230Y-112427588D01*
X155116795Y-111995147D01*
X155116796Y-111993093D01*
X155302796Y-111993093D01*
X155481606Y-112425846D01*
X155812412Y-112757230D01*
X156244853Y-112936795D01*
X156713093Y-112937204D01*
X157145846Y-112758394D01*
X157477230Y-112427588D01*
X157493223Y-112389072D01*
X157548495Y-112522840D01*
X157780930Y-112755682D01*
X158084778Y-112881850D01*
X158413779Y-112882137D01*
X158717846Y-112756499D01*
X158950688Y-112524064D01*
X159076856Y-112220216D01*
X159077143Y-111891215D01*
X158951505Y-111587148D01*
X158719070Y-111354306D01*
X158415222Y-111228138D01*
X158086221Y-111227851D01*
X157782154Y-111353489D01*
X157642962Y-111492438D01*
X157478394Y-111094154D01*
X157147588Y-110762770D01*
X156715147Y-110583205D01*
X156246907Y-110582796D01*
X155814154Y-110761606D01*
X155482770Y-111092412D01*
X155303205Y-111524853D01*
X155302796Y-111993093D01*
X155116796Y-111993093D01*
X155117204Y-111526907D01*
X154938394Y-111094154D01*
X154607588Y-110762770D01*
X154175147Y-110583205D01*
X153706907Y-110582796D01*
X153274154Y-110761606D01*
X152942770Y-111092412D01*
X152763205Y-111524853D01*
X152762796Y-111993093D01*
X152576796Y-111993093D01*
X152577204Y-111526907D01*
X152398394Y-111094154D01*
X152067588Y-110762770D01*
X151635147Y-110583205D01*
X151166907Y-110582796D01*
X150734154Y-110761606D01*
X150402770Y-111092412D01*
X150223205Y-111524853D01*
X150222796Y-111993093D01*
X150036796Y-111993093D01*
X150037204Y-111526907D01*
X149858394Y-111094154D01*
X149527588Y-110762770D01*
X149095147Y-110583205D01*
X148626907Y-110582796D01*
X148194154Y-110761606D01*
X147862770Y-111092412D01*
X147683205Y-111524853D01*
X147682796Y-111993093D01*
X147505365Y-111993093D01*
X147505365Y-111010000D01*
X147475591Y-110851763D01*
X147382073Y-110706433D01*
X147239381Y-110608936D01*
X147070000Y-110574635D01*
X145570000Y-110574635D01*
X145411763Y-110604409D01*
X145266433Y-110697927D01*
X145168936Y-110840619D01*
X145134635Y-111010000D01*
X141406269Y-111010000D01*
X141369027Y-110919868D01*
X140335573Y-109884608D01*
X139201691Y-109413779D01*
X145922857Y-109413779D01*
X146048495Y-109717846D01*
X146280930Y-109950688D01*
X146584778Y-110076856D01*
X146913779Y-110077143D01*
X147217846Y-109951505D01*
X147450688Y-109719070D01*
X147576856Y-109415222D01*
X147577143Y-109086221D01*
X147574069Y-109078779D01*
X150357857Y-109078779D01*
X150483495Y-109382846D01*
X150715930Y-109615688D01*
X151019778Y-109741856D01*
X151348779Y-109742143D01*
X151652846Y-109616505D01*
X151885688Y-109384070D01*
X152011856Y-109080222D01*
X152012143Y-108751221D01*
X151886505Y-108447154D01*
X151654070Y-108214312D01*
X151350222Y-108088144D01*
X151021221Y-108087857D01*
X150717154Y-108213495D01*
X150484312Y-108445930D01*
X150358144Y-108749778D01*
X150357857Y-109078779D01*
X147574069Y-109078779D01*
X147451505Y-108782154D01*
X147219070Y-108549312D01*
X146915222Y-108423144D01*
X146586221Y-108422857D01*
X146282154Y-108548495D01*
X146049312Y-108780930D01*
X145923144Y-109084778D01*
X145922857Y-109413779D01*
X139201691Y-109413779D01*
X138984609Y-109323639D01*
X137521808Y-109322363D01*
X137076999Y-109506154D01*
X137077143Y-109341221D01*
X136951505Y-109037154D01*
X136719070Y-108804312D01*
X136415222Y-108678144D01*
X136086221Y-108677857D01*
X135782154Y-108803495D01*
X135752000Y-108833596D01*
X135752000Y-107413779D01*
X150672857Y-107413779D01*
X150798495Y-107717846D01*
X151030930Y-107950688D01*
X151334778Y-108076856D01*
X151663779Y-108077143D01*
X151967846Y-107951505D01*
X152200688Y-107719070D01*
X152249966Y-107600396D01*
X152298495Y-107717846D01*
X152530930Y-107950688D01*
X152834778Y-108076856D01*
X153163779Y-108077143D01*
X153467846Y-107951505D01*
X153700688Y-107719070D01*
X153710610Y-107695175D01*
X158566780Y-107695175D01*
X158692418Y-107999242D01*
X158924853Y-108232084D01*
X159228701Y-108358252D01*
X159557702Y-108358539D01*
X159861769Y-108232901D01*
X160072225Y-108022813D01*
X160229845Y-108180709D01*
X160533693Y-108306877D01*
X160862694Y-108307164D01*
X161166761Y-108181526D01*
X161399603Y-107949091D01*
X161525771Y-107645243D01*
X161526058Y-107316242D01*
X161400420Y-107012175D01*
X161167985Y-106779333D01*
X160864137Y-106653165D01*
X160535136Y-106652878D01*
X160231069Y-106778516D01*
X160020613Y-106988604D01*
X159862993Y-106830708D01*
X159559145Y-106704540D01*
X159230144Y-106704253D01*
X158926077Y-106829891D01*
X158693235Y-107062326D01*
X158567067Y-107366174D01*
X158566780Y-107695175D01*
X153710610Y-107695175D01*
X153826856Y-107415222D01*
X153827143Y-107086221D01*
X153701505Y-106782154D01*
X153469070Y-106549312D01*
X153165222Y-106423144D01*
X152836221Y-106422857D01*
X152532154Y-106548495D01*
X152299312Y-106780930D01*
X152250034Y-106899604D01*
X152201505Y-106782154D01*
X151969070Y-106549312D01*
X151665222Y-106423144D01*
X151336221Y-106422857D01*
X151032154Y-106548495D01*
X150799312Y-106780930D01*
X150673144Y-107084778D01*
X150672857Y-107413779D01*
X135752000Y-107413779D01*
X135752000Y-106663779D01*
X145672857Y-106663779D01*
X145798495Y-106967846D01*
X146030930Y-107200688D01*
X146334778Y-107326856D01*
X146663779Y-107327143D01*
X146967846Y-107201505D01*
X147200688Y-106969070D01*
X147326856Y-106665222D01*
X147327143Y-106336221D01*
X147201505Y-106032154D01*
X147038416Y-105868779D01*
X157872857Y-105868779D01*
X157998495Y-106172846D01*
X158230930Y-106405688D01*
X158534778Y-106531856D01*
X158863779Y-106532143D01*
X159167846Y-106406505D01*
X159252527Y-106321972D01*
X159430930Y-106500688D01*
X159734778Y-106626856D01*
X160063779Y-106627143D01*
X160367846Y-106501505D01*
X160600688Y-106269070D01*
X160726856Y-105965222D01*
X160727143Y-105636221D01*
X160601505Y-105332154D01*
X160369070Y-105099312D01*
X160065222Y-104973144D01*
X159736221Y-104972857D01*
X159432154Y-105098495D01*
X159347473Y-105183028D01*
X159169070Y-105004312D01*
X158865222Y-104878144D01*
X158536221Y-104877857D01*
X158232154Y-105003495D01*
X157999312Y-105235930D01*
X157873144Y-105539778D01*
X157872857Y-105868779D01*
X147038416Y-105868779D01*
X146969070Y-105799312D01*
X146665222Y-105673144D01*
X146336221Y-105672857D01*
X146032154Y-105798495D01*
X145799312Y-106030930D01*
X145673144Y-106334778D01*
X145672857Y-106663779D01*
X135752000Y-106663779D01*
X135752000Y-105176707D01*
X135780930Y-105205688D01*
X136084778Y-105331856D01*
X136413779Y-105332143D01*
X136717846Y-105206505D01*
X136950688Y-104974070D01*
X137076856Y-104670222D01*
X137076948Y-104563779D01*
X150922857Y-104563779D01*
X151048495Y-104867846D01*
X151280930Y-105100688D01*
X151584778Y-105226856D01*
X151913779Y-105227143D01*
X152217846Y-105101505D01*
X152450688Y-104869070D01*
X152576856Y-104565222D01*
X152577143Y-104236221D01*
X152451505Y-103932154D01*
X152219070Y-103699312D01*
X151915222Y-103573144D01*
X151586221Y-103572857D01*
X151282154Y-103698495D01*
X151049312Y-103930930D01*
X150923144Y-104234778D01*
X150922857Y-104563779D01*
X137076948Y-104563779D01*
X137077143Y-104341221D01*
X136951505Y-104037154D01*
X136719070Y-103804312D01*
X136415222Y-103678144D01*
X136086221Y-103677857D01*
X135782154Y-103803495D01*
X135752000Y-103833596D01*
X135752000Y-100176707D01*
X135780930Y-100205688D01*
X136084778Y-100331856D01*
X136413779Y-100332143D01*
X136717846Y-100206505D01*
X136950688Y-99974070D01*
X137076856Y-99670222D01*
X137077143Y-99341221D01*
X136951505Y-99037154D01*
X136719070Y-98804312D01*
X136415222Y-98678144D01*
X136086221Y-98677857D01*
X135782154Y-98803495D01*
X135752000Y-98833596D01*
X135752000Y-95176707D01*
X135780930Y-95205688D01*
X136084778Y-95331856D01*
X136413779Y-95332143D01*
X136717846Y-95206505D01*
X136950688Y-94974070D01*
X137076856Y-94670222D01*
X137077143Y-94341221D01*
X136951505Y-94037154D01*
X136719070Y-93804312D01*
X136415222Y-93678144D01*
X136086221Y-93677857D01*
X135782154Y-93803495D01*
X135752000Y-93833596D01*
X135752000Y-91413785D01*
X151422857Y-91413785D01*
X151548495Y-91717852D01*
X151780930Y-91950694D01*
X152084778Y-92076862D01*
X152413779Y-92077149D01*
X152717846Y-91951511D01*
X152950688Y-91719076D01*
X153076856Y-91415228D01*
X153077143Y-91086227D01*
X152951505Y-90782160D01*
X152719070Y-90549318D01*
X152415222Y-90423150D01*
X152086221Y-90422863D01*
X151782154Y-90548501D01*
X151549312Y-90780936D01*
X151423144Y-91084784D01*
X151422857Y-91413785D01*
X135752000Y-91413785D01*
X135752000Y-90176707D01*
X135780930Y-90205688D01*
X136084778Y-90331856D01*
X136413779Y-90332143D01*
X136717846Y-90206505D01*
X136950688Y-89974070D01*
X137076856Y-89670222D01*
X137077143Y-89341221D01*
X136951505Y-89037154D01*
X136719070Y-88804312D01*
X136415222Y-88678144D01*
X136086221Y-88677857D01*
X135782154Y-88803495D01*
X135752000Y-88833596D01*
X135752000Y-88063779D01*
X144772857Y-88063779D01*
X144898495Y-88367846D01*
X145130930Y-88600688D01*
X145434778Y-88726856D01*
X145763779Y-88727143D01*
X146067846Y-88601505D01*
X146300688Y-88369070D01*
X146426856Y-88065222D01*
X146426857Y-88063779D01*
X148772857Y-88063779D01*
X148898495Y-88367846D01*
X149130930Y-88600688D01*
X149434778Y-88726856D01*
X149763779Y-88727143D01*
X150067846Y-88601505D01*
X150300688Y-88369070D01*
X150426856Y-88065222D01*
X150427098Y-87787530D01*
X155447665Y-87787530D01*
X155573303Y-88091597D01*
X155630973Y-88149368D01*
X155574312Y-88205930D01*
X155448144Y-88509778D01*
X155447857Y-88838779D01*
X155573495Y-89142846D01*
X155805930Y-89375688D01*
X156109778Y-89501856D01*
X156438779Y-89502143D01*
X156742846Y-89376505D01*
X156975688Y-89144070D01*
X157101856Y-88840222D01*
X157102143Y-88511221D01*
X156976505Y-88207154D01*
X156918835Y-88149383D01*
X156975496Y-88092821D01*
X157101664Y-87788973D01*
X157101951Y-87459972D01*
X156994544Y-87200028D01*
X157100688Y-87094070D01*
X157226856Y-86790222D01*
X157227143Y-86461221D01*
X157101505Y-86157154D01*
X156869070Y-85924312D01*
X156565222Y-85798144D01*
X156236221Y-85797857D01*
X155932154Y-85923495D01*
X155699312Y-86155930D01*
X155573144Y-86459778D01*
X155572857Y-86788779D01*
X155680264Y-87048723D01*
X155574120Y-87154681D01*
X155447952Y-87458529D01*
X155447665Y-87787530D01*
X150427098Y-87787530D01*
X150427143Y-87736221D01*
X150301505Y-87432154D01*
X150069070Y-87199312D01*
X149765222Y-87073144D01*
X149436221Y-87072857D01*
X149132154Y-87198495D01*
X148899312Y-87430930D01*
X148773144Y-87734778D01*
X148772857Y-88063779D01*
X146426857Y-88063779D01*
X146427143Y-87736221D01*
X146301505Y-87432154D01*
X146069070Y-87199312D01*
X145765222Y-87073144D01*
X145436221Y-87072857D01*
X145132154Y-87198495D01*
X144899312Y-87430930D01*
X144773144Y-87734778D01*
X144772857Y-88063779D01*
X135752000Y-88063779D01*
X135752000Y-85176707D01*
X135780930Y-85205688D01*
X136084778Y-85331856D01*
X136413779Y-85332143D01*
X136717846Y-85206505D01*
X136950688Y-84974070D01*
X137076856Y-84670222D01*
X137077009Y-84494329D01*
X137515391Y-84676361D01*
X138978192Y-84677637D01*
X140330132Y-84119027D01*
X141365392Y-83085573D01*
X141371858Y-83070000D01*
X142594635Y-83070000D01*
X142594635Y-84570000D01*
X142624409Y-84728237D01*
X142717927Y-84873567D01*
X142860619Y-84971064D01*
X143030000Y-85005365D01*
X144530000Y-85005365D01*
X144688237Y-84975591D01*
X144833567Y-84882073D01*
X144931064Y-84739381D01*
X144965365Y-84570000D01*
X144965365Y-84053093D01*
X145142796Y-84053093D01*
X145321606Y-84485846D01*
X145652412Y-84817230D01*
X146084853Y-84996795D01*
X146553093Y-84997204D01*
X146985846Y-84818394D01*
X147317230Y-84487588D01*
X147496795Y-84055147D01*
X147496796Y-84053093D01*
X147682796Y-84053093D01*
X147861606Y-84485846D01*
X148192412Y-84817230D01*
X148624853Y-84996795D01*
X149093093Y-84997204D01*
X149525846Y-84818394D01*
X149666830Y-84677655D01*
X150721950Y-84677655D01*
X150801329Y-84860065D01*
X151244916Y-85009996D01*
X151712113Y-84978761D01*
X151998671Y-84860065D01*
X152078050Y-84677655D01*
X151400000Y-83999605D01*
X150721950Y-84677655D01*
X149666830Y-84677655D01*
X149857230Y-84487588D01*
X150036795Y-84055147D01*
X150037135Y-83664916D01*
X150210004Y-83664916D01*
X150241239Y-84132113D01*
X150359935Y-84418671D01*
X150542345Y-84498050D01*
X151220395Y-83820000D01*
X151579605Y-83820000D01*
X152257655Y-84498050D01*
X152440065Y-84418671D01*
X152563629Y-84053093D01*
X152762796Y-84053093D01*
X152941606Y-84485846D01*
X153272412Y-84817230D01*
X153704853Y-84996795D01*
X154173093Y-84997204D01*
X154605846Y-84818394D01*
X154937230Y-84487588D01*
X155116795Y-84055147D01*
X155117204Y-83586907D01*
X154938394Y-83154154D01*
X154607588Y-82822770D01*
X154175147Y-82643205D01*
X153706907Y-82642796D01*
X153274154Y-82821606D01*
X152942770Y-83152412D01*
X152763205Y-83584853D01*
X152762796Y-84053093D01*
X152563629Y-84053093D01*
X152589996Y-83975084D01*
X152558761Y-83507887D01*
X152440065Y-83221329D01*
X152257655Y-83141950D01*
X151579605Y-83820000D01*
X151220395Y-83820000D01*
X150542345Y-83141950D01*
X150359935Y-83221329D01*
X150210004Y-83664916D01*
X150037135Y-83664916D01*
X150037204Y-83586907D01*
X149858394Y-83154154D01*
X149666920Y-82962345D01*
X150721950Y-82962345D01*
X151400000Y-83640395D01*
X152078050Y-82962345D01*
X151998671Y-82779935D01*
X151555084Y-82630004D01*
X151087887Y-82661239D01*
X150801329Y-82779935D01*
X150721950Y-82962345D01*
X149666920Y-82962345D01*
X149527588Y-82822770D01*
X149095147Y-82643205D01*
X148626907Y-82642796D01*
X148194154Y-82821606D01*
X147862770Y-83152412D01*
X147683205Y-83584853D01*
X147682796Y-84053093D01*
X147496796Y-84053093D01*
X147497204Y-83586907D01*
X147318394Y-83154154D01*
X146987588Y-82822770D01*
X146555147Y-82643205D01*
X146086907Y-82642796D01*
X145654154Y-82821606D01*
X145322770Y-83152412D01*
X145143205Y-83584853D01*
X145142796Y-84053093D01*
X144965365Y-84053093D01*
X144965365Y-83070000D01*
X144935591Y-82911763D01*
X144842073Y-82766433D01*
X144699381Y-82668936D01*
X144530000Y-82634635D01*
X143030000Y-82634635D01*
X142871763Y-82664409D01*
X142726433Y-82757927D01*
X142628936Y-82900619D01*
X142594635Y-83070000D01*
X141371858Y-83070000D01*
X141926361Y-81734609D01*
X141926553Y-81513750D01*
X142603000Y-81513750D01*
X142603000Y-82114936D01*
X142668007Y-82271876D01*
X142788124Y-82391993D01*
X142945065Y-82457000D01*
X143546250Y-82457000D01*
X143653000Y-82350250D01*
X143653000Y-81407000D01*
X143907000Y-81407000D01*
X143907000Y-82350250D01*
X144013750Y-82457000D01*
X144614935Y-82457000D01*
X144771876Y-82391993D01*
X144891993Y-82271876D01*
X144957000Y-82114936D01*
X144957000Y-81513750D01*
X144956343Y-81513093D01*
X145142796Y-81513093D01*
X145321606Y-81945846D01*
X145652412Y-82277230D01*
X146084853Y-82456795D01*
X146553093Y-82457204D01*
X146985846Y-82278394D01*
X147317230Y-81947588D01*
X147496795Y-81515147D01*
X147496796Y-81513093D01*
X147682796Y-81513093D01*
X147861606Y-81945846D01*
X148192412Y-82277230D01*
X148624853Y-82456795D01*
X149093093Y-82457204D01*
X149525846Y-82278394D01*
X149857230Y-81947588D01*
X150036795Y-81515147D01*
X150036796Y-81513093D01*
X150222796Y-81513093D01*
X150401606Y-81945846D01*
X150732412Y-82277230D01*
X151164853Y-82456795D01*
X151633093Y-82457204D01*
X152065846Y-82278394D01*
X152397230Y-81947588D01*
X152576795Y-81515147D01*
X152576796Y-81513093D01*
X152762796Y-81513093D01*
X152941606Y-81945846D01*
X153272412Y-82277230D01*
X153704853Y-82456795D01*
X154173093Y-82457204D01*
X154605846Y-82278394D01*
X154937230Y-81947588D01*
X155116795Y-81515147D01*
X155116796Y-81513093D01*
X155302796Y-81513093D01*
X155481606Y-81945846D01*
X155812412Y-82277230D01*
X155894335Y-82311248D01*
X155699312Y-82505930D01*
X155573144Y-82809778D01*
X155572857Y-83138779D01*
X155698495Y-83442846D01*
X155930930Y-83675688D01*
X156234778Y-83801856D01*
X156563779Y-83802143D01*
X156867846Y-83676505D01*
X157100688Y-83444070D01*
X157131951Y-83368779D01*
X158172857Y-83368779D01*
X158298495Y-83672846D01*
X158530930Y-83905688D01*
X158834778Y-84031856D01*
X159163779Y-84032143D01*
X159467846Y-83906505D01*
X159700688Y-83674070D01*
X159826856Y-83370222D01*
X159827143Y-83041221D01*
X159701505Y-82737154D01*
X159469070Y-82504312D01*
X159165222Y-82378144D01*
X158836221Y-82377857D01*
X158532154Y-82503495D01*
X158299312Y-82735930D01*
X158173144Y-83039778D01*
X158172857Y-83368779D01*
X157131951Y-83368779D01*
X157226856Y-83140222D01*
X157227143Y-82811221D01*
X157101505Y-82507154D01*
X156952779Y-82358168D01*
X157145846Y-82278394D01*
X157477230Y-81947588D01*
X157656795Y-81515147D01*
X157657204Y-81046907D01*
X157478394Y-80614154D01*
X157147588Y-80282770D01*
X156715147Y-80103205D01*
X156246907Y-80102796D01*
X155814154Y-80281606D01*
X155482770Y-80612412D01*
X155303205Y-81044853D01*
X155302796Y-81513093D01*
X155116796Y-81513093D01*
X155117204Y-81046907D01*
X154938394Y-80614154D01*
X154607588Y-80282770D01*
X154175147Y-80103205D01*
X153706907Y-80102796D01*
X153274154Y-80281606D01*
X152942770Y-80612412D01*
X152763205Y-81044853D01*
X152762796Y-81513093D01*
X152576796Y-81513093D01*
X152577204Y-81046907D01*
X152398394Y-80614154D01*
X152067588Y-80282770D01*
X151635147Y-80103205D01*
X151166907Y-80102796D01*
X150734154Y-80281606D01*
X150402770Y-80612412D01*
X150223205Y-81044853D01*
X150222796Y-81513093D01*
X150036796Y-81513093D01*
X150037204Y-81046907D01*
X149858394Y-80614154D01*
X149527588Y-80282770D01*
X149095147Y-80103205D01*
X148626907Y-80102796D01*
X148194154Y-80281606D01*
X147862770Y-80612412D01*
X147683205Y-81044853D01*
X147682796Y-81513093D01*
X147496796Y-81513093D01*
X147497204Y-81046907D01*
X147318394Y-80614154D01*
X146987588Y-80282770D01*
X146555147Y-80103205D01*
X146086907Y-80102796D01*
X145654154Y-80281606D01*
X145322770Y-80612412D01*
X145143205Y-81044853D01*
X145142796Y-81513093D01*
X144956343Y-81513093D01*
X144850250Y-81407000D01*
X143907000Y-81407000D01*
X143653000Y-81407000D01*
X142709750Y-81407000D01*
X142603000Y-81513750D01*
X141926553Y-81513750D01*
X141927485Y-80445064D01*
X142603000Y-80445064D01*
X142603000Y-81046250D01*
X142709750Y-81153000D01*
X143653000Y-81153000D01*
X143653000Y-80209750D01*
X143907000Y-80209750D01*
X143907000Y-81153000D01*
X144850250Y-81153000D01*
X144957000Y-81046250D01*
X144957000Y-80445064D01*
X144891993Y-80288124D01*
X144771876Y-80168007D01*
X144614935Y-80103000D01*
X144013750Y-80103000D01*
X143907000Y-80209750D01*
X143653000Y-80209750D01*
X143546250Y-80103000D01*
X142945065Y-80103000D01*
X142788124Y-80168007D01*
X142668007Y-80288124D01*
X142603000Y-80445064D01*
X141927485Y-80445064D01*
X141927637Y-80271808D01*
X141745911Y-79831997D01*
X141913779Y-79832143D01*
X142217846Y-79706505D01*
X142450688Y-79474070D01*
X142576856Y-79170222D01*
X142577143Y-78841221D01*
X142451505Y-78537154D01*
X142416412Y-78502000D01*
X145083301Y-78502000D01*
X145049312Y-78535930D01*
X145049312Y-78535930D01*
G37*
X145049312Y-78535930D02*
X144923144Y-78839778D01*
X144922857Y-79168779D01*
X145048495Y-79472846D01*
X145280930Y-79705688D01*
X145584778Y-79831856D01*
X145913779Y-79832143D01*
X146217846Y-79706505D01*
X146450688Y-79474070D01*
X146576856Y-79170222D01*
X146577143Y-78841221D01*
X146451505Y-78537154D01*
X146416412Y-78502000D01*
X150083301Y-78502000D01*
X150049312Y-78535930D01*
X149923144Y-78839778D01*
X149922857Y-79168779D01*
X150048495Y-79472846D01*
X150280930Y-79705688D01*
X150584778Y-79831856D01*
X150913779Y-79832143D01*
X151217846Y-79706505D01*
X151450688Y-79474070D01*
X151576856Y-79170222D01*
X151577143Y-78841221D01*
X151451505Y-78537154D01*
X151416412Y-78502000D01*
X155083301Y-78502000D01*
X155049312Y-78535930D01*
X154923144Y-78839778D01*
X154922857Y-79168779D01*
X155048495Y-79472846D01*
X155280930Y-79705688D01*
X155584778Y-79831856D01*
X155913779Y-79832143D01*
X156217846Y-79706505D01*
X156450688Y-79474070D01*
X156576856Y-79170222D01*
X156577143Y-78841221D01*
X156451505Y-78537154D01*
X156416412Y-78502000D01*
X159083301Y-78502000D01*
X159049312Y-78535930D01*
X158923144Y-78839778D01*
X158922857Y-79168779D01*
X159048495Y-79472846D01*
X159280930Y-79705688D01*
X159584778Y-79831856D01*
X159913779Y-79832143D01*
X160217846Y-79706505D01*
X160324982Y-79599556D01*
X160347998Y-79622613D01*
X160347998Y-81354998D01*
X160390016Y-81566240D01*
X160509675Y-81745321D01*
X162842793Y-84078439D01*
X162782154Y-84103495D01*
X162549312Y-84335930D01*
X162423144Y-84639778D01*
X162422857Y-84968779D01*
X162548495Y-85272846D01*
X162780930Y-85505688D01*
X163084778Y-85631856D01*
X163296395Y-85632041D01*
X163373000Y-85708646D01*
X163373000Y-88562546D01*
X163199312Y-88735930D01*
X163073144Y-89039778D01*
X163072857Y-89368779D01*
X163198495Y-89672846D01*
X163373000Y-89847657D01*
X163373000Y-90440565D01*
X163167915Y-90235480D01*
X163168098Y-90025387D01*
X163042460Y-89721320D01*
X162810025Y-89488478D01*
X162506177Y-89362310D01*
X162177176Y-89362023D01*
X161873109Y-89487661D01*
X161640267Y-89720096D01*
X161514099Y-90023944D01*
X161513812Y-90352945D01*
X161639450Y-90657012D01*
X161871885Y-90889854D01*
X162175733Y-91016022D01*
X162387350Y-91016207D01*
X162647989Y-91276846D01*
X162647989Y-94373000D01*
X156500000Y-94373000D01*
X156450590Y-94383006D01*
X156401256Y-94420134D01*
X156185695Y-94686645D01*
X156165222Y-94678144D01*
X155836221Y-94677857D01*
X155532154Y-94803495D01*
X155299312Y-95035930D01*
X155173144Y-95339778D01*
X155172857Y-95668779D01*
X155246725Y-95847554D01*
X153849417Y-97575134D01*
X153866994Y-97549410D01*
X153877000Y-97500000D01*
X153877000Y-96333721D01*
X154175394Y-96457624D01*
X154504395Y-96457911D01*
X154808462Y-96332273D01*
X155041304Y-96099838D01*
X155167472Y-95795990D01*
X155167759Y-95466989D01*
X155042121Y-95162922D01*
X154809686Y-94930080D01*
X154505838Y-94803912D01*
X154176837Y-94803625D01*
X153872770Y-94929263D01*
X153639928Y-95161698D01*
X153513760Y-95465546D01*
X153513473Y-95794547D01*
X153545889Y-95873000D01*
X153290699Y-95873000D01*
X151721917Y-94752441D01*
X151950688Y-94524070D01*
X152076856Y-94220222D01*
X152077143Y-93891221D01*
X152067256Y-93867293D01*
X152240454Y-93939211D01*
X152569455Y-93939498D01*
X152873522Y-93813860D01*
X153106364Y-93581425D01*
X153232532Y-93277577D01*
X153232762Y-93013779D01*
X155397867Y-93013779D01*
X155523505Y-93317846D01*
X155755940Y-93550688D01*
X156059788Y-93676856D01*
X156388789Y-93677143D01*
X156692856Y-93551505D01*
X156925698Y-93319070D01*
X157051866Y-93015222D01*
X157051981Y-92883319D01*
X159747814Y-92883319D01*
X159873452Y-93187386D01*
X160105887Y-93420228D01*
X160409735Y-93546396D01*
X160738736Y-93546683D01*
X161042803Y-93421045D01*
X161275645Y-93188610D01*
X161401813Y-92884762D01*
X161402100Y-92555761D01*
X161276462Y-92251694D01*
X161044027Y-92018852D01*
X160740179Y-91892684D01*
X160411178Y-91892397D01*
X160107111Y-92018035D01*
X159874269Y-92250470D01*
X159748101Y-92554318D01*
X159747814Y-92883319D01*
X157051981Y-92883319D01*
X157052153Y-92686221D01*
X156957506Y-92457158D01*
X156995560Y-92472959D01*
X157324561Y-92473246D01*
X157628628Y-92347608D01*
X157861470Y-92115173D01*
X157987638Y-91811325D01*
X157987925Y-91482324D01*
X157862287Y-91178257D01*
X157629852Y-90945415D01*
X157326004Y-90819247D01*
X157067986Y-90819022D01*
X156951505Y-90537116D01*
X156719070Y-90304274D01*
X156415222Y-90178106D01*
X156086221Y-90177819D01*
X155782154Y-90303457D01*
X155549312Y-90535892D01*
X155423144Y-90839740D01*
X155422857Y-91168741D01*
X155548495Y-91472808D01*
X155780930Y-91705650D01*
X156084778Y-91831818D01*
X156342796Y-91832043D01*
X156428286Y-92038945D01*
X156390232Y-92023144D01*
X156061231Y-92022857D01*
X155757164Y-92148495D01*
X155524322Y-92380930D01*
X155398154Y-92684778D01*
X155397867Y-93013779D01*
X153232762Y-93013779D01*
X153232819Y-92948576D01*
X153107181Y-92644509D01*
X152874746Y-92411667D01*
X152570898Y-92285499D01*
X152241897Y-92285212D01*
X151937830Y-92410850D01*
X151735031Y-92613294D01*
X151701505Y-92532154D01*
X151469070Y-92299312D01*
X151165222Y-92173144D01*
X150836221Y-92172857D01*
X150532154Y-92298495D01*
X150299312Y-92530930D01*
X150262871Y-92618691D01*
X150165222Y-92578144D01*
X149836221Y-92577857D01*
X149592864Y-92678410D01*
X149419070Y-92504312D01*
X149115222Y-92378144D01*
X148786221Y-92377857D01*
X148482154Y-92503495D01*
X148425105Y-92560445D01*
X148369070Y-92504312D01*
X148065222Y-92378144D01*
X147736221Y-92377857D01*
X147432154Y-92503495D01*
X147350061Y-92585445D01*
X147269070Y-92504312D01*
X146965222Y-92378144D01*
X146636221Y-92377857D01*
X146332154Y-92503495D01*
X146249930Y-92585576D01*
X146019070Y-92354312D01*
X145715222Y-92228144D01*
X145386221Y-92227857D01*
X145082154Y-92353495D01*
X144849312Y-92585930D01*
X144723144Y-92889778D01*
X144722977Y-93081364D01*
X144715222Y-93078144D01*
X144386221Y-93077857D01*
X144082154Y-93203495D01*
X143849312Y-93435930D01*
X143723144Y-93739778D01*
X143722857Y-94068779D01*
X143848495Y-94372846D01*
X143952945Y-94477479D01*
X143849312Y-94580930D01*
X143723144Y-94884778D01*
X143722857Y-95213779D01*
X143848495Y-95517846D01*
X144030445Y-95700114D01*
X143849312Y-95880930D01*
X143723144Y-96184778D01*
X143722857Y-96513779D01*
X143848495Y-96817846D01*
X143882988Y-96852400D01*
X143799312Y-96935930D01*
X143673144Y-97239778D01*
X143672857Y-97568779D01*
X143798495Y-97872846D01*
X144030930Y-98105688D01*
X144173118Y-98164729D01*
X144172857Y-98463779D01*
X144298495Y-98767846D01*
X144530930Y-99000688D01*
X144834778Y-99126856D01*
X145163779Y-99127143D01*
X145467846Y-99001505D01*
X145700688Y-98769070D01*
X145779996Y-98578075D01*
X145798495Y-98622846D01*
X146030930Y-98855688D01*
X146334778Y-98981856D01*
X146663779Y-98982143D01*
X146967846Y-98856505D01*
X147125027Y-98699599D01*
X147230930Y-98805688D01*
X147534778Y-98931856D01*
X147863779Y-98932143D01*
X148167846Y-98806505D01*
X148274983Y-98699555D01*
X148372178Y-98796921D01*
X148193204Y-98886408D01*
X148153485Y-98917454D01*
X148128974Y-98961507D01*
X148123000Y-99000000D01*
X148123000Y-101000000D01*
X148133006Y-101049410D01*
X148161447Y-101091035D01*
X148193204Y-101113592D01*
X149193204Y-101613592D01*
X149250000Y-101627000D01*
X150250000Y-101627000D01*
X150299410Y-101616994D01*
X150351600Y-101576200D01*
X151813500Y-99627000D01*
X152184644Y-99627000D01*
X152788829Y-100472859D01*
X152786225Y-100472857D01*
X152482158Y-100598495D01*
X152249316Y-100830930D01*
X152123148Y-101134778D01*
X152122861Y-101463779D01*
X152248499Y-101767846D01*
X152480934Y-102000688D01*
X152594872Y-102047999D01*
X146523805Y-102047999D01*
X146576856Y-101920238D01*
X146577143Y-101591237D01*
X146451505Y-101287170D01*
X146219070Y-101054328D01*
X146181082Y-101038554D01*
X146250688Y-100969070D01*
X146376856Y-100665222D01*
X146377143Y-100336221D01*
X146251505Y-100032154D01*
X146019070Y-99799312D01*
X145715222Y-99673144D01*
X145386221Y-99672857D01*
X145082154Y-99798495D01*
X144849312Y-100030930D01*
X144723144Y-100334778D01*
X144722857Y-100663779D01*
X144848495Y-100967846D01*
X145080930Y-101200688D01*
X145118918Y-101216462D01*
X145049312Y-101285946D01*
X144923144Y-101589794D01*
X144922880Y-101892234D01*
X142857740Y-99827094D01*
X142913779Y-99827143D01*
X143217846Y-99701505D01*
X143450688Y-99469070D01*
X143576856Y-99165222D01*
X143577143Y-98836221D01*
X143451505Y-98532154D01*
X143219070Y-98299312D01*
X142915222Y-98173144D01*
X142586221Y-98172857D01*
X142282154Y-98298495D01*
X142049312Y-98530930D01*
X141923144Y-98834778D01*
X141923094Y-98892448D01*
X140802000Y-97771354D01*
X140802000Y-96867498D01*
X140950688Y-96719070D01*
X141076856Y-96415222D01*
X141077143Y-96086221D01*
X140951505Y-95782154D01*
X140719070Y-95549312D01*
X140415222Y-95423144D01*
X140086221Y-95422857D01*
X139782154Y-95548495D01*
X139549312Y-95780930D01*
X139423144Y-96084778D01*
X139422857Y-96413779D01*
X139548495Y-96717846D01*
X139698000Y-96867613D01*
X139698000Y-98000000D01*
X139740018Y-98211242D01*
X139859677Y-98390323D01*
X144459676Y-102990322D01*
X144638757Y-103109981D01*
X144849999Y-103151999D01*
X153150001Y-103151999D01*
X153361243Y-103109981D01*
X153422940Y-103068756D01*
X153422857Y-103163779D01*
X153548495Y-103467846D01*
X153780930Y-103700688D01*
X154084778Y-103826856D01*
X154413779Y-103827143D01*
X154717846Y-103701505D01*
X154950688Y-103469070D01*
X155076856Y-103165222D01*
X155076889Y-103127000D01*
X161642235Y-103127000D01*
X161566343Y-103309770D01*
X161566056Y-103638771D01*
X161624159Y-103779391D01*
X161608130Y-103786014D01*
X161375288Y-104018449D01*
X161249120Y-104322297D01*
X161248833Y-104651298D01*
X161374471Y-104955365D01*
X161606906Y-105188207D01*
X161910754Y-105314375D01*
X162239755Y-105314662D01*
X162363721Y-105263440D01*
X162568270Y-105468348D01*
X162872118Y-105594516D01*
X163083735Y-105594701D01*
X163123000Y-105633966D01*
X163123000Y-115500213D01*
X161924379Y-115500333D01*
X161950688Y-115474070D01*
X162076856Y-115170222D01*
X162077143Y-114841221D01*
X161951505Y-114537154D01*
X161719070Y-114304312D01*
X161415222Y-114178144D01*
X161086221Y-114177857D01*
X160782154Y-114303495D01*
X160549312Y-114535930D01*
X160423144Y-114839778D01*
X160422857Y-115168779D01*
X160548495Y-115472846D01*
X160576068Y-115500467D01*
X156923879Y-115500833D01*
X156950688Y-115474070D01*
X157076856Y-115170222D01*
X157077143Y-114841221D01*
X156951505Y-114537154D01*
X156719070Y-114304312D01*
X156415222Y-114178144D01*
X156086221Y-114177857D01*
X155782154Y-114303495D01*
X155549312Y-114535930D01*
X155423144Y-114839778D01*
X155422857Y-115168779D01*
X155548495Y-115472846D01*
X155576567Y-115500967D01*
X151923378Y-115501333D01*
X151950688Y-115474070D01*
X152076856Y-115170222D01*
X152077143Y-114841221D01*
X151951505Y-114537154D01*
X151719070Y-114304312D01*
X151415222Y-114178144D01*
X151086221Y-114177857D01*
X150782154Y-114303495D01*
X150549312Y-114535930D01*
X150423144Y-114839778D01*
X150422857Y-115168779D01*
X150548495Y-115472846D01*
X150577066Y-115501467D01*
X146922877Y-115501833D01*
X146950688Y-115474070D01*
X147076856Y-115170222D01*
X147077143Y-114841221D01*
X146951505Y-114537154D01*
X146719070Y-114304312D01*
X146415222Y-114178144D01*
X146086221Y-114177857D01*
X145782154Y-114303495D01*
X145549312Y-114535930D01*
X145423144Y-114839778D01*
X145422857Y-115168779D01*
X145548495Y-115472846D01*
X145577565Y-115501967D01*
X142922476Y-115502233D01*
X142950688Y-115474070D01*
X143076856Y-115170222D01*
X143077143Y-114841221D01*
X142951505Y-114537154D01*
X142719070Y-114304312D01*
X142415222Y-114178144D01*
X142086221Y-114177857D01*
X141782154Y-114303495D01*
X141624995Y-114460379D01*
X141926361Y-113734609D01*
X141927637Y-112271808D01*
X141406269Y-111010000D01*
X145134635Y-111010000D01*
X145134635Y-112510000D01*
X145164409Y-112668237D01*
X145257927Y-112813567D01*
X145400619Y-112911064D01*
X145570000Y-112945365D01*
X147070000Y-112945365D01*
X147228237Y-112915591D01*
X147373567Y-112822073D01*
X147471064Y-112679381D01*
X147505365Y-112510000D01*
X147505365Y-111993093D01*
X147682796Y-111993093D01*
X147861606Y-112425846D01*
X148192412Y-112757230D01*
X148624853Y-112936795D01*
X149093093Y-112937204D01*
X149525846Y-112758394D01*
X149857230Y-112427588D01*
X150036795Y-111995147D01*
X150036796Y-111993093D01*
X150222796Y-111993093D01*
X150401606Y-112425846D01*
X150732412Y-112757230D01*
X151164853Y-112936795D01*
X151633093Y-112937204D01*
X152065846Y-112758394D01*
X152397230Y-112427588D01*
X152576795Y-111995147D01*
X152576796Y-111993093D01*
X152762796Y-111993093D01*
X152941606Y-112425846D01*
X153272412Y-112757230D01*
X153704853Y-112936795D01*
X154173093Y-112937204D01*
X154605846Y-112758394D01*
X154937230Y-112427588D01*
X155116795Y-111995147D01*
X155116796Y-111993093D01*
X155302796Y-111993093D01*
X155481606Y-112425846D01*
X155812412Y-112757230D01*
X156244853Y-112936795D01*
X156713093Y-112937204D01*
X157145846Y-112758394D01*
X157477230Y-112427588D01*
X157493223Y-112389072D01*
X157548495Y-112522840D01*
X157780930Y-112755682D01*
X158084778Y-112881850D01*
X158413779Y-112882137D01*
X158717846Y-112756499D01*
X158950688Y-112524064D01*
X159076856Y-112220216D01*
X159077143Y-111891215D01*
X158951505Y-111587148D01*
X158719070Y-111354306D01*
X158415222Y-111228138D01*
X158086221Y-111227851D01*
X157782154Y-111353489D01*
X157642962Y-111492438D01*
X157478394Y-111094154D01*
X157147588Y-110762770D01*
X156715147Y-110583205D01*
X156246907Y-110582796D01*
X155814154Y-110761606D01*
X155482770Y-111092412D01*
X155303205Y-111524853D01*
X155302796Y-111993093D01*
X155116796Y-111993093D01*
X155117204Y-111526907D01*
X154938394Y-111094154D01*
X154607588Y-110762770D01*
X154175147Y-110583205D01*
X153706907Y-110582796D01*
X153274154Y-110761606D01*
X152942770Y-111092412D01*
X152763205Y-111524853D01*
X152762796Y-111993093D01*
X152576796Y-111993093D01*
X152577204Y-111526907D01*
X152398394Y-111094154D01*
X152067588Y-110762770D01*
X151635147Y-110583205D01*
X151166907Y-110582796D01*
X150734154Y-110761606D01*
X150402770Y-111092412D01*
X150223205Y-111524853D01*
X150222796Y-111993093D01*
X150036796Y-111993093D01*
X150037204Y-111526907D01*
X149858394Y-111094154D01*
X149527588Y-110762770D01*
X149095147Y-110583205D01*
X148626907Y-110582796D01*
X148194154Y-110761606D01*
X147862770Y-111092412D01*
X147683205Y-111524853D01*
X147682796Y-111993093D01*
X147505365Y-111993093D01*
X147505365Y-111010000D01*
X147475591Y-110851763D01*
X147382073Y-110706433D01*
X147239381Y-110608936D01*
X147070000Y-110574635D01*
X145570000Y-110574635D01*
X145411763Y-110604409D01*
X145266433Y-110697927D01*
X145168936Y-110840619D01*
X145134635Y-111010000D01*
X141406269Y-111010000D01*
X141369027Y-110919868D01*
X140335573Y-109884608D01*
X139201691Y-109413779D01*
X145922857Y-109413779D01*
X146048495Y-109717846D01*
X146280930Y-109950688D01*
X146584778Y-110076856D01*
X146913779Y-110077143D01*
X147217846Y-109951505D01*
X147450688Y-109719070D01*
X147576856Y-109415222D01*
X147577143Y-109086221D01*
X147574069Y-109078779D01*
X150357857Y-109078779D01*
X150483495Y-109382846D01*
X150715930Y-109615688D01*
X151019778Y-109741856D01*
X151348779Y-109742143D01*
X151652846Y-109616505D01*
X151885688Y-109384070D01*
X152011856Y-109080222D01*
X152012143Y-108751221D01*
X151886505Y-108447154D01*
X151654070Y-108214312D01*
X151350222Y-108088144D01*
X151021221Y-108087857D01*
X150717154Y-108213495D01*
X150484312Y-108445930D01*
X150358144Y-108749778D01*
X150357857Y-109078779D01*
X147574069Y-109078779D01*
X147451505Y-108782154D01*
X147219070Y-108549312D01*
X146915222Y-108423144D01*
X146586221Y-108422857D01*
X146282154Y-108548495D01*
X146049312Y-108780930D01*
X145923144Y-109084778D01*
X145922857Y-109413779D01*
X139201691Y-109413779D01*
X138984609Y-109323639D01*
X137521808Y-109322363D01*
X137076999Y-109506154D01*
X137077143Y-109341221D01*
X136951505Y-109037154D01*
X136719070Y-108804312D01*
X136415222Y-108678144D01*
X136086221Y-108677857D01*
X135782154Y-108803495D01*
X135752000Y-108833596D01*
X135752000Y-107413779D01*
X150672857Y-107413779D01*
X150798495Y-107717846D01*
X151030930Y-107950688D01*
X151334778Y-108076856D01*
X151663779Y-108077143D01*
X151967846Y-107951505D01*
X152200688Y-107719070D01*
X152249966Y-107600396D01*
X152298495Y-107717846D01*
X152530930Y-107950688D01*
X152834778Y-108076856D01*
X153163779Y-108077143D01*
X153467846Y-107951505D01*
X153700688Y-107719070D01*
X153710610Y-107695175D01*
X158566780Y-107695175D01*
X158692418Y-107999242D01*
X158924853Y-108232084D01*
X159228701Y-108358252D01*
X159557702Y-108358539D01*
X159861769Y-108232901D01*
X160072225Y-108022813D01*
X160229845Y-108180709D01*
X160533693Y-108306877D01*
X160862694Y-108307164D01*
X161166761Y-108181526D01*
X161399603Y-107949091D01*
X161525771Y-107645243D01*
X161526058Y-107316242D01*
X161400420Y-107012175D01*
X161167985Y-106779333D01*
X160864137Y-106653165D01*
X160535136Y-106652878D01*
X160231069Y-106778516D01*
X160020613Y-106988604D01*
X159862993Y-106830708D01*
X159559145Y-106704540D01*
X159230144Y-106704253D01*
X158926077Y-106829891D01*
X158693235Y-107062326D01*
X158567067Y-107366174D01*
X158566780Y-107695175D01*
X153710610Y-107695175D01*
X153826856Y-107415222D01*
X153827143Y-107086221D01*
X153701505Y-106782154D01*
X153469070Y-106549312D01*
X153165222Y-106423144D01*
X152836221Y-106422857D01*
X152532154Y-106548495D01*
X152299312Y-106780930D01*
X152250034Y-106899604D01*
X152201505Y-106782154D01*
X151969070Y-106549312D01*
X151665222Y-106423144D01*
X151336221Y-106422857D01*
X151032154Y-106548495D01*
X150799312Y-106780930D01*
X150673144Y-107084778D01*
X150672857Y-107413779D01*
X135752000Y-107413779D01*
X135752000Y-106663779D01*
X145672857Y-106663779D01*
X145798495Y-106967846D01*
X146030930Y-107200688D01*
X146334778Y-107326856D01*
X146663779Y-107327143D01*
X146967846Y-107201505D01*
X147200688Y-106969070D01*
X147326856Y-106665222D01*
X147327143Y-106336221D01*
X147201505Y-106032154D01*
X147038416Y-105868779D01*
X157872857Y-105868779D01*
X157998495Y-106172846D01*
X158230930Y-106405688D01*
X158534778Y-106531856D01*
X158863779Y-106532143D01*
X159167846Y-106406505D01*
X159252527Y-106321972D01*
X159430930Y-106500688D01*
X159734778Y-106626856D01*
X160063779Y-106627143D01*
X160367846Y-106501505D01*
X160600688Y-106269070D01*
X160726856Y-105965222D01*
X160727143Y-105636221D01*
X160601505Y-105332154D01*
X160369070Y-105099312D01*
X160065222Y-104973144D01*
X159736221Y-104972857D01*
X159432154Y-105098495D01*
X159347473Y-105183028D01*
X159169070Y-105004312D01*
X158865222Y-104878144D01*
X158536221Y-104877857D01*
X158232154Y-105003495D01*
X157999312Y-105235930D01*
X157873144Y-105539778D01*
X157872857Y-105868779D01*
X147038416Y-105868779D01*
X146969070Y-105799312D01*
X146665222Y-105673144D01*
X146336221Y-105672857D01*
X146032154Y-105798495D01*
X145799312Y-106030930D01*
X145673144Y-106334778D01*
X145672857Y-106663779D01*
X135752000Y-106663779D01*
X135752000Y-105176707D01*
X135780930Y-105205688D01*
X136084778Y-105331856D01*
X136413779Y-105332143D01*
X136717846Y-105206505D01*
X136950688Y-104974070D01*
X137076856Y-104670222D01*
X137076948Y-104563779D01*
X150922857Y-104563779D01*
X151048495Y-104867846D01*
X151280930Y-105100688D01*
X151584778Y-105226856D01*
X151913779Y-105227143D01*
X152217846Y-105101505D01*
X152450688Y-104869070D01*
X152576856Y-104565222D01*
X152577143Y-104236221D01*
X152451505Y-103932154D01*
X152219070Y-103699312D01*
X151915222Y-103573144D01*
X151586221Y-103572857D01*
X151282154Y-103698495D01*
X151049312Y-103930930D01*
X150923144Y-104234778D01*
X150922857Y-104563779D01*
X137076948Y-104563779D01*
X137077143Y-104341221D01*
X136951505Y-104037154D01*
X136719070Y-103804312D01*
X136415222Y-103678144D01*
X136086221Y-103677857D01*
X135782154Y-103803495D01*
X135752000Y-103833596D01*
X135752000Y-100176707D01*
X135780930Y-100205688D01*
X136084778Y-100331856D01*
X136413779Y-100332143D01*
X136717846Y-100206505D01*
X136950688Y-99974070D01*
X137076856Y-99670222D01*
X137077143Y-99341221D01*
X136951505Y-99037154D01*
X136719070Y-98804312D01*
X136415222Y-98678144D01*
X136086221Y-98677857D01*
X135782154Y-98803495D01*
X135752000Y-98833596D01*
X135752000Y-95176707D01*
X135780930Y-95205688D01*
X136084778Y-95331856D01*
X136413779Y-95332143D01*
X136717846Y-95206505D01*
X136950688Y-94974070D01*
X137076856Y-94670222D01*
X137077143Y-94341221D01*
X136951505Y-94037154D01*
X136719070Y-93804312D01*
X136415222Y-93678144D01*
X136086221Y-93677857D01*
X135782154Y-93803495D01*
X135752000Y-93833596D01*
X135752000Y-91413785D01*
X151422857Y-91413785D01*
X151548495Y-91717852D01*
X151780930Y-91950694D01*
X152084778Y-92076862D01*
X152413779Y-92077149D01*
X152717846Y-91951511D01*
X152950688Y-91719076D01*
X153076856Y-91415228D01*
X153077143Y-91086227D01*
X152951505Y-90782160D01*
X152719070Y-90549318D01*
X152415222Y-90423150D01*
X152086221Y-90422863D01*
X151782154Y-90548501D01*
X151549312Y-90780936D01*
X151423144Y-91084784D01*
X151422857Y-91413785D01*
X135752000Y-91413785D01*
X135752000Y-90176707D01*
X135780930Y-90205688D01*
X136084778Y-90331856D01*
X136413779Y-90332143D01*
X136717846Y-90206505D01*
X136950688Y-89974070D01*
X137076856Y-89670222D01*
X137077143Y-89341221D01*
X136951505Y-89037154D01*
X136719070Y-88804312D01*
X136415222Y-88678144D01*
X136086221Y-88677857D01*
X135782154Y-88803495D01*
X135752000Y-88833596D01*
X135752000Y-88063779D01*
X144772857Y-88063779D01*
X144898495Y-88367846D01*
X145130930Y-88600688D01*
X145434778Y-88726856D01*
X145763779Y-88727143D01*
X146067846Y-88601505D01*
X146300688Y-88369070D01*
X146426856Y-88065222D01*
X146426857Y-88063779D01*
X148772857Y-88063779D01*
X148898495Y-88367846D01*
X149130930Y-88600688D01*
X149434778Y-88726856D01*
X149763779Y-88727143D01*
X150067846Y-88601505D01*
X150300688Y-88369070D01*
X150426856Y-88065222D01*
X150427098Y-87787530D01*
X155447665Y-87787530D01*
X155573303Y-88091597D01*
X155630973Y-88149368D01*
X155574312Y-88205930D01*
X155448144Y-88509778D01*
X155447857Y-88838779D01*
X155573495Y-89142846D01*
X155805930Y-89375688D01*
X156109778Y-89501856D01*
X156438779Y-89502143D01*
X156742846Y-89376505D01*
X156975688Y-89144070D01*
X157101856Y-88840222D01*
X157102143Y-88511221D01*
X156976505Y-88207154D01*
X156918835Y-88149383D01*
X156975496Y-88092821D01*
X157101664Y-87788973D01*
X157101951Y-87459972D01*
X156994544Y-87200028D01*
X157100688Y-87094070D01*
X157226856Y-86790222D01*
X157227143Y-86461221D01*
X157101505Y-86157154D01*
X156869070Y-85924312D01*
X156565222Y-85798144D01*
X156236221Y-85797857D01*
X155932154Y-85923495D01*
X155699312Y-86155930D01*
X155573144Y-86459778D01*
X155572857Y-86788779D01*
X155680264Y-87048723D01*
X155574120Y-87154681D01*
X155447952Y-87458529D01*
X155447665Y-87787530D01*
X150427098Y-87787530D01*
X150427143Y-87736221D01*
X150301505Y-87432154D01*
X150069070Y-87199312D01*
X149765222Y-87073144D01*
X149436221Y-87072857D01*
X149132154Y-87198495D01*
X148899312Y-87430930D01*
X148773144Y-87734778D01*
X148772857Y-88063779D01*
X146426857Y-88063779D01*
X146427143Y-87736221D01*
X146301505Y-87432154D01*
X146069070Y-87199312D01*
X145765222Y-87073144D01*
X145436221Y-87072857D01*
X145132154Y-87198495D01*
X144899312Y-87430930D01*
X144773144Y-87734778D01*
X144772857Y-88063779D01*
X135752000Y-88063779D01*
X135752000Y-85176707D01*
X135780930Y-85205688D01*
X136084778Y-85331856D01*
X136413779Y-85332143D01*
X136717846Y-85206505D01*
X136950688Y-84974070D01*
X137076856Y-84670222D01*
X137077009Y-84494329D01*
X137515391Y-84676361D01*
X138978192Y-84677637D01*
X140330132Y-84119027D01*
X141365392Y-83085573D01*
X141371858Y-83070000D01*
X142594635Y-83070000D01*
X142594635Y-84570000D01*
X142624409Y-84728237D01*
X142717927Y-84873567D01*
X142860619Y-84971064D01*
X143030000Y-85005365D01*
X144530000Y-85005365D01*
X144688237Y-84975591D01*
X144833567Y-84882073D01*
X144931064Y-84739381D01*
X144965365Y-84570000D01*
X144965365Y-84053093D01*
X145142796Y-84053093D01*
X145321606Y-84485846D01*
X145652412Y-84817230D01*
X146084853Y-84996795D01*
X146553093Y-84997204D01*
X146985846Y-84818394D01*
X147317230Y-84487588D01*
X147496795Y-84055147D01*
X147496796Y-84053093D01*
X147682796Y-84053093D01*
X147861606Y-84485846D01*
X148192412Y-84817230D01*
X148624853Y-84996795D01*
X149093093Y-84997204D01*
X149525846Y-84818394D01*
X149666830Y-84677655D01*
X150721950Y-84677655D01*
X150801329Y-84860065D01*
X151244916Y-85009996D01*
X151712113Y-84978761D01*
X151998671Y-84860065D01*
X152078050Y-84677655D01*
X151400000Y-83999605D01*
X150721950Y-84677655D01*
X149666830Y-84677655D01*
X149857230Y-84487588D01*
X150036795Y-84055147D01*
X150037135Y-83664916D01*
X150210004Y-83664916D01*
X150241239Y-84132113D01*
X150359935Y-84418671D01*
X150542345Y-84498050D01*
X151220395Y-83820000D01*
X151579605Y-83820000D01*
X152257655Y-84498050D01*
X152440065Y-84418671D01*
X152563629Y-84053093D01*
X152762796Y-84053093D01*
X152941606Y-84485846D01*
X153272412Y-84817230D01*
X153704853Y-84996795D01*
X154173093Y-84997204D01*
X154605846Y-84818394D01*
X154937230Y-84487588D01*
X155116795Y-84055147D01*
X155117204Y-83586907D01*
X154938394Y-83154154D01*
X154607588Y-82822770D01*
X154175147Y-82643205D01*
X153706907Y-82642796D01*
X153274154Y-82821606D01*
X152942770Y-83152412D01*
X152763205Y-83584853D01*
X152762796Y-84053093D01*
X152563629Y-84053093D01*
X152589996Y-83975084D01*
X152558761Y-83507887D01*
X152440065Y-83221329D01*
X152257655Y-83141950D01*
X151579605Y-83820000D01*
X151220395Y-83820000D01*
X150542345Y-83141950D01*
X150359935Y-83221329D01*
X150210004Y-83664916D01*
X150037135Y-83664916D01*
X150037204Y-83586907D01*
X149858394Y-83154154D01*
X149666920Y-82962345D01*
X150721950Y-82962345D01*
X151400000Y-83640395D01*
X152078050Y-82962345D01*
X151998671Y-82779935D01*
X151555084Y-82630004D01*
X151087887Y-82661239D01*
X150801329Y-82779935D01*
X150721950Y-82962345D01*
X149666920Y-82962345D01*
X149527588Y-82822770D01*
X149095147Y-82643205D01*
X148626907Y-82642796D01*
X148194154Y-82821606D01*
X147862770Y-83152412D01*
X147683205Y-83584853D01*
X147682796Y-84053093D01*
X147496796Y-84053093D01*
X147497204Y-83586907D01*
X147318394Y-83154154D01*
X146987588Y-82822770D01*
X146555147Y-82643205D01*
X146086907Y-82642796D01*
X145654154Y-82821606D01*
X145322770Y-83152412D01*
X145143205Y-83584853D01*
X145142796Y-84053093D01*
X144965365Y-84053093D01*
X144965365Y-83070000D01*
X144935591Y-82911763D01*
X144842073Y-82766433D01*
X144699381Y-82668936D01*
X144530000Y-82634635D01*
X143030000Y-82634635D01*
X142871763Y-82664409D01*
X142726433Y-82757927D01*
X142628936Y-82900619D01*
X142594635Y-83070000D01*
X141371858Y-83070000D01*
X141926361Y-81734609D01*
X141926553Y-81513750D01*
X142603000Y-81513750D01*
X142603000Y-82114936D01*
X142668007Y-82271876D01*
X142788124Y-82391993D01*
X142945065Y-82457000D01*
X143546250Y-82457000D01*
X143653000Y-82350250D01*
X143653000Y-81407000D01*
X143907000Y-81407000D01*
X143907000Y-82350250D01*
X144013750Y-82457000D01*
X144614935Y-82457000D01*
X144771876Y-82391993D01*
X144891993Y-82271876D01*
X144957000Y-82114936D01*
X144957000Y-81513750D01*
X144956343Y-81513093D01*
X145142796Y-81513093D01*
X145321606Y-81945846D01*
X145652412Y-82277230D01*
X146084853Y-82456795D01*
X146553093Y-82457204D01*
X146985846Y-82278394D01*
X147317230Y-81947588D01*
X147496795Y-81515147D01*
X147496796Y-81513093D01*
X147682796Y-81513093D01*
X147861606Y-81945846D01*
X148192412Y-82277230D01*
X148624853Y-82456795D01*
X149093093Y-82457204D01*
X149525846Y-82278394D01*
X149857230Y-81947588D01*
X150036795Y-81515147D01*
X150036796Y-81513093D01*
X150222796Y-81513093D01*
X150401606Y-81945846D01*
X150732412Y-82277230D01*
X151164853Y-82456795D01*
X151633093Y-82457204D01*
X152065846Y-82278394D01*
X152397230Y-81947588D01*
X152576795Y-81515147D01*
X152576796Y-81513093D01*
X152762796Y-81513093D01*
X152941606Y-81945846D01*
X153272412Y-82277230D01*
X153704853Y-82456795D01*
X154173093Y-82457204D01*
X154605846Y-82278394D01*
X154937230Y-81947588D01*
X155116795Y-81515147D01*
X155116796Y-81513093D01*
X155302796Y-81513093D01*
X155481606Y-81945846D01*
X155812412Y-82277230D01*
X155894335Y-82311248D01*
X155699312Y-82505930D01*
X155573144Y-82809778D01*
X155572857Y-83138779D01*
X155698495Y-83442846D01*
X155930930Y-83675688D01*
X156234778Y-83801856D01*
X156563779Y-83802143D01*
X156867846Y-83676505D01*
X157100688Y-83444070D01*
X157131951Y-83368779D01*
X158172857Y-83368779D01*
X158298495Y-83672846D01*
X158530930Y-83905688D01*
X158834778Y-84031856D01*
X159163779Y-84032143D01*
X159467846Y-83906505D01*
X159700688Y-83674070D01*
X159826856Y-83370222D01*
X159827143Y-83041221D01*
X159701505Y-82737154D01*
X159469070Y-82504312D01*
X159165222Y-82378144D01*
X158836221Y-82377857D01*
X158532154Y-82503495D01*
X158299312Y-82735930D01*
X158173144Y-83039778D01*
X158172857Y-83368779D01*
X157131951Y-83368779D01*
X157226856Y-83140222D01*
X157227143Y-82811221D01*
X157101505Y-82507154D01*
X156952779Y-82358168D01*
X157145846Y-82278394D01*
X157477230Y-81947588D01*
X157656795Y-81515147D01*
X157657204Y-81046907D01*
X157478394Y-80614154D01*
X157147588Y-80282770D01*
X156715147Y-80103205D01*
X156246907Y-80102796D01*
X155814154Y-80281606D01*
X155482770Y-80612412D01*
X155303205Y-81044853D01*
X155302796Y-81513093D01*
X155116796Y-81513093D01*
X155117204Y-81046907D01*
X154938394Y-80614154D01*
X154607588Y-80282770D01*
X154175147Y-80103205D01*
X153706907Y-80102796D01*
X153274154Y-80281606D01*
X152942770Y-80612412D01*
X152763205Y-81044853D01*
X152762796Y-81513093D01*
X152576796Y-81513093D01*
X152577204Y-81046907D01*
X152398394Y-80614154D01*
X152067588Y-80282770D01*
X151635147Y-80103205D01*
X151166907Y-80102796D01*
X150734154Y-80281606D01*
X150402770Y-80612412D01*
X150223205Y-81044853D01*
X150222796Y-81513093D01*
X150036796Y-81513093D01*
X150037204Y-81046907D01*
X149858394Y-80614154D01*
X149527588Y-80282770D01*
X149095147Y-80103205D01*
X148626907Y-80102796D01*
X148194154Y-80281606D01*
X147862770Y-80612412D01*
X147683205Y-81044853D01*
X147682796Y-81513093D01*
X147496796Y-81513093D01*
X147497204Y-81046907D01*
X147318394Y-80614154D01*
X146987588Y-80282770D01*
X146555147Y-80103205D01*
X146086907Y-80102796D01*
X145654154Y-80281606D01*
X145322770Y-80612412D01*
X145143205Y-81044853D01*
X145142796Y-81513093D01*
X144956343Y-81513093D01*
X144850250Y-81407000D01*
X143907000Y-81407000D01*
X143653000Y-81407000D01*
X142709750Y-81407000D01*
X142603000Y-81513750D01*
X141926553Y-81513750D01*
X141927485Y-80445064D01*
X142603000Y-80445064D01*
X142603000Y-81046250D01*
X142709750Y-81153000D01*
X143653000Y-81153000D01*
X143653000Y-80209750D01*
X143907000Y-80209750D01*
X143907000Y-81153000D01*
X144850250Y-81153000D01*
X144957000Y-81046250D01*
X144957000Y-80445064D01*
X144891993Y-80288124D01*
X144771876Y-80168007D01*
X144614935Y-80103000D01*
X144013750Y-80103000D01*
X143907000Y-80209750D01*
X143653000Y-80209750D01*
X143546250Y-80103000D01*
X142945065Y-80103000D01*
X142788124Y-80168007D01*
X142668007Y-80288124D01*
X142603000Y-80445064D01*
X141927485Y-80445064D01*
X141927637Y-80271808D01*
X141745911Y-79831997D01*
X141913779Y-79832143D01*
X142217846Y-79706505D01*
X142450688Y-79474070D01*
X142576856Y-79170222D01*
X142577143Y-78841221D01*
X142451505Y-78537154D01*
X142416412Y-78502000D01*
X145083301Y-78502000D01*
X145049312Y-78535930D01*
G36*
X184748000Y-109373000D02*
X183103484Y-109373000D01*
X182984609Y-109323639D01*
X181521808Y-109322363D01*
X181399257Y-109373000D01*
X180627000Y-109373000D01*
X180627000Y-101877000D01*
X184748000Y-101877000D01*
X184748000Y-109373000D01*
X184748000Y-109373000D01*
G37*
X184748000Y-109373000D02*
X183103484Y-109373000D01*
X182984609Y-109323639D01*
X181521808Y-109322363D01*
X181399257Y-109373000D01*
X180627000Y-109373000D01*
X180627000Y-101877000D01*
X184748000Y-101877000D01*
X184748000Y-109373000D01*
G36*
X184748000Y-101123000D02*
X180648646Y-101123000D01*
X180640323Y-101114677D01*
X180627000Y-101105775D01*
X180627000Y-93742028D01*
X180672863Y-93696245D01*
X180799031Y-93392397D01*
X180799263Y-93127000D01*
X184748000Y-93127000D01*
X184748000Y-101123000D01*
X184748000Y-101123000D01*
G37*
X184748000Y-101123000D02*
X180648646Y-101123000D01*
X180640323Y-101114677D01*
X180627000Y-101105775D01*
X180627000Y-93742028D01*
X180672863Y-93696245D01*
X180799031Y-93392397D01*
X180799263Y-93127000D01*
X184748000Y-93127000D01*
X184748000Y-101123000D01*
G36*
X184748000Y-92373000D02*
X180947174Y-92373000D01*
X180627000Y-92052826D01*
X180627000Y-84307469D01*
X181515391Y-84676361D01*
X182978192Y-84677637D01*
X184310836Y-84127000D01*
X184748000Y-84127000D01*
X184748000Y-92373000D01*
X184748000Y-92373000D01*
G37*
X184748000Y-92373000D02*
X180947174Y-92373000D01*
X180627000Y-92052826D01*
X180627000Y-84307469D01*
X181515391Y-84676361D01*
X182978192Y-84677637D01*
X184310836Y-84127000D01*
X184748000Y-84127000D01*
X184748000Y-92373000D01*
M02*
