M48
;DRILL file {KiCad 4.0.6-e0-6349~53~ubuntu16.04.1} date Sun Mar  5 22:35:51 2017
;FORMAT={-:-/ absolute / metric / decimal}
FMAT,2
METRIC,TZ
T1C0.400
T2C0.800
T3C1.000
%
G90
G05
M71
T1
X145.Y-98.7
X145.5Y-97.405
X145.55Y-93.905
X145.55Y-95.05
X145.55Y-96.35
X146.4Y-99.9
X146.55Y-93.055
X146.6Y-87.9
X146.6Y-89.6
X146.8Y-101.1
X147.5Y-98.155
X147.7Y-108.2
X147.75Y-109.9
X147.8Y-93.205
X148.7Y-98.105
X148.9Y-93.205
X149.85Y-98.105
X149.95Y-93.205
X150.6Y-87.9
X150.6Y-100.5
X150.7Y-89.6
X150.712Y-99.522
X151.Y-93.405
X151.15Y-97.755
X152.25Y-94.055
X152.35Y-92.5
X152.85Y-91.55
X152.85Y-104.405
X153.349Y-92.448
X153.9Y-102.3
X154.Y-101.3
X154.9Y-102.9
X155.341Y-95.631
X156.5Y-99.755
X157.275Y-87.624
X157.275Y-88.675
X157.4Y-82.975
X157.4Y-86.625
X157.416Y-93.141
X157.613Y-91.496
X158.437Y-92.063
X158.7Y-82.905
X159.Y-100.
X159.2Y-110.4
X159.67Y-95.225
X159.7Y-105.705
X159.981Y-98.165
X160.Y-83.205
X160.Y-99.755
X160.394Y-107.531
X160.9Y-105.8
X161.361Y-92.526
X161.699Y-107.48
X161.9Y-79.005
X162.6Y-105.505
X162.9Y-79.305
X163.076Y-104.488
X163.252Y-93.179
X163.341Y-90.189
X163.393Y-103.475
X164.Y-79.805
X164.037Y-104.768
X164.702Y-93.31
X164.9Y-89.205
X165.Y-85.005
X165.Y-113.155
X165.25Y-110.755
X165.284Y-99.941
X165.627Y-95.705
X165.7Y-93.255
X169.Y-96.755
X169.963Y-97.917
X170.Y-85.505
X170.Y-88.005
X170.Y-95.005
X170.244Y-106.991
X170.25Y-109.605
X170.35Y-108.005
X174.6Y-93.505
X175.2Y-84.305
X175.7Y-102.405
X178.25Y-83.005
X179.972Y-93.227
X181.526Y-103.27
T2
X143.8Y-102.5
X144.2Y-111.1
X152.4Y-108.7
X157.025Y-95.45
X166.25Y-113.25
X166.25Y-114.45
X167.3Y-79.45
X167.3Y-80.65
X167.3Y-81.85
X167.3Y-101.205
X167.3Y-102.405
X167.3Y-103.605
X167.45Y-113.25
X167.45Y-114.45
X168.5Y-79.45
X168.5Y-80.65
X168.5Y-81.85
X168.5Y-101.205
X168.5Y-102.405
X168.5Y-103.605
X168.65Y-113.25
X168.65Y-114.45
X169.7Y-79.45
X169.7Y-80.65
X169.7Y-81.85
X169.7Y-101.205
X169.7Y-102.405
X169.7Y-103.605
X169.85Y-113.25
X169.85Y-114.45
X170.9Y-79.45
X170.9Y-80.65
X170.9Y-81.85
X170.9Y-101.205
X170.9Y-102.405
X170.9Y-103.605
X171.05Y-113.25
X171.05Y-114.45
X172.25Y-113.25
X172.25Y-114.45
X172.75Y-102.255
X173.85Y-91.305
X174.4Y-100.4
X174.9Y-109.9
X174.9Y-112.
X175.Y-79.
X175.Y-80.2
X176.8Y-84.005
X177.Y-79.
X177.Y-80.2
X179.5Y-91.005
X180.1Y-100.7
X181.75Y-87.075
X181.75Y-88.275
X181.75Y-89.475
X181.75Y-90.675
X181.75Y-96.005
X181.75Y-97.205
X181.75Y-98.405
X181.75Y-99.605
X181.75Y-104.755
X181.75Y-105.955
X181.75Y-107.155
X181.75Y-108.355
X182.95Y-87.075
X182.95Y-88.275
X182.95Y-89.475
X182.95Y-90.675
X182.95Y-96.005
X182.95Y-97.205
X182.95Y-98.405
X182.95Y-99.605
X182.95Y-104.755
X182.95Y-105.955
X182.95Y-107.155
X182.95Y-108.355
X184.15Y-87.075
X184.15Y-88.275
X184.15Y-89.475
X184.15Y-90.675
X184.15Y-96.005
X184.15Y-97.205
X184.15Y-98.405
X184.15Y-99.605
X184.15Y-104.755
X184.15Y-105.955
X184.15Y-107.155
X184.15Y-108.355
T3
X144.78Y-81.28
X144.78Y-83.82
X147.32Y-81.28
X147.32Y-83.82
X147.32Y-111.76
X149.86Y-81.28
X149.86Y-83.82
X149.86Y-111.76
X152.4Y-81.28
X152.4Y-83.82
X152.4Y-111.76
X154.94Y-81.28
X154.94Y-83.82
X154.94Y-111.76
X157.48Y-81.28
X157.48Y-111.76
T0
M30
