G04 #@! TF.FileFunction,Legend,Top*
%FSLAX46Y46*%
G04 Gerber Fmt 4.6, Leading zero omitted, Abs format (unit mm)*
G04 Created by KiCad (PCBNEW 4.0.6-e0-6349~53~ubuntu16.04.1) date Tue Mar  7 00:43:50 2017*
%MOMM*%
%LPD*%
G01*
G04 APERTURE LIST*
%ADD10C,0.100000*%
%ADD11C,0.150000*%
%ADD12C,0.300000*%
%ADD13C,0.400000*%
%ADD14C,0.250000*%
G04 APERTURE END LIST*
D10*
D11*
X177002200Y-166007200D02*
X177002200Y-198007200D01*
X285002200Y-198007200D01*
X285002200Y-166007200D01*
X177002200Y-166007200D01*
D10*
D11*
X10000000Y-10000000D02*
X10000000Y-200007200D01*
X287002200Y-200007200D01*
X287002200Y-10000000D01*
X10000000Y-10000000D01*
D10*
D11*
X12000000Y-12000000D02*
X12000000Y-198007200D01*
X285002200Y-198007200D01*
X285002200Y-12000000D01*
X12000000Y-12000000D01*
D10*
D11*
X60000000Y-12000000D02*
X60000000Y-10000000D01*
D10*
D11*
X110000000Y-12000000D02*
X110000000Y-10000000D01*
D10*
D11*
X160000000Y-12000000D02*
X160000000Y-10000000D01*
D10*
D11*
X210000000Y-12000000D02*
X210000000Y-10000000D01*
D10*
D11*
X260000000Y-12000000D02*
X260000000Y-10000000D01*
D10*
D11*
X35990476Y-11588095D02*
X35247619Y-11588095D01*
X35619048Y-11588095D02*
X35619048Y-10288095D01*
X35495238Y-10473810D01*
X35371429Y-10597619D01*
X35247619Y-10659524D01*
D10*
D11*
X85247619Y-10411905D02*
X85309524Y-10350000D01*
X85433333Y-10288095D01*
X85742857Y-10288095D01*
X85866667Y-10350000D01*
X85928571Y-10411905D01*
X85990476Y-10535714D01*
X85990476Y-10659524D01*
X85928571Y-10845238D01*
X85185714Y-11588095D01*
X85990476Y-11588095D01*
D10*
D11*
X135185714Y-10288095D02*
X135990476Y-10288095D01*
X135557143Y-10783333D01*
X135742857Y-10783333D01*
X135866667Y-10845238D01*
X135928571Y-10907143D01*
X135990476Y-11030952D01*
X135990476Y-11340476D01*
X135928571Y-11464286D01*
X135866667Y-11526190D01*
X135742857Y-11588095D01*
X135371429Y-11588095D01*
X135247619Y-11526190D01*
X135185714Y-11464286D01*
D10*
D11*
X185866667Y-10721429D02*
X185866667Y-11588095D01*
X185557143Y-10226190D02*
X185247619Y-11154762D01*
X186052381Y-11154762D01*
D10*
D11*
X235928571Y-10288095D02*
X235309524Y-10288095D01*
X235247619Y-10907143D01*
X235309524Y-10845238D01*
X235433333Y-10783333D01*
X235742857Y-10783333D01*
X235866667Y-10845238D01*
X235928571Y-10907143D01*
X235990476Y-11030952D01*
X235990476Y-11340476D01*
X235928571Y-11464286D01*
X235866667Y-11526190D01*
X235742857Y-11588095D01*
X235433333Y-11588095D01*
X235309524Y-11526190D01*
X235247619Y-11464286D01*
D10*
D11*
X285866667Y-10288095D02*
X285619048Y-10288095D01*
X285495238Y-10350000D01*
X285433333Y-10411905D01*
X285309524Y-10597619D01*
X285247619Y-10845238D01*
X285247619Y-11340476D01*
X285309524Y-11464286D01*
X285371429Y-11526190D01*
X285495238Y-11588095D01*
X285742857Y-11588095D01*
X285866667Y-11526190D01*
X285928571Y-11464286D01*
X285990476Y-11340476D01*
X285990476Y-11030952D01*
X285928571Y-10907143D01*
X285866667Y-10845238D01*
X285742857Y-10783333D01*
X285495238Y-10783333D01*
X285371429Y-10845238D01*
X285309524Y-10907143D01*
X285247619Y-11030952D01*
D10*
D11*
X60000000Y-198007200D02*
X60000000Y-200007200D01*
D10*
D11*
X110000000Y-198007200D02*
X110000000Y-200007200D01*
D10*
D11*
X160000000Y-198007200D02*
X160000000Y-200007200D01*
D10*
D11*
X210000000Y-198007200D02*
X210000000Y-200007200D01*
D10*
D11*
X260000000Y-198007200D02*
X260000000Y-200007200D01*
D10*
D11*
X35990476Y-199595295D02*
X35247619Y-199595295D01*
X35619048Y-199595295D02*
X35619048Y-198295295D01*
X35495238Y-198481010D01*
X35371429Y-198604819D01*
X35247619Y-198666724D01*
D10*
D11*
X85247619Y-198419105D02*
X85309524Y-198357200D01*
X85433333Y-198295295D01*
X85742857Y-198295295D01*
X85866667Y-198357200D01*
X85928571Y-198419105D01*
X85990476Y-198542914D01*
X85990476Y-198666724D01*
X85928571Y-198852438D01*
X85185714Y-199595295D01*
X85990476Y-199595295D01*
D10*
D11*
X135185714Y-198295295D02*
X135990476Y-198295295D01*
X135557143Y-198790533D01*
X135742857Y-198790533D01*
X135866667Y-198852438D01*
X135928571Y-198914343D01*
X135990476Y-199038152D01*
X135990476Y-199347676D01*
X135928571Y-199471486D01*
X135866667Y-199533390D01*
X135742857Y-199595295D01*
X135371429Y-199595295D01*
X135247619Y-199533390D01*
X135185714Y-199471486D01*
D10*
D11*
X185866667Y-198728629D02*
X185866667Y-199595295D01*
X185557143Y-198233390D02*
X185247619Y-199161962D01*
X186052381Y-199161962D01*
D10*
D11*
X235928571Y-198295295D02*
X235309524Y-198295295D01*
X235247619Y-198914343D01*
X235309524Y-198852438D01*
X235433333Y-198790533D01*
X235742857Y-198790533D01*
X235866667Y-198852438D01*
X235928571Y-198914343D01*
X235990476Y-199038152D01*
X235990476Y-199347676D01*
X235928571Y-199471486D01*
X235866667Y-199533390D01*
X235742857Y-199595295D01*
X235433333Y-199595295D01*
X235309524Y-199533390D01*
X235247619Y-199471486D01*
D10*
D11*
X285866667Y-198295295D02*
X285619048Y-198295295D01*
X285495238Y-198357200D01*
X285433333Y-198419105D01*
X285309524Y-198604819D01*
X285247619Y-198852438D01*
X285247619Y-199347676D01*
X285309524Y-199471486D01*
X285371429Y-199533390D01*
X285495238Y-199595295D01*
X285742857Y-199595295D01*
X285866667Y-199533390D01*
X285928571Y-199471486D01*
X285990476Y-199347676D01*
X285990476Y-199038152D01*
X285928571Y-198914343D01*
X285866667Y-198852438D01*
X285742857Y-198790533D01*
X285495238Y-198790533D01*
X285371429Y-198852438D01*
X285309524Y-198914343D01*
X285247619Y-199038152D01*
D10*
D11*
X10000000Y-60000000D02*
X12000000Y-60000000D01*
D10*
D11*
X10000000Y-110000000D02*
X12000000Y-110000000D01*
D10*
D11*
X10000000Y-160000000D02*
X12000000Y-160000000D01*
D10*
D11*
X10690476Y-35216667D02*
X11309524Y-35216667D01*
X10566667Y-35588095D02*
X11000000Y-34288095D01*
X11433333Y-35588095D01*
D10*
D11*
X11092857Y-84907143D02*
X11278571Y-84969048D01*
X11340476Y-85030952D01*
X11402381Y-85154762D01*
X11402381Y-85340476D01*
X11340476Y-85464286D01*
X11278571Y-85526190D01*
X11154762Y-85588095D01*
X10659524Y-85588095D01*
X10659524Y-84288095D01*
X11092857Y-84288095D01*
X11216667Y-84350000D01*
X11278571Y-84411905D01*
X11340476Y-84535714D01*
X11340476Y-84659524D01*
X11278571Y-84783333D01*
X11216667Y-84845238D01*
X11092857Y-84907143D01*
X10659524Y-84907143D01*
D10*
D11*
X11402381Y-135464286D02*
X11340476Y-135526190D01*
X11154762Y-135588095D01*
X11030952Y-135588095D01*
X10845238Y-135526190D01*
X10721429Y-135402381D01*
X10659524Y-135278571D01*
X10597619Y-135030952D01*
X10597619Y-134845238D01*
X10659524Y-134597619D01*
X10721429Y-134473810D01*
X10845238Y-134350000D01*
X11030952Y-134288095D01*
X11154762Y-134288095D01*
X11340476Y-134350000D01*
X11402381Y-134411905D01*
D10*
D11*
X10659524Y-185588095D02*
X10659524Y-184288095D01*
X10969048Y-184288095D01*
X11154762Y-184350000D01*
X11278571Y-184473810D01*
X11340476Y-184597619D01*
X11402381Y-184845238D01*
X11402381Y-185030952D01*
X11340476Y-185278571D01*
X11278571Y-185402381D01*
X11154762Y-185526190D01*
X10969048Y-185588095D01*
X10659524Y-185588095D01*
D10*
D11*
X287002200Y-60000000D02*
X285002200Y-60000000D01*
D10*
D11*
X287002200Y-110000000D02*
X285002200Y-110000000D01*
D10*
D11*
X287002200Y-160000000D02*
X285002200Y-160000000D01*
D10*
D11*
X285692676Y-35216667D02*
X286311724Y-35216667D01*
X285568867Y-35588095D02*
X286002200Y-34288095D01*
X286435533Y-35588095D01*
D10*
D11*
X286095057Y-84907143D02*
X286280771Y-84969048D01*
X286342676Y-85030952D01*
X286404581Y-85154762D01*
X286404581Y-85340476D01*
X286342676Y-85464286D01*
X286280771Y-85526190D01*
X286156962Y-85588095D01*
X285661724Y-85588095D01*
X285661724Y-84288095D01*
X286095057Y-84288095D01*
X286218867Y-84350000D01*
X286280771Y-84411905D01*
X286342676Y-84535714D01*
X286342676Y-84659524D01*
X286280771Y-84783333D01*
X286218867Y-84845238D01*
X286095057Y-84907143D01*
X285661724Y-84907143D01*
D10*
D11*
X286404581Y-135464286D02*
X286342676Y-135526190D01*
X286156962Y-135588095D01*
X286033152Y-135588095D01*
X285847438Y-135526190D01*
X285723629Y-135402381D01*
X285661724Y-135278571D01*
X285599819Y-135030952D01*
X285599819Y-134845238D01*
X285661724Y-134597619D01*
X285723629Y-134473810D01*
X285847438Y-134350000D01*
X286033152Y-134288095D01*
X286156962Y-134288095D01*
X286342676Y-134350000D01*
X286404581Y-134411905D01*
D10*
D11*
X285661724Y-185588095D02*
X285661724Y-184288095D01*
X285971248Y-184288095D01*
X286156962Y-184350000D01*
X286280771Y-184473810D01*
X286342676Y-184597619D01*
X286404581Y-184845238D01*
X286404581Y-185030952D01*
X286342676Y-185278571D01*
X286280771Y-185402381D01*
X286156962Y-185526190D01*
X285971248Y-185588095D01*
X285661724Y-185588095D01*
D10*
D11*
X200359343Y-193785771D02*
X200359343Y-192285771D01*
X200716486Y-192285771D01*
X200930771Y-192357200D01*
X201073629Y-192500057D01*
X201145057Y-192642914D01*
X201216486Y-192928629D01*
X201216486Y-193142914D01*
X201145057Y-193428629D01*
X201073629Y-193571486D01*
X200930771Y-193714343D01*
X200716486Y-193785771D01*
X200359343Y-193785771D01*
X202502200Y-193785771D02*
X202502200Y-193000057D01*
X202430771Y-192857200D01*
X202287914Y-192785771D01*
X202002200Y-192785771D01*
X201859343Y-192857200D01*
X202502200Y-193714343D02*
X202359343Y-193785771D01*
X202002200Y-193785771D01*
X201859343Y-193714343D01*
X201787914Y-193571486D01*
X201787914Y-193428629D01*
X201859343Y-193285771D01*
X202002200Y-193214343D01*
X202359343Y-193214343D01*
X202502200Y-193142914D01*
X203002200Y-192785771D02*
X203573629Y-192785771D01*
X203216486Y-192285771D02*
X203216486Y-193571486D01*
X203287914Y-193714343D01*
X203430772Y-193785771D01*
X203573629Y-193785771D01*
X204645057Y-193714343D02*
X204502200Y-193785771D01*
X204216486Y-193785771D01*
X204073629Y-193714343D01*
X204002200Y-193571486D01*
X204002200Y-193000057D01*
X204073629Y-192857200D01*
X204216486Y-192785771D01*
X204502200Y-192785771D01*
X204645057Y-192857200D01*
X204716486Y-193000057D01*
X204716486Y-193142914D01*
X204002200Y-193285771D01*
X205359343Y-193642914D02*
X205430771Y-193714343D01*
X205359343Y-193785771D01*
X205287914Y-193714343D01*
X205359343Y-193642914D01*
X205359343Y-193785771D01*
X205359343Y-192857200D02*
X205430771Y-192928629D01*
X205359343Y-193000057D01*
X205287914Y-192928629D01*
X205359343Y-192857200D01*
X205359343Y-193000057D01*
X207145057Y-192428629D02*
X207216486Y-192357200D01*
X207359343Y-192285771D01*
X207716486Y-192285771D01*
X207859343Y-192357200D01*
X207930772Y-192428629D01*
X208002200Y-192571486D01*
X208002200Y-192714343D01*
X207930772Y-192928629D01*
X207073629Y-193785771D01*
X208002200Y-193785771D01*
X209287914Y-192285771D02*
X209002200Y-192285771D01*
X208859343Y-192357200D01*
X208787914Y-192428629D01*
X208645057Y-192642914D01*
X208573628Y-192928629D01*
X208573628Y-193500057D01*
X208645057Y-193642914D01*
X208716485Y-193714343D01*
X208859343Y-193785771D01*
X209145057Y-193785771D01*
X209287914Y-193714343D01*
X209359343Y-193642914D01*
X209430771Y-193500057D01*
X209430771Y-193142914D01*
X209359343Y-193000057D01*
X209287914Y-192928629D01*
X209145057Y-192857200D01*
X208859343Y-192857200D01*
X208716485Y-192928629D01*
X208645057Y-193000057D01*
X208573628Y-193142914D01*
X210073628Y-193642914D02*
X210145056Y-193714343D01*
X210073628Y-193785771D01*
X210002199Y-193714343D01*
X210073628Y-193642914D01*
X210073628Y-193785771D01*
X211073628Y-192285771D02*
X211216485Y-192285771D01*
X211359342Y-192357200D01*
X211430771Y-192428629D01*
X211502200Y-192571486D01*
X211573628Y-192857200D01*
X211573628Y-193214343D01*
X211502200Y-193500057D01*
X211430771Y-193642914D01*
X211359342Y-193714343D01*
X211216485Y-193785771D01*
X211073628Y-193785771D01*
X210930771Y-193714343D01*
X210859342Y-193642914D01*
X210787914Y-193500057D01*
X210716485Y-193214343D01*
X210716485Y-192857200D01*
X210787914Y-192571486D01*
X210859342Y-192428629D01*
X210930771Y-192357200D01*
X211073628Y-192285771D01*
X212145056Y-192428629D02*
X212216485Y-192357200D01*
X212359342Y-192285771D01*
X212716485Y-192285771D01*
X212859342Y-192357200D01*
X212930771Y-192428629D01*
X213002199Y-192571486D01*
X213002199Y-192714343D01*
X212930771Y-192928629D01*
X212073628Y-193785771D01*
X213002199Y-193785771D01*
X213645056Y-193642914D02*
X213716484Y-193714343D01*
X213645056Y-193785771D01*
X213573627Y-193714343D01*
X213645056Y-193642914D01*
X213645056Y-193785771D01*
X214287913Y-192428629D02*
X214359342Y-192357200D01*
X214502199Y-192285771D01*
X214859342Y-192285771D01*
X215002199Y-192357200D01*
X215073628Y-192428629D01*
X215145056Y-192571486D01*
X215145056Y-192714343D01*
X215073628Y-192928629D01*
X214216485Y-193785771D01*
X215145056Y-193785771D01*
X216073627Y-192285771D02*
X216216484Y-192285771D01*
X216359341Y-192357200D01*
X216430770Y-192428629D01*
X216502199Y-192571486D01*
X216573627Y-192857200D01*
X216573627Y-193214343D01*
X216502199Y-193500057D01*
X216430770Y-193642914D01*
X216359341Y-193714343D01*
X216216484Y-193785771D01*
X216073627Y-193785771D01*
X215930770Y-193714343D01*
X215859341Y-193642914D01*
X215787913Y-193500057D01*
X215716484Y-193214343D01*
X215716484Y-192857200D01*
X215787913Y-192571486D01*
X215859341Y-192428629D01*
X215930770Y-192357200D01*
X216073627Y-192285771D01*
X218002198Y-193785771D02*
X217145055Y-193785771D01*
X217573627Y-193785771D02*
X217573627Y-192285771D01*
X217430770Y-192500057D01*
X217287912Y-192642914D01*
X217145055Y-192714343D01*
X218502198Y-192285771D02*
X219502198Y-192285771D01*
X218859341Y-193785771D01*
D10*
D11*
X177002200Y-194507200D02*
X285002200Y-194507200D01*
D10*
D11*
X178359343Y-196585771D02*
X178359343Y-195085771D01*
X179216486Y-196585771D02*
X178573629Y-195728629D01*
X179216486Y-195085771D02*
X178359343Y-195942914D01*
X179859343Y-196585771D02*
X179859343Y-195585771D01*
X179859343Y-195085771D02*
X179787914Y-195157200D01*
X179859343Y-195228629D01*
X179930771Y-195157200D01*
X179859343Y-195085771D01*
X179859343Y-195228629D01*
X181430772Y-196442914D02*
X181359343Y-196514343D01*
X181145057Y-196585771D01*
X181002200Y-196585771D01*
X180787915Y-196514343D01*
X180645057Y-196371486D01*
X180573629Y-196228629D01*
X180502200Y-195942914D01*
X180502200Y-195728629D01*
X180573629Y-195442914D01*
X180645057Y-195300057D01*
X180787915Y-195157200D01*
X181002200Y-195085771D01*
X181145057Y-195085771D01*
X181359343Y-195157200D01*
X181430772Y-195228629D01*
X182716486Y-196585771D02*
X182716486Y-195800057D01*
X182645057Y-195657200D01*
X182502200Y-195585771D01*
X182216486Y-195585771D01*
X182073629Y-195657200D01*
X182716486Y-196514343D02*
X182573629Y-196585771D01*
X182216486Y-196585771D01*
X182073629Y-196514343D01*
X182002200Y-196371486D01*
X182002200Y-196228629D01*
X182073629Y-196085771D01*
X182216486Y-196014343D01*
X182573629Y-196014343D01*
X182716486Y-195942914D01*
X184073629Y-196585771D02*
X184073629Y-195085771D01*
X184073629Y-196514343D02*
X183930772Y-196585771D01*
X183645058Y-196585771D01*
X183502200Y-196514343D01*
X183430772Y-196442914D01*
X183359343Y-196300057D01*
X183359343Y-195871486D01*
X183430772Y-195728629D01*
X183502200Y-195657200D01*
X183645058Y-195585771D01*
X183930772Y-195585771D01*
X184073629Y-195657200D01*
X185930772Y-195800057D02*
X186430772Y-195800057D01*
X186645058Y-196585771D02*
X185930772Y-196585771D01*
X185930772Y-195085771D01*
X186645058Y-195085771D01*
X187287915Y-196442914D02*
X187359343Y-196514343D01*
X187287915Y-196585771D01*
X187216486Y-196514343D01*
X187287915Y-196442914D01*
X187287915Y-196585771D01*
X188002201Y-196585771D02*
X188002201Y-195085771D01*
X188359344Y-195085771D01*
X188573629Y-195157200D01*
X188716487Y-195300057D01*
X188787915Y-195442914D01*
X188859344Y-195728629D01*
X188859344Y-195942914D01*
X188787915Y-196228629D01*
X188716487Y-196371486D01*
X188573629Y-196514343D01*
X188359344Y-196585771D01*
X188002201Y-196585771D01*
X189502201Y-196442914D02*
X189573629Y-196514343D01*
X189502201Y-196585771D01*
X189430772Y-196514343D01*
X189502201Y-196442914D01*
X189502201Y-196585771D01*
X190145058Y-196157200D02*
X190859344Y-196157200D01*
X190002201Y-196585771D02*
X190502201Y-195085771D01*
X191002201Y-196585771D01*
X191502201Y-196442914D02*
X191573629Y-196514343D01*
X191502201Y-196585771D01*
X191430772Y-196514343D01*
X191502201Y-196442914D01*
X191502201Y-196585771D01*
X194502201Y-196585771D02*
X194502201Y-195085771D01*
X194645058Y-196014343D02*
X195073629Y-196585771D01*
X195073629Y-195585771D02*
X194502201Y-196157200D01*
X195716487Y-196585771D02*
X195716487Y-195585771D01*
X195716487Y-195085771D02*
X195645058Y-195157200D01*
X195716487Y-195228629D01*
X195787915Y-195157200D01*
X195716487Y-195085771D01*
X195716487Y-195228629D01*
X197073630Y-196514343D02*
X196930773Y-196585771D01*
X196645059Y-196585771D01*
X196502201Y-196514343D01*
X196430773Y-196442914D01*
X196359344Y-196300057D01*
X196359344Y-195871486D01*
X196430773Y-195728629D01*
X196502201Y-195657200D01*
X196645059Y-195585771D01*
X196930773Y-195585771D01*
X197073630Y-195657200D01*
X198359344Y-196585771D02*
X198359344Y-195800057D01*
X198287915Y-195657200D01*
X198145058Y-195585771D01*
X197859344Y-195585771D01*
X197716487Y-195657200D01*
X198359344Y-196514343D02*
X198216487Y-196585771D01*
X197859344Y-196585771D01*
X197716487Y-196514343D01*
X197645058Y-196371486D01*
X197645058Y-196228629D01*
X197716487Y-196085771D01*
X197859344Y-196014343D01*
X198216487Y-196014343D01*
X198359344Y-195942914D01*
X199716487Y-196585771D02*
X199716487Y-195085771D01*
X199716487Y-196514343D02*
X199573630Y-196585771D01*
X199287916Y-196585771D01*
X199145058Y-196514343D01*
X199073630Y-196442914D01*
X199002201Y-196300057D01*
X199002201Y-195871486D01*
X199073630Y-195728629D01*
X199145058Y-195657200D01*
X199287916Y-195585771D01*
X199573630Y-195585771D01*
X199716487Y-195657200D01*
X202216487Y-195585771D02*
X202216487Y-196585771D01*
X201859344Y-195014343D02*
X201502201Y-196085771D01*
X202430773Y-196085771D01*
X203002201Y-196442914D02*
X203073629Y-196514343D01*
X203002201Y-196585771D01*
X202930772Y-196514343D01*
X203002201Y-196442914D01*
X203002201Y-196585771D01*
X204002201Y-195085771D02*
X204145058Y-195085771D01*
X204287915Y-195157200D01*
X204359344Y-195228629D01*
X204430773Y-195371486D01*
X204502201Y-195657200D01*
X204502201Y-196014343D01*
X204430773Y-196300057D01*
X204359344Y-196442914D01*
X204287915Y-196514343D01*
X204145058Y-196585771D01*
X204002201Y-196585771D01*
X203859344Y-196514343D01*
X203787915Y-196442914D01*
X203716487Y-196300057D01*
X203645058Y-196014343D01*
X203645058Y-195657200D01*
X203716487Y-195371486D01*
X203787915Y-195228629D01*
X203859344Y-195157200D01*
X204002201Y-195085771D01*
X205145058Y-196442914D02*
X205216486Y-196514343D01*
X205145058Y-196585771D01*
X205073629Y-196514343D01*
X205145058Y-196442914D01*
X205145058Y-196585771D01*
X206502201Y-195085771D02*
X206216487Y-195085771D01*
X206073630Y-195157200D01*
X206002201Y-195228629D01*
X205859344Y-195442914D01*
X205787915Y-195728629D01*
X205787915Y-196300057D01*
X205859344Y-196442914D01*
X205930772Y-196514343D01*
X206073630Y-196585771D01*
X206359344Y-196585771D01*
X206502201Y-196514343D01*
X206573630Y-196442914D01*
X206645058Y-196300057D01*
X206645058Y-195942914D01*
X206573630Y-195800057D01*
X206502201Y-195728629D01*
X206359344Y-195657200D01*
X206073630Y-195657200D01*
X205930772Y-195728629D01*
X205859344Y-195800057D01*
X205787915Y-195942914D01*
X207287915Y-196014343D02*
X208430772Y-196014343D01*
X209716486Y-196514343D02*
X209573629Y-196585771D01*
X209287915Y-196585771D01*
X209145058Y-196514343D01*
X209073629Y-196371486D01*
X209073629Y-195800057D01*
X209145058Y-195657200D01*
X209287915Y-195585771D01*
X209573629Y-195585771D01*
X209716486Y-195657200D01*
X209787915Y-195800057D01*
X209787915Y-195942914D01*
X209073629Y-196085771D01*
X210716486Y-195085771D02*
X210859343Y-195085771D01*
X211002200Y-195157200D01*
X211073629Y-195228629D01*
X211145058Y-195371486D01*
X211216486Y-195657200D01*
X211216486Y-196014343D01*
X211145058Y-196300057D01*
X211073629Y-196442914D01*
X211002200Y-196514343D01*
X210859343Y-196585771D01*
X210716486Y-196585771D01*
X210573629Y-196514343D01*
X210502200Y-196442914D01*
X210430772Y-196300057D01*
X210359343Y-196014343D01*
X210359343Y-195657200D01*
X210430772Y-195371486D01*
X210502200Y-195228629D01*
X210573629Y-195157200D01*
X210716486Y-195085771D01*
X211859343Y-196014343D02*
X213002200Y-196014343D01*
X214359343Y-195085771D02*
X214073629Y-195085771D01*
X213930772Y-195157200D01*
X213859343Y-195228629D01*
X213716486Y-195442914D01*
X213645057Y-195728629D01*
X213645057Y-196300057D01*
X213716486Y-196442914D01*
X213787914Y-196514343D01*
X213930772Y-196585771D01*
X214216486Y-196585771D01*
X214359343Y-196514343D01*
X214430772Y-196442914D01*
X214502200Y-196300057D01*
X214502200Y-195942914D01*
X214430772Y-195800057D01*
X214359343Y-195728629D01*
X214216486Y-195657200D01*
X213930772Y-195657200D01*
X213787914Y-195728629D01*
X213716486Y-195800057D01*
X213645057Y-195942914D01*
X215002200Y-195085771D02*
X215930771Y-195085771D01*
X215430771Y-195657200D01*
X215645057Y-195657200D01*
X215787914Y-195728629D01*
X215859343Y-195800057D01*
X215930771Y-195942914D01*
X215930771Y-196300057D01*
X215859343Y-196442914D01*
X215787914Y-196514343D01*
X215645057Y-196585771D01*
X215216485Y-196585771D01*
X215073628Y-196514343D01*
X215002200Y-196442914D01*
X217216485Y-195585771D02*
X217216485Y-196585771D01*
X216859342Y-195014343D02*
X216502199Y-196085771D01*
X217430771Y-196085771D01*
X218073627Y-196585771D02*
X218359342Y-196585771D01*
X218502199Y-196514343D01*
X218573627Y-196442914D01*
X218716485Y-196228629D01*
X218787913Y-195942914D01*
X218787913Y-195371486D01*
X218716485Y-195228629D01*
X218645056Y-195157200D01*
X218502199Y-195085771D01*
X218216485Y-195085771D01*
X218073627Y-195157200D01*
X218002199Y-195228629D01*
X217930770Y-195371486D01*
X217930770Y-195728629D01*
X218002199Y-195871486D01*
X218073627Y-195942914D01*
X218216485Y-196014343D01*
X218502199Y-196014343D01*
X218645056Y-195942914D01*
X218716485Y-195871486D01*
X218787913Y-195728629D01*
X220145056Y-195085771D02*
X219430770Y-195085771D01*
X219359341Y-195800057D01*
X219430770Y-195728629D01*
X219573627Y-195657200D01*
X219930770Y-195657200D01*
X220073627Y-195728629D01*
X220145056Y-195800057D01*
X220216484Y-195942914D01*
X220216484Y-196300057D01*
X220145056Y-196442914D01*
X220073627Y-196514343D01*
X219930770Y-196585771D01*
X219573627Y-196585771D01*
X219430770Y-196514343D01*
X219359341Y-196442914D01*
X220716484Y-195085771D02*
X221645055Y-195085771D01*
X221145055Y-195657200D01*
X221359341Y-195657200D01*
X221502198Y-195728629D01*
X221573627Y-195800057D01*
X221645055Y-195942914D01*
X221645055Y-196300057D01*
X221573627Y-196442914D01*
X221502198Y-196514343D01*
X221359341Y-196585771D01*
X220930769Y-196585771D01*
X220787912Y-196514343D01*
X220716484Y-196442914D01*
X219073627Y-194827200D02*
X221930769Y-194827200D01*
X222930769Y-195585771D02*
X222930769Y-196585771D01*
X222287912Y-195585771D02*
X222287912Y-196371486D01*
X222359340Y-196514343D01*
X222502198Y-196585771D01*
X222716483Y-196585771D01*
X222859340Y-196514343D01*
X222930769Y-196442914D01*
X223645055Y-196585771D02*
X223645055Y-195085771D01*
X223645055Y-195657200D02*
X223787912Y-195585771D01*
X224073626Y-195585771D01*
X224216483Y-195657200D01*
X224287912Y-195728629D01*
X224359341Y-195871486D01*
X224359341Y-196300057D01*
X224287912Y-196442914D01*
X224216483Y-196514343D01*
X224073626Y-196585771D01*
X223787912Y-196585771D01*
X223645055Y-196514343D01*
X225645055Y-195585771D02*
X225645055Y-196585771D01*
X225002198Y-195585771D02*
X225002198Y-196371486D01*
X225073626Y-196514343D01*
X225216484Y-196585771D01*
X225430769Y-196585771D01*
X225573626Y-196514343D01*
X225645055Y-196442914D01*
X226359341Y-195585771D02*
X226359341Y-196585771D01*
X226359341Y-195728629D02*
X226430769Y-195657200D01*
X226573627Y-195585771D01*
X226787912Y-195585771D01*
X226930769Y-195657200D01*
X227002198Y-195800057D01*
X227002198Y-196585771D01*
X227502198Y-195585771D02*
X228073627Y-195585771D01*
X227716484Y-195085771D02*
X227716484Y-196371486D01*
X227787912Y-196514343D01*
X227930770Y-196585771D01*
X228073627Y-196585771D01*
X229216484Y-195585771D02*
X229216484Y-196585771D01*
X228573627Y-195585771D02*
X228573627Y-196371486D01*
X228645055Y-196514343D01*
X228787913Y-196585771D01*
X229002198Y-196585771D01*
X229145055Y-196514343D01*
X229216484Y-196442914D01*
X230716484Y-196585771D02*
X229859341Y-196585771D01*
X230287913Y-196585771D02*
X230287913Y-195085771D01*
X230145056Y-195300057D01*
X230002198Y-195442914D01*
X229859341Y-195514343D01*
X232002198Y-195085771D02*
X231716484Y-195085771D01*
X231573627Y-195157200D01*
X231502198Y-195228629D01*
X231359341Y-195442914D01*
X231287912Y-195728629D01*
X231287912Y-196300057D01*
X231359341Y-196442914D01*
X231430769Y-196514343D01*
X231573627Y-196585771D01*
X231859341Y-196585771D01*
X232002198Y-196514343D01*
X232073627Y-196442914D01*
X232145055Y-196300057D01*
X232145055Y-195942914D01*
X232073627Y-195800057D01*
X232002198Y-195728629D01*
X231859341Y-195657200D01*
X231573627Y-195657200D01*
X231430769Y-195728629D01*
X231359341Y-195800057D01*
X231287912Y-195942914D01*
X232787912Y-196442914D02*
X232859340Y-196514343D01*
X232787912Y-196585771D01*
X232716483Y-196514343D01*
X232787912Y-196442914D01*
X232787912Y-196585771D01*
X233787912Y-195085771D02*
X233930769Y-195085771D01*
X234073626Y-195157200D01*
X234145055Y-195228629D01*
X234216484Y-195371486D01*
X234287912Y-195657200D01*
X234287912Y-196014343D01*
X234216484Y-196300057D01*
X234145055Y-196442914D01*
X234073626Y-196514343D01*
X233930769Y-196585771D01*
X233787912Y-196585771D01*
X233645055Y-196514343D01*
X233573626Y-196442914D01*
X233502198Y-196300057D01*
X233430769Y-196014343D01*
X233430769Y-195657200D01*
X233502198Y-195371486D01*
X233573626Y-195228629D01*
X233645055Y-195157200D01*
X233787912Y-195085771D01*
X235573626Y-195585771D02*
X235573626Y-196585771D01*
X235216483Y-195014343D02*
X234859340Y-196085771D01*
X235787912Y-196085771D01*
X236359340Y-196442914D02*
X236430768Y-196514343D01*
X236359340Y-196585771D01*
X236287911Y-196514343D01*
X236359340Y-196442914D01*
X236359340Y-196585771D01*
X237859340Y-196585771D02*
X237002197Y-196585771D01*
X237430769Y-196585771D02*
X237430769Y-195085771D01*
X237287912Y-195300057D01*
X237145054Y-195442914D01*
X237002197Y-195514343D01*
D10*
D11*
X177002200Y-191507200D02*
X285002200Y-191507200D01*
D10*
D12*
X264216486Y-193785771D02*
X263716486Y-193071486D01*
X263359343Y-193785771D02*
X263359343Y-192285771D01*
X263930771Y-192285771D01*
X264073629Y-192357200D01*
X264145057Y-192428629D01*
X264216486Y-192571486D01*
X264216486Y-192785771D01*
X264145057Y-192928629D01*
X264073629Y-193000057D01*
X263930771Y-193071486D01*
X263359343Y-193071486D01*
X265430771Y-193714343D02*
X265287914Y-193785771D01*
X265002200Y-193785771D01*
X264859343Y-193714343D01*
X264787914Y-193571486D01*
X264787914Y-193000057D01*
X264859343Y-192857200D01*
X265002200Y-192785771D01*
X265287914Y-192785771D01*
X265430771Y-192857200D01*
X265502200Y-193000057D01*
X265502200Y-193142914D01*
X264787914Y-193285771D01*
X266002200Y-192785771D02*
X266359343Y-193785771D01*
X266716485Y-192785771D01*
X267287914Y-193642914D02*
X267359342Y-193714343D01*
X267287914Y-193785771D01*
X267216485Y-193714343D01*
X267287914Y-193642914D01*
X267287914Y-193785771D01*
X267287914Y-192857200D02*
X267359342Y-192928629D01*
X267287914Y-193000057D01*
X267216485Y-192928629D01*
X267287914Y-192857200D01*
X267287914Y-193000057D01*
X269430771Y-192285771D02*
X269573628Y-192285771D01*
X269716485Y-192357200D01*
X269787914Y-192428629D01*
X269859343Y-192571486D01*
X269930771Y-192857200D01*
X269930771Y-193214343D01*
X269859343Y-193500057D01*
X269787914Y-193642914D01*
X269716485Y-193714343D01*
X269573628Y-193785771D01*
X269430771Y-193785771D01*
X269287914Y-193714343D01*
X269216485Y-193642914D01*
X269145057Y-193500057D01*
X269073628Y-193214343D01*
X269073628Y-192857200D01*
X269145057Y-192571486D01*
X269216485Y-192428629D01*
X269287914Y-192357200D01*
X269430771Y-192285771D01*
X270573628Y-193642914D02*
X270645056Y-193714343D01*
X270573628Y-193785771D01*
X270502199Y-193714343D01*
X270573628Y-193642914D01*
X270573628Y-193785771D01*
X271145057Y-192285771D02*
X272073628Y-192285771D01*
X271573628Y-192857200D01*
X271787914Y-192857200D01*
X271930771Y-192928629D01*
X272002200Y-193000057D01*
X272073628Y-193142914D01*
X272073628Y-193500057D01*
X272002200Y-193642914D01*
X271930771Y-193714343D01*
X271787914Y-193785771D01*
X271359342Y-193785771D01*
X271216485Y-193714343D01*
X271145057Y-193642914D01*
D10*
D11*
X178287914Y-193714343D02*
X178502200Y-193785771D01*
X178859343Y-193785771D01*
X179002200Y-193714343D01*
X179073629Y-193642914D01*
X179145057Y-193500057D01*
X179145057Y-193357200D01*
X179073629Y-193214343D01*
X179002200Y-193142914D01*
X178859343Y-193071486D01*
X178573629Y-193000057D01*
X178430771Y-192928629D01*
X178359343Y-192857200D01*
X178287914Y-192714343D01*
X178287914Y-192571486D01*
X178359343Y-192428629D01*
X178430771Y-192357200D01*
X178573629Y-192285771D01*
X178930771Y-192285771D01*
X179145057Y-192357200D01*
X179787914Y-193785771D02*
X179787914Y-192785771D01*
X179787914Y-192285771D02*
X179716485Y-192357200D01*
X179787914Y-192428629D01*
X179859342Y-192357200D01*
X179787914Y-192285771D01*
X179787914Y-192428629D01*
X180359343Y-192785771D02*
X181145057Y-192785771D01*
X180359343Y-193785771D01*
X181145057Y-193785771D01*
X182287914Y-193714343D02*
X182145057Y-193785771D01*
X181859343Y-193785771D01*
X181716486Y-193714343D01*
X181645057Y-193571486D01*
X181645057Y-193000057D01*
X181716486Y-192857200D01*
X181859343Y-192785771D01*
X182145057Y-192785771D01*
X182287914Y-192857200D01*
X182359343Y-193000057D01*
X182359343Y-193142914D01*
X181645057Y-193285771D01*
X183002200Y-193642914D02*
X183073628Y-193714343D01*
X183002200Y-193785771D01*
X182930771Y-193714343D01*
X183002200Y-193642914D01*
X183002200Y-193785771D01*
X183002200Y-192857200D02*
X183073628Y-192928629D01*
X183002200Y-193000057D01*
X182930771Y-192928629D01*
X183002200Y-192857200D01*
X183002200Y-193000057D01*
X184787914Y-193357200D02*
X185502200Y-193357200D01*
X184645057Y-193785771D02*
X185145057Y-192285771D01*
X185645057Y-193785771D01*
X186787914Y-192785771D02*
X186787914Y-193785771D01*
X186430771Y-192214343D02*
X186073628Y-193285771D01*
X187002200Y-193285771D01*
D10*
D11*
X263359343Y-196585771D02*
X263359343Y-195085771D01*
X264716486Y-196585771D02*
X264716486Y-195085771D01*
X264716486Y-196514343D02*
X264573629Y-196585771D01*
X264287915Y-196585771D01*
X264145057Y-196514343D01*
X264073629Y-196442914D01*
X264002200Y-196300057D01*
X264002200Y-195871486D01*
X264073629Y-195728629D01*
X264145057Y-195657200D01*
X264287915Y-195585771D01*
X264573629Y-195585771D01*
X264716486Y-195657200D01*
X265430772Y-196442914D02*
X265502200Y-196514343D01*
X265430772Y-196585771D01*
X265359343Y-196514343D01*
X265430772Y-196442914D01*
X265430772Y-196585771D01*
X265430772Y-195657200D02*
X265502200Y-195728629D01*
X265430772Y-195800057D01*
X265359343Y-195728629D01*
X265430772Y-195657200D01*
X265430772Y-195800057D01*
X268073629Y-196585771D02*
X267216486Y-196585771D01*
X267645058Y-196585771D02*
X267645058Y-195085771D01*
X267502201Y-195300057D01*
X267359343Y-195442914D01*
X267216486Y-195514343D01*
X269787914Y-195014343D02*
X268502200Y-196942914D01*
X271073629Y-196585771D02*
X270216486Y-196585771D01*
X270645058Y-196585771D02*
X270645058Y-195085771D01*
X270502201Y-195300057D01*
X270359343Y-195442914D01*
X270216486Y-195514343D01*
D10*
D11*
X177002200Y-187507200D02*
X285002200Y-187507200D01*
D10*
D13*
X178454581Y-188211962D02*
X179597438Y-188211962D01*
X178776010Y-190211962D02*
X179026010Y-188211962D01*
X180014105Y-190211962D02*
X180180771Y-188878629D01*
X180264105Y-188211962D02*
X180156962Y-188307200D01*
X180240295Y-188402438D01*
X180347439Y-188307200D01*
X180264105Y-188211962D01*
X180240295Y-188402438D01*
X180847438Y-188878629D02*
X181609343Y-188878629D01*
X181216486Y-188211962D02*
X181002200Y-189926248D01*
X181073630Y-190116724D01*
X181252201Y-190211962D01*
X181442677Y-190211962D01*
X182395058Y-190211962D02*
X182216487Y-190116724D01*
X182145057Y-189926248D01*
X182359343Y-188211962D01*
X183930772Y-190116724D02*
X183728391Y-190211962D01*
X183347439Y-190211962D01*
X183168867Y-190116724D01*
X183097438Y-189926248D01*
X183192676Y-189164343D01*
X183311724Y-188973867D01*
X183514105Y-188878629D01*
X183895057Y-188878629D01*
X184073629Y-188973867D01*
X184145057Y-189164343D01*
X184121248Y-189354819D01*
X183145057Y-189545295D01*
X184895057Y-190021486D02*
X184978392Y-190116724D01*
X184871248Y-190211962D01*
X184787915Y-190116724D01*
X184895057Y-190021486D01*
X184871248Y-190211962D01*
X185026010Y-188973867D02*
X185109344Y-189069105D01*
X185002200Y-189164343D01*
X184918867Y-189069105D01*
X185026010Y-188973867D01*
X185002200Y-189164343D01*
X188145058Y-189164343D02*
X188418867Y-189259581D01*
X188502202Y-189354819D01*
X188573630Y-189545295D01*
X188537916Y-189831010D01*
X188418868Y-190021486D01*
X188311725Y-190116724D01*
X188109344Y-190211962D01*
X187347439Y-190211962D01*
X187597439Y-188211962D01*
X188264106Y-188211962D01*
X188442677Y-188307200D01*
X188526010Y-188402438D01*
X188597440Y-188592914D01*
X188573630Y-188783390D01*
X188454582Y-188973867D01*
X188347439Y-189069105D01*
X188145058Y-189164343D01*
X187478391Y-189164343D01*
X190299820Y-190211962D02*
X189347439Y-190211962D01*
X189597439Y-188211962D01*
X190966487Y-190211962D02*
X191216487Y-188211962D01*
X191692678Y-188211962D01*
X191966487Y-188307200D01*
X192133154Y-188497676D01*
X192204583Y-188688152D01*
X192252202Y-189069105D01*
X192216488Y-189354819D01*
X192073631Y-189735771D01*
X191954582Y-189926248D01*
X191740297Y-190116724D01*
X191442678Y-190211962D01*
X190966487Y-190211962D01*
X194133154Y-190021486D02*
X194026012Y-190116724D01*
X193728392Y-190211962D01*
X193537916Y-190211962D01*
X193264107Y-190116724D01*
X193097440Y-189926248D01*
X193026011Y-189735771D01*
X192978392Y-189354819D01*
X193014106Y-189069105D01*
X193156963Y-188688152D01*
X193276012Y-188497676D01*
X193490297Y-188307200D01*
X193787916Y-188211962D01*
X193978392Y-188211962D01*
X194252202Y-188307200D01*
X194335535Y-188402438D01*
X197656964Y-190021486D02*
X197549822Y-190116724D01*
X197252202Y-190211962D01*
X197061726Y-190211962D01*
X196787917Y-190116724D01*
X196621250Y-189926248D01*
X196549821Y-189735771D01*
X196502202Y-189354819D01*
X196537916Y-189069105D01*
X196680773Y-188688152D01*
X196799822Y-188497676D01*
X197014107Y-188307200D01*
X197311726Y-188211962D01*
X197502202Y-188211962D01*
X197776012Y-188307200D01*
X197859345Y-188402438D01*
X199121250Y-188211962D02*
X199502202Y-188211962D01*
X199680773Y-188307200D01*
X199847441Y-188497676D01*
X199895059Y-188878629D01*
X199811726Y-189545295D01*
X199668869Y-189926248D01*
X199454583Y-190116724D01*
X199252202Y-190211962D01*
X198871250Y-190211962D01*
X198692679Y-190116724D01*
X198526011Y-189926248D01*
X198478392Y-189545295D01*
X198561725Y-188878629D01*
X198704583Y-188497676D01*
X198918869Y-188307200D01*
X199121250Y-188211962D01*
X200585535Y-190211962D02*
X200835535Y-188211962D01*
X201728393Y-190211962D01*
X201978393Y-188211962D01*
X202645059Y-188211962D02*
X203787916Y-188211962D01*
X202966488Y-190211962D02*
X203216488Y-188211962D01*
X205347441Y-190211962D02*
X204799821Y-189259581D01*
X204204583Y-190211962D02*
X204454583Y-188211962D01*
X205216488Y-188211962D01*
X205395059Y-188307200D01*
X205478393Y-188402438D01*
X205549822Y-188592914D01*
X205514107Y-188878629D01*
X205395060Y-189069105D01*
X205287916Y-189164343D01*
X205085535Y-189259581D01*
X204323630Y-189259581D01*
X206835536Y-188211962D02*
X207216488Y-188211962D01*
X207395059Y-188307200D01*
X207561727Y-188497676D01*
X207609345Y-188878629D01*
X207526012Y-189545295D01*
X207383155Y-189926248D01*
X207168869Y-190116724D01*
X206966488Y-190211962D01*
X206585536Y-190211962D01*
X206406965Y-190116724D01*
X206240297Y-189926248D01*
X206192678Y-189545295D01*
X206276011Y-188878629D01*
X206418869Y-188497676D01*
X206633155Y-188307200D01*
X206835536Y-188211962D01*
X209252202Y-190211962D02*
X208299821Y-190211962D01*
X208549821Y-188211962D01*
X210871250Y-190211962D02*
X209918869Y-190211962D01*
X210168869Y-188211962D01*
X211668869Y-189164343D02*
X212335536Y-189164343D01*
X212490298Y-190211962D02*
X211537917Y-190211962D01*
X211787917Y-188211962D01*
X212740298Y-188211962D01*
X214490299Y-190211962D02*
X213942679Y-189259581D01*
X213347441Y-190211962D02*
X213597441Y-188211962D01*
X214359346Y-188211962D01*
X214537917Y-188307200D01*
X214621251Y-188402438D01*
X214692680Y-188592914D01*
X214656965Y-188878629D01*
X214537918Y-189069105D01*
X214430774Y-189164343D01*
X214228393Y-189259581D01*
X213466488Y-189259581D01*
D10*
D11*
X178859343Y-185600057D02*
X178359343Y-185600057D01*
X178359343Y-186385771D02*
X178359343Y-184885771D01*
X179073629Y-184885771D01*
X179645057Y-186385771D02*
X179645057Y-185385771D01*
X179645057Y-184885771D02*
X179573628Y-184957200D01*
X179645057Y-185028629D01*
X179716485Y-184957200D01*
X179645057Y-184885771D01*
X179645057Y-185028629D01*
X180573629Y-186385771D02*
X180430771Y-186314343D01*
X180359343Y-186171486D01*
X180359343Y-184885771D01*
X181716485Y-186314343D02*
X181573628Y-186385771D01*
X181287914Y-186385771D01*
X181145057Y-186314343D01*
X181073628Y-186171486D01*
X181073628Y-185600057D01*
X181145057Y-185457200D01*
X181287914Y-185385771D01*
X181573628Y-185385771D01*
X181716485Y-185457200D01*
X181787914Y-185600057D01*
X181787914Y-185742914D01*
X181073628Y-185885771D01*
X182430771Y-186242914D02*
X182502199Y-186314343D01*
X182430771Y-186385771D01*
X182359342Y-186314343D01*
X182430771Y-186242914D01*
X182430771Y-186385771D01*
X182430771Y-185457200D02*
X182502199Y-185528629D01*
X182430771Y-185600057D01*
X182359342Y-185528629D01*
X182430771Y-185457200D01*
X182430771Y-185600057D01*
X184787914Y-185600057D02*
X185002200Y-185671486D01*
X185073628Y-185742914D01*
X185145057Y-185885771D01*
X185145057Y-186100057D01*
X185073628Y-186242914D01*
X185002200Y-186314343D01*
X184859342Y-186385771D01*
X184287914Y-186385771D01*
X184287914Y-184885771D01*
X184787914Y-184885771D01*
X184930771Y-184957200D01*
X185002200Y-185028629D01*
X185073628Y-185171486D01*
X185073628Y-185314343D01*
X185002200Y-185457200D01*
X184930771Y-185528629D01*
X184787914Y-185600057D01*
X184287914Y-185600057D01*
X186502200Y-186385771D02*
X185787914Y-186385771D01*
X185787914Y-184885771D01*
X187002200Y-186385771D02*
X187002200Y-184885771D01*
X187359343Y-184885771D01*
X187573628Y-184957200D01*
X187716486Y-185100057D01*
X187787914Y-185242914D01*
X187859343Y-185528629D01*
X187859343Y-185742914D01*
X187787914Y-186028629D01*
X187716486Y-186171486D01*
X187573628Y-186314343D01*
X187359343Y-186385771D01*
X187002200Y-186385771D01*
X189359343Y-186242914D02*
X189287914Y-186314343D01*
X189073628Y-186385771D01*
X188930771Y-186385771D01*
X188716486Y-186314343D01*
X188573628Y-186171486D01*
X188502200Y-186028629D01*
X188430771Y-185742914D01*
X188430771Y-185528629D01*
X188502200Y-185242914D01*
X188573628Y-185100057D01*
X188716486Y-184957200D01*
X188930771Y-184885771D01*
X189073628Y-184885771D01*
X189287914Y-184957200D01*
X189359343Y-185028629D01*
X189645057Y-186528629D02*
X190787914Y-186528629D01*
X191787914Y-186314343D02*
X191645057Y-186385771D01*
X191359343Y-186385771D01*
X191216485Y-186314343D01*
X191145057Y-186242914D01*
X191073628Y-186100057D01*
X191073628Y-185671486D01*
X191145057Y-185528629D01*
X191216485Y-185457200D01*
X191359343Y-185385771D01*
X191645057Y-185385771D01*
X191787914Y-185457200D01*
X192645057Y-186385771D02*
X192502199Y-186314343D01*
X192430771Y-186242914D01*
X192359342Y-186100057D01*
X192359342Y-185671486D01*
X192430771Y-185528629D01*
X192502199Y-185457200D01*
X192645057Y-185385771D01*
X192859342Y-185385771D01*
X193002199Y-185457200D01*
X193073628Y-185528629D01*
X193145057Y-185671486D01*
X193145057Y-186100057D01*
X193073628Y-186242914D01*
X193002199Y-186314343D01*
X192859342Y-186385771D01*
X192645057Y-186385771D01*
X193787914Y-185385771D02*
X193787914Y-186385771D01*
X193787914Y-185528629D02*
X193859342Y-185457200D01*
X194002200Y-185385771D01*
X194216485Y-185385771D01*
X194359342Y-185457200D01*
X194430771Y-185600057D01*
X194430771Y-186385771D01*
X194930771Y-185385771D02*
X195502200Y-185385771D01*
X195145057Y-184885771D02*
X195145057Y-186171486D01*
X195216485Y-186314343D01*
X195359343Y-186385771D01*
X195502200Y-186385771D01*
X196002200Y-186385771D02*
X196002200Y-185385771D01*
X196002200Y-185671486D02*
X196073628Y-185528629D01*
X196145057Y-185457200D01*
X196287914Y-185385771D01*
X196430771Y-185385771D01*
X197145057Y-186385771D02*
X197002199Y-186314343D01*
X196930771Y-186242914D01*
X196859342Y-186100057D01*
X196859342Y-185671486D01*
X196930771Y-185528629D01*
X197002199Y-185457200D01*
X197145057Y-185385771D01*
X197359342Y-185385771D01*
X197502199Y-185457200D01*
X197573628Y-185528629D01*
X197645057Y-185671486D01*
X197645057Y-186100057D01*
X197573628Y-186242914D01*
X197502199Y-186314343D01*
X197359342Y-186385771D01*
X197145057Y-186385771D01*
X198502200Y-186385771D02*
X198359342Y-186314343D01*
X198287914Y-186171486D01*
X198287914Y-184885771D01*
X199287914Y-186385771D02*
X199145056Y-186314343D01*
X199073628Y-186171486D01*
X199073628Y-184885771D01*
X200430770Y-186314343D02*
X200287913Y-186385771D01*
X200002199Y-186385771D01*
X199859342Y-186314343D01*
X199787913Y-186171486D01*
X199787913Y-185600057D01*
X199859342Y-185457200D01*
X200002199Y-185385771D01*
X200287913Y-185385771D01*
X200430770Y-185457200D01*
X200502199Y-185600057D01*
X200502199Y-185742914D01*
X199787913Y-185885771D01*
X201145056Y-186385771D02*
X201145056Y-185385771D01*
X201145056Y-185671486D02*
X201216484Y-185528629D01*
X201287913Y-185457200D01*
X201430770Y-185385771D01*
X201573627Y-185385771D01*
X202073627Y-186242914D02*
X202145055Y-186314343D01*
X202073627Y-186385771D01*
X202002198Y-186314343D01*
X202073627Y-186242914D01*
X202073627Y-186385771D01*
X202787913Y-186385771D02*
X202787913Y-184885771D01*
X202930770Y-185814343D02*
X203359341Y-186385771D01*
X203359341Y-185385771D02*
X202787913Y-185957200D01*
X204002199Y-186385771D02*
X204002199Y-185385771D01*
X204002199Y-184885771D02*
X203930770Y-184957200D01*
X204002199Y-185028629D01*
X204073627Y-184957200D01*
X204002199Y-184885771D01*
X204002199Y-185028629D01*
X205359342Y-186314343D02*
X205216485Y-186385771D01*
X204930771Y-186385771D01*
X204787913Y-186314343D01*
X204716485Y-186242914D01*
X204645056Y-186100057D01*
X204645056Y-185671486D01*
X204716485Y-185528629D01*
X204787913Y-185457200D01*
X204930771Y-185385771D01*
X205216485Y-185385771D01*
X205359342Y-185457200D01*
X206645056Y-186385771D02*
X206645056Y-185600057D01*
X206573627Y-185457200D01*
X206430770Y-185385771D01*
X206145056Y-185385771D01*
X206002199Y-185457200D01*
X206645056Y-186314343D02*
X206502199Y-186385771D01*
X206145056Y-186385771D01*
X206002199Y-186314343D01*
X205930770Y-186171486D01*
X205930770Y-186028629D01*
X206002199Y-185885771D01*
X206145056Y-185814343D01*
X206502199Y-185814343D01*
X206645056Y-185742914D01*
X208002199Y-186385771D02*
X208002199Y-184885771D01*
X208002199Y-186314343D02*
X207859342Y-186385771D01*
X207573628Y-186385771D01*
X207430770Y-186314343D01*
X207359342Y-186242914D01*
X207287913Y-186100057D01*
X207287913Y-185671486D01*
X207359342Y-185528629D01*
X207430770Y-185457200D01*
X207573628Y-185385771D01*
X207859342Y-185385771D01*
X208002199Y-185457200D01*
X208359342Y-186528629D02*
X209502199Y-186528629D01*
X209859342Y-185385771D02*
X209859342Y-186885771D01*
X209859342Y-185457200D02*
X210002199Y-185385771D01*
X210287913Y-185385771D01*
X210430770Y-185457200D01*
X210502199Y-185528629D01*
X210573628Y-185671486D01*
X210573628Y-186100057D01*
X210502199Y-186242914D01*
X210430770Y-186314343D01*
X210287913Y-186385771D01*
X210002199Y-186385771D01*
X209859342Y-186314343D01*
X211859342Y-186314343D02*
X211716485Y-186385771D01*
X211430771Y-186385771D01*
X211287913Y-186314343D01*
X211216485Y-186242914D01*
X211145056Y-186100057D01*
X211145056Y-185671486D01*
X211216485Y-185528629D01*
X211287913Y-185457200D01*
X211430771Y-185385771D01*
X211716485Y-185385771D01*
X211859342Y-185457200D01*
X212502199Y-186385771D02*
X212502199Y-184885771D01*
X212502199Y-185457200D02*
X212645056Y-185385771D01*
X212930770Y-185385771D01*
X213073627Y-185457200D01*
X213145056Y-185528629D01*
X213216485Y-185671486D01*
X213216485Y-186100057D01*
X213145056Y-186242914D01*
X213073627Y-186314343D01*
X212930770Y-186385771D01*
X212645056Y-186385771D01*
X212502199Y-186314343D01*
D10*
D11*
X177002200Y-181507200D02*
X285002200Y-181507200D01*
D10*
D11*
X178287914Y-183614343D02*
X178502200Y-183685771D01*
X178859343Y-183685771D01*
X179002200Y-183614343D01*
X179073629Y-183542914D01*
X179145057Y-183400057D01*
X179145057Y-183257200D01*
X179073629Y-183114343D01*
X179002200Y-183042914D01*
X178859343Y-182971486D01*
X178573629Y-182900057D01*
X178430771Y-182828629D01*
X178359343Y-182757200D01*
X178287914Y-182614343D01*
X178287914Y-182471486D01*
X178359343Y-182328629D01*
X178430771Y-182257200D01*
X178573629Y-182185771D01*
X178930771Y-182185771D01*
X179145057Y-182257200D01*
X179787914Y-183685771D02*
X179787914Y-182185771D01*
X180430771Y-183685771D02*
X180430771Y-182900057D01*
X180359342Y-182757200D01*
X180216485Y-182685771D01*
X180002200Y-182685771D01*
X179859342Y-182757200D01*
X179787914Y-182828629D01*
X181716485Y-183614343D02*
X181573628Y-183685771D01*
X181287914Y-183685771D01*
X181145057Y-183614343D01*
X181073628Y-183471486D01*
X181073628Y-182900057D01*
X181145057Y-182757200D01*
X181287914Y-182685771D01*
X181573628Y-182685771D01*
X181716485Y-182757200D01*
X181787914Y-182900057D01*
X181787914Y-183042914D01*
X181073628Y-183185771D01*
X183002199Y-183614343D02*
X182859342Y-183685771D01*
X182573628Y-183685771D01*
X182430771Y-183614343D01*
X182359342Y-183471486D01*
X182359342Y-182900057D01*
X182430771Y-182757200D01*
X182573628Y-182685771D01*
X182859342Y-182685771D01*
X183002199Y-182757200D01*
X183073628Y-182900057D01*
X183073628Y-183042914D01*
X182359342Y-183185771D01*
X183502199Y-182685771D02*
X184073628Y-182685771D01*
X183716485Y-182185771D02*
X183716485Y-183471486D01*
X183787913Y-183614343D01*
X183930771Y-183685771D01*
X184073628Y-183685771D01*
X184573628Y-183542914D02*
X184645056Y-183614343D01*
X184573628Y-183685771D01*
X184502199Y-183614343D01*
X184573628Y-183542914D01*
X184573628Y-183685771D01*
X184573628Y-182757200D02*
X184645056Y-182828629D01*
X184573628Y-182900057D01*
X184502199Y-182828629D01*
X184573628Y-182757200D01*
X184573628Y-182900057D01*
D10*
D12*
X178359343Y-180685771D02*
X178359343Y-179185771D01*
X178359343Y-179900057D02*
X179216486Y-179900057D01*
X179216486Y-180685771D02*
X179216486Y-179185771D01*
X180502200Y-180614343D02*
X180359343Y-180685771D01*
X180073629Y-180685771D01*
X179930772Y-180614343D01*
X179859343Y-180471486D01*
X179859343Y-179900057D01*
X179930772Y-179757200D01*
X180073629Y-179685771D01*
X180359343Y-179685771D01*
X180502200Y-179757200D01*
X180573629Y-179900057D01*
X180573629Y-180042914D01*
X179859343Y-180185771D01*
X181430772Y-180685771D02*
X181287914Y-180614343D01*
X181216486Y-180471486D01*
X181216486Y-179185771D01*
X181930771Y-180614343D02*
X182073628Y-180685771D01*
X182359343Y-180685771D01*
X182502200Y-180614343D01*
X182573628Y-180471486D01*
X182573628Y-180400057D01*
X182502200Y-180257200D01*
X182359343Y-180185771D01*
X182145057Y-180185771D01*
X182002200Y-180114343D01*
X181930771Y-179971486D01*
X181930771Y-179900057D01*
X182002200Y-179757200D01*
X182145057Y-179685771D01*
X182359343Y-179685771D01*
X182502200Y-179757200D01*
X183216486Y-180685771D02*
X183216486Y-179685771D01*
X183216486Y-179185771D02*
X183145057Y-179257200D01*
X183216486Y-179328629D01*
X183287914Y-179257200D01*
X183216486Y-179185771D01*
X183216486Y-179328629D01*
X183930772Y-179685771D02*
X183930772Y-180685771D01*
X183930772Y-179828629D02*
X184002200Y-179757200D01*
X184145058Y-179685771D01*
X184359343Y-179685771D01*
X184502200Y-179757200D01*
X184573629Y-179900057D01*
X184573629Y-180685771D01*
X185287915Y-180685771D02*
X185287915Y-179185771D01*
X185430772Y-180114343D02*
X185859343Y-180685771D01*
X185859343Y-179685771D02*
X185287915Y-180257200D01*
X186502201Y-180685771D02*
X186502201Y-179685771D01*
X186502201Y-179185771D02*
X186430772Y-179257200D01*
X186502201Y-179328629D01*
X186573629Y-179257200D01*
X186502201Y-179185771D01*
X186502201Y-179328629D01*
X188359344Y-180685771D02*
X188359344Y-179185771D01*
X188359344Y-179900057D02*
X189216487Y-179900057D01*
X189216487Y-180685771D02*
X189216487Y-179185771D01*
X190573630Y-180685771D02*
X190573630Y-179900057D01*
X190502201Y-179757200D01*
X190359344Y-179685771D01*
X190073630Y-179685771D01*
X189930773Y-179757200D01*
X190573630Y-180614343D02*
X190430773Y-180685771D01*
X190073630Y-180685771D01*
X189930773Y-180614343D01*
X189859344Y-180471486D01*
X189859344Y-180328629D01*
X189930773Y-180185771D01*
X190073630Y-180114343D01*
X190430773Y-180114343D01*
X190573630Y-180042914D01*
X191930773Y-180614343D02*
X191787916Y-180685771D01*
X191502202Y-180685771D01*
X191359344Y-180614343D01*
X191287916Y-180542914D01*
X191216487Y-180400057D01*
X191216487Y-179971486D01*
X191287916Y-179828629D01*
X191359344Y-179757200D01*
X191502202Y-179685771D01*
X191787916Y-179685771D01*
X191930773Y-179757200D01*
X192573630Y-180685771D02*
X192573630Y-179185771D01*
X192716487Y-180114343D02*
X193145058Y-180685771D01*
X193145058Y-179685771D02*
X192573630Y-180257200D01*
X194002202Y-180685771D02*
X193859344Y-180614343D01*
X193787916Y-180471486D01*
X193787916Y-179185771D01*
X195216487Y-180685771D02*
X195216487Y-179900057D01*
X195145058Y-179757200D01*
X195002201Y-179685771D01*
X194716487Y-179685771D01*
X194573630Y-179757200D01*
X195216487Y-180614343D02*
X195073630Y-180685771D01*
X194716487Y-180685771D01*
X194573630Y-180614343D01*
X194502201Y-180471486D01*
X194502201Y-180328629D01*
X194573630Y-180185771D01*
X194716487Y-180114343D01*
X195073630Y-180114343D01*
X195216487Y-180042914D01*
X195930773Y-180685771D02*
X195930773Y-179185771D01*
X195930773Y-179757200D02*
X196073630Y-179685771D01*
X196359344Y-179685771D01*
X196502201Y-179757200D01*
X196573630Y-179828629D01*
X196645059Y-179971486D01*
X196645059Y-180400057D01*
X196573630Y-180542914D01*
X196502201Y-180614343D01*
X196359344Y-180685771D01*
X196073630Y-180685771D01*
X195930773Y-180614343D01*
D10*
D11*
X178145057Y-176185771D02*
X179002200Y-176185771D01*
X178573629Y-177685771D02*
X178573629Y-176185771D01*
X180073628Y-177614343D02*
X179930771Y-177685771D01*
X179645057Y-177685771D01*
X179502200Y-177614343D01*
X179430771Y-177471486D01*
X179430771Y-176900057D01*
X179502200Y-176757200D01*
X179645057Y-176685771D01*
X179930771Y-176685771D01*
X180073628Y-176757200D01*
X180145057Y-176900057D01*
X180145057Y-177042914D01*
X179430771Y-177185771D01*
X180787914Y-177685771D02*
X180787914Y-176685771D01*
X180787914Y-176971486D02*
X180859342Y-176828629D01*
X180930771Y-176757200D01*
X181073628Y-176685771D01*
X181216485Y-176685771D01*
X181930771Y-177685771D02*
X181787913Y-177614343D01*
X181716485Y-177542914D01*
X181645056Y-177400057D01*
X181645056Y-176971486D01*
X181716485Y-176828629D01*
X181787913Y-176757200D01*
X181930771Y-176685771D01*
X182145056Y-176685771D01*
X182287913Y-176757200D01*
X182359342Y-176828629D01*
X182430771Y-176971486D01*
X182430771Y-177400057D01*
X182359342Y-177542914D01*
X182287913Y-177614343D01*
X182145056Y-177685771D01*
X181930771Y-177685771D01*
X184216485Y-177685771D02*
X184216485Y-176185771D01*
X185073628Y-177685771D02*
X184430771Y-176828629D01*
X185073628Y-176185771D02*
X184216485Y-177042914D01*
X186359342Y-177685771D02*
X186359342Y-176900057D01*
X186287913Y-176757200D01*
X186145056Y-176685771D01*
X185859342Y-176685771D01*
X185716485Y-176757200D01*
X186359342Y-177614343D02*
X186216485Y-177685771D01*
X185859342Y-177685771D01*
X185716485Y-177614343D01*
X185645056Y-177471486D01*
X185645056Y-177328629D01*
X185716485Y-177185771D01*
X185859342Y-177114343D01*
X186216485Y-177114343D01*
X186359342Y-177042914D01*
X187073628Y-176685771D02*
X187073628Y-178185771D01*
X187073628Y-176757200D02*
X187216485Y-176685771D01*
X187502199Y-176685771D01*
X187645056Y-176757200D01*
X187716485Y-176828629D01*
X187787914Y-176971486D01*
X187787914Y-177400057D01*
X187716485Y-177542914D01*
X187645056Y-177614343D01*
X187502199Y-177685771D01*
X187216485Y-177685771D01*
X187073628Y-177614343D01*
X189073628Y-177685771D02*
X189073628Y-176900057D01*
X189002199Y-176757200D01*
X188859342Y-176685771D01*
X188573628Y-176685771D01*
X188430771Y-176757200D01*
X189073628Y-177614343D02*
X188930771Y-177685771D01*
X188573628Y-177685771D01*
X188430771Y-177614343D01*
X188359342Y-177471486D01*
X188359342Y-177328629D01*
X188430771Y-177185771D01*
X188573628Y-177114343D01*
X188930771Y-177114343D01*
X189073628Y-177042914D01*
X189787914Y-176685771D02*
X189787914Y-177685771D01*
X189787914Y-176828629D02*
X189859342Y-176757200D01*
X190002200Y-176685771D01*
X190216485Y-176685771D01*
X190359342Y-176757200D01*
X190430771Y-176900057D01*
X190430771Y-177685771D01*
X191716485Y-177614343D02*
X191573628Y-177685771D01*
X191287914Y-177685771D01*
X191145057Y-177614343D01*
X191073628Y-177471486D01*
X191073628Y-176900057D01*
X191145057Y-176757200D01*
X191287914Y-176685771D01*
X191573628Y-176685771D01*
X191716485Y-176757200D01*
X191787914Y-176900057D01*
X191787914Y-177042914D01*
X191073628Y-177185771D01*
X192430771Y-176685771D02*
X192430771Y-177685771D01*
X192430771Y-176828629D02*
X192502199Y-176757200D01*
X192645057Y-176685771D01*
X192859342Y-176685771D01*
X193002199Y-176757200D01*
X193073628Y-176900057D01*
X193073628Y-177685771D01*
D10*
D11*
X197002200Y-191507200D02*
X197002200Y-194507200D01*
D10*
D11*
X261002200Y-191507200D02*
X261002200Y-198007200D01*
D14*
X181821429Y-102157381D02*
X182059524Y-103157381D01*
X182250001Y-102443095D01*
X182440477Y-103157381D01*
X182678572Y-102157381D01*
X181916667Y-93957381D02*
X182250000Y-94957381D01*
X182583334Y-93957381D01*
X181964286Y-84957381D02*
X181964286Y-85766905D01*
X182011905Y-85862143D01*
X182059524Y-85909762D01*
X182154762Y-85957381D01*
X182345239Y-85957381D01*
X182440477Y-85909762D01*
X182488096Y-85862143D01*
X182535715Y-85766905D01*
X182535715Y-84957381D01*
D11*
X142554760Y-113833571D02*
X142554760Y-114481190D01*
X142516665Y-114557381D01*
X142478570Y-114595476D01*
X142402379Y-114633571D01*
X142288094Y-114633571D01*
X142211903Y-114595476D01*
X142554760Y-114328810D02*
X142478570Y-114366905D01*
X142326189Y-114366905D01*
X142249998Y-114328810D01*
X142211903Y-114290714D01*
X142173808Y-114214524D01*
X142173808Y-113985952D01*
X142211903Y-113909762D01*
X142249998Y-113871667D01*
X142326189Y-113833571D01*
X142478570Y-113833571D01*
X142554760Y-113871667D01*
X142935713Y-114366905D02*
X142935713Y-113833571D01*
X142935713Y-113566905D02*
X142897618Y-113605000D01*
X142935713Y-113643095D01*
X142973808Y-113605000D01*
X142935713Y-113566905D01*
X142935713Y-113643095D01*
X143202379Y-113833571D02*
X143507141Y-113833571D01*
X143316665Y-113566905D02*
X143316665Y-114252619D01*
X143354760Y-114328810D01*
X143430951Y-114366905D01*
X143507141Y-114366905D01*
X143773808Y-114366905D02*
X143773808Y-113566905D01*
X144116665Y-114366905D02*
X144116665Y-113947857D01*
X144078570Y-113871667D01*
X144002380Y-113833571D01*
X143888094Y-113833571D01*
X143811903Y-113871667D01*
X143773808Y-113909762D01*
X144840475Y-113833571D02*
X144840475Y-114366905D01*
X144497618Y-113833571D02*
X144497618Y-114252619D01*
X144535713Y-114328810D01*
X144611904Y-114366905D01*
X144726190Y-114366905D01*
X144802380Y-114328810D01*
X144840475Y-114290714D01*
X145221428Y-114366905D02*
X145221428Y-113566905D01*
X145221428Y-113871667D02*
X145297619Y-113833571D01*
X145450000Y-113833571D01*
X145526190Y-113871667D01*
X145564285Y-113909762D01*
X145602381Y-113985952D01*
X145602381Y-114214524D01*
X145564285Y-114290714D01*
X145526190Y-114328810D01*
X145450000Y-114366905D01*
X145297619Y-114366905D01*
X145221428Y-114328810D01*
X145945238Y-114290714D02*
X145983333Y-114328810D01*
X145945238Y-114366905D01*
X145907143Y-114328810D01*
X145945238Y-114290714D01*
X145945238Y-114366905D01*
X146669047Y-114328810D02*
X146592857Y-114366905D01*
X146440476Y-114366905D01*
X146364285Y-114328810D01*
X146326190Y-114290714D01*
X146288095Y-114214524D01*
X146288095Y-113985952D01*
X146326190Y-113909762D01*
X146364285Y-113871667D01*
X146440476Y-113833571D01*
X146592857Y-113833571D01*
X146669047Y-113871667D01*
X147126190Y-114366905D02*
X147049999Y-114328810D01*
X147011904Y-114290714D01*
X146973809Y-114214524D01*
X146973809Y-113985952D01*
X147011904Y-113909762D01*
X147049999Y-113871667D01*
X147126190Y-113833571D01*
X147240476Y-113833571D01*
X147316666Y-113871667D01*
X147354761Y-113909762D01*
X147392857Y-113985952D01*
X147392857Y-114214524D01*
X147354761Y-114290714D01*
X147316666Y-114328810D01*
X147240476Y-114366905D01*
X147126190Y-114366905D01*
X147735714Y-114366905D02*
X147735714Y-113833571D01*
X147735714Y-113909762D02*
X147773809Y-113871667D01*
X147850000Y-113833571D01*
X147964286Y-113833571D01*
X148040476Y-113871667D01*
X148078571Y-113947857D01*
X148078571Y-114366905D01*
X148078571Y-113947857D02*
X148116667Y-113871667D01*
X148192857Y-113833571D01*
X148307143Y-113833571D01*
X148383333Y-113871667D01*
X148421428Y-113947857D01*
X148421428Y-114366905D01*
X149373810Y-113528810D02*
X148688095Y-114557381D01*
X149564286Y-113566905D02*
X149754762Y-114366905D01*
X149907143Y-113795476D01*
X150059524Y-114366905D01*
X150250000Y-113566905D01*
X150897619Y-114366905D02*
X150897619Y-113947857D01*
X150859524Y-113871667D01*
X150783334Y-113833571D01*
X150630953Y-113833571D01*
X150554762Y-113871667D01*
X150897619Y-114328810D02*
X150821429Y-114366905D01*
X150630953Y-114366905D01*
X150554762Y-114328810D01*
X150516667Y-114252619D01*
X150516667Y-114176429D01*
X150554762Y-114100238D01*
X150630953Y-114062143D01*
X150821429Y-114062143D01*
X150897619Y-114024048D01*
X151278572Y-114366905D02*
X151278572Y-113833571D01*
X151278572Y-113985952D02*
X151316667Y-113909762D01*
X151354763Y-113871667D01*
X151430953Y-113833571D01*
X151507144Y-113833571D01*
X151773810Y-114366905D02*
X151773810Y-113833571D01*
X151773810Y-113909762D02*
X151811905Y-113871667D01*
X151888096Y-113833571D01*
X152002382Y-113833571D01*
X152078572Y-113871667D01*
X152116667Y-113947857D01*
X152116667Y-114366905D01*
X152116667Y-113947857D02*
X152154763Y-113871667D01*
X152230953Y-113833571D01*
X152345239Y-113833571D01*
X152421429Y-113871667D01*
X152459524Y-113947857D01*
X152459524Y-114366905D01*
X152726191Y-113566905D02*
X153183334Y-113566905D01*
X152954763Y-114366905D02*
X152954763Y-113566905D01*
X154021430Y-113528810D02*
X153335715Y-114557381D01*
X154554763Y-113947857D02*
X154669049Y-113985952D01*
X154707144Y-114024048D01*
X154745239Y-114100238D01*
X154745239Y-114214524D01*
X154707144Y-114290714D01*
X154669049Y-114328810D01*
X154592858Y-114366905D01*
X154288096Y-114366905D01*
X154288096Y-113566905D01*
X154554763Y-113566905D01*
X154630953Y-113605000D01*
X154669049Y-113643095D01*
X154707144Y-113719286D01*
X154707144Y-113795476D01*
X154669049Y-113871667D01*
X154630953Y-113909762D01*
X154554763Y-113947857D01*
X154288096Y-113947857D01*
X155469049Y-114366905D02*
X155088096Y-114366905D01*
X155088096Y-113566905D01*
X155735715Y-114366905D02*
X155735715Y-113566905D01*
X155926191Y-113566905D01*
X156040477Y-113605000D01*
X156116668Y-113681190D01*
X156154763Y-113757381D01*
X156192858Y-113909762D01*
X156192858Y-114024048D01*
X156154763Y-114176429D01*
X156116668Y-114252619D01*
X156040477Y-114328810D01*
X155926191Y-114366905D01*
X155735715Y-114366905D01*
X156992858Y-114290714D02*
X156954763Y-114328810D01*
X156840477Y-114366905D01*
X156764287Y-114366905D01*
X156650001Y-114328810D01*
X156573810Y-114252619D01*
X156535715Y-114176429D01*
X156497620Y-114024048D01*
X156497620Y-113909762D01*
X156535715Y-113757381D01*
X156573810Y-113681190D01*
X156650001Y-113605000D01*
X156764287Y-113566905D01*
X156840477Y-113566905D01*
X156954763Y-113605000D01*
X156992858Y-113643095D01*
X157335715Y-114062143D02*
X157945239Y-114062143D01*
X158669048Y-114328810D02*
X158592858Y-114366905D01*
X158440477Y-114366905D01*
X158364286Y-114328810D01*
X158326191Y-114290714D01*
X158288096Y-114214524D01*
X158288096Y-113985952D01*
X158326191Y-113909762D01*
X158364286Y-113871667D01*
X158440477Y-113833571D01*
X158592858Y-113833571D01*
X158669048Y-113871667D01*
X159126191Y-114366905D02*
X159050000Y-114328810D01*
X159011905Y-114290714D01*
X158973810Y-114214524D01*
X158973810Y-113985952D01*
X159011905Y-113909762D01*
X159050000Y-113871667D01*
X159126191Y-113833571D01*
X159240477Y-113833571D01*
X159316667Y-113871667D01*
X159354762Y-113909762D01*
X159392858Y-113985952D01*
X159392858Y-114214524D01*
X159354762Y-114290714D01*
X159316667Y-114328810D01*
X159240477Y-114366905D01*
X159126191Y-114366905D01*
X159735715Y-113833571D02*
X159735715Y-114366905D01*
X159735715Y-113909762D02*
X159773810Y-113871667D01*
X159850001Y-113833571D01*
X159964287Y-113833571D01*
X160040477Y-113871667D01*
X160078572Y-113947857D01*
X160078572Y-114366905D01*
X160345239Y-113833571D02*
X160650001Y-113833571D01*
X160459525Y-113566905D02*
X160459525Y-114252619D01*
X160497620Y-114328810D01*
X160573811Y-114366905D01*
X160650001Y-114366905D01*
X160916668Y-114366905D02*
X160916668Y-113833571D01*
X160916668Y-113985952D02*
X160954763Y-113909762D01*
X160992859Y-113871667D01*
X161069049Y-113833571D01*
X161145240Y-113833571D01*
X161526192Y-114366905D02*
X161450001Y-114328810D01*
X161411906Y-114290714D01*
X161373811Y-114214524D01*
X161373811Y-113985952D01*
X161411906Y-113909762D01*
X161450001Y-113871667D01*
X161526192Y-113833571D01*
X161640478Y-113833571D01*
X161716668Y-113871667D01*
X161754763Y-113909762D01*
X161792859Y-113985952D01*
X161792859Y-114214524D01*
X161754763Y-114290714D01*
X161716668Y-114328810D01*
X161640478Y-114366905D01*
X161526192Y-114366905D01*
X162250002Y-114366905D02*
X162173811Y-114328810D01*
X162135716Y-114252619D01*
X162135716Y-113566905D01*
X162669050Y-114366905D02*
X162592859Y-114328810D01*
X162554764Y-114252619D01*
X162554764Y-113566905D01*
X163278574Y-114328810D02*
X163202384Y-114366905D01*
X163050003Y-114366905D01*
X162973812Y-114328810D01*
X162935717Y-114252619D01*
X162935717Y-113947857D01*
X162973812Y-113871667D01*
X163050003Y-113833571D01*
X163202384Y-113833571D01*
X163278574Y-113871667D01*
X163316669Y-113947857D01*
X163316669Y-114024048D01*
X162935717Y-114100238D01*
X163659526Y-114366905D02*
X163659526Y-113833571D01*
X163659526Y-113985952D02*
X163697621Y-113909762D01*
X163735717Y-113871667D01*
X163811907Y-113833571D01*
X163888098Y-113833571D01*
X165183336Y-114366905D02*
X164726193Y-114366905D01*
X164954764Y-114366905D02*
X164954764Y-113566905D01*
X164878574Y-113681190D01*
X164802383Y-113757381D01*
X164726193Y-113795476D01*
X165526193Y-114290714D02*
X165564288Y-114328810D01*
X165526193Y-114366905D01*
X165488098Y-114328810D01*
X165526193Y-114290714D01*
X165526193Y-114366905D01*
X166059526Y-113566905D02*
X166135717Y-113566905D01*
X166211907Y-113605000D01*
X166250002Y-113643095D01*
X166288098Y-113719286D01*
X166326193Y-113871667D01*
X166326193Y-114062143D01*
X166288098Y-114214524D01*
X166250002Y-114290714D01*
X166211907Y-114328810D01*
X166135717Y-114366905D01*
X166059526Y-114366905D01*
X165983336Y-114328810D01*
X165945240Y-114290714D01*
X165907145Y-114214524D01*
X165869050Y-114062143D01*
X165869050Y-113871667D01*
X165907145Y-113719286D01*
X165945240Y-113643095D01*
X165983336Y-113605000D01*
X166059526Y-113566905D01*
X184286000Y-81255000D02*
G75*
G03X184286000Y-81255000I-2286000J0D01*
G01*
X142900000Y-107100000D02*
X142900000Y-103100000D01*
X142900000Y-103100000D02*
X146900000Y-103100000D01*
X146900000Y-103100000D02*
X146900000Y-107100000D01*
X146900000Y-107100000D02*
X142900000Y-107100000D01*
X161950000Y-86380000D02*
X161250000Y-86380000D01*
X161250000Y-85020000D02*
X161950000Y-85020000D01*
X147450000Y-97700000D02*
X147750000Y-97700000D01*
X147450000Y-93700000D02*
X147750000Y-93700000D01*
X150850000Y-93700000D02*
X150550000Y-93700000D01*
X150850000Y-97700000D02*
X150550000Y-97700000D01*
X150850000Y-93700000D02*
X150850000Y-97700000D01*
X147450000Y-93700000D02*
X147450000Y-97700000D01*
X140786000Y-81255000D02*
G75*
G03X140786000Y-81255000I-2286000J0D01*
G01*
X184286000Y-112755000D02*
G75*
G03X184286000Y-112755000I-2286000J0D01*
G01*
X140786000Y-112755000D02*
G75*
G03X140786000Y-112755000I-2286000J0D01*
G01*
X160900000Y-112055000D02*
X161100000Y-112305000D01*
X161100000Y-111805000D02*
X160900000Y-112055000D01*
X161250000Y-111530000D02*
X160200000Y-111530000D01*
X161250000Y-112580000D02*
X160200000Y-112580000D01*
X159200000Y-109005000D02*
X159400000Y-109255000D01*
X159400000Y-108755000D02*
X159200000Y-109005000D01*
X159550000Y-108480000D02*
X158500000Y-108480000D01*
X159550000Y-109530000D02*
X158500000Y-109530000D01*
X148349940Y-105100860D02*
X148700460Y-105100860D01*
X151850060Y-105100860D02*
X151499540Y-105100860D01*
X148349940Y-109150440D02*
X148700460Y-109150440D01*
X148349940Y-104649560D02*
X148700460Y-104649560D01*
X151850060Y-104649560D02*
X151499540Y-104649560D01*
X151850060Y-109150440D02*
X151499540Y-109150440D01*
X148349940Y-104649560D02*
X148349940Y-109150440D01*
X151850060Y-104649560D02*
X151850060Y-109150440D01*
X173150000Y-89500000D02*
X172950000Y-89500000D01*
X172950000Y-89500000D02*
X172950000Y-85500000D01*
X172950000Y-85500000D02*
X173150000Y-85500000D01*
X180950000Y-85900000D02*
X181150000Y-85900000D01*
X181150000Y-85900000D02*
X181150000Y-85300000D01*
X181150000Y-85300000D02*
X180950000Y-85300000D01*
X180950000Y-87200000D02*
X181150000Y-87200000D01*
X181150000Y-87200000D02*
X181150000Y-86600000D01*
X181150000Y-86600000D02*
X180950000Y-86600000D01*
X180950000Y-88400000D02*
X181150000Y-88400000D01*
X181150000Y-88400000D02*
X181150000Y-87800000D01*
X181150000Y-87800000D02*
X180950000Y-87800000D01*
X180950000Y-89700000D02*
X181150000Y-89700000D01*
X181150000Y-89700000D02*
X181150000Y-89100000D01*
X181150000Y-89100000D02*
X180950000Y-89100000D01*
X173150000Y-90300000D02*
X173150000Y-84700000D01*
X173150000Y-84700000D02*
X180950000Y-84700000D01*
X180950000Y-84700000D02*
X180950000Y-90300000D01*
X180950000Y-90300000D02*
X173150000Y-90300000D01*
X173275000Y-98465000D02*
X173075000Y-98465000D01*
X173075000Y-98465000D02*
X173075000Y-94465000D01*
X173075000Y-94465000D02*
X173275000Y-94465000D01*
X181075000Y-94865000D02*
X181275000Y-94865000D01*
X181275000Y-94865000D02*
X181275000Y-94265000D01*
X181275000Y-94265000D02*
X181075000Y-94265000D01*
X181075000Y-96165000D02*
X181275000Y-96165000D01*
X181275000Y-96165000D02*
X181275000Y-95565000D01*
X181275000Y-95565000D02*
X181075000Y-95565000D01*
X181075000Y-97365000D02*
X181275000Y-97365000D01*
X181275000Y-97365000D02*
X181275000Y-96765000D01*
X181275000Y-96765000D02*
X181075000Y-96765000D01*
X181075000Y-98665000D02*
X181275000Y-98665000D01*
X181275000Y-98665000D02*
X181275000Y-98065000D01*
X181275000Y-98065000D02*
X181075000Y-98065000D01*
X173275000Y-99265000D02*
X173275000Y-93665000D01*
X173275000Y-93665000D02*
X181075000Y-93665000D01*
X181075000Y-93665000D02*
X181075000Y-99265000D01*
X181075000Y-99265000D02*
X173275000Y-99265000D01*
X173325000Y-107375000D02*
X173125000Y-107375000D01*
X173125000Y-107375000D02*
X173125000Y-103375000D01*
X173125000Y-103375000D02*
X173325000Y-103375000D01*
X181125000Y-103775000D02*
X181325000Y-103775000D01*
X181325000Y-103775000D02*
X181325000Y-103175000D01*
X181325000Y-103175000D02*
X181125000Y-103175000D01*
X181125000Y-105075000D02*
X181325000Y-105075000D01*
X181325000Y-105075000D02*
X181325000Y-104475000D01*
X181325000Y-104475000D02*
X181125000Y-104475000D01*
X181125000Y-106275000D02*
X181325000Y-106275000D01*
X181325000Y-106275000D02*
X181325000Y-105675000D01*
X181325000Y-105675000D02*
X181125000Y-105675000D01*
X181125000Y-107575000D02*
X181325000Y-107575000D01*
X181325000Y-107575000D02*
X181325000Y-106975000D01*
X181325000Y-106975000D02*
X181125000Y-106975000D01*
X173325000Y-108175000D02*
X173325000Y-102575000D01*
X173325000Y-102575000D02*
X181125000Y-102575000D01*
X181125000Y-102575000D02*
X181125000Y-108175000D01*
X181125000Y-108175000D02*
X173325000Y-108175000D01*
X162200000Y-82150000D02*
X162200000Y-81900000D01*
X162200000Y-82650000D02*
X162200000Y-82900000D01*
X162200000Y-82650000D02*
X161850000Y-82150000D01*
X161850000Y-82150000D02*
X162550000Y-82150000D01*
X162550000Y-82150000D02*
X162200000Y-82650000D01*
X161850000Y-82650000D02*
X162550000Y-82650000D01*
X163000000Y-83700000D02*
X163000000Y-81300000D01*
X161400000Y-83700000D02*
X161400000Y-81300000D01*
X176500000Y-80750000D02*
X175500000Y-80750000D01*
X175500000Y-83050000D02*
X176500000Y-83050000D01*
X167500000Y-97655000D02*
X167500000Y-97405000D01*
X167500000Y-98155000D02*
X167500000Y-98405000D01*
X167500000Y-98155000D02*
X167150000Y-97655000D01*
X167150000Y-97655000D02*
X167850000Y-97655000D01*
X167850000Y-97655000D02*
X167500000Y-98155000D01*
X167150000Y-98155000D02*
X167850000Y-98155000D01*
X168300000Y-99205000D02*
X168300000Y-96805000D01*
X166700000Y-99205000D02*
X166700000Y-96805000D01*
X165500000Y-106755000D02*
X165500000Y-107005000D01*
X165500000Y-106255000D02*
X165500000Y-106005000D01*
X165500000Y-106255000D02*
X165850000Y-106755000D01*
X165850000Y-106755000D02*
X165150000Y-106755000D01*
X165150000Y-106755000D02*
X165500000Y-106255000D01*
X165850000Y-106255000D02*
X165150000Y-106255000D01*
X164700000Y-105205000D02*
X164700000Y-107605000D01*
X166300000Y-105205000D02*
X166300000Y-107605000D01*
X177800000Y-99550000D02*
X176800000Y-99550000D01*
X176800000Y-101850000D02*
X177800000Y-101850000D01*
X145700000Y-107550000D02*
X144700000Y-107550000D01*
X144700000Y-109850000D02*
X145700000Y-109850000D01*
X148800000Y-103250000D02*
X149800000Y-103250000D01*
X149800000Y-100950000D02*
X148800000Y-100950000D01*
X177200000Y-90650000D02*
X176200000Y-90650000D01*
X176200000Y-92950000D02*
X177200000Y-92950000D01*
X178150000Y-111400000D02*
X178150000Y-110400000D01*
X175850000Y-110400000D02*
X175850000Y-111400000D01*
X151130000Y-84820000D02*
X156110000Y-84820000D01*
X151130000Y-82820000D02*
X156110000Y-82820000D01*
X143510000Y-82820000D02*
X143510000Y-84820000D01*
X156110000Y-82820000D02*
X156110000Y-84820000D01*
X143510000Y-82820000D02*
X151130000Y-82820000D01*
X151130000Y-84820000D02*
X143510000Y-84820000D01*
X151130000Y-82280000D02*
X158750000Y-82280000D01*
X151130000Y-80280000D02*
X158750000Y-80280000D01*
X143510000Y-80280000D02*
X143510000Y-82280000D01*
X158750000Y-80280000D02*
X158750000Y-82280000D01*
X143510000Y-80280000D02*
X151130000Y-80280000D01*
X151130000Y-82280000D02*
X143510000Y-82280000D01*
X153670000Y-112760000D02*
X158650000Y-112760000D01*
X153670000Y-110760000D02*
X158650000Y-110760000D01*
X146050000Y-110760000D02*
X146050000Y-112760000D01*
X158650000Y-110760000D02*
X158650000Y-112760000D01*
X146050000Y-110760000D02*
X153670000Y-110760000D01*
X153670000Y-112760000D02*
X146050000Y-112760000D01*
X148950000Y-100580000D02*
X148250000Y-100580000D01*
X148250000Y-99220000D02*
X148950000Y-99220000D01*
X153820000Y-92350000D02*
X153820000Y-91650000D01*
X155180000Y-91650000D02*
X155180000Y-92350000D01*
X153280000Y-101150000D02*
X153280000Y-101850000D01*
X151920000Y-101850000D02*
X151920000Y-101150000D01*
X165050000Y-97605000D02*
X164350000Y-97605000D01*
X164350000Y-96245000D02*
X165050000Y-96245000D01*
X162020000Y-100450000D02*
X162020000Y-99750000D01*
X163380000Y-99750000D02*
X163380000Y-100450000D01*
X164200000Y-81000000D02*
X164800000Y-81000000D01*
X164800000Y-82400000D02*
X164200000Y-82400000D01*
X164200000Y-82700000D02*
X164800000Y-82700000D01*
X164800000Y-84100000D02*
X164200000Y-84100000D01*
X167900000Y-94605000D02*
X168500000Y-94605000D01*
X168500000Y-96005000D02*
X167900000Y-96005000D01*
X167910000Y-92905000D02*
X168510000Y-92905000D01*
X168510000Y-94305000D02*
X167910000Y-94305000D01*
X167950000Y-106305000D02*
X168550000Y-106305000D01*
X168550000Y-107705000D02*
X167950000Y-107705000D01*
X167950000Y-104305000D02*
X168550000Y-104305000D01*
X168550000Y-105705000D02*
X167950000Y-105705000D01*
X163250000Y-111405000D02*
X163850000Y-111405000D01*
X163850000Y-112805000D02*
X163250000Y-112805000D01*
X161500000Y-105200000D02*
X160900000Y-105200000D01*
X160900000Y-103800000D02*
X161500000Y-103800000D01*
X161050000Y-102220000D02*
X161750000Y-102220000D01*
X161750000Y-103580000D02*
X161050000Y-103580000D01*
X155100000Y-105100000D02*
X154500000Y-105100000D01*
X154500000Y-103700000D02*
X155100000Y-103700000D01*
X161550000Y-108405000D02*
X162150000Y-108405000D01*
X162150000Y-109805000D02*
X161550000Y-109805000D01*
X147150000Y-94400000D02*
X147150000Y-94700000D01*
X146050000Y-94700000D02*
X146050000Y-94400000D01*
X146050000Y-97000000D02*
X146050000Y-96700000D01*
X147150000Y-96700000D02*
X147150000Y-97000000D01*
X152080000Y-96200000D02*
X152320000Y-96200000D01*
X152320000Y-97200000D02*
X152080000Y-97200000D01*
X161375000Y-94000000D02*
X161375000Y-94525000D01*
X154125000Y-101250000D02*
X154125000Y-100725000D01*
X161375000Y-101250000D02*
X161375000Y-100725000D01*
X154125000Y-94000000D02*
X154650000Y-94000000D01*
X154125000Y-101250000D02*
X154650000Y-101250000D01*
X161375000Y-101250000D02*
X160850000Y-101250000D01*
X161375000Y-94000000D02*
X160850000Y-94000000D01*
X145066667Y-102861905D02*
X144685714Y-102861905D01*
X144685714Y-102061905D01*
X145752381Y-102861905D02*
X145295238Y-102861905D01*
X145523809Y-102861905D02*
X145523809Y-102061905D01*
X145447619Y-102176190D01*
X145371428Y-102252381D01*
X145295238Y-102290476D01*
X160616667Y-84535714D02*
X160578572Y-84573810D01*
X160464286Y-84611905D01*
X160388096Y-84611905D01*
X160273810Y-84573810D01*
X160197619Y-84497619D01*
X160159524Y-84421429D01*
X160121429Y-84269048D01*
X160121429Y-84154762D01*
X160159524Y-84002381D01*
X160197619Y-83926190D01*
X160273810Y-83850000D01*
X160388096Y-83811905D01*
X160464286Y-83811905D01*
X160578572Y-83850000D01*
X160616667Y-83888095D01*
X161378572Y-84611905D02*
X160921429Y-84611905D01*
X161150000Y-84611905D02*
X161150000Y-83811905D01*
X161073810Y-83926190D01*
X160997619Y-84002381D01*
X160921429Y-84040476D01*
X149035715Y-92500000D02*
X148940477Y-92452381D01*
X148797620Y-92452381D01*
X148654762Y-92500000D01*
X148559524Y-92595238D01*
X148511905Y-92690476D01*
X148464286Y-92880952D01*
X148464286Y-93023810D01*
X148511905Y-93214286D01*
X148559524Y-93309524D01*
X148654762Y-93404762D01*
X148797620Y-93452381D01*
X148892858Y-93452381D01*
X149035715Y-93404762D01*
X149083334Y-93357143D01*
X149083334Y-93023810D01*
X148892858Y-93023810D01*
X150035715Y-93452381D02*
X149464286Y-93452381D01*
X149750000Y-93452381D02*
X149750000Y-92452381D01*
X149654762Y-92595238D01*
X149559524Y-92690476D01*
X149464286Y-92738095D01*
X159821428Y-110466905D02*
X160088095Y-111266905D01*
X160354762Y-110466905D01*
X161040476Y-111266905D02*
X160583333Y-111266905D01*
X160811904Y-111266905D02*
X160811904Y-110466905D01*
X160735714Y-110581190D01*
X160659523Y-110657381D01*
X160583333Y-110695476D01*
X161535714Y-110466905D02*
X161611905Y-110466905D01*
X161688095Y-110505000D01*
X161726190Y-110543095D01*
X161764286Y-110619286D01*
X161802381Y-110771667D01*
X161802381Y-110962143D01*
X161764286Y-111114524D01*
X161726190Y-111190714D01*
X161688095Y-111228810D01*
X161611905Y-111266905D01*
X161535714Y-111266905D01*
X161459524Y-111228810D01*
X161421428Y-111190714D01*
X161383333Y-111114524D01*
X161345238Y-110962143D01*
X161345238Y-110771667D01*
X161383333Y-110619286D01*
X161421428Y-110543095D01*
X161459524Y-110505000D01*
X161535714Y-110466905D01*
X156802381Y-108566905D02*
X157069048Y-109366905D01*
X157335715Y-108566905D01*
X157640476Y-109366905D02*
X157792857Y-109366905D01*
X157869048Y-109328810D01*
X157907143Y-109290714D01*
X157983334Y-109176429D01*
X158021429Y-109024048D01*
X158021429Y-108719286D01*
X157983334Y-108643095D01*
X157945238Y-108605000D01*
X157869048Y-108566905D01*
X157716667Y-108566905D01*
X157640476Y-108605000D01*
X157602381Y-108643095D01*
X157564286Y-108719286D01*
X157564286Y-108909762D01*
X157602381Y-108985952D01*
X157640476Y-109024048D01*
X157716667Y-109062143D01*
X157869048Y-109062143D01*
X157945238Y-109024048D01*
X157983334Y-108985952D01*
X158021429Y-108909762D01*
X146102381Y-101811905D02*
X146369048Y-102611905D01*
X146635715Y-101811905D01*
X147321429Y-102611905D02*
X146864286Y-102611905D01*
X147092857Y-102611905D02*
X147092857Y-101811905D01*
X147016667Y-101926190D01*
X146940476Y-102002381D01*
X146864286Y-102040476D01*
X178373810Y-84543095D02*
X178297619Y-84505000D01*
X178221429Y-84428810D01*
X178107143Y-84314524D01*
X178030952Y-84276429D01*
X177954762Y-84276429D01*
X177992857Y-84466905D02*
X177916667Y-84428810D01*
X177840476Y-84352619D01*
X177802381Y-84200238D01*
X177802381Y-83933571D01*
X177840476Y-83781190D01*
X177916667Y-83705000D01*
X177992857Y-83666905D01*
X178145238Y-83666905D01*
X178221429Y-83705000D01*
X178297619Y-83781190D01*
X178335714Y-83933571D01*
X178335714Y-84200238D01*
X178297619Y-84352619D01*
X178221429Y-84428810D01*
X178145238Y-84466905D01*
X177992857Y-84466905D01*
X179097619Y-84466905D02*
X178640476Y-84466905D01*
X178869047Y-84466905D02*
X178869047Y-83666905D01*
X178792857Y-83781190D01*
X178716666Y-83857381D01*
X178640476Y-83895476D01*
X178573810Y-93743095D02*
X178497619Y-93705000D01*
X178421429Y-93628810D01*
X178307143Y-93514524D01*
X178230952Y-93476429D01*
X178154762Y-93476429D01*
X178192857Y-93666905D02*
X178116667Y-93628810D01*
X178040476Y-93552619D01*
X178002381Y-93400238D01*
X178002381Y-93133571D01*
X178040476Y-92981190D01*
X178116667Y-92905000D01*
X178192857Y-92866905D01*
X178345238Y-92866905D01*
X178421429Y-92905000D01*
X178497619Y-92981190D01*
X178535714Y-93133571D01*
X178535714Y-93400238D01*
X178497619Y-93552619D01*
X178421429Y-93628810D01*
X178345238Y-93666905D01*
X178192857Y-93666905D01*
X179259524Y-92866905D02*
X178878571Y-92866905D01*
X178840476Y-93247857D01*
X178878571Y-93209762D01*
X178954762Y-93171667D01*
X179145238Y-93171667D01*
X179221428Y-93209762D01*
X179259524Y-93247857D01*
X179297619Y-93324048D01*
X179297619Y-93514524D01*
X179259524Y-93590714D01*
X179221428Y-93628810D01*
X179145238Y-93666905D01*
X178954762Y-93666905D01*
X178878571Y-93628810D01*
X178840476Y-93590714D01*
X178673810Y-102543095D02*
X178597619Y-102505000D01*
X178521429Y-102428810D01*
X178407143Y-102314524D01*
X178330952Y-102276429D01*
X178254762Y-102276429D01*
X178292857Y-102466905D02*
X178216667Y-102428810D01*
X178140476Y-102352619D01*
X178102381Y-102200238D01*
X178102381Y-101933571D01*
X178140476Y-101781190D01*
X178216667Y-101705000D01*
X178292857Y-101666905D01*
X178445238Y-101666905D01*
X178521429Y-101705000D01*
X178597619Y-101781190D01*
X178635714Y-101933571D01*
X178635714Y-102200238D01*
X178597619Y-102352619D01*
X178521429Y-102428810D01*
X178445238Y-102466905D01*
X178292857Y-102466905D01*
X178902381Y-101666905D02*
X179397619Y-101666905D01*
X179130952Y-101971667D01*
X179245238Y-101971667D01*
X179321428Y-102009762D01*
X179359524Y-102047857D01*
X179397619Y-102124048D01*
X179397619Y-102314524D01*
X179359524Y-102390714D01*
X179321428Y-102428810D01*
X179245238Y-102466905D01*
X179016666Y-102466905D01*
X178940476Y-102428810D01*
X178902381Y-102390714D01*
X159852381Y-81311905D02*
X160119048Y-82111905D01*
X160385715Y-81311905D01*
X160614286Y-81388095D02*
X160652381Y-81350000D01*
X160728572Y-81311905D01*
X160919048Y-81311905D01*
X160995238Y-81350000D01*
X161033334Y-81388095D01*
X161071429Y-81464286D01*
X161071429Y-81540476D01*
X161033334Y-81654762D01*
X160576191Y-82111905D01*
X161071429Y-82111905D01*
X174866667Y-83790714D02*
X174828572Y-83828810D01*
X174714286Y-83866905D01*
X174638096Y-83866905D01*
X174523810Y-83828810D01*
X174447619Y-83752619D01*
X174409524Y-83676429D01*
X174371429Y-83524048D01*
X174371429Y-83409762D01*
X174409524Y-83257381D01*
X174447619Y-83181190D01*
X174523810Y-83105000D01*
X174638096Y-83066905D01*
X174714286Y-83066905D01*
X174828572Y-83105000D01*
X174866667Y-83143095D01*
X175552381Y-83333571D02*
X175552381Y-83866905D01*
X175361905Y-83028810D02*
X175171429Y-83600238D01*
X175666667Y-83600238D01*
X168602381Y-98561905D02*
X168869048Y-99361905D01*
X169135715Y-98561905D01*
X169326191Y-98561905D02*
X169821429Y-98561905D01*
X169554762Y-98866667D01*
X169669048Y-98866667D01*
X169745238Y-98904762D01*
X169783334Y-98942857D01*
X169821429Y-99019048D01*
X169821429Y-99209524D01*
X169783334Y-99285714D01*
X169745238Y-99323810D01*
X169669048Y-99361905D01*
X169440476Y-99361905D01*
X169364286Y-99323810D01*
X169326191Y-99285714D01*
X163102381Y-106061905D02*
X163369048Y-106861905D01*
X163635715Y-106061905D01*
X164245238Y-106328571D02*
X164245238Y-106861905D01*
X164054762Y-106023810D02*
X163864286Y-106595238D01*
X164359524Y-106595238D01*
X174416667Y-100190714D02*
X174378572Y-100228810D01*
X174264286Y-100266905D01*
X174188096Y-100266905D01*
X174073810Y-100228810D01*
X173997619Y-100152619D01*
X173959524Y-100076429D01*
X173921429Y-99924048D01*
X173921429Y-99809762D01*
X173959524Y-99657381D01*
X173997619Y-99581190D01*
X174073810Y-99505000D01*
X174188096Y-99466905D01*
X174264286Y-99466905D01*
X174378572Y-99505000D01*
X174416667Y-99543095D01*
X175102381Y-99466905D02*
X174950000Y-99466905D01*
X174873810Y-99505000D01*
X174835715Y-99543095D01*
X174759524Y-99657381D01*
X174721429Y-99809762D01*
X174721429Y-100114524D01*
X174759524Y-100190714D01*
X174797619Y-100228810D01*
X174873810Y-100266905D01*
X175026191Y-100266905D01*
X175102381Y-100228810D01*
X175140477Y-100190714D01*
X175178572Y-100114524D01*
X175178572Y-99924048D01*
X175140477Y-99847857D01*
X175102381Y-99809762D01*
X175026191Y-99771667D01*
X174873810Y-99771667D01*
X174797619Y-99809762D01*
X174759524Y-99847857D01*
X174721429Y-99924048D01*
X142366667Y-109035714D02*
X142328572Y-109073810D01*
X142214286Y-109111905D01*
X142138096Y-109111905D01*
X142023810Y-109073810D01*
X141947619Y-108997619D01*
X141909524Y-108921429D01*
X141871429Y-108769048D01*
X141871429Y-108654762D01*
X141909524Y-108502381D01*
X141947619Y-108426190D01*
X142023810Y-108350000D01*
X142138096Y-108311905D01*
X142214286Y-108311905D01*
X142328572Y-108350000D01*
X142366667Y-108388095D01*
X142633334Y-108311905D02*
X143166667Y-108311905D01*
X142823810Y-109111905D01*
X152735714Y-107535714D02*
X152697619Y-107573810D01*
X152583333Y-107611905D01*
X152507143Y-107611905D01*
X152392857Y-107573810D01*
X152316666Y-107497619D01*
X152278571Y-107421429D01*
X152240476Y-107269048D01*
X152240476Y-107154762D01*
X152278571Y-107002381D01*
X152316666Y-106926190D01*
X152392857Y-106850000D01*
X152507143Y-106811905D01*
X152583333Y-106811905D01*
X152697619Y-106850000D01*
X152735714Y-106888095D01*
X153497619Y-107611905D02*
X153040476Y-107611905D01*
X153269047Y-107611905D02*
X153269047Y-106811905D01*
X153192857Y-106926190D01*
X153116666Y-107002381D01*
X153040476Y-107040476D01*
X153764286Y-106811905D02*
X154297619Y-106811905D01*
X153954762Y-107611905D01*
X174016667Y-91090714D02*
X173978572Y-91128810D01*
X173864286Y-91166905D01*
X173788096Y-91166905D01*
X173673810Y-91128810D01*
X173597619Y-91052619D01*
X173559524Y-90976429D01*
X173521429Y-90824048D01*
X173521429Y-90709762D01*
X173559524Y-90557381D01*
X173597619Y-90481190D01*
X173673810Y-90405000D01*
X173788096Y-90366905D01*
X173864286Y-90366905D01*
X173978572Y-90405000D01*
X174016667Y-90443095D01*
X174740477Y-90366905D02*
X174359524Y-90366905D01*
X174321429Y-90747857D01*
X174359524Y-90709762D01*
X174435715Y-90671667D01*
X174626191Y-90671667D01*
X174702381Y-90709762D01*
X174740477Y-90747857D01*
X174778572Y-90824048D01*
X174778572Y-91014524D01*
X174740477Y-91090714D01*
X174702381Y-91128810D01*
X174626191Y-91166905D01*
X174435715Y-91166905D01*
X174359524Y-91128810D01*
X174321429Y-91090714D01*
X174235714Y-109190714D02*
X174197619Y-109228810D01*
X174083333Y-109266905D01*
X174007143Y-109266905D01*
X173892857Y-109228810D01*
X173816666Y-109152619D01*
X173778571Y-109076429D01*
X173740476Y-108924048D01*
X173740476Y-108809762D01*
X173778571Y-108657381D01*
X173816666Y-108581190D01*
X173892857Y-108505000D01*
X174007143Y-108466905D01*
X174083333Y-108466905D01*
X174197619Y-108505000D01*
X174235714Y-108543095D01*
X174997619Y-109266905D02*
X174540476Y-109266905D01*
X174769047Y-109266905D02*
X174769047Y-108466905D01*
X174692857Y-108581190D01*
X174616666Y-108657381D01*
X174540476Y-108695476D01*
X175378571Y-109266905D02*
X175530952Y-109266905D01*
X175607143Y-109228810D01*
X175645238Y-109190714D01*
X175721429Y-109076429D01*
X175759524Y-108924048D01*
X175759524Y-108619286D01*
X175721429Y-108543095D01*
X175683333Y-108505000D01*
X175607143Y-108466905D01*
X175454762Y-108466905D01*
X175378571Y-108505000D01*
X175340476Y-108543095D01*
X175302381Y-108619286D01*
X175302381Y-108809762D01*
X175340476Y-108885952D01*
X175378571Y-108924048D01*
X175454762Y-108962143D01*
X175607143Y-108962143D01*
X175683333Y-108924048D01*
X175721429Y-108885952D01*
X175759524Y-108809762D01*
X141859524Y-84161905D02*
X141859524Y-83361905D01*
X142164286Y-83361905D01*
X142240477Y-83400000D01*
X142278572Y-83438095D01*
X142316667Y-83514286D01*
X142316667Y-83628571D01*
X142278572Y-83704762D01*
X142240477Y-83742857D01*
X142164286Y-83780952D01*
X141859524Y-83780952D01*
X143040477Y-83361905D02*
X142659524Y-83361905D01*
X142621429Y-83742857D01*
X142659524Y-83704762D01*
X142735715Y-83666667D01*
X142926191Y-83666667D01*
X143002381Y-83704762D01*
X143040477Y-83742857D01*
X143078572Y-83819048D01*
X143078572Y-84009524D01*
X143040477Y-84085714D01*
X143002381Y-84123810D01*
X142926191Y-84161905D01*
X142735715Y-84161905D01*
X142659524Y-84123810D01*
X142621429Y-84085714D01*
X141949524Y-81611905D02*
X141949524Y-80811905D01*
X142254286Y-80811905D01*
X142330477Y-80850000D01*
X142368572Y-80888095D01*
X142406667Y-80964286D01*
X142406667Y-81078571D01*
X142368572Y-81154762D01*
X142330477Y-81192857D01*
X142254286Y-81230952D01*
X141949524Y-81230952D01*
X142711429Y-80888095D02*
X142749524Y-80850000D01*
X142825715Y-80811905D01*
X143016191Y-80811905D01*
X143092381Y-80850000D01*
X143130477Y-80888095D01*
X143168572Y-80964286D01*
X143168572Y-81040476D01*
X143130477Y-81154762D01*
X142673334Y-81611905D01*
X143168572Y-81611905D01*
X144549524Y-112611905D02*
X144549524Y-111811905D01*
X144854286Y-111811905D01*
X144930477Y-111850000D01*
X144968572Y-111888095D01*
X145006667Y-111964286D01*
X145006667Y-112078571D01*
X144968572Y-112154762D01*
X144930477Y-112192857D01*
X144854286Y-112230952D01*
X144549524Y-112230952D01*
X145273334Y-111811905D02*
X145768572Y-111811905D01*
X145501905Y-112116667D01*
X145616191Y-112116667D01*
X145692381Y-112154762D01*
X145730477Y-112192857D01*
X145768572Y-112269048D01*
X145768572Y-112459524D01*
X145730477Y-112535714D01*
X145692381Y-112573810D01*
X145616191Y-112611905D01*
X145387619Y-112611905D01*
X145311429Y-112573810D01*
X145273334Y-112535714D01*
X148235714Y-98785714D02*
X148197619Y-98823810D01*
X148083333Y-98861905D01*
X148007143Y-98861905D01*
X147892857Y-98823810D01*
X147816666Y-98747619D01*
X147778571Y-98671429D01*
X147740476Y-98519048D01*
X147740476Y-98404762D01*
X147778571Y-98252381D01*
X147816666Y-98176190D01*
X147892857Y-98100000D01*
X148007143Y-98061905D01*
X148083333Y-98061905D01*
X148197619Y-98100000D01*
X148235714Y-98138095D01*
X148997619Y-98861905D02*
X148540476Y-98861905D01*
X148769047Y-98861905D02*
X148769047Y-98061905D01*
X148692857Y-98176190D01*
X148616666Y-98252381D01*
X148540476Y-98290476D01*
X149302381Y-98138095D02*
X149340476Y-98100000D01*
X149416667Y-98061905D01*
X149607143Y-98061905D01*
X149683333Y-98100000D01*
X149721429Y-98138095D01*
X149759524Y-98214286D01*
X149759524Y-98290476D01*
X149721429Y-98404762D01*
X149264286Y-98861905D01*
X149759524Y-98861905D01*
X153785714Y-90085714D02*
X153747619Y-90123810D01*
X153633333Y-90161905D01*
X153557143Y-90161905D01*
X153442857Y-90123810D01*
X153366666Y-90047619D01*
X153328571Y-89971429D01*
X153290476Y-89819048D01*
X153290476Y-89704762D01*
X153328571Y-89552381D01*
X153366666Y-89476190D01*
X153442857Y-89400000D01*
X153557143Y-89361905D01*
X153633333Y-89361905D01*
X153747619Y-89400000D01*
X153785714Y-89438095D01*
X154547619Y-90161905D02*
X154090476Y-90161905D01*
X154319047Y-90161905D02*
X154319047Y-89361905D01*
X154242857Y-89476190D01*
X154166666Y-89552381D01*
X154090476Y-89590476D01*
X154814286Y-89361905D02*
X155309524Y-89361905D01*
X155042857Y-89666667D01*
X155157143Y-89666667D01*
X155233333Y-89704762D01*
X155271429Y-89742857D01*
X155309524Y-89819048D01*
X155309524Y-90009524D01*
X155271429Y-90085714D01*
X155233333Y-90123810D01*
X155157143Y-90161905D01*
X154928571Y-90161905D01*
X154852381Y-90123810D01*
X154814286Y-90085714D01*
X151985714Y-99785714D02*
X151947619Y-99823810D01*
X151833333Y-99861905D01*
X151757143Y-99861905D01*
X151642857Y-99823810D01*
X151566666Y-99747619D01*
X151528571Y-99671429D01*
X151490476Y-99519048D01*
X151490476Y-99404762D01*
X151528571Y-99252381D01*
X151566666Y-99176190D01*
X151642857Y-99100000D01*
X151757143Y-99061905D01*
X151833333Y-99061905D01*
X151947619Y-99100000D01*
X151985714Y-99138095D01*
X152747619Y-99861905D02*
X152290476Y-99861905D01*
X152519047Y-99861905D02*
X152519047Y-99061905D01*
X152442857Y-99176190D01*
X152366666Y-99252381D01*
X152290476Y-99290476D01*
X153433333Y-99328571D02*
X153433333Y-99861905D01*
X153242857Y-99023810D02*
X153052381Y-99595238D01*
X153547619Y-99595238D01*
X164116667Y-95785714D02*
X164078572Y-95823810D01*
X163964286Y-95861905D01*
X163888096Y-95861905D01*
X163773810Y-95823810D01*
X163697619Y-95747619D01*
X163659524Y-95671429D01*
X163621429Y-95519048D01*
X163621429Y-95404762D01*
X163659524Y-95252381D01*
X163697619Y-95176190D01*
X163773810Y-95100000D01*
X163888096Y-95061905D01*
X163964286Y-95061905D01*
X164078572Y-95100000D01*
X164116667Y-95138095D01*
X164421429Y-95138095D02*
X164459524Y-95100000D01*
X164535715Y-95061905D01*
X164726191Y-95061905D01*
X164802381Y-95100000D01*
X164840477Y-95138095D01*
X164878572Y-95214286D01*
X164878572Y-95290476D01*
X164840477Y-95404762D01*
X164383334Y-95861905D01*
X164878572Y-95861905D01*
X164116667Y-99490714D02*
X164078572Y-99528810D01*
X163964286Y-99566905D01*
X163888096Y-99566905D01*
X163773810Y-99528810D01*
X163697619Y-99452619D01*
X163659524Y-99376429D01*
X163621429Y-99224048D01*
X163621429Y-99109762D01*
X163659524Y-98957381D01*
X163697619Y-98881190D01*
X163773810Y-98805000D01*
X163888096Y-98766905D01*
X163964286Y-98766905D01*
X164078572Y-98805000D01*
X164116667Y-98843095D01*
X164383334Y-98766905D02*
X164878572Y-98766905D01*
X164611905Y-99071667D01*
X164726191Y-99071667D01*
X164802381Y-99109762D01*
X164840477Y-99147857D01*
X164878572Y-99224048D01*
X164878572Y-99414524D01*
X164840477Y-99490714D01*
X164802381Y-99528810D01*
X164726191Y-99566905D01*
X164497619Y-99566905D01*
X164421429Y-99528810D01*
X164383334Y-99490714D01*
X166616667Y-83361905D02*
X166350000Y-82980952D01*
X166159524Y-83361905D02*
X166159524Y-82561905D01*
X166464286Y-82561905D01*
X166540477Y-82600000D01*
X166578572Y-82638095D01*
X166616667Y-82714286D01*
X166616667Y-82828571D01*
X166578572Y-82904762D01*
X166540477Y-82942857D01*
X166464286Y-82980952D01*
X166159524Y-82980952D01*
X167378572Y-83361905D02*
X166921429Y-83361905D01*
X167150000Y-83361905D02*
X167150000Y-82561905D01*
X167073810Y-82676190D01*
X166997619Y-82752381D01*
X166921429Y-82790476D01*
X166616667Y-84611905D02*
X166350000Y-84230952D01*
X166159524Y-84611905D02*
X166159524Y-83811905D01*
X166464286Y-83811905D01*
X166540477Y-83850000D01*
X166578572Y-83888095D01*
X166616667Y-83964286D01*
X166616667Y-84078571D01*
X166578572Y-84154762D01*
X166540477Y-84192857D01*
X166464286Y-84230952D01*
X166159524Y-84230952D01*
X166921429Y-83888095D02*
X166959524Y-83850000D01*
X167035715Y-83811905D01*
X167226191Y-83811905D01*
X167302381Y-83850000D01*
X167340477Y-83888095D01*
X167378572Y-83964286D01*
X167378572Y-84040476D01*
X167340477Y-84154762D01*
X166883334Y-84611905D01*
X167378572Y-84611905D01*
X170116667Y-96611905D02*
X169850000Y-96230952D01*
X169659524Y-96611905D02*
X169659524Y-95811905D01*
X169964286Y-95811905D01*
X170040477Y-95850000D01*
X170078572Y-95888095D01*
X170116667Y-95964286D01*
X170116667Y-96078571D01*
X170078572Y-96154762D01*
X170040477Y-96192857D01*
X169964286Y-96230952D01*
X169659524Y-96230952D01*
X170383334Y-95811905D02*
X170878572Y-95811905D01*
X170611905Y-96116667D01*
X170726191Y-96116667D01*
X170802381Y-96154762D01*
X170840477Y-96192857D01*
X170878572Y-96269048D01*
X170878572Y-96459524D01*
X170840477Y-96535714D01*
X170802381Y-96573810D01*
X170726191Y-96611905D01*
X170497619Y-96611905D01*
X170421429Y-96573810D01*
X170383334Y-96535714D01*
X168076667Y-92666905D02*
X167810000Y-92285952D01*
X167619524Y-92666905D02*
X167619524Y-91866905D01*
X167924286Y-91866905D01*
X168000477Y-91905000D01*
X168038572Y-91943095D01*
X168076667Y-92019286D01*
X168076667Y-92133571D01*
X168038572Y-92209762D01*
X168000477Y-92247857D01*
X167924286Y-92285952D01*
X167619524Y-92285952D01*
X168762381Y-92133571D02*
X168762381Y-92666905D01*
X168571905Y-91828810D02*
X168381429Y-92400238D01*
X168876667Y-92400238D01*
X167866667Y-108766905D02*
X167600000Y-108385952D01*
X167409524Y-108766905D02*
X167409524Y-107966905D01*
X167714286Y-107966905D01*
X167790477Y-108005000D01*
X167828572Y-108043095D01*
X167866667Y-108119286D01*
X167866667Y-108233571D01*
X167828572Y-108309762D01*
X167790477Y-108347857D01*
X167714286Y-108385952D01*
X167409524Y-108385952D01*
X168590477Y-107966905D02*
X168209524Y-107966905D01*
X168171429Y-108347857D01*
X168209524Y-108309762D01*
X168285715Y-108271667D01*
X168476191Y-108271667D01*
X168552381Y-108309762D01*
X168590477Y-108347857D01*
X168628572Y-108424048D01*
X168628572Y-108614524D01*
X168590477Y-108690714D01*
X168552381Y-108728810D01*
X168476191Y-108766905D01*
X168285715Y-108766905D01*
X168209524Y-108728810D01*
X168171429Y-108690714D01*
X165616667Y-104361905D02*
X165350000Y-103980952D01*
X165159524Y-104361905D02*
X165159524Y-103561905D01*
X165464286Y-103561905D01*
X165540477Y-103600000D01*
X165578572Y-103638095D01*
X165616667Y-103714286D01*
X165616667Y-103828571D01*
X165578572Y-103904762D01*
X165540477Y-103942857D01*
X165464286Y-103980952D01*
X165159524Y-103980952D01*
X166302381Y-103561905D02*
X166150000Y-103561905D01*
X166073810Y-103600000D01*
X166035715Y-103638095D01*
X165959524Y-103752381D01*
X165921429Y-103904762D01*
X165921429Y-104209524D01*
X165959524Y-104285714D01*
X165997619Y-104323810D01*
X166073810Y-104361905D01*
X166226191Y-104361905D01*
X166302381Y-104323810D01*
X166340477Y-104285714D01*
X166378572Y-104209524D01*
X166378572Y-104019048D01*
X166340477Y-103942857D01*
X166302381Y-103904762D01*
X166226191Y-103866667D01*
X166073810Y-103866667D01*
X165997619Y-103904762D01*
X165959524Y-103942857D01*
X165921429Y-104019048D01*
X162935714Y-111166905D02*
X162669047Y-110785952D01*
X162478571Y-111166905D02*
X162478571Y-110366905D01*
X162783333Y-110366905D01*
X162859524Y-110405000D01*
X162897619Y-110443095D01*
X162935714Y-110519286D01*
X162935714Y-110633571D01*
X162897619Y-110709762D01*
X162859524Y-110747857D01*
X162783333Y-110785952D01*
X162478571Y-110785952D01*
X163621428Y-110633571D02*
X163621428Y-111166905D01*
X163430952Y-110328810D02*
X163240476Y-110900238D01*
X163735714Y-110900238D01*
X164192857Y-110366905D02*
X164269048Y-110366905D01*
X164345238Y-110405000D01*
X164383333Y-110443095D01*
X164421429Y-110519286D01*
X164459524Y-110671667D01*
X164459524Y-110862143D01*
X164421429Y-111014524D01*
X164383333Y-111090714D01*
X164345238Y-111128810D01*
X164269048Y-111166905D01*
X164192857Y-111166905D01*
X164116667Y-111128810D01*
X164078571Y-111090714D01*
X164040476Y-111014524D01*
X164002381Y-110862143D01*
X164002381Y-110671667D01*
X164040476Y-110519286D01*
X164078571Y-110443095D01*
X164116667Y-110405000D01*
X164192857Y-110366905D01*
X158235714Y-104961905D02*
X157969047Y-104580952D01*
X157778571Y-104961905D02*
X157778571Y-104161905D01*
X158083333Y-104161905D01*
X158159524Y-104200000D01*
X158197619Y-104238095D01*
X158235714Y-104314286D01*
X158235714Y-104428571D01*
X158197619Y-104504762D01*
X158159524Y-104542857D01*
X158083333Y-104580952D01*
X157778571Y-104580952D01*
X158997619Y-104961905D02*
X158540476Y-104961905D01*
X158769047Y-104961905D02*
X158769047Y-104161905D01*
X158692857Y-104276190D01*
X158616666Y-104352381D01*
X158540476Y-104390476D01*
X159492857Y-104161905D02*
X159569048Y-104161905D01*
X159645238Y-104200000D01*
X159683333Y-104238095D01*
X159721429Y-104314286D01*
X159759524Y-104466667D01*
X159759524Y-104657143D01*
X159721429Y-104809524D01*
X159683333Y-104885714D01*
X159645238Y-104923810D01*
X159569048Y-104961905D01*
X159492857Y-104961905D01*
X159416667Y-104923810D01*
X159378571Y-104885714D01*
X159340476Y-104809524D01*
X159302381Y-104657143D01*
X159302381Y-104466667D01*
X159340476Y-104314286D01*
X159378571Y-104238095D01*
X159416667Y-104200000D01*
X159492857Y-104161905D01*
X158966667Y-103185714D02*
X158928572Y-103223810D01*
X158814286Y-103261905D01*
X158738096Y-103261905D01*
X158623810Y-103223810D01*
X158547619Y-103147619D01*
X158509524Y-103071429D01*
X158471429Y-102919048D01*
X158471429Y-102804762D01*
X158509524Y-102652381D01*
X158547619Y-102576190D01*
X158623810Y-102500000D01*
X158738096Y-102461905D01*
X158814286Y-102461905D01*
X158928572Y-102500000D01*
X158966667Y-102538095D01*
X159423810Y-102804762D02*
X159347619Y-102766667D01*
X159309524Y-102728571D01*
X159271429Y-102652381D01*
X159271429Y-102614286D01*
X159309524Y-102538095D01*
X159347619Y-102500000D01*
X159423810Y-102461905D01*
X159576191Y-102461905D01*
X159652381Y-102500000D01*
X159690477Y-102538095D01*
X159728572Y-102614286D01*
X159728572Y-102652381D01*
X159690477Y-102728571D01*
X159652381Y-102766667D01*
X159576191Y-102804762D01*
X159423810Y-102804762D01*
X159347619Y-102842857D01*
X159309524Y-102880952D01*
X159271429Y-102957143D01*
X159271429Y-103109524D01*
X159309524Y-103185714D01*
X159347619Y-103223810D01*
X159423810Y-103261905D01*
X159576191Y-103261905D01*
X159652381Y-103223810D01*
X159690477Y-103185714D01*
X159728572Y-103109524D01*
X159728572Y-102957143D01*
X159690477Y-102880952D01*
X159652381Y-102842857D01*
X159576191Y-102804762D01*
X154235714Y-106361905D02*
X153969047Y-105980952D01*
X153778571Y-106361905D02*
X153778571Y-105561905D01*
X154083333Y-105561905D01*
X154159524Y-105600000D01*
X154197619Y-105638095D01*
X154235714Y-105714286D01*
X154235714Y-105828571D01*
X154197619Y-105904762D01*
X154159524Y-105942857D01*
X154083333Y-105980952D01*
X153778571Y-105980952D01*
X154502381Y-105561905D02*
X154997619Y-105561905D01*
X154730952Y-105866667D01*
X154845238Y-105866667D01*
X154921428Y-105904762D01*
X154959524Y-105942857D01*
X154997619Y-106019048D01*
X154997619Y-106209524D01*
X154959524Y-106285714D01*
X154921428Y-106323810D01*
X154845238Y-106361905D01*
X154616666Y-106361905D01*
X154540476Y-106323810D01*
X154502381Y-106285714D01*
X155683333Y-105561905D02*
X155530952Y-105561905D01*
X155454762Y-105600000D01*
X155416667Y-105638095D01*
X155340476Y-105752381D01*
X155302381Y-105904762D01*
X155302381Y-106209524D01*
X155340476Y-106285714D01*
X155378571Y-106323810D01*
X155454762Y-106361905D01*
X155607143Y-106361905D01*
X155683333Y-106323810D01*
X155721429Y-106285714D01*
X155759524Y-106209524D01*
X155759524Y-106019048D01*
X155721429Y-105942857D01*
X155683333Y-105904762D01*
X155607143Y-105866667D01*
X155454762Y-105866667D01*
X155378571Y-105904762D01*
X155340476Y-105942857D01*
X155302381Y-106019048D01*
X163835714Y-109566905D02*
X163569047Y-109185952D01*
X163378571Y-109566905D02*
X163378571Y-108766905D01*
X163683333Y-108766905D01*
X163759524Y-108805000D01*
X163797619Y-108843095D01*
X163835714Y-108919286D01*
X163835714Y-109033571D01*
X163797619Y-109109762D01*
X163759524Y-109147857D01*
X163683333Y-109185952D01*
X163378571Y-109185952D01*
X164102381Y-108766905D02*
X164597619Y-108766905D01*
X164330952Y-109071667D01*
X164445238Y-109071667D01*
X164521428Y-109109762D01*
X164559524Y-109147857D01*
X164597619Y-109224048D01*
X164597619Y-109414524D01*
X164559524Y-109490714D01*
X164521428Y-109528810D01*
X164445238Y-109566905D01*
X164216666Y-109566905D01*
X164140476Y-109528810D01*
X164102381Y-109490714D01*
X165054762Y-109109762D02*
X164978571Y-109071667D01*
X164940476Y-109033571D01*
X164902381Y-108957381D01*
X164902381Y-108919286D01*
X164940476Y-108843095D01*
X164978571Y-108805000D01*
X165054762Y-108766905D01*
X165207143Y-108766905D01*
X165283333Y-108805000D01*
X165321429Y-108843095D01*
X165359524Y-108919286D01*
X165359524Y-108957381D01*
X165321429Y-109033571D01*
X165283333Y-109071667D01*
X165207143Y-109109762D01*
X165054762Y-109109762D01*
X164978571Y-109147857D01*
X164940476Y-109185952D01*
X164902381Y-109262143D01*
X164902381Y-109414524D01*
X164940476Y-109490714D01*
X164978571Y-109528810D01*
X165054762Y-109566905D01*
X165207143Y-109566905D01*
X165283333Y-109528810D01*
X165321429Y-109490714D01*
X165359524Y-109414524D01*
X165359524Y-109262143D01*
X165321429Y-109185952D01*
X165283333Y-109147857D01*
X165207143Y-109109762D01*
X143335714Y-94690714D02*
X143297619Y-94728810D01*
X143183333Y-94766905D01*
X143107143Y-94766905D01*
X142992857Y-94728810D01*
X142916666Y-94652619D01*
X142878571Y-94576429D01*
X142840476Y-94424048D01*
X142840476Y-94309762D01*
X142878571Y-94157381D01*
X142916666Y-94081190D01*
X142992857Y-94005000D01*
X143107143Y-93966905D01*
X143183333Y-93966905D01*
X143297619Y-94005000D01*
X143335714Y-94043095D01*
X144097619Y-94766905D02*
X143640476Y-94766905D01*
X143869047Y-94766905D02*
X143869047Y-93966905D01*
X143792857Y-94081190D01*
X143716666Y-94157381D01*
X143640476Y-94195476D01*
X144821429Y-93966905D02*
X144440476Y-93966905D01*
X144402381Y-94347857D01*
X144440476Y-94309762D01*
X144516667Y-94271667D01*
X144707143Y-94271667D01*
X144783333Y-94309762D01*
X144821429Y-94347857D01*
X144859524Y-94424048D01*
X144859524Y-94614524D01*
X144821429Y-94690714D01*
X144783333Y-94728810D01*
X144707143Y-94766905D01*
X144516667Y-94766905D01*
X144440476Y-94728810D01*
X144402381Y-94690714D01*
X143335714Y-97490714D02*
X143297619Y-97528810D01*
X143183333Y-97566905D01*
X143107143Y-97566905D01*
X142992857Y-97528810D01*
X142916666Y-97452619D01*
X142878571Y-97376429D01*
X142840476Y-97224048D01*
X142840476Y-97109762D01*
X142878571Y-96957381D01*
X142916666Y-96881190D01*
X142992857Y-96805000D01*
X143107143Y-96766905D01*
X143183333Y-96766905D01*
X143297619Y-96805000D01*
X143335714Y-96843095D01*
X143640476Y-96843095D02*
X143678571Y-96805000D01*
X143754762Y-96766905D01*
X143945238Y-96766905D01*
X144021428Y-96805000D01*
X144059524Y-96843095D01*
X144097619Y-96919286D01*
X144097619Y-96995476D01*
X144059524Y-97109762D01*
X143602381Y-97566905D01*
X144097619Y-97566905D01*
X144859524Y-97566905D02*
X144402381Y-97566905D01*
X144630952Y-97566905D02*
X144630952Y-96766905D01*
X144554762Y-96881190D01*
X144478571Y-96957381D01*
X144402381Y-96995476D01*
X151735714Y-95911905D02*
X151469047Y-95530952D01*
X151278571Y-95911905D02*
X151278571Y-95111905D01*
X151583333Y-95111905D01*
X151659524Y-95150000D01*
X151697619Y-95188095D01*
X151735714Y-95264286D01*
X151735714Y-95378571D01*
X151697619Y-95454762D01*
X151659524Y-95492857D01*
X151583333Y-95530952D01*
X151278571Y-95530952D01*
X152002381Y-95111905D02*
X152497619Y-95111905D01*
X152230952Y-95416667D01*
X152345238Y-95416667D01*
X152421428Y-95454762D01*
X152459524Y-95492857D01*
X152497619Y-95569048D01*
X152497619Y-95759524D01*
X152459524Y-95835714D01*
X152421428Y-95873810D01*
X152345238Y-95911905D01*
X152116666Y-95911905D01*
X152040476Y-95873810D01*
X152002381Y-95835714D01*
X152764286Y-95111905D02*
X153297619Y-95111905D01*
X152954762Y-95911905D01*
X159159524Y-93366905D02*
X159159524Y-92566905D01*
X159350000Y-92566905D01*
X159464286Y-92605000D01*
X159540477Y-92681190D01*
X159578572Y-92757381D01*
X159616667Y-92909762D01*
X159616667Y-93024048D01*
X159578572Y-93176429D01*
X159540477Y-93252619D01*
X159464286Y-93328810D01*
X159350000Y-93366905D01*
X159159524Y-93366905D01*
X160378572Y-93366905D02*
X159921429Y-93366905D01*
X160150000Y-93366905D02*
X160150000Y-92566905D01*
X160073810Y-92681190D01*
X159997619Y-92757381D01*
X159921429Y-92795476D01*
M02*
