%TF.GenerationSoftware,KiCad,Pcbnew,4.0.6-e0-6349~53~ubuntu16.04.1*%
%TF.CreationDate,2017-03-23T00:14:44+02:00*%
%TF.ProjectId,BLDC_controller,424C44435F636F6E74726F6C6C65722E,1.0*%
%TF.FileFunction,Soldermask,Bot*%
%FSLAX46Y46*%
G04 Gerber Fmt 4.6, Leading zero omitted, Abs format (unit mm)*
G04 Created by KiCad (PCBNEW 4.0.6-e0-6349~53~ubuntu16.04.1) date Thu Mar 23 00:14:44 2017*
%MOMM*%
%LPD*%
G01*
G04 APERTURE LIST*
%ADD10C,0.100000*%
%ADD11C,1.500000*%
%ADD12C,0.850000*%
%ADD13C,0.800000*%
G04 APERTURE END LIST*
D10*
D11*
X29350000Y31300000D02*
X27850000Y31300000D01*
X27850000Y28000000D02*
X29350000Y31300000D01*
D12*
X35760000Y22300000D02*
X34370000Y22300000D01*
X35910000Y23560000D02*
X34260000Y23560000D01*
X35440000Y24840000D02*
X34260000Y24840000D01*
D11*
X33800000Y22100000D02*
X33830000Y24520000D01*
X31900000Y22000000D02*
X33800000Y22100000D01*
D13*
X34500000Y17100000D02*
X34500000Y15100000D01*
X33900000Y15500000D02*
X35500000Y14600000D01*
X35700000Y15900000D02*
X34100000Y15900000D01*
X35700000Y17100000D02*
X34000000Y17100000D01*
D11*
X33500000Y19100000D02*
X33500000Y15840000D01*
X32000000Y19300000D02*
X33500000Y19300000D01*
D13*
X35430000Y6960000D02*
X34610000Y7060000D01*
X35420000Y9550000D02*
X34250000Y9300000D01*
D11*
X34700000Y9000000D02*
X34700000Y7400000D01*
X33900000Y9000000D02*
X32400000Y9000000D01*
X27800000Y800000D02*
X27800000Y31300000D01*
D10*
G36*
X43050000Y150000D02*
X38150000Y150000D01*
X38150000Y2550000D01*
X43050000Y2550000D01*
X43050000Y150000D01*
X43050000Y150000D01*
G37*
G36*
X10246653Y2824453D02*
X10405143Y2791919D01*
X10554290Y2729224D01*
X10688422Y2638751D01*
X10802425Y2523949D01*
X10891957Y2389191D01*
X10953612Y2239606D01*
X10984970Y2081239D01*
X10984970Y2081229D01*
X10985036Y2080895D01*
X10982455Y1896100D01*
X10982379Y1895766D01*
X10982379Y1895757D01*
X10946614Y1738330D01*
X10880804Y1590521D01*
X10787544Y1458316D01*
X10670383Y1346746D01*
X10533776Y1260052D01*
X10382931Y1201543D01*
X10223600Y1173449D01*
X10061845Y1176837D01*
X9903825Y1211580D01*
X9755566Y1276353D01*
X9622713Y1368688D01*
X9510321Y1485073D01*
X9422679Y1621068D01*
X9363119Y1771499D01*
X9333912Y1930631D01*
X9336172Y2092409D01*
X9369809Y2250661D01*
X9433547Y2399373D01*
X9524952Y2532867D01*
X9640549Y2646067D01*
X9775928Y2734657D01*
X9925943Y2795266D01*
X10084864Y2825583D01*
X10246653Y2824453D01*
X10246653Y2824453D01*
G37*
G36*
X12786653Y2824453D02*
X12945143Y2791919D01*
X13094290Y2729224D01*
X13228422Y2638751D01*
X13342425Y2523949D01*
X13431957Y2389191D01*
X13493612Y2239606D01*
X13524970Y2081239D01*
X13524970Y2081229D01*
X13525036Y2080895D01*
X13522455Y1896100D01*
X13522379Y1895766D01*
X13522379Y1895757D01*
X13486614Y1738330D01*
X13420804Y1590521D01*
X13327544Y1458316D01*
X13210383Y1346746D01*
X13073776Y1260052D01*
X12922931Y1201543D01*
X12763600Y1173449D01*
X12601845Y1176837D01*
X12443825Y1211580D01*
X12295566Y1276353D01*
X12162713Y1368688D01*
X12050321Y1485073D01*
X11962679Y1621068D01*
X11903119Y1771499D01*
X11873912Y1930631D01*
X11876172Y2092409D01*
X11909809Y2250661D01*
X11973547Y2399373D01*
X12064952Y2532867D01*
X12180549Y2646067D01*
X12315928Y2734657D01*
X12465943Y2795266D01*
X12624864Y2825583D01*
X12786653Y2824453D01*
X12786653Y2824453D01*
G37*
G36*
X17866653Y2824453D02*
X18025143Y2791919D01*
X18174290Y2729224D01*
X18308422Y2638751D01*
X18422425Y2523949D01*
X18511957Y2389191D01*
X18573612Y2239606D01*
X18604970Y2081239D01*
X18604970Y2081229D01*
X18605036Y2080895D01*
X18602455Y1896100D01*
X18602379Y1895766D01*
X18602379Y1895757D01*
X18566614Y1738330D01*
X18500804Y1590521D01*
X18407544Y1458316D01*
X18290383Y1346746D01*
X18153776Y1260052D01*
X18002931Y1201543D01*
X17843600Y1173449D01*
X17681845Y1176837D01*
X17523825Y1211580D01*
X17375566Y1276353D01*
X17242713Y1368688D01*
X17130321Y1485073D01*
X17042679Y1621068D01*
X16983119Y1771499D01*
X16953912Y1930631D01*
X16956172Y2092409D01*
X16989809Y2250661D01*
X17053547Y2399373D01*
X17144952Y2532867D01*
X17260549Y2646067D01*
X17395928Y2734657D01*
X17545943Y2795266D01*
X17704864Y2825583D01*
X17866653Y2824453D01*
X17866653Y2824453D01*
G37*
G36*
X15326653Y2824453D02*
X15485143Y2791919D01*
X15634290Y2729224D01*
X15768422Y2638751D01*
X15882425Y2523949D01*
X15971957Y2389191D01*
X16033612Y2239606D01*
X16064970Y2081239D01*
X16064970Y2081229D01*
X16065036Y2080895D01*
X16062455Y1896100D01*
X16062379Y1895766D01*
X16062379Y1895757D01*
X16026614Y1738330D01*
X15960804Y1590521D01*
X15867544Y1458316D01*
X15750383Y1346746D01*
X15613776Y1260052D01*
X15462931Y1201543D01*
X15303600Y1173449D01*
X15141845Y1176837D01*
X14983825Y1211580D01*
X14835566Y1276353D01*
X14702713Y1368688D01*
X14590321Y1485073D01*
X14502679Y1621068D01*
X14443119Y1771499D01*
X14413912Y1930631D01*
X14416172Y2092409D01*
X14449809Y2250661D01*
X14513547Y2399373D01*
X14604952Y2532867D01*
X14720549Y2646067D01*
X14855928Y2734657D01*
X15005943Y2795266D01*
X15164864Y2825583D01*
X15326653Y2824453D01*
X15326653Y2824453D01*
G37*
G36*
X8445000Y1175000D02*
X6795000Y1175000D01*
X6795000Y2825000D01*
X8445000Y2825000D01*
X8445000Y1175000D01*
X8445000Y1175000D01*
G37*
G36*
X2649674Y4424053D02*
X2923426Y4367860D01*
X3181045Y4259567D01*
X3412727Y4103296D01*
X3609641Y3905001D01*
X3764290Y3672236D01*
X3870783Y3413866D01*
X3924996Y3140072D01*
X3924996Y3140057D01*
X3925061Y3139728D01*
X3920604Y2820536D01*
X3920528Y2820202D01*
X3920528Y2820193D01*
X3858694Y2548025D01*
X3745025Y2292722D01*
X3583939Y2064367D01*
X3381567Y1871652D01*
X3145612Y1721909D01*
X2885064Y1620849D01*
X2609854Y1572323D01*
X2330459Y1578175D01*
X2057516Y1638186D01*
X1801435Y1750065D01*
X1571960Y1909554D01*
X1377830Y2110581D01*
X1226448Y2345482D01*
X1123572Y2605316D01*
X1073124Y2880181D01*
X1077026Y3159614D01*
X1135128Y3432960D01*
X1245219Y3689824D01*
X1403101Y3920405D01*
X1602768Y4115933D01*
X1836605Y4268952D01*
X2095718Y4373640D01*
X2370222Y4426004D01*
X2649674Y4424053D01*
X2649674Y4424053D01*
G37*
G36*
X46149674Y4424053D02*
X46423426Y4367860D01*
X46681045Y4259567D01*
X46912727Y4103296D01*
X47109641Y3905001D01*
X47264290Y3672236D01*
X47370783Y3413866D01*
X47424996Y3140072D01*
X47424996Y3140057D01*
X47425061Y3139728D01*
X47420604Y2820536D01*
X47420528Y2820202D01*
X47420528Y2820193D01*
X47358694Y2548025D01*
X47245025Y2292722D01*
X47083939Y2064367D01*
X46881567Y1871652D01*
X46645612Y1721909D01*
X46385064Y1620849D01*
X46109854Y1572323D01*
X45830459Y1578175D01*
X45557516Y1638186D01*
X45301435Y1750065D01*
X45071960Y1909554D01*
X44877830Y2110581D01*
X44726448Y2345482D01*
X44623572Y2605316D01*
X44573124Y2880181D01*
X44577026Y3159614D01*
X44635128Y3432960D01*
X44745219Y3689824D01*
X44903101Y3920405D01*
X45102768Y4115933D01*
X45336605Y4268952D01*
X45595718Y4373640D01*
X45870222Y4426004D01*
X46149674Y4424053D01*
X46149674Y4424053D01*
G37*
G36*
X22960000Y1780000D02*
X22160000Y1780000D01*
X22160000Y2920000D01*
X22960000Y2920000D01*
X22960000Y1780000D01*
X22960000Y1780000D01*
G37*
G36*
X21540000Y1780000D02*
X20740000Y1780000D01*
X20740000Y2920000D01*
X21540000Y2920000D01*
X21540000Y1780000D01*
X21540000Y1780000D01*
G37*
G36*
X32600000Y2375000D02*
X29000000Y2375000D01*
X29000000Y4025000D01*
X32600000Y4025000D01*
X32600000Y2375000D01*
X32600000Y2375000D01*
G37*
G36*
X19820000Y3390000D02*
X18680000Y3390000D01*
X18680000Y4190000D01*
X19820000Y4190000D01*
X19820000Y3390000D01*
X19820000Y3390000D01*
G37*
G36*
X24440000Y3430000D02*
X23640000Y3430000D01*
X23640000Y4570000D01*
X24440000Y4570000D01*
X24440000Y3430000D01*
X24440000Y3430000D01*
G37*
G36*
X25860000Y3430000D02*
X25060000Y3430000D01*
X25060000Y4570000D01*
X25860000Y4570000D01*
X25860000Y3430000D01*
X25860000Y3430000D01*
G37*
G36*
X23175000Y3475000D02*
X22125000Y3475000D01*
X22125000Y4625000D01*
X23175000Y4625000D01*
X23175000Y3475000D01*
X23175000Y3475000D01*
G37*
G36*
X21515000Y3475000D02*
X20465000Y3475000D01*
X20465000Y4625000D01*
X21515000Y4625000D01*
X21515000Y3475000D01*
X21515000Y3475000D01*
G37*
G36*
X18120000Y3590000D02*
X16980000Y3590000D01*
X16980000Y4390000D01*
X18120000Y4390000D01*
X18120000Y3590000D01*
X18120000Y3590000D01*
G37*
G36*
X19820000Y4810000D02*
X18680000Y4810000D01*
X18680000Y5610000D01*
X19820000Y5610000D01*
X19820000Y4810000D01*
X19820000Y4810000D01*
G37*
G36*
X25860000Y4825000D02*
X25060000Y4825000D01*
X25060000Y5965000D01*
X25860000Y5965000D01*
X25860000Y4825000D01*
X25860000Y4825000D01*
G37*
G36*
X24440000Y4825000D02*
X23640000Y4825000D01*
X23640000Y5965000D01*
X24440000Y5965000D01*
X24440000Y4825000D01*
X24440000Y4825000D01*
G37*
G36*
X18120000Y5010000D02*
X16980000Y5010000D01*
X16980000Y5810000D01*
X18120000Y5810000D01*
X18120000Y5010000D01*
X18120000Y5010000D01*
G37*
G36*
X24440000Y6430000D02*
X23640000Y6430000D01*
X23640000Y7570000D01*
X24440000Y7570000D01*
X24440000Y6430000D01*
X24440000Y6430000D01*
G37*
G36*
X25860000Y6430000D02*
X25060000Y6430000D01*
X25060000Y7570000D01*
X25860000Y7570000D01*
X25860000Y6430000D01*
X25860000Y6430000D01*
G37*
G36*
X42245000Y6450000D02*
X40595000Y6450000D01*
X40595000Y6650050D01*
X40593022Y6663966D01*
X40587246Y6676780D01*
X40578129Y6687477D01*
X40566393Y6695211D01*
X40552966Y6699369D01*
X40545050Y6700000D01*
X37545000Y6700000D01*
X37545000Y11050000D01*
X40545050Y11050000D01*
X40558966Y11051978D01*
X40571780Y11057754D01*
X40582477Y11066871D01*
X40590211Y11078607D01*
X40594369Y11092034D01*
X40595000Y11099950D01*
X40595000Y11300000D01*
X42245000Y11300000D01*
X42245000Y6450000D01*
X42245000Y6450000D01*
G37*
G36*
X36575000Y6545000D02*
X35275000Y6545000D01*
X35275000Y7395000D01*
X36575000Y7395000D01*
X36575000Y6545000D01*
X36575000Y6545000D01*
G37*
G36*
X47368164Y9624252D02*
X47584284Y9579889D01*
X47787668Y9494395D01*
X47970571Y9371025D01*
X48126035Y9214472D01*
X48248124Y9030713D01*
X48332197Y8826737D01*
X48374982Y8610656D01*
X48374982Y8610646D01*
X48375048Y8610312D01*
X48371529Y8358318D01*
X48371453Y8357984D01*
X48371453Y8357975D01*
X48322652Y8143176D01*
X48232916Y7941624D01*
X48105741Y7761342D01*
X47945974Y7609199D01*
X47759694Y7490981D01*
X47553997Y7411197D01*
X47336727Y7372887D01*
X47116152Y7377506D01*
X46900672Y7424883D01*
X46698500Y7513210D01*
X46517337Y7639121D01*
X46364076Y7797827D01*
X46244564Y7983275D01*
X46163346Y8188408D01*
X46123519Y8405406D01*
X46126600Y8626011D01*
X46172469Y8841810D01*
X46259383Y9044594D01*
X46384030Y9226639D01*
X46541659Y9381000D01*
X46726266Y9501804D01*
X46930831Y9584453D01*
X47147543Y9625793D01*
X47368164Y9624252D01*
X47368164Y9624252D01*
G37*
G36*
X36575000Y7815000D02*
X35275000Y7815000D01*
X35275000Y8665000D01*
X36575000Y8665000D01*
X36575000Y7815000D01*
X36575000Y7815000D01*
G37*
G36*
X32600000Y8175000D02*
X29000000Y8175000D01*
X29000000Y9825000D01*
X32600000Y9825000D01*
X32600000Y8175000D01*
X32600000Y8175000D01*
G37*
G36*
X19725000Y8525000D02*
X18975000Y8525000D01*
X18975000Y9475000D01*
X19725000Y9475000D01*
X19725000Y8525000D01*
X19725000Y8525000D01*
G37*
G36*
X36575000Y9085000D02*
X35275000Y9085000D01*
X35275000Y9935000D01*
X36575000Y9935000D01*
X36575000Y9085000D01*
X36575000Y9085000D01*
G37*
G36*
X21450000Y9430000D02*
X20650000Y9430000D01*
X20650000Y10570000D01*
X21450000Y10570000D01*
X21450000Y9430000D01*
X21450000Y9430000D01*
G37*
G36*
X22870000Y9430000D02*
X22070000Y9430000D01*
X22070000Y10570000D01*
X22870000Y10570000D01*
X22870000Y9430000D01*
X22870000Y9430000D01*
G37*
G36*
X36575000Y10355000D02*
X35275000Y10355000D01*
X35275000Y11205000D01*
X36575000Y11205000D01*
X36575000Y10355000D01*
X36575000Y10355000D01*
G37*
G36*
X19725000Y10925000D02*
X18975000Y10925000D01*
X18975000Y11875000D01*
X19725000Y11875000D01*
X19725000Y10925000D01*
X19725000Y10925000D01*
G37*
G36*
X22860000Y11130000D02*
X22060000Y11130000D01*
X22060000Y12270000D01*
X22860000Y12270000D01*
X22860000Y11130000D01*
X22860000Y11130000D01*
G37*
G36*
X21440000Y11130000D02*
X20640000Y11130000D01*
X20640000Y12270000D01*
X21440000Y12270000D01*
X21440000Y11130000D01*
X21440000Y11130000D01*
G37*
G36*
X32550000Y12670000D02*
X28950000Y12670000D01*
X28950000Y14320000D01*
X32550000Y14320000D01*
X32550000Y12670000D01*
X32550000Y12670000D01*
G37*
G36*
X24290000Y13930000D02*
X23490000Y13930000D01*
X23490000Y15070000D01*
X24290000Y15070000D01*
X24290000Y13930000D01*
X24290000Y13930000D01*
G37*
G36*
X25710000Y13930000D02*
X24910000Y13930000D01*
X24910000Y15070000D01*
X25710000Y15070000D01*
X25710000Y13930000D01*
X25710000Y13930000D01*
G37*
G36*
X21680000Y14030000D02*
X20880000Y14030000D01*
X20880000Y15170000D01*
X21680000Y15170000D01*
X21680000Y14030000D01*
X21680000Y14030000D01*
G37*
G36*
X23100000Y14030000D02*
X22300000Y14030000D01*
X22300000Y15170000D01*
X23100000Y15170000D01*
X23100000Y14030000D01*
X23100000Y14030000D01*
G37*
G36*
X42245000Y14080000D02*
X40595000Y14080000D01*
X40595000Y14280050D01*
X40593022Y14293966D01*
X40587246Y14306780D01*
X40578129Y14317477D01*
X40566393Y14325211D01*
X40552966Y14329369D01*
X40545050Y14330000D01*
X37545000Y14330000D01*
X37545000Y18680000D01*
X40545050Y18680000D01*
X40558966Y18681978D01*
X40571780Y18687754D01*
X40582477Y18696871D01*
X40590211Y18708607D01*
X40594369Y18722034D01*
X40595000Y18729950D01*
X40595000Y18930000D01*
X42245000Y18930000D01*
X42245000Y14080000D01*
X42245000Y14080000D01*
G37*
G36*
X36575000Y14175000D02*
X35275000Y14175000D01*
X35275000Y15025000D01*
X36575000Y15025000D01*
X36575000Y14175000D01*
X36575000Y14175000D01*
G37*
G36*
X2520000Y14590000D02*
X1380000Y14590000D01*
X1380000Y15390000D01*
X2520000Y15390000D01*
X2520000Y14590000D01*
X2520000Y14590000D01*
G37*
G36*
X47368164Y17124252D02*
X47584284Y17079889D01*
X47787668Y16994395D01*
X47970571Y16871025D01*
X48126035Y16714472D01*
X48248124Y16530713D01*
X48332197Y16326737D01*
X48374982Y16110656D01*
X48374982Y16110646D01*
X48375048Y16110312D01*
X48371529Y15858318D01*
X48371453Y15857984D01*
X48371453Y15857975D01*
X48322652Y15643176D01*
X48232916Y15441624D01*
X48105741Y15261342D01*
X47945974Y15109199D01*
X47759694Y14990981D01*
X47553997Y14911197D01*
X47336727Y14872887D01*
X47116152Y14877506D01*
X46900672Y14924883D01*
X46698500Y15013210D01*
X46517337Y15139121D01*
X46364076Y15297827D01*
X46244564Y15483275D01*
X46163346Y15688408D01*
X46123519Y15905406D01*
X46126600Y16126011D01*
X46172469Y16341810D01*
X46259383Y16544594D01*
X46384030Y16726639D01*
X46541659Y16881000D01*
X46726266Y17001804D01*
X46930831Y17084453D01*
X47147543Y17125793D01*
X47368164Y17124252D01*
X47368164Y17124252D01*
G37*
G36*
X36575000Y15445000D02*
X35275000Y15445000D01*
X35275000Y16295000D01*
X36575000Y16295000D01*
X36575000Y15445000D01*
X36575000Y15445000D01*
G37*
G36*
X24290000Y15525000D02*
X23490000Y15525000D01*
X23490000Y16665000D01*
X24290000Y16665000D01*
X24290000Y15525000D01*
X24290000Y15525000D01*
G37*
G36*
X25710000Y15525000D02*
X24910000Y15525000D01*
X24910000Y16665000D01*
X25710000Y16665000D01*
X25710000Y15525000D01*
X25710000Y15525000D01*
G37*
G36*
X23105000Y15575000D02*
X22055000Y15575000D01*
X22055000Y16725000D01*
X23105000Y16725000D01*
X23105000Y15575000D01*
X23105000Y15575000D01*
G37*
G36*
X21445000Y15575000D02*
X20395000Y15575000D01*
X20395000Y16725000D01*
X21445000Y16725000D01*
X21445000Y15575000D01*
X21445000Y15575000D01*
G37*
G36*
X2520000Y16010000D02*
X1380000Y16010000D01*
X1380000Y16810000D01*
X2520000Y16810000D01*
X2520000Y16010000D01*
X2520000Y16010000D01*
G37*
G36*
X36575000Y16715000D02*
X35275000Y16715000D01*
X35275000Y17565000D01*
X36575000Y17565000D01*
X36575000Y16715000D01*
X36575000Y16715000D01*
G37*
G36*
X15070000Y16990000D02*
X13930000Y16990000D01*
X13930000Y17790000D01*
X15070000Y17790000D01*
X15070000Y16990000D01*
X15070000Y16990000D01*
G37*
G36*
X21820000Y17090000D02*
X20680000Y17090000D01*
X20680000Y17890000D01*
X21820000Y17890000D01*
X21820000Y17090000D01*
X21820000Y17090000D01*
G37*
G36*
X23470000Y17090000D02*
X22330000Y17090000D01*
X22330000Y17890000D01*
X23470000Y17890000D01*
X23470000Y17090000D01*
X23470000Y17090000D01*
G37*
G36*
X2525000Y17495000D02*
X1375000Y17495000D01*
X1375000Y18545000D01*
X2525000Y18545000D01*
X2525000Y17495000D01*
X2525000Y17495000D01*
G37*
G36*
X36575000Y17985000D02*
X35275000Y17985000D01*
X35275000Y18835000D01*
X36575000Y18835000D01*
X36575000Y17985000D01*
X36575000Y17985000D01*
G37*
G36*
X24690000Y18130000D02*
X23890000Y18130000D01*
X23890000Y19270000D01*
X24690000Y19270000D01*
X24690000Y18130000D01*
X24690000Y18130000D01*
G37*
G36*
X26110000Y18130000D02*
X25310000Y18130000D01*
X25310000Y19270000D01*
X26110000Y19270000D01*
X26110000Y18130000D01*
X26110000Y18130000D01*
G37*
G36*
X15070000Y18410000D02*
X13930000Y18410000D01*
X13930000Y19210000D01*
X15070000Y19210000D01*
X15070000Y18410000D01*
X15070000Y18410000D01*
G37*
G36*
X32550000Y18470000D02*
X28950000Y18470000D01*
X28950000Y20120000D01*
X32550000Y20120000D01*
X32550000Y18470000D01*
X32550000Y18470000D01*
G37*
G36*
X23470000Y18510000D02*
X22330000Y18510000D01*
X22330000Y19310000D01*
X23470000Y19310000D01*
X23470000Y18510000D01*
X23470000Y18510000D01*
G37*
G36*
X21820000Y18510000D02*
X20680000Y18510000D01*
X20680000Y19310000D01*
X21820000Y19310000D01*
X21820000Y18510000D01*
X21820000Y18510000D01*
G37*
G36*
X2525000Y19155000D02*
X1375000Y19155000D01*
X1375000Y20205000D01*
X2525000Y20205000D01*
X2525000Y19155000D01*
X2525000Y19155000D01*
G37*
G36*
X15470000Y19590000D02*
X14330000Y19590000D01*
X14330000Y20390000D01*
X15470000Y20390000D01*
X15470000Y19590000D01*
X15470000Y19590000D01*
G37*
G36*
X4790000Y20480000D02*
X3990000Y20480000D01*
X3990000Y21620000D01*
X4790000Y21620000D01*
X4790000Y20480000D01*
X4790000Y20480000D01*
G37*
G36*
X6210000Y20480000D02*
X5410000Y20480000D01*
X5410000Y21620000D01*
X6210000Y21620000D01*
X6210000Y20480000D01*
X6210000Y20480000D01*
G37*
G36*
X11905000Y20525000D02*
X10855000Y20525000D01*
X10855000Y21675000D01*
X11905000Y21675000D01*
X11905000Y20525000D01*
X11905000Y20525000D01*
G37*
G36*
X10245000Y20525000D02*
X9195000Y20525000D01*
X9195000Y21675000D01*
X10245000Y21675000D01*
X10245000Y20525000D01*
X10245000Y20525000D01*
G37*
G36*
X15470000Y21010000D02*
X14330000Y21010000D01*
X14330000Y21810000D01*
X15470000Y21810000D01*
X15470000Y21010000D01*
X15470000Y21010000D01*
G37*
G36*
X21915000Y21055000D02*
X21115000Y21055000D01*
X21115000Y22195000D01*
X21915000Y22195000D01*
X21915000Y21055000D01*
X21915000Y21055000D01*
G37*
G36*
X23335000Y21055000D02*
X22535000Y21055000D01*
X22535000Y22195000D01*
X23335000Y22195000D01*
X23335000Y21055000D01*
X23335000Y21055000D01*
G37*
G36*
X32600000Y21175000D02*
X29000000Y21175000D01*
X29000000Y22825000D01*
X32600000Y22825000D01*
X32600000Y21175000D01*
X32600000Y21175000D01*
G37*
G36*
X3670000Y21590000D02*
X2530000Y21590000D01*
X2530000Y22390000D01*
X3670000Y22390000D01*
X3670000Y21590000D01*
X3670000Y21590000D01*
G37*
G36*
X42245000Y21700000D02*
X40595000Y21700000D01*
X40595000Y21900050D01*
X40593022Y21913966D01*
X40587246Y21926780D01*
X40578129Y21937477D01*
X40566393Y21945211D01*
X40552966Y21949369D01*
X40545050Y21950000D01*
X37545000Y21950000D01*
X37545000Y26300000D01*
X40545050Y26300000D01*
X40558966Y26301978D01*
X40571780Y26307754D01*
X40582477Y26316871D01*
X40590211Y26328607D01*
X40594369Y26342034D01*
X40595000Y26349950D01*
X40595000Y26550000D01*
X42245000Y26550000D01*
X42245000Y21700000D01*
X42245000Y21700000D01*
G37*
G36*
X36575000Y21795000D02*
X35275000Y21795000D01*
X35275000Y22645000D01*
X36575000Y22645000D01*
X36575000Y21795000D01*
X36575000Y21795000D01*
G37*
G36*
X20325000Y21825000D02*
X19575000Y21825000D01*
X19575000Y22775000D01*
X20325000Y22775000D01*
X20325000Y21825000D01*
X20325000Y21825000D01*
G37*
G36*
X47368164Y24124252D02*
X47584284Y24079889D01*
X47787668Y23994395D01*
X47970571Y23871025D01*
X48126035Y23714472D01*
X48248124Y23530713D01*
X48332197Y23326737D01*
X48374982Y23110656D01*
X48374982Y23110646D01*
X48375048Y23110312D01*
X48371529Y22858318D01*
X48371453Y22857984D01*
X48371453Y22857975D01*
X48322652Y22643176D01*
X48232916Y22441624D01*
X48105741Y22261342D01*
X47945974Y22109199D01*
X47759694Y21990981D01*
X47553997Y21911197D01*
X47336727Y21872887D01*
X47116152Y21877506D01*
X46900672Y21924883D01*
X46698500Y22013210D01*
X46517337Y22139121D01*
X46364076Y22297827D01*
X46244564Y22483275D01*
X46163346Y22688408D01*
X46123519Y22905406D01*
X46126600Y23126011D01*
X46172469Y23341810D01*
X46259383Y23544594D01*
X46384030Y23726639D01*
X46541659Y23881000D01*
X46726266Y24001804D01*
X46930831Y24084453D01*
X47147543Y24125793D01*
X47368164Y24124252D01*
X47368164Y24124252D01*
G37*
G36*
X8260000Y22130000D02*
X7460000Y22130000D01*
X7460000Y23270000D01*
X8260000Y23270000D01*
X8260000Y22130000D01*
X8260000Y22130000D01*
G37*
G36*
X6840000Y22130000D02*
X6040000Y22130000D01*
X6040000Y23270000D01*
X6840000Y23270000D01*
X6840000Y22130000D01*
X6840000Y22130000D01*
G37*
G36*
X10170000Y22540000D02*
X9030000Y22540000D01*
X9030000Y23340000D01*
X10170000Y23340000D01*
X10170000Y22540000D01*
X10170000Y22540000D01*
G37*
G36*
X23360000Y22730000D02*
X22560000Y22730000D01*
X22560000Y23870000D01*
X23360000Y23870000D01*
X23360000Y22730000D01*
X23360000Y22730000D01*
G37*
G36*
X21940000Y22730000D02*
X21140000Y22730000D01*
X21140000Y23870000D01*
X21940000Y23870000D01*
X21940000Y22730000D01*
X21940000Y22730000D01*
G37*
G36*
X15870000Y22790000D02*
X14730000Y22790000D01*
X14730000Y23590000D01*
X15870000Y23590000D01*
X15870000Y22790000D01*
X15870000Y22790000D01*
G37*
G36*
X12540000Y22830000D02*
X11740000Y22830000D01*
X11740000Y23970000D01*
X12540000Y23970000D01*
X12540000Y22830000D01*
X12540000Y22830000D01*
G37*
G36*
X13960000Y22830000D02*
X13160000Y22830000D01*
X13160000Y23970000D01*
X13960000Y23970000D01*
X13960000Y22830000D01*
X13960000Y22830000D01*
G37*
G36*
X3670000Y23010000D02*
X2530000Y23010000D01*
X2530000Y23810000D01*
X3670000Y23810000D01*
X3670000Y23010000D01*
X3670000Y23010000D01*
G37*
G36*
X36575000Y23065000D02*
X35275000Y23065000D01*
X35275000Y23915000D01*
X36575000Y23915000D01*
X36575000Y23065000D01*
X36575000Y23065000D01*
G37*
G36*
X24540000Y23530000D02*
X23740000Y23530000D01*
X23740000Y24670000D01*
X24540000Y24670000D01*
X24540000Y23530000D01*
X24540000Y23530000D01*
G37*
G36*
X25960000Y23530000D02*
X25160000Y23530000D01*
X25160000Y24670000D01*
X25960000Y24670000D01*
X25960000Y23530000D01*
X25960000Y23530000D01*
G37*
G36*
X6845000Y23725000D02*
X5795000Y23725000D01*
X5795000Y24875000D01*
X6845000Y24875000D01*
X6845000Y23725000D01*
X6845000Y23725000D01*
G37*
G36*
X8505000Y23725000D02*
X7455000Y23725000D01*
X7455000Y24875000D01*
X8505000Y24875000D01*
X8505000Y23725000D01*
X8505000Y23725000D01*
G37*
G36*
X10170000Y23960000D02*
X9030000Y23960000D01*
X9030000Y24760000D01*
X10170000Y24760000D01*
X10170000Y23960000D01*
X10170000Y23960000D01*
G37*
G36*
X15870000Y24210000D02*
X14730000Y24210000D01*
X14730000Y25010000D01*
X15870000Y25010000D01*
X15870000Y24210000D01*
X15870000Y24210000D01*
G37*
G36*
X20325000Y24225000D02*
X19575000Y24225000D01*
X19575000Y25175000D01*
X20325000Y25175000D01*
X20325000Y24225000D01*
X20325000Y24225000D01*
G37*
G36*
X23360000Y24330000D02*
X22560000Y24330000D01*
X22560000Y25470000D01*
X23360000Y25470000D01*
X23360000Y24330000D01*
X23360000Y24330000D01*
G37*
G36*
X21940000Y24330000D02*
X21140000Y24330000D01*
X21140000Y25470000D01*
X21940000Y25470000D01*
X21940000Y24330000D01*
X21940000Y24330000D01*
G37*
G36*
X36575000Y24335000D02*
X35275000Y24335000D01*
X35275000Y25185000D01*
X36575000Y25185000D01*
X36575000Y24335000D01*
X36575000Y24335000D01*
G37*
G36*
X12345000Y24425000D02*
X11295000Y24425000D01*
X11295000Y25575000D01*
X12345000Y25575000D01*
X12345000Y24425000D01*
X12345000Y24425000D01*
G37*
G36*
X14005000Y24425000D02*
X12955000Y24425000D01*
X12955000Y25575000D01*
X14005000Y25575000D01*
X14005000Y24425000D01*
X14005000Y24425000D01*
G37*
G36*
X36575000Y25605000D02*
X35275000Y25605000D01*
X35275000Y26455000D01*
X36575000Y26455000D01*
X36575000Y25605000D01*
X36575000Y25605000D01*
G37*
G36*
X20420000Y25790000D02*
X19280000Y25790000D01*
X19280000Y26590000D01*
X20420000Y26590000D01*
X20420000Y25790000D01*
X20420000Y25790000D01*
G37*
G36*
X24005000Y26025000D02*
X22955000Y26025000D01*
X22955000Y27175000D01*
X24005000Y27175000D01*
X24005000Y26025000D01*
X24005000Y26025000D01*
G37*
G36*
X22345000Y26025000D02*
X21295000Y26025000D01*
X21295000Y27175000D01*
X22345000Y27175000D01*
X22345000Y26025000D01*
X22345000Y26025000D01*
G37*
G36*
X26660000Y26030000D02*
X25860000Y26030000D01*
X25860000Y27170000D01*
X26660000Y27170000D01*
X26660000Y26030000D01*
X26660000Y26030000D01*
G37*
G36*
X25240000Y26030000D02*
X24440000Y26030000D01*
X24440000Y27170000D01*
X25240000Y27170000D01*
X25240000Y26030000D01*
X25240000Y26030000D01*
G37*
G36*
X10246653Y28224453D02*
X10405143Y28191919D01*
X10554290Y28129224D01*
X10688422Y28038751D01*
X10802425Y27923949D01*
X10891957Y27789191D01*
X10953612Y27639606D01*
X10984970Y27481239D01*
X10984970Y27481229D01*
X10985036Y27480895D01*
X10982455Y27296100D01*
X10982379Y27295766D01*
X10982379Y27295757D01*
X10946614Y27138330D01*
X10880804Y26990521D01*
X10787544Y26858316D01*
X10670383Y26746746D01*
X10533776Y26660052D01*
X10382931Y26601543D01*
X10223600Y26573449D01*
X10061845Y26576837D01*
X9903825Y26611580D01*
X9755566Y26676353D01*
X9622713Y26768688D01*
X9510321Y26885073D01*
X9422679Y27021068D01*
X9363119Y27171499D01*
X9333912Y27330631D01*
X9336172Y27492409D01*
X9369809Y27650661D01*
X9433547Y27799373D01*
X9524952Y27932867D01*
X9640549Y28046067D01*
X9775928Y28134657D01*
X9925943Y28195266D01*
X10084864Y28225583D01*
X10246653Y28224453D01*
X10246653Y28224453D01*
G37*
G36*
X12786653Y28224453D02*
X12945143Y28191919D01*
X13094290Y28129224D01*
X13228422Y28038751D01*
X13342425Y27923949D01*
X13431957Y27789191D01*
X13493612Y27639606D01*
X13524970Y27481239D01*
X13524970Y27481229D01*
X13525036Y27480895D01*
X13522455Y27296100D01*
X13522379Y27295766D01*
X13522379Y27295757D01*
X13486614Y27138330D01*
X13420804Y26990521D01*
X13327544Y26858316D01*
X13210383Y26746746D01*
X13073776Y26660052D01*
X12922931Y26601543D01*
X12763600Y26573449D01*
X12601845Y26576837D01*
X12443825Y26611580D01*
X12295566Y26676353D01*
X12162713Y26768688D01*
X12050321Y26885073D01*
X11962679Y27021068D01*
X11903119Y27171499D01*
X11873912Y27330631D01*
X11876172Y27492409D01*
X11909809Y27650661D01*
X11973547Y27799373D01*
X12064952Y27932867D01*
X12180549Y28046067D01*
X12315928Y28134657D01*
X12465943Y28195266D01*
X12624864Y28225583D01*
X12786653Y28224453D01*
X12786653Y28224453D01*
G37*
G36*
X15326653Y28224453D02*
X15485143Y28191919D01*
X15634290Y28129224D01*
X15768422Y28038751D01*
X15882425Y27923949D01*
X15971957Y27789191D01*
X16033612Y27639606D01*
X16064970Y27481239D01*
X16064970Y27481229D01*
X16065036Y27480895D01*
X16062455Y27296100D01*
X16062379Y27295766D01*
X16062379Y27295757D01*
X16026614Y27138330D01*
X15960804Y26990521D01*
X15867544Y26858316D01*
X15750383Y26746746D01*
X15613776Y26660052D01*
X15462931Y26601543D01*
X15303600Y26573449D01*
X15141845Y26576837D01*
X14983825Y26611580D01*
X14835566Y26676353D01*
X14702713Y26768688D01*
X14590321Y26885073D01*
X14502679Y27021068D01*
X14443119Y27171499D01*
X14413912Y27330631D01*
X14416172Y27492409D01*
X14449809Y27650661D01*
X14513547Y27799373D01*
X14604952Y27932867D01*
X14720549Y28046067D01*
X14855928Y28134657D01*
X15005943Y28195266D01*
X15164864Y28225583D01*
X15326653Y28224453D01*
X15326653Y28224453D01*
G37*
G36*
X17866653Y28224453D02*
X18025143Y28191919D01*
X18174290Y28129224D01*
X18308422Y28038751D01*
X18422425Y27923949D01*
X18511957Y27789191D01*
X18573612Y27639606D01*
X18604970Y27481239D01*
X18604970Y27481229D01*
X18605036Y27480895D01*
X18602455Y27296100D01*
X18602379Y27295766D01*
X18602379Y27295757D01*
X18566614Y27138330D01*
X18500804Y26990521D01*
X18407544Y26858316D01*
X18290383Y26746746D01*
X18153776Y26660052D01*
X18002931Y26601543D01*
X17843600Y26573449D01*
X17681845Y26576837D01*
X17523825Y26611580D01*
X17375566Y26676353D01*
X17242713Y26768688D01*
X17130321Y26885073D01*
X17042679Y27021068D01*
X16983119Y27171499D01*
X16953912Y27330631D01*
X16956172Y27492409D01*
X16989809Y27650661D01*
X17053547Y27799373D01*
X17144952Y27932867D01*
X17260549Y28046067D01*
X17395928Y28134657D01*
X17545943Y28195266D01*
X17704864Y28225583D01*
X17866653Y28224453D01*
X17866653Y28224453D01*
G37*
G36*
X8445000Y26575000D02*
X6795000Y26575000D01*
X6795000Y28225000D01*
X8445000Y28225000D01*
X8445000Y26575000D01*
X8445000Y26575000D01*
G37*
G36*
X32600000Y26975000D02*
X29000000Y26975000D01*
X29000000Y28625000D01*
X32600000Y28625000D01*
X32600000Y26975000D01*
X32600000Y26975000D01*
G37*
G36*
X20420000Y27210000D02*
X19280000Y27210000D01*
X19280000Y28010000D01*
X20420000Y28010000D01*
X20420000Y27210000D01*
X20420000Y27210000D01*
G37*
G36*
X3149674Y30424053D02*
X3423426Y30367860D01*
X3681045Y30259567D01*
X3912727Y30103296D01*
X4109641Y29905001D01*
X4264290Y29672236D01*
X4370783Y29413866D01*
X4424996Y29140072D01*
X4424996Y29140057D01*
X4425061Y29139728D01*
X4420604Y28820536D01*
X4420528Y28820202D01*
X4420528Y28820193D01*
X4358694Y28548025D01*
X4245025Y28292722D01*
X4083939Y28064367D01*
X3881567Y27871652D01*
X3645612Y27721909D01*
X3385064Y27620849D01*
X3109854Y27572323D01*
X2830459Y27578175D01*
X2557516Y27638186D01*
X2301435Y27750065D01*
X2071960Y27909554D01*
X1877830Y28110581D01*
X1726448Y28345482D01*
X1623572Y28605316D01*
X1573124Y28880181D01*
X1577026Y29159614D01*
X1635128Y29432960D01*
X1745219Y29689824D01*
X1903101Y29920405D01*
X2102768Y30115933D01*
X2336605Y30268952D01*
X2595718Y30373640D01*
X2870222Y30426004D01*
X3149674Y30424053D01*
X3149674Y30424053D01*
G37*
G36*
X46149674Y30424053D02*
X46423426Y30367860D01*
X46681045Y30259567D01*
X46912727Y30103296D01*
X47109641Y29905001D01*
X47264290Y29672236D01*
X47370783Y29413866D01*
X47424996Y29140072D01*
X47424996Y29140057D01*
X47425061Y29139728D01*
X47420604Y28820536D01*
X47420528Y28820202D01*
X47420528Y28820193D01*
X47358694Y28548025D01*
X47245025Y28292722D01*
X47083939Y28064367D01*
X46881567Y27871652D01*
X46645612Y27721909D01*
X46385064Y27620849D01*
X46109854Y27572323D01*
X45830459Y27578175D01*
X45557516Y27638186D01*
X45301435Y27750065D01*
X45071960Y27909554D01*
X44877830Y28110581D01*
X44726448Y28345482D01*
X44623572Y28605316D01*
X44573124Y28880181D01*
X44577026Y29159614D01*
X44635128Y29432960D01*
X44745219Y29689824D01*
X44903101Y29920405D01*
X45102768Y30115933D01*
X45336605Y30268952D01*
X45595718Y30373640D01*
X45870222Y30426004D01*
X46149674Y30424053D01*
X46149674Y30424053D01*
G37*
G36*
X25240000Y27830000D02*
X24440000Y27830000D01*
X24440000Y28970000D01*
X25240000Y28970000D01*
X25240000Y27830000D01*
X25240000Y27830000D01*
G37*
G36*
X24050000Y27830000D02*
X23250000Y27830000D01*
X23250000Y28970000D01*
X24050000Y28970000D01*
X24050000Y27830000D01*
X24050000Y27830000D01*
G37*
G36*
X22630000Y27830000D02*
X21830000Y27830000D01*
X21830000Y28970000D01*
X22630000Y28970000D01*
X22630000Y27830000D01*
X22630000Y27830000D01*
G37*
G36*
X26660000Y27830000D02*
X25860000Y27830000D01*
X25860000Y28970000D01*
X26660000Y28970000D01*
X26660000Y27830000D01*
X26660000Y27830000D01*
G37*
G36*
X20406653Y30764453D02*
X20565143Y30731919D01*
X20714290Y30669224D01*
X20848422Y30578751D01*
X20962425Y30463949D01*
X21051957Y30329191D01*
X21113612Y30179606D01*
X21144970Y30021239D01*
X21144970Y30021229D01*
X21145036Y30020895D01*
X21142455Y29836100D01*
X21142379Y29835766D01*
X21142379Y29835757D01*
X21106614Y29678330D01*
X21040804Y29530521D01*
X20947544Y29398316D01*
X20830383Y29286746D01*
X20693776Y29200052D01*
X20542931Y29141543D01*
X20383600Y29113449D01*
X20221845Y29116837D01*
X20063825Y29151580D01*
X19915566Y29216353D01*
X19782713Y29308688D01*
X19670321Y29425073D01*
X19582679Y29561068D01*
X19523119Y29711499D01*
X19493912Y29870631D01*
X19496172Y30032409D01*
X19529809Y30190661D01*
X19593547Y30339373D01*
X19684952Y30472867D01*
X19800549Y30586067D01*
X19935928Y30674657D01*
X20085943Y30735266D01*
X20244864Y30765583D01*
X20406653Y30764453D01*
X20406653Y30764453D01*
G37*
G36*
X17866653Y30764453D02*
X18025143Y30731919D01*
X18174290Y30669224D01*
X18308422Y30578751D01*
X18422425Y30463949D01*
X18511957Y30329191D01*
X18573612Y30179606D01*
X18604970Y30021239D01*
X18604970Y30021229D01*
X18605036Y30020895D01*
X18602455Y29836100D01*
X18602379Y29835766D01*
X18602379Y29835757D01*
X18566614Y29678330D01*
X18500804Y29530521D01*
X18407544Y29398316D01*
X18290383Y29286746D01*
X18153776Y29200052D01*
X18002931Y29141543D01*
X17843600Y29113449D01*
X17681845Y29116837D01*
X17523825Y29151580D01*
X17375566Y29216353D01*
X17242713Y29308688D01*
X17130321Y29425073D01*
X17042679Y29561068D01*
X16983119Y29711499D01*
X16953912Y29870631D01*
X16956172Y30032409D01*
X16989809Y30190661D01*
X17053547Y30339373D01*
X17144952Y30472867D01*
X17260549Y30586067D01*
X17395928Y30674657D01*
X17545943Y30735266D01*
X17704864Y30765583D01*
X17866653Y30764453D01*
X17866653Y30764453D01*
G37*
G36*
X15326653Y30764453D02*
X15485143Y30731919D01*
X15634290Y30669224D01*
X15768422Y30578751D01*
X15882425Y30463949D01*
X15971957Y30329191D01*
X16033612Y30179606D01*
X16064970Y30021239D01*
X16064970Y30021229D01*
X16065036Y30020895D01*
X16062455Y29836100D01*
X16062379Y29835766D01*
X16062379Y29835757D01*
X16026614Y29678330D01*
X15960804Y29530521D01*
X15867544Y29398316D01*
X15750383Y29286746D01*
X15613776Y29200052D01*
X15462931Y29141543D01*
X15303600Y29113449D01*
X15141845Y29116837D01*
X14983825Y29151580D01*
X14835566Y29216353D01*
X14702713Y29308688D01*
X14590321Y29425073D01*
X14502679Y29561068D01*
X14443119Y29711499D01*
X14413912Y29870631D01*
X14416172Y30032409D01*
X14449809Y30190661D01*
X14513547Y30339373D01*
X14604952Y30472867D01*
X14720549Y30586067D01*
X14855928Y30674657D01*
X15005943Y30735266D01*
X15164864Y30765583D01*
X15326653Y30764453D01*
X15326653Y30764453D01*
G37*
G36*
X12786653Y30764453D02*
X12945143Y30731919D01*
X13094290Y30669224D01*
X13228422Y30578751D01*
X13342425Y30463949D01*
X13431957Y30329191D01*
X13493612Y30179606D01*
X13524970Y30021239D01*
X13524970Y30021229D01*
X13525036Y30020895D01*
X13522455Y29836100D01*
X13522379Y29835766D01*
X13522379Y29835757D01*
X13486614Y29678330D01*
X13420804Y29530521D01*
X13327544Y29398316D01*
X13210383Y29286746D01*
X13073776Y29200052D01*
X12922931Y29141543D01*
X12763600Y29113449D01*
X12601845Y29116837D01*
X12443825Y29151580D01*
X12295566Y29216353D01*
X12162713Y29308688D01*
X12050321Y29425073D01*
X11962679Y29561068D01*
X11903119Y29711499D01*
X11873912Y29870631D01*
X11876172Y30032409D01*
X11909809Y30190661D01*
X11973547Y30339373D01*
X12064952Y30472867D01*
X12180549Y30586067D01*
X12315928Y30674657D01*
X12465943Y30735266D01*
X12624864Y30765583D01*
X12786653Y30764453D01*
X12786653Y30764453D01*
G37*
G36*
X10246653Y30764453D02*
X10405143Y30731919D01*
X10554290Y30669224D01*
X10688422Y30578751D01*
X10802425Y30463949D01*
X10891957Y30329191D01*
X10953612Y30179606D01*
X10984970Y30021239D01*
X10984970Y30021229D01*
X10985036Y30020895D01*
X10982455Y29836100D01*
X10982379Y29835766D01*
X10982379Y29835757D01*
X10946614Y29678330D01*
X10880804Y29530521D01*
X10787544Y29398316D01*
X10670383Y29286746D01*
X10533776Y29200052D01*
X10382931Y29141543D01*
X10223600Y29113449D01*
X10061845Y29116837D01*
X9903825Y29151580D01*
X9755566Y29216353D01*
X9622713Y29308688D01*
X9510321Y29425073D01*
X9422679Y29561068D01*
X9363119Y29711499D01*
X9333912Y29870631D01*
X9336172Y30032409D01*
X9369809Y30190661D01*
X9433547Y30339373D01*
X9524952Y30472867D01*
X9640549Y30586067D01*
X9775928Y30674657D01*
X9925943Y30735266D01*
X10084864Y30765583D01*
X10246653Y30764453D01*
X10246653Y30764453D01*
G37*
G36*
X8445000Y29115000D02*
X6795000Y29115000D01*
X6795000Y30765000D01*
X8445000Y30765000D01*
X8445000Y29115000D01*
X8445000Y29115000D01*
G37*
G36*
X34868164Y31624252D02*
X35084284Y31579889D01*
X35287668Y31494395D01*
X35470571Y31371025D01*
X35626035Y31214472D01*
X35748124Y31030713D01*
X35832197Y30826737D01*
X35874982Y30610656D01*
X35874982Y30610646D01*
X35875048Y30610312D01*
X35871529Y30358318D01*
X35871453Y30357984D01*
X35871453Y30357975D01*
X35822652Y30143176D01*
X35732916Y29941624D01*
X35605741Y29761342D01*
X35445974Y29609199D01*
X35259694Y29490981D01*
X35053997Y29411197D01*
X34836727Y29372887D01*
X34616152Y29377506D01*
X34400672Y29424883D01*
X34198500Y29513210D01*
X34017337Y29639121D01*
X33864076Y29797827D01*
X33744564Y29983275D01*
X33663346Y30188408D01*
X33623519Y30405406D01*
X33626600Y30626011D01*
X33672469Y30841810D01*
X33759383Y31044594D01*
X33884030Y31226639D01*
X34041659Y31381000D01*
X34226266Y31501804D01*
X34430831Y31584453D01*
X34647543Y31625793D01*
X34868164Y31624252D01*
X34868164Y31624252D01*
G37*
G36*
X29668164Y31624252D02*
X29884284Y31579889D01*
X30087668Y31494395D01*
X30270571Y31371025D01*
X30426035Y31214472D01*
X30548124Y31030713D01*
X30632197Y30826737D01*
X30674982Y30610656D01*
X30674982Y30610646D01*
X30675048Y30610312D01*
X30671529Y30358318D01*
X30671453Y30357984D01*
X30671453Y30357975D01*
X30622652Y30143176D01*
X30532916Y29941624D01*
X30405741Y29761342D01*
X30245974Y29609199D01*
X30059694Y29490981D01*
X29853997Y29411197D01*
X29636727Y29372887D01*
X29416152Y29377506D01*
X29200672Y29424883D01*
X28998500Y29513210D01*
X28817337Y29639121D01*
X28664076Y29797827D01*
X28544564Y29983275D01*
X28463346Y30188408D01*
X28423519Y30405406D01*
X28426600Y30626011D01*
X28472469Y30841810D01*
X28559383Y31044594D01*
X28684030Y31226639D01*
X28841659Y31381000D01*
X29026266Y31501804D01*
X29230831Y31584453D01*
X29447543Y31625793D01*
X29668164Y31624252D01*
X29668164Y31624252D01*
G37*
G36*
X36826150Y31474519D02*
X36965429Y31445929D01*
X37096498Y31390833D01*
X37214371Y31311327D01*
X37314555Y31210440D01*
X37393235Y31092017D01*
X37447417Y30960563D01*
X37474966Y30821434D01*
X37474966Y30821419D01*
X37475031Y30821090D01*
X37472763Y30658694D01*
X37472688Y30658365D01*
X37472688Y30658352D01*
X37441266Y30520046D01*
X37383436Y30390156D01*
X37301480Y30273977D01*
X37198516Y30175926D01*
X37078470Y30099742D01*
X36945909Y30048325D01*
X36805891Y30023637D01*
X36663743Y30026614D01*
X36524876Y30057146D01*
X36394592Y30114066D01*
X36277836Y30195213D01*
X36179070Y30297488D01*
X36102051Y30416998D01*
X36049711Y30549196D01*
X36024044Y30689039D01*
X36026030Y30831208D01*
X36055589Y30970277D01*
X36111602Y31100965D01*
X36191927Y31218276D01*
X36293513Y31317756D01*
X36412481Y31395608D01*
X36544314Y31448871D01*
X36683971Y31475512D01*
X36826150Y31474519D01*
X36826150Y31474519D01*
G37*
G36*
X31826150Y31524519D02*
X31965429Y31495929D01*
X32096498Y31440833D01*
X32214371Y31361327D01*
X32314555Y31260440D01*
X32393235Y31142017D01*
X32447417Y31010563D01*
X32474966Y30871434D01*
X32474966Y30871419D01*
X32475031Y30871090D01*
X32472763Y30708694D01*
X32472688Y30708365D01*
X32472688Y30708352D01*
X32441266Y30570046D01*
X32383436Y30440156D01*
X32301480Y30323977D01*
X32198516Y30225926D01*
X32078470Y30149742D01*
X31945909Y30098325D01*
X31805891Y30073637D01*
X31663743Y30076614D01*
X31524876Y30107146D01*
X31394592Y30164066D01*
X31277836Y30245213D01*
X31179070Y30347488D01*
X31102051Y30466998D01*
X31049711Y30599196D01*
X31024044Y30739039D01*
X31026030Y30881208D01*
X31055589Y31020277D01*
X31111602Y31150965D01*
X31191927Y31268276D01*
X31293513Y31367756D01*
X31412481Y31445608D01*
X31544314Y31498871D01*
X31683971Y31525512D01*
X31826150Y31524519D01*
X31826150Y31524519D01*
G37*
M02*
