G04 #@! TF.FileFunction,Soldermask,Top*
%FSLAX46Y46*%
G04 Gerber Fmt 4.6, Leading zero omitted, Abs format (unit mm)*
G04 Created by KiCad (PCBNEW 4.0.6-e0-6349~53~ubuntu16.04.1) date Tue Mar  7 00:43:50 2017*
%MOMM*%
%LPD*%
G01*
G04 APERTURE LIST*
%ADD10C,0.100000*%
%ADD11C,0.150000*%
%ADD12C,0.300000*%
%ADD13C,0.400000*%
%ADD14C,1.500000*%
G04 APERTURE END LIST*
D10*
D11*
X177002200Y-166007200D02*
X177002200Y-198007200D01*
X285002200Y-198007200D01*
X285002200Y-166007200D01*
X177002200Y-166007200D01*
D10*
D11*
X10000000Y-10000000D02*
X10000000Y-200007200D01*
X287002200Y-200007200D01*
X287002200Y-10000000D01*
X10000000Y-10000000D01*
D10*
D11*
X12000000Y-12000000D02*
X12000000Y-198007200D01*
X285002200Y-198007200D01*
X285002200Y-12000000D01*
X12000000Y-12000000D01*
D10*
D11*
X60000000Y-12000000D02*
X60000000Y-10000000D01*
D10*
D11*
X110000000Y-12000000D02*
X110000000Y-10000000D01*
D10*
D11*
X160000000Y-12000000D02*
X160000000Y-10000000D01*
D10*
D11*
X210000000Y-12000000D02*
X210000000Y-10000000D01*
D10*
D11*
X260000000Y-12000000D02*
X260000000Y-10000000D01*
D10*
D11*
X35990476Y-11588095D02*
X35247619Y-11588095D01*
X35619048Y-11588095D02*
X35619048Y-10288095D01*
X35495238Y-10473810D01*
X35371429Y-10597619D01*
X35247619Y-10659524D01*
D10*
D11*
X85247619Y-10411905D02*
X85309524Y-10350000D01*
X85433333Y-10288095D01*
X85742857Y-10288095D01*
X85866667Y-10350000D01*
X85928571Y-10411905D01*
X85990476Y-10535714D01*
X85990476Y-10659524D01*
X85928571Y-10845238D01*
X85185714Y-11588095D01*
X85990476Y-11588095D01*
D10*
D11*
X135185714Y-10288095D02*
X135990476Y-10288095D01*
X135557143Y-10783333D01*
X135742857Y-10783333D01*
X135866667Y-10845238D01*
X135928571Y-10907143D01*
X135990476Y-11030952D01*
X135990476Y-11340476D01*
X135928571Y-11464286D01*
X135866667Y-11526190D01*
X135742857Y-11588095D01*
X135371429Y-11588095D01*
X135247619Y-11526190D01*
X135185714Y-11464286D01*
D10*
D11*
X185866667Y-10721429D02*
X185866667Y-11588095D01*
X185557143Y-10226190D02*
X185247619Y-11154762D01*
X186052381Y-11154762D01*
D10*
D11*
X235928571Y-10288095D02*
X235309524Y-10288095D01*
X235247619Y-10907143D01*
X235309524Y-10845238D01*
X235433333Y-10783333D01*
X235742857Y-10783333D01*
X235866667Y-10845238D01*
X235928571Y-10907143D01*
X235990476Y-11030952D01*
X235990476Y-11340476D01*
X235928571Y-11464286D01*
X235866667Y-11526190D01*
X235742857Y-11588095D01*
X235433333Y-11588095D01*
X235309524Y-11526190D01*
X235247619Y-11464286D01*
D10*
D11*
X285866667Y-10288095D02*
X285619048Y-10288095D01*
X285495238Y-10350000D01*
X285433333Y-10411905D01*
X285309524Y-10597619D01*
X285247619Y-10845238D01*
X285247619Y-11340476D01*
X285309524Y-11464286D01*
X285371429Y-11526190D01*
X285495238Y-11588095D01*
X285742857Y-11588095D01*
X285866667Y-11526190D01*
X285928571Y-11464286D01*
X285990476Y-11340476D01*
X285990476Y-11030952D01*
X285928571Y-10907143D01*
X285866667Y-10845238D01*
X285742857Y-10783333D01*
X285495238Y-10783333D01*
X285371429Y-10845238D01*
X285309524Y-10907143D01*
X285247619Y-11030952D01*
D10*
D11*
X60000000Y-198007200D02*
X60000000Y-200007200D01*
D10*
D11*
X110000000Y-198007200D02*
X110000000Y-200007200D01*
D10*
D11*
X160000000Y-198007200D02*
X160000000Y-200007200D01*
D10*
D11*
X210000000Y-198007200D02*
X210000000Y-200007200D01*
D10*
D11*
X260000000Y-198007200D02*
X260000000Y-200007200D01*
D10*
D11*
X35990476Y-199595295D02*
X35247619Y-199595295D01*
X35619048Y-199595295D02*
X35619048Y-198295295D01*
X35495238Y-198481010D01*
X35371429Y-198604819D01*
X35247619Y-198666724D01*
D10*
D11*
X85247619Y-198419105D02*
X85309524Y-198357200D01*
X85433333Y-198295295D01*
X85742857Y-198295295D01*
X85866667Y-198357200D01*
X85928571Y-198419105D01*
X85990476Y-198542914D01*
X85990476Y-198666724D01*
X85928571Y-198852438D01*
X85185714Y-199595295D01*
X85990476Y-199595295D01*
D10*
D11*
X135185714Y-198295295D02*
X135990476Y-198295295D01*
X135557143Y-198790533D01*
X135742857Y-198790533D01*
X135866667Y-198852438D01*
X135928571Y-198914343D01*
X135990476Y-199038152D01*
X135990476Y-199347676D01*
X135928571Y-199471486D01*
X135866667Y-199533390D01*
X135742857Y-199595295D01*
X135371429Y-199595295D01*
X135247619Y-199533390D01*
X135185714Y-199471486D01*
D10*
D11*
X185866667Y-198728629D02*
X185866667Y-199595295D01*
X185557143Y-198233390D02*
X185247619Y-199161962D01*
X186052381Y-199161962D01*
D10*
D11*
X235928571Y-198295295D02*
X235309524Y-198295295D01*
X235247619Y-198914343D01*
X235309524Y-198852438D01*
X235433333Y-198790533D01*
X235742857Y-198790533D01*
X235866667Y-198852438D01*
X235928571Y-198914343D01*
X235990476Y-199038152D01*
X235990476Y-199347676D01*
X235928571Y-199471486D01*
X235866667Y-199533390D01*
X235742857Y-199595295D01*
X235433333Y-199595295D01*
X235309524Y-199533390D01*
X235247619Y-199471486D01*
D10*
D11*
X285866667Y-198295295D02*
X285619048Y-198295295D01*
X285495238Y-198357200D01*
X285433333Y-198419105D01*
X285309524Y-198604819D01*
X285247619Y-198852438D01*
X285247619Y-199347676D01*
X285309524Y-199471486D01*
X285371429Y-199533390D01*
X285495238Y-199595295D01*
X285742857Y-199595295D01*
X285866667Y-199533390D01*
X285928571Y-199471486D01*
X285990476Y-199347676D01*
X285990476Y-199038152D01*
X285928571Y-198914343D01*
X285866667Y-198852438D01*
X285742857Y-198790533D01*
X285495238Y-198790533D01*
X285371429Y-198852438D01*
X285309524Y-198914343D01*
X285247619Y-199038152D01*
D10*
D11*
X10000000Y-60000000D02*
X12000000Y-60000000D01*
D10*
D11*
X10000000Y-110000000D02*
X12000000Y-110000000D01*
D10*
D11*
X10000000Y-160000000D02*
X12000000Y-160000000D01*
D10*
D11*
X10690476Y-35216667D02*
X11309524Y-35216667D01*
X10566667Y-35588095D02*
X11000000Y-34288095D01*
X11433333Y-35588095D01*
D10*
D11*
X11092857Y-84907143D02*
X11278571Y-84969048D01*
X11340476Y-85030952D01*
X11402381Y-85154762D01*
X11402381Y-85340476D01*
X11340476Y-85464286D01*
X11278571Y-85526190D01*
X11154762Y-85588095D01*
X10659524Y-85588095D01*
X10659524Y-84288095D01*
X11092857Y-84288095D01*
X11216667Y-84350000D01*
X11278571Y-84411905D01*
X11340476Y-84535714D01*
X11340476Y-84659524D01*
X11278571Y-84783333D01*
X11216667Y-84845238D01*
X11092857Y-84907143D01*
X10659524Y-84907143D01*
D10*
D11*
X11402381Y-135464286D02*
X11340476Y-135526190D01*
X11154762Y-135588095D01*
X11030952Y-135588095D01*
X10845238Y-135526190D01*
X10721429Y-135402381D01*
X10659524Y-135278571D01*
X10597619Y-135030952D01*
X10597619Y-134845238D01*
X10659524Y-134597619D01*
X10721429Y-134473810D01*
X10845238Y-134350000D01*
X11030952Y-134288095D01*
X11154762Y-134288095D01*
X11340476Y-134350000D01*
X11402381Y-134411905D01*
D10*
D11*
X10659524Y-185588095D02*
X10659524Y-184288095D01*
X10969048Y-184288095D01*
X11154762Y-184350000D01*
X11278571Y-184473810D01*
X11340476Y-184597619D01*
X11402381Y-184845238D01*
X11402381Y-185030952D01*
X11340476Y-185278571D01*
X11278571Y-185402381D01*
X11154762Y-185526190D01*
X10969048Y-185588095D01*
X10659524Y-185588095D01*
D10*
D11*
X287002200Y-60000000D02*
X285002200Y-60000000D01*
D10*
D11*
X287002200Y-110000000D02*
X285002200Y-110000000D01*
D10*
D11*
X287002200Y-160000000D02*
X285002200Y-160000000D01*
D10*
D11*
X285692676Y-35216667D02*
X286311724Y-35216667D01*
X285568867Y-35588095D02*
X286002200Y-34288095D01*
X286435533Y-35588095D01*
D10*
D11*
X286095057Y-84907143D02*
X286280771Y-84969048D01*
X286342676Y-85030952D01*
X286404581Y-85154762D01*
X286404581Y-85340476D01*
X286342676Y-85464286D01*
X286280771Y-85526190D01*
X286156962Y-85588095D01*
X285661724Y-85588095D01*
X285661724Y-84288095D01*
X286095057Y-84288095D01*
X286218867Y-84350000D01*
X286280771Y-84411905D01*
X286342676Y-84535714D01*
X286342676Y-84659524D01*
X286280771Y-84783333D01*
X286218867Y-84845238D01*
X286095057Y-84907143D01*
X285661724Y-84907143D01*
D10*
D11*
X286404581Y-135464286D02*
X286342676Y-135526190D01*
X286156962Y-135588095D01*
X286033152Y-135588095D01*
X285847438Y-135526190D01*
X285723629Y-135402381D01*
X285661724Y-135278571D01*
X285599819Y-135030952D01*
X285599819Y-134845238D01*
X285661724Y-134597619D01*
X285723629Y-134473810D01*
X285847438Y-134350000D01*
X286033152Y-134288095D01*
X286156962Y-134288095D01*
X286342676Y-134350000D01*
X286404581Y-134411905D01*
D10*
D11*
X285661724Y-185588095D02*
X285661724Y-184288095D01*
X285971248Y-184288095D01*
X286156962Y-184350000D01*
X286280771Y-184473810D01*
X286342676Y-184597619D01*
X286404581Y-184845238D01*
X286404581Y-185030952D01*
X286342676Y-185278571D01*
X286280771Y-185402381D01*
X286156962Y-185526190D01*
X285971248Y-185588095D01*
X285661724Y-185588095D01*
D10*
D11*
X200359343Y-193785771D02*
X200359343Y-192285771D01*
X200716486Y-192285771D01*
X200930771Y-192357200D01*
X201073629Y-192500057D01*
X201145057Y-192642914D01*
X201216486Y-192928629D01*
X201216486Y-193142914D01*
X201145057Y-193428629D01*
X201073629Y-193571486D01*
X200930771Y-193714343D01*
X200716486Y-193785771D01*
X200359343Y-193785771D01*
X202502200Y-193785771D02*
X202502200Y-193000057D01*
X202430771Y-192857200D01*
X202287914Y-192785771D01*
X202002200Y-192785771D01*
X201859343Y-192857200D01*
X202502200Y-193714343D02*
X202359343Y-193785771D01*
X202002200Y-193785771D01*
X201859343Y-193714343D01*
X201787914Y-193571486D01*
X201787914Y-193428629D01*
X201859343Y-193285771D01*
X202002200Y-193214343D01*
X202359343Y-193214343D01*
X202502200Y-193142914D01*
X203002200Y-192785771D02*
X203573629Y-192785771D01*
X203216486Y-192285771D02*
X203216486Y-193571486D01*
X203287914Y-193714343D01*
X203430772Y-193785771D01*
X203573629Y-193785771D01*
X204645057Y-193714343D02*
X204502200Y-193785771D01*
X204216486Y-193785771D01*
X204073629Y-193714343D01*
X204002200Y-193571486D01*
X204002200Y-193000057D01*
X204073629Y-192857200D01*
X204216486Y-192785771D01*
X204502200Y-192785771D01*
X204645057Y-192857200D01*
X204716486Y-193000057D01*
X204716486Y-193142914D01*
X204002200Y-193285771D01*
X205359343Y-193642914D02*
X205430771Y-193714343D01*
X205359343Y-193785771D01*
X205287914Y-193714343D01*
X205359343Y-193642914D01*
X205359343Y-193785771D01*
X205359343Y-192857200D02*
X205430771Y-192928629D01*
X205359343Y-193000057D01*
X205287914Y-192928629D01*
X205359343Y-192857200D01*
X205359343Y-193000057D01*
X207145057Y-192428629D02*
X207216486Y-192357200D01*
X207359343Y-192285771D01*
X207716486Y-192285771D01*
X207859343Y-192357200D01*
X207930772Y-192428629D01*
X208002200Y-192571486D01*
X208002200Y-192714343D01*
X207930772Y-192928629D01*
X207073629Y-193785771D01*
X208002200Y-193785771D01*
X209287914Y-192285771D02*
X209002200Y-192285771D01*
X208859343Y-192357200D01*
X208787914Y-192428629D01*
X208645057Y-192642914D01*
X208573628Y-192928629D01*
X208573628Y-193500057D01*
X208645057Y-193642914D01*
X208716485Y-193714343D01*
X208859343Y-193785771D01*
X209145057Y-193785771D01*
X209287914Y-193714343D01*
X209359343Y-193642914D01*
X209430771Y-193500057D01*
X209430771Y-193142914D01*
X209359343Y-193000057D01*
X209287914Y-192928629D01*
X209145057Y-192857200D01*
X208859343Y-192857200D01*
X208716485Y-192928629D01*
X208645057Y-193000057D01*
X208573628Y-193142914D01*
X210073628Y-193642914D02*
X210145056Y-193714343D01*
X210073628Y-193785771D01*
X210002199Y-193714343D01*
X210073628Y-193642914D01*
X210073628Y-193785771D01*
X211073628Y-192285771D02*
X211216485Y-192285771D01*
X211359342Y-192357200D01*
X211430771Y-192428629D01*
X211502200Y-192571486D01*
X211573628Y-192857200D01*
X211573628Y-193214343D01*
X211502200Y-193500057D01*
X211430771Y-193642914D01*
X211359342Y-193714343D01*
X211216485Y-193785771D01*
X211073628Y-193785771D01*
X210930771Y-193714343D01*
X210859342Y-193642914D01*
X210787914Y-193500057D01*
X210716485Y-193214343D01*
X210716485Y-192857200D01*
X210787914Y-192571486D01*
X210859342Y-192428629D01*
X210930771Y-192357200D01*
X211073628Y-192285771D01*
X212145056Y-192428629D02*
X212216485Y-192357200D01*
X212359342Y-192285771D01*
X212716485Y-192285771D01*
X212859342Y-192357200D01*
X212930771Y-192428629D01*
X213002199Y-192571486D01*
X213002199Y-192714343D01*
X212930771Y-192928629D01*
X212073628Y-193785771D01*
X213002199Y-193785771D01*
X213645056Y-193642914D02*
X213716484Y-193714343D01*
X213645056Y-193785771D01*
X213573627Y-193714343D01*
X213645056Y-193642914D01*
X213645056Y-193785771D01*
X214287913Y-192428629D02*
X214359342Y-192357200D01*
X214502199Y-192285771D01*
X214859342Y-192285771D01*
X215002199Y-192357200D01*
X215073628Y-192428629D01*
X215145056Y-192571486D01*
X215145056Y-192714343D01*
X215073628Y-192928629D01*
X214216485Y-193785771D01*
X215145056Y-193785771D01*
X216073627Y-192285771D02*
X216216484Y-192285771D01*
X216359341Y-192357200D01*
X216430770Y-192428629D01*
X216502199Y-192571486D01*
X216573627Y-192857200D01*
X216573627Y-193214343D01*
X216502199Y-193500057D01*
X216430770Y-193642914D01*
X216359341Y-193714343D01*
X216216484Y-193785771D01*
X216073627Y-193785771D01*
X215930770Y-193714343D01*
X215859341Y-193642914D01*
X215787913Y-193500057D01*
X215716484Y-193214343D01*
X215716484Y-192857200D01*
X215787913Y-192571486D01*
X215859341Y-192428629D01*
X215930770Y-192357200D01*
X216073627Y-192285771D01*
X218002198Y-193785771D02*
X217145055Y-193785771D01*
X217573627Y-193785771D02*
X217573627Y-192285771D01*
X217430770Y-192500057D01*
X217287912Y-192642914D01*
X217145055Y-192714343D01*
X218502198Y-192285771D02*
X219502198Y-192285771D01*
X218859341Y-193785771D01*
D10*
D11*
X177002200Y-194507200D02*
X285002200Y-194507200D01*
D10*
D11*
X178359343Y-196585771D02*
X178359343Y-195085771D01*
X179216486Y-196585771D02*
X178573629Y-195728629D01*
X179216486Y-195085771D02*
X178359343Y-195942914D01*
X179859343Y-196585771D02*
X179859343Y-195585771D01*
X179859343Y-195085771D02*
X179787914Y-195157200D01*
X179859343Y-195228629D01*
X179930771Y-195157200D01*
X179859343Y-195085771D01*
X179859343Y-195228629D01*
X181430772Y-196442914D02*
X181359343Y-196514343D01*
X181145057Y-196585771D01*
X181002200Y-196585771D01*
X180787915Y-196514343D01*
X180645057Y-196371486D01*
X180573629Y-196228629D01*
X180502200Y-195942914D01*
X180502200Y-195728629D01*
X180573629Y-195442914D01*
X180645057Y-195300057D01*
X180787915Y-195157200D01*
X181002200Y-195085771D01*
X181145057Y-195085771D01*
X181359343Y-195157200D01*
X181430772Y-195228629D01*
X182716486Y-196585771D02*
X182716486Y-195800057D01*
X182645057Y-195657200D01*
X182502200Y-195585771D01*
X182216486Y-195585771D01*
X182073629Y-195657200D01*
X182716486Y-196514343D02*
X182573629Y-196585771D01*
X182216486Y-196585771D01*
X182073629Y-196514343D01*
X182002200Y-196371486D01*
X182002200Y-196228629D01*
X182073629Y-196085771D01*
X182216486Y-196014343D01*
X182573629Y-196014343D01*
X182716486Y-195942914D01*
X184073629Y-196585771D02*
X184073629Y-195085771D01*
X184073629Y-196514343D02*
X183930772Y-196585771D01*
X183645058Y-196585771D01*
X183502200Y-196514343D01*
X183430772Y-196442914D01*
X183359343Y-196300057D01*
X183359343Y-195871486D01*
X183430772Y-195728629D01*
X183502200Y-195657200D01*
X183645058Y-195585771D01*
X183930772Y-195585771D01*
X184073629Y-195657200D01*
X185930772Y-195800057D02*
X186430772Y-195800057D01*
X186645058Y-196585771D02*
X185930772Y-196585771D01*
X185930772Y-195085771D01*
X186645058Y-195085771D01*
X187287915Y-196442914D02*
X187359343Y-196514343D01*
X187287915Y-196585771D01*
X187216486Y-196514343D01*
X187287915Y-196442914D01*
X187287915Y-196585771D01*
X188002201Y-196585771D02*
X188002201Y-195085771D01*
X188359344Y-195085771D01*
X188573629Y-195157200D01*
X188716487Y-195300057D01*
X188787915Y-195442914D01*
X188859344Y-195728629D01*
X188859344Y-195942914D01*
X188787915Y-196228629D01*
X188716487Y-196371486D01*
X188573629Y-196514343D01*
X188359344Y-196585771D01*
X188002201Y-196585771D01*
X189502201Y-196442914D02*
X189573629Y-196514343D01*
X189502201Y-196585771D01*
X189430772Y-196514343D01*
X189502201Y-196442914D01*
X189502201Y-196585771D01*
X190145058Y-196157200D02*
X190859344Y-196157200D01*
X190002201Y-196585771D02*
X190502201Y-195085771D01*
X191002201Y-196585771D01*
X191502201Y-196442914D02*
X191573629Y-196514343D01*
X191502201Y-196585771D01*
X191430772Y-196514343D01*
X191502201Y-196442914D01*
X191502201Y-196585771D01*
X194502201Y-196585771D02*
X194502201Y-195085771D01*
X194645058Y-196014343D02*
X195073629Y-196585771D01*
X195073629Y-195585771D02*
X194502201Y-196157200D01*
X195716487Y-196585771D02*
X195716487Y-195585771D01*
X195716487Y-195085771D02*
X195645058Y-195157200D01*
X195716487Y-195228629D01*
X195787915Y-195157200D01*
X195716487Y-195085771D01*
X195716487Y-195228629D01*
X197073630Y-196514343D02*
X196930773Y-196585771D01*
X196645059Y-196585771D01*
X196502201Y-196514343D01*
X196430773Y-196442914D01*
X196359344Y-196300057D01*
X196359344Y-195871486D01*
X196430773Y-195728629D01*
X196502201Y-195657200D01*
X196645059Y-195585771D01*
X196930773Y-195585771D01*
X197073630Y-195657200D01*
X198359344Y-196585771D02*
X198359344Y-195800057D01*
X198287915Y-195657200D01*
X198145058Y-195585771D01*
X197859344Y-195585771D01*
X197716487Y-195657200D01*
X198359344Y-196514343D02*
X198216487Y-196585771D01*
X197859344Y-196585771D01*
X197716487Y-196514343D01*
X197645058Y-196371486D01*
X197645058Y-196228629D01*
X197716487Y-196085771D01*
X197859344Y-196014343D01*
X198216487Y-196014343D01*
X198359344Y-195942914D01*
X199716487Y-196585771D02*
X199716487Y-195085771D01*
X199716487Y-196514343D02*
X199573630Y-196585771D01*
X199287916Y-196585771D01*
X199145058Y-196514343D01*
X199073630Y-196442914D01*
X199002201Y-196300057D01*
X199002201Y-195871486D01*
X199073630Y-195728629D01*
X199145058Y-195657200D01*
X199287916Y-195585771D01*
X199573630Y-195585771D01*
X199716487Y-195657200D01*
X202216487Y-195585771D02*
X202216487Y-196585771D01*
X201859344Y-195014343D02*
X201502201Y-196085771D01*
X202430773Y-196085771D01*
X203002201Y-196442914D02*
X203073629Y-196514343D01*
X203002201Y-196585771D01*
X202930772Y-196514343D01*
X203002201Y-196442914D01*
X203002201Y-196585771D01*
X204002201Y-195085771D02*
X204145058Y-195085771D01*
X204287915Y-195157200D01*
X204359344Y-195228629D01*
X204430773Y-195371486D01*
X204502201Y-195657200D01*
X204502201Y-196014343D01*
X204430773Y-196300057D01*
X204359344Y-196442914D01*
X204287915Y-196514343D01*
X204145058Y-196585771D01*
X204002201Y-196585771D01*
X203859344Y-196514343D01*
X203787915Y-196442914D01*
X203716487Y-196300057D01*
X203645058Y-196014343D01*
X203645058Y-195657200D01*
X203716487Y-195371486D01*
X203787915Y-195228629D01*
X203859344Y-195157200D01*
X204002201Y-195085771D01*
X205145058Y-196442914D02*
X205216486Y-196514343D01*
X205145058Y-196585771D01*
X205073629Y-196514343D01*
X205145058Y-196442914D01*
X205145058Y-196585771D01*
X206502201Y-195085771D02*
X206216487Y-195085771D01*
X206073630Y-195157200D01*
X206002201Y-195228629D01*
X205859344Y-195442914D01*
X205787915Y-195728629D01*
X205787915Y-196300057D01*
X205859344Y-196442914D01*
X205930772Y-196514343D01*
X206073630Y-196585771D01*
X206359344Y-196585771D01*
X206502201Y-196514343D01*
X206573630Y-196442914D01*
X206645058Y-196300057D01*
X206645058Y-195942914D01*
X206573630Y-195800057D01*
X206502201Y-195728629D01*
X206359344Y-195657200D01*
X206073630Y-195657200D01*
X205930772Y-195728629D01*
X205859344Y-195800057D01*
X205787915Y-195942914D01*
X207287915Y-196014343D02*
X208430772Y-196014343D01*
X209716486Y-196514343D02*
X209573629Y-196585771D01*
X209287915Y-196585771D01*
X209145058Y-196514343D01*
X209073629Y-196371486D01*
X209073629Y-195800057D01*
X209145058Y-195657200D01*
X209287915Y-195585771D01*
X209573629Y-195585771D01*
X209716486Y-195657200D01*
X209787915Y-195800057D01*
X209787915Y-195942914D01*
X209073629Y-196085771D01*
X210716486Y-195085771D02*
X210859343Y-195085771D01*
X211002200Y-195157200D01*
X211073629Y-195228629D01*
X211145058Y-195371486D01*
X211216486Y-195657200D01*
X211216486Y-196014343D01*
X211145058Y-196300057D01*
X211073629Y-196442914D01*
X211002200Y-196514343D01*
X210859343Y-196585771D01*
X210716486Y-196585771D01*
X210573629Y-196514343D01*
X210502200Y-196442914D01*
X210430772Y-196300057D01*
X210359343Y-196014343D01*
X210359343Y-195657200D01*
X210430772Y-195371486D01*
X210502200Y-195228629D01*
X210573629Y-195157200D01*
X210716486Y-195085771D01*
X211859343Y-196014343D02*
X213002200Y-196014343D01*
X214359343Y-195085771D02*
X214073629Y-195085771D01*
X213930772Y-195157200D01*
X213859343Y-195228629D01*
X213716486Y-195442914D01*
X213645057Y-195728629D01*
X213645057Y-196300057D01*
X213716486Y-196442914D01*
X213787914Y-196514343D01*
X213930772Y-196585771D01*
X214216486Y-196585771D01*
X214359343Y-196514343D01*
X214430772Y-196442914D01*
X214502200Y-196300057D01*
X214502200Y-195942914D01*
X214430772Y-195800057D01*
X214359343Y-195728629D01*
X214216486Y-195657200D01*
X213930772Y-195657200D01*
X213787914Y-195728629D01*
X213716486Y-195800057D01*
X213645057Y-195942914D01*
X215002200Y-195085771D02*
X215930771Y-195085771D01*
X215430771Y-195657200D01*
X215645057Y-195657200D01*
X215787914Y-195728629D01*
X215859343Y-195800057D01*
X215930771Y-195942914D01*
X215930771Y-196300057D01*
X215859343Y-196442914D01*
X215787914Y-196514343D01*
X215645057Y-196585771D01*
X215216485Y-196585771D01*
X215073628Y-196514343D01*
X215002200Y-196442914D01*
X217216485Y-195585771D02*
X217216485Y-196585771D01*
X216859342Y-195014343D02*
X216502199Y-196085771D01*
X217430771Y-196085771D01*
X218073627Y-196585771D02*
X218359342Y-196585771D01*
X218502199Y-196514343D01*
X218573627Y-196442914D01*
X218716485Y-196228629D01*
X218787913Y-195942914D01*
X218787913Y-195371486D01*
X218716485Y-195228629D01*
X218645056Y-195157200D01*
X218502199Y-195085771D01*
X218216485Y-195085771D01*
X218073627Y-195157200D01*
X218002199Y-195228629D01*
X217930770Y-195371486D01*
X217930770Y-195728629D01*
X218002199Y-195871486D01*
X218073627Y-195942914D01*
X218216485Y-196014343D01*
X218502199Y-196014343D01*
X218645056Y-195942914D01*
X218716485Y-195871486D01*
X218787913Y-195728629D01*
X220145056Y-195085771D02*
X219430770Y-195085771D01*
X219359341Y-195800057D01*
X219430770Y-195728629D01*
X219573627Y-195657200D01*
X219930770Y-195657200D01*
X220073627Y-195728629D01*
X220145056Y-195800057D01*
X220216484Y-195942914D01*
X220216484Y-196300057D01*
X220145056Y-196442914D01*
X220073627Y-196514343D01*
X219930770Y-196585771D01*
X219573627Y-196585771D01*
X219430770Y-196514343D01*
X219359341Y-196442914D01*
X220716484Y-195085771D02*
X221645055Y-195085771D01*
X221145055Y-195657200D01*
X221359341Y-195657200D01*
X221502198Y-195728629D01*
X221573627Y-195800057D01*
X221645055Y-195942914D01*
X221645055Y-196300057D01*
X221573627Y-196442914D01*
X221502198Y-196514343D01*
X221359341Y-196585771D01*
X220930769Y-196585771D01*
X220787912Y-196514343D01*
X220716484Y-196442914D01*
X219073627Y-194827200D02*
X221930769Y-194827200D01*
X222930769Y-195585771D02*
X222930769Y-196585771D01*
X222287912Y-195585771D02*
X222287912Y-196371486D01*
X222359340Y-196514343D01*
X222502198Y-196585771D01*
X222716483Y-196585771D01*
X222859340Y-196514343D01*
X222930769Y-196442914D01*
X223645055Y-196585771D02*
X223645055Y-195085771D01*
X223645055Y-195657200D02*
X223787912Y-195585771D01*
X224073626Y-195585771D01*
X224216483Y-195657200D01*
X224287912Y-195728629D01*
X224359341Y-195871486D01*
X224359341Y-196300057D01*
X224287912Y-196442914D01*
X224216483Y-196514343D01*
X224073626Y-196585771D01*
X223787912Y-196585771D01*
X223645055Y-196514343D01*
X225645055Y-195585771D02*
X225645055Y-196585771D01*
X225002198Y-195585771D02*
X225002198Y-196371486D01*
X225073626Y-196514343D01*
X225216484Y-196585771D01*
X225430769Y-196585771D01*
X225573626Y-196514343D01*
X225645055Y-196442914D01*
X226359341Y-195585771D02*
X226359341Y-196585771D01*
X226359341Y-195728629D02*
X226430769Y-195657200D01*
X226573627Y-195585771D01*
X226787912Y-195585771D01*
X226930769Y-195657200D01*
X227002198Y-195800057D01*
X227002198Y-196585771D01*
X227502198Y-195585771D02*
X228073627Y-195585771D01*
X227716484Y-195085771D02*
X227716484Y-196371486D01*
X227787912Y-196514343D01*
X227930770Y-196585771D01*
X228073627Y-196585771D01*
X229216484Y-195585771D02*
X229216484Y-196585771D01*
X228573627Y-195585771D02*
X228573627Y-196371486D01*
X228645055Y-196514343D01*
X228787913Y-196585771D01*
X229002198Y-196585771D01*
X229145055Y-196514343D01*
X229216484Y-196442914D01*
X230716484Y-196585771D02*
X229859341Y-196585771D01*
X230287913Y-196585771D02*
X230287913Y-195085771D01*
X230145056Y-195300057D01*
X230002198Y-195442914D01*
X229859341Y-195514343D01*
X232002198Y-195085771D02*
X231716484Y-195085771D01*
X231573627Y-195157200D01*
X231502198Y-195228629D01*
X231359341Y-195442914D01*
X231287912Y-195728629D01*
X231287912Y-196300057D01*
X231359341Y-196442914D01*
X231430769Y-196514343D01*
X231573627Y-196585771D01*
X231859341Y-196585771D01*
X232002198Y-196514343D01*
X232073627Y-196442914D01*
X232145055Y-196300057D01*
X232145055Y-195942914D01*
X232073627Y-195800057D01*
X232002198Y-195728629D01*
X231859341Y-195657200D01*
X231573627Y-195657200D01*
X231430769Y-195728629D01*
X231359341Y-195800057D01*
X231287912Y-195942914D01*
X232787912Y-196442914D02*
X232859340Y-196514343D01*
X232787912Y-196585771D01*
X232716483Y-196514343D01*
X232787912Y-196442914D01*
X232787912Y-196585771D01*
X233787912Y-195085771D02*
X233930769Y-195085771D01*
X234073626Y-195157200D01*
X234145055Y-195228629D01*
X234216484Y-195371486D01*
X234287912Y-195657200D01*
X234287912Y-196014343D01*
X234216484Y-196300057D01*
X234145055Y-196442914D01*
X234073626Y-196514343D01*
X233930769Y-196585771D01*
X233787912Y-196585771D01*
X233645055Y-196514343D01*
X233573626Y-196442914D01*
X233502198Y-196300057D01*
X233430769Y-196014343D01*
X233430769Y-195657200D01*
X233502198Y-195371486D01*
X233573626Y-195228629D01*
X233645055Y-195157200D01*
X233787912Y-195085771D01*
X235573626Y-195585771D02*
X235573626Y-196585771D01*
X235216483Y-195014343D02*
X234859340Y-196085771D01*
X235787912Y-196085771D01*
X236359340Y-196442914D02*
X236430768Y-196514343D01*
X236359340Y-196585771D01*
X236287911Y-196514343D01*
X236359340Y-196442914D01*
X236359340Y-196585771D01*
X237859340Y-196585771D02*
X237002197Y-196585771D01*
X237430769Y-196585771D02*
X237430769Y-195085771D01*
X237287912Y-195300057D01*
X237145054Y-195442914D01*
X237002197Y-195514343D01*
D10*
D11*
X177002200Y-191507200D02*
X285002200Y-191507200D01*
D10*
D12*
X264216486Y-193785771D02*
X263716486Y-193071486D01*
X263359343Y-193785771D02*
X263359343Y-192285771D01*
X263930771Y-192285771D01*
X264073629Y-192357200D01*
X264145057Y-192428629D01*
X264216486Y-192571486D01*
X264216486Y-192785771D01*
X264145057Y-192928629D01*
X264073629Y-193000057D01*
X263930771Y-193071486D01*
X263359343Y-193071486D01*
X265430771Y-193714343D02*
X265287914Y-193785771D01*
X265002200Y-193785771D01*
X264859343Y-193714343D01*
X264787914Y-193571486D01*
X264787914Y-193000057D01*
X264859343Y-192857200D01*
X265002200Y-192785771D01*
X265287914Y-192785771D01*
X265430771Y-192857200D01*
X265502200Y-193000057D01*
X265502200Y-193142914D01*
X264787914Y-193285771D01*
X266002200Y-192785771D02*
X266359343Y-193785771D01*
X266716485Y-192785771D01*
X267287914Y-193642914D02*
X267359342Y-193714343D01*
X267287914Y-193785771D01*
X267216485Y-193714343D01*
X267287914Y-193642914D01*
X267287914Y-193785771D01*
X267287914Y-192857200D02*
X267359342Y-192928629D01*
X267287914Y-193000057D01*
X267216485Y-192928629D01*
X267287914Y-192857200D01*
X267287914Y-193000057D01*
X269430771Y-192285771D02*
X269573628Y-192285771D01*
X269716485Y-192357200D01*
X269787914Y-192428629D01*
X269859343Y-192571486D01*
X269930771Y-192857200D01*
X269930771Y-193214343D01*
X269859343Y-193500057D01*
X269787914Y-193642914D01*
X269716485Y-193714343D01*
X269573628Y-193785771D01*
X269430771Y-193785771D01*
X269287914Y-193714343D01*
X269216485Y-193642914D01*
X269145057Y-193500057D01*
X269073628Y-193214343D01*
X269073628Y-192857200D01*
X269145057Y-192571486D01*
X269216485Y-192428629D01*
X269287914Y-192357200D01*
X269430771Y-192285771D01*
X270573628Y-193642914D02*
X270645056Y-193714343D01*
X270573628Y-193785771D01*
X270502199Y-193714343D01*
X270573628Y-193642914D01*
X270573628Y-193785771D01*
X271145057Y-192285771D02*
X272073628Y-192285771D01*
X271573628Y-192857200D01*
X271787914Y-192857200D01*
X271930771Y-192928629D01*
X272002200Y-193000057D01*
X272073628Y-193142914D01*
X272073628Y-193500057D01*
X272002200Y-193642914D01*
X271930771Y-193714343D01*
X271787914Y-193785771D01*
X271359342Y-193785771D01*
X271216485Y-193714343D01*
X271145057Y-193642914D01*
D10*
D11*
X178287914Y-193714343D02*
X178502200Y-193785771D01*
X178859343Y-193785771D01*
X179002200Y-193714343D01*
X179073629Y-193642914D01*
X179145057Y-193500057D01*
X179145057Y-193357200D01*
X179073629Y-193214343D01*
X179002200Y-193142914D01*
X178859343Y-193071486D01*
X178573629Y-193000057D01*
X178430771Y-192928629D01*
X178359343Y-192857200D01*
X178287914Y-192714343D01*
X178287914Y-192571486D01*
X178359343Y-192428629D01*
X178430771Y-192357200D01*
X178573629Y-192285771D01*
X178930771Y-192285771D01*
X179145057Y-192357200D01*
X179787914Y-193785771D02*
X179787914Y-192785771D01*
X179787914Y-192285771D02*
X179716485Y-192357200D01*
X179787914Y-192428629D01*
X179859342Y-192357200D01*
X179787914Y-192285771D01*
X179787914Y-192428629D01*
X180359343Y-192785771D02*
X181145057Y-192785771D01*
X180359343Y-193785771D01*
X181145057Y-193785771D01*
X182287914Y-193714343D02*
X182145057Y-193785771D01*
X181859343Y-193785771D01*
X181716486Y-193714343D01*
X181645057Y-193571486D01*
X181645057Y-193000057D01*
X181716486Y-192857200D01*
X181859343Y-192785771D01*
X182145057Y-192785771D01*
X182287914Y-192857200D01*
X182359343Y-193000057D01*
X182359343Y-193142914D01*
X181645057Y-193285771D01*
X183002200Y-193642914D02*
X183073628Y-193714343D01*
X183002200Y-193785771D01*
X182930771Y-193714343D01*
X183002200Y-193642914D01*
X183002200Y-193785771D01*
X183002200Y-192857200D02*
X183073628Y-192928629D01*
X183002200Y-193000057D01*
X182930771Y-192928629D01*
X183002200Y-192857200D01*
X183002200Y-193000057D01*
X184787914Y-193357200D02*
X185502200Y-193357200D01*
X184645057Y-193785771D02*
X185145057Y-192285771D01*
X185645057Y-193785771D01*
X186787914Y-192785771D02*
X186787914Y-193785771D01*
X186430771Y-192214343D02*
X186073628Y-193285771D01*
X187002200Y-193285771D01*
D10*
D11*
X263359343Y-196585771D02*
X263359343Y-195085771D01*
X264716486Y-196585771D02*
X264716486Y-195085771D01*
X264716486Y-196514343D02*
X264573629Y-196585771D01*
X264287915Y-196585771D01*
X264145057Y-196514343D01*
X264073629Y-196442914D01*
X264002200Y-196300057D01*
X264002200Y-195871486D01*
X264073629Y-195728629D01*
X264145057Y-195657200D01*
X264287915Y-195585771D01*
X264573629Y-195585771D01*
X264716486Y-195657200D01*
X265430772Y-196442914D02*
X265502200Y-196514343D01*
X265430772Y-196585771D01*
X265359343Y-196514343D01*
X265430772Y-196442914D01*
X265430772Y-196585771D01*
X265430772Y-195657200D02*
X265502200Y-195728629D01*
X265430772Y-195800057D01*
X265359343Y-195728629D01*
X265430772Y-195657200D01*
X265430772Y-195800057D01*
X268073629Y-196585771D02*
X267216486Y-196585771D01*
X267645058Y-196585771D02*
X267645058Y-195085771D01*
X267502201Y-195300057D01*
X267359343Y-195442914D01*
X267216486Y-195514343D01*
X269787914Y-195014343D02*
X268502200Y-196942914D01*
X271073629Y-196585771D02*
X270216486Y-196585771D01*
X270645058Y-196585771D02*
X270645058Y-195085771D01*
X270502201Y-195300057D01*
X270359343Y-195442914D01*
X270216486Y-195514343D01*
D10*
D11*
X177002200Y-187507200D02*
X285002200Y-187507200D01*
D10*
D13*
X178454581Y-188211962D02*
X179597438Y-188211962D01*
X178776010Y-190211962D02*
X179026010Y-188211962D01*
X180014105Y-190211962D02*
X180180771Y-188878629D01*
X180264105Y-188211962D02*
X180156962Y-188307200D01*
X180240295Y-188402438D01*
X180347439Y-188307200D01*
X180264105Y-188211962D01*
X180240295Y-188402438D01*
X180847438Y-188878629D02*
X181609343Y-188878629D01*
X181216486Y-188211962D02*
X181002200Y-189926248D01*
X181073630Y-190116724D01*
X181252201Y-190211962D01*
X181442677Y-190211962D01*
X182395058Y-190211962D02*
X182216487Y-190116724D01*
X182145057Y-189926248D01*
X182359343Y-188211962D01*
X183930772Y-190116724D02*
X183728391Y-190211962D01*
X183347439Y-190211962D01*
X183168867Y-190116724D01*
X183097438Y-189926248D01*
X183192676Y-189164343D01*
X183311724Y-188973867D01*
X183514105Y-188878629D01*
X183895057Y-188878629D01*
X184073629Y-188973867D01*
X184145057Y-189164343D01*
X184121248Y-189354819D01*
X183145057Y-189545295D01*
X184895057Y-190021486D02*
X184978392Y-190116724D01*
X184871248Y-190211962D01*
X184787915Y-190116724D01*
X184895057Y-190021486D01*
X184871248Y-190211962D01*
X185026010Y-188973867D02*
X185109344Y-189069105D01*
X185002200Y-189164343D01*
X184918867Y-189069105D01*
X185026010Y-188973867D01*
X185002200Y-189164343D01*
X188145058Y-189164343D02*
X188418867Y-189259581D01*
X188502202Y-189354819D01*
X188573630Y-189545295D01*
X188537916Y-189831010D01*
X188418868Y-190021486D01*
X188311725Y-190116724D01*
X188109344Y-190211962D01*
X187347439Y-190211962D01*
X187597439Y-188211962D01*
X188264106Y-188211962D01*
X188442677Y-188307200D01*
X188526010Y-188402438D01*
X188597440Y-188592914D01*
X188573630Y-188783390D01*
X188454582Y-188973867D01*
X188347439Y-189069105D01*
X188145058Y-189164343D01*
X187478391Y-189164343D01*
X190299820Y-190211962D02*
X189347439Y-190211962D01*
X189597439Y-188211962D01*
X190966487Y-190211962D02*
X191216487Y-188211962D01*
X191692678Y-188211962D01*
X191966487Y-188307200D01*
X192133154Y-188497676D01*
X192204583Y-188688152D01*
X192252202Y-189069105D01*
X192216488Y-189354819D01*
X192073631Y-189735771D01*
X191954582Y-189926248D01*
X191740297Y-190116724D01*
X191442678Y-190211962D01*
X190966487Y-190211962D01*
X194133154Y-190021486D02*
X194026012Y-190116724D01*
X193728392Y-190211962D01*
X193537916Y-190211962D01*
X193264107Y-190116724D01*
X193097440Y-189926248D01*
X193026011Y-189735771D01*
X192978392Y-189354819D01*
X193014106Y-189069105D01*
X193156963Y-188688152D01*
X193276012Y-188497676D01*
X193490297Y-188307200D01*
X193787916Y-188211962D01*
X193978392Y-188211962D01*
X194252202Y-188307200D01*
X194335535Y-188402438D01*
X197656964Y-190021486D02*
X197549822Y-190116724D01*
X197252202Y-190211962D01*
X197061726Y-190211962D01*
X196787917Y-190116724D01*
X196621250Y-189926248D01*
X196549821Y-189735771D01*
X196502202Y-189354819D01*
X196537916Y-189069105D01*
X196680773Y-188688152D01*
X196799822Y-188497676D01*
X197014107Y-188307200D01*
X197311726Y-188211962D01*
X197502202Y-188211962D01*
X197776012Y-188307200D01*
X197859345Y-188402438D01*
X199121250Y-188211962D02*
X199502202Y-188211962D01*
X199680773Y-188307200D01*
X199847441Y-188497676D01*
X199895059Y-188878629D01*
X199811726Y-189545295D01*
X199668869Y-189926248D01*
X199454583Y-190116724D01*
X199252202Y-190211962D01*
X198871250Y-190211962D01*
X198692679Y-190116724D01*
X198526011Y-189926248D01*
X198478392Y-189545295D01*
X198561725Y-188878629D01*
X198704583Y-188497676D01*
X198918869Y-188307200D01*
X199121250Y-188211962D01*
X200585535Y-190211962D02*
X200835535Y-188211962D01*
X201728393Y-190211962D01*
X201978393Y-188211962D01*
X202645059Y-188211962D02*
X203787916Y-188211962D01*
X202966488Y-190211962D02*
X203216488Y-188211962D01*
X205347441Y-190211962D02*
X204799821Y-189259581D01*
X204204583Y-190211962D02*
X204454583Y-188211962D01*
X205216488Y-188211962D01*
X205395059Y-188307200D01*
X205478393Y-188402438D01*
X205549822Y-188592914D01*
X205514107Y-188878629D01*
X205395060Y-189069105D01*
X205287916Y-189164343D01*
X205085535Y-189259581D01*
X204323630Y-189259581D01*
X206835536Y-188211962D02*
X207216488Y-188211962D01*
X207395059Y-188307200D01*
X207561727Y-188497676D01*
X207609345Y-188878629D01*
X207526012Y-189545295D01*
X207383155Y-189926248D01*
X207168869Y-190116724D01*
X206966488Y-190211962D01*
X206585536Y-190211962D01*
X206406965Y-190116724D01*
X206240297Y-189926248D01*
X206192678Y-189545295D01*
X206276011Y-188878629D01*
X206418869Y-188497676D01*
X206633155Y-188307200D01*
X206835536Y-188211962D01*
X209252202Y-190211962D02*
X208299821Y-190211962D01*
X208549821Y-188211962D01*
X210871250Y-190211962D02*
X209918869Y-190211962D01*
X210168869Y-188211962D01*
X211668869Y-189164343D02*
X212335536Y-189164343D01*
X212490298Y-190211962D02*
X211537917Y-190211962D01*
X211787917Y-188211962D01*
X212740298Y-188211962D01*
X214490299Y-190211962D02*
X213942679Y-189259581D01*
X213347441Y-190211962D02*
X213597441Y-188211962D01*
X214359346Y-188211962D01*
X214537917Y-188307200D01*
X214621251Y-188402438D01*
X214692680Y-188592914D01*
X214656965Y-188878629D01*
X214537918Y-189069105D01*
X214430774Y-189164343D01*
X214228393Y-189259581D01*
X213466488Y-189259581D01*
D10*
D11*
X178859343Y-185600057D02*
X178359343Y-185600057D01*
X178359343Y-186385771D02*
X178359343Y-184885771D01*
X179073629Y-184885771D01*
X179645057Y-186385771D02*
X179645057Y-185385771D01*
X179645057Y-184885771D02*
X179573628Y-184957200D01*
X179645057Y-185028629D01*
X179716485Y-184957200D01*
X179645057Y-184885771D01*
X179645057Y-185028629D01*
X180573629Y-186385771D02*
X180430771Y-186314343D01*
X180359343Y-186171486D01*
X180359343Y-184885771D01*
X181716485Y-186314343D02*
X181573628Y-186385771D01*
X181287914Y-186385771D01*
X181145057Y-186314343D01*
X181073628Y-186171486D01*
X181073628Y-185600057D01*
X181145057Y-185457200D01*
X181287914Y-185385771D01*
X181573628Y-185385771D01*
X181716485Y-185457200D01*
X181787914Y-185600057D01*
X181787914Y-185742914D01*
X181073628Y-185885771D01*
X182430771Y-186242914D02*
X182502199Y-186314343D01*
X182430771Y-186385771D01*
X182359342Y-186314343D01*
X182430771Y-186242914D01*
X182430771Y-186385771D01*
X182430771Y-185457200D02*
X182502199Y-185528629D01*
X182430771Y-185600057D01*
X182359342Y-185528629D01*
X182430771Y-185457200D01*
X182430771Y-185600057D01*
X184787914Y-185600057D02*
X185002200Y-185671486D01*
X185073628Y-185742914D01*
X185145057Y-185885771D01*
X185145057Y-186100057D01*
X185073628Y-186242914D01*
X185002200Y-186314343D01*
X184859342Y-186385771D01*
X184287914Y-186385771D01*
X184287914Y-184885771D01*
X184787914Y-184885771D01*
X184930771Y-184957200D01*
X185002200Y-185028629D01*
X185073628Y-185171486D01*
X185073628Y-185314343D01*
X185002200Y-185457200D01*
X184930771Y-185528629D01*
X184787914Y-185600057D01*
X184287914Y-185600057D01*
X186502200Y-186385771D02*
X185787914Y-186385771D01*
X185787914Y-184885771D01*
X187002200Y-186385771D02*
X187002200Y-184885771D01*
X187359343Y-184885771D01*
X187573628Y-184957200D01*
X187716486Y-185100057D01*
X187787914Y-185242914D01*
X187859343Y-185528629D01*
X187859343Y-185742914D01*
X187787914Y-186028629D01*
X187716486Y-186171486D01*
X187573628Y-186314343D01*
X187359343Y-186385771D01*
X187002200Y-186385771D01*
X189359343Y-186242914D02*
X189287914Y-186314343D01*
X189073628Y-186385771D01*
X188930771Y-186385771D01*
X188716486Y-186314343D01*
X188573628Y-186171486D01*
X188502200Y-186028629D01*
X188430771Y-185742914D01*
X188430771Y-185528629D01*
X188502200Y-185242914D01*
X188573628Y-185100057D01*
X188716486Y-184957200D01*
X188930771Y-184885771D01*
X189073628Y-184885771D01*
X189287914Y-184957200D01*
X189359343Y-185028629D01*
X189645057Y-186528629D02*
X190787914Y-186528629D01*
X191787914Y-186314343D02*
X191645057Y-186385771D01*
X191359343Y-186385771D01*
X191216485Y-186314343D01*
X191145057Y-186242914D01*
X191073628Y-186100057D01*
X191073628Y-185671486D01*
X191145057Y-185528629D01*
X191216485Y-185457200D01*
X191359343Y-185385771D01*
X191645057Y-185385771D01*
X191787914Y-185457200D01*
X192645057Y-186385771D02*
X192502199Y-186314343D01*
X192430771Y-186242914D01*
X192359342Y-186100057D01*
X192359342Y-185671486D01*
X192430771Y-185528629D01*
X192502199Y-185457200D01*
X192645057Y-185385771D01*
X192859342Y-185385771D01*
X193002199Y-185457200D01*
X193073628Y-185528629D01*
X193145057Y-185671486D01*
X193145057Y-186100057D01*
X193073628Y-186242914D01*
X193002199Y-186314343D01*
X192859342Y-186385771D01*
X192645057Y-186385771D01*
X193787914Y-185385771D02*
X193787914Y-186385771D01*
X193787914Y-185528629D02*
X193859342Y-185457200D01*
X194002200Y-185385771D01*
X194216485Y-185385771D01*
X194359342Y-185457200D01*
X194430771Y-185600057D01*
X194430771Y-186385771D01*
X194930771Y-185385771D02*
X195502200Y-185385771D01*
X195145057Y-184885771D02*
X195145057Y-186171486D01*
X195216485Y-186314343D01*
X195359343Y-186385771D01*
X195502200Y-186385771D01*
X196002200Y-186385771D02*
X196002200Y-185385771D01*
X196002200Y-185671486D02*
X196073628Y-185528629D01*
X196145057Y-185457200D01*
X196287914Y-185385771D01*
X196430771Y-185385771D01*
X197145057Y-186385771D02*
X197002199Y-186314343D01*
X196930771Y-186242914D01*
X196859342Y-186100057D01*
X196859342Y-185671486D01*
X196930771Y-185528629D01*
X197002199Y-185457200D01*
X197145057Y-185385771D01*
X197359342Y-185385771D01*
X197502199Y-185457200D01*
X197573628Y-185528629D01*
X197645057Y-185671486D01*
X197645057Y-186100057D01*
X197573628Y-186242914D01*
X197502199Y-186314343D01*
X197359342Y-186385771D01*
X197145057Y-186385771D01*
X198502200Y-186385771D02*
X198359342Y-186314343D01*
X198287914Y-186171486D01*
X198287914Y-184885771D01*
X199287914Y-186385771D02*
X199145056Y-186314343D01*
X199073628Y-186171486D01*
X199073628Y-184885771D01*
X200430770Y-186314343D02*
X200287913Y-186385771D01*
X200002199Y-186385771D01*
X199859342Y-186314343D01*
X199787913Y-186171486D01*
X199787913Y-185600057D01*
X199859342Y-185457200D01*
X200002199Y-185385771D01*
X200287913Y-185385771D01*
X200430770Y-185457200D01*
X200502199Y-185600057D01*
X200502199Y-185742914D01*
X199787913Y-185885771D01*
X201145056Y-186385771D02*
X201145056Y-185385771D01*
X201145056Y-185671486D02*
X201216484Y-185528629D01*
X201287913Y-185457200D01*
X201430770Y-185385771D01*
X201573627Y-185385771D01*
X202073627Y-186242914D02*
X202145055Y-186314343D01*
X202073627Y-186385771D01*
X202002198Y-186314343D01*
X202073627Y-186242914D01*
X202073627Y-186385771D01*
X202787913Y-186385771D02*
X202787913Y-184885771D01*
X202930770Y-185814343D02*
X203359341Y-186385771D01*
X203359341Y-185385771D02*
X202787913Y-185957200D01*
X204002199Y-186385771D02*
X204002199Y-185385771D01*
X204002199Y-184885771D02*
X203930770Y-184957200D01*
X204002199Y-185028629D01*
X204073627Y-184957200D01*
X204002199Y-184885771D01*
X204002199Y-185028629D01*
X205359342Y-186314343D02*
X205216485Y-186385771D01*
X204930771Y-186385771D01*
X204787913Y-186314343D01*
X204716485Y-186242914D01*
X204645056Y-186100057D01*
X204645056Y-185671486D01*
X204716485Y-185528629D01*
X204787913Y-185457200D01*
X204930771Y-185385771D01*
X205216485Y-185385771D01*
X205359342Y-185457200D01*
X206645056Y-186385771D02*
X206645056Y-185600057D01*
X206573627Y-185457200D01*
X206430770Y-185385771D01*
X206145056Y-185385771D01*
X206002199Y-185457200D01*
X206645056Y-186314343D02*
X206502199Y-186385771D01*
X206145056Y-186385771D01*
X206002199Y-186314343D01*
X205930770Y-186171486D01*
X205930770Y-186028629D01*
X206002199Y-185885771D01*
X206145056Y-185814343D01*
X206502199Y-185814343D01*
X206645056Y-185742914D01*
X208002199Y-186385771D02*
X208002199Y-184885771D01*
X208002199Y-186314343D02*
X207859342Y-186385771D01*
X207573628Y-186385771D01*
X207430770Y-186314343D01*
X207359342Y-186242914D01*
X207287913Y-186100057D01*
X207287913Y-185671486D01*
X207359342Y-185528629D01*
X207430770Y-185457200D01*
X207573628Y-185385771D01*
X207859342Y-185385771D01*
X208002199Y-185457200D01*
X208359342Y-186528629D02*
X209502199Y-186528629D01*
X209859342Y-185385771D02*
X209859342Y-186885771D01*
X209859342Y-185457200D02*
X210002199Y-185385771D01*
X210287913Y-185385771D01*
X210430770Y-185457200D01*
X210502199Y-185528629D01*
X210573628Y-185671486D01*
X210573628Y-186100057D01*
X210502199Y-186242914D01*
X210430770Y-186314343D01*
X210287913Y-186385771D01*
X210002199Y-186385771D01*
X209859342Y-186314343D01*
X211859342Y-186314343D02*
X211716485Y-186385771D01*
X211430771Y-186385771D01*
X211287913Y-186314343D01*
X211216485Y-186242914D01*
X211145056Y-186100057D01*
X211145056Y-185671486D01*
X211216485Y-185528629D01*
X211287913Y-185457200D01*
X211430771Y-185385771D01*
X211716485Y-185385771D01*
X211859342Y-185457200D01*
X212502199Y-186385771D02*
X212502199Y-184885771D01*
X212502199Y-185457200D02*
X212645056Y-185385771D01*
X212930770Y-185385771D01*
X213073627Y-185457200D01*
X213145056Y-185528629D01*
X213216485Y-185671486D01*
X213216485Y-186100057D01*
X213145056Y-186242914D01*
X213073627Y-186314343D01*
X212930770Y-186385771D01*
X212645056Y-186385771D01*
X212502199Y-186314343D01*
D10*
D11*
X177002200Y-181507200D02*
X285002200Y-181507200D01*
D10*
D11*
X178287914Y-183614343D02*
X178502200Y-183685771D01*
X178859343Y-183685771D01*
X179002200Y-183614343D01*
X179073629Y-183542914D01*
X179145057Y-183400057D01*
X179145057Y-183257200D01*
X179073629Y-183114343D01*
X179002200Y-183042914D01*
X178859343Y-182971486D01*
X178573629Y-182900057D01*
X178430771Y-182828629D01*
X178359343Y-182757200D01*
X178287914Y-182614343D01*
X178287914Y-182471486D01*
X178359343Y-182328629D01*
X178430771Y-182257200D01*
X178573629Y-182185771D01*
X178930771Y-182185771D01*
X179145057Y-182257200D01*
X179787914Y-183685771D02*
X179787914Y-182185771D01*
X180430771Y-183685771D02*
X180430771Y-182900057D01*
X180359342Y-182757200D01*
X180216485Y-182685771D01*
X180002200Y-182685771D01*
X179859342Y-182757200D01*
X179787914Y-182828629D01*
X181716485Y-183614343D02*
X181573628Y-183685771D01*
X181287914Y-183685771D01*
X181145057Y-183614343D01*
X181073628Y-183471486D01*
X181073628Y-182900057D01*
X181145057Y-182757200D01*
X181287914Y-182685771D01*
X181573628Y-182685771D01*
X181716485Y-182757200D01*
X181787914Y-182900057D01*
X181787914Y-183042914D01*
X181073628Y-183185771D01*
X183002199Y-183614343D02*
X182859342Y-183685771D01*
X182573628Y-183685771D01*
X182430771Y-183614343D01*
X182359342Y-183471486D01*
X182359342Y-182900057D01*
X182430771Y-182757200D01*
X182573628Y-182685771D01*
X182859342Y-182685771D01*
X183002199Y-182757200D01*
X183073628Y-182900057D01*
X183073628Y-183042914D01*
X182359342Y-183185771D01*
X183502199Y-182685771D02*
X184073628Y-182685771D01*
X183716485Y-182185771D02*
X183716485Y-183471486D01*
X183787913Y-183614343D01*
X183930771Y-183685771D01*
X184073628Y-183685771D01*
X184573628Y-183542914D02*
X184645056Y-183614343D01*
X184573628Y-183685771D01*
X184502199Y-183614343D01*
X184573628Y-183542914D01*
X184573628Y-183685771D01*
X184573628Y-182757200D02*
X184645056Y-182828629D01*
X184573628Y-182900057D01*
X184502199Y-182828629D01*
X184573628Y-182757200D01*
X184573628Y-182900057D01*
D10*
D12*
X178359343Y-180685771D02*
X178359343Y-179185771D01*
X178359343Y-179900057D02*
X179216486Y-179900057D01*
X179216486Y-180685771D02*
X179216486Y-179185771D01*
X180502200Y-180614343D02*
X180359343Y-180685771D01*
X180073629Y-180685771D01*
X179930772Y-180614343D01*
X179859343Y-180471486D01*
X179859343Y-179900057D01*
X179930772Y-179757200D01*
X180073629Y-179685771D01*
X180359343Y-179685771D01*
X180502200Y-179757200D01*
X180573629Y-179900057D01*
X180573629Y-180042914D01*
X179859343Y-180185771D01*
X181430772Y-180685771D02*
X181287914Y-180614343D01*
X181216486Y-180471486D01*
X181216486Y-179185771D01*
X181930771Y-180614343D02*
X182073628Y-180685771D01*
X182359343Y-180685771D01*
X182502200Y-180614343D01*
X182573628Y-180471486D01*
X182573628Y-180400057D01*
X182502200Y-180257200D01*
X182359343Y-180185771D01*
X182145057Y-180185771D01*
X182002200Y-180114343D01*
X181930771Y-179971486D01*
X181930771Y-179900057D01*
X182002200Y-179757200D01*
X182145057Y-179685771D01*
X182359343Y-179685771D01*
X182502200Y-179757200D01*
X183216486Y-180685771D02*
X183216486Y-179685771D01*
X183216486Y-179185771D02*
X183145057Y-179257200D01*
X183216486Y-179328629D01*
X183287914Y-179257200D01*
X183216486Y-179185771D01*
X183216486Y-179328629D01*
X183930772Y-179685771D02*
X183930772Y-180685771D01*
X183930772Y-179828629D02*
X184002200Y-179757200D01*
X184145058Y-179685771D01*
X184359343Y-179685771D01*
X184502200Y-179757200D01*
X184573629Y-179900057D01*
X184573629Y-180685771D01*
X185287915Y-180685771D02*
X185287915Y-179185771D01*
X185430772Y-180114343D02*
X185859343Y-180685771D01*
X185859343Y-179685771D02*
X185287915Y-180257200D01*
X186502201Y-180685771D02*
X186502201Y-179685771D01*
X186502201Y-179185771D02*
X186430772Y-179257200D01*
X186502201Y-179328629D01*
X186573629Y-179257200D01*
X186502201Y-179185771D01*
X186502201Y-179328629D01*
X188359344Y-180685771D02*
X188359344Y-179185771D01*
X188359344Y-179900057D02*
X189216487Y-179900057D01*
X189216487Y-180685771D02*
X189216487Y-179185771D01*
X190573630Y-180685771D02*
X190573630Y-179900057D01*
X190502201Y-179757200D01*
X190359344Y-179685771D01*
X190073630Y-179685771D01*
X189930773Y-179757200D01*
X190573630Y-180614343D02*
X190430773Y-180685771D01*
X190073630Y-180685771D01*
X189930773Y-180614343D01*
X189859344Y-180471486D01*
X189859344Y-180328629D01*
X189930773Y-180185771D01*
X190073630Y-180114343D01*
X190430773Y-180114343D01*
X190573630Y-180042914D01*
X191930773Y-180614343D02*
X191787916Y-180685771D01*
X191502202Y-180685771D01*
X191359344Y-180614343D01*
X191287916Y-180542914D01*
X191216487Y-180400057D01*
X191216487Y-179971486D01*
X191287916Y-179828629D01*
X191359344Y-179757200D01*
X191502202Y-179685771D01*
X191787916Y-179685771D01*
X191930773Y-179757200D01*
X192573630Y-180685771D02*
X192573630Y-179185771D01*
X192716487Y-180114343D02*
X193145058Y-180685771D01*
X193145058Y-179685771D02*
X192573630Y-180257200D01*
X194002202Y-180685771D02*
X193859344Y-180614343D01*
X193787916Y-180471486D01*
X193787916Y-179185771D01*
X195216487Y-180685771D02*
X195216487Y-179900057D01*
X195145058Y-179757200D01*
X195002201Y-179685771D01*
X194716487Y-179685771D01*
X194573630Y-179757200D01*
X195216487Y-180614343D02*
X195073630Y-180685771D01*
X194716487Y-180685771D01*
X194573630Y-180614343D01*
X194502201Y-180471486D01*
X194502201Y-180328629D01*
X194573630Y-180185771D01*
X194716487Y-180114343D01*
X195073630Y-180114343D01*
X195216487Y-180042914D01*
X195930773Y-180685771D02*
X195930773Y-179185771D01*
X195930773Y-179757200D02*
X196073630Y-179685771D01*
X196359344Y-179685771D01*
X196502201Y-179757200D01*
X196573630Y-179828629D01*
X196645059Y-179971486D01*
X196645059Y-180400057D01*
X196573630Y-180542914D01*
X196502201Y-180614343D01*
X196359344Y-180685771D01*
X196073630Y-180685771D01*
X195930773Y-180614343D01*
D10*
D11*
X178145057Y-176185771D02*
X179002200Y-176185771D01*
X178573629Y-177685771D02*
X178573629Y-176185771D01*
X180073628Y-177614343D02*
X179930771Y-177685771D01*
X179645057Y-177685771D01*
X179502200Y-177614343D01*
X179430771Y-177471486D01*
X179430771Y-176900057D01*
X179502200Y-176757200D01*
X179645057Y-176685771D01*
X179930771Y-176685771D01*
X180073628Y-176757200D01*
X180145057Y-176900057D01*
X180145057Y-177042914D01*
X179430771Y-177185771D01*
X180787914Y-177685771D02*
X180787914Y-176685771D01*
X180787914Y-176971486D02*
X180859342Y-176828629D01*
X180930771Y-176757200D01*
X181073628Y-176685771D01*
X181216485Y-176685771D01*
X181930771Y-177685771D02*
X181787913Y-177614343D01*
X181716485Y-177542914D01*
X181645056Y-177400057D01*
X181645056Y-176971486D01*
X181716485Y-176828629D01*
X181787913Y-176757200D01*
X181930771Y-176685771D01*
X182145056Y-176685771D01*
X182287913Y-176757200D01*
X182359342Y-176828629D01*
X182430771Y-176971486D01*
X182430771Y-177400057D01*
X182359342Y-177542914D01*
X182287913Y-177614343D01*
X182145056Y-177685771D01*
X181930771Y-177685771D01*
X184216485Y-177685771D02*
X184216485Y-176185771D01*
X185073628Y-177685771D02*
X184430771Y-176828629D01*
X185073628Y-176185771D02*
X184216485Y-177042914D01*
X186359342Y-177685771D02*
X186359342Y-176900057D01*
X186287913Y-176757200D01*
X186145056Y-176685771D01*
X185859342Y-176685771D01*
X185716485Y-176757200D01*
X186359342Y-177614343D02*
X186216485Y-177685771D01*
X185859342Y-177685771D01*
X185716485Y-177614343D01*
X185645056Y-177471486D01*
X185645056Y-177328629D01*
X185716485Y-177185771D01*
X185859342Y-177114343D01*
X186216485Y-177114343D01*
X186359342Y-177042914D01*
X187073628Y-176685771D02*
X187073628Y-178185771D01*
X187073628Y-176757200D02*
X187216485Y-176685771D01*
X187502199Y-176685771D01*
X187645056Y-176757200D01*
X187716485Y-176828629D01*
X187787914Y-176971486D01*
X187787914Y-177400057D01*
X187716485Y-177542914D01*
X187645056Y-177614343D01*
X187502199Y-177685771D01*
X187216485Y-177685771D01*
X187073628Y-177614343D01*
X189073628Y-177685771D02*
X189073628Y-176900057D01*
X189002199Y-176757200D01*
X188859342Y-176685771D01*
X188573628Y-176685771D01*
X188430771Y-176757200D01*
X189073628Y-177614343D02*
X188930771Y-177685771D01*
X188573628Y-177685771D01*
X188430771Y-177614343D01*
X188359342Y-177471486D01*
X188359342Y-177328629D01*
X188430771Y-177185771D01*
X188573628Y-177114343D01*
X188930771Y-177114343D01*
X189073628Y-177042914D01*
X189787914Y-176685771D02*
X189787914Y-177685771D01*
X189787914Y-176828629D02*
X189859342Y-176757200D01*
X190002200Y-176685771D01*
X190216485Y-176685771D01*
X190359342Y-176757200D01*
X190430771Y-176900057D01*
X190430771Y-177685771D01*
X191716485Y-177614343D02*
X191573628Y-177685771D01*
X191287914Y-177685771D01*
X191145057Y-177614343D01*
X191073628Y-177471486D01*
X191073628Y-176900057D01*
X191145057Y-176757200D01*
X191287914Y-176685771D01*
X191573628Y-176685771D01*
X191716485Y-176757200D01*
X191787914Y-176900057D01*
X191787914Y-177042914D01*
X191073628Y-177185771D01*
X192430771Y-176685771D02*
X192430771Y-177685771D01*
X192430771Y-176828629D02*
X192502199Y-176757200D01*
X192645057Y-176685771D01*
X192859342Y-176685771D01*
X193002199Y-176757200D01*
X193073628Y-176900057D01*
X193073628Y-177685771D01*
D10*
D11*
X197002200Y-191507200D02*
X197002200Y-194507200D01*
D10*
D11*
X261002200Y-191507200D02*
X261002200Y-198007200D01*
D14*
X173000000Y-100005000D02*
X173000000Y-111005000D01*
X172500000Y-99505000D02*
X173000000Y-100005000D01*
X172500000Y-84005000D02*
X172500000Y-99505000D01*
X173000000Y-83505000D02*
X172500000Y-84005000D01*
X173000000Y-79005000D02*
X173000000Y-83505000D01*
D10*
G36*
X138836109Y-109557130D02*
X139450846Y-109683318D01*
X140029361Y-109926503D01*
X140549629Y-110277428D01*
X140991822Y-110722718D01*
X141339107Y-111245424D01*
X141578245Y-111825619D01*
X141700071Y-112440880D01*
X141700071Y-112440890D01*
X141700137Y-112441224D01*
X141690128Y-113158007D01*
X141690052Y-113158341D01*
X141690052Y-113158353D01*
X141551098Y-113769963D01*
X141295848Y-114343262D01*
X140934108Y-114856063D01*
X140479647Y-115288839D01*
X139949791Y-115625096D01*
X139364707Y-115852036D01*
X138746691Y-115961008D01*
X138119276Y-115947866D01*
X137506358Y-115813107D01*
X136931294Y-115561867D01*
X136415981Y-115203716D01*
X135980044Y-114752290D01*
X135640096Y-114224794D01*
X135409078Y-113641310D01*
X135295791Y-113024062D01*
X135304554Y-112396572D01*
X135435028Y-111782736D01*
X135682249Y-111205928D01*
X136036796Y-110688126D01*
X136485166Y-110249049D01*
X137010279Y-109905425D01*
X137592135Y-109670339D01*
X138208569Y-109552748D01*
X138836109Y-109557130D01*
X138836109Y-109557130D01*
G37*
G36*
X182336109Y-109557130D02*
X182950846Y-109683318D01*
X183529361Y-109926503D01*
X184049629Y-110277428D01*
X184491822Y-110722718D01*
X184839107Y-111245424D01*
X185078245Y-111825619D01*
X185200071Y-112440880D01*
X185200071Y-112440890D01*
X185200137Y-112441224D01*
X185190128Y-113158007D01*
X185190052Y-113158341D01*
X185190052Y-113158353D01*
X185051098Y-113769963D01*
X184795848Y-114343262D01*
X184434108Y-114856063D01*
X183979647Y-115288839D01*
X183449791Y-115625096D01*
X182864707Y-115852036D01*
X182246691Y-115961008D01*
X181619276Y-115947866D01*
X181006358Y-115813107D01*
X180431294Y-115561867D01*
X179915981Y-115203716D01*
X179480044Y-114752290D01*
X179140096Y-114224794D01*
X178909078Y-113641310D01*
X178795791Y-113024062D01*
X178804554Y-112396572D01*
X178935028Y-111782736D01*
X179182249Y-111205928D01*
X179536796Y-110688126D01*
X179985166Y-110249049D01*
X180510279Y-109905425D01*
X181092135Y-109670339D01*
X181708569Y-109552748D01*
X182336109Y-109557130D01*
X182336109Y-109557130D01*
G37*
G36*
X177189478Y-113304164D02*
X177894987Y-113304994D01*
X177900000Y-113305000D01*
X177900000Y-115305000D01*
X174362934Y-115300836D01*
X173657425Y-115300006D01*
X173652412Y-115300000D01*
X173652412Y-113300000D01*
X177189478Y-113304164D01*
X177189478Y-113304164D01*
G37*
G36*
X163365000Y-112800000D02*
X162315000Y-112800000D01*
X162315000Y-111410000D01*
X163365000Y-111410000D01*
X163365000Y-112800000D01*
X163365000Y-112800000D01*
G37*
G36*
X164785000Y-112800000D02*
X163735000Y-112800000D01*
X163735000Y-111410000D01*
X164785000Y-111410000D01*
X164785000Y-112800000D01*
X164785000Y-112800000D01*
G37*
G36*
X177975000Y-112775000D02*
X176025000Y-112775000D01*
X176025000Y-111025000D01*
X177975000Y-111025000D01*
X177975000Y-112775000D01*
X177975000Y-112775000D01*
G37*
G36*
X149959782Y-110810631D02*
X150142284Y-110848093D01*
X150314029Y-110920288D01*
X150468483Y-111024468D01*
X150599762Y-111156667D01*
X150702862Y-111311844D01*
X150773856Y-111484089D01*
X150809975Y-111666504D01*
X150809975Y-111666514D01*
X150810041Y-111666848D01*
X150807070Y-111879643D01*
X150806994Y-111879977D01*
X150806994Y-111879989D01*
X150765798Y-112061316D01*
X150690019Y-112231516D01*
X150582628Y-112383754D01*
X150447707Y-112512237D01*
X150290408Y-112612061D01*
X150116710Y-112679435D01*
X149933238Y-112711785D01*
X149746974Y-112707884D01*
X149565011Y-112667877D01*
X149394289Y-112593290D01*
X149241306Y-112486964D01*
X149111885Y-112352946D01*
X149010965Y-112196348D01*
X148942381Y-112023125D01*
X148908748Y-111839876D01*
X148911350Y-111653591D01*
X148950084Y-111471360D01*
X149023479Y-111300118D01*
X149128735Y-111146396D01*
X149261846Y-111016043D01*
X149417738Y-110914030D01*
X149590477Y-110844239D01*
X149773479Y-110809330D01*
X149959782Y-110810631D01*
X149959782Y-110810631D01*
G37*
G36*
X152499782Y-110810631D02*
X152682284Y-110848093D01*
X152854029Y-110920288D01*
X153008483Y-111024468D01*
X153139762Y-111156667D01*
X153242862Y-111311844D01*
X153313856Y-111484089D01*
X153349975Y-111666504D01*
X153349975Y-111666514D01*
X153350041Y-111666848D01*
X153347070Y-111879643D01*
X153346994Y-111879977D01*
X153346994Y-111879989D01*
X153305798Y-112061316D01*
X153230019Y-112231516D01*
X153122628Y-112383754D01*
X152987707Y-112512237D01*
X152830408Y-112612061D01*
X152656710Y-112679435D01*
X152473238Y-112711785D01*
X152286974Y-112707884D01*
X152105011Y-112667877D01*
X151934289Y-112593290D01*
X151781306Y-112486964D01*
X151651885Y-112352946D01*
X151550965Y-112196348D01*
X151482381Y-112023125D01*
X151448748Y-111839876D01*
X151451350Y-111653591D01*
X151490084Y-111471360D01*
X151563479Y-111300118D01*
X151668735Y-111146396D01*
X151801846Y-111016043D01*
X151957738Y-110914030D01*
X152130477Y-110844239D01*
X152313479Y-110809330D01*
X152499782Y-110810631D01*
X152499782Y-110810631D01*
G37*
G36*
X155039782Y-110810631D02*
X155222284Y-110848093D01*
X155394029Y-110920288D01*
X155548483Y-111024468D01*
X155679762Y-111156667D01*
X155782862Y-111311844D01*
X155853856Y-111484089D01*
X155889975Y-111666504D01*
X155889975Y-111666514D01*
X155890041Y-111666848D01*
X155887070Y-111879643D01*
X155886994Y-111879977D01*
X155886994Y-111879989D01*
X155845798Y-112061316D01*
X155770019Y-112231516D01*
X155662628Y-112383754D01*
X155527707Y-112512237D01*
X155370408Y-112612061D01*
X155196710Y-112679435D01*
X155013238Y-112711785D01*
X154826974Y-112707884D01*
X154645011Y-112667877D01*
X154474289Y-112593290D01*
X154321306Y-112486964D01*
X154191885Y-112352946D01*
X154090965Y-112196348D01*
X154022381Y-112023125D01*
X153988748Y-111839876D01*
X153991350Y-111653591D01*
X154030084Y-111471360D01*
X154103479Y-111300118D01*
X154208735Y-111146396D01*
X154341846Y-111016043D01*
X154497738Y-110914030D01*
X154670477Y-110844239D01*
X154853479Y-110809330D01*
X155039782Y-110810631D01*
X155039782Y-110810631D01*
G37*
G36*
X157579782Y-110810631D02*
X157762284Y-110848093D01*
X157934029Y-110920288D01*
X158088483Y-111024468D01*
X158219762Y-111156667D01*
X158322862Y-111311844D01*
X158393856Y-111484089D01*
X158429975Y-111666504D01*
X158429975Y-111666514D01*
X158430041Y-111666848D01*
X158427070Y-111879643D01*
X158426994Y-111879977D01*
X158426994Y-111879989D01*
X158385798Y-112061316D01*
X158310019Y-112231516D01*
X158202628Y-112383754D01*
X158067707Y-112512237D01*
X157910408Y-112612061D01*
X157736710Y-112679435D01*
X157553238Y-112711785D01*
X157366974Y-112707884D01*
X157185011Y-112667877D01*
X157014289Y-112593290D01*
X156861306Y-112486964D01*
X156731885Y-112352946D01*
X156630965Y-112196348D01*
X156562381Y-112023125D01*
X156528748Y-111839876D01*
X156531350Y-111653591D01*
X156570084Y-111471360D01*
X156643479Y-111300118D01*
X156748735Y-111146396D01*
X156881846Y-111016043D01*
X157037738Y-110914030D01*
X157210477Y-110844239D01*
X157393479Y-110809330D01*
X157579782Y-110810631D01*
X157579782Y-110810631D01*
G37*
G36*
X148270000Y-112710000D02*
X146370000Y-112710000D01*
X146370000Y-110810000D01*
X148270000Y-110810000D01*
X148270000Y-112710000D01*
X148270000Y-112710000D01*
G37*
G36*
X161850000Y-112555000D02*
X160150000Y-112555000D01*
X160150000Y-111555000D01*
X161850000Y-111555000D01*
X161850000Y-112555000D01*
X161850000Y-112555000D01*
G37*
G36*
X177975000Y-110775000D02*
X176025000Y-110775000D01*
X176025000Y-109025000D01*
X177975000Y-109025000D01*
X177975000Y-110775000D01*
X177975000Y-110775000D01*
G37*
G36*
X151120000Y-109815000D02*
X149080000Y-109815000D01*
X149080000Y-108015000D01*
X151120000Y-108015000D01*
X151120000Y-109815000D01*
X151120000Y-109815000D01*
G37*
G36*
X163085000Y-109800000D02*
X162035000Y-109800000D01*
X162035000Y-108410000D01*
X163085000Y-108410000D01*
X163085000Y-109800000D01*
X163085000Y-109800000D01*
G37*
G36*
X161665000Y-109800000D02*
X160615000Y-109800000D01*
X160615000Y-108410000D01*
X161665000Y-108410000D01*
X161665000Y-109800000D01*
X161665000Y-109800000D01*
G37*
G36*
X147075000Y-109675000D02*
X145325000Y-109675000D01*
X145325000Y-107725000D01*
X147075000Y-107725000D01*
X147075000Y-109675000D01*
X147075000Y-109675000D01*
G37*
G36*
X145075000Y-109675000D02*
X143325000Y-109675000D01*
X143325000Y-107725000D01*
X145075000Y-107725000D01*
X145075000Y-109675000D01*
X145075000Y-109675000D01*
G37*
G36*
X160150000Y-109505000D02*
X158450000Y-109505000D01*
X158450000Y-108505000D01*
X160150000Y-108505000D01*
X160150000Y-109505000D01*
X160150000Y-109505000D01*
G37*
G36*
X166000000Y-108305000D02*
X165000000Y-108305000D01*
X165000000Y-107105000D01*
X166000000Y-107105000D01*
X166000000Y-108305000D01*
X166000000Y-108305000D01*
G37*
G36*
X175425000Y-103150000D02*
X175426980Y-103163930D01*
X175432761Y-103176756D01*
X175441888Y-103187464D01*
X175453636Y-103195206D01*
X175467076Y-103199368D01*
X175475000Y-103200000D01*
X178500000Y-103200000D01*
X178500000Y-107550000D01*
X175475000Y-107550000D01*
X175461070Y-107551980D01*
X175448244Y-107557761D01*
X175437536Y-107566888D01*
X175429794Y-107578636D01*
X175425632Y-107592076D01*
X175425000Y-107600000D01*
X175425000Y-107800000D01*
X173725000Y-107800000D01*
X173725000Y-102950000D01*
X175425000Y-102950000D01*
X175425000Y-103150000D01*
X175425000Y-103150000D01*
G37*
G36*
X180700000Y-107705000D02*
X179400000Y-107705000D01*
X179400000Y-106855000D01*
X180700000Y-106855000D01*
X180700000Y-107705000D01*
X180700000Y-107705000D01*
G37*
G36*
X168065000Y-107700000D02*
X167015000Y-107700000D01*
X167015000Y-106310000D01*
X168065000Y-106310000D01*
X168065000Y-107700000D01*
X168065000Y-107700000D01*
G37*
G36*
X169485000Y-107700000D02*
X168435000Y-107700000D01*
X168435000Y-106310000D01*
X169485000Y-106310000D01*
X169485000Y-107700000D01*
X169485000Y-107700000D01*
G37*
G36*
X146700000Y-106650000D02*
X145300000Y-106650000D01*
X145300000Y-103550000D01*
X146700000Y-103550000D01*
X146700000Y-106650000D01*
X146700000Y-106650000D01*
G37*
G36*
X144500000Y-106650000D02*
X143100000Y-106650000D01*
X143100000Y-103550000D01*
X144500000Y-103550000D01*
X144500000Y-106650000D01*
X144500000Y-106650000D01*
G37*
G36*
X180700000Y-106435000D02*
X179400000Y-106435000D01*
X179400000Y-105585000D01*
X180700000Y-105585000D01*
X180700000Y-106435000D01*
X180700000Y-106435000D01*
G37*
G36*
X166000000Y-105905000D02*
X165000000Y-105905000D01*
X165000000Y-104705000D01*
X166000000Y-104705000D01*
X166000000Y-105905000D01*
X166000000Y-105905000D01*
G37*
G36*
X151120000Y-105785000D02*
X149080000Y-105785000D01*
X149080000Y-103985000D01*
X151120000Y-103985000D01*
X151120000Y-105785000D01*
X151120000Y-105785000D01*
G37*
G36*
X169485000Y-105700000D02*
X168435000Y-105700000D01*
X168435000Y-104310000D01*
X169485000Y-104310000D01*
X169485000Y-105700000D01*
X169485000Y-105700000D01*
G37*
G36*
X168065000Y-105700000D02*
X167015000Y-105700000D01*
X167015000Y-104310000D01*
X168065000Y-104310000D01*
X168065000Y-105700000D01*
X168065000Y-105700000D01*
G37*
G36*
X162435000Y-105195000D02*
X161385000Y-105195000D01*
X161385000Y-103805000D01*
X162435000Y-103805000D01*
X162435000Y-105195000D01*
X162435000Y-105195000D01*
G37*
G36*
X161015000Y-105195000D02*
X159965000Y-105195000D01*
X159965000Y-103805000D01*
X161015000Y-103805000D01*
X161015000Y-105195000D01*
X161015000Y-105195000D01*
G37*
G36*
X180700000Y-105165000D02*
X179400000Y-105165000D01*
X179400000Y-104315000D01*
X180700000Y-104315000D01*
X180700000Y-105165000D01*
X180700000Y-105165000D01*
G37*
G36*
X154615000Y-105095000D02*
X153565000Y-105095000D01*
X153565000Y-103705000D01*
X154615000Y-103705000D01*
X154615000Y-105095000D01*
X154615000Y-105095000D01*
G37*
G36*
X156035000Y-105095000D02*
X154985000Y-105095000D01*
X154985000Y-103705000D01*
X156035000Y-103705000D01*
X156035000Y-105095000D01*
X156035000Y-105095000D01*
G37*
G36*
X180700000Y-103895000D02*
X179400000Y-103895000D01*
X179400000Y-103045000D01*
X180700000Y-103045000D01*
X180700000Y-103895000D01*
X180700000Y-103895000D01*
G37*
G36*
X162880000Y-103600000D02*
X161580000Y-103600000D01*
X161580000Y-102200000D01*
X162880000Y-102200000D01*
X162880000Y-103600000D01*
X162880000Y-103600000D01*
G37*
G36*
X161220000Y-103600000D02*
X159920000Y-103600000D01*
X159920000Y-102200000D01*
X161220000Y-102200000D01*
X161220000Y-103600000D01*
X161220000Y-103600000D01*
G37*
G36*
X151175000Y-103075000D02*
X149425000Y-103075000D01*
X149425000Y-101125000D01*
X151175000Y-101125000D01*
X151175000Y-103075000D01*
X151175000Y-103075000D01*
G37*
G36*
X149175000Y-103075000D02*
X147425000Y-103075000D01*
X147425000Y-101125000D01*
X149175000Y-101125000D01*
X149175000Y-103075000D01*
X149175000Y-103075000D01*
G37*
G36*
X153300000Y-102980000D02*
X151900000Y-102980000D01*
X151900000Y-101680000D01*
X153300000Y-101680000D01*
X153300000Y-102980000D01*
X153300000Y-102980000D01*
G37*
G36*
X155200000Y-93480000D02*
X155077365Y-93480000D01*
X155063435Y-93481980D01*
X155050609Y-93487761D01*
X155039901Y-93496888D01*
X155032159Y-93508636D01*
X155027997Y-93522076D01*
X155027744Y-93536143D01*
X155031420Y-93549724D01*
X155038734Y-93561743D01*
X155049107Y-93571249D01*
X155062580Y-93577764D01*
X155065313Y-93578610D01*
X155065350Y-93578614D01*
X155125943Y-93597370D01*
X155181738Y-93627539D01*
X155218244Y-93657740D01*
X155229923Y-93664900D01*
X155243491Y-93668621D01*
X155257560Y-93668414D01*
X155271013Y-93664296D01*
X155280765Y-93658215D01*
X155322042Y-93625028D01*
X155378253Y-93595641D01*
X155439101Y-93577733D01*
X155439130Y-93577730D01*
X155439148Y-93577725D01*
X155502267Y-93571981D01*
X155565301Y-93578606D01*
X155565315Y-93578610D01*
X155565350Y-93578614D01*
X155625943Y-93597370D01*
X155681738Y-93627539D01*
X155718244Y-93657740D01*
X155729923Y-93664900D01*
X155743491Y-93668621D01*
X155757560Y-93668414D01*
X155771013Y-93664296D01*
X155780765Y-93658215D01*
X155822042Y-93625028D01*
X155878253Y-93595641D01*
X155939101Y-93577733D01*
X155939130Y-93577730D01*
X155939148Y-93577725D01*
X156002267Y-93571981D01*
X156065301Y-93578606D01*
X156065315Y-93578610D01*
X156065350Y-93578614D01*
X156125943Y-93597370D01*
X156181738Y-93627539D01*
X156218244Y-93657740D01*
X156229923Y-93664900D01*
X156243491Y-93668621D01*
X156257560Y-93668414D01*
X156271013Y-93664296D01*
X156280765Y-93658215D01*
X156322042Y-93625028D01*
X156378253Y-93595641D01*
X156439101Y-93577733D01*
X156439130Y-93577730D01*
X156439148Y-93577725D01*
X156502267Y-93571981D01*
X156565301Y-93578606D01*
X156565315Y-93578610D01*
X156565350Y-93578614D01*
X156625943Y-93597370D01*
X156681738Y-93627539D01*
X156718244Y-93657740D01*
X156729923Y-93664900D01*
X156743491Y-93668621D01*
X156757560Y-93668414D01*
X156771013Y-93664296D01*
X156780765Y-93658215D01*
X156822042Y-93625028D01*
X156878253Y-93595641D01*
X156939101Y-93577733D01*
X156939130Y-93577730D01*
X156939148Y-93577725D01*
X157002267Y-93571981D01*
X157065301Y-93578606D01*
X157065315Y-93578610D01*
X157065350Y-93578614D01*
X157125943Y-93597370D01*
X157181738Y-93627539D01*
X157218244Y-93657740D01*
X157229923Y-93664900D01*
X157243491Y-93668621D01*
X157257560Y-93668414D01*
X157271013Y-93664296D01*
X157280765Y-93658215D01*
X157322042Y-93625028D01*
X157378253Y-93595641D01*
X157439101Y-93577733D01*
X157439130Y-93577730D01*
X157439148Y-93577725D01*
X157502267Y-93571981D01*
X157565301Y-93578606D01*
X157565315Y-93578610D01*
X157565350Y-93578614D01*
X157625943Y-93597370D01*
X157681738Y-93627539D01*
X157718244Y-93657740D01*
X157729923Y-93664900D01*
X157743491Y-93668621D01*
X157757560Y-93668414D01*
X157771013Y-93664296D01*
X157780765Y-93658215D01*
X157822042Y-93625028D01*
X157878253Y-93595641D01*
X157939101Y-93577733D01*
X157939130Y-93577730D01*
X157939148Y-93577725D01*
X158002267Y-93571981D01*
X158065301Y-93578606D01*
X158065315Y-93578610D01*
X158065350Y-93578614D01*
X158125943Y-93597370D01*
X158181738Y-93627539D01*
X158218244Y-93657740D01*
X158229923Y-93664900D01*
X158243491Y-93668621D01*
X158257560Y-93668414D01*
X158271013Y-93664296D01*
X158280765Y-93658215D01*
X158322042Y-93625028D01*
X158378253Y-93595641D01*
X158439101Y-93577733D01*
X158439130Y-93577730D01*
X158439148Y-93577725D01*
X158502267Y-93571981D01*
X158565301Y-93578606D01*
X158565315Y-93578610D01*
X158565350Y-93578614D01*
X158625943Y-93597370D01*
X158681738Y-93627539D01*
X158718244Y-93657740D01*
X158729923Y-93664900D01*
X158743491Y-93668621D01*
X158757560Y-93668414D01*
X158771013Y-93664296D01*
X158780765Y-93658215D01*
X158822042Y-93625028D01*
X158878253Y-93595641D01*
X158939101Y-93577733D01*
X158939130Y-93577730D01*
X158939148Y-93577725D01*
X159002267Y-93571981D01*
X159065301Y-93578606D01*
X159065315Y-93578610D01*
X159065350Y-93578614D01*
X159125943Y-93597370D01*
X159181738Y-93627539D01*
X159218244Y-93657740D01*
X159229923Y-93664900D01*
X159243491Y-93668621D01*
X159257560Y-93668414D01*
X159271013Y-93664296D01*
X159280765Y-93658215D01*
X159322042Y-93625028D01*
X159378253Y-93595641D01*
X159439101Y-93577733D01*
X159439130Y-93577730D01*
X159439148Y-93577725D01*
X159502267Y-93571981D01*
X159565301Y-93578606D01*
X159565315Y-93578610D01*
X159565350Y-93578614D01*
X159625943Y-93597370D01*
X159681738Y-93627539D01*
X159718244Y-93657740D01*
X159729923Y-93664900D01*
X159743491Y-93668621D01*
X159757560Y-93668414D01*
X159771013Y-93664296D01*
X159780765Y-93658215D01*
X159822042Y-93625028D01*
X159878253Y-93595641D01*
X159939101Y-93577733D01*
X159939130Y-93577730D01*
X159939148Y-93577725D01*
X160002267Y-93571981D01*
X160065301Y-93578606D01*
X160065315Y-93578610D01*
X160065350Y-93578614D01*
X160125943Y-93597370D01*
X160181738Y-93627539D01*
X160218244Y-93657740D01*
X160229923Y-93664900D01*
X160243491Y-93668621D01*
X160257560Y-93668414D01*
X160271013Y-93664296D01*
X160280765Y-93658215D01*
X160322042Y-93625028D01*
X160378253Y-93595641D01*
X160439101Y-93577733D01*
X160439130Y-93577730D01*
X160439148Y-93577725D01*
X160502267Y-93571981D01*
X160565301Y-93578606D01*
X160565315Y-93578610D01*
X160565350Y-93578614D01*
X160625943Y-93597370D01*
X160681738Y-93627539D01*
X160730610Y-93667970D01*
X160770699Y-93717124D01*
X160800477Y-93773128D01*
X160818810Y-93833850D01*
X160825000Y-93896976D01*
X160825000Y-94500000D01*
X160826980Y-94513930D01*
X160832761Y-94526756D01*
X160841888Y-94537464D01*
X160853636Y-94545206D01*
X160867076Y-94549368D01*
X160875000Y-94550000D01*
X161478055Y-94550000D01*
X161479144Y-94550008D01*
X161482562Y-94550032D01*
X161545595Y-94557102D01*
X161606055Y-94576281D01*
X161661638Y-94606838D01*
X161710228Y-94647609D01*
X161749972Y-94697042D01*
X161779359Y-94753253D01*
X161797267Y-94814101D01*
X161797270Y-94814130D01*
X161797275Y-94814148D01*
X161803019Y-94877267D01*
X161796394Y-94940301D01*
X161796390Y-94940315D01*
X161796386Y-94940350D01*
X161777630Y-95000943D01*
X161747461Y-95056738D01*
X161717260Y-95093244D01*
X161710100Y-95104923D01*
X161706379Y-95118491D01*
X161706586Y-95132560D01*
X161710704Y-95146013D01*
X161716785Y-95155765D01*
X161749972Y-95197042D01*
X161779359Y-95253253D01*
X161797267Y-95314101D01*
X161797270Y-95314130D01*
X161797275Y-95314148D01*
X161803019Y-95377267D01*
X161796394Y-95440301D01*
X161796390Y-95440315D01*
X161796386Y-95440350D01*
X161777630Y-95500943D01*
X161747461Y-95556738D01*
X161717260Y-95593244D01*
X161710100Y-95604923D01*
X161706379Y-95618491D01*
X161706586Y-95632560D01*
X161710704Y-95646013D01*
X161716785Y-95655765D01*
X161749972Y-95697042D01*
X161779359Y-95753253D01*
X161797267Y-95814101D01*
X161797270Y-95814130D01*
X161797275Y-95814148D01*
X161803019Y-95877267D01*
X161796394Y-95940301D01*
X161796390Y-95940315D01*
X161796386Y-95940350D01*
X161777630Y-96000943D01*
X161747461Y-96056738D01*
X161717260Y-96093244D01*
X161710100Y-96104923D01*
X161706379Y-96118491D01*
X161706586Y-96132560D01*
X161710704Y-96146013D01*
X161716785Y-96155765D01*
X161749972Y-96197042D01*
X161779359Y-96253253D01*
X161797267Y-96314101D01*
X161797270Y-96314130D01*
X161797275Y-96314148D01*
X161803019Y-96377267D01*
X161796394Y-96440301D01*
X161796390Y-96440315D01*
X161796386Y-96440350D01*
X161777630Y-96500943D01*
X161747461Y-96556738D01*
X161717260Y-96593244D01*
X161710100Y-96604923D01*
X161706379Y-96618491D01*
X161706586Y-96632560D01*
X161710704Y-96646013D01*
X161716785Y-96655765D01*
X161749972Y-96697042D01*
X161779359Y-96753253D01*
X161797267Y-96814101D01*
X161797270Y-96814130D01*
X161797275Y-96814148D01*
X161803019Y-96877267D01*
X161796394Y-96940301D01*
X161796390Y-96940315D01*
X161796386Y-96940350D01*
X161777630Y-97000943D01*
X161747461Y-97056738D01*
X161717260Y-97093244D01*
X161710100Y-97104923D01*
X161706379Y-97118491D01*
X161706586Y-97132560D01*
X161710704Y-97146013D01*
X161716785Y-97155765D01*
X161749972Y-97197042D01*
X161779359Y-97253253D01*
X161797267Y-97314101D01*
X161797270Y-97314130D01*
X161797275Y-97314148D01*
X161803019Y-97377267D01*
X161796394Y-97440301D01*
X161796390Y-97440315D01*
X161796386Y-97440350D01*
X161777630Y-97500943D01*
X161747461Y-97556738D01*
X161717260Y-97593244D01*
X161710100Y-97604923D01*
X161706379Y-97618491D01*
X161706586Y-97632560D01*
X161710704Y-97646013D01*
X161716785Y-97655765D01*
X161749972Y-97697042D01*
X161779359Y-97753253D01*
X161797267Y-97814101D01*
X161797270Y-97814130D01*
X161797275Y-97814148D01*
X161803019Y-97877267D01*
X161796394Y-97940301D01*
X161796390Y-97940315D01*
X161796386Y-97940350D01*
X161777630Y-98000943D01*
X161747461Y-98056738D01*
X161717260Y-98093244D01*
X161710100Y-98104923D01*
X161706379Y-98118491D01*
X161706586Y-98132560D01*
X161710704Y-98146013D01*
X161716785Y-98155765D01*
X161749972Y-98197042D01*
X161779359Y-98253253D01*
X161797267Y-98314101D01*
X161797270Y-98314130D01*
X161797275Y-98314148D01*
X161803019Y-98377267D01*
X161796394Y-98440301D01*
X161796390Y-98440315D01*
X161796386Y-98440350D01*
X161777630Y-98500943D01*
X161747461Y-98556738D01*
X161717260Y-98593244D01*
X161710100Y-98604923D01*
X161706379Y-98618491D01*
X161706586Y-98632560D01*
X161710704Y-98646013D01*
X161716785Y-98655765D01*
X161749972Y-98697042D01*
X161779359Y-98753253D01*
X161797267Y-98814101D01*
X161797270Y-98814130D01*
X161797275Y-98814148D01*
X161803019Y-98877267D01*
X161796394Y-98940301D01*
X161796390Y-98940315D01*
X161796386Y-98940350D01*
X161777630Y-99000943D01*
X161747461Y-99056738D01*
X161717260Y-99093244D01*
X161710100Y-99104923D01*
X161706379Y-99118491D01*
X161706586Y-99132560D01*
X161710704Y-99146013D01*
X161716785Y-99155765D01*
X161749972Y-99197042D01*
X161779359Y-99253253D01*
X161797267Y-99314101D01*
X161797270Y-99314130D01*
X161797275Y-99314148D01*
X161803019Y-99377267D01*
X161796394Y-99440301D01*
X161796390Y-99440315D01*
X161796386Y-99440350D01*
X161777630Y-99500943D01*
X161747461Y-99556738D01*
X161717260Y-99593244D01*
X161710100Y-99604923D01*
X161706379Y-99618491D01*
X161706586Y-99632560D01*
X161710704Y-99646013D01*
X161716785Y-99655765D01*
X161749972Y-99697042D01*
X161779359Y-99753253D01*
X161797267Y-99814101D01*
X161797270Y-99814130D01*
X161797275Y-99814148D01*
X161803019Y-99877267D01*
X161796394Y-99940301D01*
X161796390Y-99940315D01*
X161796386Y-99940350D01*
X161777630Y-100000943D01*
X161747461Y-100056738D01*
X161717260Y-100093244D01*
X161710100Y-100104923D01*
X161706379Y-100118491D01*
X161706586Y-100132560D01*
X161710704Y-100146013D01*
X161716785Y-100155765D01*
X161749972Y-100197042D01*
X161779359Y-100253253D01*
X161797267Y-100314101D01*
X161797270Y-100314130D01*
X161797275Y-100314148D01*
X161803019Y-100377267D01*
X161796394Y-100440301D01*
X161796390Y-100440315D01*
X161796386Y-100440350D01*
X161777630Y-100500943D01*
X161747461Y-100556738D01*
X161707030Y-100605610D01*
X161657876Y-100645699D01*
X161601872Y-100675477D01*
X161541150Y-100693810D01*
X161478024Y-100700000D01*
X160875000Y-100700000D01*
X160861070Y-100701980D01*
X160848244Y-100707761D01*
X160837536Y-100716888D01*
X160829794Y-100728636D01*
X160825632Y-100742076D01*
X160825000Y-100750000D01*
X160825000Y-101353024D01*
X160824968Y-101357562D01*
X160817898Y-101420595D01*
X160798719Y-101481055D01*
X160768162Y-101536638D01*
X160727391Y-101585228D01*
X160677958Y-101624972D01*
X160621747Y-101654359D01*
X160560899Y-101672267D01*
X160560870Y-101672270D01*
X160560852Y-101672275D01*
X160497733Y-101678019D01*
X160434699Y-101671394D01*
X160434685Y-101671390D01*
X160434650Y-101671386D01*
X160374057Y-101652630D01*
X160318262Y-101622461D01*
X160281756Y-101592260D01*
X160270077Y-101585100D01*
X160256509Y-101581379D01*
X160242440Y-101581586D01*
X160228987Y-101585704D01*
X160219235Y-101591785D01*
X160177958Y-101624972D01*
X160121747Y-101654359D01*
X160060899Y-101672267D01*
X160060870Y-101672270D01*
X160060852Y-101672275D01*
X159997733Y-101678019D01*
X159934699Y-101671394D01*
X159934685Y-101671390D01*
X159934650Y-101671386D01*
X159874057Y-101652630D01*
X159818262Y-101622461D01*
X159781756Y-101592260D01*
X159770077Y-101585100D01*
X159756509Y-101581379D01*
X159742440Y-101581586D01*
X159728987Y-101585704D01*
X159719235Y-101591785D01*
X159677958Y-101624972D01*
X159621747Y-101654359D01*
X159560899Y-101672267D01*
X159560870Y-101672270D01*
X159560852Y-101672275D01*
X159497733Y-101678019D01*
X159434699Y-101671394D01*
X159434685Y-101671390D01*
X159434650Y-101671386D01*
X159374057Y-101652630D01*
X159318262Y-101622461D01*
X159281756Y-101592260D01*
X159270077Y-101585100D01*
X159256509Y-101581379D01*
X159242440Y-101581586D01*
X159228987Y-101585704D01*
X159219235Y-101591785D01*
X159177958Y-101624972D01*
X159121747Y-101654359D01*
X159060899Y-101672267D01*
X159060870Y-101672270D01*
X159060852Y-101672275D01*
X158997733Y-101678019D01*
X158934699Y-101671394D01*
X158934685Y-101671390D01*
X158934650Y-101671386D01*
X158874057Y-101652630D01*
X158818262Y-101622461D01*
X158781756Y-101592260D01*
X158770077Y-101585100D01*
X158756509Y-101581379D01*
X158742440Y-101581586D01*
X158728987Y-101585704D01*
X158719235Y-101591785D01*
X158677958Y-101624972D01*
X158621747Y-101654359D01*
X158560899Y-101672267D01*
X158560870Y-101672270D01*
X158560852Y-101672275D01*
X158497733Y-101678019D01*
X158434699Y-101671394D01*
X158434685Y-101671390D01*
X158434650Y-101671386D01*
X158374057Y-101652630D01*
X158318262Y-101622461D01*
X158281756Y-101592260D01*
X158270077Y-101585100D01*
X158256509Y-101581379D01*
X158242440Y-101581586D01*
X158228987Y-101585704D01*
X158219235Y-101591785D01*
X158177958Y-101624972D01*
X158121747Y-101654359D01*
X158060899Y-101672267D01*
X158060870Y-101672270D01*
X158060852Y-101672275D01*
X157997733Y-101678019D01*
X157934699Y-101671394D01*
X157934685Y-101671390D01*
X157934650Y-101671386D01*
X157874057Y-101652630D01*
X157818262Y-101622461D01*
X157781756Y-101592260D01*
X157770077Y-101585100D01*
X157756509Y-101581379D01*
X157742440Y-101581586D01*
X157728987Y-101585704D01*
X157719235Y-101591785D01*
X157677958Y-101624972D01*
X157621747Y-101654359D01*
X157560899Y-101672267D01*
X157560870Y-101672270D01*
X157560852Y-101672275D01*
X157497733Y-101678019D01*
X157434699Y-101671394D01*
X157434685Y-101671390D01*
X157434650Y-101671386D01*
X157374057Y-101652630D01*
X157318262Y-101622461D01*
X157281756Y-101592260D01*
X157270077Y-101585100D01*
X157256509Y-101581379D01*
X157242440Y-101581586D01*
X157228987Y-101585704D01*
X157219235Y-101591785D01*
X157177958Y-101624972D01*
X157121747Y-101654359D01*
X157060899Y-101672267D01*
X157060870Y-101672270D01*
X157060852Y-101672275D01*
X156997733Y-101678019D01*
X156934699Y-101671394D01*
X156934685Y-101671390D01*
X156934650Y-101671386D01*
X156874057Y-101652630D01*
X156818262Y-101622461D01*
X156781756Y-101592260D01*
X156770077Y-101585100D01*
X156756509Y-101581379D01*
X156742440Y-101581586D01*
X156728987Y-101585704D01*
X156719235Y-101591785D01*
X156677958Y-101624972D01*
X156621747Y-101654359D01*
X156560899Y-101672267D01*
X156560870Y-101672270D01*
X156560852Y-101672275D01*
X156497733Y-101678019D01*
X156434699Y-101671394D01*
X156434685Y-101671390D01*
X156434650Y-101671386D01*
X156374057Y-101652630D01*
X156318262Y-101622461D01*
X156281756Y-101592260D01*
X156270077Y-101585100D01*
X156256509Y-101581379D01*
X156242440Y-101581586D01*
X156228987Y-101585704D01*
X156219235Y-101591785D01*
X156177958Y-101624972D01*
X156121747Y-101654359D01*
X156060899Y-101672267D01*
X156060870Y-101672270D01*
X156060852Y-101672275D01*
X155997733Y-101678019D01*
X155934699Y-101671394D01*
X155934685Y-101671390D01*
X155934650Y-101671386D01*
X155874057Y-101652630D01*
X155818262Y-101622461D01*
X155781756Y-101592260D01*
X155770077Y-101585100D01*
X155756509Y-101581379D01*
X155742440Y-101581586D01*
X155728987Y-101585704D01*
X155719235Y-101591785D01*
X155677958Y-101624972D01*
X155621747Y-101654359D01*
X155560899Y-101672267D01*
X155560870Y-101672270D01*
X155560852Y-101672275D01*
X155497733Y-101678019D01*
X155434699Y-101671394D01*
X155434685Y-101671390D01*
X155434650Y-101671386D01*
X155374057Y-101652630D01*
X155318262Y-101622461D01*
X155281756Y-101592260D01*
X155270077Y-101585100D01*
X155256509Y-101581379D01*
X155242440Y-101581586D01*
X155228987Y-101585704D01*
X155219235Y-101591785D01*
X155177958Y-101624972D01*
X155121747Y-101654359D01*
X155060899Y-101672267D01*
X155060870Y-101672270D01*
X155060852Y-101672275D01*
X154997733Y-101678019D01*
X154934699Y-101671394D01*
X154934685Y-101671390D01*
X154934650Y-101671386D01*
X154874057Y-101652630D01*
X154818262Y-101622461D01*
X154769390Y-101582030D01*
X154729301Y-101532876D01*
X154699523Y-101476872D01*
X154681190Y-101416150D01*
X154675000Y-101353024D01*
X154675000Y-100750000D01*
X154673020Y-100736070D01*
X154667239Y-100723244D01*
X154658112Y-100712536D01*
X154646364Y-100704794D01*
X154632924Y-100700632D01*
X154625000Y-100700000D01*
X154021945Y-100700000D01*
X154020856Y-100699992D01*
X154017438Y-100699968D01*
X153954405Y-100692898D01*
X153893945Y-100673719D01*
X153838362Y-100643162D01*
X153789772Y-100602391D01*
X153750028Y-100552958D01*
X153720641Y-100496747D01*
X153702733Y-100435899D01*
X153702730Y-100435870D01*
X153702725Y-100435852D01*
X153696981Y-100372733D01*
X153703606Y-100309699D01*
X153703610Y-100309685D01*
X153703614Y-100309650D01*
X153722370Y-100249057D01*
X153752539Y-100193262D01*
X153782740Y-100156756D01*
X153789900Y-100145077D01*
X153793621Y-100131509D01*
X153793414Y-100117440D01*
X153789296Y-100103987D01*
X153783215Y-100094235D01*
X153750028Y-100052958D01*
X153720641Y-99996747D01*
X153702733Y-99935899D01*
X153702730Y-99935870D01*
X153702725Y-99935852D01*
X153696981Y-99872733D01*
X153703606Y-99809699D01*
X153703610Y-99809685D01*
X153703614Y-99809650D01*
X153722370Y-99749057D01*
X153752539Y-99693262D01*
X153782740Y-99656756D01*
X153789900Y-99645077D01*
X153793621Y-99631509D01*
X153793414Y-99617440D01*
X153789296Y-99603987D01*
X153783215Y-99594235D01*
X153750028Y-99552958D01*
X153720641Y-99496747D01*
X153702733Y-99435899D01*
X153702730Y-99435870D01*
X153702725Y-99435852D01*
X153696981Y-99372733D01*
X153703606Y-99309699D01*
X153703610Y-99309685D01*
X153703614Y-99309650D01*
X153722370Y-99249057D01*
X153752539Y-99193262D01*
X153782740Y-99156756D01*
X153789900Y-99145077D01*
X153793621Y-99131509D01*
X153793414Y-99117440D01*
X153789296Y-99103987D01*
X153783215Y-99094235D01*
X153750028Y-99052958D01*
X153720641Y-98996747D01*
X153702733Y-98935899D01*
X153702730Y-98935870D01*
X153702725Y-98935852D01*
X153696981Y-98872733D01*
X153703606Y-98809699D01*
X153703610Y-98809685D01*
X153703614Y-98809650D01*
X153722370Y-98749057D01*
X153752539Y-98693262D01*
X153782740Y-98656756D01*
X153789900Y-98645077D01*
X153793621Y-98631509D01*
X153793414Y-98617440D01*
X153789296Y-98603987D01*
X153783215Y-98594235D01*
X153750028Y-98552958D01*
X153720641Y-98496747D01*
X153702733Y-98435899D01*
X153702730Y-98435870D01*
X153702725Y-98435852D01*
X153696981Y-98372733D01*
X153703606Y-98309699D01*
X153703610Y-98309685D01*
X153703614Y-98309650D01*
X153722370Y-98249057D01*
X153752539Y-98193262D01*
X153782740Y-98156756D01*
X153789900Y-98145077D01*
X153793621Y-98131509D01*
X153793414Y-98117440D01*
X153789296Y-98103987D01*
X153783215Y-98094235D01*
X153750028Y-98052958D01*
X153720641Y-97996747D01*
X153702733Y-97935899D01*
X153702730Y-97935870D01*
X153702725Y-97935852D01*
X153696981Y-97872733D01*
X153703606Y-97809699D01*
X153703610Y-97809685D01*
X153703614Y-97809650D01*
X153722370Y-97749057D01*
X153752539Y-97693262D01*
X153782740Y-97656756D01*
X153789900Y-97645077D01*
X153793621Y-97631509D01*
X153793414Y-97617440D01*
X153789296Y-97603987D01*
X153783215Y-97594235D01*
X153750028Y-97552958D01*
X153720641Y-97496747D01*
X153702733Y-97435899D01*
X153702730Y-97435870D01*
X153702725Y-97435852D01*
X153696981Y-97372733D01*
X153703606Y-97309699D01*
X153703610Y-97309685D01*
X153703614Y-97309650D01*
X153722370Y-97249057D01*
X153752539Y-97193262D01*
X153782740Y-97156756D01*
X153789900Y-97145077D01*
X153793621Y-97131509D01*
X153793414Y-97117440D01*
X153789296Y-97103987D01*
X153783215Y-97094235D01*
X153750028Y-97052958D01*
X153720641Y-96996747D01*
X153702733Y-96935899D01*
X153702730Y-96935870D01*
X153702725Y-96935852D01*
X153696981Y-96872733D01*
X153703606Y-96809699D01*
X153703610Y-96809685D01*
X153703614Y-96809650D01*
X153722370Y-96749057D01*
X153752539Y-96693262D01*
X153782740Y-96656756D01*
X153789900Y-96645077D01*
X153793621Y-96631509D01*
X153793414Y-96617440D01*
X153789296Y-96603987D01*
X153783215Y-96594235D01*
X153750028Y-96552958D01*
X153720641Y-96496747D01*
X153702733Y-96435899D01*
X153702730Y-96435870D01*
X153702725Y-96435852D01*
X153696981Y-96372733D01*
X153703606Y-96309699D01*
X153703610Y-96309685D01*
X153703614Y-96309650D01*
X153722370Y-96249057D01*
X153752539Y-96193262D01*
X153782740Y-96156756D01*
X153789900Y-96145077D01*
X153793621Y-96131509D01*
X153793414Y-96117440D01*
X153789296Y-96103987D01*
X153783215Y-96094235D01*
X153750028Y-96052958D01*
X153720641Y-95996747D01*
X153702733Y-95935899D01*
X153702730Y-95935870D01*
X153702725Y-95935852D01*
X153696981Y-95872733D01*
X153703606Y-95809699D01*
X153703610Y-95809685D01*
X153703614Y-95809650D01*
X153722370Y-95749057D01*
X153752539Y-95693262D01*
X153782740Y-95656756D01*
X153789900Y-95645077D01*
X153793621Y-95631509D01*
X153793414Y-95617440D01*
X153789296Y-95603987D01*
X153783215Y-95594235D01*
X153750028Y-95552958D01*
X153720641Y-95496747D01*
X153702733Y-95435899D01*
X153702730Y-95435870D01*
X153702725Y-95435852D01*
X153696981Y-95372733D01*
X153703606Y-95309699D01*
X153703610Y-95309685D01*
X153703614Y-95309650D01*
X153722370Y-95249057D01*
X153752539Y-95193262D01*
X153782740Y-95156756D01*
X153789900Y-95145077D01*
X153793621Y-95131509D01*
X153793430Y-95118491D01*
X154856379Y-95118491D01*
X154856586Y-95132560D01*
X154860704Y-95146013D01*
X154866785Y-95155765D01*
X154899972Y-95197042D01*
X154929359Y-95253253D01*
X154947267Y-95314101D01*
X154947270Y-95314130D01*
X154947275Y-95314148D01*
X154953019Y-95377267D01*
X154946394Y-95440301D01*
X154946390Y-95440315D01*
X154946386Y-95440350D01*
X154927630Y-95500943D01*
X154897461Y-95556738D01*
X154867260Y-95593244D01*
X154860100Y-95604923D01*
X154856379Y-95618491D01*
X154856586Y-95632560D01*
X154860704Y-95646013D01*
X154866785Y-95655765D01*
X154899972Y-95697042D01*
X154929359Y-95753253D01*
X154947267Y-95814101D01*
X154947270Y-95814130D01*
X154947275Y-95814148D01*
X154953019Y-95877267D01*
X154946394Y-95940301D01*
X154946390Y-95940315D01*
X154946386Y-95940350D01*
X154927630Y-96000943D01*
X154897461Y-96056738D01*
X154867260Y-96093244D01*
X154860100Y-96104923D01*
X154856379Y-96118491D01*
X154856586Y-96132560D01*
X154860704Y-96146013D01*
X154866785Y-96155765D01*
X154899972Y-96197042D01*
X154929359Y-96253253D01*
X154947267Y-96314101D01*
X154947270Y-96314130D01*
X154947275Y-96314148D01*
X154953019Y-96377267D01*
X154946394Y-96440301D01*
X154946390Y-96440315D01*
X154946386Y-96440350D01*
X154927630Y-96500943D01*
X154897461Y-96556738D01*
X154867260Y-96593244D01*
X154860100Y-96604923D01*
X154856379Y-96618491D01*
X154856586Y-96632560D01*
X154860704Y-96646013D01*
X154866785Y-96655765D01*
X154899972Y-96697042D01*
X154929359Y-96753253D01*
X154947267Y-96814101D01*
X154947270Y-96814130D01*
X154947275Y-96814148D01*
X154953019Y-96877267D01*
X154946394Y-96940301D01*
X154946390Y-96940315D01*
X154946386Y-96940350D01*
X154927630Y-97000943D01*
X154897461Y-97056738D01*
X154867260Y-97093244D01*
X154860100Y-97104923D01*
X154856379Y-97118491D01*
X154856586Y-97132560D01*
X154860704Y-97146013D01*
X154866785Y-97155765D01*
X154899972Y-97197042D01*
X154929359Y-97253253D01*
X154947267Y-97314101D01*
X154947270Y-97314130D01*
X154947275Y-97314148D01*
X154953019Y-97377267D01*
X154946394Y-97440301D01*
X154946390Y-97440315D01*
X154946386Y-97440350D01*
X154927630Y-97500943D01*
X154897461Y-97556738D01*
X154867260Y-97593244D01*
X154860100Y-97604923D01*
X154856379Y-97618491D01*
X154856586Y-97632560D01*
X154860704Y-97646013D01*
X154866785Y-97655765D01*
X154899972Y-97697042D01*
X154929359Y-97753253D01*
X154947267Y-97814101D01*
X154947270Y-97814130D01*
X154947275Y-97814148D01*
X154953019Y-97877267D01*
X154946394Y-97940301D01*
X154946390Y-97940315D01*
X154946386Y-97940350D01*
X154927630Y-98000943D01*
X154897461Y-98056738D01*
X154867260Y-98093244D01*
X154860100Y-98104923D01*
X154856379Y-98118491D01*
X154856586Y-98132560D01*
X154860704Y-98146013D01*
X154866785Y-98155765D01*
X154899972Y-98197042D01*
X154929359Y-98253253D01*
X154947267Y-98314101D01*
X154947270Y-98314130D01*
X154947275Y-98314148D01*
X154953019Y-98377267D01*
X154946394Y-98440301D01*
X154946390Y-98440315D01*
X154946386Y-98440350D01*
X154927630Y-98500943D01*
X154897461Y-98556738D01*
X154867260Y-98593244D01*
X154860100Y-98604923D01*
X154856379Y-98618491D01*
X154856586Y-98632560D01*
X154860704Y-98646013D01*
X154866785Y-98655765D01*
X154899972Y-98697042D01*
X154929359Y-98753253D01*
X154947267Y-98814101D01*
X154947270Y-98814130D01*
X154947275Y-98814148D01*
X154953019Y-98877267D01*
X154946394Y-98940301D01*
X154946390Y-98940315D01*
X154946386Y-98940350D01*
X154927630Y-99000943D01*
X154897461Y-99056738D01*
X154867260Y-99093244D01*
X154860100Y-99104923D01*
X154856379Y-99118491D01*
X154856586Y-99132560D01*
X154860704Y-99146013D01*
X154866785Y-99155765D01*
X154899972Y-99197042D01*
X154929359Y-99253253D01*
X154947267Y-99314101D01*
X154947270Y-99314130D01*
X154947275Y-99314148D01*
X154953019Y-99377267D01*
X154946394Y-99440301D01*
X154946390Y-99440315D01*
X154946386Y-99440350D01*
X154927630Y-99500943D01*
X154897461Y-99556738D01*
X154867260Y-99593244D01*
X154860100Y-99604923D01*
X154856379Y-99618491D01*
X154856586Y-99632560D01*
X154860704Y-99646013D01*
X154866785Y-99655765D01*
X154899972Y-99697042D01*
X154929359Y-99753253D01*
X154947267Y-99814101D01*
X154947270Y-99814130D01*
X154947275Y-99814148D01*
X154953019Y-99877267D01*
X154946394Y-99940301D01*
X154946390Y-99940315D01*
X154946386Y-99940350D01*
X154927630Y-100000943D01*
X154897461Y-100056738D01*
X154867260Y-100093244D01*
X154860100Y-100104923D01*
X154856379Y-100118491D01*
X154856586Y-100132560D01*
X154860704Y-100146013D01*
X154866785Y-100155765D01*
X154899972Y-100197042D01*
X154929359Y-100253253D01*
X154947267Y-100314101D01*
X154947270Y-100314131D01*
X154947275Y-100314149D01*
X154952929Y-100376285D01*
X154956163Y-100389978D01*
X154963083Y-100402228D01*
X154973142Y-100412065D01*
X154985544Y-100418710D01*
X154997497Y-100421480D01*
X155065301Y-100428606D01*
X155065315Y-100428610D01*
X155065350Y-100428614D01*
X155125943Y-100447370D01*
X155181738Y-100477539D01*
X155218244Y-100507740D01*
X155229923Y-100514900D01*
X155243491Y-100518621D01*
X155257560Y-100518414D01*
X155271013Y-100514296D01*
X155280765Y-100508215D01*
X155322042Y-100475028D01*
X155378253Y-100445641D01*
X155439101Y-100427733D01*
X155439130Y-100427730D01*
X155439148Y-100427725D01*
X155502267Y-100421981D01*
X155565301Y-100428606D01*
X155565315Y-100428610D01*
X155565350Y-100428614D01*
X155625943Y-100447370D01*
X155681738Y-100477539D01*
X155718244Y-100507740D01*
X155729923Y-100514900D01*
X155743491Y-100518621D01*
X155757560Y-100518414D01*
X155771013Y-100514296D01*
X155780765Y-100508215D01*
X155822042Y-100475028D01*
X155878253Y-100445641D01*
X155939101Y-100427733D01*
X155939130Y-100427730D01*
X155939148Y-100427725D01*
X156002267Y-100421981D01*
X156065301Y-100428606D01*
X156065315Y-100428610D01*
X156065350Y-100428614D01*
X156125943Y-100447370D01*
X156181738Y-100477539D01*
X156218244Y-100507740D01*
X156229923Y-100514900D01*
X156243491Y-100518621D01*
X156257560Y-100518414D01*
X156271013Y-100514296D01*
X156280765Y-100508215D01*
X156322042Y-100475028D01*
X156378253Y-100445641D01*
X156439101Y-100427733D01*
X156439130Y-100427730D01*
X156439148Y-100427725D01*
X156502267Y-100421981D01*
X156565301Y-100428606D01*
X156565315Y-100428610D01*
X156565350Y-100428614D01*
X156625943Y-100447370D01*
X156681738Y-100477539D01*
X156718244Y-100507740D01*
X156729923Y-100514900D01*
X156743491Y-100518621D01*
X156757560Y-100518414D01*
X156771013Y-100514296D01*
X156780765Y-100508215D01*
X156822042Y-100475028D01*
X156878253Y-100445641D01*
X156939101Y-100427733D01*
X156939130Y-100427730D01*
X156939148Y-100427725D01*
X157002267Y-100421981D01*
X157065301Y-100428606D01*
X157065315Y-100428610D01*
X157065350Y-100428614D01*
X157125943Y-100447370D01*
X157181738Y-100477539D01*
X157218244Y-100507740D01*
X157229923Y-100514900D01*
X157243491Y-100518621D01*
X157257560Y-100518414D01*
X157271013Y-100514296D01*
X157280765Y-100508215D01*
X157322042Y-100475028D01*
X157378253Y-100445641D01*
X157439101Y-100427733D01*
X157439130Y-100427730D01*
X157439148Y-100427725D01*
X157502267Y-100421981D01*
X157565301Y-100428606D01*
X157565315Y-100428610D01*
X157565350Y-100428614D01*
X157625943Y-100447370D01*
X157681738Y-100477539D01*
X157718244Y-100507740D01*
X157729923Y-100514900D01*
X157743491Y-100518621D01*
X157757560Y-100518414D01*
X157771013Y-100514296D01*
X157780765Y-100508215D01*
X157822042Y-100475028D01*
X157878253Y-100445641D01*
X157939101Y-100427733D01*
X157939130Y-100427730D01*
X157939148Y-100427725D01*
X158002267Y-100421981D01*
X158065301Y-100428606D01*
X158065315Y-100428610D01*
X158065350Y-100428614D01*
X158125943Y-100447370D01*
X158181738Y-100477539D01*
X158218244Y-100507740D01*
X158229923Y-100514900D01*
X158243491Y-100518621D01*
X158257560Y-100518414D01*
X158271013Y-100514296D01*
X158280765Y-100508215D01*
X158322042Y-100475028D01*
X158378253Y-100445641D01*
X158439101Y-100427733D01*
X158439130Y-100427730D01*
X158439148Y-100427725D01*
X158502267Y-100421981D01*
X158565301Y-100428606D01*
X158565315Y-100428610D01*
X158565350Y-100428614D01*
X158625943Y-100447370D01*
X158681738Y-100477539D01*
X158718244Y-100507740D01*
X158729923Y-100514900D01*
X158743491Y-100518621D01*
X158757560Y-100518414D01*
X158771013Y-100514296D01*
X158780765Y-100508215D01*
X158822042Y-100475028D01*
X158878253Y-100445641D01*
X158939101Y-100427733D01*
X158939130Y-100427730D01*
X158939148Y-100427725D01*
X159002267Y-100421981D01*
X159065301Y-100428606D01*
X159065315Y-100428610D01*
X159065350Y-100428614D01*
X159125943Y-100447370D01*
X159181738Y-100477539D01*
X159218244Y-100507740D01*
X159229923Y-100514900D01*
X159243491Y-100518621D01*
X159257560Y-100518414D01*
X159271013Y-100514296D01*
X159280765Y-100508215D01*
X159322042Y-100475028D01*
X159378253Y-100445641D01*
X159439101Y-100427733D01*
X159439130Y-100427730D01*
X159439148Y-100427725D01*
X159502267Y-100421981D01*
X159565301Y-100428606D01*
X159565315Y-100428610D01*
X159565350Y-100428614D01*
X159625943Y-100447370D01*
X159681738Y-100477539D01*
X159718244Y-100507740D01*
X159729923Y-100514900D01*
X159743491Y-100518621D01*
X159757560Y-100518414D01*
X159771013Y-100514296D01*
X159780765Y-100508215D01*
X159822042Y-100475028D01*
X159878253Y-100445641D01*
X159939101Y-100427733D01*
X159939130Y-100427730D01*
X159939148Y-100427725D01*
X160002267Y-100421981D01*
X160065301Y-100428606D01*
X160065315Y-100428610D01*
X160065350Y-100428614D01*
X160125943Y-100447370D01*
X160181738Y-100477539D01*
X160218244Y-100507740D01*
X160229923Y-100514900D01*
X160243491Y-100518621D01*
X160257560Y-100518414D01*
X160271013Y-100514296D01*
X160280765Y-100508215D01*
X160322042Y-100475028D01*
X160378253Y-100445641D01*
X160439101Y-100427733D01*
X160439131Y-100427730D01*
X160439149Y-100427725D01*
X160501285Y-100422071D01*
X160514978Y-100418837D01*
X160527228Y-100411917D01*
X160537065Y-100401858D01*
X160543710Y-100389456D01*
X160546480Y-100377503D01*
X160553606Y-100309699D01*
X160553610Y-100309685D01*
X160553614Y-100309650D01*
X160572370Y-100249057D01*
X160602539Y-100193262D01*
X160632740Y-100156756D01*
X160639900Y-100145077D01*
X160643621Y-100131509D01*
X160643414Y-100117440D01*
X160639296Y-100103987D01*
X160633215Y-100094235D01*
X160600028Y-100052958D01*
X160570641Y-99996747D01*
X160552733Y-99935899D01*
X160552730Y-99935870D01*
X160552725Y-99935852D01*
X160546981Y-99872733D01*
X160553606Y-99809699D01*
X160553610Y-99809685D01*
X160553614Y-99809650D01*
X160572370Y-99749057D01*
X160602539Y-99693262D01*
X160632740Y-99656756D01*
X160639900Y-99645077D01*
X160643621Y-99631509D01*
X160643414Y-99617440D01*
X160639296Y-99603987D01*
X160633215Y-99594235D01*
X160600028Y-99552958D01*
X160570641Y-99496747D01*
X160552733Y-99435899D01*
X160552730Y-99435870D01*
X160552725Y-99435852D01*
X160546981Y-99372733D01*
X160553606Y-99309699D01*
X160553610Y-99309685D01*
X160553614Y-99309650D01*
X160572370Y-99249057D01*
X160602539Y-99193262D01*
X160632740Y-99156756D01*
X160639900Y-99145077D01*
X160643621Y-99131509D01*
X160643414Y-99117440D01*
X160639296Y-99103987D01*
X160633215Y-99094235D01*
X160600028Y-99052958D01*
X160570641Y-98996747D01*
X160552733Y-98935899D01*
X160552730Y-98935870D01*
X160552725Y-98935852D01*
X160546981Y-98872733D01*
X160553606Y-98809699D01*
X160553610Y-98809685D01*
X160553614Y-98809650D01*
X160572370Y-98749057D01*
X160602539Y-98693262D01*
X160632740Y-98656756D01*
X160639900Y-98645077D01*
X160643621Y-98631509D01*
X160643414Y-98617440D01*
X160639296Y-98603987D01*
X160633215Y-98594235D01*
X160600028Y-98552958D01*
X160570641Y-98496747D01*
X160552733Y-98435899D01*
X160552730Y-98435870D01*
X160552725Y-98435852D01*
X160546981Y-98372733D01*
X160553606Y-98309699D01*
X160553610Y-98309685D01*
X160553614Y-98309650D01*
X160572370Y-98249057D01*
X160602539Y-98193262D01*
X160632740Y-98156756D01*
X160639900Y-98145077D01*
X160643621Y-98131509D01*
X160643414Y-98117440D01*
X160639296Y-98103987D01*
X160633215Y-98094235D01*
X160600028Y-98052958D01*
X160570641Y-97996747D01*
X160552733Y-97935899D01*
X160552730Y-97935870D01*
X160552725Y-97935852D01*
X160546981Y-97872733D01*
X160553606Y-97809699D01*
X160553610Y-97809685D01*
X160553614Y-97809650D01*
X160572370Y-97749057D01*
X160602539Y-97693262D01*
X160632740Y-97656756D01*
X160639900Y-97645077D01*
X160643621Y-97631509D01*
X160643414Y-97617440D01*
X160639296Y-97603987D01*
X160633215Y-97594235D01*
X160600028Y-97552958D01*
X160570641Y-97496747D01*
X160552733Y-97435899D01*
X160552730Y-97435870D01*
X160552725Y-97435852D01*
X160546981Y-97372733D01*
X160553606Y-97309699D01*
X160553610Y-97309685D01*
X160553614Y-97309650D01*
X160572370Y-97249057D01*
X160602539Y-97193262D01*
X160632740Y-97156756D01*
X160639900Y-97145077D01*
X160643621Y-97131509D01*
X160643414Y-97117440D01*
X160639296Y-97103987D01*
X160633215Y-97094235D01*
X160600028Y-97052958D01*
X160570641Y-96996747D01*
X160552733Y-96935899D01*
X160552730Y-96935870D01*
X160552725Y-96935852D01*
X160546981Y-96872733D01*
X160553606Y-96809699D01*
X160553610Y-96809685D01*
X160553614Y-96809650D01*
X160572370Y-96749057D01*
X160602539Y-96693262D01*
X160632740Y-96656756D01*
X160639900Y-96645077D01*
X160643621Y-96631509D01*
X160643414Y-96617440D01*
X160639296Y-96603987D01*
X160633215Y-96594235D01*
X160600028Y-96552958D01*
X160570641Y-96496747D01*
X160552733Y-96435899D01*
X160552730Y-96435870D01*
X160552725Y-96435852D01*
X160546981Y-96372733D01*
X160553606Y-96309699D01*
X160553610Y-96309685D01*
X160553614Y-96309650D01*
X160572370Y-96249057D01*
X160602539Y-96193262D01*
X160632740Y-96156756D01*
X160639900Y-96145077D01*
X160643621Y-96131509D01*
X160643414Y-96117440D01*
X160639296Y-96103987D01*
X160633215Y-96094235D01*
X160600028Y-96052958D01*
X160570641Y-95996747D01*
X160552733Y-95935899D01*
X160552730Y-95935870D01*
X160552725Y-95935852D01*
X160546981Y-95872733D01*
X160553606Y-95809699D01*
X160553610Y-95809685D01*
X160553614Y-95809650D01*
X160572370Y-95749057D01*
X160602539Y-95693262D01*
X160632740Y-95656756D01*
X160639900Y-95645077D01*
X160643621Y-95631509D01*
X160643414Y-95617440D01*
X160639296Y-95603987D01*
X160633215Y-95594235D01*
X160600028Y-95552958D01*
X160570641Y-95496747D01*
X160552733Y-95435899D01*
X160552730Y-95435870D01*
X160552725Y-95435852D01*
X160546981Y-95372733D01*
X160553606Y-95309699D01*
X160553610Y-95309685D01*
X160553614Y-95309650D01*
X160572370Y-95249057D01*
X160602539Y-95193262D01*
X160632740Y-95156756D01*
X160639900Y-95145077D01*
X160643621Y-95131509D01*
X160643414Y-95117440D01*
X160639296Y-95103987D01*
X160633215Y-95094235D01*
X160600028Y-95052958D01*
X160570641Y-94996747D01*
X160552733Y-94935899D01*
X160552730Y-94935869D01*
X160552725Y-94935851D01*
X160547071Y-94873715D01*
X160543837Y-94860022D01*
X160536917Y-94847772D01*
X160526858Y-94837935D01*
X160514456Y-94831290D01*
X160502503Y-94828520D01*
X160434699Y-94821394D01*
X160434685Y-94821390D01*
X160434650Y-94821386D01*
X160374057Y-94802630D01*
X160318262Y-94772461D01*
X160281756Y-94742260D01*
X160270077Y-94735100D01*
X160256509Y-94731379D01*
X160242440Y-94731586D01*
X160228987Y-94735704D01*
X160219235Y-94741785D01*
X160177958Y-94774972D01*
X160121747Y-94804359D01*
X160060899Y-94822267D01*
X160060870Y-94822270D01*
X160060852Y-94822275D01*
X159997733Y-94828019D01*
X159934699Y-94821394D01*
X159934685Y-94821390D01*
X159934650Y-94821386D01*
X159874057Y-94802630D01*
X159818262Y-94772461D01*
X159781756Y-94742260D01*
X159770077Y-94735100D01*
X159756509Y-94731379D01*
X159742440Y-94731586D01*
X159728987Y-94735704D01*
X159719235Y-94741785D01*
X159677958Y-94774972D01*
X159621747Y-94804359D01*
X159560899Y-94822267D01*
X159560870Y-94822270D01*
X159560852Y-94822275D01*
X159497733Y-94828019D01*
X159434699Y-94821394D01*
X159434685Y-94821390D01*
X159434650Y-94821386D01*
X159374057Y-94802630D01*
X159318262Y-94772461D01*
X159281756Y-94742260D01*
X159270077Y-94735100D01*
X159256509Y-94731379D01*
X159242440Y-94731586D01*
X159228987Y-94735704D01*
X159219235Y-94741785D01*
X159177958Y-94774972D01*
X159121747Y-94804359D01*
X159060899Y-94822267D01*
X159060870Y-94822270D01*
X159060852Y-94822275D01*
X158997733Y-94828019D01*
X158934699Y-94821394D01*
X158934685Y-94821390D01*
X158934650Y-94821386D01*
X158874057Y-94802630D01*
X158818262Y-94772461D01*
X158781756Y-94742260D01*
X158770077Y-94735100D01*
X158756509Y-94731379D01*
X158742440Y-94731586D01*
X158728987Y-94735704D01*
X158719235Y-94741785D01*
X158677958Y-94774972D01*
X158621747Y-94804359D01*
X158560899Y-94822267D01*
X158560870Y-94822270D01*
X158560852Y-94822275D01*
X158497733Y-94828019D01*
X158434699Y-94821394D01*
X158434685Y-94821390D01*
X158434650Y-94821386D01*
X158374057Y-94802630D01*
X158318262Y-94772461D01*
X158281756Y-94742260D01*
X158270077Y-94735100D01*
X158256509Y-94731379D01*
X158242440Y-94731586D01*
X158228987Y-94735704D01*
X158219235Y-94741785D01*
X158177958Y-94774972D01*
X158121747Y-94804359D01*
X158060899Y-94822267D01*
X158060870Y-94822270D01*
X158060852Y-94822275D01*
X157997733Y-94828019D01*
X157934699Y-94821394D01*
X157934685Y-94821390D01*
X157934650Y-94821386D01*
X157874057Y-94802630D01*
X157818262Y-94772461D01*
X157781756Y-94742260D01*
X157770077Y-94735100D01*
X157756509Y-94731379D01*
X157742440Y-94731586D01*
X157728987Y-94735704D01*
X157719235Y-94741785D01*
X157677958Y-94774972D01*
X157621747Y-94804359D01*
X157560899Y-94822267D01*
X157560870Y-94822270D01*
X157560852Y-94822275D01*
X157497733Y-94828019D01*
X157434699Y-94821394D01*
X157434685Y-94821390D01*
X157434650Y-94821386D01*
X157374057Y-94802630D01*
X157318262Y-94772461D01*
X157281756Y-94742260D01*
X157270077Y-94735100D01*
X157256509Y-94731379D01*
X157242440Y-94731586D01*
X157228987Y-94735704D01*
X157219235Y-94741785D01*
X157177958Y-94774972D01*
X157121747Y-94804359D01*
X157060899Y-94822267D01*
X157060870Y-94822270D01*
X157060852Y-94822275D01*
X156997733Y-94828019D01*
X156934699Y-94821394D01*
X156934685Y-94821390D01*
X156934650Y-94821386D01*
X156874057Y-94802630D01*
X156818262Y-94772461D01*
X156781756Y-94742260D01*
X156770077Y-94735100D01*
X156756509Y-94731379D01*
X156742440Y-94731586D01*
X156728987Y-94735704D01*
X156719235Y-94741785D01*
X156677958Y-94774972D01*
X156621747Y-94804359D01*
X156560899Y-94822267D01*
X156560870Y-94822270D01*
X156560852Y-94822275D01*
X156497733Y-94828019D01*
X156434699Y-94821394D01*
X156434685Y-94821390D01*
X156434650Y-94821386D01*
X156374057Y-94802630D01*
X156318262Y-94772461D01*
X156281756Y-94742260D01*
X156270077Y-94735100D01*
X156256509Y-94731379D01*
X156242440Y-94731586D01*
X156228987Y-94735704D01*
X156219235Y-94741785D01*
X156177958Y-94774972D01*
X156121747Y-94804359D01*
X156060899Y-94822267D01*
X156060870Y-94822270D01*
X156060852Y-94822275D01*
X155997733Y-94828019D01*
X155934699Y-94821394D01*
X155934685Y-94821390D01*
X155934650Y-94821386D01*
X155874057Y-94802630D01*
X155818262Y-94772461D01*
X155781756Y-94742260D01*
X155770077Y-94735100D01*
X155756509Y-94731379D01*
X155742440Y-94731586D01*
X155728987Y-94735704D01*
X155719235Y-94741785D01*
X155677958Y-94774972D01*
X155621747Y-94804359D01*
X155560899Y-94822267D01*
X155560870Y-94822270D01*
X155560852Y-94822275D01*
X155497733Y-94828019D01*
X155434699Y-94821394D01*
X155434685Y-94821390D01*
X155434650Y-94821386D01*
X155374057Y-94802630D01*
X155318262Y-94772461D01*
X155281756Y-94742260D01*
X155270077Y-94735100D01*
X155256509Y-94731379D01*
X155242440Y-94731586D01*
X155228987Y-94735704D01*
X155219235Y-94741785D01*
X155177958Y-94774972D01*
X155121747Y-94804359D01*
X155060899Y-94822267D01*
X155060869Y-94822270D01*
X155060851Y-94822275D01*
X154998715Y-94827929D01*
X154985022Y-94831163D01*
X154972772Y-94838083D01*
X154962935Y-94848142D01*
X154956290Y-94860544D01*
X154953520Y-94872497D01*
X154946394Y-94940301D01*
X154946390Y-94940315D01*
X154946386Y-94940350D01*
X154927630Y-95000943D01*
X154897461Y-95056738D01*
X154867260Y-95093244D01*
X154860100Y-95104923D01*
X154856379Y-95118491D01*
X153793430Y-95118491D01*
X153793414Y-95117440D01*
X153789296Y-95103987D01*
X153783215Y-95094235D01*
X153750028Y-95052958D01*
X153720641Y-94996747D01*
X153702733Y-94935899D01*
X153702730Y-94935870D01*
X153702725Y-94935852D01*
X153696981Y-94872733D01*
X153703606Y-94809699D01*
X153703610Y-94809685D01*
X153703614Y-94809650D01*
X153722370Y-94749057D01*
X153752539Y-94693262D01*
X153792970Y-94644390D01*
X153842124Y-94604301D01*
X153898128Y-94574523D01*
X153958850Y-94556190D01*
X154021976Y-94550000D01*
X154625000Y-94550000D01*
X154638930Y-94548020D01*
X154651756Y-94542239D01*
X154662464Y-94533112D01*
X154670206Y-94521364D01*
X154674368Y-94507924D01*
X154675000Y-94500000D01*
X154675000Y-93896945D01*
X154675018Y-93894463D01*
X154675032Y-93892438D01*
X154682102Y-93829405D01*
X154701281Y-93768945D01*
X154731838Y-93713362D01*
X154772609Y-93664772D01*
X154822042Y-93625028D01*
X154878253Y-93595641D01*
X154938371Y-93577948D01*
X154951135Y-93572134D01*
X154961808Y-93562965D01*
X154969503Y-93551187D01*
X154973613Y-93537731D01*
X154973811Y-93523663D01*
X154970082Y-93510096D01*
X154962721Y-93498106D01*
X154952311Y-93488641D01*
X154939676Y-93482451D01*
X154924214Y-93480000D01*
X153800000Y-93480000D01*
X153800000Y-92180000D01*
X155200000Y-92180000D01*
X155200000Y-93480000D01*
X155200000Y-93480000D01*
G37*
G36*
X159350000Y-99225000D02*
X156150000Y-99225000D01*
X156150000Y-96025000D01*
X159350000Y-96025000D01*
X159350000Y-99225000D01*
X159350000Y-99225000D01*
G37*
G36*
X179175000Y-101675000D02*
X177425000Y-101675000D01*
X177425000Y-99725000D01*
X179175000Y-99725000D01*
X179175000Y-101675000D01*
X179175000Y-101675000D01*
G37*
G36*
X177175000Y-101675000D02*
X175425000Y-101675000D01*
X175425000Y-99725000D01*
X177175000Y-99725000D01*
X177175000Y-101675000D01*
X177175000Y-101675000D01*
G37*
G36*
X163400000Y-101580000D02*
X162000000Y-101580000D01*
X162000000Y-100280000D01*
X163400000Y-100280000D01*
X163400000Y-101580000D01*
X163400000Y-101580000D01*
G37*
G36*
X153300000Y-101320000D02*
X151900000Y-101320000D01*
X151900000Y-100020000D01*
X153300000Y-100020000D01*
X153300000Y-101320000D01*
X153300000Y-101320000D01*
G37*
G36*
X148420000Y-100600000D02*
X147120000Y-100600000D01*
X147120000Y-99200000D01*
X148420000Y-99200000D01*
X148420000Y-100600000D01*
X148420000Y-100600000D01*
G37*
G36*
X150080000Y-100600000D02*
X148780000Y-100600000D01*
X148780000Y-99200000D01*
X150080000Y-99200000D01*
X150080000Y-100600000D01*
X150080000Y-100600000D01*
G37*
G36*
X163400000Y-99920000D02*
X162000000Y-99920000D01*
X162000000Y-98620000D01*
X163400000Y-98620000D01*
X163400000Y-99920000D01*
X163400000Y-99920000D01*
G37*
G36*
X168000000Y-99705000D02*
X167000000Y-99705000D01*
X167000000Y-98505000D01*
X168000000Y-98505000D01*
X168000000Y-99705000D01*
X168000000Y-99705000D01*
G37*
G36*
X175375000Y-94240000D02*
X175376980Y-94253930D01*
X175382761Y-94266756D01*
X175391888Y-94277464D01*
X175403636Y-94285206D01*
X175417076Y-94289368D01*
X175425000Y-94290000D01*
X178450000Y-94290000D01*
X178450000Y-98640000D01*
X175425000Y-98640000D01*
X175411070Y-98641980D01*
X175398244Y-98647761D01*
X175387536Y-98656888D01*
X175379794Y-98668636D01*
X175375632Y-98682076D01*
X175375000Y-98690000D01*
X175375000Y-98890000D01*
X173675000Y-98890000D01*
X173675000Y-94040000D01*
X175375000Y-94040000D01*
X175375000Y-94240000D01*
X175375000Y-94240000D01*
G37*
G36*
X180650000Y-98795000D02*
X179350000Y-98795000D01*
X179350000Y-97945000D01*
X180650000Y-97945000D01*
X180650000Y-98795000D01*
X180650000Y-98795000D01*
G37*
G36*
X147160000Y-97910000D02*
X146040000Y-97910000D01*
X146040000Y-95790000D01*
X147160000Y-95790000D01*
X147160000Y-97910000D01*
X147160000Y-97910000D01*
G37*
G36*
X164520000Y-97625000D02*
X163220000Y-97625000D01*
X163220000Y-96225000D01*
X164520000Y-96225000D01*
X164520000Y-97625000D01*
X164520000Y-97625000D01*
G37*
G36*
X166180000Y-97625000D02*
X164880000Y-97625000D01*
X164880000Y-96225000D01*
X166180000Y-96225000D01*
X166180000Y-97625000D01*
X166180000Y-97625000D01*
G37*
G36*
X150700000Y-97600000D02*
X147600000Y-97600000D01*
X147600000Y-93800000D01*
X150700000Y-93800000D01*
X150700000Y-97600000D01*
X150700000Y-97600000D01*
G37*
G36*
X180650000Y-97525000D02*
X179350000Y-97525000D01*
X179350000Y-96675000D01*
X180650000Y-96675000D01*
X180650000Y-97525000D01*
X180650000Y-97525000D01*
G37*
G36*
X168000000Y-97305000D02*
X167000000Y-97305000D01*
X167000000Y-96105000D01*
X168000000Y-96105000D01*
X168000000Y-97305000D01*
X168000000Y-97305000D01*
G37*
G36*
X153260000Y-97260000D02*
X151140000Y-97260000D01*
X151140000Y-96140000D01*
X153260000Y-96140000D01*
X153260000Y-97260000D01*
X153260000Y-97260000D01*
G37*
G36*
X180650000Y-96255000D02*
X179350000Y-96255000D01*
X179350000Y-95405000D01*
X180650000Y-95405000D01*
X180650000Y-96255000D01*
X180650000Y-96255000D01*
G37*
G36*
X169435000Y-96000000D02*
X168385000Y-96000000D01*
X168385000Y-94610000D01*
X169435000Y-94610000D01*
X169435000Y-96000000D01*
X169435000Y-96000000D01*
G37*
G36*
X168015000Y-96000000D02*
X166965000Y-96000000D01*
X166965000Y-94610000D01*
X168015000Y-94610000D01*
X168015000Y-96000000D01*
X168015000Y-96000000D01*
G37*
G36*
X147160000Y-95610000D02*
X146040000Y-95610000D01*
X146040000Y-93490000D01*
X147160000Y-93490000D01*
X147160000Y-95610000D01*
X147160000Y-95610000D01*
G37*
G36*
X180650000Y-94985000D02*
X179350000Y-94985000D01*
X179350000Y-94135000D01*
X180650000Y-94135000D01*
X180650000Y-94985000D01*
X180650000Y-94985000D01*
G37*
G36*
X169445000Y-94300000D02*
X168395000Y-94300000D01*
X168395000Y-92910000D01*
X169445000Y-92910000D01*
X169445000Y-94300000D01*
X169445000Y-94300000D01*
G37*
G36*
X168025000Y-94300000D02*
X166975000Y-94300000D01*
X166975000Y-92910000D01*
X168025000Y-92910000D01*
X168025000Y-94300000D01*
X168025000Y-94300000D01*
G37*
G36*
X178575000Y-92775000D02*
X176825000Y-92775000D01*
X176825000Y-90825000D01*
X178575000Y-90825000D01*
X178575000Y-92775000D01*
X178575000Y-92775000D01*
G37*
G36*
X176575000Y-92775000D02*
X174825000Y-92775000D01*
X174825000Y-90825000D01*
X176575000Y-90825000D01*
X176575000Y-92775000D01*
X176575000Y-92775000D01*
G37*
G36*
X155200000Y-91820000D02*
X153800000Y-91820000D01*
X153800000Y-90520000D01*
X155200000Y-90520000D01*
X155200000Y-91820000D01*
X155200000Y-91820000D01*
G37*
G36*
X175250000Y-85275000D02*
X175251980Y-85288930D01*
X175257761Y-85301756D01*
X175266888Y-85312464D01*
X175278636Y-85320206D01*
X175292076Y-85324368D01*
X175300000Y-85325000D01*
X178325000Y-85325000D01*
X178325000Y-89675000D01*
X175300000Y-89675000D01*
X175286070Y-89676980D01*
X175273244Y-89682761D01*
X175262536Y-89691888D01*
X175254794Y-89703636D01*
X175250632Y-89717076D01*
X175250000Y-89725000D01*
X175250000Y-89925000D01*
X173550000Y-89925000D01*
X173550000Y-85075000D01*
X175250000Y-85075000D01*
X175250000Y-85275000D01*
X175250000Y-85275000D01*
G37*
G36*
X180525000Y-89830000D02*
X179225000Y-89830000D01*
X179225000Y-88980000D01*
X180525000Y-88980000D01*
X180525000Y-89830000D01*
X180525000Y-89830000D01*
G37*
G36*
X180525000Y-88560000D02*
X179225000Y-88560000D01*
X179225000Y-87710000D01*
X180525000Y-87710000D01*
X180525000Y-88560000D01*
X180525000Y-88560000D01*
G37*
G36*
X180525000Y-87290000D02*
X179225000Y-87290000D01*
X179225000Y-86440000D01*
X180525000Y-86440000D01*
X180525000Y-87290000D01*
X180525000Y-87290000D01*
G37*
G36*
X163080000Y-86400000D02*
X161780000Y-86400000D01*
X161780000Y-85000000D01*
X163080000Y-85000000D01*
X163080000Y-86400000D01*
X163080000Y-86400000D01*
G37*
G36*
X161420000Y-86400000D02*
X160120000Y-86400000D01*
X160120000Y-85000000D01*
X161420000Y-85000000D01*
X161420000Y-86400000D01*
X161420000Y-86400000D01*
G37*
G36*
X180525000Y-86020000D02*
X179225000Y-86020000D01*
X179225000Y-85170000D01*
X180525000Y-85170000D01*
X180525000Y-86020000D01*
X180525000Y-86020000D01*
G37*
G36*
X147419782Y-82870631D02*
X147602284Y-82908093D01*
X147774029Y-82980288D01*
X147928483Y-83084468D01*
X148059762Y-83216667D01*
X148162862Y-83371844D01*
X148233856Y-83544089D01*
X148269975Y-83726504D01*
X148269975Y-83726514D01*
X148270041Y-83726848D01*
X148267070Y-83939643D01*
X148266994Y-83939977D01*
X148266994Y-83939989D01*
X148225798Y-84121316D01*
X148150019Y-84291516D01*
X148042628Y-84443754D01*
X147907707Y-84572237D01*
X147750408Y-84672061D01*
X147576710Y-84739435D01*
X147393238Y-84771785D01*
X147206974Y-84767884D01*
X147025011Y-84727877D01*
X146854289Y-84653290D01*
X146701306Y-84546964D01*
X146571885Y-84412946D01*
X146470965Y-84256348D01*
X146402381Y-84083125D01*
X146368748Y-83899876D01*
X146371350Y-83713591D01*
X146410084Y-83531360D01*
X146483479Y-83360118D01*
X146588735Y-83206396D01*
X146721846Y-83076043D01*
X146877738Y-82974030D01*
X147050477Y-82904239D01*
X147233479Y-82869330D01*
X147419782Y-82870631D01*
X147419782Y-82870631D01*
G37*
G36*
X149959782Y-82870631D02*
X150142284Y-82908093D01*
X150314029Y-82980288D01*
X150468483Y-83084468D01*
X150599762Y-83216667D01*
X150702862Y-83371844D01*
X150773856Y-83544089D01*
X150809975Y-83726504D01*
X150809975Y-83726514D01*
X150810041Y-83726848D01*
X150807070Y-83939643D01*
X150806994Y-83939977D01*
X150806994Y-83939989D01*
X150765798Y-84121316D01*
X150690019Y-84291516D01*
X150582628Y-84443754D01*
X150447707Y-84572237D01*
X150290408Y-84672061D01*
X150116710Y-84739435D01*
X149933238Y-84771785D01*
X149746974Y-84767884D01*
X149565011Y-84727877D01*
X149394289Y-84653290D01*
X149241306Y-84546964D01*
X149111885Y-84412946D01*
X149010965Y-84256348D01*
X148942381Y-84083125D01*
X148908748Y-83899876D01*
X148911350Y-83713591D01*
X148950084Y-83531360D01*
X149023479Y-83360118D01*
X149128735Y-83206396D01*
X149261846Y-83076043D01*
X149417738Y-82974030D01*
X149590477Y-82904239D01*
X149773479Y-82869330D01*
X149959782Y-82870631D01*
X149959782Y-82870631D01*
G37*
G36*
X155039782Y-82870631D02*
X155222284Y-82908093D01*
X155394029Y-82980288D01*
X155548483Y-83084468D01*
X155679762Y-83216667D01*
X155782862Y-83371844D01*
X155853856Y-83544089D01*
X155889975Y-83726504D01*
X155889975Y-83726514D01*
X155890041Y-83726848D01*
X155887070Y-83939643D01*
X155886994Y-83939977D01*
X155886994Y-83939989D01*
X155845798Y-84121316D01*
X155770019Y-84291516D01*
X155662628Y-84443754D01*
X155527707Y-84572237D01*
X155370408Y-84672061D01*
X155196710Y-84739435D01*
X155013238Y-84771785D01*
X154826974Y-84767884D01*
X154645011Y-84727877D01*
X154474289Y-84653290D01*
X154321306Y-84546964D01*
X154191885Y-84412946D01*
X154090965Y-84256348D01*
X154022381Y-84083125D01*
X153988748Y-83899876D01*
X153991350Y-83713591D01*
X154030084Y-83531360D01*
X154103479Y-83360118D01*
X154208735Y-83206396D01*
X154341846Y-83076043D01*
X154497738Y-82974030D01*
X154670477Y-82904239D01*
X154853479Y-82869330D01*
X155039782Y-82870631D01*
X155039782Y-82870631D01*
G37*
G36*
X152499782Y-82870631D02*
X152682284Y-82908093D01*
X152854029Y-82980288D01*
X153008483Y-83084468D01*
X153139762Y-83216667D01*
X153242862Y-83371844D01*
X153313856Y-83544089D01*
X153349975Y-83726504D01*
X153349975Y-83726514D01*
X153350041Y-83726848D01*
X153347070Y-83939643D01*
X153346994Y-83939977D01*
X153346994Y-83939989D01*
X153305798Y-84121316D01*
X153230019Y-84291516D01*
X153122628Y-84443754D01*
X152987707Y-84572237D01*
X152830408Y-84672061D01*
X152656710Y-84739435D01*
X152473238Y-84771785D01*
X152286974Y-84767884D01*
X152105011Y-84727877D01*
X151934289Y-84653290D01*
X151781306Y-84546964D01*
X151651885Y-84412946D01*
X151550965Y-84256348D01*
X151482381Y-84083125D01*
X151448748Y-83899876D01*
X151451350Y-83713591D01*
X151490084Y-83531360D01*
X151563479Y-83360118D01*
X151668735Y-83206396D01*
X151801846Y-83076043D01*
X151957738Y-82974030D01*
X152130477Y-82904239D01*
X152313479Y-82869330D01*
X152499782Y-82870631D01*
X152499782Y-82870631D01*
G37*
G36*
X145730000Y-84770000D02*
X143830000Y-84770000D01*
X143830000Y-82870000D01*
X145730000Y-82870000D01*
X145730000Y-84770000D01*
X145730000Y-84770000D01*
G37*
G36*
X138836109Y-78057130D02*
X139450846Y-78183318D01*
X140029361Y-78426503D01*
X140549629Y-78777428D01*
X140991822Y-79222718D01*
X141339107Y-79745424D01*
X141578245Y-80325619D01*
X141700071Y-80940880D01*
X141700071Y-80940890D01*
X141700137Y-80941224D01*
X141690128Y-81658007D01*
X141690052Y-81658341D01*
X141690052Y-81658353D01*
X141551098Y-82269963D01*
X141295848Y-82843262D01*
X140934108Y-83356063D01*
X140479647Y-83788839D01*
X139949791Y-84125096D01*
X139364707Y-84352036D01*
X138746691Y-84461008D01*
X138119276Y-84447866D01*
X137506358Y-84313107D01*
X136931294Y-84061867D01*
X136415981Y-83703716D01*
X135980044Y-83252290D01*
X135640096Y-82724794D01*
X135409078Y-82141310D01*
X135295791Y-81524062D01*
X135304554Y-80896572D01*
X135435028Y-80282736D01*
X135682249Y-79705928D01*
X136036796Y-79188126D01*
X136485166Y-78749049D01*
X137010279Y-78405425D01*
X137592135Y-78170339D01*
X138208569Y-78052748D01*
X138836109Y-78057130D01*
X138836109Y-78057130D01*
G37*
G36*
X182336109Y-78057130D02*
X182950846Y-78183318D01*
X183529361Y-78426503D01*
X184049629Y-78777428D01*
X184491822Y-79222718D01*
X184839107Y-79745424D01*
X185078245Y-80325619D01*
X185200071Y-80940880D01*
X185200071Y-80940890D01*
X185200137Y-80941224D01*
X185190128Y-81658007D01*
X185190052Y-81658341D01*
X185190052Y-81658353D01*
X185051098Y-82269963D01*
X184795848Y-82843262D01*
X184434108Y-83356063D01*
X183979647Y-83788839D01*
X183449791Y-84125096D01*
X182864707Y-84352036D01*
X182246691Y-84461008D01*
X181619276Y-84447866D01*
X181006358Y-84313107D01*
X180431294Y-84061867D01*
X179915981Y-83703716D01*
X179480044Y-83252290D01*
X179140096Y-82724794D01*
X178909078Y-82141310D01*
X178795791Y-81524062D01*
X178804554Y-80896572D01*
X178935028Y-80282736D01*
X179182249Y-79705928D01*
X179536796Y-79188126D01*
X179985166Y-78749049D01*
X180510279Y-78405425D01*
X181092135Y-78170339D01*
X181708569Y-78052748D01*
X182336109Y-78057130D01*
X182336109Y-78057130D01*
G37*
G36*
X162700000Y-84200000D02*
X161700000Y-84200000D01*
X161700000Y-83000000D01*
X162700000Y-83000000D01*
X162700000Y-84200000D01*
X162700000Y-84200000D01*
G37*
G36*
X164315000Y-84095000D02*
X163265000Y-84095000D01*
X163265000Y-82705000D01*
X164315000Y-82705000D01*
X164315000Y-84095000D01*
X164315000Y-84095000D01*
G37*
G36*
X165735000Y-84095000D02*
X164685000Y-84095000D01*
X164685000Y-82705000D01*
X165735000Y-82705000D01*
X165735000Y-84095000D01*
X165735000Y-84095000D01*
G37*
G36*
X175875000Y-82875000D02*
X174125000Y-82875000D01*
X174125000Y-80925000D01*
X175875000Y-80925000D01*
X175875000Y-82875000D01*
X175875000Y-82875000D01*
G37*
G36*
X177875000Y-82875000D02*
X176125000Y-82875000D01*
X176125000Y-80925000D01*
X177875000Y-80925000D01*
X177875000Y-82875000D01*
X177875000Y-82875000D01*
G37*
G36*
X164315000Y-82395000D02*
X163265000Y-82395000D01*
X163265000Y-81005000D01*
X164315000Y-81005000D01*
X164315000Y-82395000D01*
X164315000Y-82395000D01*
G37*
G36*
X165735000Y-82395000D02*
X164685000Y-82395000D01*
X164685000Y-81005000D01*
X165735000Y-81005000D01*
X165735000Y-82395000D01*
X165735000Y-82395000D01*
G37*
G36*
X155039782Y-80330631D02*
X155222284Y-80368093D01*
X155394029Y-80440288D01*
X155548483Y-80544468D01*
X155679762Y-80676667D01*
X155782862Y-80831844D01*
X155853856Y-81004089D01*
X155889975Y-81186504D01*
X155889975Y-81186514D01*
X155890041Y-81186848D01*
X155887070Y-81399643D01*
X155886994Y-81399977D01*
X155886994Y-81399989D01*
X155845798Y-81581316D01*
X155770019Y-81751516D01*
X155662628Y-81903754D01*
X155527707Y-82032237D01*
X155370408Y-82132061D01*
X155196710Y-82199435D01*
X155013238Y-82231785D01*
X154826974Y-82227884D01*
X154645011Y-82187877D01*
X154474289Y-82113290D01*
X154321306Y-82006964D01*
X154191885Y-81872946D01*
X154090965Y-81716348D01*
X154022381Y-81543125D01*
X153988748Y-81359876D01*
X153991350Y-81173591D01*
X154030084Y-80991360D01*
X154103479Y-80820118D01*
X154208735Y-80666396D01*
X154341846Y-80536043D01*
X154497738Y-80434030D01*
X154670477Y-80364239D01*
X154853479Y-80329330D01*
X155039782Y-80330631D01*
X155039782Y-80330631D01*
G37*
G36*
X147419782Y-80330631D02*
X147602284Y-80368093D01*
X147774029Y-80440288D01*
X147928483Y-80544468D01*
X148059762Y-80676667D01*
X148162862Y-80831844D01*
X148233856Y-81004089D01*
X148269975Y-81186504D01*
X148269975Y-81186514D01*
X148270041Y-81186848D01*
X148267070Y-81399643D01*
X148266994Y-81399977D01*
X148266994Y-81399989D01*
X148225798Y-81581316D01*
X148150019Y-81751516D01*
X148042628Y-81903754D01*
X147907707Y-82032237D01*
X147750408Y-82132061D01*
X147576710Y-82199435D01*
X147393238Y-82231785D01*
X147206974Y-82227884D01*
X147025011Y-82187877D01*
X146854289Y-82113290D01*
X146701306Y-82006964D01*
X146571885Y-81872946D01*
X146470965Y-81716348D01*
X146402381Y-81543125D01*
X146368748Y-81359876D01*
X146371350Y-81173591D01*
X146410084Y-80991360D01*
X146483479Y-80820118D01*
X146588735Y-80666396D01*
X146721846Y-80536043D01*
X146877738Y-80434030D01*
X147050477Y-80364239D01*
X147233479Y-80329330D01*
X147419782Y-80330631D01*
X147419782Y-80330631D01*
G37*
G36*
X149959782Y-80330631D02*
X150142284Y-80368093D01*
X150314029Y-80440288D01*
X150468483Y-80544468D01*
X150599762Y-80676667D01*
X150702862Y-80831844D01*
X150773856Y-81004089D01*
X150809975Y-81186504D01*
X150809975Y-81186514D01*
X150810041Y-81186848D01*
X150807070Y-81399643D01*
X150806994Y-81399977D01*
X150806994Y-81399989D01*
X150765798Y-81581316D01*
X150690019Y-81751516D01*
X150582628Y-81903754D01*
X150447707Y-82032237D01*
X150290408Y-82132061D01*
X150116710Y-82199435D01*
X149933238Y-82231785D01*
X149746974Y-82227884D01*
X149565011Y-82187877D01*
X149394289Y-82113290D01*
X149241306Y-82006964D01*
X149111885Y-81872946D01*
X149010965Y-81716348D01*
X148942381Y-81543125D01*
X148908748Y-81359876D01*
X148911350Y-81173591D01*
X148950084Y-80991360D01*
X149023479Y-80820118D01*
X149128735Y-80666396D01*
X149261846Y-80536043D01*
X149417738Y-80434030D01*
X149590477Y-80364239D01*
X149773479Y-80329330D01*
X149959782Y-80330631D01*
X149959782Y-80330631D01*
G37*
G36*
X152499782Y-80330631D02*
X152682284Y-80368093D01*
X152854029Y-80440288D01*
X153008483Y-80544468D01*
X153139762Y-80676667D01*
X153242862Y-80831844D01*
X153313856Y-81004089D01*
X153349975Y-81186504D01*
X153349975Y-81186514D01*
X153350041Y-81186848D01*
X153347070Y-81399643D01*
X153346994Y-81399977D01*
X153346994Y-81399989D01*
X153305798Y-81581316D01*
X153230019Y-81751516D01*
X153122628Y-81903754D01*
X152987707Y-82032237D01*
X152830408Y-82132061D01*
X152656710Y-82199435D01*
X152473238Y-82231785D01*
X152286974Y-82227884D01*
X152105011Y-82187877D01*
X151934289Y-82113290D01*
X151781306Y-82006964D01*
X151651885Y-81872946D01*
X151550965Y-81716348D01*
X151482381Y-81543125D01*
X151448748Y-81359876D01*
X151451350Y-81173591D01*
X151490084Y-80991360D01*
X151563479Y-80820118D01*
X151668735Y-80666396D01*
X151801846Y-80536043D01*
X151957738Y-80434030D01*
X152130477Y-80364239D01*
X152313479Y-80329330D01*
X152499782Y-80330631D01*
X152499782Y-80330631D01*
G37*
G36*
X157579782Y-80330631D02*
X157762284Y-80368093D01*
X157934029Y-80440288D01*
X158088483Y-80544468D01*
X158219762Y-80676667D01*
X158322862Y-80831844D01*
X158393856Y-81004089D01*
X158429975Y-81186504D01*
X158429975Y-81186514D01*
X158430041Y-81186848D01*
X158427070Y-81399643D01*
X158426994Y-81399977D01*
X158426994Y-81399989D01*
X158385798Y-81581316D01*
X158310019Y-81751516D01*
X158202628Y-81903754D01*
X158067707Y-82032237D01*
X157910408Y-82132061D01*
X157736710Y-82199435D01*
X157553238Y-82231785D01*
X157366974Y-82227884D01*
X157185011Y-82187877D01*
X157014289Y-82113290D01*
X156861306Y-82006964D01*
X156731885Y-81872946D01*
X156630965Y-81716348D01*
X156562381Y-81543125D01*
X156528748Y-81359876D01*
X156531350Y-81173591D01*
X156570084Y-80991360D01*
X156643479Y-80820118D01*
X156748735Y-80666396D01*
X156881846Y-80536043D01*
X157037738Y-80434030D01*
X157210477Y-80364239D01*
X157393479Y-80329330D01*
X157579782Y-80330631D01*
X157579782Y-80330631D01*
G37*
G36*
X145730000Y-82230000D02*
X143830000Y-82230000D01*
X143830000Y-80330000D01*
X145730000Y-80330000D01*
X145730000Y-82230000D01*
X145730000Y-82230000D01*
G37*
G36*
X162700000Y-81800000D02*
X161700000Y-81800000D01*
X161700000Y-80600000D01*
X162700000Y-80600000D01*
X162700000Y-81800000D01*
X162700000Y-81800000D01*
G37*
M02*
