G04 #@! TF.FileFunction,Copper,L1,Top,Signal*
%FSLAX46Y46*%
G04 Gerber Fmt 4.6, Leading zero omitted, Abs format (unit mm)*
G04 Created by KiCad (PCBNEW 4.0.6-e0-6349~53~ubuntu16.04.1) date Wed Mar  8 22:49:17 2017*
%MOMM*%
%LPD*%
G01*
G04 APERTURE LIST*
%ADD10C,0.100000*%
%ADD11C,0.250000*%
%ADD12C,0.800000*%
%ADD13C,6.000000*%
%ADD14R,1.000000X2.700000*%
%ADD15R,0.900000X1.000000*%
%ADD16R,2.700000X1.500000*%
%ADD17R,0.400000X0.600000*%
%ADD18R,1.640000X1.400000*%
%ADD19R,1.150000X0.700000*%
%ADD20R,1.550000X4.700000*%
%ADD21R,3.300000X4.200000*%
%ADD22R,0.600000X0.800000*%
%ADD23R,1.350000X1.550000*%
%ADD24R,1.550000X1.350000*%
%ADD25R,1.500000X1.500000*%
%ADD26C,1.500000*%
%ADD27R,1.000000X0.900000*%
%ADD28R,0.650000X0.990000*%
%ADD29R,0.720000X0.720000*%
%ADD30R,0.640000X0.720000*%
%ADD31R,1.400000X1.400000*%
%ADD32O,1.050000X0.250000*%
%ADD33O,0.250000X1.050000*%
%ADD34C,1.200000*%
%ADD35C,0.500000*%
%ADD36C,1.000000*%
%ADD37C,0.400000*%
%ADD38C,0.300000*%
%ADD39C,0.254000*%
G04 APERTURE END LIST*
D10*
D11*
X174585715Y-114957381D02*
X174014286Y-114957381D01*
X174300000Y-114957381D02*
X174300000Y-113957381D01*
X174204762Y-114100238D01*
X174109524Y-114195476D01*
X174014286Y-114243095D01*
D12*
X178700000Y-109900000D03*
X173100000Y-109250000D03*
X146000000Y-98300000D03*
X162250000Y-115005000D03*
X160750000Y-79005000D03*
X136250000Y-109505000D03*
X156750000Y-79005000D03*
X151750000Y-79005000D03*
X146750000Y-79005000D03*
X141750000Y-79005000D03*
X136250000Y-84505000D03*
X136250000Y-89505000D03*
X136250000Y-94505000D03*
X136250000Y-99505000D03*
X136250000Y-104505000D03*
X142250000Y-115005000D03*
X147250000Y-115005000D03*
X152250000Y-115005000D03*
X157250000Y-115005000D03*
X173000000Y-82005000D03*
X173000000Y-83005000D03*
X172250000Y-91200000D03*
X173000000Y-100505000D03*
X172750000Y-103505000D03*
X173000000Y-110755000D03*
X184450000Y-108805000D03*
X183750000Y-108805000D03*
X183050000Y-108805000D03*
X182350000Y-108805000D03*
X181650000Y-108805000D03*
X184450000Y-108105000D03*
X183750000Y-108105000D03*
X183050000Y-108105000D03*
X182350000Y-108105000D03*
X181650000Y-108105000D03*
X184450000Y-107405000D03*
X183750000Y-107405000D03*
X183050000Y-107405000D03*
X182350000Y-107405000D03*
X181650000Y-107405000D03*
X184450000Y-106705000D03*
X183750000Y-106705000D03*
X183050000Y-106705000D03*
X182350000Y-106705000D03*
X181650000Y-106705000D03*
X184450000Y-106005000D03*
X183750000Y-106005000D03*
X183050000Y-106005000D03*
X182350000Y-106005000D03*
X181650000Y-106005000D03*
X184450000Y-105305000D03*
X183750000Y-105305000D03*
X183050000Y-105305000D03*
X182350000Y-105305000D03*
X181650000Y-105305000D03*
X184450000Y-104605000D03*
X183750000Y-104605000D03*
X183050000Y-104605000D03*
X182350000Y-104605000D03*
X181650000Y-104605000D03*
X184450000Y-103905000D03*
X183750000Y-103905000D03*
X183050000Y-103905000D03*
X182350000Y-103905000D03*
X184450000Y-100605000D03*
X183750000Y-100605000D03*
X183050000Y-100605000D03*
X182350000Y-100605000D03*
X181650000Y-100605000D03*
X184450000Y-99905000D03*
X183750000Y-99905000D03*
X183050000Y-99905000D03*
X182350000Y-99905000D03*
X181650000Y-99905000D03*
X184450000Y-99205000D03*
X183750000Y-99205000D03*
X183050000Y-99205000D03*
X182350000Y-99205000D03*
X181650000Y-99205000D03*
X184450000Y-98505000D03*
X183750000Y-98505000D03*
X183050000Y-98505000D03*
X182350000Y-98505000D03*
X181650000Y-98505000D03*
X184450000Y-97805000D03*
X183750000Y-97805000D03*
X183050000Y-97805000D03*
X182350000Y-97805000D03*
X181650000Y-97805000D03*
X184450000Y-97105000D03*
X183750000Y-97105000D03*
X183050000Y-97105000D03*
X182350000Y-97105000D03*
X181650000Y-97105000D03*
X184450000Y-96405000D03*
X183750000Y-96405000D03*
X183050000Y-96405000D03*
X182350000Y-96405000D03*
X181650000Y-96405000D03*
X184450000Y-95705000D03*
X183750000Y-95705000D03*
X183050000Y-95705000D03*
X182350000Y-95705000D03*
X181650000Y-103905000D03*
X184450000Y-91605000D03*
X183750000Y-91605000D03*
X183050000Y-91605000D03*
X182350000Y-91605000D03*
X181650000Y-91605000D03*
X184450000Y-90905000D03*
X183750000Y-90905000D03*
X183050000Y-90905000D03*
X182350000Y-90905000D03*
X181650000Y-90905000D03*
X184450000Y-90205000D03*
X183750000Y-90205000D03*
X183050000Y-90205000D03*
X182350000Y-90205000D03*
X181650000Y-90205000D03*
X184450000Y-89505000D03*
X183750000Y-89505000D03*
X183050000Y-89505000D03*
X182350000Y-89505000D03*
X181650000Y-89505000D03*
X184450000Y-88805000D03*
X183750000Y-88805000D03*
X183050000Y-88805000D03*
X182350000Y-88805000D03*
X181650000Y-88805000D03*
X184450000Y-88105000D03*
X183750000Y-88105000D03*
X183050000Y-88105000D03*
X182350000Y-88105000D03*
X181650000Y-88105000D03*
X184450000Y-87405000D03*
X183750000Y-87405000D03*
X183050000Y-87405000D03*
X182350000Y-87405000D03*
X181650000Y-87405000D03*
X181650000Y-95705000D03*
X184450000Y-86705000D03*
X183750000Y-86705000D03*
X183050000Y-86705000D03*
X182350000Y-86705000D03*
X181650000Y-86705000D03*
X167250000Y-83405000D03*
X167450000Y-100205000D03*
X166750000Y-100205000D03*
X171450000Y-82005000D03*
X170750000Y-82005000D03*
X170050000Y-82005000D03*
X169350000Y-82005000D03*
X168650000Y-82005000D03*
X167950000Y-82005000D03*
X167250000Y-82005000D03*
X166550000Y-82005000D03*
X171450000Y-81305000D03*
X170750000Y-81305000D03*
X170050000Y-81305000D03*
X169350000Y-81305000D03*
X168650000Y-81305000D03*
X167950000Y-81305000D03*
X167250000Y-81305000D03*
X166550000Y-81305000D03*
X171450000Y-80605000D03*
X170750000Y-80605000D03*
X170050000Y-80605000D03*
X169350000Y-80605000D03*
X168650000Y-80605000D03*
X167950000Y-80605000D03*
X167250000Y-80605000D03*
X166550000Y-80605000D03*
X171450000Y-79905000D03*
X170750000Y-79905000D03*
X170050000Y-79905000D03*
X169350000Y-79905000D03*
X168650000Y-79905000D03*
X167950000Y-79905000D03*
X167250000Y-79905000D03*
X166550000Y-79905000D03*
X167250000Y-82705000D03*
X166550000Y-82705000D03*
X171450000Y-79205000D03*
X170750000Y-79205000D03*
X170050000Y-79205000D03*
X169350000Y-79205000D03*
X167250000Y-79205000D03*
X166550000Y-79205000D03*
X167550000Y-112305000D03*
X166850000Y-112305000D03*
X167550000Y-111605000D03*
X166850000Y-111605000D03*
X167550000Y-110905000D03*
X166850000Y-110905000D03*
X170950000Y-103805000D03*
X170250000Y-103805000D03*
X169550000Y-103805000D03*
X168850000Y-103805000D03*
X168150000Y-103805000D03*
X167450000Y-103805000D03*
X170950000Y-103105000D03*
X170250000Y-103105000D03*
X169550000Y-103105000D03*
X168850000Y-103105000D03*
X168150000Y-103105000D03*
X167450000Y-103105000D03*
X166750000Y-103105000D03*
X170950000Y-102405000D03*
X170250000Y-102405000D03*
X169550000Y-102405000D03*
X168850000Y-102405000D03*
X168150000Y-102405000D03*
X167450000Y-102405000D03*
X166750000Y-102405000D03*
X170950000Y-101705000D03*
X170250000Y-101705000D03*
X169550000Y-101705000D03*
X168850000Y-101705000D03*
X168150000Y-101705000D03*
X167450000Y-101705000D03*
X166750000Y-101705000D03*
X170950000Y-101005000D03*
X170250000Y-101005000D03*
X169550000Y-101005000D03*
X168850000Y-101005000D03*
X168150000Y-101005000D03*
X167450000Y-101005000D03*
X166750000Y-101005000D03*
X172450000Y-115105000D03*
X171750000Y-115105000D03*
X171050000Y-115105000D03*
X170350000Y-115105000D03*
X169650000Y-115105000D03*
X168950000Y-115105000D03*
X168250000Y-115105000D03*
X167550000Y-115105000D03*
X166850000Y-115105000D03*
X172450000Y-114405000D03*
X171750000Y-114405000D03*
X171050000Y-114405000D03*
X170350000Y-114405000D03*
X169650000Y-114405000D03*
X168950000Y-114405000D03*
X168250000Y-114405000D03*
X167550000Y-114405000D03*
X166850000Y-114405000D03*
X172450000Y-113705000D03*
X171750000Y-113705000D03*
X171050000Y-113705000D03*
X170350000Y-113705000D03*
X169650000Y-113705000D03*
X168950000Y-113705000D03*
X168250000Y-113705000D03*
X167550000Y-113705000D03*
X166850000Y-113705000D03*
X172450000Y-113005000D03*
X171750000Y-113005000D03*
X171050000Y-113005000D03*
X170350000Y-113005000D03*
X169650000Y-113005000D03*
X168950000Y-113005000D03*
X168250000Y-113005000D03*
X167550000Y-113005000D03*
X166850000Y-113005000D03*
X151150000Y-97755000D03*
X149850000Y-98105000D03*
X148700000Y-98105000D03*
X146550000Y-93055000D03*
X147500000Y-98155000D03*
X145500000Y-97405000D03*
X145550000Y-93905000D03*
X152250000Y-94055000D03*
X151000000Y-93405000D03*
X149950000Y-93205000D03*
X148900000Y-93205000D03*
D13*
X182000000Y-81255000D03*
D14*
X143800000Y-104750000D03*
X146000000Y-104750000D03*
D15*
X162430000Y-85700000D03*
X160770000Y-85700000D03*
D16*
X149150000Y-96650000D03*
X149150000Y-94750000D03*
D13*
X138500000Y-81250000D03*
X182000000Y-112755000D03*
X138500000Y-112750000D03*
D17*
X160550000Y-112055000D03*
X161450000Y-112055000D03*
X158850000Y-109005000D03*
X159750000Y-109005000D03*
D18*
X150000000Y-104485000D03*
X150000000Y-108515000D03*
D19*
X179875000Y-88135000D03*
X179875000Y-89405000D03*
X179875000Y-86865000D03*
D20*
X174400000Y-87500000D03*
D21*
X176600000Y-87500000D03*
D19*
X179875000Y-85595000D03*
X180000000Y-97100000D03*
X180000000Y-98370000D03*
X180000000Y-95830000D03*
D20*
X174525000Y-96465000D03*
D21*
X176725000Y-96465000D03*
D19*
X180000000Y-94560000D03*
X180050000Y-106010000D03*
X180050000Y-107280000D03*
X180050000Y-104740000D03*
D20*
X174575000Y-105375000D03*
D21*
X176775000Y-105375000D03*
D19*
X180050000Y-103470000D03*
D22*
X162200000Y-83600000D03*
X162200000Y-81200000D03*
D23*
X175000000Y-82150000D03*
X177000000Y-82150000D03*
D22*
X167500000Y-99105000D03*
X167500000Y-96705000D03*
X165500000Y-105305000D03*
X165500000Y-107705000D03*
D23*
X176300000Y-100700000D03*
X178300000Y-100700000D03*
X144200000Y-108250000D03*
X146200000Y-108250000D03*
X150300000Y-102100000D03*
X148300000Y-102100000D03*
X175700000Y-91800000D03*
X177700000Y-91800000D03*
D24*
X177000000Y-109900000D03*
X177000000Y-111900000D03*
D25*
X144780000Y-83820000D03*
D26*
X147320000Y-83820000D03*
X149860000Y-83820000D03*
X152400000Y-83820000D03*
X154940000Y-83820000D03*
D25*
X144780000Y-81280000D03*
D26*
X147320000Y-81280000D03*
X149860000Y-81280000D03*
X152400000Y-81280000D03*
X154940000Y-81280000D03*
X157480000Y-81280000D03*
D25*
X147320000Y-111760000D03*
D26*
X149860000Y-111760000D03*
X152400000Y-111760000D03*
X154940000Y-111760000D03*
X157480000Y-111760000D03*
D15*
X149430000Y-99900000D03*
X147770000Y-99900000D03*
D27*
X154500000Y-92830000D03*
X154500000Y-91170000D03*
X152600000Y-100670000D03*
X152600000Y-102330000D03*
D15*
X165530000Y-96925000D03*
X163870000Y-96925000D03*
D27*
X162700000Y-100930000D03*
X162700000Y-99270000D03*
D28*
X165210000Y-81700000D03*
X163790000Y-81700000D03*
X165210000Y-83400000D03*
X163790000Y-83400000D03*
X168910000Y-95305000D03*
X167490000Y-95305000D03*
X168920000Y-93605000D03*
X167500000Y-93605000D03*
X168960000Y-107005000D03*
X167540000Y-107005000D03*
X168960000Y-105005000D03*
X167540000Y-105005000D03*
X164260000Y-112105000D03*
X162840000Y-112105000D03*
X160490000Y-104500000D03*
X161910000Y-104500000D03*
D15*
X160570000Y-102900000D03*
X162230000Y-102900000D03*
D28*
X154090000Y-104400000D03*
X155510000Y-104400000D03*
X162560000Y-109105000D03*
X161140000Y-109105000D03*
D29*
X146600000Y-94050000D03*
X146600000Y-95050000D03*
X146600000Y-97350000D03*
X146600000Y-96350000D03*
D30*
X152740000Y-96700000D03*
X151660000Y-96700000D03*
D12*
X147800000Y-93205000D03*
D31*
X158450000Y-98325000D03*
X157050000Y-98325000D03*
X158450000Y-96925000D03*
D32*
X154225000Y-94875000D03*
X154225000Y-95375000D03*
X154225000Y-95875000D03*
X154225000Y-96375000D03*
X154225000Y-96875000D03*
X154225000Y-97375000D03*
X154225000Y-97875000D03*
X154225000Y-98375000D03*
X154225000Y-98875000D03*
X154225000Y-99375000D03*
X154225000Y-99875000D03*
X154225000Y-100375000D03*
D33*
X155000000Y-101150000D03*
X155500000Y-101150000D03*
X156000000Y-101150000D03*
X156500000Y-101150000D03*
X157000000Y-101150000D03*
X157500000Y-101150000D03*
X158000000Y-101150000D03*
X158500000Y-101150000D03*
X159000000Y-101150000D03*
X159500000Y-101150000D03*
X160000000Y-101150000D03*
X160500000Y-101150000D03*
D32*
X161275000Y-100375000D03*
X161275000Y-99875000D03*
X161275000Y-99375000D03*
X161275000Y-98875000D03*
X161275000Y-98375000D03*
X161275000Y-97875000D03*
X161275000Y-97375000D03*
X161275000Y-96875000D03*
X161275000Y-96375000D03*
X161275000Y-95875000D03*
X161275000Y-95375000D03*
X161275000Y-94875000D03*
D33*
X160500000Y-94100000D03*
X160000000Y-94100000D03*
X159500000Y-94100000D03*
X159000000Y-94100000D03*
X158500000Y-94100000D03*
X158000000Y-94100000D03*
X157500000Y-94100000D03*
X157000000Y-94100000D03*
X156500000Y-94100000D03*
X156000000Y-94100000D03*
X155500000Y-94100000D03*
X155000000Y-94100000D03*
D31*
X157050000Y-96925000D03*
D12*
X154000000Y-107250000D03*
X152500000Y-107250000D03*
X147500000Y-106500000D03*
X176417940Y-84309707D03*
X176850000Y-99299991D03*
X165149921Y-113005000D03*
D34*
X173250000Y-79005000D03*
D12*
X176950000Y-93404998D03*
X175000000Y-79000000D03*
X174900000Y-109900000D03*
X174500000Y-100700000D03*
X173900000Y-91700000D03*
X150711603Y-99522136D03*
X150600000Y-100500000D03*
X159250000Y-112054994D03*
X177267753Y-83754618D03*
X152750000Y-104005000D03*
X146500000Y-100254988D03*
X146750000Y-101755016D03*
X180250010Y-100505000D03*
X161675021Y-92738583D03*
D34*
X168250000Y-79005000D03*
D12*
X174900000Y-112000000D03*
X179500000Y-91005000D03*
X157000000Y-95505000D03*
X152185000Y-108915000D03*
X170000000Y-85530010D03*
X170250000Y-109605000D03*
X169963201Y-97917119D03*
X165284254Y-99941045D03*
X163075976Y-104487519D03*
X164900000Y-89205000D03*
X165250000Y-110755000D03*
X156500000Y-99755000D03*
X157400000Y-82975000D03*
X147750000Y-109250000D03*
X145550000Y-96350000D03*
X145550000Y-95050000D03*
X152850000Y-91550000D03*
X153900000Y-102300000D03*
X150600000Y-87900000D03*
X146600000Y-87900000D03*
D26*
X183750000Y-102705000D03*
D12*
X160000000Y-99755000D03*
D26*
X183750000Y-94505000D03*
D12*
X165627313Y-95705014D03*
D26*
X183750000Y-85505000D03*
D12*
X161899998Y-79005000D03*
X163393199Y-103474992D03*
X175700004Y-102405000D03*
X174600000Y-93505000D03*
X163340955Y-90189166D03*
X162900000Y-79305000D03*
X175200000Y-84305000D03*
X178750000Y-102075110D03*
X170350000Y-108005000D03*
X178450000Y-83255000D03*
X164000000Y-79805000D03*
X168999992Y-96755000D03*
X179972175Y-93227175D03*
X154500000Y-105505000D03*
X143750002Y-102255000D03*
X144250000Y-110255000D03*
X163575043Y-93142754D03*
X162600000Y-105505000D03*
X158700000Y-82905000D03*
X150700000Y-89600000D03*
X146600000Y-89600000D03*
X159200000Y-110400000D03*
X159012660Y-99987340D03*
X165025054Y-93265344D03*
X160000000Y-83205000D03*
X170243857Y-106991177D03*
X164037340Y-104767660D03*
X164250000Y-84805000D03*
X170000000Y-88005000D03*
X170000000Y-95005000D03*
X166024911Y-93247699D03*
X160900000Y-105800000D03*
X144450000Y-98905000D03*
X160393923Y-107531396D03*
X157225010Y-92850000D03*
X154000000Y-101300000D03*
X157274808Y-87623751D03*
X154900000Y-102900000D03*
X158160782Y-91646103D03*
X157250000Y-91004962D03*
X155340616Y-95630768D03*
X161698915Y-107480021D03*
X159981218Y-98165420D03*
X157275000Y-88675000D03*
X153348647Y-92447770D03*
X152350000Y-92500000D03*
X159700000Y-105705000D03*
X159670369Y-95224666D03*
X157400000Y-86625000D03*
D11*
X152915000Y-96875000D02*
X152740000Y-96700000D01*
X154325000Y-96875000D02*
X152915000Y-96875000D01*
X161175000Y-101275000D02*
X161679999Y-101779999D01*
X165500000Y-104533088D02*
X165500000Y-104655000D01*
X165500000Y-104655000D02*
X165500000Y-105305000D01*
X161175000Y-100375000D02*
X161175000Y-101275000D01*
X161679999Y-101779999D02*
X162746911Y-101779999D01*
X162746911Y-101779999D02*
X165500000Y-104533088D01*
X165950000Y-105305000D02*
X166250000Y-105005000D01*
X166250000Y-105005000D02*
X166500000Y-105005000D01*
X165500000Y-105305000D02*
X165950000Y-105305000D01*
X167540000Y-105005000D02*
X166500000Y-105005000D01*
X167340000Y-104805000D02*
X167540000Y-105005000D01*
X167500000Y-98455000D02*
X167500000Y-99105000D01*
X168200000Y-94475000D02*
X168200000Y-96231962D01*
X167500000Y-93775000D02*
X168200000Y-94475000D01*
X167500000Y-93605000D02*
X167500000Y-93775000D01*
X168125001Y-96306961D02*
X168125001Y-97829999D01*
X168200000Y-96231962D02*
X168125001Y-96306961D01*
X168125001Y-97829999D02*
X167500000Y-98455000D01*
X167500000Y-99005000D02*
X166870000Y-98375000D01*
X166870000Y-98375000D02*
X166220000Y-98375000D01*
X167500000Y-99105000D02*
X167500000Y-99005000D01*
X161100000Y-98375000D02*
X166220000Y-98375000D01*
X163215000Y-86450002D02*
X163215000Y-84145000D01*
X164300044Y-92617810D02*
X161975000Y-90292766D01*
X161975000Y-90292766D02*
X161975000Y-87690002D01*
X163215000Y-84145000D02*
X163790000Y-83570000D01*
X163790000Y-83570000D02*
X163790000Y-83400000D01*
X161100000Y-96375000D02*
X162275000Y-96375000D01*
X162275000Y-96375000D02*
X164300044Y-94349956D01*
X164300044Y-94349956D02*
X164300044Y-92617810D01*
X161975000Y-87690002D02*
X163215000Y-86450002D01*
X162200000Y-83600000D02*
X162750000Y-83600000D01*
X162750000Y-83600000D02*
X162950000Y-83400000D01*
X162950000Y-83400000D02*
X163790000Y-83400000D01*
D35*
X177000000Y-109900000D02*
X177000000Y-105600000D01*
X177000000Y-105600000D02*
X176775000Y-105375000D01*
X173000000Y-82005000D02*
X174855000Y-82005000D01*
X174855000Y-82005000D02*
X175000000Y-82150000D01*
X174000000Y-83205000D02*
X174000000Y-84250000D01*
X174000000Y-84250000D02*
X174400000Y-84650000D01*
X174400000Y-84650000D02*
X174400000Y-87500000D01*
X174400000Y-82805000D02*
X174000000Y-83205000D01*
X175000000Y-82155000D02*
X174400000Y-82755000D01*
X174400000Y-82755000D02*
X174400000Y-82805000D01*
X175000000Y-82150000D02*
X175000000Y-82155000D01*
X175700000Y-91800000D02*
X175700000Y-88400000D01*
X175700000Y-88400000D02*
X176600000Y-87500000D01*
X176300000Y-100700000D02*
X176300000Y-96890000D01*
X176300000Y-96890000D02*
X176725000Y-96465000D01*
D11*
X176775000Y-105375000D02*
X174575000Y-105375000D01*
X176600000Y-87500000D02*
X174400000Y-87500000D01*
X176725000Y-96465000D02*
X174525000Y-96465000D01*
D36*
X175700000Y-91800000D02*
X174000000Y-91800000D01*
X174000000Y-91800000D02*
X173900000Y-91700000D01*
D35*
X177000000Y-109900000D02*
X178700000Y-109900000D01*
X175000000Y-82355000D02*
X175000000Y-82505000D01*
X175000000Y-82505000D02*
X176267940Y-83772940D01*
D11*
X176417940Y-83772940D02*
X176417940Y-84309707D01*
X175000000Y-82255000D02*
X175000000Y-82355000D01*
X175000000Y-81900000D02*
X175000000Y-82255000D01*
X176675009Y-99299991D02*
X176850000Y-99299991D01*
X176300000Y-99675000D02*
X176675009Y-99299991D01*
X176300000Y-100700000D02*
X176300000Y-99675000D01*
X164990000Y-113005000D02*
X165149921Y-113005000D01*
X164260000Y-112275000D02*
X164990000Y-113005000D01*
X164260000Y-112105000D02*
X164260000Y-112275000D01*
X173250000Y-81805000D02*
X173050000Y-81605000D01*
X173050000Y-81605000D02*
X173050000Y-79205000D01*
X173980000Y-81805000D02*
X173250000Y-81805000D01*
X175000000Y-81900000D02*
X174075000Y-81900000D01*
X174075000Y-81900000D02*
X173980000Y-81805000D01*
D35*
X176725000Y-93629998D02*
X176950000Y-93404998D01*
X176725000Y-96465000D02*
X176725000Y-93629998D01*
X175000000Y-80200000D02*
X175000000Y-79000000D01*
X175000000Y-81900000D02*
X175000000Y-80200000D01*
X177000000Y-109900000D02*
X174900000Y-109900000D01*
X176300000Y-100700000D02*
X174500000Y-100700000D01*
D37*
X151577863Y-99122137D02*
X151111602Y-99122137D01*
X152100000Y-98600000D02*
X151577863Y-99122137D01*
D35*
X150600000Y-99633739D02*
X150711603Y-99522136D01*
X150311604Y-99922135D02*
X150711603Y-99522136D01*
X150222135Y-99922135D02*
X150311604Y-99922135D01*
X150200000Y-99900000D02*
X150222135Y-99922135D01*
X150600000Y-100500000D02*
X150600000Y-99633739D01*
D37*
X151111602Y-99122137D02*
X150711603Y-99522136D01*
D11*
X154325000Y-98375000D02*
X152325000Y-98375000D01*
X152325000Y-98375000D02*
X152200000Y-98500000D01*
X152200000Y-98500000D02*
X152100000Y-98600000D01*
D35*
X150300000Y-102100000D02*
X150300000Y-101200000D01*
X150300000Y-101200000D02*
X150600000Y-100900000D01*
X150600000Y-100900000D02*
X150600000Y-100500000D01*
X149430000Y-99900000D02*
X150200000Y-99900000D01*
D11*
X150600000Y-100500000D02*
X150200000Y-100100000D01*
X150200000Y-100100000D02*
X150200000Y-99900000D01*
X149430000Y-99850000D02*
X149430000Y-99900000D01*
X158500000Y-101050000D02*
X158500000Y-100500000D01*
X158500000Y-100500000D02*
X158250000Y-100250000D01*
X158250000Y-100250000D02*
X158250000Y-99475000D01*
X158250000Y-99475000D02*
X158450000Y-99275000D01*
X158450000Y-99275000D02*
X158450000Y-98325000D01*
X158850000Y-109005000D02*
X158850000Y-109105000D01*
X157480000Y-110699340D02*
X157480000Y-111760000D01*
X158850000Y-109105000D02*
X157480000Y-110475000D01*
X157480000Y-110475000D02*
X157480000Y-110699340D01*
X159250006Y-112055000D02*
X159250000Y-112054994D01*
X160550000Y-112055000D02*
X159250006Y-112055000D01*
D35*
X152185000Y-108915000D02*
X148090000Y-108915000D01*
X148090000Y-108915000D02*
X147950000Y-109055000D01*
X147950000Y-109055000D02*
X147945000Y-109055000D01*
X147945000Y-109055000D02*
X147750000Y-109250000D01*
X146200000Y-108250000D02*
X146750000Y-108250000D01*
X146750000Y-108250000D02*
X147750000Y-109250000D01*
D36*
X178800000Y-91705000D02*
X177795000Y-91705000D01*
X177795000Y-91705000D02*
X177700000Y-91800000D01*
D35*
X177000000Y-82150000D02*
X177000000Y-83486865D01*
X177000000Y-83486865D02*
X177267753Y-83754618D01*
X152600000Y-102330000D02*
X152600000Y-103855000D01*
X152600000Y-103855000D02*
X152750000Y-104005000D01*
X146500000Y-100220000D02*
X146500000Y-100254988D01*
X146820000Y-99900000D02*
X146500000Y-100220000D01*
X147770000Y-99900000D02*
X146820000Y-99900000D01*
X147094984Y-102100000D02*
X146750000Y-101755016D01*
X148300000Y-102100000D02*
X147094984Y-102100000D01*
D36*
X180055010Y-100700000D02*
X180250010Y-100505000D01*
X178300000Y-100700000D02*
X180055010Y-100700000D01*
D11*
X157000000Y-95505000D02*
X157000000Y-96875000D01*
X157000000Y-94200000D02*
X157000000Y-95505000D01*
X169434315Y-85530010D02*
X170000000Y-85530010D01*
X168574990Y-85530010D02*
X169434315Y-85530010D01*
X164900000Y-89205000D02*
X168574990Y-85530010D01*
D36*
X179500000Y-91005000D02*
X178800000Y-91705000D01*
X174900000Y-112000000D02*
X176900000Y-112000000D01*
X176900000Y-112000000D02*
X177000000Y-111900000D01*
D11*
X163075976Y-104487519D02*
X162675977Y-104087520D01*
X162675977Y-104087520D02*
X162675977Y-103580977D01*
X162675977Y-103580977D02*
X162130000Y-103035000D01*
X162130000Y-103035000D02*
X162130000Y-102900000D01*
X157050000Y-98325000D02*
X157050000Y-99205000D01*
X157050000Y-99205000D02*
X156500000Y-99755000D01*
D35*
X152185000Y-108915000D02*
X152400000Y-108700000D01*
D11*
X145550000Y-96350000D02*
X145550000Y-97750000D01*
X145550000Y-97750000D02*
X145874998Y-98074998D01*
X145874998Y-98074998D02*
X148288591Y-98074998D01*
X148288591Y-98074998D02*
X148513598Y-97849991D01*
X148513598Y-97849991D02*
X150950009Y-97849991D01*
X150950009Y-97849991D02*
X151400000Y-97400000D01*
X151400000Y-97400000D02*
X152850000Y-97400000D01*
X152600000Y-102330000D02*
X153870000Y-102330000D01*
X153870000Y-102330000D02*
X153900000Y-102300000D01*
X145550000Y-95050000D02*
X145550000Y-96350000D01*
X152400000Y-94450000D02*
X152500000Y-94450000D01*
X151200000Y-94450000D02*
X152400000Y-94450000D01*
X151070002Y-94320002D02*
X151200000Y-94450000D01*
X151070002Y-94000000D02*
X151070002Y-94320002D01*
X150435001Y-93364999D02*
X151070002Y-94000000D01*
X145550000Y-93750000D02*
X145935001Y-93364999D01*
X145935001Y-93364999D02*
X150435001Y-93364999D01*
X145550000Y-94484315D02*
X145550000Y-93750000D01*
X145550000Y-95050000D02*
X145550000Y-94484315D01*
X146600000Y-96350000D02*
X145550000Y-96350000D01*
X146600000Y-95050000D02*
X145550000Y-95050000D01*
X154500000Y-91170000D02*
X153230000Y-91170000D01*
X153230000Y-91170000D02*
X152850000Y-91550000D01*
X157000000Y-96875000D02*
X157050000Y-96925000D01*
X156925000Y-96875000D02*
X156975000Y-96925000D01*
X158425000Y-98375000D02*
X158375000Y-98325000D01*
X160000000Y-99755000D02*
X160120000Y-99875000D01*
X160120000Y-99875000D02*
X161875000Y-99875000D01*
X161875000Y-99875000D02*
X162170000Y-100170000D01*
X162170000Y-100170000D02*
X162170000Y-100400000D01*
X162170000Y-100400000D02*
X162700000Y-100930000D01*
X165530000Y-96925000D02*
X165600000Y-96855000D01*
X165600000Y-96855000D02*
X165600000Y-95732327D01*
X165600000Y-95732327D02*
X165627313Y-95705014D01*
X161175000Y-97875000D02*
X164630000Y-97875000D01*
X164630000Y-97875000D02*
X165530000Y-96975000D01*
X165530000Y-96975000D02*
X165530000Y-96925000D01*
X161100000Y-95875000D02*
X162125000Y-95875000D01*
X162430000Y-85750000D02*
X162430000Y-85700000D01*
X162125000Y-95875000D02*
X162850033Y-95149967D01*
X162850033Y-95149967D02*
X162850033Y-91804210D01*
X162850033Y-91804210D02*
X161524989Y-90479166D01*
X161524989Y-90479166D02*
X161524989Y-86655011D01*
X161524989Y-86655011D02*
X162430000Y-85750000D01*
X161499999Y-79404999D02*
X161899998Y-79005000D01*
X161499999Y-84719999D02*
X161499999Y-79404999D01*
X162430000Y-85700000D02*
X162430000Y-85650000D01*
X162430000Y-85650000D02*
X161499999Y-84719999D01*
X179825000Y-103470000D02*
X178750000Y-102395000D01*
X180050000Y-103470000D02*
X179825000Y-103470000D01*
X178750000Y-102395000D02*
X178750000Y-102075110D01*
X169790000Y-108005000D02*
X170350000Y-108005000D01*
X168960000Y-107175000D02*
X169790000Y-108005000D01*
X168960000Y-107005000D02*
X168960000Y-107175000D01*
X168960000Y-105005000D02*
X168960000Y-107005000D01*
X178450000Y-83205000D02*
X178450000Y-83255000D01*
X178250000Y-83005000D02*
X178450000Y-83205000D01*
X179875000Y-84630000D02*
X178250000Y-83005000D01*
X179875000Y-85595000D02*
X179875000Y-84630000D01*
X164000000Y-80320000D02*
X164000000Y-79805000D01*
X165210000Y-81530000D02*
X164000000Y-80320000D01*
X165210000Y-81700000D02*
X165210000Y-81530000D01*
X165210000Y-81700000D02*
X165210000Y-83400000D01*
X168910000Y-96665008D02*
X168999992Y-96755000D01*
X168910000Y-95305000D02*
X168910000Y-96665008D01*
X180000000Y-93255000D02*
X179972175Y-93227175D01*
X180000000Y-94560000D02*
X180000000Y-93255000D01*
X168910000Y-95305000D02*
X168910000Y-93615000D01*
X168910000Y-93615000D02*
X168920000Y-93605000D01*
X163000000Y-81450000D02*
X163000000Y-81485000D01*
X163000000Y-81485000D02*
X163215000Y-81700000D01*
X163215000Y-81700000D02*
X163790000Y-81700000D01*
X162200000Y-81200000D02*
X162750000Y-81200000D01*
X162750000Y-81200000D02*
X163000000Y-81450000D01*
X167500000Y-96705000D02*
X167500000Y-95315000D01*
X167500000Y-95315000D02*
X167490000Y-95305000D01*
X165500000Y-107705000D02*
X166050000Y-107705000D01*
X166050000Y-107705000D02*
X166750000Y-107005000D01*
X166750000Y-107005000D02*
X167540000Y-107005000D01*
X154325000Y-99375000D02*
X153688590Y-99375000D01*
X152600000Y-100450000D02*
X152600000Y-100670000D01*
X153688590Y-99375000D02*
X153402179Y-99661411D01*
X153402179Y-99661411D02*
X153388589Y-99661411D01*
X153388589Y-99661411D02*
X152600000Y-100450000D01*
D35*
X154090000Y-104400000D02*
X154090000Y-105095000D01*
X154090000Y-105095000D02*
X154500000Y-105505000D01*
X144200000Y-106955000D02*
X144155000Y-106955000D01*
X144155000Y-106955000D02*
X143800000Y-106600000D01*
X143800000Y-106600000D02*
X143800000Y-104750000D01*
X144200000Y-108500000D02*
X144200000Y-106955000D01*
X144250000Y-110255000D02*
X144250000Y-108550000D01*
X144250000Y-108550000D02*
X144200000Y-108500000D01*
X143800000Y-104750000D02*
X143800000Y-102304998D01*
X143800000Y-102304998D02*
X143750002Y-102255000D01*
D11*
X162560000Y-109105000D02*
X162560000Y-105545000D01*
X162560000Y-105545000D02*
X162600000Y-105505000D01*
X162600000Y-105360000D02*
X162600000Y-105505000D01*
X161910000Y-104670000D02*
X162600000Y-105360000D01*
X161910000Y-104500000D02*
X161910000Y-104670000D01*
X155000000Y-94200000D02*
X155000000Y-93330000D01*
X155000000Y-93330000D02*
X154500000Y-92830000D01*
X159012660Y-99669336D02*
X159012660Y-99987340D01*
X159651998Y-99029998D02*
X159012660Y-99669336D01*
X160130000Y-98875000D02*
X159975002Y-99029998D01*
X161100000Y-98875000D02*
X160130000Y-98875000D01*
X159975002Y-99029998D02*
X159651998Y-99029998D01*
X165025054Y-93831029D02*
X165025054Y-93265344D01*
X165025054Y-94261356D02*
X165025054Y-93831029D01*
X161100000Y-96875000D02*
X162411410Y-96875000D01*
X162411410Y-96875000D02*
X165025054Y-94261356D01*
X159700001Y-90600001D02*
X159700001Y-84070684D01*
X160950011Y-91850011D02*
X159700001Y-90600001D01*
X160950011Y-94275011D02*
X160950011Y-91850011D01*
X161175000Y-94500000D02*
X160950011Y-94275011D01*
X160000000Y-83770685D02*
X160000000Y-83205000D01*
X159700001Y-84070684D02*
X160000000Y-83770685D01*
X161175000Y-94875000D02*
X161175000Y-94500000D01*
X159750000Y-109005000D02*
X161040000Y-109005000D01*
X161040000Y-109005000D02*
X161140000Y-109105000D01*
X160490000Y-104400000D02*
X160490000Y-105390000D01*
X160490000Y-105390000D02*
X160500001Y-105400001D01*
X160500001Y-105400001D02*
X160900000Y-105800000D01*
X160470000Y-102800000D02*
X160470000Y-104380000D01*
X160470000Y-104380000D02*
X160490000Y-104400000D01*
X160500000Y-101050000D02*
X160500000Y-102770000D01*
X160500000Y-102770000D02*
X160470000Y-102800000D01*
X160500000Y-101050000D02*
X160500000Y-101325000D01*
X154325000Y-97875000D02*
X152080000Y-97875000D01*
X152080000Y-97875000D02*
X151400000Y-98555000D01*
X151400000Y-98555000D02*
X150700000Y-98555000D01*
X150700000Y-98555000D02*
X150374999Y-98880001D01*
X146450001Y-99304999D02*
X144849999Y-99304999D01*
X150374999Y-98880001D02*
X146874999Y-98880001D01*
X146874999Y-98880001D02*
X146450001Y-99304999D01*
X144849999Y-99304999D02*
X144450000Y-98905000D01*
D35*
X150000000Y-104485000D02*
X146265000Y-104485000D01*
X146265000Y-104485000D02*
X146000000Y-104750000D01*
X151500000Y-100600000D02*
X151500000Y-103205000D01*
X151500000Y-103205000D02*
X150220000Y-104485000D01*
X150220000Y-104485000D02*
X150000000Y-104485000D01*
D37*
X152100000Y-99500000D02*
X152800000Y-99500000D01*
X151500000Y-100100000D02*
X151500000Y-100600000D01*
X151665002Y-99934998D02*
X151500000Y-100100000D01*
D38*
X152200000Y-99500000D02*
X152100000Y-99500000D01*
D37*
X152100000Y-99500000D02*
X151665002Y-99934998D01*
D11*
X154325000Y-98875000D02*
X153425000Y-98875000D01*
X153425000Y-98875000D02*
X152800000Y-99500000D01*
X159200000Y-86200000D02*
X159200000Y-90799999D01*
X155500000Y-82500000D02*
X159200000Y-86200000D01*
X153620000Y-82500000D02*
X155500000Y-82500000D01*
X152400000Y-81280000D02*
X153620000Y-82500000D01*
X160500000Y-92099999D02*
X160500000Y-93525000D01*
X160500000Y-93525000D02*
X160500000Y-94200000D01*
X159200000Y-90799999D02*
X160500000Y-92099999D01*
X148640000Y-82600000D02*
X148069999Y-82029999D01*
X153700000Y-83289998D02*
X153010002Y-82600000D01*
X153700000Y-84500000D02*
X153700000Y-83289998D01*
X158649991Y-86286401D02*
X157363590Y-85000000D01*
X160000000Y-94200000D02*
X160000000Y-92236410D01*
X158649991Y-90886401D02*
X158649991Y-86286401D01*
X148069999Y-82029999D02*
X147320000Y-81280000D01*
X157363590Y-85000000D02*
X154200000Y-85000000D01*
X153010002Y-82600000D02*
X148640000Y-82600000D01*
X154200000Y-85000000D02*
X153700000Y-84500000D01*
X160000000Y-92236410D02*
X158649991Y-90886401D01*
X161450000Y-112055000D02*
X162790000Y-112055000D01*
X162790000Y-112055000D02*
X162840000Y-112105000D01*
X158200000Y-102000000D02*
X158313590Y-102000000D01*
X158313590Y-102000000D02*
X158313600Y-102000010D01*
X158313600Y-102000010D02*
X158686400Y-102000010D01*
X158686400Y-102000010D02*
X158950010Y-101736400D01*
X158950010Y-101736400D02*
X158950010Y-101712166D01*
X158950010Y-101712166D02*
X159000000Y-101662176D01*
X159000000Y-101662176D02*
X159000000Y-101050000D01*
X158200000Y-106305000D02*
X158200000Y-102000000D01*
X158200000Y-102000000D02*
X158150000Y-101950000D01*
X160393923Y-107531396D02*
X159426396Y-107531396D01*
X159426396Y-107531396D02*
X158200000Y-106305000D01*
X158150000Y-101950000D02*
X158000000Y-101800000D01*
X158000000Y-101800000D02*
X158000000Y-101050000D01*
X157225010Y-92850000D02*
X157225010Y-92875010D01*
X157225010Y-92875010D02*
X157500000Y-93150000D01*
X157500000Y-93150000D02*
X157500000Y-94100000D01*
X154000000Y-101300000D02*
X154325000Y-100975000D01*
X154325000Y-100975000D02*
X154325000Y-100375000D01*
X156874809Y-88023750D02*
X157274808Y-87623751D01*
X155500000Y-89398559D02*
X156874809Y-88023750D01*
X155500000Y-94200000D02*
X155500000Y-89398559D01*
X154250000Y-99875000D02*
X155275000Y-99875000D01*
X155275000Y-99875000D02*
X155700000Y-99450000D01*
X155700000Y-99450000D02*
X155700000Y-96300000D01*
X155700000Y-96300000D02*
X156073835Y-95926165D01*
X156073835Y-95926165D02*
X156073835Y-95273835D01*
X156073835Y-95273835D02*
X155500000Y-94700000D01*
X155500000Y-94700000D02*
X155500000Y-94200000D01*
X150200000Y-94850000D02*
X150250011Y-94900011D01*
X150250011Y-94900011D02*
X152100011Y-94900011D01*
X152100011Y-94900011D02*
X153575000Y-96375000D01*
X153575000Y-96375000D02*
X154325000Y-96375000D01*
X149150000Y-94750000D02*
X147550000Y-94750000D01*
X147550000Y-94750000D02*
X146850000Y-94050000D01*
X146850000Y-94050000D02*
X146600000Y-94050000D01*
X149150000Y-96650000D02*
X147550000Y-96650000D01*
X147550000Y-96650000D02*
X146850000Y-97350000D01*
X146850000Y-97350000D02*
X146600000Y-97350000D01*
X149150000Y-96650000D02*
X148100000Y-96650000D01*
X151660000Y-96700000D02*
X149200000Y-96700000D01*
X149200000Y-96700000D02*
X149150000Y-96650000D01*
X150325000Y-96875000D02*
X150200000Y-96750000D01*
X155299999Y-102500001D02*
X154900000Y-102900000D01*
X155500000Y-102300000D02*
X155299999Y-102500001D01*
X155500000Y-101050000D02*
X155500000Y-102300000D01*
X158560781Y-92046102D02*
X158160782Y-91646103D01*
X159500000Y-94100000D02*
X159500000Y-92985321D01*
X159500000Y-92985321D02*
X158560781Y-92046102D01*
X159500000Y-94200000D02*
X159500000Y-93675908D01*
X157250000Y-91570647D02*
X157250000Y-91004962D01*
X158078118Y-92433118D02*
X157856122Y-92433118D01*
X157856122Y-92433118D02*
X157250000Y-91826996D01*
X157250000Y-91826996D02*
X157250000Y-91570647D01*
X159000000Y-94200000D02*
X159000000Y-93355000D01*
X159000000Y-93355000D02*
X158078118Y-92433118D01*
X155340616Y-95630768D02*
X155096384Y-95875000D01*
X155096384Y-95875000D02*
X154325000Y-95875000D01*
X155500000Y-103500000D02*
X155510000Y-103510000D01*
X155510000Y-103510000D02*
X155510000Y-104400000D01*
X147320000Y-111760000D02*
X148040000Y-111760000D01*
X148040000Y-111760000D02*
X149200000Y-110600000D01*
X149200000Y-110600000D02*
X151332588Y-110600000D01*
X151332588Y-110600000D02*
X151697599Y-110234988D01*
X151697599Y-110234988D02*
X152865012Y-110234988D01*
X152865012Y-110234988D02*
X155510000Y-107590000D01*
X155510000Y-107590000D02*
X155510000Y-104400000D01*
X156000000Y-103000000D02*
X155500000Y-103500000D01*
X156000000Y-101050000D02*
X156000000Y-103000000D01*
X156500000Y-101050000D02*
X156500000Y-107505000D01*
X156500000Y-107505000D02*
X156400000Y-107605000D01*
X156400000Y-107605000D02*
X156395000Y-107605000D01*
X156395000Y-107605000D02*
X153315001Y-110684999D01*
X153315001Y-110684999D02*
X151951411Y-110684999D01*
X151951411Y-110684999D02*
X150876410Y-111760000D01*
X150876410Y-111760000D02*
X149860000Y-111760000D01*
X157000000Y-101050000D02*
X157000000Y-108005000D01*
X157000000Y-108005000D02*
X156900000Y-108105000D01*
X156900000Y-108105000D02*
X156900000Y-108115398D01*
X156900000Y-108115398D02*
X153255398Y-111760000D01*
X153255398Y-111760000D02*
X152400000Y-111760000D01*
X157500000Y-101050000D02*
X157500000Y-109200000D01*
X157500000Y-109200000D02*
X154940000Y-111760000D01*
X159344988Y-101953599D02*
X159500000Y-101798587D01*
X158800000Y-102736411D02*
X159344988Y-102191423D01*
X158800000Y-106105000D02*
X158800000Y-102736411D01*
X161698915Y-107480021D02*
X160993892Y-106774998D01*
X160993892Y-106774998D02*
X159469998Y-106774998D01*
X159469998Y-106774998D02*
X158800000Y-106105000D01*
X159344988Y-102191423D02*
X159344988Y-101953599D01*
X159500000Y-101798587D02*
X159500000Y-101050000D01*
X159981218Y-96515533D02*
X159981218Y-97599735D01*
X159365684Y-95899999D02*
X159981218Y-96515533D01*
X158699999Y-95899999D02*
X159365684Y-95899999D01*
X158000000Y-95200000D02*
X158699999Y-95899999D01*
X159981218Y-97599735D02*
X159981218Y-98165420D01*
X158000000Y-94200000D02*
X158000000Y-95200000D01*
X156000000Y-94200000D02*
X156000000Y-89950000D01*
X156000000Y-89950000D02*
X156875001Y-89074999D01*
X156875001Y-89074999D02*
X157275000Y-88675000D01*
X153674999Y-93540001D02*
X153674999Y-92774122D01*
X154325000Y-94875000D02*
X154325000Y-94190002D01*
X154325000Y-94190002D02*
X153674999Y-93540001D01*
X153674999Y-92774122D02*
X153348647Y-92447770D01*
X154325000Y-95375000D02*
X153520000Y-95375000D01*
X153250000Y-93950000D02*
X153100000Y-93800000D01*
X153520000Y-95375000D02*
X153250000Y-95105000D01*
X153250000Y-95105000D02*
X153250000Y-93950000D01*
X153100000Y-93800000D02*
X153100000Y-93250000D01*
X153100000Y-93250000D02*
X152749999Y-92899999D01*
X152749999Y-92899999D02*
X152350000Y-92500000D01*
X159794999Y-102441412D02*
X159700000Y-102536411D01*
X160000000Y-101934998D02*
X159794999Y-102139999D01*
X160000000Y-101050000D02*
X160000000Y-101934998D01*
X159794999Y-102139999D02*
X159794999Y-102441412D01*
X159700000Y-105139315D02*
X159700000Y-105705000D01*
X159700000Y-102536411D02*
X159700000Y-105139315D01*
X158500000Y-94200000D02*
X158500000Y-94875000D01*
X158500000Y-94875000D02*
X158849666Y-95224666D01*
X158849666Y-95224666D02*
X159104684Y-95224666D01*
X159104684Y-95224666D02*
X159670369Y-95224666D01*
X156500000Y-94200000D02*
X156500000Y-90681994D01*
X156500000Y-90681994D02*
X158075002Y-89106992D01*
X158075002Y-89106992D02*
X158075002Y-87300002D01*
X158075002Y-87300002D02*
X157799999Y-87024999D01*
X157799999Y-87024999D02*
X157400000Y-86625000D01*
X161100000Y-95375000D02*
X161975000Y-95375000D01*
X160770000Y-90770000D02*
X160770000Y-86450000D01*
X161975000Y-95375000D02*
X162400022Y-94949978D01*
X162400022Y-94949978D02*
X162400022Y-92400022D01*
X162400022Y-92400022D02*
X160770000Y-90770000D01*
X160770000Y-86450000D02*
X160770000Y-85700000D01*
X161175000Y-97375000D02*
X162720000Y-97375000D01*
X162720000Y-97375000D02*
X163170000Y-96925000D01*
X163170000Y-96925000D02*
X163870000Y-96925000D01*
X161175000Y-99375000D02*
X162595000Y-99375000D01*
X162595000Y-99375000D02*
X162700000Y-99270000D01*
D39*
G36*
X178373000Y-81253554D02*
X178372372Y-81973290D01*
X178373000Y-81974810D01*
X178373000Y-82427933D01*
X178286221Y-82427857D01*
X178202508Y-82462447D01*
X178110365Y-82480775D01*
X178110365Y-81375000D01*
X178080591Y-81216763D01*
X177987073Y-81071433D01*
X177844381Y-80973936D01*
X177675000Y-80939635D01*
X176325000Y-80939635D01*
X176166763Y-80969409D01*
X176021433Y-81062927D01*
X175999255Y-81095386D01*
X175916876Y-81013007D01*
X175759935Y-80948000D01*
X175233750Y-80948000D01*
X175127000Y-81054750D01*
X175127000Y-82023000D01*
X175147000Y-82023000D01*
X175147000Y-82277000D01*
X175127000Y-82277000D01*
X175127000Y-83245250D01*
X175233750Y-83352000D01*
X175759935Y-83352000D01*
X175916876Y-83286993D01*
X175998195Y-83205674D01*
X176012927Y-83228567D01*
X176155619Y-83326064D01*
X176323000Y-83359960D01*
X176323000Y-83486865D01*
X176374534Y-83745942D01*
X176435480Y-83837154D01*
X176440674Y-83844927D01*
X176440610Y-83918397D01*
X176566248Y-84222464D01*
X176798683Y-84455306D01*
X177102531Y-84581474D01*
X177431532Y-84581761D01*
X177735599Y-84456123D01*
X177968441Y-84223688D01*
X178065195Y-83990678D01*
X178284778Y-84081856D01*
X178373000Y-84081933D01*
X178373000Y-84988767D01*
X178334936Y-84973000D01*
X177531750Y-84973000D01*
X177425000Y-85079750D01*
X177425000Y-86627000D01*
X177493000Y-86627000D01*
X177493000Y-88373000D01*
X177425000Y-88373000D01*
X177425000Y-89920250D01*
X177531750Y-90027000D01*
X178334936Y-90027000D01*
X178373000Y-90011233D01*
X178373000Y-90589635D01*
X177025000Y-90589635D01*
X176866763Y-90619409D01*
X176721433Y-90712927D01*
X176699255Y-90745386D01*
X176616876Y-90663007D01*
X176459935Y-90598000D01*
X175933750Y-90598000D01*
X175827000Y-90704750D01*
X175827000Y-91673000D01*
X175847000Y-91673000D01*
X175847000Y-91927000D01*
X175827000Y-91927000D01*
X175827000Y-92895250D01*
X175933750Y-93002000D01*
X176459935Y-93002000D01*
X176616876Y-92936993D01*
X176698195Y-92855674D01*
X176712927Y-92878567D01*
X176855619Y-92976064D01*
X177025000Y-93010365D01*
X178373000Y-93010365D01*
X178373000Y-93938000D01*
X177656750Y-93938000D01*
X177550000Y-94044750D01*
X177550000Y-95592000D01*
X177618000Y-95592000D01*
X177618000Y-97338000D01*
X177550000Y-97338000D01*
X177550000Y-98885250D01*
X177656750Y-98992000D01*
X178373000Y-98992000D01*
X178373000Y-99489635D01*
X177625000Y-99489635D01*
X177466763Y-99519409D01*
X177321433Y-99612927D01*
X177299255Y-99645386D01*
X177216876Y-99563007D01*
X177059935Y-99498000D01*
X176533750Y-99498000D01*
X176427000Y-99604750D01*
X176427000Y-100573000D01*
X176447000Y-100573000D01*
X176447000Y-100827000D01*
X176427000Y-100827000D01*
X176427000Y-100847000D01*
X176173000Y-100847000D01*
X176173000Y-100827000D01*
X175304750Y-100827000D01*
X175198000Y-100933750D01*
X175198000Y-101559936D01*
X175253766Y-101694567D01*
X175232158Y-101703495D01*
X174999316Y-101935930D01*
X174873148Y-102239778D01*
X174872861Y-102568779D01*
X174962500Y-102785722D01*
X174962500Y-102880128D01*
X174883124Y-102913007D01*
X174763007Y-103033124D01*
X174698000Y-103190065D01*
X174698000Y-104395250D01*
X174804750Y-104502000D01*
X175950000Y-104502000D01*
X175950000Y-103196519D01*
X176167850Y-103106505D01*
X176400692Y-102874070D01*
X176526860Y-102570222D01*
X176527147Y-102241221D01*
X176401509Y-101937154D01*
X176366416Y-101902000D01*
X176427002Y-101902000D01*
X176427002Y-101795252D01*
X176533750Y-101902000D01*
X177059935Y-101902000D01*
X177216876Y-101836993D01*
X177298195Y-101755674D01*
X177312927Y-101778567D01*
X177455619Y-101876064D01*
X177625000Y-101910365D01*
X177923144Y-101910365D01*
X177922857Y-102238889D01*
X178048495Y-102542956D01*
X178280930Y-102775798D01*
X178373000Y-102814029D01*
X178373000Y-102848000D01*
X177706750Y-102848000D01*
X177600000Y-102954750D01*
X177600000Y-104502000D01*
X177668000Y-104502000D01*
X177668000Y-106248000D01*
X177600000Y-106248000D01*
X177600000Y-107795250D01*
X177706750Y-107902000D01*
X178373000Y-107902000D01*
X178373000Y-112753628D01*
X178372717Y-113078000D01*
X173627000Y-113078000D01*
X173627000Y-112255000D01*
X173616994Y-112205590D01*
X173588553Y-112163965D01*
X173556796Y-112141408D01*
X173273980Y-112000000D01*
X173973000Y-112000000D01*
X174043564Y-112354748D01*
X174244512Y-112655488D01*
X174545252Y-112856436D01*
X174900000Y-112927000D01*
X175983811Y-112927000D01*
X176055619Y-112976064D01*
X176225000Y-113010365D01*
X177775000Y-113010365D01*
X177933237Y-112980591D01*
X178078567Y-112887073D01*
X178176064Y-112744381D01*
X178210365Y-112575000D01*
X178210365Y-111225000D01*
X178180591Y-111066763D01*
X178087073Y-110921433D01*
X178054614Y-110899255D01*
X178136993Y-110816876D01*
X178202000Y-110659935D01*
X178202000Y-110133750D01*
X178095250Y-110027000D01*
X177127000Y-110027000D01*
X177127000Y-110047000D01*
X176873000Y-110047000D01*
X176873000Y-110027000D01*
X175904750Y-110027000D01*
X175798000Y-110133750D01*
X175798000Y-110659935D01*
X175863007Y-110816876D01*
X175944326Y-110898195D01*
X175921433Y-110912927D01*
X175823936Y-111055619D01*
X175820416Y-111073000D01*
X174900000Y-111073000D01*
X174545252Y-111143564D01*
X174244512Y-111344512D01*
X174043564Y-111645252D01*
X173973000Y-112000000D01*
X173273980Y-112000000D01*
X171627000Y-111176510D01*
X171627000Y-109140065D01*
X175798000Y-109140065D01*
X175798000Y-109666250D01*
X175904750Y-109773000D01*
X176873000Y-109773000D01*
X176873000Y-108904750D01*
X177127000Y-108904750D01*
X177127000Y-109773000D01*
X178095250Y-109773000D01*
X178202000Y-109666250D01*
X178202000Y-109140065D01*
X178136993Y-108983124D01*
X178016876Y-108863007D01*
X177859936Y-108798000D01*
X177233750Y-108798000D01*
X177127000Y-108904750D01*
X176873000Y-108904750D01*
X176766250Y-108798000D01*
X176140064Y-108798000D01*
X175983124Y-108863007D01*
X175863007Y-108983124D01*
X175798000Y-109140065D01*
X171627000Y-109140065D01*
X171627000Y-106354750D01*
X173373000Y-106354750D01*
X173373000Y-107809935D01*
X173438007Y-107966876D01*
X173558124Y-108086993D01*
X173715064Y-108152000D01*
X174080750Y-108152000D01*
X174187500Y-108045250D01*
X174187500Y-106354750D01*
X174698000Y-106354750D01*
X174698000Y-107559935D01*
X174763007Y-107716876D01*
X174883124Y-107836993D01*
X174962500Y-107869872D01*
X174962500Y-108045250D01*
X175069250Y-108152000D01*
X175434936Y-108152000D01*
X175591876Y-108086993D01*
X175711993Y-107966876D01*
X175738865Y-107902000D01*
X175843250Y-107902000D01*
X175950000Y-107795250D01*
X175950000Y-106248000D01*
X174804750Y-106248000D01*
X174698000Y-106354750D01*
X174187500Y-106354750D01*
X174187500Y-106248000D01*
X173479750Y-106248000D01*
X173373000Y-106354750D01*
X171627000Y-106354750D01*
X171627000Y-105057606D01*
X172089803Y-104594803D01*
X172117666Y-104552789D01*
X172127000Y-104505000D01*
X172127000Y-102940065D01*
X173373000Y-102940065D01*
X173373000Y-104395250D01*
X173479750Y-104502000D01*
X174187500Y-104502000D01*
X174187500Y-102704750D01*
X174080750Y-102598000D01*
X173715064Y-102598000D01*
X173558124Y-102663007D01*
X173438007Y-102783124D01*
X173373000Y-102940065D01*
X172127000Y-102940065D01*
X172127000Y-100505000D01*
X172116994Y-100455590D01*
X172089803Y-100415197D01*
X171627000Y-99952394D01*
X171627000Y-99840064D01*
X175198000Y-99840064D01*
X175198000Y-100466250D01*
X175304750Y-100573000D01*
X176173000Y-100573000D01*
X176173000Y-99604750D01*
X176066250Y-99498000D01*
X175540065Y-99498000D01*
X175383124Y-99563007D01*
X175263007Y-99683124D01*
X175198000Y-99840064D01*
X171627000Y-99840064D01*
X171627000Y-97444750D01*
X173323000Y-97444750D01*
X173323000Y-98899935D01*
X173388007Y-99056876D01*
X173508124Y-99176993D01*
X173665064Y-99242000D01*
X174030750Y-99242000D01*
X174137500Y-99135250D01*
X174137500Y-97444750D01*
X174648000Y-97444750D01*
X174648000Y-98649935D01*
X174713007Y-98806876D01*
X174833124Y-98926993D01*
X174912500Y-98959872D01*
X174912500Y-99135250D01*
X175019250Y-99242000D01*
X175384936Y-99242000D01*
X175541876Y-99176993D01*
X175661993Y-99056876D01*
X175688865Y-98992000D01*
X175793250Y-98992000D01*
X175900000Y-98885250D01*
X175900000Y-97338000D01*
X174754750Y-97338000D01*
X174648000Y-97444750D01*
X174137500Y-97444750D01*
X174137500Y-97338000D01*
X173429750Y-97338000D01*
X173323000Y-97444750D01*
X171627000Y-97444750D01*
X171627000Y-94030065D01*
X173323000Y-94030065D01*
X173323000Y-95485250D01*
X173429750Y-95592000D01*
X174137500Y-95592000D01*
X174137500Y-95572000D01*
X174734750Y-95572000D01*
X174754750Y-95592000D01*
X175900000Y-95592000D01*
X175900000Y-94044750D01*
X175793250Y-93938000D01*
X175688865Y-93938000D01*
X175661993Y-93873124D01*
X175541876Y-93753007D01*
X175414405Y-93700207D01*
X175426856Y-93670222D01*
X175427143Y-93341221D01*
X175301505Y-93037154D01*
X175266412Y-93002000D01*
X175466250Y-93002000D01*
X175573000Y-92895250D01*
X175573000Y-91927000D01*
X174704750Y-91927000D01*
X174598000Y-92033750D01*
X174598000Y-92659936D01*
X174605484Y-92678005D01*
X174436221Y-92677857D01*
X174132154Y-92803495D01*
X173899312Y-93035930D01*
X173773144Y-93339778D01*
X173772857Y-93668779D01*
X173780799Y-93688000D01*
X173651998Y-93688000D01*
X173651998Y-93693412D01*
X173508124Y-93753007D01*
X173388007Y-93873124D01*
X173323000Y-94030065D01*
X171627000Y-94030065D01*
X171627000Y-90940064D01*
X174598000Y-90940064D01*
X174598000Y-91566250D01*
X174704750Y-91673000D01*
X175573000Y-91673000D01*
X175573000Y-90704750D01*
X175466250Y-90598000D01*
X174940065Y-90598000D01*
X174783124Y-90663007D01*
X174663007Y-90783124D01*
X174598000Y-90940064D01*
X171627000Y-90940064D01*
X171627000Y-88479750D01*
X173198000Y-88479750D01*
X173198000Y-89934935D01*
X173263007Y-90091876D01*
X173383124Y-90211993D01*
X173540064Y-90277000D01*
X173905750Y-90277000D01*
X174012500Y-90170250D01*
X174012500Y-88479750D01*
X174523000Y-88479750D01*
X174523000Y-89684935D01*
X174588007Y-89841876D01*
X174708124Y-89961993D01*
X174787500Y-89994872D01*
X174787500Y-90170250D01*
X174894250Y-90277000D01*
X175259936Y-90277000D01*
X175416876Y-90211993D01*
X175536993Y-90091876D01*
X175563865Y-90027000D01*
X175668250Y-90027000D01*
X175775000Y-89920250D01*
X175775000Y-88373000D01*
X174629750Y-88373000D01*
X174523000Y-88479750D01*
X174012500Y-88479750D01*
X174012500Y-88373000D01*
X173304750Y-88373000D01*
X173198000Y-88479750D01*
X171627000Y-88479750D01*
X171627000Y-85065065D01*
X173198000Y-85065065D01*
X173198000Y-86520250D01*
X173304750Y-86627000D01*
X174012500Y-86627000D01*
X174012500Y-84829750D01*
X173905750Y-84723000D01*
X173540064Y-84723000D01*
X173383124Y-84788007D01*
X173263007Y-84908124D01*
X173198000Y-85065065D01*
X171627000Y-85065065D01*
X171627000Y-84468779D01*
X174372857Y-84468779D01*
X174498495Y-84772846D01*
X174730930Y-85005688D01*
X174758505Y-85017138D01*
X174708124Y-85038007D01*
X174588007Y-85158124D01*
X174523000Y-85315065D01*
X174523000Y-86520250D01*
X174629750Y-86627000D01*
X175775000Y-86627000D01*
X175775000Y-85079750D01*
X175684815Y-84989565D01*
X175900688Y-84774070D01*
X176026856Y-84470222D01*
X176027143Y-84141221D01*
X175901505Y-83837154D01*
X175669070Y-83604312D01*
X175365222Y-83478144D01*
X175036221Y-83477857D01*
X174732154Y-83603495D01*
X174499312Y-83835930D01*
X174373144Y-84139778D01*
X174372857Y-84468779D01*
X171627000Y-84468779D01*
X171627000Y-83072968D01*
X172320447Y-82610670D01*
X172356008Y-82574937D01*
X172377000Y-82505000D01*
X172377000Y-82383750D01*
X173898000Y-82383750D01*
X173898000Y-83009936D01*
X173963007Y-83166876D01*
X174083124Y-83286993D01*
X174240065Y-83352000D01*
X174766250Y-83352000D01*
X174873000Y-83245250D01*
X174873000Y-82277000D01*
X174004750Y-82277000D01*
X173898000Y-82383750D01*
X172377000Y-82383750D01*
X172377000Y-81290064D01*
X173898000Y-81290064D01*
X173898000Y-81916250D01*
X174004750Y-82023000D01*
X174873000Y-82023000D01*
X174873000Y-81054750D01*
X174766250Y-80948000D01*
X174240065Y-80948000D01*
X174083124Y-81013007D01*
X173963007Y-81133124D01*
X173898000Y-81290064D01*
X172377000Y-81290064D01*
X172377000Y-78502000D01*
X178373000Y-78502000D01*
X178373000Y-81253554D01*
X178373000Y-81253554D01*
G37*
X178373000Y-81253554D02*
X178372372Y-81973290D01*
X178373000Y-81974810D01*
X178373000Y-82427933D01*
X178286221Y-82427857D01*
X178202508Y-82462447D01*
X178110365Y-82480775D01*
X178110365Y-81375000D01*
X178080591Y-81216763D01*
X177987073Y-81071433D01*
X177844381Y-80973936D01*
X177675000Y-80939635D01*
X176325000Y-80939635D01*
X176166763Y-80969409D01*
X176021433Y-81062927D01*
X175999255Y-81095386D01*
X175916876Y-81013007D01*
X175759935Y-80948000D01*
X175233750Y-80948000D01*
X175127000Y-81054750D01*
X175127000Y-82023000D01*
X175147000Y-82023000D01*
X175147000Y-82277000D01*
X175127000Y-82277000D01*
X175127000Y-83245250D01*
X175233750Y-83352000D01*
X175759935Y-83352000D01*
X175916876Y-83286993D01*
X175998195Y-83205674D01*
X176012927Y-83228567D01*
X176155619Y-83326064D01*
X176323000Y-83359960D01*
X176323000Y-83486865D01*
X176374534Y-83745942D01*
X176435480Y-83837154D01*
X176440674Y-83844927D01*
X176440610Y-83918397D01*
X176566248Y-84222464D01*
X176798683Y-84455306D01*
X177102531Y-84581474D01*
X177431532Y-84581761D01*
X177735599Y-84456123D01*
X177968441Y-84223688D01*
X178065195Y-83990678D01*
X178284778Y-84081856D01*
X178373000Y-84081933D01*
X178373000Y-84988767D01*
X178334936Y-84973000D01*
X177531750Y-84973000D01*
X177425000Y-85079750D01*
X177425000Y-86627000D01*
X177493000Y-86627000D01*
X177493000Y-88373000D01*
X177425000Y-88373000D01*
X177425000Y-89920250D01*
X177531750Y-90027000D01*
X178334936Y-90027000D01*
X178373000Y-90011233D01*
X178373000Y-90589635D01*
X177025000Y-90589635D01*
X176866763Y-90619409D01*
X176721433Y-90712927D01*
X176699255Y-90745386D01*
X176616876Y-90663007D01*
X176459935Y-90598000D01*
X175933750Y-90598000D01*
X175827000Y-90704750D01*
X175827000Y-91673000D01*
X175847000Y-91673000D01*
X175847000Y-91927000D01*
X175827000Y-91927000D01*
X175827000Y-92895250D01*
X175933750Y-93002000D01*
X176459935Y-93002000D01*
X176616876Y-92936993D01*
X176698195Y-92855674D01*
X176712927Y-92878567D01*
X176855619Y-92976064D01*
X177025000Y-93010365D01*
X178373000Y-93010365D01*
X178373000Y-93938000D01*
X177656750Y-93938000D01*
X177550000Y-94044750D01*
X177550000Y-95592000D01*
X177618000Y-95592000D01*
X177618000Y-97338000D01*
X177550000Y-97338000D01*
X177550000Y-98885250D01*
X177656750Y-98992000D01*
X178373000Y-98992000D01*
X178373000Y-99489635D01*
X177625000Y-99489635D01*
X177466763Y-99519409D01*
X177321433Y-99612927D01*
X177299255Y-99645386D01*
X177216876Y-99563007D01*
X177059935Y-99498000D01*
X176533750Y-99498000D01*
X176427000Y-99604750D01*
X176427000Y-100573000D01*
X176447000Y-100573000D01*
X176447000Y-100827000D01*
X176427000Y-100827000D01*
X176427000Y-100847000D01*
X176173000Y-100847000D01*
X176173000Y-100827000D01*
X175304750Y-100827000D01*
X175198000Y-100933750D01*
X175198000Y-101559936D01*
X175253766Y-101694567D01*
X175232158Y-101703495D01*
X174999316Y-101935930D01*
X174873148Y-102239778D01*
X174872861Y-102568779D01*
X174962500Y-102785722D01*
X174962500Y-102880128D01*
X174883124Y-102913007D01*
X174763007Y-103033124D01*
X174698000Y-103190065D01*
X174698000Y-104395250D01*
X174804750Y-104502000D01*
X175950000Y-104502000D01*
X175950000Y-103196519D01*
X176167850Y-103106505D01*
X176400692Y-102874070D01*
X176526860Y-102570222D01*
X176527147Y-102241221D01*
X176401509Y-101937154D01*
X176366416Y-101902000D01*
X176427002Y-101902000D01*
X176427002Y-101795252D01*
X176533750Y-101902000D01*
X177059935Y-101902000D01*
X177216876Y-101836993D01*
X177298195Y-101755674D01*
X177312927Y-101778567D01*
X177455619Y-101876064D01*
X177625000Y-101910365D01*
X177923144Y-101910365D01*
X177922857Y-102238889D01*
X178048495Y-102542956D01*
X178280930Y-102775798D01*
X178373000Y-102814029D01*
X178373000Y-102848000D01*
X177706750Y-102848000D01*
X177600000Y-102954750D01*
X177600000Y-104502000D01*
X177668000Y-104502000D01*
X177668000Y-106248000D01*
X177600000Y-106248000D01*
X177600000Y-107795250D01*
X177706750Y-107902000D01*
X178373000Y-107902000D01*
X178373000Y-112753628D01*
X178372717Y-113078000D01*
X173627000Y-113078000D01*
X173627000Y-112255000D01*
X173616994Y-112205590D01*
X173588553Y-112163965D01*
X173556796Y-112141408D01*
X173273980Y-112000000D01*
X173973000Y-112000000D01*
X174043564Y-112354748D01*
X174244512Y-112655488D01*
X174545252Y-112856436D01*
X174900000Y-112927000D01*
X175983811Y-112927000D01*
X176055619Y-112976064D01*
X176225000Y-113010365D01*
X177775000Y-113010365D01*
X177933237Y-112980591D01*
X178078567Y-112887073D01*
X178176064Y-112744381D01*
X178210365Y-112575000D01*
X178210365Y-111225000D01*
X178180591Y-111066763D01*
X178087073Y-110921433D01*
X178054614Y-110899255D01*
X178136993Y-110816876D01*
X178202000Y-110659935D01*
X178202000Y-110133750D01*
X178095250Y-110027000D01*
X177127000Y-110027000D01*
X177127000Y-110047000D01*
X176873000Y-110047000D01*
X176873000Y-110027000D01*
X175904750Y-110027000D01*
X175798000Y-110133750D01*
X175798000Y-110659935D01*
X175863007Y-110816876D01*
X175944326Y-110898195D01*
X175921433Y-110912927D01*
X175823936Y-111055619D01*
X175820416Y-111073000D01*
X174900000Y-111073000D01*
X174545252Y-111143564D01*
X174244512Y-111344512D01*
X174043564Y-111645252D01*
X173973000Y-112000000D01*
X173273980Y-112000000D01*
X171627000Y-111176510D01*
X171627000Y-109140065D01*
X175798000Y-109140065D01*
X175798000Y-109666250D01*
X175904750Y-109773000D01*
X176873000Y-109773000D01*
X176873000Y-108904750D01*
X177127000Y-108904750D01*
X177127000Y-109773000D01*
X178095250Y-109773000D01*
X178202000Y-109666250D01*
X178202000Y-109140065D01*
X178136993Y-108983124D01*
X178016876Y-108863007D01*
X177859936Y-108798000D01*
X177233750Y-108798000D01*
X177127000Y-108904750D01*
X176873000Y-108904750D01*
X176766250Y-108798000D01*
X176140064Y-108798000D01*
X175983124Y-108863007D01*
X175863007Y-108983124D01*
X175798000Y-109140065D01*
X171627000Y-109140065D01*
X171627000Y-106354750D01*
X173373000Y-106354750D01*
X173373000Y-107809935D01*
X173438007Y-107966876D01*
X173558124Y-108086993D01*
X173715064Y-108152000D01*
X174080750Y-108152000D01*
X174187500Y-108045250D01*
X174187500Y-106354750D01*
X174698000Y-106354750D01*
X174698000Y-107559935D01*
X174763007Y-107716876D01*
X174883124Y-107836993D01*
X174962500Y-107869872D01*
X174962500Y-108045250D01*
X175069250Y-108152000D01*
X175434936Y-108152000D01*
X175591876Y-108086993D01*
X175711993Y-107966876D01*
X175738865Y-107902000D01*
X175843250Y-107902000D01*
X175950000Y-107795250D01*
X175950000Y-106248000D01*
X174804750Y-106248000D01*
X174698000Y-106354750D01*
X174187500Y-106354750D01*
X174187500Y-106248000D01*
X173479750Y-106248000D01*
X173373000Y-106354750D01*
X171627000Y-106354750D01*
X171627000Y-105057606D01*
X172089803Y-104594803D01*
X172117666Y-104552789D01*
X172127000Y-104505000D01*
X172127000Y-102940065D01*
X173373000Y-102940065D01*
X173373000Y-104395250D01*
X173479750Y-104502000D01*
X174187500Y-104502000D01*
X174187500Y-102704750D01*
X174080750Y-102598000D01*
X173715064Y-102598000D01*
X173558124Y-102663007D01*
X173438007Y-102783124D01*
X173373000Y-102940065D01*
X172127000Y-102940065D01*
X172127000Y-100505000D01*
X172116994Y-100455590D01*
X172089803Y-100415197D01*
X171627000Y-99952394D01*
X171627000Y-99840064D01*
X175198000Y-99840064D01*
X175198000Y-100466250D01*
X175304750Y-100573000D01*
X176173000Y-100573000D01*
X176173000Y-99604750D01*
X176066250Y-99498000D01*
X175540065Y-99498000D01*
X175383124Y-99563007D01*
X175263007Y-99683124D01*
X175198000Y-99840064D01*
X171627000Y-99840064D01*
X171627000Y-97444750D01*
X173323000Y-97444750D01*
X173323000Y-98899935D01*
X173388007Y-99056876D01*
X173508124Y-99176993D01*
X173665064Y-99242000D01*
X174030750Y-99242000D01*
X174137500Y-99135250D01*
X174137500Y-97444750D01*
X174648000Y-97444750D01*
X174648000Y-98649935D01*
X174713007Y-98806876D01*
X174833124Y-98926993D01*
X174912500Y-98959872D01*
X174912500Y-99135250D01*
X175019250Y-99242000D01*
X175384936Y-99242000D01*
X175541876Y-99176993D01*
X175661993Y-99056876D01*
X175688865Y-98992000D01*
X175793250Y-98992000D01*
X175900000Y-98885250D01*
X175900000Y-97338000D01*
X174754750Y-97338000D01*
X174648000Y-97444750D01*
X174137500Y-97444750D01*
X174137500Y-97338000D01*
X173429750Y-97338000D01*
X173323000Y-97444750D01*
X171627000Y-97444750D01*
X171627000Y-94030065D01*
X173323000Y-94030065D01*
X173323000Y-95485250D01*
X173429750Y-95592000D01*
X174137500Y-95592000D01*
X174137500Y-95572000D01*
X174734750Y-95572000D01*
X174754750Y-95592000D01*
X175900000Y-95592000D01*
X175900000Y-94044750D01*
X175793250Y-93938000D01*
X175688865Y-93938000D01*
X175661993Y-93873124D01*
X175541876Y-93753007D01*
X175414405Y-93700207D01*
X175426856Y-93670222D01*
X175427143Y-93341221D01*
X175301505Y-93037154D01*
X175266412Y-93002000D01*
X175466250Y-93002000D01*
X175573000Y-92895250D01*
X175573000Y-91927000D01*
X174704750Y-91927000D01*
X174598000Y-92033750D01*
X174598000Y-92659936D01*
X174605484Y-92678005D01*
X174436221Y-92677857D01*
X174132154Y-92803495D01*
X173899312Y-93035930D01*
X173773144Y-93339778D01*
X173772857Y-93668779D01*
X173780799Y-93688000D01*
X173651998Y-93688000D01*
X173651998Y-93693412D01*
X173508124Y-93753007D01*
X173388007Y-93873124D01*
X173323000Y-94030065D01*
X171627000Y-94030065D01*
X171627000Y-90940064D01*
X174598000Y-90940064D01*
X174598000Y-91566250D01*
X174704750Y-91673000D01*
X175573000Y-91673000D01*
X175573000Y-90704750D01*
X175466250Y-90598000D01*
X174940065Y-90598000D01*
X174783124Y-90663007D01*
X174663007Y-90783124D01*
X174598000Y-90940064D01*
X171627000Y-90940064D01*
X171627000Y-88479750D01*
X173198000Y-88479750D01*
X173198000Y-89934935D01*
X173263007Y-90091876D01*
X173383124Y-90211993D01*
X173540064Y-90277000D01*
X173905750Y-90277000D01*
X174012500Y-90170250D01*
X174012500Y-88479750D01*
X174523000Y-88479750D01*
X174523000Y-89684935D01*
X174588007Y-89841876D01*
X174708124Y-89961993D01*
X174787500Y-89994872D01*
X174787500Y-90170250D01*
X174894250Y-90277000D01*
X175259936Y-90277000D01*
X175416876Y-90211993D01*
X175536993Y-90091876D01*
X175563865Y-90027000D01*
X175668250Y-90027000D01*
X175775000Y-89920250D01*
X175775000Y-88373000D01*
X174629750Y-88373000D01*
X174523000Y-88479750D01*
X174012500Y-88479750D01*
X174012500Y-88373000D01*
X173304750Y-88373000D01*
X173198000Y-88479750D01*
X171627000Y-88479750D01*
X171627000Y-85065065D01*
X173198000Y-85065065D01*
X173198000Y-86520250D01*
X173304750Y-86627000D01*
X174012500Y-86627000D01*
X174012500Y-84829750D01*
X173905750Y-84723000D01*
X173540064Y-84723000D01*
X173383124Y-84788007D01*
X173263007Y-84908124D01*
X173198000Y-85065065D01*
X171627000Y-85065065D01*
X171627000Y-84468779D01*
X174372857Y-84468779D01*
X174498495Y-84772846D01*
X174730930Y-85005688D01*
X174758505Y-85017138D01*
X174708124Y-85038007D01*
X174588007Y-85158124D01*
X174523000Y-85315065D01*
X174523000Y-86520250D01*
X174629750Y-86627000D01*
X175775000Y-86627000D01*
X175775000Y-85079750D01*
X175684815Y-84989565D01*
X175900688Y-84774070D01*
X176026856Y-84470222D01*
X176027143Y-84141221D01*
X175901505Y-83837154D01*
X175669070Y-83604312D01*
X175365222Y-83478144D01*
X175036221Y-83477857D01*
X174732154Y-83603495D01*
X174499312Y-83835930D01*
X174373144Y-84139778D01*
X174372857Y-84468779D01*
X171627000Y-84468779D01*
X171627000Y-83072968D01*
X172320447Y-82610670D01*
X172356008Y-82574937D01*
X172377000Y-82505000D01*
X172377000Y-82383750D01*
X173898000Y-82383750D01*
X173898000Y-83009936D01*
X173963007Y-83166876D01*
X174083124Y-83286993D01*
X174240065Y-83352000D01*
X174766250Y-83352000D01*
X174873000Y-83245250D01*
X174873000Y-82277000D01*
X174004750Y-82277000D01*
X173898000Y-82383750D01*
X172377000Y-82383750D01*
X172377000Y-81290064D01*
X173898000Y-81290064D01*
X173898000Y-81916250D01*
X174004750Y-82023000D01*
X174873000Y-82023000D01*
X174873000Y-81054750D01*
X174766250Y-80948000D01*
X174240065Y-80948000D01*
X174083124Y-81013007D01*
X173963007Y-81133124D01*
X173898000Y-81290064D01*
X172377000Y-81290064D01*
X172377000Y-78502000D01*
X178373000Y-78502000D01*
X178373000Y-81253554D01*
G36*
X161199310Y-78535930D02*
X161073142Y-78839778D01*
X161072941Y-79069653D01*
X160990017Y-79193757D01*
X160961494Y-79337154D01*
X160947999Y-79404999D01*
X160947999Y-84719999D01*
X160956878Y-84764635D01*
X160320000Y-84764635D01*
X160252001Y-84777430D01*
X160252001Y-84299330D01*
X160390323Y-84161008D01*
X160509982Y-83981927D01*
X160539140Y-83835335D01*
X160700688Y-83674070D01*
X160826856Y-83370222D01*
X160827143Y-83041221D01*
X160701505Y-82737154D01*
X160469070Y-82504312D01*
X160165222Y-82378144D01*
X159836221Y-82377857D01*
X159532154Y-82503495D01*
X159459064Y-82576457D01*
X159401505Y-82437154D01*
X159169070Y-82204312D01*
X158865222Y-82078144D01*
X158536221Y-82077857D01*
X158232154Y-82203495D01*
X157999312Y-82435930D01*
X157873144Y-82739778D01*
X157872857Y-83068779D01*
X157998495Y-83372846D01*
X158230930Y-83605688D01*
X158534778Y-83731856D01*
X158863779Y-83732143D01*
X159167846Y-83606505D01*
X159240936Y-83533543D01*
X159298495Y-83672846D01*
X159308202Y-83682570D01*
X159190019Y-83859442D01*
X159190019Y-83859443D01*
X159148001Y-84070684D01*
X159148001Y-85367355D01*
X155890323Y-82109677D01*
X155821155Y-82063460D01*
X155937230Y-81947588D01*
X156116795Y-81515147D01*
X156116796Y-81513093D01*
X156302796Y-81513093D01*
X156481606Y-81945846D01*
X156812412Y-82277230D01*
X157244853Y-82456795D01*
X157713093Y-82457204D01*
X158145846Y-82278394D01*
X158477230Y-81947588D01*
X158656795Y-81515147D01*
X158657204Y-81046907D01*
X158478394Y-80614154D01*
X158147588Y-80282770D01*
X157715147Y-80103205D01*
X157246907Y-80102796D01*
X156814154Y-80281606D01*
X156482770Y-80612412D01*
X156303205Y-81044853D01*
X156302796Y-81513093D01*
X156116796Y-81513093D01*
X156117204Y-81046907D01*
X155938394Y-80614154D01*
X155607588Y-80282770D01*
X155175147Y-80103205D01*
X154706907Y-80102796D01*
X154274154Y-80281606D01*
X153942770Y-80612412D01*
X153763205Y-81044853D01*
X153762796Y-81513093D01*
X153941606Y-81945846D01*
X153943756Y-81948000D01*
X153848646Y-81948000D01*
X153529556Y-81628910D01*
X153576795Y-81515147D01*
X153577204Y-81046907D01*
X153398394Y-80614154D01*
X153067588Y-80282770D01*
X152635147Y-80103205D01*
X152166907Y-80102796D01*
X151734154Y-80281606D01*
X151402770Y-80612412D01*
X151223205Y-81044853D01*
X151222796Y-81513093D01*
X151401606Y-81945846D01*
X151503582Y-82048000D01*
X150785622Y-82048000D01*
X150796615Y-82037007D01*
X150717657Y-81958049D01*
X150900065Y-81878671D01*
X151049996Y-81435084D01*
X151018761Y-80967887D01*
X150900065Y-80681329D01*
X150717655Y-80601950D01*
X150039605Y-81280000D01*
X150053748Y-81294143D01*
X149874143Y-81473748D01*
X149860000Y-81459605D01*
X149845858Y-81473748D01*
X149666253Y-81294143D01*
X149680395Y-81280000D01*
X149002345Y-80601950D01*
X148819935Y-80681329D01*
X148670004Y-81124916D01*
X148701239Y-81592113D01*
X148819935Y-81878671D01*
X149002343Y-81958049D01*
X148923385Y-82037007D01*
X148934378Y-82048000D01*
X148868646Y-82048000D01*
X148449556Y-81628910D01*
X148496795Y-81515147D01*
X148497204Y-81046907D01*
X148318394Y-80614154D01*
X148126920Y-80422345D01*
X149181950Y-80422345D01*
X149860000Y-81100395D01*
X150538050Y-80422345D01*
X150458671Y-80239935D01*
X150015084Y-80090004D01*
X149547887Y-80121239D01*
X149261329Y-80239935D01*
X149181950Y-80422345D01*
X148126920Y-80422345D01*
X147987588Y-80282770D01*
X147555147Y-80103205D01*
X147086907Y-80102796D01*
X146654154Y-80281606D01*
X146322770Y-80612412D01*
X146143205Y-81044853D01*
X146142796Y-81513093D01*
X146321606Y-81945846D01*
X146652412Y-82277230D01*
X147084853Y-82456795D01*
X147553093Y-82457204D01*
X147668764Y-82409410D01*
X148249677Y-82990323D01*
X148428758Y-83109982D01*
X148640000Y-83152000D01*
X148863183Y-83152000D01*
X148862770Y-83152412D01*
X148683205Y-83584853D01*
X148682796Y-84053093D01*
X148861606Y-84485846D01*
X149192412Y-84817230D01*
X149624853Y-84996795D01*
X150093093Y-84997204D01*
X150525846Y-84818394D01*
X150857230Y-84487588D01*
X151036795Y-84055147D01*
X151037204Y-83586907D01*
X150858394Y-83154154D01*
X150856244Y-83152000D01*
X151403183Y-83152000D01*
X151402770Y-83152412D01*
X151223205Y-83584853D01*
X151222796Y-84053093D01*
X151401606Y-84485846D01*
X151732412Y-84817230D01*
X152164853Y-84996795D01*
X152633093Y-84997204D01*
X153065846Y-84818394D01*
X153187229Y-84697222D01*
X153190018Y-84711242D01*
X153309677Y-84890323D01*
X153809677Y-85390323D01*
X153988758Y-85509982D01*
X154200000Y-85552000D01*
X157134944Y-85552000D01*
X157380927Y-85797983D01*
X157236221Y-85797857D01*
X156932154Y-85923495D01*
X156699312Y-86155930D01*
X156573144Y-86459778D01*
X156572857Y-86788779D01*
X156680264Y-87048723D01*
X156574120Y-87154681D01*
X156447952Y-87458529D01*
X156447767Y-87670146D01*
X155109677Y-89008236D01*
X154990018Y-89187317D01*
X154990018Y-89187318D01*
X154948000Y-89398559D01*
X154948000Y-90293000D01*
X154733750Y-90293000D01*
X154627000Y-90399750D01*
X154627000Y-91043000D01*
X154647000Y-91043000D01*
X154647000Y-91297000D01*
X154627000Y-91297000D01*
X154627000Y-91317000D01*
X154373000Y-91317000D01*
X154373000Y-91297000D01*
X153679750Y-91297000D01*
X153573000Y-91403750D01*
X153573000Y-91645467D01*
X153513869Y-91620914D01*
X153184868Y-91620627D01*
X152880801Y-91746265D01*
X152823358Y-91803608D01*
X152819070Y-91799312D01*
X152515222Y-91673144D01*
X152186221Y-91672857D01*
X151882154Y-91798495D01*
X151649312Y-92030930D01*
X151523144Y-92334778D01*
X151522857Y-92663779D01*
X151648495Y-92967846D01*
X151880930Y-93200688D01*
X152184778Y-93326856D01*
X152396395Y-93327041D01*
X152548000Y-93478646D01*
X152548000Y-93800000D01*
X152590018Y-94011242D01*
X152698000Y-94172847D01*
X152698000Y-94717354D01*
X152490334Y-94509688D01*
X152311253Y-94390029D01*
X152100011Y-94348011D01*
X150935365Y-94348011D01*
X150935365Y-94000000D01*
X150905591Y-93841763D01*
X150812073Y-93696433D01*
X150669381Y-93598936D01*
X150500000Y-93564635D01*
X147800000Y-93564635D01*
X147641763Y-93594409D01*
X147496433Y-93687927D01*
X147403941Y-93823295D01*
X147395365Y-93814719D01*
X147395365Y-93690000D01*
X147365591Y-93531763D01*
X147272073Y-93386433D01*
X147129381Y-93288936D01*
X146960000Y-93254635D01*
X146240000Y-93254635D01*
X146081763Y-93284409D01*
X145936433Y-93377927D01*
X145838936Y-93520619D01*
X145804635Y-93690000D01*
X145804635Y-94410000D01*
X145832487Y-94558020D01*
X145813000Y-94605065D01*
X145813000Y-94816250D01*
X145919750Y-94923000D01*
X146473000Y-94923000D01*
X146473000Y-94903000D01*
X146727000Y-94903000D01*
X146727000Y-94923000D01*
X146747000Y-94923000D01*
X146747000Y-95177000D01*
X146727000Y-95177000D01*
X146727000Y-96223000D01*
X146747000Y-96223000D01*
X146747000Y-96477000D01*
X146727000Y-96477000D01*
X146727000Y-96497000D01*
X146473000Y-96497000D01*
X146473000Y-96477000D01*
X145919750Y-96477000D01*
X145813000Y-96583750D01*
X145813000Y-96794935D01*
X145833913Y-96845423D01*
X145804635Y-96990000D01*
X145804635Y-97710000D01*
X145834409Y-97868237D01*
X145927927Y-98013567D01*
X146070619Y-98111064D01*
X146240000Y-98145365D01*
X146960000Y-98145365D01*
X147118237Y-98115591D01*
X147263567Y-98022073D01*
X147361064Y-97879381D01*
X147395365Y-97710000D01*
X147395365Y-97585281D01*
X147405372Y-97575274D01*
X147487927Y-97703567D01*
X147630619Y-97801064D01*
X147800000Y-97835365D01*
X150500000Y-97835365D01*
X150658237Y-97805591D01*
X150803567Y-97712073D01*
X150901064Y-97569381D01*
X150935365Y-97400000D01*
X150935365Y-97252000D01*
X150956135Y-97252000D01*
X151027927Y-97363567D01*
X151170619Y-97461064D01*
X151340000Y-97495365D01*
X151678989Y-97495365D01*
X151171354Y-98003000D01*
X150700000Y-98003000D01*
X150488758Y-98045018D01*
X150309677Y-98164677D01*
X150146353Y-98328001D01*
X146874999Y-98328001D01*
X146663757Y-98370019D01*
X146484676Y-98489678D01*
X146221355Y-98752999D01*
X145277133Y-98752999D01*
X145277143Y-98741221D01*
X145151505Y-98437154D01*
X144919070Y-98204312D01*
X144615222Y-98078144D01*
X144286221Y-98077857D01*
X143982154Y-98203495D01*
X143749312Y-98435930D01*
X143623144Y-98739778D01*
X143622857Y-99068779D01*
X143748495Y-99372846D01*
X143980930Y-99605688D01*
X144284778Y-99731856D01*
X144514653Y-99732057D01*
X144638757Y-99814981D01*
X144849999Y-99856999D01*
X146450001Y-99856999D01*
X146661243Y-99814981D01*
X146840324Y-99695322D01*
X146893000Y-99642646D01*
X146893000Y-99666250D01*
X146999750Y-99773000D01*
X147643000Y-99773000D01*
X147643000Y-99753000D01*
X147897000Y-99753000D01*
X147897000Y-99773000D01*
X147917000Y-99773000D01*
X147917000Y-100027000D01*
X147897000Y-100027000D01*
X147897000Y-100720250D01*
X148003750Y-100827000D01*
X148304935Y-100827000D01*
X148461876Y-100761993D01*
X148581993Y-100641876D01*
X148600100Y-100598162D01*
X148667927Y-100703567D01*
X148810619Y-100801064D01*
X148980000Y-100835365D01*
X149745066Y-100835365D01*
X149708804Y-100889635D01*
X149625000Y-100889635D01*
X149466763Y-100919409D01*
X149321433Y-101012927D01*
X149299255Y-101045386D01*
X149216876Y-100963007D01*
X149059935Y-100898000D01*
X148533750Y-100898000D01*
X148427000Y-101004750D01*
X148427000Y-101973000D01*
X148447000Y-101973000D01*
X148447000Y-102227000D01*
X148427000Y-102227000D01*
X148427000Y-103195250D01*
X148533750Y-103302000D01*
X149059935Y-103302000D01*
X149216876Y-103236993D01*
X149298195Y-103155674D01*
X149312927Y-103178567D01*
X149455619Y-103276064D01*
X149625000Y-103310365D01*
X150437212Y-103310365D01*
X150397942Y-103349635D01*
X149180000Y-103349635D01*
X149021763Y-103379409D01*
X148876433Y-103472927D01*
X148778936Y-103615619D01*
X148744635Y-103785000D01*
X148744635Y-103808000D01*
X146935365Y-103808000D01*
X146935365Y-103400000D01*
X146905591Y-103241763D01*
X146812073Y-103096433D01*
X146669381Y-102998936D01*
X146500000Y-102964635D01*
X145500000Y-102964635D01*
X145341763Y-102994409D01*
X145196433Y-103087927D01*
X145098936Y-103230619D01*
X145064635Y-103400000D01*
X145064635Y-106100000D01*
X145094409Y-106258237D01*
X145187927Y-106403567D01*
X145330619Y-106501064D01*
X145500000Y-106535365D01*
X146500000Y-106535365D01*
X146658237Y-106505591D01*
X146673003Y-106496089D01*
X146672857Y-106663779D01*
X146798495Y-106967846D01*
X146878509Y-107048000D01*
X146433750Y-107048000D01*
X146327000Y-107154750D01*
X146327000Y-108123000D01*
X147195250Y-108123000D01*
X147302000Y-108016250D01*
X147302000Y-107730065D01*
X148753000Y-107730065D01*
X148753000Y-108281250D01*
X148859750Y-108388000D01*
X149873000Y-108388000D01*
X149873000Y-107494750D01*
X150127000Y-107494750D01*
X150127000Y-108388000D01*
X151140250Y-108388000D01*
X151247000Y-108281250D01*
X151247000Y-107730065D01*
X151181993Y-107573124D01*
X151061876Y-107453007D01*
X150904936Y-107388000D01*
X150233750Y-107388000D01*
X150127000Y-107494750D01*
X149873000Y-107494750D01*
X149766250Y-107388000D01*
X149095064Y-107388000D01*
X148938124Y-107453007D01*
X148818007Y-107573124D01*
X148753000Y-107730065D01*
X147302000Y-107730065D01*
X147302000Y-107390064D01*
X147263571Y-107297288D01*
X147334778Y-107326856D01*
X147663779Y-107327143D01*
X147967846Y-107201505D01*
X148200688Y-106969070D01*
X148326856Y-106665222D01*
X148327143Y-106336221D01*
X148201505Y-106032154D01*
X147969070Y-105799312D01*
X147665222Y-105673144D01*
X147336221Y-105672857D01*
X147032154Y-105798495D01*
X146935365Y-105895115D01*
X146935365Y-105162000D01*
X148744635Y-105162000D01*
X148744635Y-105185000D01*
X148774409Y-105343237D01*
X148867927Y-105488567D01*
X149010619Y-105586064D01*
X149180000Y-105620365D01*
X150820000Y-105620365D01*
X150978237Y-105590591D01*
X151123567Y-105497073D01*
X151221064Y-105354381D01*
X151255365Y-105185000D01*
X151255365Y-104407057D01*
X151978711Y-103683712D01*
X152062550Y-103558237D01*
X152125466Y-103464077D01*
X152176602Y-103207000D01*
X152366250Y-103207000D01*
X152473000Y-103100250D01*
X152473000Y-102457000D01*
X152727000Y-102457000D01*
X152727000Y-103100250D01*
X152833750Y-103207000D01*
X153184936Y-103207000D01*
X153341876Y-103141993D01*
X153461993Y-103021876D01*
X153527000Y-102864935D01*
X153527000Y-102563750D01*
X153420250Y-102457000D01*
X152727000Y-102457000D01*
X152473000Y-102457000D01*
X152453000Y-102457000D01*
X152453000Y-102203000D01*
X152473000Y-102203000D01*
X152473000Y-102183000D01*
X152727000Y-102183000D01*
X152727000Y-102203000D01*
X153420250Y-102203000D01*
X153527000Y-102096250D01*
X153527000Y-101996751D01*
X153530930Y-102000688D01*
X153834778Y-102126856D01*
X154163779Y-102127143D01*
X154467846Y-102001505D01*
X154569974Y-101899555D01*
X154609677Y-101958974D01*
X154780172Y-102072895D01*
X154736221Y-102072857D01*
X154432154Y-102198495D01*
X154199312Y-102430930D01*
X154073144Y-102734778D01*
X154072857Y-103063779D01*
X154198495Y-103367846D01*
X154300106Y-103469635D01*
X153765000Y-103469635D01*
X153606763Y-103499409D01*
X153461433Y-103592927D01*
X153363936Y-103735619D01*
X153329635Y-103905000D01*
X153329635Y-104895000D01*
X153359409Y-105053237D01*
X153424954Y-105155096D01*
X153464534Y-105354077D01*
X153581840Y-105529638D01*
X153611289Y-105573711D01*
X153672886Y-105635308D01*
X153672857Y-105668779D01*
X153798495Y-105972846D01*
X154030930Y-106205688D01*
X154334778Y-106331856D01*
X154663779Y-106332143D01*
X154958000Y-106210573D01*
X154958000Y-107361354D01*
X154771983Y-107547371D01*
X154826856Y-107415222D01*
X154827143Y-107086221D01*
X154701505Y-106782154D01*
X154469070Y-106549312D01*
X154165222Y-106423144D01*
X153836221Y-106422857D01*
X153532154Y-106548495D01*
X153299312Y-106780930D01*
X153250034Y-106899604D01*
X153201505Y-106782154D01*
X152969070Y-106549312D01*
X152665222Y-106423144D01*
X152336221Y-106422857D01*
X152032154Y-106548495D01*
X151799312Y-106780930D01*
X151673144Y-107084778D01*
X151672857Y-107413779D01*
X151798495Y-107717846D01*
X152030930Y-107950688D01*
X152334778Y-108076856D01*
X152663779Y-108077143D01*
X152967846Y-107951505D01*
X153200688Y-107719070D01*
X153249966Y-107600396D01*
X153298495Y-107717846D01*
X153530930Y-107950688D01*
X153834778Y-108076856D01*
X154163779Y-108077143D01*
X154297438Y-108021916D01*
X152636366Y-109682988D01*
X151697599Y-109682988D01*
X151645147Y-109693421D01*
X151486358Y-109725006D01*
X151486357Y-109725007D01*
X151486356Y-109725007D01*
X151307275Y-109844666D01*
X151103942Y-110048000D01*
X149200000Y-110048000D01*
X148988758Y-110090018D01*
X148809677Y-110209677D01*
X148340991Y-110678363D01*
X148239381Y-110608936D01*
X148070000Y-110574635D01*
X146570000Y-110574635D01*
X146411763Y-110604409D01*
X146266433Y-110697927D01*
X146168936Y-110840619D01*
X146134635Y-111010000D01*
X146134635Y-112510000D01*
X146164409Y-112668237D01*
X146257927Y-112813567D01*
X146400619Y-112911064D01*
X146570000Y-112945365D01*
X148070000Y-112945365D01*
X148228237Y-112915591D01*
X148373567Y-112822073D01*
X148471064Y-112679381D01*
X148505365Y-112510000D01*
X148505365Y-112075281D01*
X148682879Y-111897767D01*
X148682796Y-111993093D01*
X148861606Y-112425846D01*
X149192412Y-112757230D01*
X149624853Y-112936795D01*
X150093093Y-112937204D01*
X150525846Y-112758394D01*
X150857230Y-112427588D01*
X150907821Y-112305752D01*
X151087652Y-112269982D01*
X151266733Y-112150323D01*
X151281614Y-112135442D01*
X151401606Y-112425846D01*
X151732412Y-112757230D01*
X152164853Y-112936795D01*
X152633093Y-112937204D01*
X153065846Y-112758394D01*
X153397230Y-112427588D01*
X153462317Y-112270842D01*
X153466640Y-112269982D01*
X153645721Y-112150323D01*
X153774537Y-112021507D01*
X153941606Y-112425846D01*
X154272412Y-112757230D01*
X154704853Y-112936795D01*
X155173093Y-112937204D01*
X155605846Y-112758394D01*
X155746830Y-112617655D01*
X156801950Y-112617655D01*
X156881329Y-112800065D01*
X157324916Y-112949996D01*
X157792113Y-112918761D01*
X158078671Y-112800065D01*
X158158050Y-112617655D01*
X157480000Y-111939605D01*
X156801950Y-112617655D01*
X155746830Y-112617655D01*
X155937230Y-112427588D01*
X156116795Y-111995147D01*
X156117135Y-111604916D01*
X156290004Y-111604916D01*
X156321239Y-112072113D01*
X156439935Y-112358671D01*
X156622345Y-112438050D01*
X157300395Y-111760000D01*
X157659605Y-111760000D01*
X158337655Y-112438050D01*
X158520065Y-112358671D01*
X158543698Y-112288750D01*
X159923000Y-112288750D01*
X159923000Y-112439936D01*
X159988007Y-112596876D01*
X160108124Y-112716993D01*
X160265065Y-112782000D01*
X160343250Y-112782000D01*
X160450000Y-112675250D01*
X160450000Y-112182000D01*
X160029750Y-112182000D01*
X159923000Y-112288750D01*
X158543698Y-112288750D01*
X158669996Y-111915084D01*
X158653615Y-111670064D01*
X159923000Y-111670064D01*
X159923000Y-111821250D01*
X160029750Y-111928000D01*
X160450000Y-111928000D01*
X160450000Y-111434750D01*
X160650000Y-111434750D01*
X160650000Y-111928000D01*
X160697000Y-111928000D01*
X160697000Y-112182000D01*
X160650000Y-112182000D01*
X160650000Y-112675250D01*
X160756750Y-112782000D01*
X160834935Y-112782000D01*
X160991876Y-112716993D01*
X161004687Y-112704182D01*
X161080619Y-112756064D01*
X161250000Y-112790365D01*
X161650000Y-112790365D01*
X161808237Y-112760591D01*
X161953567Y-112667073D01*
X161994613Y-112607000D01*
X162080952Y-112607000D01*
X162109409Y-112758237D01*
X162202927Y-112903567D01*
X162345619Y-113001064D01*
X162515000Y-113035365D01*
X163165000Y-113035365D01*
X163323237Y-113005591D01*
X163468567Y-112912073D01*
X163550880Y-112791604D01*
X163622927Y-112903567D01*
X163765619Y-113001064D01*
X163935000Y-113035365D01*
X164239719Y-113035365D01*
X164322822Y-113118468D01*
X164322778Y-113168779D01*
X164448416Y-113472846D01*
X164680851Y-113705688D01*
X164984699Y-113831856D01*
X165313700Y-113832143D01*
X165617767Y-113706505D01*
X165850609Y-113474070D01*
X165976777Y-113170222D01*
X165977064Y-112841221D01*
X165851426Y-112537154D01*
X165618991Y-112304312D01*
X165315143Y-112178144D01*
X165020365Y-112177887D01*
X165020365Y-111610000D01*
X164990591Y-111451763D01*
X164897073Y-111306433D01*
X164754381Y-111208936D01*
X164585000Y-111174635D01*
X163935000Y-111174635D01*
X163776763Y-111204409D01*
X163631433Y-111297927D01*
X163549120Y-111418396D01*
X163477073Y-111306433D01*
X163334381Y-111208936D01*
X163165000Y-111174635D01*
X162515000Y-111174635D01*
X162356763Y-111204409D01*
X162211433Y-111297927D01*
X162113936Y-111440619D01*
X162101303Y-111503000D01*
X161995256Y-111503000D01*
X161962073Y-111451433D01*
X161819381Y-111353936D01*
X161650000Y-111319635D01*
X161250000Y-111319635D01*
X161091763Y-111349409D01*
X161004458Y-111405589D01*
X160991876Y-111393007D01*
X160834935Y-111328000D01*
X160756750Y-111328000D01*
X160650000Y-111434750D01*
X160450000Y-111434750D01*
X160343250Y-111328000D01*
X160265065Y-111328000D01*
X160108124Y-111393007D01*
X159988007Y-111513124D01*
X159923000Y-111670064D01*
X158653615Y-111670064D01*
X158638761Y-111447887D01*
X158520065Y-111161329D01*
X158337655Y-111081950D01*
X157659605Y-111760000D01*
X157300395Y-111760000D01*
X156622345Y-111081950D01*
X156439935Y-111161329D01*
X156290004Y-111604916D01*
X156117135Y-111604916D01*
X156117204Y-111526907D01*
X156069410Y-111411236D01*
X156578301Y-110902345D01*
X156801950Y-110902345D01*
X157480000Y-111580395D01*
X158158050Y-110902345D01*
X158078671Y-110719935D01*
X157635084Y-110570004D01*
X157167887Y-110601239D01*
X156881329Y-110719935D01*
X156801950Y-110902345D01*
X156578301Y-110902345D01*
X157890323Y-109590323D01*
X158009982Y-109411242D01*
X158052000Y-109200000D01*
X158052000Y-108620064D01*
X158223000Y-108620064D01*
X158223000Y-108771250D01*
X158329750Y-108878000D01*
X158750000Y-108878000D01*
X158750000Y-108384750D01*
X158643250Y-108278000D01*
X158565065Y-108278000D01*
X158408124Y-108343007D01*
X158288007Y-108463124D01*
X158223000Y-108620064D01*
X158052000Y-108620064D01*
X158052000Y-106937646D01*
X159036073Y-107921719D01*
X159215154Y-108041378D01*
X159426396Y-108083396D01*
X159776425Y-108083396D01*
X159924853Y-108232084D01*
X160077437Y-108295442D01*
X159950000Y-108269635D01*
X159550000Y-108269635D01*
X159391763Y-108299409D01*
X159304458Y-108355589D01*
X159291876Y-108343007D01*
X159134935Y-108278000D01*
X159056750Y-108278000D01*
X158950000Y-108384750D01*
X158950000Y-108878000D01*
X158997000Y-108878000D01*
X158997000Y-109132000D01*
X158950000Y-109132000D01*
X158950000Y-109152000D01*
X158750000Y-109152000D01*
X158750000Y-109132000D01*
X158329750Y-109132000D01*
X158223000Y-109238750D01*
X158223000Y-109389936D01*
X158288007Y-109546876D01*
X158408124Y-109666993D01*
X158565065Y-109732000D01*
X158643250Y-109732000D01*
X158722998Y-109652252D01*
X158722998Y-109707635D01*
X158499312Y-109930930D01*
X158373144Y-110234778D01*
X158372857Y-110563779D01*
X158498495Y-110867846D01*
X158730930Y-111100688D01*
X159034778Y-111226856D01*
X159363779Y-111227143D01*
X159667846Y-111101505D01*
X159900688Y-110869070D01*
X160026856Y-110565222D01*
X160027143Y-110236221D01*
X159901505Y-109932154D01*
X159710051Y-109740365D01*
X159950000Y-109740365D01*
X160108237Y-109710591D01*
X160253567Y-109617073D01*
X160294613Y-109557000D01*
X160379635Y-109557000D01*
X160379635Y-109600000D01*
X160409409Y-109758237D01*
X160502927Y-109903567D01*
X160645619Y-110001064D01*
X160815000Y-110035365D01*
X161465000Y-110035365D01*
X161623237Y-110005591D01*
X161768567Y-109912073D01*
X161850880Y-109791604D01*
X161922927Y-109903567D01*
X162065619Y-110001064D01*
X162235000Y-110035365D01*
X162885000Y-110035365D01*
X163043237Y-110005591D01*
X163188567Y-109912073D01*
X163286064Y-109769381D01*
X163320365Y-109600000D01*
X163320365Y-108610000D01*
X163290591Y-108451763D01*
X163197073Y-108306433D01*
X163112000Y-108248305D01*
X163112000Y-106162428D01*
X163300688Y-105974070D01*
X163426856Y-105670222D01*
X163427143Y-105341221D01*
X163417099Y-105316912D01*
X163568270Y-105468348D01*
X163872118Y-105594516D01*
X164201119Y-105594803D01*
X164505186Y-105469165D01*
X164738028Y-105236730D01*
X164764635Y-105172653D01*
X164764635Y-105705000D01*
X164794409Y-105863237D01*
X164887927Y-106008567D01*
X165030619Y-106106064D01*
X165200000Y-106140365D01*
X165800000Y-106140365D01*
X165958237Y-106110591D01*
X166103567Y-106017073D01*
X166201064Y-105874381D01*
X166221207Y-105774915D01*
X166340323Y-105695323D01*
X166478646Y-105557000D01*
X166790360Y-105557000D01*
X166809409Y-105658237D01*
X166902927Y-105803567D01*
X167045619Y-105901064D01*
X167215000Y-105935365D01*
X167865000Y-105935365D01*
X168023237Y-105905591D01*
X168168567Y-105812073D01*
X168250880Y-105691604D01*
X168322927Y-105803567D01*
X168408000Y-105861695D01*
X168408000Y-106148657D01*
X168331433Y-106197927D01*
X168249120Y-106318396D01*
X168177073Y-106206433D01*
X168034381Y-106108936D01*
X167865000Y-106074635D01*
X167215000Y-106074635D01*
X167056763Y-106104409D01*
X166911433Y-106197927D01*
X166813936Y-106340619D01*
X166791178Y-106453000D01*
X166750000Y-106453000D01*
X166538759Y-106495018D01*
X166435886Y-106563756D01*
X166359677Y-106614677D01*
X166029405Y-106944949D01*
X165969381Y-106903936D01*
X165800000Y-106869635D01*
X165200000Y-106869635D01*
X165041763Y-106899409D01*
X164896433Y-106992927D01*
X164798936Y-107135619D01*
X164764635Y-107305000D01*
X164764635Y-108105000D01*
X164794409Y-108263237D01*
X164887927Y-108408567D01*
X165030619Y-108506064D01*
X165200000Y-108540365D01*
X165800000Y-108540365D01*
X165958237Y-108510591D01*
X166103567Y-108417073D01*
X166201064Y-108274381D01*
X166211072Y-108224961D01*
X166261242Y-108214982D01*
X166440323Y-108095323D01*
X166836034Y-107699612D01*
X166902927Y-107803567D01*
X167045619Y-107901064D01*
X167215000Y-107935365D01*
X167865000Y-107935365D01*
X168023237Y-107905591D01*
X168168567Y-107812073D01*
X168250880Y-107691604D01*
X168322927Y-107803567D01*
X168465619Y-107901064D01*
X168635000Y-107935365D01*
X168939719Y-107935365D01*
X169399677Y-108395323D01*
X169578759Y-108514982D01*
X169718256Y-108542729D01*
X169880930Y-108705688D01*
X170184778Y-108831856D01*
X170513779Y-108832143D01*
X170817846Y-108706505D01*
X170873000Y-108651447D01*
X170873000Y-111755000D01*
X170883006Y-111804410D01*
X170911447Y-111846035D01*
X170943204Y-111868592D01*
X172873000Y-112833490D01*
X172873000Y-115499237D01*
X140876589Y-115502437D01*
X141573028Y-114807213D01*
X142126369Y-113474620D01*
X142127628Y-112031710D01*
X141576614Y-110698154D01*
X140557213Y-109676972D01*
X139224620Y-109123631D01*
X137781710Y-109122372D01*
X136448154Y-109673386D01*
X135752000Y-110368326D01*
X135752000Y-103400000D01*
X142864635Y-103400000D01*
X142864635Y-106100000D01*
X142894409Y-106258237D01*
X142987927Y-106403567D01*
X143123000Y-106495858D01*
X143123000Y-106600000D01*
X143174534Y-106859077D01*
X143310341Y-107062326D01*
X143321289Y-107078711D01*
X143333434Y-107090856D01*
X143221433Y-107162927D01*
X143123936Y-107305619D01*
X143089635Y-107475000D01*
X143089635Y-109025000D01*
X143119409Y-109183237D01*
X143212927Y-109328567D01*
X143355619Y-109426064D01*
X143525000Y-109460365D01*
X143573000Y-109460365D01*
X143573000Y-109762283D01*
X143549312Y-109785930D01*
X143423144Y-110089778D01*
X143422857Y-110418779D01*
X143548495Y-110722846D01*
X143780930Y-110955688D01*
X144084778Y-111081856D01*
X144413779Y-111082143D01*
X144717846Y-110956505D01*
X144950688Y-110724070D01*
X145076856Y-110420222D01*
X145077143Y-110091221D01*
X144951505Y-109787154D01*
X144927000Y-109762606D01*
X144927000Y-109450581D01*
X145033237Y-109430591D01*
X145178567Y-109337073D01*
X145200745Y-109304614D01*
X145283124Y-109386993D01*
X145440065Y-109452000D01*
X145966250Y-109452000D01*
X146073000Y-109345250D01*
X146073000Y-108377000D01*
X146327000Y-108377000D01*
X146327000Y-109345250D01*
X146433750Y-109452000D01*
X146959935Y-109452000D01*
X147116876Y-109386993D01*
X147236993Y-109266876D01*
X147302000Y-109109936D01*
X147302000Y-108748750D01*
X148753000Y-108748750D01*
X148753000Y-109299935D01*
X148818007Y-109456876D01*
X148938124Y-109576993D01*
X149095064Y-109642000D01*
X149766250Y-109642000D01*
X149873000Y-109535250D01*
X149873000Y-108642000D01*
X150127000Y-108642000D01*
X150127000Y-109535250D01*
X150233750Y-109642000D01*
X150904936Y-109642000D01*
X151061876Y-109576993D01*
X151181993Y-109456876D01*
X151247000Y-109299935D01*
X151247000Y-108748750D01*
X151140250Y-108642000D01*
X150127000Y-108642000D01*
X149873000Y-108642000D01*
X148859750Y-108642000D01*
X148753000Y-108748750D01*
X147302000Y-108748750D01*
X147302000Y-108483750D01*
X147195250Y-108377000D01*
X146327000Y-108377000D01*
X146073000Y-108377000D01*
X146053000Y-108377000D01*
X146053000Y-108123000D01*
X146073000Y-108123000D01*
X146073000Y-107154750D01*
X145966250Y-107048000D01*
X145440065Y-107048000D01*
X145283124Y-107113007D01*
X145201805Y-107194326D01*
X145187073Y-107171433D01*
X145044381Y-107073936D01*
X144877000Y-107040040D01*
X144877000Y-106955000D01*
X144825466Y-106695923D01*
X144678711Y-106476289D01*
X144592889Y-106418944D01*
X144603567Y-106412073D01*
X144701064Y-106269381D01*
X144735365Y-106100000D01*
X144735365Y-103400000D01*
X144705591Y-103241763D01*
X144612073Y-103096433D01*
X144477000Y-103004142D01*
X144477000Y-102660708D01*
X144576858Y-102420222D01*
X144576933Y-102333750D01*
X147198000Y-102333750D01*
X147198000Y-102959936D01*
X147263007Y-103116876D01*
X147383124Y-103236993D01*
X147540065Y-103302000D01*
X148066250Y-103302000D01*
X148173000Y-103195250D01*
X148173000Y-102227000D01*
X147304750Y-102227000D01*
X147198000Y-102333750D01*
X144576933Y-102333750D01*
X144577145Y-102091221D01*
X144451507Y-101787154D01*
X144219072Y-101554312D01*
X143915224Y-101428144D01*
X143586223Y-101427857D01*
X143282156Y-101553495D01*
X143049314Y-101785930D01*
X142923146Y-102089778D01*
X142922859Y-102418779D01*
X143048497Y-102722846D01*
X143123000Y-102797479D01*
X143123000Y-103006483D01*
X142996433Y-103087927D01*
X142898936Y-103230619D01*
X142864635Y-103400000D01*
X135752000Y-103400000D01*
X135752000Y-101240064D01*
X147198000Y-101240064D01*
X147198000Y-101866250D01*
X147304750Y-101973000D01*
X148173000Y-101973000D01*
X148173000Y-101004750D01*
X148066250Y-100898000D01*
X147540065Y-100898000D01*
X147383124Y-100963007D01*
X147263007Y-101083124D01*
X147198000Y-101240064D01*
X135752000Y-101240064D01*
X135752000Y-100133750D01*
X146893000Y-100133750D01*
X146893000Y-100484936D01*
X146958007Y-100641876D01*
X147078124Y-100761993D01*
X147235065Y-100827000D01*
X147536250Y-100827000D01*
X147643000Y-100720250D01*
X147643000Y-100027000D01*
X146999750Y-100027000D01*
X146893000Y-100133750D01*
X135752000Y-100133750D01*
X135752000Y-95283750D01*
X145813000Y-95283750D01*
X145813000Y-95494935D01*
X145878007Y-95651876D01*
X145926131Y-95700000D01*
X145878007Y-95748124D01*
X145813000Y-95905065D01*
X145813000Y-96116250D01*
X145919750Y-96223000D01*
X146473000Y-96223000D01*
X146473000Y-95177000D01*
X145919750Y-95177000D01*
X145813000Y-95283750D01*
X135752000Y-95283750D01*
X135752000Y-90635065D01*
X153573000Y-90635065D01*
X153573000Y-90936250D01*
X153679750Y-91043000D01*
X154373000Y-91043000D01*
X154373000Y-90399750D01*
X154266250Y-90293000D01*
X153915064Y-90293000D01*
X153758124Y-90358007D01*
X153638007Y-90478124D01*
X153573000Y-90635065D01*
X135752000Y-90635065D01*
X135752000Y-89763779D01*
X145772857Y-89763779D01*
X145898495Y-90067846D01*
X146130930Y-90300688D01*
X146434778Y-90426856D01*
X146763779Y-90427143D01*
X147067846Y-90301505D01*
X147300688Y-90069070D01*
X147426856Y-89765222D01*
X147426857Y-89763779D01*
X149872857Y-89763779D01*
X149998495Y-90067846D01*
X150230930Y-90300688D01*
X150534778Y-90426856D01*
X150863779Y-90427143D01*
X151167846Y-90301505D01*
X151400688Y-90069070D01*
X151526856Y-89765222D01*
X151527143Y-89436221D01*
X151401505Y-89132154D01*
X151169070Y-88899312D01*
X150865222Y-88773144D01*
X150536221Y-88772857D01*
X150232154Y-88898495D01*
X149999312Y-89130930D01*
X149873144Y-89434778D01*
X149872857Y-89763779D01*
X147426857Y-89763779D01*
X147427143Y-89436221D01*
X147301505Y-89132154D01*
X147069070Y-88899312D01*
X146765222Y-88773144D01*
X146436221Y-88772857D01*
X146132154Y-88898495D01*
X145899312Y-89130930D01*
X145773144Y-89434778D01*
X145772857Y-89763779D01*
X135752000Y-89763779D01*
X135752000Y-83631034D01*
X136442787Y-84323028D01*
X137775380Y-84876369D01*
X139218290Y-84877628D01*
X140551846Y-84326614D01*
X141573028Y-83307213D01*
X141671527Y-83070000D01*
X143594635Y-83070000D01*
X143594635Y-84570000D01*
X143624409Y-84728237D01*
X143717927Y-84873567D01*
X143860619Y-84971064D01*
X144030000Y-85005365D01*
X145530000Y-85005365D01*
X145688237Y-84975591D01*
X145833567Y-84882073D01*
X145931064Y-84739381D01*
X145965365Y-84570000D01*
X145965365Y-84053093D01*
X146142796Y-84053093D01*
X146321606Y-84485846D01*
X146652412Y-84817230D01*
X147084853Y-84996795D01*
X147553093Y-84997204D01*
X147985846Y-84818394D01*
X148317230Y-84487588D01*
X148496795Y-84055147D01*
X148497204Y-83586907D01*
X148318394Y-83154154D01*
X147987588Y-82822770D01*
X147555147Y-82643205D01*
X147086907Y-82642796D01*
X146654154Y-82821606D01*
X146322770Y-83152412D01*
X146143205Y-83584853D01*
X146142796Y-84053093D01*
X145965365Y-84053093D01*
X145965365Y-83070000D01*
X145935591Y-82911763D01*
X145842073Y-82766433D01*
X145699381Y-82668936D01*
X145530000Y-82634635D01*
X144030000Y-82634635D01*
X143871763Y-82664409D01*
X143726433Y-82757927D01*
X143628936Y-82900619D01*
X143594635Y-83070000D01*
X141671527Y-83070000D01*
X142126369Y-81974620D01*
X142127628Y-80531710D01*
X142126922Y-80530000D01*
X143594635Y-80530000D01*
X143594635Y-82030000D01*
X143624409Y-82188237D01*
X143717927Y-82333567D01*
X143860619Y-82431064D01*
X144030000Y-82465365D01*
X145530000Y-82465365D01*
X145688237Y-82435591D01*
X145833567Y-82342073D01*
X145931064Y-82199381D01*
X145965365Y-82030000D01*
X145965365Y-80530000D01*
X145935591Y-80371763D01*
X145842073Y-80226433D01*
X145699381Y-80128936D01*
X145530000Y-80094635D01*
X144030000Y-80094635D01*
X143871763Y-80124409D01*
X143726433Y-80217927D01*
X143628936Y-80360619D01*
X143594635Y-80530000D01*
X142126922Y-80530000D01*
X141576614Y-79198154D01*
X140881674Y-78502000D01*
X161233299Y-78502000D01*
X161199310Y-78535930D01*
X161199310Y-78535930D01*
G37*
X161199310Y-78535930D02*
X161073142Y-78839778D01*
X161072941Y-79069653D01*
X160990017Y-79193757D01*
X160961494Y-79337154D01*
X160947999Y-79404999D01*
X160947999Y-84719999D01*
X160956878Y-84764635D01*
X160320000Y-84764635D01*
X160252001Y-84777430D01*
X160252001Y-84299330D01*
X160390323Y-84161008D01*
X160509982Y-83981927D01*
X160539140Y-83835335D01*
X160700688Y-83674070D01*
X160826856Y-83370222D01*
X160827143Y-83041221D01*
X160701505Y-82737154D01*
X160469070Y-82504312D01*
X160165222Y-82378144D01*
X159836221Y-82377857D01*
X159532154Y-82503495D01*
X159459064Y-82576457D01*
X159401505Y-82437154D01*
X159169070Y-82204312D01*
X158865222Y-82078144D01*
X158536221Y-82077857D01*
X158232154Y-82203495D01*
X157999312Y-82435930D01*
X157873144Y-82739778D01*
X157872857Y-83068779D01*
X157998495Y-83372846D01*
X158230930Y-83605688D01*
X158534778Y-83731856D01*
X158863779Y-83732143D01*
X159167846Y-83606505D01*
X159240936Y-83533543D01*
X159298495Y-83672846D01*
X159308202Y-83682570D01*
X159190019Y-83859442D01*
X159190019Y-83859443D01*
X159148001Y-84070684D01*
X159148001Y-85367355D01*
X155890323Y-82109677D01*
X155821155Y-82063460D01*
X155937230Y-81947588D01*
X156116795Y-81515147D01*
X156116796Y-81513093D01*
X156302796Y-81513093D01*
X156481606Y-81945846D01*
X156812412Y-82277230D01*
X157244853Y-82456795D01*
X157713093Y-82457204D01*
X158145846Y-82278394D01*
X158477230Y-81947588D01*
X158656795Y-81515147D01*
X158657204Y-81046907D01*
X158478394Y-80614154D01*
X158147588Y-80282770D01*
X157715147Y-80103205D01*
X157246907Y-80102796D01*
X156814154Y-80281606D01*
X156482770Y-80612412D01*
X156303205Y-81044853D01*
X156302796Y-81513093D01*
X156116796Y-81513093D01*
X156117204Y-81046907D01*
X155938394Y-80614154D01*
X155607588Y-80282770D01*
X155175147Y-80103205D01*
X154706907Y-80102796D01*
X154274154Y-80281606D01*
X153942770Y-80612412D01*
X153763205Y-81044853D01*
X153762796Y-81513093D01*
X153941606Y-81945846D01*
X153943756Y-81948000D01*
X153848646Y-81948000D01*
X153529556Y-81628910D01*
X153576795Y-81515147D01*
X153577204Y-81046907D01*
X153398394Y-80614154D01*
X153067588Y-80282770D01*
X152635147Y-80103205D01*
X152166907Y-80102796D01*
X151734154Y-80281606D01*
X151402770Y-80612412D01*
X151223205Y-81044853D01*
X151222796Y-81513093D01*
X151401606Y-81945846D01*
X151503582Y-82048000D01*
X150785622Y-82048000D01*
X150796615Y-82037007D01*
X150717657Y-81958049D01*
X150900065Y-81878671D01*
X151049996Y-81435084D01*
X151018761Y-80967887D01*
X150900065Y-80681329D01*
X150717655Y-80601950D01*
X150039605Y-81280000D01*
X150053748Y-81294143D01*
X149874143Y-81473748D01*
X149860000Y-81459605D01*
X149845858Y-81473748D01*
X149666253Y-81294143D01*
X149680395Y-81280000D01*
X149002345Y-80601950D01*
X148819935Y-80681329D01*
X148670004Y-81124916D01*
X148701239Y-81592113D01*
X148819935Y-81878671D01*
X149002343Y-81958049D01*
X148923385Y-82037007D01*
X148934378Y-82048000D01*
X148868646Y-82048000D01*
X148449556Y-81628910D01*
X148496795Y-81515147D01*
X148497204Y-81046907D01*
X148318394Y-80614154D01*
X148126920Y-80422345D01*
X149181950Y-80422345D01*
X149860000Y-81100395D01*
X150538050Y-80422345D01*
X150458671Y-80239935D01*
X150015084Y-80090004D01*
X149547887Y-80121239D01*
X149261329Y-80239935D01*
X149181950Y-80422345D01*
X148126920Y-80422345D01*
X147987588Y-80282770D01*
X147555147Y-80103205D01*
X147086907Y-80102796D01*
X146654154Y-80281606D01*
X146322770Y-80612412D01*
X146143205Y-81044853D01*
X146142796Y-81513093D01*
X146321606Y-81945846D01*
X146652412Y-82277230D01*
X147084853Y-82456795D01*
X147553093Y-82457204D01*
X147668764Y-82409410D01*
X148249677Y-82990323D01*
X148428758Y-83109982D01*
X148640000Y-83152000D01*
X148863183Y-83152000D01*
X148862770Y-83152412D01*
X148683205Y-83584853D01*
X148682796Y-84053093D01*
X148861606Y-84485846D01*
X149192412Y-84817230D01*
X149624853Y-84996795D01*
X150093093Y-84997204D01*
X150525846Y-84818394D01*
X150857230Y-84487588D01*
X151036795Y-84055147D01*
X151037204Y-83586907D01*
X150858394Y-83154154D01*
X150856244Y-83152000D01*
X151403183Y-83152000D01*
X151402770Y-83152412D01*
X151223205Y-83584853D01*
X151222796Y-84053093D01*
X151401606Y-84485846D01*
X151732412Y-84817230D01*
X152164853Y-84996795D01*
X152633093Y-84997204D01*
X153065846Y-84818394D01*
X153187229Y-84697222D01*
X153190018Y-84711242D01*
X153309677Y-84890323D01*
X153809677Y-85390323D01*
X153988758Y-85509982D01*
X154200000Y-85552000D01*
X157134944Y-85552000D01*
X157380927Y-85797983D01*
X157236221Y-85797857D01*
X156932154Y-85923495D01*
X156699312Y-86155930D01*
X156573144Y-86459778D01*
X156572857Y-86788779D01*
X156680264Y-87048723D01*
X156574120Y-87154681D01*
X156447952Y-87458529D01*
X156447767Y-87670146D01*
X155109677Y-89008236D01*
X154990018Y-89187317D01*
X154990018Y-89187318D01*
X154948000Y-89398559D01*
X154948000Y-90293000D01*
X154733750Y-90293000D01*
X154627000Y-90399750D01*
X154627000Y-91043000D01*
X154647000Y-91043000D01*
X154647000Y-91297000D01*
X154627000Y-91297000D01*
X154627000Y-91317000D01*
X154373000Y-91317000D01*
X154373000Y-91297000D01*
X153679750Y-91297000D01*
X153573000Y-91403750D01*
X153573000Y-91645467D01*
X153513869Y-91620914D01*
X153184868Y-91620627D01*
X152880801Y-91746265D01*
X152823358Y-91803608D01*
X152819070Y-91799312D01*
X152515222Y-91673144D01*
X152186221Y-91672857D01*
X151882154Y-91798495D01*
X151649312Y-92030930D01*
X151523144Y-92334778D01*
X151522857Y-92663779D01*
X151648495Y-92967846D01*
X151880930Y-93200688D01*
X152184778Y-93326856D01*
X152396395Y-93327041D01*
X152548000Y-93478646D01*
X152548000Y-93800000D01*
X152590018Y-94011242D01*
X152698000Y-94172847D01*
X152698000Y-94717354D01*
X152490334Y-94509688D01*
X152311253Y-94390029D01*
X152100011Y-94348011D01*
X150935365Y-94348011D01*
X150935365Y-94000000D01*
X150905591Y-93841763D01*
X150812073Y-93696433D01*
X150669381Y-93598936D01*
X150500000Y-93564635D01*
X147800000Y-93564635D01*
X147641763Y-93594409D01*
X147496433Y-93687927D01*
X147403941Y-93823295D01*
X147395365Y-93814719D01*
X147395365Y-93690000D01*
X147365591Y-93531763D01*
X147272073Y-93386433D01*
X147129381Y-93288936D01*
X146960000Y-93254635D01*
X146240000Y-93254635D01*
X146081763Y-93284409D01*
X145936433Y-93377927D01*
X145838936Y-93520619D01*
X145804635Y-93690000D01*
X145804635Y-94410000D01*
X145832487Y-94558020D01*
X145813000Y-94605065D01*
X145813000Y-94816250D01*
X145919750Y-94923000D01*
X146473000Y-94923000D01*
X146473000Y-94903000D01*
X146727000Y-94903000D01*
X146727000Y-94923000D01*
X146747000Y-94923000D01*
X146747000Y-95177000D01*
X146727000Y-95177000D01*
X146727000Y-96223000D01*
X146747000Y-96223000D01*
X146747000Y-96477000D01*
X146727000Y-96477000D01*
X146727000Y-96497000D01*
X146473000Y-96497000D01*
X146473000Y-96477000D01*
X145919750Y-96477000D01*
X145813000Y-96583750D01*
X145813000Y-96794935D01*
X145833913Y-96845423D01*
X145804635Y-96990000D01*
X145804635Y-97710000D01*
X145834409Y-97868237D01*
X145927927Y-98013567D01*
X146070619Y-98111064D01*
X146240000Y-98145365D01*
X146960000Y-98145365D01*
X147118237Y-98115591D01*
X147263567Y-98022073D01*
X147361064Y-97879381D01*
X147395365Y-97710000D01*
X147395365Y-97585281D01*
X147405372Y-97575274D01*
X147487927Y-97703567D01*
X147630619Y-97801064D01*
X147800000Y-97835365D01*
X150500000Y-97835365D01*
X150658237Y-97805591D01*
X150803567Y-97712073D01*
X150901064Y-97569381D01*
X150935365Y-97400000D01*
X150935365Y-97252000D01*
X150956135Y-97252000D01*
X151027927Y-97363567D01*
X151170619Y-97461064D01*
X151340000Y-97495365D01*
X151678989Y-97495365D01*
X151171354Y-98003000D01*
X150700000Y-98003000D01*
X150488758Y-98045018D01*
X150309677Y-98164677D01*
X150146353Y-98328001D01*
X146874999Y-98328001D01*
X146663757Y-98370019D01*
X146484676Y-98489678D01*
X146221355Y-98752999D01*
X145277133Y-98752999D01*
X145277143Y-98741221D01*
X145151505Y-98437154D01*
X144919070Y-98204312D01*
X144615222Y-98078144D01*
X144286221Y-98077857D01*
X143982154Y-98203495D01*
X143749312Y-98435930D01*
X143623144Y-98739778D01*
X143622857Y-99068779D01*
X143748495Y-99372846D01*
X143980930Y-99605688D01*
X144284778Y-99731856D01*
X144514653Y-99732057D01*
X144638757Y-99814981D01*
X144849999Y-99856999D01*
X146450001Y-99856999D01*
X146661243Y-99814981D01*
X146840324Y-99695322D01*
X146893000Y-99642646D01*
X146893000Y-99666250D01*
X146999750Y-99773000D01*
X147643000Y-99773000D01*
X147643000Y-99753000D01*
X147897000Y-99753000D01*
X147897000Y-99773000D01*
X147917000Y-99773000D01*
X147917000Y-100027000D01*
X147897000Y-100027000D01*
X147897000Y-100720250D01*
X148003750Y-100827000D01*
X148304935Y-100827000D01*
X148461876Y-100761993D01*
X148581993Y-100641876D01*
X148600100Y-100598162D01*
X148667927Y-100703567D01*
X148810619Y-100801064D01*
X148980000Y-100835365D01*
X149745066Y-100835365D01*
X149708804Y-100889635D01*
X149625000Y-100889635D01*
X149466763Y-100919409D01*
X149321433Y-101012927D01*
X149299255Y-101045386D01*
X149216876Y-100963007D01*
X149059935Y-100898000D01*
X148533750Y-100898000D01*
X148427000Y-101004750D01*
X148427000Y-101973000D01*
X148447000Y-101973000D01*
X148447000Y-102227000D01*
X148427000Y-102227000D01*
X148427000Y-103195250D01*
X148533750Y-103302000D01*
X149059935Y-103302000D01*
X149216876Y-103236993D01*
X149298195Y-103155674D01*
X149312927Y-103178567D01*
X149455619Y-103276064D01*
X149625000Y-103310365D01*
X150437212Y-103310365D01*
X150397942Y-103349635D01*
X149180000Y-103349635D01*
X149021763Y-103379409D01*
X148876433Y-103472927D01*
X148778936Y-103615619D01*
X148744635Y-103785000D01*
X148744635Y-103808000D01*
X146935365Y-103808000D01*
X146935365Y-103400000D01*
X146905591Y-103241763D01*
X146812073Y-103096433D01*
X146669381Y-102998936D01*
X146500000Y-102964635D01*
X145500000Y-102964635D01*
X145341763Y-102994409D01*
X145196433Y-103087927D01*
X145098936Y-103230619D01*
X145064635Y-103400000D01*
X145064635Y-106100000D01*
X145094409Y-106258237D01*
X145187927Y-106403567D01*
X145330619Y-106501064D01*
X145500000Y-106535365D01*
X146500000Y-106535365D01*
X146658237Y-106505591D01*
X146673003Y-106496089D01*
X146672857Y-106663779D01*
X146798495Y-106967846D01*
X146878509Y-107048000D01*
X146433750Y-107048000D01*
X146327000Y-107154750D01*
X146327000Y-108123000D01*
X147195250Y-108123000D01*
X147302000Y-108016250D01*
X147302000Y-107730065D01*
X148753000Y-107730065D01*
X148753000Y-108281250D01*
X148859750Y-108388000D01*
X149873000Y-108388000D01*
X149873000Y-107494750D01*
X150127000Y-107494750D01*
X150127000Y-108388000D01*
X151140250Y-108388000D01*
X151247000Y-108281250D01*
X151247000Y-107730065D01*
X151181993Y-107573124D01*
X151061876Y-107453007D01*
X150904936Y-107388000D01*
X150233750Y-107388000D01*
X150127000Y-107494750D01*
X149873000Y-107494750D01*
X149766250Y-107388000D01*
X149095064Y-107388000D01*
X148938124Y-107453007D01*
X148818007Y-107573124D01*
X148753000Y-107730065D01*
X147302000Y-107730065D01*
X147302000Y-107390064D01*
X147263571Y-107297288D01*
X147334778Y-107326856D01*
X147663779Y-107327143D01*
X147967846Y-107201505D01*
X148200688Y-106969070D01*
X148326856Y-106665222D01*
X148327143Y-106336221D01*
X148201505Y-106032154D01*
X147969070Y-105799312D01*
X147665222Y-105673144D01*
X147336221Y-105672857D01*
X147032154Y-105798495D01*
X146935365Y-105895115D01*
X146935365Y-105162000D01*
X148744635Y-105162000D01*
X148744635Y-105185000D01*
X148774409Y-105343237D01*
X148867927Y-105488567D01*
X149010619Y-105586064D01*
X149180000Y-105620365D01*
X150820000Y-105620365D01*
X150978237Y-105590591D01*
X151123567Y-105497073D01*
X151221064Y-105354381D01*
X151255365Y-105185000D01*
X151255365Y-104407057D01*
X151978711Y-103683712D01*
X152062550Y-103558237D01*
X152125466Y-103464077D01*
X152176602Y-103207000D01*
X152366250Y-103207000D01*
X152473000Y-103100250D01*
X152473000Y-102457000D01*
X152727000Y-102457000D01*
X152727000Y-103100250D01*
X152833750Y-103207000D01*
X153184936Y-103207000D01*
X153341876Y-103141993D01*
X153461993Y-103021876D01*
X153527000Y-102864935D01*
X153527000Y-102563750D01*
X153420250Y-102457000D01*
X152727000Y-102457000D01*
X152473000Y-102457000D01*
X152453000Y-102457000D01*
X152453000Y-102203000D01*
X152473000Y-102203000D01*
X152473000Y-102183000D01*
X152727000Y-102183000D01*
X152727000Y-102203000D01*
X153420250Y-102203000D01*
X153527000Y-102096250D01*
X153527000Y-101996751D01*
X153530930Y-102000688D01*
X153834778Y-102126856D01*
X154163779Y-102127143D01*
X154467846Y-102001505D01*
X154569974Y-101899555D01*
X154609677Y-101958974D01*
X154780172Y-102072895D01*
X154736221Y-102072857D01*
X154432154Y-102198495D01*
X154199312Y-102430930D01*
X154073144Y-102734778D01*
X154072857Y-103063779D01*
X154198495Y-103367846D01*
X154300106Y-103469635D01*
X153765000Y-103469635D01*
X153606763Y-103499409D01*
X153461433Y-103592927D01*
X153363936Y-103735619D01*
X153329635Y-103905000D01*
X153329635Y-104895000D01*
X153359409Y-105053237D01*
X153424954Y-105155096D01*
X153464534Y-105354077D01*
X153581840Y-105529638D01*
X153611289Y-105573711D01*
X153672886Y-105635308D01*
X153672857Y-105668779D01*
X153798495Y-105972846D01*
X154030930Y-106205688D01*
X154334778Y-106331856D01*
X154663779Y-106332143D01*
X154958000Y-106210573D01*
X154958000Y-107361354D01*
X154771983Y-107547371D01*
X154826856Y-107415222D01*
X154827143Y-107086221D01*
X154701505Y-106782154D01*
X154469070Y-106549312D01*
X154165222Y-106423144D01*
X153836221Y-106422857D01*
X153532154Y-106548495D01*
X153299312Y-106780930D01*
X153250034Y-106899604D01*
X153201505Y-106782154D01*
X152969070Y-106549312D01*
X152665222Y-106423144D01*
X152336221Y-106422857D01*
X152032154Y-106548495D01*
X151799312Y-106780930D01*
X151673144Y-107084778D01*
X151672857Y-107413779D01*
X151798495Y-107717846D01*
X152030930Y-107950688D01*
X152334778Y-108076856D01*
X152663779Y-108077143D01*
X152967846Y-107951505D01*
X153200688Y-107719070D01*
X153249966Y-107600396D01*
X153298495Y-107717846D01*
X153530930Y-107950688D01*
X153834778Y-108076856D01*
X154163779Y-108077143D01*
X154297438Y-108021916D01*
X152636366Y-109682988D01*
X151697599Y-109682988D01*
X151645147Y-109693421D01*
X151486358Y-109725006D01*
X151486357Y-109725007D01*
X151486356Y-109725007D01*
X151307275Y-109844666D01*
X151103942Y-110048000D01*
X149200000Y-110048000D01*
X148988758Y-110090018D01*
X148809677Y-110209677D01*
X148340991Y-110678363D01*
X148239381Y-110608936D01*
X148070000Y-110574635D01*
X146570000Y-110574635D01*
X146411763Y-110604409D01*
X146266433Y-110697927D01*
X146168936Y-110840619D01*
X146134635Y-111010000D01*
X146134635Y-112510000D01*
X146164409Y-112668237D01*
X146257927Y-112813567D01*
X146400619Y-112911064D01*
X146570000Y-112945365D01*
X148070000Y-112945365D01*
X148228237Y-112915591D01*
X148373567Y-112822073D01*
X148471064Y-112679381D01*
X148505365Y-112510000D01*
X148505365Y-112075281D01*
X148682879Y-111897767D01*
X148682796Y-111993093D01*
X148861606Y-112425846D01*
X149192412Y-112757230D01*
X149624853Y-112936795D01*
X150093093Y-112937204D01*
X150525846Y-112758394D01*
X150857230Y-112427588D01*
X150907821Y-112305752D01*
X151087652Y-112269982D01*
X151266733Y-112150323D01*
X151281614Y-112135442D01*
X151401606Y-112425846D01*
X151732412Y-112757230D01*
X152164853Y-112936795D01*
X152633093Y-112937204D01*
X153065846Y-112758394D01*
X153397230Y-112427588D01*
X153462317Y-112270842D01*
X153466640Y-112269982D01*
X153645721Y-112150323D01*
X153774537Y-112021507D01*
X153941606Y-112425846D01*
X154272412Y-112757230D01*
X154704853Y-112936795D01*
X155173093Y-112937204D01*
X155605846Y-112758394D01*
X155746830Y-112617655D01*
X156801950Y-112617655D01*
X156881329Y-112800065D01*
X157324916Y-112949996D01*
X157792113Y-112918761D01*
X158078671Y-112800065D01*
X158158050Y-112617655D01*
X157480000Y-111939605D01*
X156801950Y-112617655D01*
X155746830Y-112617655D01*
X155937230Y-112427588D01*
X156116795Y-111995147D01*
X156117135Y-111604916D01*
X156290004Y-111604916D01*
X156321239Y-112072113D01*
X156439935Y-112358671D01*
X156622345Y-112438050D01*
X157300395Y-111760000D01*
X157659605Y-111760000D01*
X158337655Y-112438050D01*
X158520065Y-112358671D01*
X158543698Y-112288750D01*
X159923000Y-112288750D01*
X159923000Y-112439936D01*
X159988007Y-112596876D01*
X160108124Y-112716993D01*
X160265065Y-112782000D01*
X160343250Y-112782000D01*
X160450000Y-112675250D01*
X160450000Y-112182000D01*
X160029750Y-112182000D01*
X159923000Y-112288750D01*
X158543698Y-112288750D01*
X158669996Y-111915084D01*
X158653615Y-111670064D01*
X159923000Y-111670064D01*
X159923000Y-111821250D01*
X160029750Y-111928000D01*
X160450000Y-111928000D01*
X160450000Y-111434750D01*
X160650000Y-111434750D01*
X160650000Y-111928000D01*
X160697000Y-111928000D01*
X160697000Y-112182000D01*
X160650000Y-112182000D01*
X160650000Y-112675250D01*
X160756750Y-112782000D01*
X160834935Y-112782000D01*
X160991876Y-112716993D01*
X161004687Y-112704182D01*
X161080619Y-112756064D01*
X161250000Y-112790365D01*
X161650000Y-112790365D01*
X161808237Y-112760591D01*
X161953567Y-112667073D01*
X161994613Y-112607000D01*
X162080952Y-112607000D01*
X162109409Y-112758237D01*
X162202927Y-112903567D01*
X162345619Y-113001064D01*
X162515000Y-113035365D01*
X163165000Y-113035365D01*
X163323237Y-113005591D01*
X163468567Y-112912073D01*
X163550880Y-112791604D01*
X163622927Y-112903567D01*
X163765619Y-113001064D01*
X163935000Y-113035365D01*
X164239719Y-113035365D01*
X164322822Y-113118468D01*
X164322778Y-113168779D01*
X164448416Y-113472846D01*
X164680851Y-113705688D01*
X164984699Y-113831856D01*
X165313700Y-113832143D01*
X165617767Y-113706505D01*
X165850609Y-113474070D01*
X165976777Y-113170222D01*
X165977064Y-112841221D01*
X165851426Y-112537154D01*
X165618991Y-112304312D01*
X165315143Y-112178144D01*
X165020365Y-112177887D01*
X165020365Y-111610000D01*
X164990591Y-111451763D01*
X164897073Y-111306433D01*
X164754381Y-111208936D01*
X164585000Y-111174635D01*
X163935000Y-111174635D01*
X163776763Y-111204409D01*
X163631433Y-111297927D01*
X163549120Y-111418396D01*
X163477073Y-111306433D01*
X163334381Y-111208936D01*
X163165000Y-111174635D01*
X162515000Y-111174635D01*
X162356763Y-111204409D01*
X162211433Y-111297927D01*
X162113936Y-111440619D01*
X162101303Y-111503000D01*
X161995256Y-111503000D01*
X161962073Y-111451433D01*
X161819381Y-111353936D01*
X161650000Y-111319635D01*
X161250000Y-111319635D01*
X161091763Y-111349409D01*
X161004458Y-111405589D01*
X160991876Y-111393007D01*
X160834935Y-111328000D01*
X160756750Y-111328000D01*
X160650000Y-111434750D01*
X160450000Y-111434750D01*
X160343250Y-111328000D01*
X160265065Y-111328000D01*
X160108124Y-111393007D01*
X159988007Y-111513124D01*
X159923000Y-111670064D01*
X158653615Y-111670064D01*
X158638761Y-111447887D01*
X158520065Y-111161329D01*
X158337655Y-111081950D01*
X157659605Y-111760000D01*
X157300395Y-111760000D01*
X156622345Y-111081950D01*
X156439935Y-111161329D01*
X156290004Y-111604916D01*
X156117135Y-111604916D01*
X156117204Y-111526907D01*
X156069410Y-111411236D01*
X156578301Y-110902345D01*
X156801950Y-110902345D01*
X157480000Y-111580395D01*
X158158050Y-110902345D01*
X158078671Y-110719935D01*
X157635084Y-110570004D01*
X157167887Y-110601239D01*
X156881329Y-110719935D01*
X156801950Y-110902345D01*
X156578301Y-110902345D01*
X157890323Y-109590323D01*
X158009982Y-109411242D01*
X158052000Y-109200000D01*
X158052000Y-108620064D01*
X158223000Y-108620064D01*
X158223000Y-108771250D01*
X158329750Y-108878000D01*
X158750000Y-108878000D01*
X158750000Y-108384750D01*
X158643250Y-108278000D01*
X158565065Y-108278000D01*
X158408124Y-108343007D01*
X158288007Y-108463124D01*
X158223000Y-108620064D01*
X158052000Y-108620064D01*
X158052000Y-106937646D01*
X159036073Y-107921719D01*
X159215154Y-108041378D01*
X159426396Y-108083396D01*
X159776425Y-108083396D01*
X159924853Y-108232084D01*
X160077437Y-108295442D01*
X159950000Y-108269635D01*
X159550000Y-108269635D01*
X159391763Y-108299409D01*
X159304458Y-108355589D01*
X159291876Y-108343007D01*
X159134935Y-108278000D01*
X159056750Y-108278000D01*
X158950000Y-108384750D01*
X158950000Y-108878000D01*
X158997000Y-108878000D01*
X158997000Y-109132000D01*
X158950000Y-109132000D01*
X158950000Y-109152000D01*
X158750000Y-109152000D01*
X158750000Y-109132000D01*
X158329750Y-109132000D01*
X158223000Y-109238750D01*
X158223000Y-109389936D01*
X158288007Y-109546876D01*
X158408124Y-109666993D01*
X158565065Y-109732000D01*
X158643250Y-109732000D01*
X158722998Y-109652252D01*
X158722998Y-109707635D01*
X158499312Y-109930930D01*
X158373144Y-110234778D01*
X158372857Y-110563779D01*
X158498495Y-110867846D01*
X158730930Y-111100688D01*
X159034778Y-111226856D01*
X159363779Y-111227143D01*
X159667846Y-111101505D01*
X159900688Y-110869070D01*
X160026856Y-110565222D01*
X160027143Y-110236221D01*
X159901505Y-109932154D01*
X159710051Y-109740365D01*
X159950000Y-109740365D01*
X160108237Y-109710591D01*
X160253567Y-109617073D01*
X160294613Y-109557000D01*
X160379635Y-109557000D01*
X160379635Y-109600000D01*
X160409409Y-109758237D01*
X160502927Y-109903567D01*
X160645619Y-110001064D01*
X160815000Y-110035365D01*
X161465000Y-110035365D01*
X161623237Y-110005591D01*
X161768567Y-109912073D01*
X161850880Y-109791604D01*
X161922927Y-109903567D01*
X162065619Y-110001064D01*
X162235000Y-110035365D01*
X162885000Y-110035365D01*
X163043237Y-110005591D01*
X163188567Y-109912073D01*
X163286064Y-109769381D01*
X163320365Y-109600000D01*
X163320365Y-108610000D01*
X163290591Y-108451763D01*
X163197073Y-108306433D01*
X163112000Y-108248305D01*
X163112000Y-106162428D01*
X163300688Y-105974070D01*
X163426856Y-105670222D01*
X163427143Y-105341221D01*
X163417099Y-105316912D01*
X163568270Y-105468348D01*
X163872118Y-105594516D01*
X164201119Y-105594803D01*
X164505186Y-105469165D01*
X164738028Y-105236730D01*
X164764635Y-105172653D01*
X164764635Y-105705000D01*
X164794409Y-105863237D01*
X164887927Y-106008567D01*
X165030619Y-106106064D01*
X165200000Y-106140365D01*
X165800000Y-106140365D01*
X165958237Y-106110591D01*
X166103567Y-106017073D01*
X166201064Y-105874381D01*
X166221207Y-105774915D01*
X166340323Y-105695323D01*
X166478646Y-105557000D01*
X166790360Y-105557000D01*
X166809409Y-105658237D01*
X166902927Y-105803567D01*
X167045619Y-105901064D01*
X167215000Y-105935365D01*
X167865000Y-105935365D01*
X168023237Y-105905591D01*
X168168567Y-105812073D01*
X168250880Y-105691604D01*
X168322927Y-105803567D01*
X168408000Y-105861695D01*
X168408000Y-106148657D01*
X168331433Y-106197927D01*
X168249120Y-106318396D01*
X168177073Y-106206433D01*
X168034381Y-106108936D01*
X167865000Y-106074635D01*
X167215000Y-106074635D01*
X167056763Y-106104409D01*
X166911433Y-106197927D01*
X166813936Y-106340619D01*
X166791178Y-106453000D01*
X166750000Y-106453000D01*
X166538759Y-106495018D01*
X166435886Y-106563756D01*
X166359677Y-106614677D01*
X166029405Y-106944949D01*
X165969381Y-106903936D01*
X165800000Y-106869635D01*
X165200000Y-106869635D01*
X165041763Y-106899409D01*
X164896433Y-106992927D01*
X164798936Y-107135619D01*
X164764635Y-107305000D01*
X164764635Y-108105000D01*
X164794409Y-108263237D01*
X164887927Y-108408567D01*
X165030619Y-108506064D01*
X165200000Y-108540365D01*
X165800000Y-108540365D01*
X165958237Y-108510591D01*
X166103567Y-108417073D01*
X166201064Y-108274381D01*
X166211072Y-108224961D01*
X166261242Y-108214982D01*
X166440323Y-108095323D01*
X166836034Y-107699612D01*
X166902927Y-107803567D01*
X167045619Y-107901064D01*
X167215000Y-107935365D01*
X167865000Y-107935365D01*
X168023237Y-107905591D01*
X168168567Y-107812073D01*
X168250880Y-107691604D01*
X168322927Y-107803567D01*
X168465619Y-107901064D01*
X168635000Y-107935365D01*
X168939719Y-107935365D01*
X169399677Y-108395323D01*
X169578759Y-108514982D01*
X169718256Y-108542729D01*
X169880930Y-108705688D01*
X170184778Y-108831856D01*
X170513779Y-108832143D01*
X170817846Y-108706505D01*
X170873000Y-108651447D01*
X170873000Y-111755000D01*
X170883006Y-111804410D01*
X170911447Y-111846035D01*
X170943204Y-111868592D01*
X172873000Y-112833490D01*
X172873000Y-115499237D01*
X140876589Y-115502437D01*
X141573028Y-114807213D01*
X142126369Y-113474620D01*
X142127628Y-112031710D01*
X141576614Y-110698154D01*
X140557213Y-109676972D01*
X139224620Y-109123631D01*
X137781710Y-109122372D01*
X136448154Y-109673386D01*
X135752000Y-110368326D01*
X135752000Y-103400000D01*
X142864635Y-103400000D01*
X142864635Y-106100000D01*
X142894409Y-106258237D01*
X142987927Y-106403567D01*
X143123000Y-106495858D01*
X143123000Y-106600000D01*
X143174534Y-106859077D01*
X143310341Y-107062326D01*
X143321289Y-107078711D01*
X143333434Y-107090856D01*
X143221433Y-107162927D01*
X143123936Y-107305619D01*
X143089635Y-107475000D01*
X143089635Y-109025000D01*
X143119409Y-109183237D01*
X143212927Y-109328567D01*
X143355619Y-109426064D01*
X143525000Y-109460365D01*
X143573000Y-109460365D01*
X143573000Y-109762283D01*
X143549312Y-109785930D01*
X143423144Y-110089778D01*
X143422857Y-110418779D01*
X143548495Y-110722846D01*
X143780930Y-110955688D01*
X144084778Y-111081856D01*
X144413779Y-111082143D01*
X144717846Y-110956505D01*
X144950688Y-110724070D01*
X145076856Y-110420222D01*
X145077143Y-110091221D01*
X144951505Y-109787154D01*
X144927000Y-109762606D01*
X144927000Y-109450581D01*
X145033237Y-109430591D01*
X145178567Y-109337073D01*
X145200745Y-109304614D01*
X145283124Y-109386993D01*
X145440065Y-109452000D01*
X145966250Y-109452000D01*
X146073000Y-109345250D01*
X146073000Y-108377000D01*
X146327000Y-108377000D01*
X146327000Y-109345250D01*
X146433750Y-109452000D01*
X146959935Y-109452000D01*
X147116876Y-109386993D01*
X147236993Y-109266876D01*
X147302000Y-109109936D01*
X147302000Y-108748750D01*
X148753000Y-108748750D01*
X148753000Y-109299935D01*
X148818007Y-109456876D01*
X148938124Y-109576993D01*
X149095064Y-109642000D01*
X149766250Y-109642000D01*
X149873000Y-109535250D01*
X149873000Y-108642000D01*
X150127000Y-108642000D01*
X150127000Y-109535250D01*
X150233750Y-109642000D01*
X150904936Y-109642000D01*
X151061876Y-109576993D01*
X151181993Y-109456876D01*
X151247000Y-109299935D01*
X151247000Y-108748750D01*
X151140250Y-108642000D01*
X150127000Y-108642000D01*
X149873000Y-108642000D01*
X148859750Y-108642000D01*
X148753000Y-108748750D01*
X147302000Y-108748750D01*
X147302000Y-108483750D01*
X147195250Y-108377000D01*
X146327000Y-108377000D01*
X146073000Y-108377000D01*
X146053000Y-108377000D01*
X146053000Y-108123000D01*
X146073000Y-108123000D01*
X146073000Y-107154750D01*
X145966250Y-107048000D01*
X145440065Y-107048000D01*
X145283124Y-107113007D01*
X145201805Y-107194326D01*
X145187073Y-107171433D01*
X145044381Y-107073936D01*
X144877000Y-107040040D01*
X144877000Y-106955000D01*
X144825466Y-106695923D01*
X144678711Y-106476289D01*
X144592889Y-106418944D01*
X144603567Y-106412073D01*
X144701064Y-106269381D01*
X144735365Y-106100000D01*
X144735365Y-103400000D01*
X144705591Y-103241763D01*
X144612073Y-103096433D01*
X144477000Y-103004142D01*
X144477000Y-102660708D01*
X144576858Y-102420222D01*
X144576933Y-102333750D01*
X147198000Y-102333750D01*
X147198000Y-102959936D01*
X147263007Y-103116876D01*
X147383124Y-103236993D01*
X147540065Y-103302000D01*
X148066250Y-103302000D01*
X148173000Y-103195250D01*
X148173000Y-102227000D01*
X147304750Y-102227000D01*
X147198000Y-102333750D01*
X144576933Y-102333750D01*
X144577145Y-102091221D01*
X144451507Y-101787154D01*
X144219072Y-101554312D01*
X143915224Y-101428144D01*
X143586223Y-101427857D01*
X143282156Y-101553495D01*
X143049314Y-101785930D01*
X142923146Y-102089778D01*
X142922859Y-102418779D01*
X143048497Y-102722846D01*
X143123000Y-102797479D01*
X143123000Y-103006483D01*
X142996433Y-103087927D01*
X142898936Y-103230619D01*
X142864635Y-103400000D01*
X135752000Y-103400000D01*
X135752000Y-101240064D01*
X147198000Y-101240064D01*
X147198000Y-101866250D01*
X147304750Y-101973000D01*
X148173000Y-101973000D01*
X148173000Y-101004750D01*
X148066250Y-100898000D01*
X147540065Y-100898000D01*
X147383124Y-100963007D01*
X147263007Y-101083124D01*
X147198000Y-101240064D01*
X135752000Y-101240064D01*
X135752000Y-100133750D01*
X146893000Y-100133750D01*
X146893000Y-100484936D01*
X146958007Y-100641876D01*
X147078124Y-100761993D01*
X147235065Y-100827000D01*
X147536250Y-100827000D01*
X147643000Y-100720250D01*
X147643000Y-100027000D01*
X146999750Y-100027000D01*
X146893000Y-100133750D01*
X135752000Y-100133750D01*
X135752000Y-95283750D01*
X145813000Y-95283750D01*
X145813000Y-95494935D01*
X145878007Y-95651876D01*
X145926131Y-95700000D01*
X145878007Y-95748124D01*
X145813000Y-95905065D01*
X145813000Y-96116250D01*
X145919750Y-96223000D01*
X146473000Y-96223000D01*
X146473000Y-95177000D01*
X145919750Y-95177000D01*
X145813000Y-95283750D01*
X135752000Y-95283750D01*
X135752000Y-90635065D01*
X153573000Y-90635065D01*
X153573000Y-90936250D01*
X153679750Y-91043000D01*
X154373000Y-91043000D01*
X154373000Y-90399750D01*
X154266250Y-90293000D01*
X153915064Y-90293000D01*
X153758124Y-90358007D01*
X153638007Y-90478124D01*
X153573000Y-90635065D01*
X135752000Y-90635065D01*
X135752000Y-89763779D01*
X145772857Y-89763779D01*
X145898495Y-90067846D01*
X146130930Y-90300688D01*
X146434778Y-90426856D01*
X146763779Y-90427143D01*
X147067846Y-90301505D01*
X147300688Y-90069070D01*
X147426856Y-89765222D01*
X147426857Y-89763779D01*
X149872857Y-89763779D01*
X149998495Y-90067846D01*
X150230930Y-90300688D01*
X150534778Y-90426856D01*
X150863779Y-90427143D01*
X151167846Y-90301505D01*
X151400688Y-90069070D01*
X151526856Y-89765222D01*
X151527143Y-89436221D01*
X151401505Y-89132154D01*
X151169070Y-88899312D01*
X150865222Y-88773144D01*
X150536221Y-88772857D01*
X150232154Y-88898495D01*
X149999312Y-89130930D01*
X149873144Y-89434778D01*
X149872857Y-89763779D01*
X147426857Y-89763779D01*
X147427143Y-89436221D01*
X147301505Y-89132154D01*
X147069070Y-88899312D01*
X146765222Y-88773144D01*
X146436221Y-88772857D01*
X146132154Y-88898495D01*
X145899312Y-89130930D01*
X145773144Y-89434778D01*
X145772857Y-89763779D01*
X135752000Y-89763779D01*
X135752000Y-83631034D01*
X136442787Y-84323028D01*
X137775380Y-84876369D01*
X139218290Y-84877628D01*
X140551846Y-84326614D01*
X141573028Y-83307213D01*
X141671527Y-83070000D01*
X143594635Y-83070000D01*
X143594635Y-84570000D01*
X143624409Y-84728237D01*
X143717927Y-84873567D01*
X143860619Y-84971064D01*
X144030000Y-85005365D01*
X145530000Y-85005365D01*
X145688237Y-84975591D01*
X145833567Y-84882073D01*
X145931064Y-84739381D01*
X145965365Y-84570000D01*
X145965365Y-84053093D01*
X146142796Y-84053093D01*
X146321606Y-84485846D01*
X146652412Y-84817230D01*
X147084853Y-84996795D01*
X147553093Y-84997204D01*
X147985846Y-84818394D01*
X148317230Y-84487588D01*
X148496795Y-84055147D01*
X148497204Y-83586907D01*
X148318394Y-83154154D01*
X147987588Y-82822770D01*
X147555147Y-82643205D01*
X147086907Y-82642796D01*
X146654154Y-82821606D01*
X146322770Y-83152412D01*
X146143205Y-83584853D01*
X146142796Y-84053093D01*
X145965365Y-84053093D01*
X145965365Y-83070000D01*
X145935591Y-82911763D01*
X145842073Y-82766433D01*
X145699381Y-82668936D01*
X145530000Y-82634635D01*
X144030000Y-82634635D01*
X143871763Y-82664409D01*
X143726433Y-82757927D01*
X143628936Y-82900619D01*
X143594635Y-83070000D01*
X141671527Y-83070000D01*
X142126369Y-81974620D01*
X142127628Y-80531710D01*
X142126922Y-80530000D01*
X143594635Y-80530000D01*
X143594635Y-82030000D01*
X143624409Y-82188237D01*
X143717927Y-82333567D01*
X143860619Y-82431064D01*
X144030000Y-82465365D01*
X145530000Y-82465365D01*
X145688237Y-82435591D01*
X145833567Y-82342073D01*
X145931064Y-82199381D01*
X145965365Y-82030000D01*
X145965365Y-80530000D01*
X145935591Y-80371763D01*
X145842073Y-80226433D01*
X145699381Y-80128936D01*
X145530000Y-80094635D01*
X144030000Y-80094635D01*
X143871763Y-80124409D01*
X143726433Y-80217927D01*
X143628936Y-80360619D01*
X143594635Y-80530000D01*
X142126922Y-80530000D01*
X141576614Y-79198154D01*
X140881674Y-78502000D01*
X161233299Y-78502000D01*
X161199310Y-78535930D01*
G36*
X171623000Y-81942756D02*
X170922196Y-82485964D01*
X170889273Y-82524143D01*
X170873000Y-82586341D01*
X170873000Y-84628000D01*
X168500000Y-84628000D01*
X168452211Y-84637334D01*
X168410197Y-84665197D01*
X164160197Y-88915197D01*
X164133006Y-88955590D01*
X164123000Y-89005000D01*
X164123000Y-89505000D01*
X164132334Y-89552789D01*
X164160197Y-89594803D01*
X164410197Y-89844803D01*
X164450590Y-89871994D01*
X164500000Y-89882000D01*
X165250000Y-89882000D01*
X165297789Y-89872666D01*
X165339803Y-89844803D01*
X167015827Y-88168779D01*
X169172857Y-88168779D01*
X169298495Y-88472846D01*
X169530930Y-88705688D01*
X169834778Y-88831856D01*
X170163779Y-88832143D01*
X170467846Y-88706505D01*
X170700688Y-88474070D01*
X170826856Y-88170222D01*
X170827143Y-87841221D01*
X170701505Y-87537154D01*
X170469070Y-87304312D01*
X170165222Y-87178144D01*
X169836221Y-87177857D01*
X169532154Y-87303495D01*
X169299312Y-87535930D01*
X169173144Y-87839778D01*
X169172857Y-88168779D01*
X167015827Y-88168779D01*
X168802606Y-86382000D01*
X170873000Y-86382000D01*
X170873000Y-100255000D01*
X170883006Y-100304410D01*
X170910197Y-100344803D01*
X171373000Y-100807606D01*
X171373000Y-104202394D01*
X170910197Y-104665197D01*
X170882334Y-104707211D01*
X170873000Y-104755000D01*
X170873000Y-106450842D01*
X170712927Y-106290489D01*
X170409079Y-106164321D01*
X170080078Y-106164034D01*
X169776011Y-106289672D01*
X169694263Y-106371277D01*
X169690591Y-106351763D01*
X169597073Y-106206433D01*
X169512000Y-106148305D01*
X169512000Y-105861343D01*
X169588567Y-105812073D01*
X169686064Y-105669381D01*
X169720365Y-105500000D01*
X169720365Y-104510000D01*
X169690591Y-104351763D01*
X169597073Y-104206433D01*
X169454381Y-104108936D01*
X169285000Y-104074635D01*
X168635000Y-104074635D01*
X168476763Y-104104409D01*
X168331433Y-104197927D01*
X168249120Y-104318396D01*
X168177073Y-104206433D01*
X168034381Y-104108936D01*
X167865000Y-104074635D01*
X167215000Y-104074635D01*
X167056763Y-104104409D01*
X166911433Y-104197927D01*
X166813936Y-104340619D01*
X166791178Y-104453000D01*
X166250000Y-104453000D01*
X166044212Y-104493933D01*
X166009982Y-104321846D01*
X165890323Y-104142765D01*
X163464664Y-101717106D01*
X163503567Y-101692073D01*
X163601064Y-101549381D01*
X163635365Y-101380000D01*
X163635365Y-100480000D01*
X163605591Y-100321763D01*
X163512073Y-100176433D01*
X163399141Y-100099270D01*
X163503567Y-100032073D01*
X163601064Y-99889381D01*
X163635365Y-99720000D01*
X163635365Y-98927000D01*
X166641354Y-98927000D01*
X166764635Y-99050281D01*
X166764635Y-99505000D01*
X166794409Y-99663237D01*
X166887927Y-99808567D01*
X167030619Y-99906064D01*
X167200000Y-99940365D01*
X167800000Y-99940365D01*
X167958237Y-99910591D01*
X168103567Y-99817073D01*
X168201064Y-99674381D01*
X168235365Y-99505000D01*
X168235365Y-98705000D01*
X168205591Y-98546763D01*
X168199049Y-98536597D01*
X168515324Y-98220322D01*
X168634983Y-98041241D01*
X168677001Y-97829999D01*
X168677001Y-97516345D01*
X168834770Y-97581856D01*
X169163771Y-97582143D01*
X169467838Y-97456505D01*
X169700680Y-97224070D01*
X169826848Y-96920222D01*
X169827135Y-96591221D01*
X169701497Y-96287154D01*
X169531355Y-96116714D01*
X169538567Y-96112073D01*
X169636064Y-95969381D01*
X169670365Y-95800000D01*
X169670365Y-95763586D01*
X169834778Y-95831856D01*
X170163779Y-95832143D01*
X170467846Y-95706505D01*
X170700688Y-95474070D01*
X170826856Y-95170222D01*
X170827143Y-94841221D01*
X170701505Y-94537154D01*
X170469070Y-94304312D01*
X170165222Y-94178144D01*
X169836221Y-94177857D01*
X169648927Y-94255246D01*
X169680365Y-94100000D01*
X169680365Y-93110000D01*
X169650591Y-92951763D01*
X169557073Y-92806433D01*
X169414381Y-92708936D01*
X169245000Y-92674635D01*
X168595000Y-92674635D01*
X168436763Y-92704409D01*
X168291433Y-92797927D01*
X168209120Y-92918396D01*
X168137073Y-92806433D01*
X167994381Y-92708936D01*
X167825000Y-92674635D01*
X167175000Y-92674635D01*
X167016763Y-92704409D01*
X166871433Y-92797927D01*
X166785718Y-92923375D01*
X166726416Y-92779853D01*
X166493981Y-92547011D01*
X166190133Y-92420843D01*
X165861132Y-92420556D01*
X165557065Y-92546194D01*
X165516308Y-92586879D01*
X165494124Y-92564656D01*
X165190276Y-92438488D01*
X164861275Y-92438201D01*
X164819732Y-92455366D01*
X164810026Y-92406568D01*
X164690367Y-92227487D01*
X163479167Y-91016287D01*
X163504734Y-91016309D01*
X163808801Y-90890671D01*
X164041643Y-90658236D01*
X164167811Y-90354388D01*
X164168098Y-90025387D01*
X164042460Y-89721320D01*
X163810025Y-89488478D01*
X163506177Y-89362310D01*
X163177176Y-89362023D01*
X162873109Y-89487661D01*
X162640267Y-89720096D01*
X162527000Y-89992875D01*
X162527000Y-87918648D01*
X163605323Y-86840325D01*
X163724982Y-86661244D01*
X163767000Y-86450002D01*
X163767000Y-85491734D01*
X163780930Y-85505688D01*
X164084778Y-85631856D01*
X164413779Y-85632143D01*
X164717846Y-85506505D01*
X164950688Y-85274070D01*
X165076856Y-84970222D01*
X165077143Y-84641221D01*
X164951505Y-84337154D01*
X164944728Y-84330365D01*
X165535000Y-84330365D01*
X165693237Y-84300591D01*
X165838567Y-84207073D01*
X165936064Y-84064381D01*
X165970365Y-83895000D01*
X165970365Y-82905000D01*
X165940591Y-82746763D01*
X165847073Y-82601433D01*
X165771827Y-82550020D01*
X165838567Y-82507073D01*
X165936064Y-82364381D01*
X165970365Y-82195000D01*
X165970365Y-81205000D01*
X165940591Y-81046763D01*
X165847073Y-80901433D01*
X165704381Y-80803936D01*
X165535000Y-80769635D01*
X165230281Y-80769635D01*
X164710672Y-80250026D01*
X164826856Y-79970222D01*
X164827143Y-79641221D01*
X164701505Y-79337154D01*
X164469070Y-79104312D01*
X164165222Y-78978144D01*
X163836221Y-78977857D01*
X163685393Y-79040178D01*
X163601505Y-78837154D01*
X163369070Y-78604312D01*
X163122674Y-78502000D01*
X171623000Y-78502000D01*
X171623000Y-81942756D01*
X171623000Y-81942756D01*
G37*
X171623000Y-81942756D02*
X170922196Y-82485964D01*
X170889273Y-82524143D01*
X170873000Y-82586341D01*
X170873000Y-84628000D01*
X168500000Y-84628000D01*
X168452211Y-84637334D01*
X168410197Y-84665197D01*
X164160197Y-88915197D01*
X164133006Y-88955590D01*
X164123000Y-89005000D01*
X164123000Y-89505000D01*
X164132334Y-89552789D01*
X164160197Y-89594803D01*
X164410197Y-89844803D01*
X164450590Y-89871994D01*
X164500000Y-89882000D01*
X165250000Y-89882000D01*
X165297789Y-89872666D01*
X165339803Y-89844803D01*
X167015827Y-88168779D01*
X169172857Y-88168779D01*
X169298495Y-88472846D01*
X169530930Y-88705688D01*
X169834778Y-88831856D01*
X170163779Y-88832143D01*
X170467846Y-88706505D01*
X170700688Y-88474070D01*
X170826856Y-88170222D01*
X170827143Y-87841221D01*
X170701505Y-87537154D01*
X170469070Y-87304312D01*
X170165222Y-87178144D01*
X169836221Y-87177857D01*
X169532154Y-87303495D01*
X169299312Y-87535930D01*
X169173144Y-87839778D01*
X169172857Y-88168779D01*
X167015827Y-88168779D01*
X168802606Y-86382000D01*
X170873000Y-86382000D01*
X170873000Y-100255000D01*
X170883006Y-100304410D01*
X170910197Y-100344803D01*
X171373000Y-100807606D01*
X171373000Y-104202394D01*
X170910197Y-104665197D01*
X170882334Y-104707211D01*
X170873000Y-104755000D01*
X170873000Y-106450842D01*
X170712927Y-106290489D01*
X170409079Y-106164321D01*
X170080078Y-106164034D01*
X169776011Y-106289672D01*
X169694263Y-106371277D01*
X169690591Y-106351763D01*
X169597073Y-106206433D01*
X169512000Y-106148305D01*
X169512000Y-105861343D01*
X169588567Y-105812073D01*
X169686064Y-105669381D01*
X169720365Y-105500000D01*
X169720365Y-104510000D01*
X169690591Y-104351763D01*
X169597073Y-104206433D01*
X169454381Y-104108936D01*
X169285000Y-104074635D01*
X168635000Y-104074635D01*
X168476763Y-104104409D01*
X168331433Y-104197927D01*
X168249120Y-104318396D01*
X168177073Y-104206433D01*
X168034381Y-104108936D01*
X167865000Y-104074635D01*
X167215000Y-104074635D01*
X167056763Y-104104409D01*
X166911433Y-104197927D01*
X166813936Y-104340619D01*
X166791178Y-104453000D01*
X166250000Y-104453000D01*
X166044212Y-104493933D01*
X166009982Y-104321846D01*
X165890323Y-104142765D01*
X163464664Y-101717106D01*
X163503567Y-101692073D01*
X163601064Y-101549381D01*
X163635365Y-101380000D01*
X163635365Y-100480000D01*
X163605591Y-100321763D01*
X163512073Y-100176433D01*
X163399141Y-100099270D01*
X163503567Y-100032073D01*
X163601064Y-99889381D01*
X163635365Y-99720000D01*
X163635365Y-98927000D01*
X166641354Y-98927000D01*
X166764635Y-99050281D01*
X166764635Y-99505000D01*
X166794409Y-99663237D01*
X166887927Y-99808567D01*
X167030619Y-99906064D01*
X167200000Y-99940365D01*
X167800000Y-99940365D01*
X167958237Y-99910591D01*
X168103567Y-99817073D01*
X168201064Y-99674381D01*
X168235365Y-99505000D01*
X168235365Y-98705000D01*
X168205591Y-98546763D01*
X168199049Y-98536597D01*
X168515324Y-98220322D01*
X168634983Y-98041241D01*
X168677001Y-97829999D01*
X168677001Y-97516345D01*
X168834770Y-97581856D01*
X169163771Y-97582143D01*
X169467838Y-97456505D01*
X169700680Y-97224070D01*
X169826848Y-96920222D01*
X169827135Y-96591221D01*
X169701497Y-96287154D01*
X169531355Y-96116714D01*
X169538567Y-96112073D01*
X169636064Y-95969381D01*
X169670365Y-95800000D01*
X169670365Y-95763586D01*
X169834778Y-95831856D01*
X170163779Y-95832143D01*
X170467846Y-95706505D01*
X170700688Y-95474070D01*
X170826856Y-95170222D01*
X170827143Y-94841221D01*
X170701505Y-94537154D01*
X170469070Y-94304312D01*
X170165222Y-94178144D01*
X169836221Y-94177857D01*
X169648927Y-94255246D01*
X169680365Y-94100000D01*
X169680365Y-93110000D01*
X169650591Y-92951763D01*
X169557073Y-92806433D01*
X169414381Y-92708936D01*
X169245000Y-92674635D01*
X168595000Y-92674635D01*
X168436763Y-92704409D01*
X168291433Y-92797927D01*
X168209120Y-92918396D01*
X168137073Y-92806433D01*
X167994381Y-92708936D01*
X167825000Y-92674635D01*
X167175000Y-92674635D01*
X167016763Y-92704409D01*
X166871433Y-92797927D01*
X166785718Y-92923375D01*
X166726416Y-92779853D01*
X166493981Y-92547011D01*
X166190133Y-92420843D01*
X165861132Y-92420556D01*
X165557065Y-92546194D01*
X165516308Y-92586879D01*
X165494124Y-92564656D01*
X165190276Y-92438488D01*
X164861275Y-92438201D01*
X164819732Y-92455366D01*
X164810026Y-92406568D01*
X164690367Y-92227487D01*
X163479167Y-91016287D01*
X163504734Y-91016309D01*
X163808801Y-90890671D01*
X164041643Y-90658236D01*
X164167811Y-90354388D01*
X164168098Y-90025387D01*
X164042460Y-89721320D01*
X163810025Y-89488478D01*
X163506177Y-89362310D01*
X163177176Y-89362023D01*
X162873109Y-89487661D01*
X162640267Y-89720096D01*
X162527000Y-89992875D01*
X162527000Y-87918648D01*
X163605323Y-86840325D01*
X163724982Y-86661244D01*
X163767000Y-86450002D01*
X163767000Y-85491734D01*
X163780930Y-85505688D01*
X164084778Y-85631856D01*
X164413779Y-85632143D01*
X164717846Y-85506505D01*
X164950688Y-85274070D01*
X165076856Y-84970222D01*
X165077143Y-84641221D01*
X164951505Y-84337154D01*
X164944728Y-84330365D01*
X165535000Y-84330365D01*
X165693237Y-84300591D01*
X165838567Y-84207073D01*
X165936064Y-84064381D01*
X165970365Y-83895000D01*
X165970365Y-82905000D01*
X165940591Y-82746763D01*
X165847073Y-82601433D01*
X165771827Y-82550020D01*
X165838567Y-82507073D01*
X165936064Y-82364381D01*
X165970365Y-82195000D01*
X165970365Y-81205000D01*
X165940591Y-81046763D01*
X165847073Y-80901433D01*
X165704381Y-80803936D01*
X165535000Y-80769635D01*
X165230281Y-80769635D01*
X164710672Y-80250026D01*
X164826856Y-79970222D01*
X164827143Y-79641221D01*
X164701505Y-79337154D01*
X164469070Y-79104312D01*
X164165222Y-78978144D01*
X163836221Y-78977857D01*
X163685393Y-79040178D01*
X163601505Y-78837154D01*
X163369070Y-78604312D01*
X163122674Y-78502000D01*
X171623000Y-78502000D01*
X171623000Y-81942756D01*
G36*
X162691694Y-103942838D02*
X162924129Y-104175680D01*
X163227977Y-104301848D01*
X163335260Y-104301942D01*
X163210484Y-104602438D01*
X163210197Y-104931439D01*
X163220241Y-104955748D01*
X163069070Y-104804312D01*
X162765222Y-104678144D01*
X162698732Y-104678086D01*
X162670365Y-104649719D01*
X162670365Y-104005000D01*
X162640591Y-103846763D01*
X162627874Y-103827000D01*
X162643831Y-103827000D01*
X162691694Y-103942838D01*
X162691694Y-103942838D01*
G37*
X162691694Y-103942838D02*
X162924129Y-104175680D01*
X163227977Y-104301848D01*
X163335260Y-104301942D01*
X163210484Y-104602438D01*
X163210197Y-104931439D01*
X163220241Y-104955748D01*
X163069070Y-104804312D01*
X162765222Y-104678144D01*
X162698732Y-104678086D01*
X162670365Y-104649719D01*
X162670365Y-104005000D01*
X162640591Y-103846763D01*
X162627874Y-103827000D01*
X162643831Y-103827000D01*
X162691694Y-103942838D01*
G36*
X162357000Y-102773000D02*
X162377000Y-102773000D01*
X162377000Y-103027000D01*
X162357000Y-103027000D01*
X162357000Y-103047000D01*
X162103000Y-103047000D01*
X162103000Y-103027000D01*
X162083000Y-103027000D01*
X162083000Y-102773000D01*
X162103000Y-102773000D01*
X162103000Y-102753000D01*
X162357000Y-102753000D01*
X162357000Y-102773000D01*
X162357000Y-102773000D01*
G37*
X162357000Y-102773000D02*
X162377000Y-102773000D01*
X162377000Y-103027000D01*
X162357000Y-103027000D01*
X162357000Y-103047000D01*
X162103000Y-103047000D01*
X162103000Y-103027000D01*
X162083000Y-103027000D01*
X162083000Y-102773000D01*
X162103000Y-102773000D01*
X162103000Y-102753000D01*
X162357000Y-102753000D01*
X162357000Y-102773000D01*
G36*
X157062500Y-94838369D02*
X157062500Y-94940842D01*
X157147527Y-95031921D01*
X157244531Y-94999081D01*
X157288759Y-95028633D01*
X157448000Y-95060308D01*
X157448000Y-95200000D01*
X157490018Y-95411242D01*
X157609677Y-95590323D01*
X157817354Y-95798000D01*
X157283750Y-95798000D01*
X157177000Y-95904750D01*
X157177000Y-96798000D01*
X158323000Y-96798000D01*
X158323000Y-96778000D01*
X158577000Y-96778000D01*
X158577000Y-96798000D01*
X158597000Y-96798000D01*
X158597000Y-97052000D01*
X158577000Y-97052000D01*
X158577000Y-98198000D01*
X158597000Y-98198000D01*
X158597000Y-98452000D01*
X158577000Y-98452000D01*
X158577000Y-98472000D01*
X158323000Y-98472000D01*
X158323000Y-98452000D01*
X157177000Y-98452000D01*
X157177000Y-99345250D01*
X157283750Y-99452000D01*
X158216250Y-99452000D01*
X158322998Y-99345252D01*
X158322998Y-99452000D01*
X158378358Y-99452000D01*
X158311972Y-99518270D01*
X158185804Y-99822118D01*
X158185517Y-100151119D01*
X158215802Y-100224415D01*
X158211241Y-100221367D01*
X158000000Y-100179349D01*
X157788759Y-100221367D01*
X157750000Y-100247265D01*
X157711241Y-100221367D01*
X157500000Y-100179349D01*
X157288759Y-100221367D01*
X157250000Y-100247265D01*
X157211241Y-100221367D01*
X157000000Y-100179349D01*
X156788759Y-100221367D01*
X156750000Y-100247265D01*
X156711241Y-100221367D01*
X156500000Y-100179349D01*
X156288759Y-100221367D01*
X156250000Y-100247265D01*
X156211241Y-100221367D01*
X156000000Y-100179349D01*
X155788759Y-100221367D01*
X155750000Y-100247265D01*
X155711241Y-100221367D01*
X155709605Y-100221041D01*
X156090323Y-99840323D01*
X156209982Y-99661242D01*
X156252000Y-99450000D01*
X156252000Y-99446588D01*
X156265065Y-99452000D01*
X156816250Y-99452000D01*
X156923000Y-99345250D01*
X156923000Y-98452000D01*
X156903000Y-98452000D01*
X156903000Y-98198000D01*
X156923000Y-98198000D01*
X156923000Y-97052000D01*
X157177000Y-97052000D01*
X157177000Y-98198000D01*
X158323000Y-98198000D01*
X158323000Y-97052000D01*
X157177000Y-97052000D01*
X156923000Y-97052000D01*
X156903000Y-97052000D01*
X156903000Y-96798000D01*
X156923000Y-96798000D01*
X156923000Y-95904750D01*
X156816250Y-95798000D01*
X156625835Y-95798000D01*
X156625835Y-95273835D01*
X156624142Y-95265323D01*
X156583817Y-95062593D01*
X156578736Y-95054990D01*
X156711241Y-95028633D01*
X156755469Y-94999081D01*
X156852473Y-95031921D01*
X156937500Y-94940842D01*
X156937500Y-94838369D01*
X157000000Y-94744831D01*
X157062500Y-94838369D01*
X157062500Y-94838369D01*
G37*
X157062500Y-94838369D02*
X157062500Y-94940842D01*
X157147527Y-95031921D01*
X157244531Y-94999081D01*
X157288759Y-95028633D01*
X157448000Y-95060308D01*
X157448000Y-95200000D01*
X157490018Y-95411242D01*
X157609677Y-95590323D01*
X157817354Y-95798000D01*
X157283750Y-95798000D01*
X157177000Y-95904750D01*
X157177000Y-96798000D01*
X158323000Y-96798000D01*
X158323000Y-96778000D01*
X158577000Y-96778000D01*
X158577000Y-96798000D01*
X158597000Y-96798000D01*
X158597000Y-97052000D01*
X158577000Y-97052000D01*
X158577000Y-98198000D01*
X158597000Y-98198000D01*
X158597000Y-98452000D01*
X158577000Y-98452000D01*
X158577000Y-98472000D01*
X158323000Y-98472000D01*
X158323000Y-98452000D01*
X157177000Y-98452000D01*
X157177000Y-99345250D01*
X157283750Y-99452000D01*
X158216250Y-99452000D01*
X158322998Y-99345252D01*
X158322998Y-99452000D01*
X158378358Y-99452000D01*
X158311972Y-99518270D01*
X158185804Y-99822118D01*
X158185517Y-100151119D01*
X158215802Y-100224415D01*
X158211241Y-100221367D01*
X158000000Y-100179349D01*
X157788759Y-100221367D01*
X157750000Y-100247265D01*
X157711241Y-100221367D01*
X157500000Y-100179349D01*
X157288759Y-100221367D01*
X157250000Y-100247265D01*
X157211241Y-100221367D01*
X157000000Y-100179349D01*
X156788759Y-100221367D01*
X156750000Y-100247265D01*
X156711241Y-100221367D01*
X156500000Y-100179349D01*
X156288759Y-100221367D01*
X156250000Y-100247265D01*
X156211241Y-100221367D01*
X156000000Y-100179349D01*
X155788759Y-100221367D01*
X155750000Y-100247265D01*
X155711241Y-100221367D01*
X155709605Y-100221041D01*
X156090323Y-99840323D01*
X156209982Y-99661242D01*
X156252000Y-99450000D01*
X156252000Y-99446588D01*
X156265065Y-99452000D01*
X156816250Y-99452000D01*
X156923000Y-99345250D01*
X156923000Y-98452000D01*
X156903000Y-98452000D01*
X156903000Y-98198000D01*
X156923000Y-98198000D01*
X156923000Y-97052000D01*
X157177000Y-97052000D01*
X157177000Y-98198000D01*
X158323000Y-98198000D01*
X158323000Y-97052000D01*
X157177000Y-97052000D01*
X156923000Y-97052000D01*
X156903000Y-97052000D01*
X156903000Y-96798000D01*
X156923000Y-96798000D01*
X156923000Y-95904750D01*
X156816250Y-95798000D01*
X156625835Y-95798000D01*
X156625835Y-95273835D01*
X156624142Y-95265323D01*
X156583817Y-95062593D01*
X156578736Y-95054990D01*
X156711241Y-95028633D01*
X156755469Y-94999081D01*
X156852473Y-95031921D01*
X156937500Y-94940842D01*
X156937500Y-94838369D01*
X157000000Y-94744831D01*
X157062500Y-94838369D01*
G36*
X161848022Y-92628668D02*
X161848022Y-94353706D01*
X161693651Y-94323000D01*
X161691793Y-94323000D01*
X161684982Y-94288759D01*
X161565323Y-94109677D01*
X161502011Y-94046365D01*
X161502011Y-92282657D01*
X161848022Y-92628668D01*
X161848022Y-92628668D01*
G37*
X161848022Y-92628668D02*
X161848022Y-94353706D01*
X161693651Y-94323000D01*
X161691793Y-94323000D01*
X161684982Y-94288759D01*
X161565323Y-94109677D01*
X161502011Y-94046365D01*
X161502011Y-92282657D01*
X161848022Y-92628668D01*
G36*
X155133748Y-83805858D02*
X155119605Y-83820000D01*
X155133748Y-83834143D01*
X154954143Y-84013748D01*
X154940000Y-83999605D01*
X154925858Y-84013748D01*
X154746253Y-83834143D01*
X154760395Y-83820000D01*
X154746253Y-83805858D01*
X154925858Y-83626253D01*
X154940000Y-83640395D01*
X154954143Y-83626253D01*
X155133748Y-83805858D01*
X155133748Y-83805858D01*
G37*
X155133748Y-83805858D02*
X155119605Y-83820000D01*
X155133748Y-83834143D01*
X154954143Y-84013748D01*
X154940000Y-83999605D01*
X154925858Y-84013748D01*
X154746253Y-83834143D01*
X154760395Y-83820000D01*
X154746253Y-83805858D01*
X154925858Y-83626253D01*
X154940000Y-83640395D01*
X154954143Y-83626253D01*
X155133748Y-83805858D01*
G36*
X184748000Y-92378000D02*
X179429279Y-92378000D01*
X179455488Y-92360488D01*
X180155488Y-91660488D01*
X180356436Y-91359747D01*
X180427000Y-91005000D01*
X180356436Y-90650253D01*
X180155488Y-90349512D01*
X179854747Y-90148564D01*
X179500000Y-90078000D01*
X179145253Y-90148564D01*
X179127000Y-90160760D01*
X179127000Y-86343591D01*
X179130619Y-86346064D01*
X179300000Y-86380365D01*
X180450000Y-86380365D01*
X180608237Y-86350591D01*
X180753567Y-86257073D01*
X180851064Y-86114381D01*
X180885365Y-85945000D01*
X180885365Y-85245000D01*
X180855591Y-85086763D01*
X180762073Y-84941433D01*
X180619381Y-84843936D01*
X180450000Y-84809635D01*
X180427000Y-84809635D01*
X180427000Y-84630000D01*
X180405121Y-84520006D01*
X181275380Y-84881369D01*
X182718290Y-84882628D01*
X184051846Y-84331614D01*
X184251809Y-84132000D01*
X184748000Y-84132000D01*
X184748000Y-92378000D01*
X184748000Y-92378000D01*
G37*
X184748000Y-92378000D02*
X179429279Y-92378000D01*
X179455488Y-92360488D01*
X180155488Y-91660488D01*
X180356436Y-91359747D01*
X180427000Y-91005000D01*
X180356436Y-90650253D01*
X180155488Y-90349512D01*
X179854747Y-90148564D01*
X179500000Y-90078000D01*
X179145253Y-90148564D01*
X179127000Y-90160760D01*
X179127000Y-86343591D01*
X179130619Y-86346064D01*
X179300000Y-86380365D01*
X180450000Y-86380365D01*
X180608237Y-86350591D01*
X180753567Y-86257073D01*
X180851064Y-86114381D01*
X180885365Y-85945000D01*
X180885365Y-85245000D01*
X180855591Y-85086763D01*
X180762073Y-84941433D01*
X180619381Y-84843936D01*
X180450000Y-84809635D01*
X180427000Y-84809635D01*
X180427000Y-84630000D01*
X180405121Y-84520006D01*
X181275380Y-84881369D01*
X182718290Y-84882628D01*
X184051846Y-84331614D01*
X184251809Y-84132000D01*
X184748000Y-84132000D01*
X184748000Y-92378000D01*
G36*
X184748000Y-101128000D02*
X180927206Y-101128000D01*
X181106447Y-100859747D01*
X181177010Y-100505000D01*
X181106447Y-100150253D01*
X180905498Y-99849512D01*
X180604757Y-99648563D01*
X180250010Y-99578000D01*
X179895263Y-99648563D01*
X179709030Y-99773000D01*
X179381765Y-99773000D01*
X179380591Y-99766763D01*
X179287073Y-99621433D01*
X179144381Y-99523936D01*
X179127000Y-99520416D01*
X179127000Y-95223183D01*
X179255619Y-95311064D01*
X179425000Y-95345365D01*
X180575000Y-95345365D01*
X180733237Y-95315591D01*
X180878567Y-95222073D01*
X180976064Y-95079381D01*
X181010365Y-94910000D01*
X181010365Y-94210000D01*
X180980591Y-94051763D01*
X180887073Y-93906433D01*
X180744381Y-93808936D01*
X180591075Y-93777890D01*
X180672863Y-93696245D01*
X180799031Y-93392397D01*
X180799258Y-93132000D01*
X184748000Y-93132000D01*
X184748000Y-101128000D01*
X184748000Y-101128000D01*
G37*
X184748000Y-101128000D02*
X180927206Y-101128000D01*
X181106447Y-100859747D01*
X181177010Y-100505000D01*
X181106447Y-100150253D01*
X180905498Y-99849512D01*
X180604757Y-99648563D01*
X180250010Y-99578000D01*
X179895263Y-99648563D01*
X179709030Y-99773000D01*
X179381765Y-99773000D01*
X179380591Y-99766763D01*
X179287073Y-99621433D01*
X179144381Y-99523936D01*
X179127000Y-99520416D01*
X179127000Y-95223183D01*
X179255619Y-95311064D01*
X179425000Y-95345365D01*
X180575000Y-95345365D01*
X180733237Y-95315591D01*
X180878567Y-95222073D01*
X180976064Y-95079381D01*
X181010365Y-94910000D01*
X181010365Y-94210000D01*
X180980591Y-94051763D01*
X180887073Y-93906433D01*
X180744381Y-93808936D01*
X180591075Y-93777890D01*
X180672863Y-93696245D01*
X180799031Y-93392397D01*
X180799258Y-93132000D01*
X184748000Y-93132000D01*
X184748000Y-101128000D01*
G36*
X184748000Y-109378000D02*
X183325167Y-109378000D01*
X182724620Y-109128631D01*
X181281710Y-109127372D01*
X180675144Y-109378000D01*
X179347446Y-109378000D01*
X179169070Y-109199312D01*
X179127000Y-109181843D01*
X179127000Y-104067735D01*
X179162927Y-104123567D01*
X179305619Y-104221064D01*
X179475000Y-104255365D01*
X180625000Y-104255365D01*
X180783237Y-104225591D01*
X180928567Y-104132073D01*
X181026064Y-103989381D01*
X181060365Y-103820000D01*
X181060365Y-103120000D01*
X181030591Y-102961763D01*
X180937073Y-102816433D01*
X180794381Y-102718936D01*
X180625000Y-102684635D01*
X179820281Y-102684635D01*
X179517918Y-102382272D01*
X179576856Y-102240332D01*
X179577143Y-101911331D01*
X179565024Y-101882000D01*
X184748000Y-101882000D01*
X184748000Y-109378000D01*
X184748000Y-109378000D01*
G37*
X184748000Y-109378000D02*
X183325167Y-109378000D01*
X182724620Y-109128631D01*
X181281710Y-109127372D01*
X180675144Y-109378000D01*
X179347446Y-109378000D01*
X179169070Y-109199312D01*
X179127000Y-109181843D01*
X179127000Y-104067735D01*
X179162927Y-104123567D01*
X179305619Y-104221064D01*
X179475000Y-104255365D01*
X180625000Y-104255365D01*
X180783237Y-104225591D01*
X180928567Y-104132073D01*
X181026064Y-103989381D01*
X181060365Y-103820000D01*
X181060365Y-103120000D01*
X181030591Y-102961763D01*
X180937073Y-102816433D01*
X180794381Y-102718936D01*
X180625000Y-102684635D01*
X179820281Y-102684635D01*
X179517918Y-102382272D01*
X179576856Y-102240332D01*
X179577143Y-101911331D01*
X179565024Y-101882000D01*
X184748000Y-101882000D01*
X184748000Y-109378000D01*
M02*
